<svg xmlns="http://www.w3.org/2000/svg" width="750" height="1048"><path d="M2 2h20v32H2z" style="stroke:#000;stroke-width:1px;fill:#f0f8ff"/><text x="24" y="14" style="font-size:12.6px;color:currentColor"><tspan>aliceblue</tspan></text><text x="24" y="32" style="font-size:12.6px;color:currentColor"><tspan>#f0f8ff</tspan></text><path d="M152 2h20v32h-20z" style="stroke:#000;stroke-width:1px;fill:#faebd7"/><text x="174" y="14" style="font-size:12.6px;color:currentColor"><tspan>antiquewhite</tspan></text><text x="174" y="32" style="font-size:12.6px;color:currentColor"><tspan>#faebd7</tspan></text><path d="M302 2h20v32h-20z" style="stroke:#000;stroke-width:1px;fill:#0ff"/><text x="324" y="14" style="font-size:12.6px;color:currentColor"><tspan>aqua</tspan></text><text x="324" y="32" style="font-size:12.6px;color:currentColor"><tspan>#00ffff</tspan></text><path d="M452 2h20v32h-20z" style="stroke:#000;stroke-width:1px;fill:#7fffd4"/><text x="474" y="14" style="font-size:12.6px;color:currentColor"><tspan>aquamarine</tspan></text><text x="474" y="32" style="font-size:12.6px;color:currentColor"><tspan>#7fffd4</tspan></text><path d="M602 2h20v32h-20z" style="stroke:#000;stroke-width:1px;fill:azure"/><text x="624" y="14" style="font-size:12.6px;color:currentColor"><tspan>azure</tspan></text><text x="624" y="32" style="font-size:12.6px;color:currentColor"><tspan>#f0ffff</tspan></text><path d="M2 38h20v32H2z" style="stroke:#000;stroke-width:1px;fill:beige"/><text x="24" y="50" style="font-size:12.6px;color:currentColor"><tspan>beige</tspan></text><text x="24" y="68" style="font-size:12.6px;color:currentColor"><tspan>#f5f5dc</tspan></text><path d="M152 38h20v32h-20z" style="stroke:#000;stroke-width:1px;fill:bisque"/><text x="174" y="50" style="font-size:12.6px;color:currentColor"><tspan>bisque</tspan></text><text x="174" y="68" style="font-size:12.6px;color:currentColor"><tspan>#ffe4c4</tspan></text><path d="M302 38h20v32h-20z" style="stroke:#000;stroke-width:1px;fill:#000"/><text x="324" y="50" style="font-size:12.6px;color:currentColor"><tspan>black</tspan></text><text x="324" y="68" style="font-size:12.6px;color:currentColor"><tspan>#000000</tspan></text><path d="M452 38h20v32h-20z" style="stroke:#000;stroke-width:1px;fill:#ffebcd"/><text x="474" y="50" style="font-size:12.6px;color:currentColor"><tspan>blanchedalmond</tspan></text><text x="474" y="68" style="font-size:12.6px;color:currentColor"><tspan>#ffebcd</tspan></text><path d="M602 38h20v32h-20z" style="stroke:#000;stroke-width:1px;fill:#00f"/><text x="624" y="50" style="font-size:12.6px;color:currentColor"><tspan>blue</tspan></text><text x="624" y="68" style="font-size:12.6px;color:currentColor"><tspan>#0000ff</tspan></text><path d="M2 74h20v32H2z" style="stroke:#000;stroke-width:1px;fill:#8a2be2"/><text x="24" y="86" style="font-size:12.6px;color:currentColor"><tspan>blueviolet</tspan></text><text x="24" y="104" style="font-size:12.6px;color:currentColor"><tspan>#8a2be2</tspan></text><path d="M152 74h20v32h-20z" style="stroke:#000;stroke-width:1px;fill:brown"/><text x="174" y="86" style="font-size:12.6px;color:currentColor"><tspan>brown</tspan></text><text x="174" y="104" style="font-size:12.6px;color:currentColor"><tspan>#a52a2a</tspan></text><path d="M302 74h20v32h-20z" style="stroke:#000;stroke-width:1px;fill:#deb887"/><text x="324" y="86" style="font-size:12.6px;color:currentColor"><tspan>burlywood</tspan></text><text x="324" y="104" style="font-size:12.6px;color:currentColor"><tspan>#deb887</tspan></text><path d="M452 74h20v32h-20z" style="stroke:#000;stroke-width:1px;fill:#5f9ea0"/><text x="474" y="86" style="font-size:12.6px;color:currentColor"><tspan>cadetblue</tspan></text><text x="474" y="104" style="font-size:12.6px;color:currentColor"><tspan>#5f9ea0</tspan></text><path d="M602 74h20v32h-20z" style="stroke:#000;stroke-width:1px;fill:#7fff00"/><text x="624" y="86" style="font-size:12.6px;color:currentColor"><tspan>chartreuse</tspan></text><text x="624" y="104" style="font-size:12.6px;color:currentColor"><tspan>#7fff00</tspan></text><path d="M2 110h20v32H2z" style="stroke:#000;stroke-width:1px;fill:#d2691e"/><text x="24" y="122" style="font-size:12.6px;color:currentColor"><tspan>chocolate</tspan></text><text x="24" y="140" style="font-size:12.6px;color:currentColor"><tspan>#d2691e</tspan></text><path d="M152 110h20v32h-20z" style="stroke:#000;stroke-width:1px;fill:coral"/><text x="174" y="122" style="font-size:12.6px;color:currentColor"><tspan>coral</tspan></text><text x="174" y="140" style="font-size:12.6px;color:currentColor"><tspan>#ff7f50</tspan></text><path d="M302 110h20v32h-20z" style="stroke:#000;stroke-width:1px;fill:#6495ed"/><text x="324" y="122" style="font-size:12.6px;color:currentColor"><tspan>cornflowerblue</tspan></text><text x="324" y="140" style="font-size:12.6px;color:currentColor"><tspan>#6495ed</tspan></text><path d="M452 110h20v32h-20z" style="stroke:#000;stroke-width:1px;fill:#fff8dc"/><text x="474" y="122" style="font-size:12.6px;color:currentColor"><tspan>cornsilk</tspan></text><text x="474" y="140" style="font-size:12.6px;color:currentColor"><tspan>#fff8dc</tspan></text><path d="M602 110h20v32h-20z" style="stroke:#000;stroke-width:1px;fill:#dc143c"/><text x="624" y="122" style="font-size:12.6px;color:currentColor"><tspan>crimson</tspan></text><text x="624" y="140" style="font-size:12.6px;color:currentColor"><tspan>#dc143c</tspan></text><path d="M2 146h20v32H2z" style="stroke:#000;stroke-width:1px;fill:#0ff"/><text x="24" y="158" style="font-size:12.6px;color:currentColor"><tspan>cyan</tspan></text><text x="24" y="176" style="font-size:12.6px;color:currentColor"><tspan>#00ffff</tspan></text><path d="M152 146h20v32h-20z" style="stroke:#000;stroke-width:1px;fill:#00008b"/><text x="174" y="158" style="font-size:12.6px;color:currentColor"><tspan>darkblue</tspan></text><text x="174" y="176" style="font-size:12.6px;color:currentColor"><tspan>#00008b</tspan></text><path d="M302 146h20v32h-20z" style="stroke:#000;stroke-width:1px;fill:#008b8b"/><text x="324" y="158" style="font-size:12.6px;color:currentColor"><tspan>darkcyan</tspan></text><text x="324" y="176" style="font-size:12.6px;color:currentColor"><tspan>#008b8b</tspan></text><path d="M452 146h20v32h-20z" style="stroke:#000;stroke-width:1px;fill:#b8860b"/><text x="474" y="158" style="font-size:12.6px;color:currentColor"><tspan>darkgoldenrod</tspan></text><text x="474" y="176" style="font-size:12.6px;color:currentColor"><tspan>#b8860b</tspan></text><path d="M602 146h20v32h-20z" style="stroke:#000;stroke-width:1px;fill:#a9a9a9"/><text x="624" y="158" style="font-size:12.6px;color:currentColor"><tspan>darkgray</tspan></text><text x="624" y="176" style="font-size:12.6px;color:currentColor"><tspan>#a9a9a9</tspan></text><path d="M2 182h20v32H2z" style="stroke:#000;stroke-width:1px;fill:#006400"/><text x="24" y="194" style="font-size:12.6px;color:currentColor"><tspan>darkgreen</tspan></text><text x="24" y="212" style="font-size:12.6px;color:currentColor"><tspan>#006400</tspan></text><path d="M152 182h20v32h-20z" style="stroke:#000;stroke-width:1px;fill:#bdb76b"/><text x="174" y="194" style="font-size:12.6px;color:currentColor"><tspan>darkkhaki</tspan></text><text x="174" y="212" style="font-size:12.6px;color:currentColor"><tspan>#bdb76b</tspan></text><path d="M302 182h20v32h-20z" style="stroke:#000;stroke-width:1px;fill:#8b008b"/><text x="324" y="194" style="font-size:12.6px;color:currentColor"><tspan>darkmagenta</tspan></text><text x="324" y="212" style="font-size:12.6px;color:currentColor"><tspan>#8b008b</tspan></text><path d="M452 182h20v32h-20z" style="stroke:#000;stroke-width:1px;fill:#556b2f"/><text x="474" y="194" style="font-size:12.6px;color:currentColor"><tspan>darkolivegreen</tspan></text><text x="474" y="212" style="font-size:12.6px;color:currentColor"><tspan>#556b2f</tspan></text><path d="M602 182h20v32h-20z" style="stroke:#000;stroke-width:1px;fill:#ff8c00"/><text x="624" y="194" style="font-size:12.6px;color:currentColor"><tspan>darkorange</tspan></text><text x="624" y="212" style="font-size:12.6px;color:currentColor"><tspan>#ff8c00</tspan></text><path d="M2 218h20v32H2z" style="stroke:#000;stroke-width:1px;fill:#9932cc"/><text x="24" y="230" style="font-size:12.6px;color:currentColor"><tspan>darkorchid</tspan></text><text x="24" y="248" style="font-size:12.6px;color:currentColor"><tspan>#9932cc</tspan></text><path d="M152 218h20v32h-20z" style="stroke:#000;stroke-width:1px;fill:#8b0000"/><text x="174" y="230" style="font-size:12.6px;color:currentColor"><tspan>darkred</tspan></text><text x="174" y="248" style="font-size:12.6px;color:currentColor"><tspan>#8b0000</tspan></text><path d="M302 218h20v32h-20z" style="stroke:#000;stroke-width:1px;fill:#e9967a"/><text x="324" y="230" style="font-size:12.6px;color:currentColor"><tspan>darksalmon</tspan></text><text x="324" y="248" style="font-size:12.6px;color:currentColor"><tspan>#e9967a</tspan></text><path d="M452 218h20v32h-20z" style="stroke:#000;stroke-width:1px;fill:#8fbc8f"/><text x="474" y="230" style="font-size:12.6px;color:currentColor"><tspan>darkseagreen</tspan></text><text x="474" y="248" style="font-size:12.6px;color:currentColor"><tspan>#8fbc8f</tspan></text><path d="M602 218h20v32h-20z" style="stroke:#000;stroke-width:1px;fill:#483d8b"/><text x="624" y="230" style="font-size:12.6px;color:currentColor"><tspan>darkslateblue</tspan></text><text x="624" y="248" style="font-size:12.6px;color:currentColor"><tspan>#483d8b</tspan></text><path d="M2 254h20v32H2z" style="stroke:#000;stroke-width:1px;fill:#2f4f4f"/><text x="24" y="266" style="font-size:12.6px;color:currentColor"><tspan>darkslategray</tspan></text><text x="24" y="284" style="font-size:12.6px;color:currentColor"><tspan>#2f4f4f</tspan></text><path d="M152 254h20v32h-20z" style="stroke:#000;stroke-width:1px;fill:#00ced1"/><text x="174" y="266" style="font-size:12.6px;color:currentColor"><tspan>darkturquoise</tspan></text><text x="174" y="284" style="font-size:12.6px;color:currentColor"><tspan>#00ced1</tspan></text><path d="M302 254h20v32h-20z" style="stroke:#000;stroke-width:1px;fill:#9400d3"/><text x="324" y="266" style="font-size:12.6px;color:currentColor"><tspan>darkviolet</tspan></text><text x="324" y="284" style="font-size:12.6px;color:currentColor"><tspan>#9400d3</tspan></text><path d="M452 254h20v32h-20z" style="stroke:#000;stroke-width:1px;fill:#ff1493"/><text x="474" y="266" style="font-size:12.6px;color:currentColor"><tspan>deeppink</tspan></text><text x="474" y="284" style="font-size:12.6px;color:currentColor"><tspan>#ff1493</tspan></text><path d="M602 254h20v32h-20z" style="stroke:#000;stroke-width:1px;fill:#00bfff"/><text x="624" y="266" style="font-size:12.6px;color:currentColor"><tspan>deepskyblue</tspan></text><text x="624" y="284" style="font-size:12.6px;color:currentColor"><tspan>#00bfff</tspan></text><path d="M2 290h20v32H2z" style="stroke:#000;stroke-width:1px;fill:#696969"/><text x="24" y="302" style="font-size:12.6px;color:currentColor"><tspan>dimgray</tspan></text><text x="24" y="320" style="font-size:12.6px;color:currentColor"><tspan>#696969</tspan></text><path d="M152 290h20v32h-20z" style="stroke:#000;stroke-width:1px;fill:#1e90ff"/><text x="174" y="302" style="font-size:12.6px;color:currentColor"><tspan>dodgerblue</tspan></text><text x="174" y="320" style="font-size:12.6px;color:currentColor"><tspan>#1e90ff</tspan></text><path d="M302 290h20v32h-20z" style="stroke:#000;stroke-width:1px;fill:#b22222"/><text x="324" y="302" style="font-size:12.6px;color:currentColor"><tspan>firebrick</tspan></text><text x="324" y="320" style="font-size:12.6px;color:currentColor"><tspan>#b22222</tspan></text><path d="M452 290h20v32h-20z" style="stroke:#000;stroke-width:1px;fill:#fffaf0"/><text x="474" y="302" style="font-size:12.6px;color:currentColor"><tspan>floralwhite</tspan></text><text x="474" y="320" style="font-size:12.6px;color:currentColor"><tspan>#fffaf0</tspan></text><path d="M602 290h20v32h-20z" style="stroke:#000;stroke-width:1px;fill:#228b22"/><text x="624" y="302" style="font-size:12.6px;color:currentColor"><tspan>forestgreen</tspan></text><text x="624" y="320" style="font-size:12.6px;color:currentColor"><tspan>#228b22</tspan></text><path d="M2 326h20v32H2z" style="stroke:#000;stroke-width:1px;fill:#f0f"/><text x="24" y="338" style="font-size:12.6px;color:currentColor"><tspan>fuchsia</tspan></text><text x="24" y="356" style="font-size:12.6px;color:currentColor"><tspan>#ff00ff</tspan></text><path d="M152 326h20v32h-20z" style="stroke:#000;stroke-width:1px;fill:#dcdcdc"/><text x="174" y="338" style="font-size:12.6px;color:currentColor"><tspan>gainsboro</tspan></text><text x="174" y="356" style="font-size:12.6px;color:currentColor"><tspan>#dcdcdc</tspan></text><path d="M302 326h20v32h-20z" style="stroke:#000;stroke-width:1px;fill:#f8f8ff"/><text x="324" y="338" style="font-size:12.6px;color:currentColor"><tspan>ghostwhite</tspan></text><text x="324" y="356" style="font-size:12.6px;color:currentColor"><tspan>#f8f8ff</tspan></text><path d="M452 326h20v32h-20z" style="stroke:#000;stroke-width:1px;fill:gold"/><text x="474" y="338" style="font-size:12.6px;color:currentColor"><tspan>gold</tspan></text><text x="474" y="356" style="font-size:12.6px;color:currentColor"><tspan>#ffd700</tspan></text><path d="M602 326h20v32h-20z" style="stroke:#000;stroke-width:1px;fill:#daa520"/><text x="624" y="338" style="font-size:12.6px;color:currentColor"><tspan>goldenrod</tspan></text><text x="624" y="356" style="font-size:12.6px;color:currentColor"><tspan>#daa520</tspan></text><path d="M2 362h20v32H2z" style="stroke:#000;stroke-width:1px;fill:gray"/><text x="24" y="374" style="font-size:12.6px;color:currentColor"><tspan>gray</tspan></text><text x="24" y="392" style="font-size:12.6px;color:currentColor"><tspan>#808080</tspan></text><path d="M152 362h20v32h-20z" style="stroke:#000;stroke-width:1px;fill:green"/><text x="174" y="374" style="font-size:12.6px;color:currentColor"><tspan>green</tspan></text><text x="174" y="392" style="font-size:12.6px;color:currentColor"><tspan>#008000</tspan></text><path d="M302 362h20v32h-20z" style="stroke:#000;stroke-width:1px;fill:#adff2f"/><text x="324" y="374" style="font-size:12.6px;color:currentColor"><tspan>greenyellow</tspan></text><text x="324" y="392" style="font-size:12.6px;color:currentColor"><tspan>#adff2f</tspan></text><path d="M452 362h20v32h-20z" style="stroke:#000;stroke-width:1px;fill:#f0fff0"/><text x="474" y="374" style="font-size:12.6px;color:currentColor"><tspan>honeydew</tspan></text><text x="474" y="392" style="font-size:12.6px;color:currentColor"><tspan>#f0fff0</tspan></text><path d="M602 362h20v32h-20z" style="stroke:#000;stroke-width:1px;fill:#ff69b4"/><text x="624" y="374" style="font-size:12.6px;color:currentColor"><tspan>hotpink</tspan></text><text x="624" y="392" style="font-size:12.6px;color:currentColor"><tspan>#ff69b4</tspan></text><path d="M2 398h20v32H2z" style="stroke:#000;stroke-width:1px;fill:#cd5c5c"/><text x="24" y="410" style="font-size:12.6px;color:currentColor"><tspan>indianred</tspan></text><text x="24" y="428" style="font-size:12.6px;color:currentColor"><tspan>#cd5c5c</tspan></text><path d="M152 398h20v32h-20z" style="stroke:#000;stroke-width:1px;fill:indigo"/><text x="174" y="410" style="font-size:12.6px;color:currentColor"><tspan>indigo</tspan></text><text x="174" y="428" style="font-size:12.6px;color:currentColor"><tspan>#4b0082</tspan></text><path d="M302 398h20v32h-20z" style="stroke:#000;stroke-width:1px;fill:ivory"/><text x="324" y="410" style="font-size:12.6px;color:currentColor"><tspan>ivory</tspan></text><text x="324" y="428" style="font-size:12.6px;color:currentColor"><tspan>#fffff0</tspan></text><path d="M452 398h20v32h-20z" style="stroke:#000;stroke-width:1px;fill:khaki"/><text x="474" y="410" style="font-size:12.6px;color:currentColor"><tspan>khaki</tspan></text><text x="474" y="428" style="font-size:12.6px;color:currentColor"><tspan>#f0e68c</tspan></text><path d="M602 398h20v32h-20z" style="stroke:#000;stroke-width:1px;fill:#e6e6fa"/><text x="624" y="410" style="font-size:12.6px;color:currentColor"><tspan>lavender</tspan></text><text x="624" y="428" style="font-size:12.6px;color:currentColor"><tspan>#e6e6fa</tspan></text><path d="M2 434h20v32H2z" style="stroke:#000;stroke-width:1px;fill:#fff0f5"/><text x="24" y="446" style="font-size:12.6px;color:currentColor"><tspan>lavenderblush</tspan></text><text x="24" y="464" style="font-size:12.6px;color:currentColor"><tspan>#fff0f5</tspan></text><path d="M152 434h20v32h-20z" style="stroke:#000;stroke-width:1px;fill:#7cfc00"/><text x="174" y="446" style="font-size:12.6px;color:currentColor"><tspan>lawngreen</tspan></text><text x="174" y="464" style="font-size:12.6px;color:currentColor"><tspan>#7cfc00</tspan></text><path d="M302 434h20v32h-20z" style="stroke:#000;stroke-width:1px;fill:#fffacd"/><text x="324" y="446" style="font-size:12.6px;color:currentColor"><tspan>lemonchiffon</tspan></text><text x="324" y="464" style="font-size:12.6px;color:currentColor"><tspan>#fffacd</tspan></text><path d="M452 434h20v32h-20z" style="stroke:#000;stroke-width:1px;fill:#add8e6"/><text x="474" y="446" style="font-size:12.6px;color:currentColor"><tspan>lightblue</tspan></text><text x="474" y="464" style="font-size:12.6px;color:currentColor"><tspan>#add8e6</tspan></text><path d="M602 434h20v32h-20z" style="stroke:#000;stroke-width:1px;fill:#f08080"/><text x="624" y="446" style="font-size:12.6px;color:currentColor"><tspan>lightcoral</tspan></text><text x="624" y="464" style="font-size:12.6px;color:currentColor"><tspan>#f08080</tspan></text><path d="M2 470h20v32H2z" style="stroke:#000;stroke-width:1px;fill:#e0ffff"/><text x="24" y="482" style="font-size:12.6px;color:currentColor"><tspan>lightcyan</tspan></text><text x="24" y="500" style="font-size:12.6px;color:currentColor"><tspan>#e0ffff</tspan></text><path d="M152 470h20v32h-20z" style="stroke:#000;stroke-width:1px;fill:#fafad2"/><text x="174" y="482" style="font-size:12.6px;color:currentColor"><tspan>lightgoldenrodyellow</tspan></text><text x="174" y="500" style="font-size:12.6px;color:currentColor"><tspan>#fafad2</tspan></text><path d="M302 470h20v32h-20z" style="stroke:#000;stroke-width:1px;fill:#d3d3d3"/><text x="324" y="482" style="font-size:12.6px;color:currentColor"><tspan>lightgray</tspan></text><text x="324" y="500" style="font-size:12.6px;color:currentColor"><tspan>#d3d3d3</tspan></text><path d="M452 470h20v32h-20z" style="stroke:#000;stroke-width:1px;fill:#90ee90"/><text x="474" y="482" style="font-size:12.6px;color:currentColor"><tspan>lightgreen</tspan></text><text x="474" y="500" style="font-size:12.6px;color:currentColor"><tspan>#90ee90</tspan></text><path d="M602 470h20v32h-20z" style="stroke:#000;stroke-width:1px;fill:#ffb6c1"/><text x="624" y="482" style="font-size:12.6px;color:currentColor"><tspan>lightpink</tspan></text><text x="624" y="500" style="font-size:12.6px;color:currentColor"><tspan>#ffb6c1</tspan></text><path d="M2 506h20v32H2z" style="stroke:#000;stroke-width:1px;fill:#ffa07a"/><text x="24" y="518" style="font-size:12.6px;color:currentColor"><tspan>lightsalmon</tspan></text><text x="24" y="536" style="font-size:12.6px;color:currentColor"><tspan>#ffa07a</tspan></text><path d="M152 506h20v32h-20z" style="stroke:#000;stroke-width:1px;fill:#20b2aa"/><text x="174" y="518" style="font-size:12.6px;color:currentColor"><tspan>lightseagreen</tspan></text><text x="174" y="536" style="font-size:12.6px;color:currentColor"><tspan>#20b2aa</tspan></text><path d="M302 506h20v32h-20z" style="stroke:#000;stroke-width:1px;fill:#87cefa"/><text x="324" y="518" style="font-size:12.6px;color:currentColor"><tspan>lightskyblue</tspan></text><text x="324" y="536" style="font-size:12.6px;color:currentColor"><tspan>#87cefa</tspan></text><path d="M452 506h20v32h-20z" style="stroke:#000;stroke-width:1px;fill:#789"/><text x="474" y="518" style="font-size:12.6px;color:currentColor"><tspan>lightslategray</tspan></text><text x="474" y="536" style="font-size:12.6px;color:currentColor"><tspan>#778899</tspan></text><path d="M602 506h20v32h-20z" style="stroke:#000;stroke-width:1px;fill:#b0c4de"/><text x="624" y="518" style="font-size:12.6px;color:currentColor"><tspan>lightsteelblue</tspan></text><text x="624" y="536" style="font-size:12.6px;color:currentColor"><tspan>#b0c4de</tspan></text><path d="M2 542h20v32H2z" style="stroke:#000;stroke-width:1px;fill:#ffffe0"/><text x="24" y="554" style="font-size:12.6px;color:currentColor"><tspan>lightyellow</tspan></text><text x="24" y="572" style="font-size:12.6px;color:currentColor"><tspan>#ffffe0</tspan></text><path d="M152 542h20v32h-20z" style="stroke:#000;stroke-width:1px;fill:#0f0"/><text x="174" y="554" style="font-size:12.6px;color:currentColor"><tspan>lime</tspan></text><text x="174" y="572" style="font-size:12.6px;color:currentColor"><tspan>#00ff00</tspan></text><path d="M302 542h20v32h-20z" style="stroke:#000;stroke-width:1px;fill:#32cd32"/><text x="324" y="554" style="font-size:12.6px;color:currentColor"><tspan>limegreen</tspan></text><text x="324" y="572" style="font-size:12.6px;color:currentColor"><tspan>#32cd32</tspan></text><path d="M452 542h20v32h-20z" style="stroke:#000;stroke-width:1px;fill:linen"/><text x="474" y="554" style="font-size:12.6px;color:currentColor"><tspan>linen</tspan></text><text x="474" y="572" style="font-size:12.6px;color:currentColor"><tspan>#faf0e6</tspan></text><path d="M602 542h20v32h-20z" style="stroke:#000;stroke-width:1px;fill:#f0f"/><text x="624" y="554" style="font-size:12.6px;color:currentColor"><tspan>magenta</tspan></text><text x="624" y="572" style="font-size:12.6px;color:currentColor"><tspan>#ff00ff</tspan></text><path d="M2 578h20v32H2z" style="stroke:#000;stroke-width:1px;fill:maroon"/><text x="24" y="590" style="font-size:12.6px;color:currentColor"><tspan>maroon</tspan></text><text x="24" y="608" style="font-size:12.6px;color:currentColor"><tspan>#800000</tspan></text><path d="M152 578h20v32h-20z" style="stroke:#000;stroke-width:1px;fill:#66cdaa"/><text x="174" y="590" style="font-size:12.6px;color:currentColor"><tspan>mediumaquamarine</tspan></text><text x="174" y="608" style="font-size:12.6px;color:currentColor"><tspan>#66cdaa</tspan></text><path d="M302 578h20v32h-20z" style="stroke:#000;stroke-width:1px;fill:#0000cd"/><text x="324" y="590" style="font-size:12.6px;color:currentColor"><tspan>mediumblue</tspan></text><text x="324" y="608" style="font-size:12.6px;color:currentColor"><tspan>#0000cd</tspan></text><path d="M452 578h20v32h-20z" style="stroke:#000;stroke-width:1px;fill:#ba55d3"/><text x="474" y="590" style="font-size:12.6px;color:currentColor"><tspan>mediumorchid</tspan></text><text x="474" y="608" style="font-size:12.6px;color:currentColor"><tspan>#ba55d3</tspan></text><path d="M602 578h20v32h-20z" style="stroke:#000;stroke-width:1px;fill:#9370d8"/><text x="624" y="590" style="font-size:12.6px;color:currentColor"><tspan>mediumpurple</tspan></text><text x="624" y="608" style="font-size:12.6px;color:currentColor"><tspan>#9370d8</tspan></text><path d="M2 614h20v32H2z" style="stroke:#000;stroke-width:1px;fill:#3cb371"/><text x="24" y="626" style="font-size:12.6px;color:currentColor"><tspan>mediumseagreen</tspan></text><text x="24" y="644" style="font-size:12.6px;color:currentColor"><tspan>#3cb371</tspan></text><path d="M152 614h20v32h-20z" style="stroke:#000;stroke-width:1px;fill:#7b68ee"/><text x="174" y="626" style="font-size:12.6px;color:currentColor"><tspan>mediumslateblue</tspan></text><text x="174" y="644" style="font-size:12.6px;color:currentColor"><tspan>#7b68ee</tspan></text><path d="M302 614h20v32h-20z" style="stroke:#000;stroke-width:1px;fill:#00fa9a"/><text x="324" y="626" style="font-size:12.6px;color:currentColor"><tspan>mediumspringgreen</tspan></text><text x="324" y="644" style="font-size:12.6px;color:currentColor"><tspan>#00fa9a</tspan></text><path d="M452 614h20v32h-20z" style="stroke:#000;stroke-width:1px;fill:#48d1cc"/><text x="474" y="626" style="font-size:12.6px;color:currentColor"><tspan>mediumturquoise</tspan></text><text x="474" y="644" style="font-size:12.6px;color:currentColor"><tspan>#48d1cc</tspan></text><path d="M602 614h20v32h-20z" style="stroke:#000;stroke-width:1px;fill:#c71585"/><text x="624" y="626" style="font-size:12.6px;color:currentColor"><tspan>mediumvioletred</tspan></text><text x="624" y="644" style="font-size:12.6px;color:currentColor"><tspan>#c71585</tspan></text><path d="M2 650h20v32H2z" style="stroke:#000;stroke-width:1px;fill:#191970"/><text x="24" y="662" style="font-size:12.6px;color:currentColor"><tspan>midnightblue</tspan></text><text x="24" y="680" style="font-size:12.6px;color:currentColor"><tspan>#191970</tspan></text><path d="M152 650h20v32h-20z" style="stroke:#000;stroke-width:1px;fill:#f5fffa"/><text x="174" y="662" style="font-size:12.6px;color:currentColor"><tspan>mintcream</tspan></text><text x="174" y="680" style="font-size:12.6px;color:currentColor"><tspan>#f5fffa</tspan></text><path d="M302 650h20v32h-20z" style="stroke:#000;stroke-width:1px;fill:#ffe4e1"/><text x="324" y="662" style="font-size:12.6px;color:currentColor"><tspan>mistyrose</tspan></text><text x="324" y="680" style="font-size:12.6px;color:currentColor"><tspan>#ffe4e1</tspan></text><path d="M452 650h20v32h-20z" style="stroke:#000;stroke-width:1px;fill:#ffe4b5"/><text x="474" y="662" style="font-size:12.6px;color:currentColor"><tspan>moccasin</tspan></text><text x="474" y="680" style="font-size:12.6px;color:currentColor"><tspan>#ffe4b5</tspan></text><path d="M602 650h20v32h-20z" style="stroke:#000;stroke-width:1px;fill:#ffdead"/><text x="624" y="662" style="font-size:12.6px;color:currentColor"><tspan>navajowhite</tspan></text><text x="624" y="680" style="font-size:12.6px;color:currentColor"><tspan>#ffdead</tspan></text><path d="M2 686h20v32H2z" style="stroke:#000;stroke-width:1px;fill:navy"/><text x="24" y="698" style="font-size:12.6px;color:currentColor"><tspan>navy</tspan></text><text x="24" y="716" style="font-size:12.6px;color:currentColor"><tspan>#000080</tspan></text><path d="M152 686h20v32h-20z" style="stroke:#000;stroke-width:1px;fill:#fdf5e6"/><text x="174" y="698" style="font-size:12.6px;color:currentColor"><tspan>oldlace</tspan></text><text x="174" y="716" style="font-size:12.6px;color:currentColor"><tspan>#fdf5e6</tspan></text><path d="M302 686h20v32h-20z" style="stroke:#000;stroke-width:1px;fill:olive"/><text x="324" y="698" style="font-size:12.6px;color:currentColor"><tspan>olive</tspan></text><text x="324" y="716" style="font-size:12.6px;color:currentColor"><tspan>#808000</tspan></text><path d="M452 686h20v32h-20z" style="stroke:#000;stroke-width:1px;fill:#6b8e23"/><text x="474" y="698" style="font-size:12.6px;color:currentColor"><tspan>olivedrab</tspan></text><text x="474" y="716" style="font-size:12.6px;color:currentColor"><tspan>#6b8e23</tspan></text><path d="M602 686h20v32h-20z" style="stroke:#000;stroke-width:1px;fill:orange"/><text x="624" y="698" style="font-size:12.6px;color:currentColor"><tspan>orange</tspan></text><text x="624" y="716" style="font-size:12.6px;color:currentColor"><tspan>#ffa500</tspan></text><path d="M2 722h20v32H2z" style="stroke:#000;stroke-width:1px;fill:#ff4500"/><text x="24" y="734" style="font-size:12.6px;color:currentColor"><tspan>orangered</tspan></text><text x="24" y="752" style="font-size:12.6px;color:currentColor"><tspan>#ff4500</tspan></text><path d="M152 722h20v32h-20z" style="stroke:#000;stroke-width:1px;fill:orchid"/><text x="174" y="734" style="font-size:12.6px;color:currentColor"><tspan>orchid</tspan></text><text x="174" y="752" style="font-size:12.6px;color:currentColor"><tspan>#da70d6</tspan></text><path d="M302 722h20v32h-20z" style="stroke:#000;stroke-width:1px;fill:#eee8aa"/><text x="324" y="734" style="font-size:12.6px;color:currentColor"><tspan>palegoldenrod</tspan></text><text x="324" y="752" style="font-size:12.6px;color:currentColor"><tspan>#eee8aa</tspan></text><path d="M452 722h20v32h-20z" style="stroke:#000;stroke-width:1px;fill:#98fb98"/><text x="474" y="734" style="font-size:12.6px;color:currentColor"><tspan>palegreen</tspan></text><text x="474" y="752" style="font-size:12.6px;color:currentColor"><tspan>#98fb98</tspan></text><path d="M602 722h20v32h-20z" style="stroke:#000;stroke-width:1px;fill:#afeeee"/><text x="624" y="734" style="font-size:12.6px;color:currentColor"><tspan>paleturquoise</tspan></text><text x="624" y="752" style="font-size:12.6px;color:currentColor"><tspan>#afeeee</tspan></text><path d="M2 758h20v32H2z" style="stroke:#000;stroke-width:1px;fill:#d87093"/><text x="24" y="770" style="font-size:12.6px;color:currentColor"><tspan>palevioletred</tspan></text><text x="24" y="788" style="font-size:12.6px;color:currentColor"><tspan>#d87093</tspan></text><path d="M152 758h20v32h-20z" style="stroke:#000;stroke-width:1px;fill:#ffefd5"/><text x="174" y="770" style="font-size:12.6px;color:currentColor"><tspan>papayawhip</tspan></text><text x="174" y="788" style="font-size:12.6px;color:currentColor"><tspan>#ffefd5</tspan></text><path d="M302 758h20v32h-20z" style="stroke:#000;stroke-width:1px;fill:#ffdab9"/><text x="324" y="770" style="font-size:12.6px;color:currentColor"><tspan>peachpuff</tspan></text><text x="324" y="788" style="font-size:12.6px;color:currentColor"><tspan>#ffdab9</tspan></text><path d="M452 758h20v32h-20z" style="stroke:#000;stroke-width:1px;fill:peru"/><text x="474" y="770" style="font-size:12.6px;color:currentColor"><tspan>peru</tspan></text><text x="474" y="788" style="font-size:12.6px;color:currentColor"><tspan>#cd853f</tspan></text><path d="M602 758h20v32h-20z" style="stroke:#000;stroke-width:1px;fill:pink"/><text x="624" y="770" style="font-size:12.6px;color:currentColor"><tspan>pink</tspan></text><text x="624" y="788" style="font-size:12.6px;color:currentColor"><tspan>#ffc0cb</tspan></text><path d="M2 794h20v32H2z" style="stroke:#000;stroke-width:1px;fill:plum"/><text x="24" y="806" style="font-size:12.6px;color:currentColor"><tspan>plum</tspan></text><text x="24" y="824" style="font-size:12.6px;color:currentColor"><tspan>#dda0dd</tspan></text><path d="M152 794h20v32h-20z" style="stroke:#000;stroke-width:1px;fill:#b0e0e6"/><text x="174" y="806" style="font-size:12.6px;color:currentColor"><tspan>powderblue</tspan></text><text x="174" y="824" style="font-size:12.6px;color:currentColor"><tspan>#b0e0e6</tspan></text><path d="M302 794h20v32h-20z" style="stroke:#000;stroke-width:1px;fill:purple"/><text x="324" y="806" style="font-size:12.6px;color:currentColor"><tspan>purple</tspan></text><text x="324" y="824" style="font-size:12.6px;color:currentColor"><tspan>#800080</tspan></text><path d="M452 794h20v32h-20z" style="stroke:#000;stroke-width:1px;fill:#639"/><text x="474" y="806" style="font-size:12.6px;color:currentColor"><tspan>rebeccapurple</tspan></text><text x="474" y="824" style="font-size:12.6px;color:currentColor"><tspan>#663399</tspan></text><path d="M602 794h20v32h-20z" style="stroke:#000;stroke-width:1px;fill:red"/><text x="624" y="806" style="font-size:12.6px;color:currentColor"><tspan>red</tspan></text><text x="624" y="824" style="font-size:12.6px;color:currentColor"><tspan>#ff0000</tspan></text><path d="M2 830h20v32H2z" style="stroke:#000;stroke-width:1px;fill:#bc8f8f"/><text x="24" y="842" style="font-size:12.6px;color:currentColor"><tspan>rosybrown</tspan></text><text x="24" y="860" style="font-size:12.6px;color:currentColor"><tspan>#bc8f8f</tspan></text><path d="M152 830h20v32h-20z" style="stroke:#000;stroke-width:1px;fill:#4169e1"/><text x="174" y="842" style="font-size:12.6px;color:currentColor"><tspan>royalblue</tspan></text><text x="174" y="860" style="font-size:12.6px;color:currentColor"><tspan>#4169e1</tspan></text><path d="M302 830h20v32h-20z" style="stroke:#000;stroke-width:1px;fill:#8b4513"/><text x="324" y="842" style="font-size:12.6px;color:currentColor"><tspan>saddlebrown</tspan></text><text x="324" y="860" style="font-size:12.6px;color:currentColor"><tspan>#8b4513</tspan></text><path d="M452 830h20v32h-20z" style="stroke:#000;stroke-width:1px;fill:salmon"/><text x="474" y="842" style="font-size:12.6px;color:currentColor"><tspan>salmon</tspan></text><text x="474" y="860" style="font-size:12.6px;color:currentColor"><tspan>#fa8072</tspan></text><path d="M602 830h20v32h-20z" style="stroke:#000;stroke-width:1px;fill:#f4a460"/><text x="624" y="842" style="font-size:12.6px;color:currentColor"><tspan>sandybrown</tspan></text><text x="624" y="860" style="font-size:12.6px;color:currentColor"><tspan>#f4a460</tspan></text><path d="M2 866h20v32H2z" style="stroke:#000;stroke-width:1px;fill:#2e8b57"/><text x="24" y="878" style="font-size:12.6px;color:currentColor"><tspan>seagreen</tspan></text><text x="24" y="896" style="font-size:12.6px;color:currentColor"><tspan>#2e8b57</tspan></text><path d="M152 866h20v32h-20z" style="stroke:#000;stroke-width:1px;fill:#fff5ee"/><text x="174" y="878" style="font-size:12.6px;color:currentColor"><tspan>seashell</tspan></text><text x="174" y="896" style="font-size:12.6px;color:currentColor"><tspan>#fff5ee</tspan></text><path d="M302 866h20v32h-20z" style="stroke:#000;stroke-width:1px;fill:sienna"/><text x="324" y="878" style="font-size:12.6px;color:currentColor"><tspan>sienna</tspan></text><text x="324" y="896" style="font-size:12.6px;color:currentColor"><tspan>#a0522d</tspan></text><path d="M452 866h20v32h-20z" style="stroke:#000;stroke-width:1px;fill:silver"/><text x="474" y="878" style="font-size:12.6px;color:currentColor"><tspan>silver</tspan></text><text x="474" y="896" style="font-size:12.6px;color:currentColor"><tspan>#c0c0c0</tspan></text><path d="M602 866h20v32h-20z" style="stroke:#000;stroke-width:1px;fill:#87ceeb"/><text x="624" y="878" style="font-size:12.6px;color:currentColor"><tspan>skyblue</tspan></text><text x="624" y="896" style="font-size:12.6px;color:currentColor"><tspan>#87ceeb</tspan></text><path d="M2 902h20v32H2z" style="stroke:#000;stroke-width:1px;fill:#6a5acd"/><text x="24" y="914" style="font-size:12.6px;color:currentColor"><tspan>slateblue</tspan></text><text x="24" y="932" style="font-size:12.6px;color:currentColor"><tspan>#6a5acd</tspan></text><path d="M152 902h20v32h-20z" style="stroke:#000;stroke-width:1px;fill:#708090"/><text x="174" y="914" style="font-size:12.6px;color:currentColor"><tspan>slategray</tspan></text><text x="174" y="932" style="font-size:12.6px;color:currentColor"><tspan>#708090</tspan></text><path d="M302 902h20v32h-20z" style="stroke:#000;stroke-width:1px;fill:snow"/><text x="324" y="914" style="font-size:12.6px;color:currentColor"><tspan>snow</tspan></text><text x="324" y="932" style="font-size:12.6px;color:currentColor"><tspan>#fffafa</tspan></text><path d="M452 902h20v32h-20z" style="stroke:#000;stroke-width:1px;fill:#00ff7f"/><text x="474" y="914" style="font-size:12.6px;color:currentColor"><tspan>springgreen</tspan></text><text x="474" y="932" style="font-size:12.6px;color:currentColor"><tspan>#00ff7f</tspan></text><path d="M602 902h20v32h-20z" style="stroke:#000;stroke-width:1px;fill:#4682b4"/><text x="624" y="914" style="font-size:12.6px;color:currentColor"><tspan>steelblue</tspan></text><text x="624" y="932" style="font-size:12.6px;color:currentColor"><tspan>#4682b4</tspan></text><path d="M2 938h20v32H2z" style="stroke:#000;stroke-width:1px;fill:tan"/><text x="24" y="950" style="font-size:12.6px;color:currentColor"><tspan>tan</tspan></text><text x="24" y="968" style="font-size:12.6px;color:currentColor"><tspan>#d2b48c</tspan></text><path d="M152 938h20v32h-20z" style="stroke:#000;stroke-width:1px;fill:teal"/><text x="174" y="950" style="font-size:12.6px;color:currentColor"><tspan>teal</tspan></text><text x="174" y="968" style="font-size:12.6px;color:currentColor"><tspan>#008080</tspan></text><path d="M302 938h20v32h-20z" style="stroke:#000;stroke-width:1px;fill:#d8bfd8"/><text x="324" y="950" style="font-size:12.6px;color:currentColor"><tspan>thistle</tspan></text><text x="324" y="968" style="font-size:12.6px;color:currentColor"><tspan>#d8bfd8</tspan></text><path d="M452 938h20v32h-20z" style="stroke:#000;stroke-width:1px;fill:tomato"/><text x="474" y="950" style="font-size:12.6px;color:currentColor"><tspan>tomato</tspan></text><text x="474" y="968" style="font-size:12.6px;color:currentColor"><tspan>#ff6347</tspan></text><path d="M602 938h20v32h-20z" style="stroke:#000;stroke-width:1px;fill:#40e0d0"/><text x="624" y="950" style="font-size:12.6px;color:currentColor"><tspan>turquoise</tspan></text><text x="624" y="968" style="font-size:12.6px;color:currentColor"><tspan>#40e0d0</tspan></text><path d="M2 974h20v32H2z" style="stroke:#000;stroke-width:1px;fill:violet"/><text x="24" y="986" style="font-size:12.6px;color:currentColor"><tspan>violet</tspan></text><text x="24" y="1004" style="font-size:12.6px;color:currentColor"><tspan>#ee82ee</tspan></text><path d="M152 974h20v32h-20z" style="stroke:#000;stroke-width:1px;fill:wheat"/><text x="174" y="986" style="font-size:12.6px;color:currentColor"><tspan>wheat</tspan></text><text x="174" y="1004" style="font-size:12.6px;color:currentColor"><tspan>#f5deb3</tspan></text><path d="M302 974h20v32h-20z" style="stroke:#000;stroke-width:1px;fill:#fff"/><text x="324" y="986" style="font-size:12.6px;color:currentColor"><tspan>white</tspan></text><text x="324" y="1004" style="font-size:12.6px;color:currentColor"><tspan>#ffffff</tspan></text><path d="M452 974h20v32h-20z" style="stroke:#000;stroke-width:1px;fill:#f5f5f5"/><text x="474" y="986" style="font-size:12.6px;color:currentColor"><tspan>whitesmoke</tspan></text><text x="474" y="1004" style="font-size:12.6px;color:currentColor"><tspan>#f5f5f5</tspan></text><path d="M602 974h20v32h-20z" style="stroke:#000;stroke-width:1px;fill:#ff0"/><text x="624" y="986" style="font-size:12.6px;color:currentColor"><tspan>yellow</tspan></text><text x="624" y="1004" style="font-size:12.6px;color:currentColor"><tspan>#ffff00</tspan></text><path d="M2 1010h20v32H2z" style="stroke:#000;stroke-width:1px;fill:#9acd32"/><text x="24" y="1022" style="font-size:12.6px;color:currentColor"><tspan>yellowgreen</tspan></text><text x="24" y="1040" style="font-size:12.6px;color:currentColor"><tspan>#9acd32</tspan></text></svg>