<?xml version="1.0" encoding="utf-8" standalone="no"?>
<!DOCTYPE svg PUBLIC "-//W3C//DTD SVG 1.1//EN"
  "http://www.w3.org/Graphics/SVG/1.1/DTD/svg11.dtd">
<!-- Created with matplotlib (https://matplotlib.org/) -->
<svg height="345.6pt" version="1.1" viewBox="0 0 460.8 345.6" width="460.8pt" xmlns="http://www.w3.org/2000/svg" xmlns:xlink="http://www.w3.org/1999/xlink">
 <defs>
  <style type="text/css">
*{stroke-linecap:butt;stroke-linejoin:round;}
  </style>
 </defs>
 <g id="figure_1">
  <g id="patch_1">
   <path d="M 0 345.6 
L 460.8 345.6 
L 460.8 0 
L 0 0 
z
" style="fill:#ffffff;"/>
  </g>
  <g id="axes_1">
   <g id="patch_2">
    <path d="M 57.6 307.584 
L 414.72 307.584 
L 414.72 41.472 
L 57.6 41.472 
z
" style="fill:#ffffff;"/>
   </g>
   <g id="matplotlib.axis_1">
    <g id="xtick_1">
     <g id="line2d_1">
      <defs>
       <path d="M 0 0 
L 0 3.5 
" id="m440002cf2b" style="stroke:#000000;stroke-width:0.8;"/>
      </defs>
      <g>
       <use style="stroke:#000000;stroke-width:0.8;" x="73.800255" xlink:href="#m440002cf2b" y="307.584"/>
      </g>
     </g>
     <g id="text_1">
      <text style="font-family:DejaVu Sans;font-size:10px;font-style:normal;font-weight:normal;text-anchor:middle;" transform="rotate(-0, 73.800255, 322.182437)" x="73.800255" y="322.182437">0.0</text>
     </g>
    </g>
    <g id="xtick_2">
     <g id="line2d_2">
      <g>
       <use style="stroke:#000000;stroke-width:0.8;" x="138.744153" xlink:href="#m440002cf2b" y="307.584"/>
      </g>
     </g>
     <g id="text_2">
      <text style="font-family:DejaVu Sans;font-size:10px;font-style:normal;font-weight:normal;text-anchor:middle;" transform="rotate(-0, 138.744153, 322.182437)" x="138.744153" y="322.182437">0.2</text>
     </g>
    </g>
    <g id="xtick_3">
     <g id="line2d_3">
      <g>
       <use style="stroke:#000000;stroke-width:0.8;" x="203.688051" xlink:href="#m440002cf2b" y="307.584"/>
      </g>
     </g>
     <g id="text_3">
      <text style="font-family:DejaVu Sans;font-size:10px;font-style:normal;font-weight:normal;text-anchor:middle;" transform="rotate(-0, 203.688051, 322.182437)" x="203.688051" y="322.182437">0.4</text>
     </g>
    </g>
    <g id="xtick_4">
     <g id="line2d_4">
      <g>
       <use style="stroke:#000000;stroke-width:0.8;" x="268.631949" xlink:href="#m440002cf2b" y="307.584"/>
      </g>
     </g>
     <g id="text_4">
      <text style="font-family:DejaVu Sans;font-size:10px;font-style:normal;font-weight:normal;text-anchor:middle;" transform="rotate(-0, 268.631949, 322.182437)" x="268.631949" y="322.182437">0.6</text>
     </g>
    </g>
    <g id="xtick_5">
     <g id="line2d_5">
      <g>
       <use style="stroke:#000000;stroke-width:0.8;" x="333.575847" xlink:href="#m440002cf2b" y="307.584"/>
      </g>
     </g>
     <g id="text_5">
      <text style="font-family:DejaVu Sans;font-size:10px;font-style:normal;font-weight:normal;text-anchor:middle;" transform="rotate(-0, 333.575847, 322.182437)" x="333.575847" y="322.182437">0.8</text>
     </g>
    </g>
    <g id="xtick_6">
     <g id="line2d_6">
      <g>
       <use style="stroke:#000000;stroke-width:0.8;" x="398.519745" xlink:href="#m440002cf2b" y="307.584"/>
      </g>
     </g>
     <g id="text_6">
      <text style="font-family:DejaVu Sans;font-size:10px;font-style:normal;font-weight:normal;text-anchor:middle;" transform="rotate(-0, 398.519745, 322.182437)" x="398.519745" y="322.182437">1.0</text>
     </g>
    </g>
    <g id="text_7">
     <text style="font-family:DejaVu Sans;font-size:10px;font-style:normal;font-weight:normal;text-anchor:middle;" transform="rotate(-0, 236.16, 335.860562)" x="236.16" y="335.860562">Input Coin's Heads Probability (λ)</text>
    </g>
   </g>
   <g id="matplotlib.axis_2">
    <g id="ytick_1">
     <g id="line2d_7">
      <defs>
       <path d="M 0 0 
L -3.5 0 
" id="m98f4ec2ad5" style="stroke:#000000;stroke-width:0.8;"/>
      </defs>
      <g>
       <use style="stroke:#000000;stroke-width:0.8;" x="57.6" xlink:href="#m98f4ec2ad5" y="295.488"/>
      </g>
     </g>
     <g id="text_8">
      <text style="font-family:DejaVu Sans;font-size:10px;font-style:normal;font-weight:normal;text-anchor:end;" transform="rotate(-0, 50.6, 299.287219)" x="50.6" y="299.287219">0.00</text>
     </g>
    </g>
    <g id="ytick_2">
     <g id="line2d_8">
      <g>
       <use style="stroke:#000000;stroke-width:0.8;" x="57.6" xlink:href="#m98f4ec2ad5" y="262.073635"/>
      </g>
     </g>
     <g id="text_9">
      <text style="font-family:DejaVu Sans;font-size:10px;font-style:normal;font-weight:normal;text-anchor:end;" transform="rotate(-0, 50.6, 265.872854)" x="50.6" y="265.872854">0.05</text>
     </g>
    </g>
    <g id="ytick_3">
     <g id="line2d_9">
      <g>
       <use style="stroke:#000000;stroke-width:0.8;" x="57.6" xlink:href="#m98f4ec2ad5" y="228.659271"/>
      </g>
     </g>
     <g id="text_10">
      <text style="font-family:DejaVu Sans;font-size:10px;font-style:normal;font-weight:normal;text-anchor:end;" transform="rotate(-0, 50.6, 232.458489)" x="50.6" y="232.458489">0.10</text>
     </g>
    </g>
    <g id="ytick_4">
     <g id="line2d_10">
      <g>
       <use style="stroke:#000000;stroke-width:0.8;" x="57.6" xlink:href="#m98f4ec2ad5" y="195.244906"/>
      </g>
     </g>
     <g id="text_11">
      <text style="font-family:DejaVu Sans;font-size:10px;font-style:normal;font-weight:normal;text-anchor:end;" transform="rotate(-0, 50.6, 199.044125)" x="50.6" y="199.044125">0.15</text>
     </g>
    </g>
    <g id="ytick_5">
     <g id="line2d_11">
      <g>
       <use style="stroke:#000000;stroke-width:0.8;" x="57.6" xlink:href="#m98f4ec2ad5" y="161.830541"/>
      </g>
     </g>
     <g id="text_12">
      <text style="font-family:DejaVu Sans;font-size:10px;font-style:normal;font-weight:normal;text-anchor:end;" transform="rotate(-0, 50.6, 165.62976)" x="50.6" y="165.62976">0.20</text>
     </g>
    </g>
    <g id="ytick_6">
     <g id="line2d_12">
      <g>
       <use style="stroke:#000000;stroke-width:0.8;" x="57.6" xlink:href="#m98f4ec2ad5" y="128.416177"/>
      </g>
     </g>
     <g id="text_13">
      <text style="font-family:DejaVu Sans;font-size:10px;font-style:normal;font-weight:normal;text-anchor:end;" transform="rotate(-0, 50.6, 132.215396)" x="50.6" y="132.215396">0.25</text>
     </g>
    </g>
    <g id="ytick_7">
     <g id="line2d_13">
      <g>
       <use style="stroke:#000000;stroke-width:0.8;" x="57.6" xlink:href="#m98f4ec2ad5" y="95.001812"/>
      </g>
     </g>
     <g id="text_14">
      <text style="font-family:DejaVu Sans;font-size:10px;font-style:normal;font-weight:normal;text-anchor:end;" transform="rotate(-0, 50.6, 98.801031)" x="50.6" y="98.801031">0.30</text>
     </g>
    </g>
    <g id="ytick_8">
     <g id="line2d_14">
      <g>
       <use style="stroke:#000000;stroke-width:0.8;" x="57.6" xlink:href="#m98f4ec2ad5" y="61.587448"/>
      </g>
     </g>
     <g id="text_15">
      <text style="font-family:DejaVu Sans;font-size:10px;font-style:normal;font-weight:normal;text-anchor:end;" transform="rotate(-0, 50.6, 65.386666)" x="50.6" y="65.386666">0.35</text>
     </g>
    </g>
    <g id="text_16">
     <text style="font-family:DejaVu Sans;font-size:10px;font-style:normal;font-weight:normal;text-anchor:middle;" transform="rotate(-90, 22.254687, 174.528)" x="22.254687" y="174.528">Simulated Mean / Function Value</text>
    </g>
   </g>
   <g id="line2d_15">
    <path clip-path="url(#pc7fab52718)" d="M 73.832727 295.454587 
L 77.112066 292.097363 
L 80.391405 288.773702 
L 83.670744 285.483105 
L 86.950083 282.22508 
L 90.229421 278.999145 
L 93.50876 275.80483 
L 96.788099 272.641672 
L 100.067438 269.509216 
L 103.346777 266.407018 
L 106.626116 263.334642 
L 109.905455 260.29166 
L 113.184793 257.277652 
L 116.464132 254.292206 
L 119.743471 251.334918 
L 123.02281 248.405391 
L 126.302149 245.503237 
L 129.581488 242.628073 
L 132.860826 239.779525 
L 136.140165 236.957225 
L 139.419504 234.160812 
L 142.698843 231.389931 
L 145.978182 228.644235 
L 149.257521 225.92338 
L 152.53686 223.227033 
L 155.816198 220.554862 
L 159.095537 217.906545 
L 162.374876 215.281763 
L 165.654215 212.680205 
L 168.933554 210.101562 
L 172.212893 207.545535 
L 175.492231 205.011825 
L 178.77157 202.500144 
L 182.050909 200.010204 
L 185.330248 197.541724 
L 188.609587 195.094429 
L 191.888926 192.668046 
L 195.168264 190.262309 
L 198.447603 187.876955 
L 201.726942 185.511726 
L 205.006281 183.16637 
L 208.28562 180.840635 
L 211.564959 178.534278 
L 214.844298 176.247057 
L 218.123636 173.978734 
L 221.402975 171.729077 
L 224.682314 169.497856 
L 227.961653 167.284846 
L 231.240992 165.089823 
L 234.520331 162.912571 
L 237.799669 160.752874 
L 241.079008 158.61052 
L 244.358347 156.485302 
L 247.637686 154.377014 
L 250.917025 152.285455 
L 254.196364 150.210428 
L 257.475702 148.151736 
L 260.755041 146.109187 
L 264.03438 144.082593 
L 267.313719 142.071766 
L 270.593058 140.076525 
L 273.872397 138.096688 
L 277.151736 136.132078 
L 280.431074 134.182519 
L 283.710413 132.247839 
L 286.989752 130.327869 
L 290.269091 128.422442 
L 293.54843 126.531393 
L 296.827769 124.654559 
L 300.107107 122.791781 
L 303.386446 120.942902 
L 306.665785 119.107767 
L 309.945124 117.286223 
L 313.224463 115.47812 
L 316.503802 113.683309 
L 319.78314 111.901645 
L 323.062479 110.132983 
L 326.341818 108.377182 
L 329.621157 106.634101 
L 332.900496 104.903604 
L 336.179835 103.185554 
L 339.459174 101.479818 
L 342.738512 99.786264 
L 346.017851 98.104761 
L 349.29719 96.435181 
L 352.576529 94.777399 
L 355.855868 93.131289 
L 359.135207 91.496729 
L 362.414545 89.873597 
L 365.693884 88.261775 
L 368.973223 86.661143 
L 372.252562 85.071587 
L 375.531901 83.492992 
L 378.81124 81.925244 
L 382.090579 80.368232 
L 385.369917 78.821846 
L 388.649256 77.285979 
L 391.928595 75.760522 
L 395.207934 74.24537 
L 398.487273 72.74042 
" style="fill:none;stroke:#1f77b4;stroke-linecap:square;stroke-width:1.5;"/>
   </g>
   <g id="line2d_16">
    <path clip-path="url(#pc7fab52718)" d="M 73.832727 295.488 
L 77.112066 295.488 
L 80.391405 292.814851 
L 83.670744 288.805127 
L 86.950083 282.122254 
L 90.229421 276.775956 
L 93.50876 280.78568 
L 96.788099 268.756508 
L 100.067438 276.775956 
L 103.346777 271.429657 
L 106.626116 259.400486 
L 109.905455 264.746785 
L 113.184793 260.737061 
L 116.464132 254.054188 
L 119.743471 250.044464 
L 123.02281 244.698166 
L 126.302149 250.044464 
L 129.581488 246.03474 
L 132.860826 229.995845 
L 136.140165 242.025017 
L 139.419504 234.005569 
L 142.698843 243.361591 
L 145.978182 234.005569 
L 149.257521 211.283801 
L 152.53686 229.995845 
L 155.816198 227.322696 
L 159.095537 209.947227 
L 162.374876 211.283801 
L 165.654215 216.630099 
L 168.933554 220.639823 
L 172.212893 204.600928 
L 175.492231 181.87916 
L 178.77157 193.908331 
L 182.050909 212.620376 
L 185.330248 204.600928 
L 188.609587 196.581481 
L 191.888926 187.225459 
L 195.168264 197.918055 
L 198.447603 184.552309 
L 201.726942 195.244906 
L 205.006281 195.244906 
L 208.28562 165.840265 
L 211.564959 187.225459 
L 214.844298 205.937503 
L 218.123636 167.17684 
L 221.402975 167.17684 
L 224.682314 169.849989 
L 227.961653 168.513414 
L 231.240992 169.849989 
L 234.520331 172.523138 
L 237.799669 140.445348 
L 241.079008 177.869436 
L 244.358347 147.128221 
L 247.637686 156.484243 
L 250.917025 153.811094 
L 254.196364 148.464796 
L 257.475702 137.772199 
L 260.755041 144.455072 
L 264.03438 145.791646 
L 267.313719 143.118497 
L 270.593058 148.464796 
L 273.872397 137.772199 
L 277.151736 135.09905 
L 280.431074 140.445348 
L 283.710413 139.108773 
L 286.989752 141.781923 
L 290.269091 119.060155 
L 293.54843 107.030983 
L 296.827769 108.367558 
L 300.107107 123.069878 
L 303.386446 115.050431 
L 306.665785 97.674961 
L 309.945124 113.713856 
L 313.224463 90.992088 
L 316.503802 112.377282 
L 319.78314 136.435624 
L 323.062479 108.367558 
L 326.341818 103.02126 
L 329.621157 111.040707 
L 332.900496 104.357834 
L 336.179835 103.02126 
L 339.459174 103.02126 
L 342.738512 89.655514 
L 346.017851 97.674961 
L 349.29719 103.02126 
L 352.576529 80.299492 
L 355.855868 72.280044 
L 359.135207 101.684685 
L 362.414545 85.64579 
L 365.693884 97.674961 
L 368.973223 85.64579 
L 372.252562 86.982365 
L 375.531901 76.289768 
L 378.81124 82.972641 
L 382.090579 64.260597 
L 385.369917 82.972641 
L 388.649256 53.568 
L 391.928595 93.665238 
L 395.207934 58.914298 
L 398.487273 70.94347 
" style="fill:none;stroke:#ff7f0e;stroke-linecap:square;stroke-width:1.5;"/>
   </g>
   <g id="patch_3">
    <path d="M 57.6 307.584 
L 57.6 41.472 
" style="fill:none;stroke:#000000;stroke-linecap:square;stroke-linejoin:miter;stroke-width:0.8;"/>
   </g>
   <g id="patch_4">
    <path d="M 414.72 307.584 
L 414.72 41.472 
" style="fill:none;stroke:#000000;stroke-linecap:square;stroke-linejoin:miter;stroke-width:0.8;"/>
   </g>
   <g id="patch_5">
    <path d="M 57.6 307.584 
L 414.72 307.584 
" style="fill:none;stroke:#000000;stroke-linecap:square;stroke-linejoin:miter;stroke-width:0.8;"/>
   </g>
   <g id="patch_6">
    <path d="M 57.6 41.472 
L 414.72 41.472 
" style="fill:none;stroke:#000000;stroke-linecap:square;stroke-linejoin:miter;stroke-width:0.8;"/>
   </g>
   <g id="text_17">
    <text style="font-family:DejaVu Sans;font-size:12px;font-style:normal;font-weight:normal;" transform="translate(96.495937 22.034625)">Simulated Mean for 0.5*x/(1+0.5*x) Algorithm</text>
    <text style="font-family:DejaVu Sans;font-size:12px;font-style:normal;font-weight:normal;" transform="translate(132.609375 35.472)">(Wasserstein Distances in Legend)</text>
   </g>
   <g id="legend_1">
    <g id="patch_7">
     <path d="M 64.6 78.82825 
L 242.85 78.82825 
Q 244.85 78.82825 244.85 76.82825 
L 244.85 48.472 
Q 244.85 46.472 242.85 46.472 
L 64.6 46.472 
Q 62.6 46.472 62.6 48.472 
L 62.6 76.82825 
Q 62.6 78.82825 64.6 78.82825 
z
" style="fill:#ffffff;opacity:0.8;stroke:#cccccc;stroke-linejoin:miter;"/>
    </g>
    <g id="line2d_17">
     <path d="M 66.6 54.570437 
L 86.6 54.570437 
" style="fill:none;stroke:#1f77b4;stroke-linecap:square;stroke-width:1.5;"/>
    </g>
    <g id="line2d_18"/>
    <g id="text_18">
     <text style="font-family:DejaVu Sans;font-size:10px;font-style:normal;font-weight:normal;text-anchor:start;" transform="rotate(-0, 94.6, 58.070437)" x="94.6" y="58.070437">0.5*x/(1+0.5*x)</text>
    </g>
    <g id="line2d_19">
     <path d="M 66.6 69.248562 
L 86.6 69.248562 
" style="fill:none;stroke:#ff7f0e;stroke-linecap:square;stroke-width:1.5;"/>
    </g>
    <g id="line2d_20"/>
    <g id="text_19">
     <text style="font-family:DejaVu Sans;font-size:10px;font-style:normal;font-weight:normal;text-anchor:start;" transform="rotate(-0, 94.6, 72.748562)" x="94.6" y="72.748562">Simul. Mean (WD=0.004788)</text>
    </g>
   </g>
  </g>
 </g>
 <defs>
  <clipPath id="pc7fab52718">
   <rect height="266.112" width="357.12" x="57.6" y="41.472"/>
  </clipPath>
 </defs>
</svg>
