<?xml version="1.0" encoding="utf-8" standalone="no"?>
<!DOCTYPE svg PUBLIC "-//W3C//DTD SVG 1.1//EN"
  "http://www.w3.org/Graphics/SVG/1.1/DTD/svg11.dtd">
<!-- Created with matplotlib (https://matplotlib.org/) -->
<svg height="252pt" version="1.1" viewBox="0 0 324 252" width="324pt" xmlns="http://www.w3.org/2000/svg" xmlns:xlink="http://www.w3.org/1999/xlink">
 <defs>
  <style type="text/css">
*{stroke-linecap:butt;stroke-linejoin:round;}
  </style>
 </defs>
 <g id="figure_1">
  <g id="patch_1">
   <path d="M 0 252 
L 324 252 
L 324 0 
L 0 0 
z
" style="fill:#ffffff;"/>
  </g>
  <g id="axes_1">
   <g id="patch_2">
    <path d="M 40.5 224.28 
L 291.6 224.28 
L 291.6 30.24 
L 40.5 30.24 
z
" style="fill:#ffffff;"/>
   </g>
   <g id="matplotlib.axis_1">
    <g id="xtick_1">
     <g id="line2d_1">
      <defs>
       <path d="M 0 0 
L 0 3.5 
" id="m9aae64c445" style="stroke:#000000;stroke-width:0.8;"/>
      </defs>
      <g>
       <use style="stroke:#000000;stroke-width:0.8;" x="51.890805" xlink:href="#m9aae64c445" y="224.28"/>
      </g>
     </g>
     <g id="text_1">
      <text style="font-family:DejaVu Sans;font-size:10px;font-style:normal;font-weight:normal;text-anchor:middle;" transform="rotate(-0, 51.890805, 238.878438)" x="51.890805" y="238.878438">0.0</text>
     </g>
    </g>
    <g id="xtick_2">
     <g id="line2d_2">
      <g>
       <use style="stroke:#000000;stroke-width:0.8;" x="97.554483" xlink:href="#m9aae64c445" y="224.28"/>
      </g>
     </g>
     <g id="text_2">
      <text style="font-family:DejaVu Sans;font-size:10px;font-style:normal;font-weight:normal;text-anchor:middle;" transform="rotate(-0, 97.554483, 238.878438)" x="97.554483" y="238.878438">0.2</text>
     </g>
    </g>
    <g id="xtick_3">
     <g id="line2d_3">
      <g>
       <use style="stroke:#000000;stroke-width:0.8;" x="143.218161" xlink:href="#m9aae64c445" y="224.28"/>
      </g>
     </g>
     <g id="text_3">
      <text style="font-family:DejaVu Sans;font-size:10px;font-style:normal;font-weight:normal;text-anchor:middle;" transform="rotate(-0, 143.218161, 238.878438)" x="143.218161" y="238.878438">0.4</text>
     </g>
    </g>
    <g id="xtick_4">
     <g id="line2d_4">
      <g>
       <use style="stroke:#000000;stroke-width:0.8;" x="188.881839" xlink:href="#m9aae64c445" y="224.28"/>
      </g>
     </g>
     <g id="text_4">
      <text style="font-family:DejaVu Sans;font-size:10px;font-style:normal;font-weight:normal;text-anchor:middle;" transform="rotate(-0, 188.881839, 238.878438)" x="188.881839" y="238.878438">0.6</text>
     </g>
    </g>
    <g id="xtick_5">
     <g id="line2d_5">
      <g>
       <use style="stroke:#000000;stroke-width:0.8;" x="234.545517" xlink:href="#m9aae64c445" y="224.28"/>
      </g>
     </g>
     <g id="text_5">
      <text style="font-family:DejaVu Sans;font-size:10px;font-style:normal;font-weight:normal;text-anchor:middle;" transform="rotate(-0, 234.545517, 238.878438)" x="234.545517" y="238.878438">0.8</text>
     </g>
    </g>
    <g id="xtick_6">
     <g id="line2d_6">
      <g>
       <use style="stroke:#000000;stroke-width:0.8;" x="280.209195" xlink:href="#m9aae64c445" y="224.28"/>
      </g>
     </g>
     <g id="text_6">
      <text style="font-family:DejaVu Sans;font-size:10px;font-style:normal;font-weight:normal;text-anchor:middle;" transform="rotate(-0, 280.209195, 238.878438)" x="280.209195" y="238.878438">1.0</text>
     </g>
    </g>
    <g id="text_7">
     <text style="font-family:DejaVu Sans;font-size:10px;font-style:normal;font-weight:normal;text-anchor:middle;" transform="rotate(-0, 166.05, 252.556563)" x="166.05" y="252.556563">Input Coin's Heads Probability (λ)</text>
    </g>
   </g>
   <g id="matplotlib.axis_2">
    <g id="ytick_1">
     <g id="line2d_7">
      <defs>
       <path d="M 0 0 
L -3.5 0 
" id="m888ec23635" style="stroke:#000000;stroke-width:0.8;"/>
      </defs>
      <g>
       <use style="stroke:#000000;stroke-width:0.8;" x="40.5" xlink:href="#m888ec23635" y="215.46726"/>
      </g>
     </g>
     <g id="text_8">
      <text style="font-family:DejaVu Sans;font-size:10px;font-style:normal;font-weight:normal;text-anchor:end;" transform="rotate(-0, 33.5, 219.266479)" x="33.5" y="219.266479">0.0</text>
     </g>
    </g>
    <g id="ytick_2">
     <g id="line2d_8">
      <g>
       <use style="stroke:#000000;stroke-width:0.8;" x="40.5" xlink:href="#m888ec23635" y="182.799249"/>
      </g>
     </g>
     <g id="text_9">
      <text style="font-family:DejaVu Sans;font-size:10px;font-style:normal;font-weight:normal;text-anchor:end;" transform="rotate(-0, 33.5, 186.598468)" x="33.5" y="186.598468">0.1</text>
     </g>
    </g>
    <g id="ytick_3">
     <g id="line2d_9">
      <g>
       <use style="stroke:#000000;stroke-width:0.8;" x="40.5" xlink:href="#m888ec23635" y="150.131238"/>
      </g>
     </g>
     <g id="text_10">
      <text style="font-family:DejaVu Sans;font-size:10px;font-style:normal;font-weight:normal;text-anchor:end;" transform="rotate(-0, 33.5, 153.930457)" x="33.5" y="153.930457">0.2</text>
     </g>
    </g>
    <g id="ytick_4">
     <g id="line2d_10">
      <g>
       <use style="stroke:#000000;stroke-width:0.8;" x="40.5" xlink:href="#m888ec23635" y="117.463227"/>
      </g>
     </g>
     <g id="text_11">
      <text style="font-family:DejaVu Sans;font-size:10px;font-style:normal;font-weight:normal;text-anchor:end;" transform="rotate(-0, 33.5, 121.262445)" x="33.5" y="121.262445">0.3</text>
     </g>
    </g>
    <g id="ytick_5">
     <g id="line2d_11">
      <g>
       <use style="stroke:#000000;stroke-width:0.8;" x="40.5" xlink:href="#m888ec23635" y="84.795216"/>
      </g>
     </g>
     <g id="text_12">
      <text style="font-family:DejaVu Sans;font-size:10px;font-style:normal;font-weight:normal;text-anchor:end;" transform="rotate(-0, 33.5, 88.594434)" x="33.5" y="88.594434">0.4</text>
     </g>
    </g>
    <g id="ytick_6">
     <g id="line2d_12">
      <g>
       <use style="stroke:#000000;stroke-width:0.8;" x="40.5" xlink:href="#m888ec23635" y="52.127204"/>
      </g>
     </g>
     <g id="text_13">
      <text style="font-family:DejaVu Sans;font-size:10px;font-style:normal;font-weight:normal;text-anchor:end;" transform="rotate(-0, 33.5, 55.926423)" x="33.5" y="55.926423">0.5</text>
     </g>
    </g>
    <g id="text_14">
     <text style="font-family:DejaVu Sans;font-size:10px;font-style:normal;font-weight:normal;text-anchor:middle;" transform="rotate(-90, 11.517187, 127.26)" x="11.517187" y="127.26">Coin Flips Needed</text>
    </g>
   </g>
   <g id="line2d_13">
    <path clip-path="url(#pbd2bcc515b)" d="M 51.913636 52.159869 
L 54.219421 55.429493 
L 56.525207 58.642065 
L 58.830992 61.798798 
L 61.136777 64.900876 
L 63.442562 67.949448 
L 65.748347 70.945637 
L 68.054132 73.890538 
L 70.359917 76.785217 
L 72.665702 79.630714 
L 74.971488 82.428042 
L 77.277273 85.17819 
L 79.583058 87.882122 
L 81.888843 90.540778 
L 84.194628 93.155075 
L 86.500413 95.725909 
L 88.806198 98.254153 
L 91.111983 100.740657 
L 93.417769 103.186255 
L 95.723554 105.591758 
L 98.029339 107.957957 
L 100.335124 110.285626 
L 102.640909 112.57552 
L 104.946694 114.828376 
L 107.252479 117.044914 
L 109.558264 119.225837 
L 111.86405 121.371832 
L 114.169835 123.483569 
L 116.47562 125.561705 
L 118.781405 127.606878 
L 121.08719 129.619715 
L 123.392975 131.600828 
L 125.69876 133.550812 
L 128.004545 135.470253 
L 130.310331 137.359721 
L 132.616116 139.219774 
L 134.921901 141.050958 
L 137.227686 142.853805 
L 139.533471 144.628839 
L 141.839256 146.376567 
L 144.145041 148.09749 
L 146.450826 149.792095 
L 148.756612 151.46086 
L 151.062397 153.104251 
L 153.368182 154.722725 
L 155.673967 156.31673 
L 157.979752 157.886701 
L 160.285537 159.433068 
L 162.591322 160.956249 
L 164.897107 162.456655 
L 167.202893 163.934685 
L 169.508678 165.390734 
L 171.814463 166.825186 
L 174.120248 168.238417 
L 176.426033 169.630796 
L 178.731818 171.002684 
L 181.037603 172.354435 
L 183.343388 173.686394 
L 185.649174 174.998902 
L 187.954959 176.292289 
L 190.260744 177.566883 
L 192.566529 178.823 
L 194.872314 180.060955 
L 197.178099 181.281052 
L 199.483884 182.483592 
L 201.789669 183.668869 
L 204.095455 184.837171 
L 206.40124 185.98878 
L 208.707025 187.123973 
L 211.01281 188.24302 
L 213.318595 189.346189 
L 215.62438 190.433739 
L 217.930165 191.505927 
L 220.23595 192.563003 
L 222.541736 193.605212 
L 224.847521 194.632796 
L 227.153306 195.645991 
L 229.459091 196.645029 
L 231.764876 197.630137 
L 234.070661 198.601538 
L 236.376446 199.559451 
L 238.682231 200.504091 
L 240.988017 201.435669 
L 243.293802 202.35439 
L 245.599587 203.260458 
L 247.905372 204.154071 
L 250.211157 205.035426 
L 252.516942 205.904712 
L 254.822727 206.762119 
L 257.128512 207.607832 
L 259.434298 208.44203 
L 261.740083 209.264893 
L 264.045868 210.076594 
L 266.351653 210.877305 
L 268.657438 211.667195 
L 270.963223 212.446428 
L 273.269008 213.215168 
L 275.574793 213.973572 
L 277.880579 214.721798 
L 280.186364 215.46 
" style="fill:none;stroke:#1f77b4;stroke-linecap:square;stroke-width:1.5;"/>
   </g>
   <g id="line2d_14">
    <path clip-path="url(#pbd2bcc515b)" d="M 51.913636 59.314167 
L 54.219421 39.06 
L 56.525207 67.15449 
L 58.830992 58.007446 
L 61.136777 58.660807 
L 63.442562 68.46121 
L 65.748347 65.194409 
L 68.054132 52.127204 
L 70.359917 58.007446 
L 72.665702 64.541049 
L 74.971488 54.087285 
L 77.277273 74.994812 
L 79.583058 62.580968 
L 81.888843 55.394006 
L 84.194628 61.927608 
L 86.500413 49.513764 
L 88.806198 67.15449 
L 91.111983 64.541049 
L 93.417769 71.074651 
L 95.723554 65.847769 
L 98.029339 62.580968 
L 100.335124 78.261613 
L 102.640909 82.835135 
L 104.946694 54.740645 
L 107.252479 54.740645 
L 109.558264 53.433925 
L 111.86405 73.688092 
L 114.169835 61.927608 
L 116.47562 90.675458 
L 118.781405 58.660807 
L 121.08719 88.062017 
L 123.392975 74.994812 
L 125.69876 73.688092 
L 128.004545 68.46121 
L 130.310331 91.982178 
L 132.616116 74.994812 
L 134.921901 82.835135 
L 137.227686 67.80785 
L 139.533471 77.608253 
L 141.839256 92.635538 
L 144.145041 86.101936 
L 146.450826 91.982178 
L 148.756612 75.648172 
L 151.062397 69.11457 
L 153.368182 81.528414 
L 155.673967 80.221694 
L 157.979752 75.648172 
L 160.285537 90.675458 
L 162.591322 74.994812 
L 164.897107 86.101936 
L 167.202893 80.875054 
L 169.508678 89.368737 
L 171.814463 80.221694 
L 174.120248 100.475861 
L 176.426033 99.822501 
L 178.731818 83.488495 
L 181.037603 76.954893 
L 183.343388 77.608253 
L 185.649174 86.755296 
L 187.954959 67.80785 
L 190.260744 84.795216 
L 192.566529 91.982178 
L 194.872314 102.435942 
L 197.178099 91.328818 
L 199.483884 78.261613 
L 201.789669 87.408656 
L 204.095455 93.288898 
L 206.40124 93.288898 
L 208.707025 97.86242 
L 211.01281 88.715377 
L 213.318595 95.902339 
L 215.62438 82.835135 
L 217.930165 82.181775 
L 220.23595 105.702743 
L 222.541736 102.435942 
L 224.847521 85.448576 
L 227.153306 107.662823 
L 229.459091 95.248979 
L 231.764876 107.009463 
L 234.070661 113.543065 
L 236.376446 95.248979 
L 238.682231 97.86242 
L 240.988017 91.328818 
L 243.293802 97.86242 
L 245.599587 113.543065 
L 247.905372 93.942259 
L 250.211157 95.902339 
L 252.516942 103.089302 
L 254.822727 93.942259 
L 257.128512 102.435942 
L 259.434298 105.049382 
L 261.740083 98.51578 
L 264.045868 91.328818 
L 266.351653 112.236345 
L 268.657438 114.849786 
L 270.963223 97.20906 
L 273.269008 114.196426 
L 275.574793 92.635538 
L 277.880579 110.929624 
L 280.186364 91.982178 
" style="fill:none;stroke:#ff7f0e;stroke-linecap:square;stroke-width:1.5;"/>
   </g>
   <g id="patch_3">
    <path d="M 40.5 224.28 
L 40.5 30.24 
" style="fill:none;stroke:#000000;stroke-linecap:square;stroke-linejoin:miter;stroke-width:0.8;"/>
   </g>
   <g id="patch_4">
    <path d="M 291.6 224.28 
L 291.6 30.24 
" style="fill:none;stroke:#000000;stroke-linecap:square;stroke-linejoin:miter;stroke-width:0.8;"/>
   </g>
   <g id="patch_5">
    <path d="M 40.5 224.28 
L 291.6 224.28 
" style="fill:none;stroke:#000000;stroke-linecap:square;stroke-linejoin:miter;stroke-width:0.8;"/>
   </g>
   <g id="patch_6">
    <path d="M 40.5 30.24 
L 291.6 30.24 
" style="fill:none;stroke:#000000;stroke-linecap:square;stroke-linejoin:miter;stroke-width:0.8;"/>
   </g>
   <g id="text_15">
    <text style="font-family:DejaVu Sans;font-size:12px;font-style:normal;font-weight:normal;text-anchor:middle;" transform="rotate(-0, 166.05, 24.24)" x="166.05" y="24.24">Coin Flips for 0.5*x/(1+0.5*x)</text>
   </g>
   <g id="legend_1">
    <g id="patch_7">
     <path d="M 58.509375 143.438125 
L 284.6 143.438125 
Q 286.6 143.438125 286.6 141.438125 
L 286.6 113.081875 
Q 286.6 111.081875 284.6 111.081875 
L 58.509375 111.081875 
Q 56.509375 111.081875 56.509375 113.081875 
L 56.509375 141.438125 
Q 56.509375 143.438125 58.509375 143.438125 
z
" style="fill:#ffffff;opacity:0.8;stroke:#cccccc;stroke-linejoin:miter;"/>
    </g>
    <g id="line2d_15">
     <path d="M 60.509375 119.180313 
L 80.509375 119.180313 
" style="fill:none;stroke:#1f77b4;stroke-linecap:square;stroke-width:1.5;"/>
    </g>
    <g id="line2d_16"/>
    <g id="text_16">
     <text style="font-family:DejaVu Sans;font-size:10px;font-style:normal;font-weight:normal;text-anchor:start;" transform="rotate(-0, 88.509375, 122.680313)" x="88.509375" y="122.680313">Coin Flip Lower Bound</text>
    </g>
    <g id="line2d_17">
     <path d="M 60.509375 133.858438 
L 80.509375 133.858438 
" style="fill:none;stroke:#ff7f0e;stroke-linecap:square;stroke-width:1.5;"/>
    </g>
    <g id="line2d_18"/>
    <g id="text_17">
     <text style="font-family:DejaVu Sans;font-size:10px;font-style:normal;font-weight:normal;text-anchor:start;" transform="rotate(-0, 88.509375, 137.358438)" x="88.509375" y="137.358438">Average Coins Flipped 0.5*x/(1+0.5*x)</text>
    </g>
   </g>
  </g>
 </g>
 <defs>
  <clipPath id="pbd2bcc515b">
   <rect height="194.04" width="251.1" x="40.5" y="30.24"/>
  </clipPath>
 </defs>
</svg>
