<?xml version="1.0" encoding="utf-8" standalone="no"?>
<!DOCTYPE svg PUBLIC "-//W3C//DTD SVG 1.1//EN"
  "http://www.w3.org/Graphics/SVG/1.1/DTD/svg11.dtd">
<!-- Created with matplotlib (https://matplotlib.org/) -->
<svg height="252pt" version="1.1" viewBox="0 0 324 252" width="324pt" xmlns="http://www.w3.org/2000/svg" xmlns:xlink="http://www.w3.org/1999/xlink">
 <defs>
  <style type="text/css">
*{stroke-linecap:butt;stroke-linejoin:round;}
  </style>
 </defs>
 <g id="figure_1">
  <g id="patch_1">
   <path d="M 0 252 
L 324 252 
L 324 0 
L 0 0 
z
" style="fill:#ffffff;"/>
  </g>
  <g id="axes_1">
   <g id="patch_2">
    <path d="M 40.5 224.28 
L 291.6 224.28 
L 291.6 30.24 
L 40.5 30.24 
z
" style="fill:#ffffff;"/>
   </g>
   <g id="matplotlib.axis_1">
    <g id="xtick_1">
     <g id="line2d_1">
      <defs>
       <path d="M 0 0 
L 0 3.5 
" id="m1e36cb5333" style="stroke:#000000;stroke-width:0.8;"/>
      </defs>
      <g>
       <use style="stroke:#000000;stroke-width:0.8;" x="51.890805" xlink:href="#m1e36cb5333" y="224.28"/>
      </g>
     </g>
     <g id="text_1">
      <text style="font-family:DejaVu Sans;font-size:10px;font-style:normal;font-weight:normal;text-anchor:middle;" transform="rotate(-0, 51.890805, 238.878438)" x="51.890805" y="238.878438">0.0</text>
     </g>
    </g>
    <g id="xtick_2">
     <g id="line2d_2">
      <g>
       <use style="stroke:#000000;stroke-width:0.8;" x="97.554483" xlink:href="#m1e36cb5333" y="224.28"/>
      </g>
     </g>
     <g id="text_2">
      <text style="font-family:DejaVu Sans;font-size:10px;font-style:normal;font-weight:normal;text-anchor:middle;" transform="rotate(-0, 97.554483, 238.878438)" x="97.554483" y="238.878438">0.2</text>
     </g>
    </g>
    <g id="xtick_3">
     <g id="line2d_3">
      <g>
       <use style="stroke:#000000;stroke-width:0.8;" x="143.218161" xlink:href="#m1e36cb5333" y="224.28"/>
      </g>
     </g>
     <g id="text_3">
      <text style="font-family:DejaVu Sans;font-size:10px;font-style:normal;font-weight:normal;text-anchor:middle;" transform="rotate(-0, 143.218161, 238.878438)" x="143.218161" y="238.878438">0.4</text>
     </g>
    </g>
    <g id="xtick_4">
     <g id="line2d_4">
      <g>
       <use style="stroke:#000000;stroke-width:0.8;" x="188.881839" xlink:href="#m1e36cb5333" y="224.28"/>
      </g>
     </g>
     <g id="text_4">
      <text style="font-family:DejaVu Sans;font-size:10px;font-style:normal;font-weight:normal;text-anchor:middle;" transform="rotate(-0, 188.881839, 238.878438)" x="188.881839" y="238.878438">0.6</text>
     </g>
    </g>
    <g id="xtick_5">
     <g id="line2d_5">
      <g>
       <use style="stroke:#000000;stroke-width:0.8;" x="234.545517" xlink:href="#m1e36cb5333" y="224.28"/>
      </g>
     </g>
     <g id="text_5">
      <text style="font-family:DejaVu Sans;font-size:10px;font-style:normal;font-weight:normal;text-anchor:middle;" transform="rotate(-0, 234.545517, 238.878438)" x="234.545517" y="238.878438">0.8</text>
     </g>
    </g>
    <g id="xtick_6">
     <g id="line2d_6">
      <g>
       <use style="stroke:#000000;stroke-width:0.8;" x="280.209195" xlink:href="#m1e36cb5333" y="224.28"/>
      </g>
     </g>
     <g id="text_6">
      <text style="font-family:DejaVu Sans;font-size:10px;font-style:normal;font-weight:normal;text-anchor:middle;" transform="rotate(-0, 280.209195, 238.878438)" x="280.209195" y="238.878438">1.0</text>
     </g>
    </g>
    <g id="text_7">
     <text style="font-family:DejaVu Sans;font-size:10px;font-style:normal;font-weight:normal;text-anchor:middle;" transform="rotate(-0, 166.05, 252.556563)" x="166.05" y="252.556563">Input Coin's Heads Probability (λ)</text>
    </g>
   </g>
   <g id="matplotlib.axis_2">
    <g id="ytick_1">
     <g id="line2d_7">
      <defs>
       <path d="M 0 0 
L -3.5 0 
" id="mdf770f855c" style="stroke:#000000;stroke-width:0.8;"/>
      </defs>
      <g>
       <use style="stroke:#000000;stroke-width:0.8;" x="40.5" xlink:href="#mdf770f855c" y="215.46"/>
      </g>
     </g>
     <g id="text_8">
      <text style="font-family:DejaVu Sans;font-size:10px;font-style:normal;font-weight:normal;text-anchor:end;" transform="rotate(-0, 33.5, 219.259219)" x="33.5" y="219.259219">0.00</text>
     </g>
    </g>
    <g id="ytick_2">
     <g id="line2d_8">
      <g>
       <use style="stroke:#000000;stroke-width:0.8;" x="40.5" xlink:href="#mdf770f855c" y="190.26"/>
      </g>
     </g>
     <g id="text_9">
      <text style="font-family:DejaVu Sans;font-size:10px;font-style:normal;font-weight:normal;text-anchor:end;" transform="rotate(-0, 33.5, 194.059219)" x="33.5" y="194.059219">0.05</text>
     </g>
    </g>
    <g id="ytick_3">
     <g id="line2d_9">
      <g>
       <use style="stroke:#000000;stroke-width:0.8;" x="40.5" xlink:href="#mdf770f855c" y="165.06"/>
      </g>
     </g>
     <g id="text_10">
      <text style="font-family:DejaVu Sans;font-size:10px;font-style:normal;font-weight:normal;text-anchor:end;" transform="rotate(-0, 33.5, 168.859219)" x="33.5" y="168.859219">0.10</text>
     </g>
    </g>
    <g id="ytick_4">
     <g id="line2d_10">
      <g>
       <use style="stroke:#000000;stroke-width:0.8;" x="40.5" xlink:href="#mdf770f855c" y="139.86"/>
      </g>
     </g>
     <g id="text_11">
      <text style="font-family:DejaVu Sans;font-size:10px;font-style:normal;font-weight:normal;text-anchor:end;" transform="rotate(-0, 33.5, 143.659219)" x="33.5" y="143.659219">0.15</text>
     </g>
    </g>
    <g id="ytick_5">
     <g id="line2d_11">
      <g>
       <use style="stroke:#000000;stroke-width:0.8;" x="40.5" xlink:href="#mdf770f855c" y="114.66"/>
      </g>
     </g>
     <g id="text_12">
      <text style="font-family:DejaVu Sans;font-size:10px;font-style:normal;font-weight:normal;text-anchor:end;" transform="rotate(-0, 33.5, 118.459219)" x="33.5" y="118.459219">0.20</text>
     </g>
    </g>
    <g id="ytick_6">
     <g id="line2d_12">
      <g>
       <use style="stroke:#000000;stroke-width:0.8;" x="40.5" xlink:href="#mdf770f855c" y="89.46"/>
      </g>
     </g>
     <g id="text_13">
      <text style="font-family:DejaVu Sans;font-size:10px;font-style:normal;font-weight:normal;text-anchor:end;" transform="rotate(-0, 33.5, 93.259219)" x="33.5" y="93.259219">0.25</text>
     </g>
    </g>
    <g id="ytick_7">
     <g id="line2d_13">
      <g>
       <use style="stroke:#000000;stroke-width:0.8;" x="40.5" xlink:href="#mdf770f855c" y="64.26"/>
      </g>
     </g>
     <g id="text_14">
      <text style="font-family:DejaVu Sans;font-size:10px;font-style:normal;font-weight:normal;text-anchor:end;" transform="rotate(-0, 33.5, 68.059219)" x="33.5" y="68.059219">0.30</text>
     </g>
    </g>
    <g id="ytick_8">
     <g id="line2d_14">
      <g>
       <use style="stroke:#000000;stroke-width:0.8;" x="40.5" xlink:href="#mdf770f855c" y="39.06"/>
      </g>
     </g>
     <g id="text_15">
      <text style="font-family:DejaVu Sans;font-size:10px;font-style:normal;font-weight:normal;text-anchor:end;" transform="rotate(-0, 33.5, 42.859219)" x="33.5" y="42.859219">0.35</text>
     </g>
    </g>
    <g id="text_16">
     <text style="font-family:DejaVu Sans;font-size:10px;font-style:normal;font-weight:normal;text-anchor:middle;" transform="rotate(-90, 5.154687, 127.26)" x="5.154687" y="127.26">Simulated Mean / Function Value</text>
    </g>
   </g>
   <g id="line2d_15">
    <path clip-path="url(#p2225e7041d)" d="M 51.913636 215.434801 
L 54.219421 212.902894 
L 56.525207 210.396301 
L 58.830992 207.914642 
L 61.136777 205.457548 
L 63.442562 203.024656 
L 65.748347 200.61561 
L 68.054132 198.230061 
L 70.359917 195.867667 
L 72.665702 193.528093 
L 74.971488 191.211009 
L 77.277273 188.916094 
L 79.583058 186.643029 
L 81.888843 184.391505 
L 84.194628 182.161217 
L 86.500413 179.951866 
L 88.806198 177.763158 
L 91.111983 175.594805 
L 93.417769 173.446525 
L 95.723554 171.318041 
L 98.029339 169.209079 
L 100.335124 167.119373 
L 102.640909 165.04866 
L 104.946694 162.996683 
L 107.252479 160.963187 
L 109.558264 158.947925 
L 111.86405 156.950653 
L 114.169835 154.97113 
L 116.47562 153.009121 
L 118.781405 151.064395 
L 121.08719 149.136724 
L 123.392975 147.225885 
L 125.69876 145.331658 
L 128.004545 143.453829 
L 130.310331 141.592184 
L 132.616116 139.746515 
L 134.921901 137.916618 
L 137.227686 136.102291 
L 139.533471 134.303337 
L 141.839256 132.51956 
L 144.145041 130.75077 
L 146.450826 128.996779 
L 148.756612 127.257401 
L 151.062397 125.532455 
L 153.368182 123.821762 
L 155.673967 122.125146 
L 157.979752 120.442433 
L 160.285537 118.773454 
L 162.591322 117.118042 
L 164.897107 115.476031 
L 167.202893 113.847259 
L 169.508678 112.231567 
L 171.814463 110.628798 
L 174.120248 109.038798 
L 176.426033 107.461414 
L 178.731818 105.896498 
L 181.037603 104.343901 
L 183.343388 102.803478 
L 185.649174 101.275089 
L 187.954959 99.758591 
L 190.260744 98.253846 
L 192.566529 96.760719 
L 194.872314 95.279075 
L 197.178099 93.808783 
L 199.483884 92.349712 
L 201.789669 90.901735 
L 204.095455 89.464725 
L 206.40124 88.038559 
L 208.707025 86.623113 
L 211.01281 85.218268 
L 213.318595 83.823906 
L 215.62438 82.439908 
L 217.930165 81.06616 
L 220.23595 79.702549 
L 222.541736 78.348962 
L 224.847521 77.00529 
L 227.153306 75.671425 
L 229.459091 74.347258 
L 231.764876 73.032685 
L 234.070661 71.727601 
L 236.376446 70.431905 
L 238.682231 69.145496 
L 240.988017 67.868274 
L 243.293802 66.60014 
L 245.599587 65.340999 
L 247.905372 64.090755 
L 250.211157 62.849314 
L 252.516942 61.616583 
L 254.822727 60.392471 
L 257.128512 59.176888 
L 259.434298 57.969746 
L 261.740083 56.770955 
L 264.045868 55.580431 
L 266.351653 54.398088 
L 268.657438 53.223841 
L 270.963223 52.057609 
L 273.269008 50.899309 
L 275.574793 49.74886 
L 277.880579 48.606184 
L 280.186364 47.4712 
" style="fill:none;stroke:#1f77b4;stroke-linecap:square;stroke-width:1.5;"/>
   </g>
   <g id="line2d_16">
    <path clip-path="url(#p2225e7041d)" d="M 51.913636 215.46 
L 54.219421 214.452 
L 56.525207 211.428 
L 58.830992 210.42 
L 61.136777 212.436 
L 63.442562 204.372 
L 65.748347 199.332 
L 68.054132 197.316 
L 70.359917 190.26 
L 72.665702 200.34 
L 74.971488 188.244 
L 77.277273 183.204 
L 79.583058 190.26 
L 81.888843 187.236 
L 84.194628 187.236 
L 86.500413 189.252 
L 88.806198 180.18 
L 91.111983 168.084 
L 93.417769 174.132 
L 95.723554 160.02 
L 98.029339 171.108 
L 100.335124 159.012 
L 102.640909 171.108 
L 104.946694 168.084 
L 107.252479 160.02 
L 109.558264 165.06 
L 111.86405 150.948 
L 114.169835 159.012 
L 116.47562 159.012 
L 118.781405 155.988 
L 121.08719 153.972 
L 123.392975 152.964 
L 125.69876 146.916 
L 128.004545 128.772 
L 130.310331 159.012 
L 132.616116 142.884 
L 134.921901 125.748 
L 137.227686 139.86 
L 139.533471 143.892 
L 141.839256 121.716 
L 144.145041 139.86 
L 146.450826 135.828 
L 148.756612 135.828 
L 151.062397 129.78 
L 153.368182 125.748 
L 155.673967 122.724 
L 157.979752 120.708 
L 160.285537 120.708 
L 162.591322 126.756 
L 164.897107 103.572 
L 167.202893 104.58 
L 169.508678 118.692 
L 171.814463 102.564 
L 174.120248 115.668 
L 176.426033 88.452 
L 178.731818 97.524 
L 181.037603 101.556 
L 183.343388 88.452 
L 185.649174 95.508 
L 187.954959 92.484 
L 190.260744 89.46 
L 192.566529 96.516 
L 194.872314 98.532 
L 197.178099 80.388 
L 199.483884 100.548 
L 201.789669 89.46 
L 204.095455 83.412 
L 206.40124 90.468 
L 208.707025 83.412 
L 211.01281 79.38 
L 213.318595 61.236 
L 215.62438 90.468 
L 217.930165 78.372 
L 220.23595 78.372 
L 222.541736 67.284 
L 224.847521 82.404 
L 227.153306 82.404 
L 229.459091 76.356 
L 231.764876 74.34 
L 234.070661 63.252 
L 236.376446 71.316 
L 238.682231 66.276 
L 240.988017 53.172 
L 243.293802 79.38 
L 245.599587 71.316 
L 247.905372 59.22 
L 250.211157 53.172 
L 252.516942 57.204 
L 254.822727 67.284 
L 257.128512 73.332 
L 259.434298 54.18 
L 261.740083 61.236 
L 264.045868 75.348 
L 266.351653 47.124 
L 268.657438 62.244 
L 270.963223 39.06 
L 273.269008 65.268 
L 275.574793 61.236 
L 277.880579 61.236 
L 280.186364 43.092 
" style="fill:none;stroke:#ff7f0e;stroke-linecap:square;stroke-width:1.5;"/>
   </g>
   <g id="patch_3">
    <path d="M 40.5 224.28 
L 40.5 30.24 
" style="fill:none;stroke:#000000;stroke-linecap:square;stroke-linejoin:miter;stroke-width:0.8;"/>
   </g>
   <g id="patch_4">
    <path d="M 291.6 224.28 
L 291.6 30.24 
" style="fill:none;stroke:#000000;stroke-linecap:square;stroke-linejoin:miter;stroke-width:0.8;"/>
   </g>
   <g id="patch_5">
    <path d="M 40.5 224.28 
L 291.6 224.28 
" style="fill:none;stroke:#000000;stroke-linecap:square;stroke-linejoin:miter;stroke-width:0.8;"/>
   </g>
   <g id="patch_6">
    <path d="M 40.5 30.24 
L 291.6 30.24 
" style="fill:none;stroke:#000000;stroke-linecap:square;stroke-linejoin:miter;stroke-width:0.8;"/>
   </g>
   <g id="text_17">
    <text style="font-family:DejaVu Sans;font-size:12px;font-style:normal;font-weight:normal;text-anchor:middle;" transform="rotate(-0, 166.05, 24.24)" x="166.05" y="24.24">Expected Value in 0.5*x/(1+0.5*x) Algorithm</text>
   </g>
   <g id="legend_1">
    <g id="patch_7">
     <path d="M 76.089063 219.28 
L 284.6 219.28 
Q 286.6 219.28 286.6 217.28 
L 286.6 188.92375 
Q 286.6 186.92375 284.6 186.92375 
L 76.089063 186.92375 
Q 74.089063 186.92375 74.089063 188.92375 
L 74.089063 217.28 
Q 74.089063 219.28 76.089063 219.28 
z
" style="fill:#ffffff;opacity:0.8;stroke:#cccccc;stroke-linejoin:miter;"/>
    </g>
    <g id="line2d_17">
     <path d="M 78.089063 195.022188 
L 98.089063 195.022188 
" style="fill:none;stroke:#1f77b4;stroke-linecap:square;stroke-width:1.5;"/>
    </g>
    <g id="line2d_18"/>
    <g id="text_18">
     <text style="font-family:DejaVu Sans;font-size:10px;font-style:normal;font-weight:normal;text-anchor:start;" transform="rotate(-0, 106.089063, 198.522188)" x="106.089063" y="198.522188">0.5*x/(1+0.5*x)</text>
    </g>
    <g id="line2d_19">
     <path d="M 78.089063 209.700312 
L 98.089063 209.700312 
" style="fill:none;stroke:#ff7f0e;stroke-linecap:square;stroke-width:1.5;"/>
    </g>
    <g id="line2d_20"/>
    <g id="text_19">
     <text style="font-family:DejaVu Sans;font-size:10px;font-style:normal;font-weight:normal;text-anchor:start;" transform="rotate(-0, 106.089063, 213.200312)" x="106.089063" y="213.200312">Simulated Mean of 0.5*x/(1+0.5*x)</text>
    </g>
   </g>
  </g>
 </g>
 <defs>
  <clipPath id="p2225e7041d">
   <rect height="194.04" width="251.1" x="40.5" y="30.24"/>
  </clipPath>
 </defs>
</svg>
