<?xml version="1.0" encoding="utf-8" standalone="no"?>
<!DOCTYPE svg PUBLIC "-//W3C//DTD SVG 1.1//EN"
  "http://www.w3.org/Graphics/SVG/1.1/DTD/svg11.dtd">
<!-- Created with matplotlib (https://matplotlib.org/) -->
<svg height="252pt" version="1.1" viewBox="0 0 324 252" width="324pt" xmlns="http://www.w3.org/2000/svg" xmlns:xlink="http://www.w3.org/1999/xlink">
 <defs>
  <style type="text/css">
*{stroke-linecap:butt;stroke-linejoin:round;}
  </style>
 </defs>
 <g id="figure_1">
  <g id="patch_1">
   <path d="M 0 252 
L 324 252 
L 324 0 
L 0 0 
z
" style="fill:#ffffff;"/>
  </g>
  <g id="axes_1">
   <g id="patch_2">
    <path d="M 40.5 224.28 
L 291.6 224.28 
L 291.6 30.24 
L 40.5 30.24 
z
" style="fill:#ffffff;"/>
   </g>
   <g id="matplotlib.axis_1">
    <g id="xtick_1">
     <g id="line2d_1">
      <defs>
       <path d="M 0 0 
L 0 3.5 
" id="m545fe7e2e3" style="stroke:#000000;stroke-width:0.8;"/>
      </defs>
      <g>
       <use style="stroke:#000000;stroke-width:0.8;" x="51.890805" xlink:href="#m545fe7e2e3" y="224.28"/>
      </g>
     </g>
     <g id="text_1">
      <text style="font-family:DejaVu Sans;font-size:10px;font-style:normal;font-weight:normal;text-anchor:middle;" transform="rotate(-0, 51.890805, 238.878438)" x="51.890805" y="238.878438">0.0</text>
     </g>
    </g>
    <g id="xtick_2">
     <g id="line2d_2">
      <g>
       <use style="stroke:#000000;stroke-width:0.8;" x="97.554483" xlink:href="#m545fe7e2e3" y="224.28"/>
      </g>
     </g>
     <g id="text_2">
      <text style="font-family:DejaVu Sans;font-size:10px;font-style:normal;font-weight:normal;text-anchor:middle;" transform="rotate(-0, 97.554483, 238.878438)" x="97.554483" y="238.878438">0.2</text>
     </g>
    </g>
    <g id="xtick_3">
     <g id="line2d_3">
      <g>
       <use style="stroke:#000000;stroke-width:0.8;" x="143.218161" xlink:href="#m545fe7e2e3" y="224.28"/>
      </g>
     </g>
     <g id="text_3">
      <text style="font-family:DejaVu Sans;font-size:10px;font-style:normal;font-weight:normal;text-anchor:middle;" transform="rotate(-0, 143.218161, 238.878438)" x="143.218161" y="238.878438">0.4</text>
     </g>
    </g>
    <g id="xtick_4">
     <g id="line2d_4">
      <g>
       <use style="stroke:#000000;stroke-width:0.8;" x="188.881839" xlink:href="#m545fe7e2e3" y="224.28"/>
      </g>
     </g>
     <g id="text_4">
      <text style="font-family:DejaVu Sans;font-size:10px;font-style:normal;font-weight:normal;text-anchor:middle;" transform="rotate(-0, 188.881839, 238.878438)" x="188.881839" y="238.878438">0.6</text>
     </g>
    </g>
    <g id="xtick_5">
     <g id="line2d_5">
      <g>
       <use style="stroke:#000000;stroke-width:0.8;" x="234.545517" xlink:href="#m545fe7e2e3" y="224.28"/>
      </g>
     </g>
     <g id="text_5">
      <text style="font-family:DejaVu Sans;font-size:10px;font-style:normal;font-weight:normal;text-anchor:middle;" transform="rotate(-0, 234.545517, 238.878438)" x="234.545517" y="238.878438">0.8</text>
     </g>
    </g>
    <g id="xtick_6">
     <g id="line2d_6">
      <g>
       <use style="stroke:#000000;stroke-width:0.8;" x="280.209195" xlink:href="#m545fe7e2e3" y="224.28"/>
      </g>
     </g>
     <g id="text_6">
      <text style="font-family:DejaVu Sans;font-size:10px;font-style:normal;font-weight:normal;text-anchor:middle;" transform="rotate(-0, 280.209195, 238.878438)" x="280.209195" y="238.878438">1.0</text>
     </g>
    </g>
    <g id="text_7">
     <text style="font-family:DejaVu Sans;font-size:10px;font-style:normal;font-weight:normal;text-anchor:middle;" transform="rotate(-0, 166.05, 252.556563)" x="166.05" y="252.556563">Input Coin's Heads Probability (λ)</text>
    </g>
   </g>
   <g id="matplotlib.axis_2">
    <g id="ytick_1">
     <g id="line2d_7">
      <defs>
       <path d="M 0 0 
L -3.5 0 
" id="mfa2e0b0c2d" style="stroke:#000000;stroke-width:0.8;"/>
      </defs>
      <g>
       <use style="stroke:#000000;stroke-width:0.8;" x="40.5" xlink:href="#mfa2e0b0c2d" y="215.46"/>
      </g>
     </g>
     <g id="text_8">
      <text style="font-family:DejaVu Sans;font-size:10px;font-style:normal;font-weight:normal;text-anchor:end;" transform="rotate(-0, 33.5, 219.259219)" x="33.5" y="219.259219">0.00</text>
     </g>
    </g>
    <g id="ytick_2">
     <g id="line2d_8">
      <g>
       <use style="stroke:#000000;stroke-width:0.8;" x="40.5" xlink:href="#mfa2e0b0c2d" y="189.518824"/>
      </g>
     </g>
     <g id="text_9">
      <text style="font-family:DejaVu Sans;font-size:10px;font-style:normal;font-weight:normal;text-anchor:end;" transform="rotate(-0, 33.5, 193.318042)" x="33.5" y="193.318042">0.05</text>
     </g>
    </g>
    <g id="ytick_3">
     <g id="line2d_9">
      <g>
       <use style="stroke:#000000;stroke-width:0.8;" x="40.5" xlink:href="#mfa2e0b0c2d" y="163.577647"/>
      </g>
     </g>
     <g id="text_10">
      <text style="font-family:DejaVu Sans;font-size:10px;font-style:normal;font-weight:normal;text-anchor:end;" transform="rotate(-0, 33.5, 167.376866)" x="33.5" y="167.376866">0.10</text>
     </g>
    </g>
    <g id="ytick_4">
     <g id="line2d_10">
      <g>
       <use style="stroke:#000000;stroke-width:0.8;" x="40.5" xlink:href="#mfa2e0b0c2d" y="137.636471"/>
      </g>
     </g>
     <g id="text_11">
      <text style="font-family:DejaVu Sans;font-size:10px;font-style:normal;font-weight:normal;text-anchor:end;" transform="rotate(-0, 33.5, 141.435689)" x="33.5" y="141.435689">0.15</text>
     </g>
    </g>
    <g id="ytick_5">
     <g id="line2d_11">
      <g>
       <use style="stroke:#000000;stroke-width:0.8;" x="40.5" xlink:href="#mfa2e0b0c2d" y="111.695294"/>
      </g>
     </g>
     <g id="text_12">
      <text style="font-family:DejaVu Sans;font-size:10px;font-style:normal;font-weight:normal;text-anchor:end;" transform="rotate(-0, 33.5, 115.494513)" x="33.5" y="115.494513">0.20</text>
     </g>
    </g>
    <g id="ytick_6">
     <g id="line2d_12">
      <g>
       <use style="stroke:#000000;stroke-width:0.8;" x="40.5" xlink:href="#mfa2e0b0c2d" y="85.754118"/>
      </g>
     </g>
     <g id="text_13">
      <text style="font-family:DejaVu Sans;font-size:10px;font-style:normal;font-weight:normal;text-anchor:end;" transform="rotate(-0, 33.5, 89.553336)" x="33.5" y="89.553336">0.25</text>
     </g>
    </g>
    <g id="ytick_7">
     <g id="line2d_13">
      <g>
       <use style="stroke:#000000;stroke-width:0.8;" x="40.5" xlink:href="#mfa2e0b0c2d" y="59.812941"/>
      </g>
     </g>
     <g id="text_14">
      <text style="font-family:DejaVu Sans;font-size:10px;font-style:normal;font-weight:normal;text-anchor:end;" transform="rotate(-0, 33.5, 63.61216)" x="33.5" y="63.61216">0.30</text>
     </g>
    </g>
    <g id="ytick_8">
     <g id="line2d_14">
      <g>
       <use style="stroke:#000000;stroke-width:0.8;" x="40.5" xlink:href="#mfa2e0b0c2d" y="33.871765"/>
      </g>
     </g>
     <g id="text_15">
      <text style="font-family:DejaVu Sans;font-size:10px;font-style:normal;font-weight:normal;text-anchor:end;" transform="rotate(-0, 33.5, 37.670983)" x="33.5" y="37.670983">0.35</text>
     </g>
    </g>
    <g id="text_16">
     <text style="font-family:DejaVu Sans;font-size:10px;font-style:normal;font-weight:normal;text-anchor:middle;" transform="rotate(-90, 5.154687, 127.26)" x="5.154687" y="127.26">Simulated Mean / Function Value</text>
    </g>
   </g>
   <g id="line2d_15">
    <path clip-path="url(#pa2da61f705)" d="M 52.119123 215.200718 
L 54.420757 212.601346 
L 56.722391 210.027904 
L 59.024025 207.480005 
L 61.325658 204.957271 
L 63.627292 202.459331 
L 65.928926 199.985821 
L 68.23056 197.536384 
L 70.532194 195.110672 
L 72.833828 192.70834 
L 75.135462 190.329053 
L 77.437096 187.97248 
L 79.738729 185.638298 
L 82.040363 183.326188 
L 84.341997 181.035841 
L 86.643631 178.766949 
L 88.945265 176.519212 
L 91.246899 174.292337 
L 93.548533 172.086033 
L 95.850167 169.900018 
L 98.151801 167.734012 
L 100.453434 165.587743 
L 102.755068 163.460941 
L 105.056702 161.353343 
L 107.358336 159.26469 
L 109.65997 157.194728 
L 111.961604 155.143207 
L 114.263238 153.109882 
L 116.564872 151.094511 
L 118.866505 149.096858 
L 121.168139 147.11669 
L 123.469773 145.153779 
L 125.771407 143.2079 
L 128.073041 141.278833 
L 130.374675 139.366359 
L 132.676309 137.470267 
L 134.977943 135.590347 
L 137.279576 133.726392 
L 139.58121 131.878201 
L 141.882844 130.045573 
L 144.184478 128.228313 
L 146.486112 126.42623 
L 148.787746 124.639132 
L 151.08938 122.866835 
L 153.391014 121.109155 
L 155.692648 119.365912 
L 157.994281 117.636929 
L 160.295915 115.922031 
L 162.597549 114.221048 
L 164.899183 112.53381 
L 167.200817 110.860152 
L 169.502451 109.19991 
L 171.804085 107.552924 
L 174.105719 105.919036 
L 176.407352 104.298089 
L 178.708986 102.689931 
L 181.01062 101.094411 
L 183.312254 99.51138 
L 185.613888 97.940693 
L 187.915522 96.382206 
L 190.217156 94.835777 
L 192.51879 93.301266 
L 194.820424 91.778537 
L 197.122057 90.267455 
L 199.423691 88.767885 
L 201.725325 87.279698 
L 204.026959 85.802763 
L 206.328593 84.336955 
L 208.630227 82.882147 
L 210.931861 81.438216 
L 213.233495 80.005041 
L 215.535128 78.582502 
L 217.836762 77.170481 
L 220.138396 75.768862 
L 222.44003 74.37753 
L 224.741664 72.996372 
L 227.043298 71.625278 
L 229.344932 70.264137 
L 231.646566 68.912842 
L 233.948199 67.571286 
L 236.249833 66.239365 
L 238.551467 64.916974 
L 240.853101 63.604012 
L 243.154735 62.300379 
L 245.456369 61.005975 
L 247.758003 59.720703 
L 250.059637 58.444466 
L 252.361271 57.17717 
L 254.662904 55.918721 
L 256.964538 54.669026 
L 259.266172 53.427995 
L 261.567806 52.195537 
L 263.86944 50.971565 
L 266.171074 49.75599 
L 268.472708 48.548727 
L 270.774342 47.349691 
L 273.075975 46.158798 
L 275.377609 44.975966 
L 277.679243 43.801112 
L 279.980877 42.634156 
" style="fill:none;stroke:#1f77b4;stroke-linecap:square;stroke-width:1.5;"/>
   </g>
   <g id="line2d_16">
    <path clip-path="url(#pa2da61f705)" d="M 51.913636 215.46 
L 54.219421 214.422353 
L 56.525207 207.158824 
L 58.830992 210.271765 
L 61.136777 203.008235 
L 63.442562 201.970588 
L 65.748347 187.443529 
L 68.054132 200.932941 
L 70.359917 193.669412 
L 72.665702 194.707059 
L 74.971488 193.669412 
L 77.277273 186.405882 
L 79.583058 185.368235 
L 81.888843 193.669412 
L 84.194628 184.330588 
L 86.500413 171.878824 
L 88.806198 166.690588 
L 91.111983 178.104706 
L 93.417769 159.427059 
L 95.723554 162.54 
L 98.029339 170.841176 
L 100.335124 163.577647 
L 102.640909 158.389412 
L 104.946694 158.389412 
L 107.252479 149.050588 
L 109.558264 167.728235 
L 111.86405 155.276471 
L 114.169835 159.427059 
L 116.47562 155.276471 
L 118.781405 162.54 
L 121.08719 148.012941 
L 123.392975 136.598824 
L 125.69876 144.9 
L 128.004545 141.787059 
L 130.310331 152.163529 
L 132.616116 139.711765 
L 134.921901 130.372941 
L 137.227686 130.372941 
L 139.533471 123.109412 
L 141.839256 131.410588 
L 144.145041 137.636471 
L 146.450826 122.071765 
L 148.756612 117.921176 
L 151.062397 115.845882 
L 153.368182 114.808235 
L 155.673967 128.297647 
L 157.979752 123.109412 
L 160.285537 114.808235 
L 162.591322 124.147059 
L 164.897107 116.883529 
L 167.202893 116.883529 
L 169.508678 107.544706 
L 171.814463 107.544706 
L 174.120248 116.883529 
L 176.426033 128.297647 
L 178.731818 114.808235 
L 181.037603 104.431765 
L 183.343388 101.318824 
L 185.649174 87.829412 
L 187.954959 101.318824 
L 190.260744 87.829412 
L 192.566529 103.394118 
L 194.872314 76.415294 
L 197.178099 104.431765 
L 199.483884 77.452941 
L 201.789669 87.829412 
L 204.095455 93.017647 
L 206.40124 81.603529 
L 208.707025 76.415294 
L 211.01281 74.34 
L 213.318595 75.377647 
L 215.62438 74.34 
L 217.930165 83.678824 
L 220.23595 78.490588 
L 222.541736 60.850588 
L 224.847521 78.490588 
L 227.153306 44.248235 
L 229.459091 71.227059 
L 231.764876 67.076471 
L 234.070661 71.227059 
L 236.376446 56.7 
L 238.682231 63.963529 
L 240.988017 72.264706 
L 243.293802 55.662353 
L 245.599587 66.038824 
L 247.905372 65.001176 
L 250.211157 60.850588 
L 252.516942 68.114118 
L 254.822727 46.323529 
L 257.128512 48.398824 
L 259.434298 52.549412 
L 261.740083 39.06 
L 264.045868 39.06 
L 266.351653 67.076471 
L 268.657438 51.511765 
L 270.963223 52.549412 
L 273.269008 53.587059 
L 275.574793 43.210588 
L 277.880579 54.624706 
L 280.186364 41.135294 
" style="fill:none;stroke:#ff7f0e;stroke-linecap:square;stroke-width:1.5;"/>
   </g>
   <g id="patch_3">
    <path d="M 40.5 224.28 
L 40.5 30.24 
" style="fill:none;stroke:#000000;stroke-linecap:square;stroke-linejoin:miter;stroke-width:0.8;"/>
   </g>
   <g id="patch_4">
    <path d="M 291.6 224.28 
L 291.6 30.24 
" style="fill:none;stroke:#000000;stroke-linecap:square;stroke-linejoin:miter;stroke-width:0.8;"/>
   </g>
   <g id="patch_5">
    <path d="M 40.5 224.28 
L 291.6 224.28 
" style="fill:none;stroke:#000000;stroke-linecap:square;stroke-linejoin:miter;stroke-width:0.8;"/>
   </g>
   <g id="patch_6">
    <path d="M 40.5 30.24 
L 291.6 30.24 
" style="fill:none;stroke:#000000;stroke-linecap:square;stroke-linejoin:miter;stroke-width:0.8;"/>
   </g>
   <g id="text_17">
    <text style="font-family:DejaVu Sans;font-size:12px;font-style:normal;font-weight:normal;text-anchor:middle;" transform="rotate(-0, 166.05, 24.24)" x="166.05" y="24.24">Expected Value in 0.5*x/(1+0.5*x) Algorithm</text>
   </g>
   <g id="legend_1">
    <g id="patch_7">
     <path d="M 76.089063 219.28 
L 284.6 219.28 
Q 286.6 219.28 286.6 217.28 
L 286.6 188.92375 
Q 286.6 186.92375 284.6 186.92375 
L 76.089063 186.92375 
Q 74.089063 186.92375 74.089063 188.92375 
L 74.089063 217.28 
Q 74.089063 219.28 76.089063 219.28 
z
" style="fill:#ffffff;opacity:0.8;stroke:#cccccc;stroke-linejoin:miter;"/>
    </g>
    <g id="line2d_17">
     <path d="M 78.089063 195.022188 
L 98.089063 195.022188 
" style="fill:none;stroke:#1f77b4;stroke-linecap:square;stroke-width:1.5;"/>
    </g>
    <g id="line2d_18"/>
    <g id="text_18">
     <text style="font-family:DejaVu Sans;font-size:10px;font-style:normal;font-weight:normal;text-anchor:start;" transform="rotate(-0, 106.089063, 198.522188)" x="106.089063" y="198.522188">0.5*x/(1+0.5*x)</text>
    </g>
    <g id="line2d_19">
     <path d="M 78.089063 209.700312 
L 98.089063 209.700312 
" style="fill:none;stroke:#ff7f0e;stroke-linecap:square;stroke-width:1.5;"/>
    </g>
    <g id="line2d_20"/>
    <g id="text_19">
     <text style="font-family:DejaVu Sans;font-size:10px;font-style:normal;font-weight:normal;text-anchor:start;" transform="rotate(-0, 106.089063, 213.200312)" x="106.089063" y="213.200312">Simulated Mean of 0.5*x/(1+0.5*x)</text>
    </g>
   </g>
  </g>
 </g>
 <defs>
  <clipPath id="pa2da61f705">
   <rect height="194.04" width="251.1" x="40.5" y="30.24"/>
  </clipPath>
 </defs>
</svg>
