<?xml version="1.0" encoding="utf-8" standalone="no"?>
<!DOCTYPE svg PUBLIC "-//W3C//DTD SVG 1.1//EN"
  "http://www.w3.org/Graphics/SVG/1.1/DTD/svg11.dtd">
<!-- Created with matplotlib (https://matplotlib.org/) -->
<svg height="252pt" version="1.1" viewBox="0 0 324 252" width="324pt" xmlns="http://www.w3.org/2000/svg" xmlns:xlink="http://www.w3.org/1999/xlink">
 <defs>
  <style type="text/css">
*{stroke-linecap:butt;stroke-linejoin:round;}
  </style>
 </defs>
 <g id="figure_1">
  <g id="patch_1">
   <path d="M 0 252 
L 324 252 
L 324 0 
L 0 0 
z
" style="fill:#ffffff;"/>
  </g>
  <g id="axes_1">
   <g id="patch_2">
    <path d="M 40.5 224.28 
L 291.6 224.28 
L 291.6 30.24 
L 40.5 30.24 
z
" style="fill:#ffffff;"/>
   </g>
   <g id="matplotlib.axis_1">
    <g id="xtick_1">
     <g id="line2d_1">
      <defs>
       <path d="M 0 0 
L 0 3.5 
" id="m3566ce981d" style="stroke:#000000;stroke-width:0.8;"/>
      </defs>
      <g>
       <use style="stroke:#000000;stroke-width:0.8;" x="51.890805" xlink:href="#m3566ce981d" y="224.28"/>
      </g>
     </g>
     <g id="text_1">
      <text style="font-family:DejaVu Sans;font-size:10px;font-style:normal;font-weight:normal;text-anchor:middle;" transform="rotate(-0, 51.890805, 238.878438)" x="51.890805" y="238.878438">0.0</text>
     </g>
    </g>
    <g id="xtick_2">
     <g id="line2d_2">
      <g>
       <use style="stroke:#000000;stroke-width:0.8;" x="97.554483" xlink:href="#m3566ce981d" y="224.28"/>
      </g>
     </g>
     <g id="text_2">
      <text style="font-family:DejaVu Sans;font-size:10px;font-style:normal;font-weight:normal;text-anchor:middle;" transform="rotate(-0, 97.554483, 238.878438)" x="97.554483" y="238.878438">0.2</text>
     </g>
    </g>
    <g id="xtick_3">
     <g id="line2d_3">
      <g>
       <use style="stroke:#000000;stroke-width:0.8;" x="143.218161" xlink:href="#m3566ce981d" y="224.28"/>
      </g>
     </g>
     <g id="text_3">
      <text style="font-family:DejaVu Sans;font-size:10px;font-style:normal;font-weight:normal;text-anchor:middle;" transform="rotate(-0, 143.218161, 238.878438)" x="143.218161" y="238.878438">0.4</text>
     </g>
    </g>
    <g id="xtick_4">
     <g id="line2d_4">
      <g>
       <use style="stroke:#000000;stroke-width:0.8;" x="188.881839" xlink:href="#m3566ce981d" y="224.28"/>
      </g>
     </g>
     <g id="text_4">
      <text style="font-family:DejaVu Sans;font-size:10px;font-style:normal;font-weight:normal;text-anchor:middle;" transform="rotate(-0, 188.881839, 238.878438)" x="188.881839" y="238.878438">0.6</text>
     </g>
    </g>
    <g id="xtick_5">
     <g id="line2d_5">
      <g>
       <use style="stroke:#000000;stroke-width:0.8;" x="234.545517" xlink:href="#m3566ce981d" y="224.28"/>
      </g>
     </g>
     <g id="text_5">
      <text style="font-family:DejaVu Sans;font-size:10px;font-style:normal;font-weight:normal;text-anchor:middle;" transform="rotate(-0, 234.545517, 238.878438)" x="234.545517" y="238.878438">0.8</text>
     </g>
    </g>
    <g id="xtick_6">
     <g id="line2d_6">
      <g>
       <use style="stroke:#000000;stroke-width:0.8;" x="280.209195" xlink:href="#m3566ce981d" y="224.28"/>
      </g>
     </g>
     <g id="text_6">
      <text style="font-family:DejaVu Sans;font-size:10px;font-style:normal;font-weight:normal;text-anchor:middle;" transform="rotate(-0, 280.209195, 238.878438)" x="280.209195" y="238.878438">1.0</text>
     </g>
    </g>
    <g id="text_7">
     <text style="font-family:DejaVu Sans;font-size:10px;font-style:normal;font-weight:normal;text-anchor:middle;" transform="rotate(-0, 166.05, 252.556563)" x="166.05" y="252.556563">Probability</text>
    </g>
   </g>
   <g id="matplotlib.axis_2">
    <g id="ytick_1">
     <g id="line2d_7">
      <defs>
       <path d="M 0 0 
L -3.5 0 
" id="m6f0c3ec648" style="stroke:#000000;stroke-width:0.8;"/>
      </defs>
      <g>
       <use style="stroke:#000000;stroke-width:0.8;" x="40.5" xlink:href="#m6f0c3ec648" y="204.331963"/>
      </g>
     </g>
     <g id="text_8">
      <text style="font-family:DejaVu Sans;font-size:10px;font-style:normal;font-weight:normal;text-anchor:end;" transform="rotate(-0, 33.5, 208.131181)" x="33.5" y="208.131181">2.75</text>
     </g>
    </g>
    <g id="ytick_2">
     <g id="line2d_8">
      <g>
       <use style="stroke:#000000;stroke-width:0.8;" x="40.5" xlink:href="#m6f0c3ec648" y="178.572617"/>
      </g>
     </g>
     <g id="text_9">
      <text style="font-family:DejaVu Sans;font-size:10px;font-style:normal;font-weight:normal;text-anchor:end;" transform="rotate(-0, 33.5, 182.371836)" x="33.5" y="182.371836">3.00</text>
     </g>
    </g>
    <g id="ytick_3">
     <g id="line2d_9">
      <g>
       <use style="stroke:#000000;stroke-width:0.8;" x="40.5" xlink:href="#m6f0c3ec648" y="152.813271"/>
      </g>
     </g>
     <g id="text_10">
      <text style="font-family:DejaVu Sans;font-size:10px;font-style:normal;font-weight:normal;text-anchor:end;" transform="rotate(-0, 33.5, 156.61249)" x="33.5" y="156.61249">3.25</text>
     </g>
    </g>
    <g id="ytick_4">
     <g id="line2d_10">
      <g>
       <use style="stroke:#000000;stroke-width:0.8;" x="40.5" xlink:href="#m6f0c3ec648" y="127.053925"/>
      </g>
     </g>
     <g id="text_11">
      <text style="font-family:DejaVu Sans;font-size:10px;font-style:normal;font-weight:normal;text-anchor:end;" transform="rotate(-0, 33.5, 130.853144)" x="33.5" y="130.853144">3.50</text>
     </g>
    </g>
    <g id="ytick_5">
     <g id="line2d_11">
      <g>
       <use style="stroke:#000000;stroke-width:0.8;" x="40.5" xlink:href="#m6f0c3ec648" y="101.294579"/>
      </g>
     </g>
     <g id="text_12">
      <text style="font-family:DejaVu Sans;font-size:10px;font-style:normal;font-weight:normal;text-anchor:end;" transform="rotate(-0, 33.5, 105.093798)" x="33.5" y="105.093798">3.75</text>
     </g>
    </g>
    <g id="ytick_6">
     <g id="line2d_12">
      <g>
       <use style="stroke:#000000;stroke-width:0.8;" x="40.5" xlink:href="#m6f0c3ec648" y="75.535234"/>
      </g>
     </g>
     <g id="text_13">
      <text style="font-family:DejaVu Sans;font-size:10px;font-style:normal;font-weight:normal;text-anchor:end;" transform="rotate(-0, 33.5, 79.334452)" x="33.5" y="79.334452">4.00</text>
     </g>
    </g>
    <g id="ytick_7">
     <g id="line2d_13">
      <g>
       <use style="stroke:#000000;stroke-width:0.8;" x="40.5" xlink:href="#m6f0c3ec648" y="49.775888"/>
      </g>
     </g>
     <g id="text_14">
      <text style="font-family:DejaVu Sans;font-size:10px;font-style:normal;font-weight:normal;text-anchor:end;" transform="rotate(-0, 33.5, 53.575107)" x="33.5" y="53.575107">4.25</text>
     </g>
    </g>
    <g id="text_15">
     <text style="font-family:DejaVu Sans;font-size:10px;font-style:normal;font-weight:normal;text-anchor:middle;" transform="rotate(-90, 5.154687, 127.26)" x="5.154687" y="127.26">Average Bits Consumed Per Call</text>
    </g>
   </g>
   <g id="line2d_14">
    <path clip-path="url(#p942f9c8914)" d="M 51.913636 61.11 
L 54.219421 39.06 
L 56.525207 75.947383 
L 58.830992 63.788972 
L 61.136777 79.450654 
L 63.442562 102.118879 
L 65.748347 79.038505 
L 68.054132 93.875888 
L 70.359917 102.943178 
L 72.665702 75.535234 
L 74.971488 110.155794 
L 77.277273 86.045047 
L 79.583058 94.081963 
L 81.888843 95.936636 
L 84.194628 139.212336 
L 86.500413 114.071215 
L 88.806198 125.405327 
L 91.111983 95.318411 
L 93.417769 100.264206 
L 95.723554 73.680561 
L 98.029339 117.368411 
L 100.335124 160.850187 
L 102.640909 105.21 
L 104.946694 134.472617 
L 107.252479 117.162336 
L 109.558264 123.344579 
L 111.86405 125.405327 
L 114.169835 125.199252 
L 116.47562 105.416075 
L 118.781405 117.574486 
L 121.08719 162.70486 
L 123.392975 122.93243 
L 125.69876 138.594112 
L 128.004545 125.199252 
L 130.310331 143.539907 
L 132.616116 162.498785 
L 134.921901 150.546449 
L 137.227686 164.971682 
L 139.533471 152.401121 
L 141.839256 147.249252 
L 144.145041 176.09972 
L 146.450826 122.52028 
L 148.756612 147.043178 
L 151.062397 142.921682 
L 153.368182 142.509533 
L 155.673967 181.251589 
L 157.979752 169.711402 
L 160.285537 149.516075 
L 162.591322 153.431495 
L 164.897107 152.607196 
L 167.202893 117.162336 
L 169.508678 167.650654 
L 171.814463 154.874019 
L 174.120248 153.019346 
L 176.426033 177.336168 
L 178.731818 170.535701 
L 181.037603 174.245047 
L 183.343388 175.275421 
L 185.649174 182.488037 
L 187.954959 164.353458 
L 190.260744 190.524953 
L 192.566529 167.650654 
L 194.872314 140.65486 
L 197.178099 203.713738 
L 199.483884 171.36 
L 201.789669 172.596449 
L 204.095455 194.646449 
L 206.40124 182.900187 
L 208.707025 179.190841 
L 211.01281 202.889439 
L 213.318595 187.227757 
L 215.62438 211.544579 
L 217.930165 173.832897 
L 220.23595 172.802523 
L 222.541736 204.538037 
L 224.847521 193.616075 
L 227.153306 190.937103 
L 229.459091 201.859065 
L 231.764876 179.396916 
L 234.070661 201.859065 
L 236.376446 187.433832 
L 238.682231 200.416542 
L 240.988017 213.811402 
L 243.293802 197.119346 
L 245.599587 206.598785 
L 247.905372 195.882897 
L 250.211157 185.785234 
L 252.516942 206.598785 
L 254.822727 192.173551 
L 257.128512 215.46 
L 259.434298 211.544579 
L 261.740083 204.331963 
L 264.045868 199.592243 
L 266.351653 209.689907 
L 268.657438 208.865607 
L 270.963223 205.980561 
L 273.269008 206.80486 
L 275.574793 198.14972 
L 277.880579 206.598785 
L 280.186364 211.13243 
" style="fill:none;stroke:#1f77b4;stroke-linecap:square;stroke-width:1.5;"/>
   </g>
   <g id="patch_3">
    <path d="M 40.5 224.28 
L 40.5 30.24 
" style="fill:none;stroke:#000000;stroke-linecap:square;stroke-linejoin:miter;stroke-width:0.8;"/>
   </g>
   <g id="patch_4">
    <path d="M 291.6 224.28 
L 291.6 30.24 
" style="fill:none;stroke:#000000;stroke-linecap:square;stroke-linejoin:miter;stroke-width:0.8;"/>
   </g>
   <g id="patch_5">
    <path d="M 40.5 224.28 
L 291.6 224.28 
" style="fill:none;stroke:#000000;stroke-linecap:square;stroke-linejoin:miter;stroke-width:0.8;"/>
   </g>
   <g id="patch_6">
    <path d="M 40.5 30.24 
L 291.6 30.24 
" style="fill:none;stroke:#000000;stroke-linecap:square;stroke-linejoin:miter;stroke-width:0.8;"/>
   </g>
   <g id="text_16">
    <text style="font-family:DejaVu Sans;font-size:12px;font-style:normal;font-weight:normal;text-anchor:middle;" transform="rotate(-0, 166.05, 24.24)" x="166.05" y="24.24">Avg. Bits Consumed by 0.5*x/(1+0.5*x) Algorithm</text>
   </g>
  </g>
 </g>
 <defs>
  <clipPath id="p942f9c8914">
   <rect height="194.04" width="251.1" x="40.5" y="30.24"/>
  </clipPath>
 </defs>
</svg>
