<?xml version="1.0" encoding="utf-8" standalone="no"?>
<!DOCTYPE svg PUBLIC "-//W3C//DTD SVG 1.1//EN"
  "http://www.w3.org/Graphics/SVG/1.1/DTD/svg11.dtd">
<!-- Created with matplotlib (https://matplotlib.org/) -->
<svg height="345.6pt" version="1.1" viewBox="0 0 460.8 345.6" width="460.8pt" xmlns="http://www.w3.org/2000/svg" xmlns:xlink="http://www.w3.org/1999/xlink">
 <defs>
  <style type="text/css">
*{stroke-linecap:butt;stroke-linejoin:round;}
  </style>
 </defs>
 <g id="figure_1">
  <g id="patch_1">
   <path d="M 0 345.6 
L 460.8 345.6 
L 460.8 0 
L 0 0 
z
" style="fill:#ffffff;"/>
  </g>
  <g id="axes_1">
   <g id="patch_2">
    <path d="M 57.6 307.584 
L 414.72 307.584 
L 414.72 41.472 
L 57.6 41.472 
z
" style="fill:#ffffff;"/>
   </g>
   <g id="matplotlib.axis_1">
    <g id="xtick_1">
     <g id="line2d_1">
      <defs>
       <path d="M 0 0 
L 0 3.5 
" id="m8fcce7b331" style="stroke:#000000;stroke-width:0.8;"/>
      </defs>
      <g>
       <use style="stroke:#000000;stroke-width:0.8;" x="73.800255" xlink:href="#m8fcce7b331" y="307.584"/>
      </g>
     </g>
     <g id="text_1">
      <text style="font-family:DejaVu Sans;font-size:10px;font-style:normal;font-weight:normal;text-anchor:middle;" transform="rotate(-0, 73.800255, 322.182437)" x="73.800255" y="322.182437">0.0</text>
     </g>
    </g>
    <g id="xtick_2">
     <g id="line2d_2">
      <g>
       <use style="stroke:#000000;stroke-width:0.8;" x="138.744153" xlink:href="#m8fcce7b331" y="307.584"/>
      </g>
     </g>
     <g id="text_2">
      <text style="font-family:DejaVu Sans;font-size:10px;font-style:normal;font-weight:normal;text-anchor:middle;" transform="rotate(-0, 138.744153, 322.182437)" x="138.744153" y="322.182437">0.2</text>
     </g>
    </g>
    <g id="xtick_3">
     <g id="line2d_3">
      <g>
       <use style="stroke:#000000;stroke-width:0.8;" x="203.688051" xlink:href="#m8fcce7b331" y="307.584"/>
      </g>
     </g>
     <g id="text_3">
      <text style="font-family:DejaVu Sans;font-size:10px;font-style:normal;font-weight:normal;text-anchor:middle;" transform="rotate(-0, 203.688051, 322.182437)" x="203.688051" y="322.182437">0.4</text>
     </g>
    </g>
    <g id="xtick_4">
     <g id="line2d_4">
      <g>
       <use style="stroke:#000000;stroke-width:0.8;" x="268.631949" xlink:href="#m8fcce7b331" y="307.584"/>
      </g>
     </g>
     <g id="text_4">
      <text style="font-family:DejaVu Sans;font-size:10px;font-style:normal;font-weight:normal;text-anchor:middle;" transform="rotate(-0, 268.631949, 322.182437)" x="268.631949" y="322.182437">0.6</text>
     </g>
    </g>
    <g id="xtick_5">
     <g id="line2d_5">
      <g>
       <use style="stroke:#000000;stroke-width:0.8;" x="333.575847" xlink:href="#m8fcce7b331" y="307.584"/>
      </g>
     </g>
     <g id="text_5">
      <text style="font-family:DejaVu Sans;font-size:10px;font-style:normal;font-weight:normal;text-anchor:middle;" transform="rotate(-0, 333.575847, 322.182437)" x="333.575847" y="322.182437">0.8</text>
     </g>
    </g>
    <g id="xtick_6">
     <g id="line2d_6">
      <g>
       <use style="stroke:#000000;stroke-width:0.8;" x="398.519745" xlink:href="#m8fcce7b331" y="307.584"/>
      </g>
     </g>
     <g id="text_6">
      <text style="font-family:DejaVu Sans;font-size:10px;font-style:normal;font-weight:normal;text-anchor:middle;" transform="rotate(-0, 398.519745, 322.182437)" x="398.519745" y="322.182437">1.0</text>
     </g>
    </g>
    <g id="text_7">
     <text style="font-family:DejaVu Sans;font-size:10px;font-style:normal;font-weight:normal;text-anchor:middle;" transform="rotate(-0, 236.16, 335.860562)" x="236.16" y="335.860562">Input Coin's Heads Probability (λ)</text>
    </g>
   </g>
   <g id="matplotlib.axis_2">
    <g id="ytick_1">
     <g id="line2d_7">
      <defs>
       <path d="M 0 0 
L -3.5 0 
" id="m5af9c78464" style="stroke:#000000;stroke-width:0.8;"/>
      </defs>
      <g>
       <use style="stroke:#000000;stroke-width:0.8;" x="57.6" xlink:href="#m5af9c78464" y="295.488"/>
      </g>
     </g>
     <g id="text_8">
      <text style="font-family:DejaVu Sans;font-size:10px;font-style:normal;font-weight:normal;text-anchor:end;" transform="rotate(-0, 50.6, 299.287219)" x="50.6" y="299.287219">0.00</text>
     </g>
    </g>
    <g id="ytick_2">
     <g id="line2d_8">
      <g>
       <use style="stroke:#000000;stroke-width:0.8;" x="57.6" xlink:href="#m5af9c78464" y="261.510472"/>
      </g>
     </g>
     <g id="text_9">
      <text style="font-family:DejaVu Sans;font-size:10px;font-style:normal;font-weight:normal;text-anchor:end;" transform="rotate(-0, 50.6, 265.309691)" x="50.6" y="265.309691">0.05</text>
     </g>
    </g>
    <g id="ytick_3">
     <g id="line2d_9">
      <g>
       <use style="stroke:#000000;stroke-width:0.8;" x="57.6" xlink:href="#m5af9c78464" y="227.532944"/>
      </g>
     </g>
     <g id="text_10">
      <text style="font-family:DejaVu Sans;font-size:10px;font-style:normal;font-weight:normal;text-anchor:end;" transform="rotate(-0, 50.6, 231.332163)" x="50.6" y="231.332163">0.10</text>
     </g>
    </g>
    <g id="ytick_4">
     <g id="line2d_10">
      <g>
       <use style="stroke:#000000;stroke-width:0.8;" x="57.6" xlink:href="#m5af9c78464" y="193.555416"/>
      </g>
     </g>
     <g id="text_11">
      <text style="font-family:DejaVu Sans;font-size:10px;font-style:normal;font-weight:normal;text-anchor:end;" transform="rotate(-0, 50.6, 197.354634)" x="50.6" y="197.354634">0.15</text>
     </g>
    </g>
    <g id="ytick_5">
     <g id="line2d_11">
      <g>
       <use style="stroke:#000000;stroke-width:0.8;" x="57.6" xlink:href="#m5af9c78464" y="159.577888"/>
      </g>
     </g>
     <g id="text_12">
      <text style="font-family:DejaVu Sans;font-size:10px;font-style:normal;font-weight:normal;text-anchor:end;" transform="rotate(-0, 50.6, 163.377106)" x="50.6" y="163.377106">0.20</text>
     </g>
    </g>
    <g id="ytick_6">
     <g id="line2d_12">
      <g>
       <use style="stroke:#000000;stroke-width:0.8;" x="57.6" xlink:href="#m5af9c78464" y="125.60036"/>
      </g>
     </g>
     <g id="text_13">
      <text style="font-family:DejaVu Sans;font-size:10px;font-style:normal;font-weight:normal;text-anchor:end;" transform="rotate(-0, 50.6, 129.399578)" x="50.6" y="129.399578">0.25</text>
     </g>
    </g>
    <g id="ytick_7">
     <g id="line2d_13">
      <g>
       <use style="stroke:#000000;stroke-width:0.8;" x="57.6" xlink:href="#m5af9c78464" y="91.622831"/>
      </g>
     </g>
     <g id="text_14">
      <text style="font-family:DejaVu Sans;font-size:10px;font-style:normal;font-weight:normal;text-anchor:end;" transform="rotate(-0, 50.6, 95.42205)" x="50.6" y="95.42205">0.30</text>
     </g>
    </g>
    <g id="ytick_8">
     <g id="line2d_14">
      <g>
       <use style="stroke:#000000;stroke-width:0.8;" x="57.6" xlink:href="#m5af9c78464" y="57.645303"/>
      </g>
     </g>
     <g id="text_15">
      <text style="font-family:DejaVu Sans;font-size:10px;font-style:normal;font-weight:normal;text-anchor:end;" transform="rotate(-0, 50.6, 61.444522)" x="50.6" y="61.444522">0.35</text>
     </g>
    </g>
    <g id="text_16">
     <text style="font-family:DejaVu Sans;font-size:10px;font-style:normal;font-weight:normal;text-anchor:middle;" transform="rotate(-90, 22.254687, 174.528)" x="22.254687" y="174.528">Simulated Mean / Function Value</text>
    </g>
   </g>
   <g id="line2d_15">
    <path clip-path="url(#p520f2f025a)" d="M 73.832727 295.454024 
L 77.112066 292.040217 
L 80.391405 288.66054 
L 83.670744 285.314483 
L 86.950083 282.001547 
L 90.229421 278.721243 
L 93.50876 275.473092 
L 96.788099 272.256621 
L 100.067438 269.071371 
L 103.346777 265.916889 
L 106.626116 262.792732 
L 109.905455 259.698463 
L 113.184793 256.633657 
L 116.464132 253.597895 
L 119.743471 250.590765 
L 123.02281 247.611864 
L 126.302149 244.660797 
L 129.581488 241.737176 
L 132.860826 238.840619 
L 136.140165 235.970752 
L 139.419504 233.127208 
L 142.698843 230.309627 
L 145.978182 227.517654 
L 149.257521 224.750943 
L 152.53686 222.009151 
L 155.816198 219.291944 
L 159.095537 216.598992 
L 162.374876 213.929973 
L 165.654215 211.284568 
L 168.933554 208.662465 
L 172.212893 206.063358 
L 175.492231 203.486946 
L 178.77157 200.932933 
L 182.050909 198.401027 
L 185.330248 195.890944 
L 188.609587 193.402402 
L 191.888926 190.935125 
L 195.168264 188.488842 
L 198.447603 186.063285 
L 201.726942 183.658194 
L 205.006281 181.273308 
L 208.28562 178.908376 
L 211.564959 176.563148 
L 214.844298 174.237378 
L 218.123636 171.930825 
L 221.402975 169.643253 
L 224.682314 167.374427 
L 227.961653 165.124118 
L 231.240992 162.892101 
L 234.520331 160.678154 
L 237.799669 158.482057 
L 241.079008 156.303596 
L 244.358347 154.14256 
L 247.637686 151.998739 
L 250.917025 149.871929 
L 254.196364 147.761929 
L 257.475702 145.66854 
L 260.755041 143.591567 
L 264.03438 141.530816 
L 267.313719 139.4861 
L 270.593058 137.457231 
L 273.872397 135.444025 
L 277.151736 133.446304 
L 280.431074 131.463887 
L 283.710413 129.496601 
L 286.989752 127.544272 
L 290.269091 125.60673 
L 293.54843 123.683809 
L 296.827769 121.775344 
L 300.107107 119.881171 
L 303.386446 118.001131 
L 306.665785 116.135067 
L 309.945124 114.282823 
L 313.224463 112.444246 
L 316.503802 110.619185 
L 319.78314 108.807493 
L 323.062479 107.009022 
L 326.341818 105.223628 
L 329.621157 103.45117 
L 332.900496 101.691507 
L 336.179835 99.944502 
L 339.459174 98.210017 
L 342.738512 96.48792 
L 346.017851 94.778077 
L 349.29719 93.080358 
L 352.576529 91.394636 
L 355.855868 89.720783 
L 359.135207 88.058674 
L 362.414545 86.408186 
L 365.693884 84.769198 
L 368.973223 83.14159 
L 372.252562 81.525243 
L 375.531901 79.920042 
L 378.81124 78.325871 
L 382.090579 76.742618 
L 385.369917 75.170169 
L 388.649256 73.608416 
L 391.928595 72.05725 
L 395.207934 70.516562 
L 398.487273 68.986248 
" style="fill:none;stroke:#1f77b4;stroke-linecap:square;stroke-width:1.5;"/>
   </g>
   <g id="line2d_16">
    <path clip-path="url(#p520f2f025a)" d="M 73.832727 295.488 
L 77.112066 287.333393 
L 80.391405 291.410697 
L 83.670744 288.692494 
L 86.950083 285.974292 
L 90.229421 277.819685 
L 93.50876 265.587775 
L 96.788099 275.101483 
L 100.067438 260.151371 
L 103.346777 257.433169 
L 106.626116 257.433169 
L 109.905455 264.228674 
L 113.184793 261.510472 
L 116.464132 257.433169 
L 119.743471 246.56036 
L 123.02281 250.637663 
L 126.302149 250.637663 
L 129.581488 242.483056 
L 132.860826 249.278562 
L 136.140165 246.56036 
L 139.419504 227.532944 
L 142.698843 227.532944 
L 145.978182 231.610247 
L 149.257521 243.842157 
L 152.53686 218.019236 
L 155.816198 216.660135 
L 159.095537 211.22373 
L 162.374876 228.892045 
L 165.654215 211.22373 
L 168.933554 228.892045 
L 172.212893 215.301034 
L 175.492231 196.273618 
L 178.77157 196.273618 
L 182.050909 212.582831 
L 185.330248 218.019236 
L 188.609587 193.555416 
L 191.888926 182.682607 
L 195.168264 177.246202 
L 198.447603 185.400809 
L 201.726942 178.605303 
L 205.006281 170.450697 
L 208.28562 198.99182 
L 211.564959 185.400809 
L 214.844298 167.732494 
L 218.123636 162.29609 
L 221.402975 155.500584 
L 224.682314 175.887101 
L 227.961653 166.373393 
L 231.240992 148.705079 
L 234.520331 162.29609 
L 237.799669 132.395865 
L 241.079008 151.423281 
L 244.358347 140.550472 
L 247.637686 126.959461 
L 250.917025 154.141483 
L 254.196364 126.959461 
L 257.475702 152.782382 
L 260.755041 152.782382 
L 264.03438 137.83227 
L 267.313719 165.014292 
L 270.593058 143.268674 
L 273.872397 128.318562 
L 277.151736 120.163955 
L 280.431074 122.882157 
L 283.710413 135.114067 
L 286.989752 124.241258 
L 290.269091 131.036764 
L 293.54843 133.754966 
L 296.827769 114.727551 
L 300.107107 124.241258 
L 303.386446 98.418337 
L 306.665785 98.418337 
L 309.945124 112.009348 
L 313.224463 91.622831 
L 316.503802 110.650247 
L 319.78314 99.777438 
L 323.062479 112.009348 
L 326.341818 114.727551 
L 329.621157 91.622831 
L 332.900496 106.572944 
L 336.179835 121.523056 
L 339.459174 101.136539 
L 342.738512 107.932045 
L 346.017851 54.927101 
L 349.29719 78.03182 
L 352.576529 68.518112 
L 355.855868 90.26373 
L 359.135207 63.081708 
L 362.414545 124.241258 
L 365.693884 90.26373 
L 368.973223 101.136539 
L 372.252562 94.341034 
L 375.531901 71.236315 
L 378.81124 72.595416 
L 382.090579 84.827326 
L 385.369917 90.26373 
L 388.649256 75.313618 
L 391.928595 69.877213 
L 395.207934 53.568 
L 398.487273 79.390921 
" style="fill:none;stroke:#ff7f0e;stroke-linecap:square;stroke-width:1.5;"/>
   </g>
   <g id="patch_3">
    <path d="M 57.6 307.584 
L 57.6 41.472 
" style="fill:none;stroke:#000000;stroke-linecap:square;stroke-linejoin:miter;stroke-width:0.8;"/>
   </g>
   <g id="patch_4">
    <path d="M 414.72 307.584 
L 414.72 41.472 
" style="fill:none;stroke:#000000;stroke-linecap:square;stroke-linejoin:miter;stroke-width:0.8;"/>
   </g>
   <g id="patch_5">
    <path d="M 57.6 307.584 
L 414.72 307.584 
" style="fill:none;stroke:#000000;stroke-linecap:square;stroke-linejoin:miter;stroke-width:0.8;"/>
   </g>
   <g id="patch_6">
    <path d="M 57.6 41.472 
L 414.72 41.472 
" style="fill:none;stroke:#000000;stroke-linecap:square;stroke-linejoin:miter;stroke-width:0.8;"/>
   </g>
   <g id="text_17">
    <text style="font-family:DejaVu Sans;font-size:12px;font-style:normal;font-weight:normal;" transform="translate(96.495937 22.034625)">Simulated Mean for 0.5*x/(1+0.5*x) Algorithm</text>
    <text style="font-family:DejaVu Sans;font-size:12px;font-style:normal;font-weight:normal;" transform="translate(132.609375 35.472)">(Wasserstein Distances in Legend)</text>
   </g>
   <g id="legend_1">
    <g id="patch_7">
     <path d="M 64.6 78.82825 
L 242.85 78.82825 
Q 244.85 78.82825 244.85 76.82825 
L 244.85 48.472 
Q 244.85 46.472 242.85 46.472 
L 64.6 46.472 
Q 62.6 46.472 62.6 48.472 
L 62.6 76.82825 
Q 62.6 78.82825 64.6 78.82825 
z
" style="fill:#ffffff;opacity:0.8;stroke:#cccccc;stroke-linejoin:miter;"/>
    </g>
    <g id="line2d_17">
     <path d="M 66.6 54.570437 
L 86.6 54.570437 
" style="fill:none;stroke:#1f77b4;stroke-linecap:square;stroke-width:1.5;"/>
    </g>
    <g id="line2d_18"/>
    <g id="text_18">
     <text style="font-family:DejaVu Sans;font-size:10px;font-style:normal;font-weight:normal;text-anchor:start;" transform="rotate(-0, 94.6, 58.070437)" x="94.6" y="58.070437">0.5*x/(1+0.5*x)</text>
    </g>
    <g id="line2d_19">
     <path d="M 66.6 69.248562 
L 86.6 69.248562 
" style="fill:none;stroke:#ff7f0e;stroke-linecap:square;stroke-width:1.5;"/>
    </g>
    <g id="line2d_20"/>
    <g id="text_19">
     <text style="font-family:DejaVu Sans;font-size:10px;font-style:normal;font-weight:normal;text-anchor:start;" transform="rotate(-0, 94.6, 72.748562)" x="94.6" y="72.748562">Simul. Mean (WD=0.004965)</text>
    </g>
   </g>
  </g>
 </g>
 <defs>
  <clipPath id="p520f2f025a">
   <rect height="266.112" width="357.12" x="57.6" y="41.472"/>
  </clipPath>
 </defs>
</svg>
