<?xml version="1.0" encoding="utf-8" standalone="no"?>
<!DOCTYPE svg PUBLIC "-//W3C//DTD SVG 1.1//EN"
  "http://www.w3.org/Graphics/SVG/1.1/DTD/svg11.dtd">
<!-- Created with matplotlib (https://matplotlib.org/) -->
<svg height="345.6pt" version="1.1" viewBox="0 0 460.8 345.6" width="460.8pt" xmlns="http://www.w3.org/2000/svg" xmlns:xlink="http://www.w3.org/1999/xlink">
 <defs>
  <style type="text/css">
*{stroke-linecap:butt;stroke-linejoin:round;}
  </style>
 </defs>
 <g id="figure_1">
  <g id="patch_1">
   <path d="M 0 345.6 
L 460.8 345.6 
L 460.8 0 
L 0 0 
z
" style="fill:#ffffff;"/>
  </g>
  <g id="axes_1">
   <g id="patch_2">
    <path d="M 57.6 307.584 
L 414.72 307.584 
L 414.72 41.472 
L 57.6 41.472 
z
" style="fill:#ffffff;"/>
   </g>
   <g id="matplotlib.axis_1">
    <g id="xtick_1">
     <g id="line2d_1">
      <defs>
       <path d="M 0 0 
L 0 3.5 
" id="mcea135e574" style="stroke:#000000;stroke-width:0.8;"/>
      </defs>
      <g>
       <use style="stroke:#000000;stroke-width:0.8;" x="73.800255" xlink:href="#mcea135e574" y="307.584"/>
      </g>
     </g>
     <g id="text_1">
      <text style="font-family:DejaVu Sans;font-size:10px;font-style:normal;font-weight:normal;text-anchor:middle;" transform="rotate(-0, 73.800255, 322.182437)" x="73.800255" y="322.182437">0.0</text>
     </g>
    </g>
    <g id="xtick_2">
     <g id="line2d_2">
      <g>
       <use style="stroke:#000000;stroke-width:0.8;" x="138.744153" xlink:href="#mcea135e574" y="307.584"/>
      </g>
     </g>
     <g id="text_2">
      <text style="font-family:DejaVu Sans;font-size:10px;font-style:normal;font-weight:normal;text-anchor:middle;" transform="rotate(-0, 138.744153, 322.182437)" x="138.744153" y="322.182437">0.2</text>
     </g>
    </g>
    <g id="xtick_3">
     <g id="line2d_3">
      <g>
       <use style="stroke:#000000;stroke-width:0.8;" x="203.688051" xlink:href="#mcea135e574" y="307.584"/>
      </g>
     </g>
     <g id="text_3">
      <text style="font-family:DejaVu Sans;font-size:10px;font-style:normal;font-weight:normal;text-anchor:middle;" transform="rotate(-0, 203.688051, 322.182437)" x="203.688051" y="322.182437">0.4</text>
     </g>
    </g>
    <g id="xtick_4">
     <g id="line2d_4">
      <g>
       <use style="stroke:#000000;stroke-width:0.8;" x="268.631949" xlink:href="#mcea135e574" y="307.584"/>
      </g>
     </g>
     <g id="text_4">
      <text style="font-family:DejaVu Sans;font-size:10px;font-style:normal;font-weight:normal;text-anchor:middle;" transform="rotate(-0, 268.631949, 322.182437)" x="268.631949" y="322.182437">0.6</text>
     </g>
    </g>
    <g id="xtick_5">
     <g id="line2d_5">
      <g>
       <use style="stroke:#000000;stroke-width:0.8;" x="333.575847" xlink:href="#mcea135e574" y="307.584"/>
      </g>
     </g>
     <g id="text_5">
      <text style="font-family:DejaVu Sans;font-size:10px;font-style:normal;font-weight:normal;text-anchor:middle;" transform="rotate(-0, 333.575847, 322.182437)" x="333.575847" y="322.182437">0.8</text>
     </g>
    </g>
    <g id="xtick_6">
     <g id="line2d_6">
      <g>
       <use style="stroke:#000000;stroke-width:0.8;" x="398.519745" xlink:href="#mcea135e574" y="307.584"/>
      </g>
     </g>
     <g id="text_6">
      <text style="font-family:DejaVu Sans;font-size:10px;font-style:normal;font-weight:normal;text-anchor:middle;" transform="rotate(-0, 398.519745, 322.182437)" x="398.519745" y="322.182437">1.0</text>
     </g>
    </g>
    <g id="text_7">
     <text style="font-family:DejaVu Sans;font-size:10px;font-style:normal;font-weight:normal;text-anchor:middle;" transform="rotate(-0, 236.16, 335.860562)" x="236.16" y="335.860562">Input Coin's Heads Probability (λ)</text>
    </g>
   </g>
   <g id="matplotlib.axis_2">
    <g id="ytick_1">
     <g id="line2d_7">
      <defs>
       <path d="M 0 0 
L -3.5 0 
" id="m453f2f5414" style="stroke:#000000;stroke-width:0.8;"/>
      </defs>
      <g>
       <use style="stroke:#000000;stroke-width:0.8;" x="57.6" xlink:href="#m453f2f5414" y="293.432023"/>
      </g>
     </g>
     <g id="text_8">
      <text style="font-family:DejaVu Sans;font-size:10px;font-style:normal;font-weight:normal;text-anchor:end;" transform="rotate(-0, 50.6, 297.231241)" x="50.6" y="297.231241">0.3</text>
     </g>
    </g>
    <g id="ytick_2">
     <g id="line2d_8">
      <g>
       <use style="stroke:#000000;stroke-width:0.8;" x="57.6" xlink:href="#m453f2f5414" y="259.165734"/>
      </g>
     </g>
     <g id="text_9">
      <text style="font-family:DejaVu Sans;font-size:10px;font-style:normal;font-weight:normal;text-anchor:end;" transform="rotate(-0, 50.6, 262.964952)" x="50.6" y="262.964952">0.4</text>
     </g>
    </g>
    <g id="ytick_3">
     <g id="line2d_9">
      <g>
       <use style="stroke:#000000;stroke-width:0.8;" x="57.6" xlink:href="#m453f2f5414" y="224.899445"/>
      </g>
     </g>
     <g id="text_10">
      <text style="font-family:DejaVu Sans;font-size:10px;font-style:normal;font-weight:normal;text-anchor:end;" transform="rotate(-0, 50.6, 228.698664)" x="50.6" y="228.698664">0.5</text>
     </g>
    </g>
    <g id="ytick_4">
     <g id="line2d_10">
      <g>
       <use style="stroke:#000000;stroke-width:0.8;" x="57.6" xlink:href="#m453f2f5414" y="190.633156"/>
      </g>
     </g>
     <g id="text_11">
      <text style="font-family:DejaVu Sans;font-size:10px;font-style:normal;font-weight:normal;text-anchor:end;" transform="rotate(-0, 50.6, 194.432375)" x="50.6" y="194.432375">0.6</text>
     </g>
    </g>
    <g id="ytick_5">
     <g id="line2d_11">
      <g>
       <use style="stroke:#000000;stroke-width:0.8;" x="57.6" xlink:href="#m453f2f5414" y="156.366867"/>
      </g>
     </g>
     <g id="text_12">
      <text style="font-family:DejaVu Sans;font-size:10px;font-style:normal;font-weight:normal;text-anchor:end;" transform="rotate(-0, 50.6, 160.166086)" x="50.6" y="160.166086">0.7</text>
     </g>
    </g>
    <g id="ytick_6">
     <g id="line2d_12">
      <g>
       <use style="stroke:#000000;stroke-width:0.8;" x="57.6" xlink:href="#m453f2f5414" y="122.100578"/>
      </g>
     </g>
     <g id="text_13">
      <text style="font-family:DejaVu Sans;font-size:10px;font-style:normal;font-weight:normal;text-anchor:end;" transform="rotate(-0, 50.6, 125.899797)" x="50.6" y="125.899797">0.8</text>
     </g>
    </g>
    <g id="ytick_7">
     <g id="line2d_13">
      <g>
       <use style="stroke:#000000;stroke-width:0.8;" x="57.6" xlink:href="#m453f2f5414" y="87.834289"/>
      </g>
     </g>
     <g id="text_14">
      <text style="font-family:DejaVu Sans;font-size:10px;font-style:normal;font-weight:normal;text-anchor:end;" transform="rotate(-0, 50.6, 91.633508)" x="50.6" y="91.633508">0.9</text>
     </g>
    </g>
    <g id="ytick_8">
     <g id="line2d_14">
      <g>
       <use style="stroke:#000000;stroke-width:0.8;" x="57.6" xlink:href="#m453f2f5414" y="53.568"/>
      </g>
     </g>
     <g id="text_15">
      <text style="font-family:DejaVu Sans;font-size:10px;font-style:normal;font-weight:normal;text-anchor:end;" transform="rotate(-0, 50.6, 57.367219)" x="50.6" y="57.367219">1.0</text>
     </g>
    </g>
    <g id="text_16">
     <text style="font-family:DejaVu Sans;font-size:10px;font-style:normal;font-weight:normal;text-anchor:middle;" transform="rotate(-90, 28.617187, 174.528)" x="28.617187" y="174.528">Simulated Mean / Function Value</text>
    </g>
   </g>
   <g id="line2d_15">
    <path clip-path="url(#pcbc2dd4614)" d="M 73.832727 53.602265 
L 77.112066 57.045114 
L 80.391405 60.453715 
L 83.670744 63.828744 
L 86.950083 67.170854 
L 90.229421 70.480683 
L 93.50876 73.758847 
L 96.788099 77.005946 
L 100.067438 80.222564 
L 103.346777 83.409269 
L 106.626116 86.56661 
L 109.905455 89.695124 
L 113.184793 92.795334 
L 116.464132 95.867745 
L 119.743471 98.912854 
L 123.02281 101.93114 
L 126.302149 104.923071 
L 129.581488 107.889105 
L 132.860826 110.829686 
L 136.140165 113.745246 
L 139.419504 116.636209 
L 142.698843 119.502985 
L 145.978182 122.345976 
L 149.257521 125.165573 
L 152.53686 127.962158 
L 155.816198 130.736104 
L 159.095537 133.487775 
L 162.374876 136.217525 
L 165.654215 138.925701 
L 168.933554 141.61264 
L 172.212893 144.278675 
L 175.492231 146.924127 
L 178.77157 149.549311 
L 182.050909 152.154537 
L 185.330248 154.740104 
L 188.609587 157.306308 
L 191.888926 159.853437 
L 195.168264 162.381772 
L 198.447603 164.891588 
L 201.726942 167.383154 
L 205.006281 169.856734 
L 208.28562 172.312587 
L 211.564959 174.750963 
L 214.844298 177.172111 
L 218.123636 179.576272 
L 221.402975 181.963682 
L 224.682314 184.334573 
L 227.961653 186.689173 
L 231.240992 189.027704 
L 234.520331 191.350383 
L 237.799669 193.657425 
L 241.079008 195.949037 
L 244.358347 198.225426 
L 247.637686 200.486792 
L 250.917025 202.733332 
L 254.196364 204.96524 
L 257.475702 207.182704 
L 260.755041 209.385911 
L 264.03438 211.575042 
L 267.313719 213.750276 
L 270.593058 215.911789 
L 273.872397 218.059753 
L 277.151736 220.194336 
L 280.431074 222.315704 
L 283.710413 224.42402 
L 286.989752 226.519444 
L 290.269091 228.602131 
L 293.54843 230.672236 
L 296.827769 232.729911 
L 300.107107 234.775303 
L 303.386446 236.808558 
L 306.665785 238.829819 
L 309.945124 240.839228 
L 313.224463 242.836922 
L 316.503802 244.823037 
L 319.78314 246.797707 
L 323.062479 248.761062 
L 326.341818 250.713232 
L 329.621157 252.654343 
L 332.900496 254.584521 
L 336.179835 256.503886 
L 339.459174 258.412561 
L 342.738512 260.310663 
L 346.017851 262.198308 
L 349.29719 264.075612 
L 352.576529 265.942687 
L 355.855868 267.799644 
L 359.135207 269.646592 
L 362.414545 271.483639 
L 365.693884 273.310889 
L 368.973223 275.128447 
L 372.252562 276.936415 
L 375.531901 278.734894 
L 378.81124 280.523983 
L 382.090579 282.303779 
L 385.369917 284.074379 
L 388.649256 285.835877 
L 391.928595 287.588366 
L 395.207934 289.331937 
L 398.487273 291.066682 
" style="fill:none;stroke:#1f77b4;stroke-linecap:square;stroke-width:1.5;"/>
   </g>
   <g id="line2d_16">
    <path clip-path="url(#pcbc2dd4614)" d="M 73.832727 53.568 
L 77.112066 59.050606 
L 80.391405 60.421258 
L 83.670744 63.847887 
L 86.950083 65.218538 
L 90.229421 67.959841 
L 93.50876 69.330493 
L 96.788099 76.869076 
L 100.067438 83.037008 
L 103.346777 85.092986 
L 106.626116 83.037008 
L 109.905455 86.463637 
L 113.184793 98.799501 
L 116.464132 101.540805 
L 119.743471 108.394062 
L 123.02281 105.652759 
L 126.302149 102.22613 
L 129.581488 104.967433 
L 132.860826 104.282108 
L 136.140165 116.617972 
L 139.419504 111.820691 
L 142.698843 117.988623 
L 145.978182 123.471229 
L 149.257521 127.583184 
L 152.53686 128.26851 
L 155.816198 117.303297 
L 159.095537 138.548397 
L 162.374876 135.807093 
L 165.654215 143.345677 
L 168.933554 138.548397 
L 172.212893 135.807093 
L 175.492231 149.513609 
L 178.77157 144.031003 
L 182.050909 145.401654 
L 185.330248 156.366867 
L 188.609587 169.388057 
L 191.888926 169.388057 
L 195.168264 157.052193 
L 198.447603 161.164147 
L 201.726942 154.996215 
L 205.006281 160.478822 
L 208.28562 165.961428 
L 211.564959 174.870663 
L 214.844298 167.332079 
L 218.123636 195.430436 
L 221.402975 181.723921 
L 224.682314 183.779898 
L 227.961653 183.094572 
L 231.240992 184.465224 
L 234.520331 196.801088 
L 237.799669 209.136952 
L 241.079008 196.801088 
L 244.358347 196.115762 
L 247.637686 205.024997 
L 250.917025 207.7663 
L 254.196364 197.486414 
L 257.475702 207.080975 
L 260.755041 209.822278 
L 264.03438 218.046187 
L 267.313719 211.878255 
L 270.593058 207.080975 
L 273.872397 212.563581 
L 277.151736 205.024997 
L 280.431074 213.934232 
L 283.710413 227.640748 
L 286.989752 238.60596 
L 290.269091 224.899445 
L 293.54843 229.696725 
L 296.827769 229.696725 
L 300.107107 244.773892 
L 303.386446 232.438028 
L 306.665785 239.976612 
L 309.945124 239.976612 
L 313.224463 244.088567 
L 316.503802 235.864657 
L 319.78314 249.571173 
L 323.062479 252.997802 
L 326.341818 241.347263 
L 329.621157 248.885847 
L 332.900496 255.739105 
L 336.179835 246.144544 
L 339.459174 247.515195 
L 342.738512 257.109756 
L 346.017851 256.424431 
L 349.29719 264.64834 
L 352.576529 265.333666 
L 355.855868 276.298878 
L 359.135207 281.781484 
L 362.414545 260.536385 
L 365.693884 275.613552 
L 368.973223 258.480408 
L 372.252562 287.264091 
L 375.531901 295.488 
L 378.81124 283.837462 
L 382.090579 278.354856 
L 385.369917 285.208113 
L 388.649256 293.432023 
L 391.928595 285.893439 
L 395.207934 293.432023 
L 398.487273 288.634742 
" style="fill:none;stroke:#ff7f0e;stroke-linecap:square;stroke-width:1.5;"/>
   </g>
   <g id="patch_3">
    <path d="M 57.6 307.584 
L 57.6 41.472 
" style="fill:none;stroke:#000000;stroke-linecap:square;stroke-linejoin:miter;stroke-width:0.8;"/>
   </g>
   <g id="patch_4">
    <path d="M 414.72 307.584 
L 414.72 41.472 
" style="fill:none;stroke:#000000;stroke-linecap:square;stroke-linejoin:miter;stroke-width:0.8;"/>
   </g>
   <g id="patch_5">
    <path d="M 57.6 307.584 
L 414.72 307.584 
" style="fill:none;stroke:#000000;stroke-linecap:square;stroke-linejoin:miter;stroke-width:0.8;"/>
   </g>
   <g id="patch_6">
    <path d="M 57.6 41.472 
L 414.72 41.472 
" style="fill:none;stroke:#000000;stroke-linecap:square;stroke-linejoin:miter;stroke-width:0.8;"/>
   </g>
   <g id="text_17">
    <text style="font-family:DejaVu Sans;font-size:12px;font-style:normal;font-weight:normal;text-anchor:middle;" transform="rotate(-0, 236.16, 35.472)" x="236.16" y="35.472">Expected Value in 1 - log(1+x) (Alt. Series) Algorithm</text>
   </g>
   <g id="legend_1">
    <g id="patch_7">
     <path d="M 157.10125 78.82825 
L 407.72 78.82825 
Q 409.72 78.82825 409.72 76.82825 
L 409.72 48.472 
Q 409.72 46.472 407.72 46.472 
L 157.10125 46.472 
Q 155.10125 46.472 155.10125 48.472 
L 155.10125 76.82825 
Q 155.10125 78.82825 157.10125 78.82825 
z
" style="fill:#ffffff;opacity:0.8;stroke:#cccccc;stroke-linejoin:miter;"/>
    </g>
    <g id="line2d_17">
     <path d="M 159.10125 54.570437 
L 179.10125 54.570437 
" style="fill:none;stroke:#1f77b4;stroke-linecap:square;stroke-width:1.5;"/>
    </g>
    <g id="line2d_18"/>
    <g id="text_18">
     <text style="font-family:DejaVu Sans;font-size:10px;font-style:normal;font-weight:normal;text-anchor:start;" transform="rotate(-0, 187.10125, 58.070437)" x="187.10125" y="58.070437">1 - log(1+x)</text>
    </g>
    <g id="line2d_19">
     <path d="M 159.10125 69.248562 
L 179.10125 69.248562 
" style="fill:none;stroke:#ff7f0e;stroke-linecap:square;stroke-width:1.5;"/>
    </g>
    <g id="line2d_20"/>
    <g id="text_19">
     <text style="font-family:DejaVu Sans;font-size:10px;font-style:normal;font-weight:normal;text-anchor:start;" transform="rotate(-0, 187.10125, 72.748562)" x="187.10125" y="72.748562">Simulated Mean of 1 - log(1+x) (Alt. Series)</text>
    </g>
   </g>
  </g>
 </g>
 <defs>
  <clipPath id="pcbc2dd4614">
   <rect height="266.112" width="357.12" x="57.6" y="41.472"/>
  </clipPath>
 </defs>
</svg>
