<?xml version="1.0" encoding="utf-8" standalone="no"?>
<!DOCTYPE svg PUBLIC "-//W3C//DTD SVG 1.1//EN"
  "http://www.w3.org/Graphics/SVG/1.1/DTD/svg11.dtd">
<!-- Created with matplotlib (https://matplotlib.org/) -->
<svg height="345.6pt" version="1.1" viewBox="0 0 460.8 345.6" width="460.8pt" xmlns="http://www.w3.org/2000/svg" xmlns:xlink="http://www.w3.org/1999/xlink">
 <defs>
  <style type="text/css">
*{stroke-linecap:butt;stroke-linejoin:round;}
  </style>
 </defs>
 <g id="figure_1">
  <g id="patch_1">
   <path d="M 0 345.6 
L 460.8 345.6 
L 460.8 0 
L 0 0 
z
" style="fill:#ffffff;"/>
  </g>
  <g id="axes_1">
   <g id="patch_2">
    <path d="M 57.6 307.584 
L 414.72 307.584 
L 414.72 41.472 
L 57.6 41.472 
z
" style="fill:#ffffff;"/>
   </g>
   <g id="matplotlib.axis_1">
    <g id="xtick_1">
     <g id="line2d_1">
      <defs>
       <path d="M 0 0 
L 0 3.5 
" id="m1c948d63bd" style="stroke:#000000;stroke-width:0.8;"/>
      </defs>
      <g>
       <use style="stroke:#000000;stroke-width:0.8;" x="73.800255" xlink:href="#m1c948d63bd" y="307.584"/>
      </g>
     </g>
     <g id="text_1">
      <text style="font-family:DejaVu Sans;font-size:10px;font-style:normal;font-weight:normal;text-anchor:middle;" transform="rotate(-0, 73.800255, 322.182437)" x="73.800255" y="322.182437">0.0</text>
     </g>
    </g>
    <g id="xtick_2">
     <g id="line2d_2">
      <g>
       <use style="stroke:#000000;stroke-width:0.8;" x="138.744153" xlink:href="#m1c948d63bd" y="307.584"/>
      </g>
     </g>
     <g id="text_2">
      <text style="font-family:DejaVu Sans;font-size:10px;font-style:normal;font-weight:normal;text-anchor:middle;" transform="rotate(-0, 138.744153, 322.182437)" x="138.744153" y="322.182437">0.2</text>
     </g>
    </g>
    <g id="xtick_3">
     <g id="line2d_3">
      <g>
       <use style="stroke:#000000;stroke-width:0.8;" x="203.688051" xlink:href="#m1c948d63bd" y="307.584"/>
      </g>
     </g>
     <g id="text_3">
      <text style="font-family:DejaVu Sans;font-size:10px;font-style:normal;font-weight:normal;text-anchor:middle;" transform="rotate(-0, 203.688051, 322.182437)" x="203.688051" y="322.182437">0.4</text>
     </g>
    </g>
    <g id="xtick_4">
     <g id="line2d_4">
      <g>
       <use style="stroke:#000000;stroke-width:0.8;" x="268.631949" xlink:href="#m1c948d63bd" y="307.584"/>
      </g>
     </g>
     <g id="text_4">
      <text style="font-family:DejaVu Sans;font-size:10px;font-style:normal;font-weight:normal;text-anchor:middle;" transform="rotate(-0, 268.631949, 322.182437)" x="268.631949" y="322.182437">0.6</text>
     </g>
    </g>
    <g id="xtick_5">
     <g id="line2d_5">
      <g>
       <use style="stroke:#000000;stroke-width:0.8;" x="333.575847" xlink:href="#m1c948d63bd" y="307.584"/>
      </g>
     </g>
     <g id="text_5">
      <text style="font-family:DejaVu Sans;font-size:10px;font-style:normal;font-weight:normal;text-anchor:middle;" transform="rotate(-0, 333.575847, 322.182437)" x="333.575847" y="322.182437">0.8</text>
     </g>
    </g>
    <g id="xtick_6">
     <g id="line2d_6">
      <g>
       <use style="stroke:#000000;stroke-width:0.8;" x="398.519745" xlink:href="#m1c948d63bd" y="307.584"/>
      </g>
     </g>
     <g id="text_6">
      <text style="font-family:DejaVu Sans;font-size:10px;font-style:normal;font-weight:normal;text-anchor:middle;" transform="rotate(-0, 398.519745, 322.182437)" x="398.519745" y="322.182437">1.0</text>
     </g>
    </g>
    <g id="text_7">
     <text style="font-family:DejaVu Sans;font-size:10px;font-style:normal;font-weight:normal;text-anchor:middle;" transform="rotate(-0, 236.16, 335.860562)" x="236.16" y="335.860562">Input Coin's Heads Probability (λ)</text>
    </g>
   </g>
   <g id="matplotlib.axis_2">
    <g id="ytick_1">
     <g id="line2d_7">
      <defs>
       <path d="M 0 0 
L -3.5 0 
" id="mb7ab27e4b1" style="stroke:#000000;stroke-width:0.8;"/>
      </defs>
      <g>
       <use style="stroke:#000000;stroke-width:0.8;" x="57.6" xlink:href="#mb7ab27e4b1" y="295.491172"/>
      </g>
     </g>
     <g id="text_8">
      <text style="font-family:DejaVu Sans;font-size:10px;font-style:normal;font-weight:normal;text-anchor:end;" transform="rotate(-0, 50.6, 299.290391)" x="50.6" y="299.290391">0</text>
     </g>
    </g>
    <g id="ytick_2">
     <g id="line2d_8">
      <g>
       <use style="stroke:#000000;stroke-width:0.8;" x="57.6" xlink:href="#mb7ab27e4b1" y="241.514561"/>
      </g>
     </g>
     <g id="text_9">
      <text style="font-family:DejaVu Sans;font-size:10px;font-style:normal;font-weight:normal;text-anchor:end;" transform="rotate(-0, 50.6, 245.313779)" x="50.6" y="245.313779">2</text>
     </g>
    </g>
    <g id="ytick_3">
     <g id="line2d_9">
      <g>
       <use style="stroke:#000000;stroke-width:0.8;" x="57.6" xlink:href="#mb7ab27e4b1" y="187.537949"/>
      </g>
     </g>
     <g id="text_10">
      <text style="font-family:DejaVu Sans;font-size:10px;font-style:normal;font-weight:normal;text-anchor:end;" transform="rotate(-0, 50.6, 191.337168)" x="50.6" y="191.337168">4</text>
     </g>
    </g>
    <g id="ytick_4">
     <g id="line2d_10">
      <g>
       <use style="stroke:#000000;stroke-width:0.8;" x="57.6" xlink:href="#mb7ab27e4b1" y="133.561338"/>
      </g>
     </g>
     <g id="text_11">
      <text style="font-family:DejaVu Sans;font-size:10px;font-style:normal;font-weight:normal;text-anchor:end;" transform="rotate(-0, 50.6, 137.360557)" x="50.6" y="137.360557">6</text>
     </g>
    </g>
    <g id="ytick_5">
     <g id="line2d_11">
      <g>
       <use style="stroke:#000000;stroke-width:0.8;" x="57.6" xlink:href="#mb7ab27e4b1" y="79.584727"/>
      </g>
     </g>
     <g id="text_12">
      <text style="font-family:DejaVu Sans;font-size:10px;font-style:normal;font-weight:normal;text-anchor:end;" transform="rotate(-0, 50.6, 83.383945)" x="50.6" y="83.383945">8</text>
     </g>
    </g>
    <g id="text_13">
     <text style="font-family:DejaVu Sans;font-size:10px;font-style:normal;font-weight:normal;text-anchor:middle;" transform="rotate(-90, 38.157812, 174.528)" x="38.157812" y="174.528">Coin Flips Needed</text>
    </g>
   </g>
   <g id="line2d_12">
    <path clip-path="url(#p8efc634f82)" d="M 73.832727 268.506914 
L 77.112066 268.911818 
L 80.391405 269.309203 
L 83.670744 269.699339 
L 86.950083 270.082481 
L 90.229421 270.458878 
L 93.50876 270.828766 
L 96.788099 271.192374 
L 100.067438 271.549921 
L 103.346777 271.90162 
L 106.626116 272.247674 
L 109.905455 272.588281 
L 113.184793 272.923629 
L 116.464132 273.253903 
L 119.743471 273.579278 
L 123.02281 273.899926 
L 126.302149 274.216011 
L 129.581488 274.527695 
L 132.860826 274.835132 
L 136.140165 275.138471 
L 139.419504 275.437859 
L 142.698843 275.733436 
L 145.978182 276.025339 
L 149.257521 276.313701 
L 152.53686 276.598652 
L 155.816198 276.880317 
L 159.095537 277.158818 
L 162.374876 277.434275 
L 165.654215 277.706804 
L 168.933554 277.976518 
L 172.212893 278.243529 
L 175.492231 278.507943 
L 178.77157 278.769867 
L 182.050909 279.029404 
L 185.330248 279.286656 
L 188.609587 279.541722 
L 191.888926 279.7947 
L 195.168264 280.045684 
L 198.447603 280.29477 
L 201.726942 280.542049 
L 205.006281 280.787613 
L 208.28562 281.031552 
L 211.564959 281.273955 
L 214.844298 281.514908 
L 218.123636 281.754499 
L 221.402975 281.992814 
L 224.682314 282.229936 
L 227.961653 282.465951 
L 231.240992 282.700942 
L 234.520331 282.934992 
L 237.799669 283.168184 
L 241.079008 283.400601 
L 244.358347 283.632324 
L 247.637686 283.863436 
L 250.917025 284.09402 
L 254.196364 284.324156 
L 257.475702 284.553928 
L 260.755041 284.783419 
L 264.03438 285.012711 
L 267.313719 285.241889 
L 270.593058 285.471036 
L 273.872397 285.700237 
L 277.151736 285.929579 
L 280.431074 286.159148 
L 283.710413 286.389032 
L 286.989752 286.619319 
L 290.269091 286.850101 
L 293.54843 287.081469 
L 296.827769 287.313516 
L 300.107107 287.546338 
L 303.386446 287.780031 
L 306.665785 288.014694 
L 309.945124 288.250429 
L 313.224463 288.487339 
L 316.503802 288.725531 
L 319.78314 288.965112 
L 323.062479 289.206196 
L 326.341818 289.448896 
L 329.621157 289.693331 
L 332.900496 289.939624 
L 336.179835 290.187899 
L 339.459174 290.438286 
L 342.738512 290.690921 
L 346.017851 290.94594 
L 349.29719 291.203489 
L 352.576529 291.463717 
L 355.855868 291.726778 
L 359.135207 291.992834 
L 362.414545 292.262052 
L 365.693884 292.534606 
L 368.973223 292.810678 
L 372.252562 293.090457 
L 375.531901 293.374143 
L 378.81124 293.661941 
L 382.090579 293.954068 
L 385.369917 294.250753 
L 388.649256 294.552232 
L 391.928595 294.858755 
L 395.207934 295.170586 
L 398.487273 295.488 
" style="fill:none;stroke:#1f77b4;stroke-linecap:square;stroke-width:1.5;"/>
   </g>
   <g id="line2d_13">
    <path clip-path="url(#p8efc634f82)" d="M 73.832727 268.44889 
L 77.112066 268.232983 
L 80.391405 268.017077 
L 83.670744 267.261404 
L 86.950083 267.045498 
L 90.229421 267.315381 
L 93.50876 266.937545 
L 96.788099 266.937545 
L 100.067438 265.965966 
L 103.346777 266.019942 
L 106.626116 266.289825 
L 109.905455 265.911989 
L 113.184793 265.048363 
L 116.464132 265.696082 
L 119.743471 264.400644 
L 123.02281 263.806901 
L 126.302149 262.889299 
L 129.581488 263.590995 
L 132.860826 262.943275 
L 136.140165 263.267135 
L 139.419504 263.537018 
L 142.698843 262.07965 
L 145.978182 262.835322 
L 149.257521 260.784211 
L 152.53686 262.619416 
L 155.816198 261.377954 
L 159.095537 260.406375 
L 162.374876 261.108071 
L 165.654215 258.895029 
L 168.933554 259.380819 
L 172.212893 258.40924 
L 175.492231 258.679123 
L 178.77157 257.92345 
L 182.050909 257.92345 
L 185.330248 257.761521 
L 188.609587 256.466082 
L 191.888926 255.06269 
L 195.168264 255.170643 
L 198.447603 256.520059 
L 201.726942 254.199064 
L 205.006281 254.145088 
L 208.28562 253.551345 
L 211.564959 251.824093 
L 214.844298 252.471813 
L 218.123636 252.255906 
L 221.402975 251.986023 
L 224.682314 251.230351 
L 227.961653 252.093976 
L 231.240992 251.284327 
L 234.520331 250.042865 
L 237.799669 248.261637 
L 241.079008 248.315614 
L 244.358347 248.153684 
L 247.637686 247.613918 
L 250.917025 248.099707 
L 254.196364 246.534385 
L 257.475702 246.588362 
L 260.755041 246.804269 
L 264.03438 244.159415 
L 267.313719 244.537251 
L 270.593058 244.86111 
L 273.872397 243.565672 
L 277.151736 242.32421 
L 280.431074 240.435028 
L 283.710413 239.679356 
L 286.989752 236.980525 
L 290.269091 240.812865 
L 293.54843 238.707777 
L 296.827769 236.602689 
L 300.107107 236.602689 
L 303.386446 235.361227 
L 306.665785 234.983391 
L 309.945124 234.497601 
L 313.224463 234.713508 
L 316.503802 232.176607 
L 319.78314 233.148186 
L 323.062479 231.690817 
L 326.341818 223.432396 
L 329.621157 225.645437 
L 332.900496 226.940876 
L 336.179835 221.489238 
L 339.459174 223.324443 
L 342.738512 218.952337 
L 346.017851 216.52339 
L 349.29719 222.838653 
L 352.576529 219.761986 
L 355.855868 217.980758 
L 359.135207 210.370056 
L 362.414545 208.264968 
L 365.693884 209.020641 
L 368.973223 205.404208 
L 372.252562 198.225318 
L 375.531901 206.537716 
L 378.81124 192.395844 
L 382.090579 189.75099 
L 385.369917 176.202861 
L 388.649256 170.48134 
L 391.928595 163.248474 
L 395.207934 139.282859 
L 398.487273 53.568 
" style="fill:none;stroke:#ff7f0e;stroke-linecap:square;stroke-width:1.5;"/>
   </g>
   <g id="patch_3">
    <path d="M 57.6 307.584 
L 57.6 41.472 
" style="fill:none;stroke:#000000;stroke-linecap:square;stroke-linejoin:miter;stroke-width:0.8;"/>
   </g>
   <g id="patch_4">
    <path d="M 414.72 307.584 
L 414.72 41.472 
" style="fill:none;stroke:#000000;stroke-linecap:square;stroke-linejoin:miter;stroke-width:0.8;"/>
   </g>
   <g id="patch_5">
    <path d="M 57.6 307.584 
L 414.72 307.584 
" style="fill:none;stroke:#000000;stroke-linecap:square;stroke-linejoin:miter;stroke-width:0.8;"/>
   </g>
   <g id="patch_6">
    <path d="M 57.6 41.472 
L 414.72 41.472 
" style="fill:none;stroke:#000000;stroke-linecap:square;stroke-linejoin:miter;stroke-width:0.8;"/>
   </g>
   <g id="text_14">
    <text style="font-family:DejaVu Sans;font-size:12px;font-style:normal;font-weight:normal;text-anchor:middle;" transform="rotate(-0, 236.16, 35.472)" x="236.16" y="35.472">Coin Flips for 1 - log(1+x)</text>
   </g>
   <g id="legend_1">
    <g id="patch_7">
     <path d="M 64.6 78.82825 
L 313.43125 78.82825 
Q 315.43125 78.82825 315.43125 76.82825 
L 315.43125 48.472 
Q 315.43125 46.472 313.43125 46.472 
L 64.6 46.472 
Q 62.6 46.472 62.6 48.472 
L 62.6 76.82825 
Q 62.6 78.82825 64.6 78.82825 
z
" style="fill:#ffffff;opacity:0.8;stroke:#cccccc;stroke-linejoin:miter;"/>
    </g>
    <g id="line2d_14">
     <path d="M 66.6 54.570437 
L 86.6 54.570437 
" style="fill:none;stroke:#1f77b4;stroke-linecap:square;stroke-width:1.5;"/>
    </g>
    <g id="line2d_15"/>
    <g id="text_15">
     <text style="font-family:DejaVu Sans;font-size:10px;font-style:normal;font-weight:normal;text-anchor:start;" transform="rotate(-0, 94.6, 58.070437)" x="94.6" y="58.070437">Coin Flip Lower Bound</text>
    </g>
    <g id="line2d_16">
     <path d="M 66.6 69.248562 
L 86.6 69.248562 
" style="fill:none;stroke:#ff7f0e;stroke-linecap:square;stroke-width:1.5;"/>
    </g>
    <g id="line2d_17"/>
    <g id="text_16">
     <text style="font-family:DejaVu Sans;font-size:10px;font-style:normal;font-weight:normal;text-anchor:start;" transform="rotate(-0, 94.6, 72.748562)" x="94.6" y="72.748562">Avg. Coins Flipped 1 - log(1+x) (Alt. Series)</text>
    </g>
   </g>
  </g>
 </g>
 <defs>
  <clipPath id="p8efc634f82">
   <rect height="266.112" width="357.12" x="57.6" y="41.472"/>
  </clipPath>
 </defs>
</svg>
