<svg height="460.8" viewBox="0 0 460.8 345.6" width="614.4" xmlns="http://www.w3.org/2000/svg" xmlns:xlink="http://www.w3.org/1999/xlink"><defs><style>*{stroke-linecap:butt;stroke-linejoin:round}</style></defs><g id="figure_1"><path d="M0 345.6h460.8V0H0z" fill="#fff" id="patch_1"/><g id="axes_1"><path d="M57.6 307.584h357.12V41.472H57.6z" fill="#fff" id="patch_2"/><g id="matplotlib.axis_1"><g id="xtick_1"><g id="line2d_1"><defs><path d="M0 0v3.5" id="mfe0c5ef642" stroke="#000" stroke-width=".8"/></defs><use x="73.8" xlink:href="#mfe0c5ef642" y="307.584" stroke="#000" stroke-width=".8"/></g><text x="73.8" y="322.182" font-family="DejaVu Sans" font-size="10" font-weight="400" text-anchor="middle" id="text_1">0.0</text></g><g id="xtick_2"><use x="138.744" xlink:href="#mfe0c5ef642" y="307.584" stroke="#000" stroke-width=".8" id="line2d_2"/><text x="138.744" y="322.182" font-family="DejaVu Sans" font-size="10" font-weight="400" text-anchor="middle" id="text_2">0.2</text></g><g id="xtick_3"><use x="203.688" xlink:href="#mfe0c5ef642" y="307.584" stroke="#000" stroke-width=".8" id="line2d_3"/><text x="203.688" y="322.182" font-family="DejaVu Sans" font-size="10" font-weight="400" text-anchor="middle" id="text_3">0.4</text></g><g id="xtick_4"><use x="268.632" xlink:href="#mfe0c5ef642" y="307.584" stroke="#000" stroke-width=".8" id="line2d_4"/><text x="268.632" y="322.182" font-family="DejaVu Sans" font-size="10" font-weight="400" text-anchor="middle" id="text_4">0.6</text></g><g id="xtick_5"><use x="333.576" xlink:href="#mfe0c5ef642" y="307.584" stroke="#000" stroke-width=".8" id="line2d_5"/><text x="333.576" y="322.182" font-family="DejaVu Sans" font-size="10" font-weight="400" text-anchor="middle" id="text_5">0.8</text></g><g id="xtick_6"><use x="398.52" xlink:href="#mfe0c5ef642" y="307.584" stroke="#000" stroke-width=".8" id="line2d_6"/><text x="398.52" y="322.182" font-family="DejaVu Sans" font-size="10" font-weight="400" text-anchor="middle" id="text_6">1.0</text></g><text x="236.16" y="335.861" font-family="DejaVu Sans" font-size="10" font-weight="400" text-anchor="middle" id="text_7">Input Coin&apos;s Heads Probability (λ)</text></g><g id="matplotlib.axis_2"><g id="ytick_1"><g id="line2d_7"><defs><path d="M0 0h-3.5" id="m55d28800fa" stroke="#000" stroke-width=".8"/></defs><use x="57.6" xlink:href="#m55d28800fa" y="286.824" stroke="#000" stroke-width=".8"/></g><text x="50.6" y="290.623" font-family="DejaVu Sans" font-size="10" font-weight="400" text-anchor="end" id="text_8">0.3</text></g><g id="ytick_2"><use x="57.6" xlink:href="#m55d28800fa" y="253.502" stroke="#000" stroke-width=".8" id="line2d_8"/><text x="50.6" y="257.301" font-family="DejaVu Sans" font-size="10" font-weight="400" text-anchor="end" id="text_9">0.4</text></g><g id="ytick_3"><use x="57.6" xlink:href="#m55d28800fa" y="220.18" stroke="#000" stroke-width=".8" id="line2d_9"/><text x="50.6" y="223.979" font-family="DejaVu Sans" font-size="10" font-weight="400" text-anchor="end" id="text_10">0.5</text></g><g id="ytick_4"><use x="57.6" xlink:href="#m55d28800fa" y="186.857" stroke="#000" stroke-width=".8" id="line2d_10"/><text x="50.6" y="190.656" font-family="DejaVu Sans" font-size="10" font-weight="400" text-anchor="end" id="text_11">0.6</text></g><g id="ytick_5"><use x="57.6" xlink:href="#m55d28800fa" y="153.535" stroke="#000" stroke-width=".8" id="line2d_11"/><text x="50.6" y="157.334" font-family="DejaVu Sans" font-size="10" font-weight="400" text-anchor="end" id="text_12">0.7</text></g><g id="ytick_6"><use x="57.6" xlink:href="#m55d28800fa" y="120.213" stroke="#000" stroke-width=".8" id="line2d_12"/><text x="50.6" y="124.012" font-family="DejaVu Sans" font-size="10" font-weight="400" text-anchor="end" id="text_13">0.8</text></g><g id="ytick_7"><use x="57.6" xlink:href="#m55d28800fa" y="86.89" stroke="#000" stroke-width=".8" id="line2d_13"/><text x="50.6" y="90.69" font-family="DejaVu Sans" font-size="10" font-weight="400" text-anchor="end" id="text_14">0.9</text></g><g id="ytick_8"><use x="57.6" xlink:href="#m55d28800fa" y="53.568" stroke="#000" stroke-width=".8" id="line2d_14"/><text x="50.6" y="57.367" font-family="DejaVu Sans" font-size="10" font-weight="400" text-anchor="end" id="text_15">1.0</text></g><text transform="rotate(-90 28.617 174.528)" x="28.617" y="174.528" font-family="DejaVu Sans" font-size="10" font-weight="400" text-anchor="middle" id="text_16">Simulated Mean / Function Value</text></g><path clip-path="url(#p3e45b48b6c)" d="M73.833 53.601l3.28 3.348 3.278 3.315 3.28 3.282 3.28 3.25 3.278 3.219 3.28 3.188 3.28 3.157 3.278 3.128 3.28 3.1 3.28 3.07 3.278 3.042 3.28 3.015 3.28 2.987 3.278 2.962 3.28 2.935 3.28 2.91 3.278 2.884 3.28 2.86 3.28 2.834 3.279 2.812 3.279 2.788 3.28 2.764 3.279 2.742 3.279 2.72 3.28 2.697 3.279 2.676 3.279 2.655 3.28 2.633 3.279 2.613 3.279 2.593 3.28 2.572 3.279 2.553 3.279 2.534 3.28 2.514 3.279 2.496 3.279 2.476 3.28 2.46 3.279 2.44 3.279 2.423 3.28 2.405 3.279 2.388 3.279 2.372 3.28 2.354 3.279 2.338 3.279 2.322 3.28 2.305 3.279 2.29 3.279 2.274 3.28 2.259 3.279 2.243 3.279 2.229 3.28 2.213 3.279 2.2 3.279 2.184 3.28 2.17 3.279 2.157 3.279 2.142 3.28 2.13 3.279 2.115 3.28 2.102 3.278 2.088 3.28 2.076 3.28 2.063 3.278 2.05 3.28 2.038 3.28 2.025 3.278 2.013 3.28 2.001 3.28 1.99 3.278 1.977 3.28 1.965 3.28 1.954 3.278 1.943 3.28 1.931 3.28 1.92 3.278 1.91 3.28 1.898 3.28 1.888 3.278 1.877 3.28 1.866 3.28 1.856 3.279 1.846 3.279 1.836 3.28 1.826 3.279 1.815 3.279 1.806 3.28 1.796 3.279 1.786 3.279 1.777 3.28 1.768 3.279 1.758 3.279 1.749 3.28 1.74 3.279 1.73 3.279 1.722 3.28 1.713 3.279 1.705 3.279 1.695 3.28 1.687" fill="none" stroke="#1f77b4" stroke-linecap="square" stroke-width="1.5" id="line2d_15"/><path clip-path="url(#p3e45b48b6c)" d="M73.833 53.568l3.28 8.664 3.278-2.666 3.28.666 3.28 6.665 3.278 2 3.28 3.998 3.28 5.332 3.278 1.332 3.28 3.333 3.28 3.332 3.278 1.333 3.28 3.998 3.28 11.996 3.278-3.998 3.28-3.332 3.28 19.993 3.278-10.663 3.28 6.664 3.28-5.331 3.279 9.33 3.279-2.666 3.28 28.657 3.279-21.992 3.279 8.663 3.28-16.66 3.279 12.662 3.279 3.998 3.28 13.996 3.279 2 3.279 4.664 3.28-11.33 3.279 11.997 3.279-6.665 3.28 13.996 3.279-.667 3.279 2 3.28-5.332 3.279 11.996 3.279 9.997 3.28-4.665 3.279-5.998 3.279 3.998 3.28 5.332 3.279 7.997 3.279 3.999 3.28-5.998 3.279 2 3.279 1.332 3.28 6.664 3.279-7.997 3.279 12.663 3.28-1.333 3.279-7.998 3.279 37.321 3.28-19.327 3.279-2.665 3.279 9.996 3.28-10.663 3.279 7.331 3.28-11.996 3.278 9.997 3.28 7.33 3.28 6.665 3.278-10.663 3.28 5.998 3.28 13.995 3.278-6.664 3.28 2 3.28.666 3.278-.667 3.28 2 3.28 13.995 3.278 2 3.28-15.329 3.28 17.328 3.278 5.331 3.28 2 3.28-15.329 3.278 13.996 3.28-5.332 3.28 3.999 3.279 17.994 3.279-9.997 3.28 3.999 3.279 3.332 3.279-4.665 3.28 1.333 3.279 10.663 3.279-10.663 3.28-4.665 3.279 16.66 3.279-6.664 3.28 14.662 3.279-1.333 3.279-2.665 3.28 4.665 3.279-2 3.279 11.996 3.28 3.999" fill="none" stroke="#ff7f0e" stroke-linecap="square" stroke-width="1.5" id="line2d_16"/><path d="M57.6 307.584V41.472" fill="none" stroke="#000" stroke-linecap="square" stroke-width=".8" id="patch_3"/><path d="M414.72 307.584V41.472" fill="none" stroke="#000" stroke-linecap="square" stroke-width=".8" id="patch_4"/><path d="M57.6 307.584h357.12" fill="none" stroke="#000" stroke-linecap="square" stroke-width=".8" id="patch_5"/><path d="M57.6 41.472h357.12" fill="none" stroke="#000" stroke-linecap="square" stroke-width=".8" id="patch_6"/><g id="text_17" font-family="DejaVu Sans" font-size="12" font-weight="400"><text transform="translate(71.231 22.035)">Simulated Mean for 1 - log(1+x) (Alt. Series) Algorithm</text><text transform="translate(132.61 35.472)">(Wasserstein Distances in Legend)</text></g><g id="legend_1"><path d="M229.47 78.828h178.25q2 0 2-2V48.472q0-2-2-2H229.47q-2 0-2 2v28.356q0 2 2 2z" fill="#fff" opacity=".8" stroke="#ccc" id="patch_7"/><path d="M231.47 54.57h20" fill="none" stroke="#1f77b4" stroke-linecap="square" stroke-width="1.5" id="line2d_17"/><text x="259.47" y="58.07" font-family="DejaVu Sans" font-size="10" font-weight="400" id="text_18">1 - log(1+x)</text><path d="M231.47 69.249h20" fill="none" stroke="#ff7f0e" stroke-linecap="square" stroke-width="1.5" id="line2d_19"/><text x="259.47" y="72.749" font-family="DejaVu Sans" font-size="10" font-weight="400" id="text_19">Simul. Mean (WD=0.005938)</text></g></g></g><defs><clipPath id="p3e45b48b6c"><path d="M57.6 41.472h357.12v266.112H57.6z"/></clipPath></defs></svg>