<?xml version="1.0" encoding="utf-8" standalone="no"?>
<!DOCTYPE svg PUBLIC "-//W3C//DTD SVG 1.1//EN"
  "http://www.w3.org/Graphics/SVG/1.1/DTD/svg11.dtd">
<!-- Created with matplotlib (https://matplotlib.org/) -->
<svg height="252pt" version="1.1" viewBox="0 0 324 252" width="324pt" xmlns="http://www.w3.org/2000/svg" xmlns:xlink="http://www.w3.org/1999/xlink">
 <defs>
  <style type="text/css">
*{stroke-linecap:butt;stroke-linejoin:round;}
  </style>
 </defs>
 <g id="figure_1">
  <g id="patch_1">
   <path d="M 0 252 
L 324 252 
L 324 0 
L 0 0 
z
" style="fill:#ffffff;"/>
  </g>
  <g id="axes_1">
   <g id="patch_2">
    <path d="M 40.5 224.28 
L 291.6 224.28 
L 291.6 30.24 
L 40.5 30.24 
z
" style="fill:#ffffff;"/>
   </g>
   <g id="matplotlib.axis_1">
    <g id="xtick_1">
     <g id="line2d_1">
      <defs>
       <path d="M 0 0 
L 0 3.5 
" id="mcb5f9ebd43" style="stroke:#000000;stroke-width:0.8;"/>
      </defs>
      <g>
       <use style="stroke:#000000;stroke-width:0.8;" x="51.890805" xlink:href="#mcb5f9ebd43" y="224.28"/>
      </g>
     </g>
     <g id="text_1">
      <text style="font-family:DejaVu Sans;font-size:10px;font-style:normal;font-weight:normal;text-anchor:middle;" transform="rotate(-0, 51.890805, 238.878438)" x="51.890805" y="238.878438">0.0</text>
     </g>
    </g>
    <g id="xtick_2">
     <g id="line2d_2">
      <g>
       <use style="stroke:#000000;stroke-width:0.8;" x="97.554483" xlink:href="#mcb5f9ebd43" y="224.28"/>
      </g>
     </g>
     <g id="text_2">
      <text style="font-family:DejaVu Sans;font-size:10px;font-style:normal;font-weight:normal;text-anchor:middle;" transform="rotate(-0, 97.554483, 238.878438)" x="97.554483" y="238.878438">0.2</text>
     </g>
    </g>
    <g id="xtick_3">
     <g id="line2d_3">
      <g>
       <use style="stroke:#000000;stroke-width:0.8;" x="143.218161" xlink:href="#mcb5f9ebd43" y="224.28"/>
      </g>
     </g>
     <g id="text_3">
      <text style="font-family:DejaVu Sans;font-size:10px;font-style:normal;font-weight:normal;text-anchor:middle;" transform="rotate(-0, 143.218161, 238.878438)" x="143.218161" y="238.878438">0.4</text>
     </g>
    </g>
    <g id="xtick_4">
     <g id="line2d_4">
      <g>
       <use style="stroke:#000000;stroke-width:0.8;" x="188.881839" xlink:href="#mcb5f9ebd43" y="224.28"/>
      </g>
     </g>
     <g id="text_4">
      <text style="font-family:DejaVu Sans;font-size:10px;font-style:normal;font-weight:normal;text-anchor:middle;" transform="rotate(-0, 188.881839, 238.878438)" x="188.881839" y="238.878438">0.6</text>
     </g>
    </g>
    <g id="xtick_5">
     <g id="line2d_5">
      <g>
       <use style="stroke:#000000;stroke-width:0.8;" x="234.545517" xlink:href="#mcb5f9ebd43" y="224.28"/>
      </g>
     </g>
     <g id="text_5">
      <text style="font-family:DejaVu Sans;font-size:10px;font-style:normal;font-weight:normal;text-anchor:middle;" transform="rotate(-0, 234.545517, 238.878438)" x="234.545517" y="238.878438">0.8</text>
     </g>
    </g>
    <g id="xtick_6">
     <g id="line2d_6">
      <g>
       <use style="stroke:#000000;stroke-width:0.8;" x="280.209195" xlink:href="#mcb5f9ebd43" y="224.28"/>
      </g>
     </g>
     <g id="text_6">
      <text style="font-family:DejaVu Sans;font-size:10px;font-style:normal;font-weight:normal;text-anchor:middle;" transform="rotate(-0, 280.209195, 238.878438)" x="280.209195" y="238.878438">1.0</text>
     </g>
    </g>
    <g id="text_7">
     <text style="font-family:DejaVu Sans;font-size:10px;font-style:normal;font-weight:normal;text-anchor:middle;" transform="rotate(-0, 166.05, 252.556563)" x="166.05" y="252.556563">Input Coin's Heads Probability (λ)</text>
    </g>
   </g>
   <g id="matplotlib.axis_2">
    <g id="ytick_1">
     <g id="line2d_7">
      <defs>
       <path d="M 0 0 
L -3.5 0 
" id="m37d28231da" style="stroke:#000000;stroke-width:0.8;"/>
      </defs>
      <g>
       <use style="stroke:#000000;stroke-width:0.8;" x="40.5" xlink:href="#m37d28231da" y="210.56"/>
      </g>
     </g>
     <g id="text_8">
      <text style="font-family:DejaVu Sans;font-size:10px;font-style:normal;font-weight:normal;text-anchor:end;" transform="rotate(-0, 33.5, 214.359219)" x="33.5" y="214.359219">0.3</text>
     </g>
    </g>
    <g id="ytick_2">
     <g id="line2d_8">
      <g>
       <use style="stroke:#000000;stroke-width:0.8;" x="40.5" xlink:href="#m37d28231da" y="186.06"/>
      </g>
     </g>
     <g id="text_9">
      <text style="font-family:DejaVu Sans;font-size:10px;font-style:normal;font-weight:normal;text-anchor:end;" transform="rotate(-0, 33.5, 189.859219)" x="33.5" y="189.859219">0.4</text>
     </g>
    </g>
    <g id="ytick_3">
     <g id="line2d_9">
      <g>
       <use style="stroke:#000000;stroke-width:0.8;" x="40.5" xlink:href="#m37d28231da" y="161.56"/>
      </g>
     </g>
     <g id="text_10">
      <text style="font-family:DejaVu Sans;font-size:10px;font-style:normal;font-weight:normal;text-anchor:end;" transform="rotate(-0, 33.5, 165.359219)" x="33.5" y="165.359219">0.5</text>
     </g>
    </g>
    <g id="ytick_4">
     <g id="line2d_10">
      <g>
       <use style="stroke:#000000;stroke-width:0.8;" x="40.5" xlink:href="#m37d28231da" y="137.06"/>
      </g>
     </g>
     <g id="text_11">
      <text style="font-family:DejaVu Sans;font-size:10px;font-style:normal;font-weight:normal;text-anchor:end;" transform="rotate(-0, 33.5, 140.859219)" x="33.5" y="140.859219">0.6</text>
     </g>
    </g>
    <g id="ytick_5">
     <g id="line2d_11">
      <g>
       <use style="stroke:#000000;stroke-width:0.8;" x="40.5" xlink:href="#m37d28231da" y="112.56"/>
      </g>
     </g>
     <g id="text_12">
      <text style="font-family:DejaVu Sans;font-size:10px;font-style:normal;font-weight:normal;text-anchor:end;" transform="rotate(-0, 33.5, 116.359219)" x="33.5" y="116.359219">0.7</text>
     </g>
    </g>
    <g id="ytick_6">
     <g id="line2d_12">
      <g>
       <use style="stroke:#000000;stroke-width:0.8;" x="40.5" xlink:href="#m37d28231da" y="88.06"/>
      </g>
     </g>
     <g id="text_13">
      <text style="font-family:DejaVu Sans;font-size:10px;font-style:normal;font-weight:normal;text-anchor:end;" transform="rotate(-0, 33.5, 91.859219)" x="33.5" y="91.859219">0.8</text>
     </g>
    </g>
    <g id="ytick_7">
     <g id="line2d_13">
      <g>
       <use style="stroke:#000000;stroke-width:0.8;" x="40.5" xlink:href="#m37d28231da" y="63.56"/>
      </g>
     </g>
     <g id="text_14">
      <text style="font-family:DejaVu Sans;font-size:10px;font-style:normal;font-weight:normal;text-anchor:end;" transform="rotate(-0, 33.5, 67.359219)" x="33.5" y="67.359219">0.9</text>
     </g>
    </g>
    <g id="ytick_8">
     <g id="line2d_14">
      <g>
       <use style="stroke:#000000;stroke-width:0.8;" x="40.5" xlink:href="#m37d28231da" y="39.06"/>
      </g>
     </g>
     <g id="text_15">
      <text style="font-family:DejaVu Sans;font-size:10px;font-style:normal;font-weight:normal;text-anchor:end;" transform="rotate(-0, 33.5, 42.859219)" x="33.5" y="42.859219">1.0</text>
     </g>
    </g>
    <g id="text_16">
     <text style="font-family:DejaVu Sans;font-size:10px;font-style:normal;font-weight:normal;text-anchor:middle;" transform="rotate(-90, 11.517187, 127.26)" x="11.517187" y="127.26">Simulated Mean / Function Value</text>
    </g>
   </g>
   <g id="line2d_15">
    <path clip-path="url(#pfdc77ad7e2)" d="M 52.119123 39.304878 
L 54.420757 41.759867 
L 56.722391 44.190501 
L 59.024025 46.597257 
L 61.325658 48.9806 
L 63.627292 51.340981 
L 65.928926 53.678838 
L 68.23056 55.994598 
L 70.532194 58.288674 
L 72.833828 60.561468 
L 75.135462 62.813372 
L 77.437096 65.044766 
L 79.738729 67.256021 
L 82.040363 69.447496 
L 84.341997 71.619542 
L 86.643631 73.772501 
L 88.945265 75.906706 
L 91.246899 78.02248 
L 93.548533 80.120138 
L 95.850167 82.19999 
L 98.151801 84.262333 
L 100.453434 86.307461 
L 102.755068 88.335659 
L 105.056702 90.347204 
L 107.358336 92.342368 
L 109.65997 94.321416 
L 111.961604 96.284605 
L 114.263238 98.232188 
L 116.564872 100.164412 
L 118.866505 102.081515 
L 121.168139 103.983734 
L 123.469773 105.871298 
L 125.771407 107.74443 
L 128.073041 109.60335 
L 130.374675 111.448272 
L 132.676309 113.279404 
L 134.977943 115.096953 
L 137.279576 116.901116 
L 139.58121 118.692091 
L 141.882844 120.470069 
L 144.184478 122.235237 
L 146.486112 123.987778 
L 148.787746 125.727872 
L 151.08938 127.455694 
L 153.391014 129.171417 
L 155.692648 130.875207 
L 157.994281 132.567231 
L 160.295915 134.247649 
L 162.597549 135.91662 
L 164.899183 137.574299 
L 167.200817 139.220837 
L 169.502451 140.856384 
L 171.804085 142.481084 
L 174.105719 144.095081 
L 176.407352 145.698515 
L 178.708986 147.291524 
L 181.01062 148.874241 
L 183.312254 150.4468 
L 185.613888 152.009329 
L 187.915522 153.561956 
L 190.217156 155.104806 
L 192.51879 156.638 
L 194.820424 158.16166 
L 197.122057 159.675902 
L 199.423691 161.180843 
L 201.725325 162.676596 
L 204.026959 164.163273 
L 206.328593 165.640983 
L 208.630227 167.109833 
L 210.931861 168.56993 
L 213.233495 170.021377 
L 215.535128 171.464275 
L 217.836762 172.898726 
L 220.138396 174.324827 
L 222.44003 175.742674 
L 224.741664 177.152364 
L 227.043298 178.553989 
L 229.344932 179.947641 
L 231.646566 181.33341 
L 233.948199 182.711385 
L 236.249833 184.081653 
L 238.551467 185.4443 
L 240.853101 186.79941 
L 243.154735 188.147066 
L 245.456369 189.48735 
L 247.758003 190.820341 
L 250.059637 192.146119 
L 252.361271 193.464762 
L 254.662904 194.776345 
L 256.964538 196.080944 
L 259.266172 197.378633 
L 261.567806 198.669485 
L 263.86944 199.953571 
L 266.171074 201.230962 
L 268.472708 202.501728 
L 270.774342 203.765936 
L 273.075975 205.023655 
L 275.377609 206.274949 
L 277.679243 207.519886 
L 279.980877 208.758529 
" style="fill:none;stroke:#1f77b4;stroke-linecap:square;stroke-width:1.5;"/>
   </g>
   <g id="line2d_16">
    <path clip-path="url(#pfdc77ad7e2)" d="M 51.913636 39.06 
L 54.219421 40.04 
L 56.525207 43.47 
L 58.830992 47.88 
L 61.136777 46.9 
L 63.442562 53.76 
L 65.748347 50.33 
L 68.054132 56.7 
L 70.359917 61.11 
L 72.665702 60.62 
L 74.971488 58.66 
L 77.277273 60.62 
L 79.583058 68.95 
L 81.888843 70.42 
L 84.194628 72.38 
L 86.500413 72.38 
L 88.806198 72.38 
L 91.111983 79.73 
L 93.417769 82.67 
L 95.723554 80.71 
L 98.029339 91.98 
L 100.335124 90.51 
L 102.640909 93.45 
L 104.946694 86.1 
L 107.252479 88.06 
L 109.558264 91.98 
L 111.86405 105.7 
L 114.169835 98.35 
L 116.47562 104.23 
L 118.781405 104.72 
L 121.08719 109.62 
L 123.392975 105.21 
L 125.69876 106.68 
L 128.004545 115.99 
L 130.310331 120.89 
L 132.616116 113.54 
L 134.921901 119.42 
L 137.227686 116.97 
L 139.533471 119.42 
L 141.839256 118.44 
L 144.145041 121.87 
L 146.450826 119.91 
L 148.756612 124.81 
L 151.062397 123.34 
L 153.368182 127.75 
L 155.673967 128.24 
L 157.979752 125.79 
L 160.285537 127.75 
L 162.591322 142.94 
L 164.897107 137.55 
L 167.202893 145.88 
L 169.508678 146.37 
L 171.814463 145.88 
L 174.120248 156.66 
L 176.426033 148.33 
L 178.731818 150.29 
L 181.037603 152.74 
L 183.343388 155.68 
L 185.649174 157.15 
L 187.954959 150.78 
L 190.260744 159.11 
L 192.566529 162.54 
L 194.872314 164.01 
L 197.178099 162.05 
L 199.483884 157.64 
L 201.789669 163.03 
L 204.095455 164.5 
L 206.40124 161.07 
L 208.707025 171.85 
L 211.01281 164.99 
L 213.318595 174.3 
L 215.62438 171.85 
L 217.930165 172.34 
L 220.23595 182.14 
L 222.541736 176.26 
L 224.847521 177.24 
L 227.153306 186.55 
L 229.459091 182.63 
L 231.764876 176.75 
L 234.070661 185.57 
L 236.376446 187.53 
L 238.682231 191.94 
L 240.988017 185.08 
L 243.293802 182.14 
L 245.599587 187.04 
L 247.905372 197.33 
L 250.211157 181.16 
L 252.516942 192.92 
L 254.822727 195.37 
L 257.128512 199.29 
L 259.434298 195.86 
L 261.740083 209.09 
L 264.045868 204.19 
L 266.351653 204.19 
L 268.657438 199.29 
L 270.963223 199.29 
L 273.269008 206.15 
L 275.574793 207.13 
L 277.880579 205.66 
L 280.186364 215.46 
" style="fill:none;stroke:#ff7f0e;stroke-linecap:square;stroke-width:1.5;"/>
   </g>
   <g id="patch_3">
    <path d="M 40.5 224.28 
L 40.5 30.24 
" style="fill:none;stroke:#000000;stroke-linecap:square;stroke-linejoin:miter;stroke-width:0.8;"/>
   </g>
   <g id="patch_4">
    <path d="M 291.6 224.28 
L 291.6 30.24 
" style="fill:none;stroke:#000000;stroke-linecap:square;stroke-linejoin:miter;stroke-width:0.8;"/>
   </g>
   <g id="patch_5">
    <path d="M 40.5 224.28 
L 291.6 224.28 
" style="fill:none;stroke:#000000;stroke-linecap:square;stroke-linejoin:miter;stroke-width:0.8;"/>
   </g>
   <g id="patch_6">
    <path d="M 40.5 30.24 
L 291.6 30.24 
" style="fill:none;stroke:#000000;stroke-linecap:square;stroke-linejoin:miter;stroke-width:0.8;"/>
   </g>
   <g id="text_17">
    <text style="font-family:DejaVu Sans;font-size:12px;font-style:normal;font-weight:normal;text-anchor:middle;" transform="rotate(-0, 166.05, 24.24)" x="166.05" y="24.24">Expected Value in 1 - log(1+x) (Alt. Series) Algorithm</text>
   </g>
   <g id="legend_1">
    <g id="patch_7">
     <path d="M 33.98125 67.59625 
L 284.6 67.59625 
Q 286.6 67.59625 286.6 65.59625 
L 286.6 37.24 
Q 286.6 35.24 284.6 35.24 
L 33.98125 35.24 
Q 31.98125 35.24 31.98125 37.24 
L 31.98125 65.59625 
Q 31.98125 67.59625 33.98125 67.59625 
z
" style="fill:#ffffff;opacity:0.8;stroke:#cccccc;stroke-linejoin:miter;"/>
    </g>
    <g id="line2d_17">
     <path d="M 35.98125 43.338438 
L 55.98125 43.338438 
" style="fill:none;stroke:#1f77b4;stroke-linecap:square;stroke-width:1.5;"/>
    </g>
    <g id="line2d_18"/>
    <g id="text_18">
     <text style="font-family:DejaVu Sans;font-size:10px;font-style:normal;font-weight:normal;text-anchor:start;" transform="rotate(-0, 63.98125, 46.838438)" x="63.98125" y="46.838438">1 - log(1+x)</text>
    </g>
    <g id="line2d_19">
     <path d="M 35.98125 58.016563 
L 55.98125 58.016563 
" style="fill:none;stroke:#ff7f0e;stroke-linecap:square;stroke-width:1.5;"/>
    </g>
    <g id="line2d_20"/>
    <g id="text_19">
     <text style="font-family:DejaVu Sans;font-size:10px;font-style:normal;font-weight:normal;text-anchor:start;" transform="rotate(-0, 63.98125, 61.516563)" x="63.98125" y="61.516563">Simulated Mean of 1 - log(1+x) (Alt. Series)</text>
    </g>
   </g>
  </g>
 </g>
 <defs>
  <clipPath id="pfdc77ad7e2">
   <rect height="194.04" width="251.1" x="40.5" y="30.24"/>
  </clipPath>
 </defs>
</svg>
