<?xml version="1.0" encoding="utf-8" standalone="no"?>
<!DOCTYPE svg PUBLIC "-//W3C//DTD SVG 1.1//EN"
  "http://www.w3.org/Graphics/SVG/1.1/DTD/svg11.dtd">
<!-- Created with matplotlib (https://matplotlib.org/) -->
<svg height="252pt" version="1.1" viewBox="0 0 324 252" width="324pt" xmlns="http://www.w3.org/2000/svg" xmlns:xlink="http://www.w3.org/1999/xlink">
 <defs>
  <style type="text/css">
*{stroke-linecap:butt;stroke-linejoin:round;}
  </style>
 </defs>
 <g id="figure_1">
  <g id="patch_1">
   <path d="M 0 252 
L 324 252 
L 324 0 
L 0 0 
z
" style="fill:#ffffff;"/>
  </g>
  <g id="axes_1">
   <g id="patch_2">
    <path d="M 40.5 224.28 
L 291.6 224.28 
L 291.6 30.24 
L 40.5 30.24 
z
" style="fill:#ffffff;"/>
   </g>
   <g id="matplotlib.axis_1">
    <g id="xtick_1">
     <g id="line2d_1">
      <defs>
       <path d="M 0 0 
L 0 3.5 
" id="m112eb0a57a" style="stroke:#000000;stroke-width:0.8;"/>
      </defs>
      <g>
       <use style="stroke:#000000;stroke-width:0.8;" x="51.890805" xlink:href="#m112eb0a57a" y="224.28"/>
      </g>
     </g>
     <g id="text_1">
      <text style="font-family:DejaVu Sans;font-size:10px;font-style:normal;font-weight:normal;text-anchor:middle;" transform="rotate(-0, 51.890805, 238.878438)" x="51.890805" y="238.878438">0.0</text>
     </g>
    </g>
    <g id="xtick_2">
     <g id="line2d_2">
      <g>
       <use style="stroke:#000000;stroke-width:0.8;" x="97.554483" xlink:href="#m112eb0a57a" y="224.28"/>
      </g>
     </g>
     <g id="text_2">
      <text style="font-family:DejaVu Sans;font-size:10px;font-style:normal;font-weight:normal;text-anchor:middle;" transform="rotate(-0, 97.554483, 238.878438)" x="97.554483" y="238.878438">0.2</text>
     </g>
    </g>
    <g id="xtick_3">
     <g id="line2d_3">
      <g>
       <use style="stroke:#000000;stroke-width:0.8;" x="143.218161" xlink:href="#m112eb0a57a" y="224.28"/>
      </g>
     </g>
     <g id="text_3">
      <text style="font-family:DejaVu Sans;font-size:10px;font-style:normal;font-weight:normal;text-anchor:middle;" transform="rotate(-0, 143.218161, 238.878438)" x="143.218161" y="238.878438">0.4</text>
     </g>
    </g>
    <g id="xtick_4">
     <g id="line2d_4">
      <g>
       <use style="stroke:#000000;stroke-width:0.8;" x="188.881839" xlink:href="#m112eb0a57a" y="224.28"/>
      </g>
     </g>
     <g id="text_4">
      <text style="font-family:DejaVu Sans;font-size:10px;font-style:normal;font-weight:normal;text-anchor:middle;" transform="rotate(-0, 188.881839, 238.878438)" x="188.881839" y="238.878438">0.6</text>
     </g>
    </g>
    <g id="xtick_5">
     <g id="line2d_5">
      <g>
       <use style="stroke:#000000;stroke-width:0.8;" x="234.545517" xlink:href="#m112eb0a57a" y="224.28"/>
      </g>
     </g>
     <g id="text_5">
      <text style="font-family:DejaVu Sans;font-size:10px;font-style:normal;font-weight:normal;text-anchor:middle;" transform="rotate(-0, 234.545517, 238.878438)" x="234.545517" y="238.878438">0.8</text>
     </g>
    </g>
    <g id="xtick_6">
     <g id="line2d_6">
      <g>
       <use style="stroke:#000000;stroke-width:0.8;" x="280.209195" xlink:href="#m112eb0a57a" y="224.28"/>
      </g>
     </g>
     <g id="text_6">
      <text style="font-family:DejaVu Sans;font-size:10px;font-style:normal;font-weight:normal;text-anchor:middle;" transform="rotate(-0, 280.209195, 238.878438)" x="280.209195" y="238.878438">1.0</text>
     </g>
    </g>
    <g id="text_7">
     <text style="font-family:DejaVu Sans;font-size:10px;font-style:normal;font-weight:normal;text-anchor:middle;" transform="rotate(-0, 166.05, 252.556563)" x="166.05" y="252.556563">Input Coin's Heads Probability (λ)</text>
    </g>
   </g>
   <g id="matplotlib.axis_2">
    <g id="ytick_1">
     <g id="line2d_7">
      <defs>
       <path d="M 0 0 
L -3.5 0 
" id="m37acf7d9a7" style="stroke:#000000;stroke-width:0.8;"/>
      </defs>
      <g>
       <use style="stroke:#000000;stroke-width:0.8;" x="40.5" xlink:href="#m37acf7d9a7" y="214.957436"/>
      </g>
     </g>
     <g id="text_8">
      <text style="font-family:DejaVu Sans;font-size:10px;font-style:normal;font-weight:normal;text-anchor:end;" transform="rotate(-0, 33.5, 218.756655)" x="33.5" y="218.756655">0.3</text>
     </g>
    </g>
    <g id="ytick_2">
     <g id="line2d_8">
      <g>
       <use style="stroke:#000000;stroke-width:0.8;" x="40.5" xlink:href="#m37acf7d9a7" y="189.829231"/>
      </g>
     </g>
     <g id="text_9">
      <text style="font-family:DejaVu Sans;font-size:10px;font-style:normal;font-weight:normal;text-anchor:end;" transform="rotate(-0, 33.5, 193.62845)" x="33.5" y="193.62845">0.4</text>
     </g>
    </g>
    <g id="ytick_3">
     <g id="line2d_9">
      <g>
       <use style="stroke:#000000;stroke-width:0.8;" x="40.5" xlink:href="#m37acf7d9a7" y="164.701026"/>
      </g>
     </g>
     <g id="text_10">
      <text style="font-family:DejaVu Sans;font-size:10px;font-style:normal;font-weight:normal;text-anchor:end;" transform="rotate(-0, 33.5, 168.500244)" x="33.5" y="168.500244">0.5</text>
     </g>
    </g>
    <g id="ytick_4">
     <g id="line2d_10">
      <g>
       <use style="stroke:#000000;stroke-width:0.8;" x="40.5" xlink:href="#m37acf7d9a7" y="139.572821"/>
      </g>
     </g>
     <g id="text_11">
      <text style="font-family:DejaVu Sans;font-size:10px;font-style:normal;font-weight:normal;text-anchor:end;" transform="rotate(-0, 33.5, 143.372039)" x="33.5" y="143.372039">0.6</text>
     </g>
    </g>
    <g id="ytick_5">
     <g id="line2d_11">
      <g>
       <use style="stroke:#000000;stroke-width:0.8;" x="40.5" xlink:href="#m37acf7d9a7" y="114.444615"/>
      </g>
     </g>
     <g id="text_12">
      <text style="font-family:DejaVu Sans;font-size:10px;font-style:normal;font-weight:normal;text-anchor:end;" transform="rotate(-0, 33.5, 118.243834)" x="33.5" y="118.243834">0.7</text>
     </g>
    </g>
    <g id="ytick_6">
     <g id="line2d_12">
      <g>
       <use style="stroke:#000000;stroke-width:0.8;" x="40.5" xlink:href="#m37acf7d9a7" y="89.31641"/>
      </g>
     </g>
     <g id="text_13">
      <text style="font-family:DejaVu Sans;font-size:10px;font-style:normal;font-weight:normal;text-anchor:end;" transform="rotate(-0, 33.5, 93.115629)" x="33.5" y="93.115629">0.8</text>
     </g>
    </g>
    <g id="ytick_7">
     <g id="line2d_13">
      <g>
       <use style="stroke:#000000;stroke-width:0.8;" x="40.5" xlink:href="#m37acf7d9a7" y="64.188205"/>
      </g>
     </g>
     <g id="text_14">
      <text style="font-family:DejaVu Sans;font-size:10px;font-style:normal;font-weight:normal;text-anchor:end;" transform="rotate(-0, 33.5, 67.987424)" x="33.5" y="67.987424">0.9</text>
     </g>
    </g>
    <g id="ytick_8">
     <g id="line2d_14">
      <g>
       <use style="stroke:#000000;stroke-width:0.8;" x="40.5" xlink:href="#m37acf7d9a7" y="39.06"/>
      </g>
     </g>
     <g id="text_15">
      <text style="font-family:DejaVu Sans;font-size:10px;font-style:normal;font-weight:normal;text-anchor:end;" transform="rotate(-0, 33.5, 42.859219)" x="33.5" y="42.859219">1.0</text>
     </g>
    </g>
    <g id="text_16">
     <text style="font-family:DejaVu Sans;font-size:10px;font-style:normal;font-weight:normal;text-anchor:middle;" transform="rotate(-90, 11.517187, 127.26)" x="11.517187" y="127.26">Simulated Mean / Function Value</text>
    </g>
   </g>
   <g id="line2d_15">
    <path clip-path="url(#p4bba1ad328)" d="M 52.119123 39.311156 
L 54.420757 41.829094 
L 56.722391 44.322052 
L 59.024025 46.79052 
L 61.325658 49.234974 
L 63.627292 51.655878 
L 65.928926 54.05368 
L 68.23056 56.428819 
L 70.532194 58.781717 
L 72.833828 61.112788 
L 75.135462 63.422433 
L 77.437096 65.711042 
L 79.738729 67.978996 
L 82.040363 70.226662 
L 84.341997 72.454402 
L 86.643631 74.662565 
L 88.945265 76.851493 
L 91.246899 79.021518 
L 93.548533 81.172962 
L 95.850167 83.306143 
L 98.151801 85.421367 
L 100.453434 87.518934 
L 102.755068 89.599137 
L 105.056702 91.662261 
L 107.358336 93.708583 
L 109.65997 95.738375 
L 111.961604 97.751903 
L 114.263238 99.749424 
L 116.564872 101.731191 
L 118.866505 103.697452 
L 121.168139 105.648445 
L 123.469773 107.584408 
L 125.771407 109.505569 
L 128.073041 111.412154 
L 130.374675 113.304381 
L 132.676309 115.182466 
L 134.977943 117.046618 
L 137.279576 118.897042 
L 139.58121 120.73394 
L 141.882844 122.557507 
L 144.184478 124.367936 
L 146.486112 126.165414 
L 148.787746 127.950125 
L 151.08938 129.722251 
L 153.391014 131.481966 
L 155.692648 133.229443 
L 157.994281 134.964852 
L 160.295915 136.688358 
L 162.597549 138.400124 
L 164.899183 140.100307 
L 167.200817 141.789064 
L 169.502451 143.466547 
L 171.804085 145.132907 
L 174.105719 146.788288 
L 176.407352 148.432836 
L 178.708986 150.066691 
L 181.01062 151.689991 
L 183.312254 153.302871 
L 185.613888 154.905466 
L 187.915522 156.497904 
L 190.217156 158.080313 
L 192.51879 159.652821 
L 194.820424 161.215548 
L 197.122057 162.768618 
L 199.423691 164.312147 
L 201.725325 165.846252 
L 204.026959 167.371049 
L 206.328593 168.886649 
L 208.630227 170.393162 
L 210.931861 171.890698 
L 213.233495 173.379361 
L 215.535128 174.859257 
L 217.836762 176.330488 
L 220.138396 177.793156 
L 222.44003 179.247358 
L 224.741664 180.693194 
L 227.043298 182.130758 
L 229.344932 183.560145 
L 231.646566 184.981446 
L 233.948199 186.394754 
L 236.249833 187.800157 
L 238.551467 189.197744 
L 240.853101 190.5876 
L 243.154735 191.969811 
L 245.456369 193.344461 
L 247.758003 194.711632 
L 250.059637 196.071404 
L 252.361271 197.423858 
L 254.662904 198.769072 
L 256.964538 200.107122 
L 259.266172 201.438085 
L 261.567806 202.762036 
L 263.86944 204.079047 
L 266.171074 205.389192 
L 268.472708 206.692541 
L 270.774342 207.989165 
L 273.075975 209.279133 
L 275.377609 210.562512 
L 277.679243 211.83937 
L 279.980877 213.109773 
" style="fill:none;stroke:#1f77b4;stroke-linecap:square;stroke-width:1.5;"/>
   </g>
   <g id="line2d_16">
    <path clip-path="url(#p4bba1ad328)" d="M 51.913636 39.06 
L 54.219421 41.572821 
L 56.525207 43.583077 
L 58.830992 43.583077 
L 61.136777 50.618974 
L 63.442562 49.613846 
L 65.748347 53.131795 
L 68.054132 54.136923 
L 70.359917 57.152308 
L 72.665702 60.670256 
L 74.971488 66.701026 
L 77.277273 67.706154 
L 79.583058 60.167692 
L 81.888843 69.71641 
L 84.194628 75.747179 
L 86.500413 68.711282 
L 88.806198 77.254872 
L 91.111983 86.80359 
L 93.417769 84.290769 
L 95.723554 86.80359 
L 98.029339 89.818974 
L 100.335124 85.798462 
L 102.640909 90.321538 
L 104.946694 85.295897 
L 107.252479 90.824103 
L 109.558264 98.362564 
L 111.86405 96.352308 
L 114.169835 93.839487 
L 116.47562 107.911282 
L 118.781405 96.854872 
L 121.08719 112.936923 
L 123.392975 92.834359 
L 125.69876 101.880513 
L 128.004545 113.439487 
L 130.310331 115.952308 
L 132.616116 116.957436 
L 134.921901 118.465128 
L 137.227686 131.029231 
L 139.533471 119.470256 
L 141.839256 123.490769 
L 144.145041 126.506154 
L 146.450826 125.501026 
L 148.756612 118.465128 
L 151.062397 130.024103 
L 153.368182 136.054872 
L 155.673967 138.065128 
L 157.979752 140.577949 
L 160.285537 129.018974 
L 162.591322 134.044615 
L 164.897107 132.034359 
L 167.202893 140.577949 
L 169.508678 141.583077 
L 171.814463 138.065128 
L 174.120248 151.634359 
L 176.426033 150.126667 
L 178.731818 148.11641 
L 181.037603 155.654872 
L 183.343388 147.613846 
L 185.649174 152.639487 
L 187.954959 154.649744 
L 190.260744 157.665128 
L 192.566529 161.183077 
L 194.872314 164.198462 
L 197.178099 171.736923 
L 199.483884 170.731795 
L 201.789669 163.695897 
L 204.095455 169.224103 
L 206.40124 163.695897 
L 208.707025 171.234359 
L 211.01281 166.711282 
L 213.318595 166.711282 
L 215.62438 180.783077 
L 217.930165 178.270256 
L 220.23595 177.767692 
L 222.541736 169.726667 
L 224.847521 181.285641 
L 227.153306 181.285641 
L 229.459091 171.234359 
L 231.764876 190.331795 
L 234.070661 184.301026 
L 236.376446 189.829231 
L 238.682231 185.306154 
L 240.988017 190.331795 
L 243.293802 191.336923 
L 245.599587 192.844615 
L 247.905372 202.393333 
L 250.211157 190.834359 
L 252.516942 203.901026 
L 254.822727 186.813846 
L 257.128512 196.865128 
L 259.434298 195.86 
L 261.740083 201.388205 
L 264.045868 202.393333 
L 266.351653 209.429231 
L 268.657438 200.885641 
L 270.963223 207.921538 
L 273.269008 197.870256 
L 275.574793 202.895897 
L 277.880579 215.46 
L 280.186364 211.439487 
" style="fill:none;stroke:#ff7f0e;stroke-linecap:square;stroke-width:1.5;"/>
   </g>
   <g id="patch_3">
    <path d="M 40.5 224.28 
L 40.5 30.24 
" style="fill:none;stroke:#000000;stroke-linecap:square;stroke-linejoin:miter;stroke-width:0.8;"/>
   </g>
   <g id="patch_4">
    <path d="M 291.6 224.28 
L 291.6 30.24 
" style="fill:none;stroke:#000000;stroke-linecap:square;stroke-linejoin:miter;stroke-width:0.8;"/>
   </g>
   <g id="patch_5">
    <path d="M 40.5 224.28 
L 291.6 224.28 
" style="fill:none;stroke:#000000;stroke-linecap:square;stroke-linejoin:miter;stroke-width:0.8;"/>
   </g>
   <g id="patch_6">
    <path d="M 40.5 30.24 
L 291.6 30.24 
" style="fill:none;stroke:#000000;stroke-linecap:square;stroke-linejoin:miter;stroke-width:0.8;"/>
   </g>
   <g id="text_17">
    <text style="font-family:DejaVu Sans;font-size:12px;font-style:normal;font-weight:normal;text-anchor:middle;" transform="rotate(-0, 166.05, 24.24)" x="166.05" y="24.24">Expected Value in 1 - log(1+x) (Alt. Series) Algorithm</text>
   </g>
   <g id="legend_1">
    <g id="patch_7">
     <path d="M 33.98125 67.59625 
L 284.6 67.59625 
Q 286.6 67.59625 286.6 65.59625 
L 286.6 37.24 
Q 286.6 35.24 284.6 35.24 
L 33.98125 35.24 
Q 31.98125 35.24 31.98125 37.24 
L 31.98125 65.59625 
Q 31.98125 67.59625 33.98125 67.59625 
z
" style="fill:#ffffff;opacity:0.8;stroke:#cccccc;stroke-linejoin:miter;"/>
    </g>
    <g id="line2d_17">
     <path d="M 35.98125 43.338438 
L 55.98125 43.338438 
" style="fill:none;stroke:#1f77b4;stroke-linecap:square;stroke-width:1.5;"/>
    </g>
    <g id="line2d_18"/>
    <g id="text_18">
     <text style="font-family:DejaVu Sans;font-size:10px;font-style:normal;font-weight:normal;text-anchor:start;" transform="rotate(-0, 63.98125, 46.838438)" x="63.98125" y="46.838438">1 - log(1+x)</text>
    </g>
    <g id="line2d_19">
     <path d="M 35.98125 58.016563 
L 55.98125 58.016563 
" style="fill:none;stroke:#ff7f0e;stroke-linecap:square;stroke-width:1.5;"/>
    </g>
    <g id="line2d_20"/>
    <g id="text_19">
     <text style="font-family:DejaVu Sans;font-size:10px;font-style:normal;font-weight:normal;text-anchor:start;" transform="rotate(-0, 63.98125, 61.516563)" x="63.98125" y="61.516563">Simulated Mean of 1 - log(1+x) (Alt. Series)</text>
    </g>
   </g>
  </g>
 </g>
 <defs>
  <clipPath id="p4bba1ad328">
   <rect height="194.04" width="251.1" x="40.5" y="30.24"/>
  </clipPath>
 </defs>
</svg>
