<?xml version="1.0" encoding="utf-8" standalone="no"?>
<!DOCTYPE svg PUBLIC "-//W3C//DTD SVG 1.1//EN"
  "http://www.w3.org/Graphics/SVG/1.1/DTD/svg11.dtd">
<!-- Created with matplotlib (https://matplotlib.org/) -->
<svg height="345.6pt" version="1.1" viewBox="0 0 460.8 345.6" width="460.8pt" xmlns="http://www.w3.org/2000/svg" xmlns:xlink="http://www.w3.org/1999/xlink">
 <defs>
  <style type="text/css">
*{stroke-linecap:butt;stroke-linejoin:round;}
  </style>
 </defs>
 <g id="figure_1">
  <g id="patch_1">
   <path d="M 0 345.6 
L 460.8 345.6 
L 460.8 0 
L 0 0 
z
" style="fill:#ffffff;"/>
  </g>
  <g id="axes_1">
   <g id="patch_2">
    <path d="M 57.6 307.584 
L 414.72 307.584 
L 414.72 41.472 
L 57.6 41.472 
z
" style="fill:#ffffff;"/>
   </g>
   <g id="matplotlib.axis_1">
    <g id="xtick_1">
     <g id="line2d_1">
      <defs>
       <path d="M 0 0 
L 0 3.5 
" id="mf12af2e0da" style="stroke:#000000;stroke-width:0.8;"/>
      </defs>
      <g>
       <use style="stroke:#000000;stroke-width:0.8;" x="73.800255" xlink:href="#mf12af2e0da" y="307.584"/>
      </g>
     </g>
     <g id="text_1">
      <text style="font-family:DejaVu Sans;font-size:10px;font-style:normal;font-weight:normal;text-anchor:middle;" transform="rotate(-0, 73.800255, 322.182437)" x="73.800255" y="322.182437">0.0</text>
     </g>
    </g>
    <g id="xtick_2">
     <g id="line2d_2">
      <g>
       <use style="stroke:#000000;stroke-width:0.8;" x="138.744153" xlink:href="#mf12af2e0da" y="307.584"/>
      </g>
     </g>
     <g id="text_2">
      <text style="font-family:DejaVu Sans;font-size:10px;font-style:normal;font-weight:normal;text-anchor:middle;" transform="rotate(-0, 138.744153, 322.182437)" x="138.744153" y="322.182437">0.2</text>
     </g>
    </g>
    <g id="xtick_3">
     <g id="line2d_3">
      <g>
       <use style="stroke:#000000;stroke-width:0.8;" x="203.688051" xlink:href="#mf12af2e0da" y="307.584"/>
      </g>
     </g>
     <g id="text_3">
      <text style="font-family:DejaVu Sans;font-size:10px;font-style:normal;font-weight:normal;text-anchor:middle;" transform="rotate(-0, 203.688051, 322.182437)" x="203.688051" y="322.182437">0.4</text>
     </g>
    </g>
    <g id="xtick_4">
     <g id="line2d_4">
      <g>
       <use style="stroke:#000000;stroke-width:0.8;" x="268.631949" xlink:href="#mf12af2e0da" y="307.584"/>
      </g>
     </g>
     <g id="text_4">
      <text style="font-family:DejaVu Sans;font-size:10px;font-style:normal;font-weight:normal;text-anchor:middle;" transform="rotate(-0, 268.631949, 322.182437)" x="268.631949" y="322.182437">0.6</text>
     </g>
    </g>
    <g id="xtick_5">
     <g id="line2d_5">
      <g>
       <use style="stroke:#000000;stroke-width:0.8;" x="333.575847" xlink:href="#mf12af2e0da" y="307.584"/>
      </g>
     </g>
     <g id="text_5">
      <text style="font-family:DejaVu Sans;font-size:10px;font-style:normal;font-weight:normal;text-anchor:middle;" transform="rotate(-0, 333.575847, 322.182437)" x="333.575847" y="322.182437">0.8</text>
     </g>
    </g>
    <g id="xtick_6">
     <g id="line2d_6">
      <g>
       <use style="stroke:#000000;stroke-width:0.8;" x="398.519745" xlink:href="#mf12af2e0da" y="307.584"/>
      </g>
     </g>
     <g id="text_6">
      <text style="font-family:DejaVu Sans;font-size:10px;font-style:normal;font-weight:normal;text-anchor:middle;" transform="rotate(-0, 398.519745, 322.182437)" x="398.519745" y="322.182437">1.0</text>
     </g>
    </g>
    <g id="text_7">
     <text style="font-family:DejaVu Sans;font-size:10px;font-style:normal;font-weight:normal;text-anchor:middle;" transform="rotate(-0, 236.16, 335.860562)" x="236.16" y="335.860562">Input Coin's Heads Probability (λ)</text>
    </g>
   </g>
   <g id="matplotlib.axis_2">
    <g id="ytick_1">
     <g id="line2d_7">
      <defs>
       <path d="M 0 0 
L -3.5 0 
" id="m46e051af63" style="stroke:#000000;stroke-width:0.8;"/>
      </defs>
      <g>
       <use style="stroke:#000000;stroke-width:0.8;" x="57.6" xlink:href="#m46e051af63" y="292.080676"/>
      </g>
     </g>
     <g id="text_8">
      <text style="font-family:DejaVu Sans;font-size:10px;font-style:normal;font-weight:normal;text-anchor:end;" transform="rotate(-0, 50.6, 295.879895)" x="50.6" y="295.879895">0.3</text>
     </g>
    </g>
    <g id="ytick_2">
     <g id="line2d_8">
      <g>
       <use style="stroke:#000000;stroke-width:0.8;" x="57.6" xlink:href="#m46e051af63" y="258.007437"/>
      </g>
     </g>
     <g id="text_9">
      <text style="font-family:DejaVu Sans;font-size:10px;font-style:normal;font-weight:normal;text-anchor:end;" transform="rotate(-0, 50.6, 261.806655)" x="50.6" y="261.806655">0.4</text>
     </g>
    </g>
    <g id="ytick_3">
     <g id="line2d_9">
      <g>
       <use style="stroke:#000000;stroke-width:0.8;" x="57.6" xlink:href="#m46e051af63" y="223.934197"/>
      </g>
     </g>
     <g id="text_10">
      <text style="font-family:DejaVu Sans;font-size:10px;font-style:normal;font-weight:normal;text-anchor:end;" transform="rotate(-0, 50.6, 227.733416)" x="50.6" y="227.733416">0.5</text>
     </g>
    </g>
    <g id="ytick_4">
     <g id="line2d_10">
      <g>
       <use style="stroke:#000000;stroke-width:0.8;" x="57.6" xlink:href="#m46e051af63" y="189.860958"/>
      </g>
     </g>
     <g id="text_11">
      <text style="font-family:DejaVu Sans;font-size:10px;font-style:normal;font-weight:normal;text-anchor:end;" transform="rotate(-0, 50.6, 193.660176)" x="50.6" y="193.660176">0.6</text>
     </g>
    </g>
    <g id="ytick_5">
     <g id="line2d_11">
      <g>
       <use style="stroke:#000000;stroke-width:0.8;" x="57.6" xlink:href="#m46e051af63" y="155.787718"/>
      </g>
     </g>
     <g id="text_12">
      <text style="font-family:DejaVu Sans;font-size:10px;font-style:normal;font-weight:normal;text-anchor:end;" transform="rotate(-0, 50.6, 159.586937)" x="50.6" y="159.586937">0.7</text>
     </g>
    </g>
    <g id="ytick_6">
     <g id="line2d_12">
      <g>
       <use style="stroke:#000000;stroke-width:0.8;" x="57.6" xlink:href="#m46e051af63" y="121.714479"/>
      </g>
     </g>
     <g id="text_13">
      <text style="font-family:DejaVu Sans;font-size:10px;font-style:normal;font-weight:normal;text-anchor:end;" transform="rotate(-0, 50.6, 125.513698)" x="50.6" y="125.513698">0.8</text>
     </g>
    </g>
    <g id="ytick_7">
     <g id="line2d_13">
      <g>
       <use style="stroke:#000000;stroke-width:0.8;" x="57.6" xlink:href="#m46e051af63" y="87.641239"/>
      </g>
     </g>
     <g id="text_14">
      <text style="font-family:DejaVu Sans;font-size:10px;font-style:normal;font-weight:normal;text-anchor:end;" transform="rotate(-0, 50.6, 91.440458)" x="50.6" y="91.440458">0.9</text>
     </g>
    </g>
    <g id="ytick_8">
     <g id="line2d_14">
      <g>
       <use style="stroke:#000000;stroke-width:0.8;" x="57.6" xlink:href="#m46e051af63" y="53.568"/>
      </g>
     </g>
     <g id="text_15">
      <text style="font-family:DejaVu Sans;font-size:10px;font-style:normal;font-weight:normal;text-anchor:end;" transform="rotate(-0, 50.6, 57.367219)" x="50.6" y="57.367219">1.0</text>
     </g>
    </g>
    <g id="text_16">
     <text style="font-family:DejaVu Sans;font-size:10px;font-style:normal;font-weight:normal;text-anchor:middle;" transform="rotate(-90, 28.617187, 174.528)" x="28.617187" y="174.528">Simulated Mean / Function Value</text>
    </g>
   </g>
   <g id="line2d_15">
    <path clip-path="url(#pbe442855e9)" d="M 73.832727 53.602072 
L 77.112066 57.025524 
L 80.391405 60.414923 
L 83.670744 63.770937 
L 86.950083 67.094219 
L 90.229421 70.3854 
L 93.50876 73.645095 
L 96.788099 76.873901 
L 100.067438 80.072398 
L 103.346777 83.241149 
L 106.626116 86.380702 
L 109.905455 89.491591 
L 113.184793 92.574335 
L 116.464132 95.629437 
L 119.743471 98.65739 
L 123.02281 101.658671 
L 126.302149 104.633747 
L 129.581488 107.583071 
L 132.860826 110.507085 
L 136.140165 113.40622 
L 139.419504 116.280895 
L 142.698843 119.13152 
L 145.978182 121.958494 
L 149.257521 124.762206 
L 152.53686 127.543036 
L 155.816198 130.301355 
L 159.095537 133.037523 
L 162.374876 135.751894 
L 165.654215 138.444812 
L 168.933554 141.116614 
L 172.212893 143.767629 
L 175.492231 146.398177 
L 178.77157 149.008571 
L 182.050909 151.59912 
L 185.330248 154.170121 
L 188.609587 156.721867 
L 191.888926 159.254646 
L 195.168264 161.768736 
L 198.447603 164.264412 
L 201.726942 166.741942 
L 205.006281 169.201587 
L 208.28562 171.643603 
L 211.564959 174.068242 
L 214.844298 176.47575 
L 218.123636 178.866366 
L 221.402975 181.240326 
L 224.682314 183.59786 
L 227.961653 185.939195 
L 231.240992 188.264551 
L 234.520331 190.574144 
L 237.799669 192.868188 
L 241.079008 195.146891 
L 244.358347 197.410455 
L 247.637686 199.659081 
L 250.917025 201.892964 
L 254.196364 204.112298 
L 257.475702 206.317269 
L 260.755041 208.508063 
L 264.03438 210.684861 
L 267.313719 212.847841 
L 270.593058 214.997176 
L 273.872397 217.133039 
L 277.151736 219.255596 
L 280.431074 221.365013 
L 283.710413 223.461451 
L 286.989752 225.545069 
L 290.269091 227.616023 
L 293.54843 229.674466 
L 296.827769 231.720548 
L 300.107107 233.754416 
L 303.386446 235.776217 
L 306.665785 237.786091 
L 309.945124 239.784179 
L 313.224463 241.770618 
L 316.503802 243.745544 
L 319.78314 245.709089 
L 323.062479 247.661383 
L 326.341818 249.602555 
L 329.621157 251.53273 
L 332.900496 253.452033 
L 336.179835 255.360585 
L 339.459174 257.258507 
L 342.738512 259.145915 
L 346.017851 261.022926 
L 349.29719 262.889654 
L 352.576529 264.74621 
L 355.855868 266.592705 
L 359.135207 268.429248 
L 362.414545 270.255945 
L 365.693884 272.072901 
L 368.973223 273.880219 
L 372.252562 275.678002 
L 375.531901 277.466348 
L 378.81124 279.245358 
L 382.090579 281.015127 
L 385.369917 282.775752 
L 388.649256 284.527325 
L 391.928595 286.269941 
L 395.207934 288.00369 
L 398.487273 289.728661 
" style="fill:none;stroke:#1f77b4;stroke-linecap:square;stroke-width:1.5;"/>
   </g>
   <g id="line2d_16">
    <path clip-path="url(#pbe442855e9)" d="M 73.832727 53.568 
L 77.112066 57.656789 
L 80.391405 59.019718 
L 83.670744 63.789972 
L 86.950083 68.560225 
L 90.229421 71.286085 
L 93.50876 71.967549 
L 96.788099 78.782197 
L 100.067438 80.826592 
L 103.346777 82.189521 
L 106.626116 82.189521 
L 109.905455 94.455887 
L 113.184793 97.863211 
L 116.464132 97.181746 
L 119.743471 102.633465 
L 123.02281 103.996394 
L 126.302149 101.270535 
L 129.581488 111.492507 
L 132.860826 118.307155 
L 136.140165 121.033014 
L 139.419504 118.307155 
L 142.698843 118.307155 
L 145.978182 125.803268 
L 149.257521 130.573521 
L 152.53686 126.484732 
L 155.816198 131.254986 
L 159.095537 125.803268 
L 162.374876 130.573521 
L 165.654215 137.388169 
L 168.933554 136.706704 
L 172.212893 144.884282 
L 175.492231 135.343775 
L 178.77157 159.195042 
L 182.050909 161.920901 
L 185.330248 152.380394 
L 188.609587 148.291606 
L 191.888926 148.291606 
L 195.168264 170.098479 
L 198.447603 157.150648 
L 201.726942 174.868732 
L 205.006281 153.743324 
L 208.28562 151.69893 
L 211.564959 181.001915 
L 214.844298 178.276056 
L 218.123636 176.913127 
L 221.402975 186.453634 
L 224.682314 196.675606 
L 227.961653 189.179493 
L 231.240992 189.179493 
L 234.520331 198.72 
L 237.799669 194.631211 
L 241.079008 194.631211 
L 244.358347 187.135099 
L 247.637686 206.216113 
L 250.917025 201.445859 
L 254.196364 204.853183 
L 257.475702 219.163944 
L 260.755041 208.941972 
L 264.03438 202.127324 
L 267.313719 224.615662 
L 270.593058 211.667831 
L 273.872397 215.075155 
L 277.151736 209.623437 
L 280.431074 218.482479 
L 283.710413 235.519099 
L 286.989752 223.252732 
L 290.269091 222.571268 
L 293.54843 240.289352 
L 296.827769 234.837634 
L 300.107107 223.252732 
L 303.386446 232.111775 
L 306.665785 245.74107 
L 309.945124 245.059606 
L 313.224463 249.148394 
L 316.503802 247.104 
L 319.78314 250.511324 
L 323.062479 242.333746 
L 326.341818 245.74107 
L 329.621157 258.688901 
L 332.900496 256.644507 
L 336.179835 251.874254 
L 339.459174 250.511324 
L 342.738512 240.970817 
L 346.017851 258.688901 
L 349.29719 258.007437 
L 352.576529 274.362592 
L 355.855868 274.362592 
L 359.135207 277.769915 
L 362.414545 264.14062 
L 365.693884 272.999662 
L 368.973223 262.77769 
L 372.252562 275.725521 
L 375.531901 272.999662 
L 378.81124 281.177239 
L 382.090579 287.991887 
L 385.369917 290.717746 
L 388.649256 287.310423 
L 391.928595 280.495775 
L 395.207934 287.310423 
L 398.487273 295.488 
" style="fill:none;stroke:#ff7f0e;stroke-linecap:square;stroke-width:1.5;"/>
   </g>
   <g id="patch_3">
    <path d="M 57.6 307.584 
L 57.6 41.472 
" style="fill:none;stroke:#000000;stroke-linecap:square;stroke-linejoin:miter;stroke-width:0.8;"/>
   </g>
   <g id="patch_4">
    <path d="M 414.72 307.584 
L 414.72 41.472 
" style="fill:none;stroke:#000000;stroke-linecap:square;stroke-linejoin:miter;stroke-width:0.8;"/>
   </g>
   <g id="patch_5">
    <path d="M 57.6 307.584 
L 414.72 307.584 
" style="fill:none;stroke:#000000;stroke-linecap:square;stroke-linejoin:miter;stroke-width:0.8;"/>
   </g>
   <g id="patch_6">
    <path d="M 57.6 41.472 
L 414.72 41.472 
" style="fill:none;stroke:#000000;stroke-linecap:square;stroke-linejoin:miter;stroke-width:0.8;"/>
   </g>
   <g id="text_17">
    <text style="font-family:DejaVu Sans;font-size:12px;font-style:normal;font-weight:normal;text-anchor:middle;" transform="rotate(-0, 236.16, 35.472)" x="236.16" y="35.472">Expected Value in 1 - log(1+x) (Alt. Series) Algorithm</text>
   </g>
   <g id="legend_1">
    <g id="patch_7">
     <path d="M 157.10125 78.82825 
L 407.72 78.82825 
Q 409.72 78.82825 409.72 76.82825 
L 409.72 48.472 
Q 409.72 46.472 407.72 46.472 
L 157.10125 46.472 
Q 155.10125 46.472 155.10125 48.472 
L 155.10125 76.82825 
Q 155.10125 78.82825 157.10125 78.82825 
z
" style="fill:#ffffff;opacity:0.8;stroke:#cccccc;stroke-linejoin:miter;"/>
    </g>
    <g id="line2d_17">
     <path d="M 159.10125 54.570437 
L 179.10125 54.570437 
" style="fill:none;stroke:#1f77b4;stroke-linecap:square;stroke-width:1.5;"/>
    </g>
    <g id="line2d_18"/>
    <g id="text_18">
     <text style="font-family:DejaVu Sans;font-size:10px;font-style:normal;font-weight:normal;text-anchor:start;" transform="rotate(-0, 187.10125, 58.070437)" x="187.10125" y="58.070437">1 - log(1+x)</text>
    </g>
    <g id="line2d_19">
     <path d="M 159.10125 69.248562 
L 179.10125 69.248562 
" style="fill:none;stroke:#ff7f0e;stroke-linecap:square;stroke-width:1.5;"/>
    </g>
    <g id="line2d_20"/>
    <g id="text_19">
     <text style="font-family:DejaVu Sans;font-size:10px;font-style:normal;font-weight:normal;text-anchor:start;" transform="rotate(-0, 187.10125, 72.748562)" x="187.10125" y="72.748562">Simulated Mean of 1 - log(1+x) (Alt. Series)</text>
    </g>
   </g>
  </g>
 </g>
 <defs>
  <clipPath id="pbe442855e9">
   <rect height="266.112" width="357.12" x="57.6" y="41.472"/>
  </clipPath>
 </defs>
</svg>
