<?xml version="1.0" encoding="utf-8" standalone="no"?>
<!DOCTYPE svg PUBLIC "-//W3C//DTD SVG 1.1//EN"
  "http://www.w3.org/Graphics/SVG/1.1/DTD/svg11.dtd">
<!-- Created with matplotlib (https://matplotlib.org/) -->
<svg height="345.6pt" version="1.1" viewBox="0 0 460.8 345.6" width="460.8pt" xmlns="http://www.w3.org/2000/svg" xmlns:xlink="http://www.w3.org/1999/xlink">
 <defs>
  <style type="text/css">
*{stroke-linecap:butt;stroke-linejoin:round;}
  </style>
 </defs>
 <g id="figure_1">
  <g id="patch_1">
   <path d="M 0 345.6 
L 460.8 345.6 
L 460.8 0 
L 0 0 
z
" style="fill:#ffffff;"/>
  </g>
  <g id="axes_1">
   <g id="patch_2">
    <path d="M 57.6 307.584 
L 414.72 307.584 
L 414.72 41.472 
L 57.6 41.472 
z
" style="fill:#ffffff;"/>
   </g>
   <g id="matplotlib.axis_1">
    <g id="xtick_1">
     <g id="line2d_1">
      <defs>
       <path d="M 0 0 
L 0 3.5 
" id="me213f3b810" style="stroke:#000000;stroke-width:0.8;"/>
      </defs>
      <g>
       <use style="stroke:#000000;stroke-width:0.8;" x="73.800255" xlink:href="#me213f3b810" y="307.584"/>
      </g>
     </g>
     <g id="text_1">
      <text style="font-family:DejaVu Sans;font-size:10px;font-style:normal;font-weight:normal;text-anchor:middle;" transform="rotate(-0, 73.800255, 322.182437)" x="73.800255" y="322.182437">0.0</text>
     </g>
    </g>
    <g id="xtick_2">
     <g id="line2d_2">
      <g>
       <use style="stroke:#000000;stroke-width:0.8;" x="138.744153" xlink:href="#me213f3b810" y="307.584"/>
      </g>
     </g>
     <g id="text_2">
      <text style="font-family:DejaVu Sans;font-size:10px;font-style:normal;font-weight:normal;text-anchor:middle;" transform="rotate(-0, 138.744153, 322.182437)" x="138.744153" y="322.182437">0.2</text>
     </g>
    </g>
    <g id="xtick_3">
     <g id="line2d_3">
      <g>
       <use style="stroke:#000000;stroke-width:0.8;" x="203.688051" xlink:href="#me213f3b810" y="307.584"/>
      </g>
     </g>
     <g id="text_3">
      <text style="font-family:DejaVu Sans;font-size:10px;font-style:normal;font-weight:normal;text-anchor:middle;" transform="rotate(-0, 203.688051, 322.182437)" x="203.688051" y="322.182437">0.4</text>
     </g>
    </g>
    <g id="xtick_4">
     <g id="line2d_4">
      <g>
       <use style="stroke:#000000;stroke-width:0.8;" x="268.631949" xlink:href="#me213f3b810" y="307.584"/>
      </g>
     </g>
     <g id="text_4">
      <text style="font-family:DejaVu Sans;font-size:10px;font-style:normal;font-weight:normal;text-anchor:middle;" transform="rotate(-0, 268.631949, 322.182437)" x="268.631949" y="322.182437">0.6</text>
     </g>
    </g>
    <g id="xtick_5">
     <g id="line2d_5">
      <g>
       <use style="stroke:#000000;stroke-width:0.8;" x="333.575847" xlink:href="#me213f3b810" y="307.584"/>
      </g>
     </g>
     <g id="text_5">
      <text style="font-family:DejaVu Sans;font-size:10px;font-style:normal;font-weight:normal;text-anchor:middle;" transform="rotate(-0, 333.575847, 322.182437)" x="333.575847" y="322.182437">0.8</text>
     </g>
    </g>
    <g id="xtick_6">
     <g id="line2d_6">
      <g>
       <use style="stroke:#000000;stroke-width:0.8;" x="398.519745" xlink:href="#me213f3b810" y="307.584"/>
      </g>
     </g>
     <g id="text_6">
      <text style="font-family:DejaVu Sans;font-size:10px;font-style:normal;font-weight:normal;text-anchor:middle;" transform="rotate(-0, 398.519745, 322.182437)" x="398.519745" y="322.182437">1.0</text>
     </g>
    </g>
    <g id="text_7">
     <text style="font-family:DejaVu Sans;font-size:10px;font-style:normal;font-weight:normal;text-anchor:middle;" transform="rotate(-0, 236.16, 335.860562)" x="236.16" y="335.860562">Input Coin's Heads Probability (λ)</text>
    </g>
   </g>
   <g id="matplotlib.axis_2">
    <g id="ytick_1">
     <g id="line2d_7">
      <defs>
       <path d="M 0 0 
L -3.5 0 
" id="m9341dd81a1" style="stroke:#000000;stroke-width:0.8;"/>
      </defs>
      <g>
       <use style="stroke:#000000;stroke-width:0.8;" x="57.6" xlink:href="#m9341dd81a1" y="290.081966"/>
      </g>
     </g>
     <g id="text_8">
      <text style="font-family:DejaVu Sans;font-size:10px;font-style:normal;font-weight:normal;text-anchor:end;" transform="rotate(-0, 50.6, 293.881185)" x="50.6" y="293.881185">0.3</text>
     </g>
    </g>
    <g id="ytick_2">
     <g id="line2d_8">
      <g>
       <use style="stroke:#000000;stroke-width:0.8;" x="57.6" xlink:href="#m9341dd81a1" y="256.294257"/>
      </g>
     </g>
     <g id="text_9">
      <text style="font-family:DejaVu Sans;font-size:10px;font-style:normal;font-weight:normal;text-anchor:end;" transform="rotate(-0, 50.6, 260.093476)" x="50.6" y="260.093476">0.4</text>
     </g>
    </g>
    <g id="ytick_3">
     <g id="line2d_9">
      <g>
       <use style="stroke:#000000;stroke-width:0.8;" x="57.6" xlink:href="#m9341dd81a1" y="222.506547"/>
      </g>
     </g>
     <g id="text_10">
      <text style="font-family:DejaVu Sans;font-size:10px;font-style:normal;font-weight:normal;text-anchor:end;" transform="rotate(-0, 50.6, 226.305766)" x="50.6" y="226.305766">0.5</text>
     </g>
    </g>
    <g id="ytick_4">
     <g id="line2d_10">
      <g>
       <use style="stroke:#000000;stroke-width:0.8;" x="57.6" xlink:href="#m9341dd81a1" y="188.718838"/>
      </g>
     </g>
     <g id="text_11">
      <text style="font-family:DejaVu Sans;font-size:10px;font-style:normal;font-weight:normal;text-anchor:end;" transform="rotate(-0, 50.6, 192.518057)" x="50.6" y="192.518057">0.6</text>
     </g>
    </g>
    <g id="ytick_5">
     <g id="line2d_11">
      <g>
       <use style="stroke:#000000;stroke-width:0.8;" x="57.6" xlink:href="#m9341dd81a1" y="154.931128"/>
      </g>
     </g>
     <g id="text_12">
      <text style="font-family:DejaVu Sans;font-size:10px;font-style:normal;font-weight:normal;text-anchor:end;" transform="rotate(-0, 50.6, 158.730347)" x="50.6" y="158.730347">0.7</text>
     </g>
    </g>
    <g id="ytick_6">
     <g id="line2d_12">
      <g>
       <use style="stroke:#000000;stroke-width:0.8;" x="57.6" xlink:href="#m9341dd81a1" y="121.143419"/>
      </g>
     </g>
     <g id="text_13">
      <text style="font-family:DejaVu Sans;font-size:10px;font-style:normal;font-weight:normal;text-anchor:end;" transform="rotate(-0, 50.6, 124.942638)" x="50.6" y="124.942638">0.8</text>
     </g>
    </g>
    <g id="ytick_7">
     <g id="line2d_13">
      <g>
       <use style="stroke:#000000;stroke-width:0.8;" x="57.6" xlink:href="#m9341dd81a1" y="87.355709"/>
      </g>
     </g>
     <g id="text_14">
      <text style="font-family:DejaVu Sans;font-size:10px;font-style:normal;font-weight:normal;text-anchor:end;" transform="rotate(-0, 50.6, 91.154928)" x="50.6" y="91.154928">0.9</text>
     </g>
    </g>
    <g id="ytick_8">
     <g id="line2d_14">
      <g>
       <use style="stroke:#000000;stroke-width:0.8;" x="57.6" xlink:href="#m9341dd81a1" y="53.568"/>
      </g>
     </g>
     <g id="text_15">
      <text style="font-family:DejaVu Sans;font-size:10px;font-style:normal;font-weight:normal;text-anchor:end;" transform="rotate(-0, 50.6, 57.367219)" x="50.6" y="57.367219">1.0</text>
     </g>
    </g>
    <g id="text_16">
     <text style="font-family:DejaVu Sans;font-size:10px;font-style:normal;font-weight:normal;text-anchor:middle;" transform="rotate(-90, 28.617187, 174.528)" x="28.617187" y="174.528">Simulated Mean / Function Value</text>
    </g>
   </g>
   <g id="line2d_15">
    <path clip-path="url(#pbd17baacdb)" d="M 73.832727 53.601786 
L 77.112066 56.996551 
L 80.391405 60.357546 
L 83.670744 63.685438 
L 86.950083 66.98087 
L 90.229421 70.244472 
L 93.50876 73.476852 
L 96.788099 76.678601 
L 100.067438 79.850294 
L 103.346777 82.992491 
L 106.626116 86.105735 
L 109.905455 89.190556 
L 113.184793 92.247466 
L 116.464132 95.276967 
L 119.743471 98.279546 
L 123.02281 101.255677 
L 126.302149 104.205822 
L 129.581488 107.130431 
L 132.860826 110.029942 
L 136.140165 112.904782 
L 139.419504 115.755368 
L 142.698843 118.582105 
L 145.978182 121.385389 
L 149.257521 124.165607 
L 152.53686 126.923134 
L 155.816198 129.658338 
L 159.095537 132.371577 
L 162.374876 135.063202 
L 165.654215 137.733554 
L 168.933554 140.382967 
L 172.212893 143.011766 
L 175.492231 145.62027 
L 178.77157 148.20879 
L 182.050909 150.77763 
L 185.330248 153.327086 
L 188.609587 155.857449 
L 191.888926 158.369004 
L 195.168264 160.862026 
L 198.447603 163.336789 
L 201.726942 165.793557 
L 205.006281 168.23259 
L 208.28562 170.654143 
L 211.564959 173.058464 
L 214.844298 175.445797 
L 218.123636 177.81638 
L 221.402975 180.170446 
L 224.682314 182.508224 
L 227.961653 184.829939 
L 231.240992 187.135809 
L 234.520331 189.426048 
L 237.799669 191.700868 
L 241.079008 193.960475 
L 244.358347 196.205071 
L 247.637686 198.434854 
L 250.917025 200.650018 
L 254.196364 202.850753 
L 257.475702 205.037247 
L 260.755041 207.209683 
L 264.03438 209.36824 
L 267.313719 211.513094 
L 270.593058 213.644418 
L 273.872397 215.762382 
L 277.151736 217.867153 
L 280.431074 219.958893 
L 283.710413 222.037763 
L 286.989752 224.103921 
L 290.269091 226.15752 
L 293.54843 228.198713 
L 296.827769 230.227649 
L 300.107107 232.244474 
L 303.386446 234.249332 
L 306.665785 236.242364 
L 309.945124 238.223708 
L 313.224463 240.193501 
L 316.503802 242.151877 
L 319.78314 244.098968 
L 323.062479 246.034902 
L 326.341818 247.959807 
L 329.621157 249.873808 
L 332.900496 251.777027 
L 336.179835 253.669586 
L 339.459174 255.551603 
L 342.738512 257.423195 
L 346.017851 259.284477 
L 349.29719 261.135562 
L 352.576529 262.97656 
L 355.855868 264.807582 
L 359.135207 266.628735 
L 362.414545 268.440124 
L 365.693884 270.241854 
L 368.973223 272.034027 
L 372.252562 273.816745 
L 375.531901 275.590105 
L 378.81124 277.354207 
L 382.090579 279.109146 
L 385.369917 280.855016 
L 388.649256 282.591912 
L 391.928595 284.319925 
L 395.207934 286.039145 
L 398.487273 287.749661 
" style="fill:none;stroke:#1f77b4;stroke-linecap:square;stroke-width:1.5;"/>
   </g>
   <g id="line2d_16">
    <path clip-path="url(#pbd17baacdb)" d="M 73.832727 53.568 
L 77.112066 58.298279 
L 80.391405 61.67705 
L 83.670744 63.028559 
L 86.950083 67.083084 
L 90.229421 74.51638 
L 93.50876 72.489117 
L 96.788099 74.51638 
L 100.067438 80.598168 
L 103.346777 83.976939 
L 106.626116 88.707218 
L 109.905455 86.004201 
L 113.184793 95.46476 
L 116.464132 87.355709 
L 119.743471 96.140514 
L 123.02281 109.655598 
L 126.302149 107.628335 
L 129.581488 114.385877 
L 132.860826 108.979844 
L 136.140165 108.979844 
L 139.419504 109.655598 
L 142.698843 108.979844 
L 145.978182 116.41314 
L 149.257521 113.034369 
L 152.53686 133.982749 
L 155.816198 120.467665 
L 159.095537 129.928223 
L 162.374876 144.119061 
L 165.654215 137.36152 
L 168.933554 145.47057 
L 172.212893 140.064536 
L 175.492231 142.091799 
L 178.77157 155.606883 
L 182.050909 141.416045 
L 185.330248 146.146324 
L 188.609587 140.064536 
L 191.888926 163.040179 
L 195.168264 158.985654 
L 198.447603 167.094704 
L 201.726942 173.852246 
L 205.006281 167.770458 
L 208.28562 168.446212 
L 211.564959 178.582525 
L 214.844298 172.500737 
L 218.123636 183.988559 
L 221.402975 185.340067 
L 224.682314 194.800626 
L 227.961653 181.285542 
L 231.240992 180.609788 
L 234.520331 194.800626 
L 237.799669 200.206659 
L 241.079008 192.773363 
L 244.358347 205.612693 
L 247.637686 190.746101 
L 250.917025 192.773363 
L 254.196364 204.261184 
L 257.475702 195.47638 
L 260.755041 197.503642 
L 264.03438 209.667218 
L 267.313719 200.206659 
L 270.593058 209.667218 
L 273.872397 211.018726 
L 277.151736 215.073251 
L 280.431074 213.721743 
L 283.710413 208.315709 
L 286.989752 233.318615 
L 290.269091 231.291352 
L 293.54843 220.479285 
L 296.827769 232.64286 
L 300.107107 244.130682 
L 303.386446 222.506547 
L 306.665785 224.53381 
L 309.945124 234.670123 
L 313.224463 240.751911 
L 316.503802 239.400402 
L 319.78314 231.291352 
L 323.062479 242.779173 
L 326.341818 258.32152 
L 329.621157 247.509453 
L 332.900496 264.403307 
L 336.179835 254.266994 
L 339.459174 267.106324 
L 342.738512 265.079061 
L 346.017851 250.888223 
L 349.29719 269.133587 
L 352.576529 261.700291 
L 355.855868 264.403307 
L 359.135207 280.621408 
L 362.414545 267.782078 
L 365.693884 280.621408 
L 368.973223 277.918391 
L 372.252562 268.457832 
L 375.531901 267.106324 
L 378.81124 283.324425 
L 382.090579 281.972916 
L 385.369917 275.891128 
L 388.649256 290.757721 
L 391.928595 277.918391 
L 395.207934 295.488 
" style="fill:none;stroke:#ff7f0e;stroke-linecap:square;stroke-width:1.5;"/>
   </g>
   <g id="patch_3">
    <path d="M 57.6 307.584 
L 57.6 41.472 
" style="fill:none;stroke:#000000;stroke-linecap:square;stroke-linejoin:miter;stroke-width:0.8;"/>
   </g>
   <g id="patch_4">
    <path d="M 414.72 307.584 
L 414.72 41.472 
" style="fill:none;stroke:#000000;stroke-linecap:square;stroke-linejoin:miter;stroke-width:0.8;"/>
   </g>
   <g id="patch_5">
    <path d="M 57.6 307.584 
L 414.72 307.584 
" style="fill:none;stroke:#000000;stroke-linecap:square;stroke-linejoin:miter;stroke-width:0.8;"/>
   </g>
   <g id="patch_6">
    <path d="M 57.6 41.472 
L 414.72 41.472 
" style="fill:none;stroke:#000000;stroke-linecap:square;stroke-linejoin:miter;stroke-width:0.8;"/>
   </g>
   <g id="text_17">
    <text style="font-family:DejaVu Sans;font-size:12px;font-style:normal;font-weight:normal;" transform="translate(71.23125 22.034625)">Simulated Mean for 1 - log(1+x) (Alt. Series) Algorithm</text>
    <text style="font-family:DejaVu Sans;font-size:12px;font-style:normal;font-weight:normal;" transform="translate(132.609375 35.472)">(Wasserstein Distances in Legend)</text>
   </g>
   <g id="legend_1">
    <g id="patch_7">
     <path d="M 229.47 78.82825 
L 407.72 78.82825 
Q 409.72 78.82825 409.72 76.82825 
L 409.72 48.472 
Q 409.72 46.472 407.72 46.472 
L 229.47 46.472 
Q 227.47 46.472 227.47 48.472 
L 227.47 76.82825 
Q 227.47 78.82825 229.47 78.82825 
z
" style="fill:#ffffff;opacity:0.8;stroke:#cccccc;stroke-linejoin:miter;"/>
    </g>
    <g id="line2d_17">
     <path d="M 231.47 54.570437 
L 251.47 54.570437 
" style="fill:none;stroke:#1f77b4;stroke-linecap:square;stroke-width:1.5;"/>
    </g>
    <g id="line2d_18"/>
    <g id="text_18">
     <text style="font-family:DejaVu Sans;font-size:10px;font-style:normal;font-weight:normal;text-anchor:start;" transform="rotate(-0, 259.47, 58.070437)" x="259.47" y="58.070437">1 - log(1+x)</text>
    </g>
    <g id="line2d_19">
     <path d="M 231.47 69.248562 
L 251.47 69.248562 
" style="fill:none;stroke:#ff7f0e;stroke-linecap:square;stroke-width:1.5;"/>
    </g>
    <g id="line2d_20"/>
    <g id="text_19">
     <text style="font-family:DejaVu Sans;font-size:10px;font-style:normal;font-weight:normal;text-anchor:start;" transform="rotate(-0, 259.47, 72.748562)" x="259.47" y="72.748562">Simul. Mean (WD=0.008382)</text>
    </g>
   </g>
  </g>
 </g>
 <defs>
  <clipPath id="pbd17baacdb">
   <rect height="266.112" width="357.12" x="57.6" y="41.472"/>
  </clipPath>
 </defs>
</svg>
