<svg height="460.8" viewBox="0 0 460.8 345.6" width="614.4" xmlns="http://www.w3.org/2000/svg" xmlns:xlink="http://www.w3.org/1999/xlink"><defs><style>*{stroke-linecap:butt;stroke-linejoin:round}</style></defs><g id="figure_1"><path d="M0 345.6h460.8V0H0z" fill="#fff" id="patch_1"/><g id="axes_1"><path d="M57.6 307.584h357.12V41.472H57.6z" fill="#fff" id="patch_2"/><g id="matplotlib.axis_1"><g id="xtick_1"><g id="line2d_1"><defs><path d="M0 0v3.5" id="mf187ee0c85" stroke="#000" stroke-width=".8"/></defs><use x="73.8" xlink:href="#mf187ee0c85" y="307.584" stroke="#000" stroke-width=".8"/></g><text x="73.8" y="322.182" font-family="DejaVu Sans" font-size="10" font-weight="400" text-anchor="middle" id="text_1">0.0</text></g><g id="xtick_2"><use x="138.744" xlink:href="#mf187ee0c85" y="307.584" stroke="#000" stroke-width=".8" id="line2d_2"/><text x="138.744" y="322.182" font-family="DejaVu Sans" font-size="10" font-weight="400" text-anchor="middle" id="text_2">0.2</text></g><g id="xtick_3"><use x="203.688" xlink:href="#mf187ee0c85" y="307.584" stroke="#000" stroke-width=".8" id="line2d_3"/><text x="203.688" y="322.182" font-family="DejaVu Sans" font-size="10" font-weight="400" text-anchor="middle" id="text_3">0.4</text></g><g id="xtick_4"><use x="268.632" xlink:href="#mf187ee0c85" y="307.584" stroke="#000" stroke-width=".8" id="line2d_4"/><text x="268.632" y="322.182" font-family="DejaVu Sans" font-size="10" font-weight="400" text-anchor="middle" id="text_4">0.6</text></g><g id="xtick_5"><use x="333.576" xlink:href="#mf187ee0c85" y="307.584" stroke="#000" stroke-width=".8" id="line2d_5"/><text x="333.576" y="322.182" font-family="DejaVu Sans" font-size="10" font-weight="400" text-anchor="middle" id="text_5">0.8</text></g><g id="xtick_6"><use x="398.52" xlink:href="#mf187ee0c85" y="307.584" stroke="#000" stroke-width=".8" id="line2d_6"/><text x="398.52" y="322.182" font-family="DejaVu Sans" font-size="10" font-weight="400" text-anchor="middle" id="text_6">1.0</text></g><text x="236.16" y="335.861" font-family="DejaVu Sans" font-size="10" font-weight="400" text-anchor="middle" id="text_7">Probability</text></g><g id="matplotlib.axis_2"><g id="ytick_1"><g id="line2d_7"><defs><path d="M0 0h-3.5" id="m82ab930873" stroke="#000" stroke-width=".8"/></defs><use x="57.6" xlink:href="#m82ab930873" y="282.888" stroke="#000" stroke-width=".8"/></g><text x="50.6" y="286.687" font-family="DejaVu Sans" font-size="10" font-weight="400" text-anchor="end" id="text_8">2.0</text></g><g id="ytick_2"><use x="57.6" xlink:href="#m82ab930873" y="225.615" stroke="#000" stroke-width=".8" id="line2d_8"/><text x="50.6" y="229.414" font-family="DejaVu Sans" font-size="10" font-weight="400" text-anchor="end" id="text_9">2.5</text></g><g id="ytick_3"><use x="57.6" xlink:href="#m82ab930873" y="168.343" stroke="#000" stroke-width=".8" id="line2d_9"/><text x="50.6" y="172.142" font-family="DejaVu Sans" font-size="10" font-weight="400" text-anchor="end" id="text_10">3.0</text></g><g id="ytick_4"><use x="57.6" xlink:href="#m82ab930873" y="111.07" stroke="#000" stroke-width=".8" id="line2d_10"/><text x="50.6" y="114.869" font-family="DejaVu Sans" font-size="10" font-weight="400" text-anchor="end" id="text_11">3.5</text></g><g id="ytick_5"><use x="57.6" xlink:href="#m82ab930873" y="53.797" stroke="#000" stroke-width=".8" id="line2d_11"/><text x="50.6" y="57.596" font-family="DejaVu Sans" font-size="10" font-weight="400" text-anchor="end" id="text_12">4.0</text></g><text transform="rotate(-90 28.617 174.528)" x="28.617" y="174.528" font-family="DejaVu Sans" font-size="10" font-weight="400" text-anchor="middle" id="text_13">Average Bits Consumed Per Call</text></g><path clip-path="url(#pb35fc36563)" d="M73.833 54.484l3.28 46.277 3.278-32.99 3.28-5.498 3.28 29.095 3.278-31.156 3.28 27.49 3.28.459 3.278 15.349 3.28-49.942 3.28 35.51 3.278 28.635 3.28-16.494 3.28-17.182 3.278 28.636 3.28-11.683 3.28 35.967 3.278-31.156 3.28 32.302 3.28-21.993 3.279 5.498 3.279 22.45 3.28-1.832 3.279 25.658 3.279-14.432 3.28-13.288 3.279 9.622 3.279 12.6 3.28-36.883 3.279 35.28 3.279-8.935 3.28 21.305 3.279-14.89 3.279 26.574 3.28-27.262 3.279 7.79 3.279-.917 3.28 10.08 3.279-14.204 3.279 27.491 3.28 8.477 3.279-15.35 3.279 21.764 3.28-16.494 3.279 4.123 3.279 19.244 3.28-2.062 3.279-17.41 3.279 11.454 3.28 6.185 3.279-4.353 3.279-8.018 3.28 4.582 3.279 18.098 3.279-2.52 3.28 19.244 3.279-13.058 3.279 8.476 3.28 5.956 3.279 3.208 3.28-9.164 3.278-7.33 3.28 40.548 3.28-13.058 3.278-14.204 3.28-14.203 3.28 14.662 3.278-9.164 3.28-2.062 3.28 11.226 3.278 24.283 3.28-11.454 3.28 10.996 3.278-29.094 3.28 10.08 3.28 14.432 3.278-23.367 3.28 34.822 3.28-18.557 3.278 15.12 3.28 7.56 3.28-.458 3.279-15.12 3.279-1.603 3.28-4.124 3.279 12.6 3.279-1.604 3.28 19.473 3.279-30.927 3.279 6.643 3.28 6.644 3.279 23.138 3.279-15.578 3.28-13.974 3.279 11.912 3.279 5.728 3.28 11.225 3.279 2.75 3.279-4.125 3.28 11.455" fill="none" stroke="#1f77b4" stroke-linecap="square" stroke-width="1.5" id="line2d_12"/><path d="M57.6 307.584V41.472" fill="none" stroke="#000" stroke-linecap="square" stroke-width=".8" id="patch_3"/><path d="M414.72 307.584V41.472" fill="none" stroke="#000" stroke-linecap="square" stroke-width=".8" id="patch_4"/><path d="M57.6 307.584h357.12" fill="none" stroke="#000" stroke-linecap="square" stroke-width=".8" id="patch_5"/><path d="M57.6 41.472h357.12" fill="none" stroke="#000" stroke-linecap="square" stroke-width=".8" id="patch_6"/><text x="236.16" y="35.472" font-family="DejaVu Sans" font-size="12" font-weight="400" text-anchor="middle" id="text_14">Avg. Bits Consumed by 1/(1+x) (Two-Coin Special Case) Algorithm</text><g id="legend_1"><path d="M214.914 64.15H407.72q2 0 2-2V48.472q0-2-2-2H214.914q-2 0-2 2V62.15q0 2 2 2z" fill="#fff" opacity=".8" stroke="#ccc" id="patch_7"/><path d="M216.914 54.57h20" fill="none" stroke="#1f77b4" stroke-linecap="square" stroke-width="1.5" id="line2d_13"/><text x="244.914" y="58.07" font-family="DejaVu Sans" font-size="10" font-weight="400" id="text_15">1/(1+x) (Two-Coin Special Case)</text></g></g></g><defs><clipPath id="pb35fc36563"><path d="M57.6 41.472h357.12v266.112H57.6z"/></clipPath></defs></svg>