<?xml version="1.0" encoding="utf-8" standalone="no"?>
<!DOCTYPE svg PUBLIC "-//W3C//DTD SVG 1.1//EN"
  "http://www.w3.org/Graphics/SVG/1.1/DTD/svg11.dtd">
<!-- Created with matplotlib (https://matplotlib.org/) -->
<svg height="252pt" version="1.1" viewBox="0 0 324 252" width="324pt" xmlns="http://www.w3.org/2000/svg" xmlns:xlink="http://www.w3.org/1999/xlink">
 <defs>
  <style type="text/css">
*{stroke-linecap:butt;stroke-linejoin:round;}
  </style>
 </defs>
 <g id="figure_1">
  <g id="patch_1">
   <path d="M 0 252 
L 324 252 
L 324 0 
L 0 0 
z
" style="fill:#ffffff;"/>
  </g>
  <g id="axes_1">
   <g id="patch_2">
    <path d="M 40.5 224.28 
L 291.6 224.28 
L 291.6 30.24 
L 40.5 30.24 
z
" style="fill:#ffffff;"/>
   </g>
   <g id="matplotlib.axis_1">
    <g id="xtick_1">
     <g id="line2d_1">
      <defs>
       <path d="M 0 0 
L 0 3.5 
" id="m94028c254f" style="stroke:#000000;stroke-width:0.8;"/>
      </defs>
      <g>
       <use style="stroke:#000000;stroke-width:0.8;" x="51.890805" xlink:href="#m94028c254f" y="224.28"/>
      </g>
     </g>
     <g id="text_1">
      <text style="font-family:DejaVu Sans;font-size:10px;font-style:normal;font-weight:normal;text-anchor:middle;" transform="rotate(-0, 51.890805, 238.878438)" x="51.890805" y="238.878438">0.0</text>
     </g>
    </g>
    <g id="xtick_2">
     <g id="line2d_2">
      <g>
       <use style="stroke:#000000;stroke-width:0.8;" x="97.554483" xlink:href="#m94028c254f" y="224.28"/>
      </g>
     </g>
     <g id="text_2">
      <text style="font-family:DejaVu Sans;font-size:10px;font-style:normal;font-weight:normal;text-anchor:middle;" transform="rotate(-0, 97.554483, 238.878438)" x="97.554483" y="238.878438">0.2</text>
     </g>
    </g>
    <g id="xtick_3">
     <g id="line2d_3">
      <g>
       <use style="stroke:#000000;stroke-width:0.8;" x="143.218161" xlink:href="#m94028c254f" y="224.28"/>
      </g>
     </g>
     <g id="text_3">
      <text style="font-family:DejaVu Sans;font-size:10px;font-style:normal;font-weight:normal;text-anchor:middle;" transform="rotate(-0, 143.218161, 238.878438)" x="143.218161" y="238.878438">0.4</text>
     </g>
    </g>
    <g id="xtick_4">
     <g id="line2d_4">
      <g>
       <use style="stroke:#000000;stroke-width:0.8;" x="188.881839" xlink:href="#m94028c254f" y="224.28"/>
      </g>
     </g>
     <g id="text_4">
      <text style="font-family:DejaVu Sans;font-size:10px;font-style:normal;font-weight:normal;text-anchor:middle;" transform="rotate(-0, 188.881839, 238.878438)" x="188.881839" y="238.878438">0.6</text>
     </g>
    </g>
    <g id="xtick_5">
     <g id="line2d_5">
      <g>
       <use style="stroke:#000000;stroke-width:0.8;" x="234.545517" xlink:href="#m94028c254f" y="224.28"/>
      </g>
     </g>
     <g id="text_5">
      <text style="font-family:DejaVu Sans;font-size:10px;font-style:normal;font-weight:normal;text-anchor:middle;" transform="rotate(-0, 234.545517, 238.878438)" x="234.545517" y="238.878438">0.8</text>
     </g>
    </g>
    <g id="xtick_6">
     <g id="line2d_6">
      <g>
       <use style="stroke:#000000;stroke-width:0.8;" x="280.209195" xlink:href="#m94028c254f" y="224.28"/>
      </g>
     </g>
     <g id="text_6">
      <text style="font-family:DejaVu Sans;font-size:10px;font-style:normal;font-weight:normal;text-anchor:middle;" transform="rotate(-0, 280.209195, 238.878438)" x="280.209195" y="238.878438">1.0</text>
     </g>
    </g>
    <g id="text_7">
     <text style="font-family:DejaVu Sans;font-size:10px;font-style:normal;font-weight:normal;text-anchor:middle;" transform="rotate(-0, 166.05, 252.556563)" x="166.05" y="252.556563">Input Coin's Heads Probability (λ)</text>
    </g>
   </g>
   <g id="matplotlib.axis_2">
    <g id="ytick_1">
     <g id="line2d_7">
      <defs>
       <path d="M 0 0 
L -3.5 0 
" id="m17187fe0ad" style="stroke:#000000;stroke-width:0.8;"/>
      </defs>
      <g>
       <use style="stroke:#000000;stroke-width:0.8;" x="40.5" xlink:href="#m17187fe0ad" y="198.842609"/>
      </g>
     </g>
     <g id="text_8">
      <text style="font-family:DejaVu Sans;font-size:10px;font-style:normal;font-weight:normal;text-anchor:end;" transform="rotate(-0, 33.5, 202.641827)" x="33.5" y="202.641827">0.5</text>
     </g>
    </g>
    <g id="ytick_2">
     <g id="line2d_8">
      <g>
       <use style="stroke:#000000;stroke-width:0.8;" x="40.5" xlink:href="#m17187fe0ad" y="166.886087"/>
      </g>
     </g>
     <g id="text_9">
      <text style="font-family:DejaVu Sans;font-size:10px;font-style:normal;font-weight:normal;text-anchor:end;" transform="rotate(-0, 33.5, 170.685306)" x="33.5" y="170.685306">0.6</text>
     </g>
    </g>
    <g id="ytick_3">
     <g id="line2d_9">
      <g>
       <use style="stroke:#000000;stroke-width:0.8;" x="40.5" xlink:href="#m17187fe0ad" y="134.929565"/>
      </g>
     </g>
     <g id="text_10">
      <text style="font-family:DejaVu Sans;font-size:10px;font-style:normal;font-weight:normal;text-anchor:end;" transform="rotate(-0, 33.5, 138.728784)" x="33.5" y="138.728784">0.7</text>
     </g>
    </g>
    <g id="ytick_4">
     <g id="line2d_10">
      <g>
       <use style="stroke:#000000;stroke-width:0.8;" x="40.5" xlink:href="#m17187fe0ad" y="102.973043"/>
      </g>
     </g>
     <g id="text_11">
      <text style="font-family:DejaVu Sans;font-size:10px;font-style:normal;font-weight:normal;text-anchor:end;" transform="rotate(-0, 33.5, 106.772262)" x="33.5" y="106.772262">0.8</text>
     </g>
    </g>
    <g id="ytick_5">
     <g id="line2d_11">
      <g>
       <use style="stroke:#000000;stroke-width:0.8;" x="40.5" xlink:href="#m17187fe0ad" y="71.016522"/>
      </g>
     </g>
     <g id="text_12">
      <text style="font-family:DejaVu Sans;font-size:10px;font-style:normal;font-weight:normal;text-anchor:end;" transform="rotate(-0, 33.5, 74.81574)" x="33.5" y="74.81574">0.9</text>
     </g>
    </g>
    <g id="ytick_6">
     <g id="line2d_12">
      <g>
       <use style="stroke:#000000;stroke-width:0.8;" x="40.5" xlink:href="#m17187fe0ad" y="39.06"/>
      </g>
     </g>
     <g id="text_13">
      <text style="font-family:DejaVu Sans;font-size:10px;font-style:normal;font-weight:normal;text-anchor:end;" transform="rotate(-0, 33.5, 42.859219)" x="33.5" y="42.859219">1.0</text>
     </g>
    </g>
    <g id="text_14">
     <text style="font-family:DejaVu Sans;font-size:10px;font-style:normal;font-weight:normal;text-anchor:middle;" transform="rotate(-90, 11.517187, 127.26)" x="11.517187" y="127.26">Simulated Mean / Function Value</text>
    </g>
   </g>
   <g id="line2d_13">
    <path clip-path="url(#pbf94df2f30)" d="M 52.119123 39.379246 
L 54.420757 42.562233 
L 56.722391 45.682376 
L 59.024025 48.741518 
L 61.325658 51.74143 
L 63.627292 54.683816 
L 65.928926 57.570315 
L 68.23056 60.402504 
L 70.532194 63.181902 
L 72.833828 65.909971 
L 75.135462 68.58812 
L 77.437096 71.217707 
L 79.738729 73.800041 
L 82.040363 76.336383 
L 84.341997 78.827953 
L 86.643631 81.275924 
L 88.945265 83.681432 
L 91.246899 86.045572 
L 93.548533 88.369402 
L 95.850167 90.653944 
L 98.151801 92.900186 
L 100.453434 95.109083 
L 102.755068 97.281559 
L 105.056702 99.418508 
L 107.358336 101.520793 
L 109.65997 103.589252 
L 111.961604 105.624693 
L 114.263238 107.627903 
L 116.564872 109.599639 
L 118.866505 111.540639 
L 121.168139 113.451615 
L 123.469773 115.333258 
L 125.771407 117.186239 
L 128.073041 119.011208 
L 130.374675 120.808795 
L 132.676309 122.579611 
L 134.977943 124.324251 
L 137.279576 126.043291 
L 139.58121 127.73729 
L 141.882844 129.40679 
L 144.184478 131.052321 
L 146.486112 132.674393 
L 148.787746 134.273506 
L 151.08938 135.850144 
L 153.391014 137.404776 
L 155.692648 138.937861 
L 157.994281 140.449843 
L 160.295915 141.941155 
L 162.597549 143.412218 
L 164.899183 144.863442 
L 167.200817 146.295225 
L 169.502451 147.707956 
L 171.804085 149.102011 
L 174.105719 150.47776 
L 176.407352 151.83556 
L 178.708986 153.17576 
L 181.01062 154.4987 
L 183.312254 155.804712 
L 185.613888 157.094118 
L 187.915522 158.367234 
L 190.217156 159.624365 
L 192.51879 160.865811 
L 194.820424 162.091864 
L 197.122057 163.302809 
L 199.423691 164.498922 
L 201.725325 165.680475 
L 204.026959 166.847731 
L 206.328593 168.00095 
L 208.630227 169.140382 
L 210.931861 170.266274 
L 213.233495 171.378865 
L 215.535128 172.478389 
L 217.836762 173.565076 
L 220.138396 174.639148 
L 222.44003 175.700825 
L 224.741664 176.75032 
L 227.043298 177.787841 
L 229.344932 178.813591 
L 231.646566 179.827771 
L 233.948199 180.830575 
L 236.249833 181.822192 
L 238.551467 182.80281 
L 240.853101 183.77261 
L 243.154735 184.73177 
L 245.456369 185.680465 
L 247.758003 186.618864 
L 250.059637 187.547135 
L 252.361271 188.46544 
L 254.662904 189.37394 
L 256.964538 190.27279 
L 259.266172 191.162143 
L 261.567806 192.042149 
L 263.86944 192.912955 
L 266.171074 193.774704 
L 268.472708 194.627537 
L 270.774342 195.471591 
L 273.075975 196.307001 
L 275.377609 197.1339 
L 277.679243 197.952416 
L 279.980877 198.762677 
" style="fill:none;stroke:#1f77b4;stroke-linecap:square;stroke-width:1.5;"/>
   </g>
   <g id="line2d_14">
    <path clip-path="url(#pbf94df2f30)" d="M 51.913636 39.06 
L 54.219421 44.812174 
L 56.525207 44.812174 
L 58.830992 48.007826 
L 61.136777 53.12087 
L 63.442562 55.038261 
L 65.748347 56.316522 
L 68.054132 57.594783 
L 70.359917 60.790435 
L 72.665702 66.542609 
L 74.971488 69.09913 
L 77.277273 70.377391 
L 79.583058 71.016522 
L 81.888843 79.964348 
L 84.194628 79.325217 
L 86.500413 78.686087 
L 88.806198 84.438261 
L 91.111983 88.912174 
L 93.417769 92.107826 
L 95.723554 89.551304 
L 98.029339 96.581739 
L 100.335124 99.138261 
L 102.640909 99.777391 
L 104.946694 100.416522 
L 107.252479 111.92087 
L 109.558264 94.664348 
L 111.86405 104.890435 
L 114.169835 103.612174 
L 116.47562 117.033913 
L 118.781405 121.507826 
L 121.08719 106.807826 
L 123.392975 108.725217 
L 125.69876 102.973043 
L 128.004545 125.342609 
L 130.310331 116.394783 
L 132.616116 121.507826 
L 134.921901 128.538261 
L 137.227686 124.064348 
L 139.533471 129.816522 
L 141.839256 138.125217 
L 144.145041 126.62087 
L 146.450826 134.929565 
L 148.756612 136.207826 
L 151.062397 128.538261 
L 153.368182 134.290435 
L 155.673967 136.846957 
L 157.979752 141.96 
L 160.285537 146.433913 
L 162.591322 160.494783 
L 164.897107 150.268696 
L 167.202893 139.403478 
L 169.508678 145.155652 
L 171.814463 145.794783 
L 174.120248 161.773043 
L 176.426033 152.825217 
L 178.731818 152.825217 
L 181.037603 149.629565 
L 183.343388 154.103478 
L 185.649174 152.186087 
L 187.954959 151.546957 
L 190.260744 156.66 
L 192.566529 172.638261 
L 194.872314 170.72087 
L 197.178099 168.164348 
L 199.483884 179.029565 
L 201.789669 158.577391 
L 204.095455 175.194783 
L 206.40124 180.307826 
L 208.707025 166.886087 
L 211.01281 156.66 
L 213.318595 170.081739 
L 215.62438 179.668696 
L 217.930165 170.081739 
L 220.23595 163.690435 
L 222.541736 163.051304 
L 224.847521 159.855652 
L 227.153306 179.668696 
L 229.459091 175.833913 
L 231.764876 182.225217 
L 234.070661 196.925217 
L 236.376446 180.307826 
L 238.682231 172.638261 
L 240.988017 184.142609 
L 243.293802 185.42087 
L 245.599587 195.007826 
L 247.905372 178.390435 
L 250.211157 193.729565 
L 252.516942 184.142609 
L 254.822727 198.842609 
L 257.128512 191.173043 
L 259.434298 195.007826 
L 261.740083 196.925217 
L 264.045868 202.038261 
L 266.351653 196.925217 
L 268.657438 203.955652 
L 270.963223 187.338261 
L 273.269008 198.842609 
L 275.574793 190.533913 
L 277.880579 200.76 
L 280.186364 215.46 
" style="fill:none;stroke:#ff7f0e;stroke-linecap:square;stroke-width:1.5;"/>
   </g>
   <g id="patch_3">
    <path d="M 40.5 224.28 
L 40.5 30.24 
" style="fill:none;stroke:#000000;stroke-linecap:square;stroke-linejoin:miter;stroke-width:0.8;"/>
   </g>
   <g id="patch_4">
    <path d="M 291.6 224.28 
L 291.6 30.24 
" style="fill:none;stroke:#000000;stroke-linecap:square;stroke-linejoin:miter;stroke-width:0.8;"/>
   </g>
   <g id="patch_5">
    <path d="M 40.5 224.28 
L 291.6 224.28 
" style="fill:none;stroke:#000000;stroke-linecap:square;stroke-linejoin:miter;stroke-width:0.8;"/>
   </g>
   <g id="patch_6">
    <path d="M 40.5 30.24 
L 291.6 30.24 
" style="fill:none;stroke:#000000;stroke-linecap:square;stroke-linejoin:miter;stroke-width:0.8;"/>
   </g>
   <g id="text_15">
    <text style="font-family:DejaVu Sans;font-size:12px;font-style:normal;font-weight:normal;text-anchor:middle;" transform="rotate(-0, 166.05, 24.24)" x="166.05" y="24.24">Expected Value in 1/(1+x) (Two-Coin Special Case) Algorithm</text>
   </g>
   <g id="legend_1">
    <g id="patch_7">
     <path d="M -5.159375 67.59625 
L 284.6 67.59625 
Q 286.6 67.59625 286.6 65.59625 
L 286.6 37.24 
Q 286.6 35.24 284.6 35.24 
L -5.159375 35.24 
Q -7.159375 35.24 -7.159375 37.24 
L -7.159375 65.59625 
Q -7.159375 67.59625 -5.159375 67.59625 
z
" style="fill:#ffffff;opacity:0.8;stroke:#cccccc;stroke-linejoin:miter;"/>
    </g>
    <g id="line2d_15">
     <path d="M -1 43.338438 
L 16.840625 43.338438 
" style="fill:none;stroke:#1f77b4;stroke-linecap:square;stroke-width:1.5;"/>
    </g>
    <g id="line2d_16"/>
    <g id="text_16">
     <text style="font-family:DejaVu Sans;font-size:10px;font-style:normal;font-weight:normal;text-anchor:start;" transform="rotate(-0, 24.840625, 46.838438)" x="24.840625" y="46.838438">1/(1+x)</text>
    </g>
    <g id="line2d_17">
     <path d="M -1 58.016563 
L 16.840625 58.016563 
" style="fill:none;stroke:#ff7f0e;stroke-linecap:square;stroke-width:1.5;"/>
    </g>
    <g id="line2d_18"/>
    <g id="text_17">
     <text style="font-family:DejaVu Sans;font-size:10px;font-style:normal;font-weight:normal;text-anchor:start;" transform="rotate(-0, 24.840625, 61.516563)" x="24.840625" y="61.516563">Simulated Mean of 1/(1+x) (Two-Coin Special Case)</text>
    </g>
   </g>
  </g>
 </g>
 <defs>
  <clipPath id="pbf94df2f30">
   <rect height="194.04" width="251.1" x="40.5" y="30.24"/>
  </clipPath>
 </defs>
</svg>
