<?xml version="1.0" encoding="utf-8" standalone="no"?>
<!DOCTYPE svg PUBLIC "-//W3C//DTD SVG 1.1//EN"
  "http://www.w3.org/Graphics/SVG/1.1/DTD/svg11.dtd">
<!-- Created with matplotlib (https://matplotlib.org/) -->
<svg height="252pt" version="1.1" viewBox="0 0 324 252" width="324pt" xmlns="http://www.w3.org/2000/svg" xmlns:xlink="http://www.w3.org/1999/xlink">
 <defs>
  <style type="text/css">
*{stroke-linecap:butt;stroke-linejoin:round;}
  </style>
 </defs>
 <g id="figure_1">
  <g id="patch_1">
   <path d="M 0 252 
L 324 252 
L 324 0 
L 0 0 
z
" style="fill:#ffffff;"/>
  </g>
  <g id="axes_1">
   <g id="patch_2">
    <path d="M 40.5 224.28 
L 291.6 224.28 
L 291.6 30.24 
L 40.5 30.24 
z
" style="fill:#ffffff;"/>
   </g>
   <g id="matplotlib.axis_1">
    <g id="xtick_1">
     <g id="line2d_1">
      <defs>
       <path d="M 0 0 
L 0 3.5 
" id="mff5467b8ce" style="stroke:#000000;stroke-width:0.8;"/>
      </defs>
      <g>
       <use style="stroke:#000000;stroke-width:0.8;" x="51.890805" xlink:href="#mff5467b8ce" y="224.28"/>
      </g>
     </g>
     <g id="text_1">
      <text style="font-family:DejaVu Sans;font-size:10px;font-style:normal;font-weight:normal;text-anchor:middle;" transform="rotate(-0, 51.890805, 238.878438)" x="51.890805" y="238.878438">0.0</text>
     </g>
    </g>
    <g id="xtick_2">
     <g id="line2d_2">
      <g>
       <use style="stroke:#000000;stroke-width:0.8;" x="97.554483" xlink:href="#mff5467b8ce" y="224.28"/>
      </g>
     </g>
     <g id="text_2">
      <text style="font-family:DejaVu Sans;font-size:10px;font-style:normal;font-weight:normal;text-anchor:middle;" transform="rotate(-0, 97.554483, 238.878438)" x="97.554483" y="238.878438">0.2</text>
     </g>
    </g>
    <g id="xtick_3">
     <g id="line2d_3">
      <g>
       <use style="stroke:#000000;stroke-width:0.8;" x="143.218161" xlink:href="#mff5467b8ce" y="224.28"/>
      </g>
     </g>
     <g id="text_3">
      <text style="font-family:DejaVu Sans;font-size:10px;font-style:normal;font-weight:normal;text-anchor:middle;" transform="rotate(-0, 143.218161, 238.878438)" x="143.218161" y="238.878438">0.4</text>
     </g>
    </g>
    <g id="xtick_4">
     <g id="line2d_4">
      <g>
       <use style="stroke:#000000;stroke-width:0.8;" x="188.881839" xlink:href="#mff5467b8ce" y="224.28"/>
      </g>
     </g>
     <g id="text_4">
      <text style="font-family:DejaVu Sans;font-size:10px;font-style:normal;font-weight:normal;text-anchor:middle;" transform="rotate(-0, 188.881839, 238.878438)" x="188.881839" y="238.878438">0.6</text>
     </g>
    </g>
    <g id="xtick_5">
     <g id="line2d_5">
      <g>
       <use style="stroke:#000000;stroke-width:0.8;" x="234.545517" xlink:href="#mff5467b8ce" y="224.28"/>
      </g>
     </g>
     <g id="text_5">
      <text style="font-family:DejaVu Sans;font-size:10px;font-style:normal;font-weight:normal;text-anchor:middle;" transform="rotate(-0, 234.545517, 238.878438)" x="234.545517" y="238.878438">0.8</text>
     </g>
    </g>
    <g id="xtick_6">
     <g id="line2d_6">
      <g>
       <use style="stroke:#000000;stroke-width:0.8;" x="280.209195" xlink:href="#mff5467b8ce" y="224.28"/>
      </g>
     </g>
     <g id="text_6">
      <text style="font-family:DejaVu Sans;font-size:10px;font-style:normal;font-weight:normal;text-anchor:middle;" transform="rotate(-0, 280.209195, 238.878438)" x="280.209195" y="238.878438">1.0</text>
     </g>
    </g>
    <g id="text_7">
     <text style="font-family:DejaVu Sans;font-size:10px;font-style:normal;font-weight:normal;text-anchor:middle;" transform="rotate(-0, 166.05, 252.556563)" x="166.05" y="252.556563">Probability</text>
    </g>
   </g>
   <g id="matplotlib.axis_2">
    <g id="ytick_1">
     <g id="line2d_7">
      <defs>
       <path d="M 0 0 
L -3.5 0 
" id="m457bb82643" style="stroke:#000000;stroke-width:0.8;"/>
      </defs>
      <g>
       <use style="stroke:#000000;stroke-width:0.8;" x="40.5" xlink:href="#m457bb82643" y="209.507407"/>
      </g>
     </g>
     <g id="text_8">
      <text style="font-family:DejaVu Sans;font-size:10px;font-style:normal;font-weight:normal;text-anchor:end;" transform="rotate(-0, 33.5, 213.306626)" x="33.5" y="213.306626">2.0</text>
     </g>
    </g>
    <g id="ytick_2">
     <g id="line2d_8">
      <g>
       <use style="stroke:#000000;stroke-width:0.8;" x="40.5" xlink:href="#m457bb82643" y="173.211111"/>
      </g>
     </g>
     <g id="text_9">
      <text style="font-family:DejaVu Sans;font-size:10px;font-style:normal;font-weight:normal;text-anchor:end;" transform="rotate(-0, 33.5, 177.01033)" x="33.5" y="177.01033">2.5</text>
     </g>
    </g>
    <g id="ytick_3">
     <g id="line2d_9">
      <g>
       <use style="stroke:#000000;stroke-width:0.8;" x="40.5" xlink:href="#m457bb82643" y="136.914815"/>
      </g>
     </g>
     <g id="text_10">
      <text style="font-family:DejaVu Sans;font-size:10px;font-style:normal;font-weight:normal;text-anchor:end;" transform="rotate(-0, 33.5, 140.714034)" x="33.5" y="140.714034">3.0</text>
     </g>
    </g>
    <g id="ytick_4">
     <g id="line2d_10">
      <g>
       <use style="stroke:#000000;stroke-width:0.8;" x="40.5" xlink:href="#m457bb82643" y="100.618519"/>
      </g>
     </g>
     <g id="text_11">
      <text style="font-family:DejaVu Sans;font-size:10px;font-style:normal;font-weight:normal;text-anchor:end;" transform="rotate(-0, 33.5, 104.417737)" x="33.5" y="104.417737">3.5</text>
     </g>
    </g>
    <g id="ytick_5">
     <g id="line2d_11">
      <g>
       <use style="stroke:#000000;stroke-width:0.8;" x="40.5" xlink:href="#m457bb82643" y="64.322222"/>
      </g>
     </g>
     <g id="text_12">
      <text style="font-family:DejaVu Sans;font-size:10px;font-style:normal;font-weight:normal;text-anchor:end;" transform="rotate(-0, 33.5, 68.121441)" x="33.5" y="68.121441">4.0</text>
     </g>
    </g>
    <g id="text_13">
     <text style="font-family:DejaVu Sans;font-size:10px;font-style:normal;font-weight:normal;text-anchor:middle;" transform="rotate(-90, 11.517187, 127.26)" x="11.517187" y="127.26">Average Bits Consumed Per Call</text>
    </g>
   </g>
   <g id="line2d_12">
    <path clip-path="url(#p9aafaea907)" d="M 51.913636 78.405185 
L 54.219421 39.06 
L 56.525207 51.400741 
L 58.830992 60.547407 
L 61.136777 81.018519 
L 63.442562 81.163704 
L 65.748347 69.258519 
L 68.054132 74.920741 
L 70.359917 72.017037 
L 72.665702 67.371111 
L 74.971488 89.72963 
L 77.277273 76.662963 
L 79.583058 93.64963 
L 81.888843 78.985926 
L 84.194628 101.199259 
L 86.500413 116.734074 
L 88.806198 107.587407 
L 91.111983 105.40963 
L 93.417769 108.603704 
L 95.723554 95.537037 
L 98.029339 99.021481 
L 100.335124 105.845185 
L 102.640909 129.51037 
L 104.946694 85.80963 
L 107.252479 114.265926 
L 109.558264 128.92963 
L 111.86405 127.477778 
L 114.169835 127.913333 
L 116.47562 123.412593 
L 118.781405 103.377037 
L 121.08719 141.27037 
L 123.392975 127.768148 
L 125.69876 135.027407 
L 128.004545 147.077778 
L 130.310331 129.51037 
L 132.616116 142.141481 
L 134.921901 136.76963 
L 137.227686 140.544444 
L 139.533471 141.851111 
L 141.839256 144.754815 
L 144.145041 152.159259 
L 146.450826 150.271852 
L 148.756612 165.516296 
L 151.062397 144.9 
L 153.368182 159.128148 
L 155.673967 154.917778 
L 157.979752 159.708889 
L 160.285537 166.968148 
L 162.591322 174.372593 
L 164.897107 164.20963 
L 167.202893 156.079259 
L 169.508678 165.225926 
L 171.814463 159.273333 
L 174.120248 158.837778 
L 176.426033 162.031852 
L 178.731818 165.080741 
L 181.037603 169.871852 
L 183.343388 174.082222 
L 185.649174 182.648148 
L 187.954959 178.002222 
L 190.260744 160.58 
L 192.566529 173.646667 
L 194.872314 178.873333 
L 197.178099 177.421481 
L 199.483884 172.485185 
L 201.789669 177.131111 
L 204.095455 179.018519 
L 206.40124 181.486667 
L 208.707025 174.517778 
L 211.01281 187.439259 
L 213.318595 189.471852 
L 215.62438 188.31037 
L 217.930165 182.502963 
L 220.23595 190.488148 
L 222.541736 203.554815 
L 224.847521 178.873333 
L 227.153306 189.762222 
L 229.459091 186.568148 
L 231.764876 201.231852 
L 234.070661 201.231852 
L 236.376446 196.585926 
L 238.682231 194.843704 
L 240.988017 187.003704 
L 243.293802 185.116296 
L 245.599587 194.988889 
L 247.905372 193.827407 
L 250.211157 206.894074 
L 252.516942 195.424444 
L 254.822727 198.182963 
L 257.128512 195.56963 
L 259.434298 212.120741 
L 261.740083 204.861481 
L 264.045868 210.088148 
L 266.351653 200.505926 
L 268.657438 215.46 
L 270.963223 210.088148 
L 273.269008 210.378519 
L 275.574793 205.151852 
L 277.880579 205.587407 
L 280.186364 206.603704 
" style="fill:none;stroke:#1f77b4;stroke-linecap:square;stroke-width:1.5;"/>
   </g>
   <g id="patch_3">
    <path d="M 40.5 224.28 
L 40.5 30.24 
" style="fill:none;stroke:#000000;stroke-linecap:square;stroke-linejoin:miter;stroke-width:0.8;"/>
   </g>
   <g id="patch_4">
    <path d="M 291.6 224.28 
L 291.6 30.24 
" style="fill:none;stroke:#000000;stroke-linecap:square;stroke-linejoin:miter;stroke-width:0.8;"/>
   </g>
   <g id="patch_5">
    <path d="M 40.5 224.28 
L 291.6 224.28 
" style="fill:none;stroke:#000000;stroke-linecap:square;stroke-linejoin:miter;stroke-width:0.8;"/>
   </g>
   <g id="patch_6">
    <path d="M 40.5 30.24 
L 291.6 30.24 
" style="fill:none;stroke:#000000;stroke-linecap:square;stroke-linejoin:miter;stroke-width:0.8;"/>
   </g>
   <g id="text_14">
    <text style="font-family:DejaVu Sans;font-size:12px;font-style:normal;font-weight:normal;text-anchor:middle;" transform="rotate(-0, 166.05, 24.24)" x="166.05" y="24.24">Avg. Bits Consumed by 1/(1+x) (Two-Coin Special Case) Algorithm</text>
   </g>
  </g>
 </g>
 <defs>
  <clipPath id="p9aafaea907">
   <rect height="194.04" width="251.1" x="40.5" y="30.24"/>
  </clipPath>
 </defs>
</svg>
