<?xml version="1.0" encoding="utf-8" standalone="no"?>
<!DOCTYPE svg PUBLIC "-//W3C//DTD SVG 1.1//EN"
  "http://www.w3.org/Graphics/SVG/1.1/DTD/svg11.dtd">
<!-- Created with matplotlib (https://matplotlib.org/) -->
<svg height="345.6pt" version="1.1" viewBox="0 0 460.8 345.6" width="460.8pt" xmlns="http://www.w3.org/2000/svg" xmlns:xlink="http://www.w3.org/1999/xlink">
 <defs>
  <style type="text/css">
*{stroke-linecap:butt;stroke-linejoin:round;}
  </style>
 </defs>
 <g id="figure_1">
  <g id="patch_1">
   <path d="M 0 345.6 
L 460.8 345.6 
L 460.8 0 
L 0 0 
z
" style="fill:#ffffff;"/>
  </g>
  <g id="axes_1">
   <g id="patch_2">
    <path d="M 57.6 307.584 
L 414.72 307.584 
L 414.72 41.472 
L 57.6 41.472 
z
" style="fill:#ffffff;"/>
   </g>
   <g id="matplotlib.axis_1">
    <g id="xtick_1">
     <g id="line2d_1">
      <defs>
       <path d="M 0 0 
L 0 3.5 
" id="m3b59089d73" style="stroke:#000000;stroke-width:0.8;"/>
      </defs>
      <g>
       <use style="stroke:#000000;stroke-width:0.8;" x="73.800255" xlink:href="#m3b59089d73" y="307.584"/>
      </g>
     </g>
     <g id="text_1">
      <text style="font-family:DejaVu Sans;font-size:10px;font-style:normal;font-weight:normal;text-anchor:middle;" transform="rotate(-0, 73.800255, 322.182437)" x="73.800255" y="322.182437">0.0</text>
     </g>
    </g>
    <g id="xtick_2">
     <g id="line2d_2">
      <g>
       <use style="stroke:#000000;stroke-width:0.8;" x="138.744153" xlink:href="#m3b59089d73" y="307.584"/>
      </g>
     </g>
     <g id="text_2">
      <text style="font-family:DejaVu Sans;font-size:10px;font-style:normal;font-weight:normal;text-anchor:middle;" transform="rotate(-0, 138.744153, 322.182437)" x="138.744153" y="322.182437">0.2</text>
     </g>
    </g>
    <g id="xtick_3">
     <g id="line2d_3">
      <g>
       <use style="stroke:#000000;stroke-width:0.8;" x="203.688051" xlink:href="#m3b59089d73" y="307.584"/>
      </g>
     </g>
     <g id="text_3">
      <text style="font-family:DejaVu Sans;font-size:10px;font-style:normal;font-weight:normal;text-anchor:middle;" transform="rotate(-0, 203.688051, 322.182437)" x="203.688051" y="322.182437">0.4</text>
     </g>
    </g>
    <g id="xtick_4">
     <g id="line2d_4">
      <g>
       <use style="stroke:#000000;stroke-width:0.8;" x="268.631949" xlink:href="#m3b59089d73" y="307.584"/>
      </g>
     </g>
     <g id="text_4">
      <text style="font-family:DejaVu Sans;font-size:10px;font-style:normal;font-weight:normal;text-anchor:middle;" transform="rotate(-0, 268.631949, 322.182437)" x="268.631949" y="322.182437">0.6</text>
     </g>
    </g>
    <g id="xtick_5">
     <g id="line2d_5">
      <g>
       <use style="stroke:#000000;stroke-width:0.8;" x="333.575847" xlink:href="#m3b59089d73" y="307.584"/>
      </g>
     </g>
     <g id="text_5">
      <text style="font-family:DejaVu Sans;font-size:10px;font-style:normal;font-weight:normal;text-anchor:middle;" transform="rotate(-0, 333.575847, 322.182437)" x="333.575847" y="322.182437">0.8</text>
     </g>
    </g>
    <g id="xtick_6">
     <g id="line2d_6">
      <g>
       <use style="stroke:#000000;stroke-width:0.8;" x="398.519745" xlink:href="#m3b59089d73" y="307.584"/>
      </g>
     </g>
     <g id="text_6">
      <text style="font-family:DejaVu Sans;font-size:10px;font-style:normal;font-weight:normal;text-anchor:middle;" transform="rotate(-0, 398.519745, 322.182437)" x="398.519745" y="322.182437">1.0</text>
     </g>
    </g>
    <g id="text_7">
     <text style="font-family:DejaVu Sans;font-size:10px;font-style:normal;font-weight:normal;text-anchor:middle;" transform="rotate(-0, 236.16, 335.860562)" x="236.16" y="335.860562">Input Coin's Heads Probability (λ)</text>
    </g>
   </g>
   <g id="matplotlib.axis_2">
    <g id="ytick_1">
     <g id="line2d_7">
      <defs>
       <path d="M 0 0 
L -3.5 0 
" id="mb12bd91995" style="stroke:#000000;stroke-width:0.8;"/>
      </defs>
      <g>
       <use style="stroke:#000000;stroke-width:0.8;" x="57.6" xlink:href="#mb12bd91995" y="281.794415"/>
      </g>
     </g>
     <g id="text_8">
      <text style="font-family:DejaVu Sans;font-size:10px;font-style:normal;font-weight:normal;text-anchor:end;" transform="rotate(-0, 50.6, 285.593634)" x="50.6" y="285.593634">0.5</text>
     </g>
    </g>
    <g id="ytick_2">
     <g id="line2d_8">
      <g>
       <use style="stroke:#000000;stroke-width:0.8;" x="57.6" xlink:href="#mb12bd91995" y="236.149132"/>
      </g>
     </g>
     <g id="text_9">
      <text style="font-family:DejaVu Sans;font-size:10px;font-style:normal;font-weight:normal;text-anchor:end;" transform="rotate(-0, 50.6, 239.948351)" x="50.6" y="239.948351">0.6</text>
     </g>
    </g>
    <g id="ytick_3">
     <g id="line2d_9">
      <g>
       <use style="stroke:#000000;stroke-width:0.8;" x="57.6" xlink:href="#mb12bd91995" y="190.503849"/>
      </g>
     </g>
     <g id="text_10">
      <text style="font-family:DejaVu Sans;font-size:10px;font-style:normal;font-weight:normal;text-anchor:end;" transform="rotate(-0, 50.6, 194.303068)" x="50.6" y="194.303068">0.7</text>
     </g>
    </g>
    <g id="ytick_4">
     <g id="line2d_10">
      <g>
       <use style="stroke:#000000;stroke-width:0.8;" x="57.6" xlink:href="#mb12bd91995" y="144.858566"/>
      </g>
     </g>
     <g id="text_11">
      <text style="font-family:DejaVu Sans;font-size:10px;font-style:normal;font-weight:normal;text-anchor:end;" transform="rotate(-0, 50.6, 148.657785)" x="50.6" y="148.657785">0.8</text>
     </g>
    </g>
    <g id="ytick_5">
     <g id="line2d_11">
      <g>
       <use style="stroke:#000000;stroke-width:0.8;" x="57.6" xlink:href="#mb12bd91995" y="99.213283"/>
      </g>
     </g>
     <g id="text_12">
      <text style="font-family:DejaVu Sans;font-size:10px;font-style:normal;font-weight:normal;text-anchor:end;" transform="rotate(-0, 50.6, 103.012502)" x="50.6" y="103.012502">0.9</text>
     </g>
    </g>
    <g id="ytick_6">
     <g id="line2d_12">
      <g>
       <use style="stroke:#000000;stroke-width:0.8;" x="57.6" xlink:href="#mb12bd91995" y="53.568"/>
      </g>
     </g>
     <g id="text_13">
      <text style="font-family:DejaVu Sans;font-size:10px;font-style:normal;font-weight:normal;text-anchor:end;" transform="rotate(-0, 50.6, 57.367219)" x="50.6" y="57.367219">1.0</text>
     </g>
    </g>
    <g id="text_14">
     <text style="font-family:DejaVu Sans;font-size:10px;font-style:normal;font-weight:normal;text-anchor:middle;" transform="rotate(-90, 28.617187, 174.528)" x="28.617187" y="174.528">Simulated Mean / Function Value</text>
    </g>
   </g>
   <g id="line2d_13">
    <path clip-path="url(#p14efea6694)" d="M 73.832727 53.613641 
L 77.112066 58.176357 
L 80.391405 62.648749 
L 83.670744 67.033473 
L 86.950083 71.333081 
L 90.229421 75.550028 
L 93.50876 79.686675 
L 96.788099 83.745294 
L 100.067438 87.728072 
L 103.346777 91.637115 
L 106.626116 95.474452 
L 109.905455 99.242038 
L 113.184793 102.941757 
L 116.464132 106.575428 
L 119.743471 110.144803 
L 123.02281 113.651574 
L 126.302149 117.097373 
L 129.581488 120.483777 
L 132.860826 123.812308 
L 136.140165 127.084438 
L 139.419504 130.301588 
L 142.698843 133.465132 
L 145.978182 136.576398 
L 149.257521 139.636673 
L 152.53686 142.647199 
L 155.816198 145.60918 
L 159.095537 148.523781 
L 162.374876 151.392129 
L 165.654215 154.215317 
L 168.933554 156.994402 
L 172.212893 159.730411 
L 175.492231 162.424337 
L 178.77157 165.077144 
L 182.050909 167.689766 
L 185.330248 170.263109 
L 188.609587 172.798052 
L 191.888926 175.295449 
L 195.168264 177.756128 
L 198.447603 180.180892 
L 201.726942 182.570522 
L 205.006281 184.925776 
L 208.28562 187.247391 
L 211.564959 189.536082 
L 214.844298 191.792545 
L 218.123636 194.017455 
L 221.402975 196.211471 
L 224.682314 198.37523 
L 227.961653 200.509355 
L 231.240992 202.614449 
L 234.520331 204.691103 
L 237.799669 206.739887 
L 241.079008 208.76136 
L 244.358347 210.756063 
L 247.637686 212.724526 
L 250.917025 214.667262 
L 254.196364 216.584772 
L 257.475702 218.477545 
L 260.755041 220.346056 
L 264.03438 222.19077 
L 267.313719 224.012136 
L 270.593058 225.810597 
L 273.872397 227.586582 
L 277.151736 229.340508 
L 280.431074 231.072785 
L 283.710413 232.783811 
L 286.989752 234.473974 
L 290.269091 236.143655 
L 293.54843 237.793222 
L 296.827769 239.423037 
L 300.107107 241.033454 
L 303.386446 242.624815 
L 306.665785 244.197458 
L 309.945124 245.751711 
L 313.224463 247.287894 
L 316.503802 248.806321 
L 319.78314 250.307297 
L 323.062479 251.791123 
L 326.341818 253.258089 
L 329.621157 254.708483 
L 332.900496 256.142583 
L 336.179835 257.560661 
L 339.459174 258.962987 
L 342.738512 260.349819 
L 346.017851 261.721414 
L 349.29719 263.078021 
L 352.576529 264.419885 
L 355.855868 265.747244 
L 359.135207 267.060333 
L 362.414545 268.359381 
L 365.693884 269.644611 
L 368.973223 270.916243 
L 372.252562 272.174492 
L 375.531901 273.419567 
L 378.81124 274.651674 
L 382.090579 275.871016 
L 385.369917 277.077789 
L 388.649256 278.272187 
L 391.928595 279.454399 
L 395.207934 280.62461 
L 398.487273 281.783003 
" style="fill:none;stroke:#1f77b4;stroke-linecap:square;stroke-width:1.5;"/>
   </g>
   <g id="line2d_14">
    <path clip-path="url(#p14efea6694)" d="M 73.832727 53.568 
L 77.112066 59.045434 
L 80.391405 64.522868 
L 83.670744 66.348679 
L 86.950083 76.390642 
L 90.229421 73.651925 
L 93.50876 88.258415 
L 96.788099 82.780981 
L 100.067438 84.606792 
L 103.346777 90.084226 
L 106.626116 94.648755 
L 109.905455 108.34234 
L 113.184793 103.777811 
L 116.464132 107.429434 
L 119.743471 101.952 
L 123.02281 108.34234 
L 126.302149 120.210113 
L 129.581488 122.94883 
L 132.860826 131.164981 
L 136.140165 132.990792 
L 139.419504 126.600453 
L 142.698843 132.990792 
L 145.978182 144.858566 
L 149.257521 132.990792 
L 152.53686 138.468226 
L 155.816198 143.032755 
L 159.095537 144.858566 
L 162.374876 151.248906 
L 165.654215 139.381132 
L 168.933554 156.72634 
L 172.212893 166.768302 
L 175.492231 165.855396 
L 178.77157 153.074717 
L 182.050909 170.419925 
L 185.330248 165.855396 
L 188.609587 174.984453 
L 191.888926 186.852226 
L 195.168264 163.116679 
L 198.447603 187.765132 
L 201.726942 174.071547 
L 205.006281 197.807094 
L 208.28562 192.32966 
L 211.564959 189.590943 
L 214.844298 192.32966 
L 218.123636 185.939321 
L 221.402975 216.065208 
L 224.682314 198.72 
L 227.961653 201.458717 
L 231.240992 206.936151 
L 234.520331 208.761962 
L 237.799669 197.807094 
L 241.079008 208.761962 
L 244.358347 209.674868 
L 247.637686 218.803925 
L 250.917025 205.11034 
L 254.196364 224.281358 
L 257.475702 222.455547 
L 260.755041 229.758792 
L 264.03438 209.674868 
L 267.313719 226.10717 
L 270.593058 222.455547 
L 273.872397 238.887849 
L 277.151736 225.194264 
L 280.431074 230.671698 
L 283.710413 222.455547 
L 286.989752 238.887849 
L 290.269091 237.062038 
L 293.54843 251.668528 
L 296.827769 240.71366 
L 300.107107 228.845887 
L 303.386446 233.410415 
L 306.665785 258.058868 
L 309.945124 246.191094 
L 313.224463 245.278189 
L 316.503802 250.755623 
L 319.78314 231.584604 
L 323.062479 253.49434 
L 326.341818 254.407245 
L 329.621157 244.365283 
L 332.900496 276.316981 
L 336.179835 261.710491 
L 339.459174 252.581434 
L 342.738512 289.09766 
L 346.017851 265.362113 
L 349.29719 256.233057 
L 352.576529 260.797585 
L 355.855868 243.452377 
L 359.135207 260.797585 
L 362.414545 269.926642 
L 365.693884 262.623396 
L 368.973223 263.536302 
L 372.252562 272.665358 
L 375.531901 283.620226 
L 378.81124 292.749283 
L 382.090579 287.271849 
L 385.369917 274.49117 
L 388.649256 295.488 
L 391.928595 283.620226 
L 395.207934 287.271849 
L 398.487273 283.620226 
" style="fill:none;stroke:#ff7f0e;stroke-linecap:square;stroke-width:1.5;"/>
   </g>
   <g id="patch_3">
    <path d="M 57.6 307.584 
L 57.6 41.472 
" style="fill:none;stroke:#000000;stroke-linecap:square;stroke-linejoin:miter;stroke-width:0.8;"/>
   </g>
   <g id="patch_4">
    <path d="M 414.72 307.584 
L 414.72 41.472 
" style="fill:none;stroke:#000000;stroke-linecap:square;stroke-linejoin:miter;stroke-width:0.8;"/>
   </g>
   <g id="patch_5">
    <path d="M 57.6 307.584 
L 414.72 307.584 
" style="fill:none;stroke:#000000;stroke-linecap:square;stroke-linejoin:miter;stroke-width:0.8;"/>
   </g>
   <g id="patch_6">
    <path d="M 57.6 41.472 
L 414.72 41.472 
" style="fill:none;stroke:#000000;stroke-linecap:square;stroke-linejoin:miter;stroke-width:0.8;"/>
   </g>
   <g id="text_15">
    <text style="font-family:DejaVu Sans;font-size:12px;font-style:normal;font-weight:normal;" transform="translate(47.746875 22.034625)">Simulated Mean for 1/(1+x) (Two-Coin Special Case) Algorithm</text>
    <text style="font-family:DejaVu Sans;font-size:12px;font-style:normal;font-weight:normal;" transform="translate(132.609375 35.472)">(Wasserstein Distances in Legend)</text>
   </g>
   <g id="legend_1">
    <g id="patch_7">
     <path d="M 229.47 78.82825 
L 407.72 78.82825 
Q 409.72 78.82825 409.72 76.82825 
L 409.72 48.472 
Q 409.72 46.472 407.72 46.472 
L 229.47 46.472 
Q 227.47 46.472 227.47 48.472 
L 227.47 76.82825 
Q 227.47 78.82825 229.47 78.82825 
z
" style="fill:#ffffff;opacity:0.8;stroke:#cccccc;stroke-linejoin:miter;"/>
    </g>
    <g id="line2d_15">
     <path d="M 231.47 54.570437 
L 251.47 54.570437 
" style="fill:none;stroke:#1f77b4;stroke-linecap:square;stroke-width:1.5;"/>
    </g>
    <g id="line2d_16"/>
    <g id="text_16">
     <text style="font-family:DejaVu Sans;font-size:10px;font-style:normal;font-weight:normal;text-anchor:start;" transform="rotate(-0, 259.47, 58.070437)" x="259.47" y="58.070437">1/(1+x)</text>
    </g>
    <g id="line2d_17">
     <path d="M 231.47 69.248562 
L 251.47 69.248562 
" style="fill:none;stroke:#ff7f0e;stroke-linecap:square;stroke-width:1.5;"/>
    </g>
    <g id="line2d_18"/>
    <g id="text_17">
     <text style="font-family:DejaVu Sans;font-size:10px;font-style:normal;font-weight:normal;text-anchor:start;" transform="rotate(-0, 259.47, 72.748562)" x="259.47" y="72.748562">Simul. Mean (WD=0.005769)</text>
    </g>
   </g>
  </g>
 </g>
 <defs>
  <clipPath id="p14efea6694">
   <rect height="266.112" width="357.12" x="57.6" y="41.472"/>
  </clipPath>
 </defs>
</svg>
