<?xml version="1.0" encoding="utf-8" standalone="no"?>
<!DOCTYPE svg PUBLIC "-//W3C//DTD SVG 1.1//EN"
  "http://www.w3.org/Graphics/SVG/1.1/DTD/svg11.dtd">
<!-- Created with matplotlib (https://matplotlib.org/) -->
<svg height="252pt" version="1.1" viewBox="0 0 324 252" width="324pt" xmlns="http://www.w3.org/2000/svg" xmlns:xlink="http://www.w3.org/1999/xlink">
 <defs>
  <style type="text/css">
*{stroke-linecap:butt;stroke-linejoin:round;}
  </style>
 </defs>
 <g id="figure_1">
  <g id="patch_1">
   <path d="M 0 252 
L 324 252 
L 324 0 
L 0 0 
z
" style="fill:#ffffff;"/>
  </g>
  <g id="axes_1">
   <g id="patch_2">
    <path d="M 40.5 224.28 
L 291.6 224.28 
L 291.6 30.24 
L 40.5 30.24 
z
" style="fill:#ffffff;"/>
   </g>
   <g id="matplotlib.axis_1">
    <g id="xtick_1">
     <g id="line2d_1">
      <defs>
       <path d="M 0 0 
L 0 3.5 
" id="ma8a97a329b" style="stroke:#000000;stroke-width:0.8;"/>
      </defs>
      <g>
       <use style="stroke:#000000;stroke-width:0.8;" x="51.890784" xlink:href="#ma8a97a329b" y="224.28"/>
      </g>
     </g>
     <g id="text_1">
      <text style="font-family:DejaVu Sans;font-size:10px;font-style:normal;font-weight:normal;text-anchor:middle;" transform="rotate(-0, 51.890784, 238.878438)" x="51.890784" y="238.878438">0.0</text>
     </g>
    </g>
    <g id="xtick_2">
     <g id="line2d_2">
      <g>
       <use style="stroke:#000000;stroke-width:0.8;" x="97.595605" xlink:href="#ma8a97a329b" y="224.28"/>
      </g>
     </g>
     <g id="text_2">
      <text style="font-family:DejaVu Sans;font-size:10px;font-style:normal;font-weight:normal;text-anchor:middle;" transform="rotate(-0, 97.595605, 238.878438)" x="97.595605" y="238.878438">0.2</text>
     </g>
    </g>
    <g id="xtick_3">
     <g id="line2d_3">
      <g>
       <use style="stroke:#000000;stroke-width:0.8;" x="143.300425" xlink:href="#ma8a97a329b" y="224.28"/>
      </g>
     </g>
     <g id="text_3">
      <text style="font-family:DejaVu Sans;font-size:10px;font-style:normal;font-weight:normal;text-anchor:middle;" transform="rotate(-0, 143.300425, 238.878438)" x="143.300425" y="238.878438">0.4</text>
     </g>
    </g>
    <g id="xtick_4">
     <g id="line2d_4">
      <g>
       <use style="stroke:#000000;stroke-width:0.8;" x="189.005246" xlink:href="#ma8a97a329b" y="224.28"/>
      </g>
     </g>
     <g id="text_4">
      <text style="font-family:DejaVu Sans;font-size:10px;font-style:normal;font-weight:normal;text-anchor:middle;" transform="rotate(-0, 189.005246, 238.878438)" x="189.005246" y="238.878438">0.6</text>
     </g>
    </g>
    <g id="xtick_5">
     <g id="line2d_5">
      <g>
       <use style="stroke:#000000;stroke-width:0.8;" x="234.710067" xlink:href="#ma8a97a329b" y="224.28"/>
      </g>
     </g>
     <g id="text_5">
      <text style="font-family:DejaVu Sans;font-size:10px;font-style:normal;font-weight:normal;text-anchor:middle;" transform="rotate(-0, 234.710067, 238.878438)" x="234.710067" y="238.878438">0.8</text>
     </g>
    </g>
    <g id="xtick_6">
     <g id="line2d_6">
      <g>
       <use style="stroke:#000000;stroke-width:0.8;" x="280.414888" xlink:href="#ma8a97a329b" y="224.28"/>
      </g>
     </g>
     <g id="text_6">
      <text style="font-family:DejaVu Sans;font-size:10px;font-style:normal;font-weight:normal;text-anchor:middle;" transform="rotate(-0, 280.414888, 238.878438)" x="280.414888" y="238.878438">1.0</text>
     </g>
    </g>
    <g id="text_7">
     <text style="font-family:DejaVu Sans;font-size:10px;font-style:normal;font-weight:normal;text-anchor:middle;" transform="rotate(-0, 166.05, 252.556563)" x="166.05" y="252.556563">Input Coin's Heads Probability (λ)</text>
    </g>
   </g>
   <g id="matplotlib.axis_2">
    <g id="ytick_1">
     <g id="line2d_7">
      <defs>
       <path d="M 0 0 
L -3.5 0 
" id="m34459dfaa7" style="stroke:#000000;stroke-width:0.8;"/>
      </defs>
      <g>
       <use style="stroke:#000000;stroke-width:0.8;" x="40.5" xlink:href="#m34459dfaa7" y="210.655331"/>
      </g>
     </g>
     <g id="text_8">
      <text style="font-family:DejaVu Sans;font-size:10px;font-style:normal;font-weight:normal;text-anchor:end;" transform="rotate(-0, 33.5, 214.454549)" x="33.5" y="214.454549">0.5</text>
     </g>
    </g>
    <g id="ytick_2">
     <g id="line2d_8">
      <g>
       <use style="stroke:#000000;stroke-width:0.8;" x="40.5" xlink:href="#m34459dfaa7" y="176.336265"/>
      </g>
     </g>
     <g id="text_9">
      <text style="font-family:DejaVu Sans;font-size:10px;font-style:normal;font-weight:normal;text-anchor:end;" transform="rotate(-0, 33.5, 180.135483)" x="33.5" y="180.135483">0.6</text>
     </g>
    </g>
    <g id="ytick_3">
     <g id="line2d_9">
      <g>
       <use style="stroke:#000000;stroke-width:0.8;" x="40.5" xlink:href="#m34459dfaa7" y="142.017198"/>
      </g>
     </g>
     <g id="text_10">
      <text style="font-family:DejaVu Sans;font-size:10px;font-style:normal;font-weight:normal;text-anchor:end;" transform="rotate(-0, 33.5, 145.816417)" x="33.5" y="145.816417">0.7</text>
     </g>
    </g>
    <g id="ytick_4">
     <g id="line2d_10">
      <g>
       <use style="stroke:#000000;stroke-width:0.8;" x="40.5" xlink:href="#m34459dfaa7" y="107.698132"/>
      </g>
     </g>
     <g id="text_11">
      <text style="font-family:DejaVu Sans;font-size:10px;font-style:normal;font-weight:normal;text-anchor:end;" transform="rotate(-0, 33.5, 111.497351)" x="33.5" y="111.497351">0.8</text>
     </g>
    </g>
    <g id="ytick_5">
     <g id="line2d_11">
      <g>
       <use style="stroke:#000000;stroke-width:0.8;" x="40.5" xlink:href="#m34459dfaa7" y="73.379066"/>
      </g>
     </g>
     <g id="text_12">
      <text style="font-family:DejaVu Sans;font-size:10px;font-style:normal;font-weight:normal;text-anchor:end;" transform="rotate(-0, 33.5, 77.178285)" x="33.5" y="77.178285">0.9</text>
     </g>
    </g>
    <g id="ytick_6">
     <g id="line2d_12">
      <g>
       <use style="stroke:#000000;stroke-width:0.8;" x="40.5" xlink:href="#m34459dfaa7" y="39.06"/>
      </g>
     </g>
     <g id="text_13">
      <text style="font-family:DejaVu Sans;font-size:10px;font-style:normal;font-weight:normal;text-anchor:end;" transform="rotate(-0, 33.5, 42.859219)" x="33.5" y="42.859219">1.0</text>
     </g>
    </g>
    <g id="text_14">
     <text style="font-family:DejaVu Sans;font-size:10px;font-style:normal;font-weight:normal;text-anchor:middle;" transform="rotate(-90, 11.517187, 127.26)" x="11.517187" y="127.26">Simulated Mean / Function Value</text>
    </g>
   </g>
   <g id="line2d_13">
    <path clip-path="url(#p1acf192806)" d="M 52.119308 39.402848 
L 54.423016 42.821153 
L 56.726723 46.171968 
L 59.030431 49.457272 
L 61.334139 52.678968 
L 63.637846 55.838884 
L 65.941554 58.938782 
L 68.245261 61.980355 
L 70.548969 64.965233 
L 72.852677 67.894989 
L 75.156384 70.771133 
L 77.460092 73.595125 
L 79.7638 76.36837 
L 82.067507 79.092225 
L 84.371215 81.767996 
L 86.674923 84.396946 
L 88.97863 86.980293 
L 91.282338 89.519214 
L 93.586045 92.014844 
L 95.889753 94.468282 
L 98.193461 96.880589 
L 100.497168 99.25279 
L 102.800876 101.585877 
L 105.104584 103.88081 
L 107.408291 106.138517 
L 109.711999 108.359897 
L 112.015706 110.545819 
L 114.319414 112.697125 
L 116.623122 114.814632 
L 118.926829 116.89913 
L 121.230537 118.951384 
L 123.534245 120.972137 
L 125.837952 122.962109 
L 128.14166 124.921998 
L 130.445368 126.85248 
L 132.749075 128.754213 
L 135.052783 130.627834 
L 137.35649 132.473962 
L 139.660198 134.293198 
L 141.963906 136.086125 
L 144.267613 137.853309 
L 146.571321 139.595302 
L 148.875029 141.312637 
L 151.178736 143.005835 
L 153.482444 144.675402 
L 155.786152 146.321827 
L 158.089859 147.94559 
L 160.393567 149.547155 
L 162.697274 151.126974 
L 165.000982 152.685486 
L 167.30469 154.223121 
L 169.608397 155.740295 
L 171.912105 157.237413 
L 174.215813 158.71487 
L 176.51952 160.173052 
L 178.823228 161.612334 
L 181.126935 163.033079 
L 183.430643 164.435644 
L 185.734351 165.820376 
L 188.038058 167.187613 
L 190.341766 168.537684 
L 192.645474 169.87091 
L 194.949181 171.187605 
L 197.252889 172.488075 
L 199.556597 173.772616 
L 201.860304 175.041521 
L 204.164012 176.295073 
L 206.467719 177.53355 
L 208.771427 178.75722 
L 211.075135 179.966349 
L 213.378842 181.161193 
L 215.68255 182.342005 
L 217.986258 183.509031 
L 220.289965 184.66251 
L 222.593673 185.802676 
L 224.89738 186.92976 
L 227.201088 188.043985 
L 229.504796 189.145569 
L 231.808503 190.234727 
L 234.112211 191.311668 
L 236.415919 192.376596 
L 238.719626 193.42971 
L 241.023334 194.471208 
L 243.327042 195.501279 
L 245.630749 196.52011 
L 247.934457 197.527885 
L 250.238164 198.524783 
L 252.541872 199.510979 
L 254.84558 200.486644 
L 257.149287 201.451946 
L 259.452995 202.407049 
L 261.756703 203.352114 
L 264.06041 204.287298 
L 266.364118 205.212756 
L 268.667825 206.128639 
L 270.971533 207.035094 
L 273.275241 207.932266 
L 275.578948 208.820297 
L 277.882656 209.699327 
L 280.186364 210.56949 
" style="fill:none;stroke:#1f77b4;stroke-linecap:square;stroke-width:1.5;"/>
   </g>
   <g id="line2d_14">
    <path clip-path="url(#p1acf192806)" d="M 51.913636 39.06 
L 54.221499 45.237432 
L 56.529362 43.864669 
L 58.837224 50.728482 
L 61.145087 55.533152 
L 63.452949 51.414864 
L 65.760812 54.84677 
L 68.068675 60.337821 
L 70.376537 71.319922 
L 72.6844 72.006304 
L 74.992263 77.497354 
L 77.300125 69.94716 
L 79.607988 75.43821 
L 81.91585 74.751829 
L 84.223713 75.43821 
L 86.531576 80.242879 
L 88.839438 88.479455 
L 91.147301 84.361167 
L 93.455163 91.911362 
L 95.763026 99.461556 
L 98.070889 88.479455 
L 100.378751 98.088794 
L 102.686614 105.638988 
L 104.994477 102.893463 
L 107.302339 112.502802 
L 109.610202 103.579844 
L 111.918064 113.189183 
L 114.225927 115.934708 
L 116.53379 114.561946 
L 118.841652 111.81642 
L 121.149515 126.916809 
L 123.457377 118.680233 
L 125.76524 128.975953 
L 128.073103 122.11214 
L 130.380965 131.035097 
L 132.688828 133.094241 
L 134.996691 147.508249 
L 137.304553 127.603191 
L 139.612416 142.017198 
L 141.920278 130.348716 
L 144.228141 131.721479 
L 146.536004 142.70358 
L 148.843866 139.271673 
L 151.151729 146.135486 
L 153.459591 137.898911 
L 155.767454 148.881012 
L 158.075317 153.685681 
L 160.383179 153.685681 
L 162.691042 148.881012 
L 164.998905 145.449105 
L 167.306767 162.608638 
L 169.61463 161.922257 
L 171.922492 160.549494 
L 174.230355 154.372062 
L 176.538218 159.176732 
L 178.84608 174.963502 
L 181.153943 161.922257 
L 183.461805 167.413307 
L 185.769668 178.395409 
L 188.077531 166.040545 
L 190.385393 170.158833 
L 192.693256 161.235875 
L 195.001119 181.140934 
L 197.308981 186.631984 
L 199.616844 172.217977 
L 201.924706 166.726926 
L 204.232569 173.590739 
L 206.540432 183.200078 
L 208.848294 185.259222 
L 211.156157 178.395409 
L 213.464019 177.709027 
L 215.771882 185.945603 
L 218.079745 164.667782 
L 220.387607 183.886459 
L 222.69547 185.259222 
L 225.003333 186.631984 
L 227.311195 192.809416 
L 229.619058 206.537043 
L 231.92692 203.105136 
L 234.234783 206.537043 
L 236.542646 195.554942 
L 238.850508 187.318366 
L 241.158371 190.750272 
L 243.466233 197.614086 
L 245.774096 193.495798 
L 248.081959 215.46 
L 250.389821 201.045992 
L 252.697684 198.986848 
L 255.005547 194.86856 
L 257.313409 198.300467 
L 259.621272 198.986848 
L 261.929134 196.927704 
L 264.236997 201.045992 
L 266.54486 210.655331 
L 268.852722 205.16428 
L 271.160585 198.300467 
L 273.468447 208.596187 
L 275.77631 205.16428 
L 278.084173 210.655331 
" style="fill:none;stroke:#ff7f0e;stroke-linecap:square;stroke-width:1.5;"/>
   </g>
   <g id="patch_3">
    <path d="M 40.5 224.28 
L 40.5 30.24 
" style="fill:none;stroke:#000000;stroke-linecap:square;stroke-linejoin:miter;stroke-width:0.8;"/>
   </g>
   <g id="patch_4">
    <path d="M 291.6 224.28 
L 291.6 30.24 
" style="fill:none;stroke:#000000;stroke-linecap:square;stroke-linejoin:miter;stroke-width:0.8;"/>
   </g>
   <g id="patch_5">
    <path d="M 40.5 224.28 
L 291.6 224.28 
" style="fill:none;stroke:#000000;stroke-linecap:square;stroke-linejoin:miter;stroke-width:0.8;"/>
   </g>
   <g id="patch_6">
    <path d="M 40.5 30.24 
L 291.6 30.24 
" style="fill:none;stroke:#000000;stroke-linecap:square;stroke-linejoin:miter;stroke-width:0.8;"/>
   </g>
   <g id="text_15">
    <text style="font-family:DejaVu Sans;font-size:12px;font-style:normal;font-weight:normal;text-anchor:middle;" transform="rotate(-0, 166.05, 24.24)" x="166.05" y="24.24">Expected Value in 1/(1+x) (Even Parity) Algorithm</text>
   </g>
   <g id="legend_1">
    <g id="patch_7">
     <path d="M 50.128125 67.59625 
L 284.6 67.59625 
Q 286.6 67.59625 286.6 65.59625 
L 286.6 37.24 
Q 286.6 35.24 284.6 35.24 
L 50.128125 35.24 
Q 48.128125 35.24 48.128125 37.24 
L 48.128125 65.59625 
Q 48.128125 67.59625 50.128125 67.59625 
z
" style="fill:#ffffff;opacity:0.8;stroke:#cccccc;stroke-linejoin:miter;"/>
    </g>
    <g id="line2d_15">
     <path d="M 52.128125 43.338438 
L 72.128125 43.338438 
" style="fill:none;stroke:#1f77b4;stroke-linecap:square;stroke-width:1.5;"/>
    </g>
    <g id="line2d_16"/>
    <g id="text_16">
     <text style="font-family:DejaVu Sans;font-size:10px;font-style:normal;font-weight:normal;text-anchor:start;" transform="rotate(-0, 80.128125, 46.838438)" x="80.128125" y="46.838438">1/(1+x)</text>
    </g>
    <g id="line2d_17">
     <path d="M 52.128125 58.016563 
L 72.128125 58.016563 
" style="fill:none;stroke:#ff7f0e;stroke-linecap:square;stroke-width:1.5;"/>
    </g>
    <g id="line2d_18"/>
    <g id="text_17">
     <text style="font-family:DejaVu Sans;font-size:10px;font-style:normal;font-weight:normal;text-anchor:start;" transform="rotate(-0, 80.128125, 61.516563)" x="80.128125" y="61.516563">Simulated Mean of 1/(1+x) (Even Parity)</text>
    </g>
   </g>
  </g>
 </g>
 <defs>
  <clipPath id="p1acf192806">
   <rect height="194.04" width="251.1" x="40.5" y="30.24"/>
  </clipPath>
 </defs>
</svg>
