<svg height="460.8" viewBox="0 0 460.8 345.6" width="614.4" xmlns="http://www.w3.org/2000/svg" xmlns:xlink="http://www.w3.org/1999/xlink"><defs><style>*{stroke-linecap:butt;stroke-linejoin:round}</style></defs><g id="figure_1"><path d="M0 345.6h460.8V0H0z" fill="#fff" id="patch_1"/><g id="axes_1"><path d="M57.6 307.584h357.12V41.472H57.6z" fill="#fff" id="patch_2"/><g id="matplotlib.axis_1"><g id="xtick_1"><g id="line2d_1"><defs><path d="M0 0v3.5" id="m48e27848fd" stroke="#000" stroke-width=".8"/></defs><use x="73.8" xlink:href="#m48e27848fd" y="307.584" stroke="#000" stroke-width=".8"/></g><text x="73.8" y="322.182" font-family="DejaVu Sans" font-size="10" font-weight="400" text-anchor="middle" id="text_1">0.0</text></g><g id="xtick_2"><use x="138.744" xlink:href="#m48e27848fd" y="307.584" stroke="#000" stroke-width=".8" id="line2d_2"/><text x="138.744" y="322.182" font-family="DejaVu Sans" font-size="10" font-weight="400" text-anchor="middle" id="text_2">0.2</text></g><g id="xtick_3"><use x="203.688" xlink:href="#m48e27848fd" y="307.584" stroke="#000" stroke-width=".8" id="line2d_3"/><text x="203.688" y="322.182" font-family="DejaVu Sans" font-size="10" font-weight="400" text-anchor="middle" id="text_3">0.4</text></g><g id="xtick_4"><use x="268.632" xlink:href="#m48e27848fd" y="307.584" stroke="#000" stroke-width=".8" id="line2d_4"/><text x="268.632" y="322.182" font-family="DejaVu Sans" font-size="10" font-weight="400" text-anchor="middle" id="text_4">0.6</text></g><g id="xtick_5"><use x="333.576" xlink:href="#m48e27848fd" y="307.584" stroke="#000" stroke-width=".8" id="line2d_5"/><text x="333.576" y="322.182" font-family="DejaVu Sans" font-size="10" font-weight="400" text-anchor="middle" id="text_5">0.8</text></g><g id="xtick_6"><use x="398.52" xlink:href="#m48e27848fd" y="307.584" stroke="#000" stroke-width=".8" id="line2d_6"/><text x="398.52" y="322.182" font-family="DejaVu Sans" font-size="10" font-weight="400" text-anchor="middle" id="text_6">1.0</text></g><text x="236.16" y="335.861" font-family="DejaVu Sans" font-size="10" font-weight="400" text-anchor="middle" id="text_7">Input Coin&apos;s Heads Probability (λ)</text></g><g id="matplotlib.axis_2"><g id="ytick_1"><g id="line2d_7"><defs><path d="M0 0h-3.5" id="mfd3b67a862" stroke="#000" stroke-width=".8"/></defs><use x="57.6" xlink:href="#mfd3b67a862" y="295.494" stroke="#000" stroke-width=".8"/></g><text x="50.6" y="299.293" font-family="DejaVu Sans" font-size="10" font-weight="400" text-anchor="end" id="text_8">0.0</text></g><g id="ytick_2"><use x="57.6" xlink:href="#mfd3b67a862" y="249.933" stroke="#000" stroke-width=".8" id="line2d_8"/><text x="50.6" y="253.733" font-family="DejaVu Sans" font-size="10" font-weight="400" text-anchor="end" id="text_9">0.2</text></g><g id="ytick_3"><use x="57.6" xlink:href="#mfd3b67a862" y="204.373" stroke="#000" stroke-width=".8" id="line2d_9"/><text x="50.6" y="208.172" font-family="DejaVu Sans" font-size="10" font-weight="400" text-anchor="end" id="text_10">0.4</text></g><g id="ytick_4"><use x="57.6" xlink:href="#mfd3b67a862" y="158.813" stroke="#000" stroke-width=".8" id="line2d_10"/><text x="50.6" y="162.612" font-family="DejaVu Sans" font-size="10" font-weight="400" text-anchor="end" id="text_11">0.6</text></g><g id="ytick_5"><use x="57.6" xlink:href="#mfd3b67a862" y="113.252" stroke="#000" stroke-width=".8" id="line2d_11"/><text x="50.6" y="117.051" font-family="DejaVu Sans" font-size="10" font-weight="400" text-anchor="end" id="text_12">0.8</text></g><g id="ytick_6"><use x="57.6" xlink:href="#mfd3b67a862" y="67.692" stroke="#000" stroke-width=".8" id="line2d_12"/><text x="50.6" y="71.491" font-family="DejaVu Sans" font-size="10" font-weight="400" text-anchor="end" id="text_13">1.0</text></g><text transform="rotate(-90 28.617 174.528)" x="28.617" y="174.528" font-family="DejaVu Sans" font-size="10" font-weight="400" text-anchor="middle" id="text_14">Coin Flips Needed</text></g><path clip-path="url(#p96cf160217)" d="M73.833 67.76l3.28 6.785 3.278 6.562 3.28 6.349 3.28 6.144 3.278 5.947 3.28 5.758 3.28 5.577 3.278 5.403 3.28 5.235 3.28 5.074 3.278 4.92 3.28 4.77 3.28 4.627 3.278 4.489 3.28 4.355 3.28 4.228 3.278 4.104 3.28 3.985 3.28 3.87 3.279 3.76 3.279 3.653 3.28 3.55 3.279 3.45 3.279 3.355 3.28 3.262 3.279 3.172 3.279 3.085 3.28 3.002 3.279 2.92 3.279 2.843 3.28 2.766 3.279 2.694 3.279 2.622 3.28 2.554 3.279 2.488 3.279 2.423 3.28 2.361 3.279 2.3 3.279 2.243 3.28 2.185 3.279 2.13 3.279 2.078 3.28 2.025 3.279 1.976 3.279 1.926 3.28 1.88 3.279 1.833 3.279 1.79 3.28 1.746 3.279 1.704 3.279 1.663 3.28 1.624 3.279 1.586 3.279 1.548 3.28 1.512 3.279 1.476 3.279 1.443 3.28 1.409 3.279 1.376 3.28 1.345 3.278 1.314 3.28 1.285 3.28 1.255 3.278 1.227 3.28 1.2 3.28 1.173 3.278 1.146 3.28 1.121 3.28 1.097 3.278 1.072 3.28 1.05 3.28 1.025 3.278 1.004 3.28.982 3.28.96 3.278.94 3.28.92 3.28.9 3.278.882 3.28.862 3.28.844 3.279.827 3.279.809 3.28.792 3.279.775 3.279.76 3.28.744 3.279.728 3.279.713 3.28.699 3.279.684 3.279.67 3.28.657 3.279.644 3.279.63 3.28.618 3.279.605 3.279.593 3.28.581" fill="none" stroke="#1f77b4" stroke-linecap="square" stroke-width="1.5" id="line2d_13"/><path clip-path="url(#p96cf160217)" d="M73.833 68.603l3.28 6.834 3.278-8.656 3.28-13.213 3.28 27.792 3.278-4.1 3.28-2.734 3.28 8.2 3.278-.455 3.28-.456 3.28 31.893 3.278-11.39 3.28 10.934 3.28-18.68 3.278 22.325 3.28-4.556 3.28-21.413 3.278 6.834 3.28 18.68 3.28-.456 3.279-9.112 3.279-20.958 3.28 21.869 3.279 3.19 3.279 12.756 3.28-7.745 3.279-.456 3.279 5.012 3.28-2.734 3.279 4.1 3.279-8.2 3.28 18.68 3.279.455 3.279 5.923 3.28-19.591 3.279 10.023 3.279 6.834 3.28-19.59 3.279 20.502 3.279-17.313 3.28 18.224 3.279 12.757 3.279-16.402 3.28-11.846 3.279 31.892 3.279-6.378 3.28-30.525 3.279 38.27 3.279.911 3.28-23.235L237.8 145.6l3.279 5.467 3.28-8.656 3.279 4.556 3.279 1.367 3.28 6.378 3.279-25.514 3.279 18.224 3.28 13.213 3.279-3.19 3.28-3.644h3.278l3.28 9.568 3.28-14.58 3.278.456 3.28 10.023 3.28-1.367 3.278 4.1 3.28-2.733 3.28 2.734 3.278 1.367 3.28 1.366h3.28l3.278-7.29 3.28 6.38 3.28 10.478 3.278-13.212 3.28 8.2 3.28 8.201 3.278 5.012 3.28-22.325 3.28 15.49 3.279-20.957 3.279 26.425 3.28-9.112 3.279 2.278 3.279-3.19 3.28-.455 3.279 10.024 3.279-7.29 3.28-.911 3.279-5.923 3.279 7.29 3.28-3.19 3.279.911h3.279l3.28 15.491 3.279-8.657h3.279l3.28 4.557" fill="none" stroke="#ff7f0e" stroke-linecap="square" stroke-width="1.5" id="line2d_14"/><path d="M57.6 307.584V41.472" fill="none" stroke="#000" stroke-linecap="square" stroke-width=".8" id="patch_3"/><path d="M414.72 307.584V41.472" fill="none" stroke="#000" stroke-linecap="square" stroke-width=".8" id="patch_4"/><path d="M57.6 307.584h357.12" fill="none" stroke="#000" stroke-linecap="square" stroke-width=".8" id="patch_5"/><path d="M57.6 41.472h357.12" fill="none" stroke="#000" stroke-linecap="square" stroke-width=".8" id="patch_6"/><text x="236.16" y="35.472" font-family="DejaVu Sans" font-size="12" font-weight="400" text-anchor="middle" id="text_15">Coin Flips for 1/(1+x)</text><g id="legend_1"><path d="M119.748 78.828H407.72q2 0 2-2V48.472q0-2-2-2H119.748q-2 0-2 2v28.356q0 2 2 2z" fill="#fff" opacity=".8" stroke="#ccc" id="patch_7"/><path d="M121.748 54.57h20" fill="none" stroke="#1f77b4" stroke-linecap="square" stroke-width="1.5" id="line2d_15"/><text x="149.748" y="58.07" font-family="DejaVu Sans" font-size="10" font-weight="400" id="text_16">Coin Flip Lower Bound</text><path d="M121.748 69.249h20" fill="none" stroke="#ff7f0e" stroke-linecap="square" stroke-width="1.5" id="line2d_17"/><text x="149.748" y="72.749" font-family="DejaVu Sans" font-size="10" font-weight="400" id="text_17">Avg. Coins Flipped 1/(1+x) (Two-Coin Special Case)</text></g></g></g><defs><clipPath id="p96cf160217"><path d="M57.6 41.472h357.12v266.112H57.6z"/></clipPath></defs></svg>