<?xml version="1.0" encoding="utf-8" standalone="no"?>
<!DOCTYPE svg PUBLIC "-//W3C//DTD SVG 1.1//EN"
  "http://www.w3.org/Graphics/SVG/1.1/DTD/svg11.dtd">
<!-- Created with matplotlib (https://matplotlib.org/) -->
<svg height="252pt" version="1.1" viewBox="0 0 324 252" width="324pt" xmlns="http://www.w3.org/2000/svg" xmlns:xlink="http://www.w3.org/1999/xlink">
 <defs>
  <style type="text/css">
*{stroke-linecap:butt;stroke-linejoin:round;}
  </style>
 </defs>
 <g id="figure_1">
  <g id="patch_1">
   <path d="M 0 252 
L 324 252 
L 324 0 
L 0 0 
z
" style="fill:#ffffff;"/>
  </g>
  <g id="axes_1">
   <g id="patch_2">
    <path d="M 40.5 224.28 
L 291.6 224.28 
L 291.6 30.24 
L 40.5 30.24 
z
" style="fill:#ffffff;"/>
   </g>
   <g id="matplotlib.axis_1">
    <g id="xtick_1">
     <g id="line2d_1">
      <defs>
       <path d="M 0 0 
L 0 3.5 
" id="mb0316153a1" style="stroke:#000000;stroke-width:0.8;"/>
      </defs>
      <g>
       <use style="stroke:#000000;stroke-width:0.8;" x="51.890805" xlink:href="#mb0316153a1" y="224.28"/>
      </g>
     </g>
     <g id="text_1">
      <text style="font-family:DejaVu Sans;font-size:10px;font-style:normal;font-weight:normal;text-anchor:middle;" transform="rotate(-0, 51.890805, 238.878438)" x="51.890805" y="238.878438">0.0</text>
     </g>
    </g>
    <g id="xtick_2">
     <g id="line2d_2">
      <g>
       <use style="stroke:#000000;stroke-width:0.8;" x="97.554483" xlink:href="#mb0316153a1" y="224.28"/>
      </g>
     </g>
     <g id="text_2">
      <text style="font-family:DejaVu Sans;font-size:10px;font-style:normal;font-weight:normal;text-anchor:middle;" transform="rotate(-0, 97.554483, 238.878438)" x="97.554483" y="238.878438">0.2</text>
     </g>
    </g>
    <g id="xtick_3">
     <g id="line2d_3">
      <g>
       <use style="stroke:#000000;stroke-width:0.8;" x="143.218161" xlink:href="#mb0316153a1" y="224.28"/>
      </g>
     </g>
     <g id="text_3">
      <text style="font-family:DejaVu Sans;font-size:10px;font-style:normal;font-weight:normal;text-anchor:middle;" transform="rotate(-0, 143.218161, 238.878438)" x="143.218161" y="238.878438">0.4</text>
     </g>
    </g>
    <g id="xtick_4">
     <g id="line2d_4">
      <g>
       <use style="stroke:#000000;stroke-width:0.8;" x="188.881839" xlink:href="#mb0316153a1" y="224.28"/>
      </g>
     </g>
     <g id="text_4">
      <text style="font-family:DejaVu Sans;font-size:10px;font-style:normal;font-weight:normal;text-anchor:middle;" transform="rotate(-0, 188.881839, 238.878438)" x="188.881839" y="238.878438">0.6</text>
     </g>
    </g>
    <g id="xtick_5">
     <g id="line2d_5">
      <g>
       <use style="stroke:#000000;stroke-width:0.8;" x="234.545517" xlink:href="#mb0316153a1" y="224.28"/>
      </g>
     </g>
     <g id="text_5">
      <text style="font-family:DejaVu Sans;font-size:10px;font-style:normal;font-weight:normal;text-anchor:middle;" transform="rotate(-0, 234.545517, 238.878438)" x="234.545517" y="238.878438">0.8</text>
     </g>
    </g>
    <g id="xtick_6">
     <g id="line2d_6">
      <g>
       <use style="stroke:#000000;stroke-width:0.8;" x="280.209195" xlink:href="#mb0316153a1" y="224.28"/>
      </g>
     </g>
     <g id="text_6">
      <text style="font-family:DejaVu Sans;font-size:10px;font-style:normal;font-weight:normal;text-anchor:middle;" transform="rotate(-0, 280.209195, 238.878438)" x="280.209195" y="238.878438">1.0</text>
     </g>
    </g>
    <g id="text_7">
     <text style="font-family:DejaVu Sans;font-size:10px;font-style:normal;font-weight:normal;text-anchor:middle;" transform="rotate(-0, 166.05, 252.556563)" x="166.05" y="252.556563">Input Coin's Heads Probability (λ)</text>
    </g>
   </g>
   <g id="matplotlib.axis_2">
    <g id="ytick_1">
     <g id="line2d_7">
      <defs>
       <path d="M 0 0 
L -3.5 0 
" id="mb3f804faad" style="stroke:#000000;stroke-width:0.8;"/>
      </defs>
      <g>
       <use style="stroke:#000000;stroke-width:0.8;" x="40.5" xlink:href="#mb3f804faad" y="215.460047"/>
      </g>
     </g>
     <g id="text_8">
      <text style="font-family:DejaVu Sans;font-size:10px;font-style:normal;font-weight:normal;text-anchor:end;" transform="rotate(-0, 33.5, 219.259266)" x="33.5" y="219.259266">0</text>
     </g>
    </g>
    <g id="ytick_2">
     <g id="line2d_8">
      <g>
       <use style="stroke:#000000;stroke-width:0.8;" x="40.5" xlink:href="#mb3f804faad" y="177.618141"/>
      </g>
     </g>
     <g id="text_9">
      <text style="font-family:DejaVu Sans;font-size:10px;font-style:normal;font-weight:normal;text-anchor:end;" transform="rotate(-0, 33.5, 181.41736)" x="33.5" y="181.41736">20</text>
     </g>
    </g>
    <g id="ytick_3">
     <g id="line2d_9">
      <g>
       <use style="stroke:#000000;stroke-width:0.8;" x="40.5" xlink:href="#mb3f804faad" y="139.776234"/>
      </g>
     </g>
     <g id="text_10">
      <text style="font-family:DejaVu Sans;font-size:10px;font-style:normal;font-weight:normal;text-anchor:end;" transform="rotate(-0, 33.5, 143.575453)" x="33.5" y="143.575453">40</text>
     </g>
    </g>
    <g id="ytick_4">
     <g id="line2d_10">
      <g>
       <use style="stroke:#000000;stroke-width:0.8;" x="40.5" xlink:href="#mb3f804faad" y="101.934328"/>
      </g>
     </g>
     <g id="text_11">
      <text style="font-family:DejaVu Sans;font-size:10px;font-style:normal;font-weight:normal;text-anchor:end;" transform="rotate(-0, 33.5, 105.733546)" x="33.5" y="105.733546">60</text>
     </g>
    </g>
    <g id="ytick_5">
     <g id="line2d_11">
      <g>
       <use style="stroke:#000000;stroke-width:0.8;" x="40.5" xlink:href="#mb3f804faad" y="64.092421"/>
      </g>
     </g>
     <g id="text_12">
      <text style="font-family:DejaVu Sans;font-size:10px;font-style:normal;font-weight:normal;text-anchor:end;" transform="rotate(-0, 33.5, 67.89164)" x="33.5" y="67.89164">80</text>
     </g>
    </g>
    <g id="text_13">
     <text style="font-family:DejaVu Sans;font-size:10px;font-style:normal;font-weight:normal;text-anchor:middle;" transform="rotate(-90, 14.695312, 127.26)" x="14.695312" y="127.26">Coin Flips Needed</text>
    </g>
   </g>
   <g id="line2d_12">
    <path clip-path="url(#pe9674a52ab)" d="M 51.913636 213.568519 
L 54.219421 213.624874 
L 56.525207 213.679379 
L 58.830992 213.732111 
L 61.136777 213.78314 
L 63.442562 213.832536 
L 65.748347 213.880364 
L 68.054132 213.926686 
L 70.359917 213.97156 
L 72.665702 214.015044 
L 74.971488 214.057189 
L 77.277273 214.098049 
L 79.583058 214.13767 
L 81.888843 214.1761 
L 84.194628 214.213383 
L 86.500413 214.249562 
L 88.806198 214.284676 
L 91.111983 214.318765 
L 93.417769 214.351866 
L 95.723554 214.384013 
L 98.029339 214.415241 
L 100.335124 214.445582 
L 102.640909 214.475067 
L 104.946694 214.503725 
L 107.252479 214.531586 
L 109.558264 214.558677 
L 111.86405 214.585022 
L 114.169835 214.610649 
L 116.47562 214.63558 
L 118.781405 214.659839 
L 121.08719 214.683448 
L 123.392975 214.706428 
L 125.69876 214.7288 
L 128.004545 214.750583 
L 130.310331 214.771796 
L 132.616116 214.792457 
L 134.921901 214.812584 
L 137.227686 214.832193 
L 139.533471 214.851302 
L 141.839256 214.869924 
L 144.145041 214.888075 
L 146.450826 214.90577 
L 148.756612 214.923023 
L 151.062397 214.939846 
L 153.368182 214.956253 
L 155.673967 214.972256 
L 157.979752 214.987867 
L 160.285537 215.003097 
L 162.591322 215.017959 
L 164.897107 215.032461 
L 167.202893 215.046616 
L 169.508678 215.060433 
L 171.814463 215.073921 
L 174.120248 215.08709 
L 176.426033 215.099949 
L 178.731818 215.112506 
L 181.037603 215.12477 
L 183.343388 215.13675 
L 185.649174 215.148453 
L 187.954959 215.159886 
L 190.260744 215.171057 
L 192.566529 215.181973 
L 194.872314 215.192641 
L 197.178099 215.203068 
L 199.483884 215.21326 
L 201.789669 215.223223 
L 204.095455 215.232964 
L 206.40124 215.242488 
L 208.707025 215.251801 
L 211.01281 215.260908 
L 213.318595 215.269815 
L 215.62438 215.278526 
L 217.930165 215.287048 
L 220.23595 215.295384 
L 222.541736 215.30354 
L 224.847521 215.311519 
L 227.153306 215.319327 
L 229.459091 215.326968 
L 231.764876 215.334445 
L 234.070661 215.341764 
L 236.376446 215.348927 
L 238.682231 215.355938 
L 240.988017 215.362802 
L 243.293802 215.369522 
L 245.599587 215.376101 
L 247.905372 215.382543 
L 250.211157 215.388851 
L 252.516942 215.395028 
L 254.822727 215.401078 
L 257.128512 215.407003 
L 259.434298 215.412806 
L 261.740083 215.41849 
L 264.045868 215.424058 
L 266.351653 215.429512 
L 268.657438 215.434856 
L 270.963223 215.440092 
L 273.269008 215.445222 
L 275.574793 215.450248 
L 277.880579 215.455173 
L 280.186364 215.46 
" style="fill:none;stroke:#1f77b4;stroke-linecap:square;stroke-width:1.5;"/>
   </g>
   <g id="line2d_13">
    <path clip-path="url(#pe9674a52ab)" d="M 51.913636 213.567952 
L 54.219421 213.537678 
L 56.525207 213.545247 
L 58.830992 213.492268 
L 61.136777 213.461995 
L 63.442562 213.461995 
L 65.748347 213.427937 
L 68.054132 213.427937 
L 70.359917 213.439289 
L 72.665702 213.356037 
L 74.971488 213.382527 
L 77.277273 213.253864 
L 79.583058 213.314411 
L 81.888843 213.261433 
L 84.194628 213.291706 
L 86.500413 213.227375 
L 88.806198 213.216022 
L 91.111983 213.253864 
L 93.417769 213.079791 
L 95.723554 213.083576 
L 98.029339 213.023029 
L 100.335124 213.034381 
L 102.640909 212.985187 
L 104.946694 213.068439 
L 107.252479 212.89815 
L 109.558264 212.935992 
L 111.86405 212.905719 
L 114.169835 212.720293 
L 116.47562 212.708941 
L 118.781405 212.648394 
L 121.08719 212.69002 
L 123.392975 212.686236 
L 125.69876 212.644609 
L 128.004545 212.712725 
L 130.310331 212.531084 
L 132.616116 212.610552 
L 134.921901 212.512163 
L 137.227686 212.50081 
L 139.533471 212.413774 
L 141.839256 212.432695 
L 144.145041 212.12996 
L 146.450826 212.080765 
L 148.756612 212.29268 
L 151.062397 212.076981 
L 153.368182 211.955887 
L 155.673967 211.766677 
L 157.979752 211.929397 
L 160.285537 211.815872 
L 162.591322 211.98616 
L 164.897107 211.755325 
L 167.202893 211.645583 
L 169.508678 211.687209 
L 171.814463 211.709914 
L 174.120248 211.641799 
L 176.426033 211.346632 
L 178.731818 211.30879 
L 181.037603 211.059034 
L 183.343388 210.998487 
L 185.649174 210.915234 
L 187.954959 210.95686 
L 190.260744 210.828198 
L 192.566529 210.551952 
L 194.872314 210.362742 
L 197.178099 210.404369 
L 199.483884 209.677804 
L 201.789669 209.980539 
L 204.095455 209.927561 
L 206.40124 209.617257 
L 208.707025 209.306953 
L 211.01281 209.057197 
L 213.318595 208.792303 
L 215.62438 208.497137 
L 217.930165 208.784735 
L 220.23595 208.05817 
L 222.541736 207.641909 
L 224.847521 207.66083 
L 227.153306 207.115907 
L 229.459091 206.832093 
L 231.764876 206.124449 
L 234.070661 205.666562 
L 236.376446 205.609799 
L 238.682231 205.023249 
L 240.988017 205.409237 
L 243.293802 204.122612 
L 245.599587 202.726246 
L 247.905372 202.472705 
L 250.211157 201.481247 
L 252.516942 199.47941 
L 254.822727 200.520063 
L 257.128512 197.314853 
L 259.434298 195.657378 
L 261.740083 190.4579 
L 264.045868 186.24988 
L 266.351653 183.51391 
L 268.657438 174.564299 
L 270.963223 169.209669 
L 273.269008 159.22319 
L 275.574793 115.519572 
L 277.880579 39.06 
" style="fill:none;stroke:#ff7f0e;stroke-linecap:square;stroke-width:1.5;"/>
   </g>
   <g id="patch_3">
    <path d="M 40.5 224.28 
L 40.5 30.24 
" style="fill:none;stroke:#000000;stroke-linecap:square;stroke-linejoin:miter;stroke-width:0.8;"/>
   </g>
   <g id="patch_4">
    <path d="M 291.6 224.28 
L 291.6 30.24 
" style="fill:none;stroke:#000000;stroke-linecap:square;stroke-linejoin:miter;stroke-width:0.8;"/>
   </g>
   <g id="patch_5">
    <path d="M 40.5 224.28 
L 291.6 224.28 
" style="fill:none;stroke:#000000;stroke-linecap:square;stroke-linejoin:miter;stroke-width:0.8;"/>
   </g>
   <g id="patch_6">
    <path d="M 40.5 30.24 
L 291.6 30.24 
" style="fill:none;stroke:#000000;stroke-linecap:square;stroke-linejoin:miter;stroke-width:0.8;"/>
   </g>
   <g id="text_14">
    <text style="font-family:DejaVu Sans;font-size:12px;font-style:normal;font-weight:normal;text-anchor:middle;" transform="rotate(-0, 166.05, 24.24)" x="166.05" y="24.24">Coin Flips for 1/(1+x)</text>
   </g>
   <g id="legend_1">
    <g id="patch_7">
     <path d="M 38.242188 67.59625 
L 284.6 67.59625 
Q 286.6 67.59625 286.6 65.59625 
L 286.6 37.24 
Q 286.6 35.24 284.6 35.24 
L 38.242188 35.24 
Q 36.242188 35.24 36.242188 37.24 
L 36.242188 65.59625 
Q 36.242188 67.59625 38.242188 67.59625 
z
" style="fill:#ffffff;opacity:0.8;stroke:#cccccc;stroke-linejoin:miter;"/>
    </g>
    <g id="line2d_14">
     <path d="M 40.242188 43.338438 
L 60.242188 43.338438 
" style="fill:none;stroke:#1f77b4;stroke-linecap:square;stroke-width:1.5;"/>
    </g>
    <g id="line2d_15"/>
    <g id="text_15">
     <text style="font-family:DejaVu Sans;font-size:10px;font-style:normal;font-weight:normal;text-anchor:start;" transform="rotate(-0, 68.242188, 46.838438)" x="68.242188" y="46.838438">Coin Flip Lower Bound</text>
    </g>
    <g id="line2d_16">
     <path d="M 40.242188 58.016563 
L 60.242188 58.016563 
" style="fill:none;stroke:#ff7f0e;stroke-linecap:square;stroke-width:1.5;"/>
    </g>
    <g id="line2d_17"/>
    <g id="text_16">
     <text style="font-family:DejaVu Sans;font-size:10px;font-style:normal;font-weight:normal;text-anchor:start;" transform="rotate(-0, 68.242188, 61.516563)" x="68.242188" y="61.516563">Average Coins Flipped 1/(1+x) (Alt. Series)</text>
    </g>
   </g>
  </g>
 </g>
 <defs>
  <clipPath id="pe9674a52ab">
   <rect height="194.04" width="251.1" x="40.5" y="30.24"/>
  </clipPath>
 </defs>
</svg>
