<?xml version="1.0" encoding="utf-8" standalone="no"?>
<!DOCTYPE svg PUBLIC "-//W3C//DTD SVG 1.1//EN"
  "http://www.w3.org/Graphics/SVG/1.1/DTD/svg11.dtd">
<!-- Created with matplotlib (https://matplotlib.org/) -->
<svg height="345.6pt" version="1.1" viewBox="0 0 460.8 345.6" width="460.8pt" xmlns="http://www.w3.org/2000/svg" xmlns:xlink="http://www.w3.org/1999/xlink">
 <defs>
  <style type="text/css">
*{stroke-linecap:butt;stroke-linejoin:round;}
  </style>
 </defs>
 <g id="figure_1">
  <g id="patch_1">
   <path d="M 0 345.6 
L 460.8 345.6 
L 460.8 0 
L 0 0 
z
" style="fill:#ffffff;"/>
  </g>
  <g id="axes_1">
   <g id="patch_2">
    <path d="M 57.6 307.584 
L 414.72 307.584 
L 414.72 41.472 
L 57.6 41.472 
z
" style="fill:#ffffff;"/>
   </g>
   <g id="matplotlib.axis_1">
    <g id="xtick_1">
     <g id="line2d_1">
      <defs>
       <path d="M 0 0 
L 0 3.5 
" id="mfb2406465d" style="stroke:#000000;stroke-width:0.8;"/>
      </defs>
      <g>
       <use style="stroke:#000000;stroke-width:0.8;" x="73.800255" xlink:href="#mfb2406465d" y="307.584"/>
      </g>
     </g>
     <g id="text_1">
      <text style="font-family:DejaVu Sans;font-size:10px;font-style:normal;font-weight:normal;text-anchor:middle;" transform="rotate(-0, 73.800255, 322.182437)" x="73.800255" y="322.182437">0.0</text>
     </g>
    </g>
    <g id="xtick_2">
     <g id="line2d_2">
      <g>
       <use style="stroke:#000000;stroke-width:0.8;" x="138.744153" xlink:href="#mfb2406465d" y="307.584"/>
      </g>
     </g>
     <g id="text_2">
      <text style="font-family:DejaVu Sans;font-size:10px;font-style:normal;font-weight:normal;text-anchor:middle;" transform="rotate(-0, 138.744153, 322.182437)" x="138.744153" y="322.182437">0.2</text>
     </g>
    </g>
    <g id="xtick_3">
     <g id="line2d_3">
      <g>
       <use style="stroke:#000000;stroke-width:0.8;" x="203.688051" xlink:href="#mfb2406465d" y="307.584"/>
      </g>
     </g>
     <g id="text_3">
      <text style="font-family:DejaVu Sans;font-size:10px;font-style:normal;font-weight:normal;text-anchor:middle;" transform="rotate(-0, 203.688051, 322.182437)" x="203.688051" y="322.182437">0.4</text>
     </g>
    </g>
    <g id="xtick_4">
     <g id="line2d_4">
      <g>
       <use style="stroke:#000000;stroke-width:0.8;" x="268.631949" xlink:href="#mfb2406465d" y="307.584"/>
      </g>
     </g>
     <g id="text_4">
      <text style="font-family:DejaVu Sans;font-size:10px;font-style:normal;font-weight:normal;text-anchor:middle;" transform="rotate(-0, 268.631949, 322.182437)" x="268.631949" y="322.182437">0.6</text>
     </g>
    </g>
    <g id="xtick_5">
     <g id="line2d_5">
      <g>
       <use style="stroke:#000000;stroke-width:0.8;" x="333.575847" xlink:href="#mfb2406465d" y="307.584"/>
      </g>
     </g>
     <g id="text_5">
      <text style="font-family:DejaVu Sans;font-size:10px;font-style:normal;font-weight:normal;text-anchor:middle;" transform="rotate(-0, 333.575847, 322.182437)" x="333.575847" y="322.182437">0.8</text>
     </g>
    </g>
    <g id="xtick_6">
     <g id="line2d_6">
      <g>
       <use style="stroke:#000000;stroke-width:0.8;" x="398.519745" xlink:href="#mfb2406465d" y="307.584"/>
      </g>
     </g>
     <g id="text_6">
      <text style="font-family:DejaVu Sans;font-size:10px;font-style:normal;font-weight:normal;text-anchor:middle;" transform="rotate(-0, 398.519745, 322.182437)" x="398.519745" y="322.182437">1.0</text>
     </g>
    </g>
    <g id="text_7">
     <text style="font-family:DejaVu Sans;font-size:10px;font-style:normal;font-weight:normal;text-anchor:middle;" transform="rotate(-0, 236.16, 335.860562)" x="236.16" y="335.860562">Input Coin's Heads Probability (λ)</text>
    </g>
   </g>
   <g id="matplotlib.axis_2">
    <g id="ytick_1">
     <g id="line2d_7">
      <defs>
       <path d="M 0 0 
L -3.5 0 
" id="m58f30c8c97" style="stroke:#000000;stroke-width:0.8;"/>
      </defs>
      <g>
       <use style="stroke:#000000;stroke-width:0.8;" x="57.6" xlink:href="#m58f30c8c97" y="287.986605"/>
      </g>
     </g>
     <g id="text_8">
      <text style="font-family:DejaVu Sans;font-size:10px;font-style:normal;font-weight:normal;text-anchor:end;" transform="rotate(-0, 50.6, 291.785823)" x="50.6" y="291.785823">0.5</text>
     </g>
    </g>
    <g id="ytick_2">
     <g id="line2d_8">
      <g>
       <use style="stroke:#000000;stroke-width:0.8;" x="57.6" xlink:href="#m58f30c8c97" y="241.102884"/>
      </g>
     </g>
     <g id="text_9">
      <text style="font-family:DejaVu Sans;font-size:10px;font-style:normal;font-weight:normal;text-anchor:end;" transform="rotate(-0, 50.6, 244.902102)" x="50.6" y="244.902102">0.6</text>
     </g>
    </g>
    <g id="ytick_3">
     <g id="line2d_9">
      <g>
       <use style="stroke:#000000;stroke-width:0.8;" x="57.6" xlink:href="#m58f30c8c97" y="194.219163"/>
      </g>
     </g>
     <g id="text_10">
      <text style="font-family:DejaVu Sans;font-size:10px;font-style:normal;font-weight:normal;text-anchor:end;" transform="rotate(-0, 50.6, 198.018382)" x="50.6" y="198.018382">0.7</text>
     </g>
    </g>
    <g id="ytick_4">
     <g id="line2d_10">
      <g>
       <use style="stroke:#000000;stroke-width:0.8;" x="57.6" xlink:href="#m58f30c8c97" y="147.335442"/>
      </g>
     </g>
     <g id="text_11">
      <text style="font-family:DejaVu Sans;font-size:10px;font-style:normal;font-weight:normal;text-anchor:end;" transform="rotate(-0, 50.6, 151.134661)" x="50.6" y="151.134661">0.8</text>
     </g>
    </g>
    <g id="ytick_5">
     <g id="line2d_11">
      <g>
       <use style="stroke:#000000;stroke-width:0.8;" x="57.6" xlink:href="#m58f30c8c97" y="100.451721"/>
      </g>
     </g>
     <g id="text_12">
      <text style="font-family:DejaVu Sans;font-size:10px;font-style:normal;font-weight:normal;text-anchor:end;" transform="rotate(-0, 50.6, 104.25094)" x="50.6" y="104.25094">0.9</text>
     </g>
    </g>
    <g id="ytick_6">
     <g id="line2d_12">
      <g>
       <use style="stroke:#000000;stroke-width:0.8;" x="57.6" xlink:href="#m58f30c8c97" y="53.568"/>
      </g>
     </g>
     <g id="text_13">
      <text style="font-family:DejaVu Sans;font-size:10px;font-style:normal;font-weight:normal;text-anchor:end;" transform="rotate(-0, 50.6, 57.367219)" x="50.6" y="57.367219">1.0</text>
     </g>
    </g>
    <g id="text_14">
     <text style="font-family:DejaVu Sans;font-size:10px;font-style:normal;font-weight:normal;text-anchor:middle;" transform="rotate(-90, 28.617187, 174.528)" x="28.617187" y="174.528">Simulated Mean / Function Value</text>
    </g>
   </g>
   <g id="line2d_13">
    <path clip-path="url(#pa7554ec980)" d="M 73.832727 53.614879 
L 77.112066 58.30139 
L 80.391405 62.895126 
L 83.670744 67.398816 
L 86.950083 71.81508 
L 90.229421 76.14644 
L 93.50876 80.395321 
L 96.788099 84.564058 
L 100.067438 88.654895 
L 103.346777 92.669998 
L 106.626116 96.611448 
L 109.905455 100.481256 
L 113.184793 104.281355 
L 116.464132 108.013614 
L 119.743471 111.679833 
L 123.02281 115.281748 
L 126.302149 118.821038 
L 129.581488 122.299321 
L 132.860826 125.718162 
L 136.140165 129.07907 
L 139.419504 132.383507 
L 142.698843 135.632883 
L 145.978182 138.828564 
L 149.257521 141.97187 
L 152.53686 145.064077 
L 155.816198 148.106422 
L 159.095537 151.100101 
L 162.374876 154.046272 
L 165.654215 156.946058 
L 168.933554 159.800545 
L 172.212893 162.610787 
L 175.492231 165.377804 
L 178.77157 168.102586 
L 182.050909 170.786093 
L 185.330248 173.429255 
L 188.609587 176.032976 
L 191.888926 178.598132 
L 195.168264 181.125573 
L 198.447603 183.616125 
L 201.726942 186.07059 
L 205.006281 188.489747 
L 208.28562 190.874351 
L 211.564959 193.225139 
L 214.844298 195.542823 
L 218.123636 197.8281 
L 221.402975 200.081642 
L 224.682314 202.304108 
L 227.961653 204.496136 
L 231.240992 206.658345 
L 234.520331 208.791342 
L 237.799669 210.895714 
L 241.079008 212.972032 
L 244.358347 215.020856 
L 247.637686 217.042726 
L 250.917025 219.038172 
L 254.196364 221.007708 
L 257.475702 222.951835 
L 260.755041 224.871042 
L 264.03438 226.765806 
L 267.313719 228.63659 
L 270.593058 230.483846 
L 273.872397 232.308016 
L 277.151736 234.109529 
L 280.431074 235.888806 
L 283.710413 237.646255 
L 286.989752 239.382276 
L 290.269091 241.097258 
L 293.54843 242.791581 
L 296.827769 244.465616 
L 300.107107 246.119726 
L 303.386446 247.754264 
L 306.665785 249.369575 
L 309.945124 250.965998 
L 313.224463 252.54386 
L 316.503802 254.103484 
L 319.78314 255.645185 
L 323.062479 257.169269 
L 326.341818 258.676038 
L 329.621157 260.165783 
L 332.900496 261.638792 
L 336.179835 263.095346 
L 339.459174 264.535719 
L 342.738512 265.960178 
L 346.017851 267.368987 
L 349.29719 268.762401 
L 352.576529 270.140672 
L 355.855868 271.504046 
L 359.135207 272.852761 
L 362.414545 274.187054 
L 365.693884 275.507155 
L 368.973223 276.813289 
L 372.252562 278.105676 
L 375.531901 279.384532 
L 378.81124 280.650069 
L 382.090579 281.902493 
L 385.369917 283.142008 
L 388.649256 284.368812 
L 391.928595 285.583099 
L 395.207934 286.785061 
L 398.487273 287.974883 
" style="fill:none;stroke:#1f77b4;stroke-linecap:square;stroke-width:1.5;"/>
   </g>
   <g id="line2d_14">
    <path clip-path="url(#pa7554ec980)" d="M 73.832727 53.568 
L 77.112066 58.256372 
L 80.391405 64.820093 
L 83.670744 61.069395 
L 86.950083 74.196837 
L 90.229421 74.196837 
L 93.50876 77.00986 
L 96.788099 88.261953 
L 100.067438 90.137302 
L 103.346777 96.701023 
L 106.626116 102.32707 
L 109.905455 99.514047 
L 113.184793 93.888 
L 116.464132 108.890791 
L 119.743471 105.140093 
L 123.02281 121.080558 
L 126.302149 121.080558 
L 129.581488 120.142884 
L 132.860826 134.208 
L 136.140165 131.394977 
L 139.419504 149.210791 
L 142.698843 122.018233 
L 145.978182 143.584744 
L 149.257521 141.709395 
L 152.53686 151.08614 
L 155.816198 140.771721 
L 159.095537 141.709395 
L 162.374876 141.709395 
L 165.654215 157.64986 
L 168.933554 150.148465 
L 172.212893 168.901953 
L 175.492231 170.777302 
L 178.77157 160.462884 
L 182.050909 176.403349 
L 185.330248 179.216372 
L 188.609587 180.154047 
L 191.888926 170.777302 
L 195.168264 197.96986 
L 198.447603 183.904744 
L 201.726942 174.528 
L 205.006281 203.595907 
L 208.28562 200.782884 
L 211.564959 194.219163 
L 214.844298 204.533581 
L 218.123636 196.094512 
L 221.402975 199.845209 
L 224.682314 206.40893 
L 227.961653 223.28707 
L 231.240992 191.40614 
L 234.520331 201.720558 
L 237.799669 213.910326 
L 241.079008 232.663814 
L 244.358347 208.284279 
L 247.637686 220.474047 
L 250.917025 201.720558 
L 254.196364 210.159628 
L 257.475702 229.850791 
L 260.755041 218.598698 
L 264.03438 232.663814 
L 267.313719 209.221953 
L 270.593058 249.541953 
L 273.872397 251.417302 
L 277.151736 221.411721 
L 280.431074 238.28986 
L 283.710413 242.040558 
L 286.989752 238.28986 
L 290.269091 220.474047 
L 293.54843 242.978233 
L 296.827769 236.414512 
L 300.107107 247.666605 
L 303.386446 243.915907 
L 306.665785 252.354977 
L 309.945124 261.731721 
L 313.224463 265.482419 
L 316.503802 242.978233 
L 319.78314 260.794047 
L 323.062479 257.981023 
L 326.341818 264.544744 
L 329.621157 249.541953 
L 332.900496 258.918698 
L 336.179835 266.420093 
L 339.459174 248.604279 
L 342.738512 263.60707 
L 346.017851 266.420093 
L 349.29719 255.168 
L 352.576529 260.794047 
L 355.855868 280.485209 
L 359.135207 275.796837 
L 362.414545 268.295442 
L 365.693884 269.233116 
L 368.973223 291.737302 
L 372.252562 264.544744 
L 375.531901 295.488 
L 378.81124 273.921488 
L 382.090579 292.674977 
L 385.369917 293.612651 
L 388.649256 276.734512 
L 391.928595 284.235907 
L 395.207934 274.859163 
" style="fill:none;stroke:#ff7f0e;stroke-linecap:square;stroke-width:1.5;"/>
   </g>
   <g id="patch_3">
    <path d="M 57.6 307.584 
L 57.6 41.472 
" style="fill:none;stroke:#000000;stroke-linecap:square;stroke-linejoin:miter;stroke-width:0.8;"/>
   </g>
   <g id="patch_4">
    <path d="M 414.72 307.584 
L 414.72 41.472 
" style="fill:none;stroke:#000000;stroke-linecap:square;stroke-linejoin:miter;stroke-width:0.8;"/>
   </g>
   <g id="patch_5">
    <path d="M 57.6 307.584 
L 414.72 307.584 
" style="fill:none;stroke:#000000;stroke-linecap:square;stroke-linejoin:miter;stroke-width:0.8;"/>
   </g>
   <g id="patch_6">
    <path d="M 57.6 41.472 
L 414.72 41.472 
" style="fill:none;stroke:#000000;stroke-linecap:square;stroke-linejoin:miter;stroke-width:0.8;"/>
   </g>
   <g id="text_15">
    <text style="font-family:DejaVu Sans;font-size:12px;font-style:normal;font-weight:normal;" transform="translate(84.335625 22.034625)">Simulated Mean for 1/(1+x) (Alt. Series) Algorithm</text>
    <text style="font-family:DejaVu Sans;font-size:12px;font-style:normal;font-weight:normal;" transform="translate(132.609375 35.472)">(Wasserstein Distances in Legend)</text>
   </g>
   <g id="legend_1">
    <g id="patch_7">
     <path d="M 229.47 78.82825 
L 407.72 78.82825 
Q 409.72 78.82825 409.72 76.82825 
L 409.72 48.472 
Q 409.72 46.472 407.72 46.472 
L 229.47 46.472 
Q 227.47 46.472 227.47 48.472 
L 227.47 76.82825 
Q 227.47 78.82825 229.47 78.82825 
z
" style="fill:#ffffff;opacity:0.8;stroke:#cccccc;stroke-linejoin:miter;"/>
    </g>
    <g id="line2d_15">
     <path d="M 231.47 54.570437 
L 251.47 54.570437 
" style="fill:none;stroke:#1f77b4;stroke-linecap:square;stroke-width:1.5;"/>
    </g>
    <g id="line2d_16"/>
    <g id="text_16">
     <text style="font-family:DejaVu Sans;font-size:10px;font-style:normal;font-weight:normal;text-anchor:start;" transform="rotate(-0, 259.47, 58.070437)" x="259.47" y="58.070437">1/(1+x)</text>
    </g>
    <g id="line2d_17">
     <path d="M 231.47 69.248562 
L 251.47 69.248562 
" style="fill:none;stroke:#ff7f0e;stroke-linecap:square;stroke-width:1.5;"/>
    </g>
    <g id="line2d_18"/>
    <g id="text_17">
     <text style="font-family:DejaVu Sans;font-size:10px;font-style:normal;font-weight:normal;text-anchor:start;" transform="rotate(-0, 259.47, 72.748562)" x="259.47" y="72.748562">Simul. Mean (WD=0.005231)</text>
    </g>
   </g>
  </g>
 </g>
 <defs>
  <clipPath id="pa7554ec980">
   <rect height="266.112" width="357.12" x="57.6" y="41.472"/>
  </clipPath>
 </defs>
</svg>
