<svg height="460.8" viewBox="0 0 460.8 345.6" width="614.4" xmlns="http://www.w3.org/2000/svg" xmlns:xlink="http://www.w3.org/1999/xlink"><defs><style>*{stroke-linecap:butt;stroke-linejoin:round}</style></defs><g id="figure_1"><path d="M0 345.6h460.8V0H0z" fill="#fff" id="patch_1"/><g id="axes_1"><path d="M57.6 307.584h357.12V41.472H57.6z" fill="#fff" id="patch_2"/><g id="matplotlib.axis_1"><g id="xtick_1"><g id="line2d_1"><defs><path d="M0 0v3.5" id="mfa6831d197" stroke="#000" stroke-width=".8"/></defs><use x="73.8" xlink:href="#mfa6831d197" y="307.584" stroke="#000" stroke-width=".8"/></g><text x="73.8" y="322.182" font-family="DejaVu Sans" font-size="10" font-weight="400" text-anchor="middle" id="text_1">0.0</text></g><g id="xtick_2"><use x="138.744" xlink:href="#mfa6831d197" y="307.584" stroke="#000" stroke-width=".8" id="line2d_2"/><text x="138.744" y="322.182" font-family="DejaVu Sans" font-size="10" font-weight="400" text-anchor="middle" id="text_2">0.2</text></g><g id="xtick_3"><use x="203.688" xlink:href="#mfa6831d197" y="307.584" stroke="#000" stroke-width=".8" id="line2d_3"/><text x="203.688" y="322.182" font-family="DejaVu Sans" font-size="10" font-weight="400" text-anchor="middle" id="text_3">0.4</text></g><g id="xtick_4"><use x="268.632" xlink:href="#mfa6831d197" y="307.584" stroke="#000" stroke-width=".8" id="line2d_4"/><text x="268.632" y="322.182" font-family="DejaVu Sans" font-size="10" font-weight="400" text-anchor="middle" id="text_4">0.6</text></g><g id="xtick_5"><use x="333.576" xlink:href="#mfa6831d197" y="307.584" stroke="#000" stroke-width=".8" id="line2d_5"/><text x="333.576" y="322.182" font-family="DejaVu Sans" font-size="10" font-weight="400" text-anchor="middle" id="text_5">0.8</text></g><g id="xtick_6"><use x="398.52" xlink:href="#mfa6831d197" y="307.584" stroke="#000" stroke-width=".8" id="line2d_6"/><text x="398.52" y="322.182" font-family="DejaVu Sans" font-size="10" font-weight="400" text-anchor="middle" id="text_6">1.0</text></g><text x="236.16" y="335.861" font-family="DejaVu Sans" font-size="10" font-weight="400" text-anchor="middle" id="text_7">Input Coin&apos;s Heads Probability (λ)</text></g><g id="matplotlib.axis_2"><g id="ytick_1"><g id="line2d_7"><defs><path d="M0 0h-3.5" id="m162a086c96" stroke="#000" stroke-width=".8"/></defs><use x="57.6" xlink:href="#m162a086c96" y="295.488" stroke="#000" stroke-width=".8"/></g><text x="50.6" y="299.287" font-family="DejaVu Sans" font-size="10" font-weight="400" text-anchor="end" id="text_8">0</text></g><g id="ytick_2"><use x="57.6" xlink:href="#m162a086c96" y="244.961" stroke="#000" stroke-width=".8" id="line2d_8"/><text x="50.6" y="248.76" font-family="DejaVu Sans" font-size="10" font-weight="400" text-anchor="end" id="text_9">20</text></g><g id="ytick_3"><use x="57.6" xlink:href="#m162a086c96" y="194.433" stroke="#000" stroke-width=".8" id="line2d_9"/><text x="50.6" y="198.233" font-family="DejaVu Sans" font-size="10" font-weight="400" text-anchor="end" id="text_10">40</text></g><g id="ytick_4"><use x="57.6" xlink:href="#m162a086c96" y="143.906" stroke="#000" stroke-width=".8" id="line2d_10"/><text x="50.6" y="147.705" font-family="DejaVu Sans" font-size="10" font-weight="400" text-anchor="end" id="text_11">60</text></g><g id="ytick_5"><use x="57.6" xlink:href="#m162a086c96" y="93.379" stroke="#000" stroke-width=".8" id="line2d_11"/><text x="50.6" y="97.178" font-family="DejaVu Sans" font-size="10" font-weight="400" text-anchor="end" id="text_12">80</text></g><g id="ytick_6"><use x="57.6" xlink:href="#m162a086c96" y="42.851" stroke="#000" stroke-width=".8" id="line2d_12"/><text x="50.6" y="46.65" font-family="DejaVu Sans" font-size="10" font-weight="400" text-anchor="end" id="text_13">100</text></g><text transform="rotate(-90 25.433 174.528)" x="25.433" y="174.528" font-family="DejaVu Sans" font-size="10" font-weight="400" text-anchor="middle" id="text_14">Coin Flips Needed</text></g><path clip-path="url(#pdc9aef4ef9)" d="M73.833 292.962l3.28.076 3.278.072 3.28.07 3.28.069 3.278.066 3.28.064 3.28.062 3.278.06 3.28.058 3.28.056 3.278.054 3.28.053 3.28.052 3.278.05 3.28.048 3.28.047 3.278.045 3.28.044 3.28.043 3.279.042 3.279.04 3.28.04 3.279.038 3.279.037 3.28.037 3.279.035 3.279.034 3.28.033 3.279.033 3.279.031 3.28.03 3.279.03 3.279.03 3.28.028 3.279.028 3.279.027 3.28.026 3.279.025 3.279.025 3.28.024 3.279.024 3.279.023 3.28.022 3.279.022 3.279.022 3.28.02 3.279.02 3.279.02 3.28.02 3.279.019 3.279.018 3.28.018 3.279.018 3.279.017 3.28.017 3.279.016 3.279.016 3.28.016 3.279.015 3.28.015 3.278.015 3.28.014 3.28.014 3.278.014 3.28.013 3.28.013 3.278.013 3.28.012 3.28.012 3.278.012 3.28.012 3.28.011 3.278.011 3.28.011 3.28.01 3.278.011 3.28.01 3.28.01 3.278.01 3.28.01 3.28.01 3.279.008 3.279.01 3.28.008 3.279.009 3.279.008 3.28.008 3.279.008 3.279.008 3.28.008 3.279.008 3.279.007 3.28.007 3.279.007 3.279.007 3.28.007 3.279.007 3.279.007 3.28.006" fill="none" stroke="#1f77b4" stroke-linecap="square" stroke-width="1.5" id="line2d_13"/><path clip-path="url(#pdc9aef4ef9)" d="M73.833 292.962l3.28-.04 3.278-.016 3.28-.066 3.28.026 3.278-.036 3.28-.005 3.28-.05 3.278-.02 3.28-.051 3.28-.076 3.278-.005 3.28.025 3.28-.09 3.278-.026 3.28-.015 3.28-.086 3.278-.121 3.28.09 3.28.036 3.279-.151 3.279.03 3.28-.05 3.279-.122 3.279-.015 3.28-.086 3.279.096 3.279-.086 3.28-.1 3.279-.137 3.279.116 3.28-.167 3.279.081 3.279-.086 3.28-.06 3.279-.117 3.279-.096 3.28-.136 3.279.096 3.279-.152 3.28-.247 3.279.126 3.279-.136 3.28-.016 3.279-.045 3.279-.02 3.28-.162 3.279-.08 3.279-.016 3.28-.434 3.279.136 3.279-.39 3.28.142 3.279-.005 3.279-.308 3.28-.07 3.279-.37 3.279.03 3.28-.105 3.279-.106 3.28-.182 3.278.545 3.28-.889 3.28-.313 3.278-.39 3.28.228 3.28-.303 3.278-.09 3.28-.238 3.28-.395 3.278-.53 3.28-.591 3.28-.248 3.278.359 3.28.005 3.28-1.43 3.278.066 3.28-.359 3.28-.814 3.278-1.414 3.28-.43 3.28-.99 3.279-.192 3.279-1.622 3.28.217 3.279-2.026 3.279-1.809 3.28-.11 3.279-2.856 3.279-1.652 3.28-1.637 3.279-5.34 3.279-4.518 3.28-1.248 3.279-15.997 3.279-11.667 3.28-17.79 3.279-39.765 3.279-119.235" fill="none" stroke="#ff7f0e" stroke-linecap="square" stroke-width="1.5" id="line2d_14"/><path d="M57.6 307.584V41.472" fill="none" stroke="#000" stroke-linecap="square" stroke-width=".8" id="patch_3"/><path d="M414.72 307.584V41.472" fill="none" stroke="#000" stroke-linecap="square" stroke-width=".8" id="patch_4"/><path d="M57.6 307.584h357.12" fill="none" stroke="#000" stroke-linecap="square" stroke-width=".8" id="patch_5"/><path d="M57.6 41.472h357.12" fill="none" stroke="#000" stroke-linecap="square" stroke-width=".8" id="patch_6"/><text x="236.16" y="35.472" font-family="DejaVu Sans" font-size="12" font-weight="400" text-anchor="middle" id="text_15">Coin Flips for 1/(1+x)</text><g id="legend_1"><path d="M64.6 78.828h232.684q2 0 2-2V48.472q0-2-2-2H64.6q-2 0-2 2v28.356q0 2 2 2z" fill="#fff" opacity=".8" stroke="#ccc" id="patch_7"/><path d="M66.6 54.57h20" fill="none" stroke="#1f77b4" stroke-linecap="square" stroke-width="1.5" id="line2d_15"/><text x="94.6" y="58.07" font-family="DejaVu Sans" font-size="10" font-weight="400" id="text_16">Coin Flip Lower Bound</text><path d="M66.6 69.249h20" fill="none" stroke="#ff7f0e" stroke-linecap="square" stroke-width="1.5" id="line2d_17"/><text x="94.6" y="72.749" font-family="DejaVu Sans" font-size="10" font-weight="400" id="text_17">Avg. Coins Flipped 1/(1+x) (Even Parity)</text></g></g></g><defs><clipPath id="pdc9aef4ef9"><path d="M57.6 41.472h357.12v266.112H57.6z"/></clipPath></defs></svg>