<?xml version="1.0" encoding="utf-8" standalone="no"?>
<!DOCTYPE svg PUBLIC "-//W3C//DTD SVG 1.1//EN"
  "http://www.w3.org/Graphics/SVG/1.1/DTD/svg11.dtd">
<!-- Created with matplotlib (https://matplotlib.org/) -->
<svg height="252pt" version="1.1" viewBox="0 0 324 252" width="324pt" xmlns="http://www.w3.org/2000/svg" xmlns:xlink="http://www.w3.org/1999/xlink">
 <defs>
  <style type="text/css">
*{stroke-linecap:butt;stroke-linejoin:round;}
  </style>
 </defs>
 <g id="figure_1">
  <g id="patch_1">
   <path d="M 0 252 
L 324 252 
L 324 0 
L 0 0 
z
" style="fill:#ffffff;"/>
  </g>
  <g id="axes_1">
   <g id="patch_2">
    <path d="M 40.5 224.28 
L 291.6 224.28 
L 291.6 30.24 
L 40.5 30.24 
z
" style="fill:#ffffff;"/>
   </g>
   <g id="matplotlib.axis_1">
    <g id="xtick_1">
     <g id="line2d_1">
      <defs>
       <path d="M 0 0 
L 0 3.5 
" id="mcfd066e4bc" style="stroke:#000000;stroke-width:0.8;"/>
      </defs>
      <g>
       <use style="stroke:#000000;stroke-width:0.8;" x="51.890784" xlink:href="#mcfd066e4bc" y="224.28"/>
      </g>
     </g>
     <g id="text_1">
      <text style="font-family:DejaVu Sans;font-size:10px;font-style:normal;font-weight:normal;text-anchor:middle;" transform="rotate(-0, 51.890784, 238.878438)" x="51.890784" y="238.878438">0.0</text>
     </g>
    </g>
    <g id="xtick_2">
     <g id="line2d_2">
      <g>
       <use style="stroke:#000000;stroke-width:0.8;" x="97.595605" xlink:href="#mcfd066e4bc" y="224.28"/>
      </g>
     </g>
     <g id="text_2">
      <text style="font-family:DejaVu Sans;font-size:10px;font-style:normal;font-weight:normal;text-anchor:middle;" transform="rotate(-0, 97.595605, 238.878438)" x="97.595605" y="238.878438">0.2</text>
     </g>
    </g>
    <g id="xtick_3">
     <g id="line2d_3">
      <g>
       <use style="stroke:#000000;stroke-width:0.8;" x="143.300425" xlink:href="#mcfd066e4bc" y="224.28"/>
      </g>
     </g>
     <g id="text_3">
      <text style="font-family:DejaVu Sans;font-size:10px;font-style:normal;font-weight:normal;text-anchor:middle;" transform="rotate(-0, 143.300425, 238.878438)" x="143.300425" y="238.878438">0.4</text>
     </g>
    </g>
    <g id="xtick_4">
     <g id="line2d_4">
      <g>
       <use style="stroke:#000000;stroke-width:0.8;" x="189.005246" xlink:href="#mcfd066e4bc" y="224.28"/>
      </g>
     </g>
     <g id="text_4">
      <text style="font-family:DejaVu Sans;font-size:10px;font-style:normal;font-weight:normal;text-anchor:middle;" transform="rotate(-0, 189.005246, 238.878438)" x="189.005246" y="238.878438">0.6</text>
     </g>
    </g>
    <g id="xtick_5">
     <g id="line2d_5">
      <g>
       <use style="stroke:#000000;stroke-width:0.8;" x="234.710067" xlink:href="#mcfd066e4bc" y="224.28"/>
      </g>
     </g>
     <g id="text_5">
      <text style="font-family:DejaVu Sans;font-size:10px;font-style:normal;font-weight:normal;text-anchor:middle;" transform="rotate(-0, 234.710067, 238.878438)" x="234.710067" y="238.878438">0.8</text>
     </g>
    </g>
    <g id="xtick_6">
     <g id="line2d_6">
      <g>
       <use style="stroke:#000000;stroke-width:0.8;" x="280.414888" xlink:href="#mcfd066e4bc" y="224.28"/>
      </g>
     </g>
     <g id="text_6">
      <text style="font-family:DejaVu Sans;font-size:10px;font-style:normal;font-weight:normal;text-anchor:middle;" transform="rotate(-0, 280.414888, 238.878438)" x="280.414888" y="238.878438">1.0</text>
     </g>
    </g>
    <g id="text_7">
     <text style="font-family:DejaVu Sans;font-size:10px;font-style:normal;font-weight:normal;text-anchor:middle;" transform="rotate(-0, 166.05, 252.556563)" x="166.05" y="252.556563">Input Coin's Heads Probability (λ)</text>
    </g>
   </g>
   <g id="matplotlib.axis_2">
    <g id="ytick_1">
     <g id="line2d_7">
      <defs>
       <path d="M 0 0 
L -3.5 0 
" id="m92c9bc6e2b" style="stroke:#000000;stroke-width:0.8;"/>
      </defs>
      <g>
       <use style="stroke:#000000;stroke-width:0.8;" x="40.5" xlink:href="#m92c9bc6e2b" y="206.105455"/>
      </g>
     </g>
     <g id="text_8">
      <text style="font-family:DejaVu Sans;font-size:10px;font-style:normal;font-weight:normal;text-anchor:end;" transform="rotate(-0, 33.5, 209.904673)" x="33.5" y="209.904673">0.5</text>
     </g>
    </g>
    <g id="ytick_2">
     <g id="line2d_8">
      <g>
       <use style="stroke:#000000;stroke-width:0.8;" x="40.5" xlink:href="#m92c9bc6e2b" y="172.696364"/>
      </g>
     </g>
     <g id="text_9">
      <text style="font-family:DejaVu Sans;font-size:10px;font-style:normal;font-weight:normal;text-anchor:end;" transform="rotate(-0, 33.5, 176.495582)" x="33.5" y="176.495582">0.6</text>
     </g>
    </g>
    <g id="ytick_3">
     <g id="line2d_9">
      <g>
       <use style="stroke:#000000;stroke-width:0.8;" x="40.5" xlink:href="#m92c9bc6e2b" y="139.287273"/>
      </g>
     </g>
     <g id="text_10">
      <text style="font-family:DejaVu Sans;font-size:10px;font-style:normal;font-weight:normal;text-anchor:end;" transform="rotate(-0, 33.5, 143.086491)" x="33.5" y="143.086491">0.7</text>
     </g>
    </g>
    <g id="ytick_4">
     <g id="line2d_10">
      <g>
       <use style="stroke:#000000;stroke-width:0.8;" x="40.5" xlink:href="#m92c9bc6e2b" y="105.878182"/>
      </g>
     </g>
     <g id="text_11">
      <text style="font-family:DejaVu Sans;font-size:10px;font-style:normal;font-weight:normal;text-anchor:end;" transform="rotate(-0, 33.5, 109.677401)" x="33.5" y="109.677401">0.8</text>
     </g>
    </g>
    <g id="ytick_5">
     <g id="line2d_11">
      <g>
       <use style="stroke:#000000;stroke-width:0.8;" x="40.5" xlink:href="#m92c9bc6e2b" y="72.469091"/>
      </g>
     </g>
     <g id="text_12">
      <text style="font-family:DejaVu Sans;font-size:10px;font-style:normal;font-weight:normal;text-anchor:end;" transform="rotate(-0, 33.5, 76.26831)" x="33.5" y="76.26831">0.9</text>
     </g>
    </g>
    <g id="ytick_6">
     <g id="line2d_12">
      <g>
       <use style="stroke:#000000;stroke-width:0.8;" x="40.5" xlink:href="#m92c9bc6e2b" y="39.06"/>
      </g>
     </g>
     <g id="text_13">
      <text style="font-family:DejaVu Sans;font-size:10px;font-style:normal;font-weight:normal;text-anchor:end;" transform="rotate(-0, 33.5, 42.859219)" x="33.5" y="42.859219">1.0</text>
     </g>
    </g>
    <g id="text_14">
     <text style="font-family:DejaVu Sans;font-size:10px;font-style:normal;font-weight:normal;text-anchor:middle;" transform="rotate(-90, 11.517187, 127.26)" x="11.517187" y="127.26">Simulated Mean / Function Value</text>
    </g>
   </g>
   <g id="line2d_13">
    <path clip-path="url(#pe163cf371b)" d="M 52.119308 39.393757 
L 54.423016 42.721426 
L 56.726723 45.983393 
L 59.030431 49.181587 
L 61.334139 52.317859 
L 63.637846 55.39399 
L 65.941554 58.411693 
L 68.245261 61.372618 
L 70.548969 64.278352 
L 72.852677 67.130424 
L 75.156384 69.930308 
L 77.460092 72.679421 
L 79.7638 75.379133 
L 82.067507 78.030764 
L 84.371215 80.635587 
L 86.674923 83.19483 
L 88.97863 85.709679 
L 91.282338 88.18128 
L 93.586045 90.610738 
L 95.889753 92.999123 
L 98.193461 95.347467 
L 100.497168 97.656769 
L 102.800876 99.927994 
L 105.104584 102.162076 
L 107.408291 104.35992 
L 109.711999 106.522399 
L 112.015706 108.650361 
L 114.319414 110.744626 
L 116.623122 112.805987 
L 118.926829 114.835213 
L 121.230537 116.833052 
L 123.534245 118.800224 
L 125.837952 120.737432 
L 128.14166 122.645354 
L 130.445368 124.524649 
L 132.749075 126.375957 
L 135.052783 128.199899 
L 137.35649 129.997077 
L 139.660198 131.768076 
L 141.963906 133.513463 
L 144.267613 135.23379 
L 146.571321 136.929593 
L 148.875029 138.601393 
L 151.178736 140.249696 
L 153.482444 141.874993 
L 155.786152 143.477764 
L 158.089859 145.058472 
L 160.393567 146.617571 
L 162.697274 148.155501 
L 165.000982 149.672689 
L 167.30469 151.169554 
L 169.608397 152.646499 
L 171.912105 154.103921 
L 174.215813 155.542203 
L 176.51952 156.961721 
L 178.823228 158.36284 
L 181.126935 159.745914 
L 183.430643 161.11129 
L 185.734351 162.459306 
L 188.038058 163.79029 
L 190.341766 165.104563 
L 192.645474 166.402439 
L 194.949181 167.684222 
L 197.252889 168.950209 
L 199.556597 170.200691 
L 201.860304 171.435951 
L 204.164012 172.656265 
L 206.467719 173.861902 
L 208.771427 175.053127 
L 211.075135 176.230195 
L 213.378842 177.393358 
L 215.68255 178.542861 
L 217.986258 179.678943 
L 220.289965 180.801837 
L 222.593673 181.911772 
L 224.89738 183.008971 
L 227.201088 184.093652 
L 229.504796 185.166027 
L 231.808503 186.226306 
L 234.112211 187.274692 
L 236.415919 188.311383 
L 238.719626 189.336574 
L 241.023334 190.350456 
L 243.327042 191.353214 
L 245.630749 192.345031 
L 247.934457 193.326085 
L 250.238164 194.29655 
L 252.541872 195.256597 
L 254.84558 196.206392 
L 257.149287 197.146099 
L 259.452995 198.075877 
L 261.756703 198.995883 
L 264.06041 199.906271 
L 266.364118 200.807191 
L 268.667825 201.698789 
L 270.971533 202.581209 
L 273.275241 203.454592 
L 275.578948 204.319077 
L 277.882656 205.174799 
L 280.186364 206.02189 
" style="fill:none;stroke:#1f77b4;stroke-linecap:square;stroke-width:1.5;"/>
   </g>
   <g id="line2d_14">
    <path clip-path="url(#pe163cf371b)" d="M 51.913636 39.06 
L 54.221499 43.069091 
L 56.529362 47.746364 
L 58.837224 50.419091 
L 61.145087 53.091818 
L 63.452949 59.105455 
L 65.760812 52.423636 
L 68.068675 59.105455 
L 70.376537 67.791818 
L 72.6844 63.782727 
L 74.992263 75.81 
L 77.300125 69.796364 
L 79.607988 73.137273 
L 81.91585 79.150909 
L 84.223713 79.819091 
L 86.531576 80.487273 
L 88.839438 77.146364 
L 91.147301 93.850909 
L 93.455163 91.178182 
L 95.763026 95.855455 
L 98.070889 97.191818 
L 100.378751 93.850909 
L 102.686614 97.191818 
L 104.994477 88.505455 
L 107.302339 98.528182 
L 109.610202 112.56 
L 111.918064 116.569091 
L 114.225927 109.219091 
L 116.53379 110.555455 
L 118.841652 121.914545 
L 121.149515 109.887273 
L 123.457377 127.928182 
L 125.76524 121.246364 
L 128.073103 121.914545 
L 130.380965 131.937273 
L 132.688828 131.269091 
L 134.996691 134.61 
L 137.304553 141.291818 
L 139.612416 136.614545 
L 141.920278 126.591818 
L 144.228141 134.61 
L 146.536004 135.278182 
L 148.843866 133.941818 
L 151.151729 158.664545 
L 153.459591 132.605455 
L 155.767454 139.955455 
L 158.075317 147.305455 
L 160.383179 145.969091 
L 162.691042 152.650909 
L 164.998905 148.641818 
L 167.306767 147.305455 
L 169.61463 157.996364 
L 171.922492 151.314545 
L 174.230355 147.973636 
L 176.538218 164.01 
L 178.84608 166.014545 
L 181.153943 159.332727 
L 183.461805 164.01 
L 185.769668 174.032727 
L 188.077531 169.355455 
L 190.385393 169.355455 
L 192.693256 168.019091 
L 195.001119 166.682727 
L 197.308981 162.005455 
L 199.616844 167.350909 
L 201.924706 178.041818 
L 204.232569 168.687273 
L 206.540432 172.696364 
L 208.848294 173.364545 
L 211.156157 184.055455 
L 213.464019 168.687273 
L 215.771882 182.050909 
L 218.079745 186.728182 
L 220.387607 189.400909 
L 222.69547 197.419091 
L 225.003333 172.028182 
L 227.311195 191.405455 
L 229.619058 174.032727 
L 231.92692 188.732727 
L 234.234783 187.396364 
L 236.542646 188.732727 
L 238.850508 193.41 
L 241.158371 189.400909 
L 243.466233 191.405455 
L 245.774096 185.391818 
L 248.081959 197.419091 
L 250.389821 208.778182 
L 252.697684 200.091818 
L 255.005547 192.741818 
L 257.313409 180.714545 
L 259.621272 204.769091 
L 261.929134 190.737273 
L 264.236997 215.46 
L 266.54486 197.419091 
L 268.852722 197.419091 
L 271.160585 198.755455 
L 273.468447 201.428182 
L 275.77631 194.746364 
L 278.084173 212.787273 
" style="fill:none;stroke:#ff7f0e;stroke-linecap:square;stroke-width:1.5;"/>
   </g>
   <g id="patch_3">
    <path d="M 40.5 224.28 
L 40.5 30.24 
" style="fill:none;stroke:#000000;stroke-linecap:square;stroke-linejoin:miter;stroke-width:0.8;"/>
   </g>
   <g id="patch_4">
    <path d="M 291.6 224.28 
L 291.6 30.24 
" style="fill:none;stroke:#000000;stroke-linecap:square;stroke-linejoin:miter;stroke-width:0.8;"/>
   </g>
   <g id="patch_5">
    <path d="M 40.5 224.28 
L 291.6 224.28 
" style="fill:none;stroke:#000000;stroke-linecap:square;stroke-linejoin:miter;stroke-width:0.8;"/>
   </g>
   <g id="patch_6">
    <path d="M 40.5 30.24 
L 291.6 30.24 
" style="fill:none;stroke:#000000;stroke-linecap:square;stroke-linejoin:miter;stroke-width:0.8;"/>
   </g>
   <g id="text_15">
    <text style="font-family:DejaVu Sans;font-size:12px;font-style:normal;font-weight:normal;text-anchor:middle;" transform="rotate(-0, 166.05, 24.24)" x="166.05" y="24.24">Expected Value in 1/(1+x) (Even Parity) Algorithm</text>
   </g>
   <g id="legend_1">
    <g id="patch_7">
     <path d="M 50.128125 67.59625 
L 284.6 67.59625 
Q 286.6 67.59625 286.6 65.59625 
L 286.6 37.24 
Q 286.6 35.24 284.6 35.24 
L 50.128125 35.24 
Q 48.128125 35.24 48.128125 37.24 
L 48.128125 65.59625 
Q 48.128125 67.59625 50.128125 67.59625 
z
" style="fill:#ffffff;opacity:0.8;stroke:#cccccc;stroke-linejoin:miter;"/>
    </g>
    <g id="line2d_15">
     <path d="M 52.128125 43.338438 
L 72.128125 43.338438 
" style="fill:none;stroke:#1f77b4;stroke-linecap:square;stroke-width:1.5;"/>
    </g>
    <g id="line2d_16"/>
    <g id="text_16">
     <text style="font-family:DejaVu Sans;font-size:10px;font-style:normal;font-weight:normal;text-anchor:start;" transform="rotate(-0, 80.128125, 46.838438)" x="80.128125" y="46.838438">1/(1+x)</text>
    </g>
    <g id="line2d_17">
     <path d="M 52.128125 58.016563 
L 72.128125 58.016563 
" style="fill:none;stroke:#ff7f0e;stroke-linecap:square;stroke-width:1.5;"/>
    </g>
    <g id="line2d_18"/>
    <g id="text_17">
     <text style="font-family:DejaVu Sans;font-size:10px;font-style:normal;font-weight:normal;text-anchor:start;" transform="rotate(-0, 80.128125, 61.516563)" x="80.128125" y="61.516563">Simulated Mean of 1/(1+x) (Even Parity)</text>
    </g>
   </g>
  </g>
 </g>
 <defs>
  <clipPath id="pe163cf371b">
   <rect height="194.04" width="251.1" x="40.5" y="30.24"/>
  </clipPath>
 </defs>
</svg>
