<?xml version="1.0" encoding="utf-8" standalone="no"?>
<!DOCTYPE svg PUBLIC "-//W3C//DTD SVG 1.1//EN"
  "http://www.w3.org/Graphics/SVG/1.1/DTD/svg11.dtd">
<!-- Created with matplotlib (https://matplotlib.org/) -->
<svg height="252pt" version="1.1" viewBox="0 0 324 252" width="324pt" xmlns="http://www.w3.org/2000/svg" xmlns:xlink="http://www.w3.org/1999/xlink">
 <defs>
  <style type="text/css">
*{stroke-linecap:butt;stroke-linejoin:round;}
  </style>
 </defs>
 <g id="figure_1">
  <g id="patch_1">
   <path d="M 0 252 
L 324 252 
L 324 0 
L 0 0 
z
" style="fill:#ffffff;"/>
  </g>
  <g id="axes_1">
   <g id="patch_2">
    <path d="M 40.5 224.28 
L 291.6 224.28 
L 291.6 30.24 
L 40.5 30.24 
z
" style="fill:#ffffff;"/>
   </g>
   <g id="matplotlib.axis_1">
    <g id="xtick_1">
     <g id="line2d_1">
      <defs>
       <path d="M 0 0 
L 0 3.5 
" id="m1d3f2e5516" style="stroke:#000000;stroke-width:0.8;"/>
      </defs>
      <g>
       <use style="stroke:#000000;stroke-width:0.8;" x="51.890572" xlink:href="#m1d3f2e5516" y="224.28"/>
      </g>
     </g>
     <g id="text_1">
      <text style="font-family:DejaVu Sans;font-size:10px;font-style:normal;font-weight:normal;text-anchor:middle;" transform="rotate(-0, 51.890572, 238.878438)" x="51.890572" y="238.878438">0.0</text>
     </g>
    </g>
    <g id="xtick_2">
     <g id="line2d_2">
      <g>
       <use style="stroke:#000000;stroke-width:0.8;" x="98.020206" xlink:href="#m1d3f2e5516" y="224.28"/>
      </g>
     </g>
     <g id="text_2">
      <text style="font-family:DejaVu Sans;font-size:10px;font-style:normal;font-weight:normal;text-anchor:middle;" transform="rotate(-0, 98.020206, 238.878438)" x="98.020206" y="238.878438">0.2</text>
     </g>
    </g>
    <g id="xtick_3">
     <g id="line2d_3">
      <g>
       <use style="stroke:#000000;stroke-width:0.8;" x="144.14984" xlink:href="#m1d3f2e5516" y="224.28"/>
      </g>
     </g>
     <g id="text_3">
      <text style="font-family:DejaVu Sans;font-size:10px;font-style:normal;font-weight:normal;text-anchor:middle;" transform="rotate(-0, 144.14984, 238.878438)" x="144.14984" y="238.878438">0.4</text>
     </g>
    </g>
    <g id="xtick_4">
     <g id="line2d_4">
      <g>
       <use style="stroke:#000000;stroke-width:0.8;" x="190.279474" xlink:href="#m1d3f2e5516" y="224.28"/>
      </g>
     </g>
     <g id="text_4">
      <text style="font-family:DejaVu Sans;font-size:10px;font-style:normal;font-weight:normal;text-anchor:middle;" transform="rotate(-0, 190.279474, 238.878438)" x="190.279474" y="238.878438">0.6</text>
     </g>
    </g>
    <g id="xtick_5">
     <g id="line2d_5">
      <g>
       <use style="stroke:#000000;stroke-width:0.8;" x="236.409108" xlink:href="#m1d3f2e5516" y="224.28"/>
      </g>
     </g>
     <g id="text_5">
      <text style="font-family:DejaVu Sans;font-size:10px;font-style:normal;font-weight:normal;text-anchor:middle;" transform="rotate(-0, 236.409108, 238.878438)" x="236.409108" y="238.878438">0.8</text>
     </g>
    </g>
    <g id="xtick_6">
     <g id="line2d_6">
      <g>
       <use style="stroke:#000000;stroke-width:0.8;" x="282.538742" xlink:href="#m1d3f2e5516" y="224.28"/>
      </g>
     </g>
     <g id="text_6">
      <text style="font-family:DejaVu Sans;font-size:10px;font-style:normal;font-weight:normal;text-anchor:middle;" transform="rotate(-0, 282.538742, 238.878438)" x="282.538742" y="238.878438">1.0</text>
     </g>
    </g>
    <g id="text_7">
     <text style="font-family:DejaVu Sans;font-size:10px;font-style:normal;font-weight:normal;text-anchor:middle;" transform="rotate(-0, 166.05, 252.556563)" x="166.05" y="252.556563">Probability</text>
    </g>
   </g>
   <g id="matplotlib.axis_2">
    <g id="ytick_1">
     <g id="line2d_7">
      <defs>
       <path d="M 0 0 
L -3.5 0 
" id="m616a2e31f4" style="stroke:#000000;stroke-width:0.8;"/>
      </defs>
      <g>
       <use style="stroke:#000000;stroke-width:0.8;" x="40.5" xlink:href="#m616a2e31f4" y="217.188467"/>
      </g>
     </g>
     <g id="text_8">
      <text style="font-family:DejaVu Sans;font-size:10px;font-style:normal;font-weight:normal;text-anchor:end;" transform="rotate(-0, 33.5, 220.987685)" x="33.5" y="220.987685">0</text>
     </g>
    </g>
    <g id="ytick_2">
     <g id="line2d_8">
      <g>
       <use style="stroke:#000000;stroke-width:0.8;" x="40.5" xlink:href="#m616a2e31f4" y="174.906993"/>
      </g>
     </g>
     <g id="text_9">
      <text style="font-family:DejaVu Sans;font-size:10px;font-style:normal;font-weight:normal;text-anchor:end;" transform="rotate(-0, 33.5, 178.706212)" x="33.5" y="178.706212">50</text>
     </g>
    </g>
    <g id="ytick_3">
     <g id="line2d_9">
      <g>
       <use style="stroke:#000000;stroke-width:0.8;" x="40.5" xlink:href="#m616a2e31f4" y="132.625519"/>
      </g>
     </g>
     <g id="text_10">
      <text style="font-family:DejaVu Sans;font-size:10px;font-style:normal;font-weight:normal;text-anchor:end;" transform="rotate(-0, 33.5, 136.424738)" x="33.5" y="136.424738">100</text>
     </g>
    </g>
    <g id="ytick_4">
     <g id="line2d_10">
      <g>
       <use style="stroke:#000000;stroke-width:0.8;" x="40.5" xlink:href="#m616a2e31f4" y="90.344045"/>
      </g>
     </g>
     <g id="text_11">
      <text style="font-family:DejaVu Sans;font-size:10px;font-style:normal;font-weight:normal;text-anchor:end;" transform="rotate(-0, 33.5, 94.143264)" x="33.5" y="94.143264">150</text>
     </g>
    </g>
    <g id="ytick_5">
     <g id="line2d_11">
      <g>
       <use style="stroke:#000000;stroke-width:0.8;" x="40.5" xlink:href="#m616a2e31f4" y="48.062571"/>
      </g>
     </g>
     <g id="text_12">
      <text style="font-family:DejaVu Sans;font-size:10px;font-style:normal;font-weight:normal;text-anchor:end;" transform="rotate(-0, 33.5, 51.86179)" x="33.5" y="51.86179">200</text>
     </g>
    </g>
    <g id="text_13">
     <text style="font-family:DejaVu Sans;font-size:10px;font-style:normal;font-weight:normal;text-anchor:middle;" transform="rotate(-90, 8.332812, 127.26)" x="8.332812" y="127.26">Average Bits Consumed Per Call</text>
    </g>
   </g>
   <g id="line2d_12">
    <path clip-path="url(#p607d299031)" d="M 51.913636 215.416027 
L 54.24295 215.449852 
L 56.572263 215.46 
L 58.901577 215.449852 
L 61.230891 215.421101 
L 63.560204 215.366981 
L 65.889518 215.424484 
L 68.218831 215.373746 
L 70.548145 215.289183 
L 72.877458 215.361907 
L 75.206772 215.208002 
L 77.536085 215.334847 
L 79.865399 215.306095 
L 82.194712 215.265505 
L 84.524026 215.277344 
L 86.85334 215.301022 
L 89.182653 215.223224 
L 91.511967 215.187707 
L 93.84128 215.152191 
L 96.170594 215.074393 
L 98.499907 215.03042 
L 100.829221 214.999978 
L 103.158534 215.028729 
L 105.487848 215.267196 
L 107.817161 214.996595 
L 110.146475 214.96277 
L 112.475788 214.906958 
L 114.805102 214.77504 
L 117.134416 214.624518 
L 119.463729 214.766584 
L 121.793043 214.930636 
L 124.122356 214.764893 
L 126.45167 214.582237 
L 128.780983 214.529808 
L 131.110297 214.563633 
L 133.43961 214.605914 
L 135.768924 214.490909 
L 138.098237 214.362373 
L 140.427551 214.377594 
L 142.756865 214.37252 
L 145.086178 214.181408 
L 147.415492 214.211851 
L 149.744805 214.184791 
L 152.074119 213.963236 
L 154.403432 214.071476 
L 156.732746 214.215233 
L 159.062059 214.034269 
L 161.391373 214.044416 
L 163.720686 213.970001 
L 166.05 213.772124 
L 168.379314 213.873599 
L 170.708627 213.783962 
L 173.037941 213.530274 
L 175.367254 213.5252 
L 177.696568 213.447402 
L 180.025881 213.487992 
L 182.355195 213.334087 
L 184.684508 213.02797 
L 187.013822 213.271511 
L 189.343135 212.940024 
L 191.672449 212.858844 
L 194.001763 212.843622 
L 196.331076 212.6931 
L 198.66039 212.454633 
L 200.989703 212.483384 
L 203.319017 212.207709 
L 205.64833 212.202635 
L 207.977644 211.959094 
L 210.306957 211.910047 
L 212.636271 211.642829 
L 214.965584 211.20141 
L 217.294898 211.546427 
L 219.624212 210.680502 
L 221.953525 210.810729 
L 224.282839 210.48939 
L 226.612152 210.352398 
L 228.941466 210.169742 
L 231.270779 209.647143 
L 233.600093 209.168517 
L 235.929406 209.012921 
L 238.25872 207.911911 
L 240.588033 208.018461 
L 242.917347 207.64131 
L 245.24666 206.734795 
L 247.575974 205.273547 
L 249.905288 206.065057 
L 252.234601 204.436374 
L 254.563915 203.419928 
L 256.893228 200.686853 
L 259.222542 200.490667 
L 261.551855 200.26573 
L 263.881169 197.465005 
L 266.210482 192.543441 
L 268.539796 189.0493 
L 270.869109 184.513344 
L 273.198423 173.533691 
L 275.527737 161.143527 
L 277.85705 135.120126 
L 280.186364 39.06 
" style="fill:none;stroke:#1f77b4;stroke-linecap:square;stroke-width:1.5;"/>
   </g>
   <g id="patch_3">
    <path d="M 40.5 224.28 
L 40.5 30.24 
" style="fill:none;stroke:#000000;stroke-linecap:square;stroke-linejoin:miter;stroke-width:0.8;"/>
   </g>
   <g id="patch_4">
    <path d="M 291.6 224.28 
L 291.6 30.24 
" style="fill:none;stroke:#000000;stroke-linecap:square;stroke-linejoin:miter;stroke-width:0.8;"/>
   </g>
   <g id="patch_5">
    <path d="M 40.5 224.28 
L 291.6 224.28 
" style="fill:none;stroke:#000000;stroke-linecap:square;stroke-linejoin:miter;stroke-width:0.8;"/>
   </g>
   <g id="patch_6">
    <path d="M 40.5 30.24 
L 291.6 30.24 
" style="fill:none;stroke:#000000;stroke-linecap:square;stroke-linejoin:miter;stroke-width:0.8;"/>
   </g>
   <g id="text_14">
    <text style="font-family:DejaVu Sans;font-size:12px;font-style:normal;font-weight:normal;text-anchor:middle;" transform="rotate(-0, 166.05, 24.24)" x="166.05" y="24.24">Avg. Bits Consumed by 1/(1+x) (Even Parity) Algorithm</text>
   </g>
  </g>
 </g>
 <defs>
  <clipPath id="p607d299031">
   <rect height="194.04" width="251.1" x="40.5" y="30.24"/>
  </clipPath>
 </defs>
</svg>
