<?xml version="1.0" encoding="utf-8" standalone="no"?>
<!DOCTYPE svg PUBLIC "-//W3C//DTD SVG 1.1//EN"
  "http://www.w3.org/Graphics/SVG/1.1/DTD/svg11.dtd">
<!-- Created with matplotlib (https://matplotlib.org/) -->
<svg height="252pt" version="1.1" viewBox="0 0 324 252" width="324pt" xmlns="http://www.w3.org/2000/svg" xmlns:xlink="http://www.w3.org/1999/xlink">
 <defs>
  <style type="text/css">
*{stroke-linecap:butt;stroke-linejoin:round;}
  </style>
 </defs>
 <g id="figure_1">
  <g id="patch_1">
   <path d="M 0 252 
L 324 252 
L 324 0 
L 0 0 
z
" style="fill:#ffffff;"/>
  </g>
  <g id="axes_1">
   <g id="patch_2">
    <path d="M 40.5 224.28 
L 291.6 224.28 
L 291.6 30.24 
L 40.5 30.24 
z
" style="fill:#ffffff;"/>
   </g>
   <g id="matplotlib.axis_1">
    <g id="xtick_1">
     <g id="line2d_1">
      <defs>
       <path d="M 0 0 
L 0 3.5 
" id="mc9cc293f0a" style="stroke:#000000;stroke-width:0.8;"/>
      </defs>
      <g>
       <use style="stroke:#000000;stroke-width:0.8;" x="51.890805" xlink:href="#mc9cc293f0a" y="224.28"/>
      </g>
     </g>
     <g id="text_1">
      <text style="font-family:DejaVu Sans;font-size:10px;font-style:normal;font-weight:normal;text-anchor:middle;" transform="rotate(-0, 51.890805, 238.878438)" x="51.890805" y="238.878438">0.0</text>
     </g>
    </g>
    <g id="xtick_2">
     <g id="line2d_2">
      <g>
       <use style="stroke:#000000;stroke-width:0.8;" x="97.554483" xlink:href="#mc9cc293f0a" y="224.28"/>
      </g>
     </g>
     <g id="text_2">
      <text style="font-family:DejaVu Sans;font-size:10px;font-style:normal;font-weight:normal;text-anchor:middle;" transform="rotate(-0, 97.554483, 238.878438)" x="97.554483" y="238.878438">0.2</text>
     </g>
    </g>
    <g id="xtick_3">
     <g id="line2d_3">
      <g>
       <use style="stroke:#000000;stroke-width:0.8;" x="143.218161" xlink:href="#mc9cc293f0a" y="224.28"/>
      </g>
     </g>
     <g id="text_3">
      <text style="font-family:DejaVu Sans;font-size:10px;font-style:normal;font-weight:normal;text-anchor:middle;" transform="rotate(-0, 143.218161, 238.878438)" x="143.218161" y="238.878438">0.4</text>
     </g>
    </g>
    <g id="xtick_4">
     <g id="line2d_4">
      <g>
       <use style="stroke:#000000;stroke-width:0.8;" x="188.881839" xlink:href="#mc9cc293f0a" y="224.28"/>
      </g>
     </g>
     <g id="text_4">
      <text style="font-family:DejaVu Sans;font-size:10px;font-style:normal;font-weight:normal;text-anchor:middle;" transform="rotate(-0, 188.881839, 238.878438)" x="188.881839" y="238.878438">0.6</text>
     </g>
    </g>
    <g id="xtick_5">
     <g id="line2d_5">
      <g>
       <use style="stroke:#000000;stroke-width:0.8;" x="234.545517" xlink:href="#mc9cc293f0a" y="224.28"/>
      </g>
     </g>
     <g id="text_5">
      <text style="font-family:DejaVu Sans;font-size:10px;font-style:normal;font-weight:normal;text-anchor:middle;" transform="rotate(-0, 234.545517, 238.878438)" x="234.545517" y="238.878438">0.8</text>
     </g>
    </g>
    <g id="xtick_6">
     <g id="line2d_6">
      <g>
       <use style="stroke:#000000;stroke-width:0.8;" x="280.209195" xlink:href="#mc9cc293f0a" y="224.28"/>
      </g>
     </g>
     <g id="text_6">
      <text style="font-family:DejaVu Sans;font-size:10px;font-style:normal;font-weight:normal;text-anchor:middle;" transform="rotate(-0, 280.209195, 238.878438)" x="280.209195" y="238.878438">1.0</text>
     </g>
    </g>
    <g id="text_7">
     <text style="font-family:DejaVu Sans;font-size:10px;font-style:normal;font-weight:normal;text-anchor:middle;" transform="rotate(-0, 166.05, 252.556563)" x="166.05" y="252.556563">Input Coin's Heads Probability (λ)</text>
    </g>
   </g>
   <g id="matplotlib.axis_2">
    <g id="ytick_1">
     <g id="line2d_7">
      <defs>
       <path d="M 0 0 
L -3.5 0 
" id="m9892970bb4" style="stroke:#000000;stroke-width:0.8;"/>
      </defs>
      <g>
       <use style="stroke:#000000;stroke-width:0.8;" x="40.5" xlink:href="#m9892970bb4" y="208.675385"/>
      </g>
     </g>
     <g id="text_8">
      <text style="font-family:DejaVu Sans;font-size:10px;font-style:normal;font-weight:normal;text-anchor:end;" transform="rotate(-0, 33.5, 212.474603)" x="33.5" y="212.474603">0.5</text>
     </g>
    </g>
    <g id="ytick_2">
     <g id="line2d_8">
      <g>
       <use style="stroke:#000000;stroke-width:0.8;" x="40.5" xlink:href="#m9892970bb4" y="174.752308"/>
      </g>
     </g>
     <g id="text_9">
      <text style="font-family:DejaVu Sans;font-size:10px;font-style:normal;font-weight:normal;text-anchor:end;" transform="rotate(-0, 33.5, 178.551526)" x="33.5" y="178.551526">0.6</text>
     </g>
    </g>
    <g id="ytick_3">
     <g id="line2d_9">
      <g>
       <use style="stroke:#000000;stroke-width:0.8;" x="40.5" xlink:href="#m9892970bb4" y="140.829231"/>
      </g>
     </g>
     <g id="text_10">
      <text style="font-family:DejaVu Sans;font-size:10px;font-style:normal;font-weight:normal;text-anchor:end;" transform="rotate(-0, 33.5, 144.62845)" x="33.5" y="144.62845">0.7</text>
     </g>
    </g>
    <g id="ytick_4">
     <g id="line2d_10">
      <g>
       <use style="stroke:#000000;stroke-width:0.8;" x="40.5" xlink:href="#m9892970bb4" y="106.906154"/>
      </g>
     </g>
     <g id="text_11">
      <text style="font-family:DejaVu Sans;font-size:10px;font-style:normal;font-weight:normal;text-anchor:end;" transform="rotate(-0, 33.5, 110.705373)" x="33.5" y="110.705373">0.8</text>
     </g>
    </g>
    <g id="ytick_5">
     <g id="line2d_11">
      <g>
       <use style="stroke:#000000;stroke-width:0.8;" x="40.5" xlink:href="#m9892970bb4" y="72.983077"/>
      </g>
     </g>
     <g id="text_12">
      <text style="font-family:DejaVu Sans;font-size:10px;font-style:normal;font-weight:normal;text-anchor:end;" transform="rotate(-0, 33.5, 76.782296)" x="33.5" y="76.782296">0.9</text>
     </g>
    </g>
    <g id="ytick_6">
     <g id="line2d_12">
      <g>
       <use style="stroke:#000000;stroke-width:0.8;" x="40.5" xlink:href="#m9892970bb4" y="39.06"/>
      </g>
     </g>
     <g id="text_13">
      <text style="font-family:DejaVu Sans;font-size:10px;font-style:normal;font-weight:normal;text-anchor:end;" transform="rotate(-0, 33.5, 42.859219)" x="33.5" y="42.859219">1.0</text>
     </g>
    </g>
    <g id="text_14">
     <text style="font-family:DejaVu Sans;font-size:10px;font-style:normal;font-weight:normal;text-anchor:middle;" transform="rotate(-90, 11.517187, 127.26)" x="11.517187" y="127.26">Simulated Mean / Function Value</text>
    </g>
   </g>
   <g id="line2d_13">
    <path clip-path="url(#pfdf0faff50)" d="M 51.913636 39.09392 
L 54.219421 42.484881 
L 56.525207 45.808714 
L 58.830992 49.067393 
L 61.136777 52.262815 
L 63.442562 55.396804 
L 65.748347 58.471115 
L 68.054132 61.487436 
L 70.359917 64.447393 
L 72.665702 67.352551 
L 74.971488 70.204418 
L 77.277273 73.004447 
L 79.583058 75.754038 
L 81.888843 78.454543 
L 84.194628 81.107263 
L 86.500413 83.713457 
L 88.806198 86.274338 
L 91.111983 88.791076 
L 93.417769 91.264804 
L 95.723554 93.696616 
L 98.029339 96.087566 
L 100.335124 98.438678 
L 102.640909 100.750937 
L 104.946694 103.0253 
L 107.252479 105.26269 
L 109.558264 107.464002 
L 111.86405 109.630102 
L 114.169835 111.761827 
L 116.47562 113.859989 
L 118.781405 115.925375 
L 121.08719 117.958747 
L 123.392975 119.960844 
L 125.69876 121.932381 
L 128.004545 123.874053 
L 130.310331 125.786533 
L 132.616116 127.670476 
L 134.921901 129.526514 
L 137.227686 131.355263 
L 139.533471 133.157321 
L 141.839256 134.933268 
L 144.145041 136.683668 
L 146.450826 138.409067 
L 148.756612 140.109997 
L 151.062397 141.786976 
L 153.368182 143.440505 
L 155.673967 145.071073 
L 157.979752 146.679155 
L 160.285537 148.265213 
L 162.591322 149.829697 
L 164.897107 151.373043 
L 167.202893 152.895677 
L 169.508678 154.398014 
L 171.814463 155.880456 
L 174.120248 157.343395 
L 176.426033 158.787216 
L 178.731818 160.212288 
L 181.037603 161.618977 
L 183.343388 163.007634 
L 185.649174 164.378605 
L 187.954959 165.732225 
L 190.260744 167.068821 
L 192.566529 168.388713 
L 194.872314 169.692212 
L 197.178099 170.979622 
L 199.483884 172.251238 
L 201.789669 173.507349 
L 204.095455 174.748237 
L 206.40124 175.974177 
L 208.707025 177.185438 
L 211.01281 178.382282 
L 213.318595 179.564965 
L 215.62438 180.733736 
L 217.930165 181.88884 
L 220.23595 183.030514 
L 222.541736 184.158992 
L 224.847521 185.274502 
L 227.153306 186.377265 
L 229.459091 187.467498 
L 231.764876 188.545415 
L 234.070661 189.611222 
L 236.376446 190.665123 
L 238.682231 191.707316 
L 240.988017 192.737994 
L 243.293802 193.757349 
L 245.599587 194.765564 
L 247.905372 195.762823 
L 250.211157 196.749302 
L 252.516942 197.725176 
L 254.822727 198.690614 
L 257.128512 199.645783 
L 259.434298 200.590846 
L 261.740083 201.525962 
L 264.045868 202.451289 
L 266.351653 203.366978 
L 268.657438 204.273179 
L 270.963223 205.17004 
L 273.269008 206.057703 
L 275.574793 206.93631 
L 277.880579 207.805998 
L 280.186364 208.666903 
" style="fill:none;stroke:#1f77b4;stroke-linecap:square;stroke-width:1.5;"/>
   </g>
   <g id="line2d_14">
    <path clip-path="url(#pfdf0faff50)" d="M 51.913636 39.06 
L 54.219421 43.130769 
L 56.525207 45.166154 
L 58.830992 50.593846 
L 61.136777 52.629231 
L 63.442562 53.986154 
L 65.748347 60.770769 
L 68.054132 60.770769 
L 70.359917 70.947692 
L 72.665702 64.841538 
L 74.971488 66.876923 
L 77.277273 83.16 
L 79.583058 79.089231 
L 81.888843 77.732308 
L 84.194628 77.053846 
L 86.500413 75.018462 
L 88.806198 89.266154 
L 91.111983 87.230769 
L 93.417769 89.266154 
L 95.723554 96.050769 
L 98.029339 85.873846 
L 100.335124 101.478462 
L 102.640909 101.478462 
L 104.946694 98.086154 
L 107.252479 118.44 
L 109.558264 98.764615 
L 111.86405 104.192308 
L 114.169835 119.118462 
L 116.47562 112.333846 
L 118.781405 109.62 
L 121.08719 121.153846 
L 123.392975 115.047692 
L 125.69876 129.295385 
L 128.004545 123.189231 
L 130.310331 141.507692 
L 132.616116 114.369231 
L 134.921901 126.581538 
L 137.227686 142.186154 
L 139.533471 134.723077 
L 141.839256 125.224615 
L 144.145041 147.613846 
L 146.450826 139.472308 
L 148.756612 138.793846 
L 151.062397 135.401538 
L 153.368182 153.041538 
L 155.673967 136.758462 
L 157.979752 151.684615 
L 160.285537 150.327692 
L 162.591322 142.864615 
L 164.897107 151.684615 
L 167.202893 146.256923 
L 169.508678 167.289231 
L 171.814463 148.292308 
L 174.120248 153.041538 
L 176.426033 153.72 
L 178.731818 165.253846 
L 181.037603 162.54 
L 183.343388 157.790769 
L 185.649174 172.716923 
L 187.954959 163.218462 
L 190.260744 169.324615 
L 192.566529 159.826154 
L 194.872314 155.755385 
L 197.178099 172.716923 
L 199.483884 165.932308 
L 201.789669 165.253846 
L 204.095455 178.823077 
L 206.40124 174.073846 
L 208.707025 174.073846 
L 211.01281 184.929231 
L 213.318595 186.964615 
L 215.62438 196.463077 
L 217.930165 182.893846 
L 220.23595 182.893846 
L 222.541736 181.536923 
L 224.847521 181.536923 
L 227.153306 182.893846 
L 229.459091 191.713846 
L 231.764876 178.144615 
L 234.070661 193.749231 
L 236.376446 191.713846 
L 238.682231 186.286154 
L 240.988017 191.035385 
L 243.293802 205.961538 
L 245.599587 205.283077 
L 247.905372 197.141538 
L 250.211157 202.569231 
L 252.516942 215.46 
L 254.822727 201.212308 
L 257.128512 191.713846 
L 259.434298 205.283077 
L 261.740083 199.855385 
L 264.045868 215.46 
L 266.351653 197.141538 
L 268.657438 205.961538 
L 270.963223 197.82 
L 273.269008 214.103077 
L 275.574793 210.710769 
L 277.880579 207.996923 
" style="fill:none;stroke:#ff7f0e;stroke-linecap:square;stroke-width:1.5;"/>
   </g>
   <g id="patch_3">
    <path d="M 40.5 224.28 
L 40.5 30.24 
" style="fill:none;stroke:#000000;stroke-linecap:square;stroke-linejoin:miter;stroke-width:0.8;"/>
   </g>
   <g id="patch_4">
    <path d="M 291.6 224.28 
L 291.6 30.24 
" style="fill:none;stroke:#000000;stroke-linecap:square;stroke-linejoin:miter;stroke-width:0.8;"/>
   </g>
   <g id="patch_5">
    <path d="M 40.5 224.28 
L 291.6 224.28 
" style="fill:none;stroke:#000000;stroke-linecap:square;stroke-linejoin:miter;stroke-width:0.8;"/>
   </g>
   <g id="patch_6">
    <path d="M 40.5 30.24 
L 291.6 30.24 
" style="fill:none;stroke:#000000;stroke-linecap:square;stroke-linejoin:miter;stroke-width:0.8;"/>
   </g>
   <g id="text_15">
    <text style="font-family:DejaVu Sans;font-size:12px;font-style:normal;font-weight:normal;text-anchor:middle;" transform="rotate(-0, 166.05, 24.24)" x="166.05" y="24.24">Expected Value in 1/(1+x) (Even Parity) Algorithm</text>
   </g>
   <g id="legend_1">
    <g id="patch_7">
     <path d="M 50.128125 67.59625 
L 284.6 67.59625 
Q 286.6 67.59625 286.6 65.59625 
L 286.6 37.24 
Q 286.6 35.24 284.6 35.24 
L 50.128125 35.24 
Q 48.128125 35.24 48.128125 37.24 
L 48.128125 65.59625 
Q 48.128125 67.59625 50.128125 67.59625 
z
" style="fill:#ffffff;opacity:0.8;stroke:#cccccc;stroke-linejoin:miter;"/>
    </g>
    <g id="line2d_15">
     <path d="M 52.128125 43.338438 
L 72.128125 43.338438 
" style="fill:none;stroke:#1f77b4;stroke-linecap:square;stroke-width:1.5;"/>
    </g>
    <g id="line2d_16"/>
    <g id="text_16">
     <text style="font-family:DejaVu Sans;font-size:10px;font-style:normal;font-weight:normal;text-anchor:start;" transform="rotate(-0, 80.128125, 46.838438)" x="80.128125" y="46.838438">1/(1+x)</text>
    </g>
    <g id="line2d_17">
     <path d="M 52.128125 58.016563 
L 72.128125 58.016563 
" style="fill:none;stroke:#ff7f0e;stroke-linecap:square;stroke-width:1.5;"/>
    </g>
    <g id="line2d_18"/>
    <g id="text_17">
     <text style="font-family:DejaVu Sans;font-size:10px;font-style:normal;font-weight:normal;text-anchor:start;" transform="rotate(-0, 80.128125, 61.516563)" x="80.128125" y="61.516563">Simulated Mean of 1/(1+x) (Even Parity)</text>
    </g>
   </g>
  </g>
 </g>
 <defs>
  <clipPath id="pfdf0faff50">
   <rect height="194.04" width="251.1" x="40.5" y="30.24"/>
  </clipPath>
 </defs>
</svg>
