<?xml version="1.0" encoding="utf-8" standalone="no"?>
<!DOCTYPE svg PUBLIC "-//W3C//DTD SVG 1.1//EN"
  "http://www.w3.org/Graphics/SVG/1.1/DTD/svg11.dtd">
<!-- Created with matplotlib (https://matplotlib.org/) -->
<svg height="345.6pt" version="1.1" viewBox="0 0 460.8 345.6" width="460.8pt" xmlns="http://www.w3.org/2000/svg" xmlns:xlink="http://www.w3.org/1999/xlink">
 <defs>
  <style type="text/css">
*{stroke-linecap:butt;stroke-linejoin:round;}
  </style>
 </defs>
 <g id="figure_1">
  <g id="patch_1">
   <path d="M 0 345.6 
L 460.8 345.6 
L 460.8 0 
L 0 0 
z
" style="fill:#ffffff;"/>
  </g>
  <g id="axes_1">
   <g id="patch_2">
    <path d="M 57.6 307.584 
L 414.72 307.584 
L 414.72 41.472 
L 57.6 41.472 
z
" style="fill:#ffffff;"/>
   </g>
   <g id="matplotlib.axis_1">
    <g id="xtick_1">
     <g id="line2d_1">
      <defs>
       <path d="M 0 0 
L 0 3.5 
" id="m5a01838c4c" style="stroke:#000000;stroke-width:0.8;"/>
      </defs>
      <g>
       <use style="stroke:#000000;stroke-width:0.8;" x="73.800255" xlink:href="#m5a01838c4c" y="307.584"/>
      </g>
     </g>
     <g id="text_1">
      <text style="font-family:DejaVu Sans;font-size:10px;font-style:normal;font-weight:normal;text-anchor:middle;" transform="rotate(-0, 73.800255, 322.182437)" x="73.800255" y="322.182437">0.0</text>
     </g>
    </g>
    <g id="xtick_2">
     <g id="line2d_2">
      <g>
       <use style="stroke:#000000;stroke-width:0.8;" x="138.744153" xlink:href="#m5a01838c4c" y="307.584"/>
      </g>
     </g>
     <g id="text_2">
      <text style="font-family:DejaVu Sans;font-size:10px;font-style:normal;font-weight:normal;text-anchor:middle;" transform="rotate(-0, 138.744153, 322.182437)" x="138.744153" y="322.182437">0.2</text>
     </g>
    </g>
    <g id="xtick_3">
     <g id="line2d_3">
      <g>
       <use style="stroke:#000000;stroke-width:0.8;" x="203.688051" xlink:href="#m5a01838c4c" y="307.584"/>
      </g>
     </g>
     <g id="text_3">
      <text style="font-family:DejaVu Sans;font-size:10px;font-style:normal;font-weight:normal;text-anchor:middle;" transform="rotate(-0, 203.688051, 322.182437)" x="203.688051" y="322.182437">0.4</text>
     </g>
    </g>
    <g id="xtick_4">
     <g id="line2d_4">
      <g>
       <use style="stroke:#000000;stroke-width:0.8;" x="268.631949" xlink:href="#m5a01838c4c" y="307.584"/>
      </g>
     </g>
     <g id="text_4">
      <text style="font-family:DejaVu Sans;font-size:10px;font-style:normal;font-weight:normal;text-anchor:middle;" transform="rotate(-0, 268.631949, 322.182437)" x="268.631949" y="322.182437">0.6</text>
     </g>
    </g>
    <g id="xtick_5">
     <g id="line2d_5">
      <g>
       <use style="stroke:#000000;stroke-width:0.8;" x="333.575847" xlink:href="#m5a01838c4c" y="307.584"/>
      </g>
     </g>
     <g id="text_5">
      <text style="font-family:DejaVu Sans;font-size:10px;font-style:normal;font-weight:normal;text-anchor:middle;" transform="rotate(-0, 333.575847, 322.182437)" x="333.575847" y="322.182437">0.8</text>
     </g>
    </g>
    <g id="xtick_6">
     <g id="line2d_6">
      <g>
       <use style="stroke:#000000;stroke-width:0.8;" x="398.519745" xlink:href="#m5a01838c4c" y="307.584"/>
      </g>
     </g>
     <g id="text_6">
      <text style="font-family:DejaVu Sans;font-size:10px;font-style:normal;font-weight:normal;text-anchor:middle;" transform="rotate(-0, 398.519745, 322.182437)" x="398.519745" y="322.182437">1.0</text>
     </g>
    </g>
    <g id="text_7">
     <text style="font-family:DejaVu Sans;font-size:10px;font-style:normal;font-weight:normal;text-anchor:middle;" transform="rotate(-0, 236.16, 335.860562)" x="236.16" y="335.860562">Input Coin's Heads Probability (λ)</text>
    </g>
   </g>
   <g id="matplotlib.axis_2">
    <g id="ytick_1">
     <g id="line2d_7">
      <defs>
       <path d="M 0 0 
L -3.5 0 
" id="m45effc0bd0" style="stroke:#000000;stroke-width:0.8;"/>
      </defs>
      <g>
       <use style="stroke:#000000;stroke-width:0.8;" x="57.6" xlink:href="#m45effc0bd0" y="293.568"/>
      </g>
     </g>
     <g id="text_8">
      <text style="font-family:DejaVu Sans;font-size:10px;font-style:normal;font-weight:normal;text-anchor:end;" transform="rotate(-0, 50.6, 297.367219)" x="50.6" y="297.367219">0.5</text>
     </g>
    </g>
    <g id="ytick_2">
     <g id="line2d_8">
      <g>
       <use style="stroke:#000000;stroke-width:0.8;" x="57.6" xlink:href="#m45effc0bd0" y="245.568"/>
      </g>
     </g>
     <g id="text_9">
      <text style="font-family:DejaVu Sans;font-size:10px;font-style:normal;font-weight:normal;text-anchor:end;" transform="rotate(-0, 50.6, 249.367219)" x="50.6" y="249.367219">0.6</text>
     </g>
    </g>
    <g id="ytick_3">
     <g id="line2d_9">
      <g>
       <use style="stroke:#000000;stroke-width:0.8;" x="57.6" xlink:href="#m45effc0bd0" y="197.568"/>
      </g>
     </g>
     <g id="text_10">
      <text style="font-family:DejaVu Sans;font-size:10px;font-style:normal;font-weight:normal;text-anchor:end;" transform="rotate(-0, 50.6, 201.367219)" x="50.6" y="201.367219">0.7</text>
     </g>
    </g>
    <g id="ytick_4">
     <g id="line2d_10">
      <g>
       <use style="stroke:#000000;stroke-width:0.8;" x="57.6" xlink:href="#m45effc0bd0" y="149.568"/>
      </g>
     </g>
     <g id="text_11">
      <text style="font-family:DejaVu Sans;font-size:10px;font-style:normal;font-weight:normal;text-anchor:end;" transform="rotate(-0, 50.6, 153.367219)" x="50.6" y="153.367219">0.8</text>
     </g>
    </g>
    <g id="ytick_5">
     <g id="line2d_11">
      <g>
       <use style="stroke:#000000;stroke-width:0.8;" x="57.6" xlink:href="#m45effc0bd0" y="101.568"/>
      </g>
     </g>
     <g id="text_12">
      <text style="font-family:DejaVu Sans;font-size:10px;font-style:normal;font-weight:normal;text-anchor:end;" transform="rotate(-0, 50.6, 105.367219)" x="50.6" y="105.367219">0.9</text>
     </g>
    </g>
    <g id="ytick_6">
     <g id="line2d_12">
      <g>
       <use style="stroke:#000000;stroke-width:0.8;" x="57.6" xlink:href="#m45effc0bd0" y="53.568"/>
      </g>
     </g>
     <g id="text_13">
      <text style="font-family:DejaVu Sans;font-size:10px;font-style:normal;font-weight:normal;text-anchor:end;" transform="rotate(-0, 50.6, 57.367219)" x="50.6" y="57.367219">1.0</text>
     </g>
    </g>
    <g id="text_14">
     <text style="font-family:DejaVu Sans;font-size:10px;font-style:normal;font-weight:normal;text-anchor:middle;" transform="rotate(-90, 28.617187, 174.528)" x="28.617187" y="174.528">Simulated Mean / Function Value</text>
    </g>
   </g>
   <g id="line2d_13">
    <path clip-path="url(#paabc9dc8af)" d="M 73.832727 53.615995 
L 77.112066 58.41409 
L 80.391405 63.117201 
L 83.670744 67.728121 
L 86.950083 72.249534 
L 90.229421 76.684022 
L 93.50876 81.034067 
L 96.788099 85.302059 
L 100.067438 89.490298 
L 103.346777 93.600998 
L 106.626116 97.636292 
L 109.905455 101.598238 
L 113.184793 105.488816 
L 116.464132 109.309938 
L 119.743471 113.063448 
L 123.02281 116.751123 
L 126.302149 120.374682 
L 129.581488 123.935781 
L 132.860826 127.436022 
L 136.140165 130.876953 
L 139.419504 134.260067 
L 142.698843 137.586809 
L 145.978182 140.858578 
L 149.257521 144.076724 
L 152.53686 147.242555 
L 155.816198 150.357337 
L 159.095537 153.422293 
L 162.374876 156.438612 
L 165.654215 159.40744 
L 168.933554 162.329891 
L 172.212893 165.207043 
L 175.492231 168.039942 
L 178.77157 170.8296 
L 182.050909 173.577 
L 185.330248 176.283095 
L 188.609587 178.948809 
L 191.888926 181.57504 
L 195.168264 184.162658 
L 198.447603 186.712509 
L 201.726942 189.225414 
L 205.006281 191.702169 
L 208.28562 194.14355 
L 211.564959 196.550309 
L 214.844298 198.923176 
L 218.123636 201.262864 
L 221.402975 203.570062 
L 224.682314 205.845444 
L 227.961653 208.089663 
L 231.240992 210.303354 
L 234.520331 212.487136 
L 237.799669 214.641611 
L 241.079008 216.767366 
L 244.358347 218.864971 
L 247.637686 220.934981 
L 250.917025 222.977938 
L 254.196364 224.994367 
L 257.475702 226.984783 
L 260.755041 228.949686 
L 264.03438 230.889563 
L 267.313719 232.80489 
L 270.593058 234.696128 
L 273.872397 236.563731 
L 277.151736 238.408137 
L 280.431074 240.229778 
L 283.710413 242.029071 
L 286.989752 243.806425 
L 290.269091 245.56224 
L 293.54843 247.296904 
L 296.827769 249.010797 
L 300.107107 250.704291 
L 303.386446 252.377746 
L 306.665785 254.031518 
L 309.945124 255.66595 
L 313.224463 257.281381 
L 316.503802 258.878139 
L 319.78314 260.456547 
L 323.062479 262.016919 
L 326.341818 263.559562 
L 329.621157 265.084778 
L 332.900496 266.592859 
L 336.179835 268.084092 
L 339.459174 269.55876 
L 342.738512 271.017135 
L 346.017851 272.459487 
L 349.29719 273.886078 
L 352.576529 275.297165 
L 355.855868 276.692999 
L 359.135207 278.073827 
L 362.414545 279.439889 
L 365.693884 280.791421 
L 368.973223 282.128653 
L 372.252562 283.451811 
L 375.531901 284.761116 
L 378.81124 286.056785 
L 382.090579 287.339029 
L 385.369917 288.608056 
L 388.649256 289.86407 
L 391.928595 291.107268 
L 395.207934 292.337848 
L 398.487273 293.555999 
" style="fill:none;stroke:#1f77b4;stroke-linecap:square;stroke-width:1.5;"/>
   </g>
   <g id="line2d_14">
    <path clip-path="url(#paabc9dc8af)" d="M 73.832727 53.568 
L 77.112066 58.368 
L 80.391405 58.368 
L 83.670744 64.128 
L 86.950083 73.728 
L 90.229421 78.528 
L 93.50876 81.408 
L 96.788099 88.128 
L 100.067438 99.648 
L 103.346777 87.168 
L 106.626116 95.808 
L 109.905455 100.608 
L 113.184793 113.088 
L 116.464132 102.528 
L 119.743471 115.968 
L 123.02281 108.288 
L 126.302149 128.448 
L 129.581488 119.808 
L 132.860826 126.528 
L 136.140165 128.448 
L 139.419504 133.248 
L 142.698843 139.008 
L 145.978182 137.088 
L 149.257521 139.968 
L 152.53686 138.048 
L 155.816198 139.968 
L 159.095537 160.128 
L 162.374876 148.608 
L 165.654215 172.608 
L 168.933554 156.288 
L 172.212893 185.088 
L 175.492231 164.928 
L 178.77157 173.568 
L 182.050909 190.848 
L 185.330248 187.008 
L 188.609587 174.528 
L 191.888926 197.568 
L 195.168264 179.328 
L 198.447603 189.888 
L 201.726942 184.128 
L 205.006281 193.728 
L 208.28562 188.928 
L 211.564959 203.328 
L 214.844298 202.368 
L 218.123636 199.488 
L 221.402975 193.728 
L 224.682314 201.408 
L 227.961653 203.328 
L 231.240992 225.408 
L 234.520331 226.368 
L 237.799669 200.448 
L 241.079008 216.768 
L 244.358347 214.848 
L 247.637686 249.408 
L 250.917025 204.288 
L 254.196364 229.248 
L 257.475702 228.288 
L 260.755041 215.808 
L 264.03438 233.088 
L 267.313719 223.488 
L 270.593058 241.728 
L 273.872397 244.608 
L 277.151736 271.488 
L 280.431074 268.608 
L 283.710413 239.808 
L 286.989752 257.088 
L 290.269091 250.368 
L 293.54843 243.648 
L 296.827769 255.168 
L 300.107107 250.368 
L 303.386446 250.368 
L 306.665785 247.488 
L 309.945124 243.648 
L 313.224463 265.728 
L 316.503802 246.528 
L 319.78314 259.008 
L 323.062479 266.688 
L 326.341818 262.848 
L 329.621157 258.048 
L 332.900496 266.688 
L 336.179835 275.328 
L 339.459174 259.968 
L 342.738512 264.768 
L 346.017851 261.888 
L 349.29719 262.848 
L 352.576529 269.568 
L 355.855868 284.928 
L 359.135207 283.968 
L 362.414545 293.568 
L 365.693884 295.488 
L 368.973223 290.688 
L 372.252562 292.608 
L 375.531901 292.608 
L 378.81124 287.808 
L 382.090579 287.808 
L 385.369917 290.688 
L 388.649256 291.648 
L 391.928595 283.008 
L 395.207934 291.648 
" style="fill:none;stroke:#ff7f0e;stroke-linecap:square;stroke-width:1.5;"/>
   </g>
   <g id="patch_3">
    <path d="M 57.6 307.584 
L 57.6 41.472 
" style="fill:none;stroke:#000000;stroke-linecap:square;stroke-linejoin:miter;stroke-width:0.8;"/>
   </g>
   <g id="patch_4">
    <path d="M 414.72 307.584 
L 414.72 41.472 
" style="fill:none;stroke:#000000;stroke-linecap:square;stroke-linejoin:miter;stroke-width:0.8;"/>
   </g>
   <g id="patch_5">
    <path d="M 57.6 307.584 
L 414.72 307.584 
" style="fill:none;stroke:#000000;stroke-linecap:square;stroke-linejoin:miter;stroke-width:0.8;"/>
   </g>
   <g id="patch_6">
    <path d="M 57.6 41.472 
L 414.72 41.472 
" style="fill:none;stroke:#000000;stroke-linecap:square;stroke-linejoin:miter;stroke-width:0.8;"/>
   </g>
   <g id="text_15">
    <text style="font-family:DejaVu Sans;font-size:12px;font-style:normal;font-weight:normal;" transform="translate(80.919375 22.034625)">Simulated Mean for 1/(1+x) (Even Parity) Algorithm</text>
    <text style="font-family:DejaVu Sans;font-size:12px;font-style:normal;font-weight:normal;" transform="translate(132.609375 35.472)">(Wasserstein Distances in Legend)</text>
   </g>
   <g id="legend_1">
    <g id="patch_7">
     <path d="M 229.47 78.82825 
L 407.72 78.82825 
Q 409.72 78.82825 409.72 76.82825 
L 409.72 48.472 
Q 409.72 46.472 407.72 46.472 
L 229.47 46.472 
Q 227.47 46.472 227.47 48.472 
L 227.47 76.82825 
Q 227.47 78.82825 229.47 78.82825 
z
" style="fill:#ffffff;opacity:0.8;stroke:#cccccc;stroke-linejoin:miter;"/>
    </g>
    <g id="line2d_15">
     <path d="M 231.47 54.570437 
L 251.47 54.570437 
" style="fill:none;stroke:#1f77b4;stroke-linecap:square;stroke-width:1.5;"/>
    </g>
    <g id="line2d_16"/>
    <g id="text_16">
     <text style="font-family:DejaVu Sans;font-size:10px;font-style:normal;font-weight:normal;text-anchor:start;" transform="rotate(-0, 259.47, 58.070437)" x="259.47" y="58.070437">1/(1+x)</text>
    </g>
    <g id="line2d_17">
     <path d="M 231.47 69.248562 
L 251.47 69.248562 
" style="fill:none;stroke:#ff7f0e;stroke-linecap:square;stroke-width:1.5;"/>
    </g>
    <g id="line2d_18"/>
    <g id="text_17">
     <text style="font-family:DejaVu Sans;font-size:10px;font-style:normal;font-weight:normal;text-anchor:start;" transform="rotate(-0, 259.47, 72.748562)" x="259.47" y="72.748562">Simul. Mean (WD=0.006377)</text>
    </g>
   </g>
  </g>
 </g>
 <defs>
  <clipPath id="paabc9dc8af">
   <rect height="266.112" width="357.12" x="57.6" y="41.472"/>
  </clipPath>
 </defs>
</svg>
