<?xml version="1.0" encoding="utf-8" standalone="no"?>
<!DOCTYPE svg PUBLIC "-//W3C//DTD SVG 1.1//EN"
  "http://www.w3.org/Graphics/SVG/1.1/DTD/svg11.dtd">
<!-- Created with matplotlib (https://matplotlib.org/) -->
<svg height="345.6pt" version="1.1" viewBox="0 0 460.8 345.6" width="460.8pt" xmlns="http://www.w3.org/2000/svg" xmlns:xlink="http://www.w3.org/1999/xlink">
 <defs>
  <style type="text/css">
*{stroke-linecap:butt;stroke-linejoin:round;}
  </style>
 </defs>
 <g id="figure_1">
  <g id="patch_1">
   <path d="M 0 345.6 
L 460.8 345.6 
L 460.8 0 
L 0 0 
z
" style="fill:#ffffff;"/>
  </g>
  <g id="axes_1">
   <g id="patch_2">
    <path d="M 57.6 307.584 
L 414.72 307.584 
L 414.72 41.472 
L 57.6 41.472 
z
" style="fill:#ffffff;"/>
   </g>
   <g id="matplotlib.axis_1">
    <g id="xtick_1">
     <g id="line2d_1">
      <defs>
       <path d="M 0 0 
L 0 3.5 
" id="m12aedf9ccc" style="stroke:#000000;stroke-width:0.8;"/>
      </defs>
      <g>
       <use style="stroke:#000000;stroke-width:0.8;" x="73.800255" xlink:href="#m12aedf9ccc" y="307.584"/>
      </g>
     </g>
     <g id="text_1">
      <text style="font-family:DejaVu Sans;font-size:10px;font-style:normal;font-weight:normal;text-anchor:middle;" transform="rotate(-0, 73.800255, 322.182437)" x="73.800255" y="322.182437">0.0</text>
     </g>
    </g>
    <g id="xtick_2">
     <g id="line2d_2">
      <g>
       <use style="stroke:#000000;stroke-width:0.8;" x="138.744153" xlink:href="#m12aedf9ccc" y="307.584"/>
      </g>
     </g>
     <g id="text_2">
      <text style="font-family:DejaVu Sans;font-size:10px;font-style:normal;font-weight:normal;text-anchor:middle;" transform="rotate(-0, 138.744153, 322.182437)" x="138.744153" y="322.182437">0.2</text>
     </g>
    </g>
    <g id="xtick_3">
     <g id="line2d_3">
      <g>
       <use style="stroke:#000000;stroke-width:0.8;" x="203.688051" xlink:href="#m12aedf9ccc" y="307.584"/>
      </g>
     </g>
     <g id="text_3">
      <text style="font-family:DejaVu Sans;font-size:10px;font-style:normal;font-weight:normal;text-anchor:middle;" transform="rotate(-0, 203.688051, 322.182437)" x="203.688051" y="322.182437">0.4</text>
     </g>
    </g>
    <g id="xtick_4">
     <g id="line2d_4">
      <g>
       <use style="stroke:#000000;stroke-width:0.8;" x="268.631949" xlink:href="#m12aedf9ccc" y="307.584"/>
      </g>
     </g>
     <g id="text_4">
      <text style="font-family:DejaVu Sans;font-size:10px;font-style:normal;font-weight:normal;text-anchor:middle;" transform="rotate(-0, 268.631949, 322.182437)" x="268.631949" y="322.182437">0.6</text>
     </g>
    </g>
    <g id="xtick_5">
     <g id="line2d_5">
      <g>
       <use style="stroke:#000000;stroke-width:0.8;" x="333.575847" xlink:href="#m12aedf9ccc" y="307.584"/>
      </g>
     </g>
     <g id="text_5">
      <text style="font-family:DejaVu Sans;font-size:10px;font-style:normal;font-weight:normal;text-anchor:middle;" transform="rotate(-0, 333.575847, 322.182437)" x="333.575847" y="322.182437">0.8</text>
     </g>
    </g>
    <g id="xtick_6">
     <g id="line2d_6">
      <g>
       <use style="stroke:#000000;stroke-width:0.8;" x="398.519745" xlink:href="#m12aedf9ccc" y="307.584"/>
      </g>
     </g>
     <g id="text_6">
      <text style="font-family:DejaVu Sans;font-size:10px;font-style:normal;font-weight:normal;text-anchor:middle;" transform="rotate(-0, 398.519745, 322.182437)" x="398.519745" y="322.182437">1.0</text>
     </g>
    </g>
    <g id="text_7">
     <text style="font-family:DejaVu Sans;font-size:10px;font-style:normal;font-weight:normal;text-anchor:middle;" transform="rotate(-0, 236.16, 335.860562)" x="236.16" y="335.860562">Input Coin's Heads Probability (λ)</text>
    </g>
   </g>
   <g id="matplotlib.axis_2">
    <g id="ytick_1">
     <g id="line2d_7">
      <defs>
       <path d="M 0 0 
L -3.5 0 
" id="m39ddc57b55" style="stroke:#000000;stroke-width:0.8;"/>
      </defs>
      <g>
       <use style="stroke:#000000;stroke-width:0.8;" x="57.6" xlink:href="#m39ddc57b55" y="295.488067"/>
      </g>
     </g>
     <g id="text_8">
      <text style="font-family:DejaVu Sans;font-size:10px;font-style:normal;font-weight:normal;text-anchor:end;" transform="rotate(-0, 50.6, 299.287286)" x="50.6" y="299.287286">0</text>
     </g>
    </g>
    <g id="ytick_2">
     <g id="line2d_8">
      <g>
       <use style="stroke:#000000;stroke-width:0.8;" x="57.6" xlink:href="#m39ddc57b55" y="241.710126"/>
      </g>
     </g>
     <g id="text_9">
      <text style="font-family:DejaVu Sans;font-size:10px;font-style:normal;font-weight:normal;text-anchor:end;" transform="rotate(-0, 50.6, 245.509345)" x="50.6" y="245.509345">20</text>
     </g>
    </g>
    <g id="ytick_3">
     <g id="line2d_9">
      <g>
       <use style="stroke:#000000;stroke-width:0.8;" x="57.6" xlink:href="#m39ddc57b55" y="187.932185"/>
      </g>
     </g>
     <g id="text_10">
      <text style="font-family:DejaVu Sans;font-size:10px;font-style:normal;font-weight:normal;text-anchor:end;" transform="rotate(-0, 50.6, 191.731404)" x="50.6" y="191.731404">40</text>
     </g>
    </g>
    <g id="ytick_4">
     <g id="line2d_10">
      <g>
       <use style="stroke:#000000;stroke-width:0.8;" x="57.6" xlink:href="#m39ddc57b55" y="134.154244"/>
      </g>
     </g>
     <g id="text_11">
      <text style="font-family:DejaVu Sans;font-size:10px;font-style:normal;font-weight:normal;text-anchor:end;" transform="rotate(-0, 50.6, 137.953463)" x="50.6" y="137.953463">60</text>
     </g>
    </g>
    <g id="ytick_5">
     <g id="line2d_11">
      <g>
       <use style="stroke:#000000;stroke-width:0.8;" x="57.6" xlink:href="#m39ddc57b55" y="80.376304"/>
      </g>
     </g>
     <g id="text_12">
      <text style="font-family:DejaVu Sans;font-size:10px;font-style:normal;font-weight:normal;text-anchor:end;" transform="rotate(-0, 50.6, 84.175522)" x="50.6" y="84.175522">80</text>
     </g>
    </g>
    <g id="text_13">
     <text style="font-family:DejaVu Sans;font-size:10px;font-style:normal;font-weight:normal;text-anchor:middle;" transform="rotate(-90, 31.795312, 174.528)" x="31.795312" y="174.528">Coin Flips Needed</text>
    </g>
   </g>
   <g id="line2d_12">
    <path clip-path="url(#p1aee1fe141)" d="M 73.832727 292.799977 
L 77.112066 292.880063 
L 80.391405 292.957522 
L 83.670744 293.032459 
L 86.950083 293.104979 
L 90.229421 293.175177 
L 93.50876 293.243146 
L 96.788099 293.308975 
L 100.067438 293.372746 
L 103.346777 293.434542 
L 106.626116 293.494436 
L 109.905455 293.552502 
L 113.184793 293.608809 
L 116.464132 293.663423 
L 119.743471 293.716406 
L 123.02281 293.767821 
L 126.302149 293.817722 
L 129.581488 293.866167 
L 132.860826 293.913207 
L 136.140165 293.958892 
L 139.419504 294.00327 
L 142.698843 294.046389 
L 145.978182 294.08829 
L 149.257521 294.129018 
L 152.53686 294.168611 
L 155.816198 294.20711 
L 159.095537 294.244551 
L 162.374876 294.280969 
L 165.654215 294.316399 
L 168.933554 294.350874 
L 172.212893 294.384425 
L 175.492231 294.417083 
L 178.77157 294.448875 
L 182.050909 294.479832 
L 185.330248 294.509978 
L 188.609587 294.53934 
L 191.888926 294.567943 
L 195.168264 294.595811 
L 198.447603 294.622966 
L 201.726942 294.64943 
L 205.006281 294.675226 
L 208.28562 294.700372 
L 211.564959 294.72489 
L 214.844298 294.748798 
L 218.123636 294.772114 
L 221.402975 294.794856 
L 224.682314 294.817041 
L 227.961653 294.838686 
L 231.240992 294.859806 
L 234.520331 294.880416 
L 237.799669 294.900531 
L 241.079008 294.920166 
L 244.358347 294.939335 
L 247.637686 294.958049 
L 250.917025 294.976323 
L 254.196364 294.994169 
L 257.475702 295.011598 
L 260.755041 295.028622 
L 264.03438 295.045253 
L 267.313719 295.061501 
L 270.593058 295.077377 
L 273.872397 295.09289 
L 277.151736 295.108051 
L 280.431074 295.122869 
L 283.710413 295.137353 
L 286.989752 295.151512 
L 290.269091 295.165354 
L 293.54843 295.178889 
L 296.827769 295.192123 
L 300.107107 295.205066 
L 303.386446 295.217723 
L 306.665785 295.230104 
L 309.945124 295.242214 
L 313.224463 295.254061 
L 316.503802 295.265651 
L 319.78314 295.276991 
L 323.062479 295.288087 
L 326.341818 295.298945 
L 329.621157 295.309571 
L 332.900496 295.319972 
L 336.179835 295.330151 
L 339.459174 295.340116 
L 342.738512 295.34987 
L 346.017851 295.35942 
L 349.29719 295.36877 
L 352.576529 295.377925 
L 355.855868 295.386889 
L 359.135207 295.395667 
L 362.414545 295.404264 
L 365.693884 295.412684 
L 368.973223 295.420931 
L 372.252562 295.429009 
L 375.531901 295.436922 
L 378.81124 295.444674 
L 382.090579 295.452268 
L 385.369917 295.459708 
L 388.649256 295.466998 
L 391.928595 295.474141 
L 395.207934 295.481141 
L 398.487273 295.488 
" style="fill:none;stroke:#1f77b4;stroke-linecap:square;stroke-width:1.5;"/>
   </g>
   <g id="line2d_13">
    <path clip-path="url(#p1aee1fe141)" d="M 73.832727 292.79917 
L 77.112066 292.772281 
L 80.391405 292.713125 
L 83.670744 292.696992 
L 86.950083 292.718503 
L 90.229421 292.664725 
L 93.50876 292.637836 
L 96.788099 292.551792 
L 100.067438 292.578681 
L 103.346777 292.492636 
L 106.626116 292.438858 
L 109.905455 292.411969 
L 113.184793 292.390458 
L 116.464132 292.390458 
L 119.743471 292.401213 
L 123.02281 292.331302 
L 126.302149 292.28828 
L 129.581488 292.148457 
L 132.860826 292.256013 
L 136.140165 292.094679 
L 139.419504 292.148457 
L 142.698843 291.949479 
L 145.978182 292.094679 
L 149.257521 292.040901 
L 152.53686 291.960234 
L 155.816198 291.815034 
L 159.095537 291.594544 
L 162.374876 291.831167 
L 165.654215 291.87419 
L 168.933554 291.621433 
L 172.212893 291.567655 
L 175.492231 291.594544 
L 178.77157 291.23961 
L 182.050909 291.411699 
L 185.330248 291.314899 
L 188.609587 291.250365 
L 191.888926 291.169699 
L 195.168264 291.115921 
L 198.447603 291.374055 
L 201.726942 290.92232 
L 205.006281 291.153565 
L 208.28562 290.734097 
L 211.564959 290.954587 
L 214.844298 290.664186 
L 218.123636 290.723342 
L 221.402975 290.621164 
L 224.682314 290.174807 
L 227.961653 290.551252 
L 231.240992 290.266229 
L 234.520331 290.486719 
L 237.799669 289.981206 
L 241.079008 289.981206 
L 244.358347 289.879028 
L 247.637686 289.879028 
L 250.917025 289.792983 
L 254.196364 289.60476 
L 257.475702 289.550983 
L 260.755041 289.126137 
L 264.03438 289.056225 
L 267.313719 288.45929 
L 270.593058 288.652891 
L 273.872397 288.615246 
L 277.151736 288.453913 
L 280.431074 288.222667 
L 283.710413 287.910755 
L 286.989752 286.926619 
L 290.269091 287.356843 
L 293.54843 287.163242 
L 296.827769 286.657729 
L 300.107107 286.125328 
L 303.386446 286.189861 
L 306.665785 285.426214 
L 309.945124 285.34017 
L 313.224463 285.458481 
L 316.503802 284.780879 
L 319.78314 284.963724 
L 323.062479 284.549634 
L 326.341818 283.683809 
L 329.621157 282.393139 
L 332.900496 281.903759 
L 336.179835 281.188513 
L 339.459174 281.425136 
L 342.738512 278.816906 
L 346.017851 278.886817 
L 349.29719 277.940325 
L 352.576529 276.525965 
L 355.855868 276.558232 
L 359.135207 274.36947 
L 362.414545 270.836259 
L 365.693884 270.508214 
L 368.973223 265.184198 
L 372.252562 259.747248 
L 375.531901 255.611724 
L 378.81124 251.578378 
L 382.090579 243.28582 
L 385.369917 232.772233 
L 388.649256 207.157799 
L 391.928595 170.228487 
L 395.207934 53.568 
" style="fill:none;stroke:#ff7f0e;stroke-linecap:square;stroke-width:1.5;"/>
   </g>
   <g id="patch_3">
    <path d="M 57.6 307.584 
L 57.6 41.472 
" style="fill:none;stroke:#000000;stroke-linecap:square;stroke-linejoin:miter;stroke-width:0.8;"/>
   </g>
   <g id="patch_4">
    <path d="M 414.72 307.584 
L 414.72 41.472 
" style="fill:none;stroke:#000000;stroke-linecap:square;stroke-linejoin:miter;stroke-width:0.8;"/>
   </g>
   <g id="patch_5">
    <path d="M 57.6 307.584 
L 414.72 307.584 
" style="fill:none;stroke:#000000;stroke-linecap:square;stroke-linejoin:miter;stroke-width:0.8;"/>
   </g>
   <g id="patch_6">
    <path d="M 57.6 41.472 
L 414.72 41.472 
" style="fill:none;stroke:#000000;stroke-linecap:square;stroke-linejoin:miter;stroke-width:0.8;"/>
   </g>
   <g id="text_14">
    <text style="font-family:DejaVu Sans;font-size:12px;font-style:normal;font-weight:normal;text-anchor:middle;" transform="rotate(-0, 236.16, 35.472)" x="236.16" y="35.472">Coin Flips for 1/(1+x)</text>
   </g>
   <g id="legend_1">
    <g id="patch_7">
     <path d="M 64.6 78.82825 
L 297.284375 78.82825 
Q 299.284375 78.82825 299.284375 76.82825 
L 299.284375 48.472 
Q 299.284375 46.472 297.284375 46.472 
L 64.6 46.472 
Q 62.6 46.472 62.6 48.472 
L 62.6 76.82825 
Q 62.6 78.82825 64.6 78.82825 
z
" style="fill:#ffffff;opacity:0.8;stroke:#cccccc;stroke-linejoin:miter;"/>
    </g>
    <g id="line2d_14">
     <path d="M 66.6 54.570437 
L 86.6 54.570437 
" style="fill:none;stroke:#1f77b4;stroke-linecap:square;stroke-width:1.5;"/>
    </g>
    <g id="line2d_15"/>
    <g id="text_15">
     <text style="font-family:DejaVu Sans;font-size:10px;font-style:normal;font-weight:normal;text-anchor:start;" transform="rotate(-0, 94.6, 58.070437)" x="94.6" y="58.070437">Coin Flip Lower Bound</text>
    </g>
    <g id="line2d_16">
     <path d="M 66.6 69.248562 
L 86.6 69.248562 
" style="fill:none;stroke:#ff7f0e;stroke-linecap:square;stroke-width:1.5;"/>
    </g>
    <g id="line2d_17"/>
    <g id="text_16">
     <text style="font-family:DejaVu Sans;font-size:10px;font-style:normal;font-weight:normal;text-anchor:start;" transform="rotate(-0, 94.6, 72.748562)" x="94.6" y="72.748562">Avg. Coins Flipped 1/(1+x) (Even Parity)</text>
    </g>
   </g>
  </g>
 </g>
 <defs>
  <clipPath id="p1aee1fe141">
   <rect height="266.112" width="357.12" x="57.6" y="41.472"/>
  </clipPath>
 </defs>
</svg>
