<?xml version="1.0" encoding="utf-8" standalone="no"?>
<!DOCTYPE svg PUBLIC "-//W3C//DTD SVG 1.1//EN"
  "http://www.w3.org/Graphics/SVG/1.1/DTD/svg11.dtd">
<!-- Created with matplotlib (https://matplotlib.org/) -->
<svg height="345.6pt" version="1.1" viewBox="0 0 460.8 345.6" width="460.8pt" xmlns="http://www.w3.org/2000/svg" xmlns:xlink="http://www.w3.org/1999/xlink">
 <defs>
  <style type="text/css">
*{stroke-linecap:butt;stroke-linejoin:round;}
  </style>
 </defs>
 <g id="figure_1">
  <g id="patch_1">
   <path d="M 0 345.6 
L 460.8 345.6 
L 460.8 0 
L 0 0 
z
" style="fill:#ffffff;"/>
  </g>
  <g id="axes_1">
   <g id="patch_2">
    <path d="M 57.6 307.584 
L 414.72 307.584 
L 414.72 41.472 
L 57.6 41.472 
z
" style="fill:#ffffff;"/>
   </g>
   <g id="matplotlib.axis_1">
    <g id="xtick_1">
     <g id="line2d_1">
      <defs>
       <path d="M 0 0 
L 0 3.5 
" id="mfa6831d197" style="stroke:#000000;stroke-width:0.8;"/>
      </defs>
      <g>
       <use style="stroke:#000000;stroke-width:0.8;" x="73.800255" xlink:href="#mfa6831d197" y="307.584"/>
      </g>
     </g>
     <g id="text_1">
      <text style="font-family:DejaVu Sans;font-size:10px;font-style:normal;font-weight:normal;text-anchor:middle;" transform="rotate(-0, 73.800255, 322.182437)" x="73.800255" y="322.182437">0.0</text>
     </g>
    </g>
    <g id="xtick_2">
     <g id="line2d_2">
      <g>
       <use style="stroke:#000000;stroke-width:0.8;" x="138.744153" xlink:href="#mfa6831d197" y="307.584"/>
      </g>
     </g>
     <g id="text_2">
      <text style="font-family:DejaVu Sans;font-size:10px;font-style:normal;font-weight:normal;text-anchor:middle;" transform="rotate(-0, 138.744153, 322.182437)" x="138.744153" y="322.182437">0.2</text>
     </g>
    </g>
    <g id="xtick_3">
     <g id="line2d_3">
      <g>
       <use style="stroke:#000000;stroke-width:0.8;" x="203.688051" xlink:href="#mfa6831d197" y="307.584"/>
      </g>
     </g>
     <g id="text_3">
      <text style="font-family:DejaVu Sans;font-size:10px;font-style:normal;font-weight:normal;text-anchor:middle;" transform="rotate(-0, 203.688051, 322.182437)" x="203.688051" y="322.182437">0.4</text>
     </g>
    </g>
    <g id="xtick_4">
     <g id="line2d_4">
      <g>
       <use style="stroke:#000000;stroke-width:0.8;" x="268.631949" xlink:href="#mfa6831d197" y="307.584"/>
      </g>
     </g>
     <g id="text_4">
      <text style="font-family:DejaVu Sans;font-size:10px;font-style:normal;font-weight:normal;text-anchor:middle;" transform="rotate(-0, 268.631949, 322.182437)" x="268.631949" y="322.182437">0.6</text>
     </g>
    </g>
    <g id="xtick_5">
     <g id="line2d_5">
      <g>
       <use style="stroke:#000000;stroke-width:0.8;" x="333.575847" xlink:href="#mfa6831d197" y="307.584"/>
      </g>
     </g>
     <g id="text_5">
      <text style="font-family:DejaVu Sans;font-size:10px;font-style:normal;font-weight:normal;text-anchor:middle;" transform="rotate(-0, 333.575847, 322.182437)" x="333.575847" y="322.182437">0.8</text>
     </g>
    </g>
    <g id="xtick_6">
     <g id="line2d_6">
      <g>
       <use style="stroke:#000000;stroke-width:0.8;" x="398.519745" xlink:href="#mfa6831d197" y="307.584"/>
      </g>
     </g>
     <g id="text_6">
      <text style="font-family:DejaVu Sans;font-size:10px;font-style:normal;font-weight:normal;text-anchor:middle;" transform="rotate(-0, 398.519745, 322.182437)" x="398.519745" y="322.182437">1.0</text>
     </g>
    </g>
    <g id="text_7">
     <text style="font-family:DejaVu Sans;font-size:10px;font-style:normal;font-weight:normal;text-anchor:middle;" transform="rotate(-0, 236.16, 335.860562)" x="236.16" y="335.860562">Input Coin's Heads Probability (λ)</text>
    </g>
   </g>
   <g id="matplotlib.axis_2">
    <g id="ytick_1">
     <g id="line2d_7">
      <defs>
       <path d="M 0 0 
L -3.5 0 
" id="m162a086c96" style="stroke:#000000;stroke-width:0.8;"/>
      </defs>
      <g>
       <use style="stroke:#000000;stroke-width:0.8;" x="57.6" xlink:href="#m162a086c96" y="295.488063"/>
      </g>
     </g>
     <g id="text_8">
      <text style="font-family:DejaVu Sans;font-size:10px;font-style:normal;font-weight:normal;text-anchor:end;" transform="rotate(-0, 50.6, 299.287282)" x="50.6" y="299.287282">0</text>
     </g>
    </g>
    <g id="ytick_2">
     <g id="line2d_8">
      <g>
       <use style="stroke:#000000;stroke-width:0.8;" x="57.6" xlink:href="#m162a086c96" y="244.960679"/>
      </g>
     </g>
     <g id="text_9">
      <text style="font-family:DejaVu Sans;font-size:10px;font-style:normal;font-weight:normal;text-anchor:end;" transform="rotate(-0, 50.6, 248.759898)" x="50.6" y="248.759898">20</text>
     </g>
    </g>
    <g id="ytick_3">
     <g id="line2d_9">
      <g>
       <use style="stroke:#000000;stroke-width:0.8;" x="57.6" xlink:href="#m162a086c96" y="194.433295"/>
      </g>
     </g>
     <g id="text_10">
      <text style="font-family:DejaVu Sans;font-size:10px;font-style:normal;font-weight:normal;text-anchor:end;" transform="rotate(-0, 50.6, 198.232513)" x="50.6" y="198.232513">40</text>
     </g>
    </g>
    <g id="ytick_4">
     <g id="line2d_10">
      <g>
       <use style="stroke:#000000;stroke-width:0.8;" x="57.6" xlink:href="#m162a086c96" y="143.90591"/>
      </g>
     </g>
     <g id="text_11">
      <text style="font-family:DejaVu Sans;font-size:10px;font-style:normal;font-weight:normal;text-anchor:end;" transform="rotate(-0, 50.6, 147.705129)" x="50.6" y="147.705129">60</text>
     </g>
    </g>
    <g id="ytick_5">
     <g id="line2d_11">
      <g>
       <use style="stroke:#000000;stroke-width:0.8;" x="57.6" xlink:href="#m162a086c96" y="93.378526"/>
      </g>
     </g>
     <g id="text_12">
      <text style="font-family:DejaVu Sans;font-size:10px;font-style:normal;font-weight:normal;text-anchor:end;" transform="rotate(-0, 50.6, 97.177745)" x="50.6" y="97.177745">80</text>
     </g>
    </g>
    <g id="ytick_6">
     <g id="line2d_12">
      <g>
       <use style="stroke:#000000;stroke-width:0.8;" x="57.6" xlink:href="#m162a086c96" y="42.851142"/>
      </g>
     </g>
     <g id="text_13">
      <text style="font-family:DejaVu Sans;font-size:10px;font-style:normal;font-weight:normal;text-anchor:end;" transform="rotate(-0, 50.6, 46.650361)" x="50.6" y="46.650361">100</text>
     </g>
    </g>
    <g id="text_14">
     <text style="font-family:DejaVu Sans;font-size:10px;font-style:normal;font-weight:normal;text-anchor:middle;" transform="rotate(-90, 25.432813, 174.528)" x="25.432813" y="174.528">Coin Flips Needed</text>
    </g>
   </g>
   <g id="line2d_13">
    <path clip-path="url(#pdc9aef4ef9)" d="M 73.832727 292.962452 
L 77.112066 293.037698 
L 80.391405 293.110474 
L 83.670744 293.180882 
L 86.950083 293.249018 
L 90.229421 293.314973 
L 93.50876 293.378834 
L 96.788099 293.440684 
L 100.067438 293.500601 
L 103.346777 293.558661 
L 106.626116 293.614935 
L 109.905455 293.669491 
L 113.184793 293.722395 
L 116.464132 293.773707 
L 119.743471 293.823489 
L 123.02281 293.871795 
L 126.302149 293.918681 
L 129.581488 293.964197 
L 132.860826 294.008394 
L 136.140165 294.051317 
L 139.419504 294.093013 
L 142.698843 294.133525 
L 145.978182 294.172894 
L 149.257521 294.21116 
L 152.53686 294.248361 
L 155.816198 294.284532 
L 159.095537 294.31971 
L 162.374876 294.353927 
L 165.654215 294.387216 
L 168.933554 294.419607 
L 172.212893 294.45113 
L 175.492231 294.481813 
L 178.77157 294.511684 
L 182.050909 294.540769 
L 185.330248 294.569094 
L 188.609587 294.596681 
L 191.888926 294.623555 
L 195.168264 294.649738 
L 198.447603 294.675252 
L 201.726942 294.700117 
L 205.006281 294.724353 
L 208.28562 294.74798 
L 211.564959 294.771016 
L 214.844298 294.793478 
L 218.123636 294.815385 
L 221.402975 294.836753 
L 224.682314 294.857597 
L 227.961653 294.877933 
L 231.240992 294.897776 
L 234.520331 294.917141 
L 237.799669 294.93604 
L 241.079008 294.954489 
L 244.358347 294.972498 
L 247.637686 294.990082 
L 250.917025 295.007251 
L 254.196364 295.024018 
L 257.475702 295.040394 
L 260.755041 295.056389 
L 264.03438 295.072015 
L 267.313719 295.087281 
L 270.593058 295.102197 
L 273.872397 295.116772 
L 277.151736 295.131017 
L 280.431074 295.144939 
L 283.710413 295.158547 
L 286.989752 295.171851 
L 290.269091 295.184856 
L 293.54843 295.197573 
L 296.827769 295.210007 
L 300.107107 295.222167 
L 303.386446 295.23406 
L 306.665785 295.245692 
L 309.945124 295.25707 
L 313.224463 295.268201 
L 316.503802 295.27909 
L 319.78314 295.289745 
L 323.062479 295.30017 
L 326.341818 295.310372 
L 329.621157 295.320356 
L 332.900496 295.330128 
L 336.179835 295.339692 
L 339.459174 295.349054 
L 342.738512 295.358219 
L 346.017851 295.367192 
L 349.29719 295.375977 
L 352.576529 295.384578 
L 355.855868 295.393 
L 359.135207 295.401248 
L 362.414545 295.409326 
L 365.693884 295.417237 
L 368.973223 295.424985 
L 372.252562 295.432575 
L 375.531901 295.440009 
L 378.81124 295.447292 
L 382.090579 295.454428 
L 385.369917 295.461418 
L 388.649256 295.468268 
L 391.928595 295.474979 
L 395.207934 295.481555 
L 398.487273 295.488 
" style="fill:none;stroke:#1f77b4;stroke-linecap:square;stroke-width:1.5;"/>
   </g>
   <g id="line2d_14">
    <path clip-path="url(#pdc9aef4ef9)" d="M 73.832727 292.961694 
L 77.112066 292.921272 
L 80.391405 292.906114 
L 83.670744 292.840428 
L 86.950083 292.865692 
L 90.229421 292.830323 
L 93.50876 292.82527 
L 96.788099 292.774743 
L 100.067438 292.754532 
L 103.346777 292.704004 
L 106.626116 292.628213 
L 109.905455 292.62316 
L 113.184793 292.648424 
L 116.464132 292.557475 
L 119.743471 292.532211 
L 123.02281 292.517053 
L 126.302149 292.431156 
L 129.581488 292.309891 
L 132.860826 292.40084 
L 136.140165 292.436209 
L 139.419504 292.284627 
L 142.698843 292.314943 
L 145.978182 292.264416 
L 149.257521 292.14315 
L 152.53686 292.127992 
L 155.816198 292.042096 
L 159.095537 292.138098 
L 162.374876 292.052201 
L 165.654215 291.951146 
L 168.933554 291.814722 
L 172.212893 291.930935 
L 175.492231 291.764195 
L 178.77157 291.845039 
L 182.050909 291.759142 
L 185.330248 291.698509 
L 188.609587 291.582296 
L 191.888926 291.486294 
L 195.168264 291.34987 
L 198.447603 291.445872 
L 201.726942 291.29429 
L 205.006281 291.046706 
L 208.28562 291.173025 
L 211.564959 291.036601 
L 214.844298 291.021442 
L 218.123636 290.975968 
L 221.402975 290.955757 
L 224.682314 290.794069 
L 227.961653 290.713225 
L 231.240992 290.698067 
L 234.520331 290.263532 
L 237.799669 290.399956 
L 241.079008 290.010895 
L 244.358347 290.152371 
L 247.637686 290.147319 
L 250.917025 289.839102 
L 254.196364 289.768363 
L 257.475702 289.399513 
L 260.755041 289.42983 
L 264.03438 289.323722 
L 267.313719 289.217615 
L 270.593058 289.035716 
L 273.872397 289.581412 
L 277.151736 288.69213 
L 280.431074 288.37886 
L 283.710413 287.989799 
L 286.989752 288.217173 
L 290.269091 287.914008 
L 293.54843 287.823059 
L 296.827769 287.58558 
L 300.107107 287.191467 
L 303.386446 286.660929 
L 306.665785 286.069759 
L 309.945124 285.822175 
L 313.224463 286.180919 
L 316.503802 286.185972 
L 319.78314 284.756047 
L 323.062479 284.821732 
L 326.341818 284.462988 
L 329.621157 283.649497 
L 332.900496 282.23473 
L 336.179835 281.805248 
L 339.459174 280.814911 
L 342.738512 280.622907 
L 346.017851 279.000978 
L 349.29719 279.218245 
L 352.576529 277.192097 
L 355.855868 275.383217 
L 359.135207 275.272057 
L 362.414545 272.41726 
L 365.693884 270.765014 
L 368.973223 269.127927 
L 372.252562 263.787182 
L 375.531901 259.270034 
L 378.81124 258.022008 
L 382.090579 242.025038 
L 385.369917 230.358265 
L 388.649256 212.567573 
L 391.928595 172.802521 
L 395.207934 53.568 
" style="fill:none;stroke:#ff7f0e;stroke-linecap:square;stroke-width:1.5;"/>
   </g>
   <g id="patch_3">
    <path d="M 57.6 307.584 
L 57.6 41.472 
" style="fill:none;stroke:#000000;stroke-linecap:square;stroke-linejoin:miter;stroke-width:0.8;"/>
   </g>
   <g id="patch_4">
    <path d="M 414.72 307.584 
L 414.72 41.472 
" style="fill:none;stroke:#000000;stroke-linecap:square;stroke-linejoin:miter;stroke-width:0.8;"/>
   </g>
   <g id="patch_5">
    <path d="M 57.6 307.584 
L 414.72 307.584 
" style="fill:none;stroke:#000000;stroke-linecap:square;stroke-linejoin:miter;stroke-width:0.8;"/>
   </g>
   <g id="patch_6">
    <path d="M 57.6 41.472 
L 414.72 41.472 
" style="fill:none;stroke:#000000;stroke-linecap:square;stroke-linejoin:miter;stroke-width:0.8;"/>
   </g>
   <g id="text_15">
    <text style="font-family:DejaVu Sans;font-size:12px;font-style:normal;font-weight:normal;text-anchor:middle;" transform="rotate(-0, 236.16, 35.472)" x="236.16" y="35.472">Coin Flips for 1/(1+x)</text>
   </g>
   <g id="legend_1">
    <g id="patch_7">
     <path d="M 64.6 78.82825 
L 297.284375 78.82825 
Q 299.284375 78.82825 299.284375 76.82825 
L 299.284375 48.472 
Q 299.284375 46.472 297.284375 46.472 
L 64.6 46.472 
Q 62.6 46.472 62.6 48.472 
L 62.6 76.82825 
Q 62.6 78.82825 64.6 78.82825 
z
" style="fill:#ffffff;opacity:0.8;stroke:#cccccc;stroke-linejoin:miter;"/>
    </g>
    <g id="line2d_15">
     <path d="M 66.6 54.570437 
L 86.6 54.570437 
" style="fill:none;stroke:#1f77b4;stroke-linecap:square;stroke-width:1.5;"/>
    </g>
    <g id="line2d_16"/>
    <g id="text_16">
     <text style="font-family:DejaVu Sans;font-size:10px;font-style:normal;font-weight:normal;text-anchor:start;" transform="rotate(-0, 94.6, 58.070437)" x="94.6" y="58.070437">Coin Flip Lower Bound</text>
    </g>
    <g id="line2d_17">
     <path d="M 66.6 69.248562 
L 86.6 69.248562 
" style="fill:none;stroke:#ff7f0e;stroke-linecap:square;stroke-width:1.5;"/>
    </g>
    <g id="line2d_18"/>
    <g id="text_17">
     <text style="font-family:DejaVu Sans;font-size:10px;font-style:normal;font-weight:normal;text-anchor:start;" transform="rotate(-0, 94.6, 72.748562)" x="94.6" y="72.748562">Avg. Coins Flipped 1/(1+x) (Even Parity)</text>
    </g>
   </g>
  </g>
 </g>
 <defs>
  <clipPath id="pdc9aef4ef9">
   <rect height="266.112" width="357.12" x="57.6" y="41.472"/>
  </clipPath>
 </defs>
</svg>
