<?xml version="1.0" encoding="utf-8" standalone="no"?>
<!DOCTYPE svg PUBLIC "-//W3C//DTD SVG 1.1//EN"
  "http://www.w3.org/Graphics/SVG/1.1/DTD/svg11.dtd">
<!-- Created with matplotlib (https://matplotlib.org/) -->
<svg height="252pt" version="1.1" viewBox="0 0 324 252" width="324pt" xmlns="http://www.w3.org/2000/svg" xmlns:xlink="http://www.w3.org/1999/xlink">
 <defs>
  <style type="text/css">
*{stroke-linecap:butt;stroke-linejoin:round;}
  </style>
 </defs>
 <g id="figure_1">
  <g id="patch_1">
   <path d="M 0 252 
L 324 252 
L 324 0 
L 0 0 
z
" style="fill:#ffffff;"/>
  </g>
  <g id="axes_1">
   <g id="patch_2">
    <path d="M 40.5 224.28 
L 291.6 224.28 
L 291.6 30.24 
L 40.5 30.24 
z
" style="fill:#ffffff;"/>
   </g>
   <g id="matplotlib.axis_1">
    <g id="xtick_1">
     <g id="line2d_1">
      <defs>
       <path d="M 0 0 
L 0 3.5 
" id="m0c0ed0e4b4" style="stroke:#000000;stroke-width:0.8;"/>
      </defs>
      <g>
       <use style="stroke:#000000;stroke-width:0.8;" x="51.890572" xlink:href="#m0c0ed0e4b4" y="224.28"/>
      </g>
     </g>
     <g id="text_1">
      <text style="font-family:DejaVu Sans;font-size:10px;font-style:normal;font-weight:normal;text-anchor:middle;" transform="rotate(-0, 51.890572, 238.878438)" x="51.890572" y="238.878438">0.0</text>
     </g>
    </g>
    <g id="xtick_2">
     <g id="line2d_2">
      <g>
       <use style="stroke:#000000;stroke-width:0.8;" x="98.020206" xlink:href="#m0c0ed0e4b4" y="224.28"/>
      </g>
     </g>
     <g id="text_2">
      <text style="font-family:DejaVu Sans;font-size:10px;font-style:normal;font-weight:normal;text-anchor:middle;" transform="rotate(-0, 98.020206, 238.878438)" x="98.020206" y="238.878438">0.2</text>
     </g>
    </g>
    <g id="xtick_3">
     <g id="line2d_3">
      <g>
       <use style="stroke:#000000;stroke-width:0.8;" x="144.14984" xlink:href="#m0c0ed0e4b4" y="224.28"/>
      </g>
     </g>
     <g id="text_3">
      <text style="font-family:DejaVu Sans;font-size:10px;font-style:normal;font-weight:normal;text-anchor:middle;" transform="rotate(-0, 144.14984, 238.878438)" x="144.14984" y="238.878438">0.4</text>
     </g>
    </g>
    <g id="xtick_4">
     <g id="line2d_4">
      <g>
       <use style="stroke:#000000;stroke-width:0.8;" x="190.279474" xlink:href="#m0c0ed0e4b4" y="224.28"/>
      </g>
     </g>
     <g id="text_4">
      <text style="font-family:DejaVu Sans;font-size:10px;font-style:normal;font-weight:normal;text-anchor:middle;" transform="rotate(-0, 190.279474, 238.878438)" x="190.279474" y="238.878438">0.6</text>
     </g>
    </g>
    <g id="xtick_5">
     <g id="line2d_5">
      <g>
       <use style="stroke:#000000;stroke-width:0.8;" x="236.409108" xlink:href="#m0c0ed0e4b4" y="224.28"/>
      </g>
     </g>
     <g id="text_5">
      <text style="font-family:DejaVu Sans;font-size:10px;font-style:normal;font-weight:normal;text-anchor:middle;" transform="rotate(-0, 236.409108, 238.878438)" x="236.409108" y="238.878438">0.8</text>
     </g>
    </g>
    <g id="xtick_6">
     <g id="line2d_6">
      <g>
       <use style="stroke:#000000;stroke-width:0.8;" x="282.538742" xlink:href="#m0c0ed0e4b4" y="224.28"/>
      </g>
     </g>
     <g id="text_6">
      <text style="font-family:DejaVu Sans;font-size:10px;font-style:normal;font-weight:normal;text-anchor:middle;" transform="rotate(-0, 282.538742, 238.878438)" x="282.538742" y="238.878438">1.0</text>
     </g>
    </g>
    <g id="text_7">
     <text style="font-family:DejaVu Sans;font-size:10px;font-style:normal;font-weight:normal;text-anchor:middle;" transform="rotate(-0, 166.05, 252.556563)" x="166.05" y="252.556563">Probability</text>
    </g>
   </g>
   <g id="matplotlib.axis_2">
    <g id="ytick_1">
     <g id="line2d_7">
      <defs>
       <path d="M 0 0 
L -3.5 0 
" id="m72ea7bd463" style="stroke:#000000;stroke-width:0.8;"/>
      </defs>
      <g>
       <use style="stroke:#000000;stroke-width:0.8;" x="40.5" xlink:href="#m72ea7bd463" y="217.239974"/>
      </g>
     </g>
     <g id="text_8">
      <text style="font-family:DejaVu Sans;font-size:10px;font-style:normal;font-weight:normal;text-anchor:end;" transform="rotate(-0, 33.5, 221.039193)" x="33.5" y="221.039193">0</text>
     </g>
    </g>
    <g id="ytick_2">
     <g id="line2d_8">
      <g>
       <use style="stroke:#000000;stroke-width:0.8;" x="40.5" xlink:href="#m72ea7bd463" y="194.419793"/>
      </g>
     </g>
     <g id="text_9">
      <text style="font-family:DejaVu Sans;font-size:10px;font-style:normal;font-weight:normal;text-anchor:end;" transform="rotate(-0, 33.5, 198.219012)" x="33.5" y="198.219012">25</text>
     </g>
    </g>
    <g id="ytick_3">
     <g id="line2d_9">
      <g>
       <use style="stroke:#000000;stroke-width:0.8;" x="40.5" xlink:href="#m72ea7bd463" y="171.599612"/>
      </g>
     </g>
     <g id="text_10">
      <text style="font-family:DejaVu Sans;font-size:10px;font-style:normal;font-weight:normal;text-anchor:end;" transform="rotate(-0, 33.5, 175.398831)" x="33.5" y="175.398831">50</text>
     </g>
    </g>
    <g id="ytick_4">
     <g id="line2d_10">
      <g>
       <use style="stroke:#000000;stroke-width:0.8;" x="40.5" xlink:href="#m72ea7bd463" y="148.779431"/>
      </g>
     </g>
     <g id="text_11">
      <text style="font-family:DejaVu Sans;font-size:10px;font-style:normal;font-weight:normal;text-anchor:end;" transform="rotate(-0, 33.5, 152.57865)" x="33.5" y="152.57865">75</text>
     </g>
    </g>
    <g id="ytick_5">
     <g id="line2d_11">
      <g>
       <use style="stroke:#000000;stroke-width:0.8;" x="40.5" xlink:href="#m72ea7bd463" y="125.95925"/>
      </g>
     </g>
     <g id="text_12">
      <text style="font-family:DejaVu Sans;font-size:10px;font-style:normal;font-weight:normal;text-anchor:end;" transform="rotate(-0, 33.5, 129.758468)" x="33.5" y="129.758468">100</text>
     </g>
    </g>
    <g id="ytick_6">
     <g id="line2d_12">
      <g>
       <use style="stroke:#000000;stroke-width:0.8;" x="40.5" xlink:href="#m72ea7bd463" y="103.139069"/>
      </g>
     </g>
     <g id="text_13">
      <text style="font-family:DejaVu Sans;font-size:10px;font-style:normal;font-weight:normal;text-anchor:end;" transform="rotate(-0, 33.5, 106.938287)" x="33.5" y="106.938287">125</text>
     </g>
    </g>
    <g id="ytick_7">
     <g id="line2d_13">
      <g>
       <use style="stroke:#000000;stroke-width:0.8;" x="40.5" xlink:href="#m72ea7bd463" y="80.318887"/>
      </g>
     </g>
     <g id="text_14">
      <text style="font-family:DejaVu Sans;font-size:10px;font-style:normal;font-weight:normal;text-anchor:end;" transform="rotate(-0, 33.5, 84.118106)" x="33.5" y="84.118106">150</text>
     </g>
    </g>
    <g id="ytick_8">
     <g id="line2d_14">
      <g>
       <use style="stroke:#000000;stroke-width:0.8;" x="40.5" xlink:href="#m72ea7bd463" y="57.498706"/>
      </g>
     </g>
     <g id="text_15">
      <text style="font-family:DejaVu Sans;font-size:10px;font-style:normal;font-weight:normal;text-anchor:end;" transform="rotate(-0, 33.5, 61.297925)" x="33.5" y="61.297925">175</text>
     </g>
    </g>
    <g id="ytick_9">
     <g id="line2d_15">
      <g>
       <use style="stroke:#000000;stroke-width:0.8;" x="40.5" xlink:href="#m72ea7bd463" y="34.678525"/>
      </g>
     </g>
     <g id="text_16">
      <text style="font-family:DejaVu Sans;font-size:10px;font-style:normal;font-weight:normal;text-anchor:end;" transform="rotate(-0, 33.5, 38.477744)" x="33.5" y="38.477744">200</text>
     </g>
    </g>
    <g id="text_17">
     <text style="font-family:DejaVu Sans;font-size:10px;font-style:normal;font-weight:normal;text-anchor:middle;" transform="rotate(-90, 8.332812, 127.26)" x="8.332812" y="127.26">Average Bits Consumed Per Call</text>
    </g>
   </g>
   <g id="line2d_16">
    <path clip-path="url(#p41a87f8c86)" d="M 51.913636 215.354114 
L 54.24295 215.357766 
L 56.572263 215.292043 
L 58.901577 215.332207 
L 61.230891 215.359591 
L 63.560204 215.46 
L 65.889518 215.405232 
L 68.218831 215.361417 
L 70.548145 215.186158 
L 72.877458 215.094877 
L 75.206772 215.195286 
L 77.536085 215.142343 
L 79.865399 215.246403 
L 82.194712 215.135041 
L 84.524026 215.003596 
L 86.85334 214.884931 
L 89.182653 215.065667 
L 91.511967 215.0894 
L 93.84128 215.058365 
L 96.170594 214.859373 
L 98.499907 214.990817 
L 100.829221 214.990817 
L 103.158534 215.034632 
L 105.487848 214.870327 
L 107.817161 214.766266 
L 110.146475 214.70237 
L 112.475788 214.693242 
L 114.805102 214.609264 
L 117.134416 214.634822 
L 119.463729 214.821035 
L 121.793043 214.565449 
L 124.122356 214.525285 
L 126.45167 214.572751 
L 128.780983 214.483296 
L 131.110297 214.423051 
L 133.43961 214.328119 
L 135.768924 214.616566 
L 138.098237 214.112697 
L 140.427551 214.24049 
L 142.756865 214.320817 
L 145.086178 214.156511 
L 147.415492 214.235013 
L 149.744805 214.194849 
L 152.074119 214.006811 
L 154.403432 213.926484 
L 156.732746 213.787737 
L 159.062059 213.906402 
L 161.391373 213.908228 
L 163.720686 213.76583 
L 166.05 213.84068 
L 168.379314 213.530325 
L 170.708627 213.276565 
L 173.037941 213.473731 
L 175.367254 213.42444 
L 177.696568 213.324031 
L 180.025881 213.167028 
L 182.355195 213.163377 
L 184.684508 212.986292 
L 187.013822 212.617518 
L 189.343135 212.785475 
L 191.672449 212.659507 
L 194.001763 211.943866 
L 196.331076 212.267 
L 198.66039 212.204929 
L 200.989703 211.797817 
L 203.319017 212.290733 
L 205.64833 211.763131 
L 207.977644 211.726618 
L 210.306957 211.502068 
L 212.636271 210.8558 
L 214.965584 210.917871 
L 217.294898 210.793729 
L 219.624212 210.207707 
L 221.953525 210.167544 
L 224.282839 210.134683 
L 226.612152 209.738524 
L 228.941466 209.599777 
L 231.270779 208.991848 
L 233.600093 208.772774 
L 235.929406 208.420431 
L 238.25872 207.445552 
L 240.588033 206.614898 
L 242.917347 206.598467 
L 245.24666 205.804325 
L 247.575974 205.254815 
L 249.905288 204.791109 
L 252.234601 203.164486 
L 254.563915 202.552906 
L 256.893228 202.176829 
L 259.222542 198.445273 
L 261.551855 196.9647 
L 263.881169 195.392846 
L 266.210482 190.755785 
L 268.539796 186.562348 
L 270.869109 180.667439 
L 273.198423 168.424868 
L 275.527737 160.443282 
L 277.85705 125.707315 
L 280.186364 39.06 
" style="fill:none;stroke:#1f77b4;stroke-linecap:square;stroke-width:1.5;"/>
   </g>
   <g id="patch_3">
    <path d="M 40.5 224.28 
L 40.5 30.24 
" style="fill:none;stroke:#000000;stroke-linecap:square;stroke-linejoin:miter;stroke-width:0.8;"/>
   </g>
   <g id="patch_4">
    <path d="M 291.6 224.28 
L 291.6 30.24 
" style="fill:none;stroke:#000000;stroke-linecap:square;stroke-linejoin:miter;stroke-width:0.8;"/>
   </g>
   <g id="patch_5">
    <path d="M 40.5 224.28 
L 291.6 224.28 
" style="fill:none;stroke:#000000;stroke-linecap:square;stroke-linejoin:miter;stroke-width:0.8;"/>
   </g>
   <g id="patch_6">
    <path d="M 40.5 30.24 
L 291.6 30.24 
" style="fill:none;stroke:#000000;stroke-linecap:square;stroke-linejoin:miter;stroke-width:0.8;"/>
   </g>
   <g id="text_18">
    <text style="font-family:DejaVu Sans;font-size:12px;font-style:normal;font-weight:normal;text-anchor:middle;" transform="rotate(-0, 166.05, 24.24)" x="166.05" y="24.24">Avg. Bits Consumed by 1/(1+x) (Even Parity) Algorithm</text>
   </g>
  </g>
 </g>
 <defs>
  <clipPath id="p41a87f8c86">
   <rect height="194.04" width="251.1" x="40.5" y="30.24"/>
  </clipPath>
 </defs>
</svg>
