<?xml version="1.0" encoding="utf-8" standalone="no"?>
<!DOCTYPE svg PUBLIC "-//W3C//DTD SVG 1.1//EN"
  "http://www.w3.org/Graphics/SVG/1.1/DTD/svg11.dtd">
<!-- Created with matplotlib (https://matplotlib.org/) -->
<svg height="252pt" version="1.1" viewBox="0 0 324 252" width="324pt" xmlns="http://www.w3.org/2000/svg" xmlns:xlink="http://www.w3.org/1999/xlink">
 <defs>
  <style type="text/css">
*{stroke-linecap:butt;stroke-linejoin:round;}
  </style>
 </defs>
 <g id="figure_1">
  <g id="patch_1">
   <path d="M 0 252 
L 324 252 
L 324 0 
L 0 0 
z
" style="fill:#ffffff;"/>
  </g>
  <g id="axes_1">
   <g id="patch_2">
    <path d="M 40.5 224.28 
L 291.6 224.28 
L 291.6 30.24 
L 40.5 30.24 
z
" style="fill:#ffffff;"/>
   </g>
   <g id="matplotlib.axis_1">
    <g id="xtick_1">
     <g id="line2d_1">
      <defs>
       <path d="M 0 0 
L 0 3.5 
" id="m28340a3f73" style="stroke:#000000;stroke-width:0.8;"/>
      </defs>
      <g>
       <use style="stroke:#000000;stroke-width:0.8;" x="51.890784" xlink:href="#m28340a3f73" y="224.28"/>
      </g>
     </g>
     <g id="text_1">
      <text style="font-family:DejaVu Sans;font-size:10px;font-style:normal;font-weight:normal;text-anchor:middle;" transform="rotate(-0, 51.890784, 238.878438)" x="51.890784" y="238.878438">0.0</text>
     </g>
    </g>
    <g id="xtick_2">
     <g id="line2d_2">
      <g>
       <use style="stroke:#000000;stroke-width:0.8;" x="97.595605" xlink:href="#m28340a3f73" y="224.28"/>
      </g>
     </g>
     <g id="text_2">
      <text style="font-family:DejaVu Sans;font-size:10px;font-style:normal;font-weight:normal;text-anchor:middle;" transform="rotate(-0, 97.595605, 238.878438)" x="97.595605" y="238.878438">0.2</text>
     </g>
    </g>
    <g id="xtick_3">
     <g id="line2d_3">
      <g>
       <use style="stroke:#000000;stroke-width:0.8;" x="143.300425" xlink:href="#m28340a3f73" y="224.28"/>
      </g>
     </g>
     <g id="text_3">
      <text style="font-family:DejaVu Sans;font-size:10px;font-style:normal;font-weight:normal;text-anchor:middle;" transform="rotate(-0, 143.300425, 238.878438)" x="143.300425" y="238.878438">0.4</text>
     </g>
    </g>
    <g id="xtick_4">
     <g id="line2d_4">
      <g>
       <use style="stroke:#000000;stroke-width:0.8;" x="189.005246" xlink:href="#m28340a3f73" y="224.28"/>
      </g>
     </g>
     <g id="text_4">
      <text style="font-family:DejaVu Sans;font-size:10px;font-style:normal;font-weight:normal;text-anchor:middle;" transform="rotate(-0, 189.005246, 238.878438)" x="189.005246" y="238.878438">0.6</text>
     </g>
    </g>
    <g id="xtick_5">
     <g id="line2d_5">
      <g>
       <use style="stroke:#000000;stroke-width:0.8;" x="234.710067" xlink:href="#m28340a3f73" y="224.28"/>
      </g>
     </g>
     <g id="text_5">
      <text style="font-family:DejaVu Sans;font-size:10px;font-style:normal;font-weight:normal;text-anchor:middle;" transform="rotate(-0, 234.710067, 238.878438)" x="234.710067" y="238.878438">0.8</text>
     </g>
    </g>
    <g id="xtick_6">
     <g id="line2d_6">
      <g>
       <use style="stroke:#000000;stroke-width:0.8;" x="280.414888" xlink:href="#m28340a3f73" y="224.28"/>
      </g>
     </g>
     <g id="text_6">
      <text style="font-family:DejaVu Sans;font-size:10px;font-style:normal;font-weight:normal;text-anchor:middle;" transform="rotate(-0, 280.414888, 238.878438)" x="280.414888" y="238.878438">1.0</text>
     </g>
    </g>
    <g id="text_7">
     <text style="font-family:DejaVu Sans;font-size:10px;font-style:normal;font-weight:normal;text-anchor:middle;" transform="rotate(-0, 166.05, 252.556563)" x="166.05" y="252.556563">Input Coin's Heads Probability (λ)</text>
    </g>
   </g>
   <g id="matplotlib.axis_2">
    <g id="ytick_1">
     <g id="line2d_7">
      <defs>
       <path d="M 0 0 
L -3.5 0 
" id="mbe72678b94" style="stroke:#000000;stroke-width:0.8;"/>
      </defs>
      <g>
       <use style="stroke:#000000;stroke-width:0.8;" x="40.5" xlink:href="#mbe72678b94" y="201.192353"/>
      </g>
     </g>
     <g id="text_8">
      <text style="font-family:DejaVu Sans;font-size:10px;font-style:normal;font-weight:normal;text-anchor:end;" transform="rotate(-0, 33.5, 204.991572)" x="33.5" y="204.991572">0.5</text>
     </g>
    </g>
    <g id="ytick_2">
     <g id="line2d_8">
      <g>
       <use style="stroke:#000000;stroke-width:0.8;" x="40.5" xlink:href="#mbe72678b94" y="168.765882"/>
      </g>
     </g>
     <g id="text_9">
      <text style="font-family:DejaVu Sans;font-size:10px;font-style:normal;font-weight:normal;text-anchor:end;" transform="rotate(-0, 33.5, 172.565101)" x="33.5" y="172.565101">0.6</text>
     </g>
    </g>
    <g id="ytick_3">
     <g id="line2d_9">
      <g>
       <use style="stroke:#000000;stroke-width:0.8;" x="40.5" xlink:href="#mbe72678b94" y="136.339412"/>
      </g>
     </g>
     <g id="text_10">
      <text style="font-family:DejaVu Sans;font-size:10px;font-style:normal;font-weight:normal;text-anchor:end;" transform="rotate(-0, 33.5, 140.138631)" x="33.5" y="140.138631">0.7</text>
     </g>
    </g>
    <g id="ytick_4">
     <g id="line2d_10">
      <g>
       <use style="stroke:#000000;stroke-width:0.8;" x="40.5" xlink:href="#mbe72678b94" y="103.912941"/>
      </g>
     </g>
     <g id="text_11">
      <text style="font-family:DejaVu Sans;font-size:10px;font-style:normal;font-weight:normal;text-anchor:end;" transform="rotate(-0, 33.5, 107.71216)" x="33.5" y="107.71216">0.8</text>
     </g>
    </g>
    <g id="ytick_5">
     <g id="line2d_11">
      <g>
       <use style="stroke:#000000;stroke-width:0.8;" x="40.5" xlink:href="#mbe72678b94" y="71.486471"/>
      </g>
     </g>
     <g id="text_12">
      <text style="font-family:DejaVu Sans;font-size:10px;font-style:normal;font-weight:normal;text-anchor:end;" transform="rotate(-0, 33.5, 75.285689)" x="33.5" y="75.285689">0.9</text>
     </g>
    </g>
    <g id="ytick_6">
     <g id="line2d_12">
      <g>
       <use style="stroke:#000000;stroke-width:0.8;" x="40.5" xlink:href="#mbe72678b94" y="39.06"/>
      </g>
     </g>
     <g id="text_13">
      <text style="font-family:DejaVu Sans;font-size:10px;font-style:normal;font-weight:normal;text-anchor:end;" transform="rotate(-0, 33.5, 42.859219)" x="33.5" y="42.859219">1.0</text>
     </g>
    </g>
    <g id="text_14">
     <text style="font-family:DejaVu Sans;font-size:10px;font-style:normal;font-weight:normal;text-anchor:middle;" transform="rotate(-90, 11.517187, 127.26)" x="11.517187" y="127.26">Simulated Mean / Function Value</text>
    </g>
   </g>
   <g id="line2d_13">
    <path clip-path="url(#p79723630d3)" d="M 52.119308 39.383941 
L 54.423016 42.613737 
L 56.726723 45.779764 
L 59.030431 48.883893 
L 61.334139 51.927922 
L 63.637846 54.913578 
L 65.941554 57.842526 
L 68.245261 60.716365 
L 70.548969 63.536636 
L 72.852677 66.304824 
L 75.156384 69.022357 
L 77.460092 71.690614 
L 79.7638 74.310923 
L 82.067507 76.884565 
L 84.371215 79.412775 
L 86.674923 81.896747 
L 88.97863 84.33763 
L 91.282338 86.736536 
L 93.586045 89.09454 
L 95.889753 91.412678 
L 98.193461 93.691953 
L 100.497168 95.933334 
L 102.800876 98.137759 
L 105.104584 100.306133 
L 107.408291 102.439334 
L 109.711999 104.538211 
L 112.015706 106.603586 
L 114.319414 108.636254 
L 116.623122 110.636987 
L 118.926829 112.606531 
L 121.230537 114.545609 
L 123.534245 116.454924 
L 125.837952 118.335154 
L 128.14166 120.186961 
L 130.445368 122.010983 
L 132.749075 123.807841 
L 135.052783 125.578138 
L 137.35649 127.322457 
L 139.660198 129.041367 
L 141.963906 130.73542 
L 144.267613 132.405149 
L 146.571321 134.051076 
L 148.875029 135.673705 
L 151.178736 137.273528 
L 153.482444 138.851023 
L 155.786152 140.406653 
L 158.089859 141.94087 
L 160.393567 143.454113 
L 162.697274 144.94681 
L 165.000982 146.419375 
L 167.30469 147.872214 
L 169.608397 149.30572 
L 171.912105 150.720276 
L 174.215813 152.116256 
L 176.51952 153.494024 
L 178.823228 154.853933 
L 181.126935 156.196328 
L 183.430643 157.521546 
L 185.734351 158.829914 
L 188.038058 160.121752 
L 190.341766 161.39737 
L 192.645474 162.657073 
L 194.949181 163.901156 
L 197.252889 165.129909 
L 199.556597 166.343612 
L 201.860304 167.54254 
L 204.164012 168.726963 
L 206.467719 169.897141 
L 208.771427 171.053329 
L 211.075135 172.195778 
L 213.378842 173.32473 
L 215.68255 174.440424 
L 217.986258 175.543092 
L 220.289965 176.632959 
L 222.593673 177.710249 
L 224.89738 178.775178 
L 227.201088 179.827956 
L 229.504796 180.868791 
L 231.808503 181.897885 
L 234.112211 182.915436 
L 236.415919 183.921636 
L 238.719626 184.916675 
L 241.023334 185.900737 
L 243.327042 186.874002 
L 245.630749 187.836648 
L 247.934457 188.788848 
L 250.238164 189.730769 
L 252.541872 190.662579 
L 254.84558 191.584439 
L 257.149287 192.496507 
L 259.452995 193.398939 
L 261.756703 194.291887 
L 264.06041 195.175499 
L 266.364118 196.049921 
L 268.667825 196.915295 
L 270.971533 197.771762 
L 273.275241 198.619457 
L 275.578948 199.458516 
L 277.882656 200.28907 
L 280.186364 201.111246 
" style="fill:none;stroke:#1f77b4;stroke-linecap:square;stroke-width:1.5;"/>
   </g>
   <g id="line2d_14">
    <path clip-path="url(#p79723630d3)" d="M 51.913636 39.06 
L 54.221499 41.654118 
L 56.529362 46.193824 
L 58.837224 47.490882 
L 61.145087 50.085 
L 63.452949 55.273235 
L 65.760812 55.921765 
L 68.068675 59.164412 
L 70.376537 66.298235 
L 72.6844 65.649706 
L 74.992263 74.080588 
L 77.300125 74.729118 
L 79.607988 75.377647 
L 81.91585 70.189412 
L 84.223713 77.971765 
L 86.531576 79.268824 
L 88.839438 87.051176 
L 91.147301 85.105588 
L 93.455163 93.536471 
L 95.763026 83.16 
L 98.070889 89.645294 
L 100.378751 92.887941 
L 102.686614 88.996765 
L 104.994477 107.804118 
L 107.302339 94.833529 
L 109.610202 98.076176 
L 111.918064 106.507059 
L 114.225927 108.452647 
L 116.53379 116.235 
L 118.841652 118.180588 
L 121.149515 117.532059 
L 123.457377 117.532059 
L 125.76524 125.314412 
L 128.073103 129.205588 
L 130.380965 124.017353 
L 132.688828 120.126176 
L 134.996691 129.205588 
L 137.304553 131.151176 
L 139.612416 118.180588 
L 141.920278 136.987941 
L 144.228141 124.017353 
L 146.536004 129.854118 
L 148.843866 130.502647 
L 151.151729 127.908529 
L 153.459591 140.230588 
L 155.767454 139.582059 
L 158.075317 139.582059 
L 160.383179 149.31 
L 162.691042 155.146765 
L 164.998905 155.146765 
L 167.306767 143.473235 
L 169.61463 138.285 
L 171.922492 157.740882 
L 174.230355 152.552647 
L 176.538218 155.146765 
L 178.84608 152.552647 
L 181.153943 160.983529 
L 183.461805 151.255588 
L 185.769668 148.012941 
L 188.077531 153.201176 
L 190.385393 156.443824 
L 192.693256 161.632059 
L 195.001119 173.305588 
L 197.308981 171.36 
L 199.616844 160.335 
L 201.924706 166.171765 
L 204.232569 165.523235 
L 206.540432 172.008529 
L 208.848294 179.142353 
L 211.156157 181.087941 
L 213.464019 162.929118 
L 215.771882 161.632059 
L 218.079745 178.493824 
L 220.387607 180.439412 
L 222.69547 177.196765 
L 225.003333 173.305588 
L 227.311195 172.008529 
L 229.619058 186.276176 
L 231.92692 176.548235 
L 234.234783 175.251176 
L 236.542646 181.736471 
L 238.850508 173.954118 
L 241.158371 191.464412 
L 243.466233 177.845294 
L 245.774096 177.845294 
L 248.081959 196.652647 
L 250.389821 192.112941 
L 252.697684 187.573235 
L 255.005547 187.573235 
L 257.313409 188.870294 
L 259.621272 190.815882 
L 261.929134 197.949706 
L 264.236997 195.355588 
L 266.54486 215.46 
L 268.852722 188.221765 
L 271.160585 187.573235 
L 273.468447 199.895294 
L 275.77631 207.029118 
L 278.084173 203.137941 
" style="fill:none;stroke:#ff7f0e;stroke-linecap:square;stroke-width:1.5;"/>
   </g>
   <g id="patch_3">
    <path d="M 40.5 224.28 
L 40.5 30.24 
" style="fill:none;stroke:#000000;stroke-linecap:square;stroke-linejoin:miter;stroke-width:0.8;"/>
   </g>
   <g id="patch_4">
    <path d="M 291.6 224.28 
L 291.6 30.24 
" style="fill:none;stroke:#000000;stroke-linecap:square;stroke-linejoin:miter;stroke-width:0.8;"/>
   </g>
   <g id="patch_5">
    <path d="M 40.5 224.28 
L 291.6 224.28 
" style="fill:none;stroke:#000000;stroke-linecap:square;stroke-linejoin:miter;stroke-width:0.8;"/>
   </g>
   <g id="patch_6">
    <path d="M 40.5 30.24 
L 291.6 30.24 
" style="fill:none;stroke:#000000;stroke-linecap:square;stroke-linejoin:miter;stroke-width:0.8;"/>
   </g>
   <g id="text_15">
    <text style="font-family:DejaVu Sans;font-size:12px;font-style:normal;font-weight:normal;text-anchor:middle;" transform="rotate(-0, 166.05, 24.24)" x="166.05" y="24.24">Expected Value in 1/(1+x) (Alt. Series) Algorithm</text>
   </g>
   <g id="legend_1">
    <g id="patch_7">
     <path d="M 55.821875 67.59625 
L 284.6 67.59625 
Q 286.6 67.59625 286.6 65.59625 
L 286.6 37.24 
Q 286.6 35.24 284.6 35.24 
L 55.821875 35.24 
Q 53.821875 35.24 53.821875 37.24 
L 53.821875 65.59625 
Q 53.821875 67.59625 55.821875 67.59625 
z
" style="fill:#ffffff;opacity:0.8;stroke:#cccccc;stroke-linejoin:miter;"/>
    </g>
    <g id="line2d_15">
     <path d="M 57.821875 43.338438 
L 77.821875 43.338438 
" style="fill:none;stroke:#1f77b4;stroke-linecap:square;stroke-width:1.5;"/>
    </g>
    <g id="line2d_16"/>
    <g id="text_16">
     <text style="font-family:DejaVu Sans;font-size:10px;font-style:normal;font-weight:normal;text-anchor:start;" transform="rotate(-0, 85.821875, 46.838438)" x="85.821875" y="46.838438">1/(1+x)</text>
    </g>
    <g id="line2d_17">
     <path d="M 57.821875 58.016563 
L 77.821875 58.016563 
" style="fill:none;stroke:#ff7f0e;stroke-linecap:square;stroke-width:1.5;"/>
    </g>
    <g id="line2d_18"/>
    <g id="text_17">
     <text style="font-family:DejaVu Sans;font-size:10px;font-style:normal;font-weight:normal;text-anchor:start;" transform="rotate(-0, 85.821875, 61.516563)" x="85.821875" y="61.516563">Simulated Mean of 1/(1+x) (Alt. Series)</text>
    </g>
   </g>
  </g>
 </g>
 <defs>
  <clipPath id="p79723630d3">
   <rect height="194.04" width="251.1" x="40.5" y="30.24"/>
  </clipPath>
 </defs>
</svg>
