<?xml version="1.0" encoding="utf-8" standalone="no"?>
<!DOCTYPE svg PUBLIC "-//W3C//DTD SVG 1.1//EN"
  "http://www.w3.org/Graphics/SVG/1.1/DTD/svg11.dtd">
<!-- Created with matplotlib (https://matplotlib.org/) -->
<svg height="252pt" version="1.1" viewBox="0 0 324 252" width="324pt" xmlns="http://www.w3.org/2000/svg" xmlns:xlink="http://www.w3.org/1999/xlink">
 <defs>
  <style type="text/css">
*{stroke-linecap:butt;stroke-linejoin:round;}
  </style>
 </defs>
 <g id="figure_1">
  <g id="patch_1">
   <path d="M 0 252 
L 324 252 
L 324 0 
L 0 0 
z
" style="fill:#ffffff;"/>
  </g>
  <g id="axes_1">
   <g id="patch_2">
    <path d="M 40.5 224.28 
L 291.6 224.28 
L 291.6 30.24 
L 40.5 30.24 
z
" style="fill:#ffffff;"/>
   </g>
   <g id="matplotlib.axis_1">
    <g id="xtick_1">
     <g id="line2d_1">
      <defs>
       <path d="M 0 0 
L 0 3.5 
" id="m5135b5f819" style="stroke:#000000;stroke-width:0.8;"/>
      </defs>
      <g>
       <use style="stroke:#000000;stroke-width:0.8;" x="51.890805" xlink:href="#m5135b5f819" y="224.28"/>
      </g>
     </g>
     <g id="text_1">
      <text style="font-family:DejaVu Sans;font-size:10px;font-style:normal;font-weight:normal;text-anchor:middle;" transform="rotate(-0, 51.890805, 238.878438)" x="51.890805" y="238.878438">0.0</text>
     </g>
    </g>
    <g id="xtick_2">
     <g id="line2d_2">
      <g>
       <use style="stroke:#000000;stroke-width:0.8;" x="97.554483" xlink:href="#m5135b5f819" y="224.28"/>
      </g>
     </g>
     <g id="text_2">
      <text style="font-family:DejaVu Sans;font-size:10px;font-style:normal;font-weight:normal;text-anchor:middle;" transform="rotate(-0, 97.554483, 238.878438)" x="97.554483" y="238.878438">0.2</text>
     </g>
    </g>
    <g id="xtick_3">
     <g id="line2d_3">
      <g>
       <use style="stroke:#000000;stroke-width:0.8;" x="143.218161" xlink:href="#m5135b5f819" y="224.28"/>
      </g>
     </g>
     <g id="text_3">
      <text style="font-family:DejaVu Sans;font-size:10px;font-style:normal;font-weight:normal;text-anchor:middle;" transform="rotate(-0, 143.218161, 238.878438)" x="143.218161" y="238.878438">0.4</text>
     </g>
    </g>
    <g id="xtick_4">
     <g id="line2d_4">
      <g>
       <use style="stroke:#000000;stroke-width:0.8;" x="188.881839" xlink:href="#m5135b5f819" y="224.28"/>
      </g>
     </g>
     <g id="text_4">
      <text style="font-family:DejaVu Sans;font-size:10px;font-style:normal;font-weight:normal;text-anchor:middle;" transform="rotate(-0, 188.881839, 238.878438)" x="188.881839" y="238.878438">0.6</text>
     </g>
    </g>
    <g id="xtick_5">
     <g id="line2d_5">
      <g>
       <use style="stroke:#000000;stroke-width:0.8;" x="234.545517" xlink:href="#m5135b5f819" y="224.28"/>
      </g>
     </g>
     <g id="text_5">
      <text style="font-family:DejaVu Sans;font-size:10px;font-style:normal;font-weight:normal;text-anchor:middle;" transform="rotate(-0, 234.545517, 238.878438)" x="234.545517" y="238.878438">0.8</text>
     </g>
    </g>
    <g id="xtick_6">
     <g id="line2d_6">
      <g>
       <use style="stroke:#000000;stroke-width:0.8;" x="280.209195" xlink:href="#m5135b5f819" y="224.28"/>
      </g>
     </g>
     <g id="text_6">
      <text style="font-family:DejaVu Sans;font-size:10px;font-style:normal;font-weight:normal;text-anchor:middle;" transform="rotate(-0, 280.209195, 238.878438)" x="280.209195" y="238.878438">1.0</text>
     </g>
    </g>
    <g id="text_7">
     <text style="font-family:DejaVu Sans;font-size:10px;font-style:normal;font-weight:normal;text-anchor:middle;" transform="rotate(-0, 166.05, 252.556563)" x="166.05" y="252.556563">Probability</text>
    </g>
   </g>
   <g id="matplotlib.axis_2">
    <g id="ytick_1">
     <g id="line2d_7">
      <defs>
       <path d="M 0 0 
L -3.5 0 
" id="m8e993478a9" style="stroke:#000000;stroke-width:0.8;"/>
      </defs>
      <g>
       <use style="stroke:#000000;stroke-width:0.8;" x="40.5" xlink:href="#m8e993478a9" y="207.4781"/>
      </g>
     </g>
     <g id="text_8">
      <text style="font-family:DejaVu Sans;font-size:10px;font-style:normal;font-weight:normal;text-anchor:end;" transform="rotate(-0, 33.5, 211.277318)" x="33.5" y="211.277318">2.0</text>
     </g>
    </g>
    <g id="ytick_2">
     <g id="line2d_8">
      <g>
       <use style="stroke:#000000;stroke-width:0.8;" x="40.5" xlink:href="#m8e993478a9" y="167.568597"/>
      </g>
     </g>
     <g id="text_9">
      <text style="font-family:DejaVu Sans;font-size:10px;font-style:normal;font-weight:normal;text-anchor:end;" transform="rotate(-0, 33.5, 171.367816)" x="33.5" y="171.367816">2.5</text>
     </g>
    </g>
    <g id="ytick_3">
     <g id="line2d_9">
      <g>
       <use style="stroke:#000000;stroke-width:0.8;" x="40.5" xlink:href="#m8e993478a9" y="127.659095"/>
      </g>
     </g>
     <g id="text_10">
      <text style="font-family:DejaVu Sans;font-size:10px;font-style:normal;font-weight:normal;text-anchor:end;" transform="rotate(-0, 33.5, 131.458314)" x="33.5" y="131.458314">3.0</text>
     </g>
    </g>
    <g id="ytick_4">
     <g id="line2d_10">
      <g>
       <use style="stroke:#000000;stroke-width:0.8;" x="40.5" xlink:href="#m8e993478a9" y="87.749593"/>
      </g>
     </g>
     <g id="text_11">
      <text style="font-family:DejaVu Sans;font-size:10px;font-style:normal;font-weight:normal;text-anchor:end;" transform="rotate(-0, 33.5, 91.548812)" x="33.5" y="91.548812">3.5</text>
     </g>
    </g>
    <g id="ytick_5">
     <g id="line2d_11">
      <g>
       <use style="stroke:#000000;stroke-width:0.8;" x="40.5" xlink:href="#m8e993478a9" y="47.84009"/>
      </g>
     </g>
     <g id="text_12">
      <text style="font-family:DejaVu Sans;font-size:10px;font-style:normal;font-weight:normal;text-anchor:end;" transform="rotate(-0, 33.5, 51.639309)" x="33.5" y="51.639309">4.0</text>
     </g>
    </g>
    <g id="text_13">
     <text style="font-family:DejaVu Sans;font-size:10px;font-style:normal;font-weight:normal;text-anchor:middle;" transform="rotate(-90, 11.517187, 127.26)" x="11.517187" y="127.26">Average Bits Consumed Per Call</text>
    </g>
   </g>
   <g id="line2d_12">
    <path clip-path="url(#pa0446eb6e2)" d="M 51.913636 63.484615 
L 54.219421 39.06 
L 56.525207 44.487692 
L 58.830992 41.614208 
L 61.136777 53.267783 
L 63.442562 80.72552 
L 65.748347 39.538914 
L 68.054132 46.403348 
L 70.359917 78.650226 
L 72.665702 88.228507 
L 74.971488 66.198462 
L 77.277273 73.861086 
L 79.583058 98.445339 
L 81.888843 61.409321 
L 84.194628 117.282624 
L 86.500413 91.261629 
L 88.806198 77.213484 
L 91.111983 89.505611 
L 93.417769 100.201357 
L 95.723554 103.873032 
L 98.029339 76.415294 
L 100.335124 119.038643 
L 102.640909 118.719367 
L 104.946694 108.981448 
L 107.252479 97.487511 
L 109.558264 116.80371 
L 111.86405 108.342896 
L 114.169835 102.915204 
L 116.47562 103.074842 
L 118.781405 123.987421 
L 121.08719 110.258552 
L 123.392975 133.246425 
L 125.69876 125.104887 
L 128.004545 124.785611 
L 130.310331 123.987421 
L 132.616116 142.984344 
L 134.921901 129.574751 
L 137.227686 132.767511 
L 139.533471 130.053665 
L 141.839256 127.818733 
L 144.145041 134.363891 
L 146.450826 162.460181 
L 148.756612 144.421086 
L 151.062397 143.30362 
L 153.368182 149.050588 
L 155.673967 133.246425 
L 157.979752 142.824706 
L 160.285537 141.547602 
L 162.591322 167.887873 
L 164.897107 138.833756 
L 167.202893 143.782534 
L 169.508678 155.436109 
L 171.814463 152.08371 
L 174.120248 152.722262 
L 176.426033 156.234299 
L 178.731818 157.192127 
L 181.037603 171.39991 
L 183.343388 168.686063 
L 185.649174 172.836652 
L 187.954959 169.643891 
L 190.260744 165.174027 
L 192.566529 173.79448 
L 194.872314 171.080633 
L 197.178099 172.836652 
L 199.483884 183.213122 
L 201.789669 158.948145 
L 204.095455 180.020362 
L 206.40124 174.911946 
L 208.707025 171.559548 
L 211.01281 168.686063 
L 213.318595 177.78543 
L 215.62438 184.649864 
L 217.930165 186.405882 
L 220.23595 175.231222 
L 222.541736 184.330588 
L 224.847521 180.339638 
L 227.153306 186.56552 
L 229.459091 174.911946 
L 231.764876 183.532398 
L 234.070661 187.204072 
L 236.376446 181.137828 
L 238.682231 191.354661 
L 240.988017 207.957014 
L 243.293802 189.917919 
L 245.599587 186.884796 
L 247.905372 188.321538 
L 250.211157 197.420905 
L 252.516942 205.402805 
L 254.822727 179.541448 
L 257.128512 208.595566 
L 259.434298 215.46 
L 261.740083 207.318462 
L 264.045868 198.378733 
L 266.351653 201.731131 
L 268.657438 203.487149 
L 270.963223 213.06543 
L 273.269008 202.529321 
L 275.574793 205.881719 
L 277.880579 203.008235 
L 280.186364 205.881719 
" style="fill:none;stroke:#1f77b4;stroke-linecap:square;stroke-width:1.5;"/>
   </g>
   <g id="patch_3">
    <path d="M 40.5 224.28 
L 40.5 30.24 
" style="fill:none;stroke:#000000;stroke-linecap:square;stroke-linejoin:miter;stroke-width:0.8;"/>
   </g>
   <g id="patch_4">
    <path d="M 291.6 224.28 
L 291.6 30.24 
" style="fill:none;stroke:#000000;stroke-linecap:square;stroke-linejoin:miter;stroke-width:0.8;"/>
   </g>
   <g id="patch_5">
    <path d="M 40.5 224.28 
L 291.6 224.28 
" style="fill:none;stroke:#000000;stroke-linecap:square;stroke-linejoin:miter;stroke-width:0.8;"/>
   </g>
   <g id="patch_6">
    <path d="M 40.5 30.24 
L 291.6 30.24 
" style="fill:none;stroke:#000000;stroke-linecap:square;stroke-linejoin:miter;stroke-width:0.8;"/>
   </g>
   <g id="text_14">
    <text style="font-family:DejaVu Sans;font-size:12px;font-style:normal;font-weight:normal;text-anchor:middle;" transform="rotate(-0, 166.05, 24.24)" x="166.05" y="24.24">Avg. Bits Consumed by 1/(1+x) (Two-Coin Special Case) Algorithm</text>
   </g>
  </g>
 </g>
 <defs>
  <clipPath id="pa0446eb6e2">
   <rect height="194.04" width="251.1" x="40.5" y="30.24"/>
  </clipPath>
 </defs>
</svg>
