<?xml version="1.0" encoding="utf-8" standalone="no"?>
<!DOCTYPE svg PUBLIC "-//W3C//DTD SVG 1.1//EN"
  "http://www.w3.org/Graphics/SVG/1.1/DTD/svg11.dtd">
<!-- Created with matplotlib (https://matplotlib.org/) -->
<svg height="345.6pt" version="1.1" viewBox="0 0 460.8 345.6" width="460.8pt" xmlns="http://www.w3.org/2000/svg" xmlns:xlink="http://www.w3.org/1999/xlink">
 <defs>
  <style type="text/css">
*{stroke-linecap:butt;stroke-linejoin:round;}
  </style>
 </defs>
 <g id="figure_1">
  <g id="patch_1">
   <path d="M 0 345.6 
L 460.8 345.6 
L 460.8 0 
L 0 0 
z
" style="fill:#ffffff;"/>
  </g>
  <g id="axes_1">
   <g id="patch_2">
    <path d="M 57.6 307.584 
L 414.72 307.584 
L 414.72 41.472 
L 57.6 41.472 
z
" style="fill:#ffffff;"/>
   </g>
   <g id="matplotlib.axis_1">
    <g id="xtick_1">
     <g id="line2d_1">
      <defs>
       <path d="M 0 0 
L 0 3.5 
" id="m78c89dd28b" style="stroke:#000000;stroke-width:0.8;"/>
      </defs>
      <g>
       <use style="stroke:#000000;stroke-width:0.8;" x="73.800255" xlink:href="#m78c89dd28b" y="307.584"/>
      </g>
     </g>
     <g id="text_1">
      <text style="font-family:DejaVu Sans;font-size:10px;font-style:normal;font-weight:normal;text-anchor:middle;" transform="rotate(-0, 73.800255, 322.182437)" x="73.800255" y="322.182437">0.0</text>
     </g>
    </g>
    <g id="xtick_2">
     <g id="line2d_2">
      <g>
       <use style="stroke:#000000;stroke-width:0.8;" x="138.744153" xlink:href="#m78c89dd28b" y="307.584"/>
      </g>
     </g>
     <g id="text_2">
      <text style="font-family:DejaVu Sans;font-size:10px;font-style:normal;font-weight:normal;text-anchor:middle;" transform="rotate(-0, 138.744153, 322.182437)" x="138.744153" y="322.182437">0.2</text>
     </g>
    </g>
    <g id="xtick_3">
     <g id="line2d_3">
      <g>
       <use style="stroke:#000000;stroke-width:0.8;" x="203.688051" xlink:href="#m78c89dd28b" y="307.584"/>
      </g>
     </g>
     <g id="text_3">
      <text style="font-family:DejaVu Sans;font-size:10px;font-style:normal;font-weight:normal;text-anchor:middle;" transform="rotate(-0, 203.688051, 322.182437)" x="203.688051" y="322.182437">0.4</text>
     </g>
    </g>
    <g id="xtick_4">
     <g id="line2d_4">
      <g>
       <use style="stroke:#000000;stroke-width:0.8;" x="268.631949" xlink:href="#m78c89dd28b" y="307.584"/>
      </g>
     </g>
     <g id="text_4">
      <text style="font-family:DejaVu Sans;font-size:10px;font-style:normal;font-weight:normal;text-anchor:middle;" transform="rotate(-0, 268.631949, 322.182437)" x="268.631949" y="322.182437">0.6</text>
     </g>
    </g>
    <g id="xtick_5">
     <g id="line2d_5">
      <g>
       <use style="stroke:#000000;stroke-width:0.8;" x="333.575847" xlink:href="#m78c89dd28b" y="307.584"/>
      </g>
     </g>
     <g id="text_5">
      <text style="font-family:DejaVu Sans;font-size:10px;font-style:normal;font-weight:normal;text-anchor:middle;" transform="rotate(-0, 333.575847, 322.182437)" x="333.575847" y="322.182437">0.8</text>
     </g>
    </g>
    <g id="xtick_6">
     <g id="line2d_6">
      <g>
       <use style="stroke:#000000;stroke-width:0.8;" x="398.519745" xlink:href="#m78c89dd28b" y="307.584"/>
      </g>
     </g>
     <g id="text_6">
      <text style="font-family:DejaVu Sans;font-size:10px;font-style:normal;font-weight:normal;text-anchor:middle;" transform="rotate(-0, 398.519745, 322.182437)" x="398.519745" y="322.182437">1.0</text>
     </g>
    </g>
    <g id="text_7">
     <text style="font-family:DejaVu Sans;font-size:10px;font-style:normal;font-weight:normal;text-anchor:middle;" transform="rotate(-0, 236.16, 335.860562)" x="236.16" y="335.860562">Input Coin's Heads Probability (λ)</text>
    </g>
   </g>
   <g id="matplotlib.axis_2">
    <g id="ytick_1">
     <g id="line2d_7">
      <defs>
       <path d="M 0 0 
L -3.5 0 
" id="mbaefa007e6" style="stroke:#000000;stroke-width:0.8;"/>
      </defs>
      <g>
       <use style="stroke:#000000;stroke-width:0.8;" x="57.6" xlink:href="#mbaefa007e6" y="295.488063"/>
      </g>
     </g>
     <g id="text_8">
      <text style="font-family:DejaVu Sans;font-size:10px;font-style:normal;font-weight:normal;text-anchor:end;" transform="rotate(-0, 50.6, 299.287282)" x="50.6" y="299.287282">0</text>
     </g>
    </g>
    <g id="ytick_2">
     <g id="line2d_8">
      <g>
       <use style="stroke:#000000;stroke-width:0.8;" x="57.6" xlink:href="#mbaefa007e6" y="244.81887"/>
      </g>
     </g>
     <g id="text_9">
      <text style="font-family:DejaVu Sans;font-size:10px;font-style:normal;font-weight:normal;text-anchor:end;" transform="rotate(-0, 50.6, 248.618089)" x="50.6" y="248.618089">20</text>
     </g>
    </g>
    <g id="ytick_3">
     <g id="line2d_9">
      <g>
       <use style="stroke:#000000;stroke-width:0.8;" x="57.6" xlink:href="#mbaefa007e6" y="194.149677"/>
      </g>
     </g>
     <g id="text_10">
      <text style="font-family:DejaVu Sans;font-size:10px;font-style:normal;font-weight:normal;text-anchor:end;" transform="rotate(-0, 50.6, 197.948896)" x="50.6" y="197.948896">40</text>
     </g>
    </g>
    <g id="ytick_4">
     <g id="line2d_10">
      <g>
       <use style="stroke:#000000;stroke-width:0.8;" x="57.6" xlink:href="#mbaefa007e6" y="143.480483"/>
      </g>
     </g>
     <g id="text_11">
      <text style="font-family:DejaVu Sans;font-size:10px;font-style:normal;font-weight:normal;text-anchor:end;" transform="rotate(-0, 50.6, 147.279702)" x="50.6" y="147.279702">60</text>
     </g>
    </g>
    <g id="ytick_5">
     <g id="line2d_11">
      <g>
       <use style="stroke:#000000;stroke-width:0.8;" x="57.6" xlink:href="#mbaefa007e6" y="92.81129"/>
      </g>
     </g>
     <g id="text_12">
      <text style="font-family:DejaVu Sans;font-size:10px;font-style:normal;font-weight:normal;text-anchor:end;" transform="rotate(-0, 50.6, 96.610509)" x="50.6" y="96.610509">80</text>
     </g>
    </g>
    <g id="ytick_6">
     <g id="line2d_12">
      <g>
       <use style="stroke:#000000;stroke-width:0.8;" x="57.6" xlink:href="#mbaefa007e6" y="42.142097"/>
      </g>
     </g>
     <g id="text_13">
      <text style="font-family:DejaVu Sans;font-size:10px;font-style:normal;font-weight:normal;text-anchor:end;" transform="rotate(-0, 50.6, 45.941316)" x="50.6" y="45.941316">100</text>
     </g>
    </g>
    <g id="text_14">
     <text style="font-family:DejaVu Sans;font-size:10px;font-style:normal;font-weight:normal;text-anchor:middle;" transform="rotate(-90, 25.432813, 174.528)" x="25.432813" y="174.528">Coin Flips Needed</text>
    </g>
   </g>
   <g id="line2d_13">
    <path clip-path="url(#p485b89eb9d)" d="M 73.832727 292.955364 
L 77.112066 293.030821 
L 80.391405 293.103801 
L 83.670744 293.174407 
L 86.950083 293.242734 
L 90.229421 293.308874 
L 93.50876 293.372914 
L 96.788099 293.434938 
L 100.067438 293.495023 
L 103.346777 293.553246 
L 106.626116 293.609678 
L 109.905455 293.664387 
L 113.184793 293.717439 
L 116.464132 293.768896 
L 119.743471 293.818817 
L 123.02281 293.867259 
L 126.302149 293.914276 
L 129.581488 293.95992 
L 132.860826 294.004241 
L 136.140165 294.047285 
L 139.419504 294.089098 
L 142.698843 294.129724 
L 145.978182 294.169203 
L 149.257521 294.207577 
L 152.53686 294.244881 
L 155.816198 294.281155 
L 159.095537 294.316431 
L 162.374876 294.350744 
L 165.654215 294.384126 
L 168.933554 294.416608 
L 172.212893 294.44822 
L 175.492231 294.478989 
L 178.77157 294.508944 
L 182.050909 294.538111 
L 185.330248 294.566515 
L 188.609587 294.594179 
L 191.888926 294.621129 
L 195.168264 294.647386 
L 198.447603 294.672971 
L 201.726942 294.697906 
L 205.006281 294.72221 
L 208.28562 294.745903 
L 211.564959 294.769003 
L 214.844298 294.791529 
L 218.123636 294.813497 
L 221.402975 294.834925 
L 224.682314 294.855827 
L 227.961653 294.876221 
L 231.240992 294.89612 
L 234.520331 294.915539 
L 237.799669 294.934491 
L 241.079008 294.952991 
L 244.358347 294.971051 
L 247.637686 294.988684 
L 250.917025 295.005902 
L 254.196364 295.022716 
L 257.475702 295.039137 
L 260.755041 295.055178 
L 264.03438 295.070847 
L 267.313719 295.086156 
L 270.593058 295.101114 
L 273.872397 295.11573 
L 277.151736 295.130015 
L 280.431074 295.143976 
L 283.710413 295.157623 
L 286.989752 295.170963 
L 290.269091 295.184006 
L 293.54843 295.196758 
L 296.827769 295.209227 
L 300.107107 295.221421 
L 303.386446 295.233347 
L 306.665785 295.245012 
L 309.945124 295.256422 
L 313.224463 295.267584 
L 316.503802 295.278504 
L 319.78314 295.289189 
L 323.062479 295.299643 
L 326.341818 295.309874 
L 329.621157 295.319886 
L 332.900496 295.329685 
L 336.179835 295.339276 
L 339.459174 295.348665 
L 342.738512 295.357855 
L 346.017851 295.366853 
L 349.29719 295.375662 
L 352.576529 295.384288 
L 355.855868 295.392734 
L 359.135207 295.401005 
L 362.414545 295.409105 
L 365.693884 295.417038 
L 368.973223 295.424808 
L 372.252562 295.432419 
L 375.531901 295.439875 
L 378.81124 295.447178 
L 382.090579 295.454333 
L 385.369917 295.461344 
L 388.649256 295.468212 
L 391.928595 295.474942 
L 395.207934 295.481537 
L 398.487273 295.488 
" style="fill:none;stroke:#1f77b4;stroke-linecap:square;stroke-width:1.5;"/>
   </g>
   <g id="line2d_14">
    <path clip-path="url(#p485b89eb9d)" d="M 73.832727 292.954604 
L 77.112066 292.934336 
L 80.391405 292.903934 
L 83.670744 292.919135 
L 86.950083 292.868466 
L 90.229421 292.802596 
L 93.50876 292.772195 
L 96.788099 292.736726 
L 100.067438 292.68099 
L 103.346777 292.691124 
L 106.626116 292.68099 
L 109.905455 292.645522 
L 113.184793 292.640455 
L 116.464132 292.589785 
L 119.743471 292.518849 
L 123.02281 292.503648 
L 126.302149 292.447912 
L 129.581488 292.366841 
L 132.860826 292.447912 
L 136.140165 292.2199 
L 139.419504 292.245235 
L 142.698843 292.265503 
L 145.978182 292.174298 
L 149.257521 292.230034 
L 152.53686 292.164164 
L 155.816198 292.083094 
L 159.095537 292.037491 
L 162.374876 292.042558 
L 165.654215 291.951354 
L 168.933554 291.910818 
L 172.212893 291.794279 
L 175.492231 291.834815 
L 178.77157 291.80948 
L 182.050909 291.667606 
L 185.330248 291.708142 
L 188.609587 291.500398 
L 191.888926 291.591602 
L 195.168264 291.383859 
L 198.447603 291.535866 
L 201.726942 291.500398 
L 205.006281 291.221717 
L 208.28562 291.145713 
L 211.564959 291.328123 
L 214.844298 290.998773 
L 218.123636 291.008907 
L 221.402975 290.60862 
L 224.682314 290.856899 
L 227.961653 290.659289 
L 231.240992 290.649155 
L 234.520331 290.436345 
L 237.799669 290.086727 
L 241.079008 289.970188 
L 244.358347 290.243802 
L 247.637686 290.122196 
L 250.917025 289.889117 
L 254.196364 289.797913 
L 257.475702 289.676307 
L 260.755041 289.357091 
L 264.03438 289.397626 
L 267.313719 289.225351 
L 270.593058 289.12908 
L 273.872397 288.647722 
L 277.151736 288.551451 
L 280.431074 288.363975 
L 283.710413 288.100495 
L 286.989752 288.049826 
L 290.269091 287.735677 
L 293.54843 287.59887 
L 296.827769 287.456996 
L 300.107107 287.771145 
L 303.386446 286.742561 
L 306.665785 285.896385 
L 309.945124 286.093995 
L 313.224463 286.251069 
L 316.503802 285.916653 
L 319.78314 285.648106 
L 323.062479 284.173632 
L 326.341818 283.626405 
L 329.621157 284.06216 
L 332.900496 283.449063 
L 336.179835 282.12153 
L 339.459174 280.910536 
L 342.738512 281.331091 
L 346.017851 279.98329 
L 349.29719 278.762163 
L 352.576529 276.983674 
L 355.855868 277.338358 
L 359.135207 274.521151 
L 362.414545 274.009392 
L 365.693884 272.428513 
L 368.973223 269.170484 
L 372.252562 265.21322 
L 375.531901 263.485401 
L 378.81124 250.539422 
L 382.090579 245.001279 
L 385.369917 235.754151 
L 388.649256 215.506742 
L 391.928595 167.654756 
L 395.207934 53.568 
" style="fill:none;stroke:#ff7f0e;stroke-linecap:square;stroke-width:1.5;"/>
   </g>
   <g id="patch_3">
    <path d="M 57.6 307.584 
L 57.6 41.472 
" style="fill:none;stroke:#000000;stroke-linecap:square;stroke-linejoin:miter;stroke-width:0.8;"/>
   </g>
   <g id="patch_4">
    <path d="M 414.72 307.584 
L 414.72 41.472 
" style="fill:none;stroke:#000000;stroke-linecap:square;stroke-linejoin:miter;stroke-width:0.8;"/>
   </g>
   <g id="patch_5">
    <path d="M 57.6 307.584 
L 414.72 307.584 
" style="fill:none;stroke:#000000;stroke-linecap:square;stroke-linejoin:miter;stroke-width:0.8;"/>
   </g>
   <g id="patch_6">
    <path d="M 57.6 41.472 
L 414.72 41.472 
" style="fill:none;stroke:#000000;stroke-linecap:square;stroke-linejoin:miter;stroke-width:0.8;"/>
   </g>
   <g id="text_15">
    <text style="font-family:DejaVu Sans;font-size:12px;font-style:normal;font-weight:normal;text-anchor:middle;" transform="rotate(-0, 236.16, 35.472)" x="236.16" y="35.472">Coin Flips for 1/(1+x)</text>
   </g>
   <g id="legend_1">
    <g id="patch_7">
     <path d="M 64.6 78.82825 
L 291.590625 78.82825 
Q 293.590625 78.82825 293.590625 76.82825 
L 293.590625 48.472 
Q 293.590625 46.472 291.590625 46.472 
L 64.6 46.472 
Q 62.6 46.472 62.6 48.472 
L 62.6 76.82825 
Q 62.6 78.82825 64.6 78.82825 
z
" style="fill:#ffffff;opacity:0.8;stroke:#cccccc;stroke-linejoin:miter;"/>
    </g>
    <g id="line2d_15">
     <path d="M 66.6 54.570437 
L 86.6 54.570437 
" style="fill:none;stroke:#1f77b4;stroke-linecap:square;stroke-width:1.5;"/>
    </g>
    <g id="line2d_16"/>
    <g id="text_16">
     <text style="font-family:DejaVu Sans;font-size:10px;font-style:normal;font-weight:normal;text-anchor:start;" transform="rotate(-0, 94.6, 58.070437)" x="94.6" y="58.070437">Coin Flip Lower Bound (Mendo)</text>
    </g>
    <g id="line2d_17">
     <path d="M 66.6 69.248562 
L 86.6 69.248562 
" style="fill:none;stroke:#ff7f0e;stroke-linecap:square;stroke-width:1.5;"/>
    </g>
    <g id="line2d_18"/>
    <g id="text_17">
     <text style="font-family:DejaVu Sans;font-size:10px;font-style:normal;font-weight:normal;text-anchor:start;" transform="rotate(-0, 94.6, 72.748562)" x="94.6" y="72.748562">Avg. Coins Flipped 1/(1+x) (Alt. Series)</text>
    </g>
   </g>
  </g>
 </g>
 <defs>
  <clipPath id="p485b89eb9d">
   <rect height="266.112" width="357.12" x="57.6" y="41.472"/>
  </clipPath>
 </defs>
</svg>
