<svg height="460.8" viewBox="0 0 460.8 345.6" width="614.4" xmlns="http://www.w3.org/2000/svg" xmlns:xlink="http://www.w3.org/1999/xlink"><defs><style>*{stroke-linecap:butt;stroke-linejoin:round}</style></defs><g id="figure_1"><path d="M0 345.6h460.8V0H0z" fill="#fff" id="patch_1"/><g id="axes_1"><path d="M57.6 307.584h357.12V41.472H57.6z" fill="#fff" id="patch_2"/><g id="matplotlib.axis_1"><g id="xtick_1"><g id="line2d_1"><defs><path d="M0 0v3.5" id="m3d105e812b" stroke="#000" stroke-width=".8"/></defs><use x="73.8" xlink:href="#m3d105e812b" y="307.584" stroke="#000" stroke-width=".8"/></g><text x="73.8" y="322.182" font-family="DejaVu Sans" font-size="10" font-weight="400" text-anchor="middle" id="text_1">0.0</text></g><g id="xtick_2"><use x="138.744" xlink:href="#m3d105e812b" y="307.584" stroke="#000" stroke-width=".8" id="line2d_2"/><text x="138.744" y="322.182" font-family="DejaVu Sans" font-size="10" font-weight="400" text-anchor="middle" id="text_2">0.2</text></g><g id="xtick_3"><use x="203.688" xlink:href="#m3d105e812b" y="307.584" stroke="#000" stroke-width=".8" id="line2d_3"/><text x="203.688" y="322.182" font-family="DejaVu Sans" font-size="10" font-weight="400" text-anchor="middle" id="text_3">0.4</text></g><g id="xtick_4"><use x="268.632" xlink:href="#m3d105e812b" y="307.584" stroke="#000" stroke-width=".8" id="line2d_4"/><text x="268.632" y="322.182" font-family="DejaVu Sans" font-size="10" font-weight="400" text-anchor="middle" id="text_4">0.6</text></g><g id="xtick_5"><use x="333.576" xlink:href="#m3d105e812b" y="307.584" stroke="#000" stroke-width=".8" id="line2d_5"/><text x="333.576" y="322.182" font-family="DejaVu Sans" font-size="10" font-weight="400" text-anchor="middle" id="text_5">0.8</text></g><g id="xtick_6"><use x="398.52" xlink:href="#m3d105e812b" y="307.584" stroke="#000" stroke-width=".8" id="line2d_6"/><text x="398.52" y="322.182" font-family="DejaVu Sans" font-size="10" font-weight="400" text-anchor="middle" id="text_6">1.0</text></g><text x="236.16" y="335.861" font-family="DejaVu Sans" font-size="10" font-weight="400" text-anchor="middle" id="text_7">Probability</text></g><g id="matplotlib.axis_2"><g id="ytick_1"><g id="line2d_7"><defs><path d="M0 0h-3.5" id="mf37af76cd5" stroke="#000" stroke-width=".8"/></defs><use x="57.6" xlink:href="#mf37af76cd5" y="281.201" stroke="#000" stroke-width=".8"/></g><text x="50.6" y="285.001" font-family="DejaVu Sans" font-size="10" font-weight="400" text-anchor="end" id="text_8">3.4</text></g><g id="ytick_2"><use x="57.6" xlink:href="#mf37af76cd5" y="249.453" stroke="#000" stroke-width=".8" id="line2d_8"/><text x="50.6" y="253.253" font-family="DejaVu Sans" font-size="10" font-weight="400" text-anchor="end" id="text_9">3.6</text></g><g id="ytick_3"><use x="57.6" xlink:href="#mf37af76cd5" y="217.705" stroke="#000" stroke-width=".8" id="line2d_9"/><text x="50.6" y="221.505" font-family="DejaVu Sans" font-size="10" font-weight="400" text-anchor="end" id="text_10">3.8</text></g><g id="ytick_4"><use x="57.6" xlink:href="#mf37af76cd5" y="185.957" stroke="#000" stroke-width=".8" id="line2d_10"/><text x="50.6" y="189.757" font-family="DejaVu Sans" font-size="10" font-weight="400" text-anchor="end" id="text_11">4.0</text></g><g id="ytick_5"><use x="57.6" xlink:href="#mf37af76cd5" y="154.209" stroke="#000" stroke-width=".8" id="line2d_11"/><text x="50.6" y="158.008" font-family="DejaVu Sans" font-size="10" font-weight="400" text-anchor="end" id="text_12">4.2</text></g><g id="ytick_6"><use x="57.6" xlink:href="#mf37af76cd5" y="122.461" stroke="#000" stroke-width=".8" id="line2d_12"/><text x="50.6" y="126.26" font-family="DejaVu Sans" font-size="10" font-weight="400" text-anchor="end" id="text_13">4.4</text></g><g id="ytick_7"><use x="57.6" xlink:href="#mf37af76cd5" y="90.713" stroke="#000" stroke-width=".8" id="line2d_13"/><text x="50.6" y="94.512" font-family="DejaVu Sans" font-size="10" font-weight="400" text-anchor="end" id="text_14">4.6</text></g><g id="ytick_8"><use x="57.6" xlink:href="#mf37af76cd5" y="58.965" stroke="#000" stroke-width=".8" id="line2d_14"/><text x="50.6" y="62.764" font-family="DejaVu Sans" font-size="10" font-weight="400" text-anchor="end" id="text_15">4.8</text></g><text transform="rotate(-90 28.617 174.528)" x="28.617" y="174.528" font-family="DejaVu Sans" font-size="10" font-weight="400" text-anchor="middle" id="text_16">Average Bits Consumed Per Call</text></g><path clip-path="url(#p5ffb9da95d)" d="M73.833 109.762l3.28-40.003 3.278 30.796 3.28-25.398 3.28-21.589 3.278 20.636 3.28 7.62 3.28 9.207 3.278 1.27 3.28 6.667 3.28 26.033 3.278-14.922 3.28 9.207 3.28 22.859 3.278-42.225 3.28 51.432 3.28-26.35 3.278 18.413 3.28-16.827 3.28-23.81 3.279-10.795 3.279 69.21 3.28-60.32 3.279 45.4 3.279 39.367 3.28-47.94 3.279 29.208 3.279-51.114 3.28 25.716 3.279 3.492 3.279 7.937 3.28 24.446 3.279-24.128 3.279-.318 3.28 23.494 3.279-35.558 3.279 29.843 3.28 14.287 3.279-39.368 3.279 46.67 3.28-39.05 3.279 1.905 3.279 51.432 3.28-6.985 3.279-21.271 3.279 7.937 3.28-17.78 3.279 8.255 3.279 5.398 3.28-.953h3.279l3.279-11.43 3.28-3.809 3.279 57.781 3.279-46.987 3.28 9.842 3.279 15.557 3.279-26.034 3.28 26.986 3.279-4.127 3.28 3.492 3.278-1.905 3.28 16.192 3.28-4.445 3.278 10.794 3.28 4.763 3.28.635 3.278 6.35 3.28 12.381 3.28-42.542 3.278-1.905 3.28-9.207 3.28 52.067 3.278-29.209 3.28 5.715 3.28-.635 3.278 20.636 3.28 15.874 3.28-1.27 3.278-12.699 3.28-7.302 3.28-3.492 3.279 15.556 3.279-6.032 3.28 20.002 3.279-44.765 3.279 37.145 3.28 13.017 3.279-29.526 3.279 29.843 3.28-5.08 3.279-22.223 3.279-.318 3.28-17.461 3.279 44.447 3.279-13.334 3.28 16.509 3.279-6.985 3.279 31.431 3.28-41.59" fill="none" stroke="#1f77b4" stroke-linecap="square" stroke-width="1.5" id="line2d_15"/><path d="M57.6 307.584V41.472" fill="none" stroke="#000" stroke-linecap="square" stroke-width=".8" id="patch_3"/><path d="M414.72 307.584V41.472" fill="none" stroke="#000" stroke-linecap="square" stroke-width=".8" id="patch_4"/><path d="M57.6 307.584h357.12" fill="none" stroke="#000" stroke-linecap="square" stroke-width=".8" id="patch_5"/><path d="M57.6 41.472h357.12" fill="none" stroke="#000" stroke-linecap="square" stroke-width=".8" id="patch_6"/><text x="236.16" y="35.472" font-family="DejaVu Sans" font-size="12" font-weight="400" text-anchor="middle" id="text_17">Avg. Bits Consumed by 1/(3+x) Algorithm</text><g id="legend_1"><path d="M337.525 64.15h70.195q2 0 2-2V48.472q0-2-2-2h-70.195q-2 0-2 2V62.15q0 2 2 2z" fill="#fff" opacity=".8" stroke="#ccc" id="patch_7"/><path d="M339.525 54.57h20" fill="none" stroke="#1f77b4" stroke-linecap="square" stroke-width="1.5" id="line2d_16"/><text x="367.525" y="58.07" font-family="DejaVu Sans" font-size="10" font-weight="400" id="text_18">1/(3+x)</text></g></g></g><defs><clipPath id="p5ffb9da95d"><path d="M57.6 41.472h357.12v266.112H57.6z"/></clipPath></defs></svg>