<?xml version="1.0" encoding="utf-8" standalone="no"?>
<!DOCTYPE svg PUBLIC "-//W3C//DTD SVG 1.1//EN"
  "http://www.w3.org/Graphics/SVG/1.1/DTD/svg11.dtd">
<!-- Created with matplotlib (https://matplotlib.org/) -->
<svg height="345.6pt" version="1.1" viewBox="0 0 460.8 345.6" width="460.8pt" xmlns="http://www.w3.org/2000/svg" xmlns:xlink="http://www.w3.org/1999/xlink">
 <defs>
  <style type="text/css">
*{stroke-linecap:butt;stroke-linejoin:round;}
  </style>
 </defs>
 <g id="figure_1">
  <g id="patch_1">
   <path d="M 0 345.6 
L 460.8 345.6 
L 460.8 0 
L 0 0 
z
" style="fill:#ffffff;"/>
  </g>
  <g id="axes_1">
   <g id="patch_2">
    <path d="M 57.6 307.584 
L 414.72 307.584 
L 414.72 41.472 
L 57.6 41.472 
z
" style="fill:#ffffff;"/>
   </g>
   <g id="matplotlib.axis_1">
    <g id="xtick_1">
     <g id="line2d_1">
      <defs>
       <path d="M 0 0 
L 0 3.5 
" id="m84cf6bcab4" style="stroke:#000000;stroke-width:0.8;"/>
      </defs>
      <g>
       <use style="stroke:#000000;stroke-width:0.8;" x="73.800255" xlink:href="#m84cf6bcab4" y="307.584"/>
      </g>
     </g>
     <g id="text_1">
      <text style="font-family:DejaVu Sans;font-size:10px;font-style:normal;font-weight:normal;text-anchor:middle;" transform="rotate(-0, 73.800255, 322.182437)" x="73.800255" y="322.182437">0.0</text>
     </g>
    </g>
    <g id="xtick_2">
     <g id="line2d_2">
      <g>
       <use style="stroke:#000000;stroke-width:0.8;" x="138.744153" xlink:href="#m84cf6bcab4" y="307.584"/>
      </g>
     </g>
     <g id="text_2">
      <text style="font-family:DejaVu Sans;font-size:10px;font-style:normal;font-weight:normal;text-anchor:middle;" transform="rotate(-0, 138.744153, 322.182437)" x="138.744153" y="322.182437">0.2</text>
     </g>
    </g>
    <g id="xtick_3">
     <g id="line2d_3">
      <g>
       <use style="stroke:#000000;stroke-width:0.8;" x="203.688051" xlink:href="#m84cf6bcab4" y="307.584"/>
      </g>
     </g>
     <g id="text_3">
      <text style="font-family:DejaVu Sans;font-size:10px;font-style:normal;font-weight:normal;text-anchor:middle;" transform="rotate(-0, 203.688051, 322.182437)" x="203.688051" y="322.182437">0.4</text>
     </g>
    </g>
    <g id="xtick_4">
     <g id="line2d_4">
      <g>
       <use style="stroke:#000000;stroke-width:0.8;" x="268.631949" xlink:href="#m84cf6bcab4" y="307.584"/>
      </g>
     </g>
     <g id="text_4">
      <text style="font-family:DejaVu Sans;font-size:10px;font-style:normal;font-weight:normal;text-anchor:middle;" transform="rotate(-0, 268.631949, 322.182437)" x="268.631949" y="322.182437">0.6</text>
     </g>
    </g>
    <g id="xtick_5">
     <g id="line2d_5">
      <g>
       <use style="stroke:#000000;stroke-width:0.8;" x="333.575847" xlink:href="#m84cf6bcab4" y="307.584"/>
      </g>
     </g>
     <g id="text_5">
      <text style="font-family:DejaVu Sans;font-size:10px;font-style:normal;font-weight:normal;text-anchor:middle;" transform="rotate(-0, 333.575847, 322.182437)" x="333.575847" y="322.182437">0.8</text>
     </g>
    </g>
    <g id="xtick_6">
     <g id="line2d_6">
      <g>
       <use style="stroke:#000000;stroke-width:0.8;" x="398.519745" xlink:href="#m84cf6bcab4" y="307.584"/>
      </g>
     </g>
     <g id="text_6">
      <text style="font-family:DejaVu Sans;font-size:10px;font-style:normal;font-weight:normal;text-anchor:middle;" transform="rotate(-0, 398.519745, 322.182437)" x="398.519745" y="322.182437">1.0</text>
     </g>
    </g>
    <g id="text_7">
     <text style="font-family:DejaVu Sans;font-size:10px;font-style:normal;font-weight:normal;text-anchor:middle;" transform="rotate(-0, 236.16, 335.860562)" x="236.16" y="335.860562">Input Coin's Heads Probability (λ)</text>
    </g>
   </g>
   <g id="matplotlib.axis_2">
    <g id="ytick_1">
     <g id="line2d_7">
      <defs>
       <path d="M 0 0 
L -3.5 0 
" id="m8ca340a8f4" style="stroke:#000000;stroke-width:0.8;"/>
      </defs>
      <g>
       <use style="stroke:#000000;stroke-width:0.8;" x="57.6" xlink:href="#m8ca340a8f4" y="295.500327"/>
      </g>
     </g>
     <g id="text_8">
      <text style="font-family:DejaVu Sans;font-size:10px;font-style:normal;font-weight:normal;text-anchor:end;" transform="rotate(-0, 50.6, 299.299546)" x="50.6" y="299.299546">0.00</text>
     </g>
    </g>
    <g id="ytick_2">
     <g id="line2d_8">
      <g>
       <use style="stroke:#000000;stroke-width:0.8;" x="57.6" xlink:href="#m8ca340a8f4" y="262.629087"/>
      </g>
     </g>
     <g id="text_9">
      <text style="font-family:DejaVu Sans;font-size:10px;font-style:normal;font-weight:normal;text-anchor:end;" transform="rotate(-0, 50.6, 266.428306)" x="50.6" y="266.428306">0.05</text>
     </g>
    </g>
    <g id="ytick_3">
     <g id="line2d_9">
      <g>
       <use style="stroke:#000000;stroke-width:0.8;" x="57.6" xlink:href="#m8ca340a8f4" y="229.757847"/>
      </g>
     </g>
     <g id="text_10">
      <text style="font-family:DejaVu Sans;font-size:10px;font-style:normal;font-weight:normal;text-anchor:end;" transform="rotate(-0, 50.6, 233.557066)" x="50.6" y="233.557066">0.10</text>
     </g>
    </g>
    <g id="ytick_4">
     <g id="line2d_10">
      <g>
       <use style="stroke:#000000;stroke-width:0.8;" x="57.6" xlink:href="#m8ca340a8f4" y="196.886607"/>
      </g>
     </g>
     <g id="text_11">
      <text style="font-family:DejaVu Sans;font-size:10px;font-style:normal;font-weight:normal;text-anchor:end;" transform="rotate(-0, 50.6, 200.685826)" x="50.6" y="200.685826">0.15</text>
     </g>
    </g>
    <g id="ytick_5">
     <g id="line2d_11">
      <g>
       <use style="stroke:#000000;stroke-width:0.8;" x="57.6" xlink:href="#m8ca340a8f4" y="164.015367"/>
      </g>
     </g>
     <g id="text_12">
      <text style="font-family:DejaVu Sans;font-size:10px;font-style:normal;font-weight:normal;text-anchor:end;" transform="rotate(-0, 50.6, 167.814586)" x="50.6" y="167.814586">0.20</text>
     </g>
    </g>
    <g id="ytick_6">
     <g id="line2d_12">
      <g>
       <use style="stroke:#000000;stroke-width:0.8;" x="57.6" xlink:href="#m8ca340a8f4" y="131.144127"/>
      </g>
     </g>
     <g id="text_13">
      <text style="font-family:DejaVu Sans;font-size:10px;font-style:normal;font-weight:normal;text-anchor:end;" transform="rotate(-0, 50.6, 134.943345)" x="50.6" y="134.943345">0.25</text>
     </g>
    </g>
    <g id="ytick_7">
     <g id="line2d_13">
      <g>
       <use style="stroke:#000000;stroke-width:0.8;" x="57.6" xlink:href="#m8ca340a8f4" y="98.272887"/>
      </g>
     </g>
     <g id="text_14">
      <text style="font-family:DejaVu Sans;font-size:10px;font-style:normal;font-weight:normal;text-anchor:end;" transform="rotate(-0, 50.6, 102.072105)" x="50.6" y="102.072105">0.30</text>
     </g>
    </g>
    <g id="ytick_8">
     <g id="line2d_14">
      <g>
       <use style="stroke:#000000;stroke-width:0.8;" x="57.6" xlink:href="#m8ca340a8f4" y="65.401646"/>
      </g>
     </g>
     <g id="text_15">
      <text style="font-family:DejaVu Sans;font-size:10px;font-style:normal;font-weight:normal;text-anchor:end;" transform="rotate(-0, 50.6, 69.200865)" x="50.6" y="69.200865">0.35</text>
     </g>
    </g>
    <g id="text_16">
     <text style="font-family:DejaVu Sans;font-size:10px;font-style:normal;font-weight:normal;text-anchor:middle;" transform="rotate(-90, 22.254687, 174.528)" x="22.254687" y="174.528">Coin Flips Needed</text>
    </g>
   </g>
   <g id="line2d_15">
    <path clip-path="url(#pf851ed9b3d)" d="M 73.832727 76.395247 
L 77.112066 80.061081 
L 80.391405 83.682866 
L 83.670744 87.261237 
L 86.950083 90.796819 
L 90.229421 94.290224 
L 93.50876 97.742056 
L 96.788099 101.152906 
L 100.067438 104.523357 
L 103.346777 107.853982 
L 106.626116 111.145341 
L 109.905455 114.397989 
L 113.184793 117.612469 
L 116.464132 120.789316 
L 119.743471 123.929054 
L 123.02281 127.0322 
L 126.302149 130.099263 
L 129.581488 133.130741 
L 132.860826 136.127127 
L 136.140165 139.088902 
L 139.419504 142.016543 
L 142.698843 144.910516 
L 145.978182 147.77128 
L 149.257521 150.599289 
L 152.53686 153.394987 
L 155.816198 156.15881 
L 159.095537 158.89119 
L 162.374876 161.59255 
L 165.654215 164.263306 
L 168.933554 166.903868 
L 172.212893 169.514639 
L 175.492231 172.096017 
L 178.77157 174.648391 
L 182.050909 177.172146 
L 185.330248 179.66766 
L 188.609587 182.135306 
L 191.888926 184.575449 
L 195.168264 186.98845 
L 198.447603 189.374664 
L 201.726942 191.734441 
L 205.006281 194.068124 
L 208.28562 196.376051 
L 211.564959 198.658557 
L 214.844298 200.915968 
L 218.123636 203.148609 
L 221.402975 205.356798 
L 224.682314 207.540847 
L 227.961653 209.701065 
L 231.240992 211.837756 
L 234.520331 213.951218 
L 237.799669 216.041747 
L 241.079008 218.109632 
L 244.358347 220.15516 
L 247.637686 222.178611 
L 250.917025 224.180263 
L 254.196364 226.160388 
L 257.475702 228.119257 
L 260.755041 230.057133 
L 264.03438 231.974277 
L 267.313719 233.870948 
L 270.593058 235.747398 
L 273.872397 237.603876 
L 277.151736 239.440629 
L 280.431074 241.2579 
L 283.710413 243.055926 
L 286.989752 244.834943 
L 290.269091 246.595183 
L 293.54843 248.336874 
L 296.827769 250.060242 
L 300.107107 251.765509 
L 303.386446 253.452893 
L 306.665785 255.12261 
L 309.945124 256.774872 
L 313.224463 258.409889 
L 316.503802 260.027867 
L 319.78314 261.62901 
L 323.062479 263.213519 
L 326.341818 264.781591 
L 329.621157 266.333421 
L 332.900496 267.869202 
L 336.179835 269.389123 
L 339.459174 270.893371 
L 342.738512 272.382131 
L 346.017851 273.855583 
L 349.29719 275.313907 
L 352.576529 276.757281 
L 355.855868 278.185877 
L 359.135207 279.599869 
L 362.414545 280.999425 
L 365.693884 282.384712 
L 368.973223 283.755896 
L 372.252562 285.113139 
L 375.531901 286.456601 
L 378.81124 287.786441 
L 382.090579 289.102815 
L 385.369917 290.405876 
L 388.649256 291.695776 
L 391.928595 292.972665 
L 395.207934 294.236691 
L 398.487273 295.488 
" style="fill:none;stroke:#1f77b4;stroke-linecap:square;stroke-width:1.5;"/>
   </g>
   <g id="line2d_16">
    <path clip-path="url(#pf851ed9b3d)" d="M 73.832727 60.142248 
L 77.112066 106.161984 
L 80.391405 91.698639 
L 83.670744 53.568 
L 86.950083 89.068939 
L 90.229421 64.086797 
L 93.50876 100.902586 
L 96.788099 75.920443 
L 100.067438 87.75409 
L 103.346777 70.661045 
L 106.626116 129.829277 
L 109.905455 100.902586 
L 113.184793 89.068939 
L 116.464132 112.736232 
L 119.743471 65.401646 
L 123.02281 60.142248 
L 126.302149 87.75409 
L 129.581488 68.031346 
L 132.860826 78.550142 
L 136.140165 71.975894 
L 139.419504 99.587736 
L 142.698843 99.587736 
L 145.978182 93.013488 
L 149.257521 90.383789 
L 152.53686 104.847135 
L 155.816198 77.235293 
L 159.095537 114.051082 
L 162.374876 128.514427 
L 165.654215 85.124391 
L 168.933554 104.847135 
L 172.212893 114.051082 
L 175.492231 110.106533 
L 178.77157 83.809541 
L 182.050909 104.847135 
L 185.330248 94.328338 
L 188.609587 95.643187 
L 191.888926 86.43924 
L 195.168264 98.272887 
L 198.447603 74.605594 
L 201.726942 98.272887 
L 205.006281 79.864992 
L 208.28562 81.179842 
L 211.564959 115.365931 
L 214.844298 95.643187 
L 218.123636 120.62533 
L 221.402975 86.43924 
L 224.682314 102.217435 
L 227.961653 100.902586 
L 231.240992 91.698639 
L 234.520331 104.847135 
L 237.799669 110.106533 
L 241.079008 116.680781 
L 244.358347 111.421383 
L 247.637686 117.995631 
L 250.917025 121.940179 
L 254.196364 111.421383 
L 257.475702 111.421383 
L 260.755041 124.569879 
L 264.03438 133.773826 
L 267.313719 116.680781 
L 270.593058 98.272887 
L 273.872397 112.736232 
L 277.151736 111.421383 
L 280.431074 125.884728 
L 283.710413 125.884728 
L 286.989752 142.977773 
L 290.269091 127.199578 
L 293.54843 125.884728 
L 296.827769 100.902586 
L 300.107107 110.106533 
L 303.386446 135.088676 
L 306.665785 114.051082 
L 309.945124 127.199578 
L 313.224463 94.328338 
L 316.503802 107.476834 
L 319.78314 123.255029 
L 323.062479 129.829277 
L 326.341818 139.033224 
L 329.621157 111.421383 
L 332.900496 110.106533 
L 336.179835 142.977773 
L 339.459174 137.718375 
L 342.738512 127.199578 
L 346.017851 136.403525 
L 349.29719 119.31048 
L 352.576529 99.587736 
L 355.855868 131.144127 
L 359.135207 148.237172 
L 362.414545 129.829277 
L 365.693884 128.514427 
L 368.973223 125.884728 
L 372.252562 133.773826 
L 375.531901 121.940179 
L 378.81124 166.645066 
L 382.090579 120.62533 
L 385.369917 116.680781 
L 388.649256 129.829277 
L 391.928595 133.773826 
L 395.207934 145.607472 
L 398.487273 119.31048 
" style="fill:none;stroke:#ff7f0e;stroke-linecap:square;stroke-width:1.5;"/>
   </g>
   <g id="patch_3">
    <path d="M 57.6 307.584 
L 57.6 41.472 
" style="fill:none;stroke:#000000;stroke-linecap:square;stroke-linejoin:miter;stroke-width:0.8;"/>
   </g>
   <g id="patch_4">
    <path d="M 414.72 307.584 
L 414.72 41.472 
" style="fill:none;stroke:#000000;stroke-linecap:square;stroke-linejoin:miter;stroke-width:0.8;"/>
   </g>
   <g id="patch_5">
    <path d="M 57.6 307.584 
L 414.72 307.584 
" style="fill:none;stroke:#000000;stroke-linecap:square;stroke-linejoin:miter;stroke-width:0.8;"/>
   </g>
   <g id="patch_6">
    <path d="M 57.6 41.472 
L 414.72 41.472 
" style="fill:none;stroke:#000000;stroke-linecap:square;stroke-linejoin:miter;stroke-width:0.8;"/>
   </g>
   <g id="text_17">
    <text style="font-family:DejaVu Sans;font-size:12px;font-style:normal;font-weight:normal;text-anchor:middle;" transform="rotate(-0, 236.16, 35.472)" x="236.16" y="35.472">Coin Flips for (1/3)*x/(1+(1/3)*x)</text>
   </g>
   <g id="legend_1">
    <g id="patch_7">
     <path d="M 64.6 302.584 
L 287.310938 302.584 
Q 289.310938 302.584 289.310938 300.584 
L 289.310938 272.22775 
Q 289.310938 270.22775 287.310938 270.22775 
L 64.6 270.22775 
Q 62.6 270.22775 62.6 272.22775 
L 62.6 300.584 
Q 62.6 302.584 64.6 302.584 
z
" style="fill:#ffffff;opacity:0.8;stroke:#cccccc;stroke-linejoin:miter;"/>
    </g>
    <g id="line2d_17">
     <path d="M 66.6 278.326187 
L 86.6 278.326187 
" style="fill:none;stroke:#1f77b4;stroke-linecap:square;stroke-width:1.5;"/>
    </g>
    <g id="line2d_18"/>
    <g id="text_18">
     <text style="font-family:DejaVu Sans;font-size:10px;font-style:normal;font-weight:normal;text-anchor:start;" transform="rotate(-0, 94.6, 281.826187)" x="94.6" y="281.826187">Coin Flip Lower Bound (Mendo)</text>
    </g>
    <g id="line2d_19">
     <path d="M 66.6 293.004312 
L 86.6 293.004312 
" style="fill:none;stroke:#ff7f0e;stroke-linecap:square;stroke-width:1.5;"/>
    </g>
    <g id="line2d_20"/>
    <g id="text_19">
     <text style="font-family:DejaVu Sans;font-size:10px;font-style:normal;font-weight:normal;text-anchor:start;" transform="rotate(-0, 94.6, 296.504312)" x="94.6" y="296.504312">Avg. Coins Flipped (1/3)*x/(1+(1/3)*x)</text>
    </g>
   </g>
  </g>
 </g>
 <defs>
  <clipPath id="pf851ed9b3d">
   <rect height="266.112" width="357.12" x="57.6" y="41.472"/>
  </clipPath>
 </defs>
</svg>
