<?xml version="1.0" encoding="utf-8" standalone="no"?>
<!DOCTYPE svg PUBLIC "-//W3C//DTD SVG 1.1//EN"
  "http://www.w3.org/Graphics/SVG/1.1/DTD/svg11.dtd">
<!-- Created with matplotlib (https://matplotlib.org/) -->
<svg height="345.6pt" version="1.1" viewBox="0 0 460.8 345.6" width="460.8pt" xmlns="http://www.w3.org/2000/svg" xmlns:xlink="http://www.w3.org/1999/xlink">
 <defs>
  <style type="text/css">
*{stroke-linecap:butt;stroke-linejoin:round;}
  </style>
 </defs>
 <g id="figure_1">
  <g id="patch_1">
   <path d="M 0 345.6 
L 460.8 345.6 
L 460.8 0 
L 0 0 
z
" style="fill:#ffffff;"/>
  </g>
  <g id="axes_1">
   <g id="patch_2">
    <path d="M 57.6 307.584 
L 414.72 307.584 
L 414.72 41.472 
L 57.6 41.472 
z
" style="fill:#ffffff;"/>
   </g>
   <g id="matplotlib.axis_1">
    <g id="xtick_1">
     <g id="line2d_1">
      <defs>
       <path d="M 0 0 
L 0 3.5 
" id="m3dbf178864" style="stroke:#000000;stroke-width:0.8;"/>
      </defs>
      <g>
       <use style="stroke:#000000;stroke-width:0.8;" x="73.800255" xlink:href="#m3dbf178864" y="307.584"/>
      </g>
     </g>
     <g id="text_1">
      <text style="font-family:DejaVu Sans;font-size:10px;font-style:normal;font-weight:normal;text-anchor:middle;" transform="rotate(-0, 73.800255, 322.182437)" x="73.800255" y="322.182437">0.0</text>
     </g>
    </g>
    <g id="xtick_2">
     <g id="line2d_2">
      <g>
       <use style="stroke:#000000;stroke-width:0.8;" x="138.744153" xlink:href="#m3dbf178864" y="307.584"/>
      </g>
     </g>
     <g id="text_2">
      <text style="font-family:DejaVu Sans;font-size:10px;font-style:normal;font-weight:normal;text-anchor:middle;" transform="rotate(-0, 138.744153, 322.182437)" x="138.744153" y="322.182437">0.2</text>
     </g>
    </g>
    <g id="xtick_3">
     <g id="line2d_3">
      <g>
       <use style="stroke:#000000;stroke-width:0.8;" x="203.688051" xlink:href="#m3dbf178864" y="307.584"/>
      </g>
     </g>
     <g id="text_3">
      <text style="font-family:DejaVu Sans;font-size:10px;font-style:normal;font-weight:normal;text-anchor:middle;" transform="rotate(-0, 203.688051, 322.182437)" x="203.688051" y="322.182437">0.4</text>
     </g>
    </g>
    <g id="xtick_4">
     <g id="line2d_4">
      <g>
       <use style="stroke:#000000;stroke-width:0.8;" x="268.631949" xlink:href="#m3dbf178864" y="307.584"/>
      </g>
     </g>
     <g id="text_4">
      <text style="font-family:DejaVu Sans;font-size:10px;font-style:normal;font-weight:normal;text-anchor:middle;" transform="rotate(-0, 268.631949, 322.182437)" x="268.631949" y="322.182437">0.6</text>
     </g>
    </g>
    <g id="xtick_5">
     <g id="line2d_5">
      <g>
       <use style="stroke:#000000;stroke-width:0.8;" x="333.575847" xlink:href="#m3dbf178864" y="307.584"/>
      </g>
     </g>
     <g id="text_5">
      <text style="font-family:DejaVu Sans;font-size:10px;font-style:normal;font-weight:normal;text-anchor:middle;" transform="rotate(-0, 333.575847, 322.182437)" x="333.575847" y="322.182437">0.8</text>
     </g>
    </g>
    <g id="xtick_6">
     <g id="line2d_6">
      <g>
       <use style="stroke:#000000;stroke-width:0.8;" x="398.519745" xlink:href="#m3dbf178864" y="307.584"/>
      </g>
     </g>
     <g id="text_6">
      <text style="font-family:DejaVu Sans;font-size:10px;font-style:normal;font-weight:normal;text-anchor:middle;" transform="rotate(-0, 398.519745, 322.182437)" x="398.519745" y="322.182437">1.0</text>
     </g>
    </g>
    <g id="text_7">
     <text style="font-family:DejaVu Sans;font-size:10px;font-style:normal;font-weight:normal;text-anchor:middle;" transform="rotate(-0, 236.16, 335.860562)" x="236.16" y="335.860562">Input Coin's Heads Probability (λ)</text>
    </g>
   </g>
   <g id="matplotlib.axis_2">
    <g id="ytick_1">
     <g id="line2d_7">
      <defs>
       <path d="M 0 0 
L -3.5 0 
" id="me31dccfb3f" style="stroke:#000000;stroke-width:0.8;"/>
      </defs>
      <g>
       <use style="stroke:#000000;stroke-width:0.8;" x="57.6" xlink:href="#me31dccfb3f" y="288.768"/>
      </g>
     </g>
     <g id="text_8">
      <text style="font-family:DejaVu Sans;font-size:10px;font-style:normal;font-weight:normal;text-anchor:end;" transform="rotate(-0, 50.6, 292.567219)" x="50.6" y="292.567219">0.22</text>
     </g>
    </g>
    <g id="ytick_2">
     <g id="line2d_8">
      <g>
       <use style="stroke:#000000;stroke-width:0.8;" x="57.6" xlink:href="#me31dccfb3f" y="255.168"/>
      </g>
     </g>
     <g id="text_9">
      <text style="font-family:DejaVu Sans;font-size:10px;font-style:normal;font-weight:normal;text-anchor:end;" transform="rotate(-0, 50.6, 258.967219)" x="50.6" y="258.967219">0.24</text>
     </g>
    </g>
    <g id="ytick_3">
     <g id="line2d_9">
      <g>
       <use style="stroke:#000000;stroke-width:0.8;" x="57.6" xlink:href="#me31dccfb3f" y="221.568"/>
      </g>
     </g>
     <g id="text_10">
      <text style="font-family:DejaVu Sans;font-size:10px;font-style:normal;font-weight:normal;text-anchor:end;" transform="rotate(-0, 50.6, 225.367219)" x="50.6" y="225.367219">0.26</text>
     </g>
    </g>
    <g id="ytick_4">
     <g id="line2d_10">
      <g>
       <use style="stroke:#000000;stroke-width:0.8;" x="57.6" xlink:href="#me31dccfb3f" y="187.968"/>
      </g>
     </g>
     <g id="text_11">
      <text style="font-family:DejaVu Sans;font-size:10px;font-style:normal;font-weight:normal;text-anchor:end;" transform="rotate(-0, 50.6, 191.767219)" x="50.6" y="191.767219">0.28</text>
     </g>
    </g>
    <g id="ytick_5">
     <g id="line2d_11">
      <g>
       <use style="stroke:#000000;stroke-width:0.8;" x="57.6" xlink:href="#me31dccfb3f" y="154.368"/>
      </g>
     </g>
     <g id="text_12">
      <text style="font-family:DejaVu Sans;font-size:10px;font-style:normal;font-weight:normal;text-anchor:end;" transform="rotate(-0, 50.6, 158.167219)" x="50.6" y="158.167219">0.30</text>
     </g>
    </g>
    <g id="ytick_6">
     <g id="line2d_12">
      <g>
       <use style="stroke:#000000;stroke-width:0.8;" x="57.6" xlink:href="#me31dccfb3f" y="120.768"/>
      </g>
     </g>
     <g id="text_13">
      <text style="font-family:DejaVu Sans;font-size:10px;font-style:normal;font-weight:normal;text-anchor:end;" transform="rotate(-0, 50.6, 124.567219)" x="50.6" y="124.567219">0.32</text>
     </g>
    </g>
    <g id="ytick_7">
     <g id="line2d_13">
      <g>
       <use style="stroke:#000000;stroke-width:0.8;" x="57.6" xlink:href="#me31dccfb3f" y="87.168"/>
      </g>
     </g>
     <g id="text_14">
      <text style="font-family:DejaVu Sans;font-size:10px;font-style:normal;font-weight:normal;text-anchor:end;" transform="rotate(-0, 50.6, 90.967219)" x="50.6" y="90.967219">0.34</text>
     </g>
    </g>
    <g id="ytick_8">
     <g id="line2d_14">
      <g>
       <use style="stroke:#000000;stroke-width:0.8;" x="57.6" xlink:href="#me31dccfb3f" y="53.568"/>
      </g>
     </g>
     <g id="text_15">
      <text style="font-family:DejaVu Sans;font-size:10px;font-style:normal;font-weight:normal;text-anchor:end;" transform="rotate(-0, 50.6, 57.367219)" x="50.6" y="57.367219">0.36</text>
     </g>
    </g>
    <g id="text_16">
     <text style="font-family:DejaVu Sans;font-size:10px;font-style:normal;font-weight:normal;text-anchor:middle;" transform="rotate(-90, 22.254687, 174.528)" x="22.254687" y="174.528">Simulated Mean / Function Value</text>
    </g>
   </g>
   <g id="line2d_15">
    <path clip-path="url(#p032e50147d)" d="M 73.832727 98.386666 
L 77.112066 100.265361 
L 80.391405 102.131492 
L 83.670744 103.985186 
L 86.950083 105.826565 
L 90.229421 107.655753 
L 93.50876 109.472869 
L 96.788099 111.278034 
L 100.067438 113.071364 
L 103.346777 114.852975 
L 106.626116 116.622983 
L 109.905455 118.3815 
L 113.184793 120.128637 
L 116.464132 121.864505 
L 119.743471 123.589212 
L 123.02281 125.302866 
L 126.302149 127.005572 
L 129.581488 128.697436 
L 132.860826 130.37856 
L 136.140165 132.049046 
L 139.419504 133.708995 
L 142.698843 135.358507 
L 145.978182 136.997679 
L 149.257521 138.626608 
L 152.53686 140.245391 
L 155.816198 141.854121 
L 159.095537 143.452892 
L 162.374876 145.041796 
L 165.654215 146.620925 
L 168.933554 148.190367 
L 172.212893 149.750213 
L 175.492231 151.300549 
L 178.77157 152.841463 
L 182.050909 154.37304 
L 185.330248 155.895365 
L 188.609587 157.40852 
L 191.888926 158.91259 
L 195.168264 160.407655 
L 198.447603 161.893797 
L 201.726942 163.371094 
L 205.006281 164.839625 
L 208.28562 166.299469 
L 211.564959 167.750702 
L 214.844298 169.1934 
L 218.123636 170.627638 
L 221.402975 172.05349 
L 224.682314 173.47103 
L 227.961653 174.880331 
L 231.240992 176.281463 
L 234.520331 177.674497 
L 237.799669 179.059505 
L 241.079008 180.436554 
L 244.358347 181.805713 
L 247.637686 183.16705 
L 250.917025 184.520631 
L 254.196364 185.866523 
L 257.475702 187.204792 
L 260.755041 188.535501 
L 264.03438 189.858714 
L 267.313719 191.174495 
L 270.593058 192.482907 
L 273.872397 193.78401 
L 277.151736 195.077866 
L 280.431074 196.364535 
L 283.710413 197.644077 
L 286.989752 198.916552 
L 290.269091 200.182016 
L 293.54843 201.44053 
L 296.827769 202.692148 
L 300.107107 203.936928 
L 303.386446 205.174926 
L 306.665785 206.406197 
L 309.945124 207.630796 
L 313.224463 208.848776 
L 316.503802 210.060192 
L 319.78314 211.265096 
L 323.062479 212.463541 
L 326.341818 213.655578 
L 329.621157 214.841258 
L 332.900496 216.020633 
L 336.179835 217.193753 
L 339.459174 218.360667 
L 342.738512 219.521423 
L 346.017851 220.676072 
L 349.29719 221.824661 
L 352.576529 222.967237 
L 355.855868 224.103848 
L 359.135207 225.23454 
L 362.414545 226.35936 
L 365.693884 227.478352 
L 368.973223 228.591563 
L 372.252562 229.699036 
L 375.531901 230.800817 
L 378.81124 231.896948 
L 382.090579 232.987473 
L 385.369917 234.072436 
L 388.649256 235.151878 
L 391.928595 236.225842 
L 395.207934 237.294369 
L 398.487273 238.3575 
" style="fill:none;stroke:#1f77b4;stroke-linecap:square;stroke-width:1.5;"/>
   </g>
   <g id="line2d_16">
    <path clip-path="url(#p032e50147d)" d="M 73.832727 130.848 
L 77.112066 90.528 
L 80.391405 87.168 
L 83.670744 97.248 
L 86.950083 127.488 
L 90.229421 117.408 
L 93.50876 130.848 
L 96.788099 53.568 
L 100.067438 90.528 
L 103.346777 87.168 
L 106.626116 114.048 
L 109.905455 110.688 
L 113.184793 114.048 
L 116.464132 73.728 
L 119.743471 137.568 
L 123.02281 103.968 
L 126.302149 137.568 
L 129.581488 90.528 
L 132.860826 110.688 
L 136.140165 134.208 
L 139.419504 134.208 
L 142.698843 174.528 
L 145.978182 164.448 
L 149.257521 130.848 
L 152.53686 147.648 
L 155.816198 77.088 
L 159.095537 164.448 
L 162.374876 157.728 
L 165.654215 167.808 
L 168.933554 144.288 
L 172.212893 228.288 
L 175.492231 177.888 
L 178.77157 167.808 
L 182.050909 164.448 
L 185.330248 161.088 
L 188.609587 124.128 
L 191.888926 181.248 
L 195.168264 164.448 
L 198.447603 93.888 
L 201.726942 191.328 
L 205.006281 171.168 
L 208.28562 151.008 
L 211.564959 134.208 
L 214.844298 245.088 
L 218.123636 211.488 
L 221.402975 191.328 
L 224.682314 191.328 
L 227.961653 211.488 
L 231.240992 187.968 
L 234.520331 235.008 
L 237.799669 201.408 
L 241.079008 211.488 
L 244.358347 120.768 
L 247.637686 218.208 
L 250.917025 231.648 
L 254.196364 164.448 
L 257.475702 238.368 
L 260.755041 184.608 
L 264.03438 177.888 
L 267.313719 241.728 
L 270.593058 248.448 
L 273.872397 231.648 
L 277.151736 221.568 
L 280.431074 221.568 
L 283.710413 208.128 
L 286.989752 238.368 
L 290.269091 221.568 
L 293.54843 211.488 
L 296.827769 214.848 
L 300.107107 198.048 
L 303.386446 161.088 
L 306.665785 241.728 
L 309.945124 204.768 
L 313.224463 271.968 
L 316.503802 214.848 
L 319.78314 157.728 
L 323.062479 174.528 
L 326.341818 288.768 
L 329.621157 164.448 
L 332.900496 251.808 
L 336.179835 157.728 
L 339.459174 164.448 
L 342.738512 194.688 
L 346.017851 214.848 
L 349.29719 245.088 
L 352.576529 271.968 
L 355.855868 184.608 
L 359.135207 235.008 
L 362.414545 208.128 
L 365.693884 235.008 
L 368.973223 214.848 
L 372.252562 208.128 
L 375.531901 164.448 
L 378.81124 211.488 
L 382.090579 238.368 
L 385.369917 258.528 
L 388.649256 271.968 
L 391.928595 295.488 
L 395.207934 198.048 
L 398.487273 211.488 
" style="fill:none;stroke:#ff7f0e;stroke-linecap:square;stroke-width:1.5;"/>
   </g>
   <g id="patch_3">
    <path d="M 57.6 307.584 
L 57.6 41.472 
" style="fill:none;stroke:#000000;stroke-linecap:square;stroke-linejoin:miter;stroke-width:0.8;"/>
   </g>
   <g id="patch_4">
    <path d="M 414.72 307.584 
L 414.72 41.472 
" style="fill:none;stroke:#000000;stroke-linecap:square;stroke-linejoin:miter;stroke-width:0.8;"/>
   </g>
   <g id="patch_5">
    <path d="M 57.6 307.584 
L 414.72 307.584 
" style="fill:none;stroke:#000000;stroke-linecap:square;stroke-linejoin:miter;stroke-width:0.8;"/>
   </g>
   <g id="patch_6">
    <path d="M 57.6 41.472 
L 414.72 41.472 
" style="fill:none;stroke:#000000;stroke-linecap:square;stroke-linejoin:miter;stroke-width:0.8;"/>
   </g>
   <g id="text_17">
    <text style="font-family:DejaVu Sans;font-size:12px;font-style:normal;font-weight:normal;text-anchor:middle;" transform="rotate(-0, 236.16, 35.472)" x="236.16" y="35.472">Expected Value in 1/(3+x) Algorithm</text>
   </g>
   <g id="legend_1">
    <g id="patch_7">
     <path d="M 240.571562 78.82825 
L 407.72 78.82825 
Q 409.72 78.82825 409.72 76.82825 
L 409.72 48.472 
Q 409.72 46.472 407.72 46.472 
L 240.571562 46.472 
Q 238.571562 46.472 238.571562 48.472 
L 238.571562 76.82825 
Q 238.571562 78.82825 240.571562 78.82825 
z
" style="fill:#ffffff;opacity:0.8;stroke:#cccccc;stroke-linejoin:miter;"/>
    </g>
    <g id="line2d_17">
     <path d="M 242.571562 54.570437 
L 262.571563 54.570437 
" style="fill:none;stroke:#1f77b4;stroke-linecap:square;stroke-width:1.5;"/>
    </g>
    <g id="line2d_18"/>
    <g id="text_18">
     <text style="font-family:DejaVu Sans;font-size:10px;font-style:normal;font-weight:normal;text-anchor:start;" transform="rotate(-0, 270.571563, 58.070437)" x="270.571563" y="58.070437">1/(3+x)</text>
    </g>
    <g id="line2d_19">
     <path d="M 242.571562 69.248562 
L 262.571563 69.248562 
" style="fill:none;stroke:#ff7f0e;stroke-linecap:square;stroke-width:1.5;"/>
    </g>
    <g id="line2d_20"/>
    <g id="text_19">
     <text style="font-family:DejaVu Sans;font-size:10px;font-style:normal;font-weight:normal;text-anchor:start;" transform="rotate(-0, 270.571563, 72.748562)" x="270.571563" y="72.748562">Simulated Mean of 1/(3+x)</text>
    </g>
   </g>
  </g>
 </g>
 <defs>
  <clipPath id="p032e50147d">
   <rect height="266.112" width="357.12" x="57.6" y="41.472"/>
  </clipPath>
 </defs>
</svg>
