<svg height="460.8" viewBox="0 0 460.8 345.6" width="614.4" xmlns="http://www.w3.org/2000/svg" xmlns:xlink="http://www.w3.org/1999/xlink"><defs><style>*{stroke-linecap:butt;stroke-linejoin:round}</style></defs><g id="figure_1"><path d="M0 345.6h460.8V0H0z" fill="#fff" id="patch_1"/><g id="axes_1"><path d="M57.6 307.584h357.12V41.472H57.6z" fill="#fff" id="patch_2"/><g id="matplotlib.axis_1"><g id="xtick_1"><g id="line2d_1"><defs><path d="M0 0v3.5" id="m262ff77639" stroke="#000" stroke-width=".8"/></defs><use x="73.8" xlink:href="#m262ff77639" y="307.584" stroke="#000" stroke-width=".8"/></g><text x="73.8" y="322.182" font-family="DejaVu Sans" font-size="10" font-weight="400" text-anchor="middle" id="text_1">0.0</text></g><g id="xtick_2"><use x="138.744" xlink:href="#m262ff77639" y="307.584" stroke="#000" stroke-width=".8" id="line2d_2"/><text x="138.744" y="322.182" font-family="DejaVu Sans" font-size="10" font-weight="400" text-anchor="middle" id="text_2">0.2</text></g><g id="xtick_3"><use x="203.688" xlink:href="#m262ff77639" y="307.584" stroke="#000" stroke-width=".8" id="line2d_3"/><text x="203.688" y="322.182" font-family="DejaVu Sans" font-size="10" font-weight="400" text-anchor="middle" id="text_3">0.4</text></g><g id="xtick_4"><use x="268.632" xlink:href="#m262ff77639" y="307.584" stroke="#000" stroke-width=".8" id="line2d_4"/><text x="268.632" y="322.182" font-family="DejaVu Sans" font-size="10" font-weight="400" text-anchor="middle" id="text_4">0.6</text></g><g id="xtick_5"><use x="333.576" xlink:href="#m262ff77639" y="307.584" stroke="#000" stroke-width=".8" id="line2d_5"/><text x="333.576" y="322.182" font-family="DejaVu Sans" font-size="10" font-weight="400" text-anchor="middle" id="text_5">0.8</text></g><g id="xtick_6"><use x="398.52" xlink:href="#m262ff77639" y="307.584" stroke="#000" stroke-width=".8" id="line2d_6"/><text x="398.52" y="322.182" font-family="DejaVu Sans" font-size="10" font-weight="400" text-anchor="middle" id="text_6">1.0</text></g><text x="236.16" y="335.861" font-family="DejaVu Sans" font-size="10" font-weight="400" text-anchor="middle" id="text_7">Input Coin&apos;s Heads Probability (λ)</text></g><g id="matplotlib.axis_2"><g id="ytick_1"><g id="line2d_7"><defs><path d="M0 0h-3.5" id="me0a62aab5d" stroke="#000" stroke-width=".8"/></defs><use x="57.6" xlink:href="#me0a62aab5d" y="295.5" stroke="#000" stroke-width=".8"/></g><text x="50.6" y="299.299" font-family="DejaVu Sans" font-size="10" font-weight="400" text-anchor="end" id="text_8">0.00</text></g><g id="ytick_2"><use x="57.6" xlink:href="#me0a62aab5d" y="263.667" stroke="#000" stroke-width=".8" id="line2d_8"/><text x="50.6" y="267.466" font-family="DejaVu Sans" font-size="10" font-weight="400" text-anchor="end" id="text_9">0.05</text></g><g id="ytick_3"><use x="57.6" xlink:href="#me0a62aab5d" y="231.834" stroke="#000" stroke-width=".8" id="line2d_9"/><text x="50.6" y="235.633" font-family="DejaVu Sans" font-size="10" font-weight="400" text-anchor="end" id="text_10">0.10</text></g><g id="ytick_4"><use x="57.6" xlink:href="#me0a62aab5d" y="200" stroke="#000" stroke-width=".8" id="line2d_10"/><text x="50.6" y="203.8" font-family="DejaVu Sans" font-size="10" font-weight="400" text-anchor="end" id="text_11">0.15</text></g><g id="ytick_5"><use x="57.6" xlink:href="#me0a62aab5d" y="168.167" stroke="#000" stroke-width=".8" id="line2d_11"/><text x="50.6" y="171.967" font-family="DejaVu Sans" font-size="10" font-weight="400" text-anchor="end" id="text_12">0.20</text></g><g id="ytick_6"><use x="57.6" xlink:href="#me0a62aab5d" y="136.334" stroke="#000" stroke-width=".8" id="line2d_12"/><text x="50.6" y="140.133" font-family="DejaVu Sans" font-size="10" font-weight="400" text-anchor="end" id="text_13">0.25</text></g><g id="ytick_7"><use x="57.6" xlink:href="#me0a62aab5d" y="104.501" stroke="#000" stroke-width=".8" id="line2d_13"/><text x="50.6" y="108.3" font-family="DejaVu Sans" font-size="10" font-weight="400" text-anchor="end" id="text_14">0.30</text></g><g id="ytick_8"><use x="57.6" xlink:href="#me0a62aab5d" y="72.668" stroke="#000" stroke-width=".8" id="line2d_14"/><text x="50.6" y="76.467" font-family="DejaVu Sans" font-size="10" font-weight="400" text-anchor="end" id="text_15">0.35</text></g><text transform="rotate(-90 22.255 174.528)" x="22.255" y="174.528" font-family="DejaVu Sans" font-size="10" font-weight="400" text-anchor="middle" id="text_16">Coin Flips Needed</text></g><path clip-path="url(#p9f6c9f1612)" d="M73.833 83.314l3.28 3.55 3.278 3.508 3.28 3.465 3.28 3.424 3.278 3.383 3.28 3.343 3.28 3.303 3.278 3.264 3.28 3.226 3.28 3.187 3.278 3.15 3.28 3.113 3.28 3.076 3.278 3.041 3.28 3.005 3.28 2.97 3.278 2.936 3.28 2.902 3.28 2.868 3.279 2.835 3.279 2.803 3.28 2.77 3.279 2.739 3.279 2.707 3.28 2.677 3.279 2.646 3.279 2.616 3.28 2.586 3.279 2.558 3.279 2.528 3.28 2.5 3.279 2.472 3.279 2.444 3.28 2.416 3.279 2.39 3.279 2.363 3.28 2.337 3.279 2.31 3.279 2.286 3.28 2.26 3.279 2.235 3.279 2.21 3.28 2.187 3.279 2.162 3.279 2.138 3.28 2.115 3.279 2.092 3.279 2.07 3.28 2.046 3.279 2.025 3.279 2.002 3.28 1.981 3.279 1.96 3.279 1.938 3.28 1.918 3.279 1.897 3.279 1.876 3.28 1.857 3.279 1.837 3.28 1.817 3.278 1.798 3.28 1.779 3.28 1.76 3.278 1.74 3.28 1.724 3.28 1.704 3.278 1.687 3.28 1.669 3.28 1.651 3.278 1.634 3.28 1.617 3.28 1.6 3.278 1.584 3.28 1.567 3.28 1.55 3.278 1.535 3.28 1.518 3.28 1.503 3.278 1.487 3.28 1.472 3.28 1.457 3.279 1.442 3.279 1.427 3.28 1.412 3.279 1.398 3.279 1.383 3.28 1.37 3.279 1.355 3.279 1.342 3.28 1.327 3.279 1.315 3.279 1.3 3.28 1.289 3.279 1.274 3.279 1.262 3.28 1.25 3.279 1.236 3.279 1.224 3.28 1.212" fill="none" stroke="#1f77b4" stroke-linecap="square" stroke-width="1.5" id="line2d_15"/><path clip-path="url(#p9f6c9f1612)" d="M73.833 96.861l3.28-3.82h3.278l3.28-16.553 3.28-22.92 3.278 7.64 3.28 20.373 3.28-15.28 3.278 6.367 3.28 17.826 3.28 12.734 3.278 12.733 3.28-29.287 3.28 11.46 3.278-2.546 3.28-3.82 3.28 15.28 3.278 7.64 3.28-29.287 3.28 20.373 3.279-21.646 3.279 10.186 3.28-14.006 3.279-22.92 3.279 53.48 3.28 10.186 3.279-16.553 3.279-12.733 3.28 6.366 3.279-20.373 3.279 21.647 3.28-10.187 3.279 10.187 3.279-10.187 3.28-21.646 3.279 49.66 3.279-25.467 3.28 14.006 3.279 12.734 3.279-25.467 3.28 24.193 3.279-19.1 3.279 29.287 3.28-7.64 3.279-26.74 3.279 38.2 3.28-24.193 3.279 19.1 3.279 3.82 3.28-28.014h3.279l3.279 3.82 3.28-10.186 3.279 3.82 3.279 22.92 3.28-6.367 3.279 19.1 3.279-5.093 3.28-10.187 3.279-29.287 3.28 40.747 3.278-30.56 3.28-3.82 3.28 36.927 3.278-6.367 3.28-2.547 3.28 3.82 3.278-25.466 3.28 25.466h3.28l3.278-29.286 3.28 17.826 3.28 10.187 3.278-8.913 3.28 14.006 3.28-15.28 3.278-7.64 3.28 10.187 3.28 33.106 3.278-26.74 3.28-3.82 3.28-10.186 3.279 17.827 3.279-1.274 3.28-6.366 3.279 17.826 3.279 2.547h3.28l3.279 6.366 3.279-33.106 3.28 16.553h3.279l3.279 19.1 3.28-16.553 3.279-24.193 3.279 20.373 3.28-2.547 3.279 14.007 3.279-22.92 3.28 19.1" fill="none" stroke="#ff7f0e" stroke-linecap="square" stroke-width="1.5" id="line2d_16"/><path d="M57.6 307.584V41.472" fill="none" stroke="#000" stroke-linecap="square" stroke-width=".8" id="patch_3"/><path d="M414.72 307.584V41.472" fill="none" stroke="#000" stroke-linecap="square" stroke-width=".8" id="patch_4"/><path d="M57.6 307.584h357.12" fill="none" stroke="#000" stroke-linecap="square" stroke-width=".8" id="patch_5"/><path d="M57.6 41.472h357.12" fill="none" stroke="#000" stroke-linecap="square" stroke-width=".8" id="patch_6"/><text x="236.16" y="35.472" font-family="DejaVu Sans" font-size="12" font-weight="400" text-anchor="middle" id="text_17">Coin Flips for (1/3)*x/(1+(1/3)*x)</text><g id="legend_1"><path d="M64.6 302.584h222.71q2 0 2-2v-28.356q0-2-2-2H64.6q-2 0-2 2v28.356q0 2 2 2z" fill="#fff" opacity=".8" stroke="#ccc" id="patch_7"/><path d="M66.6 278.326h20" fill="none" stroke="#1f77b4" stroke-linecap="square" stroke-width="1.5" id="line2d_17"/><text x="94.6" y="281.826" font-family="DejaVu Sans" font-size="10" font-weight="400" id="text_18">Coin Flip Lower Bound (Mendo)</text><path d="M66.6 293.004h20" fill="none" stroke="#ff7f0e" stroke-linecap="square" stroke-width="1.5" id="line2d_19"/><text x="94.6" y="296.504" font-family="DejaVu Sans" font-size="10" font-weight="400" id="text_19">Avg. Coins Flipped (1/3)*x/(1+(1/3)*x)</text></g></g></g><defs><clipPath id="p9f6c9f1612"><path d="M57.6 41.472h357.12v266.112H57.6z"/></clipPath></defs></svg>