<?xml version="1.0" encoding="utf-8" standalone="no"?>
<!DOCTYPE svg PUBLIC "-//W3C//DTD SVG 1.1//EN"
  "http://www.w3.org/Graphics/SVG/1.1/DTD/svg11.dtd">
<!-- Created with matplotlib (https://matplotlib.org/) -->
<svg height="252pt" version="1.1" viewBox="0 0 324 252" width="324pt" xmlns="http://www.w3.org/2000/svg" xmlns:xlink="http://www.w3.org/1999/xlink">
 <defs>
  <style type="text/css">
*{stroke-linecap:butt;stroke-linejoin:round;}
  </style>
 </defs>
 <g id="figure_1">
  <g id="patch_1">
   <path d="M 0 252 
L 324 252 
L 324 0 
L 0 0 
z
" style="fill:#ffffff;"/>
  </g>
  <g id="axes_1">
   <g id="patch_2">
    <path d="M 40.5 224.28 
L 291.6 224.28 
L 291.6 30.24 
L 40.5 30.24 
z
" style="fill:#ffffff;"/>
   </g>
   <g id="matplotlib.axis_1">
    <g id="xtick_1">
     <g id="line2d_1">
      <defs>
       <path d="M 0 0 
L 0 3.5 
" id="m25a93b641e" style="stroke:#000000;stroke-width:0.8;"/>
      </defs>
      <g>
       <use style="stroke:#000000;stroke-width:0.8;" x="51.890805" xlink:href="#m25a93b641e" y="224.28"/>
      </g>
     </g>
     <g id="text_1">
      <text style="font-family:DejaVu Sans;font-size:10px;font-style:normal;font-weight:normal;text-anchor:middle;" transform="rotate(-0, 51.890805, 238.878438)" x="51.890805" y="238.878438">0.0</text>
     </g>
    </g>
    <g id="xtick_2">
     <g id="line2d_2">
      <g>
       <use style="stroke:#000000;stroke-width:0.8;" x="97.554483" xlink:href="#m25a93b641e" y="224.28"/>
      </g>
     </g>
     <g id="text_2">
      <text style="font-family:DejaVu Sans;font-size:10px;font-style:normal;font-weight:normal;text-anchor:middle;" transform="rotate(-0, 97.554483, 238.878438)" x="97.554483" y="238.878438">0.2</text>
     </g>
    </g>
    <g id="xtick_3">
     <g id="line2d_3">
      <g>
       <use style="stroke:#000000;stroke-width:0.8;" x="143.218161" xlink:href="#m25a93b641e" y="224.28"/>
      </g>
     </g>
     <g id="text_3">
      <text style="font-family:DejaVu Sans;font-size:10px;font-style:normal;font-weight:normal;text-anchor:middle;" transform="rotate(-0, 143.218161, 238.878438)" x="143.218161" y="238.878438">0.4</text>
     </g>
    </g>
    <g id="xtick_4">
     <g id="line2d_4">
      <g>
       <use style="stroke:#000000;stroke-width:0.8;" x="188.881839" xlink:href="#m25a93b641e" y="224.28"/>
      </g>
     </g>
     <g id="text_4">
      <text style="font-family:DejaVu Sans;font-size:10px;font-style:normal;font-weight:normal;text-anchor:middle;" transform="rotate(-0, 188.881839, 238.878438)" x="188.881839" y="238.878438">0.6</text>
     </g>
    </g>
    <g id="xtick_5">
     <g id="line2d_5">
      <g>
       <use style="stroke:#000000;stroke-width:0.8;" x="234.545517" xlink:href="#m25a93b641e" y="224.28"/>
      </g>
     </g>
     <g id="text_5">
      <text style="font-family:DejaVu Sans;font-size:10px;font-style:normal;font-weight:normal;text-anchor:middle;" transform="rotate(-0, 234.545517, 238.878438)" x="234.545517" y="238.878438">0.8</text>
     </g>
    </g>
    <g id="xtick_6">
     <g id="line2d_6">
      <g>
       <use style="stroke:#000000;stroke-width:0.8;" x="280.209195" xlink:href="#m25a93b641e" y="224.28"/>
      </g>
     </g>
     <g id="text_6">
      <text style="font-family:DejaVu Sans;font-size:10px;font-style:normal;font-weight:normal;text-anchor:middle;" transform="rotate(-0, 280.209195, 238.878438)" x="280.209195" y="238.878438">1.0</text>
     </g>
    </g>
    <g id="text_7">
     <text style="font-family:DejaVu Sans;font-size:10px;font-style:normal;font-weight:normal;text-anchor:middle;" transform="rotate(-0, 166.05, 252.556563)" x="166.05" y="252.556563">Input Coin's Heads Probability (λ)</text>
    </g>
   </g>
   <g id="matplotlib.axis_2">
    <g id="ytick_1">
     <g id="line2d_7">
      <defs>
       <path d="M 0 0 
L -3.5 0 
" id="md51eb8ddc4" style="stroke:#000000;stroke-width:0.8;"/>
      </defs>
      <g>
       <use style="stroke:#000000;stroke-width:0.8;" x="40.5" xlink:href="#md51eb8ddc4" y="215.46"/>
      </g>
     </g>
     <g id="text_8">
      <text style="font-family:DejaVu Sans;font-size:10px;font-style:normal;font-weight:normal;text-anchor:end;" transform="rotate(-0, 33.5, 219.259219)" x="33.5" y="219.259219">0.00</text>
     </g>
    </g>
    <g id="ytick_2">
     <g id="line2d_8">
      <g>
       <use style="stroke:#000000;stroke-width:0.8;" x="40.5" xlink:href="#md51eb8ddc4" y="180.18"/>
      </g>
     </g>
     <g id="text_9">
      <text style="font-family:DejaVu Sans;font-size:10px;font-style:normal;font-weight:normal;text-anchor:end;" transform="rotate(-0, 33.5, 183.979219)" x="33.5" y="183.979219">0.05</text>
     </g>
    </g>
    <g id="ytick_3">
     <g id="line2d_9">
      <g>
       <use style="stroke:#000000;stroke-width:0.8;" x="40.5" xlink:href="#md51eb8ddc4" y="144.9"/>
      </g>
     </g>
     <g id="text_10">
      <text style="font-family:DejaVu Sans;font-size:10px;font-style:normal;font-weight:normal;text-anchor:end;" transform="rotate(-0, 33.5, 148.699219)" x="33.5" y="148.699219">0.10</text>
     </g>
    </g>
    <g id="ytick_4">
     <g id="line2d_10">
      <g>
       <use style="stroke:#000000;stroke-width:0.8;" x="40.5" xlink:href="#md51eb8ddc4" y="109.62"/>
      </g>
     </g>
     <g id="text_11">
      <text style="font-family:DejaVu Sans;font-size:10px;font-style:normal;font-weight:normal;text-anchor:end;" transform="rotate(-0, 33.5, 113.419219)" x="33.5" y="113.419219">0.15</text>
     </g>
    </g>
    <g id="ytick_5">
     <g id="line2d_11">
      <g>
       <use style="stroke:#000000;stroke-width:0.8;" x="40.5" xlink:href="#md51eb8ddc4" y="74.34"/>
      </g>
     </g>
     <g id="text_12">
      <text style="font-family:DejaVu Sans;font-size:10px;font-style:normal;font-weight:normal;text-anchor:end;" transform="rotate(-0, 33.5, 78.139219)" x="33.5" y="78.139219">0.20</text>
     </g>
    </g>
    <g id="ytick_6">
     <g id="line2d_12">
      <g>
       <use style="stroke:#000000;stroke-width:0.8;" x="40.5" xlink:href="#md51eb8ddc4" y="39.06"/>
      </g>
     </g>
     <g id="text_13">
      <text style="font-family:DejaVu Sans;font-size:10px;font-style:normal;font-weight:normal;text-anchor:end;" transform="rotate(-0, 33.5, 42.859219)" x="33.5" y="42.859219">0.25</text>
     </g>
    </g>
    <g id="text_14">
     <text style="font-family:DejaVu Sans;font-size:10px;font-style:normal;font-weight:normal;text-anchor:middle;" transform="rotate(-90, 5.154687, 127.26)" x="5.154687" y="127.26">Simulated Mean / Function Value</text>
    </g>
   </g>
   <g id="line2d_13">
    <path clip-path="url(#p2881225d8e)" d="M 52.119123 215.224878 
L 54.420757 212.863385 
L 56.722391 210.517651 
L 59.024025 208.187518 
L 61.325658 205.872833 
L 63.627292 203.573442 
L 65.928926 201.289194 
L 68.23056 199.019939 
L 70.532194 196.765531 
L 72.833828 194.525824 
L 75.135462 192.300675 
L 77.437096 190.089943 
L 79.738729 187.893487 
L 82.040363 185.711171 
L 84.341997 183.542857 
L 86.643631 181.388412 
L 88.945265 179.247703 
L 91.246899 177.120599 
L 93.548533 175.006971 
L 95.850167 172.90669 
L 98.151801 170.819632 
L 100.453434 168.745671 
L 102.755068 166.684685 
L 105.056702 164.636553 
L 107.358336 162.601153 
L 109.65997 160.578369 
L 111.961604 158.568083 
L 114.263238 156.570179 
L 116.564872 154.584544 
L 118.866505 152.611065 
L 121.168139 150.649631 
L 123.469773 148.700131 
L 125.771407 146.762457 
L 128.073041 144.836502 
L 130.374675 142.92216 
L 132.676309 141.019326 
L 134.977943 139.127897 
L 137.279576 137.24777 
L 139.58121 135.378845 
L 141.882844 133.521021 
L 144.184478 131.6742 
L 146.486112 129.838285 
L 148.787746 128.013179 
L 151.08938 126.198787 
L 153.391014 124.395015 
L 155.692648 122.60177 
L 157.994281 120.81896 
L 160.295915 119.046494 
L 162.597549 117.284283 
L 164.899183 115.532238 
L 167.200817 113.790271 
L 169.502451 112.058295 
L 171.804085 110.336225 
L 174.105719 108.623975 
L 176.407352 106.921463 
L 178.708986 105.228605 
L 181.01062 103.54532 
L 183.312254 101.871526 
L 185.613888 100.207143 
L 187.915522 98.552093 
L 190.217156 96.906297 
L 192.51879 95.269677 
L 194.820424 93.642158 
L 197.122057 92.023662 
L 199.423691 90.414117 
L 201.725325 88.813446 
L 204.026959 87.221578 
L 206.328593 85.63844 
L 208.630227 84.06396 
L 210.931861 82.498068 
L 213.233495 80.940693 
L 215.535128 79.391766 
L 217.836762 77.851218 
L 220.138396 76.318983 
L 222.44003 74.794991 
L 224.741664 73.279178 
L 227.043298 71.771478 
L 229.344932 70.271825 
L 231.646566 68.780156 
L 233.948199 67.296406 
L 236.249833 65.820514 
L 238.551467 64.352415 
L 240.853101 62.89205 
L 243.154735 61.439357 
L 245.456369 59.994276 
L 247.758003 58.556747 
L 250.059637 57.126711 
L 252.361271 55.70411 
L 254.662904 54.288886 
L 256.964538 52.880981 
L 259.266172 51.480339 
L 261.567806 50.086904 
L 263.86944 48.700621 
L 266.171074 47.321434 
L 268.472708 45.949289 
L 270.774342 44.584132 
L 273.075975 43.225911 
L 275.377609 41.874572 
L 277.679243 40.530063 
L 279.980877 39.192333 
" style="fill:none;stroke:#1f77b4;stroke-linecap:square;stroke-width:1.5;"/>
   </g>
   <g id="line2d_14">
    <path clip-path="url(#p2881225d8e)" d="M 51.913636 215.46 
L 54.219421 212.6376 
L 56.525207 209.8152 
L 58.830992 212.6376 
L 61.136777 205.5816 
L 63.442562 206.9928 
L 65.748347 198.5256 
L 68.054132 197.1144 
L 70.359917 191.4696 
L 72.665702 195.7032 
L 74.971488 197.1144 
L 77.277273 185.8248 
L 79.583058 180.18 
L 81.888843 187.236 
L 84.194628 170.3016 
L 86.500413 187.236 
L 88.806198 187.236 
L 91.111983 175.9464 
L 93.417769 170.3016 
L 95.723554 153.3672 
L 98.029339 173.124 
L 100.335124 171.7128 
L 102.640909 174.5352 
L 104.946694 168.8904 
L 107.252479 168.8904 
L 109.558264 147.7224 
L 111.86405 160.4232 
L 114.169835 143.4888 
L 116.47562 163.2456 
L 118.781405 126.5544 
L 121.08719 173.124 
L 123.392975 170.3016 
L 125.69876 153.3672 
L 128.004545 146.3112 
L 130.310331 130.788 
L 132.616116 153.3672 
L 134.921901 146.3112 
L 137.227686 136.4328 
L 139.533471 147.7224 
L 141.839256 130.788 
L 144.145041 140.6664 
L 146.450826 127.9656 
L 148.756612 129.3768 
L 151.062397 132.1992 
L 153.368182 125.1432 
L 155.673967 112.4424 
L 157.979752 111.0312 
L 160.285537 108.2088 
L 162.591322 108.2088 
L 164.897107 105.3864 
L 167.202893 112.4424 
L 169.508678 106.7976 
L 171.814463 105.3864 
L 174.120248 115.2648 
L 176.426033 119.4984 
L 178.731818 96.9192 
L 181.037603 111.0312 
L 183.343388 108.2088 
L 185.649174 84.2184 
L 187.954959 71.5176 
L 190.260744 105.3864 
L 192.566529 108.2088 
L 194.872314 88.452 
L 197.178099 109.62 
L 199.483884 102.564 
L 201.789669 75.7512 
L 204.095455 78.5736 
L 206.40124 91.2744 
L 208.707025 82.8072 
L 211.01281 94.0968 
L 213.318595 84.2184 
L 215.62438 91.2744 
L 217.930165 63.0504 
L 220.23595 77.1624 
L 222.541736 78.5736 
L 224.847521 61.6392 
L 227.153306 60.228 
L 229.459091 67.284 
L 231.764876 77.1624 
L 234.070661 70.1064 
L 236.376446 39.06 
L 238.682231 55.9944 
L 240.988017 64.4616 
L 243.293802 54.5832 
L 245.599587 51.7608 
L 247.905372 55.9944 
L 250.211157 53.172 
L 252.516942 60.228 
L 254.822727 39.06 
L 257.128512 68.6952 
L 259.434298 48.9384 
L 261.740083 64.4616 
L 264.045868 46.116 
L 266.351653 40.4712 
L 268.657438 46.116 
L 270.963223 41.8824 
L 273.269008 43.2936 
L 275.574793 41.8824 
L 277.880579 46.116 
L 280.186364 43.2936 
" style="fill:none;stroke:#ff7f0e;stroke-linecap:square;stroke-width:1.5;"/>
   </g>
   <g id="patch_3">
    <path d="M 40.5 224.28 
L 40.5 30.24 
" style="fill:none;stroke:#000000;stroke-linecap:square;stroke-linejoin:miter;stroke-width:0.8;"/>
   </g>
   <g id="patch_4">
    <path d="M 291.6 224.28 
L 291.6 30.24 
" style="fill:none;stroke:#000000;stroke-linecap:square;stroke-linejoin:miter;stroke-width:0.8;"/>
   </g>
   <g id="patch_5">
    <path d="M 40.5 224.28 
L 291.6 224.28 
" style="fill:none;stroke:#000000;stroke-linecap:square;stroke-linejoin:miter;stroke-width:0.8;"/>
   </g>
   <g id="patch_6">
    <path d="M 40.5 30.24 
L 291.6 30.24 
" style="fill:none;stroke:#000000;stroke-linecap:square;stroke-linejoin:miter;stroke-width:0.8;"/>
   </g>
   <g id="text_15">
    <text style="font-family:DejaVu Sans;font-size:12px;font-style:normal;font-weight:normal;text-anchor:middle;" transform="rotate(-0, 166.05, 24.24)" x="166.05" y="24.24">Expected Value in (1/3)*x/(1+(1/3)*x) Algorithm</text>
   </g>
   <g id="legend_1">
    <g id="patch_7">
     <path d="M 60.101562 219.28 
L 284.6 219.28 
Q 286.6 219.28 286.6 217.28 
L 286.6 188.92375 
Q 286.6 186.92375 284.6 186.92375 
L 60.101562 186.92375 
Q 58.101562 186.92375 58.101562 188.92375 
L 58.101562 217.28 
Q 58.101562 219.28 60.101562 219.28 
z
" style="fill:#ffffff;opacity:0.8;stroke:#cccccc;stroke-linejoin:miter;"/>
    </g>
    <g id="line2d_15">
     <path d="M 62.101562 195.022188 
L 82.101562 195.022188 
" style="fill:none;stroke:#1f77b4;stroke-linecap:square;stroke-width:1.5;"/>
    </g>
    <g id="line2d_16"/>
    <g id="text_16">
     <text style="font-family:DejaVu Sans;font-size:10px;font-style:normal;font-weight:normal;text-anchor:start;" transform="rotate(-0, 90.101562, 198.522188)" x="90.101562" y="198.522188">(1/3)*x/(1+(1/3)*x)</text>
    </g>
    <g id="line2d_17">
     <path d="M 62.101562 209.700312 
L 82.101562 209.700312 
" style="fill:none;stroke:#ff7f0e;stroke-linecap:square;stroke-width:1.5;"/>
    </g>
    <g id="line2d_18"/>
    <g id="text_17">
     <text style="font-family:DejaVu Sans;font-size:10px;font-style:normal;font-weight:normal;text-anchor:start;" transform="rotate(-0, 90.101562, 213.200312)" x="90.101562" y="213.200312">Simulated Mean of (1/3)*x/(1+(1/3)*x)</text>
    </g>
   </g>
  </g>
 </g>
 <defs>
  <clipPath id="p2881225d8e">
   <rect height="194.04" width="251.1" x="40.5" y="30.24"/>
  </clipPath>
 </defs>
</svg>
