<?xml version="1.0" encoding="utf-8" standalone="no"?>
<!DOCTYPE svg PUBLIC "-//W3C//DTD SVG 1.1//EN"
  "http://www.w3.org/Graphics/SVG/1.1/DTD/svg11.dtd">
<!-- Created with matplotlib (https://matplotlib.org/) -->
<svg height="345.6pt" version="1.1" viewBox="0 0 460.8 345.6" width="460.8pt" xmlns="http://www.w3.org/2000/svg" xmlns:xlink="http://www.w3.org/1999/xlink">
 <defs>
  <style type="text/css">
*{stroke-linecap:butt;stroke-linejoin:round;}
  </style>
 </defs>
 <g id="figure_1">
  <g id="patch_1">
   <path d="M 0 345.6 
L 460.8 345.6 
L 460.8 0 
L 0 0 
z
" style="fill:#ffffff;"/>
  </g>
  <g id="axes_1">
   <g id="patch_2">
    <path d="M 57.6 307.584 
L 414.72 307.584 
L 414.72 41.472 
L 57.6 41.472 
z
" style="fill:#ffffff;"/>
   </g>
   <g id="matplotlib.axis_1">
    <g id="xtick_1">
     <g id="line2d_1">
      <defs>
       <path d="M 0 0 
L 0 3.5 
" id="mcd23671c08" style="stroke:#000000;stroke-width:0.8;"/>
      </defs>
      <g>
       <use style="stroke:#000000;stroke-width:0.8;" x="73.800255" xlink:href="#mcd23671c08" y="307.584"/>
      </g>
     </g>
     <g id="text_1">
      <text style="font-family:DejaVu Sans;font-size:10px;font-style:normal;font-weight:normal;text-anchor:middle;" transform="rotate(-0, 73.800255, 322.182437)" x="73.800255" y="322.182437">0.0</text>
     </g>
    </g>
    <g id="xtick_2">
     <g id="line2d_2">
      <g>
       <use style="stroke:#000000;stroke-width:0.8;" x="138.744153" xlink:href="#mcd23671c08" y="307.584"/>
      </g>
     </g>
     <g id="text_2">
      <text style="font-family:DejaVu Sans;font-size:10px;font-style:normal;font-weight:normal;text-anchor:middle;" transform="rotate(-0, 138.744153, 322.182437)" x="138.744153" y="322.182437">0.2</text>
     </g>
    </g>
    <g id="xtick_3">
     <g id="line2d_3">
      <g>
       <use style="stroke:#000000;stroke-width:0.8;" x="203.688051" xlink:href="#mcd23671c08" y="307.584"/>
      </g>
     </g>
     <g id="text_3">
      <text style="font-family:DejaVu Sans;font-size:10px;font-style:normal;font-weight:normal;text-anchor:middle;" transform="rotate(-0, 203.688051, 322.182437)" x="203.688051" y="322.182437">0.4</text>
     </g>
    </g>
    <g id="xtick_4">
     <g id="line2d_4">
      <g>
       <use style="stroke:#000000;stroke-width:0.8;" x="268.631949" xlink:href="#mcd23671c08" y="307.584"/>
      </g>
     </g>
     <g id="text_4">
      <text style="font-family:DejaVu Sans;font-size:10px;font-style:normal;font-weight:normal;text-anchor:middle;" transform="rotate(-0, 268.631949, 322.182437)" x="268.631949" y="322.182437">0.6</text>
     </g>
    </g>
    <g id="xtick_5">
     <g id="line2d_5">
      <g>
       <use style="stroke:#000000;stroke-width:0.8;" x="333.575847" xlink:href="#mcd23671c08" y="307.584"/>
      </g>
     </g>
     <g id="text_5">
      <text style="font-family:DejaVu Sans;font-size:10px;font-style:normal;font-weight:normal;text-anchor:middle;" transform="rotate(-0, 333.575847, 322.182437)" x="333.575847" y="322.182437">0.8</text>
     </g>
    </g>
    <g id="xtick_6">
     <g id="line2d_6">
      <g>
       <use style="stroke:#000000;stroke-width:0.8;" x="398.519745" xlink:href="#mcd23671c08" y="307.584"/>
      </g>
     </g>
     <g id="text_6">
      <text style="font-family:DejaVu Sans;font-size:10px;font-style:normal;font-weight:normal;text-anchor:middle;" transform="rotate(-0, 398.519745, 322.182437)" x="398.519745" y="322.182437">1.0</text>
     </g>
    </g>
    <g id="text_7">
     <text style="font-family:DejaVu Sans;font-size:10px;font-style:normal;font-weight:normal;text-anchor:middle;" transform="rotate(-0, 236.16, 335.860562)" x="236.16" y="335.860562">Input Coin's Heads Probability (λ)</text>
    </g>
   </g>
   <g id="matplotlib.axis_2">
    <g id="ytick_1">
     <g id="line2d_7">
      <defs>
       <path d="M 0 0 
L -3.5 0 
" id="md6b948be22" style="stroke:#000000;stroke-width:0.8;"/>
      </defs>
      <g>
       <use style="stroke:#000000;stroke-width:0.8;" x="57.6" xlink:href="#md6b948be22" y="295.499752"/>
      </g>
     </g>
     <g id="text_8">
      <text style="font-family:DejaVu Sans;font-size:10px;font-style:normal;font-weight:normal;text-anchor:end;" transform="rotate(-0, 50.6, 299.298971)" x="50.6" y="299.298971">0.00</text>
     </g>
    </g>
    <g id="ytick_2">
     <g id="line2d_8">
      <g>
       <use style="stroke:#000000;stroke-width:0.8;" x="57.6" xlink:href="#md6b948be22" y="264.161443"/>
      </g>
     </g>
     <g id="text_9">
      <text style="font-family:DejaVu Sans;font-size:10px;font-style:normal;font-weight:normal;text-anchor:end;" transform="rotate(-0, 50.6, 267.960661)" x="50.6" y="267.960661">0.05</text>
     </g>
    </g>
    <g id="ytick_3">
     <g id="line2d_9">
      <g>
       <use style="stroke:#000000;stroke-width:0.8;" x="57.6" xlink:href="#md6b948be22" y="232.823133"/>
      </g>
     </g>
     <g id="text_10">
      <text style="font-family:DejaVu Sans;font-size:10px;font-style:normal;font-weight:normal;text-anchor:end;" transform="rotate(-0, 50.6, 236.622351)" x="50.6" y="236.622351">0.10</text>
     </g>
    </g>
    <g id="ytick_4">
     <g id="line2d_10">
      <g>
       <use style="stroke:#000000;stroke-width:0.8;" x="57.6" xlink:href="#md6b948be22" y="201.484823"/>
      </g>
     </g>
     <g id="text_11">
      <text style="font-family:DejaVu Sans;font-size:10px;font-style:normal;font-weight:normal;text-anchor:end;" transform="rotate(-0, 50.6, 205.284041)" x="50.6" y="205.284041">0.15</text>
     </g>
    </g>
    <g id="ytick_5">
     <g id="line2d_11">
      <g>
       <use style="stroke:#000000;stroke-width:0.8;" x="57.6" xlink:href="#md6b948be22" y="170.146513"/>
      </g>
     </g>
     <g id="text_12">
      <text style="font-family:DejaVu Sans;font-size:10px;font-style:normal;font-weight:normal;text-anchor:end;" transform="rotate(-0, 50.6, 173.945732)" x="50.6" y="173.945732">0.20</text>
     </g>
    </g>
    <g id="ytick_6">
     <g id="line2d_12">
      <g>
       <use style="stroke:#000000;stroke-width:0.8;" x="57.6" xlink:href="#md6b948be22" y="138.808203"/>
      </g>
     </g>
     <g id="text_13">
      <text style="font-family:DejaVu Sans;font-size:10px;font-style:normal;font-weight:normal;text-anchor:end;" transform="rotate(-0, 50.6, 142.607422)" x="50.6" y="142.607422">0.25</text>
     </g>
    </g>
    <g id="ytick_7">
     <g id="line2d_13">
      <g>
       <use style="stroke:#000000;stroke-width:0.8;" x="57.6" xlink:href="#md6b948be22" y="107.469893"/>
      </g>
     </g>
     <g id="text_14">
      <text style="font-family:DejaVu Sans;font-size:10px;font-style:normal;font-weight:normal;text-anchor:end;" transform="rotate(-0, 50.6, 111.269112)" x="50.6" y="111.269112">0.30</text>
     </g>
    </g>
    <g id="ytick_8">
     <g id="line2d_14">
      <g>
       <use style="stroke:#000000;stroke-width:0.8;" x="57.6" xlink:href="#md6b948be22" y="76.131583"/>
      </g>
     </g>
     <g id="text_15">
      <text style="font-family:DejaVu Sans;font-size:10px;font-style:normal;font-weight:normal;text-anchor:end;" transform="rotate(-0, 50.6, 79.930802)" x="50.6" y="79.930802">0.35</text>
     </g>
    </g>
    <g id="ytick_9">
     <g id="line2d_15">
      <g>
       <use style="stroke:#000000;stroke-width:0.8;" x="57.6" xlink:href="#md6b948be22" y="44.793273"/>
      </g>
     </g>
     <g id="text_16">
      <text style="font-family:DejaVu Sans;font-size:10px;font-style:normal;font-weight:normal;text-anchor:end;" transform="rotate(-0, 50.6, 48.592492)" x="50.6" y="48.592492">0.40</text>
     </g>
    </g>
    <g id="text_17">
     <text style="font-family:DejaVu Sans;font-size:10px;font-style:normal;font-weight:normal;text-anchor:middle;" transform="rotate(-90, 22.254687, 174.528)" x="22.254687" y="174.528">Coin Flips Needed</text>
    </g>
   </g>
   <g id="line2d_16">
    <path clip-path="url(#p58950aef7f)" d="M 73.832727 86.612504 
L 77.112066 90.107384 
L 80.391405 93.560269 
L 83.670744 96.971765 
L 86.950083 100.342467 
L 90.229421 103.672959 
L 93.50876 106.963817 
L 96.788099 110.215605 
L 100.067438 113.428877 
L 103.346777 116.60418 
L 106.626116 119.742049 
L 109.905455 122.843011 
L 113.184793 125.907586 
L 116.464132 128.936282 
L 119.743471 131.9296 
L 123.02281 134.888033 
L 126.302149 137.812066 
L 129.581488 140.702173 
L 132.860826 143.558824 
L 136.140165 146.382479 
L 139.419504 149.17359 
L 142.698843 151.932605 
L 145.978182 154.659959 
L 149.257521 157.356086 
L 152.53686 160.021408 
L 155.816198 162.656342 
L 159.095537 165.261299 
L 162.374876 167.836682 
L 165.654215 170.382889 
L 168.933554 172.90031 
L 172.212893 175.38933 
L 175.492231 177.850326 
L 178.77157 180.283672 
L 182.050909 182.689734 
L 185.330248 185.068871 
L 188.609587 187.42144 
L 191.888926 189.747788 
L 195.168264 192.04826 
L 198.447603 194.323195 
L 201.726942 196.572925 
L 205.006281 198.797778 
L 208.28562 200.998076 
L 211.564959 203.174139 
L 214.844298 205.326277 
L 218.123636 207.454801 
L 221.402975 209.560011 
L 224.682314 211.642209 
L 227.961653 213.701686 
L 231.240992 215.738734 
L 234.520331 217.753636 
L 237.799669 219.746674 
L 241.079008 221.718125 
L 244.358347 223.668261 
L 247.637686 225.597349 
L 250.917025 227.505655 
L 254.196364 229.393439 
L 257.475702 231.260957 
L 260.755041 233.108461 
L 264.03438 234.936201 
L 267.313719 236.744422 
L 270.593058 238.533364 
L 273.872397 240.303267 
L 277.151736 242.054364 
L 280.431074 243.786887 
L 283.710413 245.501063 
L 286.989752 247.197117 
L 290.269091 248.875269 
L 293.54843 250.535738 
L 296.827769 252.178738 
L 300.107107 253.804481 
L 303.386446 255.413174 
L 306.665785 257.005025 
L 309.945124 258.580235 
L 313.224463 260.139004 
L 316.503802 261.681529 
L 319.78314 263.208004 
L 323.062479 264.71862 
L 326.341818 266.213566 
L 329.621157 267.693027 
L 332.900496 269.157188 
L 336.179835 270.606228 
L 339.459174 272.040327 
L 342.738512 273.459659 
L 346.017851 274.864398 
L 349.29719 276.254714 
L 352.576529 277.630777 
L 355.855868 278.992751 
L 359.135207 280.340802 
L 362.414545 281.675091 
L 365.693884 282.995776 
L 368.973223 284.303016 
L 372.252562 285.596964 
L 375.531901 286.877775 
L 378.81124 288.145599 
L 382.090579 289.400584 
L 385.369917 290.642877 
L 388.649256 291.872624 
L 391.928595 293.089966 
L 395.207934 294.295045 
L 398.487273 295.488 
" style="fill:none;stroke:#1f77b4;stroke-linecap:square;stroke-width:1.5;"/>
   </g>
   <g id="line2d_17">
    <path clip-path="url(#p58950aef7f)" d="M 73.832727 53.568 
L 77.112066 106.216361 
L 80.391405 74.878051 
L 83.670744 103.709296 
L 86.950083 78.638648 
L 90.229421 116.24462 
L 93.50876 83.652778 
L 96.788099 107.469893 
L 100.067438 83.652778 
L 103.346777 57.328597 
L 106.626116 87.413375 
L 109.905455 93.681037 
L 113.184793 93.681037 
L 116.464132 69.863921 
L 119.743471 120.005217 
L 123.02281 113.737555 
L 126.302149 99.948699 
L 129.581488 116.24462 
L 132.860826 93.681037 
L 136.140165 102.455763 
L 139.419504 88.666907 
L 142.698843 96.188101 
L 145.978182 96.188101 
L 149.257521 117.498152 
L 152.53686 112.484023 
L 155.816198 81.145713 
L 159.095537 133.794073 
L 162.374876 102.455763 
L 165.654215 122.512282 
L 168.933554 84.90631 
L 172.212893 101.202231 
L 175.492231 96.188101 
L 178.77157 103.709296 
L 182.050909 91.173972 
L 185.330248 116.24462 
L 188.609587 96.188101 
L 191.888926 93.681037 
L 195.168264 122.512282 
L 198.447603 99.948699 
L 201.726942 137.554671 
L 205.006281 123.765814 
L 208.28562 136.301138 
L 211.564959 132.540541 
L 214.844298 122.512282 
L 218.123636 94.934569 
L 221.402975 127.526411 
L 224.682314 118.751685 
L 227.961653 111.23049 
L 231.240992 103.709296 
L 234.520331 98.695166 
L 237.799669 147.58293 
L 241.079008 128.779944 
L 244.358347 123.765814 
L 247.637686 128.779944 
L 250.917025 114.991087 
L 254.196364 117.498152 
L 257.475702 125.019347 
L 260.755041 117.498152 
L 264.03438 113.737555 
L 267.313719 120.005217 
L 270.593058 146.329397 
L 273.872397 131.287009 
L 277.151736 131.287009 
L 280.431074 108.723425 
L 283.710413 116.24462 
L 286.989752 135.047606 
L 290.269091 114.991087 
L 293.54843 101.202231 
L 296.827769 117.498152 
L 300.107107 88.666907 
L 303.386446 132.540541 
L 306.665785 136.301138 
L 309.945124 125.019347 
L 313.224463 125.019347 
L 316.503802 96.188101 
L 319.78314 148.836462 
L 323.062479 112.484023 
L 326.341818 131.287009 
L 329.621157 132.540541 
L 332.900496 113.737555 
L 336.179835 131.287009 
L 339.459174 147.58293 
L 342.738512 131.287009 
L 346.017851 131.287009 
L 349.29719 146.329397 
L 352.576529 136.301138 
L 355.855868 126.272879 
L 359.135207 146.329397 
L 362.414545 133.794073 
L 365.693884 130.033476 
L 368.973223 147.58293 
L 372.252562 132.540541 
L 375.531901 128.779944 
L 378.81124 127.526411 
L 382.090579 152.597059 
L 385.369917 135.047606 
L 388.649256 136.301138 
L 391.928595 141.315268 
L 395.207934 137.554671 
L 398.487273 141.315268 
" style="fill:none;stroke:#ff7f0e;stroke-linecap:square;stroke-width:1.5;"/>
   </g>
   <g id="patch_3">
    <path d="M 57.6 307.584 
L 57.6 41.472 
" style="fill:none;stroke:#000000;stroke-linecap:square;stroke-linejoin:miter;stroke-width:0.8;"/>
   </g>
   <g id="patch_4">
    <path d="M 414.72 307.584 
L 414.72 41.472 
" style="fill:none;stroke:#000000;stroke-linecap:square;stroke-linejoin:miter;stroke-width:0.8;"/>
   </g>
   <g id="patch_5">
    <path d="M 57.6 307.584 
L 414.72 307.584 
" style="fill:none;stroke:#000000;stroke-linecap:square;stroke-linejoin:miter;stroke-width:0.8;"/>
   </g>
   <g id="patch_6">
    <path d="M 57.6 41.472 
L 414.72 41.472 
" style="fill:none;stroke:#000000;stroke-linecap:square;stroke-linejoin:miter;stroke-width:0.8;"/>
   </g>
   <g id="text_18">
    <text style="font-family:DejaVu Sans;font-size:12px;font-style:normal;font-weight:normal;text-anchor:middle;" transform="rotate(-0, 236.16, 35.472)" x="236.16" y="35.472">Coin Flips for (1/3)*x/(1+(1/3)*x)</text>
   </g>
   <g id="legend_1">
    <g id="patch_7">
     <path d="M 165.641875 78.82825 
L 407.72 78.82825 
Q 409.72 78.82825 409.72 76.82825 
L 409.72 48.472 
Q 409.72 46.472 407.72 46.472 
L 165.641875 46.472 
Q 163.641875 46.472 163.641875 48.472 
L 163.641875 76.82825 
Q 163.641875 78.82825 165.641875 78.82825 
z
" style="fill:#ffffff;opacity:0.8;stroke:#cccccc;stroke-linejoin:miter;"/>
    </g>
    <g id="line2d_18">
     <path d="M 167.641875 54.570437 
L 187.641875 54.570437 
" style="fill:none;stroke:#1f77b4;stroke-linecap:square;stroke-width:1.5;"/>
    </g>
    <g id="line2d_19"/>
    <g id="text_19">
     <text style="font-family:DejaVu Sans;font-size:10px;font-style:normal;font-weight:normal;text-anchor:start;" transform="rotate(-0, 195.641875, 58.070437)" x="195.641875" y="58.070437">Coin Flip Lower Bound</text>
    </g>
    <g id="line2d_20">
     <path d="M 167.641875 69.248562 
L 187.641875 69.248562 
" style="fill:none;stroke:#ff7f0e;stroke-linecap:square;stroke-width:1.5;"/>
    </g>
    <g id="line2d_21"/>
    <g id="text_20">
     <text style="font-family:DejaVu Sans;font-size:10px;font-style:normal;font-weight:normal;text-anchor:start;" transform="rotate(-0, 195.641875, 72.748562)" x="195.641875" y="72.748562">Average Coins Flipped (1/3)*x/(1+(1/3)*x)</text>
    </g>
   </g>
  </g>
 </g>
 <defs>
  <clipPath id="p58950aef7f">
   <rect height="266.112" width="357.12" x="57.6" y="41.472"/>
  </clipPath>
 </defs>
</svg>
