<svg height="460.8" viewBox="0 0 460.8 345.6" width="614.4" xmlns="http://www.w3.org/2000/svg" xmlns:xlink="http://www.w3.org/1999/xlink"><defs><style>*{stroke-linecap:butt;stroke-linejoin:round}</style></defs><g id="figure_1"><path d="M0 345.6h460.8V0H0z" fill="#fff" id="patch_1"/><g id="axes_1"><path d="M57.6 307.584h357.12V41.472H57.6z" fill="#fff" id="patch_2"/><g id="matplotlib.axis_1"><g id="xtick_1"><g id="line2d_1"><defs><path d="M0 0v3.5" id="m48df1a975f" stroke="#000" stroke-width=".8"/></defs><use x="73.8" xlink:href="#m48df1a975f" y="307.584" stroke="#000" stroke-width=".8"/></g><text x="73.8" y="322.182" font-family="DejaVu Sans" font-size="10" font-weight="400" text-anchor="middle" id="text_1">0.0</text></g><g id="xtick_2"><use x="138.744" xlink:href="#m48df1a975f" y="307.584" stroke="#000" stroke-width=".8" id="line2d_2"/><text x="138.744" y="322.182" font-family="DejaVu Sans" font-size="10" font-weight="400" text-anchor="middle" id="text_2">0.2</text></g><g id="xtick_3"><use x="203.688" xlink:href="#m48df1a975f" y="307.584" stroke="#000" stroke-width=".8" id="line2d_3"/><text x="203.688" y="322.182" font-family="DejaVu Sans" font-size="10" font-weight="400" text-anchor="middle" id="text_3">0.4</text></g><g id="xtick_4"><use x="268.632" xlink:href="#m48df1a975f" y="307.584" stroke="#000" stroke-width=".8" id="line2d_4"/><text x="268.632" y="322.182" font-family="DejaVu Sans" font-size="10" font-weight="400" text-anchor="middle" id="text_4">0.6</text></g><g id="xtick_5"><use x="333.576" xlink:href="#m48df1a975f" y="307.584" stroke="#000" stroke-width=".8" id="line2d_5"/><text x="333.576" y="322.182" font-family="DejaVu Sans" font-size="10" font-weight="400" text-anchor="middle" id="text_5">0.8</text></g><g id="xtick_6"><use x="398.52" xlink:href="#m48df1a975f" y="307.584" stroke="#000" stroke-width=".8" id="line2d_6"/><text x="398.52" y="322.182" font-family="DejaVu Sans" font-size="10" font-weight="400" text-anchor="middle" id="text_6">1.0</text></g><text x="236.16" y="335.861" font-family="DejaVu Sans" font-size="10" font-weight="400" text-anchor="middle" id="text_7">Input Coin&apos;s Heads Probability (λ)</text></g><g id="matplotlib.axis_2"><g id="ytick_1"><g id="line2d_7"><defs><path d="M0 0h-3.5" id="m15a33dc699" stroke="#000" stroke-width=".8"/></defs><use x="57.6" xlink:href="#m15a33dc699" y="295.5" stroke="#000" stroke-width=".8"/></g><text x="50.6" y="299.299" font-family="DejaVu Sans" font-size="10" font-weight="400" text-anchor="end" id="text_8">0.00</text></g><g id="ytick_2"><use x="57.6" xlink:href="#m15a33dc699" y="263.833" stroke="#000" stroke-width=".8" id="line2d_8"/><text x="50.6" y="267.633" font-family="DejaVu Sans" font-size="10" font-weight="400" text-anchor="end" id="text_9">0.05</text></g><g id="ytick_3"><use x="57.6" xlink:href="#m15a33dc699" y="232.167" stroke="#000" stroke-width=".8" id="line2d_9"/><text x="50.6" y="235.966" font-family="DejaVu Sans" font-size="10" font-weight="400" text-anchor="end" id="text_10">0.10</text></g><g id="ytick_4"><use x="57.6" xlink:href="#m15a33dc699" y="200.5" stroke="#000" stroke-width=".8" id="line2d_10"/><text x="50.6" y="204.3" font-family="DejaVu Sans" font-size="10" font-weight="400" text-anchor="end" id="text_11">0.15</text></g><g id="ytick_5"><use x="57.6" xlink:href="#m15a33dc699" y="168.834" stroke="#000" stroke-width=".8" id="line2d_11"/><text x="50.6" y="172.633" font-family="DejaVu Sans" font-size="10" font-weight="400" text-anchor="end" id="text_12">0.20</text></g><g id="ytick_6"><use x="57.6" xlink:href="#m15a33dc699" y="137.167" stroke="#000" stroke-width=".8" id="line2d_12"/><text x="50.6" y="140.967" font-family="DejaVu Sans" font-size="10" font-weight="400" text-anchor="end" id="text_13">0.25</text></g><g id="ytick_7"><use x="57.6" xlink:href="#m15a33dc699" y="105.501" stroke="#000" stroke-width=".8" id="line2d_13"/><text x="50.6" y="109.3" font-family="DejaVu Sans" font-size="10" font-weight="400" text-anchor="end" id="text_14">0.30</text></g><g id="ytick_8"><use x="57.6" xlink:href="#m15a33dc699" y="73.835" stroke="#000" stroke-width=".8" id="line2d_14"/><text x="50.6" y="77.634" font-family="DejaVu Sans" font-size="10" font-weight="400" text-anchor="end" id="text_15">0.35</text></g><g id="ytick_9"><use x="57.6" xlink:href="#m15a33dc699" y="42.168" stroke="#000" stroke-width=".8" id="line2d_15"/><text x="50.6" y="45.967" font-family="DejaVu Sans" font-size="10" font-weight="400" text-anchor="end" id="text_16">0.40</text></g><text transform="rotate(-90 22.255 174.528)" x="22.255" y="174.528" font-family="DejaVu Sans" font-size="10" font-weight="400" text-anchor="middle" id="text_17">Coin Flips Needed</text></g><path clip-path="url(#pa1028d8b9a)" d="M73.833 84.425l3.28 3.532 3.278 3.489 3.28 3.447 3.28 3.406 3.278 3.365 3.28 3.326 3.28 3.285 3.278 3.247 3.28 3.209 3.28 3.17 3.278 3.134 3.28 3.097 3.28 3.06 3.278 3.025 3.28 2.99 3.28 2.954 3.278 2.92 3.28 2.887 3.28 2.853 3.279 2.82 3.279 2.788 3.28 2.756 3.279 2.725 3.279 2.693 3.28 2.662 3.279 2.633 3.279 2.602 3.28 2.573 3.279 2.544 3.279 2.515 3.28 2.486 3.279 2.46 3.279 2.43 3.28 2.405 3.279 2.377 3.279 2.35 3.28 2.325 3.279 2.299 3.279 2.273 3.28 2.248 3.279 2.224 3.279 2.198 3.28 2.175 3.279 2.15 3.279 2.128 3.28 2.104 3.279 2.081 3.279 2.059 3.28 2.036 3.279 2.014 3.279 1.992 3.28 1.97 3.279 1.95 3.279 1.928 3.28 1.907 3.279 1.887 3.279 1.867 3.28 1.847 3.279 1.827 3.28 1.808 3.278 1.788 3.28 1.77 3.28 1.75 3.278 1.733 3.28 1.713 3.28 1.696 3.278 1.678 3.28 1.66 3.28 1.643 3.278 1.626 3.28 1.608 3.28 1.592 3.278 1.575 3.28 1.559 3.28 1.542 3.278 1.526 3.28 1.511 3.28 1.495 3.278 1.48 3.28 1.464 3.28 1.449 3.279 1.434 3.279 1.42 3.28 1.404 3.279 1.39 3.279 1.377 3.28 1.362 3.279 1.348 3.279 1.335 3.28 1.32 3.279 1.308 3.279 1.295 3.28 1.28 3.279 1.269 3.279 1.255 3.28 1.243 3.279 1.23 3.279 1.218 3.28 1.205" fill="none" stroke="#1f77b4" stroke-linecap="square" stroke-width="1.5" id="line2d_16"/><path clip-path="url(#pa1028d8b9a)" d="M73.833 82.701l3.28-8.866L80.39 90.3l3.28 10.133 3.28-46.866 3.278 48.133 3.28-5.067 3.28-34.2 3.278 25.334 3.28-1.267 3.28-16.466 3.278 32.933 3.28-43.067 3.28 35.467 3.278-10.134 3.28 21.534 3.28 16.466 3.278 5.067 3.28-39.267 3.28 7.6 3.279 3.8 3.279 19 3.28-19 3.279-16.466 3.279 5.066 3.28 12.667 3.279-20.267 3.279 15.2 3.28 1.267 3.279 32.933 3.279-24.066 3.28 10.133 3.279 22.8 3.279-38 3.28-2.533 3.279 8.866 3.279 10.134 3.28-1.267 3.279 2.533 3.279-13.933 3.28-10.133 3.279 35.466 3.279-22.8 3.28-5.066 3.279-6.334 3.279 11.4 3.28 5.067 3.279-21.533 3.279 13.933 3.28-12.667 3.279 29.134 3.279-13.934 3.28 11.4 3.279-27.866 3.279 48.133 3.28-12.667h3.279l3.279-11.4 3.28 12.667 3.279-3.8 3.28-21.533 3.278 12.666 3.28-22.8 3.28 20.267 3.278 1.267 3.28-11.4 3.28 8.866 3.278-2.533 3.28-1.267 3.28 17.734 3.278-22.8 3.28 32.933 3.28-39.267 3.278 19 3.28 32.933 3.28-19 3.278-12.666 3.28 31.666 3.28-20.266 3.278-31.667 3.28 22.8 3.28-1.266 3.279-3.8 3.279 6.333 3.28 16.466 3.279-15.2 3.279 1.267 3.28 5.067 3.279 1.267 3.279 2.533h3.28l3.279 13.933 3.279 3.8 3.28-8.867 3.279 6.334 3.279-17.733 3.28-3.8 3.279-16.467 3.279 40.533 3.28 5.067" fill="none" stroke="#ff7f0e" stroke-linecap="square" stroke-width="1.5" id="line2d_17"/><path d="M57.6 307.584V41.472" fill="none" stroke="#000" stroke-linecap="square" stroke-width=".8" id="patch_3"/><path d="M414.72 307.584V41.472" fill="none" stroke="#000" stroke-linecap="square" stroke-width=".8" id="patch_4"/><path d="M57.6 307.584h357.12" fill="none" stroke="#000" stroke-linecap="square" stroke-width=".8" id="patch_5"/><path d="M57.6 41.472h357.12" fill="none" stroke="#000" stroke-linecap="square" stroke-width=".8" id="patch_6"/><text x="236.16" y="35.472" font-family="DejaVu Sans" font-size="12" font-weight="400" text-anchor="middle" id="text_18">Coin Flips for (1/3)*x/(1+(1/3)*x)</text><g id="legend_1"><path d="M185.01 78.828h222.71q2 0 2-2V48.472q0-2-2-2H185.01q-2 0-2 2v28.356q0 2 2 2z" fill="#fff" opacity=".8" stroke="#ccc" id="patch_7"/><path d="M187.01 54.57h20" fill="none" stroke="#1f77b4" stroke-linecap="square" stroke-width="1.5" id="line2d_18"/><text x="215.009" y="58.07" font-family="DejaVu Sans" font-size="10" font-weight="400" id="text_19">Coin Flip Lower Bound</text><path d="M187.01 69.249h20" fill="none" stroke="#ff7f0e" stroke-linecap="square" stroke-width="1.5" id="line2d_20"/><text x="215.009" y="72.749" font-family="DejaVu Sans" font-size="10" font-weight="400" id="text_20">Avg. Coins Flipped (1/3)*x/(1+(1/3)*x)</text></g></g></g><defs><clipPath id="pa1028d8b9a"><path d="M57.6 41.472h357.12v266.112H57.6z"/></clipPath></defs></svg>