<svg height="460.8" viewBox="0 0 460.8 345.6" width="614.4" xmlns="http://www.w3.org/2000/svg" xmlns:xlink="http://www.w3.org/1999/xlink"><defs><style>*{stroke-linecap:butt;stroke-linejoin:round}</style></defs><g id="figure_1"><path d="M0 345.6h460.8V0H0z" fill="#fff" id="patch_1"/><g id="axes_1"><path d="M57.6 307.584h357.12V41.472H57.6z" fill="#fff" id="patch_2"/><g id="matplotlib.axis_1"><g id="xtick_1"><g id="line2d_1"><defs><path d="M0 0v3.5" id="m3757700ea1" stroke="#000" stroke-width=".8"/></defs><use x="73.8" xlink:href="#m3757700ea1" y="307.584" stroke="#000" stroke-width=".8"/></g><text x="73.8" y="322.182" font-family="DejaVu Sans" font-size="10" font-weight="400" text-anchor="middle" id="text_1">0.0</text></g><g id="xtick_2"><use x="138.744" xlink:href="#m3757700ea1" y="307.584" stroke="#000" stroke-width=".8" id="line2d_2"/><text x="138.744" y="322.182" font-family="DejaVu Sans" font-size="10" font-weight="400" text-anchor="middle" id="text_2">0.2</text></g><g id="xtick_3"><use x="203.688" xlink:href="#m3757700ea1" y="307.584" stroke="#000" stroke-width=".8" id="line2d_3"/><text x="203.688" y="322.182" font-family="DejaVu Sans" font-size="10" font-weight="400" text-anchor="middle" id="text_3">0.4</text></g><g id="xtick_4"><use x="268.632" xlink:href="#m3757700ea1" y="307.584" stroke="#000" stroke-width=".8" id="line2d_4"/><text x="268.632" y="322.182" font-family="DejaVu Sans" font-size="10" font-weight="400" text-anchor="middle" id="text_4">0.6</text></g><g id="xtick_5"><use x="333.576" xlink:href="#m3757700ea1" y="307.584" stroke="#000" stroke-width=".8" id="line2d_5"/><text x="333.576" y="322.182" font-family="DejaVu Sans" font-size="10" font-weight="400" text-anchor="middle" id="text_5">0.8</text></g><g id="xtick_6"><use x="398.52" xlink:href="#m3757700ea1" y="307.584" stroke="#000" stroke-width=".8" id="line2d_6"/><text x="398.52" y="322.182" font-family="DejaVu Sans" font-size="10" font-weight="400" text-anchor="middle" id="text_6">1.0</text></g><text x="236.16" y="335.861" font-family="DejaVu Sans" font-size="10" font-weight="400" text-anchor="middle" id="text_7">Input Coin&apos;s Heads Probability (λ)</text></g><g id="matplotlib.axis_2"><g id="ytick_1"><g id="line2d_7"><defs><path d="M0 0h-3.5" id="m9732166092" stroke="#000" stroke-width=".8"/></defs><use x="57.6" xlink:href="#m9732166092" y="273.984" stroke="#000" stroke-width=".8"/></g><text x="50.6" y="277.783" font-family="DejaVu Sans" font-size="10" font-weight="400" text-anchor="end" id="text_8">0.14</text></g><g id="ytick_2"><use x="57.6" xlink:href="#m9732166092" y="220.224" stroke="#000" stroke-width=".8" id="line2d_8"/><text x="50.6" y="224.023" font-family="DejaVu Sans" font-size="10" font-weight="400" text-anchor="end" id="text_9">0.16</text></g><g id="ytick_3"><use x="57.6" xlink:href="#m9732166092" y="166.464" stroke="#000" stroke-width=".8" id="line2d_9"/><text x="50.6" y="170.263" font-family="DejaVu Sans" font-size="10" font-weight="400" text-anchor="end" id="text_10">0.18</text></g><g id="ytick_4"><use x="57.6" xlink:href="#m9732166092" y="112.704" stroke="#000" stroke-width=".8" id="line2d_10"/><text x="50.6" y="116.503" font-family="DejaVu Sans" font-size="10" font-weight="400" text-anchor="end" id="text_11">0.20</text></g><g id="ytick_5"><use x="57.6" xlink:href="#m9732166092" y="58.944" stroke="#000" stroke-width=".8" id="line2d_11"/><text x="50.6" y="62.743" font-family="DejaVu Sans" font-size="10" font-weight="400" text-anchor="end" id="text_12">0.22</text></g><text transform="rotate(-90 22.255 174.528)" x="22.255" y="174.528" font-family="DejaVu Sans" font-size="10" font-weight="400" text-anchor="middle" id="text_13">Simulated Mean / Function Value</text></g><path clip-path="url(#p203b4f1908)" d="M73.833 112.715l3.28 1.083 3.278 1.08 3.28 1.075 3.28 1.07 3.278 1.066 3.28 1.063 3.28 1.057 3.278 1.054 3.28 1.05 3.28 1.045 3.278 1.041 3.28 1.037 3.28 1.033 3.278 1.029 3.28 1.025 3.28 1.02 3.278 1.018 3.28 1.013 3.28 1.009 3.279 1.005 3.279 1 3.28.998 3.279.994 3.279.99 3.28.985 3.279.982 3.279.978 3.28.975 3.279.97 3.279.968 3.28.963 3.279.96 3.279.956 3.28.953 3.279.949 3.279.945 3.28.942 3.279.938 3.279.935 3.28.931 3.279.928 3.279.924 3.28.921 3.279.918 3.279.914 3.28.91 3.279.908 3.279.904 3.28.9 3.279.898 3.279.894 3.28.891 3.279.888 3.279.884 3.28.881 3.279.878 3.279.875 3.28.871 3.279.869 3.28.865 3.278.862 3.28.86 3.28.855 3.278.853 3.28.85 3.28.847 3.278.844 3.28.841 3.28.838 3.278.835 3.28.832 3.28.829 3.278.826 3.28.823 3.28.82 3.278.818 3.28.815 3.28.812 3.278.808 3.28.807 3.28.803 3.279.8 3.279.798 3.28.795 3.279.793 3.279.79 3.28.786 3.279.784 3.279.782 3.28.778 3.279.777 3.279.773 3.28.77 3.279.77 3.279.765 3.28.763 3.279.76 3.279.758 3.28.756" fill="none" stroke="#1f77b4" stroke-linecap="square" stroke-width="1.5" id="line2d_12"/><path clip-path="url(#p203b4f1908)" d="M73.833 123.456l3.28 5.376 3.278 69.888 3.28-145.152 3.28 112.896 3.278-69.888 3.28 64.512 3.28-26.88 3.278 32.256 3.28-43.008 3.28 5.376 3.278-53.76 3.28 155.904 3.28-134.4 3.278 37.632 3.28 43.008 3.28-80.64 3.278 16.128 3.28-48.384 3.28 134.4 3.279-43.008 3.279-37.632 3.28-43.008 3.279 64.512 3.279-32.256 3.28 26.88 3.279 26.88 3.279-48.384h3.28l3.279 10.752 3.279-26.88 3.28 64.512 3.279 37.632h3.279l3.28 48.384 3.279-69.888 3.279 43.008 3.28-86.016 3.279-59.136 3.279 86.016 3.28-43.008 3.279 16.128 3.279 48.384h3.28l3.279 26.88 3.279-64.512 3.28 75.264 3.279-86.016h3.279l3.28 32.256 3.279-10.752 3.279 86.016 3.28-129.024 3.279 69.888 3.279 16.128 3.28-91.392 3.279 26.88 3.279 26.88 3.28 134.4 3.279-161.28 3.28 96.768 3.278-80.64 3.28 69.888 3.28-69.888 3.278-86.016 3.28 80.64 3.28-32.256 3.278 53.76 3.28 5.376 3.28 37.632 3.278-64.512h3.28l3.28 64.512 3.278-43.008 3.28 53.76 3.28 64.512 3.278-107.52 3.28 64.512h3.28l3.278-69.888 3.28 5.376 3.28 37.632 3.279-21.504 3.279 59.136 3.28-69.888 3.279-21.504 3.279 53.76 3.28 37.632 3.279-118.272 3.279 59.136 3.28-139.776 3.279 112.896 3.279-21.504 3.28 26.88 3.279 26.88 3.279 26.88 3.28 53.76 3.279-10.752 3.279-96.768 3.28 10.752" fill="none" stroke="#ff7f0e" stroke-linecap="square" stroke-width="1.5" id="line2d_13"/><path d="M57.6 307.584V41.472" fill="none" stroke="#000" stroke-linecap="square" stroke-width=".8" id="patch_3"/><path d="M414.72 307.584V41.472" fill="none" stroke="#000" stroke-linecap="square" stroke-width=".8" id="patch_4"/><path d="M57.6 307.584h357.12" fill="none" stroke="#000" stroke-linecap="square" stroke-width=".8" id="patch_5"/><path d="M57.6 41.472h357.12" fill="none" stroke="#000" stroke-linecap="square" stroke-width=".8" id="patch_6"/><g id="text_14" font-family="DejaVu Sans" font-size="12" font-weight="400"><text transform="translate(121.313 22.035)">Simulated Mean for 1/(5+x) Algorithm</text><text transform="translate(132.61 35.472)">(Wasserstein Distances in Legend)</text></g><g id="legend_1"><path d="M64.6 302.584h178.25q2 0 2-2v-28.356q0-2-2-2H64.6q-2 0-2 2v28.356q0 2 2 2z" fill="#fff" opacity=".8" stroke="#ccc" id="patch_7"/><path d="M66.6 278.326h20" fill="none" stroke="#1f77b4" stroke-linecap="square" stroke-width="1.5" id="line2d_14"/><text x="94.6" y="281.826" font-family="DejaVu Sans" font-size="10" font-weight="400" id="text_15">1/(5+x)</text><path d="M66.6 293.004h20" fill="none" stroke="#ff7f0e" stroke-linecap="square" stroke-width="1.5" id="line2d_16"/><text x="94.6" y="296.504" font-family="DejaVu Sans" font-size="10" font-weight="400" id="text_16">Simul. Mean (WD=0.007198)</text></g></g></g><defs><clipPath id="p203b4f1908"><path d="M57.6 41.472h357.12v266.112H57.6z"/></clipPath></defs></svg>