<svg height="460.8" viewBox="0 0 460.8 345.6" width="614.4" xmlns="http://www.w3.org/2000/svg" xmlns:xlink="http://www.w3.org/1999/xlink"><defs><style>*{stroke-linecap:butt;stroke-linejoin:round}</style></defs><g id="figure_1"><path d="M0 345.6h460.8V0H0z" fill="#fff" id="patch_1"/><g id="axes_1"><path d="M57.6 307.584h357.12V41.472H57.6z" fill="#fff" id="patch_2"/><g id="matplotlib.axis_1"><g id="xtick_1"><g id="line2d_1"><defs><path d="M0 0v3.5" id="m934015f105" stroke="#000" stroke-width=".8"/></defs><use x="73.8" xlink:href="#m934015f105" y="307.584" stroke="#000" stroke-width=".8"/></g><text x="73.8" y="322.182" font-family="DejaVu Sans" font-size="10" font-weight="400" text-anchor="middle" id="text_1">0.0</text></g><g id="xtick_2"><use x="138.744" xlink:href="#m934015f105" y="307.584" stroke="#000" stroke-width=".8" id="line2d_2"/><text x="138.744" y="322.182" font-family="DejaVu Sans" font-size="10" font-weight="400" text-anchor="middle" id="text_2">0.2</text></g><g id="xtick_3"><use x="203.688" xlink:href="#m934015f105" y="307.584" stroke="#000" stroke-width=".8" id="line2d_3"/><text x="203.688" y="322.182" font-family="DejaVu Sans" font-size="10" font-weight="400" text-anchor="middle" id="text_3">0.4</text></g><g id="xtick_4"><use x="268.632" xlink:href="#m934015f105" y="307.584" stroke="#000" stroke-width=".8" id="line2d_4"/><text x="268.632" y="322.182" font-family="DejaVu Sans" font-size="10" font-weight="400" text-anchor="middle" id="text_4">0.6</text></g><g id="xtick_5"><use x="333.576" xlink:href="#m934015f105" y="307.584" stroke="#000" stroke-width=".8" id="line2d_5"/><text x="333.576" y="322.182" font-family="DejaVu Sans" font-size="10" font-weight="400" text-anchor="middle" id="text_5">0.8</text></g><g id="xtick_6"><use x="398.52" xlink:href="#m934015f105" y="307.584" stroke="#000" stroke-width=".8" id="line2d_6"/><text x="398.52" y="322.182" font-family="DejaVu Sans" font-size="10" font-weight="400" text-anchor="middle" id="text_6">1.0</text></g><text x="236.16" y="335.861" font-family="DejaVu Sans" font-size="10" font-weight="400" text-anchor="middle" id="text_7">Input Coin&apos;s Heads Probability (λ)</text></g><g id="matplotlib.axis_2"><g id="ytick_1"><g id="line2d_7"><defs><path d="M0 0h-3.5" id="mebaddb2880" stroke="#000" stroke-width=".8"/></defs><use x="57.6" xlink:href="#mebaddb2880" y="304.448" stroke="#000" stroke-width=".8"/></g><text x="50.6" y="308.247" font-family="DejaVu Sans" font-size="10" font-weight="400" text-anchor="end" id="text_8">0.12</text></g><g id="ytick_2"><use x="57.6" xlink:href="#mebaddb2880" y="259.648" stroke="#000" stroke-width=".8" id="line2d_8"/><text x="50.6" y="263.447" font-family="DejaVu Sans" font-size="10" font-weight="400" text-anchor="end" id="text_9">0.14</text></g><g id="ytick_3"><use x="57.6" xlink:href="#mebaddb2880" y="214.848" stroke="#000" stroke-width=".8" id="line2d_9"/><text x="50.6" y="218.647" font-family="DejaVu Sans" font-size="10" font-weight="400" text-anchor="end" id="text_10">0.16</text></g><g id="ytick_4"><use x="57.6" xlink:href="#mebaddb2880" y="170.048" stroke="#000" stroke-width=".8" id="line2d_10"/><text x="50.6" y="173.847" font-family="DejaVu Sans" font-size="10" font-weight="400" text-anchor="end" id="text_11">0.18</text></g><g id="ytick_5"><use x="57.6" xlink:href="#mebaddb2880" y="125.248" stroke="#000" stroke-width=".8" id="line2d_11"/><text x="50.6" y="129.047" font-family="DejaVu Sans" font-size="10" font-weight="400" text-anchor="end" id="text_12">0.20</text></g><g id="ytick_6"><use x="57.6" xlink:href="#mebaddb2880" y="80.448" stroke="#000" stroke-width=".8" id="line2d_12"/><text x="50.6" y="84.247" font-family="DejaVu Sans" font-size="10" font-weight="400" text-anchor="end" id="text_13">0.22</text></g><text transform="rotate(-90 22.255 174.528)" x="22.255" y="174.528" font-family="DejaVu Sans" font-size="10" font-weight="400" text-anchor="middle" id="text_14">Simulated Mean / Function Value</text></g><path clip-path="url(#p01404f66d2)" d="M73.833 125.257l3.28.903 3.278.9 3.28.895 3.28.892 3.278.889 3.28.885 3.28.881 3.278.879 3.28.874 3.28.871 3.278.868 3.28.864 3.28.86 3.278.858 3.28.854 3.28.851 3.278.847 3.28.845 3.28.84 3.279.838 3.279.834 3.28.831 3.279.828 3.279.825 3.28.821 3.279.819 3.279.815 3.28.812 3.279.81 3.279.805 3.28.803 3.279.8 3.279.797 3.28.793 3.279.791 3.279.788 3.28.785 3.279.782 3.279.779 3.28.776 3.279.773 3.279.77 3.28.768 3.279.764 3.279.762 3.28.759 3.279.756 3.279.753 3.28.751 3.279.748 3.279.745 3.28.742 3.279.74 3.279.737 3.28.734 3.279.732 3.279.729 3.28.726 3.279.724 3.28.72 3.278.72 3.28.715 3.28.714 3.278.71 3.28.709 3.28.706 3.278.703 3.28.7 3.28.699 3.278.696 3.28.693 3.28.69 3.278.69 3.28.685 3.28.684 3.278.681 3.28.679 3.28.676 3.278.675 3.28.671 3.28.67 3.279.667 3.279.665 3.28.662 3.279.66 3.279.658 3.28.656 3.279.654 3.279.65 3.28.65 3.279.647 3.279.644 3.28.643 3.279.64 3.279.638 3.28.636 3.279.633 3.279.632 3.28.63" fill="none" stroke="#1f77b4" stroke-linecap="square" stroke-width="1.5" id="line2d_13"/><path clip-path="url(#p01404f66d2)" d="M73.833 125.248l3.28-40.32 3.278 58.24 3.28-40.32 3.28-49.28 3.278 53.76 3.28-8.96 3.28 40.32h3.278l3.28 13.44 3.28-13.44 3.278 8.96 3.28-8.96 3.28 17.92 3.278-49.28 3.28 67.2 3.28-31.36 3.278 4.48 3.28 58.24 3.28-89.6 3.279 35.84 3.279-13.44 3.28-40.32 3.279 35.84 3.279 67.2 3.28-31.36 3.279-67.2 3.279 53.76 3.28-17.92 3.279 85.12 3.279-107.52 3.28 8.96 3.279-35.84 3.279 53.76h3.28l3.279 76.16 3.279-58.24 3.28-13.44 3.279-26.88 3.279 76.16 3.28-49.28 3.279-40.32 3.279-13.44 3.28 94.08 3.279-4.48 3.279 13.44 3.28-71.68 3.279 44.8 3.279 8.96 3.28-62.72 3.279 4.48 3.279 35.84 3.28-22.4 3.279 103.04 3.279-35.84 3.28-44.8 3.279 67.2h3.279l3.28 4.48 3.279-116.48 3.28 80.64 3.278-44.8 3.28 31.36 3.28-13.44 3.278 13.44 3.28-22.4 3.28-13.44 3.278-17.92 3.28 22.4 3.28 58.24 3.278-58.24 3.28-31.36 3.28 49.28 3.278 22.4 3.28-17.92 3.28 53.76 3.278-40.32 3.28 80.64 3.28-49.28 3.278-17.92 3.28 22.4 3.28 22.4 3.279-17.92 3.279-17.92 3.28 8.96 3.279-22.4 3.279 13.44 3.28 22.4 3.279-22.4 3.279 53.76 3.28 4.48 3.279-62.72 3.279-31.36 3.28 67.2 3.279-40.32 3.279-4.48 3.28 103.04 3.279-134.4 3.279 58.24 3.28-4.48" fill="none" stroke="#ff7f0e" stroke-linecap="square" stroke-width="1.5" id="line2d_14"/><path d="M57.6 307.584V41.472" fill="none" stroke="#000" stroke-linecap="square" stroke-width=".8" id="patch_3"/><path d="M414.72 307.584V41.472" fill="none" stroke="#000" stroke-linecap="square" stroke-width=".8" id="patch_4"/><path d="M57.6 307.584h357.12" fill="none" stroke="#000" stroke-linecap="square" stroke-width=".8" id="patch_5"/><path d="M57.6 41.472h357.12" fill="none" stroke="#000" stroke-linecap="square" stroke-width=".8" id="patch_6"/><text x="236.16" y="35.472" font-family="DejaVu Sans" font-size="12" font-weight="400" text-anchor="middle" id="text_15">Expected Value in 1/(5+x) Algorithm</text><g id="legend_1"><path d="M240.572 78.828H407.72q2 0 2-2V48.472q0-2-2-2H240.572q-2 0-2 2v28.356q0 2 2 2z" fill="#fff" opacity=".8" stroke="#ccc" id="patch_7"/><path d="M242.572 54.57h20" fill="none" stroke="#1f77b4" stroke-linecap="square" stroke-width="1.5" id="line2d_15"/><text x="270.572" y="58.07" font-family="DejaVu Sans" font-size="10" font-weight="400" id="text_16">1/(5+x)</text><path d="M242.572 69.249h20" fill="none" stroke="#ff7f0e" stroke-linecap="square" stroke-width="1.5" id="line2d_17"/><text x="270.572" y="72.749" font-family="DejaVu Sans" font-size="10" font-weight="400" id="text_17">Simulated Mean of 1/(5+x)</text></g></g></g><defs><clipPath id="p01404f66d2"><path d="M57.6 41.472h357.12v266.112H57.6z"/></clipPath></defs></svg>