<?xml version="1.0" encoding="utf-8" standalone="no"?>
<!DOCTYPE svg PUBLIC "-//W3C//DTD SVG 1.1//EN"
  "http://www.w3.org/Graphics/SVG/1.1/DTD/svg11.dtd">
<!-- Created with matplotlib (https://matplotlib.org/) -->
<svg height="345.6pt" version="1.1" viewBox="0 0 460.8 345.6" width="460.8pt" xmlns="http://www.w3.org/2000/svg" xmlns:xlink="http://www.w3.org/1999/xlink">
 <defs>
  <style type="text/css">
*{stroke-linecap:butt;stroke-linejoin:round;}
  </style>
 </defs>
 <g id="figure_1">
  <g id="patch_1">
   <path d="M 0 345.6 
L 460.8 345.6 
L 460.8 0 
L 0 0 
z
" style="fill:#ffffff;"/>
  </g>
  <g id="axes_1">
   <g id="patch_2">
    <path d="M 57.6 307.584 
L 414.72 307.584 
L 414.72 41.472 
L 57.6 41.472 
z
" style="fill:#ffffff;"/>
   </g>
   <g id="matplotlib.axis_1">
    <g id="xtick_1">
     <g id="line2d_1">
      <defs>
       <path d="M 0 0 
L 0 3.5 
" id="m112d4e2d50" style="stroke:#000000;stroke-width:0.8;"/>
      </defs>
      <g>
       <use style="stroke:#000000;stroke-width:0.8;" x="73.800255" xlink:href="#m112d4e2d50" y="307.584"/>
      </g>
     </g>
     <g id="text_1">
      <text style="font-family:DejaVu Sans;font-size:10px;font-style:normal;font-weight:normal;text-anchor:middle;" transform="rotate(-0, 73.800255, 322.182437)" x="73.800255" y="322.182437">0.0</text>
     </g>
    </g>
    <g id="xtick_2">
     <g id="line2d_2">
      <g>
       <use style="stroke:#000000;stroke-width:0.8;" x="138.744153" xlink:href="#m112d4e2d50" y="307.584"/>
      </g>
     </g>
     <g id="text_2">
      <text style="font-family:DejaVu Sans;font-size:10px;font-style:normal;font-weight:normal;text-anchor:middle;" transform="rotate(-0, 138.744153, 322.182437)" x="138.744153" y="322.182437">0.2</text>
     </g>
    </g>
    <g id="xtick_3">
     <g id="line2d_3">
      <g>
       <use style="stroke:#000000;stroke-width:0.8;" x="203.688051" xlink:href="#m112d4e2d50" y="307.584"/>
      </g>
     </g>
     <g id="text_3">
      <text style="font-family:DejaVu Sans;font-size:10px;font-style:normal;font-weight:normal;text-anchor:middle;" transform="rotate(-0, 203.688051, 322.182437)" x="203.688051" y="322.182437">0.4</text>
     </g>
    </g>
    <g id="xtick_4">
     <g id="line2d_4">
      <g>
       <use style="stroke:#000000;stroke-width:0.8;" x="268.631949" xlink:href="#m112d4e2d50" y="307.584"/>
      </g>
     </g>
     <g id="text_4">
      <text style="font-family:DejaVu Sans;font-size:10px;font-style:normal;font-weight:normal;text-anchor:middle;" transform="rotate(-0, 268.631949, 322.182437)" x="268.631949" y="322.182437">0.6</text>
     </g>
    </g>
    <g id="xtick_5">
     <g id="line2d_5">
      <g>
       <use style="stroke:#000000;stroke-width:0.8;" x="333.575847" xlink:href="#m112d4e2d50" y="307.584"/>
      </g>
     </g>
     <g id="text_5">
      <text style="font-family:DejaVu Sans;font-size:10px;font-style:normal;font-weight:normal;text-anchor:middle;" transform="rotate(-0, 333.575847, 322.182437)" x="333.575847" y="322.182437">0.8</text>
     </g>
    </g>
    <g id="xtick_6">
     <g id="line2d_6">
      <g>
       <use style="stroke:#000000;stroke-width:0.8;" x="398.519745" xlink:href="#m112d4e2d50" y="307.584"/>
      </g>
     </g>
     <g id="text_6">
      <text style="font-family:DejaVu Sans;font-size:10px;font-style:normal;font-weight:normal;text-anchor:middle;" transform="rotate(-0, 398.519745, 322.182437)" x="398.519745" y="322.182437">1.0</text>
     </g>
    </g>
    <g id="text_7">
     <text style="font-family:DejaVu Sans;font-size:10px;font-style:normal;font-weight:normal;text-anchor:middle;" transform="rotate(-0, 236.16, 335.860562)" x="236.16" y="335.860562">Input Coin's Heads Probability (λ)</text>
    </g>
   </g>
   <g id="matplotlib.axis_2">
    <g id="ytick_1">
     <g id="line2d_7">
      <defs>
       <path d="M 0 0 
L -3.5 0 
" id="m2ae71b3f5d" style="stroke:#000000;stroke-width:0.8;"/>
      </defs>
      <g>
       <use style="stroke:#000000;stroke-width:0.8;" x="57.6" xlink:href="#m2ae71b3f5d" y="295.488"/>
      </g>
     </g>
     <g id="text_8">
      <text style="font-family:DejaVu Sans;font-size:10px;font-style:normal;font-weight:normal;text-anchor:end;" transform="rotate(-0, 50.6, 299.287219)" x="50.6" y="299.287219">0.14</text>
     </g>
    </g>
    <g id="ytick_2">
     <g id="line2d_8">
      <g>
       <use style="stroke:#000000;stroke-width:0.8;" x="57.6" xlink:href="#m2ae71b3f5d" y="239.227535"/>
      </g>
     </g>
     <g id="text_9">
      <text style="font-family:DejaVu Sans;font-size:10px;font-style:normal;font-weight:normal;text-anchor:end;" transform="rotate(-0, 50.6, 243.026754)" x="50.6" y="243.026754">0.16</text>
     </g>
    </g>
    <g id="ytick_3">
     <g id="line2d_9">
      <g>
       <use style="stroke:#000000;stroke-width:0.8;" x="57.6" xlink:href="#m2ae71b3f5d" y="182.96707"/>
      </g>
     </g>
     <g id="text_10">
      <text style="font-family:DejaVu Sans;font-size:10px;font-style:normal;font-weight:normal;text-anchor:end;" transform="rotate(-0, 50.6, 186.766289)" x="50.6" y="186.766289">0.18</text>
     </g>
    </g>
    <g id="ytick_4">
     <g id="line2d_10">
      <g>
       <use style="stroke:#000000;stroke-width:0.8;" x="57.6" xlink:href="#m2ae71b3f5d" y="126.706605"/>
      </g>
     </g>
     <g id="text_11">
      <text style="font-family:DejaVu Sans;font-size:10px;font-style:normal;font-weight:normal;text-anchor:end;" transform="rotate(-0, 50.6, 130.505823)" x="50.6" y="130.505823">0.20</text>
     </g>
    </g>
    <g id="ytick_5">
     <g id="line2d_11">
      <g>
       <use style="stroke:#000000;stroke-width:0.8;" x="57.6" xlink:href="#m2ae71b3f5d" y="70.44614"/>
      </g>
     </g>
     <g id="text_12">
      <text style="font-family:DejaVu Sans;font-size:10px;font-style:normal;font-weight:normal;text-anchor:end;" transform="rotate(-0, 50.6, 74.245358)" x="50.6" y="74.245358">0.22</text>
     </g>
    </g>
    <g id="text_13">
     <text style="font-family:DejaVu Sans;font-size:10px;font-style:normal;font-weight:normal;text-anchor:middle;" transform="rotate(-90, 22.254687, 174.528)" x="22.254687" y="174.528">Simulated Mean / Function Value</text>
    </g>
   </g>
   <g id="line2d_12">
    <path clip-path="url(#p85311a8f8b)" d="M 73.832727 126.717857 
L 77.112066 127.851868 
L 80.391405 128.981318 
L 83.670744 130.106232 
L 86.950083 131.226639 
L 90.229421 132.342565 
L 93.50876 133.454038 
L 96.788099 134.561083 
L 100.067438 135.663727 
L 103.346777 136.761997 
L 106.626116 137.855918 
L 109.905455 138.945516 
L 113.184793 140.030817 
L 116.464132 141.111845 
L 119.743471 142.188628 
L 123.02281 143.261188 
L 126.302149 144.329551 
L 129.581488 145.393742 
L 132.860826 146.453785 
L 136.140165 147.509705 
L 139.419504 148.561524 
L 142.698843 149.609267 
L 145.978182 150.652959 
L 149.257521 151.692621 
L 152.53686 152.728277 
L 155.816198 153.759952 
L 159.095537 154.787666 
L 162.374876 155.811444 
L 165.654215 156.831308 
L 168.933554 157.84728 
L 172.212893 158.859382 
L 175.492231 159.867637 
L 178.77157 160.872066 
L 182.050909 161.872692 
L 185.330248 162.869535 
L 188.609587 163.862617 
L 191.888926 164.85196 
L 195.168264 165.837584 
L 198.447603 166.81951 
L 201.726942 167.797759 
L 205.006281 168.772352 
L 208.28562 169.74331 
L 211.564959 170.710652 
L 214.844298 171.674398 
L 218.123636 172.634569 
L 221.402975 173.591185 
L 224.682314 174.544265 
L 227.961653 175.493829 
L 231.240992 176.439896 
L 234.520331 177.382485 
L 237.799669 178.321617 
L 241.079008 179.257308 
L 244.358347 180.18958 
L 247.637686 181.118449 
L 250.917025 182.043935 
L 254.196364 182.966057 
L 257.475702 183.884832 
L 260.755041 184.800279 
L 264.03438 185.712416 
L 267.313719 186.62126 
L 270.593058 187.52683 
L 273.872397 188.429144 
L 277.151736 189.328218 
L 280.431074 190.22407 
L 283.710413 191.116717 
L 286.989752 192.006177 
L 290.269091 192.892467 
L 293.54843 193.775603 
L 296.827769 194.655603 
L 300.107107 195.532483 
L 303.386446 196.406259 
L 306.665785 197.276948 
L 309.945124 198.144567 
L 313.224463 199.009131 
L 316.503802 199.870657 
L 319.78314 200.729161 
L 323.062479 201.584658 
L 326.341818 202.437165 
L 329.621157 203.286696 
L 332.900496 204.133268 
L 336.179835 204.976896 
L 339.459174 205.817596 
L 342.738512 206.655381 
L 346.017851 207.490269 
L 349.29719 208.322273 
L 352.576529 209.151408 
L 355.855868 209.97769 
L 359.135207 210.801134 
L 362.414545 211.621752 
L 365.693884 212.439561 
L 368.973223 213.254575 
L 372.252562 214.066807 
L 375.531901 214.876273 
L 378.81124 215.682986 
L 382.090579 216.48696 
L 385.369917 217.288209 
L 388.649256 218.086747 
L 391.928595 218.882588 
L 395.207934 219.675745 
L 398.487273 220.466232 
" style="fill:none;stroke:#1f77b4;stroke-linecap:square;stroke-width:1.5;"/>
   </g>
   <g id="line2d_13">
    <path clip-path="url(#p85311a8f8b)" d="M 73.832727 137.958698 
L 77.112066 126.706605 
L 80.391405 81.698233 
L 83.670744 239.227535 
L 86.950083 121.080558 
L 90.229421 115.454512 
L 93.50876 211.097302 
L 96.788099 149.210791 
L 100.067438 109.828465 
L 103.346777 104.202419 
L 106.626116 109.828465 
L 109.905455 166.08893 
L 113.184793 70.44614 
L 116.464132 227.975442 
L 119.743471 160.462884 
L 123.02281 53.568 
L 126.302149 149.210791 
L 129.581488 149.210791 
L 132.860826 137.958698 
L 136.140165 132.332651 
L 139.419504 76.072186 
L 142.698843 166.08893 
L 145.978182 222.349395 
L 149.257521 87.324279 
L 152.53686 87.324279 
L 155.816198 171.714977 
L 159.095537 171.714977 
L 162.374876 132.332651 
L 165.654215 166.08893 
L 168.933554 222.349395 
L 172.212893 126.706605 
L 175.492231 199.845209 
L 178.77157 166.08893 
L 182.050909 166.08893 
L 185.330248 126.706605 
L 188.609587 121.080558 
L 191.888926 53.568 
L 195.168264 199.845209 
L 198.447603 216.723349 
L 201.726942 188.593116 
L 205.006281 160.462884 
L 208.28562 239.227535 
L 211.564959 188.593116 
L 214.844298 205.471256 
L 218.123636 154.836837 
L 221.402975 109.828465 
L 224.682314 64.820093 
L 227.961653 121.080558 
L 231.240992 188.593116 
L 234.520331 98.576372 
L 237.799669 126.706605 
L 241.079008 154.836837 
L 244.358347 177.341023 
L 247.637686 137.958698 
L 250.917025 295.488 
L 254.196364 177.341023 
L 257.475702 126.706605 
L 260.755041 177.341023 
L 264.03438 171.714977 
L 267.313719 284.235907 
L 270.593058 154.836837 
L 273.872397 177.341023 
L 277.151736 267.357767 
L 280.431074 182.96707 
L 283.710413 188.593116 
L 286.989752 121.080558 
L 290.269091 205.471256 
L 293.54843 250.479628 
L 296.827769 149.210791 
L 300.107107 188.593116 
L 303.386446 143.584744 
L 306.665785 227.975442 
L 309.945124 267.357767 
L 313.224463 267.357767 
L 316.503802 205.471256 
L 319.78314 182.96707 
L 323.062479 166.08893 
L 326.341818 182.96707 
L 329.621157 205.471256 
L 332.900496 205.471256 
L 336.179835 194.219163 
L 339.459174 177.341023 
L 342.738512 261.731721 
L 346.017851 211.097302 
L 349.29719 205.471256 
L 352.576529 143.584744 
L 355.855868 211.097302 
L 359.135207 216.723349 
L 362.414545 177.341023 
L 365.693884 154.836837 
L 368.973223 278.60986 
L 372.252562 205.471256 
L 375.531901 250.479628 
L 378.81124 182.96707 
L 382.090579 222.349395 
L 385.369917 166.08893 
L 388.649256 126.706605 
L 391.928595 143.584744 
L 395.207934 188.593116 
L 398.487273 216.723349 
" style="fill:none;stroke:#ff7f0e;stroke-linecap:square;stroke-width:1.5;"/>
   </g>
   <g id="patch_3">
    <path d="M 57.6 307.584 
L 57.6 41.472 
" style="fill:none;stroke:#000000;stroke-linecap:square;stroke-linejoin:miter;stroke-width:0.8;"/>
   </g>
   <g id="patch_4">
    <path d="M 414.72 307.584 
L 414.72 41.472 
" style="fill:none;stroke:#000000;stroke-linecap:square;stroke-linejoin:miter;stroke-width:0.8;"/>
   </g>
   <g id="patch_5">
    <path d="M 57.6 307.584 
L 414.72 307.584 
" style="fill:none;stroke:#000000;stroke-linecap:square;stroke-linejoin:miter;stroke-width:0.8;"/>
   </g>
   <g id="patch_6">
    <path d="M 57.6 41.472 
L 414.72 41.472 
" style="fill:none;stroke:#000000;stroke-linecap:square;stroke-linejoin:miter;stroke-width:0.8;"/>
   </g>
   <g id="text_14">
    <text style="font-family:DejaVu Sans;font-size:12px;font-style:normal;font-weight:normal;" transform="translate(121.313438 22.034625)">Simulated Mean for 1/(5+x) Algorithm</text>
    <text style="font-family:DejaVu Sans;font-size:12px;font-style:normal;font-weight:normal;" transform="translate(132.609375 35.472)">(Wasserstein Distances in Legend)</text>
   </g>
   <g id="legend_1">
    <g id="patch_7">
     <path d="M 229.47 78.82825 
L 407.72 78.82825 
Q 409.72 78.82825 409.72 76.82825 
L 409.72 48.472 
Q 409.72 46.472 407.72 46.472 
L 229.47 46.472 
Q 227.47 46.472 227.47 48.472 
L 227.47 76.82825 
Q 227.47 78.82825 229.47 78.82825 
z
" style="fill:#ffffff;opacity:0.8;stroke:#cccccc;stroke-linejoin:miter;"/>
    </g>
    <g id="line2d_14">
     <path d="M 231.47 54.570437 
L 251.47 54.570437 
" style="fill:none;stroke:#1f77b4;stroke-linecap:square;stroke-width:1.5;"/>
    </g>
    <g id="line2d_15"/>
    <g id="text_15">
     <text style="font-family:DejaVu Sans;font-size:10px;font-style:normal;font-weight:normal;text-anchor:start;" transform="rotate(-0, 259.47, 58.070437)" x="259.47" y="58.070437">1/(5+x)</text>
    </g>
    <g id="line2d_16">
     <path d="M 231.47 69.248562 
L 251.47 69.248562 
" style="fill:none;stroke:#ff7f0e;stroke-linecap:square;stroke-width:1.5;"/>
    </g>
    <g id="line2d_17"/>
    <g id="text_16">
     <text style="font-family:DejaVu Sans;font-size:10px;font-style:normal;font-weight:normal;text-anchor:start;" transform="rotate(-0, 259.47, 72.748562)" x="259.47" y="72.748562">Simul. Mean (WD=0.006985)</text>
    </g>
   </g>
  </g>
 </g>
 <defs>
  <clipPath id="p85311a8f8b">
   <rect height="266.112" width="357.12" x="57.6" y="41.472"/>
  </clipPath>
 </defs>
</svg>
