<?xml version="1.0" encoding="utf-8" standalone="no"?>
<!DOCTYPE svg PUBLIC "-//W3C//DTD SVG 1.1//EN"
  "http://www.w3.org/Graphics/SVG/1.1/DTD/svg11.dtd">
<!-- Created with matplotlib (https://matplotlib.org/) -->
<svg height="345.6pt" version="1.1" viewBox="0 0 460.8 345.6" width="460.8pt" xmlns="http://www.w3.org/2000/svg" xmlns:xlink="http://www.w3.org/1999/xlink">
 <defs>
  <style type="text/css">
*{stroke-linecap:butt;stroke-linejoin:round;}
  </style>
 </defs>
 <g id="figure_1">
  <g id="patch_1">
   <path d="M 0 345.6 
L 460.8 345.6 
L 460.8 0 
L 0 0 
z
" style="fill:#ffffff;"/>
  </g>
  <g id="axes_1">
   <g id="patch_2">
    <path d="M 57.6 307.584 
L 414.72 307.584 
L 414.72 41.472 
L 57.6 41.472 
z
" style="fill:#ffffff;"/>
   </g>
   <g id="matplotlib.axis_1">
    <g id="xtick_1">
     <g id="line2d_1">
      <defs>
       <path d="M 0 0 
L 0 3.5 
" id="mef5514cc58" style="stroke:#000000;stroke-width:0.8;"/>
      </defs>
      <g>
       <use style="stroke:#000000;stroke-width:0.8;" x="73.790428" xlink:href="#mef5514cc58" y="307.584"/>
      </g>
     </g>
     <g id="text_1">
      <text style="font-family:DejaVu Sans;font-size:10px;font-style:normal;font-weight:normal;text-anchor:middle;" transform="rotate(-0, 73.790428, 322.182437)" x="73.790428" y="322.182437">0.0</text>
     </g>
    </g>
    <g id="xtick_2">
     <g id="line2d_2">
      <g>
       <use style="stroke:#000000;stroke-width:0.8;" x="116.089414" xlink:href="#mef5514cc58" y="307.584"/>
      </g>
     </g>
     <g id="text_2">
      <text style="font-family:DejaVu Sans;font-size:10px;font-style:normal;font-weight:normal;text-anchor:middle;" transform="rotate(-0, 116.089414, 322.182437)" x="116.089414" y="322.182437">0.1</text>
     </g>
    </g>
    <g id="xtick_3">
     <g id="line2d_3">
      <g>
       <use style="stroke:#000000;stroke-width:0.8;" x="158.388401" xlink:href="#mef5514cc58" y="307.584"/>
      </g>
     </g>
     <g id="text_3">
      <text style="font-family:DejaVu Sans;font-size:10px;font-style:normal;font-weight:normal;text-anchor:middle;" transform="rotate(-0, 158.388401, 322.182437)" x="158.388401" y="322.182437">0.2</text>
     </g>
    </g>
    <g id="xtick_4">
     <g id="line2d_4">
      <g>
       <use style="stroke:#000000;stroke-width:0.8;" x="200.687387" xlink:href="#mef5514cc58" y="307.584"/>
      </g>
     </g>
     <g id="text_4">
      <text style="font-family:DejaVu Sans;font-size:10px;font-style:normal;font-weight:normal;text-anchor:middle;" transform="rotate(-0, 200.687387, 322.182437)" x="200.687387" y="322.182437">0.3</text>
     </g>
    </g>
    <g id="xtick_5">
     <g id="line2d_5">
      <g>
       <use style="stroke:#000000;stroke-width:0.8;" x="242.986373" xlink:href="#mef5514cc58" y="307.584"/>
      </g>
     </g>
     <g id="text_5">
      <text style="font-family:DejaVu Sans;font-size:10px;font-style:normal;font-weight:normal;text-anchor:middle;" transform="rotate(-0, 242.986373, 322.182437)" x="242.986373" y="322.182437">0.4</text>
     </g>
    </g>
    <g id="xtick_6">
     <g id="line2d_6">
      <g>
       <use style="stroke:#000000;stroke-width:0.8;" x="285.285359" xlink:href="#mef5514cc58" y="307.584"/>
      </g>
     </g>
     <g id="text_6">
      <text style="font-family:DejaVu Sans;font-size:10px;font-style:normal;font-weight:normal;text-anchor:middle;" transform="rotate(-0, 285.285359, 322.182437)" x="285.285359" y="322.182437">0.5</text>
     </g>
    </g>
    <g id="xtick_7">
     <g id="line2d_7">
      <g>
       <use style="stroke:#000000;stroke-width:0.8;" x="327.584345" xlink:href="#mef5514cc58" y="307.584"/>
      </g>
     </g>
     <g id="text_7">
      <text style="font-family:DejaVu Sans;font-size:10px;font-style:normal;font-weight:normal;text-anchor:middle;" transform="rotate(-0, 327.584345, 322.182437)" x="327.584345" y="322.182437">0.6</text>
     </g>
    </g>
    <g id="xtick_8">
     <g id="line2d_8">
      <g>
       <use style="stroke:#000000;stroke-width:0.8;" x="369.883331" xlink:href="#mef5514cc58" y="307.584"/>
      </g>
     </g>
     <g id="text_8">
      <text style="font-family:DejaVu Sans;font-size:10px;font-style:normal;font-weight:normal;text-anchor:middle;" transform="rotate(-0, 369.883331, 322.182437)" x="369.883331" y="322.182437">0.7</text>
     </g>
    </g>
    <g id="xtick_9">
     <g id="line2d_9">
      <g>
       <use style="stroke:#000000;stroke-width:0.8;" x="412.182317" xlink:href="#mef5514cc58" y="307.584"/>
      </g>
     </g>
     <g id="text_9">
      <text style="font-family:DejaVu Sans;font-size:10px;font-style:normal;font-weight:normal;text-anchor:middle;" transform="rotate(-0, 412.182317, 322.182437)" x="412.182317" y="322.182437">0.8</text>
     </g>
    </g>
    <g id="text_10">
     <text style="font-family:DejaVu Sans;font-size:10px;font-style:normal;font-weight:normal;text-anchor:middle;" transform="rotate(-0, 236.16, 335.860562)" x="236.16" y="335.860562">Input Coin's Heads Probability (λ)</text>
    </g>
   </g>
   <g id="matplotlib.axis_2">
    <g id="ytick_1">
     <g id="line2d_10">
      <defs>
       <path d="M 0 0 
L -3.5 0 
" id="m292f50aa4d" style="stroke:#000000;stroke-width:0.8;"/>
      </defs>
      <g>
       <use style="stroke:#000000;stroke-width:0.8;" x="57.6" xlink:href="#m292f50aa4d" y="295.509474"/>
      </g>
     </g>
     <g id="text_11">
      <text style="font-family:DejaVu Sans;font-size:10px;font-style:normal;font-weight:normal;text-anchor:end;" transform="rotate(-0, 50.6, 299.308692)" x="50.6" y="299.308692">0</text>
     </g>
    </g>
    <g id="ytick_2">
     <g id="line2d_11">
      <g>
       <use style="stroke:#000000;stroke-width:0.8;" x="57.6" xlink:href="#m292f50aa4d" y="261.79887"/>
      </g>
     </g>
     <g id="text_12">
      <text style="font-family:DejaVu Sans;font-size:10px;font-style:normal;font-weight:normal;text-anchor:end;" transform="rotate(-0, 50.6, 265.598089)" x="50.6" y="265.598089">2000</text>
     </g>
    </g>
    <g id="ytick_3">
     <g id="line2d_12">
      <g>
       <use style="stroke:#000000;stroke-width:0.8;" x="57.6" xlink:href="#m292f50aa4d" y="228.088267"/>
      </g>
     </g>
     <g id="text_13">
      <text style="font-family:DejaVu Sans;font-size:10px;font-style:normal;font-weight:normal;text-anchor:end;" transform="rotate(-0, 50.6, 231.887485)" x="50.6" y="231.887485">4000</text>
     </g>
    </g>
    <g id="ytick_4">
     <g id="line2d_13">
      <g>
       <use style="stroke:#000000;stroke-width:0.8;" x="57.6" xlink:href="#m292f50aa4d" y="194.377663"/>
      </g>
     </g>
     <g id="text_14">
      <text style="font-family:DejaVu Sans;font-size:10px;font-style:normal;font-weight:normal;text-anchor:end;" transform="rotate(-0, 50.6, 198.176882)" x="50.6" y="198.176882">6000</text>
     </g>
    </g>
    <g id="ytick_5">
     <g id="line2d_14">
      <g>
       <use style="stroke:#000000;stroke-width:0.8;" x="57.6" xlink:href="#m292f50aa4d" y="160.667059"/>
      </g>
     </g>
     <g id="text_15">
      <text style="font-family:DejaVu Sans;font-size:10px;font-style:normal;font-weight:normal;text-anchor:end;" transform="rotate(-0, 50.6, 164.466278)" x="50.6" y="164.466278">8000</text>
     </g>
    </g>
    <g id="ytick_6">
     <g id="line2d_15">
      <g>
       <use style="stroke:#000000;stroke-width:0.8;" x="57.6" xlink:href="#m292f50aa4d" y="126.956456"/>
      </g>
     </g>
     <g id="text_16">
      <text style="font-family:DejaVu Sans;font-size:10px;font-style:normal;font-weight:normal;text-anchor:end;" transform="rotate(-0, 50.6, 130.755675)" x="50.6" y="130.755675">10000</text>
     </g>
    </g>
    <g id="ytick_7">
     <g id="line2d_16">
      <g>
       <use style="stroke:#000000;stroke-width:0.8;" x="57.6" xlink:href="#m292f50aa4d" y="93.245852"/>
      </g>
     </g>
     <g id="text_17">
      <text style="font-family:DejaVu Sans;font-size:10px;font-style:normal;font-weight:normal;text-anchor:end;" transform="rotate(-0, 50.6, 97.045071)" x="50.6" y="97.045071">12000</text>
     </g>
    </g>
    <g id="ytick_8">
     <g id="line2d_17">
      <g>
       <use style="stroke:#000000;stroke-width:0.8;" x="57.6" xlink:href="#m292f50aa4d" y="59.535249"/>
      </g>
     </g>
     <g id="text_18">
      <text style="font-family:DejaVu Sans;font-size:10px;font-style:normal;font-weight:normal;text-anchor:end;" transform="rotate(-0, 50.6, 63.334468)" x="50.6" y="63.334468">14000</text>
     </g>
    </g>
    <g id="text_19">
     <text style="font-family:DejaVu Sans;font-size:10px;font-style:normal;font-weight:normal;text-anchor:middle;" transform="rotate(-90, 12.707812, 174.528)" x="12.707812" y="174.528">Coin Flips Needed</text>
    </g>
   </g>
   <g id="line2d_18">
    <path clip-path="url(#pf9da8b50ce)" d="M 73.832727 295.487561 
L 78.104498 295.487494 
L 82.376268 295.487425 
L 86.648038 295.487354 
L 90.919809 295.487281 
L 95.191579 295.487206 
L 99.463349 295.487129 
L 103.73512 295.487049 
L 108.00689 295.486968 
L 112.27866 295.486883 
L 116.550431 295.486797 
L 120.822201 295.486707 
L 125.093971 295.486615 
L 129.365742 295.48652 
L 133.637512 295.486422 
L 137.909282 295.486321 
L 142.181053 295.486216 
L 146.452823 295.486108 
L 150.724593 295.485996 
L 154.996364 295.48588 
L 159.268134 295.48576 
L 163.539904 295.485636 
L 167.811675 295.485507 
L 172.083445 295.485373 
L 176.355215 295.485234 
L 180.626986 295.48509 
L 184.898756 295.48494 
L 189.170526 295.484783 
L 193.442297 295.484621 
L 197.714067 295.484451 
L 201.985837 295.484274 
L 206.257608 295.48409 
L 210.529378 295.483896 
L 214.801148 295.483694 
L 219.072919 295.483483 
L 223.344689 295.483261 
L 227.616459 295.483028 
L 231.88823 295.482783 
L 236.16 295.482525 
L 240.43177 295.482253 
L 244.703541 295.481967 
L 248.975311 295.481664 
L 253.247081 295.481343 
L 257.518852 295.481003 
L 261.790622 295.480642 
L 266.062392 295.480257 
L 270.334163 295.479848 
L 274.605933 295.47941 
L 278.877703 295.478941 
L 283.149474 295.478437 
L 287.421244 295.477895 
L 291.693014 295.47731 
L 295.964785 295.476676 
L 300.236555 295.475988 
L 304.508325 295.475237 
L 308.780096 295.474416 
L 313.051866 295.473513 
L 317.323636 295.472515 
L 321.595407 295.471408 
L 325.867177 295.470172 
L 330.138947 295.468783 
L 334.410718 295.467211 
L 338.682488 295.465417 
L 342.954258 295.463349 
L 347.226029 295.460942 
L 351.497799 295.458104 
L 355.769569 295.454706 
L 360.04134 295.450567 
L 364.31311 295.445413 
L 368.58488 295.438819 
L 372.856651 295.430085 
L 377.128421 295.417964 
L 381.400191 295.400015 
L 385.671962 295.370702 
L 389.943732 295.314238 
L 394.215502 295.160352 
L 398.487273 293.072963 
" style="fill:none;stroke:#1f77b4;stroke-linecap:square;stroke-width:1.5;"/>
   </g>
   <g id="line2d_19">
    <path clip-path="url(#pf9da8b50ce)" d="M 73.832727 295.392026 
L 78.104498 295.458031 
L 82.376268 295.463256 
L 86.648038 295.458807 
L 90.919809 295.450548 
L 95.191579 295.458031 
L 99.463349 295.448592 
L 103.73512 295.459413 
L 108.00689 295.457762 
L 112.27866 295.449705 
L 116.550431 295.455469 
L 120.822201 295.452907 
L 125.093971 295.45793 
L 129.365742 295.458874 
L 133.637512 295.456649 
L 137.909282 295.457222 
L 142.181053 295.459582 
L 146.452823 295.454862 
L 150.724593 295.453581 
L 154.996364 295.448053 
L 159.268134 295.453514 
L 163.539904 295.456211 
L 167.811675 295.45584 
L 172.083445 295.456346 
L 176.355215 295.455806 
L 180.626986 295.458166 
L 184.898756 295.447615 
L 189.170526 295.446165 
L 193.442297 295.453784 
L 197.714067 295.443569 
L 201.985837 295.445221 
L 206.257608 295.451323 
L 210.529378 295.447143 
L 214.801148 295.434299 
L 219.072919 295.43676 
L 223.344689 295.449469 
L 227.616459 295.443064 
L 231.88823 295.447817 
L 236.16 295.441884 
L 240.43177 295.442862 
L 244.703541 295.44394 
L 248.975311 295.447547 
L 253.247081 295.443637 
L 257.518852 295.429344 
L 261.790622 295.421084 
L 266.062392 295.433052 
L 270.334163 295.433254 
L 274.605933 295.439895 
L 278.877703 295.428501 
L 283.149474 295.427827 
L 287.421244 295.419938 
L 291.693014 295.432883 
L 295.964785 295.407027 
L 300.236555 295.4135 
L 304.508325 295.425568 
L 308.780096 295.388486 
L 313.051866 295.379452 
L 317.323636 295.378609 
L 321.595407 295.382621 
L 325.867177 295.399914 
L 330.138947 295.389026 
L 334.410718 295.374362 
L 338.682488 295.354944 
L 342.954258 295.351337 
L 347.226029 295.382688 
L 351.497799 295.310177 
L 355.769569 295.326155 
L 360.04134 295.33637 
L 364.31311 295.165828 
L 368.58488 295.141455 
L 372.856651 295.271915 
L 377.128421 295.259341 
L 381.400191 295.030345 
L 385.671962 294.961204 
L 389.943732 294.325591 
L 394.215502 293.838776 
L 398.487273 247.622988 
" style="fill:none;stroke:#ff7f0e;stroke-linecap:square;stroke-width:1.5;"/>
   </g>
   <g id="line2d_20">
    <path clip-path="url(#pf9da8b50ce)" d="M 73.832727 295.375508 
L 78.104498 295.379991 
L 82.376268 295.377935 
L 86.648038 295.37099 
L 90.919809 295.376586 
L 95.191579 295.379014 
L 99.463349 295.375002 
L 103.73512 295.382452 
L 108.00689 295.356798 
L 112.27866 295.352214 
L 116.550431 295.359933 
L 120.822201 295.353326 
L 125.093971 295.360945 
L 129.365742 295.361012 
L 133.637512 295.355989 
L 137.909282 295.358754 
L 142.181053 295.359563 
L 146.452823 295.354405 
L 150.724593 295.348067 
L 154.996364 295.350461 
L 159.268134 295.338729 
L 163.539904 295.334954 
L 167.811675 295.324268 
L 172.083445 295.334853 
L 176.355215 295.33846 
L 180.626986 295.343078 
L 184.898756 295.335224 
L 189.170526 295.34028 
L 193.442297 295.307109 
L 197.714067 295.308019 
L 201.985837 295.303131 
L 206.257608 295.311323 
L 210.529378 295.306738 
L 214.801148 295.309435 
L 219.072919 295.287017 
L 223.344689 295.291939 
L 227.616459 295.269791 
L 231.88823 295.279601 
L 236.16 295.284725 
L 240.43177 295.291535 
L 244.703541 295.26342 
L 248.975311 295.271342 
L 253.247081 295.223911 
L 257.518852 295.244104 
L 261.790622 295.251925 
L 266.062392 295.223439 
L 270.334163 295.199471 
L 274.605933 295.179649 
L 278.877703 295.142534 
L 283.149474 295.11543 
L 287.421244 295.150152 
L 291.693014 295.16539 
L 295.964785 295.179986 
L 300.236555 295.171592 
L 304.508325 295.066146 
L 308.780096 295.062909 
L 313.051866 295.04302 
L 317.323636 295.07282 
L 321.595407 295.033817 
L 325.867177 295.005399 
L 330.138947 294.937371 
L 334.410718 294.884749 
L 338.682488 294.887277 
L 342.954258 294.803574 
L 347.226029 294.706689 
L 351.497799 294.73268 
L 355.769569 294.622683 
L 360.04134 294.395271 
L 364.31311 294.495425 
L 368.58488 294.346154 
L 372.856651 294.444219 
L 377.128421 293.562518 
L 381.400191 293.910883 
L 385.671962 292.023595 
L 389.943732 292.824963 
L 394.215502 291.014805 
L 398.487273 53.568 
" style="fill:none;stroke:#2ca02c;stroke-linecap:square;stroke-width:1.5;"/>
   </g>
   <g id="line2d_21">
    <path clip-path="url(#pf9da8b50ce)" d="M 73.832727 295.486888 
L 78.104498 295.488 
L 82.376268 295.475123 
L 86.648038 295.485168 
L 90.919809 295.480483 
L 95.191579 295.482101 
L 99.463349 295.472797 
L 103.73512 295.467234 
L 108.00689 295.466526 
L 112.27866 295.462751 
L 116.550431 295.453345 
L 120.822201 295.453986 
L 125.093971 295.441985 
L 129.365742 295.448862 
L 133.637512 295.439288 
L 137.909282 295.455031 
L 142.181053 295.438816 
L 146.452823 295.45375 
L 150.724593 295.422028 
L 154.996364 295.443873 
L 159.268134 295.414376 
L 163.539904 295.407229 
L 167.811675 295.412556 
L 172.083445 295.401869 
L 176.355215 295.387037 
L 180.626986 295.377733 
L 184.898756 295.390239 
L 189.170526 295.353292 
L 193.442297 295.351202 
L 197.714067 295.35282 
L 201.985837 295.33465 
L 206.257608 295.330437 
L 210.529378 295.321942 
L 214.801148 295.290355 
L 219.072919 295.27023 
L 223.344689 295.287354 
L 227.616459 295.26015 
L 231.88823 295.212382 
L 236.16 295.234833 
" style="fill:none;stroke:#d62728;stroke-linecap:square;stroke-width:1.5;"/>
   </g>
   <g id="line2d_22">
    <path clip-path="url(#pf9da8b50ce)" d="M 73.832727 295.444716 
L 78.104498 295.444109 
L 82.376268 295.443401 
L 86.648038 295.442221 
L 90.919809 295.447581 
L 95.191579 295.447547 
L 99.463349 295.443502 
L 103.73512 295.443536 
L 108.00689 295.446199 
L 112.27866 295.426579 
L 116.550431 295.421388 
L 120.822201 295.42459 
L 125.093971 295.429815 
L 129.365742 295.426175 
L 133.637512 295.421826 
L 137.909282 295.425669 
L 142.181053 295.426444 
L 146.452823 295.426411 
L 150.724593 295.410938 
L 154.996364 295.42041 
L 159.268134 295.42422 
L 163.539904 295.418185 
L 167.811675 295.421523 
L 172.083445 295.412151 
L 176.355215 295.414174 
L 180.626986 295.407904 
L 184.898756 295.398734 
L 189.170526 295.398364 
L 193.442297 295.407027 
L 197.714067 295.402881 
L 201.985837 295.403757 
L 206.257608 295.394858 
L 210.529378 295.384744 
L 214.801148 295.372507 
L 219.072919 295.35572 
L 223.344689 295.384677 
L 227.616459 295.375946 
L 231.88823 295.339808 
L 236.16 295.361484 
L 240.43177 295.359394 
L 244.703541 295.346955 
L 248.975311 295.355315 
L 253.247081 295.31439 
L 257.518852 295.341763 
L 261.790622 295.351843 
L 266.062392 295.289478 
L 270.334163 295.280039 
L 274.605933 295.31884 
L 278.877703 295.15676 
L 283.149474 295.286242 
L 287.421244 295.260757 
L 291.693014 295.288669 
L 295.964785 295.239654 
L 300.236555 295.246531 
L 304.508325 295.174357 
L 308.780096 295.29413 
L 313.051866 294.01515 
L 317.323636 295.229979 
L 321.595407 295.110879 
L 325.867177 295.176143 
L 330.138947 295.130162 
L 334.410718 295.182076 
L 338.682488 295.050672 
L 342.954258 294.945495 
L 347.226029 295.117588 
L 351.497799 294.891322 
L 355.769569 294.925471 
L 360.04134 294.818541 
L 364.31311 294.861354 
L 368.58488 294.585297 
L 372.856651 294.682519 
L 377.128421 294.529136 
L 381.400191 293.568586 
L 385.671962 294.056513 
L 389.943732 292.745339 
L 394.215502 292.931556 
L 398.487273 243.895506 
" style="fill:none;stroke:#9467bd;stroke-linecap:square;stroke-width:1.5;"/>
   </g>
   <g id="line2d_23">
    <path clip-path="url(#pf9da8b50ce)" d="M 73.832727 151.726232 
L 78.104498 293.511379 
L 82.376268 294.497717 
L 86.648038 294.68326 
L 90.919809 294.873591 
L 95.191579 294.95035 
L 99.463349 295.005062 
L 103.73512 295.069618 
L 108.00689 295.070932 
L 112.27866 295.10798 
L 116.550431 295.11897 
L 120.822201 295.143545 
L 125.093971 295.151332 
L 129.365742 295.159086 
L 133.637512 295.160704 
L 137.909282 295.168154 
L 142.181053 295.19583 
L 146.452823 295.193133 
L 150.724593 295.195594 
L 154.996364 295.205303 
L 159.268134 295.205202 
L 163.539904 295.220001 
L 167.811675 295.213967 
L 172.083445 295.229676 
L 176.355215 295.216259 
L 180.626986 295.236384 
L 184.898756 295.215585 
L 189.170526 295.221012 
L 193.442297 295.237261 
L 197.714067 295.229271 
L 201.985837 295.23453 
L 206.257608 295.220506 
L 210.529378 295.236485 
L 214.801148 295.228361 
L 219.072919 295.232238 
L 223.344689 295.246295 
L 227.616459 295.236216 
L 231.88823 295.229237 
L 236.16 295.244711 
" style="fill:none;stroke:#8c564b;stroke-linecap:square;stroke-width:1.5;"/>
   </g>
   <g id="patch_3">
    <path d="M 57.6 307.584 
L 57.6 41.472 
" style="fill:none;stroke:#000000;stroke-linecap:square;stroke-linejoin:miter;stroke-width:0.8;"/>
   </g>
   <g id="patch_4">
    <path d="M 414.72 307.584 
L 414.72 41.472 
" style="fill:none;stroke:#000000;stroke-linecap:square;stroke-linejoin:miter;stroke-width:0.8;"/>
   </g>
   <g id="patch_5">
    <path d="M 57.6 307.584 
L 414.72 307.584 
" style="fill:none;stroke:#000000;stroke-linecap:square;stroke-linejoin:miter;stroke-width:0.8;"/>
   </g>
   <g id="patch_6">
    <path d="M 57.6 41.472 
L 414.72 41.472 
" style="fill:none;stroke:#000000;stroke-linecap:square;stroke-linejoin:miter;stroke-width:0.8;"/>
   </g>
   <g id="text_20">
    <text style="font-family:DejaVu Sans;font-size:12px;font-style:normal;font-weight:normal;text-anchor:middle;" transform="rotate(-0, 236.16, 35.472)" x="236.16" y="35.472">Coin Flips for x*1.3</text>
   </g>
   <g id="legend_1">
    <g id="patch_7">
     <path d="M 64.6 137.54075 
L 333.853125 137.54075 
Q 335.853125 137.54075 335.853125 135.54075 
L 335.853125 48.472 
Q 335.853125 46.472 333.853125 46.472 
L 64.6 46.472 
Q 62.6 46.472 62.6 48.472 
L 62.6 135.54075 
Q 62.6 137.54075 64.6 137.54075 
z
" style="fill:#ffffff;opacity:0.8;stroke:#cccccc;stroke-linejoin:miter;"/>
    </g>
    <g id="line2d_24">
     <path d="M 66.6 54.570438 
L 86.6 54.570438 
" style="fill:none;stroke:#1f77b4;stroke-linecap:square;stroke-width:1.5;"/>
    </g>
    <g id="line2d_25"/>
    <g id="text_21">
     <text style="font-family:DejaVu Sans;font-size:10px;font-style:normal;font-weight:normal;text-anchor:start;" transform="rotate(-0, 94.6, 58.070438)" x="94.6" y="58.070438">Coin Flip Lower Bound</text>
    </g>
    <g id="line2d_26">
     <path d="M 66.6 69.248563 
L 86.6 69.248563 
" style="fill:none;stroke:#ff7f0e;stroke-linecap:square;stroke-width:1.5;"/>
    </g>
    <g id="line2d_27"/>
    <g id="text_22">
     <text style="font-family:DejaVu Sans;font-size:10px;font-style:normal;font-weight:normal;text-anchor:start;" transform="rotate(-0, 94.6, 72.748563)" x="94.6" y="72.748563">Avg. Coins Flipped 2014 Lin. x*1.3</text>
    </g>
    <g id="line2d_28">
     <path d="M 66.6 83.926688 
L 86.6 83.926688 
" style="fill:none;stroke:#2ca02c;stroke-linecap:square;stroke-width:1.5;"/>
    </g>
    <g id="line2d_29"/>
    <g id="text_23">
     <text style="font-family:DejaVu Sans;font-size:10px;font-style:normal;font-weight:normal;text-anchor:start;" transform="rotate(-0, 94.6, 87.426688)" x="94.6" y="87.426688">Avg. Coins Flipped 2016 Lin. x*1.3</text>
    </g>
    <g id="line2d_30">
     <path d="M 66.6 98.604813 
L 86.6 98.604813 
" style="fill:none;stroke:#d62728;stroke-linecap:square;stroke-width:1.5;"/>
    </g>
    <g id="line2d_31"/>
    <g id="text_24">
     <text style="font-family:DejaVu Sans;font-size:10px;font-style:normal;font-weight:normal;text-anchor:start;" transform="rotate(-0, 94.6, 102.104813)" x="94.6" y="102.104813">Avg. Coins Flipped Low-Mean Lin. x*1.3</text>
    </g>
    <g id="line2d_32">
     <path d="M 66.6 113.282938 
L 86.6 113.282938 
" style="fill:none;stroke:#9467bd;stroke-linecap:square;stroke-width:1.5;"/>
    </g>
    <g id="line2d_33"/>
    <g id="text_25">
     <text style="font-family:DejaVu Sans;font-size:10px;font-style:normal;font-weight:normal;text-anchor:start;" transform="rotate(-0, 94.6, 116.782938)" x="94.6" y="116.782938">Avg. Coins Flipped 2019x*1.3</text>
    </g>
    <g id="line2d_34">
     <path d="M 66.6 127.961063 
L 86.6 127.961063 
" style="fill:none;stroke:#8c564b;stroke-linecap:square;stroke-width:1.5;"/>
    </g>
    <g id="line2d_35"/>
    <g id="text_26">
     <text style="font-family:DejaVu Sans;font-size:10px;font-style:normal;font-weight:normal;text-anchor:start;" transform="rotate(-0, 94.6, 131.461063)" x="94.6" y="131.461063">Avg. Coins Flipped Low-Mean M=0.49999 x*1.3</text>
    </g>
   </g>
  </g>
 </g>
 <defs>
  <clipPath id="pf9da8b50ce">
   <rect height="266.112" width="357.12" x="57.6" y="41.472"/>
  </clipPath>
 </defs>
</svg>
