<svg height="460.8" viewBox="0 0 460.8 345.6" width="614.4" xmlns="http://www.w3.org/2000/svg" xmlns:xlink="http://www.w3.org/1999/xlink"><defs><style>*{stroke-linecap:butt;stroke-linejoin:round}</style></defs><g id="figure_1"><path d="M0 345.6h460.8V0H0z" fill="#fff" id="patch_1"/><g id="axes_1"><path d="M57.6 307.584h357.12V41.472H57.6z" fill="#fff" id="patch_2"/><g id="matplotlib.axis_1"><g id="xtick_1"><g id="line2d_1"><defs><path d="M0 0v3.5" id="m47039b811d" stroke="#000" stroke-width=".8"/></defs><use x="73.767" xlink:href="#m47039b811d" y="307.584" stroke="#000" stroke-width=".8"/></g><text x="73.767" y="322.182" font-family="DejaVu Sans" font-size="10" font-weight="400" text-anchor="middle" id="text_1">0.0</text></g><g id="xtick_2"><use x="139.374" xlink:href="#m47039b811d" y="307.584" stroke="#000" stroke-width=".8" id="line2d_2"/><text x="139.374" y="322.182" font-family="DejaVu Sans" font-size="10" font-weight="400" text-anchor="middle" id="text_2">0.1</text></g><g id="xtick_3"><use x="204.98" xlink:href="#m47039b811d" y="307.584" stroke="#000" stroke-width=".8" id="line2d_3"/><text x="204.98" y="322.182" font-family="DejaVu Sans" font-size="10" font-weight="400" text-anchor="middle" id="text_3">0.2</text></g><g id="xtick_4"><use x="270.587" xlink:href="#m47039b811d" y="307.584" stroke="#000" stroke-width=".8" id="line2d_4"/><text x="270.587" y="322.182" font-family="DejaVu Sans" font-size="10" font-weight="400" text-anchor="middle" id="text_4">0.3</text></g><g id="xtick_5"><use x="336.193" xlink:href="#m47039b811d" y="307.584" stroke="#000" stroke-width=".8" id="line2d_5"/><text x="336.193" y="322.182" font-family="DejaVu Sans" font-size="10" font-weight="400" text-anchor="middle" id="text_5">0.4</text></g><g id="xtick_6"><use x="401.8" xlink:href="#m47039b811d" y="307.584" stroke="#000" stroke-width=".8" id="line2d_6"/><text x="401.8" y="322.182" font-family="DejaVu Sans" font-size="10" font-weight="400" text-anchor="middle" id="text_6">0.5</text></g><text x="236.16" y="335.861" font-family="DejaVu Sans" font-size="10" font-weight="400" text-anchor="middle" id="text_7">Input Coin&apos;s Heads Probability (λ)</text></g><g id="matplotlib.axis_2"><g id="ytick_1"><g id="line2d_7"><defs><path d="M0 0h-3.5" id="m60108ead19" stroke="#000" stroke-width=".8"/></defs><use x="57.6" xlink:href="#m60108ead19" y="299.367" stroke="#000" stroke-width=".8"/></g><text x="50.6" y="303.167" font-family="DejaVu Sans" font-size="10" font-weight="400" text-anchor="end" id="text_8">0</text></g><g id="ytick_2"><use x="57.6" xlink:href="#m60108ead19" y="255.483" stroke="#000" stroke-width=".8" id="line2d_8"/><text x="50.6" y="259.282" font-family="DejaVu Sans" font-size="10" font-weight="400" text-anchor="end" id="text_9">20</text></g><g id="ytick_3"><use x="57.6" xlink:href="#m60108ead19" y="211.599" stroke="#000" stroke-width=".8" id="line2d_9"/><text x="50.6" y="215.398" font-family="DejaVu Sans" font-size="10" font-weight="400" text-anchor="end" id="text_10">40</text></g><g id="ytick_4"><use x="57.6" xlink:href="#m60108ead19" y="167.715" stroke="#000" stroke-width=".8" id="line2d_10"/><text x="50.6" y="171.514" font-family="DejaVu Sans" font-size="10" font-weight="400" text-anchor="end" id="text_11">60</text></g><g id="ytick_5"><use x="57.6" xlink:href="#m60108ead19" y="123.831" stroke="#000" stroke-width=".8" id="line2d_11"/><text x="50.6" y="127.63" font-family="DejaVu Sans" font-size="10" font-weight="400" text-anchor="end" id="text_12">80</text></g><g id="ytick_6"><use x="57.6" xlink:href="#m60108ead19" y="79.947" stroke="#000" stroke-width=".8" id="line2d_12"/><text x="50.6" y="83.746" font-family="DejaVu Sans" font-size="10" font-weight="400" text-anchor="end" id="text_13">100</text></g><text transform="rotate(-90 25.433 174.528)" x="25.433" y="174.528" font-family="DejaVu Sans" font-size="10" font-weight="400" text-anchor="middle" id="text_14">Coin Flips Needed</text></g><path clip-path="url(#p0014eafa50)" d="M73.833 294.979l6.625-.046 6.626-.047 6.626-.05 6.625-.05 6.626-.054 6.625-.056 6.626-.059 6.626-.062 6.625-.064 6.626-.068 6.625-.072 6.626-.075 6.626-.08 6.625-.083 6.626-.089 6.625-.094 6.626-.1 6.626-.106 6.625-.113 6.626-.12 6.625-.13 6.626-.138 6.626-.15 6.625-.16 6.626-.174 6.625-.189 6.626-.205 6.626-.225 6.625-.246 6.626-.272 6.625-.301 6.626-.336 6.626-.376 6.625-.425 6.626-.483 6.625-.555 6.626-.644 6.626-.755 6.625-.9 6.626-1.09 6.625-1.344 6.626-1.705 6.626-2.228 6.625-3.039 6.626-4.389 6.625-6.897 6.626-12.416 6.626-28.97 6.625-144.846" fill="none" stroke="#1f77b4" stroke-linecap="square" stroke-width="1.5" id="line2d_13"/><path clip-path="url(#p0014eafa50)" d="M73.833 281.015l6.625.325 6.626 2.448 6.626-1.974 6.625-.483 6.626 1.36 6.625-2.615 6.626 2.418 6.626-.189 6.625-.57 6.626.316 6.625-.47 6.626.4 6.626 1.189 6.625-4.674 6.626 1.97 6.625-1.21 6.626-1.493 6.626 1.356 6.625 2.225 6.626-2.852 6.625-2.37 6.626.439 6.626 1.242 6.625-1.475 6.626-2.848 6.625 3.59 6.626-3.3 6.626-.044 6.625-1.532 6.626-3.914 6.625 2.198 6.626-3.73 6.626-5.081 6.625-4.854 6.626 4.222 6.625-8.86 6.626-2.252m13.251.492l6.626-1.822 6.625-15.548 6.626-5.788 6.626-1.246 6.625-11.112" fill="none" stroke="#ff7f0e" stroke-linecap="square" stroke-width="1.5" id="line2d_14"/><path clip-path="url(#p0014eafa50)" d="M73.833 272.681l6.625-.425 6.626.4 6.626-.835 6.625.685 6.626-5.385 6.625 1.427 6.626-.36 6.626.776 6.625.413 6.626-2.164 6.625 2.607 6.626-2.251 6.626-4.24 6.625 2.155 6.626-1.65 6.625.843 6.626-1.86 6.626-3.217 6.625-.632 6.626-1.808 6.625 1.65 6.626-3.142 6.626-2.348 6.625-2.111 6.626-2.348 6.625-2.422 6.626-.641 6.626 3.857 6.625-8.412 6.626-5.648 6.625 4.67 6.626-6.245 6.626-1.576 6.625-.772 6.626-11.709 6.625-9.202m13.252 9.058l6.625-23.395m13.251-13.284" fill="none" stroke="#2ca02c" stroke-linecap="square" stroke-width="1.5" id="line2d_15"/><path clip-path="url(#p0014eafa50)" d="M73.833 295.488l6.625-1.966 6.626 1.08 6.626-1.124 6.625.492 6.626-1.91 6.625-.127 6.626-.43 6.626-.096 6.625-1.067 6.626.593 6.625-.356 6.626-1.32 6.626-1.264 6.625-.988 6.626-1.773 6.625-.188 6.626-3.103 6.626-1.865 6.625-.435 6.626-5.296 6.625-1.405 6.626.145 6.626-5.05 6.625-11.314" fill="none" stroke="#d62728" stroke-linecap="square" stroke-width="1.5" id="line2d_16"/><path clip-path="url(#p0014eafa50)" d="M73.833 285.684l6.625.597 6.626.259 6.626.307 6.625-.504 6.626.324 6.625-4.344 6.626-.075 6.626.255 6.625-.229 6.626 1.282 6.625-.878 6.626-1.044 6.626-.119 6.625 1.927 6.626-6.24 6.625 1.544 6.626-6.17 6.626 5.06 6.625-.435 6.626-3.12 6.625-.355 6.626-3.155m19.877 1.421l6.625-2.532 6.626-.364m26.502-10.045l6.626-6.969m19.877 3.243l6.625-19.985 6.626 1.94m19.877-16.492" fill="none" stroke="#9467bd" stroke-linecap="square" stroke-width="1.5" id="line2d_17"/><path clip-path="url(#p0014eafa50)" d="M80.458 53.568l6.626 100.863 6.626 41.124 6.625 14.052 6.626 15.18 6.625 6.854 6.626 6.267 6.626.105 6.625 4.915 6.626 2.62 6.625 4.318 6.626.057 6.626.988 6.625 1.474 6.626-2.295 6.625 4.788 6.626 2.264 6.626-.254 6.625-4.297 6.626 4.498 6.625-3.265 6.626 5.876m13.251-2.685" fill="none" stroke="#8c564b" stroke-linecap="square" stroke-width="1.5" id="line2d_18"/><path d="M57.6 307.584V41.472" fill="none" stroke="#000" stroke-linecap="square" stroke-width=".8" id="patch_3"/><path d="M414.72 307.584V41.472" fill="none" stroke="#000" stroke-linecap="square" stroke-width=".8" id="patch_4"/><path d="M57.6 307.584h357.12" fill="none" stroke="#000" stroke-linecap="square" stroke-width=".8" id="patch_5"/><path d="M57.6 41.472h357.12" fill="none" stroke="#000" stroke-linecap="square" stroke-width=".8" id="patch_6"/><text x="236.16" y="35.472" font-family="DejaVu Sans" font-size="12" font-weight="400" text-anchor="middle" id="text_15">Coin Flips for 2014 Lin. x*2.0</text><g id="legend_1"><path d="M101.533 137.54h269.254q2 0 2-2V48.473q0-2-2-2H101.533q-2 0-2 2v87.069q0 2 2 2z" fill="#fff" opacity=".8" stroke="#ccc" id="patch_7"/><path d="M103.533 54.57h20" fill="none" stroke="#1f77b4" stroke-linecap="square" stroke-width="1.5" id="line2d_19"/><text x="131.533" y="58.07" font-family="DejaVu Sans" font-size="10" font-weight="400" id="text_16">Coin Flip Lower Bound</text><path d="M103.533 69.249h20" fill="none" stroke="#ff7f0e" stroke-linecap="square" stroke-width="1.5" id="line2d_21"/><text x="131.533" y="72.749" font-family="DejaVu Sans" font-size="10" font-weight="400" id="text_17">Avg. Coins Flipped 2014 Lin. x*2.0</text><path d="M103.533 83.927h20" fill="none" stroke="#2ca02c" stroke-linecap="square" stroke-width="1.5" id="line2d_23"/><text x="131.533" y="87.427" font-family="DejaVu Sans" font-size="10" font-weight="400" id="text_18">Avg. Coins Flipped 2016 Lin. x*2.0</text><path d="M103.533 98.605h20" fill="none" stroke="#d62728" stroke-linecap="square" stroke-width="1.5" id="line2d_25"/><text x="131.533" y="102.105" font-family="DejaVu Sans" font-size="10" font-weight="400" id="text_19">Avg. Coins Flipped Low-Mean Lin. x*2.0</text><path d="M103.533 113.283h20" fill="none" stroke="#9467bd" stroke-linecap="square" stroke-width="1.5" id="line2d_27"/><text x="131.533" y="116.783" font-family="DejaVu Sans" font-size="10" font-weight="400" id="text_20">Avg. Coins Flipped 2019x*2.0</text><path d="M103.533 127.961h20" fill="none" stroke="#8c564b" stroke-linecap="square" stroke-width="1.5" id="line2d_29"/><text x="131.533" y="131.461" font-family="DejaVu Sans" font-size="10" font-weight="400" id="text_21">Avg. Coins Flipped Low-Mean M=0.49999 x*2.0</text></g></g></g><defs><clipPath id="p0014eafa50"><path d="M57.6 41.472h357.12v266.112H57.6z"/></clipPath></defs></svg>