<?xml version="1.0" encoding="utf-8" standalone="no"?>
<!DOCTYPE svg PUBLIC "-//W3C//DTD SVG 1.1//EN"
  "http://www.w3.org/Graphics/SVG/1.1/DTD/svg11.dtd">
<!-- Created with matplotlib (https://matplotlib.org/) -->
<svg height="345.6pt" version="1.1" viewBox="0 0 460.8 345.6" width="460.8pt" xmlns="http://www.w3.org/2000/svg" xmlns:xlink="http://www.w3.org/1999/xlink">
 <defs>
  <style type="text/css">
*{stroke-linecap:butt;stroke-linejoin:round;}
  </style>
 </defs>
 <g id="figure_1">
  <g id="patch_1">
   <path d="M 0 345.6 
L 460.8 345.6 
L 460.8 0 
L 0 0 
z
" style="fill:#ffffff;"/>
  </g>
  <g id="axes_1">
   <g id="patch_2">
    <path d="M 57.6 307.584 
L 414.72 307.584 
L 414.72 41.472 
L 57.6 41.472 
z
" style="fill:#ffffff;"/>
   </g>
   <g id="matplotlib.axis_1">
    <g id="xtick_1">
     <g id="line2d_1">
      <defs>
       <path d="M 0 0 
L 0 3.5 
" id="m38617e032d" style="stroke:#000000;stroke-width:0.8;"/>
      </defs>
      <g>
       <use style="stroke:#000000;stroke-width:0.8;" x="73.767121" xlink:href="#m38617e032d" y="307.584"/>
      </g>
     </g>
     <g id="text_1">
      <text style="font-family:DejaVu Sans;font-size:10px;font-style:normal;font-weight:normal;text-anchor:middle;" transform="rotate(-0, 73.767121, 322.182437)" x="73.767121" y="322.182437">0.0</text>
     </g>
    </g>
    <g id="xtick_2">
     <g id="line2d_2">
      <g>
       <use style="stroke:#000000;stroke-width:0.8;" x="139.373711" xlink:href="#m38617e032d" y="307.584"/>
      </g>
     </g>
     <g id="text_2">
      <text style="font-family:DejaVu Sans;font-size:10px;font-style:normal;font-weight:normal;text-anchor:middle;" transform="rotate(-0, 139.373711, 322.182437)" x="139.373711" y="322.182437">0.1</text>
     </g>
    </g>
    <g id="xtick_3">
     <g id="line2d_3">
      <g>
       <use style="stroke:#000000;stroke-width:0.8;" x="204.980302" xlink:href="#m38617e032d" y="307.584"/>
      </g>
     </g>
     <g id="text_3">
      <text style="font-family:DejaVu Sans;font-size:10px;font-style:normal;font-weight:normal;text-anchor:middle;" transform="rotate(-0, 204.980302, 322.182437)" x="204.980302" y="322.182437">0.2</text>
     </g>
    </g>
    <g id="xtick_4">
     <g id="line2d_4">
      <g>
       <use style="stroke:#000000;stroke-width:0.8;" x="270.586893" xlink:href="#m38617e032d" y="307.584"/>
      </g>
     </g>
     <g id="text_4">
      <text style="font-family:DejaVu Sans;font-size:10px;font-style:normal;font-weight:normal;text-anchor:middle;" transform="rotate(-0, 270.586893, 322.182437)" x="270.586893" y="322.182437">0.3</text>
     </g>
    </g>
    <g id="xtick_5">
     <g id="line2d_5">
      <g>
       <use style="stroke:#000000;stroke-width:0.8;" x="336.193484" xlink:href="#m38617e032d" y="307.584"/>
      </g>
     </g>
     <g id="text_5">
      <text style="font-family:DejaVu Sans;font-size:10px;font-style:normal;font-weight:normal;text-anchor:middle;" transform="rotate(-0, 336.193484, 322.182437)" x="336.193484" y="322.182437">0.4</text>
     </g>
    </g>
    <g id="xtick_6">
     <g id="line2d_6">
      <g>
       <use style="stroke:#000000;stroke-width:0.8;" x="401.800074" xlink:href="#m38617e032d" y="307.584"/>
      </g>
     </g>
     <g id="text_6">
      <text style="font-family:DejaVu Sans;font-size:10px;font-style:normal;font-weight:normal;text-anchor:middle;" transform="rotate(-0, 401.800074, 322.182437)" x="401.800074" y="322.182437">0.5</text>
     </g>
    </g>
    <g id="text_7">
     <text style="font-family:DejaVu Sans;font-size:10px;font-style:normal;font-weight:normal;text-anchor:middle;" transform="rotate(-0, 236.16, 335.860562)" x="236.16" y="335.860562">Input Coin's Heads Probability (λ)</text>
    </g>
   </g>
   <g id="matplotlib.axis_2">
    <g id="ytick_1">
     <g id="line2d_7">
      <defs>
       <path d="M 0 0 
L -3.5 0 
" id="m3c7b737345" style="stroke:#000000;stroke-width:0.8;"/>
      </defs>
      <g>
       <use style="stroke:#000000;stroke-width:0.8;" x="57.6" xlink:href="#m3c7b737345" y="295.488"/>
      </g>
     </g>
     <g id="text_8">
      <text style="font-family:DejaVu Sans;font-size:10px;font-style:normal;font-weight:normal;text-anchor:end;" transform="rotate(-0, 50.6, 299.287219)" x="50.6" y="299.287219">0.0</text>
     </g>
    </g>
    <g id="ytick_2">
     <g id="line2d_8">
      <g>
       <use style="stroke:#000000;stroke-width:0.8;" x="57.6" xlink:href="#m3c7b737345" y="246.713806"/>
      </g>
     </g>
     <g id="text_9">
      <text style="font-family:DejaVu Sans;font-size:10px;font-style:normal;font-weight:normal;text-anchor:end;" transform="rotate(-0, 50.6, 250.513025)" x="50.6" y="250.513025">0.2</text>
     </g>
    </g>
    <g id="ytick_3">
     <g id="line2d_9">
      <g>
       <use style="stroke:#000000;stroke-width:0.8;" x="57.6" xlink:href="#m3c7b737345" y="197.939613"/>
      </g>
     </g>
     <g id="text_10">
      <text style="font-family:DejaVu Sans;font-size:10px;font-style:normal;font-weight:normal;text-anchor:end;" transform="rotate(-0, 50.6, 201.738832)" x="50.6" y="201.738832">0.4</text>
     </g>
    </g>
    <g id="ytick_4">
     <g id="line2d_10">
      <g>
       <use style="stroke:#000000;stroke-width:0.8;" x="57.6" xlink:href="#m3c7b737345" y="149.165419"/>
      </g>
     </g>
     <g id="text_11">
      <text style="font-family:DejaVu Sans;font-size:10px;font-style:normal;font-weight:normal;text-anchor:end;" transform="rotate(-0, 50.6, 152.964638)" x="50.6" y="152.964638">0.6</text>
     </g>
    </g>
    <g id="ytick_5">
     <g id="line2d_11">
      <g>
       <use style="stroke:#000000;stroke-width:0.8;" x="57.6" xlink:href="#m3c7b737345" y="100.391226"/>
      </g>
     </g>
     <g id="text_12">
      <text style="font-family:DejaVu Sans;font-size:10px;font-style:normal;font-weight:normal;text-anchor:end;" transform="rotate(-0, 50.6, 104.190445)" x="50.6" y="104.190445">0.8</text>
     </g>
    </g>
    <g id="ytick_6">
     <g id="line2d_12">
      <g>
       <use style="stroke:#000000;stroke-width:0.8;" x="57.6" xlink:href="#m3c7b737345" y="51.617032"/>
      </g>
     </g>
     <g id="text_13">
      <text style="font-family:DejaVu Sans;font-size:10px;font-style:normal;font-weight:normal;text-anchor:end;" transform="rotate(-0, 50.6, 55.416251)" x="50.6" y="55.416251">1.0</text>
     </g>
    </g>
    <g id="text_14">
     <text style="font-family:DejaVu Sans;font-size:10px;font-style:normal;font-weight:normal;text-anchor:middle;" transform="rotate(-90, 28.617187, 174.528)" x="28.617187" y="174.528">Simulated Mean / Function Value</text>
    </g>
   </g>
   <g id="line2d_13">
    <path clip-path="url(#pfaf7443162)" d="M 73.832727 295.439226 
L 80.45833 290.513525 
L 87.083933 285.587824 
L 93.709536 280.662123 
L 100.335139 275.736422 
L 106.960742 270.810721 
L 113.586345 265.885021 
L 120.211948 260.95932 
L 126.837551 256.033619 
L 133.463154 251.107918 
L 140.088757 246.182217 
L 146.71436 241.256516 
L 153.339963 236.330815 
L 159.965566 231.405114 
L 166.591169 226.479413 
L 173.216772 221.553713 
L 179.842375 216.628012 
L 186.467978 211.702311 
L 193.093581 206.77661 
L 199.719184 201.850909 
L 206.344787 196.925208 
L 212.97039 191.999507 
L 219.595993 187.073806 
L 226.221596 182.148106 
L 232.847199 177.222405 
L 239.472801 172.296704 
L 246.098404 167.371003 
L 252.724007 162.445302 
L 259.34961 157.519601 
L 265.975213 152.5939 
L 272.600816 147.668199 
L 279.226419 142.742499 
L 285.852022 137.816798 
L 292.477625 132.891097 
L 299.103228 127.965396 
L 305.728831 123.039695 
L 312.354434 118.113994 
L 318.980037 113.188293 
L 325.60564 108.262592 
L 332.231243 103.336891 
L 338.856846 98.411191 
L 345.482449 93.48549 
L 352.108052 88.559789 
L 358.733655 83.634088 
L 365.359258 78.708387 
L 371.984861 73.782686 
L 378.610464 68.856985 
L 385.236067 63.931284 
L 391.86167 59.005584 
L 398.487273 54.079883 
" style="fill:none;stroke:#1f77b4;stroke-linecap:square;stroke-width:1.5;"/>
   </g>
   <g id="line2d_14">
    <path clip-path="url(#pfaf7443162)" d="M 73.832727 295.488 
L 80.45833 293.537032 
L 87.083933 282.80671 
L 93.709536 279.880258 
L 100.335139 271.588645 
L 106.960742 271.100903 
L 113.586345 261.346065 
L 120.211948 262.321548 
L 126.837551 254.517677 
L 133.463154 255.493161 
L 140.088757 239.885419 
L 146.71436 241.348645 
L 153.339963 238.909935 
L 159.965566 226.716387 
L 166.591169 233.544774 
L 173.216772 218.912516 
L 179.842375 218.424774 
L 186.467978 212.084129 
L 193.093581 206.718968 
L 199.719184 200.866065 
L 206.344787 194.037677 
L 212.97039 186.233806 
L 219.595993 183.307355 
L 226.221596 172.08929 
L 232.847199 183.307355 
L 239.472801 175.991226 
L 246.098404 173.064774 
L 252.724007 167.699613 
L 259.34961 157.457032 
L 265.975213 155.506065 
L 272.600816 147.214452 
L 279.226419 138.922839 
L 285.852022 134.045419 
L 292.477625 128.192516 
L 299.103228 131.60671 
L 305.728831 118.925419 
L 312.354434 120.876387 
L 318.980037 110.633806 
L 325.60564 106.244129 
L 332.231243 104.293161 
L 338.856846 105.268645 
L 345.482449 91.124129 
L 352.108052 90.636387 
L 358.733655 81.36929 
L 365.359258 82.832516 
L 371.984861 71.614452 
L 378.610464 69.663484 
L 385.236067 64.298323 
L 391.86167 58.933161 
L 398.487273 53.568 
" style="fill:none;stroke:#ff7f0e;stroke-linecap:square;stroke-width:1.5;"/>
   </g>
   <g id="line2d_15">
    <path clip-path="url(#pfaf7443162)" d="M 73.832727 295.488 
L 80.45833 291.586065 
L 87.083933 287.684129 
L 93.709536 281.343484 
L 100.335139 272.564129 
L 106.960742 273.539613 
L 113.586345 260.858323 
L 120.211948 264.272516 
L 126.837551 264.272516 
L 133.463154 255.005419 
L 140.088757 238.422194 
L 146.71436 236.958968 
L 153.339963 228.667355 
L 159.965566 225.253161 
L 166.591169 224.277677 
L 173.216772 223.789935 
L 179.842375 217.44929 
L 186.467978 212.571871 
L 193.093581 204.768 
L 199.719184 206.718968 
L 206.344787 195.988645 
L 212.97039 203.304774 
L 219.595993 187.697032 
L 226.221596 184.770581 
L 232.847199 171.601548 
L 239.472801 176.96671 
L 246.098404 171.113806 
L 252.724007 166.724129 
L 259.34961 151.604129 
L 265.975213 150.140903 
L 272.600816 148.677677 
L 279.226419 143.312516 
L 285.852022 144.288 
L 292.477625 133.069935 
L 299.103228 130.143484 
L 305.728831 121.851871 
L 312.354434 110.146065 
L 318.980037 114.535742 
L 325.60564 107.219613 
L 332.231243 104.293161 
L 338.856846 99.903484 
L 345.482449 98.928 
L 352.108052 87.222194 
L 358.733655 85.271226 
L 365.359258 76.979613 
L 371.984861 74.540903 
L 378.610464 68.200258 
L 385.236067 62.835097 
L 391.86167 59.908645 
L 398.487273 55.518968 
" style="fill:none;stroke:#2ca02c;stroke-linecap:square;stroke-width:1.5;"/>
   </g>
   <g id="line2d_16">
    <path clip-path="url(#pfaf7443162)" d="M 73.832727 295.488 
L 80.45833 287.684129 
L 87.083933 286.708645 
L 93.709536 276.466065 
L 100.335139 279.392516 
L 106.960742 274.515097 
L 113.586345 269.149935 
L 120.211948 259.395097 
L 126.837551 252.56671 
L 133.463154 247.68929 
L 140.088757 250.615742 
L 146.71436 239.397677 
L 153.339963 234.032516 
L 159.965566 229.155097 
L 166.591169 224.765419 
L 173.216772 212.084129 
L 179.842375 215.010581 
L 186.467978 210.133161 
L 193.093581 195.988645 
L 199.719184 198.915097 
L 206.344787 198.427355 
L 212.97039 192.08671 
L 219.595993 185.258323 
L 226.221596 179.405419 
L 232.847199 179.893161 
" style="fill:none;stroke:#d62728;stroke-linecap:square;stroke-width:1.5;"/>
   </g>
   <g id="line2d_17">
    <path clip-path="url(#pfaf7443162)" d="M 73.832727 295.488 
L 80.45833 293.04929 
L 87.083933 288.171871 
L 93.709536 282.80671 
L 100.335139 271.588645 
L 106.960742 272.564129 
L 113.586345 258.907355 
L 120.211948 260.370581 
L 126.837551 254.517677 
L 133.463154 252.56671 
L 140.088757 246.226065 
L 146.71436 236.471226 
L 153.339963 237.44671 
L 159.965566 234.032516 
L 166.591169 226.716387 
L 173.216772 221.351226 
L 179.842375 227.204129 
L 186.467978 210.133161 
L 193.093581 202.32929 
L 199.719184 206.718968 
L 206.344787 191.598968 
L 212.97039 192.574452 
L 219.595993 188.184774 
L 226.221596 181.844129 
L 232.847199 181.356387 
L 239.472801 175.503484 
L 246.098404 183.307355 
L 252.724007 154.042839 
L 259.34961 148.189935 
L 265.975213 146.238968 
L 272.600816 136.971871 
L 279.226419 142.824774 
L 285.852022 131.118968 
L 292.477625 129.655742 
L 299.103228 127.704774 
L 305.728831 123.315097 
L 312.354434 110.146065 
L 318.980037 113.072516 
L 325.60564 115.511226 
L 332.231243 109.170581 
L 338.856846 101.854452 
L 345.482449 89.173161 
L 352.108052 88.685419 
L 358.733655 80.881548 
L 365.359258 78.930581 
L 371.984861 71.614452 
L 378.610464 68.200258 
L 385.236067 67.712516 
L 391.86167 59.908645 
L 398.487273 54.543484 
" style="fill:none;stroke:#9467bd;stroke-linecap:square;stroke-width:1.5;"/>
   </g>
   <g id="line2d_18">
    <path clip-path="url(#pfaf7443162)" d="M 73.832727 295.488 
L 80.45833 293.04929 
L 87.083933 287.684129 
L 93.709536 276.466065 
L 100.335139 273.539613 
L 106.960742 269.149935 
L 113.586345 260.370581 
L 120.211948 264.760258 
L 126.837551 249.640258 
L 133.463154 254.029935 
L 140.088757 248.177032 
L 146.71436 235.983484 
L 153.339963 231.106065 
L 159.965566 241.348645 
L 166.591169 227.204129 
L 173.216772 222.32671 
L 179.842375 221.838968 
L 186.467978 216.473806 
L 193.093581 204.280258 
L 199.719184 196.964129 
L 206.344787 196.964129 
L 212.97039 188.672516 
L 219.595993 181.844129 
L 226.221596 191.598968 
L 232.847199 182.819613 
" style="fill:none;stroke:#8c564b;stroke-linecap:square;stroke-width:1.5;"/>
   </g>
   <g id="patch_3">
    <path d="M 57.6 307.584 
L 57.6 41.472 
" style="fill:none;stroke:#000000;stroke-linecap:square;stroke-linejoin:miter;stroke-width:0.8;"/>
   </g>
   <g id="patch_4">
    <path d="M 414.72 307.584 
L 414.72 41.472 
" style="fill:none;stroke:#000000;stroke-linecap:square;stroke-linejoin:miter;stroke-width:0.8;"/>
   </g>
   <g id="patch_5">
    <path d="M 57.6 307.584 
L 414.72 307.584 
" style="fill:none;stroke:#000000;stroke-linecap:square;stroke-linejoin:miter;stroke-width:0.8;"/>
   </g>
   <g id="patch_6">
    <path d="M 57.6 41.472 
L 414.72 41.472 
" style="fill:none;stroke:#000000;stroke-linecap:square;stroke-linejoin:miter;stroke-width:0.8;"/>
   </g>
   <g id="text_15">
    <text style="font-family:DejaVu Sans;font-size:12px;font-style:normal;font-weight:normal;" transform="translate(184.459688 22.034625)">Simulated Means</text>
    <text style="font-family:DejaVu Sans;font-size:12px;font-style:normal;font-weight:normal;" transform="translate(132.609375 35.472)">(Wasserstein Distances in Legend)</text>
   </g>
   <g id="legend_1">
    <g id="patch_7">
     <path d="M 71.387188 137.54075 
L 407.72 137.54075 
Q 409.72 137.54075 409.72 135.54075 
L 409.72 48.472 
Q 409.72 46.472 407.72 46.472 
L 71.387188 46.472 
Q 69.387188 46.472 69.387188 48.472 
L 69.387188 135.54075 
Q 69.387188 137.54075 71.387188 137.54075 
z
" style="fill:#ffffff;opacity:0.8;stroke:#cccccc;stroke-linejoin:miter;"/>
    </g>
    <g id="line2d_19">
     <path d="M 73.387188 54.570438 
L 93.387188 54.570438 
" style="fill:none;stroke:#1f77b4;stroke-linecap:square;stroke-width:1.5;"/>
    </g>
    <g id="line2d_20"/>
    <g id="text_16">
     <text style="font-family:DejaVu Sans;font-size:10px;font-style:normal;font-weight:normal;text-anchor:start;" transform="rotate(-0, 101.387188, 58.070438)" x="101.387188" y="58.070438">x*2.0</text>
    </g>
    <g id="line2d_21">
     <path d="M 73.387188 69.248563 
L 93.387188 69.248563 
" style="fill:none;stroke:#ff7f0e;stroke-linecap:square;stroke-width:1.5;"/>
    </g>
    <g id="line2d_22"/>
    <g id="text_17">
     <text style="font-family:DejaVu Sans;font-size:10px;font-style:normal;font-weight:normal;text-anchor:start;" transform="rotate(-0, 101.387188, 72.748563)" x="101.387188" y="72.748563">Simul. Mean of 2014 Lin. x*2.0 (WD=0.008305)</text>
    </g>
    <g id="line2d_23">
     <path d="M 73.387188 83.926688 
L 93.387188 83.926688 
" style="fill:none;stroke:#2ca02c;stroke-linecap:square;stroke-width:1.5;"/>
    </g>
    <g id="line2d_24"/>
    <g id="text_18">
     <text style="font-family:DejaVu Sans;font-size:10px;font-style:normal;font-weight:normal;text-anchor:start;" transform="rotate(-0, 101.387188, 87.426688)" x="101.387188" y="87.426688">Simul. Mean of 2016 Lin. x*2.0 (WD=0.010180)</text>
    </g>
    <g id="line2d_25">
     <path d="M 73.387188 98.604813 
L 93.387188 98.604813 
" style="fill:none;stroke:#d62728;stroke-linecap:square;stroke-width:1.5;"/>
    </g>
    <g id="line2d_26"/>
    <g id="text_19">
     <text style="font-family:DejaVu Sans;font-size:10px;font-style:normal;font-weight:normal;text-anchor:start;" transform="rotate(-0, 101.387188, 102.104813)" x="101.387188" y="102.104813">Simul. Mean of Low-Mean Lin. x*2.0 (WD=0.009733)</text>
    </g>
    <g id="line2d_27">
     <path d="M 73.387188 113.282938 
L 93.387188 113.282938 
" style="fill:none;stroke:#9467bd;stroke-linecap:square;stroke-width:1.5;"/>
    </g>
    <g id="line2d_28"/>
    <g id="text_20">
     <text style="font-family:DejaVu Sans;font-size:10px;font-style:normal;font-weight:normal;text-anchor:start;" transform="rotate(-0, 101.387188, 116.782938)" x="101.387188" y="116.782938">Simul. Mean of 2019x*2.0 (WD=0.011843)</text>
    </g>
    <g id="line2d_29">
     <path d="M 73.387188 127.961063 
L 93.387188 127.961063 
" style="fill:none;stroke:#8c564b;stroke-linecap:square;stroke-width:1.5;"/>
    </g>
    <g id="line2d_30"/>
    <g id="text_21">
     <text style="font-family:DejaVu Sans;font-size:10px;font-style:normal;font-weight:normal;text-anchor:start;" transform="rotate(-0, 101.387188, 131.461063)" x="101.387188" y="131.461063">Simul. Mean of Low-Mean M=0.49999 x*2.0 (WD=0.007684)</text>
    </g>
   </g>
  </g>
 </g>
 <defs>
  <clipPath id="pfaf7443162">
   <rect height="266.112" width="357.12" x="57.6" y="41.472"/>
  </clipPath>
 </defs>
</svg>
