<svg height="460.8" viewBox="0 0 460.8 345.6" width="614.4" xmlns="http://www.w3.org/2000/svg" xmlns:xlink="http://www.w3.org/1999/xlink"><defs><style>*{stroke-linecap:butt;stroke-linejoin:round}</style></defs><g id="figure_1"><path d="M0 345.6h460.8V0H0z" fill="#fff" id="patch_1"/><g id="axes_1"><path d="M57.6 307.584h357.12V41.472H57.6z" fill="#fff" id="patch_2"/><g id="matplotlib.axis_1"><g id="xtick_1"><g id="line2d_1"><defs><path d="M0 0v3.5" id="m3fb06e0fe8" stroke="#000" stroke-width=".8"/></defs><use x="109.56" xlink:href="#m3fb06e0fe8" y="307.584" stroke="#000" stroke-width=".8"/></g><text x="109.56" y="322.182" font-family="DejaVu Sans" font-size="10" font-weight="400" text-anchor="middle" id="text_1">0.2</text></g><g id="xtick_2"><use x="181.8" xlink:href="#m3fb06e0fe8" y="307.584" stroke="#000" stroke-width=".8" id="line2d_2"/><text x="181.8" y="322.182" font-family="DejaVu Sans" font-size="10" font-weight="400" text-anchor="middle" id="text_2">0.4</text></g><g id="xtick_3"><use x="254.041" xlink:href="#m3fb06e0fe8" y="307.584" stroke="#000" stroke-width=".8" id="line2d_3"/><text x="254.041" y="322.182" font-family="DejaVu Sans" font-size="10" font-weight="400" text-anchor="middle" id="text_3">0.6</text></g><g id="xtick_4"><use x="326.282" xlink:href="#m3fb06e0fe8" y="307.584" stroke="#000" stroke-width=".8" id="line2d_4"/><text x="326.282" y="322.182" font-family="DejaVu Sans" font-size="10" font-weight="400" text-anchor="middle" id="text_4">0.8</text></g><g id="xtick_5"><use x="398.523" xlink:href="#m3fb06e0fe8" y="307.584" stroke="#000" stroke-width=".8" id="line2d_5"/><text x="398.523" y="322.182" font-family="DejaVu Sans" font-size="10" font-weight="400" text-anchor="middle" id="text_5">1.0</text></g><text x="236.16" y="335.861" font-family="DejaVu Sans" font-size="10" font-weight="400" text-anchor="middle" id="text_6">Input Coin&apos;s Heads Probability (λ)</text></g><g id="matplotlib.axis_2"><g id="ytick_1"><g id="line2d_6"><defs><path d="M0 0h-3.5" id="m5b89107629" stroke="#000" stroke-width=".8"/></defs><use x="57.6" xlink:href="#m5b89107629" y="295.491" stroke="#000" stroke-width=".8"/></g><text x="50.6" y="299.29" font-family="DejaVu Sans" font-size="10" font-weight="400" text-anchor="end" id="text_7">0</text></g><g id="ytick_2"><use x="57.6" xlink:href="#m5b89107629" y="237.522" stroke="#000" stroke-width=".8" id="line2d_7"/><text x="50.6" y="241.321" font-family="DejaVu Sans" font-size="10" font-weight="400" text-anchor="end" id="text_8">20</text></g><g id="ytick_3"><use x="57.6" xlink:href="#m5b89107629" y="179.553" stroke="#000" stroke-width=".8" id="line2d_8"/><text x="50.6" y="183.352" font-family="DejaVu Sans" font-size="10" font-weight="400" text-anchor="end" id="text_9">40</text></g><g id="ytick_4"><use x="57.6" xlink:href="#m5b89107629" y="121.584" stroke="#000" stroke-width=".8" id="line2d_9"/><text x="50.6" y="125.383" font-family="DejaVu Sans" font-size="10" font-weight="400" text-anchor="end" id="text_10">60</text></g><g id="ytick_5"><use x="57.6" xlink:href="#m5b89107629" y="63.615" stroke="#000" stroke-width=".8" id="line2d_10"/><text x="50.6" y="67.414" font-family="DejaVu Sans" font-size="10" font-weight="400" text-anchor="end" id="text_11">80</text></g><text transform="rotate(-90 31.795 174.528)" x="31.795" y="174.528" font-family="DejaVu Sans" font-size="10" font-weight="400" text-anchor="middle" id="text_12">Coin Flips Needed</text></g><path clip-path="url(#pfec6cc6711)" d="M73.833 53.568l3.648 216.033 3.647 11.064 3.648 3.946 3.648 2.026 3.648 1.235 3.648.832 3.647.598 3.648.452 3.648.354 3.648.284 3.648.234 3.647.197 3.648.167 3.648.144 3.648.125 3.648.111 3.647.098 3.648.088 3.648.08 3.648.072 3.648.066 3.647.06 3.648.057 3.648.052 3.648.048 3.648.045 3.647.043 3.648.04 3.648.038 3.648.036 3.648.034 3.647.033 3.648.032 3.648.03 3.648.029 3.648.028 3.647.028 3.648.026 3.648.026 3.648.026 3.648.025 3.647.024 3.648.024 3.648.024 3.648.024 3.648.023 3.648.024 3.647.023 3.648.023 3.648.024 3.648.023 3.648.024 3.647.024 3.648.024 3.648.025 3.648.025 3.648.026 3.647.026 3.648.027 3.648.027 3.648.029 3.648.03 3.647.03 3.648.031 3.648.033 3.648.034 3.648.036 3.647.038 3.648.04 3.648.041 3.648.045 3.648.047 3.647.05 3.648.053 3.648.058 3.648.062 3.648.068 3.647.073 3.648.08 3.648.088 3.648.097 3.648.108 3.647.121 3.648.137 3.648.156 3.648.179 3.648.209 3.647.246 3.648.295" fill="none" stroke="#1f77b4" stroke-linecap="square" stroke-width="1.5" id="line2d_11"/><path clip-path="url(#pfec6cc6711)" d="M139.493 227.917l3.648-19.849 3.648 29.06 3.648-7.75 3.647 17.558m7.296-21.82l3.648 7.212m10.943 17.756l3.648-2.406 3.648 8.244 3.648-8.168 3.647 6.423 3.648-5.189 3.648-.707m7.296 5.646l3.647-1.17 3.648 6.956 3.648-6.991 3.648 6.197 3.648-6.163 3.647 5.305 3.648 4.365 3.648-2.725 3.648 1.565 3.648 1.513 3.648-.324 3.647-5.687 3.648 9.582 3.648-5.321 3.648 2.48 3.648 1.172 3.647.846 3.648.487 3.648.87 3.648-1.293 3.648 5.136 3.647-2.081 3.648-7.484 3.648 8.22 3.648-1.252 3.648-.11 3.647 3.06 3.648.058 3.648-1.773 3.648-2.116 3.648 4.55 3.647-.713 3.648-6.162 3.648 4.725 3.648 1.455 3.648-1.409 3.647 2.643 3.648-1.42 3.648 1.113 3.648 1.838 3.648-.806 3.647-3.356 3.648.145 3.648 4.452 3.648-1.177m7.295-.974l3.648-3.391 3.648 2.359 3.648 1.374 3.648-.713 3.647-2.29 3.648 2.829" fill="none" stroke="#ff7f0e" stroke-linecap="square" stroke-width="1.5" id="line2d_12"/><path clip-path="url(#pfec6cc6711)" d="M150.437 161.652l3.647-29.68m7.296 27.1l3.648-1.97m7.295 29.402l3.648 5.1 3.648-12.712 3.648 26.312 3.648-8.121 3.647 9.576 3.648-7.947 3.648.493 3.648 13.524 3.648-5.501 3.647 4.985 3.648-4.464 3.648 18.36 3.648-15.38 3.648 1.455 3.647 10.631 3.648 2.279 3.648 1.2 3.648 7.605 3.648-3.264 3.648 6.783 3.647-5.333 3.648-1.658 3.648 4.446 3.648.725 3.648 5.698 3.647-8.011 3.648 2.475 3.648-.174 3.648 6.232 3.648 4.052 3.647-3.664 3.648.591 3.648.03 3.648 5.332 3.648-5.507 3.647.974 3.648 4.84 3.648 1.45 3.648-.122 3.648 3.316 3.647-3.09 3.648-5.6 3.648 4.893 3.648-1.56 3.648 3.23 3.647-2.667 3.648 2.452 3.648 2.197 3.648.754 3.648-.099 3.647 5.391 3.648-3.617 3.648.22 3.648.116 3.648-1.223 3.647 2.817 3.648-2.005 3.648-1.687 3.648.835 3.648.214 3.647 2 3.648-.707" fill="none" stroke="#2ca02c" stroke-linecap="square" stroke-width="1.5" id="line2d_13"/><path clip-path="url(#pfec6cc6711)" d="M161.38000000000002 212.56l3.648 5.78 3.648-.353m14.59 10.631l3.649 1.432m10.943 9.56l3.648-10.476m7.295 8.678l3.648 9.223 3.648 1.455 3.648-2.626m7.295 5.68l3.648.117 3.648 2.974 3.648 1.27 3.648-1.879 3.648 1.229m7.295 1.2l3.648.394 3.648 4.65m7.295-1.705l3.648.939 3.648-1.223 3.648 2.66 3.648.493 3.647.84 3.648.975 3.648 1.872 3.648-2.939 3.648 5.165 3.647-1.901 3.648 2.035 3.648.243 3.648-.985 3.648.492 3.647.4 3.648-1.003 3.648-.121 3.648 5.704 3.648-.035 3.647-1.368 3.648 2.04 3.648-1.449 3.648-.214 3.648-.406 3.647.8 3.648-.15 3.648 1.425 3.648.389 3.648-1.803 3.647.73 3.648-.51 3.648.475 3.648-1.095 3.648.811 3.647 6.162 3.648.03" fill="none" stroke="#d62728" stroke-linecap="square" stroke-width="1.5" id="line2d_14"/><path d="M57.6 307.584V41.472" fill="none" stroke="#000" stroke-linecap="square" stroke-width=".8" id="patch_3"/><path d="M414.72 307.584V41.472" fill="none" stroke="#000" stroke-linecap="square" stroke-width=".8" id="patch_4"/><path d="M57.6 307.584h357.12" fill="none" stroke="#000" stroke-linecap="square" stroke-width=".8" id="patch_5"/><path d="M57.6 41.472h357.12" fill="none" stroke="#000" stroke-linecap="square" stroke-width=".8" id="patch_6"/><text x="236.16" y="35.472" font-family="DejaVu Sans" font-size="12" font-weight="400" text-anchor="middle" id="text_13">Coin Flips for 2014 Sub. x-0.1</text><g id="legend_1"><path d="M201.106 108.184H407.72q2 0 2-2V48.472q0-2-2-2H201.106q-2 0-2 2v57.712q0 2 2 2z" fill="#fff" opacity=".8" stroke="#ccc" id="patch_7"/><path d="M203.106 54.57h20" fill="none" stroke="#1f77b4" stroke-linecap="square" stroke-width="1.5" id="line2d_15"/><text x="231.106" y="58.07" font-family="DejaVu Sans" font-size="10" font-weight="400" id="text_14">Coin Flip Lower Bound</text><path d="M203.106 69.249h20" fill="none" stroke="#ff7f0e" stroke-linecap="square" stroke-width="1.5" id="line2d_17"/><text x="231.106" y="72.749" font-family="DejaVu Sans" font-size="10" font-weight="400" id="text_15">Avg. Coins Flipped 2014 Sub. x-0.1</text><path d="M203.106 83.927h20" fill="none" stroke="#2ca02c" stroke-linecap="square" stroke-width="1.5" id="line2d_19"/><text x="231.106" y="87.427" font-family="DejaVu Sans" font-size="10" font-weight="400" id="text_16">Avg. Coins Flipped 2016 Sub. x-0.1</text><path d="M203.106 98.605h20" fill="none" stroke="#d62728" stroke-linecap="square" stroke-width="1.5" id="line2d_21"/><text x="231.106" y="102.105" font-family="DejaVu Sans" font-size="10" font-weight="400" id="text_17">Avg. Coins Flipped 2019 Sub. x-0.1</text></g></g></g><defs><clipPath id="pfec6cc6711"><path d="M57.6 41.472h357.12v266.112H57.6z"/></clipPath></defs></svg>