<svg height="460.8" viewBox="0 0 460.8 345.6" width="614.4" xmlns="http://www.w3.org/2000/svg" xmlns:xlink="http://www.w3.org/1999/xlink"><defs><style>*{stroke-linecap:butt;stroke-linejoin:round}</style></defs><g id="figure_1"><path d="M0 345.6h460.8V0H0z" fill="#fff" id="patch_1"/><g id="axes_1"><path d="M57.6 307.584h357.12V41.472H57.6z" fill="#fff" id="patch_2"/><g id="matplotlib.axis_1"><g id="xtick_1"><g id="line2d_1"><defs><path d="M0 0v3.5" id="m85e9cba307" stroke="#000" stroke-width=".8"/></defs><use x="73.792" xlink:href="#m85e9cba307" y="307.584" stroke="#000" stroke-width=".8"/></g><text x="73.792" y="322.182" font-family="DejaVu Sans" font-size="10" font-weight="400" text-anchor="middle" id="text_1">0.0</text></g><g id="xtick_2"><use x="114.485" xlink:href="#m85e9cba307" y="307.584" stroke="#000" stroke-width=".8" id="line2d_2"/><text x="114.485" y="322.182" font-family="DejaVu Sans" font-size="10" font-weight="400" text-anchor="middle" id="text_2">0.1</text></g><g id="xtick_3"><use x="155.177" xlink:href="#m85e9cba307" y="307.584" stroke="#000" stroke-width=".8" id="line2d_3"/><text x="155.177" y="322.182" font-family="DejaVu Sans" font-size="10" font-weight="400" text-anchor="middle" id="text_3">0.2</text></g><g id="xtick_4"><use x="195.87" xlink:href="#m85e9cba307" y="307.584" stroke="#000" stroke-width=".8" id="line2d_4"/><text x="195.87" y="322.182" font-family="DejaVu Sans" font-size="10" font-weight="400" text-anchor="middle" id="text_4">0.3</text></g><g id="xtick_5"><use x="236.563" xlink:href="#m85e9cba307" y="307.584" stroke="#000" stroke-width=".8" id="line2d_5"/><text x="236.563" y="322.182" font-family="DejaVu Sans" font-size="10" font-weight="400" text-anchor="middle" id="text_5">0.4</text></g><g id="xtick_6"><use x="277.256" xlink:href="#m85e9cba307" y="307.584" stroke="#000" stroke-width=".8" id="line2d_6"/><text x="277.256" y="322.182" font-family="DejaVu Sans" font-size="10" font-weight="400" text-anchor="middle" id="text_6">0.5</text></g><g id="xtick_7"><use x="317.948" xlink:href="#m85e9cba307" y="307.584" stroke="#000" stroke-width=".8" id="line2d_7"/><text x="317.948" y="322.182" font-family="DejaVu Sans" font-size="10" font-weight="400" text-anchor="middle" id="text_7">0.6</text></g><g id="xtick_8"><use x="358.641" xlink:href="#m85e9cba307" y="307.584" stroke="#000" stroke-width=".8" id="line2d_8"/><text x="358.641" y="322.182" font-family="DejaVu Sans" font-size="10" font-weight="400" text-anchor="middle" id="text_8">0.7</text></g><g id="xtick_9"><use x="399.334" xlink:href="#m85e9cba307" y="307.584" stroke="#000" stroke-width=".8" id="line2d_9"/><text x="399.334" y="322.182" font-family="DejaVu Sans" font-size="10" font-weight="400" text-anchor="middle" id="text_9">0.8</text></g><text x="236.16" y="335.861" font-family="DejaVu Sans" font-size="10" font-weight="400" text-anchor="middle" id="text_10">Input Coin&apos;s Heads Probability (λ)</text></g><g id="matplotlib.axis_2"><g id="ytick_1"><g id="line2d_10"><defs><path d="M0 0h-3.5" id="m6a73fbe435" stroke="#000" stroke-width=".8"/></defs><use x="57.6" xlink:href="#m6a73fbe435" y="295.49" stroke="#000" stroke-width=".8"/></g><text x="50.6" y="299.289" font-family="DejaVu Sans" font-size="10" font-weight="400" text-anchor="end" id="text_11">0</text></g><g id="ytick_2"><use x="57.6" xlink:href="#m6a73fbe435" y="264.351" stroke="#000" stroke-width=".8" id="line2d_11"/><text x="50.6" y="268.15" font-family="DejaVu Sans" font-size="10" font-weight="400" text-anchor="end" id="text_12">10</text></g><g id="ytick_3"><use x="57.6" xlink:href="#m6a73fbe435" y="233.211" stroke="#000" stroke-width=".8" id="line2d_12"/><text x="50.6" y="237.01" font-family="DejaVu Sans" font-size="10" font-weight="400" text-anchor="end" id="text_13">20</text></g><g id="ytick_4"><use x="57.6" xlink:href="#m6a73fbe435" y="202.072" stroke="#000" stroke-width=".8" id="line2d_13"/><text x="50.6" y="205.871" font-family="DejaVu Sans" font-size="10" font-weight="400" text-anchor="end" id="text_14">30</text></g><g id="ytick_5"><use x="57.6" xlink:href="#m6a73fbe435" y="170.932" stroke="#000" stroke-width=".8" id="line2d_14"/><text x="50.6" y="174.732" font-family="DejaVu Sans" font-size="10" font-weight="400" text-anchor="end" id="text_15">40</text></g><g id="ytick_6"><use x="57.6" xlink:href="#m6a73fbe435" y="139.793" stroke="#000" stroke-width=".8" id="line2d_15"/><text x="50.6" y="143.592" font-family="DejaVu Sans" font-size="10" font-weight="400" text-anchor="end" id="text_16">50</text></g><g id="ytick_7"><use x="57.6" xlink:href="#m6a73fbe435" y="108.654" stroke="#000" stroke-width=".8" id="line2d_16"/><text x="50.6" y="112.453" font-family="DejaVu Sans" font-size="10" font-weight="400" text-anchor="end" id="text_17">60</text></g><g id="ytick_8"><use x="57.6" xlink:href="#m6a73fbe435" y="77.514" stroke="#000" stroke-width=".8" id="line2d_17"/><text x="50.6" y="81.314" font-family="DejaVu Sans" font-size="10" font-weight="400" text-anchor="end" id="text_18">70</text></g><g id="ytick_9"><use x="57.6" xlink:href="#m6a73fbe435" y="46.375" stroke="#000" stroke-width=".8" id="line2d_18"/><text x="50.6" y="50.174" font-family="DejaVu Sans" font-size="10" font-weight="400" text-anchor="end" id="text_19">80</text></g><text transform="rotate(-90 31.795 174.528)" x="31.795" y="174.528" font-family="DejaVu Sans" font-size="10" font-weight="400" text-anchor="middle" id="text_20">Coin Flips Needed</text></g><path clip-path="url(#p8f0148f968)" d="M73.833 295.488l4.11-.187 4.109-.172 4.11-.157 4.109-.144 4.11-.135 4.109-.124 4.11-.116 4.11-.11 4.109-.101 4.11-.097 4.109-.09 4.11-.087 4.109-.082 4.11-.078 4.109-.075 4.11-.071 4.11-.069 4.109-.066 4.11-.064 4.109-.062 4.11-.06 4.109-.058 4.11-.056 4.109-.056 4.11-.054 4.11-.053 4.109-.052 4.11-.052 4.109-.05 4.11-.051 4.109-.05 4.11-.05 4.109-.05 4.11-.05 4.109-.049 4.11-.05 4.11-.05 4.109-.051 4.11-.052 4.109-.052 4.11-.053 4.109-.055 4.11-.055 4.109-.058 4.11-.059 4.11-.06 4.109-.063 4.11-.066 4.109-.068 4.11-.071 4.109-.075 4.11-.079 4.109-.083 4.11-.089 4.109-.094 4.11-.1 4.11-.11 4.109-.116 4.11-.128 4.109-.139 4.11-.152 4.109-.169 4.11-.188 4.109-.21 4.11-.24 4.11-.272 4.109-.316 4.11-.37 4.109-.442 4.11-.534 4.109-.662 4.11-.843 4.109-1.112 4.11-1.536 4.11-2.261 4.109-3.667 4.11-6.984 4.109-18.553 4.11-198.655" fill="none" stroke="#1f77b4" stroke-linecap="square" stroke-width="1.5" id="line2d_19"/><path clip-path="url(#p8f0148f968)" d="M73.833 271.569l4.11-.586 4.109-2.877 4.11 2.323 4.109-3.014 4.11 1.949 4.109-.928 4.11-1.14 4.11-1.631 4.109 2.74 4.11-.056 4.109-1.75 4.11 1.09 4.109.728 4.11 1.096 4.109-.585 4.11 2.336 4.11-3.638 4.109-2.136 4.11 3.4 4.109-1.905 4.11 1.084 4.109-5.456 4.11-.33 4.109 2.267 4.11-.255 4.11-1.464 4.109 1.358 4.11.012 4.109-4.278 4.11-4.03 4.109 6.11 4.11-6.758 4.109 4.242 4.11 1.4 4.109-3.58 4.11-.081 4.11 4.023 4.109-7.162 4.11-3.307 4.109 7.094m8.219-2.81l4.11-4.82m8.219-4.552l4.11-3.158 4.109 5.817 4.11-13.813 4.109 6.446 4.11 4.11m8.218-16.38l4.11 7.792m12.329-15.414l4.11 1.413 4.109-3.045 4.11 11.322 4.109-13.975m8.219-10.525l4.11 4.285m12.328-14.935" fill="none" stroke="#ff7f0e" stroke-linecap="square" stroke-width="1.5" id="line2d_20"/><path clip-path="url(#p8f0148f968)" d="M73.833 253.408l4.11-2.753 4.109 1.557 4.11.86 4.109 1.37 4.11-11.933 4.109 4.958 4.11-2.111 4.11-.735 4.109-.449 4.11 1.426 4.109-1.943 4.11 2.822 4.109-4.13 4.11.854 4.109.268 4.11-3.8 4.11-1.544 4.109-.617 4.11-2.41 4.109.76 4.11 2.958 4.109-7.261 4.11 6.42 4.109-4.234 4.11-1.103 4.11-3.176 4.109 5.985 4.11-3.668 4.109 3.02 4.11-12.605 4.109 1.987 4.11 2.248 4.109-10.102 4.11 1.788 4.109-.455 4.11-8.258 4.11 9.192 4.109-15.021 4.11-3.563 4.109 11.298 4.11-6.34 4.109 3.425 4.11-3.68 4.109-3.762 4.11-4.72 4.11-3.009 4.109 7.143 4.11-16.472m8.218 14.156l4.11-22.552 4.11-6.62 4.109 4.765m12.329-13.465" fill="none" stroke="#2ca02c" stroke-linecap="square" stroke-width="1.5" id="line2d_21"/><path clip-path="url(#p8f0148f968)" d="M209.448 104.325l4.11 17.351 4.109-.672m8.22 39.123l4.109-1.102M275.2 213.15" fill="none" stroke="#d62728" stroke-linecap="square" stroke-width="1.5" id="line2d_22"/><path d="M57.6 307.584V41.472" fill="none" stroke="#000" stroke-linecap="square" stroke-width=".8" id="patch_3"/><path d="M414.72 307.584V41.472" fill="none" stroke="#000" stroke-linecap="square" stroke-width=".8" id="patch_4"/><path d="M57.6 307.584h357.12" fill="none" stroke="#000" stroke-linecap="square" stroke-width=".8" id="patch_5"/><path d="M57.6 41.472h357.12" fill="none" stroke="#000" stroke-linecap="square" stroke-width=".8" id="patch_6"/><text x="236.16" y="35.472" font-family="DejaVu Sans" font-size="12" font-weight="400" text-anchor="middle" id="text_21">Coin Flips for x+0.2</text><g id="legend_1"><path d="M64.6 108.184h211.714q2 0 2-2V48.472q0-2-2-2H64.6q-2 0-2 2v57.712q0 2 2 2z" fill="#fff" opacity=".8" stroke="#ccc" id="patch_7"/><path d="M66.6 54.57h20" fill="none" stroke="#1f77b4" stroke-linecap="square" stroke-width="1.5" id="line2d_23"/><text x="94.6" y="58.07" font-family="DejaVu Sans" font-size="10" font-weight="400" id="text_22">Coin Flip Lower Bound (Mendo)</text><path d="M66.6 69.249h20" fill="none" stroke="#ff7f0e" stroke-linecap="square" stroke-width="1.5" id="line2d_25"/><text x="94.6" y="72.749" font-family="DejaVu Sans" font-size="10" font-weight="400" id="text_23">Avg. Coins Flipped 2014 Add. x+0.2</text><path d="M66.6 83.927h20" fill="none" stroke="#2ca02c" stroke-linecap="square" stroke-width="1.5" id="line2d_27"/><text x="94.6" y="87.427" font-family="DejaVu Sans" font-size="10" font-weight="400" id="text_24">Avg. Coins Flipped 2016 Add. x+0.2</text><path d="M66.6 98.605h20" fill="none" stroke="#d62728" stroke-linecap="square" stroke-width="1.5" id="line2d_29"/><text x="94.6" y="102.105" font-family="DejaVu Sans" font-size="10" font-weight="400" id="text_25">Avg. Coins Flipped 2019 Add. x+0.2</text></g></g></g><defs><clipPath id="p8f0148f968"><path d="M57.6 41.472h357.12v266.112H57.6z"/></clipPath></defs></svg>