<svg height="460.8" viewBox="0 0 460.8 345.6" width="614.4" xmlns="http://www.w3.org/2000/svg" xmlns:xlink="http://www.w3.org/1999/xlink"><defs><style>*{stroke-linecap:butt;stroke-linejoin:round}</style></defs><g id="figure_1"><path d="M0 345.6h460.8V0H0z" fill="#fff" id="patch_1"/><g id="axes_1"><path d="M57.6 307.584h357.12V41.472H57.6z" fill="#fff" id="patch_2"/><g id="matplotlib.axis_1"><g id="xtick_1"><g id="line2d_1"><defs><path d="M0 0v3.5" id="mc6ff3afce6" stroke="#000" stroke-width=".8"/></defs><use x="95.272" xlink:href="#mc6ff3afce6" y="307.584" stroke="#000" stroke-width=".8"/></g><text x="95.272" y="322.182" font-family="DejaVu Sans" font-size="10" font-weight="400" text-anchor="middle" id="text_1">0.5</text></g><g id="xtick_2"><use x="155.927" xlink:href="#mc6ff3afce6" y="307.584" stroke="#000" stroke-width=".8" id="line2d_2"/><text x="155.927" y="322.182" font-family="DejaVu Sans" font-size="10" font-weight="400" text-anchor="middle" id="text_2">0.6</text></g><g id="xtick_3"><use x="216.582" xlink:href="#mc6ff3afce6" y="307.584" stroke="#000" stroke-width=".8" id="line2d_3"/><text x="216.582" y="322.182" font-family="DejaVu Sans" font-size="10" font-weight="400" text-anchor="middle" id="text_3">0.7</text></g><g id="xtick_4"><use x="277.238" xlink:href="#mc6ff3afce6" y="307.584" stroke="#000" stroke-width=".8" id="line2d_4"/><text x="277.238" y="322.182" font-family="DejaVu Sans" font-size="10" font-weight="400" text-anchor="middle" id="text_4">0.8</text></g><g id="xtick_5"><use x="337.893" xlink:href="#mc6ff3afce6" y="307.584" stroke="#000" stroke-width=".8" id="line2d_5"/><text x="337.893" y="322.182" font-family="DejaVu Sans" font-size="10" font-weight="400" text-anchor="middle" id="text_5">0.9</text></g><g id="xtick_6"><use x="398.548" xlink:href="#mc6ff3afce6" y="307.584" stroke="#000" stroke-width=".8" id="line2d_6"/><text x="398.548" y="322.182" font-family="DejaVu Sans" font-size="10" font-weight="400" text-anchor="middle" id="text_6">1.0</text></g><text x="236.16" y="335.861" font-family="DejaVu Sans" font-size="10" font-weight="400" text-anchor="middle" id="text_7">Probability</text></g><g id="matplotlib.axis_2"><g id="ytick_1"><g id="line2d_7"><defs><path d="M0 0h-3.5" id="me292db0992" stroke="#000" stroke-width=".8"/></defs><use x="57.6" xlink:href="#me292db0992" y="283.972" stroke="#000" stroke-width=".8"/></g><text x="50.6" y="287.772" font-family="DejaVu Sans" font-size="10" font-weight="400" text-anchor="end" id="text_8">50</text></g><g id="ytick_2"><use x="57.6" xlink:href="#me292db0992" y="253.579" stroke="#000" stroke-width=".8" id="line2d_8"/><text x="50.6" y="257.378" font-family="DejaVu Sans" font-size="10" font-weight="400" text-anchor="end" id="text_9">75</text></g><g id="ytick_3"><use x="57.6" xlink:href="#me292db0992" y="223.185" stroke="#000" stroke-width=".8" id="line2d_9"/><text x="50.6" y="226.984" font-family="DejaVu Sans" font-size="10" font-weight="400" text-anchor="end" id="text_10">100</text></g><g id="ytick_4"><use x="57.6" xlink:href="#me292db0992" y="192.791" stroke="#000" stroke-width=".8" id="line2d_10"/><text x="50.6" y="196.59" font-family="DejaVu Sans" font-size="10" font-weight="400" text-anchor="end" id="text_11">125</text></g><g id="ytick_5"><use x="57.6" xlink:href="#me292db0992" y="162.397" stroke="#000" stroke-width=".8" id="line2d_11"/><text x="50.6" y="166.196" font-family="DejaVu Sans" font-size="10" font-weight="400" text-anchor="end" id="text_12">150</text></g><g id="ytick_6"><use x="57.6" xlink:href="#me292db0992" y="132.003" stroke="#000" stroke-width=".8" id="line2d_12"/><text x="50.6" y="135.803" font-family="DejaVu Sans" font-size="10" font-weight="400" text-anchor="end" id="text_13">175</text></g><g id="ytick_7"><use x="57.6" xlink:href="#me292db0992" y="101.61" stroke="#000" stroke-width=".8" id="line2d_13"/><text x="50.6" y="105.409" font-family="DejaVu Sans" font-size="10" font-weight="400" text-anchor="end" id="text_14">200</text></g><g id="ytick_8"><use x="57.6" xlink:href="#me292db0992" y="71.216" stroke="#000" stroke-width=".8" id="line2d_14"/><text x="50.6" y="75.015" font-family="DejaVu Sans" font-size="10" font-weight="400" text-anchor="end" id="text_15">225</text></g><text transform="rotate(-90 25.433 174.528)" x="25.433" y="174.528" font-family="DejaVu Sans" font-size="10" font-weight="400" text-anchor="middle" id="text_16">Average Bits Consumed Per Call</text></g><path clip-path="url(#pff51b01ba2)" d="M92.209 213.291l6.126 11.268m12.251 1.011l6.126 10.064M141.214 227.355l6.125 17.456 6.126 1.984 6.126-7.8 6.125 3.046 6.126-8.649m12.25 27.056l6.126-10.735 6.126 14.773 6.125 8.496 6.126-2.945 6.126-20.709 6.125 14.344 6.126 1.838 6.125 4.739 6.126-5.34 6.125 5.853 6.126-.068 6.125 9.721 6.126-7.328 6.126-10.935 6.125 15.97 6.126.112 6.125-3.98 6.126 8.763 6.125-15.114 6.126 12.108 6.125-5.235 6.126 6.356 6.126-6.421 6.125 6.643 6.126 5.28 6.125-8.115 6.126 8.782 6.125-7.365 6.126 6.492 6.125 4.088 6.126 4.972 6.126-7.134 6.125 6.614 6.126-5.325 6.125.839" fill="none" stroke="#1f77b4" stroke-linecap="square" stroke-width="1.5" id="line2d_15"/><path clip-path="url(#pff51b01ba2)" d="M116.712 56.758l6.125.688 6.126-3.878 6.125 15.603m12.251 14.205l6.126-3.429 6.126 34.956 6.125-37.195 6.126 19.102 6.125 32.828 6.126-40.609 6.125 36.4 6.126 8.768 6.125 28.828 6.126-19.88 6.126 13.487 6.125-36.044 6.126 24.667 6.125 21.247 6.126-2.84 6.125-6.439 6.126 45.858 6.125-13.171 6.126 3.02 6.126-.39 6.125-8.327 6.126 4.97 6.125 1.563 6.126 7.304 6.125 7.198 6.126-11.88 6.125-1.68 6.126 18.722 6.126-12.814 6.125 15.1 6.126.021 6.125 12.637 6.126-3.434 6.125-9.424 6.126 5.889 6.125 9.128 6.126-1.666 6.126 1.88 6.125 1.281 6.126-1.614 6.125 4.948" fill="none" stroke="#ff7f0e" stroke-linecap="square" stroke-width="1.5" id="line2d_16"/><path clip-path="url(#pff51b01ba2)" d="M128.962 181.06400000000002l6.126-26.39 6.126-27.614 6.125 26.48 6.126-6.627m36.753 42.523l6.126 9.37 6.125-4.665m12.252 34.281l6.125.69 6.126-3.51m12.25 4.347l6.126 1.846m12.251 20.614l6.126-13.889 6.126 1.257m12.25 20.547l6.126-21.76m12.251 16.875l6.126-9.138 6.125 1.012m12.252 8.213l6.125 3.852 6.126 1.925 6.125 4.92 6.126 5.966 6.125-5.85 6.126-11.96 6.125 18.073 6.126-2.181 6.126-2.879 6.125 7.769 6.126-1.831 6.125-5.235" fill="none" stroke="#2ca02c" stroke-linecap="square" stroke-width="1.5" id="line2d_17"/><path d="M57.6 307.584V41.472" fill="none" stroke="#000" stroke-linecap="square" stroke-width=".8" id="patch_3"/><path d="M414.72 307.584V41.472" fill="none" stroke="#000" stroke-linecap="square" stroke-width=".8" id="patch_4"/><path d="M57.6 307.584h357.12" fill="none" stroke="#000" stroke-linecap="square" stroke-width=".8" id="patch_5"/><path d="M57.6 41.472h357.12" fill="none" stroke="#000" stroke-linecap="square" stroke-width=".8" id="patch_6"/><text x="236.16" y="35.472" font-family="DejaVu Sans" font-size="12" font-weight="400" text-anchor="middle" id="text_17">Avg. Bits Consumed by 2014 Sub. x-0.3 Algorithm</text><g id="legend_1"><path d="M296.272 93.506H407.72q2 0 2-2V48.472q0-2-2-2H296.272q-2 0-2 2v43.034q0 2 2 2z" fill="#fff" opacity=".8" stroke="#ccc" id="patch_7"/><path d="M298.272 54.57h20" fill="none" stroke="#1f77b4" stroke-linecap="square" stroke-width="1.5" id="line2d_18"/><text x="326.272" y="58.07" font-family="DejaVu Sans" font-size="10" font-weight="400" id="text_18">2014 Sub. x-0.3</text><path d="M298.272 69.249h20" fill="none" stroke="#ff7f0e" stroke-linecap="square" stroke-width="1.5" id="line2d_20"/><text x="326.272" y="72.749" font-family="DejaVu Sans" font-size="10" font-weight="400" id="text_19">2016 Sub. x-0.3</text><path d="M298.272 83.927h20" fill="none" stroke="#2ca02c" stroke-linecap="square" stroke-width="1.5" id="line2d_22"/><text x="326.272" y="87.427" font-family="DejaVu Sans" font-size="10" font-weight="400" id="text_20">2019 Sub. x-0.3</text></g></g></g><defs><clipPath id="pff51b01ba2"><path d="M57.6 41.472h357.12v266.112H57.6z"/></clipPath></defs></svg>