<?xml version="1.0" encoding="utf-8" standalone="no"?>
<!DOCTYPE svg PUBLIC "-//W3C//DTD SVG 1.1//EN"
  "http://www.w3.org/Graphics/SVG/1.1/DTD/svg11.dtd">
<!-- Created with matplotlib (https://matplotlib.org/) -->
<svg height="345.6pt" version="1.1" viewBox="0 0 460.8 345.6" width="460.8pt" xmlns="http://www.w3.org/2000/svg" xmlns:xlink="http://www.w3.org/1999/xlink">
 <defs>
  <style type="text/css">
*{stroke-linecap:butt;stroke-linejoin:round;}
  </style>
 </defs>
 <g id="figure_1">
  <g id="patch_1">
   <path d="M 0 345.6 
L 460.8 345.6 
L 460.8 0 
L 0 0 
z
" style="fill:#ffffff;"/>
  </g>
  <g id="axes_1">
   <g id="patch_2">
    <path d="M 57.6 307.584 
L 414.72 307.584 
L 414.72 41.472 
L 57.6 41.472 
z
" style="fill:#ffffff;"/>
   </g>
   <g id="matplotlib.axis_1">
    <g id="xtick_1">
     <g id="line2d_1">
      <defs>
       <path d="M 0 0 
L 0 3.5 
" id="m38367d4189" style="stroke:#000000;stroke-width:0.8;"/>
      </defs>
      <g>
       <use style="stroke:#000000;stroke-width:0.8;" x="73.790428" xlink:href="#m38367d4189" y="307.584"/>
      </g>
     </g>
     <g id="text_1">
      <text style="font-family:DejaVu Sans;font-size:10px;font-style:normal;font-weight:normal;text-anchor:middle;" transform="rotate(-0, 73.790428, 322.182437)" x="73.790428" y="322.182437">0.0</text>
     </g>
    </g>
    <g id="xtick_2">
     <g id="line2d_2">
      <g>
       <use style="stroke:#000000;stroke-width:0.8;" x="116.089414" xlink:href="#m38367d4189" y="307.584"/>
      </g>
     </g>
     <g id="text_2">
      <text style="font-family:DejaVu Sans;font-size:10px;font-style:normal;font-weight:normal;text-anchor:middle;" transform="rotate(-0, 116.089414, 322.182437)" x="116.089414" y="322.182437">0.1</text>
     </g>
    </g>
    <g id="xtick_3">
     <g id="line2d_3">
      <g>
       <use style="stroke:#000000;stroke-width:0.8;" x="158.388401" xlink:href="#m38367d4189" y="307.584"/>
      </g>
     </g>
     <g id="text_3">
      <text style="font-family:DejaVu Sans;font-size:10px;font-style:normal;font-weight:normal;text-anchor:middle;" transform="rotate(-0, 158.388401, 322.182437)" x="158.388401" y="322.182437">0.2</text>
     </g>
    </g>
    <g id="xtick_4">
     <g id="line2d_4">
      <g>
       <use style="stroke:#000000;stroke-width:0.8;" x="200.687387" xlink:href="#m38367d4189" y="307.584"/>
      </g>
     </g>
     <g id="text_4">
      <text style="font-family:DejaVu Sans;font-size:10px;font-style:normal;font-weight:normal;text-anchor:middle;" transform="rotate(-0, 200.687387, 322.182437)" x="200.687387" y="322.182437">0.3</text>
     </g>
    </g>
    <g id="xtick_5">
     <g id="line2d_5">
      <g>
       <use style="stroke:#000000;stroke-width:0.8;" x="242.986373" xlink:href="#m38367d4189" y="307.584"/>
      </g>
     </g>
     <g id="text_5">
      <text style="font-family:DejaVu Sans;font-size:10px;font-style:normal;font-weight:normal;text-anchor:middle;" transform="rotate(-0, 242.986373, 322.182437)" x="242.986373" y="322.182437">0.4</text>
     </g>
    </g>
    <g id="xtick_6">
     <g id="line2d_6">
      <g>
       <use style="stroke:#000000;stroke-width:0.8;" x="285.285359" xlink:href="#m38367d4189" y="307.584"/>
      </g>
     </g>
     <g id="text_6">
      <text style="font-family:DejaVu Sans;font-size:10px;font-style:normal;font-weight:normal;text-anchor:middle;" transform="rotate(-0, 285.285359, 322.182437)" x="285.285359" y="322.182437">0.5</text>
     </g>
    </g>
    <g id="xtick_7">
     <g id="line2d_7">
      <g>
       <use style="stroke:#000000;stroke-width:0.8;" x="327.584345" xlink:href="#m38367d4189" y="307.584"/>
      </g>
     </g>
     <g id="text_7">
      <text style="font-family:DejaVu Sans;font-size:10px;font-style:normal;font-weight:normal;text-anchor:middle;" transform="rotate(-0, 327.584345, 322.182437)" x="327.584345" y="322.182437">0.6</text>
     </g>
    </g>
    <g id="xtick_8">
     <g id="line2d_8">
      <g>
       <use style="stroke:#000000;stroke-width:0.8;" x="369.883331" xlink:href="#m38367d4189" y="307.584"/>
      </g>
     </g>
     <g id="text_8">
      <text style="font-family:DejaVu Sans;font-size:10px;font-style:normal;font-weight:normal;text-anchor:middle;" transform="rotate(-0, 369.883331, 322.182437)" x="369.883331" y="322.182437">0.7</text>
     </g>
    </g>
    <g id="xtick_9">
     <g id="line2d_9">
      <g>
       <use style="stroke:#000000;stroke-width:0.8;" x="412.182317" xlink:href="#m38367d4189" y="307.584"/>
      </g>
     </g>
     <g id="text_9">
      <text style="font-family:DejaVu Sans;font-size:10px;font-style:normal;font-weight:normal;text-anchor:middle;" transform="rotate(-0, 412.182317, 322.182437)" x="412.182317" y="322.182437">0.8</text>
     </g>
    </g>
    <g id="text_10">
     <text style="font-family:DejaVu Sans;font-size:10px;font-style:normal;font-weight:normal;text-anchor:middle;" transform="rotate(-0, 236.16, 335.860562)" x="236.16" y="335.860562">Input Coin's Heads Probability (λ)</text>
    </g>
   </g>
   <g id="matplotlib.axis_2">
    <g id="ytick_1">
     <g id="line2d_10">
      <defs>
       <path d="M 0 0 
L -3.5 0 
" id="me36d1c8296" style="stroke:#000000;stroke-width:0.8;"/>
      </defs>
      <g>
       <use style="stroke:#000000;stroke-width:0.8;" x="57.6" xlink:href="#me36d1c8296" y="295.488"/>
      </g>
     </g>
     <g id="text_11">
      <text style="font-family:DejaVu Sans;font-size:10px;font-style:normal;font-weight:normal;text-anchor:end;" transform="rotate(-0, 50.6, 299.287219)" x="50.6" y="299.287219">0.0</text>
     </g>
    </g>
    <g id="ytick_2">
     <g id="line2d_11">
      <g>
       <use style="stroke:#000000;stroke-width:0.8;" x="57.6" xlink:href="#me36d1c8296" y="247.002675"/>
      </g>
     </g>
     <g id="text_12">
      <text style="font-family:DejaVu Sans;font-size:10px;font-style:normal;font-weight:normal;text-anchor:end;" transform="rotate(-0, 50.6, 250.801894)" x="50.6" y="250.801894">0.2</text>
     </g>
    </g>
    <g id="ytick_3">
     <g id="line2d_12">
      <g>
       <use style="stroke:#000000;stroke-width:0.8;" x="57.6" xlink:href="#me36d1c8296" y="198.517351"/>
      </g>
     </g>
     <g id="text_13">
      <text style="font-family:DejaVu Sans;font-size:10px;font-style:normal;font-weight:normal;text-anchor:end;" transform="rotate(-0, 50.6, 202.31657)" x="50.6" y="202.31657">0.4</text>
     </g>
    </g>
    <g id="ytick_4">
     <g id="line2d_13">
      <g>
       <use style="stroke:#000000;stroke-width:0.8;" x="57.6" xlink:href="#me36d1c8296" y="150.032026"/>
      </g>
     </g>
     <g id="text_14">
      <text style="font-family:DejaVu Sans;font-size:10px;font-style:normal;font-weight:normal;text-anchor:end;" transform="rotate(-0, 50.6, 153.831245)" x="50.6" y="153.831245">0.6</text>
     </g>
    </g>
    <g id="ytick_5">
     <g id="line2d_14">
      <g>
       <use style="stroke:#000000;stroke-width:0.8;" x="57.6" xlink:href="#me36d1c8296" y="101.546702"/>
      </g>
     </g>
     <g id="text_15">
      <text style="font-family:DejaVu Sans;font-size:10px;font-style:normal;font-weight:normal;text-anchor:end;" transform="rotate(-0, 50.6, 105.345921)" x="50.6" y="105.345921">0.8</text>
     </g>
    </g>
    <g id="ytick_6">
     <g id="line2d_15">
      <g>
       <use style="stroke:#000000;stroke-width:0.8;" x="57.6" xlink:href="#me36d1c8296" y="53.061377"/>
      </g>
     </g>
     <g id="text_16">
      <text style="font-family:DejaVu Sans;font-size:10px;font-style:normal;font-weight:normal;text-anchor:end;" transform="rotate(-0, 50.6, 56.860596)" x="50.6" y="56.860596">1.0</text>
     </g>
    </g>
    <g id="text_17">
     <text style="font-family:DejaVu Sans;font-size:10px;font-style:normal;font-weight:normal;text-anchor:middle;" transform="rotate(-90, 28.617187, 174.528)" x="28.617187" y="174.528">Simulated Mean / Function Value</text>
    </g>
   </g>
   <g id="line2d_16">
    <path clip-path="url(#p4d2b51fec9)" d="M 73.832727 295.456485 
L 78.104498 292.273741 
L 82.376268 289.090998 
L 86.648038 285.908255 
L 90.919809 282.725512 
L 95.191579 279.542768 
L 99.463349 276.360025 
L 103.73512 273.177282 
L 108.00689 269.994539 
L 112.27866 266.811796 
L 116.550431 263.629052 
L 120.822201 260.446309 
L 125.093971 257.263566 
L 129.365742 254.080823 
L 133.637512 250.898079 
L 137.909282 247.715336 
L 142.181053 244.532593 
L 146.452823 241.34985 
L 150.724593 238.167107 
L 154.996364 234.984363 
L 159.268134 231.80162 
L 163.539904 228.618877 
L 167.811675 225.436134 
L 172.083445 222.253391 
L 176.355215 219.070647 
L 180.626986 215.887904 
L 184.898756 212.705161 
L 189.170526 209.522418 
L 193.442297 206.339674 
L 197.714067 203.156931 
L 201.985837 199.974188 
L 206.257608 196.791445 
L 210.529378 193.608702 
L 214.801148 190.425958 
L 219.072919 187.243215 
L 223.344689 184.060472 
L 227.616459 180.877729 
L 231.88823 177.694985 
L 236.16 174.512242 
L 240.43177 171.329499 
L 244.703541 168.146756 
L 248.975311 164.964013 
L 253.247081 161.781269 
L 257.518852 158.598526 
L 261.790622 155.415783 
L 266.062392 152.23304 
L 270.334163 149.050297 
L 274.605933 145.867553 
L 278.877703 142.68481 
L 283.149474 139.502067 
L 287.421244 136.319324 
L 291.693014 133.13658 
L 295.964785 129.953837 
L 300.236555 126.771094 
L 304.508325 123.588351 
L 308.780096 120.405608 
L 313.051866 117.222864 
L 317.323636 114.040121 
L 321.595407 110.857378 
L 325.867177 107.674635 
L 330.138947 104.491891 
L 334.410718 101.309148 
L 338.682488 98.126405 
L 342.954258 94.943662 
L 347.226029 91.760919 
L 351.497799 88.578175 
L 355.769569 85.395432 
L 360.04134 82.212689 
L 364.31311 79.029946 
L 368.58488 75.847203 
L 372.856651 72.664459 
L 377.128421 69.481716 
L 381.400191 66.298973 
L 385.671962 63.11623 
L 389.943732 59.933486 
L 394.215502 56.750743 
L 398.487273 53.568 
" style="fill:none;stroke:#1f77b4;stroke-linecap:square;stroke-width:1.5;"/>
   </g>
   <g id="line2d_17">
    <path clip-path="url(#p4d2b51fec9)" d="M 73.832727 295.488 
L 78.104498 291.609174 
L 82.376268 286.760642 
L 86.648038 287.730348 
L 90.919809 284.821229 
L 95.191579 279.972696 
L 99.463349 278.518136 
L 103.73512 269.790778 
L 108.00689 274.154457 
L 112.27866 264.457392 
L 116.550431 263.487686 
L 120.822201 261.06342 
L 125.093971 256.69974 
L 129.365742 251.851208 
L 133.637512 246.032969 
L 137.909282 251.366355 
L 142.181053 249.911795 
L 146.452823 235.366198 
L 150.724593 233.911638 
L 154.996364 233.911638 
L 159.268134 230.032812 
L 163.539904 215.972068 
L 167.811675 229.063105 
L 172.083445 221.790307 
L 176.355215 212.093242 
L 180.626986 219.36604 
L 184.898756 227.123692 
L 189.170526 205.79015 
L 193.442297 207.244709 
L 197.714067 199.971911 
L 201.985837 199.002204 
L 206.257608 194.638525 
L 210.529378 183.971754 
L 214.801148 195.123378 
L 219.072919 185.911167 
L 223.344689 185.911167 
L 227.616459 187.365726 
L 231.88823 179.608074 
L 236.16 183.971754 
L 240.43177 171.365569 
L 244.703541 168.941303 
L 248.975311 167.486743 
L 253.247081 168.941303 
L 257.518852 150.032026 
L 261.790622 151.971439 
L 266.062392 152.941146 
L 270.334163 145.668347 
L 274.605933 138.395549 
L 278.877703 140.819815 
L 283.149474 133.062163 
L 287.421244 130.153043 
L 291.693014 127.243924 
L 295.964785 140.819815 
L 300.236555 127.243924 
L 304.508325 121.425685 
L 308.780096 123.365098 
L 313.051866 123.849951 
L 317.323636 112.698327 
L 321.595407 107.849794 
L 325.867177 105.910381 
L 330.138947 101.546702 
L 334.410718 101.061849 
L 338.682488 96.698169 
L 342.954258 86.031398 
L 347.226029 99.607289 
L 351.497799 87.485958 
L 355.769569 86.031398 
L 360.04134 83.122279 
L 364.31311 79.728306 
L 368.58488 76.819186 
L 372.856651 70.031241 
L 377.128421 68.091828 
" style="fill:none;stroke:#ff7f0e;stroke-linecap:square;stroke-width:1.5;"/>
   </g>
   <g id="line2d_18">
    <path clip-path="url(#p4d2b51fec9)" d="M 73.832727 295.488 
L 78.104498 292.094027 
L 82.376268 286.275788 
L 86.648038 284.821229 
L 90.919809 285.790935 
L 95.191579 280.457549 
L 99.463349 277.54843 
L 103.73512 275.609017 
L 108.00689 271.730191 
L 112.27866 268.821072 
L 116.550431 271.730191 
L 120.822201 264.942246 
L 125.093971 255.245181 
L 129.365742 254.760327 
L 133.637512 251.851208 
L 137.909282 245.548116 
L 142.181053 246.517822 
L 146.452823 240.21473 
L 150.724593 240.21473 
L 154.996364 240.21473 
L 159.268134 234.396491 
L 163.539904 224.699426 
L 167.811675 225.669133 
L 172.083445 227.608546 
L 176.355215 217.911481 
L 180.626986 212.578095 
L 184.898756 214.032655 
L 189.170526 208.214416 
L 193.442297 200.456764 
L 197.714067 208.214416 
L 201.985837 204.820443 
L 206.257608 194.638525 
L 210.529378 194.638525 
L 214.801148 193.668818 
L 219.072919 180.577781 
L 223.344689 188.820286 
L 227.616459 184.456607 
L 231.88823 182.517194 
L 236.16 177.668661 
L 240.43177 164.092771 
L 244.703541 165.062477 
L 248.975311 168.941303 
L 253.247081 157.304825 
L 257.518852 151.001733 
L 261.790622 150.51688 
L 266.062392 148.092613 
L 270.334163 150.032026 
L 274.605933 143.244081 
L 278.877703 143.244081 
L 283.149474 147.122907 
L 287.421244 148.092613 
L 291.693014 128.21363 
L 295.964785 125.304511 
L 300.236555 131.607603 
L 304.508325 129.183337 
L 308.780096 118.516565 
L 313.051866 115.122593 
L 317.323636 100.576995 
L 321.595407 115.607446 
M 330.138947 95.728463 
L 334.410718 106.880088 
L 338.682488 103.001262 
L 342.954258 95.24361 
M 360.04134 75.364627 
" style="fill:none;stroke:#2ca02c;stroke-linecap:square;stroke-width:1.5;"/>
   </g>
   <g id="line2d_19">
    <path clip-path="url(#p4d2b51fec9)" d="M 73.832727 295.003147 
L 78.104498 292.094027 
L 82.376268 291.609174 
L 86.648038 285.306082 
L 90.919809 279.487843 
L 95.191579 279.00299 
L 99.463349 272.215044 
L 103.73512 273.669604 
L 108.00689 271.245338 
L 112.27866 262.033126 
L 116.550431 266.881659 
L 120.822201 264.457392 
L 125.093971 254.275474 
L 129.365742 260.578566 
L 133.637512 250.396648 
L 137.909282 248.457235 
L 142.181053 241.184437 
L 146.452823 243.12385 
L 150.724593 239.729877 
L 154.996364 236.335904 
L 159.268134 231.972225 
L 163.539904 237.790464 
L 167.811675 225.669133 
L 172.083445 224.699426 
L 176.355215 215.002361 
L 180.626986 207.729563 
L 184.898756 208.214416 
L 189.170526 208.699269 
L 193.442297 211.608389 
L 197.714067 192.699112 
L 201.985837 194.153672 
L 206.257608 196.577938 
L 210.529378 187.85058 
L 214.801148 191.244552 
L 219.072919 188.820286 
L 223.344689 186.39602 
L 227.616459 176.214102 
L 231.88823 175.244395 
L 236.16 167.00189 
" style="fill:none;stroke:#d62728;stroke-linecap:square;stroke-width:1.5;"/>
   </g>
   <g id="line2d_20">
    <path clip-path="url(#p4d2b51fec9)" d="M 73.832727 295.488 
L 78.104498 292.094027 
L 82.376268 288.215201 
L 86.648038 287.245495 
L 90.919809 284.336375 
L 95.191579 281.912109 
L 99.463349 279.487843 
L 103.73512 277.54843 
L 108.00689 265.911952 
L 112.27866 268.336218 
L 116.550431 257.669447 
L 120.822201 261.06342 
L 125.093971 247.972382 
L 129.365742 263.002833 
L 133.637512 260.578566 
L 137.909282 254.275474 
L 142.181053 240.21473 
L 146.452823 246.517822 
L 150.724593 238.76017 
L 154.996364 236.820757 
L 159.268134 227.608546 
L 163.539904 232.941931 
L 167.811675 218.881187 
L 172.083445 224.214573 
L 176.355215 225.669133 
L 180.626986 216.941774 
L 184.898756 218.396334 
L 189.170526 221.790307 
L 193.442297 207.729563 
L 197.714067 202.396177 
L 201.985837 196.577938 
L 206.257608 202.88103 
L 210.529378 186.39602 
L 214.801148 190.274846 
L 219.072919 177.668661 
L 223.344689 181.547487 
L 227.616459 182.517194 
L 231.88823 182.517194 
M 240.43177 168.45645 
L 244.703541 164.092771 
L 248.975311 159.729091 
L 253.247081 157.304825 
L 257.518852 154.880559 
L 261.790622 153.425999 
L 266.062392 155.850265 
L 270.334163 149.547173 
M 278.877703 135.971282 
L 283.149474 135.486429 
L 287.421244 135.001576 
L 291.693014 122.880245 
L 295.964785 115.607446 
L 300.236555 124.334804 
L 304.508325 124.819658 
L 308.780096 128.21363 
L 313.051866 120.940832 
M 330.138947 107.364941 
M 342.954258 95.24361 
L 347.226029 89.910224 
" style="fill:none;stroke:#9467bd;stroke-linecap:square;stroke-width:1.5;"/>
   </g>
   <g id="line2d_21">
    <path clip-path="url(#p4d2b51fec9)" d="M 78.104498 291.609174 
L 82.376268 287.245495 
L 86.648038 284.336375 
L 90.919809 282.881816 
L 95.191579 279.972696 
L 99.463349 272.699897 
L 103.73512 266.396805 
L 108.00689 268.821072 
L 112.27866 267.366512 
L 116.550431 260.093713 
L 120.822201 266.881659 
L 125.093971 268.336218 
L 129.365742 255.730034 
L 133.637512 244.578409 
L 137.909282 247.487529 
L 142.181053 240.21473 
L 146.452823 243.12385 
L 150.724593 245.548116 
L 154.996364 238.275317 
L 159.268134 231.487372 
L 163.539904 227.123692 
L 167.811675 224.699426 
L 172.083445 227.123692 
L 176.355215 222.760013 
L 180.626986 205.79015 
L 184.898756 207.729563 
L 189.170526 202.88103 
L 193.442297 202.88103 
L 197.714067 210.153829 
L 201.985837 207.244709 
L 206.257608 198.517351 
L 210.529378 201.42647 
L 214.801148 187.365726 
L 219.072919 184.456607 
L 223.344689 182.032341 
L 227.616459 180.577781 
L 231.88823 178.638368 
L 236.16 180.092928 
" style="fill:none;stroke:#8c564b;stroke-linecap:square;stroke-width:1.5;"/>
   </g>
   <g id="patch_3">
    <path d="M 57.6 307.584 
L 57.6 41.472 
" style="fill:none;stroke:#000000;stroke-linecap:square;stroke-linejoin:miter;stroke-width:0.8;"/>
   </g>
   <g id="patch_4">
    <path d="M 414.72 307.584 
L 414.72 41.472 
" style="fill:none;stroke:#000000;stroke-linecap:square;stroke-linejoin:miter;stroke-width:0.8;"/>
   </g>
   <g id="patch_5">
    <path d="M 57.6 307.584 
L 414.72 307.584 
" style="fill:none;stroke:#000000;stroke-linecap:square;stroke-linejoin:miter;stroke-width:0.8;"/>
   </g>
   <g id="patch_6">
    <path d="M 57.6 41.472 
L 414.72 41.472 
" style="fill:none;stroke:#000000;stroke-linecap:square;stroke-linejoin:miter;stroke-width:0.8;"/>
   </g>
   <g id="text_18">
    <text style="font-family:DejaVu Sans;font-size:12px;font-style:normal;font-weight:normal;" transform="translate(184.459688 22.034625)">Simulated Means</text>
    <text style="font-family:DejaVu Sans;font-size:12px;font-style:normal;font-weight:normal;" transform="translate(132.609375 35.472)">(Wasserstein Distances in Legend)</text>
   </g>
   <g id="legend_1">
    <g id="patch_7">
     <path d="M 71.387188 137.54075 
L 407.72 137.54075 
Q 409.72 137.54075 409.72 135.54075 
L 409.72 48.472 
Q 409.72 46.472 407.72 46.472 
L 71.387188 46.472 
Q 69.387188 46.472 69.387188 48.472 
L 69.387188 135.54075 
Q 69.387188 137.54075 71.387188 137.54075 
z
" style="fill:#ffffff;opacity:0.8;stroke:#cccccc;stroke-linejoin:miter;"/>
    </g>
    <g id="line2d_22">
     <path d="M 73.387188 54.570438 
L 93.387188 54.570438 
" style="fill:none;stroke:#1f77b4;stroke-linecap:square;stroke-width:1.5;"/>
    </g>
    <g id="line2d_23"/>
    <g id="text_19">
     <text style="font-family:DejaVu Sans;font-size:10px;font-style:normal;font-weight:normal;text-anchor:start;" transform="rotate(-0, 101.387188, 58.070438)" x="101.387188" y="58.070438">x*1.3</text>
    </g>
    <g id="line2d_24">
     <path d="M 73.387188 69.248563 
L 93.387188 69.248563 
" style="fill:none;stroke:#ff7f0e;stroke-linecap:square;stroke-width:1.5;"/>
    </g>
    <g id="line2d_25"/>
    <g id="text_20">
     <text style="font-family:DejaVu Sans;font-size:10px;font-style:normal;font-weight:normal;text-anchor:start;" transform="rotate(-0, 101.387188, 72.748563)" x="101.387188" y="72.748563">Simul. Mean of 2014 Lin. x*1.3 (WD=0.008168)</text>
    </g>
    <g id="line2d_26">
     <path d="M 73.387188 83.926688 
L 93.387188 83.926688 
" style="fill:none;stroke:#2ca02c;stroke-linecap:square;stroke-width:1.5;"/>
    </g>
    <g id="line2d_27"/>
    <g id="text_21">
     <text style="font-family:DejaVu Sans;font-size:10px;font-style:normal;font-weight:normal;text-anchor:start;" transform="rotate(-0, 101.387188, 87.426688)" x="101.387188" y="87.426688">Simul. Mean of 2016 Lin. x*1.3 (WD=0.009076)</text>
    </g>
    <g id="line2d_28">
     <path d="M 73.387188 98.604813 
L 93.387188 98.604813 
" style="fill:none;stroke:#d62728;stroke-linecap:square;stroke-width:1.5;"/>
    </g>
    <g id="line2d_29"/>
    <g id="text_22">
     <text style="font-family:DejaVu Sans;font-size:10px;font-style:normal;font-weight:normal;text-anchor:start;" transform="rotate(-0, 101.387188, 102.104813)" x="101.387188" y="102.104813">Simul. Mean of Low-Mean Lin. x*1.3 (WD=0.009441)</text>
    </g>
    <g id="line2d_30">
     <path d="M 73.387188 113.282938 
L 93.387188 113.282938 
" style="fill:none;stroke:#9467bd;stroke-linecap:square;stroke-width:1.5;"/>
    </g>
    <g id="line2d_31"/>
    <g id="text_23">
     <text style="font-family:DejaVu Sans;font-size:10px;font-style:normal;font-weight:normal;text-anchor:start;" transform="rotate(-0, 101.387188, 116.782938)" x="101.387188" y="116.782938">Simul. Mean of 2019x*1.3 (WD=0.009219)</text>
    </g>
    <g id="line2d_32">
     <path d="M 73.387188 127.961063 
L 93.387188 127.961063 
" style="fill:none;stroke:#8c564b;stroke-linecap:square;stroke-width:1.5;"/>
    </g>
    <g id="line2d_33"/>
    <g id="text_24">
     <text style="font-family:DejaVu Sans;font-size:10px;font-style:normal;font-weight:normal;text-anchor:start;" transform="rotate(-0, 101.387188, 131.461063)" x="101.387188" y="131.461063">Simul. Mean of Low-Mean M=0.49999 x*1.3 (WD=0.009977)</text>
    </g>
   </g>
  </g>
 </g>
 <defs>
  <clipPath id="p4d2b51fec9">
   <rect height="266.112" width="357.12" x="57.6" y="41.472"/>
  </clipPath>
 </defs>
</svg>
