<?xml version="1.0" encoding="utf-8" standalone="no"?>
<!DOCTYPE svg PUBLIC "-//W3C//DTD SVG 1.1//EN"
  "http://www.w3.org/Graphics/SVG/1.1/DTD/svg11.dtd">
<!-- Created with matplotlib (https://matplotlib.org/) -->
<svg height="345.6pt" version="1.1" viewBox="0 0 460.8 345.6" width="460.8pt" xmlns="http://www.w3.org/2000/svg" xmlns:xlink="http://www.w3.org/1999/xlink">
 <defs>
  <style type="text/css">
*{stroke-linecap:butt;stroke-linejoin:round;}
  </style>
 </defs>
 <g id="figure_1">
  <g id="patch_1">
   <path d="M 0 345.6 
L 460.8 345.6 
L 460.8 0 
L 0 0 
z
" style="fill:#ffffff;"/>
  </g>
  <g id="axes_1">
   <g id="patch_2">
    <path d="M 57.6 307.584 
L 414.72 307.584 
L 414.72 41.472 
L 57.6 41.472 
z
" style="fill:#ffffff;"/>
   </g>
   <g id="matplotlib.axis_1">
    <g id="xtick_1">
     <g id="line2d_1">
      <defs>
       <path d="M 0 0 
L 0 3.5 
" id="m513ecde886" style="stroke:#000000;stroke-width:0.8;"/>
      </defs>
      <g>
       <use style="stroke:#000000;stroke-width:0.8;" x="73.792035" xlink:href="#m513ecde886" y="307.584"/>
      </g>
     </g>
     <g id="text_1">
      <text style="font-family:DejaVu Sans;font-size:10px;font-style:normal;font-weight:normal;text-anchor:middle;" transform="rotate(-0, 73.792035, 322.182437)" x="73.792035" y="322.182437">0.0</text>
     </g>
    </g>
    <g id="xtick_2">
     <g id="line2d_2">
      <g>
       <use style="stroke:#000000;stroke-width:0.8;" x="114.48473" xlink:href="#m513ecde886" y="307.584"/>
      </g>
     </g>
     <g id="text_2">
      <text style="font-family:DejaVu Sans;font-size:10px;font-style:normal;font-weight:normal;text-anchor:middle;" transform="rotate(-0, 114.48473, 322.182437)" x="114.48473" y="322.182437">0.1</text>
     </g>
    </g>
    <g id="xtick_3">
     <g id="line2d_3">
      <g>
       <use style="stroke:#000000;stroke-width:0.8;" x="155.177426" xlink:href="#m513ecde886" y="307.584"/>
      </g>
     </g>
     <g id="text_3">
      <text style="font-family:DejaVu Sans;font-size:10px;font-style:normal;font-weight:normal;text-anchor:middle;" transform="rotate(-0, 155.177426, 322.182437)" x="155.177426" y="322.182437">0.2</text>
     </g>
    </g>
    <g id="xtick_4">
     <g id="line2d_4">
      <g>
       <use style="stroke:#000000;stroke-width:0.8;" x="195.870121" xlink:href="#m513ecde886" y="307.584"/>
      </g>
     </g>
     <g id="text_4">
      <text style="font-family:DejaVu Sans;font-size:10px;font-style:normal;font-weight:normal;text-anchor:middle;" transform="rotate(-0, 195.870121, 322.182437)" x="195.870121" y="322.182437">0.3</text>
     </g>
    </g>
    <g id="xtick_5">
     <g id="line2d_5">
      <g>
       <use style="stroke:#000000;stroke-width:0.8;" x="236.562817" xlink:href="#m513ecde886" y="307.584"/>
      </g>
     </g>
     <g id="text_5">
      <text style="font-family:DejaVu Sans;font-size:10px;font-style:normal;font-weight:normal;text-anchor:middle;" transform="rotate(-0, 236.562817, 322.182437)" x="236.562817" y="322.182437">0.4</text>
     </g>
    </g>
    <g id="xtick_6">
     <g id="line2d_6">
      <g>
       <use style="stroke:#000000;stroke-width:0.8;" x="277.255512" xlink:href="#m513ecde886" y="307.584"/>
      </g>
     </g>
     <g id="text_6">
      <text style="font-family:DejaVu Sans;font-size:10px;font-style:normal;font-weight:normal;text-anchor:middle;" transform="rotate(-0, 277.255512, 322.182437)" x="277.255512" y="322.182437">0.5</text>
     </g>
    </g>
    <g id="xtick_7">
     <g id="line2d_7">
      <g>
       <use style="stroke:#000000;stroke-width:0.8;" x="317.948208" xlink:href="#m513ecde886" y="307.584"/>
      </g>
     </g>
     <g id="text_7">
      <text style="font-family:DejaVu Sans;font-size:10px;font-style:normal;font-weight:normal;text-anchor:middle;" transform="rotate(-0, 317.948208, 322.182437)" x="317.948208" y="322.182437">0.6</text>
     </g>
    </g>
    <g id="xtick_8">
     <g id="line2d_8">
      <g>
       <use style="stroke:#000000;stroke-width:0.8;" x="358.640903" xlink:href="#m513ecde886" y="307.584"/>
      </g>
     </g>
     <g id="text_8">
      <text style="font-family:DejaVu Sans;font-size:10px;font-style:normal;font-weight:normal;text-anchor:middle;" transform="rotate(-0, 358.640903, 322.182437)" x="358.640903" y="322.182437">0.7</text>
     </g>
    </g>
    <g id="xtick_9">
     <g id="line2d_9">
      <g>
       <use style="stroke:#000000;stroke-width:0.8;" x="399.333599" xlink:href="#m513ecde886" y="307.584"/>
      </g>
     </g>
     <g id="text_9">
      <text style="font-family:DejaVu Sans;font-size:10px;font-style:normal;font-weight:normal;text-anchor:middle;" transform="rotate(-0, 399.333599, 322.182437)" x="399.333599" y="322.182437">0.8</text>
     </g>
    </g>
    <g id="text_10">
     <text style="font-family:DejaVu Sans;font-size:10px;font-style:normal;font-weight:normal;text-anchor:middle;" transform="rotate(-0, 236.16, 335.860562)" x="236.16" y="335.860562">Input Coin's Heads Probability (λ)</text>
    </g>
   </g>
   <g id="matplotlib.axis_2">
    <g id="ytick_1">
     <g id="line2d_10">
      <defs>
       <path d="M 0 0 
L -3.5 0 
" id="madf090483e" style="stroke:#000000;stroke-width:0.8;"/>
      </defs>
      <g>
       <use style="stroke:#000000;stroke-width:0.8;" x="57.6" xlink:href="#madf090483e" y="294.88314"/>
      </g>
     </g>
     <g id="text_11">
      <text style="font-family:DejaVu Sans;font-size:10px;font-style:normal;font-weight:normal;text-anchor:end;" transform="rotate(-0, 50.6, 298.682358)" x="50.6" y="298.682358">0.2</text>
     </g>
    </g>
    <g id="ytick_2">
     <g id="line2d_11">
      <g>
       <use style="stroke:#000000;stroke-width:0.8;" x="57.6" xlink:href="#madf090483e" y="264.640123"/>
      </g>
     </g>
     <g id="text_12">
      <text style="font-family:DejaVu Sans;font-size:10px;font-style:normal;font-weight:normal;text-anchor:end;" transform="rotate(-0, 50.6, 268.439342)" x="50.6" y="268.439342">0.3</text>
     </g>
    </g>
    <g id="ytick_3">
     <g id="line2d_12">
      <g>
       <use style="stroke:#000000;stroke-width:0.8;" x="57.6" xlink:href="#madf090483e" y="234.397106"/>
      </g>
     </g>
     <g id="text_13">
      <text style="font-family:DejaVu Sans;font-size:10px;font-style:normal;font-weight:normal;text-anchor:end;" transform="rotate(-0, 50.6, 238.196325)" x="50.6" y="238.196325">0.4</text>
     </g>
    </g>
    <g id="ytick_4">
     <g id="line2d_13">
      <g>
       <use style="stroke:#000000;stroke-width:0.8;" x="57.6" xlink:href="#madf090483e" y="204.15409"/>
      </g>
     </g>
     <g id="text_14">
      <text style="font-family:DejaVu Sans;font-size:10px;font-style:normal;font-weight:normal;text-anchor:end;" transform="rotate(-0, 50.6, 207.953308)" x="50.6" y="207.953308">0.5</text>
     </g>
    </g>
    <g id="ytick_5">
     <g id="line2d_14">
      <g>
       <use style="stroke:#000000;stroke-width:0.8;" x="57.6" xlink:href="#madf090483e" y="173.911073"/>
      </g>
     </g>
     <g id="text_15">
      <text style="font-family:DejaVu Sans;font-size:10px;font-style:normal;font-weight:normal;text-anchor:end;" transform="rotate(-0, 50.6, 177.710292)" x="50.6" y="177.710292">0.6</text>
     </g>
    </g>
    <g id="ytick_6">
     <g id="line2d_15">
      <g>
       <use style="stroke:#000000;stroke-width:0.8;" x="57.6" xlink:href="#madf090483e" y="143.668056"/>
      </g>
     </g>
     <g id="text_16">
      <text style="font-family:DejaVu Sans;font-size:10px;font-style:normal;font-weight:normal;text-anchor:end;" transform="rotate(-0, 50.6, 147.467275)" x="50.6" y="147.467275">0.7</text>
     </g>
    </g>
    <g id="ytick_7">
     <g id="line2d_16">
      <g>
       <use style="stroke:#000000;stroke-width:0.8;" x="57.6" xlink:href="#madf090483e" y="113.42504"/>
      </g>
     </g>
     <g id="text_17">
      <text style="font-family:DejaVu Sans;font-size:10px;font-style:normal;font-weight:normal;text-anchor:end;" transform="rotate(-0, 50.6, 117.224258)" x="50.6" y="117.224258">0.8</text>
     </g>
    </g>
    <g id="ytick_8">
     <g id="line2d_17">
      <g>
       <use style="stroke:#000000;stroke-width:0.8;" x="57.6" xlink:href="#madf090483e" y="83.182023"/>
      </g>
     </g>
     <g id="text_18">
      <text style="font-family:DejaVu Sans;font-size:10px;font-style:normal;font-weight:normal;text-anchor:end;" transform="rotate(-0, 50.6, 86.981242)" x="50.6" y="86.981242">0.9</text>
     </g>
    </g>
    <g id="ytick_9">
     <g id="line2d_18">
      <g>
       <use style="stroke:#000000;stroke-width:0.8;" x="57.6" xlink:href="#madf090483e" y="52.939006"/>
      </g>
     </g>
     <g id="text_19">
      <text style="font-family:DejaVu Sans;font-size:10px;font-style:normal;font-weight:normal;text-anchor:end;" transform="rotate(-0, 50.6, 56.738225)" x="50.6" y="56.738225">1.0</text>
     </g>
    </g>
    <g id="text_20">
     <text style="font-family:DejaVu Sans;font-size:10px;font-style:normal;font-weight:normal;text-anchor:middle;" transform="rotate(-90, 28.617187, 174.528)" x="28.617187" y="174.528">Simulated Mean / Function Value</text>
    </g>
   </g>
   <g id="line2d_19">
    <path clip-path="url(#p2ace675596)" d="M 73.832727 294.852897 
L 77.942278 291.798657 
L 82.05183 288.744418 
L 86.161381 285.690179 
L 90.270932 282.63594 
L 94.380483 279.581701 
L 98.490035 276.527461 
L 102.599586 273.473222 
L 106.709137 270.418983 
L 110.818688 267.364744 
L 114.928239 264.310505 
L 119.037791 261.256265 
L 123.147342 258.202026 
L 127.256893 255.147787 
L 131.366444 252.093548 
L 135.475995 249.039309 
L 139.585547 245.985069 
L 143.695098 242.93083 
L 147.804649 239.876591 
L 151.9142 236.822352 
L 156.023751 233.768113 
L 160.133303 230.713873 
L 164.242854 227.659634 
L 168.352405 224.605395 
L 172.461956 221.551156 
L 176.571507 218.496917 
L 180.681059 215.442677 
L 184.79061 212.388438 
L 188.900161 209.334199 
L 193.009712 206.27996 
L 197.119264 203.225721 
L 201.228815 200.171482 
L 205.338366 197.117242 
L 209.447917 194.063003 
L 213.557468 191.008764 
L 217.66702 187.954525 
L 221.776571 184.900286 
L 225.886122 181.846046 
L 229.995673 178.791807 
L 234.105224 175.737568 
L 238.214776 172.683329 
L 242.324327 169.62909 
L 246.433878 166.57485 
L 250.543429 163.520611 
L 254.65298 160.466372 
L 258.762532 157.412133 
L 262.872083 154.357894 
L 266.981634 151.303654 
L 271.091185 148.249415 
L 275.200736 145.195176 
L 279.310288 142.140937 
L 283.419839 139.086698 
L 287.52939 136.032458 
L 291.638941 132.978219 
L 295.748493 129.92398 
L 299.858044 126.869741 
L 303.967595 123.815502 
L 308.077146 120.761262 
L 312.186697 117.707023 
L 316.296249 114.652784 
L 320.4058 111.598545 
L 324.515351 108.544306 
L 328.624902 105.490066 
L 332.734453 102.435827 
L 336.844005 99.381588 
L 340.953556 96.327349 
L 345.063107 93.27311 
L 349.172658 90.21887 
L 353.282209 87.164631 
L 357.391761 84.110392 
L 361.501312 81.056153 
L 365.610863 78.001914 
L 369.720414 74.947674 
L 373.829965 71.893435 
L 377.939517 68.839196 
L 382.049068 65.784957 
L 386.158619 62.730718 
L 390.26817 59.676478 
L 394.377722 56.622239 
L 398.487273 53.568 
" style="fill:none;stroke:#1f77b4;stroke-linecap:square;stroke-width:1.5;"/>
   </g>
   <g id="line2d_20">
    <path clip-path="url(#p2ace675596)" d="M 73.832727 294.88314 
L 77.942278 293.068559 
L 82.05183 293.068559 
L 86.161381 274.922749 
L 90.270932 285.810235 
L 94.380483 285.810235 
L 98.490035 271.898447 
L 102.599586 262.825542 
L 106.709137 268.874145 
L 110.818688 261.010961 
L 114.928239 280.366492 
L 119.037791 268.874145 
L 123.147342 256.172078 
L 127.256893 265.244983 
L 131.366444 267.664425 
L 135.475995 242.260291 
L 139.585547 253.752637 
L 143.695098 245.889453 
L 147.804649 239.840849 
L 151.9142 240.44571 
L 156.023751 230.767944 
L 160.133303 233.792246 
L 164.242854 226.533922 
L 168.352405 227.743643 
L 172.461956 224.719341 
L 176.571507 222.90476 
L 180.681059 210.202693 
L 184.79061 212.017274 
L 188.900161 205.968671 
L 193.009712 216.251296 
L 197.119264 204.15409 
L 201.228815 190.847162 
L 205.338366 182.983978 
L 209.447917 193.266604 
L 213.557468 178.145095 
L 217.66702 186.00828 
L 221.776571 188.427721 
L 225.886122 186.61314 
L 229.995673 192.056883 
L 234.105224 178.749956 
L 238.214776 167.86247 
L 242.324327 170.281911 
L 246.433878 167.86247 
L 250.543429 163.023587 
L 254.65298 163.023587 
L 258.762532 150.32152 
L 262.872083 148.506939 
L 266.981634 155.765263 
M 275.200736 140.643755 
L 279.310288 141.248615 
L 283.419839 144.877777 
L 287.52939 139.434034 
M 295.748493 129.756269 
M 308.077146 122.497945 
M 324.515351 105.561855 
M 336.844005 100.118112 
L 340.953556 88.020906 
M 349.172658 86.206325 
" style="fill:none;stroke:#ff7f0e;stroke-linecap:square;stroke-width:1.5;"/>
   </g>
   <g id="line2d_21">
    <path clip-path="url(#p2ace675596)" d="M 73.832727 289.439397 
L 77.942278 282.785933 
L 82.05183 280.971352 
L 86.161381 295.488 
L 90.270932 287.019955 
L 94.380483 283.390793 
L 98.490035 283.995654 
L 102.599586 262.220682 
L 106.709137 272.503307 
L 110.818688 261.615821 
L 114.928239 271.898447 
L 119.037791 261.010961 
L 123.147342 254.357497 
L 127.256893 268.874145 
L 131.366444 261.615821 
L 135.475995 247.099173 
L 139.585547 253.752637 
L 143.695098 252.542916 
L 147.804649 235.606827 
L 151.9142 239.840849 
L 156.023751 221.090179 
L 160.133303 225.929062 
L 164.242854 234.397106 
L 168.352405 224.719341 
L 172.461956 221.090179 
L 176.571507 228.348503 
L 180.681059 220.485319 
L 184.79061 209.597833 
L 188.900161 215.646436 
L 193.009712 210.202693 
L 197.119264 202.944369 
L 201.228815 196.895766 
L 205.338366 193.871464 
L 209.447917 190.242302 
L 213.557468 184.193699 
L 217.66702 189.637442 
L 221.776571 196.290905 
L 225.886122 185.403419 
L 229.995673 169.677051 
L 234.105224 178.145095 
L 238.214776 171.491632 
L 242.324327 170.281911 
L 246.433878 161.813866 
M 254.65298 158.184704 
L 258.762532 160.604146 
L 262.872083 155.765263 
L 266.981634 156.974984 
L 271.091185 146.692358 
L 275.200736 149.111799 
L 279.310288 134.595151 
L 283.419839 133.990291 
L 287.52939 130.361129 
L 291.638941 133.990291 
L 295.748493 127.336827 
L 299.858044 135.200012 
L 303.967595 127.941688 
" style="fill:none;stroke:#2ca02c;stroke-linecap:square;stroke-width:1.5;"/>
   </g>
   <g id="line2d_22">
    <path clip-path="url(#p2ace675596)" d="M 201.228815 201.129788 
M 213.557468 198.105486 
L 217.66702 189.637442 
L 221.776571 190.242302 
M 238.214776 173.911073 
L 242.324327 175.725654 
L 246.433878 166.652749 
M 254.65298 155.765263 
L 258.762532 160.604146 
M 271.091185 156.370123 
L 275.200736 146.087498 
" style="fill:none;stroke:#d62728;stroke-linecap:square;stroke-width:1.5;"/>
   </g>
   <g id="patch_3">
    <path d="M 57.6 307.584 
L 57.6 41.472 
" style="fill:none;stroke:#000000;stroke-linecap:square;stroke-linejoin:miter;stroke-width:0.8;"/>
   </g>
   <g id="patch_4">
    <path d="M 414.72 307.584 
L 414.72 41.472 
" style="fill:none;stroke:#000000;stroke-linecap:square;stroke-linejoin:miter;stroke-width:0.8;"/>
   </g>
   <g id="patch_5">
    <path d="M 57.6 307.584 
L 414.72 307.584 
" style="fill:none;stroke:#000000;stroke-linecap:square;stroke-linejoin:miter;stroke-width:0.8;"/>
   </g>
   <g id="patch_6">
    <path d="M 57.6 41.472 
L 414.72 41.472 
" style="fill:none;stroke:#000000;stroke-linecap:square;stroke-linejoin:miter;stroke-width:0.8;"/>
   </g>
   <g id="text_21">
    <text style="font-family:DejaVu Sans;font-size:12px;font-style:normal;font-weight:normal;" transform="translate(184.459688 22.034625)">Simulated Means</text>
    <text style="font-family:DejaVu Sans;font-size:12px;font-style:normal;font-weight:normal;" transform="translate(132.609375 35.472)">(Wasserstein Distances in Legend)</text>
   </g>
   <g id="legend_1">
    <g id="patch_7">
     <path d="M 64.6 108.1845 
L 343.39375 108.1845 
Q 345.39375 108.1845 345.39375 106.1845 
L 345.39375 48.472 
Q 345.39375 46.472 343.39375 46.472 
L 64.6 46.472 
Q 62.6 46.472 62.6 48.472 
L 62.6 106.1845 
Q 62.6 108.1845 64.6 108.1845 
z
" style="fill:#ffffff;opacity:0.8;stroke:#cccccc;stroke-linejoin:miter;"/>
    </g>
    <g id="line2d_23">
     <path d="M 66.6 54.570438 
L 86.6 54.570438 
" style="fill:none;stroke:#1f77b4;stroke-linecap:square;stroke-width:1.5;"/>
    </g>
    <g id="line2d_24"/>
    <g id="text_22">
     <text style="font-family:DejaVu Sans;font-size:10px;font-style:normal;font-weight:normal;text-anchor:start;" transform="rotate(-0, 94.6, 58.070438)" x="94.6" y="58.070438">x+0.2</text>
    </g>
    <g id="line2d_25">
     <path d="M 66.6 69.248563 
L 86.6 69.248563 
" style="fill:none;stroke:#ff7f0e;stroke-linecap:square;stroke-width:1.5;"/>
    </g>
    <g id="line2d_26"/>
    <g id="text_23">
     <text style="font-family:DejaVu Sans;font-size:10px;font-style:normal;font-weight:normal;text-anchor:start;" transform="rotate(-0, 94.6, 72.748563)" x="94.6" y="72.748563">Simul. Mean of 2014 Add. x+0.2 (WD=0.007113)</text>
    </g>
    <g id="line2d_27">
     <path d="M 66.6 83.926688 
L 86.6 83.926688 
" style="fill:none;stroke:#2ca02c;stroke-linecap:square;stroke-width:1.5;"/>
    </g>
    <g id="line2d_28"/>
    <g id="text_24">
     <text style="font-family:DejaVu Sans;font-size:10px;font-style:normal;font-weight:normal;text-anchor:start;" transform="rotate(-0, 94.6, 87.426688)" x="94.6" y="87.426688">Simul. Mean of 2016 Add. x+0.2 (WD=0.007185)</text>
    </g>
    <g id="line2d_29">
     <path d="M 66.6 98.604813 
L 86.6 98.604813 
" style="fill:none;stroke:#d62728;stroke-linecap:square;stroke-width:1.5;"/>
    </g>
    <g id="line2d_30"/>
    <g id="text_25">
     <text style="font-family:DejaVu Sans;font-size:10px;font-style:normal;font-weight:normal;text-anchor:start;" transform="rotate(-0, 94.6, 102.104813)" x="94.6" y="102.104813">Simul. Mean of 2019 Add. x+0.2 (WD=0.009640)</text>
    </g>
   </g>
  </g>
 </g>
 <defs>
  <clipPath id="p2ace675596">
   <rect height="266.112" width="357.12" x="57.6" y="41.472"/>
  </clipPath>
 </defs>
</svg>
