<svg height="460.8" viewBox="0 0 460.8 345.6" width="614.4" xmlns="http://www.w3.org/2000/svg" xmlns:xlink="http://www.w3.org/1999/xlink"><defs><style>*{stroke-linecap:butt;stroke-linejoin:round}</style></defs><g id="figure_1"><path d="M0 345.6h460.8V0H0z" fill="#fff" id="patch_1"/><g id="axes_1"><path d="M57.6 307.584h357.12V41.472H57.6z" fill="#fff" id="patch_2"/><g id="matplotlib.axis_1"><g id="xtick_1"><g id="line2d_1"><defs><path d="M0 0v3.5" id="meb57380575" stroke="#000" stroke-width=".8"/></defs><use x="73.752" xlink:href="#meb57380575" y="307.584" stroke="#000" stroke-width=".8"/></g><text x="73.752" y="322.182" font-family="DejaVu Sans" font-size="10" font-weight="400" text-anchor="middle" id="text_1">0.00</text></g><g id="xtick_2"><use x="113.936" xlink:href="#meb57380575" y="307.584" stroke="#000" stroke-width=".8" id="line2d_2"/><text x="113.936" y="322.182" font-family="DejaVu Sans" font-size="10" font-weight="400" text-anchor="middle" id="text_2">0.05</text></g><g id="xtick_3"><use x="154.12" xlink:href="#meb57380575" y="307.584" stroke="#000" stroke-width=".8" id="line2d_3"/><text x="154.12" y="322.182" font-family="DejaVu Sans" font-size="10" font-weight="400" text-anchor="middle" id="text_3">0.10</text></g><g id="xtick_4"><use x="194.304" xlink:href="#meb57380575" y="307.584" stroke="#000" stroke-width=".8" id="line2d_4"/><text x="194.304" y="322.182" font-family="DejaVu Sans" font-size="10" font-weight="400" text-anchor="middle" id="text_4">0.15</text></g><g id="xtick_5"><use x="234.489" xlink:href="#meb57380575" y="307.584" stroke="#000" stroke-width=".8" id="line2d_5"/><text x="234.489" y="322.182" font-family="DejaVu Sans" font-size="10" font-weight="400" text-anchor="middle" id="text_5">0.20</text></g><g id="xtick_6"><use x="274.673" xlink:href="#meb57380575" y="307.584" stroke="#000" stroke-width=".8" id="line2d_6"/><text x="274.673" y="322.182" font-family="DejaVu Sans" font-size="10" font-weight="400" text-anchor="middle" id="text_6">0.25</text></g><g id="xtick_7"><use x="314.857" xlink:href="#meb57380575" y="307.584" stroke="#000" stroke-width=".8" id="line2d_7"/><text x="314.857" y="322.182" font-family="DejaVu Sans" font-size="10" font-weight="400" text-anchor="middle" id="text_7">0.30</text></g><g id="xtick_8"><use x="355.041" xlink:href="#meb57380575" y="307.584" stroke="#000" stroke-width=".8" id="line2d_8"/><text x="355.041" y="322.182" font-family="DejaVu Sans" font-size="10" font-weight="400" text-anchor="middle" id="text_8">0.35</text></g><g id="xtick_9"><use x="395.225" xlink:href="#meb57380575" y="307.584" stroke="#000" stroke-width=".8" id="line2d_9"/><text x="395.225" y="322.182" font-family="DejaVu Sans" font-size="10" font-weight="400" text-anchor="middle" id="text_9">0.40</text></g><text x="236.16" y="335.861" font-family="DejaVu Sans" font-size="10" font-weight="400" text-anchor="middle" id="text_10">Probability</text></g><g id="matplotlib.axis_2"><g id="ytick_1"><g id="line2d_10"><defs><path d="M0 0h-3.5" id="m0a7371ee30" stroke="#000" stroke-width=".8"/></defs><use x="57.6" xlink:href="#m0a7371ee30" y="296.206" stroke="#000" stroke-width=".8"/></g><text x="50.6" y="300.005" font-family="DejaVu Sans" font-size="10" font-weight="400" text-anchor="end" id="text_11">50</text></g><g id="ytick_2"><use x="57.6" xlink:href="#m0a7371ee30" y="247.699" stroke="#000" stroke-width=".8" id="line2d_11"/><text x="50.6" y="251.498" font-family="DejaVu Sans" font-size="10" font-weight="400" text-anchor="end" id="text_12">100</text></g><g id="ytick_3"><use x="57.6" xlink:href="#m0a7371ee30" y="199.191" stroke="#000" stroke-width=".8" id="line2d_12"/><text x="50.6" y="202.99" font-family="DejaVu Sans" font-size="10" font-weight="400" text-anchor="end" id="text_13">150</text></g><g id="ytick_4"><use x="57.6" xlink:href="#m0a7371ee30" y="150.684" stroke="#000" stroke-width=".8" id="line2d_13"/><text x="50.6" y="154.483" font-family="DejaVu Sans" font-size="10" font-weight="400" text-anchor="end" id="text_14">200</text></g><g id="ytick_5"><use x="57.6" xlink:href="#m0a7371ee30" y="102.176" stroke="#000" stroke-width=".8" id="line2d_14"/><text x="50.6" y="105.976" font-family="DejaVu Sans" font-size="10" font-weight="400" text-anchor="end" id="text_15">250</text></g><g id="ytick_6"><use x="57.6" xlink:href="#m0a7371ee30" y="53.669" stroke="#000" stroke-width=".8" id="line2d_15"/><text x="50.6" y="57.468" font-family="DejaVu Sans" font-size="10" font-weight="400" text-anchor="end" id="text_16">300</text></g><text transform="rotate(-90 25.433 174.528)" x="25.433" y="174.528" font-family="DejaVu Sans" font-size="10" font-weight="400" text-anchor="middle" id="text_17">Average Bits Consumed Per Call</text></g><path clip-path="url(#p3039f1f4b6)" d="M73.833 291.163l8.116-7.183 8.116 7.866 8.117.415 8.116-.731 8.117-2.94 8.116-3.826 8.116 4.748 8.117-1.112 8.116 3.869 8.116-2.344 8.117-11.543 8.116 17.106 8.116-13.167 8.117 1.323 8.116-5.293 8.117-9.754 8.116 5.633 8.116.115 8.117-3.528 8.116-30.067m16.233 24.308l8.116-.912 8.116 7.597M357.905 220.86l8.117-16.318m24.349-11.5L398.487 223" fill="none" stroke="#1f77b4" stroke-linecap="square" stroke-width="1.5" id="line2d_16"/><path clip-path="url(#p3039f1f4b6)" d="M73.833 237.809l8.116-14.155 8.116 12.414 8.117-12.88 8.116 1.852 8.117 3.624 8.116-26.035 8.116 4.688 8.117-3.326 8.116-6.168 8.116-3.552 8.117-1.293 8.116-9.866 8.116-7.691 8.117 2.14 8.116 21.02 8.117-21.523 8.116-13.43 8.116 13.609 8.117-10.162 8.116-23.991 8.116 14.466 8.117 11.347 8.116-6.149m16.233-52.228l8.116-17.51m40.582-39.442" fill="none" stroke="#ff7f0e" stroke-linecap="square" stroke-width="1.5" id="line2d_17"/><path d="M57.6 307.584V41.472" fill="none" stroke="#000" stroke-linecap="square" stroke-width=".8" id="patch_3"/><path d="M414.72 307.584V41.472" fill="none" stroke="#000" stroke-linecap="square" stroke-width=".8" id="patch_4"/><path d="M57.6 307.584h357.12" fill="none" stroke="#000" stroke-linecap="square" stroke-width=".8" id="patch_5"/><path d="M57.6 41.472h357.12" fill="none" stroke="#000" stroke-linecap="square" stroke-width=".8" id="patch_6"/><text x="236.16" y="35.472" font-family="DejaVu Sans" font-size="12" font-weight="400" text-anchor="middle" id="text_18">Avg. Bits Consumed by 2014 Add. x+0.5 Algorithm</text><g id="legend_1"><path d="M64.6 93.506h116.548q2 0 2-2V48.472q0-2-2-2H64.6q-2 0-2 2v43.034q0 2 2 2z" fill="#fff" opacity=".8" stroke="#ccc" id="patch_7"/><path d="M66.6 54.57h20" fill="none" stroke="#1f77b4" stroke-linecap="square" stroke-width="1.5" id="line2d_19"/><text x="94.6" y="58.07" font-family="DejaVu Sans" font-size="10" font-weight="400" id="text_19">2014 Add. x+0.5</text><path d="M66.6 69.249h20" fill="none" stroke="#ff7f0e" stroke-linecap="square" stroke-width="1.5" id="line2d_21"/><text x="94.6" y="72.749" font-family="DejaVu Sans" font-size="10" font-weight="400" id="text_20">2016 Add. x+0.5</text><path d="M66.6 83.927h20" fill="none" stroke="#2ca02c" stroke-linecap="square" stroke-width="1.5" id="line2d_23"/><text x="94.6" y="87.427" font-family="DejaVu Sans" font-size="10" font-weight="400" id="text_21">2019 Add. x+0.5</text></g></g></g><defs><clipPath id="p3039f1f4b6"><path d="M57.6 41.472h357.12v266.112H57.6z"/></clipPath></defs></svg>