<?xml version="1.0" encoding="utf-8" standalone="no"?>
<!DOCTYPE svg PUBLIC "-//W3C//DTD SVG 1.1//EN"
  "http://www.w3.org/Graphics/SVG/1.1/DTD/svg11.dtd">
<!-- Created with matplotlib (https://matplotlib.org/) -->
<svg height="345.6pt" version="1.1" viewBox="0 0 460.8 345.6" width="460.8pt" xmlns="http://www.w3.org/2000/svg" xmlns:xlink="http://www.w3.org/1999/xlink">
 <defs>
  <style type="text/css">
*{stroke-linecap:butt;stroke-linejoin:round;}
  </style>
 </defs>
 <g id="figure_1">
  <g id="patch_1">
   <path d="M 0 345.6 
L 460.8 345.6 
L 460.8 0 
L 0 0 
z
" style="fill:#ffffff;"/>
  </g>
  <g id="axes_1">
   <g id="patch_2">
    <path d="M 57.6 307.584 
L 414.72 307.584 
L 414.72 41.472 
L 57.6 41.472 
z
" style="fill:#ffffff;"/>
   </g>
   <g id="matplotlib.axis_1">
    <g id="xtick_1">
     <g id="line2d_1">
      <defs>
       <path d="M 0 0 
L 0 3.5 
" id="m820c86b46e" style="stroke:#000000;stroke-width:0.8;"/>
      </defs>
      <g>
       <use style="stroke:#000000;stroke-width:0.8;" x="73.767121" xlink:href="#m820c86b46e" y="307.584"/>
      </g>
     </g>
     <g id="text_1">
      <text style="font-family:DejaVu Sans;font-size:10px;font-style:normal;font-weight:normal;text-anchor:middle;" transform="rotate(-0, 73.767121, 322.182437)" x="73.767121" y="322.182437">0.0</text>
     </g>
    </g>
    <g id="xtick_2">
     <g id="line2d_2">
      <g>
       <use style="stroke:#000000;stroke-width:0.8;" x="139.373711" xlink:href="#m820c86b46e" y="307.584"/>
      </g>
     </g>
     <g id="text_2">
      <text style="font-family:DejaVu Sans;font-size:10px;font-style:normal;font-weight:normal;text-anchor:middle;" transform="rotate(-0, 139.373711, 322.182437)" x="139.373711" y="322.182437">0.1</text>
     </g>
    </g>
    <g id="xtick_3">
     <g id="line2d_3">
      <g>
       <use style="stroke:#000000;stroke-width:0.8;" x="204.980302" xlink:href="#m820c86b46e" y="307.584"/>
      </g>
     </g>
     <g id="text_3">
      <text style="font-family:DejaVu Sans;font-size:10px;font-style:normal;font-weight:normal;text-anchor:middle;" transform="rotate(-0, 204.980302, 322.182437)" x="204.980302" y="322.182437">0.2</text>
     </g>
    </g>
    <g id="xtick_4">
     <g id="line2d_4">
      <g>
       <use style="stroke:#000000;stroke-width:0.8;" x="270.586893" xlink:href="#m820c86b46e" y="307.584"/>
      </g>
     </g>
     <g id="text_4">
      <text style="font-family:DejaVu Sans;font-size:10px;font-style:normal;font-weight:normal;text-anchor:middle;" transform="rotate(-0, 270.586893, 322.182437)" x="270.586893" y="322.182437">0.3</text>
     </g>
    </g>
    <g id="xtick_5">
     <g id="line2d_5">
      <g>
       <use style="stroke:#000000;stroke-width:0.8;" x="336.193484" xlink:href="#m820c86b46e" y="307.584"/>
      </g>
     </g>
     <g id="text_5">
      <text style="font-family:DejaVu Sans;font-size:10px;font-style:normal;font-weight:normal;text-anchor:middle;" transform="rotate(-0, 336.193484, 322.182437)" x="336.193484" y="322.182437">0.4</text>
     </g>
    </g>
    <g id="xtick_6">
     <g id="line2d_6">
      <g>
       <use style="stroke:#000000;stroke-width:0.8;" x="401.800074" xlink:href="#m820c86b46e" y="307.584"/>
      </g>
     </g>
     <g id="text_6">
      <text style="font-family:DejaVu Sans;font-size:10px;font-style:normal;font-weight:normal;text-anchor:middle;" transform="rotate(-0, 401.800074, 322.182437)" x="401.800074" y="322.182437">0.5</text>
     </g>
    </g>
    <g id="text_7">
     <text style="font-family:DejaVu Sans;font-size:10px;font-style:normal;font-weight:normal;text-anchor:middle;" transform="rotate(-0, 236.16, 335.860562)" x="236.16" y="335.860562">Input Coin's Heads Probability (λ)</text>
    </g>
   </g>
   <g id="matplotlib.axis_2">
    <g id="ytick_1">
     <g id="line2d_7">
      <defs>
       <path d="M 0 0 
L -3.5 0 
" id="mcd0617b2b6" style="stroke:#000000;stroke-width:0.8;"/>
      </defs>
      <g>
       <use style="stroke:#000000;stroke-width:0.8;" x="57.6" xlink:href="#mcd0617b2b6" y="299.207528"/>
      </g>
     </g>
     <g id="text_8">
      <text style="font-family:DejaVu Sans;font-size:10px;font-style:normal;font-weight:normal;text-anchor:end;" transform="rotate(-0, 50.6, 303.006747)" x="50.6" y="303.006747">0</text>
     </g>
    </g>
    <g id="ytick_2">
     <g id="line2d_8">
      <g>
       <use style="stroke:#000000;stroke-width:0.8;" x="57.6" xlink:href="#mcd0617b2b6" y="256.157435"/>
      </g>
     </g>
     <g id="text_9">
      <text style="font-family:DejaVu Sans;font-size:10px;font-style:normal;font-weight:normal;text-anchor:end;" transform="rotate(-0, 50.6, 259.956653)" x="50.6" y="259.956653">20</text>
     </g>
    </g>
    <g id="ytick_3">
     <g id="line2d_9">
      <g>
       <use style="stroke:#000000;stroke-width:0.8;" x="57.6" xlink:href="#mcd0617b2b6" y="213.107341"/>
      </g>
     </g>
     <g id="text_10">
      <text style="font-family:DejaVu Sans;font-size:10px;font-style:normal;font-weight:normal;text-anchor:end;" transform="rotate(-0, 50.6, 216.90656)" x="50.6" y="216.90656">40</text>
     </g>
    </g>
    <g id="ytick_4">
     <g id="line2d_10">
      <g>
       <use style="stroke:#000000;stroke-width:0.8;" x="57.6" xlink:href="#mcd0617b2b6" y="170.057248"/>
      </g>
     </g>
     <g id="text_11">
      <text style="font-family:DejaVu Sans;font-size:10px;font-style:normal;font-weight:normal;text-anchor:end;" transform="rotate(-0, 50.6, 173.856467)" x="50.6" y="173.856467">60</text>
     </g>
    </g>
    <g id="ytick_5">
     <g id="line2d_11">
      <g>
       <use style="stroke:#000000;stroke-width:0.8;" x="57.6" xlink:href="#mcd0617b2b6" y="127.007154"/>
      </g>
     </g>
     <g id="text_12">
      <text style="font-family:DejaVu Sans;font-size:10px;font-style:normal;font-weight:normal;text-anchor:end;" transform="rotate(-0, 50.6, 130.806373)" x="50.6" y="130.806373">80</text>
     </g>
    </g>
    <g id="ytick_6">
     <g id="line2d_12">
      <g>
       <use style="stroke:#000000;stroke-width:0.8;" x="57.6" xlink:href="#mcd0617b2b6" y="83.957061"/>
      </g>
     </g>
     <g id="text_13">
      <text style="font-family:DejaVu Sans;font-size:10px;font-style:normal;font-weight:normal;text-anchor:end;" transform="rotate(-0, 50.6, 87.75628)" x="50.6" y="87.75628">100</text>
     </g>
    </g>
    <g id="text_14">
     <text style="font-family:DejaVu Sans;font-size:10px;font-style:normal;font-weight:normal;text-anchor:middle;" transform="rotate(-90, 25.432813, 174.528)" x="25.432813" y="174.528">Coin Flips Needed</text>
    </g>
   </g>
   <g id="line2d_13">
    <path clip-path="url(#pf0f9827c5e)" d="M 73.832727 294.902088 
L 80.45833 294.857698 
L 87.083933 294.811438 
L 93.709536 294.763189 
L 100.335139 294.712819 
L 106.960742 294.660185 
L 113.586345 294.605132 
L 120.211948 294.547487 
L 126.837551 294.487064 
L 133.463154 294.423658 
L 140.088757 294.357041 
L 146.71436 294.286964 
L 153.339963 294.213149 
L 159.965566 294.135289 
L 166.591169 294.053043 
L 173.216772 293.966029 
L 179.842375 293.873821 
L 186.467978 293.775937 
L 193.093581 293.671839 
L 199.719184 293.560915 
L 206.344787 293.442471 
L 212.97039 293.315715 
L 219.595993 293.17974 
L 226.221596 293.033503 
L 232.847199 292.875796 
L 239.472801 292.705215 
L 246.098404 292.520117 
L 252.724007 292.318566 
L 259.34961 292.098265 
L 265.975213 291.856472 
L 272.600816 291.58988 
L 279.226419 291.294467 
L 285.852022 290.965292 
L 292.477625 290.596218 
L 299.103228 290.17952 
L 305.728831 289.705348 
L 312.354434 289.160927 
L 318.980037 288.5294 
L 325.60564 287.788041 
L 332.231243 286.905471 
L 338.856846 285.837098 
L 345.482449 284.517342 
L 352.108052 282.845651 
L 358.733655 280.659593 
L 365.359258 277.678606 
L 371.984861 273.372736 
L 378.610464 266.606368 
L 385.236067 254.426905 
L 391.86167 226.00816 
L 398.487273 83.914433 
" style="fill:none;stroke:#1f77b4;stroke-linecap:square;stroke-width:1.5;"/>
   </g>
   <g id="line2d_14">
    <path clip-path="url(#pf0f9827c5e)" d="M 73.832727 283.804205 
L 80.45833 284.15291 
L 87.083933 282.727952 
L 93.709536 283.864475 
L 100.335139 281.72919 
L 106.960742 283.390924 
L 113.586345 283.563124 
L 120.211948 282.370637 
L 126.837551 283.287604 
L 133.463154 281.578515 
L 140.088757 282.659072 
L 146.71436 282.387857 
L 153.339963 278.948154 
L 159.965566 279.52933 
L 166.591169 281.60865 
L 173.216772 278.263658 
L 179.842375 281.819595 
L 186.467978 279.15049 
L 193.093581 278.939544 
L 199.719184 278.633888 
L 206.344787 278.298098 
L 212.97039 272.873786 
L 219.595993 279.748886 
L 226.221596 276.911885 
L 232.847199 275.848547 
L 239.472801 276.558874 
L 246.098404 272.30983 
L 252.724007 273.726178 
L 259.34961 270.252035 
L 265.975213 269.356593 
L 272.600816 271.427303 
L 279.226419 269.378118 
L 285.852022 266.041736 
L 292.477625 265.568185 
L 299.103228 266.373222 
L 305.728831 264.388613 
M 318.980037 255.864694 
L 325.60564 255.584868 
L 332.231243 239.901719 
L 338.856846 241.576368 
M 358.733655 211.127037 
" style="fill:none;stroke:#ff7f0e;stroke-linecap:square;stroke-width:1.5;"/>
   </g>
   <g id="line2d_15">
    <path clip-path="url(#pf0f9827c5e)" d="M 73.832727 273.459267 
L 80.45833 273.209577 
L 87.083933 273.807973 
L 93.709536 272.847956 
L 100.335139 272.692976 
L 106.960742 269.868889 
L 113.586345 269.481439 
L 120.211948 269.283408 
L 126.837551 269.490049 
L 133.463154 269.520184 
L 140.088757 268.917482 
L 146.71436 269.059548 
L 153.339963 269.102598 
L 159.965566 263.25209 
L 166.591169 265.34002 
L 173.216772 265.068804 
L 179.842375 262.257633 
L 186.467978 262.886164 
L 193.093581 260.294549 
L 199.719184 260.031943 
L 206.344787 260.092213 
L 212.97039 257.147587 
L 219.595993 256.48892 
L 226.221596 256.936641 
L 232.847199 254.060895 
L 239.472801 247.611991 
L 246.098404 252.102116 
L 252.724007 247.870292 
L 259.34961 245.687652 
L 265.975213 245.386301 
L 272.600816 242.55791 
L 279.226419 231.748032 
L 285.852022 234.438663 
L 292.477625 229.358751 
L 299.103228 228.55802 
L 305.728831 218.824394 
L 312.354434 214.575349 
L 318.980037 216.103628 
M 332.231243 204.639388 
" style="fill:none;stroke:#2ca02c;stroke-linecap:square;stroke-width:1.5;"/>
   </g>
   <g id="line2d_16">
    <path clip-path="url(#pf0f9827c5e)" d="M 73.832727 295.488 
L 80.45833 294.786283 
L 87.083933 294.218022 
L 93.709536 293.460341 
L 100.335139 292.539069 
L 106.960742 291.548916 
L 113.586345 290.631949 
L 120.211948 291.294921 
L 126.837551 287.205162 
L 133.463154 287.652883 
L 140.088757 286.649816 
L 146.71436 284.17874 
L 153.339963 280.825138 
L 159.965566 275.973393 
L 166.591169 277.811632 
L 173.216772 275.598857 
L 179.842375 274.59579 
L 186.467978 273.002936 
L 193.093581 268.805552 
L 199.719184 264.569423 
L 206.344787 265.843706 
L 212.97039 260.402174 
L 219.595993 255.283518 
L 226.221596 254.990777 
L 232.847199 247.366606 
" style="fill:none;stroke:#d62728;stroke-linecap:square;stroke-width:1.5;"/>
   </g>
   <g id="line2d_17">
    <path clip-path="url(#pf0f9827c5e)" d="M 73.832727 286.951166 
L 80.45833 286.654121 
L 87.083933 286.856456 
L 93.709536 286.13752 
L 100.335139 286.860761 
L 106.960742 286.520666 
L 113.586345 282.331891 
L 120.211948 282.981948 
L 126.837551 283.188588 
L 133.463154 282.482567 
L 140.088757 281.419229 
L 146.71436 282.702122 
L 153.339963 283.696579 
L 159.965566 281.85834 
L 166.591169 282.374942 
L 173.216772 279.628346 
L 179.842375 279.004119 
L 186.467978 278.117287 
L 193.093581 277.803022 
L 199.719184 275.474012 
L 206.344787 279.31408 
L 212.97039 275.284591 
L 219.595993 273.067511 
L 226.221596 271.483268 
M 239.472801 263.721336 
L 246.098404 269.623504 
L 252.724007 268.422406 
L 259.34961 265.57249 
L 265.975213 259.102061 
L 272.600816 260.518409 
M 285.852022 255.240468 
L 292.477625 252.907153 
M 338.856846 237.383289 
" style="fill:none;stroke:#9467bd;stroke-linecap:square;stroke-width:1.5;"/>
   </g>
   <g id="line2d_18">
    <path clip-path="url(#pf0f9827c5e)" d="M 80.45833 53.568 
L 87.083933 152.514335 
L 93.709536 184.896615 
L 100.335139 201.630186 
L 106.960742 210.19285 
L 113.586345 221.58821 
L 120.211948 226.082639 
L 126.837551 228.57524 
L 133.463154 232.867334 
L 140.088757 237.254139 
L 146.71436 238.239986 
L 153.339963 235.77752 
L 159.965566 239.320543 
L 166.591169 242.4632 
L 173.216772 242.734416 
L 179.842375 244.86109 
L 186.467978 241.503183 
L 193.093581 243.513622 
L 199.719184 243.969953 
L 206.344787 245.037596 
L 212.97039 244.59418 
L 219.595993 243.152001 
L 226.221596 242.988411 
L 232.847199 241.016717 
" style="fill:none;stroke:#8c564b;stroke-linecap:square;stroke-width:1.5;"/>
   </g>
   <g id="patch_3">
    <path d="M 57.6 307.584 
L 57.6 41.472 
" style="fill:none;stroke:#000000;stroke-linecap:square;stroke-linejoin:miter;stroke-width:0.8;"/>
   </g>
   <g id="patch_4">
    <path d="M 414.72 307.584 
L 414.72 41.472 
" style="fill:none;stroke:#000000;stroke-linecap:square;stroke-linejoin:miter;stroke-width:0.8;"/>
   </g>
   <g id="patch_5">
    <path d="M 57.6 307.584 
L 414.72 307.584 
" style="fill:none;stroke:#000000;stroke-linecap:square;stroke-linejoin:miter;stroke-width:0.8;"/>
   </g>
   <g id="patch_6">
    <path d="M 57.6 41.472 
L 414.72 41.472 
" style="fill:none;stroke:#000000;stroke-linecap:square;stroke-linejoin:miter;stroke-width:0.8;"/>
   </g>
   <g id="text_15">
    <text style="font-family:DejaVu Sans;font-size:12px;font-style:normal;font-weight:normal;text-anchor:middle;" transform="rotate(-0, 236.16, 35.472)" x="236.16" y="35.472">Coin Flips for x*2.0</text>
   </g>
   <g id="legend_1">
    <g id="patch_7">
     <path d="M 101.533437 137.54075 
L 370.786563 137.54075 
Q 372.786563 137.54075 372.786563 135.54075 
L 372.786563 48.472 
Q 372.786563 46.472 370.786563 46.472 
L 101.533437 46.472 
Q 99.533437 46.472 99.533437 48.472 
L 99.533437 135.54075 
Q 99.533437 137.54075 101.533437 137.54075 
z
" style="fill:#ffffff;opacity:0.8;stroke:#cccccc;stroke-linejoin:miter;"/>
    </g>
    <g id="line2d_19">
     <path d="M 103.533437 54.570438 
L 123.533437 54.570438 
" style="fill:none;stroke:#1f77b4;stroke-linecap:square;stroke-width:1.5;"/>
    </g>
    <g id="line2d_20"/>
    <g id="text_16">
     <text style="font-family:DejaVu Sans;font-size:10px;font-style:normal;font-weight:normal;text-anchor:start;" transform="rotate(-0, 131.533437, 58.070438)" x="131.533437" y="58.070438">Coin Flip Lower Bound</text>
    </g>
    <g id="line2d_21">
     <path d="M 103.533437 69.248563 
L 123.533437 69.248563 
" style="fill:none;stroke:#ff7f0e;stroke-linecap:square;stroke-width:1.5;"/>
    </g>
    <g id="line2d_22"/>
    <g id="text_17">
     <text style="font-family:DejaVu Sans;font-size:10px;font-style:normal;font-weight:normal;text-anchor:start;" transform="rotate(-0, 131.533437, 72.748563)" x="131.533437" y="72.748563">Avg. Coins Flipped 2014 Lin. x*2.0</text>
    </g>
    <g id="line2d_23">
     <path d="M 103.533437 83.926688 
L 123.533437 83.926688 
" style="fill:none;stroke:#2ca02c;stroke-linecap:square;stroke-width:1.5;"/>
    </g>
    <g id="line2d_24"/>
    <g id="text_18">
     <text style="font-family:DejaVu Sans;font-size:10px;font-style:normal;font-weight:normal;text-anchor:start;" transform="rotate(-0, 131.533437, 87.426688)" x="131.533437" y="87.426688">Avg. Coins Flipped 2016 Lin. x*2.0</text>
    </g>
    <g id="line2d_25">
     <path d="M 103.533437 98.604813 
L 123.533437 98.604813 
" style="fill:none;stroke:#d62728;stroke-linecap:square;stroke-width:1.5;"/>
    </g>
    <g id="line2d_26"/>
    <g id="text_19">
     <text style="font-family:DejaVu Sans;font-size:10px;font-style:normal;font-weight:normal;text-anchor:start;" transform="rotate(-0, 131.533437, 102.104813)" x="131.533437" y="102.104813">Avg. Coins Flipped Low-Mean Lin. x*2.0</text>
    </g>
    <g id="line2d_27">
     <path d="M 103.533437 113.282938 
L 123.533437 113.282938 
" style="fill:none;stroke:#9467bd;stroke-linecap:square;stroke-width:1.5;"/>
    </g>
    <g id="line2d_28"/>
    <g id="text_20">
     <text style="font-family:DejaVu Sans;font-size:10px;font-style:normal;font-weight:normal;text-anchor:start;" transform="rotate(-0, 131.533437, 116.782938)" x="131.533437" y="116.782938">Avg. Coins Flipped 2019x*2.0</text>
    </g>
    <g id="line2d_29">
     <path d="M 103.533437 127.961063 
L 123.533437 127.961063 
" style="fill:none;stroke:#8c564b;stroke-linecap:square;stroke-width:1.5;"/>
    </g>
    <g id="line2d_30"/>
    <g id="text_21">
     <text style="font-family:DejaVu Sans;font-size:10px;font-style:normal;font-weight:normal;text-anchor:start;" transform="rotate(-0, 131.533437, 131.461063)" x="131.533437" y="131.461063">Avg. Coins Flipped Low-Mean M=0.49999 x*2.0</text>
    </g>
   </g>
  </g>
 </g>
 <defs>
  <clipPath id="pf0f9827c5e">
   <rect height="266.112" width="357.12" x="57.6" y="41.472"/>
  </clipPath>
 </defs>
</svg>
