<?xml version="1.0" encoding="utf-8" standalone="no"?>
<!DOCTYPE svg PUBLIC "-//W3C//DTD SVG 1.1//EN"
  "http://www.w3.org/Graphics/SVG/1.1/DTD/svg11.dtd">
<!-- Created with matplotlib (https://matplotlib.org/) -->
<svg height="345.6pt" version="1.1" viewBox="0 0 460.8 345.6" width="460.8pt" xmlns="http://www.w3.org/2000/svg" xmlns:xlink="http://www.w3.org/1999/xlink">
 <defs>
  <style type="text/css">
*{stroke-linecap:butt;stroke-linejoin:round;}
  </style>
 </defs>
 <g id="figure_1">
  <g id="patch_1">
   <path d="M 0 345.6 
L 460.8 345.6 
L 460.8 0 
L 0 0 
z
" style="fill:#ffffff;"/>
  </g>
  <g id="axes_1">
   <g id="patch_2">
    <path d="M 57.6 307.584 
L 414.72 307.584 
L 414.72 41.472 
L 57.6 41.472 
z
" style="fill:#ffffff;"/>
   </g>
   <g id="matplotlib.axis_1">
    <g id="xtick_1">
     <g id="line2d_1">
      <defs>
       <path d="M 0 0 
L 0 3.5 
" id="m20ca0fd988" style="stroke:#000000;stroke-width:0.8;"/>
      </defs>
      <g>
       <use style="stroke:#000000;stroke-width:0.8;" x="73.789285" xlink:href="#m20ca0fd988" y="307.584"/>
      </g>
     </g>
     <g id="text_1">
      <text style="font-family:DejaVu Sans;font-size:10px;font-style:normal;font-weight:normal;text-anchor:middle;" transform="rotate(-0, 73.789285, 322.182437)" x="73.789285" y="322.182437">0.0</text>
     </g>
    </g>
    <g id="xtick_2">
     <g id="line2d_2">
      <g>
       <use style="stroke:#000000;stroke-width:0.8;" x="117.231487" xlink:href="#m20ca0fd988" y="307.584"/>
      </g>
     </g>
     <g id="text_2">
      <text style="font-family:DejaVu Sans;font-size:10px;font-style:normal;font-weight:normal;text-anchor:middle;" transform="rotate(-0, 117.231487, 322.182437)" x="117.231487" y="322.182437">0.1</text>
     </g>
    </g>
    <g id="xtick_3">
     <g id="line2d_3">
      <g>
       <use style="stroke:#000000;stroke-width:0.8;" x="160.673689" xlink:href="#m20ca0fd988" y="307.584"/>
      </g>
     </g>
     <g id="text_3">
      <text style="font-family:DejaVu Sans;font-size:10px;font-style:normal;font-weight:normal;text-anchor:middle;" transform="rotate(-0, 160.673689, 322.182437)" x="160.673689" y="322.182437">0.2</text>
     </g>
    </g>
    <g id="xtick_4">
     <g id="line2d_4">
      <g>
       <use style="stroke:#000000;stroke-width:0.8;" x="204.115891" xlink:href="#m20ca0fd988" y="307.584"/>
      </g>
     </g>
     <g id="text_4">
      <text style="font-family:DejaVu Sans;font-size:10px;font-style:normal;font-weight:normal;text-anchor:middle;" transform="rotate(-0, 204.115891, 322.182437)" x="204.115891" y="322.182437">0.3</text>
     </g>
    </g>
    <g id="xtick_5">
     <g id="line2d_5">
      <g>
       <use style="stroke:#000000;stroke-width:0.8;" x="247.558093" xlink:href="#m20ca0fd988" y="307.584"/>
      </g>
     </g>
     <g id="text_5">
      <text style="font-family:DejaVu Sans;font-size:10px;font-style:normal;font-weight:normal;text-anchor:middle;" transform="rotate(-0, 247.558093, 322.182437)" x="247.558093" y="322.182437">0.4</text>
     </g>
    </g>
    <g id="xtick_6">
     <g id="line2d_6">
      <g>
       <use style="stroke:#000000;stroke-width:0.8;" x="291.000295" xlink:href="#m20ca0fd988" y="307.584"/>
      </g>
     </g>
     <g id="text_6">
      <text style="font-family:DejaVu Sans;font-size:10px;font-style:normal;font-weight:normal;text-anchor:middle;" transform="rotate(-0, 291.000295, 322.182437)" x="291.000295" y="322.182437">0.5</text>
     </g>
    </g>
    <g id="xtick_7">
     <g id="line2d_7">
      <g>
       <use style="stroke:#000000;stroke-width:0.8;" x="334.442497" xlink:href="#m20ca0fd988" y="307.584"/>
      </g>
     </g>
     <g id="text_7">
      <text style="font-family:DejaVu Sans;font-size:10px;font-style:normal;font-weight:normal;text-anchor:middle;" transform="rotate(-0, 334.442497, 322.182437)" x="334.442497" y="322.182437">0.6</text>
     </g>
    </g>
    <g id="xtick_8">
     <g id="line2d_8">
      <g>
       <use style="stroke:#000000;stroke-width:0.8;" x="377.884699" xlink:href="#m20ca0fd988" y="307.584"/>
      </g>
     </g>
     <g id="text_8">
      <text style="font-family:DejaVu Sans;font-size:10px;font-style:normal;font-weight:normal;text-anchor:middle;" transform="rotate(-0, 377.884699, 322.182437)" x="377.884699" y="322.182437">0.7</text>
     </g>
    </g>
    <g id="text_9">
     <text style="font-family:DejaVu Sans;font-size:10px;font-style:normal;font-weight:normal;text-anchor:middle;" transform="rotate(-0, 236.16, 335.860562)" x="236.16" y="335.860562">Probability</text>
    </g>
   </g>
   <g id="matplotlib.axis_2">
    <g id="ytick_1">
     <g id="line2d_9">
      <defs>
       <path d="M 0 0 
L -3.5 0 
" id="mf07e0072be" style="stroke:#000000;stroke-width:0.8;"/>
      </defs>
      <g>
       <use style="stroke:#000000;stroke-width:0.8;" x="57.6" xlink:href="#mf07e0072be" y="274.788225"/>
      </g>
     </g>
     <g id="text_10">
      <text style="font-family:DejaVu Sans;font-size:10px;font-style:normal;font-weight:normal;text-anchor:end;" transform="rotate(-0, 50.6, 278.587443)" x="50.6" y="278.587443">100</text>
     </g>
    </g>
    <g id="ytick_2">
     <g id="line2d_10">
      <g>
       <use style="stroke:#000000;stroke-width:0.8;" x="57.6" xlink:href="#mf07e0072be" y="241.615508"/>
      </g>
     </g>
     <g id="text_11">
      <text style="font-family:DejaVu Sans;font-size:10px;font-style:normal;font-weight:normal;text-anchor:end;" transform="rotate(-0, 50.6, 245.414726)" x="50.6" y="245.414726">200</text>
     </g>
    </g>
    <g id="ytick_3">
     <g id="line2d_11">
      <g>
       <use style="stroke:#000000;stroke-width:0.8;" x="57.6" xlink:href="#mf07e0072be" y="208.442791"/>
      </g>
     </g>
     <g id="text_12">
      <text style="font-family:DejaVu Sans;font-size:10px;font-style:normal;font-weight:normal;text-anchor:end;" transform="rotate(-0, 50.6, 212.242009)" x="50.6" y="212.242009">300</text>
     </g>
    </g>
    <g id="ytick_4">
     <g id="line2d_12">
      <g>
       <use style="stroke:#000000;stroke-width:0.8;" x="57.6" xlink:href="#mf07e0072be" y="175.270074"/>
      </g>
     </g>
     <g id="text_13">
      <text style="font-family:DejaVu Sans;font-size:10px;font-style:normal;font-weight:normal;text-anchor:end;" transform="rotate(-0, 50.6, 179.069292)" x="50.6" y="179.069292">400</text>
     </g>
    </g>
    <g id="ytick_5">
     <g id="line2d_13">
      <g>
       <use style="stroke:#000000;stroke-width:0.8;" x="57.6" xlink:href="#mf07e0072be" y="142.097357"/>
      </g>
     </g>
     <g id="text_14">
      <text style="font-family:DejaVu Sans;font-size:10px;font-style:normal;font-weight:normal;text-anchor:end;" transform="rotate(-0, 50.6, 145.896575)" x="50.6" y="145.896575">500</text>
     </g>
    </g>
    <g id="ytick_6">
     <g id="line2d_14">
      <g>
       <use style="stroke:#000000;stroke-width:0.8;" x="57.6" xlink:href="#mf07e0072be" y="108.92464"/>
      </g>
     </g>
     <g id="text_15">
      <text style="font-family:DejaVu Sans;font-size:10px;font-style:normal;font-weight:normal;text-anchor:end;" transform="rotate(-0, 50.6, 112.723858)" x="50.6" y="112.723858">600</text>
     </g>
    </g>
    <g id="ytick_7">
     <g id="line2d_15">
      <g>
       <use style="stroke:#000000;stroke-width:0.8;" x="57.6" xlink:href="#mf07e0072be" y="75.751923"/>
      </g>
     </g>
     <g id="text_16">
      <text style="font-family:DejaVu Sans;font-size:10px;font-style:normal;font-weight:normal;text-anchor:end;" transform="rotate(-0, 50.6, 79.551142)" x="50.6" y="79.551142">700</text>
     </g>
    </g>
    <g id="ytick_8">
     <g id="line2d_16">
      <g>
       <use style="stroke:#000000;stroke-width:0.8;" x="57.6" xlink:href="#mf07e0072be" y="42.579206"/>
      </g>
     </g>
     <g id="text_17">
      <text style="font-family:DejaVu Sans;font-size:10px;font-style:normal;font-weight:normal;text-anchor:end;" transform="rotate(-0, 50.6, 46.378425)" x="50.6" y="46.378425">800</text>
     </g>
    </g>
    <g id="text_18">
     <text style="font-family:DejaVu Sans;font-size:10px;font-style:normal;font-weight:normal;text-anchor:middle;" transform="rotate(-90, 25.432812, 174.528)" x="25.432812" y="174.528">Average Bits Consumed Per Call</text>
    </g>
   </g>
   <g id="line2d_17">
    <path clip-path="url(#p4fbf820abc)" d="M 73.832727 292.720732 
L 78.219951 292.83551 
L 82.607174 293.456503 
L 86.994398 294.770142 
L 91.381622 293.975324 
L 95.768845 294.639442 
L 100.156069 294.30108 
L 104.543292 295.488 
L 108.930516 294.742941 
L 113.31774 293.232255 
L 117.704963 291.197441 
L 122.092187 295.313512 
L 126.47941 294.269234 
L 130.866634 292.243045 
L 135.253857 293.842633 
L 139.641081 293.88045 
L 144.028305 293.177189 
L 148.415528 291.678445 
L 152.802752 294.091429 
L 157.189975 293.258793 
L 161.577199 293.18316 
L 165.964423 293.903008 
L 170.351646 291.62935 
L 174.73887 293.371581 
L 179.126093 292.999383 
L 183.513317 291.643282 
L 187.900541 289.871196 
L 192.287764 290.403286 
L 196.674988 291.733512 
L 201.062211 292.034057 
L 205.449435 290.115347 
L 209.836658 290.563842 
L 214.223882 291.152326 
L 218.611106 290.050328 
L 222.998329 290.756244 
L 227.385553 291.149672 
L 231.772776 289.329817 
L 236.16 288.753275 
L 240.547224 289.085666 
L 244.934447 289.404124 
L 249.321671 287.923957 
L 253.708894 289.922282 
L 258.096118 287.902727 
L 262.483342 290.157808 
L 266.870565 286.319724 
L 271.257789 288.387048 
L 275.645012 284.386419 
L 280.032236 288.629872 
L 284.419459 287.585595 
L 288.806683 281.48845 
L 293.193907 289.116848 
L 297.58113 282.533391 
L 301.968354 284.268324 
L 306.355577 282.97127 
L 310.742801 286.691259 
L 315.130025 285.174602 
L 319.517248 279.129206 
L 323.904472 284.584128 
L 328.291695 281.507027 
L 332.678919 277.729981 
L 337.066143 280.480663 
L 341.453366 276.147643 
L 345.84059 269.676972 
L 350.227813 284.779184 
L 354.615037 272.665834 
L 359.00226 271.834526 
M 367.776708 274.331768 
L 372.163931 274.625678 
L 376.551155 276.443543 
L 380.938378 267.292517 
L 385.325602 267.484919 
M 398.487273 266.112232 
" style="fill:none;stroke:#1f77b4;stroke-linecap:square;stroke-width:1.5;"/>
   </g>
   <g id="line2d_18">
    <path clip-path="url(#p4fbf820abc)" d="M 73.832727 280.753343 
L 78.219951 281.047916 
L 82.607174 280.797794 
L 86.994398 281.134829 
L 91.381622 280.682353 
L 95.768845 280.655151 
L 100.156069 281.211126 
L 104.543292 281.135492 
L 108.930516 280.4455 
L 113.31774 278.880411 
L 117.704963 281.071801 
L 122.092187 279.943928 
L 126.47941 280.560941 
L 130.866634 281.433383 
L 135.253857 280.547008 
L 139.641081 277.059229 
L 144.028305 276.332746 
L 148.415528 275.092087 
L 152.802752 276.241853 
L 157.189975 276.267064 
L 161.577199 277.207843 
L 165.964423 275.044318 
L 170.351646 275.773454 
L 174.73887 274.360297 
L 179.126093 277.215804 
L 183.513317 276.79252 
L 187.900541 271.908169 
L 192.287764 272.273069 
L 196.674988 271.38404 
L 201.062211 273.745274 
L 205.449435 270.261476 
L 209.836658 273.469941 
L 214.223882 271.6952 
L 218.611106 274.433277 
L 222.998329 269.13294 
L 227.385553 266.447277 
L 231.772776 267.265979 
L 236.16 263.553289 
L 240.547224 266.396191 
L 244.934447 265.661747 
L 249.321671 263.52277 
L 253.708894 264.36204 
L 258.096118 263.834593 
L 262.483342 264.153715 
L 266.870565 265.495883 
L 271.257789 262.548155 
L 275.645012 257.512537 
L 280.032236 256.986418 
L 284.419459 258.487151 
L 288.806683 252.66534 
L 293.193907 254.122949 
L 297.58113 253.924576 
L 301.968354 249.755429 
L 306.355577 243.909733 
L 310.742801 247.090996 
L 315.130025 244.446467 
L 319.517248 253.001048 
L 323.904472 242.629266 
L 328.291695 234.600141 
L 332.678919 228.930924 
L 337.066143 236.76632 
L 341.453366 234.237895 
M 354.615037 221.747041 
L 359.00226 234.186809 
L 363.389484 220.64836 
" style="fill:none;stroke:#ff7f0e;stroke-linecap:square;stroke-width:1.5;"/>
   </g>
   <g id="line2d_19">
    <path clip-path="url(#p4fbf820abc)" d="M 148.415528 53.568 
L 152.802752 89.475476 
M 161.577199 141.981252 
M 174.73887 182.898472 
L 179.126093 180.234703 
L 183.513317 201.736594 
L 187.900541 210.708487 
L 192.287764 209.908361 
L 196.674988 215.462801 
L 201.062211 226.303645 
L 205.449435 228.341777 
L 209.836658 232.207725 
L 214.223882 235.254307 
L 218.611106 238.071335 
L 222.998329 235.827532 
L 227.385553 241.742891 
L 231.772776 247.636356 
L 236.16 252.527341 
L 240.547224 249.827745 
M 249.321671 261.291573 
L 253.708894 260.382641 
L 258.096118 259.662129 
M 271.257789 270.916969 
L 275.645012 274.537439 
M 284.419459 273.153473 
L 288.806683 276.209344 
" style="fill:none;stroke:#2ca02c;stroke-linecap:square;stroke-width:1.5;"/>
   </g>
   <g id="patch_3">
    <path d="M 57.6 307.584 
L 57.6 41.472 
" style="fill:none;stroke:#000000;stroke-linecap:square;stroke-linejoin:miter;stroke-width:0.8;"/>
   </g>
   <g id="patch_4">
    <path d="M 414.72 307.584 
L 414.72 41.472 
" style="fill:none;stroke:#000000;stroke-linecap:square;stroke-linejoin:miter;stroke-width:0.8;"/>
   </g>
   <g id="patch_5">
    <path d="M 57.6 307.584 
L 414.72 307.584 
" style="fill:none;stroke:#000000;stroke-linecap:square;stroke-linejoin:miter;stroke-width:0.8;"/>
   </g>
   <g id="patch_6">
    <path d="M 57.6 41.472 
L 414.72 41.472 
" style="fill:none;stroke:#000000;stroke-linecap:square;stroke-linejoin:miter;stroke-width:0.8;"/>
   </g>
   <g id="text_19">
    <text style="font-family:DejaVu Sans;font-size:12px;font-style:normal;font-weight:normal;text-anchor:middle;" transform="rotate(-0, 236.16, 35.472)" x="236.16" y="35.472">Avg. Bits Consumed</text>
   </g>
   <g id="legend_1">
    <g id="patch_7">
     <path d="M 291.171562 93.506375 
L 407.72 93.506375 
Q 409.72 93.506375 409.72 91.506375 
L 409.72 48.472 
Q 409.72 46.472 407.72 46.472 
L 291.171562 46.472 
Q 289.171562 46.472 289.171562 48.472 
L 289.171562 91.506375 
Q 289.171562 93.506375 291.171562 93.506375 
z
" style="fill:#ffffff;opacity:0.8;stroke:#cccccc;stroke-linejoin:miter;"/>
    </g>
    <g id="line2d_20">
     <path d="M 293.171562 54.570438 
L 313.171562 54.570438 
" style="fill:none;stroke:#1f77b4;stroke-linecap:square;stroke-width:1.5;"/>
    </g>
    <g id="line2d_21"/>
    <g id="text_20">
     <text style="font-family:DejaVu Sans;font-size:10px;font-style:normal;font-weight:normal;text-anchor:start;" transform="rotate(-0, 321.171562, 58.070438)" x="321.171562" y="58.070438">2014 Add. x+0.1</text>
    </g>
    <g id="line2d_22">
     <path d="M 293.171562 69.248563 
L 313.171562 69.248563 
" style="fill:none;stroke:#ff7f0e;stroke-linecap:square;stroke-width:1.5;"/>
    </g>
    <g id="line2d_23"/>
    <g id="text_21">
     <text style="font-family:DejaVu Sans;font-size:10px;font-style:normal;font-weight:normal;text-anchor:start;" transform="rotate(-0, 321.171562, 72.748563)" x="321.171562" y="72.748563">2016 Add. x+0.1</text>
    </g>
    <g id="line2d_24">
     <path d="M 293.171562 83.926688 
L 313.171562 83.926688 
" style="fill:none;stroke:#2ca02c;stroke-linecap:square;stroke-width:1.5;"/>
    </g>
    <g id="line2d_25"/>
    <g id="text_22">
     <text style="font-family:DejaVu Sans;font-size:10px;font-style:normal;font-weight:normal;text-anchor:start;" transform="rotate(-0, 321.171562, 87.426688)" x="321.171562" y="87.426688">2019 Add. x+0.1</text>
    </g>
   </g>
  </g>
 </g>
 <defs>
  <clipPath id="p4fbf820abc">
   <rect height="266.112" width="357.12" x="57.6" y="41.472"/>
  </clipPath>
 </defs>
</svg>
