<svg height="460.8" viewBox="0 0 460.8 345.6" width="614.4" xmlns="http://www.w3.org/2000/svg" xmlns:xlink="http://www.w3.org/1999/xlink"><defs><style>*{stroke-linecap:butt;stroke-linejoin:round}</style></defs><g id="figure_1"><path d="M0 345.6h460.8V0H0z" fill="#fff" id="patch_1"/><g id="axes_1"><path d="M57.6 307.584h357.12V41.472H57.6z" fill="#fff" id="patch_2"/><g id="matplotlib.axis_1"><g id="xtick_1"><g id="line2d_1"><defs><path d="M0 0v3.5" id="m9eb409ece7" stroke="#000" stroke-width=".8"/></defs><use x="73.373" xlink:href="#m9eb409ece7" y="307.584" stroke="#000" stroke-width=".8"/></g><text x="73.373" y="322.182" font-family="DejaVu Sans" font-size="10" font-weight="400" text-anchor="middle" id="text_1">0.00</text></g><g id="xtick_2"><use x="119.298" xlink:href="#m9eb409ece7" y="307.584" stroke="#000" stroke-width=".8" id="line2d_2"/><text x="119.298" y="322.182" font-family="DejaVu Sans" font-size="10" font-weight="400" text-anchor="middle" id="text_2">0.01</text></g><g id="xtick_3"><use x="165.223" xlink:href="#m9eb409ece7" y="307.584" stroke="#000" stroke-width=".8" id="line2d_3"/><text x="165.223" y="322.182" font-family="DejaVu Sans" font-size="10" font-weight="400" text-anchor="middle" id="text_3">0.02</text></g><g id="xtick_4"><use x="211.147" xlink:href="#m9eb409ece7" y="307.584" stroke="#000" stroke-width=".8" id="line2d_4"/><text x="211.147" y="322.182" font-family="DejaVu Sans" font-size="10" font-weight="400" text-anchor="middle" id="text_4">0.03</text></g><g id="xtick_5"><use x="257.072" xlink:href="#m9eb409ece7" y="307.584" stroke="#000" stroke-width=".8" id="line2d_5"/><text x="257.072" y="322.182" font-family="DejaVu Sans" font-size="10" font-weight="400" text-anchor="middle" id="text_5">0.04</text></g><g id="xtick_6"><use x="302.997" xlink:href="#m9eb409ece7" y="307.584" stroke="#000" stroke-width=".8" id="line2d_6"/><text x="302.997" y="322.182" font-family="DejaVu Sans" font-size="10" font-weight="400" text-anchor="middle" id="text_6">0.05</text></g><g id="xtick_7"><use x="348.921" xlink:href="#m9eb409ece7" y="307.584" stroke="#000" stroke-width=".8" id="line2d_7"/><text x="348.921" y="322.182" font-family="DejaVu Sans" font-size="10" font-weight="400" text-anchor="middle" id="text_7">0.06</text></g><g id="xtick_8"><use x="394.846" xlink:href="#m9eb409ece7" y="307.584" stroke="#000" stroke-width=".8" id="line2d_8"/><text x="394.846" y="322.182" font-family="DejaVu Sans" font-size="10" font-weight="400" text-anchor="middle" id="text_8">0.07</text></g><text x="236.16" y="335.861" font-family="DejaVu Sans" font-size="10" font-weight="400" text-anchor="middle" id="text_9">Probability</text></g><g id="matplotlib.axis_2"><g id="ytick_1"><g id="line2d_9"><defs><path d="M0 0h-3.5" id="mf481729550" stroke="#000" stroke-width=".8"/></defs><use x="57.6" xlink:href="#mf481729550" y="268.106" stroke="#000" stroke-width=".8"/></g><text x="50.6" y="271.905" font-family="DejaVu Sans" font-size="10" font-weight="400" text-anchor="end" id="text_10">100</text></g><g id="ytick_2"><use x="57.6" xlink:href="#mf481729550" y="228.004" stroke="#000" stroke-width=".8" id="line2d_10"/><text x="50.6" y="231.803" font-family="DejaVu Sans" font-size="10" font-weight="400" text-anchor="end" id="text_11">200</text></g><g id="ytick_3"><use x="57.6" xlink:href="#mf481729550" y="187.902" stroke="#000" stroke-width=".8" id="line2d_11"/><text x="50.6" y="191.701" font-family="DejaVu Sans" font-size="10" font-weight="400" text-anchor="end" id="text_12">300</text></g><g id="ytick_4"><use x="57.6" xlink:href="#mf481729550" y="147.799" stroke="#000" stroke-width=".8" id="line2d_12"/><text x="50.6" y="151.599" font-family="DejaVu Sans" font-size="10" font-weight="400" text-anchor="end" id="text_13">400</text></g><g id="ytick_5"><use x="57.6" xlink:href="#mf481729550" y="107.697" stroke="#000" stroke-width=".8" id="line2d_13"/><text x="50.6" y="111.496" font-family="DejaVu Sans" font-size="10" font-weight="400" text-anchor="end" id="text_14">500</text></g><g id="ytick_6"><use x="57.6" xlink:href="#mf481729550" y="67.595" stroke="#000" stroke-width=".8" id="line2d_14"/><text x="50.6" y="71.394" font-family="DejaVu Sans" font-size="10" font-weight="400" text-anchor="end" id="text_15">600</text></g><text transform="rotate(-90 25.433 174.528)" x="25.433" y="174.528" font-family="DejaVu Sans" font-size="10" font-weight="400" text-anchor="middle" id="text_16">Average Bits Consumed Per Call</text></g><path clip-path="url(#p0ebcf9b971)" d="M73.833 231.48l46.379-3.03 46.38-11.638 46.378 3.66 46.38-10.717m92.758-10.345l46.38-13" fill="none" stroke="#1f77b4" stroke-linecap="square" stroke-width="1.5" id="line2d_15"/><path clip-path="url(#p0ebcf9b971)" d="M73.833 228.65l46.379-3.67 46.38-11.55 46.378-1.163 46.38-22.55 46.379-11.384 46.38.586 46.378-36.995" fill="none" stroke="#ff7f0e" stroke-linecap="square" stroke-width="1.5" id="line2d_16"/><path clip-path="url(#p0ebcf9b971)" d="M73.833 295.488l46.379-4.82 46.38-6.6 46.378-6.928 46.38-17.417 46.379-31.523" fill="none" stroke="#2ca02c" stroke-linecap="square" stroke-width="1.5" id="line2d_17"/><path clip-path="url(#p0ebcf9b971)" d="M73.833 266.92l46.379.721 46.38-14.152 46.378.793 46.38-15.547m92.758-16.47l46.38-13.926" fill="none" stroke="#d62728" stroke-linecap="square" stroke-width="1.5" id="line2d_18"/><path clip-path="url(#p0ebcf9b971)" d="M120.212 53.568l46.38 76.124 46.378 18.273 46.38 18.708 46.379 12.437 46.38 5.497" fill="none" stroke="#9467bd" stroke-linecap="square" stroke-width="1.5" id="line2d_19"/><path d="M57.6 307.584V41.472" fill="none" stroke="#000" stroke-linecap="square" stroke-width=".8" id="patch_3"/><path d="M414.72 307.584V41.472" fill="none" stroke="#000" stroke-linecap="square" stroke-width=".8" id="patch_4"/><path d="M57.6 307.584h357.12" fill="none" stroke="#000" stroke-linecap="square" stroke-width=".8" id="patch_5"/><path d="M57.6 41.472h357.12" fill="none" stroke="#000" stroke-linecap="square" stroke-width=".8" id="patch_6"/><text x="236.16" y="35.472" font-family="DejaVu Sans" font-size="12" font-weight="400" text-anchor="middle" id="text_17">Avg. Bits Consumed by 2014 Lin. x*8.0 Algorithm</text><g id="legend_1"><path d="M233.632 122.863H407.72q2 0 2-2V48.472q0-2-2-2H233.632q-2 0-2 2v72.39q0 2 2 2z" fill="#fff" opacity=".8" stroke="#ccc" id="patch_7"/><path d="M235.632 54.57h20" fill="none" stroke="#1f77b4" stroke-linecap="square" stroke-width="1.5" id="line2d_20"/><text x="263.632" y="58.07" font-family="DejaVu Sans" font-size="10" font-weight="400" id="text_18">2014 Lin. x*8.0</text><path d="M235.632 69.249h20" fill="none" stroke="#ff7f0e" stroke-linecap="square" stroke-width="1.5" id="line2d_22"/><text x="263.632" y="72.749" font-family="DejaVu Sans" font-size="10" font-weight="400" id="text_19">2016 Lin. x*8.0</text><path d="M235.632 83.927h20" fill="none" stroke="#2ca02c" stroke-linecap="square" stroke-width="1.5" id="line2d_24"/><text x="263.632" y="87.427" font-family="DejaVu Sans" font-size="10" font-weight="400" id="text_20">Low-Mean Lin. x*8.0</text><path d="M235.632 98.605h20" fill="none" stroke="#d62728" stroke-linecap="square" stroke-width="1.5" id="line2d_26"/><text x="263.632" y="102.105" font-family="DejaVu Sans" font-size="10" font-weight="400" id="text_21">2019x*8.0</text><path d="M235.632 113.283h20" fill="none" stroke="#9467bd" stroke-linecap="square" stroke-width="1.5" id="line2d_28"/><text x="263.632" y="116.783" font-family="DejaVu Sans" font-size="10" font-weight="400" id="text_22">Low-Mean M=0.49999 x*8.0</text></g></g></g><defs><clipPath id="p0ebcf9b971"><path d="M57.6 41.472h357.12v266.112H57.6z"/></clipPath></defs></svg>