<svg height="460.8" viewBox="0 0 460.8 345.6" width="614.4" xmlns="http://www.w3.org/2000/svg" xmlns:xlink="http://www.w3.org/1999/xlink"><defs><style>*{stroke-linecap:butt;stroke-linejoin:round}</style></defs><g id="figure_1"><path d="M0 345.6h460.8V0H0z" fill="#fff" id="patch_1"/><g id="axes_1"><path d="M57.6 307.584h357.12V41.472H57.6z" fill="#fff" id="patch_2"/><g id="matplotlib.axis_1"><g id="xtick_1"><g id="line2d_1"><defs><path d="M0 0v3.5" id="md3a2ff5ef0" stroke="#000" stroke-width=".8"/></defs><use x="73.79" xlink:href="#md3a2ff5ef0" y="307.584" stroke="#000" stroke-width=".8"/></g><text x="73.79" y="322.182" font-family="DejaVu Sans" font-size="10" font-weight="400" text-anchor="middle" id="text_1">0.0</text></g><g id="xtick_2"><use x="116.089" xlink:href="#md3a2ff5ef0" y="307.584" stroke="#000" stroke-width=".8" id="line2d_2"/><text x="116.089" y="322.182" font-family="DejaVu Sans" font-size="10" font-weight="400" text-anchor="middle" id="text_2">0.1</text></g><g id="xtick_3"><use x="158.388" xlink:href="#md3a2ff5ef0" y="307.584" stroke="#000" stroke-width=".8" id="line2d_3"/><text x="158.388" y="322.182" font-family="DejaVu Sans" font-size="10" font-weight="400" text-anchor="middle" id="text_3">0.2</text></g><g id="xtick_4"><use x="200.687" xlink:href="#md3a2ff5ef0" y="307.584" stroke="#000" stroke-width=".8" id="line2d_4"/><text x="200.687" y="322.182" font-family="DejaVu Sans" font-size="10" font-weight="400" text-anchor="middle" id="text_4">0.3</text></g><g id="xtick_5"><use x="242.986" xlink:href="#md3a2ff5ef0" y="307.584" stroke="#000" stroke-width=".8" id="line2d_5"/><text x="242.986" y="322.182" font-family="DejaVu Sans" font-size="10" font-weight="400" text-anchor="middle" id="text_5">0.4</text></g><g id="xtick_6"><use x="285.285" xlink:href="#md3a2ff5ef0" y="307.584" stroke="#000" stroke-width=".8" id="line2d_6"/><text x="285.285" y="322.182" font-family="DejaVu Sans" font-size="10" font-weight="400" text-anchor="middle" id="text_6">0.5</text></g><g id="xtick_7"><use x="327.584" xlink:href="#md3a2ff5ef0" y="307.584" stroke="#000" stroke-width=".8" id="line2d_7"/><text x="327.584" y="322.182" font-family="DejaVu Sans" font-size="10" font-weight="400" text-anchor="middle" id="text_7">0.6</text></g><g id="xtick_8"><use x="369.883" xlink:href="#md3a2ff5ef0" y="307.584" stroke="#000" stroke-width=".8" id="line2d_8"/><text x="369.883" y="322.182" font-family="DejaVu Sans" font-size="10" font-weight="400" text-anchor="middle" id="text_8">0.7</text></g><g id="xtick_9"><use x="412.182" xlink:href="#md3a2ff5ef0" y="307.584" stroke="#000" stroke-width=".8" id="line2d_9"/><text x="412.182" y="322.182" font-family="DejaVu Sans" font-size="10" font-weight="400" text-anchor="middle" id="text_9">0.8</text></g><text x="236.16" y="335.861" font-family="DejaVu Sans" font-size="10" font-weight="400" text-anchor="middle" id="text_10">Input Coin&apos;s Heads Probability (λ)</text></g><g id="matplotlib.axis_2"><g id="ytick_1"><g id="line2d_10"><defs><path d="M0 0h-3.5" id="m40ae1c9035" stroke="#000" stroke-width=".8"/></defs><use x="57.6" xlink:href="#m40ae1c9035" y="297.574" stroke="#000" stroke-width=".8"/></g><text x="50.6" y="301.374" font-family="DejaVu Sans" font-size="10" font-weight="400" text-anchor="end" id="text_11">0</text></g><g id="ytick_2"><use x="57.6" xlink:href="#m40ae1c9035" y="263.815" stroke="#000" stroke-width=".8" id="line2d_11"/><text x="50.6" y="267.614" font-family="DejaVu Sans" font-size="10" font-weight="400" text-anchor="end" id="text_12">20</text></g><g id="ytick_3"><use x="57.6" xlink:href="#m40ae1c9035" y="230.055" stroke="#000" stroke-width=".8" id="line2d_12"/><text x="50.6" y="233.854" font-family="DejaVu Sans" font-size="10" font-weight="400" text-anchor="end" id="text_13">40</text></g><g id="ytick_4"><use x="57.6" xlink:href="#m40ae1c9035" y="196.295" stroke="#000" stroke-width=".8" id="line2d_13"/><text x="50.6" y="200.094" font-family="DejaVu Sans" font-size="10" font-weight="400" text-anchor="end" id="text_14">60</text></g><g id="ytick_5"><use x="57.6" xlink:href="#m40ae1c9035" y="162.535" stroke="#000" stroke-width=".8" id="line2d_14"/><text x="50.6" y="166.335" font-family="DejaVu Sans" font-size="10" font-weight="400" text-anchor="end" id="text_15">80</text></g><g id="ytick_6"><use x="57.6" xlink:href="#m40ae1c9035" y="128.776" stroke="#000" stroke-width=".8" id="line2d_15"/><text x="50.6" y="132.575" font-family="DejaVu Sans" font-size="10" font-weight="400" text-anchor="end" id="text_16">100</text></g><g id="ytick_7"><use x="57.6" xlink:href="#m40ae1c9035" y="95.016" stroke="#000" stroke-width=".8" id="line2d_16"/><text x="50.6" y="98.815" font-family="DejaVu Sans" font-size="10" font-weight="400" text-anchor="end" id="text_17">120</text></g><g id="ytick_8"><use x="57.6" xlink:href="#m40ae1c9035" y="61.256" stroke="#000" stroke-width=".8" id="line2d_17"/><text x="50.6" y="65.055" font-family="DejaVu Sans" font-size="10" font-weight="400" text-anchor="end" id="text_18">140</text></g><text transform="rotate(-90 25.433 174.528)" x="25.433" y="174.528" font-family="DejaVu Sans" font-size="10" font-weight="400" text-anchor="middle" id="text_19">Coin Flips Needed</text></g><path clip-path="url(#p4a3d70c823)" d="M73.833 295.38l4.271-.007 4.272-.007 4.272-.007 4.272-.007 4.272-.008 4.271-.007 4.272-.008 4.272-.009 4.272-.008 4.271-.009 4.272-.009 4.272-.009 4.272-.01 4.272-.01 4.271-.01 4.272-.01 4.272-.01 4.272-.012 4.271-.011 4.272-.012 4.272-.013 4.272-.013 4.271-.013 4.272-.014 4.272-.015 4.272-.015 4.272-.015 4.271-.017 4.272-.017 4.272-.017 4.272-.019 4.271-.02 4.272-.02 4.272-.02 4.272-.023 4.271-.023 4.272-.025 4.272-.025 4.272-.028 4.272-.028 4.271-.03 4.272-.033 4.272-.034 4.272-.036 4.271-.039 4.272-.04 4.272-.044 4.272-.047 4.271-.05 4.272-.055 4.272-.059 4.272-.063 4.272-.07 4.271-.074 4.272-.083 4.272-.09 4.272-.1 4.271-.11 4.272-.125 4.272-.139 4.272-.157 4.271-.18 4.272-.207 4.272-.24 4.272-.285 4.272-.34 4.271-.415 4.272-.516 4.272-.66 4.272-.875 4.271-1.214 4.272-1.798 4.272-2.935 4.272-5.655 4.272-15.41 4.271-209.044" fill="none" stroke="#1f77b4" stroke-linecap="square" stroke-width="1.5" id="line2d_18"/><path clip-path="url(#p4a3d70c823)" d="M73.833 292.892l4.271-.341 4.272-.047 4.272-.28 4.272.32 4.272-.28 4.271-.176 4.272.183 4.272-.274 4.272-.185 4.271.1 4.272-.006 4.272.506 4.272-.395 4.272-.651 4.271 1.195 4.272-.682 4.272.19 4.272.239 4.271.02 4.272.243 4.272-.5 4.272-.303 4.271.746 4.272-.648 4.272.162 4.272-.365 4.272-.341 4.271.685 4.272-.418 4.272.422 4.272-.409 4.271.068 4.272-.966 4.272 1.016 4.272-.8 4.271-.445 4.272 1.313 4.272-1.1 4.272.104 4.272-.544 4.271.365 4.272-1.357 4.272-.277 4.272 2.397 4.271-1.404 4.272-1.04 4.272.084 4.272-.013 4.271.753 4.272-1.141 4.272.165 4.272-.226 4.272-.463m8.543.358l4.272-3.275 4.272.115 4.271-.121 4.272-.237 4.272.635 4.272-3.204 4.271 1.104 4.272.098 4.272-2.9 4.272 2.721m17.087-8.048l4.272-10.162 4.271-.824 4.272-.087" fill="none" stroke="#ff7f0e" stroke-linecap="square" stroke-width="1.5" id="line2d_19"/><path clip-path="url(#p4a3d70c823)" d="M73.833 284.27l4.271.273 4.272.247 4.272-.257 4.272-.628 4.272.78 4.271-.25 4.272-.338 4.272-1.991 4.272.29 4.271-.368 4.272 1.293 4.272-.891 4.272.327 4.272.088 4.271-1.128 4.272 1.233 4.272-.598 4.272-.108 4.271-.138 4.272-2.87 4.272.446 4.272-.04 4.271-.163 4.272.57 4.272.595 4.272-1.38 4.272.968 4.271-4 4.272 2.96 4.272-.982 4.272-2.704 4.271 1.053 4.272.246 4.272-1.191 4.272.357 4.271-2.7 4.272 2.447 4.272-.314 4.272-1.62 4.272-.507 4.271-.027 4.272-4.652 4.272.517 4.272 1.566 4.271-3.26 4.272-2.405 4.272-1.043 4.272.753 4.271-.192 4.272-1.59 4.272-3.832 4.272.925 4.272 1.917 4.271-6.127 4.272-2.478 4.272 1.496 4.272.523 4.271-7.046m8.544.088l4.272 1.583" fill="none" stroke="#2ca02c" stroke-linecap="square" stroke-width="1.5" id="line2d_20"/><path clip-path="url(#p4a3d70c823)" d="M73.833 295.488l4.271-.645 4.272.48 4.272-.483 4.272-.176 4.272.264 4.271-.436 4.272.473 4.272-.17 4.272-.79 4.271-.252 4.272.283 4.272-.32 4.272-.43 4.272.176 4.271-.192 4.272-.118 4.272-.223 4.272-.517 4.271-.719 4.272.895 4.272-2.4 4.272-.476 4.271-.112 4.272.591 4.272-.857 4.272-.2 4.272-.85 4.271-1.138 4.272.827 4.272-1.853 4.272-3.606 4.271 2.07 4.272-2.826 4.272.716 4.272-.038m8.543-5.526l4.272.908" fill="none" stroke="#d62728" stroke-linecap="square" stroke-width="1.5" id="line2d_21"/><path clip-path="url(#p4a3d70c823)" d="M73.833 290.833l4.271-.085 4.272.27 4.272.074 4.272-.178 4.272-.017 4.271.216 4.272.199 4.272-.436 4.272-1.198 4.271-.709 4.272.095 4.272-.092 4.272.868 4.272-.392 4.271-.634 4.272.141 4.272.267 4.272-.87 4.271-.622 4.272 1.09 4.272-.047 4.272-.76 4.271-.897 4.272-1.317 4.272.422 4.272-.074 4.272-2.316 4.271 3.163 4.272 1.175 4.272-1.178 4.272-1.435 4.271-.655 4.272.196 4.272-.949 4.272.196 4.271-2.748 4.272 4.679 4.272-4.075 4.272.132 4.272-1.037 4.271 2.536 4.272-.679 4.272-3.504 4.272 1.563 4.271-1.796m8.544-1.907l4.272 1.198 4.271-7.836 4.272 4.7m8.544-1.82l4.272-4.51 4.271.898m17.087-1.695l4.272.095 4.272-10.05 4.272 2.018m8.543-11.843" fill="none" stroke="#9467bd" stroke-linecap="square" stroke-width="1.5" id="line2d_22"/><path clip-path="url(#p4a3d70c823)" d="M78.104 122.641l4.272 72.86 4.272 31.853 4.272 7.275 4.272 11.53 4.271 7.561 4.272 4.372 4.272 2.944 4.272 2.404 4.271 1.117 4.272.507 4.272 1.81 4.272 2.065 4.272 1.108 4.271 1.404 4.272.179 4.272-.398 4.272 1.536 4.271.01 4.272 1.492 4.272-.145 4.272.83 4.271-.24 4.272.703 4.272-1.989 4.272 2.34 4.272-.233 4.271.415 4.272 1.719 4.272-.936 4.272.571 4.271-.29 4.272-.02 4.272-1.527 4.272 1.918 4.271.645 4.272.094 4.272-.28" fill="none" stroke="#8c564b" stroke-linecap="square" stroke-width="1.5" id="line2d_23"/><path d="M57.6 307.584V41.472" fill="none" stroke="#000" stroke-linecap="square" stroke-width=".8" id="patch_3"/><path d="M414.72 307.584V41.472" fill="none" stroke="#000" stroke-linecap="square" stroke-width=".8" id="patch_4"/><path d="M57.6 307.584h357.12" fill="none" stroke="#000" stroke-linecap="square" stroke-width=".8" id="patch_5"/><path d="M57.6 41.472h357.12" fill="none" stroke="#000" stroke-linecap="square" stroke-width=".8" id="patch_6"/><text x="236.16" y="35.472" font-family="DejaVu Sans" font-size="12" font-weight="400" text-anchor="middle" id="text_20">Coin Flips for 2014 Lin. x*1.3</text><g id="legend_1"><path d="M101.533 137.54h269.254q2 0 2-2V48.473q0-2-2-2H101.533q-2 0-2 2v87.069q0 2 2 2z" fill="#fff" opacity=".8" stroke="#ccc" id="patch_7"/><path d="M103.533 54.57h20" fill="none" stroke="#1f77b4" stroke-linecap="square" stroke-width="1.5" id="line2d_24"/><text x="131.533" y="58.07" font-family="DejaVu Sans" font-size="10" font-weight="400" id="text_21">Coin Flip Lower Bound</text><path d="M103.533 69.249h20" fill="none" stroke="#ff7f0e" stroke-linecap="square" stroke-width="1.5" id="line2d_26"/><text x="131.533" y="72.749" font-family="DejaVu Sans" font-size="10" font-weight="400" id="text_22">Avg. Coins Flipped 2014 Lin. x*1.3</text><path d="M103.533 83.927h20" fill="none" stroke="#2ca02c" stroke-linecap="square" stroke-width="1.5" id="line2d_28"/><text x="131.533" y="87.427" font-family="DejaVu Sans" font-size="10" font-weight="400" id="text_23">Avg. Coins Flipped 2016 Lin. x*1.3</text><path d="M103.533 98.605h20" fill="none" stroke="#d62728" stroke-linecap="square" stroke-width="1.5" id="line2d_30"/><text x="131.533" y="102.105" font-family="DejaVu Sans" font-size="10" font-weight="400" id="text_24">Avg. Coins Flipped Low-Mean Lin. x*1.3</text><path d="M103.533 113.283h20" fill="none" stroke="#9467bd" stroke-linecap="square" stroke-width="1.5" id="line2d_32"/><text x="131.533" y="116.783" font-family="DejaVu Sans" font-size="10" font-weight="400" id="text_25">Avg. Coins Flipped 2019x*1.3</text><path d="M103.533 127.961h20" fill="none" stroke="#8c564b" stroke-linecap="square" stroke-width="1.5" id="line2d_34"/><text x="131.533" y="131.461" font-family="DejaVu Sans" font-size="10" font-weight="400" id="text_26">Avg. Coins Flipped Low-Mean M=0.49999 x*1.3</text></g></g></g><defs><clipPath id="p4a3d70c823"><path d="M57.6 41.472h357.12v266.112H57.6z"/></clipPath></defs></svg>