<?xml version="1.0" encoding="utf-8" standalone="no"?>
<!DOCTYPE svg PUBLIC "-//W3C//DTD SVG 1.1//EN"
  "http://www.w3.org/Graphics/SVG/1.1/DTD/svg11.dtd">
<!-- Created with matplotlib (https://matplotlib.org/) -->
<svg height="345.6pt" version="1.1" viewBox="0 0 460.8 345.6" width="460.8pt" xmlns="http://www.w3.org/2000/svg" xmlns:xlink="http://www.w3.org/1999/xlink">
 <defs>
  <style type="text/css">
*{stroke-linecap:butt;stroke-linejoin:round;}
  </style>
 </defs>
 <g id="figure_1">
  <g id="patch_1">
   <path d="M 0 345.6 
L 460.8 345.6 
L 460.8 0 
L 0 0 
z
" style="fill:#ffffff;"/>
  </g>
  <g id="axes_1">
   <g id="patch_2">
    <path d="M 57.6 307.584 
L 414.72 307.584 
L 414.72 41.472 
L 57.6 41.472 
z
" style="fill:#ffffff;"/>
   </g>
   <g id="matplotlib.axis_1">
    <g id="xtick_1">
     <g id="line2d_1">
      <defs>
       <path d="M 0 0 
L 0 3.5 
" id="m6afce8bb98" style="stroke:#000000;stroke-width:0.8;"/>
      </defs>
      <g>
       <use style="stroke:#000000;stroke-width:0.8;" x="73.69878" xlink:href="#m6afce8bb98" y="307.584"/>
      </g>
     </g>
     <g id="text_1">
      <text style="font-family:DejaVu Sans;font-size:10px;font-style:normal;font-weight:normal;text-anchor:middle;" transform="rotate(-0, 73.69878, 322.182437)" x="73.69878" y="322.182437">0.00</text>
     </g>
    </g>
    <g id="xtick_2">
     <g id="line2d_2">
      <g>
       <use style="stroke:#000000;stroke-width:0.8;" x="140.672175" xlink:href="#m6afce8bb98" y="307.584"/>
      </g>
     </g>
     <g id="text_2">
      <text style="font-family:DejaVu Sans;font-size:10px;font-style:normal;font-weight:normal;text-anchor:middle;" transform="rotate(-0, 140.672175, 322.182437)" x="140.672175" y="322.182437">0.05</text>
     </g>
    </g>
    <g id="xtick_3">
     <g id="line2d_3">
      <g>
       <use style="stroke:#000000;stroke-width:0.8;" x="207.64557" xlink:href="#m6afce8bb98" y="307.584"/>
      </g>
     </g>
     <g id="text_3">
      <text style="font-family:DejaVu Sans;font-size:10px;font-style:normal;font-weight:normal;text-anchor:middle;" transform="rotate(-0, 207.64557, 322.182437)" x="207.64557" y="322.182437">0.10</text>
     </g>
    </g>
    <g id="xtick_4">
     <g id="line2d_4">
      <g>
       <use style="stroke:#000000;stroke-width:0.8;" x="274.618965" xlink:href="#m6afce8bb98" y="307.584"/>
      </g>
     </g>
     <g id="text_4">
      <text style="font-family:DejaVu Sans;font-size:10px;font-style:normal;font-weight:normal;text-anchor:middle;" transform="rotate(-0, 274.618965, 322.182437)" x="274.618965" y="322.182437">0.15</text>
     </g>
    </g>
    <g id="xtick_5">
     <g id="line2d_5">
      <g>
       <use style="stroke:#000000;stroke-width:0.8;" x="341.592359" xlink:href="#m6afce8bb98" y="307.584"/>
      </g>
     </g>
     <g id="text_5">
      <text style="font-family:DejaVu Sans;font-size:10px;font-style:normal;font-weight:normal;text-anchor:middle;" transform="rotate(-0, 341.592359, 322.182437)" x="341.592359" y="322.182437">0.20</text>
     </g>
    </g>
    <g id="xtick_6">
     <g id="line2d_6">
      <g>
       <use style="stroke:#000000;stroke-width:0.8;" x="408.565754" xlink:href="#m6afce8bb98" y="307.584"/>
      </g>
     </g>
     <g id="text_6">
      <text style="font-family:DejaVu Sans;font-size:10px;font-style:normal;font-weight:normal;text-anchor:middle;" transform="rotate(-0, 408.565754, 322.182437)" x="408.565754" y="322.182437">0.25</text>
     </g>
    </g>
    <g id="text_7">
     <text style="font-family:DejaVu Sans;font-size:10px;font-style:normal;font-weight:normal;text-anchor:middle;" transform="rotate(-0, 236.16, 335.860562)" x="236.16" y="335.860562">Input Coin's Heads Probability (λ)</text>
    </g>
   </g>
   <g id="matplotlib.axis_2">
    <g id="ytick_1">
     <g id="line2d_7">
      <defs>
       <path d="M 0 0 
L -3.5 0 
" id="mc79655b81a" style="stroke:#000000;stroke-width:0.8;"/>
      </defs>
      <g>
       <use style="stroke:#000000;stroke-width:0.8;" x="57.6" xlink:href="#mc79655b81a" y="295.488"/>
      </g>
     </g>
     <g id="text_8">
      <text style="font-family:DejaVu Sans;font-size:10px;font-style:normal;font-weight:normal;text-anchor:end;" transform="rotate(-0, 50.6, 299.287219)" x="50.6" y="299.287219">0.0</text>
     </g>
    </g>
    <g id="ytick_2">
     <g id="line2d_8">
      <g>
       <use style="stroke:#000000;stroke-width:0.8;" x="57.6" xlink:href="#mc79655b81a" y="245.602601"/>
      </g>
     </g>
     <g id="text_9">
      <text style="font-family:DejaVu Sans;font-size:10px;font-style:normal;font-weight:normal;text-anchor:end;" transform="rotate(-0, 50.6, 249.401819)" x="50.6" y="249.401819">0.2</text>
     </g>
    </g>
    <g id="ytick_3">
     <g id="line2d_9">
      <g>
       <use style="stroke:#000000;stroke-width:0.8;" x="57.6" xlink:href="#mc79655b81a" y="195.717201"/>
      </g>
     </g>
     <g id="text_10">
      <text style="font-family:DejaVu Sans;font-size:10px;font-style:normal;font-weight:normal;text-anchor:end;" transform="rotate(-0, 50.6, 199.51642)" x="50.6" y="199.51642">0.4</text>
     </g>
    </g>
    <g id="ytick_4">
     <g id="line2d_10">
      <g>
       <use style="stroke:#000000;stroke-width:0.8;" x="57.6" xlink:href="#mc79655b81a" y="145.831802"/>
      </g>
     </g>
     <g id="text_11">
      <text style="font-family:DejaVu Sans;font-size:10px;font-style:normal;font-weight:normal;text-anchor:end;" transform="rotate(-0, 50.6, 149.631021)" x="50.6" y="149.631021">0.6</text>
     </g>
    </g>
    <g id="ytick_5">
     <g id="line2d_11">
      <g>
       <use style="stroke:#000000;stroke-width:0.8;" x="57.6" xlink:href="#mc79655b81a" y="95.946403"/>
      </g>
     </g>
     <g id="text_12">
      <text style="font-family:DejaVu Sans;font-size:10px;font-style:normal;font-weight:normal;text-anchor:end;" transform="rotate(-0, 50.6, 99.745621)" x="50.6" y="99.745621">0.8</text>
     </g>
    </g>
    <g id="ytick_6">
     <g id="line2d_12">
      <g>
       <use style="stroke:#000000;stroke-width:0.8;" x="57.6" xlink:href="#mc79655b81a" y="46.061003"/>
      </g>
     </g>
     <g id="text_13">
      <text style="font-family:DejaVu Sans;font-size:10px;font-style:normal;font-weight:normal;text-anchor:end;" transform="rotate(-0, 50.6, 49.860222)" x="50.6" y="49.860222">1.0</text>
     </g>
    </g>
    <g id="text_14">
     <text style="font-family:DejaVu Sans;font-size:10px;font-style:normal;font-weight:normal;text-anchor:middle;" transform="rotate(-90, 28.617187, 174.528)" x="28.617187" y="174.528">Simulated Mean / Function Value</text>
    </g>
   </g>
   <g id="line2d_13">
    <path clip-path="url(#peb747ebebd)" d="M 73.832727 295.388229 
L 87.36 285.312386 
L 100.887273 275.236543 
L 114.414545 265.160701 
L 127.941818 255.084858 
L 141.469091 245.009015 
L 154.996364 234.933172 
L 168.523636 224.857329 
L 182.050909 214.781486 
L 195.578182 204.705643 
L 209.105455 194.6298 
L 222.632727 184.553957 
L 236.16 174.478115 
L 249.687273 164.402272 
L 263.214545 154.326429 
L 276.741818 144.250586 
L 290.269091 134.174743 
L 303.796364 124.0989 
L 317.323636 114.023057 
L 330.850909 103.947214 
L 344.378182 93.871372 
L 357.905455 83.795529 
L 371.432727 73.719686 
L 384.96 63.643843 
L 398.487273 53.568 
" style="fill:none;stroke:#1f77b4;stroke-linecap:square;stroke-width:1.5;"/>
   </g>
   <g id="line2d_14">
    <path clip-path="url(#peb747ebebd)" d="M 73.832727 295.488 
L 87.36 284.014358 
L 100.887273 273.03957 
L 114.414545 266.554468 
L 127.941818 258.07395 
L 141.469091 244.106039 
L 154.996364 242.110623 
L 168.523636 232.133543 
L 182.050909 219.662193 
L 195.578182 200.206887 
L 209.105455 186.737829 
L 222.632727 185.241267 
M 249.687273 166.78367 
L 263.214545 159.799714 
M 290.269091 134.35816 
L 303.796364 116.89827 
L 317.323636 111.410876 
" style="fill:none;stroke:#ff7f0e;stroke-linecap:square;stroke-width:1.5;"/>
   </g>
   <g id="line2d_15">
    <path clip-path="url(#peb747ebebd)" d="M 73.832727 295.488 
L 87.36 286.508628 
L 100.887273 276.531548 
L 114.414545 266.055614 
L 127.941818 246.600309 
L 141.469091 244.106039 
L 154.996364 233.131251 
L 168.523636 230.138127 
L 182.050909 209.685113 
L 195.578182 209.186259 
L 209.105455 196.216055 
L 222.632727 181.250435 
L 236.16 174.26648 
L 249.687273 163.291692 
L 263.214545 152.815758 
L 276.741818 146.330656 
L 290.269091 139.845554 
L 303.796364 117.895978 
L 317.323636 113.406292 
" style="fill:none;stroke:#2ca02c;stroke-linecap:square;stroke-width:1.5;"/>
   </g>
   <g id="line2d_16">
    <path clip-path="url(#peb747ebebd)" d="M 73.832727 295.488 
L 87.36 285.51092 
L 100.887273 275.53384 
L 114.414545 260.069366 
L 127.941818 261.067074 
L 141.469091 246.600309 
L 154.996364 230.138127 
L 168.523636 218.664485 
L 182.050909 222.655317 
L 195.578182 207.190843 
L 209.105455 196.216055 
L 222.632727 182.248143 
L 236.16 170.275648 
" style="fill:none;stroke:#d62728;stroke-linecap:square;stroke-width:1.5;"/>
   </g>
   <g id="line2d_17">
    <path clip-path="url(#peb747ebebd)" d="M 73.832727 295.488 
L 87.36 288.00519 
L 100.887273 277.030402 
L 114.414545 260.56822 
L 127.941818 256.078535 
L 141.469091 240.115207 
L 154.996364 230.138127 
L 168.523636 216.669069 
L 182.050909 223.653025 
L 195.578182 204.197719 
M 236.16 170.275648 
L 249.687273 174.26648 
L 263.214545 156.80659 
L 276.741818 148.824926 
L 290.269091 133.360452 
M 317.323636 119.891394 
" style="fill:none;stroke:#9467bd;stroke-linecap:square;stroke-width:1.5;"/>
   </g>
   <g id="line2d_18">
    <path clip-path="url(#peb747ebebd)" d="M 87.36 285.51092 
L 100.887273 274.037278 
L 114.414545 264.559052 
L 127.941818 262.064782 
L 141.469091 241.611769 
L 154.996364 236.124375 
L 168.523636 231.135835 
L 182.050909 217.167923 
L 195.578182 203.200011 
L 209.105455 191.227515 
L 222.632727 187.236683 
L 236.16 169.776794 
" style="fill:none;stroke:#8c564b;stroke-linecap:square;stroke-width:1.5;"/>
   </g>
   <g id="patch_3">
    <path d="M 57.6 307.584 
L 57.6 41.472 
" style="fill:none;stroke:#000000;stroke-linecap:square;stroke-linejoin:miter;stroke-width:0.8;"/>
   </g>
   <g id="patch_4">
    <path d="M 414.72 307.584 
L 414.72 41.472 
" style="fill:none;stroke:#000000;stroke-linecap:square;stroke-linejoin:miter;stroke-width:0.8;"/>
   </g>
   <g id="patch_5">
    <path d="M 57.6 307.584 
L 414.72 307.584 
" style="fill:none;stroke:#000000;stroke-linecap:square;stroke-linejoin:miter;stroke-width:0.8;"/>
   </g>
   <g id="patch_6">
    <path d="M 57.6 41.472 
L 414.72 41.472 
" style="fill:none;stroke:#000000;stroke-linecap:square;stroke-linejoin:miter;stroke-width:0.8;"/>
   </g>
   <g id="text_15">
    <text style="font-family:DejaVu Sans;font-size:12px;font-style:normal;font-weight:normal;" transform="translate(184.459688 22.034625)">Simulated Means</text>
    <text style="font-family:DejaVu Sans;font-size:12px;font-style:normal;font-weight:normal;" transform="translate(132.609375 35.472)">(Wasserstein Distances in Legend)</text>
   </g>
   <g id="legend_1">
    <g id="patch_7">
     <path d="M 71.387188 137.54075 
L 407.72 137.54075 
Q 409.72 137.54075 409.72 135.54075 
L 409.72 48.472 
Q 409.72 46.472 407.72 46.472 
L 71.387188 46.472 
Q 69.387188 46.472 69.387188 48.472 
L 69.387188 135.54075 
Q 69.387188 137.54075 71.387188 137.54075 
z
" style="fill:#ffffff;opacity:0.8;stroke:#cccccc;stroke-linejoin:miter;"/>
    </g>
    <g id="line2d_19">
     <path d="M 73.387188 54.570438 
L 93.387188 54.570438 
" style="fill:none;stroke:#1f77b4;stroke-linecap:square;stroke-width:1.5;"/>
    </g>
    <g id="line2d_20"/>
    <g id="text_16">
     <text style="font-family:DejaVu Sans;font-size:10px;font-style:normal;font-weight:normal;text-anchor:start;" transform="rotate(-0, 101.387188, 58.070438)" x="101.387188" y="58.070438">x*4.0</text>
    </g>
    <g id="line2d_21">
     <path d="M 73.387188 69.248563 
L 93.387188 69.248563 
" style="fill:none;stroke:#ff7f0e;stroke-linecap:square;stroke-width:1.5;"/>
    </g>
    <g id="line2d_22"/>
    <g id="text_17">
     <text style="font-family:DejaVu Sans;font-size:10px;font-style:normal;font-weight:normal;text-anchor:start;" transform="rotate(-0, 101.387188, 72.748563)" x="101.387188" y="72.748563">Simul. Mean of 2014 Lin. x*4.0 (WD=0.013948)</text>
    </g>
    <g id="line2d_23">
     <path d="M 73.387188 83.926688 
L 93.387188 83.926688 
" style="fill:none;stroke:#2ca02c;stroke-linecap:square;stroke-width:1.5;"/>
    </g>
    <g id="line2d_24"/>
    <g id="text_18">
     <text style="font-family:DejaVu Sans;font-size:10px;font-style:normal;font-weight:normal;text-anchor:start;" transform="rotate(-0, 101.387188, 87.426688)" x="101.387188" y="87.426688">Simul. Mean of 2016 Lin. x*4.0 (WD=0.010936)</text>
    </g>
    <g id="line2d_25">
     <path d="M 73.387188 98.604813 
L 93.387188 98.604813 
" style="fill:none;stroke:#d62728;stroke-linecap:square;stroke-width:1.5;"/>
    </g>
    <g id="line2d_26"/>
    <g id="text_19">
     <text style="font-family:DejaVu Sans;font-size:10px;font-style:normal;font-weight:normal;text-anchor:start;" transform="rotate(-0, 101.387188, 102.104813)" x="101.387188" y="102.104813">Simul. Mean of Low-Mean Lin. x*4.0 (WD=0.010092)</text>
    </g>
    <g id="line2d_27">
     <path d="M 73.387188 113.282938 
L 93.387188 113.282938 
" style="fill:none;stroke:#9467bd;stroke-linecap:square;stroke-width:1.5;"/>
    </g>
    <g id="line2d_28"/>
    <g id="text_20">
     <text style="font-family:DejaVu Sans;font-size:10px;font-style:normal;font-weight:normal;text-anchor:start;" transform="rotate(-0, 101.387188, 116.782938)" x="101.387188" y="116.782938">Simul. Mean of 2019x*4.0 (WD=0.010846)</text>
    </g>
    <g id="line2d_29">
     <path d="M 73.387188 127.961063 
L 93.387188 127.961063 
" style="fill:none;stroke:#8c564b;stroke-linecap:square;stroke-width:1.5;"/>
    </g>
    <g id="line2d_30"/>
    <g id="text_21">
     <text style="font-family:DejaVu Sans;font-size:10px;font-style:normal;font-weight:normal;text-anchor:start;" transform="rotate(-0, 101.387188, 131.461063)" x="101.387188" y="131.461063">Simul. Mean of Low-Mean M=0.49999 x*4.0 (WD=0.011535)</text>
    </g>
   </g>
  </g>
 </g>
 <defs>
  <clipPath id="peb747ebebd">
   <rect height="266.112" width="357.12" x="57.6" y="41.472"/>
  </clipPath>
 </defs>
</svg>
