<?xml version="1.0" encoding="utf-8" standalone="no"?>
<!DOCTYPE svg PUBLIC "-//W3C//DTD SVG 1.1//EN"
  "http://www.w3.org/Graphics/SVG/1.1/DTD/svg11.dtd">
<!-- Created with matplotlib (https://matplotlib.org/) -->
<svg height="345.6pt" version="1.1" viewBox="0 0 460.8 345.6" width="460.8pt" xmlns="http://www.w3.org/2000/svg" xmlns:xlink="http://www.w3.org/1999/xlink">
 <defs>
  <style type="text/css">
*{stroke-linecap:butt;stroke-linejoin:round;}
  </style>
 </defs>
 <g id="figure_1">
  <g id="patch_1">
   <path d="M 0 345.6 
L 460.8 345.6 
L 460.8 0 
L 0 0 
z
" style="fill:#ffffff;"/>
  </g>
  <g id="axes_1">
   <g id="patch_2">
    <path d="M 57.6 307.584 
L 414.72 307.584 
L 414.72 41.472 
L 57.6 41.472 
z
" style="fill:#ffffff;"/>
   </g>
   <g id="matplotlib.axis_1">
    <g id="xtick_1">
     <g id="line2d_1">
      <defs>
       <path d="M 0 0 
L 0 3.5 
" id="m224552986e" style="stroke:#000000;stroke-width:0.8;"/>
      </defs>
      <g>
       <use style="stroke:#000000;stroke-width:0.8;" x="73.796607" xlink:href="#m224552986e" y="307.584"/>
      </g>
     </g>
     <g id="text_1">
      <text style="font-family:DejaVu Sans;font-size:10px;font-style:normal;font-weight:normal;text-anchor:middle;" transform="rotate(-0, 73.796607, 322.182437)" x="73.796607" y="322.182437">0.0</text>
     </g>
    </g>
    <g id="xtick_2">
     <g id="line2d_2">
      <g>
       <use style="stroke:#000000;stroke-width:0.8;" x="146.037572" xlink:href="#m224552986e" y="307.584"/>
      </g>
     </g>
     <g id="text_2">
      <text style="font-family:DejaVu Sans;font-size:10px;font-style:normal;font-weight:normal;text-anchor:middle;" transform="rotate(-0, 146.037572, 322.182437)" x="146.037572" y="322.182437">0.2</text>
     </g>
    </g>
    <g id="xtick_3">
     <g id="line2d_3">
      <g>
       <use style="stroke:#000000;stroke-width:0.8;" x="218.278537" xlink:href="#m224552986e" y="307.584"/>
      </g>
     </g>
     <g id="text_3">
      <text style="font-family:DejaVu Sans;font-size:10px;font-style:normal;font-weight:normal;text-anchor:middle;" transform="rotate(-0, 218.278537, 322.182437)" x="218.278537" y="322.182437">0.4</text>
     </g>
    </g>
    <g id="xtick_4">
     <g id="line2d_4">
      <g>
       <use style="stroke:#000000;stroke-width:0.8;" x="290.519502" xlink:href="#m224552986e" y="307.584"/>
      </g>
     </g>
     <g id="text_4">
      <text style="font-family:DejaVu Sans;font-size:10px;font-style:normal;font-weight:normal;text-anchor:middle;" transform="rotate(-0, 290.519502, 322.182437)" x="290.519502" y="322.182437">0.6</text>
     </g>
    </g>
    <g id="xtick_5">
     <g id="line2d_5">
      <g>
       <use style="stroke:#000000;stroke-width:0.8;" x="362.760467" xlink:href="#m224552986e" y="307.584"/>
      </g>
     </g>
     <g id="text_5">
      <text style="font-family:DejaVu Sans;font-size:10px;font-style:normal;font-weight:normal;text-anchor:middle;" transform="rotate(-0, 362.760467, 322.182437)" x="362.760467" y="322.182437">0.8</text>
     </g>
    </g>
    <g id="text_6">
     <text style="font-family:DejaVu Sans;font-size:10px;font-style:normal;font-weight:normal;text-anchor:middle;" transform="rotate(-0, 236.16, 335.860562)" x="236.16" y="335.860562">Input Coin's Heads Probability (λ)</text>
    </g>
   </g>
   <g id="matplotlib.axis_2">
    <g id="ytick_1">
     <g id="line2d_6">
      <defs>
       <path d="M 0 0 
L -3.5 0 
" id="m032722536d" style="stroke:#000000;stroke-width:0.8;"/>
      </defs>
      <g>
       <use style="stroke:#000000;stroke-width:0.8;" x="57.6" xlink:href="#m032722536d" y="295.491217"/>
      </g>
     </g>
     <g id="text_7">
      <text style="font-family:DejaVu Sans;font-size:10px;font-style:normal;font-weight:normal;text-anchor:end;" transform="rotate(-0, 50.6, 299.290436)" x="50.6" y="299.290436">0</text>
     </g>
    </g>
    <g id="ytick_2">
     <g id="line2d_7">
      <g>
       <use style="stroke:#000000;stroke-width:0.8;" x="57.6" xlink:href="#m032722536d" y="237.522168"/>
      </g>
     </g>
     <g id="text_8">
      <text style="font-family:DejaVu Sans;font-size:10px;font-style:normal;font-weight:normal;text-anchor:end;" transform="rotate(-0, 50.6, 241.321387)" x="50.6" y="241.321387">20</text>
     </g>
    </g>
    <g id="ytick_3">
     <g id="line2d_8">
      <g>
       <use style="stroke:#000000;stroke-width:0.8;" x="57.6" xlink:href="#m032722536d" y="179.553119"/>
      </g>
     </g>
     <g id="text_9">
      <text style="font-family:DejaVu Sans;font-size:10px;font-style:normal;font-weight:normal;text-anchor:end;" transform="rotate(-0, 50.6, 183.352338)" x="50.6" y="183.352338">40</text>
     </g>
    </g>
    <g id="ytick_4">
     <g id="line2d_9">
      <g>
       <use style="stroke:#000000;stroke-width:0.8;" x="57.6" xlink:href="#m032722536d" y="121.58407"/>
      </g>
     </g>
     <g id="text_10">
      <text style="font-family:DejaVu Sans;font-size:10px;font-style:normal;font-weight:normal;text-anchor:end;" transform="rotate(-0, 50.6, 125.383289)" x="50.6" y="125.383289">60</text>
     </g>
    </g>
    <g id="ytick_5">
     <g id="line2d_10">
      <g>
       <use style="stroke:#000000;stroke-width:0.8;" x="57.6" xlink:href="#m032722536d" y="63.615021"/>
      </g>
     </g>
     <g id="text_11">
      <text style="font-family:DejaVu Sans;font-size:10px;font-style:normal;font-weight:normal;text-anchor:end;" transform="rotate(-0, 50.6, 67.414239)" x="50.6" y="67.414239">80</text>
     </g>
    </g>
    <g id="text_12">
     <text style="font-family:DejaVu Sans;font-size:10px;font-style:normal;font-weight:normal;text-anchor:middle;" transform="rotate(-90, 31.795312, 174.528)" x="31.795312" y="174.528">Coin Flips Needed</text>
    </g>
   </g>
   <g id="line2d_11">
    <path clip-path="url(#pdcdaca051e)" d="M 73.832727 295.488 
L 77.480531 295.192816 
L 81.128335 294.946565 
L 84.776139 294.737858 
L 88.423943 294.55858 
L 92.071747 294.402789 
L 95.719551 294.26604 
L 99.367354 294.144936 
L 103.015158 294.036839 
L 106.662962 293.939665 
L 110.310766 293.851753 
L 113.95857 293.771754 
L 117.606374 293.698567 
L 121.254178 293.631281 
L 124.901982 293.569138 
L 128.549785 293.511499 
L 132.197589 293.457824 
L 135.845393 293.407651 
L 139.493197 293.360585 
L 143.141001 293.316282 
L 146.788805 293.274445 
L 150.436609 293.234813 
L 154.084413 293.197158 
L 157.732217 293.161276 
L 161.38002 293.126989 
L 165.027824 293.094135 
L 168.675628 293.062569 
L 172.323432 293.032162 
L 175.971236 293.002797 
L 179.61904 292.974364 
L 183.266844 292.946765 
L 186.914648 292.91991 
L 190.562451 292.893715 
L 194.210255 292.8681 
L 197.858059 292.842992 
L 201.505863 292.818321 
L 205.153667 292.794021 
L 208.801471 292.770029 
L 212.449275 292.746284 
L 216.097079 292.722726 
L 219.744883 292.699297 
L 223.392686 292.675939 
L 227.04049 292.652596 
L 230.688294 292.62921 
L 234.336098 292.605724 
L 237.983902 292.582077 
L 241.631706 292.558209 
L 245.27951 292.534057 
L 248.927314 292.509556 
L 252.575117 292.484636 
L 256.222921 292.459223 
L 259.870725 292.43324 
L 263.518529 292.406603 
L 267.166333 292.379219 
L 270.814137 292.350991 
L 274.461941 292.32181 
L 278.109745 292.291557 
L 281.757549 292.2601 
L 285.405352 292.227291 
L 289.053156 292.192967 
L 292.70096 292.15694 
L 296.348764 292.119 
L 299.996568 292.078909 
L 303.644372 292.03639 
L 307.292176 291.991127 
L 310.93998 291.942752 
L 314.587783 291.890833 
L 318.235587 291.834864 
L 321.883391 291.774243 
L 325.531195 291.70825 
L 329.178999 291.636016 
L 332.826803 291.55648 
L 336.474607 291.468336 
L 340.122411 291.369954 
L 343.770215 291.259274 
L 347.418018 291.133654 
L 351.065822 290.989647 
L 354.713626 290.822666 
L 358.36143 290.626478 
L 362.009234 290.392382 
L 365.657038 290.107857 
L 369.304842 289.754209 
L 372.952646 289.302224 
L 376.600449 288.703558 
L 380.248253 287.872011 
L 383.896057 286.637451 
L 387.543861 284.610784 
L 391.191665 280.664574 
L 394.839469 269.600937 
L 398.487273 53.568 
" style="fill:none;stroke:#1f77b4;stroke-linecap:square;stroke-width:1.5;"/>
   </g>
   <g id="line2d_12">
    <path clip-path="url(#pdcdaca051e)" d="M 73.832727 271.097841 
L 77.480531 272.332582 
M 84.776139 269.005159 
L 88.423943 272.836913 
L 92.071747 269.990633 
L 95.719551 271.115232 
L 99.367354 269.167472 
L 103.015158 272.135487 
L 106.662962 270.373228 
L 110.310766 268.895018 
L 113.95857 269.352973 
L 117.606374 270.935528 
L 121.254178 268.350109 
L 124.901982 271.150014 
L 128.549785 268.842845 
L 132.197589 271.532609 
L 135.845393 272.465911 
L 139.493197 269.051534 
L 143.141001 269.219644 
L 146.788805 269.654412 
L 150.436609 271.776079 
L 154.084413 270.935528 
L 157.732217 271.938393 
L 161.38002 268.680532 
L 165.027824 271.23117 
L 168.675628 268.912408 
L 172.323432 268.674735 
L 175.971236 269.161675 
L 179.61904 268.280546 
L 183.266844 265.938596 
L 186.914648 269.428333 
L 190.562451 269.416739 
L 194.210255 266.326989 
L 197.858059 264.756027 
L 201.505863 263.428536 
L 205.153667 260.83732 
L 208.801471 265.648751 
L 212.449275 268.471844 
L 216.097079 265.109639 
L 219.744883 260.402552 
L 223.392686 260.709788 
L 227.04049 264.744434 
L 230.688294 264.193728 
L 234.336098 263.637225 
M 241.631706 264.744434 
L 245.27951 261.150353 
L 248.927314 258.443198 
L 252.575117 259.05767 
L 256.222921 252.292682 
L 259.870725 257.057738 
L 263.518529 254.18827 
L 267.166333 253.034686 
L 270.814137 254.18827 
L 274.461941 253.939003 
L 278.109745 249.394229 
L 281.757549 252.594121 
L 285.405352 238.594596 
M 292.70096 241.464064 
L 296.348764 247.458063 
L 299.996568 247.504438 
L 303.644372 241.174218 
M 310.93998 231.104994 
L 314.587783 239.029363 
L 318.235587 240.339464 
M 325.531195 229.823878 
L 329.178999 218.914103 
M 336.474607 213.337481 
L 340.122411 197.894526 
M 351.065822 208.734738 
" style="fill:none;stroke:#ff7f0e;stroke-linecap:square;stroke-width:1.5;"/>
   </g>
   <g id="line2d_13">
    <path clip-path="url(#pdcdaca051e)" d="M 73.832727 258.060602 
L 77.480531 254.791148 
L 81.128335 254.252036 
L 84.776139 255.851982 
L 88.423943 255.301276 
L 92.071747 254.692601 
L 95.719551 257.075128 
L 99.367354 254.866508 
L 103.015158 254.066535 
L 106.662962 255.156353 
L 110.310766 256.988175 
L 113.95857 255.886763 
L 117.606374 255.701262 
L 121.254178 255.318666 
L 124.901982 256.680939 
L 128.549785 251.11591 
L 132.197589 248.455131 
L 135.845393 248.988446 
L 139.493197 247.487048 
L 143.141001 250.849253 
L 146.788805 248.008769 
L 150.436609 249.80581 
L 154.084413 250.21739 
L 157.732217 246.913154 
L 161.38002 248.310208 
L 165.027824 250.936206 
L 168.675628 239.922087 
L 172.323432 242.258239 
L 175.971236 240.171354 
L 179.61904 240.293089 
L 183.266844 244.803081 
L 186.914648 244.548017 
L 190.562451 243.208932 
L 194.210255 240.710466 
L 197.858059 237.31348 
L 201.505863 239.516303 
L 205.153667 239.243849 
L 208.801471 235.30775 
L 212.449275 236.078739 
L 216.097079 238.101859 
L 219.744883 233.545491 
L 223.392686 232.513642 
L 227.04049 226.426892 
L 230.688294 232.484658 
L 234.336098 232.374517 
L 237.983902 214.572222 
L 241.631706 224.397975 
L 245.27951 219.366262 
L 248.927314 229.568815 
L 252.575117 217.522846 
L 256.222921 218.409773 
L 259.870725 212.491133 
L 263.518529 218.543101 
L 267.166333 213.354872 
L 270.814137 210.247731 
L 274.461941 207.001464 
L 278.109745 208.073891 
L 281.757549 206.311632 
L 285.405352 194.990277 
L 289.053156 202.862474 
L 292.70096 187.535457 
L 296.348764 189.790453 
L 299.996568 164.695652 
M 307.292176 177.048856 
L 310.93998 175.089502 
L 314.587783 165.570984 
M 325.531195 130.389568 
" style="fill:none;stroke:#2ca02c;stroke-linecap:square;stroke-width:1.5;"/>
   </g>
   <g id="line2d_14">
    <path clip-path="url(#pdcdaca051e)" d="M 73.832727 278.355566 
L 77.480531 278.720771 
L 81.128335 272.147081 
L 84.776139 273.619495 
L 88.423943 272.813725 
L 92.071747 273.700652 
L 95.719551 271.509422 
L 99.367354 272.906476 
L 103.015158 272.529677 
L 106.662962 272.500692 
L 110.310766 271.909408 
L 113.95857 272.831116 
L 117.606374 273.190524 
L 121.254178 273.526745 
M 128.549785 272.912273 
L 132.197589 270.303665 
L 135.845393 272.465911 
L 139.493197 271.822455 
L 143.141001 269.237035 
L 146.788805 266.987836 
L 150.436609 268.280546 
L 154.084413 268.645751 
L 157.732217 268.437062 
L 161.38002 268.355905 
L 165.027824 265.242967 
L 168.675628 266.697991 
L 172.323432 267.526948 
L 175.971236 266.883492 
L 179.61904 265.637157 
L 183.266844 266.477708 
L 186.914648 264.083586 
L 190.562451 265.857439 
L 194.210255 264.477776 
L 197.858059 260.756163 
M 205.153667 261.701059 
L 208.801471 254.066535 
L 212.449275 260.483709 
L 216.097079 252.750637 
M 223.392686 261.961919 
M 230.688294 256.744705 
L 234.336098 255.092587 
L 237.983902 248.234848 
M 245.27951 249.324667 
L 248.927314 251.684007 
L 252.575117 248.316005 
L 256.222921 248.640632 
M 263.518529 248.68121 
M 270.814137 232.04989 
L 274.461941 234.571544 
L 278.109745 244.907425 
L 281.757549 226.345735 
L 285.405352 228.119588 
L 289.053156 234.525168 
L 292.70096 229.85866 
M 299.996568 223.308157 
L 303.644372 224.954478 
L 307.292176 212.844744 
L 310.93998 212.120131 
" style="fill:none;stroke:#d62728;stroke-linecap:square;stroke-width:1.5;"/>
   </g>
   <g id="patch_3">
    <path d="M 57.6 307.584 
L 57.6 41.472 
" style="fill:none;stroke:#000000;stroke-linecap:square;stroke-linejoin:miter;stroke-width:0.8;"/>
   </g>
   <g id="patch_4">
    <path d="M 414.72 307.584 
L 414.72 41.472 
" style="fill:none;stroke:#000000;stroke-linecap:square;stroke-linejoin:miter;stroke-width:0.8;"/>
   </g>
   <g id="patch_5">
    <path d="M 57.6 307.584 
L 414.72 307.584 
" style="fill:none;stroke:#000000;stroke-linecap:square;stroke-linejoin:miter;stroke-width:0.8;"/>
   </g>
   <g id="patch_6">
    <path d="M 57.6 41.472 
L 414.72 41.472 
" style="fill:none;stroke:#000000;stroke-linecap:square;stroke-linejoin:miter;stroke-width:0.8;"/>
   </g>
   <g id="text_13">
    <text style="font-family:DejaVu Sans;font-size:12px;font-style:normal;font-weight:normal;text-anchor:middle;" transform="rotate(-0, 236.16, 35.472)" x="236.16" y="35.472">Coin Flips for 2014 Add. x+0.1</text>
   </g>
   <g id="legend_1">
    <g id="patch_7">
     <path d="M 64.6 108.1845 
L 276.314062 108.1845 
Q 278.314062 108.1845 278.314062 106.1845 
L 278.314062 48.472 
Q 278.314062 46.472 276.314062 46.472 
L 64.6 46.472 
Q 62.6 46.472 62.6 48.472 
L 62.6 106.1845 
Q 62.6 108.1845 64.6 108.1845 
z
" style="fill:#ffffff;opacity:0.8;stroke:#cccccc;stroke-linejoin:miter;"/>
    </g>
    <g id="line2d_15">
     <path d="M 66.6 54.570438 
L 86.6 54.570438 
" style="fill:none;stroke:#1f77b4;stroke-linecap:square;stroke-width:1.5;"/>
    </g>
    <g id="line2d_16"/>
    <g id="text_14">
     <text style="font-family:DejaVu Sans;font-size:10px;font-style:normal;font-weight:normal;text-anchor:start;" transform="rotate(-0, 94.6, 58.070438)" x="94.6" y="58.070438">Coin Flip Lower Bound</text>
    </g>
    <g id="line2d_17">
     <path d="M 66.6 69.248563 
L 86.6 69.248563 
" style="fill:none;stroke:#ff7f0e;stroke-linecap:square;stroke-width:1.5;"/>
    </g>
    <g id="line2d_18"/>
    <g id="text_15">
     <text style="font-family:DejaVu Sans;font-size:10px;font-style:normal;font-weight:normal;text-anchor:start;" transform="rotate(-0, 94.6, 72.748563)" x="94.6" y="72.748563">Avg. Coins Flipped 2014 Add. x+0.1</text>
    </g>
    <g id="line2d_19">
     <path d="M 66.6 83.926688 
L 86.6 83.926688 
" style="fill:none;stroke:#2ca02c;stroke-linecap:square;stroke-width:1.5;"/>
    </g>
    <g id="line2d_20"/>
    <g id="text_16">
     <text style="font-family:DejaVu Sans;font-size:10px;font-style:normal;font-weight:normal;text-anchor:start;" transform="rotate(-0, 94.6, 87.426688)" x="94.6" y="87.426688">Avg. Coins Flipped 2016 Add. x+0.1</text>
    </g>
    <g id="line2d_21">
     <path d="M 66.6 98.604813 
L 86.6 98.604813 
" style="fill:none;stroke:#d62728;stroke-linecap:square;stroke-width:1.5;"/>
    </g>
    <g id="line2d_22"/>
    <g id="text_17">
     <text style="font-family:DejaVu Sans;font-size:10px;font-style:normal;font-weight:normal;text-anchor:start;" transform="rotate(-0, 94.6, 102.104813)" x="94.6" y="102.104813">Avg. Coins Flipped 2019 Add. x+0.1</text>
    </g>
   </g>
  </g>
 </g>
 <defs>
  <clipPath id="pdcdaca051e">
   <rect height="266.112" width="357.12" x="57.6" y="41.472"/>
  </clipPath>
 </defs>
</svg>
