<?xml version="1.0" encoding="utf-8" standalone="no"?>
<!DOCTYPE svg PUBLIC "-//W3C//DTD SVG 1.1//EN"
  "http://www.w3.org/Graphics/SVG/1.1/DTD/svg11.dtd">
<!-- Created with matplotlib (https://matplotlib.org/) -->
<svg height="345.6pt" version="1.1" viewBox="0 0 460.8 345.6" width="460.8pt" xmlns="http://www.w3.org/2000/svg" xmlns:xlink="http://www.w3.org/1999/xlink">
 <defs>
  <style type="text/css">
*{stroke-linecap:butt;stroke-linejoin:round;}
  </style>
 </defs>
 <g id="figure_1">
  <g id="patch_1">
   <path d="M 0 345.6 
L 460.8 345.6 
L 460.8 0 
L 0 0 
z
" style="fill:#ffffff;"/>
  </g>
  <g id="axes_1">
   <g id="patch_2">
    <path d="M 57.6 307.584 
L 414.72 307.584 
L 414.72 41.472 
L 57.6 41.472 
z
" style="fill:#ffffff;"/>
   </g>
   <g id="matplotlib.axis_1">
    <g id="xtick_1">
     <g id="line2d_1">
      <defs>
       <path d="M 0 0 
L 0 3.5 
" id="m82c40c3c27" style="stroke:#000000;stroke-width:0.8;"/>
      </defs>
      <g>
       <use style="stroke:#000000;stroke-width:0.8;" x="84.934174" xlink:href="#m82c40c3c27" y="307.584"/>
      </g>
     </g>
     <g id="text_1">
      <text style="font-family:DejaVu Sans;font-size:10px;font-style:normal;font-weight:normal;text-anchor:middle;" transform="rotate(-0, 84.934174, 322.182437)" x="84.934174" y="322.182437">0.6</text>
     </g>
    </g>
    <g id="xtick_2">
     <g id="line2d_2">
      <g>
       <use style="stroke:#000000;stroke-width:0.8;" x="163.342051" xlink:href="#m82c40c3c27" y="307.584"/>
      </g>
     </g>
     <g id="text_2">
      <text style="font-family:DejaVu Sans;font-size:10px;font-style:normal;font-weight:normal;text-anchor:middle;" transform="rotate(-0, 163.342051, 322.182437)" x="163.342051" y="322.182437">0.7</text>
     </g>
    </g>
    <g id="xtick_3">
     <g id="line2d_3">
      <g>
       <use style="stroke:#000000;stroke-width:0.8;" x="241.749927" xlink:href="#m82c40c3c27" y="307.584"/>
      </g>
     </g>
     <g id="text_3">
      <text style="font-family:DejaVu Sans;font-size:10px;font-style:normal;font-weight:normal;text-anchor:middle;" transform="rotate(-0, 241.749927, 322.182437)" x="241.749927" y="322.182437">0.8</text>
     </g>
    </g>
    <g id="xtick_4">
     <g id="line2d_4">
      <g>
       <use style="stroke:#000000;stroke-width:0.8;" x="320.157804" xlink:href="#m82c40c3c27" y="307.584"/>
      </g>
     </g>
     <g id="text_4">
      <text style="font-family:DejaVu Sans;font-size:10px;font-style:normal;font-weight:normal;text-anchor:middle;" transform="rotate(-0, 320.157804, 322.182437)" x="320.157804" y="322.182437">0.9</text>
     </g>
    </g>
    <g id="xtick_5">
     <g id="line2d_5">
      <g>
       <use style="stroke:#000000;stroke-width:0.8;" x="398.565681" xlink:href="#m82c40c3c27" y="307.584"/>
      </g>
     </g>
     <g id="text_5">
      <text style="font-family:DejaVu Sans;font-size:10px;font-style:normal;font-weight:normal;text-anchor:middle;" transform="rotate(-0, 398.565681, 322.182437)" x="398.565681" y="322.182437">1.0</text>
     </g>
    </g>
    <g id="text_6">
     <text style="font-family:DejaVu Sans;font-size:10px;font-style:normal;font-weight:normal;text-anchor:middle;" transform="rotate(-0, 236.16, 335.860562)" x="236.16" y="335.860562">Probability</text>
    </g>
   </g>
   <g id="matplotlib.axis_2">
    <g id="ytick_1">
     <g id="line2d_6">
      <defs>
       <path d="M 0 0 
L -3.5 0 
" id="me1e9295c3f" style="stroke:#000000;stroke-width:0.8;"/>
      </defs>
      <g>
       <use style="stroke:#000000;stroke-width:0.8;" x="57.6" xlink:href="#me1e9295c3f" y="294.168869"/>
      </g>
     </g>
     <g id="text_7">
      <text style="font-family:DejaVu Sans;font-size:10px;font-style:normal;font-weight:normal;text-anchor:end;" transform="rotate(-0, 50.6, 297.968088)" x="50.6" y="297.968088">50</text>
     </g>
    </g>
    <g id="ytick_2">
     <g id="line2d_7">
      <g>
       <use style="stroke:#000000;stroke-width:0.8;" x="57.6" xlink:href="#me1e9295c3f" y="240.545668"/>
      </g>
     </g>
     <g id="text_8">
      <text style="font-family:DejaVu Sans;font-size:10px;font-style:normal;font-weight:normal;text-anchor:end;" transform="rotate(-0, 50.6, 244.344887)" x="50.6" y="244.344887">100</text>
     </g>
    </g>
    <g id="ytick_3">
     <g id="line2d_8">
      <g>
       <use style="stroke:#000000;stroke-width:0.8;" x="57.6" xlink:href="#me1e9295c3f" y="186.922467"/>
      </g>
     </g>
     <g id="text_9">
      <text style="font-family:DejaVu Sans;font-size:10px;font-style:normal;font-weight:normal;text-anchor:end;" transform="rotate(-0, 50.6, 190.721685)" x="50.6" y="190.721685">150</text>
     </g>
    </g>
    <g id="ytick_4">
     <g id="line2d_9">
      <g>
       <use style="stroke:#000000;stroke-width:0.8;" x="57.6" xlink:href="#me1e9295c3f" y="133.299265"/>
      </g>
     </g>
     <g id="text_10">
      <text style="font-family:DejaVu Sans;font-size:10px;font-style:normal;font-weight:normal;text-anchor:end;" transform="rotate(-0, 50.6, 137.098484)" x="50.6" y="137.098484">200</text>
     </g>
    </g>
    <g id="ytick_5">
     <g id="line2d_10">
      <g>
       <use style="stroke:#000000;stroke-width:0.8;" x="57.6" xlink:href="#me1e9295c3f" y="79.676064"/>
      </g>
     </g>
     <g id="text_11">
      <text style="font-family:DejaVu Sans;font-size:10px;font-style:normal;font-weight:normal;text-anchor:end;" transform="rotate(-0, 50.6, 83.475283)" x="50.6" y="83.475283">250</text>
     </g>
    </g>
    <g id="text_12">
     <text style="font-family:DejaVu Sans;font-size:10px;font-style:normal;font-weight:normal;text-anchor:middle;" transform="rotate(-90, 25.432812, 174.528)" x="25.432812" y="174.528">Average Bits Consumed Per Call</text>
    </g>
   </g>
   <g id="line2d_11">
    <path clip-path="url(#pd80e245bbe)" d="M 73.832727 202.807804 
M 113.424745 221.833316 
L 121.343149 238.128334 
M 137.179956 228.945897 
L 145.098359 232.225492 
M 160.935166 237.431232 
M 176.771973 225.479693 
L 184.690377 246.229727 
L 192.60878 259.622658 
L 200.527184 263.266891 
L 208.445588 267.415182 
L 216.363991 265.913732 
L 224.282395 256.566136 
L 232.200798 260.203934 
L 240.119202 274.467705 
L 248.037605 281.642489 
L 255.956009 286.281969 
L 263.874412 283.092461 
L 271.792816 271.243878 
L 279.71122 260.643644 
L 287.629623 267.224283 
L 295.548027 264.643935 
L 303.46643 279.907243 
L 311.384834 271.207414 
L 319.303237 275.460807 
L 327.221641 294.250377 
L 335.140044 290.027013 
L 343.058448 290.12139 
L 350.976851 274.885966 
L 358.895255 287.369447 
L 366.813659 285.94736 
L 374.732062 291.940289 
L 382.650466 294.098087 
L 390.568869 289.540115 
L 398.487273 295.488 
" style="fill:none;stroke:#1f77b4;stroke-linecap:square;stroke-width:1.5;"/>
   </g>
   <g id="line2d_12">
    <path clip-path="url(#pd80e245bbe)" d="M 176.771973 93.877633 
L 184.690377 53.568 
L 192.60878 74.313744 
L 200.527184 125.678336 
L 208.445588 101.627258 
L 216.363991 123.694278 
L 224.282395 129.948888 
L 232.200798 127.610916 
M 248.037605 123.076538 
L 255.956009 169.293303 
L 263.874412 161.768895 
L 271.792816 162.592548 
L 279.71122 194.337483 
L 287.629623 162.697649 
L 295.548027 193.796961 
L 303.46643 177.195218 
L 311.384834 183.876669 
L 319.303237 187.098351 
L 327.221641 187.844786 
L 335.140044 200.021542 
L 343.058448 188.619105 
L 350.976851 190.169888 
L 358.895255 191.800033 
L 366.813659 217.944561 
L 374.732062 210.548849 
L 382.650466 215.823227 
L 390.568869 218.056097 
L 398.487273 220.231054 
" style="fill:none;stroke:#ff7f0e;stroke-linecap:square;stroke-width:1.5;"/>
   </g>
   <g id="line2d_13">
    <path clip-path="url(#pd80e245bbe)" d="M 184.690377 171.120782 
M 200.527184 194.689251 
L 208.445588 200.418354 
L 216.363991 180.172378 
M 240.119202 211.816502 
M 255.956009 195.740266 
L 263.874412 237.903117 
M 279.71122 242.73135 
L 287.629623 243.595756 
M 303.46643 239.786363 
L 311.384834 242.894364 
L 319.303237 254.592802 
M 335.140044 253.672628 
L 343.058448 255.886193 
L 350.976851 245.648452 
L 358.895255 254.498425 
L 366.813659 260.733731 
L 374.732062 250.749091 
M 398.487273 254.232454 
" style="fill:none;stroke:#2ca02c;stroke-linecap:square;stroke-width:1.5;"/>
   </g>
   <g id="patch_3">
    <path d="M 57.6 307.584 
L 57.6 41.472 
" style="fill:none;stroke:#000000;stroke-linecap:square;stroke-linejoin:miter;stroke-width:0.8;"/>
   </g>
   <g id="patch_4">
    <path d="M 414.72 307.584 
L 414.72 41.472 
" style="fill:none;stroke:#000000;stroke-linecap:square;stroke-linejoin:miter;stroke-width:0.8;"/>
   </g>
   <g id="patch_5">
    <path d="M 57.6 307.584 
L 414.72 307.584 
" style="fill:none;stroke:#000000;stroke-linecap:square;stroke-linejoin:miter;stroke-width:0.8;"/>
   </g>
   <g id="patch_6">
    <path d="M 57.6 41.472 
L 414.72 41.472 
" style="fill:none;stroke:#000000;stroke-linecap:square;stroke-linejoin:miter;stroke-width:0.8;"/>
   </g>
   <g id="text_13">
    <text style="font-family:DejaVu Sans;font-size:12px;font-style:normal;font-weight:normal;text-anchor:middle;" transform="rotate(-0, 236.16, 35.472)" x="236.16" y="35.472">Avg. Bits Consumed</text>
   </g>
   <g id="legend_1">
    <g id="patch_7">
     <path d="M 296.271563 93.506375 
L 407.72 93.506375 
Q 409.72 93.506375 409.72 91.506375 
L 409.72 48.472 
Q 409.72 46.472 407.72 46.472 
L 296.271563 46.472 
Q 294.271563 46.472 294.271563 48.472 
L 294.271563 91.506375 
Q 294.271563 93.506375 296.271563 93.506375 
z
" style="fill:#ffffff;opacity:0.8;stroke:#cccccc;stroke-linejoin:miter;"/>
    </g>
    <g id="line2d_14">
     <path d="M 298.271563 54.570438 
L 318.271563 54.570438 
" style="fill:none;stroke:#1f77b4;stroke-linecap:square;stroke-width:1.5;"/>
    </g>
    <g id="line2d_15"/>
    <g id="text_14">
     <text style="font-family:DejaVu Sans;font-size:10px;font-style:normal;font-weight:normal;text-anchor:start;" transform="rotate(-0, 326.271563, 58.070438)" x="326.271563" y="58.070438">2014 Sub. x-0.5</text>
    </g>
    <g id="line2d_16">
     <path d="M 298.271563 69.248563 
L 318.271563 69.248563 
" style="fill:none;stroke:#ff7f0e;stroke-linecap:square;stroke-width:1.5;"/>
    </g>
    <g id="line2d_17"/>
    <g id="text_15">
     <text style="font-family:DejaVu Sans;font-size:10px;font-style:normal;font-weight:normal;text-anchor:start;" transform="rotate(-0, 326.271563, 72.748563)" x="326.271563" y="72.748563">2016 Sub. x-0.5</text>
    </g>
    <g id="line2d_18">
     <path d="M 298.271563 83.926688 
L 318.271563 83.926688 
" style="fill:none;stroke:#2ca02c;stroke-linecap:square;stroke-width:1.5;"/>
    </g>
    <g id="line2d_19"/>
    <g id="text_16">
     <text style="font-family:DejaVu Sans;font-size:10px;font-style:normal;font-weight:normal;text-anchor:start;" transform="rotate(-0, 326.271563, 87.426688)" x="326.271563" y="87.426688">2019 Sub. x-0.5</text>
    </g>
   </g>
  </g>
 </g>
 <defs>
  <clipPath id="pd80e245bbe">
   <rect height="266.112" width="357.12" x="57.6" y="41.472"/>
  </clipPath>
 </defs>
</svg>
