<?xml version="1.0" encoding="utf-8" standalone="no"?>
<!DOCTYPE svg PUBLIC "-//W3C//DTD SVG 1.1//EN"
  "http://www.w3.org/Graphics/SVG/1.1/DTD/svg11.dtd">
<!-- Created with matplotlib (https://matplotlib.org/) -->
<svg height="345.6pt" version="1.1" viewBox="0 0 460.8 345.6" width="460.8pt" xmlns="http://www.w3.org/2000/svg" xmlns:xlink="http://www.w3.org/1999/xlink">
 <defs>
  <style type="text/css">
*{stroke-linecap:butt;stroke-linejoin:round;}
  </style>
 </defs>
 <g id="figure_1">
  <g id="patch_1">
   <path d="M 0 345.6 
L 460.8 345.6 
L 460.8 0 
L 0 0 
z
" style="fill:#ffffff;"/>
  </g>
  <g id="axes_1">
   <g id="patch_2">
    <path d="M 57.6 307.584 
L 414.72 307.584 
L 414.72 41.472 
L 57.6 41.472 
z
" style="fill:#ffffff;"/>
   </g>
   <g id="matplotlib.axis_1">
    <g id="xtick_1">
     <g id="line2d_1">
      <defs>
       <path d="M 0 0 
L 0 3.5 
" id="m5dd4929eac" style="stroke:#000000;stroke-width:0.8;"/>
      </defs>
      <g>
       <use style="stroke:#000000;stroke-width:0.8;" x="73.786803" xlink:href="#m5dd4929eac" y="307.584"/>
      </g>
     </g>
     <g id="text_1">
      <text style="font-family:DejaVu Sans;font-size:10px;font-style:normal;font-weight:normal;text-anchor:middle;" transform="rotate(-0, 73.786803, 322.182437)" x="73.786803" y="322.182437">0.0</text>
     </g>
    </g>
    <g id="xtick_2">
     <g id="line2d_2">
      <g>
       <use style="stroke:#000000;stroke-width:0.8;" x="119.711416" xlink:href="#m5dd4929eac" y="307.584"/>
      </g>
     </g>
     <g id="text_2">
      <text style="font-family:DejaVu Sans;font-size:10px;font-style:normal;font-weight:normal;text-anchor:middle;" transform="rotate(-0, 119.711416, 322.182437)" x="119.711416" y="322.182437">0.1</text>
     </g>
    </g>
    <g id="xtick_3">
     <g id="line2d_3">
      <g>
       <use style="stroke:#000000;stroke-width:0.8;" x="165.63603" xlink:href="#m5dd4929eac" y="307.584"/>
      </g>
     </g>
     <g id="text_3">
      <text style="font-family:DejaVu Sans;font-size:10px;font-style:normal;font-weight:normal;text-anchor:middle;" transform="rotate(-0, 165.63603, 322.182437)" x="165.63603" y="322.182437">0.2</text>
     </g>
    </g>
    <g id="xtick_4">
     <g id="line2d_4">
      <g>
       <use style="stroke:#000000;stroke-width:0.8;" x="211.560643" xlink:href="#m5dd4929eac" y="307.584"/>
      </g>
     </g>
     <g id="text_4">
      <text style="font-family:DejaVu Sans;font-size:10px;font-style:normal;font-weight:normal;text-anchor:middle;" transform="rotate(-0, 211.560643, 322.182437)" x="211.560643" y="322.182437">0.3</text>
     </g>
    </g>
    <g id="xtick_5">
     <g id="line2d_5">
      <g>
       <use style="stroke:#000000;stroke-width:0.8;" x="257.485257" xlink:href="#m5dd4929eac" y="307.584"/>
      </g>
     </g>
     <g id="text_5">
      <text style="font-family:DejaVu Sans;font-size:10px;font-style:normal;font-weight:normal;text-anchor:middle;" transform="rotate(-0, 257.485257, 322.182437)" x="257.485257" y="322.182437">0.4</text>
     </g>
    </g>
    <g id="xtick_6">
     <g id="line2d_6">
      <g>
       <use style="stroke:#000000;stroke-width:0.8;" x="303.40987" xlink:href="#m5dd4929eac" y="307.584"/>
      </g>
     </g>
     <g id="text_6">
      <text style="font-family:DejaVu Sans;font-size:10px;font-style:normal;font-weight:normal;text-anchor:middle;" transform="rotate(-0, 303.40987, 322.182437)" x="303.40987" y="322.182437">0.5</text>
     </g>
    </g>
    <g id="xtick_7">
     <g id="line2d_7">
      <g>
       <use style="stroke:#000000;stroke-width:0.8;" x="349.334484" xlink:href="#m5dd4929eac" y="307.584"/>
      </g>
     </g>
     <g id="text_7">
      <text style="font-family:DejaVu Sans;font-size:10px;font-style:normal;font-weight:normal;text-anchor:middle;" transform="rotate(-0, 349.334484, 322.182437)" x="349.334484" y="322.182437">0.6</text>
     </g>
    </g>
    <g id="xtick_8">
     <g id="line2d_8">
      <g>
       <use style="stroke:#000000;stroke-width:0.8;" x="395.259097" xlink:href="#m5dd4929eac" y="307.584"/>
      </g>
     </g>
     <g id="text_8">
      <text style="font-family:DejaVu Sans;font-size:10px;font-style:normal;font-weight:normal;text-anchor:middle;" transform="rotate(-0, 395.259097, 322.182437)" x="395.259097" y="322.182437">0.7</text>
     </g>
    </g>
    <g id="text_9">
     <text style="font-family:DejaVu Sans;font-size:10px;font-style:normal;font-weight:normal;text-anchor:middle;" transform="rotate(-0, 236.16, 335.860562)" x="236.16" y="335.860562">Probability</text>
    </g>
   </g>
   <g id="matplotlib.axis_2">
    <g id="ytick_1">
     <g id="line2d_9">
      <defs>
       <path d="M 0 0 
L -3.5 0 
" id="m79fedabf7d" style="stroke:#000000;stroke-width:0.8;"/>
      </defs>
      <g>
       <use style="stroke:#000000;stroke-width:0.8;" x="57.6" xlink:href="#m79fedabf7d" y="299.459172"/>
      </g>
     </g>
     <g id="text_10">
      <text style="font-family:DejaVu Sans;font-size:10px;font-style:normal;font-weight:normal;text-anchor:end;" transform="rotate(-0, 50.6, 303.258391)" x="50.6" y="303.258391">0</text>
     </g>
    </g>
    <g id="ytick_2">
     <g id="line2d_10">
      <g>
       <use style="stroke:#000000;stroke-width:0.8;" x="57.6" xlink:href="#m79fedabf7d" y="241.637799"/>
      </g>
     </g>
     <g id="text_11">
      <text style="font-family:DejaVu Sans;font-size:10px;font-style:normal;font-weight:normal;text-anchor:end;" transform="rotate(-0, 50.6, 245.437017)" x="50.6" y="245.437017">100</text>
     </g>
    </g>
    <g id="ytick_3">
     <g id="line2d_11">
      <g>
       <use style="stroke:#000000;stroke-width:0.8;" x="57.6" xlink:href="#m79fedabf7d" y="183.816425"/>
      </g>
     </g>
     <g id="text_12">
      <text style="font-family:DejaVu Sans;font-size:10px;font-style:normal;font-weight:normal;text-anchor:end;" transform="rotate(-0, 50.6, 187.615644)" x="50.6" y="187.615644">200</text>
     </g>
    </g>
    <g id="ytick_4">
     <g id="line2d_12">
      <g>
       <use style="stroke:#000000;stroke-width:0.8;" x="57.6" xlink:href="#m79fedabf7d" y="125.995052"/>
      </g>
     </g>
     <g id="text_13">
      <text style="font-family:DejaVu Sans;font-size:10px;font-style:normal;font-weight:normal;text-anchor:end;" transform="rotate(-0, 50.6, 129.794271)" x="50.6" y="129.794271">300</text>
     </g>
    </g>
    <g id="ytick_5">
     <g id="line2d_13">
      <g>
       <use style="stroke:#000000;stroke-width:0.8;" x="57.6" xlink:href="#m79fedabf7d" y="68.173679"/>
      </g>
     </g>
     <g id="text_14">
      <text style="font-family:DejaVu Sans;font-size:10px;font-style:normal;font-weight:normal;text-anchor:end;" transform="rotate(-0, 50.6, 71.972898)" x="50.6" y="71.972898">400</text>
     </g>
    </g>
    <g id="text_15">
     <text style="font-family:DejaVu Sans;font-size:10px;font-style:normal;font-weight:normal;text-anchor:middle;" transform="rotate(-90, 25.432812, 174.528)" x="25.432812" y="174.528">Average Bits Consumed Per Call</text>
    </g>
   </g>
   <g id="line2d_14">
    <path clip-path="url(#p6c8f328cb6)" d="M 73.832727 281.085852 
L 78.470649 282.16133 
L 83.108571 281.824809 
L 87.746494 281.425842 
L 92.384416 281.30673 
L 97.022338 282.600772 
L 101.66026 280.580494 
L 106.298182 282.172894 
L 110.936104 279.145367 
L 115.574026 281.081227 
L 120.211948 280.822187 
L 124.84987 282.252688 
L 129.487792 283.331634 
L 134.125714 282.936136 
L 138.763636 282.074598 
L 143.401558 282.419213 
L 148.039481 283.89944 
L 152.677403 283.269187 
L 157.315325 282.679409 
L 161.953247 283.426462 
L 166.591169 282.933823 
L 171.229091 282.5788 
L 175.867013 281.37149 
L 180.504935 282.764985 
L 185.142857 284.56323 
L 189.780779 284.619895 
L 194.418701 282.294319 
L 199.056623 282.28738 
L 203.694545 281.584273 
L 208.332468 280.766678 
L 212.97039 281.927732 
L 217.608312 281.976301 
L 222.246234 281.118232 
L 226.884156 279.221691 
L 231.522078 277.750716 
L 236.16 280.116766 
L 240.797922 280.545801 
L 245.435844 279.854257 
L 250.073766 279.331552 
L 254.711688 280.085543 
L 259.34961 279.397468 
L 263.987532 277.579564 
L 268.625455 280.489136 
L 273.263377 280.528454 
L 277.901299 280.745863 
L 282.539221 280.179213 
L 287.177143 279.160401 
L 291.815065 277.367938 
L 296.452987 277.672078 
L 301.090909 277.623509 
L 305.728831 277.06611 
L 310.366753 277.630447 
L 315.004675 280.253225 
L 319.642597 280.481041 
L 324.280519 276.722652 
L 328.918442 273.918315 
L 333.556364 277.736838 
L 338.194286 275.541939 
L 342.832208 279.067886 
L 347.47013 272.78386 
L 352.108052 270.388898 
L 356.745974 272.505161 
L 361.383896 271.147515 
L 366.021818 271.243498 
L 370.65974 269.426751 
M 389.211429 264.696962 
L 393.849351 261.647463 
L 398.487273 258.290354 
" style="fill:none;stroke:#1f77b4;stroke-linecap:square;stroke-width:1.5;"/>
   </g>
   <g id="line2d_15">
    <path clip-path="url(#p6c8f328cb6)" d="M 73.832727 275.766286 
L 78.470649 274.98801 
L 83.108571 275.983694 
L 87.746494 275.411263 
L 92.384416 275.374257 
L 97.022338 275.6969 
L 101.66026 274.704686 
L 106.298182 274.637613 
L 110.936104 271.55689 
L 115.574026 270.962486 
L 120.211948 271.636684 
L 124.84987 271.293225 
L 129.487792 270.848 
L 134.125714 271.884159 
L 138.763636 272.056467 
L 143.401558 271.700287 
L 148.039481 271.467845 
L 152.677403 270.569301 
L 157.315325 271.410024 
L 161.953247 271.078129 
L 166.591169 266.156374 
L 171.229091 268.078356 
L 175.867013 268.756023 
L 180.504935 266.601598 
L 185.142857 265.465987 
L 189.780779 266.608537 
L 194.418701 267.756869 
L 199.056623 268.228692 
L 203.694545 258.756394 
L 208.332468 264.029704 
L 212.97039 261.384954 
L 217.608312 261.514474 
L 222.246234 262.926472 
L 226.884156 262.285811 
L 231.522078 256.845976 
L 236.16 255.302146 
L 240.797922 256.93849 
L 245.435844 257.206782 
L 250.073766 260.21118 
L 254.711688 251.983199 
L 259.34961 255.291738 
L 263.987532 253.922528 
L 268.625455 250.323725 
L 273.263377 252.679368 
L 277.901299 246.468196 
L 282.539221 247.37021 
L 287.177143 239.169982 
L 291.815065 243.434887 
L 296.452987 238.212461 
L 301.090909 238.646121 
L 305.728831 239.53657 
L 310.366753 230.332564 
L 315.004675 229.683808 
L 319.642597 226.975455 
L 324.280519 221.202569 
L 328.918442 209.638294 
L 333.556364 213.703137 
L 338.194286 205.271624 
L 342.832208 211.642383 
L 347.47013 194.260122 
L 352.108052 197.124593 
L 356.745974 208.862331 
M 366.021818 176.009384 
" style="fill:none;stroke:#ff7f0e;stroke-linecap:square;stroke-width:1.5;"/>
   </g>
   <g id="line2d_16">
    <path clip-path="url(#p6c8f328cb6)" d="M 73.832727 295.095971 
L 78.470649 295.488 
L 83.108571 295.234742 
L 87.746494 295.05434 
L 92.384416 294.025119 
L 97.022338 294.574422 
L 101.66026 294.642652 
L 106.298182 294.247153 
L 110.936104 294.6334 
L 115.574026 292.796993 
L 120.211948 293.105759 
L 124.84987 293.038687 
L 129.487792 292.795837 
L 134.125714 292.356394 
L 138.763636 292.143612 
L 143.401558 290.905078 
L 148.039481 291.3318 
L 152.677403 290.256322 
L 157.315325 290.015785 
L 161.953247 289.228258 
L 166.591169 288.863983 
L 171.229091 289.571717 
L 175.867013 288.128496 
L 180.504935 287.433483 
L 185.142857 285.447897 
L 189.780779 285.416673 
L 194.418701 283.790736 
L 199.056623 284.861588 
L 203.694545 282.174051 
L 208.332468 278.317365 
L 212.97039 279.017004 
L 217.608312 278.031727 
L 222.246234 276.735372 
L 226.884156 272.438088 
L 231.522078 270.583178 
L 236.16 269.881227 
L 240.797922 262.951913 
L 245.435844 261.798955 
L 250.073766 261.934257 
" style="fill:none;stroke:#2ca02c;stroke-linecap:square;stroke-width:1.5;"/>
   </g>
   <g id="line2d_17">
    <path clip-path="url(#p6c8f328cb6)" d="M 73.832727 285.440958 
L 78.470649 285.610953 
L 83.108571 286.200731 
L 87.746494 285.904686 
L 92.384416 286.452832 
L 97.022338 282.118542 
L 101.66026 285.742786 
L 106.298182 285.968289 
L 110.936104 286.148692 
L 115.574026 282.123168 
L 120.211948 282.390303 
L 124.84987 282.508258 
L 129.487792 282.591521 
L 134.125714 282.204118 
L 138.763636 282.496694 
L 143.401558 281.401557 
L 148.039481 281.579647 
L 152.677403 281.251221 
L 157.315325 282.33595 
M 166.591169 283.30735 
L 171.229091 281.637468 
L 175.867013 283.153545 
L 180.504935 277.833978 
L 185.142857 278.191314 
L 189.780779 278.58103 
L 194.418701 278.389064 
L 199.056623 279.21244 
L 203.694545 278.305801 
L 208.332468 278.121929 
L 212.97039 278.829662 
L 217.608312 275.925873 
L 222.246234 274.324221 
L 226.884156 272.805832 
L 231.522078 275.806761 
L 236.16 271.262001 
L 240.797922 269.853472 
M 250.073766 268.626503 
L 254.711688 268.027473 
M 263.987532 265.823323 
L 268.625455 268.10958 
L 273.263377 260.95245 
L 277.901299 266.534526 
L 282.539221 267.007504 
L 287.177143 259.668816 
L 291.815065 257.914515 
L 296.452987 255.786689 
L 301.090909 257.048351 
L 305.728831 250.360731 
L 310.366753 258.836188 
L 315.004675 251.10547 
L 319.642597 247.247628 
L 324.280519 239.948258 
M 338.194286 242.079554 
L 342.832208 203.853844 
L 347.47013 244.782125 
M 356.745974 232.215228 
M 375.297662 214.964799 
L 379.935584 214.022311 
" style="fill:none;stroke:#d62728;stroke-linecap:square;stroke-width:1.5;"/>
   </g>
   <g id="line2d_18">
    <path clip-path="url(#p6c8f328cb6)" d="M 78.470649 53.568 
L 83.108571 157.337706 
L 87.746494 184.091655 
L 92.384416 207.990385 
L 97.022338 220.135186 
L 101.66026 227.081846 
L 106.298182 231.273896 
L 110.936104 234.49339 
L 115.574026 238.376673 
L 120.211948 240.775104 
L 124.84987 245.6772 
L 129.487792 244.786751 
L 134.125714 244.135682 
L 138.763636 248.298821 
L 143.401558 247.646596 
L 148.039481 249.015806 
L 152.677403 253.461113 
L 157.315325 253.315403 
L 161.953247 252.164758 
L 166.591169 253.690086 
M 175.867013 255.300989 
L 180.504935 254.856921 
L 185.142857 258.806121 
L 189.780779 258.53783 
L 194.418701 258.130767 
L 199.056623 258.264913 
L 203.694545 262.14357 
L 208.332468 255.587783 
L 212.97039 259.730106 
L 217.608312 257.512078 
L 222.246234 259.784458 
L 226.884156 256.163684 
L 231.522078 262.06609 
L 236.16 257.92261 
L 240.797922 263.013204 
L 245.435844 264.679616 
" style="fill:none;stroke:#9467bd;stroke-linecap:square;stroke-width:1.5;"/>
   </g>
   <g id="patch_3">
    <path d="M 57.6 307.584 
L 57.6 41.472 
" style="fill:none;stroke:#000000;stroke-linecap:square;stroke-linejoin:miter;stroke-width:0.8;"/>
   </g>
   <g id="patch_4">
    <path d="M 414.72 307.584 
L 414.72 41.472 
" style="fill:none;stroke:#000000;stroke-linecap:square;stroke-linejoin:miter;stroke-width:0.8;"/>
   </g>
   <g id="patch_5">
    <path d="M 57.6 307.584 
L 414.72 307.584 
" style="fill:none;stroke:#000000;stroke-linecap:square;stroke-linejoin:miter;stroke-width:0.8;"/>
   </g>
   <g id="patch_6">
    <path d="M 57.6 41.472 
L 414.72 41.472 
" style="fill:none;stroke:#000000;stroke-linecap:square;stroke-linejoin:miter;stroke-width:0.8;"/>
   </g>
   <g id="text_16">
    <text style="font-family:DejaVu Sans;font-size:12px;font-style:normal;font-weight:normal;text-anchor:middle;" transform="rotate(-0, 236.16, 35.472)" x="236.16" y="35.472">Avg. Bits Consumed by 2014 Lin. x*1.3 Algorithm</text>
   </g>
   <g id="legend_1">
    <g id="patch_7">
     <path d="M 233.6325 122.862625 
L 407.72 122.862625 
Q 409.72 122.862625 409.72 120.862625 
L 409.72 48.472 
Q 409.72 46.472 407.72 46.472 
L 233.6325 46.472 
Q 231.6325 46.472 231.6325 48.472 
L 231.6325 120.862625 
Q 231.6325 122.862625 233.6325 122.862625 
z
" style="fill:#ffffff;opacity:0.8;stroke:#cccccc;stroke-linejoin:miter;"/>
    </g>
    <g id="line2d_19">
     <path d="M 235.6325 54.570438 
L 255.6325 54.570438 
" style="fill:none;stroke:#1f77b4;stroke-linecap:square;stroke-width:1.5;"/>
    </g>
    <g id="line2d_20"/>
    <g id="text_17">
     <text style="font-family:DejaVu Sans;font-size:10px;font-style:normal;font-weight:normal;text-anchor:start;" transform="rotate(-0, 263.6325, 58.070438)" x="263.6325" y="58.070438">2014 Lin. x*1.3</text>
    </g>
    <g id="line2d_21">
     <path d="M 235.6325 69.248563 
L 255.6325 69.248563 
" style="fill:none;stroke:#ff7f0e;stroke-linecap:square;stroke-width:1.5;"/>
    </g>
    <g id="line2d_22"/>
    <g id="text_18">
     <text style="font-family:DejaVu Sans;font-size:10px;font-style:normal;font-weight:normal;text-anchor:start;" transform="rotate(-0, 263.6325, 72.748563)" x="263.6325" y="72.748563">2016 Lin. x*1.3</text>
    </g>
    <g id="line2d_23">
     <path d="M 235.6325 83.926688 
L 255.6325 83.926688 
" style="fill:none;stroke:#2ca02c;stroke-linecap:square;stroke-width:1.5;"/>
    </g>
    <g id="line2d_24"/>
    <g id="text_19">
     <text style="font-family:DejaVu Sans;font-size:10px;font-style:normal;font-weight:normal;text-anchor:start;" transform="rotate(-0, 263.6325, 87.426688)" x="263.6325" y="87.426688">Low-Mean Lin. x*1.3</text>
    </g>
    <g id="line2d_25">
     <path d="M 235.6325 98.604813 
L 255.6325 98.604813 
" style="fill:none;stroke:#d62728;stroke-linecap:square;stroke-width:1.5;"/>
    </g>
    <g id="line2d_26"/>
    <g id="text_20">
     <text style="font-family:DejaVu Sans;font-size:10px;font-style:normal;font-weight:normal;text-anchor:start;" transform="rotate(-0, 263.6325, 102.104813)" x="263.6325" y="102.104813">2019x*1.3</text>
    </g>
    <g id="line2d_27">
     <path d="M 235.6325 113.282938 
L 255.6325 113.282938 
" style="fill:none;stroke:#9467bd;stroke-linecap:square;stroke-width:1.5;"/>
    </g>
    <g id="line2d_28"/>
    <g id="text_21">
     <text style="font-family:DejaVu Sans;font-size:10px;font-style:normal;font-weight:normal;text-anchor:start;" transform="rotate(-0, 263.6325, 116.782938)" x="263.6325" y="116.782938">Low-Mean M=0.49999 x*1.3</text>
    </g>
   </g>
  </g>
 </g>
 <defs>
  <clipPath id="p6c8f328cb6">
   <rect height="266.112" width="357.12" x="57.6" y="41.472"/>
  </clipPath>
 </defs>
</svg>
