<?xml version="1.0" encoding="utf-8" standalone="no"?>
<!DOCTYPE svg PUBLIC "-//W3C//DTD SVG 1.1//EN"
  "http://www.w3.org/Graphics/SVG/1.1/DTD/svg11.dtd">
<!-- Created with matplotlib (https://matplotlib.org/) -->
<svg height="345.6pt" version="1.1" viewBox="0 0 460.8 345.6" width="460.8pt" xmlns="http://www.w3.org/2000/svg" xmlns:xlink="http://www.w3.org/1999/xlink">
 <defs>
  <style type="text/css">
*{stroke-linecap:butt;stroke-linejoin:round;}
  </style>
 </defs>
 <g id="figure_1">
  <g id="patch_1">
   <path d="M 0 345.6 
L 460.8 345.6 
L 460.8 0 
L 0 0 
z
" style="fill:#ffffff;"/>
  </g>
  <g id="axes_1">
   <g id="patch_2">
    <path d="M 57.6 307.584 
L 414.72 307.584 
L 414.72 41.472 
L 57.6 41.472 
z
" style="fill:#ffffff;"/>
   </g>
   <g id="matplotlib.axis_1">
    <g id="xtick_1">
     <g id="line2d_1">
      <defs>
       <path d="M 0 0 
L 0 3.5 
" id="ma4e571a19e" style="stroke:#000000;stroke-width:0.8;"/>
      </defs>
      <g>
       <use style="stroke:#000000;stroke-width:0.8;" x="73.77824" xlink:href="#ma4e571a19e" y="307.584"/>
      </g>
     </g>
     <g id="text_1">
      <text style="font-family:DejaVu Sans;font-size:10px;font-style:normal;font-weight:normal;text-anchor:middle;" transform="rotate(-0, 73.77824, 322.182437)" x="73.77824" y="322.182437">0.0</text>
     </g>
    </g>
    <g id="xtick_2">
     <g id="line2d_2">
      <g>
       <use style="stroke:#000000;stroke-width:0.8;" x="128.26507" xlink:href="#ma4e571a19e" y="307.584"/>
      </g>
     </g>
     <g id="text_2">
      <text style="font-family:DejaVu Sans;font-size:10px;font-style:normal;font-weight:normal;text-anchor:middle;" transform="rotate(-0, 128.26507, 322.182437)" x="128.26507" y="322.182437">0.1</text>
     </g>
    </g>
    <g id="xtick_3">
     <g id="line2d_3">
      <g>
       <use style="stroke:#000000;stroke-width:0.8;" x="182.7519" xlink:href="#ma4e571a19e" y="307.584"/>
      </g>
     </g>
     <g id="text_3">
      <text style="font-family:DejaVu Sans;font-size:10px;font-style:normal;font-weight:normal;text-anchor:middle;" transform="rotate(-0, 182.7519, 322.182437)" x="182.7519" y="322.182437">0.2</text>
     </g>
    </g>
    <g id="xtick_4">
     <g id="line2d_4">
      <g>
       <use style="stroke:#000000;stroke-width:0.8;" x="237.238729" xlink:href="#ma4e571a19e" y="307.584"/>
      </g>
     </g>
     <g id="text_4">
      <text style="font-family:DejaVu Sans;font-size:10px;font-style:normal;font-weight:normal;text-anchor:middle;" transform="rotate(-0, 237.238729, 322.182437)" x="237.238729" y="322.182437">0.3</text>
     </g>
    </g>
    <g id="xtick_5">
     <g id="line2d_5">
      <g>
       <use style="stroke:#000000;stroke-width:0.8;" x="291.725559" xlink:href="#ma4e571a19e" y="307.584"/>
      </g>
     </g>
     <g id="text_5">
      <text style="font-family:DejaVu Sans;font-size:10px;font-style:normal;font-weight:normal;text-anchor:middle;" transform="rotate(-0, 291.725559, 322.182437)" x="291.725559" y="322.182437">0.4</text>
     </g>
    </g>
    <g id="xtick_6">
     <g id="line2d_6">
      <g>
       <use style="stroke:#000000;stroke-width:0.8;" x="346.212388" xlink:href="#ma4e571a19e" y="307.584"/>
      </g>
     </g>
     <g id="text_6">
      <text style="font-family:DejaVu Sans;font-size:10px;font-style:normal;font-weight:normal;text-anchor:middle;" transform="rotate(-0, 346.212388, 322.182437)" x="346.212388" y="322.182437">0.5</text>
     </g>
    </g>
    <g id="xtick_7">
     <g id="line2d_7">
      <g>
       <use style="stroke:#000000;stroke-width:0.8;" x="400.699218" xlink:href="#ma4e571a19e" y="307.584"/>
      </g>
     </g>
     <g id="text_7">
      <text style="font-family:DejaVu Sans;font-size:10px;font-style:normal;font-weight:normal;text-anchor:middle;" transform="rotate(-0, 400.699218, 322.182437)" x="400.699218" y="322.182437">0.6</text>
     </g>
    </g>
    <g id="text_8">
     <text style="font-family:DejaVu Sans;font-size:10px;font-style:normal;font-weight:normal;text-anchor:middle;" transform="rotate(-0, 236.16, 335.860562)" x="236.16" y="335.860562">Probability</text>
    </g>
   </g>
   <g id="matplotlib.axis_2">
    <g id="ytick_1">
     <g id="line2d_8">
      <defs>
       <path d="M 0 0 
L -3.5 0 
" id="m39a437a6a3" style="stroke:#000000;stroke-width:0.8;"/>
      </defs>
      <g>
       <use style="stroke:#000000;stroke-width:0.8;" x="57.6" xlink:href="#m39a437a6a3" y="299.644434"/>
      </g>
     </g>
     <g id="text_9">
      <text style="font-family:DejaVu Sans;font-size:10px;font-style:normal;font-weight:normal;text-anchor:end;" transform="rotate(-0, 50.6, 303.443653)" x="50.6" y="303.443653">0</text>
     </g>
    </g>
    <g id="ytick_2">
     <g id="line2d_9">
      <g>
       <use style="stroke:#000000;stroke-width:0.8;" x="57.6" xlink:href="#m39a437a6a3" y="246.45229"/>
      </g>
     </g>
     <g id="text_10">
      <text style="font-family:DejaVu Sans;font-size:10px;font-style:normal;font-weight:normal;text-anchor:end;" transform="rotate(-0, 50.6, 250.251509)" x="50.6" y="250.251509">100</text>
     </g>
    </g>
    <g id="ytick_3">
     <g id="line2d_10">
      <g>
       <use style="stroke:#000000;stroke-width:0.8;" x="57.6" xlink:href="#m39a437a6a3" y="193.260146"/>
      </g>
     </g>
     <g id="text_11">
      <text style="font-family:DejaVu Sans;font-size:10px;font-style:normal;font-weight:normal;text-anchor:end;" transform="rotate(-0, 50.6, 197.059364)" x="50.6" y="197.059364">200</text>
     </g>
    </g>
    <g id="ytick_4">
     <g id="line2d_11">
      <g>
       <use style="stroke:#000000;stroke-width:0.8;" x="57.6" xlink:href="#m39a437a6a3" y="140.068001"/>
      </g>
     </g>
     <g id="text_12">
      <text style="font-family:DejaVu Sans;font-size:10px;font-style:normal;font-weight:normal;text-anchor:end;" transform="rotate(-0, 50.6, 143.86722)" x="50.6" y="143.86722">300</text>
     </g>
    </g>
    <g id="ytick_5">
     <g id="line2d_12">
      <g>
       <use style="stroke:#000000;stroke-width:0.8;" x="57.6" xlink:href="#m39a437a6a3" y="86.875857"/>
      </g>
     </g>
     <g id="text_13">
      <text style="font-family:DejaVu Sans;font-size:10px;font-style:normal;font-weight:normal;text-anchor:end;" transform="rotate(-0, 50.6, 90.675076)" x="50.6" y="90.675076">400</text>
     </g>
    </g>
    <g id="text_14">
     <text style="font-family:DejaVu Sans;font-size:10px;font-style:normal;font-weight:normal;text-anchor:middle;" transform="rotate(-90, 25.432812, 174.528)" x="25.432812" y="174.528">Average Bits Consumed Per Call</text>
    </g>
   </g>
   <g id="line2d_13">
    <path clip-path="url(#pac0a339fb5)" d="M 73.832727 282.442095 
L 79.335347 279.456952 
L 84.837966 282.536777 
L 90.340586 281.138887 
L 95.843205 281.755916 
L 101.345824 279.335673 
L 106.848444 281.221867 
L 112.351063 280.423985 
L 117.853683 281.434635 
L 123.356302 280.946332 
L 128.858921 279.836743 
L 134.361541 282.558054 
L 139.86416 282.433584 
L 145.36678 282.149538 
L 150.869399 281.571871 
L 156.372018 282.746354 
L 161.874638 281.372933 
L 167.377257 280.099513 
L 172.879877 281.792087 
L 178.382496 282.052728 
L 183.885116 282.005919 
L 189.387735 282.806993 
L 194.890354 283.318701 
L 200.392974 280.761223 
L 205.895593 278.020764 
L 211.398213 277.434586 
L 216.900832 280.113343 
L 222.403451 279.375036 
L 227.906071 278.501621 
L 233.40869 277.689909 
L 238.91131 278.375023 
L 244.413929 279.937809 
L 249.916549 280.355899 
L 255.419168 278.314384 
L 260.921787 277.670759 
L 266.424407 276.526064 
L 271.927026 277.000538 
L 277.429646 275.554776 
L 282.932265 277.345223 
L 288.434884 272.941978 
L 293.937504 277.186711 
L 299.440123 274.787745 
L 304.942743 274.145184 
L 310.445362 273.567517 
L 315.947982 275.214346 
L 321.450601 273.148363 
L 326.95322 271.524939 
L 332.45584 271.856858 
L 337.958459 266.319556 
M 348.963698 267.91532 
L 354.466317 261.597157 
L 359.968937 270.616417 
L 365.471556 263.246114 
L 370.974176 260.029053 
L 376.476795 265.830188 
L 381.979414 253.014073 
M 392.984653 248.565082 
L 398.487273 261.358856 
" style="fill:none;stroke:#1f77b4;stroke-linecap:square;stroke-width:1.5;"/>
   </g>
   <g id="line2d_14">
    <path clip-path="url(#pac0a339fb5)" d="M 73.832727 274.711148 
L 79.335347 275.216474 
L 84.837966 274.84732 
L 90.340586 275.609032 
L 95.843205 275.955845 
L 101.345824 275.851588 
L 106.848444 275.36222 
L 112.351063 270.751525 
L 117.853683 270.172795 
L 123.356302 269.668533 
L 128.858921 273.065383 
L 134.361541 271.355788 
L 139.86416 271.320681 
L 145.36678 268.970652 
L 150.869399 270.628119 
L 156.372018 269.450445 
L 161.874638 268.502561 
L 167.377257 267.112119 
L 172.879877 267.32276 
L 178.382496 267.435527 
L 183.885116 265.632313 
L 189.387735 263.482287 
L 194.890354 268.098301 
L 200.392974 266.696156 
L 205.895593 262.503551 
L 211.398213 258.175838 
L 216.900832 261.486518 
L 222.403451 260.191821 
L 227.906071 260.2248 
L 233.40869 262.156739 
L 238.91131 259.23649 
L 244.413929 263.55782 
L 249.916549 258.717334 
L 255.419168 251.054474 
L 260.921787 254.758775 
L 266.424407 253.799189 
L 271.927026 249.654457 
L 277.429646 248.815085 
L 282.932265 246.738464 
L 288.434884 239.669228 
L 293.937504 245.442703 
L 299.440123 239.912848 
L 304.942743 234.178734 
L 310.445362 241.711806 
L 315.947982 237.970271 
L 321.450601 228.531856 
L 326.95322 230.327623 
L 332.45584 224.523296 
L 337.958459 218.532797 
L 343.461079 211.614627 
L 348.963698 206.900739 
L 354.466317 204.57837 
L 359.968937 193.935686 
M 370.974176 195.736772 
" style="fill:none;stroke:#ff7f0e;stroke-linecap:square;stroke-width:1.5;"/>
   </g>
   <g id="line2d_15">
    <path clip-path="url(#pac0a339fb5)" d="M 73.832727 295.488 
L 79.335347 294.842247 
L 84.837966 294.89544 
L 90.340586 294.642245 
L 95.843205 294.590117 
L 101.345824 295.01459 
L 106.848444 293.736915 
L 112.351063 294.664586 
L 117.853683 292.831584 
L 123.356302 291.565611 
L 128.858921 293.176269 
L 134.361541 292.566687 
L 139.86416 292.013489 
L 145.36678 291.259225 
L 150.869399 291.677315 
L 156.372018 289.016644 
L 161.874638 290.798581 
L 167.377257 290.023039 
L 172.879877 289.331541 
L 178.382496 287.355985 
L 183.885116 287.376198 
L 189.387735 285.88469 
L 194.890354 283.436788 
L 200.392974 282.476138 
L 205.895593 282.697417 
L 211.398213 283.482533 
L 216.900832 276.589895 
L 222.403451 276.473936 
L 227.906071 273.076022 
L 233.40869 274.345186 
L 238.91131 264.832303 
L 244.413929 267.698296 
L 249.916549 264.143997 
" style="fill:none;stroke:#2ca02c;stroke-linecap:square;stroke-width:1.5;"/>
   </g>
   <g id="line2d_16">
    <path clip-path="url(#pac0a339fb5)" d="M 73.832727 285.598517 
L 79.335347 286.034692 
L 84.837966 285.633623 
L 90.340586 286.449591 
L 95.843205 285.853839 
L 101.345824 286.416612 
L 106.848444 286.390016 
L 112.351063 285.778306 
L 117.853683 281.685702 
L 123.356302 281.365486 
L 128.858921 282.077197 
L 134.361541 282.305923 
L 139.86416 282.486776 
L 145.36678 281.782512 
L 150.869399 281.854853 
L 156.372018 282.862313 
L 161.874638 282.776141 
L 167.377257 281.466551 
L 172.879877 281.727192 
L 178.382496 281.385699 
L 183.885116 278.342044 
L 189.387735 278.219702 
L 194.890354 276.733514 
L 200.392974 277.971827 
L 205.895593 277.852676 
L 211.398213 274.922853 
L 216.900832 276.726067 
L 222.403451 275.109026 
L 227.906071 273.147299 
L 233.40869 271.572812 
L 238.91131 272.203671 
L 244.413929 271.99303 
L 249.916549 272.19516 
L 255.419168 271.384512 
L 260.921787 269.597256 
L 266.424407 264.090805 
L 271.927026 267.183396 
L 277.429646 262.228016 
L 282.932265 265.339756 
M 293.937504 258.905635 
L 299.440123 249.734245 
L 304.942743 264.872729 
M 315.947982 252.291723 
M 326.95322 249.967227 
M 343.461079 245.800154 
L 348.963698 228.281853 
M 370.974176 212.56783 
" style="fill:none;stroke:#d62728;stroke-linecap:square;stroke-width:1.5;"/>
   </g>
   <g id="line2d_17">
    <path clip-path="url(#pac0a339fb5)" d="M 79.335347 53.568 
L 84.837966 160.856555 
L 90.340586 199.008089 
L 95.843205 210.680573 
L 101.345824 221.944541 
L 106.848444 230.760607 
L 112.351063 232.130837 
L 117.853683 240.289448 
L 123.356302 243.691618 
L 128.858921 245.392702 
L 134.361541 248.123587 
L 139.86416 246.046966 
L 145.36678 248.451251 
L 150.869399 249.953397 
L 156.372018 251.959804 
L 161.874638 251.494905 
L 167.377257 254.189619 
L 172.879877 255.070481 
L 178.382496 254.193875 
L 183.885116 254.215151 
L 189.387735 255.75666 
L 194.890354 256.148154 
L 200.392974 258.490736 
M 211.398213 262.766321 
L 216.900832 256.440711 
L 222.403451 254.457708 
L 227.906071 260.710976 
L 233.40869 260.69821 
L 238.91131 261.329069 
L 244.413929 256.422625 
L 249.916549 260.654592 
" style="fill:none;stroke:#9467bd;stroke-linecap:square;stroke-width:1.5;"/>
   </g>
   <g id="patch_3">
    <path d="M 57.6 307.584 
L 57.6 41.472 
" style="fill:none;stroke:#000000;stroke-linecap:square;stroke-linejoin:miter;stroke-width:0.8;"/>
   </g>
   <g id="patch_4">
    <path d="M 414.72 307.584 
L 414.72 41.472 
" style="fill:none;stroke:#000000;stroke-linecap:square;stroke-linejoin:miter;stroke-width:0.8;"/>
   </g>
   <g id="patch_5">
    <path d="M 57.6 307.584 
L 414.72 307.584 
" style="fill:none;stroke:#000000;stroke-linecap:square;stroke-linejoin:miter;stroke-width:0.8;"/>
   </g>
   <g id="patch_6">
    <path d="M 57.6 41.472 
L 414.72 41.472 
" style="fill:none;stroke:#000000;stroke-linecap:square;stroke-linejoin:miter;stroke-width:0.8;"/>
   </g>
   <g id="text_15">
    <text style="font-family:DejaVu Sans;font-size:12px;font-style:normal;font-weight:normal;text-anchor:middle;" transform="rotate(-0, 236.16, 35.472)" x="236.16" y="35.472">Avg. Bits Consumed by 2014 Lin. x*1.5 Algorithm</text>
   </g>
   <g id="legend_1">
    <g id="patch_7">
     <path d="M 233.6325 122.862625 
L 407.72 122.862625 
Q 409.72 122.862625 409.72 120.862625 
L 409.72 48.472 
Q 409.72 46.472 407.72 46.472 
L 233.6325 46.472 
Q 231.6325 46.472 231.6325 48.472 
L 231.6325 120.862625 
Q 231.6325 122.862625 233.6325 122.862625 
z
" style="fill:#ffffff;opacity:0.8;stroke:#cccccc;stroke-linejoin:miter;"/>
    </g>
    <g id="line2d_18">
     <path d="M 235.6325 54.570438 
L 255.6325 54.570438 
" style="fill:none;stroke:#1f77b4;stroke-linecap:square;stroke-width:1.5;"/>
    </g>
    <g id="line2d_19"/>
    <g id="text_16">
     <text style="font-family:DejaVu Sans;font-size:10px;font-style:normal;font-weight:normal;text-anchor:start;" transform="rotate(-0, 263.6325, 58.070438)" x="263.6325" y="58.070438">2014 Lin. x*1.5</text>
    </g>
    <g id="line2d_20">
     <path d="M 235.6325 69.248563 
L 255.6325 69.248563 
" style="fill:none;stroke:#ff7f0e;stroke-linecap:square;stroke-width:1.5;"/>
    </g>
    <g id="line2d_21"/>
    <g id="text_17">
     <text style="font-family:DejaVu Sans;font-size:10px;font-style:normal;font-weight:normal;text-anchor:start;" transform="rotate(-0, 263.6325, 72.748563)" x="263.6325" y="72.748563">2016 Lin. x*1.5</text>
    </g>
    <g id="line2d_22">
     <path d="M 235.6325 83.926688 
L 255.6325 83.926688 
" style="fill:none;stroke:#2ca02c;stroke-linecap:square;stroke-width:1.5;"/>
    </g>
    <g id="line2d_23"/>
    <g id="text_18">
     <text style="font-family:DejaVu Sans;font-size:10px;font-style:normal;font-weight:normal;text-anchor:start;" transform="rotate(-0, 263.6325, 87.426688)" x="263.6325" y="87.426688">Low-Mean Lin. x*1.5</text>
    </g>
    <g id="line2d_24">
     <path d="M 235.6325 98.604813 
L 255.6325 98.604813 
" style="fill:none;stroke:#d62728;stroke-linecap:square;stroke-width:1.5;"/>
    </g>
    <g id="line2d_25"/>
    <g id="text_19">
     <text style="font-family:DejaVu Sans;font-size:10px;font-style:normal;font-weight:normal;text-anchor:start;" transform="rotate(-0, 263.6325, 102.104813)" x="263.6325" y="102.104813">2019x*1.5</text>
    </g>
    <g id="line2d_26">
     <path d="M 235.6325 113.282938 
L 255.6325 113.282938 
" style="fill:none;stroke:#9467bd;stroke-linecap:square;stroke-width:1.5;"/>
    </g>
    <g id="line2d_27"/>
    <g id="text_20">
     <text style="font-family:DejaVu Sans;font-size:10px;font-style:normal;font-weight:normal;text-anchor:start;" transform="rotate(-0, 263.6325, 116.782938)" x="263.6325" y="116.782938">Low-Mean M=0.49999 x*1.5</text>
    </g>
   </g>
  </g>
 </g>
 <defs>
  <clipPath id="pac0a339fb5">
   <rect height="266.112" width="357.12" x="57.6" y="41.472"/>
  </clipPath>
 </defs>
</svg>
