<?xml version="1.0" encoding="utf-8" standalone="no"?>
<!DOCTYPE svg PUBLIC "-//W3C//DTD SVG 1.1//EN"
  "http://www.w3.org/Graphics/SVG/1.1/DTD/svg11.dtd">
<!-- Created with matplotlib (https://matplotlib.org/) -->
<svg height="345.6pt" version="1.1" viewBox="0 0 460.8 345.6" width="460.8pt" xmlns="http://www.w3.org/2000/svg" xmlns:xlink="http://www.w3.org/1999/xlink">
 <defs>
  <style type="text/css">
*{stroke-linecap:butt;stroke-linejoin:round;}
  </style>
 </defs>
 <g id="figure_1">
  <g id="patch_1">
   <path d="M 0 345.6 
L 460.8 345.6 
L 460.8 0 
L 0 0 
z
" style="fill:#ffffff;"/>
  </g>
  <g id="axes_1">
   <g id="patch_2">
    <path d="M 57.6 307.584 
L 414.72 307.584 
L 414.72 41.472 
L 57.6 41.472 
z
" style="fill:#ffffff;"/>
   </g>
   <g id="matplotlib.axis_1">
    <g id="xtick_1">
     <g id="line2d_1">
      <defs>
       <path d="M 0 0 
L 0 3.5 
" id="ma9e4fb2b75" style="stroke:#000000;stroke-width:0.8;"/>
      </defs>
      <g>
       <use style="stroke:#000000;stroke-width:0.8;" x="73.793523" xlink:href="#ma9e4fb2b75" y="307.584"/>
      </g>
     </g>
     <g id="text_1">
      <text style="font-family:DejaVu Sans;font-size:10px;font-style:normal;font-weight:normal;text-anchor:middle;" transform="rotate(-0, 73.793523, 322.182437)" x="73.793523" y="322.182437">0.0</text>
     </g>
    </g>
    <g id="xtick_2">
     <g id="line2d_2">
      <g>
       <use style="stroke:#000000;stroke-width:0.8;" x="152.2014" xlink:href="#ma9e4fb2b75" y="307.584"/>
      </g>
     </g>
     <g id="text_2">
      <text style="font-family:DejaVu Sans;font-size:10px;font-style:normal;font-weight:normal;text-anchor:middle;" transform="rotate(-0, 152.2014, 322.182437)" x="152.2014" y="322.182437">0.2</text>
     </g>
    </g>
    <g id="xtick_3">
     <g id="line2d_3">
      <g>
       <use style="stroke:#000000;stroke-width:0.8;" x="230.609277" xlink:href="#ma9e4fb2b75" y="307.584"/>
      </g>
     </g>
     <g id="text_3">
      <text style="font-family:DejaVu Sans;font-size:10px;font-style:normal;font-weight:normal;text-anchor:middle;" transform="rotate(-0, 230.609277, 322.182437)" x="230.609277" y="322.182437">0.4</text>
     </g>
    </g>
    <g id="xtick_4">
     <g id="line2d_4">
      <g>
       <use style="stroke:#000000;stroke-width:0.8;" x="309.017153" xlink:href="#ma9e4fb2b75" y="307.584"/>
      </g>
     </g>
     <g id="text_4">
      <text style="font-family:DejaVu Sans;font-size:10px;font-style:normal;font-weight:normal;text-anchor:middle;" transform="rotate(-0, 309.017153, 322.182437)" x="309.017153" y="322.182437">0.6</text>
     </g>
    </g>
    <g id="xtick_5">
     <g id="line2d_5">
      <g>
       <use style="stroke:#000000;stroke-width:0.8;" x="387.42503" xlink:href="#ma9e4fb2b75" y="307.584"/>
      </g>
     </g>
     <g id="text_5">
      <text style="font-family:DejaVu Sans;font-size:10px;font-style:normal;font-weight:normal;text-anchor:middle;" transform="rotate(-0, 387.42503, 322.182437)" x="387.42503" y="322.182437">0.8</text>
     </g>
    </g>
    <g id="text_6">
     <text style="font-family:DejaVu Sans;font-size:10px;font-style:normal;font-weight:normal;text-anchor:middle;" transform="rotate(-0, 236.16, 335.860562)" x="236.16" y="335.860562">Input Coin's Heads Probability (λ)</text>
    </g>
   </g>
   <g id="matplotlib.axis_2">
    <g id="ytick_1">
     <g id="line2d_6">
      <defs>
       <path d="M 0 0 
L -3.5 0 
" id="m20267d76ce" style="stroke:#000000;stroke-width:0.8;"/>
      </defs>
      <g>
       <use style="stroke:#000000;stroke-width:0.8;" x="57.6" xlink:href="#m20267d76ce" y="295.488"/>
      </g>
     </g>
     <g id="text_7">
      <text style="font-family:DejaVu Sans;font-size:10px;font-style:normal;font-weight:normal;text-anchor:end;" transform="rotate(-0, 50.6, 299.287219)" x="50.6" y="299.287219">0.0</text>
     </g>
    </g>
    <g id="ytick_2">
     <g id="line2d_7">
      <g>
       <use style="stroke:#000000;stroke-width:0.8;" x="57.6" xlink:href="#m20267d76ce" y="246.805117"/>
      </g>
     </g>
     <g id="text_8">
      <text style="font-family:DejaVu Sans;font-size:10px;font-style:normal;font-weight:normal;text-anchor:end;" transform="rotate(-0, 50.6, 250.604335)" x="50.6" y="250.604335">0.2</text>
     </g>
    </g>
    <g id="ytick_3">
     <g id="line2d_8">
      <g>
       <use style="stroke:#000000;stroke-width:0.8;" x="57.6" xlink:href="#m20267d76ce" y="198.122233"/>
      </g>
     </g>
     <g id="text_9">
      <text style="font-family:DejaVu Sans;font-size:10px;font-style:normal;font-weight:normal;text-anchor:end;" transform="rotate(-0, 50.6, 201.921452)" x="50.6" y="201.921452">0.4</text>
     </g>
    </g>
    <g id="ytick_4">
     <g id="line2d_9">
      <g>
       <use style="stroke:#000000;stroke-width:0.8;" x="57.6" xlink:href="#m20267d76ce" y="149.43935"/>
      </g>
     </g>
     <g id="text_10">
      <text style="font-family:DejaVu Sans;font-size:10px;font-style:normal;font-weight:normal;text-anchor:end;" transform="rotate(-0, 50.6, 153.238569)" x="50.6" y="153.238569">0.6</text>
     </g>
    </g>
    <g id="ytick_5">
     <g id="line2d_10">
      <g>
       <use style="stroke:#000000;stroke-width:0.8;" x="57.6" xlink:href="#m20267d76ce" y="100.756466"/>
      </g>
     </g>
     <g id="text_11">
      <text style="font-family:DejaVu Sans;font-size:10px;font-style:normal;font-weight:normal;text-anchor:end;" transform="rotate(-0, 50.6, 104.555685)" x="50.6" y="104.555685">0.8</text>
     </g>
    </g>
    <g id="ytick_6">
     <g id="line2d_11">
      <g>
       <use style="stroke:#000000;stroke-width:0.8;" x="57.6" xlink:href="#m20267d76ce" y="52.073583"/>
      </g>
     </g>
     <g id="text_12">
      <text style="font-family:DejaVu Sans;font-size:10px;font-style:normal;font-weight:normal;text-anchor:end;" transform="rotate(-0, 50.6, 55.872802)" x="50.6" y="55.872802">1.0</text>
     </g>
    </g>
    <g id="text_13">
     <text style="font-family:DejaVu Sans;font-size:10px;font-style:normal;font-weight:normal;text-anchor:middle;" transform="rotate(-90, 28.617187, 174.528)" x="28.617187" y="174.528">Simulated Mean / Function Value</text>
    </g>
   </g>
   <g id="line2d_12">
    <path clip-path="url(#pbb04dab4d6)" d="M 73.832727 295.45879 
L 77.791929 292.508903 
L 81.751131 289.559015 
L 85.710333 286.609127 
L 89.669534 283.65924 
L 93.628736 280.709352 
L 97.587938 277.759464 
L 101.54714 274.809576 
L 105.506341 271.859689 
L 109.465543 268.909801 
L 113.424745 265.959913 
L 117.383947 263.010026 
L 121.343149 260.060138 
L 125.30235 257.11025 
L 129.261552 254.160363 
L 133.220754 251.210475 
L 137.179956 248.260587 
L 141.139157 245.3107 
L 145.098359 242.360812 
L 149.057561 239.410924 
L 153.016763 236.461037 
L 156.975965 233.511149 
L 160.935166 230.561261 
L 164.894368 227.611373 
L 168.85357 224.661486 
L 172.812772 221.711598 
L 176.771973 218.76171 
L 180.731175 215.811823 
L 184.690377 212.861935 
L 188.649579 209.912047 
L 192.60878 206.96216 
L 196.567982 204.012272 
L 200.527184 201.062384 
L 204.486386 198.112497 
L 208.445588 195.162609 
L 212.404789 192.212721 
L 216.363991 189.262834 
L 220.323193 186.312946 
L 224.282395 183.363058 
L 228.241596 180.413171 
L 232.200798 177.463283 
L 236.16 174.513395 
L 240.119202 171.563507 
L 244.078404 168.61362 
L 248.037605 165.663732 
L 251.996807 162.713844 
L 255.956009 159.763957 
L 259.915211 156.814069 
L 263.874412 153.864181 
L 267.833614 150.914294 
L 271.792816 147.964406 
L 275.752018 145.014518 
L 279.71122 142.064631 
L 283.670421 139.114743 
L 287.629623 136.164855 
L 291.588825 133.214968 
L 295.548027 130.26508 
L 299.507228 127.315192 
L 303.46643 124.365304 
L 307.425632 121.415417 
L 311.384834 118.465529 
L 315.344035 115.515641 
L 319.303237 112.565754 
L 323.262439 109.615866 
L 327.221641 106.665978 
L 331.180843 103.716091 
L 335.140044 100.766203 
L 339.099246 97.816315 
L 343.058448 94.866428 
L 347.01765 91.91654 
L 350.976851 88.966652 
L 354.936053 86.016765 
L 358.895255 83.066877 
L 362.854457 80.116989 
L 366.813659 77.167101 
L 370.77286 74.217214 
L 374.732062 71.267326 
L 378.691264 68.317438 
L 382.650466 65.367551 
L 386.609667 62.417663 
L 390.568869 59.467775 
L 394.528071 56.517888 
L 398.487273 53.568 
" style="fill:none;stroke:#1f77b4;stroke-linecap:square;stroke-width:1.5;"/>
   </g>
   <g id="line2d_13">
    <path clip-path="url(#pbb04dab4d6)" d="M 73.832727 295.488 
L 77.791929 293.540685 
L 81.751131 290.132883 
L 85.710333 279.422648 
L 89.669534 276.988504 
L 93.628736 282.83045 
L 97.587938 279.422648 
L 101.54714 277.962162 
L 105.506341 275.528018 
L 109.465543 273.093874 
L 113.424745 270.659729 
L 117.383947 266.765099 
L 121.343149 254.594378 
L 125.30235 260.923153 
L 129.261552 250.212918 
L 133.220754 247.291945 
L 137.179956 247.291945 
L 141.139157 248.265603 
L 145.098359 245.34463 
L 149.057561 240.963171 
L 153.016763 231.713423 
L 156.975965 230.739765 
L 160.935166 215.161242 
L 164.894368 234.147567 
L 168.85357 220.51636 
L 172.812772 222.950504 
L 176.771973 213.213927 
L 180.731175 224.897819 
L 184.690377 211.753441 
L 188.649579 205.424666 
L 192.60878 199.095891 
L 196.567982 201.530035 
L 200.527184 202.503693 
L 204.486386 186.92517 
L 208.445588 193.253945 
L 212.404789 195.20126 
L 216.363991 186.438341 
L 220.323193 184.977855 
L 224.282395 178.162251 
L 228.241596 180.596395 
L 232.200798 182.056882 
L 236.16 172.320305 
L 240.119202 171.833476 
L 244.078404 169.399332 
L 248.037605 165.99153 
L 251.996807 158.689098 
" style="fill:none;stroke:#ff7f0e;stroke-linecap:square;stroke-width:1.5;"/>
   </g>
   <g id="line2d_14">
    <path clip-path="url(#pbb04dab4d6)" d="M 73.832727 295.488 
L 77.791929 293.540685 
L 81.751131 291.593369 
L 85.710333 284.777766 
L 89.669534 284.777766 
L 93.628736 278.93582 
L 97.587938 280.883135 
L 101.54714 273.093874 
L 105.506341 276.014847 
L 109.465543 267.738756 
L 113.424745 267.738756 
L 117.383947 266.27827 
L 121.343149 255.568036 
L 125.30235 265.791441 
L 129.261552 257.028522 
L 133.220754 253.133891 
L 137.179956 251.673405 
L 141.139157 242.910486 
L 145.098359 233.660738 
L 149.057561 234.634396 
L 153.016763 244.370972 
L 156.975965 233.173909 
L 160.935166 227.818792 
L 164.894368 233.173909 
L 168.85357 221.976846 
L 172.812772 217.595387 
L 176.771973 217.108558 
L 180.731175 209.319296 
L 184.690377 203.47735 
L 188.649579 211.266612 
L 192.60878 209.806125 
L 196.567982 203.964179 
L 200.527184 195.20126 
L 204.486386 196.174918 
L 208.445588 200.069549 
L 212.404789 198.609062 
L 216.363991 184.977855 
L 220.323193 185.464684 
L 224.282395 190.332972 
L 228.241596 170.37299 
L 232.200798 177.188593 
L 236.16 165.99153 
L 240.119202 167.938845 
L 244.078404 176.214936 
L 248.037605 162.583728 
L 251.996807 161.610071 
" style="fill:none;stroke:#2ca02c;stroke-linecap:square;stroke-width:1.5;"/>
   </g>
   <g id="line2d_15">
    <path clip-path="url(#pbb04dab4d6)" d="M 73.832727 295.488 
L 77.791929 290.619712 
L 81.751131 288.672396 
L 85.710333 290.619712 
L 89.669534 285.751423 
L 93.628736 281.856793 
L 97.587938 278.448991 
L 101.54714 270.172901 
L 105.506341 271.146558 
L 109.465543 270.659729 
L 113.424745 260.436324 
L 117.383947 259.462666 
L 121.343149 261.89681 
L 125.30235 256.054864 
L 129.261552 263.844126 
L 133.220754 251.186576 
L 137.179956 252.160234 
L 141.139157 243.884144 
L 145.098359 239.502684 
L 149.057561 231.713423 
L 153.016763 239.989513 
L 156.975965 237.06854 
L 160.935166 235.608053 
L 164.894368 230.252936 
L 168.85357 220.029531 
L 172.812772 219.542702 
L 176.771973 217.108558 
L 180.731175 210.292954 
L 184.690377 214.187585 
L 188.649579 219.055873 
L 192.60878 197.635404 
L 196.567982 211.753441 
L 200.527184 201.530035 
L 204.486386 203.47735 
L 208.445588 183.030539 
L 212.404789 197.148576 
L 216.363991 185.951512 
L 220.323193 183.517368 
L 224.282395 176.701765 
L 228.241596 177.675422 
L 232.200798 173.293963 
L 236.16 175.241278 
L 240.119202 171.833476 
L 244.078404 167.938845 
L 248.037605 169.399332 
L 251.996807 169.399332 
" style="fill:none;stroke:#d62728;stroke-linecap:square;stroke-width:1.5;"/>
   </g>
   <g id="line2d_16">
    <path clip-path="url(#pbb04dab4d6)" d="M 73.832727 295.488 
L 77.791929 291.10654 
L 81.751131 290.619712 
L 85.710333 285.751423 
L 89.669534 284.290937 
L 93.628736 282.83045 
L 97.587938 277.475333 
L 101.54714 270.172901 
L 105.506341 273.093874 
L 109.465543 273.093874 
L 113.424745 262.870468 
L 117.383947 263.844126 
L 121.343149 255.081207 
L 125.30235 257.515351 
L 129.261552 250.699747 
L 133.220754 253.133891 
L 137.179956 244.857801 
L 141.139157 240.963171 
L 145.098359 244.857801 
L 149.057561 238.042198 
L 153.016763 240.963171 
L 156.975965 227.818792 
L 160.935166 237.06854 
L 164.894368 226.845134 
L 168.85357 223.924161 
L 172.812772 212.240269 
L 176.771973 213.213927 
L 180.731175 215.648071 
L 184.690377 213.213927 
L 188.649579 210.779783 
L 192.60878 210.779783 
L 196.567982 205.424666 
L 200.527184 209.319296 
L 204.486386 205.424666 
L 208.445588 185.951512 
L 212.404789 198.609062 
L 216.363991 197.635404 
L 220.323193 187.898828 
L 224.282395 178.64908 
L 228.241596 185.951512 
L 232.200798 171.346647 
L 236.16 174.754449 
L 240.119202 170.37299 
L 244.078404 169.399332 
L 248.037605 163.070557 
L 251.996807 159.175926 
" style="fill:none;stroke:#9467bd;stroke-linecap:square;stroke-width:1.5;"/>
   </g>
   <g id="line2d_17">
    <path clip-path="url(#pbb04dab4d6)" d="M 73.832727 295.488 
L 77.791929 294.027513 
L 81.751131 287.21191 
L 85.710333 287.698739 
L 89.669534 287.698739 
L 93.628736 286.725081 
L 97.587938 283.804108 
L 101.54714 276.014847 
L 105.506341 276.014847 
L 109.465543 269.686072 
L 113.424745 269.686072 
L 117.383947 259.949495 
L 121.343149 260.436324 
L 125.30235 253.62072 
L 129.261552 250.212918 
L 133.220754 256.541693 
L 137.179956 250.699747 
L 141.139157 248.752432 
L 145.098359 239.989513 
L 149.057561 241.449999 
L 153.016763 232.200252 
L 156.975965 235.608053 
L 160.935166 227.818792 
L 164.894368 233.173909 
L 168.85357 221.490017 
L 172.812772 215.648071 
L 176.771973 210.779783 
L 180.731175 209.319296 
L 184.690377 206.885152 
L 188.649579 213.213927 
L 192.60878 198.122233 
L 196.567982 204.451008 
L 200.527184 195.20126 
L 204.486386 200.069549 
L 208.445588 200.069549 
L 212.404789 193.253945 
L 216.363991 194.714431 
L 220.323193 194.714431 
L 224.282395 186.438341 
L 228.241596 186.92517 
L 232.200798 173.780792 
L 236.16 168.425674 
L 240.119202 170.37299 
L 244.078404 162.096899 
L 248.037605 162.096899 
L 251.996807 158.202269 
" style="fill:none;stroke:#8c564b;stroke-linecap:square;stroke-width:1.5;"/>
   </g>
   <g id="line2d_18">
    <path clip-path="url(#pbb04dab4d6)" d="M 73.832727 295.001171 
L 77.791929 292.080198 
L 81.751131 290.619712 
L 85.710333 289.646054 
L 89.669534 281.856793 
L 93.628736 277.475333 
L 97.587938 279.422648 
L 101.54714 273.580702 
L 105.506341 273.093874 
L 109.465543 264.817783 
L 113.424745 270.659729 
L 117.383947 254.594378 
L 121.343149 268.712414 
L 125.30235 264.817783 
L 129.261552 255.081207 
L 133.220754 250.699747 
L 137.179956 248.752432 
L 141.139157 249.72609 
L 145.098359 246.805117 
L 149.057561 234.634396 
L 153.016763 239.502684 
L 156.975965 228.79245 
L 160.935166 235.608053 
L 164.894368 230.739765 
L 168.85357 221.976846 
L 172.812772 221.490017 
L 176.771973 210.292954 
L 180.731175 213.213927 
L 184.690377 203.964179 
L 188.649579 204.937837 
L 192.60878 203.47735 
L 196.567982 211.753441 
L 200.527184 203.47735 
L 204.486386 195.20126 
L 208.445588 192.280287 
L 212.404789 190.332972 
L 216.363991 190.819801 
L 220.323193 188.385657 
L 224.282395 177.675422 
L 228.241596 175.241278 
L 232.200798 178.64908 
L 236.16 173.293963 
L 240.119202 169.886161 
L 244.078404 180.596395 
L 248.037605 169.886161 
L 251.996807 154.794467 
" style="fill:none;stroke:#e377c2;stroke-linecap:square;stroke-width:1.5;"/>
   </g>
   <g id="line2d_19">
    <path clip-path="url(#pbb04dab4d6)" d="M 73.832727 295.488 
L 77.791929 293.053856 
L 81.751131 290.132883 
L 85.710333 289.159225 
L 89.669534 286.725081 
L 93.628736 280.396306 
L 97.587938 278.448991 
L 101.54714 269.199243 
L 105.506341 272.607045 
L 109.465543 271.633387 
L 113.424745 267.738756 
L 117.383947 265.791441 
L 121.343149 268.225585 
L 125.30235 252.160234 
L 129.261552 254.594378 
L 133.220754 252.647063 
L 137.179956 257.515351 
L 141.139157 241.449999 
L 145.098359 239.015855 
L 149.057561 239.015855 
L 153.016763 236.581711 
L 156.975965 237.555369 
L 160.935166 231.713423 
L 164.894368 232.68708 
L 168.85357 225.871477 
L 172.812772 221.490017 
L 176.771973 225.871477 
L 180.731175 209.319296 
L 184.690377 214.187585 
L 188.649579 207.85881 
L 192.60878 202.016864 
L 196.567982 200.556377 
L 200.527184 184.977855 
L 204.486386 199.58272 
L 208.445588 200.556377 
L 212.404789 191.30663 
L 216.363991 197.148576 
L 220.323193 189.846143 
L 224.282395 182.543711 
L 228.241596 184.977855 
L 232.200798 184.977855 
L 236.16 173.780792 
L 240.119202 172.320305 
L 244.078404 174.26762 
L 248.037605 167.938845 
L 251.996807 171.833476 
" style="fill:none;stroke:#7f7f7f;stroke-linecap:square;stroke-width:1.5;"/>
   </g>
   <g id="line2d_20">
    <path clip-path="url(#pbb04dab4d6)" d="M 73.832727 295.488 
L 77.791929 289.646054 
L 81.751131 291.10654 
L 85.710333 285.264594 
L 89.669534 284.777766 
L 93.628736 282.83045 
L 97.587938 273.580702 
L 101.54714 275.041189 
L 105.506341 277.962162 
L 109.465543 268.712414 
L 113.424745 270.172901 
L 117.383947 258.975837 
L 121.343149 266.27827 
L 125.30235 254.107549 
L 129.261552 248.752432 
L 133.220754 257.028522 
L 137.179956 252.647063 
L 141.139157 242.910486 
L 145.098359 237.555369 
L 149.057561 243.397315 
L 153.016763 236.094882 
L 156.975965 230.252936 
L 160.935166 231.713423 
L 164.894368 226.358306 
L 168.85357 213.700756 
L 172.812772 225.384648 
L 176.771973 219.055873 
L 180.731175 214.187585 
L 184.690377 213.213927 
L 188.649579 207.371981 
L 192.60878 199.095891 
L 196.567982 203.47735 
L 200.527184 215.161242 
L 204.486386 192.767116 
L 208.445588 190.332972 
L 212.404789 180.596395 
L 216.363991 197.635404 
L 220.323193 182.543711 
L 224.282395 179.622738 
L 228.241596 181.083224 
L 232.200798 183.517368 
L 236.16 173.780792 
L 240.119202 171.346647 
L 244.078404 166.965188 
L 248.037605 161.123242 
L 251.996807 158.689098 
" style="fill:none;stroke:#bcbd22;stroke-linecap:square;stroke-width:1.5;"/>
   </g>
   <g id="line2d_21">
    <path clip-path="url(#pbb04dab4d6)" d="M 73.832727 295.488 
L 77.791929 293.053856 
L 81.751131 291.10654 
L 85.710333 288.672396 
L 89.669534 286.238252 
L 93.628736 282.83045 
L 97.587938 283.317279 
L 101.54714 277.962162 
L 105.506341 276.014847 
L 109.465543 273.580702 
L 113.424745 266.27827 
L 117.383947 269.199243 
L 121.343149 261.409982 
L 125.30235 255.568036 
L 129.261552 256.054864 
L 133.220754 256.541693 
L 137.179956 252.160234 
L 141.139157 244.857801 
L 145.098359 237.555369 
L 149.057561 234.634396 
L 153.016763 237.06854 
L 156.975965 226.358306 
L 160.935166 230.739765 
L 164.894368 225.384648 
L 168.85357 229.279279 
L 172.812772 224.897819 
L 176.771973 218.569044 
L 180.731175 208.345639 
L 184.690377 212.727098 
L 188.649579 218.082215 
L 192.60878 210.292954 
L 196.567982 206.885152 
L 200.527184 202.016864 
L 204.486386 198.609062 
L 208.445588 198.609062 
L 212.404789 189.359314 
L 216.363991 196.174918 
L 220.323193 179.135909 
L 224.282395 186.92517 
L 228.241596 184.977855 
L 232.200798 170.859818 
L 236.16 173.780792 
L 240.119202 166.965188 
L 244.078404 170.859818 
L 248.037605 162.583728 
L 251.996807 157.71544 
" style="fill:none;stroke:#17becf;stroke-linecap:square;stroke-width:1.5;"/>
   </g>
   <g id="patch_3">
    <path d="M 57.6 307.584 
L 57.6 41.472 
" style="fill:none;stroke:#000000;stroke-linecap:square;stroke-linejoin:miter;stroke-width:0.8;"/>
   </g>
   <g id="patch_4">
    <path d="M 414.72 307.584 
L 414.72 41.472 
" style="fill:none;stroke:#000000;stroke-linecap:square;stroke-linejoin:miter;stroke-width:0.8;"/>
   </g>
   <g id="patch_5">
    <path d="M 57.6 307.584 
L 414.72 307.584 
" style="fill:none;stroke:#000000;stroke-linecap:square;stroke-linejoin:miter;stroke-width:0.8;"/>
   </g>
   <g id="patch_6">
    <path d="M 57.6 41.472 
L 414.72 41.472 
" style="fill:none;stroke:#000000;stroke-linecap:square;stroke-linejoin:miter;stroke-width:0.8;"/>
   </g>
   <g id="text_14">
    <text style="font-family:DejaVu Sans;font-size:12px;font-style:normal;font-weight:normal;" transform="translate(184.459688 22.034625)">Simulated Means</text>
    <text style="font-family:DejaVu Sans;font-size:12px;font-style:normal;font-weight:normal;" transform="translate(132.609375 35.472)">(Wasserstein Distances in Legend)</text>
   </g>
   <g id="legend_1">
    <g id="patch_7">
     <path d="M 60.146562 196.531375 
L 407.72 196.531375 
Q 409.72 196.531375 409.72 194.531375 
L 409.72 48.472 
Q 409.72 46.472 407.72 46.472 
L 60.146562 46.472 
Q 58.146562 46.472 58.146562 48.472 
L 58.146562 194.531375 
Q 58.146562 196.531375 60.146562 196.531375 
z
" style="fill:#ffffff;opacity:0.8;stroke:#cccccc;stroke-linejoin:miter;"/>
    </g>
    <g id="line2d_22">
     <path d="M 62.146562 54.570437 
L 82.146562 54.570437 
" style="fill:none;stroke:#1f77b4;stroke-linecap:square;stroke-width:1.5;"/>
    </g>
    <g id="line2d_23"/>
    <g id="text_15">
     <text style="font-family:DejaVu Sans;font-size:10px;font-style:normal;font-weight:normal;text-anchor:start;" transform="rotate(-0, 90.146562, 58.070437)" x="90.146562" y="58.070437">2014_1.200000</text>
    </g>
    <g id="line2d_24">
     <path d="M 62.146562 69.526687 
L 82.146562 69.526687 
" style="fill:none;stroke:#ff7f0e;stroke-linecap:square;stroke-width:1.5;"/>
    </g>
    <g id="line2d_25"/>
    <g id="text_16">
     <text style="font-family:DejaVu Sans;font-size:10px;font-style:normal;font-weight:normal;text-anchor:start;" transform="rotate(-0, 90.146562, 73.026687)" x="90.146562" y="73.026687">Simul. Mean of 2014 1.200000 eps=0.050000 (WD=0.009114)</text>
    </g>
    <g id="line2d_26">
     <path d="M 62.146562 84.204812 
L 82.146562 84.204812 
" style="fill:none;stroke:#2ca02c;stroke-linecap:square;stroke-width:1.5;"/>
    </g>
    <g id="line2d_27"/>
    <g id="text_17">
     <text style="font-family:DejaVu Sans;font-size:10px;font-style:normal;font-weight:normal;text-anchor:start;" transform="rotate(-0, 90.146562, 87.704812)" x="90.146562" y="87.704812">Simul. Mean of 2014 1.200000 eps=0.100000 (WD=0.007956)</text>
    </g>
    <g id="line2d_28">
     <path d="M 62.146562 98.882937 
L 82.146562 98.882937 
" style="fill:none;stroke:#d62728;stroke-linecap:square;stroke-width:1.5;"/>
    </g>
    <g id="line2d_29"/>
    <g id="text_18">
     <text style="font-family:DejaVu Sans;font-size:10px;font-style:normal;font-weight:normal;text-anchor:start;" transform="rotate(-0, 90.146562, 102.382937)" x="90.146562" y="102.382937">Simul. Mean of 2014 1.200000 eps=0.150000 (WD=0.008370)</text>
    </g>
    <g id="line2d_30">
     <path d="M 62.146562 113.561062 
L 82.146562 113.561062 
" style="fill:none;stroke:#9467bd;stroke-linecap:square;stroke-width:1.5;"/>
    </g>
    <g id="line2d_31"/>
    <g id="text_19">
     <text style="font-family:DejaVu Sans;font-size:10px;font-style:normal;font-weight:normal;text-anchor:start;" transform="rotate(-0, 90.146562, 117.061062)" x="90.146562" y="117.061062">Simul. Mean of 2014 1.200000 eps=0.200000 (WD=0.008983)</text>
    </g>
    <g id="line2d_32">
     <path d="M 62.146562 128.239187 
L 82.146562 128.239187 
" style="fill:none;stroke:#8c564b;stroke-linecap:square;stroke-width:1.5;"/>
    </g>
    <g id="line2d_33"/>
    <g id="text_20">
     <text style="font-family:DejaVu Sans;font-size:10px;font-style:normal;font-weight:normal;text-anchor:start;" transform="rotate(-0, 90.146562, 131.739187)" x="90.146562" y="131.739187">Simul. Mean of 2014 1.200000 eps=0.250000 (WD=0.011442)</text>
    </g>
    <g id="line2d_34">
     <path d="M 62.146562 142.917312 
L 82.146562 142.917312 
" style="fill:none;stroke:#e377c2;stroke-linecap:square;stroke-width:1.5;"/>
    </g>
    <g id="line2d_35"/>
    <g id="text_21">
     <text style="font-family:DejaVu Sans;font-size:10px;font-style:normal;font-weight:normal;text-anchor:start;" transform="rotate(-0, 90.146562, 146.417312)" x="90.146562" y="146.417312">Simul. Mean of 2014 1.200000 eps=0.300000 (WD=0.008448)</text>
    </g>
    <g id="line2d_36">
     <path d="M 62.146562 157.595438 
L 82.146562 157.595438 
" style="fill:none;stroke:#7f7f7f;stroke-linecap:square;stroke-width:1.5;"/>
    </g>
    <g id="line2d_37"/>
    <g id="text_22">
     <text style="font-family:DejaVu Sans;font-size:10px;font-style:normal;font-weight:normal;text-anchor:start;" transform="rotate(-0, 90.146562, 161.095438)" x="90.146562" y="161.095438">Simul. Mean of 2014 1.200000 eps=0.350000 (WD=0.009530)</text>
    </g>
    <g id="line2d_38">
     <path d="M 62.146562 172.273562 
L 82.146562 172.273562 
" style="fill:none;stroke:#bcbd22;stroke-linecap:square;stroke-width:1.5;"/>
    </g>
    <g id="line2d_39"/>
    <g id="text_23">
     <text style="font-family:DejaVu Sans;font-size:10px;font-style:normal;font-weight:normal;text-anchor:start;" transform="rotate(-0, 90.146562, 175.773562)" x="90.146562" y="175.773562">Simul. Mean of 2014 1.200000 eps=0.400000 (WD=0.006470)</text>
    </g>
    <g id="line2d_40">
     <path d="M 62.146562 186.951687 
L 82.146562 186.951687 
" style="fill:none;stroke:#17becf;stroke-linecap:square;stroke-width:1.5;"/>
    </g>
    <g id="line2d_41"/>
    <g id="text_24">
     <text style="font-family:DejaVu Sans;font-size:10px;font-style:normal;font-weight:normal;text-anchor:start;" transform="rotate(-0, 90.146562, 190.451687)" x="90.146562" y="190.451687">Simul. Mean of 2014 1.200000 eps=0.450000 (WD=0.009030)</text>
    </g>
   </g>
  </g>
 </g>
 <defs>
  <clipPath id="pbb04dab4d6">
   <rect height="266.112" width="357.12" x="57.6" y="41.472"/>
  </clipPath>
 </defs>
</svg>
