<svg height="460.8" viewBox="0 0 460.8 345.6" width="614.4" xmlns="http://www.w3.org/2000/svg" xmlns:xlink="http://www.w3.org/1999/xlink"><defs><style>*{stroke-linecap:butt;stroke-linejoin:round}</style></defs><g id="figure_1"><path d="M0 345.6h460.8V0H0z" fill="#fff" id="patch_1"/><g id="axes_1"><path d="M57.6 307.584h357.12V41.472H57.6z" fill="#fff" id="patch_2"/><g id="matplotlib.axis_1"><g id="xtick_1"><g id="line2d_1"><defs><path d="M0 0v3.5" id="mf894b06009" stroke="#000" stroke-width=".8"/></defs><use x="73.797" xlink:href="#mf894b06009" y="307.584" stroke="#000" stroke-width=".8"/></g><text x="73.797" y="322.182" font-family="DejaVu Sans" font-size="10" font-weight="400" text-anchor="middle" id="text_1">0.0</text></g><g id="xtick_2"><use x="146.038" xlink:href="#mf894b06009" y="307.584" stroke="#000" stroke-width=".8" id="line2d_2"/><text x="146.038" y="322.182" font-family="DejaVu Sans" font-size="10" font-weight="400" text-anchor="middle" id="text_2">0.2</text></g><g id="xtick_3"><use x="218.279" xlink:href="#mf894b06009" y="307.584" stroke="#000" stroke-width=".8" id="line2d_3"/><text x="218.279" y="322.182" font-family="DejaVu Sans" font-size="10" font-weight="400" text-anchor="middle" id="text_3">0.4</text></g><g id="xtick_4"><use x="290.52" xlink:href="#mf894b06009" y="307.584" stroke="#000" stroke-width=".8" id="line2d_4"/><text x="290.52" y="322.182" font-family="DejaVu Sans" font-size="10" font-weight="400" text-anchor="middle" id="text_4">0.6</text></g><g id="xtick_5"><use x="362.76" xlink:href="#mf894b06009" y="307.584" stroke="#000" stroke-width=".8" id="line2d_5"/><text x="362.76" y="322.182" font-family="DejaVu Sans" font-size="10" font-weight="400" text-anchor="middle" id="text_5">0.8</text></g><text x="236.16" y="335.861" font-family="DejaVu Sans" font-size="10" font-weight="400" text-anchor="middle" id="text_6">Input Coin&apos;s Heads Probability (λ)</text></g><g id="matplotlib.axis_2"><g id="ytick_1"><g id="line2d_6"><defs><path d="M0 0h-3.5" id="m614c058632" stroke="#000" stroke-width=".8"/></defs><use x="57.6" xlink:href="#m614c058632" y="265.743" stroke="#000" stroke-width=".8"/></g><text x="50.6" y="269.542" font-family="DejaVu Sans" font-size="10" font-weight="400" text-anchor="end" id="text_7">0.2</text></g><g id="ytick_2"><use x="57.6" xlink:href="#m614c058632" y="212.627" stroke="#000" stroke-width=".8" id="line2d_7"/><text x="50.6" y="216.426" font-family="DejaVu Sans" font-size="10" font-weight="400" text-anchor="end" id="text_8">0.4</text></g><g id="ytick_3"><use x="57.6" xlink:href="#m614c058632" y="159.511" stroke="#000" stroke-width=".8" id="line2d_8"/><text x="50.6" y="163.31" font-family="DejaVu Sans" font-size="10" font-weight="400" text-anchor="end" id="text_9">0.6</text></g><g id="ytick_4"><use x="57.6" xlink:href="#m614c058632" y="106.395" stroke="#000" stroke-width=".8" id="line2d_9"/><text x="50.6" y="110.194" font-family="DejaVu Sans" font-size="10" font-weight="400" text-anchor="end" id="text_10">0.8</text></g><g id="ytick_5"><use x="57.6" xlink:href="#m614c058632" y="53.279" stroke="#000" stroke-width=".8" id="line2d_10"/><text x="50.6" y="57.078" font-family="DejaVu Sans" font-size="10" font-weight="400" text-anchor="end" id="text_11">1.0</text></g><text transform="rotate(-90 28.617 174.528)" x="28.617" y="174.528" font-family="DejaVu Sans" font-size="10" font-weight="400" text-anchor="middle" id="text_12">Simulated Mean / Function Value</text></g><path clip-path="url(#p070462bb3b)" d="M73.833 292.274l3.648-2.682 3.647-2.682 3.648-2.682 3.648-2.682 3.648-2.682 3.648-2.682 3.647-2.682 3.648-2.682 3.648-2.682 3.648-2.682 3.648-2.683 3.647-2.682 3.648-2.682 3.648-2.682 3.648-2.682 3.648-2.682 3.647-2.682 3.648-2.682 3.648-2.682 3.648-2.682 3.648-2.683 3.647-2.682 3.648-2.682 3.648-2.682 3.648-2.682 3.648-2.682 3.647-2.682 3.648-2.682 3.648-2.682 3.648-2.682 3.648-2.682 3.647-2.683 3.648-2.682 3.648-2.682 3.648-2.682 3.648-2.682 3.647-2.682 3.648-2.682 3.648-2.682 3.648-2.682 3.648-2.682 3.647-2.683 3.648-2.682 3.648-2.682 3.648-2.682 3.648-2.682 3.648-2.682 3.647-2.682 3.648-2.682 3.648-2.682 3.648-2.682 3.648-2.682 3.647-2.683 3.648-2.682 3.648-2.682 3.648-2.682 3.648-2.682 3.647-2.682 3.648-2.682 3.648-2.682 3.648-2.682 3.648-2.682 3.647-2.683 3.648-2.682 3.648-2.682 3.648-2.682 3.648-2.682 3.647-2.682 3.648-2.682 3.648-2.682 3.648-2.682 3.648-2.682 3.647-2.682 3.648-2.683 3.648-2.682 3.648-2.682 3.648-2.682 3.647-2.682 3.648-2.682 3.648-2.682 3.648-2.682 3.648-2.682 3.647-2.682 3.648-2.683 3.648-2.682 3.648-2.682 3.648-2.682 3.647-2.682 3.648-2.682" fill="none" stroke="#1f77b4" stroke-linecap="square" stroke-width="1.5" id="line2d_11"/><path clip-path="url(#p070462bb3b)" d="M73.833 295.488l3.648-6.905 3.647-4.78 3.648 1.062 3.648 1.593 3.648-10.623 3.648 1.594 3.647-3.719 3.648 1.594 3.648-4.25 3.648-7.967 3.648 6.374 3.647-8.498 3.648-3.719 3.648.532 3.648-19.122 3.648 10.623m7.295-9.56l3.648-6.906 3.648.531 3.648 3.718 3.647-9.03 3.648 9.03 3.648-9.56 3.648 6.904 3.648-14.872 3.647-6.905 3.648 8.498 3.648-12.747 3.648 9.56 3.648 1.063 3.647-29.214 3.648 7.436 3.648 10.092 3.648-6.905 3.648-9.03 3.647-1.062 3.648-.531 3.648-3.187 3.648-12.217 3.648 11.686 3.647-14.873m7.296 10.624l3.648-10.093 3.648-.53 3.648-3.188 3.647-5.842 3.648-2.656 3.648 9.03 3.648-9.03 3.648-4.78 3.647-6.906 3.648-1.062 3.648 1.593 3.648-7.436 3.648 1.062 3.647-10.092 3.648-4.78 3.648 11.685m10.943-22.308l3.648 3.718 3.648-3.718 3.648-2.656 3.648.531M347.418 92.585" fill="none" stroke="#ff7f0e" stroke-linecap="square" stroke-width="1.5" id="line2d_12"/><path clip-path="url(#p070462bb3b)" d="M73.833 289.114l3.648 4.78 3.647-9.56 3.648 2.124 3.648.531 3.648.532 3.648-14.873 3.647 7.967 3.648-9.03 3.648-4.78h3.648l3.648-15.403 3.647 8.498 3.648-5.843 3.648-3.718 3.648 6.374 3.648-4.249 3.647 3.187 3.648-8.499 3.648-9.03 3.648 1.594 3.648-7.967 3.647 7.967 3.648-12.748 3.648-4.25 3.648 3.188 3.648-7.436 3.647-1.063 3.648 2.125 3.648-2.656 3.648-11.685 3.648 2.124 3.647-.53h3.648l3.648-10.093 3.648 11.686 3.648-17.529 3.647 3.187 3.648-3.187 3.648-2.124 3.648-.532 3.648-4.78 3.647 4.25 3.648-11.155 3.648-8.499h3.648l3.648 5.312 3.648-5.312 3.647 3.187 3.648-9.56 3.648-10.624 3.648 9.561 3.648-11.685 3.647-2.125 3.648-4.78 3.648 5.311 3.648 1.594 3.648-13.28 3.647-1.593 3.648-1.593 3.648-9.03m7.296 2.656l3.647-7.437m14.592-6.374" fill="none" stroke="#2ca02c" stroke-linecap="square" stroke-width="1.5" id="line2d_13"/><path clip-path="url(#p070462bb3b)" d="M146.789 231.218l3.648 7.436m7.295-9.03l3.648 11.686 3.648-10.092m7.295-9.03l3.648 1.593 3.648-7.436 3.648-4.78 3.648 5.311 3.647-13.81 3.648 6.374 3.648-12.748m7.296-1.062l3.647 12.216 3.648-14.34 3.648 4.248 3.648-2.655 3.648-8.499 3.647 5.843 3.648-21.778 3.648 7.436 3.648-.53 3.648-6.906 3.648-14.341m7.295-.531" fill="none" stroke="#d62728" stroke-linecap="square" stroke-width="1.5" id="line2d_14"/><path d="M57.6 307.584V41.472" fill="none" stroke="#000" stroke-linecap="square" stroke-width=".8" id="patch_3"/><path d="M414.72 307.584V41.472" fill="none" stroke="#000" stroke-linecap="square" stroke-width=".8" id="patch_4"/><path d="M57.6 307.584h357.12" fill="none" stroke="#000" stroke-linecap="square" stroke-width=".8" id="patch_5"/><path d="M57.6 41.472h357.12" fill="none" stroke="#000" stroke-linecap="square" stroke-width=".8" id="patch_6"/><g id="text_13" font-family="DejaVu Sans" font-size="12" font-weight="400"><text transform="translate(184.46 22.035)">Simulated Means</text><text transform="translate(132.61 35.472)">(Wasserstein Distances in Legend)</text></g><g id="legend_1"><path d="M64.6 108.184h278.794q2 0 2-2V48.472q0-2-2-2H64.6q-2 0-2 2v57.712q0 2 2 2z" fill="#fff" opacity=".8" stroke="#ccc" id="patch_7"/><path d="M66.6 54.57h20" fill="none" stroke="#1f77b4" stroke-linecap="square" stroke-width="1.5" id="line2d_15"/><text x="94.6" y="58.07" font-family="DejaVu Sans" font-size="10" font-weight="400" id="text_14">x+0.1</text><path d="M66.6 69.249h20" fill="none" stroke="#ff7f0e" stroke-linecap="square" stroke-width="1.5" id="line2d_17"/><text x="94.6" y="72.749" font-family="DejaVu Sans" font-size="10" font-weight="400" id="text_15">Simul. Mean of 2014 Add. x+0.1 (WD=0.008404)</text><path d="M66.6 83.927h20" fill="none" stroke="#2ca02c" stroke-linecap="square" stroke-width="1.5" id="line2d_19"/><text x="94.6" y="87.427" font-family="DejaVu Sans" font-size="10" font-weight="400" id="text_16">Simul. Mean of 2016 Add. x+0.1 (WD=0.008308)</text><path d="M66.6 98.605h20" fill="none" stroke="#d62728" stroke-linecap="square" stroke-width="1.5" id="line2d_21"/><text x="94.6" y="102.105" font-family="DejaVu Sans" font-size="10" font-weight="400" id="text_17">Simul. Mean of 2019 Add. x+0.1 (WD=0.015522)</text></g></g></g><defs><clipPath id="p070462bb3b"><path d="M57.6 41.472h357.12v266.112H57.6z"/></clipPath></defs></svg>