<svg height="460.8" viewBox="0 0 460.8 345.6" width="614.4" xmlns="http://www.w3.org/2000/svg" xmlns:xlink="http://www.w3.org/1999/xlink"><defs><style>*{stroke-linecap:butt;stroke-linejoin:round}</style></defs><g id="figure_1"><path d="M0 345.6h460.8V0H0z" fill="#fff" id="patch_1"/><g id="axes_1"><path d="M57.6 307.584h357.12V41.472H57.6z" fill="#fff" id="patch_2"/><g id="matplotlib.axis_1"><g id="xtick_1"><g id="line2d_1"><defs><path d="M0 0v3.5" id="med4cbfb144" stroke="#000" stroke-width=".8"/></defs><use x="73.767" xlink:href="#med4cbfb144" y="307.584" stroke="#000" stroke-width=".8"/></g><text x="73.767" y="322.182" font-family="DejaVu Sans" font-size="10" font-weight="400" text-anchor="middle" id="text_1">0.0</text></g><g id="xtick_2"><use x="139.374" xlink:href="#med4cbfb144" y="307.584" stroke="#000" stroke-width=".8" id="line2d_2"/><text x="139.374" y="322.182" font-family="DejaVu Sans" font-size="10" font-weight="400" text-anchor="middle" id="text_2">0.1</text></g><g id="xtick_3"><use x="204.98" xlink:href="#med4cbfb144" y="307.584" stroke="#000" stroke-width=".8" id="line2d_3"/><text x="204.98" y="322.182" font-family="DejaVu Sans" font-size="10" font-weight="400" text-anchor="middle" id="text_3">0.2</text></g><g id="xtick_4"><use x="270.587" xlink:href="#med4cbfb144" y="307.584" stroke="#000" stroke-width=".8" id="line2d_4"/><text x="270.587" y="322.182" font-family="DejaVu Sans" font-size="10" font-weight="400" text-anchor="middle" id="text_4">0.3</text></g><g id="xtick_5"><use x="336.193" xlink:href="#med4cbfb144" y="307.584" stroke="#000" stroke-width=".8" id="line2d_5"/><text x="336.193" y="322.182" font-family="DejaVu Sans" font-size="10" font-weight="400" text-anchor="middle" id="text_5">0.4</text></g><g id="xtick_6"><use x="401.8" xlink:href="#med4cbfb144" y="307.584" stroke="#000" stroke-width=".8" id="line2d_6"/><text x="401.8" y="322.182" font-family="DejaVu Sans" font-size="10" font-weight="400" text-anchor="middle" id="text_6">0.5</text></g><text x="236.16" y="335.861" font-family="DejaVu Sans" font-size="10" font-weight="400" text-anchor="middle" id="text_7">Input Coin&apos;s Heads Probability (λ)</text></g><g id="matplotlib.axis_2"><g id="ytick_1"><g id="line2d_7"><defs><path d="M0 0h-3.5" id="mdf90cb588a" stroke="#000" stroke-width=".8"/></defs><use x="57.6" xlink:href="#mdf90cb588a" y="295.49" stroke="#000" stroke-width=".8"/></g><text x="50.6" y="299.289" font-family="DejaVu Sans" font-size="10" font-weight="400" text-anchor="end" id="text_8">0</text></g><g id="ytick_2"><use x="57.6" xlink:href="#mdf90cb588a" y="251.268" stroke="#000" stroke-width=".8" id="line2d_8"/><text x="50.6" y="255.067" font-family="DejaVu Sans" font-size="10" font-weight="400" text-anchor="end" id="text_9">10</text></g><g id="ytick_3"><use x="57.6" xlink:href="#mdf90cb588a" y="207.045" stroke="#000" stroke-width=".8" id="line2d_9"/><text x="50.6" y="210.845" font-family="DejaVu Sans" font-size="10" font-weight="400" text-anchor="end" id="text_10">20</text></g><g id="ytick_4"><use x="57.6" xlink:href="#mdf90cb588a" y="162.823" stroke="#000" stroke-width=".8" id="line2d_10"/><text x="50.6" y="166.622" font-family="DejaVu Sans" font-size="10" font-weight="400" text-anchor="end" id="text_11">30</text></g><g id="ytick_5"><use x="57.6" xlink:href="#mdf90cb588a" y="118.601" stroke="#000" stroke-width=".8" id="line2d_11"/><text x="50.6" y="122.4" font-family="DejaVu Sans" font-size="10" font-weight="400" text-anchor="end" id="text_12">40</text></g><g id="ytick_6"><use x="57.6" xlink:href="#mdf90cb588a" y="74.379" stroke="#000" stroke-width=".8" id="line2d_12"/><text x="50.6" y="78.178" font-family="DejaVu Sans" font-size="10" font-weight="400" text-anchor="end" id="text_13">50</text></g><text transform="rotate(-90 31.795 174.528)" x="31.795" y="174.528" font-family="DejaVu Sans" font-size="10" font-weight="400" text-anchor="middle" id="text_14">Coin Flips Needed</text></g><path clip-path="url(#p4130fdae99)" d="M73.833 295.488l6.625-.177 6.626-.174 6.626-.17 6.625-.17 6.626-.166 6.625-.165 6.626-.164 6.626-.163 6.625-.162 6.626-.163 6.625-.163 6.626-.164 6.626-.166 6.625-.167 6.626-.17 6.625-.172 6.626-.176 6.626-.18 6.625-.185 6.626-.19 6.625-.197 6.626-.205 6.626-.214 6.625-.223 6.626-.236 6.625-.248 6.626-.264 6.626-.282 6.625-.302 6.626-.326 6.625-.355 6.626-.388 6.626-.428 6.625-.476 6.626-.534 6.625-.604 6.626-.693 6.626-.805 6.625-.95 6.626-1.138 6.625-1.396 6.626-1.757 6.626-2.285 6.625-3.1 6.626-4.46 6.625-6.987 6.626-12.547 6.626-29.227 6.625-145.996" fill="none" stroke="#1f77b4" stroke-linecap="square" stroke-width="1.5" id="line2d_13"/><path clip-path="url(#p4130fdae99)" d="M73.833 243.423l6.625-6.572 6.626 6.253 6.626 1.698 6.625-3.148 6.626-1.955 6.625-4.502 6.626 5.457 6.626-.592 6.625 2.565 6.626-2.822 6.625-10.613 6.626 15.725 6.626-13.134 6.625.487 6.626-4.962 6.625-9.994 6.626 2.865 6.626 2.76 6.625-2.804 6.626-32.335m13.251 24.004l6.626-2.008 6.625 7.403m72.881-64.432l6.626-19.705m19.877-22.783l6.626 40.71" fill="none" stroke="#ff7f0e" stroke-linecap="square" stroke-width="1.5" id="line2d_14"/><path clip-path="url(#p4130fdae99)" d="M73.833 204.171l6.625-13.046 6.626 11.72 6.626-12.825 6.625 2.494 6.626 6.713 6.625-22.35 6.626 3.724 6.626-2.238 6.625-5.696 6.626-2.556 6.625-1.194 6.626-8.924 6.626-6.067 6.625 2.29 6.626 17.583 6.625-17.485 6.626-11.56 6.626 11.878 6.625-8.897 6.626-18.857 6.625 9.827 6.626 10.772 6.626-4.06m13.25-45.336l6.626-14.576m33.128-31.937" fill="none" stroke="#2ca02c" stroke-linecap="square" stroke-width="1.5" id="line2d_15"/><path d="M57.6 307.584V41.472" fill="none" stroke="#000" stroke-linecap="square" stroke-width=".8" id="patch_3"/><path d="M414.72 307.584V41.472" fill="none" stroke="#000" stroke-linecap="square" stroke-width=".8" id="patch_4"/><path d="M57.6 307.584h357.12" fill="none" stroke="#000" stroke-linecap="square" stroke-width=".8" id="patch_5"/><path d="M57.6 41.472h357.12" fill="none" stroke="#000" stroke-linecap="square" stroke-width=".8" id="patch_6"/><text x="236.16" y="35.472" font-family="DejaVu Sans" font-size="12" font-weight="400" text-anchor="middle" id="text_15">Coin Flips for 2014 Add. x+0.5</text><g id="legend_1"><path d="M64.6 108.184h211.714q2 0 2-2V48.472q0-2-2-2H64.6q-2 0-2 2v57.712q0 2 2 2z" fill="#fff" opacity=".8" stroke="#ccc" id="patch_7"/><path d="M66.6 54.57h20" fill="none" stroke="#1f77b4" stroke-linecap="square" stroke-width="1.5" id="line2d_17"/><text x="94.6" y="58.07" font-family="DejaVu Sans" font-size="10" font-weight="400" id="text_16">Coin Flip Lower Bound</text><path d="M66.6 69.249h20" fill="none" stroke="#ff7f0e" stroke-linecap="square" stroke-width="1.5" id="line2d_19"/><text x="94.6" y="72.749" font-family="DejaVu Sans" font-size="10" font-weight="400" id="text_17">Avg. Coins Flipped 2014 Add. x+0.5</text><path d="M66.6 83.927h20" fill="none" stroke="#2ca02c" stroke-linecap="square" stroke-width="1.5" id="line2d_21"/><text x="94.6" y="87.427" font-family="DejaVu Sans" font-size="10" font-weight="400" id="text_18">Avg. Coins Flipped 2016 Add. x+0.5</text><path d="M66.6 98.605h20" fill="none" stroke="#d62728" stroke-linecap="square" stroke-width="1.5" id="line2d_23"/><text x="94.6" y="102.105" font-family="DejaVu Sans" font-size="10" font-weight="400" id="text_19">Avg. Coins Flipped 2019 Add. x+0.5</text></g></g></g><defs><clipPath id="p4130fdae99"><path d="M57.6 41.472h357.12v266.112H57.6z"/></clipPath></defs></svg>