<svg height="460.8" viewBox="0 0 460.8 345.6" width="614.4" xmlns="http://www.w3.org/2000/svg" xmlns:xlink="http://www.w3.org/1999/xlink"><defs><style>*{stroke-linecap:butt;stroke-linejoin:round}</style></defs><g id="figure_1"><path d="M0 345.6h460.8V0H0z" fill="#fff" id="patch_1"/><g id="axes_1"><path d="M57.6 307.584h357.12V41.472H57.6z" fill="#fff" id="patch_2"/><g id="matplotlib.axis_1"><g id="xtick_1"><g id="line2d_1"><defs><path d="M0 0v3.5" id="mc29eb833a7" stroke="#000" stroke-width=".8"/></defs><use x="73.778" xlink:href="#mc29eb833a7" y="307.584" stroke="#000" stroke-width=".8"/></g><text x="73.778" y="322.182" font-family="DejaVu Sans" font-size="10" font-weight="400" text-anchor="middle" id="text_1">0.0</text></g><g id="xtick_2"><use x="128.265" xlink:href="#mc29eb833a7" y="307.584" stroke="#000" stroke-width=".8" id="line2d_2"/><text x="128.265" y="322.182" font-family="DejaVu Sans" font-size="10" font-weight="400" text-anchor="middle" id="text_2">0.1</text></g><g id="xtick_3"><use x="182.752" xlink:href="#mc29eb833a7" y="307.584" stroke="#000" stroke-width=".8" id="line2d_3"/><text x="182.752" y="322.182" font-family="DejaVu Sans" font-size="10" font-weight="400" text-anchor="middle" id="text_3">0.2</text></g><g id="xtick_4"><use x="237.239" xlink:href="#mc29eb833a7" y="307.584" stroke="#000" stroke-width=".8" id="line2d_4"/><text x="237.239" y="322.182" font-family="DejaVu Sans" font-size="10" font-weight="400" text-anchor="middle" id="text_4">0.3</text></g><g id="xtick_5"><use x="291.726" xlink:href="#mc29eb833a7" y="307.584" stroke="#000" stroke-width=".8" id="line2d_5"/><text x="291.726" y="322.182" font-family="DejaVu Sans" font-size="10" font-weight="400" text-anchor="middle" id="text_5">0.4</text></g><g id="xtick_6"><use x="346.212" xlink:href="#mc29eb833a7" y="307.584" stroke="#000" stroke-width=".8" id="line2d_6"/><text x="346.212" y="322.182" font-family="DejaVu Sans" font-size="10" font-weight="400" text-anchor="middle" id="text_6">0.5</text></g><g id="xtick_7"><use x="400.699" xlink:href="#mc29eb833a7" y="307.584" stroke="#000" stroke-width=".8" id="line2d_7"/><text x="400.699" y="322.182" font-family="DejaVu Sans" font-size="10" font-weight="400" text-anchor="middle" id="text_7">0.6</text></g><text x="236.16" y="335.861" font-family="DejaVu Sans" font-size="10" font-weight="400" text-anchor="middle" id="text_8">Probability</text></g><g id="matplotlib.axis_2"><g id="ytick_1"><g id="line2d_8"><defs><path d="M0 0h-3.5" id="maf02f8f967" stroke="#000" stroke-width=".8"/></defs><use x="57.6" xlink:href="#maf02f8f967" y="299.31" stroke="#000" stroke-width=".8"/></g><text x="50.6" y="303.11" font-family="DejaVu Sans" font-size="10" font-weight="400" text-anchor="end" id="text_9">0</text></g><g id="ytick_2"><use x="57.6" xlink:href="#maf02f8f967" y="248.509" stroke="#000" stroke-width=".8" id="line2d_9"/><text x="50.6" y="252.308" font-family="DejaVu Sans" font-size="10" font-weight="400" text-anchor="end" id="text_10">100</text></g><g id="ytick_3"><use x="57.6" xlink:href="#maf02f8f967" y="197.707" stroke="#000" stroke-width=".8" id="line2d_10"/><text x="50.6" y="201.506" font-family="DejaVu Sans" font-size="10" font-weight="400" text-anchor="end" id="text_11">200</text></g><g id="ytick_4"><use x="57.6" xlink:href="#maf02f8f967" y="146.906" stroke="#000" stroke-width=".8" id="line2d_11"/><text x="50.6" y="150.705" font-family="DejaVu Sans" font-size="10" font-weight="400" text-anchor="end" id="text_12">300</text></g><g id="ytick_5"><use x="57.6" xlink:href="#maf02f8f967" y="96.104" stroke="#000" stroke-width=".8" id="line2d_12"/><text x="50.6" y="99.903" font-family="DejaVu Sans" font-size="10" font-weight="400" text-anchor="end" id="text_13">400</text></g><g id="ytick_6"><use x="57.6" xlink:href="#maf02f8f967" y="45.303" stroke="#000" stroke-width=".8" id="line2d_13"/><text x="50.6" y="49.102" font-family="DejaVu Sans" font-size="10" font-weight="400" text-anchor="end" id="text_14">500</text></g><text transform="rotate(-90 25.433 174.528)" x="25.433" y="174.528" font-family="DejaVu Sans" font-size="10" font-weight="400" text-anchor="middle" id="text_15">Average Bits Consumed Per Call</text></g><path clip-path="url(#p57d47e9687)" d="M79.335 279.044l5.503 1.428 5.503 1.465 5.502.577 5.503-1.36 5.502-.409 5.503.965 5.503.774 5.502-.761 5.503.11 5.503.643 5.502-.505 5.503.932 5.502-1.154 5.503 2.093 5.503-1.58 5.502.844 5.503-1.43 5.502 2.486 5.503-.97 5.503-1.217 5.502 2.039 5.503-1.346 5.503-2.55 5.502 1.023 5.503-.966 5.502.442 5.503-.758 5.503-.458 5.502 1.059 5.503-2.37 5.503.976 5.502 1.439 5.503-1.59 5.502-.91 5.503-2.951 5.503 4.689 5.502-3.341 5.503 1.798 5.503-4.383 5.502 2.681 5.503-3.492 5.502.837 5.503 1.619 5.503-3.323 5.502 3.238 5.503-5.567 5.502-1.068 5.503 2.928 5.503-1.296 5.502-5.539m11.006-2.87l5.502 5.55 5.503-6.86 5.502 2.883 5.503-7.51 5.503-1.77 5.502-9.618" fill="none" stroke="#1f77b4" stroke-linecap="square" stroke-width="1.5" id="line2d_14"/><path clip-path="url(#p57d47e9687)" d="M73.833 275.898l5.502-.54 5.503.543 5.503.136 5.502.172 5.503-.989 5.502.647 5.503-2.82 5.503-1.792 5.502-1.633 5.503 1.988 5.503-.056 5.502.404 5.503-1.096 5.502 2.054 5.503-3.243 5.503 1.556 5.502-4.282 5.503-.554 5.502 3.066 5.503-.968 5.503-1.564 5.502-.476 5.503.1 5.503-4.51 5.502 2.307 5.503-1.598 5.502.933 5.503-1.1 5.503.81 5.502-5.108 5.503 3.267 5.503.925 5.502-7.806 5.503-.263 5.502-1.411 5.503-.785 5.503.882 5.502-6.807 5.503-1.496 5.503-4.036 5.502 5.116 5.503-6.789 5.502 3.91 5.503-4.334 5.503-1.936 5.502-3.185 5.503-13.276 5.502 3.026 5.503-14.3M365.472 215.414l5.502-50.033" fill="none" stroke="#ff7f0e" stroke-linecap="square" stroke-width="1.5" id="line2d_15"/><path clip-path="url(#p57d47e9687)" d="M73.833 295.301l5.502.187 5.503-.598 5.503-.731 5.502-.316 5.503.044 5.502-.35 5.503-2.906 5.503 3.111 5.502-4.44 5.503-.32 5.503.206 5.502.079 5.503-2.168 5.502 1.427 5.503-3.25 5.503 2.188 5.502-4.757 5.503 2.352 5.502-3.947 5.503.232 5.503-1.639 5.502-3.457 5.503.766 5.503-4.982 5.502-1.911 5.503-1.42 5.502-5.747 5.503 3.74 5.503-8.297 5.502-.507 5.503-2.09 5.503-3.678" fill="none" stroke="#2ca02c" stroke-linecap="square" stroke-width="1.5" id="line2d_16"/><path clip-path="url(#p57d47e9687)" d="M73.833 286.593l5.502.003 5.503-.845 5.503.887 5.502-.483 5.503.361 5.502-.189 5.503-.792 5.503-2.197 5.502-1.184 5.503.396 5.503.123 5.502-.504 5.503.38 5.502-.395 5.503-.305 5.503.414 5.502-1.966 5.503 2.47 5.502-1.043 5.503-3.495 5.503-.111 5.502-1.637 5.503 1.723 5.503-.423 5.502 2.625 5.503-3.947 5.502-3.643 5.503 2.351 5.503-2.852 5.502-.675 5.503-2.068m11.005-3.22l5.503 5.728 5.502-3.103 5.503-1.753 5.503.275m11.005-4.4l5.503 2.371 5.502-1.599 5.503-5.924 5.502 1.227m11.006-3.895l5.502-5.451 5.503 2.142m11.005.865l5.503-9.428m44.02-44.736" fill="none" stroke="#d62728" stroke-linecap="square" stroke-width="1.5" id="line2d_17"/><path clip-path="url(#p57d47e9687)" d="M79.335 53.568l5.503 103.061 5.503 31.524 5.502 19.286 5.503 10.138 5.502 9.474 5.503 1.882 5.503 4.057 5.502 2.727 5.503 1.442 5.503 1.85 5.502 4.341 5.503-.573 5.502-.512 5.503 3.144 5.503-.303 5.502 1.955 5.503-1.314 5.502 3.94 5.503-.76 5.503.358 5.502-1.47 5.503-.87 5.503 2.678 5.502-.275 5.503.83 5.502.128 5.503-.063 5.503.947 5.502-.326 5.503-1.513 5.503 6.586" fill="none" stroke="#9467bd" stroke-linecap="square" stroke-width="1.5" id="line2d_18"/><path d="M57.6 307.584V41.472" fill="none" stroke="#000" stroke-linecap="square" stroke-width=".8" id="patch_3"/><path d="M414.72 307.584V41.472" fill="none" stroke="#000" stroke-linecap="square" stroke-width=".8" id="patch_4"/><path d="M57.6 307.584h357.12" fill="none" stroke="#000" stroke-linecap="square" stroke-width=".8" id="patch_5"/><path d="M57.6 41.472h357.12" fill="none" stroke="#000" stroke-linecap="square" stroke-width=".8" id="patch_6"/><text x="236.16" y="35.472" font-family="DejaVu Sans" font-size="12" font-weight="400" text-anchor="middle" id="text_16">Avg. Bits Consumed</text><g id="legend_1"><path d="M233.632 122.863H407.72q2 0 2-2V48.472q0-2-2-2H233.632q-2 0-2 2v72.39q0 2 2 2z" fill="#fff" opacity=".8" stroke="#ccc" id="patch_7"/><path d="M235.632 54.57h20" fill="none" stroke="#1f77b4" stroke-linecap="square" stroke-width="1.5" id="line2d_19"/><text x="263.632" y="58.07" font-family="DejaVu Sans" font-size="10" font-weight="400" id="text_17">2014 Lin. x*1.5</text><path d="M235.632 69.249h20" fill="none" stroke="#ff7f0e" stroke-linecap="square" stroke-width="1.5" id="line2d_21"/><text x="263.632" y="72.749" font-family="DejaVu Sans" font-size="10" font-weight="400" id="text_18">2016 Lin. x*1.5</text><path d="M235.632 83.927h20" fill="none" stroke="#2ca02c" stroke-linecap="square" stroke-width="1.5" id="line2d_23"/><text x="263.632" y="87.427" font-family="DejaVu Sans" font-size="10" font-weight="400" id="text_19">Low-Mean Lin. x*1.5</text><path d="M235.632 98.605h20" fill="none" stroke="#d62728" stroke-linecap="square" stroke-width="1.5" id="line2d_25"/><text x="263.632" y="102.105" font-family="DejaVu Sans" font-size="10" font-weight="400" id="text_20">2019x*1.5</text><path d="M235.632 113.283h20" fill="none" stroke="#9467bd" stroke-linecap="square" stroke-width="1.5" id="line2d_27"/><text x="263.632" y="116.783" font-family="DejaVu Sans" font-size="10" font-weight="400" id="text_21">Low-Mean M=0.49999 x*1.5</text></g></g></g><defs><clipPath id="p57d47e9687"><path d="M57.6 41.472h357.12v266.112H57.6z"/></clipPath></defs></svg>