<?xml version="1.0" encoding="utf-8" standalone="no"?>
<!DOCTYPE svg PUBLIC "-//W3C//DTD SVG 1.1//EN"
  "http://www.w3.org/Graphics/SVG/1.1/DTD/svg11.dtd">
<!-- Created with matplotlib (https://matplotlib.org/) -->
<svg height="345.6pt" version="1.1" viewBox="0 0 460.8 345.6" width="460.8pt" xmlns="http://www.w3.org/2000/svg" xmlns:xlink="http://www.w3.org/1999/xlink">
 <defs>
  <style type="text/css">
*{stroke-linecap:butt;stroke-linejoin:round;}
  </style>
 </defs>
 <g id="figure_1">
  <g id="patch_1">
   <path d="M 0 345.6 
L 460.8 345.6 
L 460.8 0 
L 0 0 
z
" style="fill:#ffffff;"/>
  </g>
  <g id="axes_1">
   <g id="patch_2">
    <path d="M 57.6 307.584 
L 414.72 307.584 
L 414.72 41.472 
L 57.6 41.472 
z
" style="fill:#ffffff;"/>
   </g>
   <g id="matplotlib.axis_1">
    <g id="xtick_1">
     <g id="line2d_1">
      <defs>
       <path d="M 0 0 
L 0 3.5 
" id="m32bc4f2425" style="stroke:#000000;stroke-width:0.8;"/>
      </defs>
      <g>
       <use style="stroke:#000000;stroke-width:0.8;" x="73.759665" xlink:href="#m32bc4f2425" y="307.584"/>
      </g>
     </g>
     <g id="text_1">
      <text style="font-family:DejaVu Sans;font-size:10px;font-style:normal;font-weight:normal;text-anchor:middle;" transform="rotate(-0, 73.759665, 322.182437)" x="73.759665" y="322.182437">0.0</text>
     </g>
    </g>
    <g id="xtick_2">
     <g id="line2d_2">
      <g>
       <use style="stroke:#000000;stroke-width:0.8;" x="146.82155" xlink:href="#m32bc4f2425" y="307.584"/>
      </g>
     </g>
     <g id="text_2">
      <text style="font-family:DejaVu Sans;font-size:10px;font-style:normal;font-weight:normal;text-anchor:middle;" transform="rotate(-0, 146.82155, 322.182437)" x="146.82155" y="322.182437">0.1</text>
     </g>
    </g>
    <g id="xtick_3">
     <g id="line2d_3">
      <g>
       <use style="stroke:#000000;stroke-width:0.8;" x="219.883436" xlink:href="#m32bc4f2425" y="307.584"/>
      </g>
     </g>
     <g id="text_3">
      <text style="font-family:DejaVu Sans;font-size:10px;font-style:normal;font-weight:normal;text-anchor:middle;" transform="rotate(-0, 219.883436, 322.182437)" x="219.883436" y="322.182437">0.2</text>
     </g>
    </g>
    <g id="xtick_4">
     <g id="line2d_4">
      <g>
       <use style="stroke:#000000;stroke-width:0.8;" x="292.945321" xlink:href="#m32bc4f2425" y="307.584"/>
      </g>
     </g>
     <g id="text_4">
      <text style="font-family:DejaVu Sans;font-size:10px;font-style:normal;font-weight:normal;text-anchor:middle;" transform="rotate(-0, 292.945321, 322.182437)" x="292.945321" y="322.182437">0.3</text>
     </g>
    </g>
    <g id="xtick_5">
     <g id="line2d_5">
      <g>
       <use style="stroke:#000000;stroke-width:0.8;" x="366.007206" xlink:href="#m32bc4f2425" y="307.584"/>
      </g>
     </g>
     <g id="text_5">
      <text style="font-family:DejaVu Sans;font-size:10px;font-style:normal;font-weight:normal;text-anchor:middle;" transform="rotate(-0, 366.007206, 322.182437)" x="366.007206" y="322.182437">0.4</text>
     </g>
    </g>
    <g id="text_6">
     <text style="font-family:DejaVu Sans;font-size:10px;font-style:normal;font-weight:normal;text-anchor:middle;" transform="rotate(-0, 236.16, 335.860562)" x="236.16" y="335.860562">Probability</text>
    </g>
   </g>
   <g id="matplotlib.axis_2">
    <g id="ytick_1">
     <g id="line2d_6">
      <defs>
       <path d="M 0 0 
L -3.5 0 
" id="mfe8ec1b23b" style="stroke:#000000;stroke-width:0.8;"/>
      </defs>
      <g>
       <use style="stroke:#000000;stroke-width:0.8;" x="57.6" xlink:href="#mfe8ec1b23b" y="300.408826"/>
      </g>
     </g>
     <g id="text_7">
      <text style="font-family:DejaVu Sans;font-size:10px;font-style:normal;font-weight:normal;text-anchor:end;" transform="rotate(-0, 50.6, 304.208045)" x="50.6" y="304.208045">0</text>
     </g>
    </g>
    <g id="ytick_2">
     <g id="line2d_7">
      <g>
       <use style="stroke:#000000;stroke-width:0.8;" x="57.6" xlink:href="#mfe8ec1b23b" y="248.015023"/>
      </g>
     </g>
     <g id="text_8">
      <text style="font-family:DejaVu Sans;font-size:10px;font-style:normal;font-weight:normal;text-anchor:end;" transform="rotate(-0, 50.6, 251.814242)" x="50.6" y="251.814242">100</text>
     </g>
    </g>
    <g id="ytick_3">
     <g id="line2d_8">
      <g>
       <use style="stroke:#000000;stroke-width:0.8;" x="57.6" xlink:href="#mfe8ec1b23b" y="195.621221"/>
      </g>
     </g>
     <g id="text_9">
      <text style="font-family:DejaVu Sans;font-size:10px;font-style:normal;font-weight:normal;text-anchor:end;" transform="rotate(-0, 50.6, 199.42044)" x="50.6" y="199.42044">200</text>
     </g>
    </g>
    <g id="ytick_4">
     <g id="line2d_9">
      <g>
       <use style="stroke:#000000;stroke-width:0.8;" x="57.6" xlink:href="#mfe8ec1b23b" y="143.227418"/>
      </g>
     </g>
     <g id="text_10">
      <text style="font-family:DejaVu Sans;font-size:10px;font-style:normal;font-weight:normal;text-anchor:end;" transform="rotate(-0, 50.6, 147.026637)" x="50.6" y="147.026637">300</text>
     </g>
    </g>
    <g id="ytick_5">
     <g id="line2d_10">
      <g>
       <use style="stroke:#000000;stroke-width:0.8;" x="57.6" xlink:href="#mfe8ec1b23b" y="90.833616"/>
      </g>
     </g>
     <g id="text_11">
      <text style="font-family:DejaVu Sans;font-size:10px;font-style:normal;font-weight:normal;text-anchor:end;" transform="rotate(-0, 50.6, 94.632835)" x="50.6" y="94.632835">400</text>
     </g>
    </g>
    <g id="text_12">
     <text style="font-family:DejaVu Sans;font-size:10px;font-style:normal;font-weight:normal;text-anchor:middle;" transform="rotate(-90, 25.432812, 174.528)" x="25.432812" y="174.528">Average Bits Consumed Per Call</text>
    </g>
   </g>
   <g id="line2d_11">
    <path clip-path="url(#p797020d395)" d="M 73.832727 280.066408 
L 81.21124 280.513851 
L 88.589752 283.251951 
L 95.968264 281.127907 
L 103.346777 280.99797 
L 110.725289 283.097914 
L 118.103802 280.141855 
L 125.482314 282.886243 
L 132.860826 282.884147 
L 140.239339 281.958872 
L 147.617851 282.543587 
L 154.996364 281.84675 
L 162.374876 283.151355 
L 169.753388 284.552366 
L 177.131901 279.548757 
L 184.510413 281.740914 
L 191.888926 280.659506 
L 199.267438 279.632587 
L 206.64595 279.098171 
L 214.024463 281.467418 
L 221.402975 278.333221 
L 228.781488 275.781643 
L 236.16 277.56408 
L 243.538512 278.495642 
L 250.917025 276.891344 
L 258.295537 274.360723 
L 265.67405 278.688451 
L 273.052562 275.302764 
L 280.431074 275.909484 
L 287.809587 274.635267 
L 295.188099 270.637619 
L 302.566612 273.466885 
L 309.945124 270.393464 
L 317.323636 266.436684 
L 324.702149 261.281134 
L 332.080661 266.0343 
L 339.459174 257.655483 
L 346.837686 256.308962 
M 361.594711 259.429537 
L 368.973223 256.459857 
L 376.351736 244.366319 
L 383.730248 240.861174 
L 391.10876 241.283468 
L 398.487273 233.150902 
" style="fill:none;stroke:#1f77b4;stroke-linecap:square;stroke-width:1.5;"/>
   </g>
   <g id="line2d_12">
    <path clip-path="url(#p797020d395)" d="M 73.832727 269.582408 
L 81.21124 269.254423 
L 88.589752 269.46295 
L 95.968264 268.987215 
L 103.346777 269.243944 
L 110.725289 263.208178 
L 118.103802 264.553651 
L 125.482314 263.862053 
L 132.860826 265.139414 
L 140.239339 265.192856 
L 147.617851 263.057284 
L 154.996364 265.368899 
L 162.374876 263.468052 
L 169.753388 258.116549 
L 177.131901 260.640882 
L 184.510413 259.042871 
L 191.888926 259.60558 
L 199.267438 258.171038 
L 206.64595 253.338234 
L 214.024463 252.440204 
L 221.402975 251.127215 
L 228.781488 252.599481 
L 236.16 248.654228 
L 243.538512 245.782 
L 250.917025 243.600322 
L 258.295537 242.843755 
L 265.67405 240.119277 
L 273.052562 239.955809 
L 280.431074 241.570586 
L 287.809587 231.646152 
L 295.188099 224.861154 
L 302.566612 230.166551 
L 309.945124 223.321824 
L 317.323636 220.801682 
L 324.702149 219.447827 
L 332.080661 206.39653 
L 339.459174 195.71029 
M 354.216198 205.461825 
L 361.594711 177.774844 
M 376.351736 161.445791 
" style="fill:none;stroke:#ff7f0e;stroke-linecap:square;stroke-width:1.5;"/>
   </g>
   <g id="line2d_13">
    <path clip-path="url(#p797020d395)" d="M 73.832727 295.488 
L 81.21124 294.060793 
L 88.589752 294.74296 
L 95.968264 293.67727 
L 103.346777 294.112139 
L 110.725289 292.155754 
L 118.103802 292.118031 
L 125.482314 291.43272 
L 132.860826 291.423289 
L 140.239339 290.423615 
L 147.617851 290.765223 
L 154.996364 290.487535 
L 162.374876 288.890572 
L 169.753388 287.607972 
L 177.131901 286.191244 
L 184.510413 284.546078 
L 191.888926 284.406711 
L 199.267438 280.600825 
L 206.64595 278.339508 
L 214.024463 277.517974 
L 221.402975 271.6834 
L 228.781488 269.714441 
L 236.16 269.26595 
L 243.538512 263.58227 
L 250.917025 249.396124 
" style="fill:none;stroke:#2ca02c;stroke-linecap:square;stroke-width:1.5;"/>
   </g>
   <g id="line2d_14">
    <path clip-path="url(#p797020d395)" d="M 73.832727 283.235185 
L 81.21124 283.880677 
L 88.589752 283.97289 
L 95.968264 284.578562 
L 103.346777 283.738166 
L 110.725289 284.122736 
L 118.103802 279.190384 
L 125.482314 278.499833 
L 132.860826 279.049968 
L 140.239339 278.833058 
L 147.617851 280.106227 
L 154.996364 279.244873 
L 162.374876 277.679347 
L 169.753388 278.032481 
L 177.131901 279.873599 
L 184.510413 272.871691 
L 191.888926 274.720145 
L 199.267438 268.122717 
L 206.64595 273.218538 
L 214.024463 273.242639 
L 221.402975 268.966257 
L 228.781488 268.643511 
L 236.16 264.229857 
M 258.295537 265.936848 
L 265.67405 263.676579 
L 273.052562 263.511014 
M 302.566612 251.237242 
L 309.945124 242.686574 
M 332.080661 246.699939 
L 339.459174 222.335773 
L 346.837686 224.908309 
M 368.973223 205.322457 
" style="fill:none;stroke:#d62728;stroke-linecap:square;stroke-width:1.5;"/>
   </g>
   <g id="line2d_15">
    <path clip-path="url(#p797020d395)" d="M 81.21124 53.568 
L 88.589752 149.729489 
L 95.968264 189.82961 
L 103.346777 203.261285 
L 110.725289 217.331117 
L 118.103802 224.073151 
L 125.482314 230.856053 
L 132.860826 229.576596 
L 140.239339 235.1251 
L 147.617851 238.365133 
L 154.996364 241.628219 
L 162.374876 242.055752 
L 169.753388 243.247187 
L 177.131901 245.232913 
L 184.510413 242.055752 
L 191.888926 248.293758 
L 199.267438 249.888626 
L 206.64595 249.742971 
L 214.024463 244.438622 
L 221.402975 249.526061 
L 228.781488 246.073309 
L 236.16 252.955759 
M 250.917025 250.089818 
" style="fill:none;stroke:#9467bd;stroke-linecap:square;stroke-width:1.5;"/>
   </g>
   <g id="patch_3">
    <path d="M 57.6 307.584 
L 57.6 41.472 
" style="fill:none;stroke:#000000;stroke-linecap:square;stroke-linejoin:miter;stroke-width:0.8;"/>
   </g>
   <g id="patch_4">
    <path d="M 414.72 307.584 
L 414.72 41.472 
" style="fill:none;stroke:#000000;stroke-linecap:square;stroke-linejoin:miter;stroke-width:0.8;"/>
   </g>
   <g id="patch_5">
    <path d="M 57.6 307.584 
L 414.72 307.584 
" style="fill:none;stroke:#000000;stroke-linecap:square;stroke-linejoin:miter;stroke-width:0.8;"/>
   </g>
   <g id="patch_6">
    <path d="M 57.6 41.472 
L 414.72 41.472 
" style="fill:none;stroke:#000000;stroke-linecap:square;stroke-linejoin:miter;stroke-width:0.8;"/>
   </g>
   <g id="text_13">
    <text style="font-family:DejaVu Sans;font-size:12px;font-style:normal;font-weight:normal;text-anchor:middle;" transform="rotate(-0, 236.16, 35.472)" x="236.16" y="35.472">Avg. Bits Consumed by 2014 Lin. x*2.0 Algorithm</text>
   </g>
   <g id="legend_1">
    <g id="patch_7">
     <path d="M 233.6325 122.862625 
L 407.72 122.862625 
Q 409.72 122.862625 409.72 120.862625 
L 409.72 48.472 
Q 409.72 46.472 407.72 46.472 
L 233.6325 46.472 
Q 231.6325 46.472 231.6325 48.472 
L 231.6325 120.862625 
Q 231.6325 122.862625 233.6325 122.862625 
z
" style="fill:#ffffff;opacity:0.8;stroke:#cccccc;stroke-linejoin:miter;"/>
    </g>
    <g id="line2d_16">
     <path d="M 235.6325 54.570438 
L 255.6325 54.570438 
" style="fill:none;stroke:#1f77b4;stroke-linecap:square;stroke-width:1.5;"/>
    </g>
    <g id="line2d_17"/>
    <g id="text_14">
     <text style="font-family:DejaVu Sans;font-size:10px;font-style:normal;font-weight:normal;text-anchor:start;" transform="rotate(-0, 263.6325, 58.070438)" x="263.6325" y="58.070438">2014 Lin. x*2.0</text>
    </g>
    <g id="line2d_18">
     <path d="M 235.6325 69.248563 
L 255.6325 69.248563 
" style="fill:none;stroke:#ff7f0e;stroke-linecap:square;stroke-width:1.5;"/>
    </g>
    <g id="line2d_19"/>
    <g id="text_15">
     <text style="font-family:DejaVu Sans;font-size:10px;font-style:normal;font-weight:normal;text-anchor:start;" transform="rotate(-0, 263.6325, 72.748563)" x="263.6325" y="72.748563">2016 Lin. x*2.0</text>
    </g>
    <g id="line2d_20">
     <path d="M 235.6325 83.926688 
L 255.6325 83.926688 
" style="fill:none;stroke:#2ca02c;stroke-linecap:square;stroke-width:1.5;"/>
    </g>
    <g id="line2d_21"/>
    <g id="text_16">
     <text style="font-family:DejaVu Sans;font-size:10px;font-style:normal;font-weight:normal;text-anchor:start;" transform="rotate(-0, 263.6325, 87.426688)" x="263.6325" y="87.426688">Low-Mean Lin. x*2.0</text>
    </g>
    <g id="line2d_22">
     <path d="M 235.6325 98.604813 
L 255.6325 98.604813 
" style="fill:none;stroke:#d62728;stroke-linecap:square;stroke-width:1.5;"/>
    </g>
    <g id="line2d_23"/>
    <g id="text_17">
     <text style="font-family:DejaVu Sans;font-size:10px;font-style:normal;font-weight:normal;text-anchor:start;" transform="rotate(-0, 263.6325, 102.104813)" x="263.6325" y="102.104813">2019x*2.0</text>
    </g>
    <g id="line2d_24">
     <path d="M 235.6325 113.282938 
L 255.6325 113.282938 
" style="fill:none;stroke:#9467bd;stroke-linecap:square;stroke-width:1.5;"/>
    </g>
    <g id="line2d_25"/>
    <g id="text_18">
     <text style="font-family:DejaVu Sans;font-size:10px;font-style:normal;font-weight:normal;text-anchor:start;" transform="rotate(-0, 263.6325, 116.782938)" x="263.6325" y="116.782938">Low-Mean M=0.49999 x*2.0</text>
    </g>
   </g>
  </g>
 </g>
 <defs>
  <clipPath id="p797020d395">
   <rect height="266.112" width="357.12" x="57.6" y="41.472"/>
  </clipPath>
 </defs>
</svg>
