<?xml version="1.0" encoding="utf-8" standalone="no"?>
<!DOCTYPE svg PUBLIC "-//W3C//DTD SVG 1.1//EN"
  "http://www.w3.org/Graphics/SVG/1.1/DTD/svg11.dtd">
<!-- Created with matplotlib (https://matplotlib.org/) -->
<svg height="345.6pt" version="1.1" viewBox="0 0 460.8 345.6" width="460.8pt" xmlns="http://www.w3.org/2000/svg" xmlns:xlink="http://www.w3.org/1999/xlink">
 <defs>
  <style type="text/css">
*{stroke-linecap:butt;stroke-linejoin:round;}
  </style>
 </defs>
 <g id="figure_1">
  <g id="patch_1">
   <path d="M 0 345.6 
L 460.8 345.6 
L 460.8 0 
L 0 0 
z
" style="fill:#ffffff;"/>
  </g>
  <g id="axes_1">
   <g id="patch_2">
    <path d="M 57.6 307.584 
L 414.72 307.584 
L 414.72 41.472 
L 57.6 41.472 
z
" style="fill:#ffffff;"/>
   </g>
   <g id="matplotlib.axis_1">
    <g id="xtick_1">
     <g id="line2d_1">
      <defs>
       <path d="M 0 0 
L 0 3.5 
" id="mcdc61c6124" style="stroke:#000000;stroke-width:0.8;"/>
      </defs>
      <g>
       <use style="stroke:#000000;stroke-width:0.8;" x="73.784019" xlink:href="#mcdc61c6124" y="307.584"/>
      </g>
     </g>
     <g id="text_1">
      <text style="font-family:DejaVu Sans;font-size:10px;font-style:normal;font-weight:normal;text-anchor:middle;" transform="rotate(-0, 73.784019, 322.182437)" x="73.784019" y="322.182437">0.0</text>
     </g>
    </g>
    <g id="xtick_2">
     <g id="line2d_2">
      <g>
       <use style="stroke:#000000;stroke-width:0.8;" x="122.491943" xlink:href="#mcdc61c6124" y="307.584"/>
      </g>
     </g>
     <g id="text_2">
      <text style="font-family:DejaVu Sans;font-size:10px;font-style:normal;font-weight:normal;text-anchor:middle;" transform="rotate(-0, 122.491943, 322.182437)" x="122.491943" y="322.182437">0.1</text>
     </g>
    </g>
    <g id="xtick_3">
     <g id="line2d_3">
      <g>
       <use style="stroke:#000000;stroke-width:0.8;" x="171.199866" xlink:href="#mcdc61c6124" y="307.584"/>
      </g>
     </g>
     <g id="text_3">
      <text style="font-family:DejaVu Sans;font-size:10px;font-style:normal;font-weight:normal;text-anchor:middle;" transform="rotate(-0, 171.199866, 322.182437)" x="171.199866" y="322.182437">0.2</text>
     </g>
    </g>
    <g id="xtick_4">
     <g id="line2d_4">
      <g>
       <use style="stroke:#000000;stroke-width:0.8;" x="219.90779" xlink:href="#mcdc61c6124" y="307.584"/>
      </g>
     </g>
     <g id="text_4">
      <text style="font-family:DejaVu Sans;font-size:10px;font-style:normal;font-weight:normal;text-anchor:middle;" transform="rotate(-0, 219.90779, 322.182437)" x="219.90779" y="322.182437">0.3</text>
     </g>
    </g>
    <g id="xtick_5">
     <g id="line2d_5">
      <g>
       <use style="stroke:#000000;stroke-width:0.8;" x="268.615713" xlink:href="#mcdc61c6124" y="307.584"/>
      </g>
     </g>
     <g id="text_5">
      <text style="font-family:DejaVu Sans;font-size:10px;font-style:normal;font-weight:normal;text-anchor:middle;" transform="rotate(-0, 268.615713, 322.182437)" x="268.615713" y="322.182437">0.4</text>
     </g>
    </g>
    <g id="xtick_6">
     <g id="line2d_6">
      <g>
       <use style="stroke:#000000;stroke-width:0.8;" x="317.323636" xlink:href="#mcdc61c6124" y="307.584"/>
      </g>
     </g>
     <g id="text_6">
      <text style="font-family:DejaVu Sans;font-size:10px;font-style:normal;font-weight:normal;text-anchor:middle;" transform="rotate(-0, 317.323636, 322.182437)" x="317.323636" y="322.182437">0.5</text>
     </g>
    </g>
    <g id="xtick_7">
     <g id="line2d_7">
      <g>
       <use style="stroke:#000000;stroke-width:0.8;" x="366.03156" xlink:href="#mcdc61c6124" y="307.584"/>
      </g>
     </g>
     <g id="text_7">
      <text style="font-family:DejaVu Sans;font-size:10px;font-style:normal;font-weight:normal;text-anchor:middle;" transform="rotate(-0, 366.03156, 322.182437)" x="366.03156" y="322.182437">0.6</text>
     </g>
    </g>
    <g id="text_8">
     <text style="font-family:DejaVu Sans;font-size:10px;font-style:normal;font-weight:normal;text-anchor:middle;" transform="rotate(-0, 236.16, 335.860562)" x="236.16" y="335.860562">Input Coin's Heads Probability (λ)</text>
    </g>
   </g>
   <g id="matplotlib.axis_2">
    <g id="ytick_1">
     <g id="line2d_8">
      <defs>
       <path d="M 0 0 
L -3.5 0 
" id="mb81ae8ab98" style="stroke:#000000;stroke-width:0.8;"/>
      </defs>
      <g>
       <use style="stroke:#000000;stroke-width:0.8;" x="57.6" xlink:href="#mb81ae8ab98" y="295.488"/>
      </g>
     </g>
     <g id="text_9">
      <text style="font-family:DejaVu Sans;font-size:10px;font-style:normal;font-weight:normal;text-anchor:end;" transform="rotate(-0, 50.6, 299.287219)" x="50.6" y="299.287219">0.0</text>
     </g>
    </g>
    <g id="ytick_2">
     <g id="line2d_9">
      <g>
       <use style="stroke:#000000;stroke-width:0.8;" x="57.6" xlink:href="#mb81ae8ab98" y="247.101581"/>
      </g>
     </g>
     <g id="text_10">
      <text style="font-family:DejaVu Sans;font-size:10px;font-style:normal;font-weight:normal;text-anchor:end;" transform="rotate(-0, 50.6, 250.900799)" x="50.6" y="250.900799">0.2</text>
     </g>
    </g>
    <g id="ytick_3">
     <g id="line2d_10">
      <g>
       <use style="stroke:#000000;stroke-width:0.8;" x="57.6" xlink:href="#mb81ae8ab98" y="198.715161"/>
      </g>
     </g>
     <g id="text_11">
      <text style="font-family:DejaVu Sans;font-size:10px;font-style:normal;font-weight:normal;text-anchor:end;" transform="rotate(-0, 50.6, 202.51438)" x="50.6" y="202.51438">0.4</text>
     </g>
    </g>
    <g id="ytick_4">
     <g id="line2d_11">
      <g>
       <use style="stroke:#000000;stroke-width:0.8;" x="57.6" xlink:href="#mb81ae8ab98" y="150.328742"/>
      </g>
     </g>
     <g id="text_12">
      <text style="font-family:DejaVu Sans;font-size:10px;font-style:normal;font-weight:normal;text-anchor:end;" transform="rotate(-0, 50.6, 154.127961)" x="50.6" y="154.127961">0.6</text>
     </g>
    </g>
    <g id="ytick_5">
     <g id="line2d_12">
      <g>
       <use style="stroke:#000000;stroke-width:0.8;" x="57.6" xlink:href="#mb81ae8ab98" y="101.942323"/>
      </g>
     </g>
     <g id="text_13">
      <text style="font-family:DejaVu Sans;font-size:10px;font-style:normal;font-weight:normal;text-anchor:end;" transform="rotate(-0, 50.6, 105.741541)" x="50.6" y="105.741541">0.8</text>
     </g>
    </g>
    <g id="ytick_6">
     <g id="line2d_13">
      <g>
       <use style="stroke:#000000;stroke-width:0.8;" x="57.6" xlink:href="#mb81ae8ab98" y="53.555903"/>
      </g>
     </g>
     <g id="text_14">
      <text style="font-family:DejaVu Sans;font-size:10px;font-style:normal;font-weight:normal;text-anchor:end;" transform="rotate(-0, 50.6, 57.355122)" x="50.6" y="57.355122">1.0</text>
     </g>
    </g>
    <g id="text_15">
     <text style="font-family:DejaVu Sans;font-size:10px;font-style:normal;font-weight:normal;text-anchor:middle;" transform="rotate(-90, 28.617187, 174.528)" x="28.617187" y="174.528">Simulated Mean / Function Value</text>
    </g>
   </g>
   <g id="line2d_14">
    <path clip-path="url(#pae98aa2c65)" d="M 73.832727 295.45171 
L 78.751736 291.786805 
L 83.670744 288.121901 
L 88.589752 284.456996 
L 93.50876 280.792091 
L 98.427769 277.127187 
L 103.346777 273.462282 
L 108.265785 269.797377 
L 113.184793 266.132473 
L 118.103802 262.467568 
L 123.02281 258.802663 
L 127.941818 255.137758 
L 132.860826 251.472854 
L 137.779835 247.807949 
L 142.698843 244.143044 
L 147.617851 240.47814 
L 152.53686 236.813235 
L 157.455868 233.14833 
L 162.374876 229.483426 
L 167.293884 225.818521 
L 172.212893 222.153616 
L 177.131901 218.488711 
L 182.050909 214.823807 
L 186.969917 211.158902 
L 191.888926 207.493997 
L 196.807934 203.829093 
L 201.726942 200.164188 
L 206.64595 196.499283 
L 211.564959 192.834379 
L 216.483967 189.169474 
L 221.402975 185.504569 
L 226.321983 181.839664 
L 231.240992 178.17476 
L 236.16 174.509855 
L 241.079008 170.84495 
L 245.998017 167.180046 
L 250.917025 163.515141 
L 255.836033 159.850236 
L 260.755041 156.185332 
L 265.67405 152.520427 
L 270.593058 148.855522 
L 275.512066 145.190617 
L 280.431074 141.525713 
L 285.350083 137.860808 
L 290.269091 134.195903 
L 295.188099 130.530999 
L 300.107107 126.866094 
L 305.026116 123.201189 
L 309.945124 119.536285 
L 314.864132 115.87138 
L 319.78314 112.206475 
L 324.702149 108.54157 
L 329.621157 104.876666 
L 334.540165 101.211761 
L 339.459174 97.546856 
L 344.378182 93.881952 
L 349.29719 90.217047 
L 354.216198 86.552142 
L 359.135207 82.887238 
L 364.054215 79.222333 
L 368.973223 75.557428 
L 373.892231 71.892523 
L 378.81124 68.227619 
L 383.730248 64.562714 
L 388.649256 60.897809 
L 393.568264 57.232905 
L 398.487273 53.568 
" style="fill:none;stroke:#1f77b4;stroke-linecap:square;stroke-width:1.5;"/>
   </g>
   <g id="line2d_15">
    <path clip-path="url(#pae98aa2c65)" d="M 73.832727 295.488 
L 78.751736 292.584815 
L 83.670744 289.68163 
L 88.589752 285.326852 
L 93.50876 280.48821 
L 98.427769 279.520482 
L 103.346777 272.262519 
L 108.265785 263.552963 
L 113.184793 265.48842 
L 118.103802 265.004556 
L 123.02281 258.714321 
L 127.941818 257.262729 
L 132.860826 253.391815 
L 137.779835 254.359544 
L 142.698843 249.520902 
L 147.617851 244.68226 
L 152.53686 234.521112 
L 157.455868 233.069519 
L 162.374876 223.392235 
L 167.293884 226.29542 
L 172.212893 224.359964 
L 177.131901 216.618137 
L 182.050909 214.198816 
L 186.969917 206.940853 
L 191.888926 211.29563 
L 196.807934 201.618347 
L 201.726942 196.779705 
L 206.64595 190.48947 
L 211.564959 191.941063 
L 216.483967 183.715371 
L 221.402975 184.6831 
L 226.321983 176.941273 
L 231.240992 180.812186 
L 236.16 167.263989 
L 241.079008 173.070359 
L 245.998017 171.134902 
L 250.917025 165.812396 
L 255.836033 162.909211 
L 260.755041 146.941693 
L 265.67405 158.070569 
L 270.593058 147.425557 
L 275.512066 141.619187 
L 280.431074 139.199866 
L 285.350083 143.070779 
L 290.269091 125.167804 
L 295.188099 129.522582 
L 300.107107 131.458039 
L 305.026116 128.070989 
L 309.945124 118.877569 
L 314.864132 122.748483 
M 324.702149 107.748693 
L 329.621157 106.780965 
L 334.540165 101.942323 
L 339.459174 98.071409 
M 349.29719 90.813446 
L 354.216198 85.974804 
M 364.054215 78.716841 
M 373.892231 70.975014 
" style="fill:none;stroke:#ff7f0e;stroke-linecap:square;stroke-width:1.5;"/>
   </g>
   <g id="line2d_16">
    <path clip-path="url(#pae98aa2c65)" d="M 73.832727 295.488 
L 78.751736 292.584815 
L 83.670744 290.165494 
L 88.589752 288.230037 
L 93.50876 280.972074 
L 98.427769 279.036617 
L 103.346777 276.617296 
L 108.265785 267.907741 
L 113.184793 264.520692 
L 118.103802 260.165914 
L 123.02281 262.101371 
L 127.941818 257.746593 
L 132.860826 246.617716 
L 137.779835 248.553173 
L 142.698843 236.940433 
L 147.617851 237.908161 
L 152.53686 236.940433 
L 157.455868 231.617926 
L 162.374876 226.29542 
L 167.293884 233.553383 
L 172.212893 227.747013 
L 177.131901 212.747223 
L 182.050909 207.424717 
L 186.969917 218.069729 
L 191.888926 216.618137 
L 196.807934 193.392655 
L 201.726942 205.973124 
L 206.64595 201.134482 
L 211.564959 190.48947 
L 216.483967 187.586285 
L 221.402975 172.102631 
L 226.321983 185.166964 
L 231.240992 176.941273 
L 236.16 177.909001 
L 241.079008 177.909001 
L 245.998017 168.231717 
L 250.917025 153.715791 
L 255.836033 158.070569 
L 260.755041 141.135322 
L 265.67405 152.748063 
L 270.593058 150.812606 
L 275.512066 150.328742 
L 280.431074 138.716001 
L 285.350083 133.877359 
L 290.269091 130.006446 
L 295.188099 127.587125 
L 300.107107 121.780755 
L 305.026116 120.329162 
L 309.945124 121.29689 
L 314.864132 115.974384 
L 319.78314 116.458249 
M 334.540165 103.877779 
L 339.459174 100.974594 
" style="fill:none;stroke:#2ca02c;stroke-linecap:square;stroke-width:1.5;"/>
   </g>
   <g id="line2d_17">
    <path clip-path="url(#pae98aa2c65)" d="M 73.832727 295.488 
L 78.751736 291.617086 
L 83.670744 287.262309 
L 88.589752 283.875259 
L 93.50876 283.875259 
L 98.427769 272.746383 
L 103.346777 277.585025 
L 108.265785 273.230247 
L 113.184793 269.359334 
L 118.103802 263.552963 
L 123.02281 253.875679 
L 127.941818 256.778865 
L 132.860826 248.553173 
L 137.779835 243.714531 
L 142.698843 239.359754 
L 147.617851 236.940433 
L 152.53686 238.875889 
L 157.455868 235.004976 
L 162.374876 231.134062 
L 167.293884 224.843828 
L 172.212893 221.940643 
L 177.131901 217.585865 
L 182.050909 219.037457 
L 186.969917 204.521532 
L 191.888926 198.231297 
L 196.807934 207.424717 
L 201.726942 198.231297 
L 206.64595 195.811976 
L 211.564959 177.909001 
L 216.483967 177.909001 
L 221.402975 185.166964 
L 226.321983 169.68331 
L 231.240992 176.941273 
" style="fill:none;stroke:#d62728;stroke-linecap:square;stroke-width:1.5;"/>
   </g>
   <g id="line2d_18">
    <path clip-path="url(#pae98aa2c65)" d="M 73.832727 295.488 
L 78.751736 291.617086 
L 83.670744 286.29458 
L 88.589752 284.359124 
L 93.50876 279.520482 
L 98.427769 276.617296 
L 103.346777 275.165704 
L 108.265785 268.875469 
L 113.184793 266.940013 
L 118.103802 264.036827 
L 123.02281 266.940013 
L 127.941818 259.198186 
L 132.860826 252.424087 
L 137.779835 247.101581 
L 142.698843 250.972494 
L 147.617851 239.359754 
L 152.53686 235.004976 
L 157.455868 233.553383 
L 162.374876 223.876099 
L 167.293884 224.843828 
L 172.212893 227.747013 
L 177.131901 221.940643 
L 182.050909 211.779495 
L 186.969917 205.973124 
L 191.888926 206.940853 
L 196.807934 211.29563 
L 201.726942 202.102211 
L 206.64595 197.747433 
L 211.564959 197.747433 
L 216.483967 189.037877 
L 221.402975 183.715371 
L 226.321983 189.521742 
L 231.240992 183.231507 
L 236.16 182.747643 
L 241.079008 165.328532 
M 250.917025 158.070569 
L 255.836033 152.748063 
M 265.67405 150.812606 
L 270.593058 150.328742 
M 285.350083 140.167594 
L 290.269091 142.103051 
L 295.188099 135.328952 
L 300.107107 131.941903 
M 309.945124 118.877569 
M 329.621157 107.264829 
L 334.540165 97.103681 
" style="fill:none;stroke:#9467bd;stroke-linecap:square;stroke-width:1.5;"/>
   </g>
   <g id="line2d_19">
    <path clip-path="url(#pae98aa2c65)" d="M 78.751736 291.617086 
L 83.670744 285.810716 
L 88.589752 289.197765 
L 93.50876 286.778445 
L 98.427769 275.649568 
L 103.346777 273.714111 
L 108.265785 275.165704 
L 113.184793 262.585235 
L 118.103802 262.585235 
L 123.02281 265.004556 
L 127.941818 255.811136 
L 132.860826 252.907951 
L 137.779835 246.133852 
L 142.698843 241.779075 
L 147.617851 242.262939 
L 152.53686 230.166334 
L 157.455868 236.456568 
L 162.374876 230.650198 
L 167.293884 218.069729 
L 172.212893 223.392235 
L 177.131901 223.876099 
L 182.050909 217.585865 
L 186.969917 201.134482 
L 191.888926 201.618347 
L 196.807934 203.069939 
L 201.726942 202.586075 
L 206.64595 201.618347 
L 211.564959 198.231297 
L 216.483967 183.715371 
L 221.402975 182.263779 
L 226.321983 176.941273 
L 231.240992 173.070359 
" style="fill:none;stroke:#8c564b;stroke-linecap:square;stroke-width:1.5;"/>
   </g>
   <g id="patch_3">
    <path d="M 57.6 307.584 
L 57.6 41.472 
" style="fill:none;stroke:#000000;stroke-linecap:square;stroke-linejoin:miter;stroke-width:0.8;"/>
   </g>
   <g id="patch_4">
    <path d="M 414.72 307.584 
L 414.72 41.472 
" style="fill:none;stroke:#000000;stroke-linecap:square;stroke-linejoin:miter;stroke-width:0.8;"/>
   </g>
   <g id="patch_5">
    <path d="M 57.6 307.584 
L 414.72 307.584 
" style="fill:none;stroke:#000000;stroke-linecap:square;stroke-linejoin:miter;stroke-width:0.8;"/>
   </g>
   <g id="patch_6">
    <path d="M 57.6 41.472 
L 414.72 41.472 
" style="fill:none;stroke:#000000;stroke-linecap:square;stroke-linejoin:miter;stroke-width:0.8;"/>
   </g>
   <g id="text_16">
    <text style="font-family:DejaVu Sans;font-size:12px;font-style:normal;font-weight:normal;" transform="translate(184.459688 22.034625)">Simulated Means</text>
    <text style="font-family:DejaVu Sans;font-size:12px;font-style:normal;font-weight:normal;" transform="translate(132.609375 35.472)">(Wasserstein Distances in Legend)</text>
   </g>
   <g id="legend_1">
    <g id="patch_7">
     <path d="M 71.387188 137.54075 
L 407.72 137.54075 
Q 409.72 137.54075 409.72 135.54075 
L 409.72 48.472 
Q 409.72 46.472 407.72 46.472 
L 71.387188 46.472 
Q 69.387188 46.472 69.387188 48.472 
L 69.387188 135.54075 
Q 69.387188 137.54075 71.387188 137.54075 
z
" style="fill:#ffffff;opacity:0.8;stroke:#cccccc;stroke-linejoin:miter;"/>
    </g>
    <g id="line2d_20">
     <path d="M 73.387188 54.570438 
L 93.387188 54.570438 
" style="fill:none;stroke:#1f77b4;stroke-linecap:square;stroke-width:1.5;"/>
    </g>
    <g id="line2d_21"/>
    <g id="text_17">
     <text style="font-family:DejaVu Sans;font-size:10px;font-style:normal;font-weight:normal;text-anchor:start;" transform="rotate(-0, 101.387188, 58.070438)" x="101.387188" y="58.070438">x*1.5</text>
    </g>
    <g id="line2d_22">
     <path d="M 73.387188 69.248563 
L 93.387188 69.248563 
" style="fill:none;stroke:#ff7f0e;stroke-linecap:square;stroke-width:1.5;"/>
    </g>
    <g id="line2d_23"/>
    <g id="text_18">
     <text style="font-family:DejaVu Sans;font-size:10px;font-style:normal;font-weight:normal;text-anchor:start;" transform="rotate(-0, 101.387188, 72.748563)" x="101.387188" y="72.748563">Simul. Mean of 2014 Lin. x*1.5 (WD=0.007535)</text>
    </g>
    <g id="line2d_24">
     <path d="M 73.387188 83.926688 
L 93.387188 83.926688 
" style="fill:none;stroke:#2ca02c;stroke-linecap:square;stroke-width:1.5;"/>
    </g>
    <g id="line2d_25"/>
    <g id="text_19">
     <text style="font-family:DejaVu Sans;font-size:10px;font-style:normal;font-weight:normal;text-anchor:start;" transform="rotate(-0, 101.387188, 87.426688)" x="101.387188" y="87.426688">Simul. Mean of 2016 Lin. x*1.5 (WD=0.009363)</text>
    </g>
    <g id="line2d_26">
     <path d="M 73.387188 98.604813 
L 93.387188 98.604813 
" style="fill:none;stroke:#d62728;stroke-linecap:square;stroke-width:1.5;"/>
    </g>
    <g id="line2d_27"/>
    <g id="text_20">
     <text style="font-family:DejaVu Sans;font-size:10px;font-style:normal;font-weight:normal;text-anchor:start;" transform="rotate(-0, 101.387188, 102.104813)" x="101.387188" y="102.104813">Simul. Mean of Low-Mean Lin. x*1.5 (WD=0.011566)</text>
    </g>
    <g id="line2d_28">
     <path d="M 73.387188 113.282938 
L 93.387188 113.282938 
" style="fill:none;stroke:#9467bd;stroke-linecap:square;stroke-width:1.5;"/>
    </g>
    <g id="line2d_29"/>
    <g id="text_21">
     <text style="font-family:DejaVu Sans;font-size:10px;font-style:normal;font-weight:normal;text-anchor:start;" transform="rotate(-0, 101.387188, 116.782938)" x="101.387188" y="116.782938">Simul. Mean of 2019x*1.5 (WD=0.010866)</text>
    </g>
    <g id="line2d_30">
     <path d="M 73.387188 127.961063 
L 93.387188 127.961063 
" style="fill:none;stroke:#8c564b;stroke-linecap:square;stroke-width:1.5;"/>
    </g>
    <g id="line2d_31"/>
    <g id="text_22">
     <text style="font-family:DejaVu Sans;font-size:10px;font-style:normal;font-weight:normal;text-anchor:start;" transform="rotate(-0, 101.387188, 131.461063)" x="101.387188" y="131.461063">Simul. Mean of Low-Mean M=0.49999 x*1.5 (WD=0.010717)</text>
    </g>
   </g>
  </g>
 </g>
 <defs>
  <clipPath id="pae98aa2c65">
   <rect height="266.112" width="357.12" x="57.6" y="41.472"/>
  </clipPath>
 </defs>
</svg>
