<?xml version="1.0" encoding="utf-8" standalone="no"?>
<!DOCTYPE svg PUBLIC "-//W3C//DTD SVG 1.1//EN"
  "http://www.w3.org/Graphics/SVG/1.1/DTD/svg11.dtd">
<!-- Created with matplotlib (https://matplotlib.org/) -->
<svg height="345.6pt" version="1.1" viewBox="0 0 460.8 345.6" width="460.8pt" xmlns="http://www.w3.org/2000/svg" xmlns:xlink="http://www.w3.org/1999/xlink">
 <defs>
  <style type="text/css">
*{stroke-linecap:butt;stroke-linejoin:round;}
  </style>
 </defs>
 <g id="figure_1">
  <g id="patch_1">
   <path d="M 0 345.6 
L 460.8 345.6 
L 460.8 0 
L 0 0 
z
" style="fill:#ffffff;"/>
  </g>
  <g id="axes_1">
   <g id="patch_2">
    <path d="M 57.6 307.584 
L 414.72 307.584 
L 414.72 41.472 
L 57.6 41.472 
z
" style="fill:#ffffff;"/>
   </g>
   <g id="matplotlib.axis_1">
    <g id="xtick_1">
     <g id="line2d_1">
      <defs>
       <path d="M 0 0 
L 0 3.5 
" id="m712262d6ce" style="stroke:#000000;stroke-width:0.8;"/>
      </defs>
      <g>
       <use style="stroke:#000000;stroke-width:0.8;" x="73.790428" xlink:href="#m712262d6ce" y="307.584"/>
      </g>
     </g>
     <g id="text_1">
      <text style="font-family:DejaVu Sans;font-size:10px;font-style:normal;font-weight:normal;text-anchor:middle;" transform="rotate(-0, 73.790428, 322.182437)" x="73.790428" y="322.182437">0.0</text>
     </g>
    </g>
    <g id="xtick_2">
     <g id="line2d_2">
      <g>
       <use style="stroke:#000000;stroke-width:0.8;" x="116.089414" xlink:href="#m712262d6ce" y="307.584"/>
      </g>
     </g>
     <g id="text_2">
      <text style="font-family:DejaVu Sans;font-size:10px;font-style:normal;font-weight:normal;text-anchor:middle;" transform="rotate(-0, 116.089414, 322.182437)" x="116.089414" y="322.182437">0.1</text>
     </g>
    </g>
    <g id="xtick_3">
     <g id="line2d_3">
      <g>
       <use style="stroke:#000000;stroke-width:0.8;" x="158.388401" xlink:href="#m712262d6ce" y="307.584"/>
      </g>
     </g>
     <g id="text_3">
      <text style="font-family:DejaVu Sans;font-size:10px;font-style:normal;font-weight:normal;text-anchor:middle;" transform="rotate(-0, 158.388401, 322.182437)" x="158.388401" y="322.182437">0.2</text>
     </g>
    </g>
    <g id="xtick_4">
     <g id="line2d_4">
      <g>
       <use style="stroke:#000000;stroke-width:0.8;" x="200.687387" xlink:href="#m712262d6ce" y="307.584"/>
      </g>
     </g>
     <g id="text_4">
      <text style="font-family:DejaVu Sans;font-size:10px;font-style:normal;font-weight:normal;text-anchor:middle;" transform="rotate(-0, 200.687387, 322.182437)" x="200.687387" y="322.182437">0.3</text>
     </g>
    </g>
    <g id="xtick_5">
     <g id="line2d_5">
      <g>
       <use style="stroke:#000000;stroke-width:0.8;" x="242.986373" xlink:href="#m712262d6ce" y="307.584"/>
      </g>
     </g>
     <g id="text_5">
      <text style="font-family:DejaVu Sans;font-size:10px;font-style:normal;font-weight:normal;text-anchor:middle;" transform="rotate(-0, 242.986373, 322.182437)" x="242.986373" y="322.182437">0.4</text>
     </g>
    </g>
    <g id="xtick_6">
     <g id="line2d_6">
      <g>
       <use style="stroke:#000000;stroke-width:0.8;" x="285.285359" xlink:href="#m712262d6ce" y="307.584"/>
      </g>
     </g>
     <g id="text_6">
      <text style="font-family:DejaVu Sans;font-size:10px;font-style:normal;font-weight:normal;text-anchor:middle;" transform="rotate(-0, 285.285359, 322.182437)" x="285.285359" y="322.182437">0.5</text>
     </g>
    </g>
    <g id="xtick_7">
     <g id="line2d_7">
      <g>
       <use style="stroke:#000000;stroke-width:0.8;" x="327.584345" xlink:href="#m712262d6ce" y="307.584"/>
      </g>
     </g>
     <g id="text_7">
      <text style="font-family:DejaVu Sans;font-size:10px;font-style:normal;font-weight:normal;text-anchor:middle;" transform="rotate(-0, 327.584345, 322.182437)" x="327.584345" y="322.182437">0.6</text>
     </g>
    </g>
    <g id="xtick_8">
     <g id="line2d_8">
      <g>
       <use style="stroke:#000000;stroke-width:0.8;" x="369.883331" xlink:href="#m712262d6ce" y="307.584"/>
      </g>
     </g>
     <g id="text_8">
      <text style="font-family:DejaVu Sans;font-size:10px;font-style:normal;font-weight:normal;text-anchor:middle;" transform="rotate(-0, 369.883331, 322.182437)" x="369.883331" y="322.182437">0.7</text>
     </g>
    </g>
    <g id="xtick_9">
     <g id="line2d_9">
      <g>
       <use style="stroke:#000000;stroke-width:0.8;" x="412.182317" xlink:href="#m712262d6ce" y="307.584"/>
      </g>
     </g>
     <g id="text_9">
      <text style="font-family:DejaVu Sans;font-size:10px;font-style:normal;font-weight:normal;text-anchor:middle;" transform="rotate(-0, 412.182317, 322.182437)" x="412.182317" y="322.182437">0.8</text>
     </g>
    </g>
    <g id="text_10">
     <text style="font-family:DejaVu Sans;font-size:10px;font-style:normal;font-weight:normal;text-anchor:middle;" transform="rotate(-0, 236.16, 335.860562)" x="236.16" y="335.860562">Input Coin's Heads Probability (λ)</text>
    </g>
   </g>
   <g id="matplotlib.axis_2">
    <g id="ytick_1">
     <g id="line2d_10">
      <defs>
       <path d="M 0 0 
L -3.5 0 
" id="mf229126234" style="stroke:#000000;stroke-width:0.8;"/>
      </defs>
      <g>
       <use style="stroke:#000000;stroke-width:0.8;" x="57.6" xlink:href="#mf229126234" y="297.462037"/>
      </g>
     </g>
     <g id="text_11">
      <text style="font-family:DejaVu Sans;font-size:10px;font-style:normal;font-weight:normal;text-anchor:end;" transform="rotate(-0, 50.6, 301.261256)" x="50.6" y="301.261256">0</text>
     </g>
    </g>
    <g id="ytick_2">
     <g id="line2d_11">
      <g>
       <use style="stroke:#000000;stroke-width:0.8;" x="57.6" xlink:href="#mf229126234" y="263.717815"/>
      </g>
     </g>
     <g id="text_12">
      <text style="font-family:DejaVu Sans;font-size:10px;font-style:normal;font-weight:normal;text-anchor:end;" transform="rotate(-0, 50.6, 267.517033)" x="50.6" y="267.517033">20</text>
     </g>
    </g>
    <g id="ytick_3">
     <g id="line2d_12">
      <g>
       <use style="stroke:#000000;stroke-width:0.8;" x="57.6" xlink:href="#mf229126234" y="229.973592"/>
      </g>
     </g>
     <g id="text_13">
      <text style="font-family:DejaVu Sans;font-size:10px;font-style:normal;font-weight:normal;text-anchor:end;" transform="rotate(-0, 50.6, 233.772811)" x="50.6" y="233.772811">40</text>
     </g>
    </g>
    <g id="ytick_4">
     <g id="line2d_13">
      <g>
       <use style="stroke:#000000;stroke-width:0.8;" x="57.6" xlink:href="#mf229126234" y="196.22937"/>
      </g>
     </g>
     <g id="text_14">
      <text style="font-family:DejaVu Sans;font-size:10px;font-style:normal;font-weight:normal;text-anchor:end;" transform="rotate(-0, 50.6, 200.028589)" x="50.6" y="200.028589">60</text>
     </g>
    </g>
    <g id="ytick_5">
     <g id="line2d_14">
      <g>
       <use style="stroke:#000000;stroke-width:0.8;" x="57.6" xlink:href="#mf229126234" y="162.485148"/>
      </g>
     </g>
     <g id="text_15">
      <text style="font-family:DejaVu Sans;font-size:10px;font-style:normal;font-weight:normal;text-anchor:end;" transform="rotate(-0, 50.6, 166.284366)" x="50.6" y="166.284366">80</text>
     </g>
    </g>
    <g id="ytick_6">
     <g id="line2d_15">
      <g>
       <use style="stroke:#000000;stroke-width:0.8;" x="57.6" xlink:href="#mf229126234" y="128.740925"/>
      </g>
     </g>
     <g id="text_16">
      <text style="font-family:DejaVu Sans;font-size:10px;font-style:normal;font-weight:normal;text-anchor:end;" transform="rotate(-0, 50.6, 132.540144)" x="50.6" y="132.540144">100</text>
     </g>
    </g>
    <g id="ytick_7">
     <g id="line2d_16">
      <g>
       <use style="stroke:#000000;stroke-width:0.8;" x="57.6" xlink:href="#mf229126234" y="94.996703"/>
      </g>
     </g>
     <g id="text_17">
      <text style="font-family:DejaVu Sans;font-size:10px;font-style:normal;font-weight:normal;text-anchor:end;" transform="rotate(-0, 50.6, 98.795922)" x="50.6" y="98.795922">120</text>
     </g>
    </g>
    <g id="ytick_8">
     <g id="line2d_17">
      <g>
       <use style="stroke:#000000;stroke-width:0.8;" x="57.6" xlink:href="#mf229126234" y="61.25248"/>
      </g>
     </g>
     <g id="text_18">
      <text style="font-family:DejaVu Sans;font-size:10px;font-style:normal;font-weight:normal;text-anchor:end;" transform="rotate(-0, 50.6, 65.051699)" x="50.6" y="65.051699">140</text>
     </g>
    </g>
    <g id="text_19">
     <text style="font-family:DejaVu Sans;font-size:10px;font-style:normal;font-weight:normal;text-anchor:middle;" transform="rotate(-90, 25.432813, 174.528)" x="25.432813" y="174.528">Coin Flips Needed</text>
    </g>
   </g>
   <g id="line2d_18">
    <path clip-path="url(#pe0f64bccd8)" d="M 73.832727 295.268597 
L 78.104498 295.261861 
L 82.376268 295.254944 
L 86.648038 295.247838 
L 90.919809 295.240535 
L 95.191579 295.233027 
L 99.463349 295.225304 
L 103.73512 295.217358 
L 108.00689 295.209179 
L 112.27866 295.200757 
L 116.550431 295.19208 
L 120.822201 295.183136 
L 125.093971 295.173914 
L 129.365742 295.1644 
L 133.637512 295.15458 
L 137.909282 295.144438 
L 142.181053 295.133959 
L 146.452823 295.123127 
L 150.724593 295.111921 
L 154.996364 295.100324 
L 159.268134 295.088313 
L 163.539904 295.075867 
L 167.811675 295.062961 
L 172.083445 295.04957 
L 176.355215 295.035666 
L 180.626986 295.021217 
L 184.898756 295.006193 
L 189.170526 294.990557 
L 193.442297 294.974272 
L 197.714067 294.957297 
L 201.985837 294.939586 
L 206.257608 294.92109 
L 210.529378 294.901757 
L 214.801148 294.881528 
L 219.072919 294.860339 
L 223.344689 294.838121 
L 227.616459 294.814796 
L 231.88823 294.79028 
L 236.16 294.764479 
L 240.43177 294.73729 
L 244.703541 294.708596 
L 248.975311 294.67827 
L 253.247081 294.646169 
L 257.518852 294.612131 
L 261.790622 294.575977 
L 266.062392 294.537502 
L 270.334163 294.496476 
L 274.605933 294.452635 
L 278.877703 294.405681 
L 283.149474 294.355269 
L 287.421244 294.301003 
L 291.693014 294.242423 
L 295.964785 294.178994 
L 300.236555 294.110087 
L 304.508325 294.03496 
L 308.780096 293.952733 
L 313.051866 293.862347 
L 317.323636 293.762527 
L 321.595407 293.651712 
L 325.867177 293.527982 
L 330.138947 293.388937 
L 334.410718 293.231548 
L 338.682488 293.051928 
L 342.954258 292.845008 
L 347.226029 292.604053 
L 351.497799 292.319912 
L 355.769569 291.979834 
L 360.04134 291.565497 
L 364.31311 291.049596 
L 368.58488 290.389571 
L 372.856651 289.515225 
L 377.128421 288.301931 
L 381.400191 286.505207 
L 385.671962 283.57102 
L 389.943732 277.918959 
L 394.215502 262.515054 
L 398.487273 53.568 
" style="fill:none;stroke:#1f77b4;stroke-linecap:square;stroke-width:1.5;"/>
   </g>
   <g id="line2d_19">
    <path clip-path="url(#pe0f64bccd8)" d="M 73.832727 292.326166 
L 78.104498 292.518508 
L 82.376268 292.376783 
L 86.648038 292.289048 
L 90.919809 292.127075 
L 95.191579 292.555627 
L 99.463349 291.577045 
L 103.73512 292.349787 
L 108.00689 290.807676 
L 112.27866 291.644533 
L 116.550431 291.465689 
L 120.822201 292.035966 
L 125.093971 292.599495 
L 129.365742 292.289048 
L 133.637512 291.772761 
L 137.909282 291.833501 
L 142.181053 292.508385 
L 146.452823 292.083208 
L 150.724593 292.137199 
L 154.996364 292.461143 
L 159.268134 292.113578 
L 163.539904 291.880743 
L 167.811675 291.202484 
L 172.083445 291.610789 
L 176.355215 292.430773 
L 180.626986 292.383532 
L 184.898756 291.151867 
L 189.170526 291.357707 
L 193.442297 291.759263 
L 197.714067 291.948231 
L 201.985837 291.884117 
L 206.257608 292.01572 
L 210.529378 291.610789 
L 214.801148 290.598462 
L 219.072919 289.808847 
L 223.344689 290.99327 
L 227.616459 290.544471 
L 231.88823 290.608585 
L 236.16 290.365627 
L 240.43177 290.389248 
L 244.703541 290.483732 
L 248.975311 288.901128 
L 253.247081 290.345381 
L 257.518852 290.64233 
L 261.790622 290.433115 
L 266.062392 289.987692 
L 270.334163 289.646875 
L 274.605933 288.705411 
L 278.877703 288.340974 
L 283.149474 288.448955 
L 287.421244 288.600804 
L 291.693014 288.553562 
L 295.964785 289.184579 
L 300.236555 289.373547 
L 304.508325 287.504117 
L 308.780096 285.884394 
L 313.051866 287.595226 
L 317.323636 286.019371 
L 321.595407 287.983285 
L 325.867177 284.008216 
L 330.138947 282.911528 
L 334.410718 283.616783 
L 338.682488 282.965519 
L 342.954258 281.561759 
L 347.226029 280.610172 
M 364.31311 276.80045 
L 368.58488 274.3135 
L 372.856651 272.025642 
" style="fill:none;stroke:#ff7f0e;stroke-linecap:square;stroke-width:1.5;"/>
   </g>
   <g id="line2d_20">
    <path clip-path="url(#pe0f64bccd8)" d="M 73.832727 284.511004 
L 78.104498 283.86649 
L 82.376268 284.467137 
L 86.648038 284.12632 
L 90.919809 284.234302 
L 95.191579 284.257923 
L 99.463349 283.819248 
L 103.73512 283.967722 
L 108.00689 282.162407 
L 112.27866 281.878955 
L 116.550431 282.273763 
L 120.822201 282.08142 
L 125.093971 281.797969 
L 129.365742 282.540342 
L 133.637512 282.671944 
L 137.909282 282.31763 
L 142.181053 282.408739 
L 146.452823 281.845211 
L 150.724593 282.213023 
L 154.996364 281.973439 
L 159.268134 279.13555 
L 163.539904 280.643917 
L 167.811675 281.045473 
L 172.083445 279.540481 
L 176.355215 279.297522 
L 180.626986 279.736197 
L 184.898756 280.471821 
L 189.170526 280.85988 
L 193.442297 275.241467 
L 197.714067 278.663131 
L 201.985837 277.168262 
L 206.257608 277.158138 
L 210.529378 278.17384 
L 214.801148 277.269494 
L 219.072919 274.708308 
L 223.344689 273.746598 
L 227.616459 274.684687 
L 231.88823 274.758924 
L 236.16 276.375272 
L 240.43177 272.157245 
L 244.703541 273.925442 
L 248.975311 273.122329 
L 253.247081 271.317014 
L 257.518852 272.690403 
L 261.790622 269.808647 
L 266.062392 269.511698 
L 270.334163 265.229556 
L 274.605933 267.783993 
L 278.877703 265.20256 
L 283.149474 265.43877 
L 287.421244 265.67498 
L 291.693014 260.812437 
L 295.964785 260.424379 
L 300.236555 258.922761 
L 304.508325 255.632699 
L 308.780096 249.730834 
L 313.051866 252.170542 
L 317.323636 247.665688 
L 321.595407 250.628431 
L 325.867177 241.574856 
L 330.138947 243.346428 
L 334.410718 249.983916 
M 342.954258 232.87897 
" style="fill:none;stroke:#2ca02c;stroke-linecap:square;stroke-width:1.5;"/>
   </g>
   <g id="line2d_21">
    <path clip-path="url(#pe0f64bccd8)" d="M 73.832727 295.083069 
L 78.104498 295.488 
L 82.376268 295.288909 
L 86.648038 295.032453 
L 90.919809 294.360943 
L 95.191579 294.796243 
L 99.463349 294.833362 
L 103.73512 294.502669 
L 108.00689 294.870481 
L 112.27866 293.571328 
L 116.550431 293.729926 
L 120.822201 293.64894 
L 125.093971 293.7333 
L 129.365742 293.368863 
L 133.637512 293.176521 
L 137.909282 292.464518 
L 142.181053 292.815458 
L 146.452823 292.032592 
L 150.724593 292.143948 
L 154.996364 291.411698 
L 159.268134 291.425196 
L 163.539904 291.728894 
L 167.811675 291.030388 
L 172.083445 290.510727 
L 176.355215 289.522021 
L 180.626986 289.58951 
L 184.898756 288.384841 
L 189.170526 289.343177 
L 193.442297 287.892176 
L 197.714067 285.536829 
L 201.985837 286.123978 
L 206.257608 285.843901 
L 210.529378 284.872068 
L 214.801148 282.736058 
L 219.072919 281.919448 
L 223.344689 281.835088 
L 227.616459 277.691297 
L 231.88823 277.630558 
L 236.16 277.708169 
" style="fill:none;stroke:#d62728;stroke-linecap:square;stroke-width:1.5;"/>
   </g>
   <g id="line2d_22">
    <path clip-path="url(#pe0f64bccd8)" d="M 73.832727 290.588339 
L 78.104498 290.770558 
L 82.376268 291.128246 
L 86.648038 291.064132 
L 90.919809 291.212607 
L 95.191579 288.158755 
L 99.463349 290.8178 
L 103.73512 290.75706 
L 108.00689 291.128246 
L 112.27866 288.826891 
L 116.550431 289.106968 
L 120.822201 289.29931 
L 125.093971 289.00236 
L 129.365742 289.167707 
L 133.637512 289.211575 
L 137.909282 288.492823 
L 142.181053 288.894379 
L 146.452823 288.641297 
L 150.724593 289.079972 
M 159.268134 289.70424 
L 163.539904 288.843763 
L 167.811675 289.579387 
L 172.083445 286.761744 
L 176.355215 286.913593 
L 180.626986 287.25441 
L 184.898756 287.068817 
L 189.170526 287.635719 
L 193.442297 287.095812 
L 197.714067 287.136305 
L 201.985837 287.466998 
L 206.257608 286.015997 
L 210.529378 284.905812 
L 214.801148 283.957599 
L 219.072919 286.015997 
L 223.344689 283.147738 
L 227.616459 282.118539 
M 236.16 282.128662 
L 240.43177 281.575257 
M 248.975311 280.5933 
L 253.247081 281.85196 
L 257.518852 277.782407 
L 261.790622 280.795766 
L 266.062392 281.40991 
L 270.334163 277.333608 
L 274.605933 276.311158 
L 278.877703 275.055873 
L 283.149474 275.619402 
L 287.421244 272.778138 
L 291.693014 277.087276 
L 295.964785 272.798385 
L 300.236555 271.030188 
L 304.508325 266.893146 
M 317.323636 268.293531 
L 321.595407 247.753423 
L 325.867177 269.545442 
M 334.410718 262.644748 
M 351.497799 253.32122 
L 355.769569 253.152499 
" style="fill:none;stroke:#9467bd;stroke-linecap:square;stroke-width:1.5;"/>
   </g>
   <g id="line2d_23">
    <path clip-path="url(#pe0f64bccd8)" d="M 78.104498 127.300047 
L 82.376268 204.321234 
L 86.648038 223.089771 
L 90.919809 240.383685 
L 95.191579 248.647645 
L 99.463349 254.330172 
L 103.73512 256.99934 
L 108.00689 259.965457 
L 112.27866 262.293808 
L 116.550431 264.234101 
L 120.822201 266.89652 
L 125.093971 267.250835 
L 129.365742 266.063038 
L 133.637512 269.062899 
L 137.909282 269.11689 
L 142.181053 269.646675 
L 146.452823 272.447445 
L 150.724593 272.960357 
L 154.996364 271.759063 
L 159.268134 273.014348 
M 167.811675 273.729725 
L 172.083445 273.67236 
L 176.355215 276.081698 
L 180.626986 275.909602 
L 184.898756 275.798246 
L 189.170526 275.798246 
L 193.442297 277.765534 
L 197.714067 274.192021 
L 201.985837 276.317907 
L 206.257608 275.589032 
L 210.529378 276.523747 
L 214.801148 274.718431 
L 219.072919 277.58669 
L 223.344689 275.612653 
L 227.616459 278.443793 
L 231.88823 279.658585 
" style="fill:none;stroke:#8c564b;stroke-linecap:square;stroke-width:1.5;"/>
   </g>
   <g id="patch_3">
    <path d="M 57.6 307.584 
L 57.6 41.472 
" style="fill:none;stroke:#000000;stroke-linecap:square;stroke-linejoin:miter;stroke-width:0.8;"/>
   </g>
   <g id="patch_4">
    <path d="M 414.72 307.584 
L 414.72 41.472 
" style="fill:none;stroke:#000000;stroke-linecap:square;stroke-linejoin:miter;stroke-width:0.8;"/>
   </g>
   <g id="patch_5">
    <path d="M 57.6 307.584 
L 414.72 307.584 
" style="fill:none;stroke:#000000;stroke-linecap:square;stroke-linejoin:miter;stroke-width:0.8;"/>
   </g>
   <g id="patch_6">
    <path d="M 57.6 41.472 
L 414.72 41.472 
" style="fill:none;stroke:#000000;stroke-linecap:square;stroke-linejoin:miter;stroke-width:0.8;"/>
   </g>
   <g id="text_20">
    <text style="font-family:DejaVu Sans;font-size:12px;font-style:normal;font-weight:normal;text-anchor:middle;" transform="rotate(-0, 236.16, 35.472)" x="236.16" y="35.472">Coin Flips for 2014 Lin. x*1.3</text>
   </g>
   <g id="legend_1">
    <g id="patch_7">
     <path d="M 101.533437 137.54075 
L 370.786563 137.54075 
Q 372.786563 137.54075 372.786563 135.54075 
L 372.786563 48.472 
Q 372.786563 46.472 370.786563 46.472 
L 101.533437 46.472 
Q 99.533437 46.472 99.533437 48.472 
L 99.533437 135.54075 
Q 99.533437 137.54075 101.533437 137.54075 
z
" style="fill:#ffffff;opacity:0.8;stroke:#cccccc;stroke-linejoin:miter;"/>
    </g>
    <g id="line2d_24">
     <path d="M 103.533437 54.570438 
L 123.533437 54.570438 
" style="fill:none;stroke:#1f77b4;stroke-linecap:square;stroke-width:1.5;"/>
    </g>
    <g id="line2d_25"/>
    <g id="text_21">
     <text style="font-family:DejaVu Sans;font-size:10px;font-style:normal;font-weight:normal;text-anchor:start;" transform="rotate(-0, 131.533437, 58.070438)" x="131.533437" y="58.070438">Coin Flip Lower Bound</text>
    </g>
    <g id="line2d_26">
     <path d="M 103.533437 69.248563 
L 123.533437 69.248563 
" style="fill:none;stroke:#ff7f0e;stroke-linecap:square;stroke-width:1.5;"/>
    </g>
    <g id="line2d_27"/>
    <g id="text_22">
     <text style="font-family:DejaVu Sans;font-size:10px;font-style:normal;font-weight:normal;text-anchor:start;" transform="rotate(-0, 131.533437, 72.748563)" x="131.533437" y="72.748563">Avg. Coins Flipped 2014 Lin. x*1.3</text>
    </g>
    <g id="line2d_28">
     <path d="M 103.533437 83.926688 
L 123.533437 83.926688 
" style="fill:none;stroke:#2ca02c;stroke-linecap:square;stroke-width:1.5;"/>
    </g>
    <g id="line2d_29"/>
    <g id="text_23">
     <text style="font-family:DejaVu Sans;font-size:10px;font-style:normal;font-weight:normal;text-anchor:start;" transform="rotate(-0, 131.533437, 87.426688)" x="131.533437" y="87.426688">Avg. Coins Flipped 2016 Lin. x*1.3</text>
    </g>
    <g id="line2d_30">
     <path d="M 103.533437 98.604813 
L 123.533437 98.604813 
" style="fill:none;stroke:#d62728;stroke-linecap:square;stroke-width:1.5;"/>
    </g>
    <g id="line2d_31"/>
    <g id="text_24">
     <text style="font-family:DejaVu Sans;font-size:10px;font-style:normal;font-weight:normal;text-anchor:start;" transform="rotate(-0, 131.533437, 102.104813)" x="131.533437" y="102.104813">Avg. Coins Flipped Low-Mean Lin. x*1.3</text>
    </g>
    <g id="line2d_32">
     <path d="M 103.533437 113.282938 
L 123.533437 113.282938 
" style="fill:none;stroke:#9467bd;stroke-linecap:square;stroke-width:1.5;"/>
    </g>
    <g id="line2d_33"/>
    <g id="text_25">
     <text style="font-family:DejaVu Sans;font-size:10px;font-style:normal;font-weight:normal;text-anchor:start;" transform="rotate(-0, 131.533437, 116.782938)" x="131.533437" y="116.782938">Avg. Coins Flipped 2019x*1.3</text>
    </g>
    <g id="line2d_34">
     <path d="M 103.533437 127.961063 
L 123.533437 127.961063 
" style="fill:none;stroke:#8c564b;stroke-linecap:square;stroke-width:1.5;"/>
    </g>
    <g id="line2d_35"/>
    <g id="text_26">
     <text style="font-family:DejaVu Sans;font-size:10px;font-style:normal;font-weight:normal;text-anchor:start;" transform="rotate(-0, 131.533437, 131.461063)" x="131.533437" y="131.461063">Avg. Coins Flipped Low-Mean M=0.49999 x*1.3</text>
    </g>
   </g>
  </g>
 </g>
 <defs>
  <clipPath id="pe0f64bccd8">
   <rect height="266.112" width="357.12" x="57.6" y="41.472"/>
  </clipPath>
 </defs>
</svg>
