<?xml version="1.0" encoding="utf-8" standalone="no"?>
<!DOCTYPE svg PUBLIC "-//W3C//DTD SVG 1.1//EN"
  "http://www.w3.org/Graphics/SVG/1.1/DTD/svg11.dtd">
<!-- Created with matplotlib (https://matplotlib.org/) -->
<svg height="345.6pt" version="1.1" viewBox="0 0 460.8 345.6" width="460.8pt" xmlns="http://www.w3.org/2000/svg" xmlns:xlink="http://www.w3.org/1999/xlink">
 <defs>
  <style type="text/css">
*{stroke-linecap:butt;stroke-linejoin:round;}
  </style>
 </defs>
 <g id="figure_1">
  <g id="patch_1">
   <path d="M 0 345.6 
L 460.8 345.6 
L 460.8 0 
L 0 0 
z
" style="fill:#ffffff;"/>
  </g>
  <g id="axes_1">
   <g id="patch_2">
    <path d="M 57.6 307.584 
L 414.72 307.584 
L 414.72 41.472 
L 57.6 41.472 
z
" style="fill:#ffffff;"/>
   </g>
   <g id="matplotlib.axis_1">
    <g id="xtick_1">
     <g id="line2d_1">
      <defs>
       <path d="M 0 0 
L 0 3.5 
" id="m4b2b650860" style="stroke:#000000;stroke-width:0.8;"/>
      </defs>
      <g>
       <use style="stroke:#000000;stroke-width:0.8;" x="73.789285" xlink:href="#m4b2b650860" y="307.584"/>
      </g>
     </g>
     <g id="text_1">
      <text style="font-family:DejaVu Sans;font-size:10px;font-style:normal;font-weight:normal;text-anchor:middle;" transform="rotate(-0, 73.789285, 322.182437)" x="73.789285" y="322.182437">0.0</text>
     </g>
    </g>
    <g id="xtick_2">
     <g id="line2d_2">
      <g>
       <use style="stroke:#000000;stroke-width:0.8;" x="117.231487" xlink:href="#m4b2b650860" y="307.584"/>
      </g>
     </g>
     <g id="text_2">
      <text style="font-family:DejaVu Sans;font-size:10px;font-style:normal;font-weight:normal;text-anchor:middle;" transform="rotate(-0, 117.231487, 322.182437)" x="117.231487" y="322.182437">0.1</text>
     </g>
    </g>
    <g id="xtick_3">
     <g id="line2d_3">
      <g>
       <use style="stroke:#000000;stroke-width:0.8;" x="160.673689" xlink:href="#m4b2b650860" y="307.584"/>
      </g>
     </g>
     <g id="text_3">
      <text style="font-family:DejaVu Sans;font-size:10px;font-style:normal;font-weight:normal;text-anchor:middle;" transform="rotate(-0, 160.673689, 322.182437)" x="160.673689" y="322.182437">0.2</text>
     </g>
    </g>
    <g id="xtick_4">
     <g id="line2d_4">
      <g>
       <use style="stroke:#000000;stroke-width:0.8;" x="204.115891" xlink:href="#m4b2b650860" y="307.584"/>
      </g>
     </g>
     <g id="text_4">
      <text style="font-family:DejaVu Sans;font-size:10px;font-style:normal;font-weight:normal;text-anchor:middle;" transform="rotate(-0, 204.115891, 322.182437)" x="204.115891" y="322.182437">0.3</text>
     </g>
    </g>
    <g id="xtick_5">
     <g id="line2d_5">
      <g>
       <use style="stroke:#000000;stroke-width:0.8;" x="247.558093" xlink:href="#m4b2b650860" y="307.584"/>
      </g>
     </g>
     <g id="text_5">
      <text style="font-family:DejaVu Sans;font-size:10px;font-style:normal;font-weight:normal;text-anchor:middle;" transform="rotate(-0, 247.558093, 322.182437)" x="247.558093" y="322.182437">0.4</text>
     </g>
    </g>
    <g id="xtick_6">
     <g id="line2d_6">
      <g>
       <use style="stroke:#000000;stroke-width:0.8;" x="291.000295" xlink:href="#m4b2b650860" y="307.584"/>
      </g>
     </g>
     <g id="text_6">
      <text style="font-family:DejaVu Sans;font-size:10px;font-style:normal;font-weight:normal;text-anchor:middle;" transform="rotate(-0, 291.000295, 322.182437)" x="291.000295" y="322.182437">0.5</text>
     </g>
    </g>
    <g id="xtick_7">
     <g id="line2d_7">
      <g>
       <use style="stroke:#000000;stroke-width:0.8;" x="334.442497" xlink:href="#m4b2b650860" y="307.584"/>
      </g>
     </g>
     <g id="text_7">
      <text style="font-family:DejaVu Sans;font-size:10px;font-style:normal;font-weight:normal;text-anchor:middle;" transform="rotate(-0, 334.442497, 322.182437)" x="334.442497" y="322.182437">0.6</text>
     </g>
    </g>
    <g id="xtick_8">
     <g id="line2d_8">
      <g>
       <use style="stroke:#000000;stroke-width:0.8;" x="377.884699" xlink:href="#m4b2b650860" y="307.584"/>
      </g>
     </g>
     <g id="text_8">
      <text style="font-family:DejaVu Sans;font-size:10px;font-style:normal;font-weight:normal;text-anchor:middle;" transform="rotate(-0, 377.884699, 322.182437)" x="377.884699" y="322.182437">0.7</text>
     </g>
    </g>
    <g id="text_9">
     <text style="font-family:DejaVu Sans;font-size:10px;font-style:normal;font-weight:normal;text-anchor:middle;" transform="rotate(-0, 236.16, 335.860562)" x="236.16" y="335.860562">Probability</text>
    </g>
   </g>
   <g id="matplotlib.axis_2">
    <g id="ytick_1">
     <g id="line2d_9">
      <defs>
       <path d="M 0 0 
L -3.5 0 
" id="m0f7e33a689" style="stroke:#000000;stroke-width:0.8;"/>
      </defs>
      <g>
       <use style="stroke:#000000;stroke-width:0.8;" x="57.6" xlink:href="#m0f7e33a689" y="268.101964"/>
      </g>
     </g>
     <g id="text_10">
      <text style="font-family:DejaVu Sans;font-size:10px;font-style:normal;font-weight:normal;text-anchor:end;" transform="rotate(-0, 50.6, 271.901183)" x="50.6" y="271.901183">100</text>
     </g>
    </g>
    <g id="ytick_2">
     <g id="line2d_10">
      <g>
       <use style="stroke:#000000;stroke-width:0.8;" x="57.6" xlink:href="#m0f7e33a689" y="223.24947"/>
      </g>
     </g>
     <g id="text_11">
      <text style="font-family:DejaVu Sans;font-size:10px;font-style:normal;font-weight:normal;text-anchor:end;" transform="rotate(-0, 50.6, 227.048689)" x="50.6" y="227.048689">200</text>
     </g>
    </g>
    <g id="ytick_3">
     <g id="line2d_11">
      <g>
       <use style="stroke:#000000;stroke-width:0.8;" x="57.6" xlink:href="#m0f7e33a689" y="178.396976"/>
      </g>
     </g>
     <g id="text_12">
      <text style="font-family:DejaVu Sans;font-size:10px;font-style:normal;font-weight:normal;text-anchor:end;" transform="rotate(-0, 50.6, 182.196195)" x="50.6" y="182.196195">300</text>
     </g>
    </g>
    <g id="ytick_4">
     <g id="line2d_12">
      <g>
       <use style="stroke:#000000;stroke-width:0.8;" x="57.6" xlink:href="#m0f7e33a689" y="133.544482"/>
      </g>
     </g>
     <g id="text_13">
      <text style="font-family:DejaVu Sans;font-size:10px;font-style:normal;font-weight:normal;text-anchor:end;" transform="rotate(-0, 50.6, 137.343701)" x="50.6" y="137.343701">400</text>
     </g>
    </g>
    <g id="ytick_5">
     <g id="line2d_13">
      <g>
       <use style="stroke:#000000;stroke-width:0.8;" x="57.6" xlink:href="#m0f7e33a689" y="88.691988"/>
      </g>
     </g>
     <g id="text_14">
      <text style="font-family:DejaVu Sans;font-size:10px;font-style:normal;font-weight:normal;text-anchor:end;" transform="rotate(-0, 50.6, 92.491207)" x="50.6" y="92.491207">500</text>
     </g>
    </g>
    <g id="ytick_6">
     <g id="line2d_14">
      <g>
       <use style="stroke:#000000;stroke-width:0.8;" x="57.6" xlink:href="#m0f7e33a689" y="43.839494"/>
      </g>
     </g>
     <g id="text_15">
      <text style="font-family:DejaVu Sans;font-size:10px;font-style:normal;font-weight:normal;text-anchor:end;" transform="rotate(-0, 50.6, 47.638713)" x="50.6" y="47.638713">600</text>
     </g>
    </g>
    <g id="text_16">
     <text style="font-family:DejaVu Sans;font-size:10px;font-style:normal;font-weight:normal;text-anchor:middle;" transform="rotate(-90, 25.432812, 174.528)" x="25.432812" y="174.528">Average Bits Consumed Per Call</text>
    </g>
   </g>
   <g id="line2d_15">
    <path clip-path="url(#p578d510d4a)" d="M 73.832727 293.289331 
L 78.219951 292.753792 
L 82.607174 294.10744 
L 86.994398 294.063485 
L 91.381622 293.621239 
L 95.768845 292.761865 
L 100.156069 293.563828 
L 104.543292 293.44452 
L 108.930516 294.127175 
L 113.31774 293.309066 
L 117.704963 294.191763 
L 122.092187 291.981432 
L 126.47941 292.387796 
L 130.866634 292.399457 
L 135.253857 294.902226 
L 139.641081 294.030294 
L 144.028305 295.488 
L 148.415528 292.464942 
L 152.802752 292.880276 
L 157.189975 290.63496 
L 161.577199 294.114617 
L 165.964423 291.693479 
L 170.351646 294.643876 
L 174.73887 293.544093 
L 179.126093 292.783395 
L 183.513317 292.955628 
L 187.900541 293.633798 
L 192.287764 288.838169 
L 196.674988 290.996471 
L 201.062211 286.907718 
L 205.449435 290.974045 
L 209.836658 288.291866 
L 214.223882 288.290072 
L 218.611106 289.308223 
L 222.998329 288.662347 
L 227.385553 290.538079 
L 231.772776 285.859067 
L 236.16 291.954521 
L 240.547224 288.063118 
L 244.934447 288.586995 
L 249.321671 288.306219 
L 253.708894 288.715273 
L 258.096118 286.909512 
L 262.483342 286.13177 
L 266.870565 288.187808 
L 271.257789 289.961276 
L 275.645012 285.297513 
L 280.032236 283.598501 
L 284.419459 276.876906 
L 288.806683 284.425581 
L 293.193907 279.804877 
L 297.58113 274.959013 
L 301.968354 279.89817 
L 306.355577 278.709579 
L 310.742801 280.87416 
L 315.130025 280.300048 
L 319.517248 277.259946 
L 323.904472 282.640452 
L 328.291695 281.220422 
L 332.678919 278.11932 
L 337.066143 274.970675 
L 341.453366 270.893583 
L 345.84059 274.473709 
M 354.615037 274.176786 
M 363.389484 271.676708 
L 367.776708 271.832795 
L 372.163931 259.762989 
L 376.551155 263.572759 
M 398.487273 250.99612 
" style="fill:none;stroke:#1f77b4;stroke-linecap:square;stroke-width:1.5;"/>
   </g>
   <g id="line2d_16">
    <path clip-path="url(#p578d510d4a)" d="M 73.832727 275.726888 
L 78.219951 276.188869 
L 82.607174 275.366274 
L 86.994398 276.632012 
L 91.381622 275.282848 
L 95.768845 274.186654 
L 100.156069 277.087713 
L 104.543292 275.612963 
L 108.930516 277.364004 
L 113.31774 276.398779 
L 117.704963 276.560248 
L 122.092187 276.68404 
L 126.47941 275.561831 
L 130.866634 274.776015 
L 135.253857 275.417406 
L 139.641081 272.713698 
L 144.028305 272.248129 
L 148.415528 269.975004 
L 152.802752 271.032626 
L 157.189975 272.069616 
L 161.577199 273.53091 
L 165.964423 269.615287 
L 170.351646 271.028141 
L 174.73887 270.714173 
L 179.126093 265.803722 
L 183.513317 266.699875 
L 187.900541 262.805782 
L 192.287764 264.764042 
L 196.674988 266.493554 
L 201.062211 265.611754 
L 205.449435 260.965035 
L 209.836658 260.463584 
L 214.223882 264.222223 
L 218.611106 263.182543 
L 222.998329 264.346913 
L 227.385553 250.660623 
L 231.772776 250.599624 
L 236.16 258.368076 
L 240.547224 265.690694 
L 244.934447 255.770219 
L 249.321671 250.892062 
L 253.708894 252.668221 
L 258.096118 249.182285 
L 262.483342 256.673549 
L 266.870565 248.424278 
L 271.257789 246.598782 
L 275.645012 243.430401 
L 280.032236 247.108306 
L 284.419459 240.702473 
L 288.806683 245.69904 
L 293.193907 233.569132 
L 297.58113 240.073641 
L 301.968354 237.726061 
L 306.355577 234.882413 
L 310.742801 237.405814 
L 315.130025 229.548554 
L 319.517248 231.582167 
L 323.904472 220.204883 
L 328.291695 232.78511 
L 332.678919 219.396641 
L 337.066143 208.840158 
L 341.453366 218.156021 
L 345.84059 216.177129 
L 350.227813 201.046589 
M 359.00226 191.629359 
M 372.163931 195.90111 
" style="fill:none;stroke:#ff7f0e;stroke-linecap:square;stroke-width:1.5;"/>
   </g>
   <g id="line2d_17">
    <path clip-path="url(#p578d510d4a)" d="M 157.189975 53.568 
M 165.964423 109.480222 
M 174.73887 140.767528 
L 179.126093 149.14418 
L 183.513317 155.399308 
M 192.287764 181.928662 
L 196.674988 195.537805 
M 205.449435 195.223838 
L 209.836658 195.609569 
L 214.223882 221.046316 
L 218.611106 220.82295 
L 222.998329 225.972017 
L 227.385553 227.523016 
L 231.772776 236.680101 
L 236.16 232.719626 
M 244.934447 238.284026 
L 249.321671 239.508499 
M 262.483342 259.593446 
M 271.257789 253.494404 
L 275.645012 258.141122 
M 288.806683 269.505847 
" style="fill:none;stroke:#2ca02c;stroke-linecap:square;stroke-width:1.5;"/>
   </g>
   <g id="patch_3">
    <path d="M 57.6 307.584 
L 57.6 41.472 
" style="fill:none;stroke:#000000;stroke-linecap:square;stroke-linejoin:miter;stroke-width:0.8;"/>
   </g>
   <g id="patch_4">
    <path d="M 414.72 307.584 
L 414.72 41.472 
" style="fill:none;stroke:#000000;stroke-linecap:square;stroke-linejoin:miter;stroke-width:0.8;"/>
   </g>
   <g id="patch_5">
    <path d="M 57.6 307.584 
L 414.72 307.584 
" style="fill:none;stroke:#000000;stroke-linecap:square;stroke-linejoin:miter;stroke-width:0.8;"/>
   </g>
   <g id="patch_6">
    <path d="M 57.6 41.472 
L 414.72 41.472 
" style="fill:none;stroke:#000000;stroke-linecap:square;stroke-linejoin:miter;stroke-width:0.8;"/>
   </g>
   <g id="text_17">
    <text style="font-family:DejaVu Sans;font-size:12px;font-style:normal;font-weight:normal;text-anchor:middle;" transform="rotate(-0, 236.16, 35.472)" x="236.16" y="35.472">Avg. Bits Consumed by 2014 Add. x+0.1 Algorithm</text>
   </g>
   <g id="legend_1">
    <g id="patch_7">
     <path d="M 291.171562 93.506375 
L 407.72 93.506375 
Q 409.72 93.506375 409.72 91.506375 
L 409.72 48.472 
Q 409.72 46.472 407.72 46.472 
L 291.171562 46.472 
Q 289.171562 46.472 289.171562 48.472 
L 289.171562 91.506375 
Q 289.171562 93.506375 291.171562 93.506375 
z
" style="fill:#ffffff;opacity:0.8;stroke:#cccccc;stroke-linejoin:miter;"/>
    </g>
    <g id="line2d_18">
     <path d="M 293.171562 54.570438 
L 313.171562 54.570438 
" style="fill:none;stroke:#1f77b4;stroke-linecap:square;stroke-width:1.5;"/>
    </g>
    <g id="line2d_19"/>
    <g id="text_18">
     <text style="font-family:DejaVu Sans;font-size:10px;font-style:normal;font-weight:normal;text-anchor:start;" transform="rotate(-0, 321.171562, 58.070438)" x="321.171562" y="58.070438">2014 Add. x+0.1</text>
    </g>
    <g id="line2d_20">
     <path d="M 293.171562 69.248563 
L 313.171562 69.248563 
" style="fill:none;stroke:#ff7f0e;stroke-linecap:square;stroke-width:1.5;"/>
    </g>
    <g id="line2d_21"/>
    <g id="text_19">
     <text style="font-family:DejaVu Sans;font-size:10px;font-style:normal;font-weight:normal;text-anchor:start;" transform="rotate(-0, 321.171562, 72.748563)" x="321.171562" y="72.748563">2016 Add. x+0.1</text>
    </g>
    <g id="line2d_22">
     <path d="M 293.171562 83.926688 
L 313.171562 83.926688 
" style="fill:none;stroke:#2ca02c;stroke-linecap:square;stroke-width:1.5;"/>
    </g>
    <g id="line2d_23"/>
    <g id="text_20">
     <text style="font-family:DejaVu Sans;font-size:10px;font-style:normal;font-weight:normal;text-anchor:start;" transform="rotate(-0, 321.171562, 87.426688)" x="321.171562" y="87.426688">2019 Add. x+0.1</text>
    </g>
   </g>
  </g>
 </g>
 <defs>
  <clipPath id="p578d510d4a">
   <rect height="266.112" width="357.12" x="57.6" y="41.472"/>
  </clipPath>
 </defs>
</svg>
