<svg height="460.8" viewBox="0 0 460.8 345.6" width="614.4" xmlns="http://www.w3.org/2000/svg" xmlns:xlink="http://www.w3.org/1999/xlink"><defs><style>*{stroke-linecap:butt;stroke-linejoin:round}</style></defs><g id="figure_1"><path d="M0 345.6h460.8V0H0z" fill="#fff" id="patch_1"/><g id="axes_1"><path d="M57.6 307.584h357.12V41.472H57.6z" fill="#fff" id="patch_2"/><g id="matplotlib.axis_1"><g id="xtick_1"><g id="line2d_1"><defs><path d="M0 0v3.5" id="mfa7c7300f9" stroke="#000" stroke-width=".8"/></defs><use x="73.797" xlink:href="#mfa7c7300f9" y="307.584" stroke="#000" stroke-width=".8"/></g><text x="73.797" y="322.182" font-family="DejaVu Sans" font-size="10" font-weight="400" text-anchor="middle" id="text_1">0.0</text></g><g id="xtick_2"><use x="146.038" xlink:href="#mfa7c7300f9" y="307.584" stroke="#000" stroke-width=".8" id="line2d_2"/><text x="146.038" y="322.182" font-family="DejaVu Sans" font-size="10" font-weight="400" text-anchor="middle" id="text_2">0.2</text></g><g id="xtick_3"><use x="218.279" xlink:href="#mfa7c7300f9" y="307.584" stroke="#000" stroke-width=".8" id="line2d_3"/><text x="218.279" y="322.182" font-family="DejaVu Sans" font-size="10" font-weight="400" text-anchor="middle" id="text_3">0.4</text></g><g id="xtick_4"><use x="290.52" xlink:href="#mfa7c7300f9" y="307.584" stroke="#000" stroke-width=".8" id="line2d_4"/><text x="290.52" y="322.182" font-family="DejaVu Sans" font-size="10" font-weight="400" text-anchor="middle" id="text_4">0.6</text></g><g id="xtick_5"><use x="362.76" xlink:href="#mfa7c7300f9" y="307.584" stroke="#000" stroke-width=".8" id="line2d_5"/><text x="362.76" y="322.182" font-family="DejaVu Sans" font-size="10" font-weight="400" text-anchor="middle" id="text_5">0.8</text></g><text x="236.16" y="335.861" font-family="DejaVu Sans" font-size="10" font-weight="400" text-anchor="middle" id="text_6">Input Coin&apos;s Heads Probability (λ)</text></g><g id="matplotlib.axis_2"><g id="ytick_1"><g id="line2d_6"><defs><path d="M0 0h-3.5" id="m0ed9a9dafa" stroke="#000" stroke-width=".8"/></defs><use x="57.6" xlink:href="#m0ed9a9dafa" y="262.984" stroke="#000" stroke-width=".8"/></g><text x="50.6" y="266.783" font-family="DejaVu Sans" font-size="10" font-weight="400" text-anchor="end" id="text_7">0.2</text></g><g id="ytick_2"><use x="57.6" xlink:href="#m0ed9a9dafa" y="210.559" stroke="#000" stroke-width=".8" id="line2d_7"/><text x="50.6" y="214.358" font-family="DejaVu Sans" font-size="10" font-weight="400" text-anchor="end" id="text_8">0.4</text></g><g id="ytick_3"><use x="57.6" xlink:href="#m0ed9a9dafa" y="158.133" stroke="#000" stroke-width=".8" id="line2d_8"/><text x="50.6" y="161.932" font-family="DejaVu Sans" font-size="10" font-weight="400" text-anchor="end" id="text_9">0.6</text></g><g id="ytick_4"><use x="57.6" xlink:href="#m0ed9a9dafa" y="105.708" stroke="#000" stroke-width=".8" id="line2d_9"/><text x="50.6" y="109.507" font-family="DejaVu Sans" font-size="10" font-weight="400" text-anchor="end" id="text_10">0.8</text></g><g id="ytick_5"><use x="57.6" xlink:href="#m0ed9a9dafa" y="53.282" stroke="#000" stroke-width=".8" id="line2d_10"/><text x="50.6" y="57.082" font-family="DejaVu Sans" font-size="10" font-weight="400" text-anchor="end" id="text_11">1.0</text></g><text transform="rotate(-90 28.617 174.528)" x="28.617" y="174.528" font-family="DejaVu Sans" font-size="10" font-weight="400" text-anchor="middle" id="text_12">Simulated Mean / Function Value</text></g><path clip-path="url(#p53082868c1)" d="M73.833 289.17l3.648-2.646 3.647-2.648 3.648-2.647 3.648-2.647 3.648-2.647 3.648-2.648 3.647-2.647 3.648-2.647 3.648-2.647 3.648-2.647 3.648-2.648 3.647-2.647 3.648-2.647 3.648-2.647 3.648-2.648 3.648-2.647 3.647-2.647 3.648-2.647 3.648-2.647 3.648-2.648 3.648-2.647 3.647-2.647 3.648-2.647 3.648-2.648 3.648-2.647 3.648-2.647 3.647-2.647 3.648-2.647 3.648-2.648 3.648-2.647 3.648-2.647 3.647-2.647 3.648-2.648 3.648-2.647 3.648-2.647 3.648-2.647 3.647-2.647 3.648-2.648 3.648-2.647 3.648-2.647 3.648-2.647 3.647-2.648 3.648-2.647 3.648-2.647 3.648-2.647 3.648-2.647 3.648-2.648 3.647-2.647 3.648-2.647 3.648-2.647 3.648-2.648 3.648-2.647 3.647-2.647 3.648-2.647 3.648-2.647 3.648-2.648 3.648-2.647 3.647-2.647 3.648-2.647 3.648-2.648 3.648-2.647 3.648-2.647 3.647-2.647 3.648-2.647 3.648-2.648 3.648-2.647 3.648-2.647 3.647-2.647 3.648-2.648 3.648-2.647 3.648-2.647 3.648-2.647 3.647-2.647 3.648-2.648 3.648-2.647 3.648-2.647 3.648-2.647 3.647-2.648 3.648-2.647 3.648-2.647 3.648-2.647 3.648-2.647 3.647-2.648 3.648-2.647 3.648-2.647 3.648-2.647 3.648-2.648 3.647-2.647 3.648-2.647" fill="none" stroke="#1f77b4" stroke-linecap="square" stroke-width="1.5" id="line2d_11"/><path clip-path="url(#p53082868c1)" d="M73.833 291.294l3.648-6.291 3.647-6.291 3.648 3.67 3.648-3.146 3.648-4.718 3.648 4.718 3.647-5.767 3.648-5.242 3.648-2.622 3.648-8.388 3.648 3.146 3.647-3.67h3.648l3.648-6.29 3.648 2.62 3.648 4.719 3.647-17.825h3.648l3.648-5.243 3.648-2.62 3.648 5.766 3.647-6.815 3.648 3.67 3.648-6.292 3.648-2.097 3.648-12.582 3.647-.524 3.648-.524 3.648 4.718 3.648-12.582 3.648-4.718 3.647 3.67 3.648-6.292 3.648-7.863 3.648 1.572 3.648 12.582 3.647-23.067 3.648 4.719 3.648-.525 3.648-10.485 3.648 2.097 3.647-5.767 3.648 2.622 3.648-5.767 3.648-3.67 3.648 6.291h3.648l3.647-14.155 3.648 1.049 3.648-2.622 3.648 2.097 3.648-3.145h3.647l3.648 4.718 3.648-16.252 3.648 1.573 3.648-7.864 3.647 1.049 3.648-5.243 3.648 2.622 3.648-2.097 3.648-4.719M314.588 119.338l3.648-15.203 3.647 11.01 3.648-6.816m18.24-13.106" fill="none" stroke="#ff7f0e" stroke-linecap="square" stroke-width="1.5" id="line2d_12"/><path clip-path="url(#p53082868c1)" d="M73.833 290.245l3.648 5.243 3.647-9.437 3.648-9.436 3.648 3.145 3.648 5.243 3.648-18.349h3.647l3.648-4.194 3.648 3.67 3.648-5.243 3.648 2.097 3.647-4.194 3.648-10.485 3.648-1.573 3.648 3.67 3.648-2.097 3.647-1.048 3.648.524 3.648-14.68 3.648-2.096 3.648 1.572 3.647-3.145 3.648-6.291 3.648 8.388 3.648-6.291 3.648 6.815 3.647-17.3 3.648-2.622 3.648-.524 3.648 3.67 3.648-4.718 3.647-8.913 3.648 4.194 3.648-16.776 3.648 20.97 3.648-14.154 3.647-6.291 3.648-19.398 3.648 16.776 3.648 5.767 3.648-8.912 3.647-4.719 3.648-4.718 3.648.524h3.648l3.648-8.388 3.648-2.62 3.647 8.911 3.648-16.776 3.648 6.291 3.648-11.533 3.648 1.048 3.647-14.679 3.648 2.097 3.648 7.34 3.648-1.573 3.648-2.621 3.647-7.864 3.648-1.573 3.648 3.67 3.648-14.155 3.648 2.621h3.647m18.239-16.776" fill="none" stroke="#2ca02c" stroke-linecap="square" stroke-width="1.5" id="line2d_13"/><path clip-path="url(#p53082868c1)" d="M157.73199999999997 221.56799999999998l3.648 9.96 3.648-11.533m7.295 2.097l3.648-14.679m7.296 6.291l3.648 1.049 3.647-8.388 3.648-6.816 3.648 3.146 3.648-20.446 3.648 2.621 3.647 4.194m7.296-4.718l3.648 2.621m18.239-13.63l3.648-1.049m10.943-17.825" fill="none" stroke="#d62728" stroke-linecap="square" stroke-width="1.5" id="line2d_14"/><path d="M57.6 307.584V41.472" fill="none" stroke="#000" stroke-linecap="square" stroke-width=".8" id="patch_3"/><path d="M414.72 307.584V41.472" fill="none" stroke="#000" stroke-linecap="square" stroke-width=".8" id="patch_4"/><path d="M57.6 307.584h357.12" fill="none" stroke="#000" stroke-linecap="square" stroke-width=".8" id="patch_5"/><path d="M57.6 41.472h357.12" fill="none" stroke="#000" stroke-linecap="square" stroke-width=".8" id="patch_6"/><text x="236.16" y="35.472" font-family="DejaVu Sans" font-size="12" font-weight="400" text-anchor="middle" id="text_13">Expected Value in 2014 Add. x+0.1 Algorithm</text><g id="legend_1"><path d="M64.6 108.184h213.502q2 0 2-2V48.472q0-2-2-2H64.6q-2 0-2 2v57.712q0 2 2 2z" fill="#fff" opacity=".8" stroke="#ccc" id="patch_7"/><path d="M66.6 54.57h20" fill="none" stroke="#1f77b4" stroke-linecap="square" stroke-width="1.5" id="line2d_15"/><text x="94.6" y="58.07" font-family="DejaVu Sans" font-size="10" font-weight="400" id="text_14">2014 Add. x+0.1</text><path d="M66.6 69.249h20" fill="none" stroke="#ff7f0e" stroke-linecap="square" stroke-width="1.5" id="line2d_17"/><text x="94.6" y="72.749" font-family="DejaVu Sans" font-size="10" font-weight="400" id="text_15">Simulated Mean of 2014 Add. x+0.1</text><path d="M66.6 83.927h20" fill="none" stroke="#2ca02c" stroke-linecap="square" stroke-width="1.5" id="line2d_19"/><text x="94.6" y="87.427" font-family="DejaVu Sans" font-size="10" font-weight="400" id="text_16">Simulated Mean of 2016 Add. x+0.1</text><path d="M66.6 98.605h20" fill="none" stroke="#d62728" stroke-linecap="square" stroke-width="1.5" id="line2d_21"/><text x="94.6" y="102.105" font-family="DejaVu Sans" font-size="10" font-weight="400" id="text_17">Simulated Mean of 2019 Add. x+0.1</text></g></g></g><defs><clipPath id="p53082868c1"><path d="M57.6 41.472h357.12v266.112H57.6z"/></clipPath></defs></svg>