<?xml version="1.0" encoding="utf-8" standalone="no"?>
<!DOCTYPE svg PUBLIC "-//W3C//DTD SVG 1.1//EN"
  "http://www.w3.org/Graphics/SVG/1.1/DTD/svg11.dtd">
<!-- Created with matplotlib (https://matplotlib.org/) -->
<svg height="345.6pt" version="1.1" viewBox="0 0 460.8 345.6" width="460.8pt" xmlns="http://www.w3.org/2000/svg" xmlns:xlink="http://www.w3.org/1999/xlink">
 <defs>
  <style type="text/css">
*{stroke-linecap:butt;stroke-linejoin:round;}
  </style>
 </defs>
 <g id="figure_1">
  <g id="patch_1">
   <path d="M 0 345.6 
L 460.8 345.6 
L 460.8 0 
L 0 0 
z
" style="fill:#ffffff;"/>
  </g>
  <g id="axes_1">
   <g id="patch_2">
    <path d="M 57.6 307.584 
L 414.72 307.584 
L 414.72 41.472 
L 57.6 41.472 
z
" style="fill:#ffffff;"/>
   </g>
   <g id="matplotlib.axis_1">
    <g id="xtick_1">
     <g id="line2d_1">
      <defs>
       <path d="M 0 0 
L 0 3.5 
" id="mc1742afe9f" style="stroke:#000000;stroke-width:0.8;"/>
      </defs>
      <g>
       <use style="stroke:#000000;stroke-width:0.8;" x="73.786137" xlink:href="#mc1742afe9f" y="307.584"/>
      </g>
     </g>
     <g id="text_1">
      <text style="font-family:DejaVu Sans;font-size:10px;font-style:normal;font-weight:normal;text-anchor:middle;" transform="rotate(-0, 73.786137, 322.182437)" x="73.786137" y="322.182437">0.0</text>
     </g>
    </g>
    <g id="xtick_2">
     <g id="line2d_2">
      <g>
       <use style="stroke:#000000;stroke-width:0.8;" x="120.376325" xlink:href="#mc1742afe9f" y="307.584"/>
      </g>
     </g>
     <g id="text_2">
      <text style="font-family:DejaVu Sans;font-size:10px;font-style:normal;font-weight:normal;text-anchor:middle;" transform="rotate(-0, 120.376325, 322.182437)" x="120.376325" y="322.182437">0.1</text>
     </g>
    </g>
    <g id="xtick_3">
     <g id="line2d_3">
      <g>
       <use style="stroke:#000000;stroke-width:0.8;" x="166.966512" xlink:href="#mc1742afe9f" y="307.584"/>
      </g>
     </g>
     <g id="text_3">
      <text style="font-family:DejaVu Sans;font-size:10px;font-style:normal;font-weight:normal;text-anchor:middle;" transform="rotate(-0, 166.966512, 322.182437)" x="166.966512" y="322.182437">0.2</text>
     </g>
    </g>
    <g id="xtick_4">
     <g id="line2d_4">
      <g>
       <use style="stroke:#000000;stroke-width:0.8;" x="213.5567" xlink:href="#mc1742afe9f" y="307.584"/>
      </g>
     </g>
     <g id="text_4">
      <text style="font-family:DejaVu Sans;font-size:10px;font-style:normal;font-weight:normal;text-anchor:middle;" transform="rotate(-0, 213.5567, 322.182437)" x="213.5567" y="322.182437">0.3</text>
     </g>
    </g>
    <g id="xtick_5">
     <g id="line2d_5">
      <g>
       <use style="stroke:#000000;stroke-width:0.8;" x="260.146887" xlink:href="#mc1742afe9f" y="307.584"/>
      </g>
     </g>
     <g id="text_5">
      <text style="font-family:DejaVu Sans;font-size:10px;font-style:normal;font-weight:normal;text-anchor:middle;" transform="rotate(-0, 260.146887, 322.182437)" x="260.146887" y="322.182437">0.4</text>
     </g>
    </g>
    <g id="xtick_6">
     <g id="line2d_6">
      <g>
       <use style="stroke:#000000;stroke-width:0.8;" x="306.737075" xlink:href="#mc1742afe9f" y="307.584"/>
      </g>
     </g>
     <g id="text_6">
      <text style="font-family:DejaVu Sans;font-size:10px;font-style:normal;font-weight:normal;text-anchor:middle;" transform="rotate(-0, 306.737075, 322.182437)" x="306.737075" y="322.182437">0.5</text>
     </g>
    </g>
    <g id="xtick_7">
     <g id="line2d_7">
      <g>
       <use style="stroke:#000000;stroke-width:0.8;" x="353.327263" xlink:href="#mc1742afe9f" y="307.584"/>
      </g>
     </g>
     <g id="text_7">
      <text style="font-family:DejaVu Sans;font-size:10px;font-style:normal;font-weight:normal;text-anchor:middle;" transform="rotate(-0, 353.327263, 322.182437)" x="353.327263" y="322.182437">0.6</text>
     </g>
    </g>
    <g id="xtick_8">
     <g id="line2d_8">
      <g>
       <use style="stroke:#000000;stroke-width:0.8;" x="399.91745" xlink:href="#mc1742afe9f" y="307.584"/>
      </g>
     </g>
     <g id="text_8">
      <text style="font-family:DejaVu Sans;font-size:10px;font-style:normal;font-weight:normal;text-anchor:middle;" transform="rotate(-0, 399.91745, 322.182437)" x="399.91745" y="322.182437">0.7</text>
     </g>
    </g>
    <g id="text_9">
     <text style="font-family:DejaVu Sans;font-size:10px;font-style:normal;font-weight:normal;text-anchor:middle;" transform="rotate(-0, 236.16, 335.860562)" x="236.16" y="335.860562">Input Coin's Heads Probability (λ)</text>
    </g>
   </g>
   <g id="matplotlib.axis_2">
    <g id="ytick_1">
     <g id="line2d_9">
      <defs>
       <path d="M 0 0 
L -3.5 0 
" id="mbe198d5637" style="stroke:#000000;stroke-width:0.8;"/>
      </defs>
      <g>
       <use style="stroke:#000000;stroke-width:0.8;" x="57.6" xlink:href="#mbe198d5637" y="288.739227"/>
      </g>
     </g>
     <g id="text_10">
      <text style="font-family:DejaVu Sans;font-size:10px;font-style:normal;font-weight:normal;text-anchor:end;" transform="rotate(-0, 50.6, 292.538446)" x="50.6" y="292.538446">0.3</text>
     </g>
    </g>
    <g id="ytick_2">
     <g id="line2d_10">
      <g>
       <use style="stroke:#000000;stroke-width:0.8;" x="57.6" xlink:href="#mbe198d5637" y="254.995361"/>
      </g>
     </g>
     <g id="text_11">
      <text style="font-family:DejaVu Sans;font-size:10px;font-style:normal;font-weight:normal;text-anchor:end;" transform="rotate(-0, 50.6, 258.79458)" x="50.6" y="258.79458">0.4</text>
     </g>
    </g>
    <g id="ytick_3">
     <g id="line2d_11">
      <g>
       <use style="stroke:#000000;stroke-width:0.8;" x="57.6" xlink:href="#mbe198d5637" y="221.251495"/>
      </g>
     </g>
     <g id="text_12">
      <text style="font-family:DejaVu Sans;font-size:10px;font-style:normal;font-weight:normal;text-anchor:end;" transform="rotate(-0, 50.6, 225.050714)" x="50.6" y="225.050714">0.5</text>
     </g>
    </g>
    <g id="ytick_4">
     <g id="line2d_12">
      <g>
       <use style="stroke:#000000;stroke-width:0.8;" x="57.6" xlink:href="#mbe198d5637" y="187.507629"/>
      </g>
     </g>
     <g id="text_13">
      <text style="font-family:DejaVu Sans;font-size:10px;font-style:normal;font-weight:normal;text-anchor:end;" transform="rotate(-0, 50.6, 191.306848)" x="50.6" y="191.306848">0.6</text>
     </g>
    </g>
    <g id="ytick_5">
     <g id="line2d_13">
      <g>
       <use style="stroke:#000000;stroke-width:0.8;" x="57.6" xlink:href="#mbe198d5637" y="153.763763"/>
      </g>
     </g>
     <g id="text_14">
      <text style="font-family:DejaVu Sans;font-size:10px;font-style:normal;font-weight:normal;text-anchor:end;" transform="rotate(-0, 50.6, 157.562982)" x="50.6" y="157.562982">0.7</text>
     </g>
    </g>
    <g id="ytick_6">
     <g id="line2d_14">
      <g>
       <use style="stroke:#000000;stroke-width:0.8;" x="57.6" xlink:href="#mbe198d5637" y="120.019897"/>
      </g>
     </g>
     <g id="text_15">
      <text style="font-family:DejaVu Sans;font-size:10px;font-style:normal;font-weight:normal;text-anchor:end;" transform="rotate(-0, 50.6, 123.819116)" x="50.6" y="123.819116">0.8</text>
     </g>
    </g>
    <g id="ytick_7">
     <g id="line2d_15">
      <g>
       <use style="stroke:#000000;stroke-width:0.8;" x="57.6" xlink:href="#mbe198d5637" y="86.276031"/>
      </g>
     </g>
     <g id="text_16">
      <text style="font-family:DejaVu Sans;font-size:10px;font-style:normal;font-weight:normal;text-anchor:end;" transform="rotate(-0, 50.6, 90.07525)" x="50.6" y="90.07525">0.9</text>
     </g>
    </g>
    <g id="ytick_8">
     <g id="line2d_16">
      <g>
       <use style="stroke:#000000;stroke-width:0.8;" x="57.6" xlink:href="#mbe198d5637" y="52.532166"/>
      </g>
     </g>
     <g id="text_17">
      <text style="font-family:DejaVu Sans;font-size:10px;font-style:normal;font-weight:normal;text-anchor:end;" transform="rotate(-0, 50.6, 56.331384)" x="50.6" y="56.331384">1.0</text>
     </g>
    </g>
    <g id="text_18">
     <text style="font-family:DejaVu Sans;font-size:10px;font-style:normal;font-weight:normal;text-anchor:middle;" transform="rotate(-90, 28.617187, 174.528)" x="28.617187" y="174.528">Simulated Mean / Function Value</text>
    </g>
   </g>
   <g id="line2d_17">
    <path clip-path="url(#p4c5a54927e)" d="M 73.832727 288.705483 
L 78.537866 285.297693 
L 83.243004 281.889904 
L 87.948142 278.482114 
L 92.653281 275.074325 
L 97.358419 271.666535 
L 102.063557 268.258745 
L 106.768696 264.850956 
L 111.473834 261.443166 
L 116.178972 258.035376 
L 120.884111 254.627587 
L 125.589249 251.219797 
L 130.294387 247.812008 
L 134.999526 244.404218 
L 139.704664 240.996428 
L 144.409802 237.588639 
L 149.114941 234.180849 
L 153.820079 230.77306 
L 158.525217 227.36527 
L 163.230356 223.95748 
L 167.935494 220.549691 
L 172.640632 217.141901 
L 177.345771 213.734112 
L 182.050909 210.326322 
L 186.756047 206.918532 
L 191.461186 203.510743 
L 196.166324 200.102953 
L 200.871462 196.695164 
L 205.576601 193.287374 
L 210.281739 189.879584 
L 214.986877 186.471795 
L 219.692016 183.064005 
L 224.397154 179.656215 
L 229.102292 176.248426 
L 233.807431 172.840636 
L 238.512569 169.432847 
L 243.217708 166.025057 
L 247.922846 162.617267 
L 252.627984 159.209478 
L 257.333123 155.801688 
L 262.038261 152.393899 
L 266.743399 148.986109 
L 271.448538 145.578319 
L 276.153676 142.17053 
L 280.858814 138.76274 
L 285.563953 135.354951 
L 290.269091 131.947161 
L 294.974229 128.539371 
L 299.679368 125.131582 
L 304.384506 121.723792 
L 309.089644 118.316003 
L 313.794783 114.908213 
L 318.499921 111.500423 
L 323.205059 108.092634 
L 327.910198 104.684844 
L 332.615336 101.277055 
L 337.320474 97.869265 
L 342.025613 94.461475 
L 346.730751 91.053686 
L 351.435889 87.645896 
L 356.141028 84.238106 
L 360.846166 80.830317 
L 365.551304 77.422527 
L 370.256443 74.014738 
L 374.961581 70.606948 
L 379.666719 67.199158 
L 384.371858 63.791369 
L 389.076996 60.383579 
L 393.782134 56.97579 
L 398.487273 53.568 
" style="fill:none;stroke:#1f77b4;stroke-linecap:square;stroke-width:1.5;"/>
   </g>
   <g id="line2d_18">
    <path clip-path="url(#p4c5a54927e)" d="M 73.832727 295.488 
L 78.537866 279.965822 
L 83.243004 268.492907 
L 87.948142 269.167785 
L 92.653281 269.842662 
L 97.358419 273.891926 
L 102.063557 277.94119 
L 106.768696 270.517539 
L 111.473834 261.069257 
L 116.178972 259.719502 
L 120.884111 265.793398 
L 125.589249 244.872201 
L 130.294387 248.921465 
L 134.999526 240.14806 
L 139.704664 242.847569 
L 144.409802 230.699777 
L 149.114941 234.749041 
L 153.820079 223.951004 
L 158.525217 223.276127 
L 163.230356 226.650514 
L 167.935494 207.079071 
L 172.640632 207.753949 
L 177.345771 219.90174 
L 182.050909 197.630789 
L 186.756047 211.803213 
L 191.461186 209.103703 
L 196.166324 207.753949 
L 200.871462 193.581525 
L 205.576601 179.409101 
L 210.281739 189.532261 
L 214.986877 194.256402 
L 219.692016 190.882016 
L 224.397154 177.384469 
L 229.102292 184.80812 
L 233.807431 158.487904 
L 238.512569 172.660328 
L 243.217708 167.936187 
L 247.922846 153.763763 
L 252.627984 167.936187 
L 257.333123 163.886923 
M 266.743399 141.615972 
L 271.448538 156.463273 
M 280.858814 131.492812 
L 285.563953 147.01499 
L 290.269091 131.492812 
L 294.974229 126.093793 
L 299.679368 133.517444 
L 304.384506 110.571615 
L 309.089644 112.596247 
L 313.794783 113.271124 
M 323.205059 105.847474 
M 332.615336 100.448455 
M 342.025613 95.049437 
" style="fill:none;stroke:#ff7f0e;stroke-linecap:square;stroke-width:1.5;"/>
   </g>
   <g id="line2d_19">
    <path clip-path="url(#p4c5a54927e)" d="M 73.832727 273.217049 
L 78.537866 288.06435 
L 83.243004 294.813123 
L 87.948142 273.891926 
L 92.653281 279.965822 
L 97.358419 276.591435 
L 102.063557 273.891926 
L 106.768696 279.290944 
L 111.473834 262.419011 
L 116.178972 254.995361 
L 120.884111 261.744134 
L 125.589249 244.872201 
L 130.294387 257.019993 
L 134.999526 250.27122 
L 139.704664 248.921465 
L 144.409802 230.699777 
L 149.114941 230.699777 
L 153.820079 234.074164 
L 158.525217 231.374655 
L 163.230356 230.699777 
L 167.935494 230.0249 
L 172.640632 202.35493 
L 177.345771 219.226863 
L 182.050909 215.852476 
L 186.756047 209.778581 
L 191.461186 217.202231 
L 196.166324 201.680053 
L 200.871462 196.281034 
L 205.576601 190.207138 
L 210.281739 190.207138 
L 214.986877 187.507629 
L 219.692016 181.433733 
L 224.397154 167.936187 
L 229.102292 184.133243 
M 238.512569 183.458365 
L 243.217708 161.187414 
L 247.922846 164.5618 
L 252.627984 155.113518 
L 257.333123 159.837659 
L 262.038261 161.862291 
L 266.743399 151.739131 
L 271.448538 140.266217 
L 276.153676 152.414009 
L 280.858814 134.867198 
M 290.269091 135.542076 
M 309.089644 115.970633 
" style="fill:none;stroke:#2ca02c;stroke-linecap:square;stroke-width:1.5;"/>
   </g>
   <g id="line2d_20">
    <path clip-path="url(#p4c5a54927e)" d="M 257.333123 157.13815 
" style="fill:none;stroke:#d62728;stroke-linecap:square;stroke-width:1.5;"/>
   </g>
   <g id="patch_3">
    <path d="M 57.6 307.584 
L 57.6 41.472 
" style="fill:none;stroke:#000000;stroke-linecap:square;stroke-linejoin:miter;stroke-width:0.8;"/>
   </g>
   <g id="patch_4">
    <path d="M 414.72 307.584 
L 414.72 41.472 
" style="fill:none;stroke:#000000;stroke-linecap:square;stroke-linejoin:miter;stroke-width:0.8;"/>
   </g>
   <g id="patch_5">
    <path d="M 57.6 307.584 
L 414.72 307.584 
" style="fill:none;stroke:#000000;stroke-linecap:square;stroke-linejoin:miter;stroke-width:0.8;"/>
   </g>
   <g id="patch_6">
    <path d="M 57.6 41.472 
L 414.72 41.472 
" style="fill:none;stroke:#000000;stroke-linecap:square;stroke-linejoin:miter;stroke-width:0.8;"/>
   </g>
   <g id="text_19">
    <text style="font-family:DejaVu Sans;font-size:12px;font-style:normal;font-weight:normal;" transform="translate(184.459688 22.034625)">Simulated Means</text>
    <text style="font-family:DejaVu Sans;font-size:12px;font-style:normal;font-weight:normal;" transform="translate(132.609375 35.472)">(Wasserstein Distances in Legend)</text>
   </g>
   <g id="legend_1">
    <g id="patch_7">
     <path d="M 64.6 108.1845 
L 343.39375 108.1845 
Q 345.39375 108.1845 345.39375 106.1845 
L 345.39375 48.472 
Q 345.39375 46.472 343.39375 46.472 
L 64.6 46.472 
Q 62.6 46.472 62.6 48.472 
L 62.6 106.1845 
Q 62.6 108.1845 64.6 108.1845 
z
" style="fill:#ffffff;opacity:0.8;stroke:#cccccc;stroke-linejoin:miter;"/>
    </g>
    <g id="line2d_21">
     <path d="M 66.6 54.570438 
L 86.6 54.570438 
" style="fill:none;stroke:#1f77b4;stroke-linecap:square;stroke-width:1.5;"/>
    </g>
    <g id="line2d_22"/>
    <g id="text_20">
     <text style="font-family:DejaVu Sans;font-size:10px;font-style:normal;font-weight:normal;text-anchor:start;" transform="rotate(-0, 94.6, 58.070438)" x="94.6" y="58.070438">x+0.3</text>
    </g>
    <g id="line2d_23">
     <path d="M 66.6 69.248563 
L 86.6 69.248563 
" style="fill:none;stroke:#ff7f0e;stroke-linecap:square;stroke-width:1.5;"/>
    </g>
    <g id="line2d_24"/>
    <g id="text_21">
     <text style="font-family:DejaVu Sans;font-size:10px;font-style:normal;font-weight:normal;text-anchor:start;" transform="rotate(-0, 94.6, 72.748563)" x="94.6" y="72.748563">Simul. Mean of 2014 Add. x+0.3 (WD=0.007824)</text>
    </g>
    <g id="line2d_25">
     <path d="M 66.6 83.926688 
L 86.6 83.926688 
" style="fill:none;stroke:#2ca02c;stroke-linecap:square;stroke-width:1.5;"/>
    </g>
    <g id="line2d_26"/>
    <g id="text_22">
     <text style="font-family:DejaVu Sans;font-size:10px;font-style:normal;font-weight:normal;text-anchor:start;" transform="rotate(-0, 94.6, 87.426688)" x="94.6" y="87.426688">Simul. Mean of 2016 Add. x+0.3 (WD=0.009085)</text>
    </g>
    <g id="line2d_27">
     <path d="M 66.6 98.604813 
L 86.6 98.604813 
" style="fill:none;stroke:#d62728;stroke-linecap:square;stroke-width:1.5;"/>
    </g>
    <g id="line2d_28"/>
    <g id="text_23">
     <text style="font-family:DejaVu Sans;font-size:10px;font-style:normal;font-weight:normal;text-anchor:start;" transform="rotate(-0, 94.6, 102.104813)" x="94.6" y="102.104813">Simul. Mean of 2019 Add. x+0.3 (WD=0.003961)</text>
    </g>
   </g>
  </g>
 </g>
 <defs>
  <clipPath id="p4c5a54927e">
   <rect height="266.112" width="357.12" x="57.6" y="41.472"/>
  </clipPath>
 </defs>
</svg>
