<?xml version="1.0" encoding="utf-8" standalone="no"?>
<!DOCTYPE svg PUBLIC "-//W3C//DTD SVG 1.1//EN"
  "http://www.w3.org/Graphics/SVG/1.1/DTD/svg11.dtd">
<!-- Created with matplotlib (https://matplotlib.org/) -->
<svg height="345.6pt" version="1.1" viewBox="0 0 460.8 345.6" width="460.8pt" xmlns="http://www.w3.org/2000/svg" xmlns:xlink="http://www.w3.org/1999/xlink">
 <defs>
  <style type="text/css">
*{stroke-linecap:butt;stroke-linejoin:round;}
  </style>
 </defs>
 <g id="figure_1">
  <g id="patch_1">
   <path d="M 0 345.6 
L 460.8 345.6 
L 460.8 0 
L 0 0 
z
" style="fill:#ffffff;"/>
  </g>
  <g id="axes_1">
   <g id="patch_2">
    <path d="M 57.6 307.584 
L 414.72 307.584 
L 414.72 41.472 
L 57.6 41.472 
z
" style="fill:#ffffff;"/>
   </g>
   <g id="matplotlib.axis_1">
    <g id="xtick_1">
     <g id="line2d_1">
      <defs>
       <path d="M 0 0 
L 0 3.5 
" id="m79e82ae483" style="stroke:#000000;stroke-width:0.8;"/>
      </defs>
      <g>
       <use style="stroke:#000000;stroke-width:0.8;" x="73.796607" xlink:href="#m79e82ae483" y="307.584"/>
      </g>
     </g>
     <g id="text_1">
      <text style="font-family:DejaVu Sans;font-size:10px;font-style:normal;font-weight:normal;text-anchor:middle;" transform="rotate(-0, 73.796607, 322.182437)" x="73.796607" y="322.182437">0.0</text>
     </g>
    </g>
    <g id="xtick_2">
     <g id="line2d_2">
      <g>
       <use style="stroke:#000000;stroke-width:0.8;" x="146.037572" xlink:href="#m79e82ae483" y="307.584"/>
      </g>
     </g>
     <g id="text_2">
      <text style="font-family:DejaVu Sans;font-size:10px;font-style:normal;font-weight:normal;text-anchor:middle;" transform="rotate(-0, 146.037572, 322.182437)" x="146.037572" y="322.182437">0.2</text>
     </g>
    </g>
    <g id="xtick_3">
     <g id="line2d_3">
      <g>
       <use style="stroke:#000000;stroke-width:0.8;" x="218.278537" xlink:href="#m79e82ae483" y="307.584"/>
      </g>
     </g>
     <g id="text_3">
      <text style="font-family:DejaVu Sans;font-size:10px;font-style:normal;font-weight:normal;text-anchor:middle;" transform="rotate(-0, 218.278537, 322.182437)" x="218.278537" y="322.182437">0.4</text>
     </g>
    </g>
    <g id="xtick_4">
     <g id="line2d_4">
      <g>
       <use style="stroke:#000000;stroke-width:0.8;" x="290.519502" xlink:href="#m79e82ae483" y="307.584"/>
      </g>
     </g>
     <g id="text_4">
      <text style="font-family:DejaVu Sans;font-size:10px;font-style:normal;font-weight:normal;text-anchor:middle;" transform="rotate(-0, 290.519502, 322.182437)" x="290.519502" y="322.182437">0.6</text>
     </g>
    </g>
    <g id="xtick_5">
     <g id="line2d_5">
      <g>
       <use style="stroke:#000000;stroke-width:0.8;" x="362.760467" xlink:href="#m79e82ae483" y="307.584"/>
      </g>
     </g>
     <g id="text_5">
      <text style="font-family:DejaVu Sans;font-size:10px;font-style:normal;font-weight:normal;text-anchor:middle;" transform="rotate(-0, 362.760467, 322.182437)" x="362.760467" y="322.182437">0.8</text>
     </g>
    </g>
    <g id="text_6">
     <text style="font-family:DejaVu Sans;font-size:10px;font-style:normal;font-weight:normal;text-anchor:middle;" transform="rotate(-0, 236.16, 335.860562)" x="236.16" y="335.860562">Input Coin's Heads Probability (λ)</text>
    </g>
   </g>
   <g id="matplotlib.axis_2">
    <g id="ytick_1">
     <g id="line2d_6">
      <defs>
       <path d="M 0 0 
L -3.5 0 
" id="m7bdb6460b6" style="stroke:#000000;stroke-width:0.8;"/>
      </defs>
      <g>
       <use style="stroke:#000000;stroke-width:0.8;" x="57.6" xlink:href="#m7bdb6460b6" y="266.209857"/>
      </g>
     </g>
     <g id="text_7">
      <text style="font-family:DejaVu Sans;font-size:10px;font-style:normal;font-weight:normal;text-anchor:end;" transform="rotate(-0, 50.6, 270.009076)" x="50.6" y="270.009076">0.2</text>
     </g>
    </g>
    <g id="ytick_2">
     <g id="line2d_7">
      <g>
       <use style="stroke:#000000;stroke-width:0.8;" x="57.6" xlink:href="#m7bdb6460b6" y="212.976869"/>
      </g>
     </g>
     <g id="text_8">
      <text style="font-family:DejaVu Sans;font-size:10px;font-style:normal;font-weight:normal;text-anchor:end;" transform="rotate(-0, 50.6, 216.776088)" x="50.6" y="216.776088">0.4</text>
     </g>
    </g>
    <g id="ytick_3">
     <g id="line2d_8">
      <g>
       <use style="stroke:#000000;stroke-width:0.8;" x="57.6" xlink:href="#m7bdb6460b6" y="159.743882"/>
      </g>
     </g>
     <g id="text_9">
      <text style="font-family:DejaVu Sans;font-size:10px;font-style:normal;font-weight:normal;text-anchor:end;" transform="rotate(-0, 50.6, 163.543101)" x="50.6" y="163.543101">0.6</text>
     </g>
    </g>
    <g id="ytick_4">
     <g id="line2d_9">
      <g>
       <use style="stroke:#000000;stroke-width:0.8;" x="57.6" xlink:href="#m7bdb6460b6" y="106.510895"/>
      </g>
     </g>
     <g id="text_10">
      <text style="font-family:DejaVu Sans;font-size:10px;font-style:normal;font-weight:normal;text-anchor:end;" transform="rotate(-0, 50.6, 110.310113)" x="50.6" y="110.310113">0.8</text>
     </g>
    </g>
    <g id="ytick_5">
     <g id="line2d_10">
      <g>
       <use style="stroke:#000000;stroke-width:0.8;" x="57.6" xlink:href="#m7bdb6460b6" y="53.277907"/>
      </g>
     </g>
     <g id="text_11">
      <text style="font-family:DejaVu Sans;font-size:10px;font-style:normal;font-weight:normal;text-anchor:end;" transform="rotate(-0, 50.6, 57.077126)" x="50.6" y="57.077126">1.0</text>
     </g>
    </g>
    <g id="text_12">
     <text style="font-family:DejaVu Sans;font-size:10px;font-style:normal;font-weight:normal;text-anchor:middle;" transform="rotate(-90, 28.617187, 174.528)" x="28.617187" y="174.528">Simulated Mean / Function Value</text>
    </g>
   </g>
   <g id="line2d_11">
    <path clip-path="url(#p36c2a2b7dc)" d="M 73.832727 292.799734 
L 77.480531 290.111737 
L 81.128335 287.42374 
L 84.776139 284.735743 
L 88.423943 282.047746 
L 92.071747 279.359749 
L 95.719551 276.671752 
L 99.367354 273.983755 
L 103.015158 271.295758 
L 106.662962 268.607761 
L 110.310766 265.919764 
L 113.95857 263.231767 
L 117.606374 260.54377 
L 121.254178 257.855773 
L 124.901982 255.167776 
L 128.549785 252.479779 
L 132.197589 249.791782 
L 135.845393 247.103785 
L 139.493197 244.415788 
L 143.141001 241.727791 
L 146.788805 239.039794 
L 150.436609 236.351797 
L 154.084413 233.6638 
L 157.732217 230.975803 
L 161.38002 228.287806 
L 165.027824 225.599809 
L 168.675628 222.911812 
L 172.323432 220.223815 
L 175.971236 217.535818 
L 179.61904 214.847821 
L 183.266844 212.159824 
L 186.914648 209.471827 
L 190.562451 206.78383 
L 194.210255 204.095833 
L 197.858059 201.407836 
L 201.505863 198.719839 
L 205.153667 196.031842 
L 208.801471 193.343845 
L 212.449275 190.655848 
L 216.097079 187.967851 
L 219.744883 185.279854 
L 223.392686 182.591857 
L 227.04049 179.90386 
L 230.688294 177.215863 
L 234.336098 174.527866 
L 237.983902 171.839869 
L 241.631706 169.151872 
L 245.27951 166.463875 
L 248.927314 163.775878 
L 252.575117 161.087881 
L 256.222921 158.399883 
L 259.870725 155.711886 
L 263.518529 153.023889 
L 267.166333 150.335892 
L 270.814137 147.647895 
L 274.461941 144.959898 
L 278.109745 142.271901 
L 281.757549 139.583904 
L 285.405352 136.895907 
L 289.053156 134.20791 
L 292.70096 131.519913 
L 296.348764 128.831916 
L 299.996568 126.143919 
L 303.644372 123.455922 
L 307.292176 120.767925 
L 310.93998 118.079928 
L 314.587783 115.391931 
L 318.235587 112.703934 
L 321.883391 110.015937 
L 325.531195 107.32794 
L 329.178999 104.639943 
L 332.826803 101.951946 
L 336.474607 99.263949 
L 340.122411 96.575952 
L 343.770215 93.887955 
L 347.418018 91.199958 
L 351.065822 88.511961 
L 354.713626 85.823964 
L 358.36143 83.135967 
L 362.009234 80.44797 
L 365.657038 77.759973 
L 369.304842 75.071976 
L 372.952646 72.383979 
L 376.600449 69.695982 
L 380.248253 67.007985 
L 383.896057 64.319988 
L 387.543861 61.631991 
L 391.191665 58.943994 
L 394.839469 56.255997 
L 398.487273 53.568 
" style="fill:none;stroke:#1f77b4;stroke-linecap:square;stroke-width:1.5;"/>
   </g>
   <g id="line2d_12">
    <path clip-path="url(#p36c2a2b7dc)" d="M 73.832727 290.164701 
L 77.480531 295.488 
L 81.128335 286.438392 
L 84.776139 289.100042 
L 88.423943 282.712083 
L 92.071747 275.791795 
L 95.719551 283.244413 
L 99.367354 280.050434 
L 103.015158 275.791795 
L 106.662962 272.597815 
L 110.310766 267.274517 
L 113.95857 261.418888 
L 117.606374 261.951218 
L 121.254178 253.96627 
L 124.901982 253.96627 
L 128.549785 254.4986 
L 132.197589 252.36928 
L 135.845393 245.448992 
L 139.493197 240.125693 
L 143.141001 243.319672 
L 146.788805 246.513652 
L 150.436609 239.061033 
L 154.084413 236.931714 
L 157.732217 239.593363 
L 161.38002 234.270064 
L 165.027824 216.703179 
L 168.675628 214.573859 
L 172.323432 217.235508 
L 175.971236 210.84755 
L 179.61904 218.300168 
L 183.266844 211.37988 
L 186.914648 200.200952 
L 190.562451 199.136293 
L 194.210255 193.280664 
L 197.858059 194.345324 
L 201.505863 192.748334 
L 205.153667 192.748334 
L 208.801471 193.280664 
L 212.449275 185.295716 
L 216.097079 189.554355 
L 219.744883 196.474643 
L 223.392686 179.440087 
L 227.04049 183.698726 
L 230.688294 177.843098 
L 234.336098 176.246108 
L 237.983902 170.922809 
L 241.631706 159.743882 
L 245.27951 173.052129 
L 248.927314 169.32582 
L 252.575117 164.534851 
L 256.222921 168.26116 
L 259.870725 153.888253 
L 263.518529 151.758934 
L 267.166333 157.614563 
L 270.814137 155.485243 
L 274.461941 154.952913 
L 278.109745 137.386027 
L 281.757549 145.370975 
L 285.405352 139.515347 
L 289.053156 141.644666 
L 292.70096 133.127388 
L 296.348764 119.286812 
L 299.996568 121.416131 
M 310.93998 123.013121 
L 314.587783 115.560502 
L 318.235587 112.366523 
L 321.883391 111.834193 
L 325.531195 113.431183 
M 340.122411 94.799637 
M 351.065822 97.993617 
" style="fill:none;stroke:#ff7f0e;stroke-linecap:square;stroke-width:1.5;"/>
   </g>
   <g id="line2d_13">
    <path clip-path="url(#p36c2a2b7dc)" d="M 73.832727 292.294021 
L 77.480531 283.776743 
L 81.128335 289.632371 
L 84.776139 283.244413 
L 88.423943 279.518104 
L 92.071747 281.115093 
L 95.719551 277.388784 
L 99.367354 273.130145 
L 103.015158 273.130145 
L 106.662962 266.742187 
L 110.310766 259.821898 
L 113.95857 264.612867 
L 117.606374 268.871506 
L 121.254178 269.403836 
L 124.901982 254.4986 
L 128.549785 248.110641 
L 132.197589 258.757239 
L 135.845393 248.110641 
L 139.493197 239.593363 
L 143.141001 240.658023 
L 146.788805 235.334724 
L 150.436609 231.076085 
L 154.084413 237.996374 
L 157.732217 245.448992 
L 161.38002 226.817446 
L 165.027824 226.817446 
L 168.675628 219.897158 
L 172.323432 218.832498 
L 175.971236 225.220457 
L 179.61904 226.285116 
L 183.266844 204.459591 
L 186.914648 204.459591 
L 190.562451 203.394932 
L 194.210255 215.106189 
L 197.858059 206.588911 
L 201.505863 201.797942 
L 205.153667 187.425035 
L 208.801471 184.763386 
L 212.449275 187.957365 
L 216.097079 187.957365 
L 219.744883 176.246108 
L 223.392686 188.489695 
L 227.04049 183.698726 
L 230.688294 183.166396 
L 234.336098 168.26116 
L 237.983902 169.85815 
L 241.631706 178.375428 
L 245.27951 171.455139 
L 248.927314 165.599511 
L 252.575117 168.26116 
L 256.222921 155.485243 
L 259.870725 153.355924 
L 263.518529 142.709326 
L 267.166333 143.241656 
L 270.814137 143.241656 
L 274.461941 143.241656 
L 278.109745 145.903305 
L 281.757549 136.321368 
L 285.405352 130.998069 
L 289.053156 142.176996 
L 292.70096 134.192048 
L 296.348764 139.515347 
L 299.996568 126.2071 
M 307.292176 123.545451 
L 310.93998 110.769534 
L 314.587783 116.625162 
" style="fill:none;stroke:#2ca02c;stroke-linecap:square;stroke-width:1.5;"/>
   </g>
   <g id="line2d_14">
    <path clip-path="url(#p36c2a2b7dc)" d="M 157.732217 233.205405 
L 161.38002 235.867054 
M 168.675628 214.573859 
L 172.323432 215.106189 
L 175.971236 220.961818 
L 179.61904 212.976869 
L 183.266844 211.37988 
L 186.914648 212.44454 
L 190.562451 202.330272 
L 194.210255 209.25056 
L 197.858059 204.459591 
L 201.505863 200.733282 
L 205.153667 197.539303 
L 208.801471 182.634067 
L 212.449275 191.683674 
L 216.097079 195.409984 
L 219.744883 177.310768 
L 223.392686 181.037077 
L 227.04049 181.569407 
L 230.688294 175.713778 
L 234.336098 168.79349 
L 237.983902 173.584459 
L 241.631706 172.519799 
L 245.27951 168.79349 
L 248.927314 162.405531 
L 252.575117 153.888253 
" style="fill:none;stroke:#d62728;stroke-linecap:square;stroke-width:1.5;"/>
   </g>
   <g id="patch_3">
    <path d="M 57.6 307.584 
L 57.6 41.472 
" style="fill:none;stroke:#000000;stroke-linecap:square;stroke-linejoin:miter;stroke-width:0.8;"/>
   </g>
   <g id="patch_4">
    <path d="M 414.72 307.584 
L 414.72 41.472 
" style="fill:none;stroke:#000000;stroke-linecap:square;stroke-linejoin:miter;stroke-width:0.8;"/>
   </g>
   <g id="patch_5">
    <path d="M 57.6 307.584 
L 414.72 307.584 
" style="fill:none;stroke:#000000;stroke-linecap:square;stroke-linejoin:miter;stroke-width:0.8;"/>
   </g>
   <g id="patch_6">
    <path d="M 57.6 41.472 
L 414.72 41.472 
" style="fill:none;stroke:#000000;stroke-linecap:square;stroke-linejoin:miter;stroke-width:0.8;"/>
   </g>
   <g id="text_13">
    <text style="font-family:DejaVu Sans;font-size:12px;font-style:normal;font-weight:normal;" transform="translate(184.459688 22.034625)">Simulated Means</text>
    <text style="font-family:DejaVu Sans;font-size:12px;font-style:normal;font-weight:normal;" transform="translate(132.609375 35.472)">(Wasserstein Distances in Legend)</text>
   </g>
   <g id="legend_1">
    <g id="patch_7">
     <path d="M 64.6 108.1845 
L 343.39375 108.1845 
Q 345.39375 108.1845 345.39375 106.1845 
L 345.39375 48.472 
Q 345.39375 46.472 343.39375 46.472 
L 64.6 46.472 
Q 62.6 46.472 62.6 48.472 
L 62.6 106.1845 
Q 62.6 108.1845 64.6 108.1845 
z
" style="fill:#ffffff;opacity:0.8;stroke:#cccccc;stroke-linejoin:miter;"/>
    </g>
    <g id="line2d_15">
     <path d="M 66.6 54.570438 
L 86.6 54.570438 
" style="fill:none;stroke:#1f77b4;stroke-linecap:square;stroke-width:1.5;"/>
    </g>
    <g id="line2d_16"/>
    <g id="text_14">
     <text style="font-family:DejaVu Sans;font-size:10px;font-style:normal;font-weight:normal;text-anchor:start;" transform="rotate(-0, 94.6, 58.070438)" x="94.6" y="58.070438">x+0.1</text>
    </g>
    <g id="line2d_17">
     <path d="M 66.6 69.248563 
L 86.6 69.248563 
" style="fill:none;stroke:#ff7f0e;stroke-linecap:square;stroke-width:1.5;"/>
    </g>
    <g id="line2d_18"/>
    <g id="text_15">
     <text style="font-family:DejaVu Sans;font-size:10px;font-style:normal;font-weight:normal;text-anchor:start;" transform="rotate(-0, 94.6, 72.748563)" x="94.6" y="72.748563">Simul. Mean of 2014 Add. x+0.1 (WD=0.011299)</text>
    </g>
    <g id="line2d_19">
     <path d="M 66.6 83.926688 
L 86.6 83.926688 
" style="fill:none;stroke:#2ca02c;stroke-linecap:square;stroke-width:1.5;"/>
    </g>
    <g id="line2d_20"/>
    <g id="text_16">
     <text style="font-family:DejaVu Sans;font-size:10px;font-style:normal;font-weight:normal;text-anchor:start;" transform="rotate(-0, 94.6, 87.426688)" x="94.6" y="87.426688">Simul. Mean of 2016 Add. x+0.1 (WD=0.008665)</text>
    </g>
    <g id="line2d_21">
     <path d="M 66.6 98.604813 
L 86.6 98.604813 
" style="fill:none;stroke:#d62728;stroke-linecap:square;stroke-width:1.5;"/>
    </g>
    <g id="line2d_22"/>
    <g id="text_17">
     <text style="font-family:DejaVu Sans;font-size:10px;font-style:normal;font-weight:normal;text-anchor:start;" transform="rotate(-0, 94.6, 102.104813)" x="94.6" y="102.104813">Simul. Mean of 2019 Add. x+0.1 (WD=0.008937)</text>
    </g>
   </g>
  </g>
 </g>
 <defs>
  <clipPath id="p36c2a2b7dc">
   <rect height="266.112" width="357.12" x="57.6" y="41.472"/>
  </clipPath>
 </defs>
</svg>
