<?xml version="1.0" encoding="utf-8" standalone="no"?>
<!DOCTYPE svg PUBLIC "-//W3C//DTD SVG 1.1//EN"
  "http://www.w3.org/Graphics/SVG/1.1/DTD/svg11.dtd">
<!-- Created with matplotlib (https://matplotlib.org/) -->
<svg height="345.6pt" version="1.1" viewBox="0 0 460.8 345.6" width="460.8pt" xmlns="http://www.w3.org/2000/svg" xmlns:xlink="http://www.w3.org/1999/xlink">
 <defs>
  <style type="text/css">
*{stroke-linecap:butt;stroke-linejoin:round;}
  </style>
 </defs>
 <g id="figure_1">
  <g id="patch_1">
   <path d="M 0 345.6 
L 460.8 345.6 
L 460.8 0 
L 0 0 
z
" style="fill:#ffffff;"/>
  </g>
  <g id="axes_1">
   <g id="patch_2">
    <path d="M 57.6 307.584 
L 414.72 307.584 
L 414.72 41.472 
L 57.6 41.472 
z
" style="fill:#ffffff;"/>
   </g>
   <g id="matplotlib.axis_1">
    <g id="xtick_1">
     <g id="line2d_1">
      <defs>
       <path d="M 0 0 
L 0 3.5 
" id="m9354c5de5a" style="stroke:#000000;stroke-width:0.8;"/>
      </defs>
      <g>
       <use style="stroke:#000000;stroke-width:0.8;" x="109.559533" xlink:href="#m9354c5de5a" y="307.584"/>
      </g>
     </g>
     <g id="text_1">
      <text style="font-family:DejaVu Sans;font-size:10px;font-style:normal;font-weight:normal;text-anchor:middle;" transform="rotate(-0, 109.559533, 322.182437)" x="109.559533" y="322.182437">0.2</text>
     </g>
    </g>
    <g id="xtick_2">
     <g id="line2d_2">
      <g>
       <use style="stroke:#000000;stroke-width:0.8;" x="181.800498" xlink:href="#m9354c5de5a" y="307.584"/>
      </g>
     </g>
     <g id="text_2">
      <text style="font-family:DejaVu Sans;font-size:10px;font-style:normal;font-weight:normal;text-anchor:middle;" transform="rotate(-0, 181.800498, 322.182437)" x="181.800498" y="322.182437">0.4</text>
     </g>
    </g>
    <g id="xtick_3">
     <g id="line2d_3">
      <g>
       <use style="stroke:#000000;stroke-width:0.8;" x="254.041463" xlink:href="#m9354c5de5a" y="307.584"/>
      </g>
     </g>
     <g id="text_3">
      <text style="font-family:DejaVu Sans;font-size:10px;font-style:normal;font-weight:normal;text-anchor:middle;" transform="rotate(-0, 254.041463, 322.182437)" x="254.041463" y="322.182437">0.6</text>
     </g>
    </g>
    <g id="xtick_4">
     <g id="line2d_4">
      <g>
       <use style="stroke:#000000;stroke-width:0.8;" x="326.282428" xlink:href="#m9354c5de5a" y="307.584"/>
      </g>
     </g>
     <g id="text_4">
      <text style="font-family:DejaVu Sans;font-size:10px;font-style:normal;font-weight:normal;text-anchor:middle;" transform="rotate(-0, 326.282428, 322.182437)" x="326.282428" y="322.182437">0.8</text>
     </g>
    </g>
    <g id="xtick_5">
     <g id="line2d_5">
      <g>
       <use style="stroke:#000000;stroke-width:0.8;" x="398.523393" xlink:href="#m9354c5de5a" y="307.584"/>
      </g>
     </g>
     <g id="text_5">
      <text style="font-family:DejaVu Sans;font-size:10px;font-style:normal;font-weight:normal;text-anchor:middle;" transform="rotate(-0, 398.523393, 322.182437)" x="398.523393" y="322.182437">1.0</text>
     </g>
    </g>
    <g id="text_6">
     <text style="font-family:DejaVu Sans;font-size:10px;font-style:normal;font-weight:normal;text-anchor:middle;" transform="rotate(-0, 236.16, 335.860562)" x="236.16" y="335.860562">Input Coin's Heads Probability (λ)</text>
    </g>
   </g>
   <g id="matplotlib.axis_2">
    <g id="ytick_1">
     <g id="line2d_6">
      <defs>
       <path d="M 0 0 
L -3.5 0 
" id="m6d879f6311" style="stroke:#000000;stroke-width:0.8;"/>
      </defs>
      <g>
       <use style="stroke:#000000;stroke-width:0.8;" x="57.6" xlink:href="#m6d879f6311" y="295.775562"/>
      </g>
     </g>
     <g id="text_7">
      <text style="font-family:DejaVu Sans;font-size:10px;font-style:normal;font-weight:normal;text-anchor:end;" transform="rotate(-0, 50.6, 299.574781)" x="50.6" y="299.574781">0.0</text>
     </g>
    </g>
    <g id="ytick_2">
     <g id="line2d_7">
      <g>
       <use style="stroke:#000000;stroke-width:0.8;" x="57.6" xlink:href="#m6d879f6311" y="243.00703"/>
      </g>
     </g>
     <g id="text_8">
      <text style="font-family:DejaVu Sans;font-size:10px;font-style:normal;font-weight:normal;text-anchor:end;" transform="rotate(-0, 50.6, 246.806249)" x="50.6" y="246.806249">0.2</text>
     </g>
    </g>
    <g id="ytick_3">
     <g id="line2d_8">
      <g>
       <use style="stroke:#000000;stroke-width:0.8;" x="57.6" xlink:href="#m6d879f6311" y="190.238498"/>
      </g>
     </g>
     <g id="text_9">
      <text style="font-family:DejaVu Sans;font-size:10px;font-style:normal;font-weight:normal;text-anchor:end;" transform="rotate(-0, 50.6, 194.037717)" x="50.6" y="194.037717">0.4</text>
     </g>
    </g>
    <g id="ytick_4">
     <g id="line2d_9">
      <g>
       <use style="stroke:#000000;stroke-width:0.8;" x="57.6" xlink:href="#m6d879f6311" y="137.469966"/>
      </g>
     </g>
     <g id="text_10">
      <text style="font-family:DejaVu Sans;font-size:10px;font-style:normal;font-weight:normal;text-anchor:end;" transform="rotate(-0, 50.6, 141.269185)" x="50.6" y="141.269185">0.6</text>
     </g>
    </g>
    <g id="ytick_5">
     <g id="line2d_10">
      <g>
       <use style="stroke:#000000;stroke-width:0.8;" x="57.6" xlink:href="#m6d879f6311" y="84.701434"/>
      </g>
     </g>
     <g id="text_11">
      <text style="font-family:DejaVu Sans;font-size:10px;font-style:normal;font-weight:normal;text-anchor:end;" transform="rotate(-0, 50.6, 88.500653)" x="50.6" y="88.500653">0.8</text>
     </g>
    </g>
    <g id="text_12">
     <text style="font-family:DejaVu Sans;font-size:10px;font-style:normal;font-weight:normal;text-anchor:middle;" transform="rotate(-90, 28.617187, 174.528)" x="28.617187" y="174.528">Simulated Mean / Function Value</text>
    </g>
   </g>
   <g id="line2d_11">
    <path clip-path="url(#p7a8e425159)" d="M 73.832727 295.488 
L 77.480531 292.823456 
L 81.128335 290.158911 
L 84.776139 287.494367 
L 88.423943 284.829823 
L 92.071747 282.165278 
L 95.719551 279.500734 
L 99.367354 276.836189 
L 103.015158 274.171645 
L 106.662962 271.507101 
L 110.310766 268.842556 
L 113.95857 266.178012 
L 117.606374 263.513468 
L 121.254178 260.848923 
L 124.901982 258.184379 
L 128.549785 255.519835 
L 132.197589 252.85529 
L 135.845393 250.190746 
L 139.493197 247.526202 
L 143.141001 244.861657 
L 146.788805 242.197113 
L 150.436609 239.532568 
L 154.084413 236.868024 
L 157.732217 234.20348 
L 161.38002 231.538935 
L 165.027824 228.874391 
L 168.675628 226.209847 
L 172.323432 223.545302 
L 175.971236 220.880758 
L 179.61904 218.216214 
L 183.266844 215.551669 
L 186.914648 212.887125 
L 190.562451 210.222581 
L 194.210255 207.558036 
L 197.858059 204.893492 
L 201.505863 202.228947 
L 205.153667 199.564403 
L 208.801471 196.899859 
L 212.449275 194.235314 
L 216.097079 191.57077 
L 219.744883 188.906226 
L 223.392686 186.241681 
L 227.04049 183.577137 
L 230.688294 180.912593 
L 234.336098 178.248048 
L 237.983902 175.583504 
L 241.631706 172.91896 
L 245.27951 170.254415 
L 248.927314 167.589871 
L 252.575117 164.925326 
L 256.222921 162.260782 
L 259.870725 159.596238 
L 263.518529 156.931693 
L 267.166333 154.267149 
L 270.814137 151.602605 
L 274.461941 148.93806 
L 278.109745 146.273516 
L 281.757549 143.608972 
L 285.405352 140.944427 
L 289.053156 138.279883 
L 292.70096 135.615339 
L 296.348764 132.950794 
L 299.996568 130.28625 
L 303.644372 127.621705 
L 307.292176 124.957161 
L 310.93998 122.292617 
L 314.587783 119.628072 
L 318.235587 116.963528 
L 321.883391 114.298984 
L 325.531195 111.634439 
L 329.178999 108.969895 
L 332.826803 106.305351 
L 336.474607 103.640806 
L 340.122411 100.976262 
L 343.770215 98.311718 
L 347.418018 95.647173 
L 351.065822 92.982629 
L 354.713626 90.318084 
L 358.36143 87.65354 
L 362.009234 84.988996 
L 365.657038 82.324451 
L 369.304842 79.659907 
L 372.952646 76.995363 
L 376.600449 74.330818 
L 380.248253 71.666274 
L 383.896057 69.00173 
L 387.543861 66.337185 
L 391.191665 63.672641 
L 394.839469 61.008097 
L 398.487273 58.343552 
" style="fill:none;stroke:#1f77b4;stroke-linecap:square;stroke-width:1.5;"/>
   </g>
   <g id="line2d_12">
    <path clip-path="url(#p7a8e425159)" d="M 124.901982 260.420645 
M 132.197589 255.143792 
M 139.493197 253.560736 
L 143.141001 239.313233 
L 146.788805 246.700827 
L 150.436609 241.951659 
L 154.084413 236.674806 
M 161.38002 224.538044 
L 165.027824 224.010358 
M 175.971236 217.150449 
L 179.61904 220.844246 
L 183.266844 217.150449 
L 186.914648 213.456652 
L 190.562451 215.039708 
L 194.210255 211.873596 
L 197.858059 201.847575 
M 205.153667 199.209148 
L 208.801471 195.515351 
L 212.449275 198.153778 
L 216.097079 187.600071 
L 219.744883 192.349239 
L 223.392686 184.433959 
L 227.04049 181.795533 
L 230.688294 187.600071 
L 234.336098 169.65877 
L 237.983902 182.850903 
L 241.631706 175.463309 
L 245.27951 174.935624 
L 248.927314 157.522008 
L 252.575117 170.186456 
L 256.222921 157.522008 
L 259.870725 164.909603 
L 263.518529 152.245155 
L 267.166333 161.215805 
L 270.814137 150.662099 
L 274.461941 152.245155 
L 278.109745 145.385246 
L 281.757549 143.274504 
L 285.405352 144.329875 
L 289.053156 129.554686 
L 292.70096 133.776169 
L 296.348764 131.665427 
L 299.996568 132.193113 
L 303.644372 129.027001 
L 307.292176 128.499315 
L 310.93998 117.417924 
L 314.587783 107.919588 
L 318.235587 123.222462 
L 321.883391 117.417924 
L 325.531195 102.115049 
L 329.178999 104.753476 
L 332.826803 108.974959 
L 336.474607 101.587364 
L 340.122411 105.281161 
L 343.770215 96.838196 
L 347.418018 94.727455 
L 351.065822 91.033658 
L 354.713626 90.505972 
L 358.36143 84.701434 
L 362.009234 86.812175 
L 365.657038 97.893567 
L 369.304842 86.812175 
M 376.600449 73.092357 
L 380.248253 74.675413 
L 383.896057 76.786154 
L 387.543861 73.620042 
L 391.191665 57.789483 
L 394.839469 61.48328 
L 398.487273 63.066336 
" style="fill:none;stroke:#ff7f0e;stroke-linecap:square;stroke-width:1.5;"/>
   </g>
   <g id="line2d_13">
    <path clip-path="url(#p7a8e425159)" d="M 150.436609 240.368603 
L 154.084413 229.814897 
M 161.38002 222.427302 
L 165.027824 221.899617 
M 172.323432 226.648785 
L 175.971236 218.20582 
L 179.61904 211.873596 
L 183.266844 218.733505 
L 186.914648 210.818225 
L 190.562451 211.345911 
L 194.210255 207.652113 
L 197.858059 205.541372 
L 201.505863 206.596743 
L 205.153667 205.541372 
L 208.801471 200.264519 
L 212.449275 192.349239 
L 216.097079 198.681463 
L 219.744883 184.433959 
L 223.392686 184.961645 
L 227.04049 182.850903 
L 230.688294 192.349239 
L 234.336098 179.684791 
L 237.983902 177.046365 
L 241.631706 169.65877 
L 245.27951 179.157106 
L 248.927314 170.186456 
L 252.575117 164.381917 
L 256.222921 161.743491 
L 259.870725 164.909603 
L 263.518529 168.075714 
L 267.166333 154.355896 
L 270.814137 152.245155 
L 274.461941 143.274504 
L 278.109745 149.079043 
L 281.757549 155.411267 
L 285.405352 140.636078 
L 289.053156 136.942281 
L 292.70096 134.303854 
L 296.348764 136.942281 
L 299.996568 123.750148 
L 303.644372 133.776169 
L 307.292176 127.443945 
L 310.93998 123.750148 
L 314.587783 131.665427 
L 318.235587 132.720798 
L 321.883391 111.0857 
L 325.531195 108.447273 
L 329.178999 109.502644 
L 332.826803 103.698105 
L 336.474607 113.196441 
L 340.122411 102.642735 
L 343.770215 96.310511 
L 347.418018 94.19977 
L 351.065822 88.395231 
L 354.713626 83.646063 
L 358.36143 95.782826 
L 362.009234 83.118378 
L 365.657038 82.063007 
L 369.304842 82.063007 
L 372.952646 78.896895 
L 376.600449 79.952266 
L 380.248253 73.620042 
L 383.896057 65.704762 
L 387.543861 63.066336 
L 391.191665 68.870874 
L 394.839469 58.844853 
L 398.487273 53.568 
" style="fill:none;stroke:#2ca02c;stroke-linecap:square;stroke-width:1.5;"/>
   </g>
   <g id="line2d_14">
    <path clip-path="url(#p7a8e425159)" d="M 150.436609 240.896289 
M 161.38002 227.17647 
L 165.027824 231.925638 
L 168.675628 229.814897 
M 183.266844 218.20582 
L 186.914648 209.235169 
M 197.858059 203.958316 
L 201.505863 205.541372 
M 208.801471 194.45998 
L 212.449275 194.987666 
L 216.097079 190.766183 
L 219.744883 191.293869 
M 227.04049 170.186456 
L 230.688294 189.710813 
L 234.336098 182.323218 
L 237.983902 188.655442 
L 241.631706 161.743491 
L 245.27951 178.629421 
M 252.575117 162.271176 
L 256.222921 159.105064 
L 259.870725 143.274504 
M 267.166333 152.77284 
L 270.814137 145.912931 
L 274.461941 141.163763 
L 278.109745 144.85756 
L 281.757549 142.746819 
L 285.405352 149.606728 
L 289.053156 144.85756 
L 292.70096 133.248483 
L 296.348764 124.805518 
L 299.996568 131.137742 
L 303.644372 123.750148 
L 307.292176 117.945609 
L 310.93998 124.277833 
L 314.587783 127.443945 
L 318.235587 119.00098 
L 321.883391 109.502644 
L 325.531195 108.447273 
L 329.178999 101.059679 
L 332.826803 106.864217 
L 336.474607 93.144399 
L 340.122411 102.115049 
L 343.770215 100.004308 
L 347.418018 86.28449 
L 351.065822 96.310511 
L 354.713626 84.701434 
L 358.36143 89.450602 
L 362.009234 75.730783 
L 365.657038 88.395231 
L 369.304842 74.147727 
L 372.952646 72.564672 
L 376.600449 74.147727 
L 380.248253 67.287818 
L 383.896057 73.092357 
L 387.543861 65.704762 
L 391.191665 68.343189 
L 394.839469 65.177077 
L 398.487273 59.900224 
" style="fill:none;stroke:#d62728;stroke-linecap:square;stroke-width:1.5;"/>
   </g>
   <g id="patch_3">
    <path d="M 57.6 307.584 
L 57.6 41.472 
" style="fill:none;stroke:#000000;stroke-linecap:square;stroke-linejoin:miter;stroke-width:0.8;"/>
   </g>
   <g id="patch_4">
    <path d="M 414.72 307.584 
L 414.72 41.472 
" style="fill:none;stroke:#000000;stroke-linecap:square;stroke-linejoin:miter;stroke-width:0.8;"/>
   </g>
   <g id="patch_5">
    <path d="M 57.6 307.584 
L 414.72 307.584 
" style="fill:none;stroke:#000000;stroke-linecap:square;stroke-linejoin:miter;stroke-width:0.8;"/>
   </g>
   <g id="patch_6">
    <path d="M 57.6 41.472 
L 414.72 41.472 
" style="fill:none;stroke:#000000;stroke-linecap:square;stroke-linejoin:miter;stroke-width:0.8;"/>
   </g>
   <g id="text_13">
    <text style="font-family:DejaVu Sans;font-size:12px;font-style:normal;font-weight:normal;text-anchor:middle;" transform="rotate(-0, 236.16, 35.472)" x="236.16" y="35.472">Expected Value in 2014 Sub. x-0.1 Algorithm</text>
   </g>
   <g id="legend_1">
    <g id="patch_7">
     <path d="M 64.6 108.1845 
L 273.001562 108.1845 
Q 275.001562 108.1845 275.001562 106.1845 
L 275.001562 48.472 
Q 275.001562 46.472 273.001562 46.472 
L 64.6 46.472 
Q 62.6 46.472 62.6 48.472 
L 62.6 106.1845 
Q 62.6 108.1845 64.6 108.1845 
z
" style="fill:#ffffff;opacity:0.8;stroke:#cccccc;stroke-linejoin:miter;"/>
    </g>
    <g id="line2d_15">
     <path d="M 66.6 54.570438 
L 86.6 54.570438 
" style="fill:none;stroke:#1f77b4;stroke-linecap:square;stroke-width:1.5;"/>
    </g>
    <g id="line2d_16"/>
    <g id="text_14">
     <text style="font-family:DejaVu Sans;font-size:10px;font-style:normal;font-weight:normal;text-anchor:start;" transform="rotate(-0, 94.6, 58.070438)" x="94.6" y="58.070438">2014 Sub. x-0.1</text>
    </g>
    <g id="line2d_17">
     <path d="M 66.6 69.248563 
L 86.6 69.248563 
" style="fill:none;stroke:#ff7f0e;stroke-linecap:square;stroke-width:1.5;"/>
    </g>
    <g id="line2d_18"/>
    <g id="text_15">
     <text style="font-family:DejaVu Sans;font-size:10px;font-style:normal;font-weight:normal;text-anchor:start;" transform="rotate(-0, 94.6, 72.748563)" x="94.6" y="72.748563">Simulated Mean of 2014 Sub. x-0.1</text>
    </g>
    <g id="line2d_19">
     <path d="M 66.6 83.926688 
L 86.6 83.926688 
" style="fill:none;stroke:#2ca02c;stroke-linecap:square;stroke-width:1.5;"/>
    </g>
    <g id="line2d_20"/>
    <g id="text_16">
     <text style="font-family:DejaVu Sans;font-size:10px;font-style:normal;font-weight:normal;text-anchor:start;" transform="rotate(-0, 94.6, 87.426688)" x="94.6" y="87.426688">Simulated Mean of 2016 Sub. x-0.1</text>
    </g>
    <g id="line2d_21">
     <path d="M 66.6 98.604813 
L 86.6 98.604813 
" style="fill:none;stroke:#d62728;stroke-linecap:square;stroke-width:1.5;"/>
    </g>
    <g id="line2d_22"/>
    <g id="text_17">
     <text style="font-family:DejaVu Sans;font-size:10px;font-style:normal;font-weight:normal;text-anchor:start;" transform="rotate(-0, 94.6, 102.104813)" x="94.6" y="102.104813">Simulated Mean of 2019 Sub. x-0.1</text>
    </g>
   </g>
  </g>
 </g>
 <defs>
  <clipPath id="p7a8e425159">
   <rect height="266.112" width="357.12" x="57.6" y="41.472"/>
  </clipPath>
 </defs>
</svg>
