<?xml version="1.0" encoding="utf-8" standalone="no"?>
<!DOCTYPE svg PUBLIC "-//W3C//DTD SVG 1.1//EN"
  "http://www.w3.org/Graphics/SVG/1.1/DTD/svg11.dtd">
<!-- Created with matplotlib (https://matplotlib.org/) -->
<svg height="345.6pt" version="1.1" viewBox="0 0 460.8 345.6" width="460.8pt" xmlns="http://www.w3.org/2000/svg" xmlns:xlink="http://www.w3.org/1999/xlink">
 <defs>
  <style type="text/css">
*{stroke-linecap:butt;stroke-linejoin:round;}
  </style>
 </defs>
 <g id="figure_1">
  <g id="patch_1">
   <path d="M 0 345.6 
L 460.8 345.6 
L 460.8 0 
L 0 0 
z
" style="fill:#ffffff;"/>
  </g>
  <g id="axes_1">
   <g id="patch_2">
    <path d="M 57.6 307.584 
L 414.72 307.584 
L 414.72 41.472 
L 57.6 41.472 
z
" style="fill:#ffffff;"/>
   </g>
   <g id="matplotlib.axis_1">
    <g id="xtick_1">
     <g id="line2d_1">
      <defs>
       <path d="M 0 0 
L 0 3.5 
" id="m49f9ecf066" style="stroke:#000000;stroke-width:0.8;"/>
      </defs>
      <g>
       <use style="stroke:#000000;stroke-width:0.8;" x="73.767121" xlink:href="#m49f9ecf066" y="307.584"/>
      </g>
     </g>
     <g id="text_1">
      <text style="font-family:DejaVu Sans;font-size:10px;font-style:normal;font-weight:normal;text-anchor:middle;" transform="rotate(-0, 73.767121, 322.182437)" x="73.767121" y="322.182437">0.0</text>
     </g>
    </g>
    <g id="xtick_2">
     <g id="line2d_2">
      <g>
       <use style="stroke:#000000;stroke-width:0.8;" x="139.373711" xlink:href="#m49f9ecf066" y="307.584"/>
      </g>
     </g>
     <g id="text_2">
      <text style="font-family:DejaVu Sans;font-size:10px;font-style:normal;font-weight:normal;text-anchor:middle;" transform="rotate(-0, 139.373711, 322.182437)" x="139.373711" y="322.182437">0.1</text>
     </g>
    </g>
    <g id="xtick_3">
     <g id="line2d_3">
      <g>
       <use style="stroke:#000000;stroke-width:0.8;" x="204.980302" xlink:href="#m49f9ecf066" y="307.584"/>
      </g>
     </g>
     <g id="text_3">
      <text style="font-family:DejaVu Sans;font-size:10px;font-style:normal;font-weight:normal;text-anchor:middle;" transform="rotate(-0, 204.980302, 322.182437)" x="204.980302" y="322.182437">0.2</text>
     </g>
    </g>
    <g id="xtick_4">
     <g id="line2d_4">
      <g>
       <use style="stroke:#000000;stroke-width:0.8;" x="270.586893" xlink:href="#m49f9ecf066" y="307.584"/>
      </g>
     </g>
     <g id="text_4">
      <text style="font-family:DejaVu Sans;font-size:10px;font-style:normal;font-weight:normal;text-anchor:middle;" transform="rotate(-0, 270.586893, 322.182437)" x="270.586893" y="322.182437">0.3</text>
     </g>
    </g>
    <g id="xtick_5">
     <g id="line2d_5">
      <g>
       <use style="stroke:#000000;stroke-width:0.8;" x="336.193484" xlink:href="#m49f9ecf066" y="307.584"/>
      </g>
     </g>
     <g id="text_5">
      <text style="font-family:DejaVu Sans;font-size:10px;font-style:normal;font-weight:normal;text-anchor:middle;" transform="rotate(-0, 336.193484, 322.182437)" x="336.193484" y="322.182437">0.4</text>
     </g>
    </g>
    <g id="xtick_6">
     <g id="line2d_6">
      <g>
       <use style="stroke:#000000;stroke-width:0.8;" x="401.800074" xlink:href="#m49f9ecf066" y="307.584"/>
      </g>
     </g>
     <g id="text_6">
      <text style="font-family:DejaVu Sans;font-size:10px;font-style:normal;font-weight:normal;text-anchor:middle;" transform="rotate(-0, 401.800074, 322.182437)" x="401.800074" y="322.182437">0.5</text>
     </g>
    </g>
    <g id="text_7">
     <text style="font-family:DejaVu Sans;font-size:10px;font-style:normal;font-weight:normal;text-anchor:middle;" transform="rotate(-0, 236.16, 335.860562)" x="236.16" y="335.860562">Input Coin's Heads Probability (λ)</text>
    </g>
   </g>
   <g id="matplotlib.axis_2">
    <g id="ytick_1">
     <g id="line2d_7">
      <defs>
       <path d="M 0 0 
L -3.5 0 
" id="m6f6efe5667" style="stroke:#000000;stroke-width:0.8;"/>
      </defs>
      <g>
       <use style="stroke:#000000;stroke-width:0.8;" x="57.6" xlink:href="#m6f6efe5667" y="299.654646"/>
      </g>
     </g>
     <g id="text_8">
      <text style="font-family:DejaVu Sans;font-size:10px;font-style:normal;font-weight:normal;text-anchor:end;" transform="rotate(-0, 50.6, 303.453864)" x="50.6" y="303.453864">0</text>
     </g>
    </g>
    <g id="ytick_2">
     <g id="line2d_8">
      <g>
       <use style="stroke:#000000;stroke-width:0.8;" x="57.6" xlink:href="#m6f6efe5667" y="257.992356"/>
      </g>
     </g>
     <g id="text_9">
      <text style="font-family:DejaVu Sans;font-size:10px;font-style:normal;font-weight:normal;text-anchor:end;" transform="rotate(-0, 50.6, 261.791575)" x="50.6" y="261.791575">20</text>
     </g>
    </g>
    <g id="ytick_3">
     <g id="line2d_9">
      <g>
       <use style="stroke:#000000;stroke-width:0.8;" x="57.6" xlink:href="#m6f6efe5667" y="216.330067"/>
      </g>
     </g>
     <g id="text_10">
      <text style="font-family:DejaVu Sans;font-size:10px;font-style:normal;font-weight:normal;text-anchor:end;" transform="rotate(-0, 50.6, 220.129285)" x="50.6" y="220.129285">40</text>
     </g>
    </g>
    <g id="ytick_4">
     <g id="line2d_10">
      <g>
       <use style="stroke:#000000;stroke-width:0.8;" x="57.6" xlink:href="#m6f6efe5667" y="174.667777"/>
      </g>
     </g>
     <g id="text_11">
      <text style="font-family:DejaVu Sans;font-size:10px;font-style:normal;font-weight:normal;text-anchor:end;" transform="rotate(-0, 50.6, 178.466996)" x="50.6" y="178.466996">60</text>
     </g>
    </g>
    <g id="ytick_5">
     <g id="line2d_11">
      <g>
       <use style="stroke:#000000;stroke-width:0.8;" x="57.6" xlink:href="#m6f6efe5667" y="133.005487"/>
      </g>
     </g>
     <g id="text_12">
      <text style="font-family:DejaVu Sans;font-size:10px;font-style:normal;font-weight:normal;text-anchor:end;" transform="rotate(-0, 50.6, 136.804706)" x="50.6" y="136.804706">80</text>
     </g>
    </g>
    <g id="ytick_6">
     <g id="line2d_12">
      <g>
       <use style="stroke:#000000;stroke-width:0.8;" x="57.6" xlink:href="#m6f6efe5667" y="91.343198"/>
      </g>
     </g>
     <g id="text_13">
      <text style="font-family:DejaVu Sans;font-size:10px;font-style:normal;font-weight:normal;text-anchor:end;" transform="rotate(-0, 50.6, 95.142417)" x="50.6" y="95.142417">100</text>
     </g>
    </g>
    <g id="ytick_7">
     <g id="line2d_13">
      <g>
       <use style="stroke:#000000;stroke-width:0.8;" x="57.6" xlink:href="#m6f6efe5667" y="49.680908"/>
      </g>
     </g>
     <g id="text_14">
      <text style="font-family:DejaVu Sans;font-size:10px;font-style:normal;font-weight:normal;text-anchor:end;" transform="rotate(-0, 50.6, 53.480127)" x="50.6" y="53.480127">120</text>
     </g>
    </g>
    <g id="text_15">
     <text style="font-family:DejaVu Sans;font-size:10px;font-style:normal;font-weight:normal;text-anchor:middle;" transform="rotate(-90, 25.432813, 174.528)" x="25.432813" y="174.528">Coin Flips Needed</text>
    </g>
   </g>
   <g id="line2d_14">
    <path clip-path="url(#pc60ac9c383)" d="M 73.832727 295.488 
L 80.45833 295.445041 
L 87.083933 295.400272 
L 93.709536 295.353579 
L 100.335139 295.304832 
L 106.960742 295.253895 
L 113.586345 295.200616 
L 120.211948 295.14483 
L 126.837551 295.086355 
L 133.463154 295.024993 
L 140.088757 294.960524 
L 146.71436 294.892705 
L 153.339963 294.82127 
L 159.965566 294.74592 
L 166.591169 294.666326 
L 173.216772 294.582117 
L 179.842375 294.492881 
L 186.467978 294.398153 
L 193.093581 294.297411 
L 199.719184 294.190063 
L 206.344787 294.075436 
L 212.97039 293.952766 
L 219.595993 293.821175 
L 226.221596 293.679652 
L 232.847199 293.527029 
L 239.472801 293.361948 
L 246.098404 293.182817 
L 252.724007 292.987763 
L 259.34961 292.774564 
L 265.975213 292.540566 
L 272.600816 292.282567 
L 279.226419 291.996677 
L 285.852022 291.678114 
L 292.477625 291.320938 
L 299.103228 290.917674 
L 305.728831 290.458787 
L 312.354434 289.931917 
L 318.980037 289.320748 
L 325.60564 288.603288 
L 332.231243 287.74917 
L 338.856846 286.715237 
L 345.482449 285.438026 
L 352.108052 283.820225 
L 358.733655 281.70464 
L 365.359258 278.819751 
L 371.984861 274.652688 
L 378.610464 268.104447 
L 385.236067 256.317614 
L 391.86167 228.815002 
L 398.487273 91.301944 
" style="fill:none;stroke:#1f77b4;stroke-linecap:square;stroke-width:1.5;"/>
   </g>
   <g id="line2d_15">
    <path clip-path="url(#pc60ac9c383)" d="M 73.832727 284.781208 
L 80.45833 282.952234 
L 87.083933 283.006395 
L 93.709536 283.827142 
L 100.335139 283.977126 
L 106.960742 283.14388 
L 113.586345 280.015042 
L 120.211948 282.048162 
L 126.837551 281.385732 
L 133.463154 282.19398 
L 140.088757 283.310529 
L 146.71436 281.469056 
L 153.339963 283.377189 
L 159.965566 282.968899 
L 166.591169 282.952234 
L 173.216772 281.439893 
L 179.842375 283.2772 
L 186.467978 279.90672 
L 193.093581 282.727257 
L 199.719184 280.002544 
L 206.344787 281.031602 
L 212.97039 280.748299 
L 219.595993 276.973695 
L 226.221596 280.173359 
L 232.847199 279.660913 
L 239.472801 275.282206 
L 246.098404 274.857251 
L 252.724007 274.657272 
L 259.34961 274.090665 
L 265.975213 271.37845 
L 272.600816 272.211696 
L 279.226419 266.387307 
L 285.852022 272.220028 
L 292.477625 270.341059 
L 299.103228 266.720606 
L 305.728831 263.366791 
L 312.354434 259.608853 
L 318.980037 260.125465 
L 325.60564 251.743013 
L 332.231243 247.639277 
L 338.856846 247.056005 
L 345.482449 246.731039 
L 352.108052 234.311511 
" style="fill:none;stroke:#ff7f0e;stroke-linecap:square;stroke-width:1.5;"/>
   </g>
   <g id="line2d_16">
    <path clip-path="url(#pc60ac9c383)" d="M 73.832727 274.136493 
L 80.45833 274.553116 
L 87.083933 275.115557 
L 93.709536 274.382301 
L 100.335139 274.257314 
L 106.960742 270.303563 
L 113.586345 270.857671 
L 120.211948 271.732579 
L 126.837551 270.666025 
L 133.463154 270.370222 
L 140.088757 269.816114 
L 146.71436 270.915998 
L 153.339963 269.432821 
L 159.965566 265.63322 
L 166.591169 266.42897 
L 173.216772 266.466466 
L 179.842375 265.066613 
L 186.467978 265.170769 
L 193.093581 262.641868 
L 199.719184 260.867054 
L 206.344787 256.959131 
L 212.97039 260.587917 
L 219.595993 259.325549 
L 226.221596 252.301287 
L 232.847199 259.104739 
L 239.472801 251.468042 
L 246.098404 250.659793 
L 252.724007 250.043191 
L 259.34961 252.284622 
L 265.975213 249.101624 
L 272.600816 243.027262 
L 279.226419 232.457539 
L 285.852022 236.711259 
L 292.477625 232.370048 
L 299.103228 231.720116 
L 305.728831 224.808342 
M 318.980037 207.705973 
M 338.856846 196.965434 
" style="fill:none;stroke:#2ca02c;stroke-linecap:square;stroke-width:1.5;"/>
   </g>
   <g id="line2d_17">
    <path clip-path="url(#pc60ac9c383)" d="M 73.832727 295.480084 
L 80.45833 295.459253 
L 87.083933 294.617675 
L 93.709536 295.07596 
L 100.335139 293.376139 
L 106.960742 293.4303 
L 113.586345 291.792972 
L 120.211948 289.659862 
L 126.837551 289.897337 
L 133.463154 288.180851 
L 140.088757 283.518841 
L 146.71436 287.14346 
L 153.339963 284.406248 
L 159.965566 283.389688 
L 166.591169 280.456663 
L 173.216772 276.094621 
L 179.842375 276.852875 
L 186.467978 275.511349 
L 193.093581 267.991306 
L 199.719184 264.050053 
L 206.344787 265.904025 
L 212.97039 264.958291 
L 219.595993 256.592503 
L 226.221596 256.759152 
L 232.847199 252.134638 
" style="fill:none;stroke:#d62728;stroke-linecap:square;stroke-width:1.5;"/>
   </g>
   <g id="line2d_18">
    <path clip-path="url(#pc60ac9c383)" d="M 73.832727 286.610183 
L 80.45833 287.664239 
L 87.083933 287.218452 
L 93.709536 287.435096 
L 100.335139 287.501756 
L 106.960742 286.064407 
L 113.586345 283.514675 
L 120.211948 284.12711 
L 126.837551 283.61883 
L 133.463154 282.718925 
L 140.088757 283.389688 
L 146.71436 283.256368 
L 153.339963 284.689551 
L 159.965566 283.952129 
L 166.591169 282.9564 
L 173.216772 281.898178 
L 179.842375 280.494159 
L 186.467978 277.186173 
L 193.093581 278.04025 
L 199.719184 276.936199 
L 206.344787 278.111076 
L 212.97039 273.37824 
L 219.595993 273.957345 
L 226.221596 275.490518 
L 232.847199 276.119618 
L 239.472801 271.770075 
L 246.098404 270.203573 
L 252.724007 271.520102 
L 259.34961 270.920165 
L 265.975213 266.724772 
L 272.600816 263.487612 
L 279.226419 261.991936 
L 285.852022 247.693438 
L 292.477625 253.059541 
L 299.103228 254.663539 
L 305.728831 257.438248 
M 325.60564 242.273174 
" style="fill:none;stroke:#9467bd;stroke-linecap:square;stroke-width:1.5;"/>
   </g>
   <g id="line2d_19">
    <path clip-path="url(#pc60ac9c383)" d="M 80.45833 53.568 
L 87.083933 160.977549 
L 93.709536 185.5583 
L 100.335139 209.9849 
L 106.960742 218.388184 
L 113.586345 226.433172 
L 120.211948 231.945093 
L 126.837551 232.928323 
L 133.463154 235.261411 
L 140.088757 239.552627 
L 146.71436 241.085799 
L 153.339963 239.806767 
L 159.965566 241.944042 
L 166.591169 242.777288 
L 173.216772 243.739687 
L 179.842375 245.535332 
L 186.467978 248.651671 
L 193.093581 241.485757 
L 199.719184 248.75166 
L 206.344787 243.077256 
L 212.97039 245.110376 
L 219.595993 245.481171 
L 226.221596 245.493669 
L 232.847199 249.03913 
" style="fill:none;stroke:#8c564b;stroke-linecap:square;stroke-width:1.5;"/>
   </g>
   <g id="patch_3">
    <path d="M 57.6 307.584 
L 57.6 41.472 
" style="fill:none;stroke:#000000;stroke-linecap:square;stroke-linejoin:miter;stroke-width:0.8;"/>
   </g>
   <g id="patch_4">
    <path d="M 414.72 307.584 
L 414.72 41.472 
" style="fill:none;stroke:#000000;stroke-linecap:square;stroke-linejoin:miter;stroke-width:0.8;"/>
   </g>
   <g id="patch_5">
    <path d="M 57.6 307.584 
L 414.72 307.584 
" style="fill:none;stroke:#000000;stroke-linecap:square;stroke-linejoin:miter;stroke-width:0.8;"/>
   </g>
   <g id="patch_6">
    <path d="M 57.6 41.472 
L 414.72 41.472 
" style="fill:none;stroke:#000000;stroke-linecap:square;stroke-linejoin:miter;stroke-width:0.8;"/>
   </g>
   <g id="text_16">
    <text style="font-family:DejaVu Sans;font-size:12px;font-style:normal;font-weight:normal;text-anchor:middle;" transform="rotate(-0, 236.16, 35.472)" x="236.16" y="35.472">Coin Flips for x*2.0</text>
   </g>
   <g id="legend_1">
    <g id="patch_7">
     <path d="M 101.533437 137.54075 
L 370.786563 137.54075 
Q 372.786563 137.54075 372.786563 135.54075 
L 372.786563 48.472 
Q 372.786563 46.472 370.786563 46.472 
L 101.533437 46.472 
Q 99.533437 46.472 99.533437 48.472 
L 99.533437 135.54075 
Q 99.533437 137.54075 101.533437 137.54075 
z
" style="fill:#ffffff;opacity:0.8;stroke:#cccccc;stroke-linejoin:miter;"/>
    </g>
    <g id="line2d_20">
     <path d="M 103.533437 54.570438 
L 123.533437 54.570438 
" style="fill:none;stroke:#1f77b4;stroke-linecap:square;stroke-width:1.5;"/>
    </g>
    <g id="line2d_21"/>
    <g id="text_17">
     <text style="font-family:DejaVu Sans;font-size:10px;font-style:normal;font-weight:normal;text-anchor:start;" transform="rotate(-0, 131.533437, 58.070438)" x="131.533437" y="58.070438">Coin Flip Lower Bound</text>
    </g>
    <g id="line2d_22">
     <path d="M 103.533437 69.248563 
L 123.533437 69.248563 
" style="fill:none;stroke:#ff7f0e;stroke-linecap:square;stroke-width:1.5;"/>
    </g>
    <g id="line2d_23"/>
    <g id="text_18">
     <text style="font-family:DejaVu Sans;font-size:10px;font-style:normal;font-weight:normal;text-anchor:start;" transform="rotate(-0, 131.533437, 72.748563)" x="131.533437" y="72.748563">Avg. Coins Flipped 2014 Lin. x*2.0</text>
    </g>
    <g id="line2d_24">
     <path d="M 103.533437 83.926688 
L 123.533437 83.926688 
" style="fill:none;stroke:#2ca02c;stroke-linecap:square;stroke-width:1.5;"/>
    </g>
    <g id="line2d_25"/>
    <g id="text_19">
     <text style="font-family:DejaVu Sans;font-size:10px;font-style:normal;font-weight:normal;text-anchor:start;" transform="rotate(-0, 131.533437, 87.426688)" x="131.533437" y="87.426688">Avg. Coins Flipped 2016 Lin. x*2.0</text>
    </g>
    <g id="line2d_26">
     <path d="M 103.533437 98.604813 
L 123.533437 98.604813 
" style="fill:none;stroke:#d62728;stroke-linecap:square;stroke-width:1.5;"/>
    </g>
    <g id="line2d_27"/>
    <g id="text_20">
     <text style="font-family:DejaVu Sans;font-size:10px;font-style:normal;font-weight:normal;text-anchor:start;" transform="rotate(-0, 131.533437, 102.104813)" x="131.533437" y="102.104813">Avg. Coins Flipped Low-Mean Lin. x*2.0</text>
    </g>
    <g id="line2d_28">
     <path d="M 103.533437 113.282938 
L 123.533437 113.282938 
" style="fill:none;stroke:#9467bd;stroke-linecap:square;stroke-width:1.5;"/>
    </g>
    <g id="line2d_29"/>
    <g id="text_21">
     <text style="font-family:DejaVu Sans;font-size:10px;font-style:normal;font-weight:normal;text-anchor:start;" transform="rotate(-0, 131.533437, 116.782938)" x="131.533437" y="116.782938">Avg. Coins Flipped 2019x*2.0</text>
    </g>
    <g id="line2d_30">
     <path d="M 103.533437 127.961063 
L 123.533437 127.961063 
" style="fill:none;stroke:#8c564b;stroke-linecap:square;stroke-width:1.5;"/>
    </g>
    <g id="line2d_31"/>
    <g id="text_22">
     <text style="font-family:DejaVu Sans;font-size:10px;font-style:normal;font-weight:normal;text-anchor:start;" transform="rotate(-0, 131.533437, 131.461063)" x="131.533437" y="131.461063">Avg. Coins Flipped Low-Mean M=0.49999 x*2.0</text>
    </g>
   </g>
  </g>
 </g>
 <defs>
  <clipPath id="pc60ac9c383">
   <rect height="266.112" width="357.12" x="57.6" y="41.472"/>
  </clipPath>
 </defs>
</svg>
