<?xml version="1.0" encoding="utf-8" standalone="no"?>
<!DOCTYPE svg PUBLIC "-//W3C//DTD SVG 1.1//EN"
  "http://www.w3.org/Graphics/SVG/1.1/DTD/svg11.dtd">
<!-- Created with matplotlib (https://matplotlib.org/) -->
<svg height="345.6pt" version="1.1" viewBox="0 0 460.8 345.6" width="460.8pt" xmlns="http://www.w3.org/2000/svg" xmlns:xlink="http://www.w3.org/1999/xlink">
 <defs>
  <style type="text/css">
*{stroke-linecap:butt;stroke-linejoin:round;}
  </style>
 </defs>
 <g id="figure_1">
  <g id="patch_1">
   <path d="M 0 345.6 
L 460.8 345.6 
L 460.8 0 
L 0 0 
z
" style="fill:#ffffff;"/>
  </g>
  <g id="axes_1">
   <g id="patch_2">
    <path d="M 57.6 307.584 
L 414.72 307.584 
L 414.72 41.472 
L 57.6 41.472 
z
" style="fill:#ffffff;"/>
   </g>
   <g id="matplotlib.axis_1">
    <g id="xtick_1">
     <g id="line2d_1">
      <defs>
       <path d="M 0 0 
L 0 3.5 
" id="mcaa774a74c" style="stroke:#000000;stroke-width:0.8;"/>
      </defs>
      <g>
       <use style="stroke:#000000;stroke-width:0.8;" x="73.767121" xlink:href="#mcaa774a74c" y="307.584"/>
      </g>
     </g>
     <g id="text_1">
      <text style="font-family:DejaVu Sans;font-size:10px;font-style:normal;font-weight:normal;text-anchor:middle;" transform="rotate(-0, 73.767121, 322.182437)" x="73.767121" y="322.182437">0.0</text>
     </g>
    </g>
    <g id="xtick_2">
     <g id="line2d_2">
      <g>
       <use style="stroke:#000000;stroke-width:0.8;" x="139.373711" xlink:href="#mcaa774a74c" y="307.584"/>
      </g>
     </g>
     <g id="text_2">
      <text style="font-family:DejaVu Sans;font-size:10px;font-style:normal;font-weight:normal;text-anchor:middle;" transform="rotate(-0, 139.373711, 322.182437)" x="139.373711" y="322.182437">0.1</text>
     </g>
    </g>
    <g id="xtick_3">
     <g id="line2d_3">
      <g>
       <use style="stroke:#000000;stroke-width:0.8;" x="204.980302" xlink:href="#mcaa774a74c" y="307.584"/>
      </g>
     </g>
     <g id="text_3">
      <text style="font-family:DejaVu Sans;font-size:10px;font-style:normal;font-weight:normal;text-anchor:middle;" transform="rotate(-0, 204.980302, 322.182437)" x="204.980302" y="322.182437">0.2</text>
     </g>
    </g>
    <g id="xtick_4">
     <g id="line2d_4">
      <g>
       <use style="stroke:#000000;stroke-width:0.8;" x="270.586893" xlink:href="#mcaa774a74c" y="307.584"/>
      </g>
     </g>
     <g id="text_4">
      <text style="font-family:DejaVu Sans;font-size:10px;font-style:normal;font-weight:normal;text-anchor:middle;" transform="rotate(-0, 270.586893, 322.182437)" x="270.586893" y="322.182437">0.3</text>
     </g>
    </g>
    <g id="xtick_5">
     <g id="line2d_5">
      <g>
       <use style="stroke:#000000;stroke-width:0.8;" x="336.193484" xlink:href="#mcaa774a74c" y="307.584"/>
      </g>
     </g>
     <g id="text_5">
      <text style="font-family:DejaVu Sans;font-size:10px;font-style:normal;font-weight:normal;text-anchor:middle;" transform="rotate(-0, 336.193484, 322.182437)" x="336.193484" y="322.182437">0.4</text>
     </g>
    </g>
    <g id="xtick_6">
     <g id="line2d_6">
      <g>
       <use style="stroke:#000000;stroke-width:0.8;" x="401.800074" xlink:href="#mcaa774a74c" y="307.584"/>
      </g>
     </g>
     <g id="text_6">
      <text style="font-family:DejaVu Sans;font-size:10px;font-style:normal;font-weight:normal;text-anchor:middle;" transform="rotate(-0, 401.800074, 322.182437)" x="401.800074" y="322.182437">0.5</text>
     </g>
    </g>
    <g id="text_7">
     <text style="font-family:DejaVu Sans;font-size:10px;font-style:normal;font-weight:normal;text-anchor:middle;" transform="rotate(-0, 236.16, 335.860562)" x="236.16" y="335.860562">Input Coin's Heads Probability (λ)</text>
    </g>
   </g>
   <g id="matplotlib.axis_2">
    <g id="ytick_1">
     <g id="line2d_7">
      <defs>
       <path d="M 0 0 
L -3.5 0 
" id="md8679eeca4" style="stroke:#000000;stroke-width:0.8;"/>
      </defs>
      <g>
       <use style="stroke:#000000;stroke-width:0.8;" x="57.6" xlink:href="#md8679eeca4" y="299.725283"/>
      </g>
     </g>
     <g id="text_8">
      <text style="font-family:DejaVu Sans;font-size:10px;font-style:normal;font-weight:normal;text-anchor:end;" transform="rotate(-0, 50.6, 303.524502)" x="50.6" y="303.524502">0</text>
     </g>
    </g>
    <g id="ytick_2">
     <g id="line2d_8">
      <g>
       <use style="stroke:#000000;stroke-width:0.8;" x="57.6" xlink:href="#md8679eeca4" y="257.356691"/>
      </g>
     </g>
     <g id="text_9">
      <text style="font-family:DejaVu Sans;font-size:10px;font-style:normal;font-weight:normal;text-anchor:end;" transform="rotate(-0, 50.6, 261.15591)" x="50.6" y="261.15591">20</text>
     </g>
    </g>
    <g id="ytick_3">
     <g id="line2d_9">
      <g>
       <use style="stroke:#000000;stroke-width:0.8;" x="57.6" xlink:href="#md8679eeca4" y="214.988099"/>
      </g>
     </g>
     <g id="text_10">
      <text style="font-family:DejaVu Sans;font-size:10px;font-style:normal;font-weight:normal;text-anchor:end;" transform="rotate(-0, 50.6, 218.787318)" x="50.6" y="218.787318">40</text>
     </g>
    </g>
    <g id="ytick_4">
     <g id="line2d_10">
      <g>
       <use style="stroke:#000000;stroke-width:0.8;" x="57.6" xlink:href="#md8679eeca4" y="172.619507"/>
      </g>
     </g>
     <g id="text_11">
      <text style="font-family:DejaVu Sans;font-size:10px;font-style:normal;font-weight:normal;text-anchor:end;" transform="rotate(-0, 50.6, 176.418726)" x="50.6" y="176.418726">60</text>
     </g>
    </g>
    <g id="ytick_5">
     <g id="line2d_11">
      <g>
       <use style="stroke:#000000;stroke-width:0.8;" x="57.6" xlink:href="#md8679eeca4" y="130.250915"/>
      </g>
     </g>
     <g id="text_12">
      <text style="font-family:DejaVu Sans;font-size:10px;font-style:normal;font-weight:normal;text-anchor:end;" transform="rotate(-0, 50.6, 134.050134)" x="50.6" y="134.050134">80</text>
     </g>
    </g>
    <g id="ytick_6">
     <g id="line2d_12">
      <g>
       <use style="stroke:#000000;stroke-width:0.8;" x="57.6" xlink:href="#md8679eeca4" y="87.882323"/>
      </g>
     </g>
     <g id="text_13">
      <text style="font-family:DejaVu Sans;font-size:10px;font-style:normal;font-weight:normal;text-anchor:end;" transform="rotate(-0, 50.6, 91.681541)" x="50.6" y="91.681541">100</text>
     </g>
    </g>
    <g id="ytick_7">
     <g id="line2d_13">
      <g>
       <use style="stroke:#000000;stroke-width:0.8;" x="57.6" xlink:href="#md8679eeca4" y="45.513731"/>
      </g>
     </g>
     <g id="text_14">
      <text style="font-family:DejaVu Sans;font-size:10px;font-style:normal;font-weight:normal;text-anchor:end;" transform="rotate(-0, 50.6, 49.312949)" x="50.6" y="49.312949">120</text>
     </g>
    </g>
    <g id="text_15">
     <text style="font-family:DejaVu Sans;font-size:10px;font-style:normal;font-weight:normal;text-anchor:middle;" transform="rotate(-90, 25.432813, 174.528)" x="25.432813" y="174.528">Coin Flips Needed</text>
    </g>
   </g>
   <g id="line2d_14">
    <path clip-path="url(#p2b19111afb)" d="M 73.832727 295.488 
L 80.45833 295.444312 
L 87.083933 295.398785 
L 93.709536 295.3513 
L 100.335139 295.301727 
L 106.960742 295.249927 
L 113.586345 295.195744 
L 120.211948 295.139012 
L 126.837551 295.079546 
L 133.463154 295.017144 
L 140.088757 294.951581 
L 146.71436 294.882613 
L 153.339963 294.809967 
L 159.965566 294.73334 
L 166.591169 294.652396 
L 173.216772 294.566759 
L 179.842375 294.47601 
L 186.467978 294.379677 
L 193.093581 294.277227 
L 199.719184 294.168059 
L 206.344787 294.051489 
L 212.97039 293.92674 
L 219.595993 293.792917 
L 226.221596 293.648995 
L 232.847199 293.493785 
L 239.472801 293.325905 
L 246.098404 293.143737 
L 252.724007 292.945376 
L 259.34961 292.728563 
L 265.975213 292.490598 
L 272.600816 292.228226 
L 279.226419 291.937489 
L 285.852022 291.613525 
L 292.477625 291.250293 
L 299.103228 290.840193 
L 305.728831 290.373526 
L 312.354434 289.837724 
L 318.980037 289.216194 
L 325.60564 288.486571 
L 332.231243 287.617973 
L 338.856846 286.566512 
L 345.482449 285.267648 
L 352.108052 283.622421 
L 358.733655 281.47097 
L 365.359258 278.537173 
L 371.984861 274.299466 
L 378.610464 267.640213 
L 385.236067 255.653557 
L 391.86167 227.684692 
L 398.487273 87.840369 
" style="fill:none;stroke:#1f77b4;stroke-linecap:square;stroke-width:1.5;"/>
   </g>
   <g id="line2d_15">
    <path clip-path="url(#p2b19111afb)" d="M 73.832727 282.599898 
L 80.45833 283.688771 
L 87.083933 282.985452 
L 93.709536 282.790557 
L 100.335139 282.561766 
L 106.960742 282.951557 
L 113.586345 277.43093 
L 120.211948 283.544718 
L 126.837551 282.676162 
L 133.463154 281.472894 
L 140.088757 281.189024 
L 146.71436 282.400766 
L 153.339963 280.604337 
L 159.965566 282.413476 
L 166.591169 280.600101 
L 173.216772 281.095813 
L 179.842375 282.671925 
L 186.467978 280.498416 
L 193.093581 280.833128 
L 199.719184 281.667789 
L 206.344787 278.727409 
L 212.97039 277.778352 
L 219.595993 276.960638 
L 226.221596 274.515971 
L 232.847199 279.235832 
L 239.472801 275.070999 
L 246.098404 278.629961 
L 252.724007 271.77896 
L 259.34961 274.507497 
L 265.975213 266.143937 
L 272.600816 271.783197 
L 279.226419 271.139194 
M 292.477625 268.385235 
L 299.103228 267.720049 
M 312.354434 255.149287 
L 318.980037 265.364355 
M 332.231243 260.208097 
L 338.856846 247.616152 
M 358.733655 241.637943 
" style="fill:none;stroke:#ff7f0e;stroke-linecap:square;stroke-width:1.5;"/>
   </g>
   <g id="line2d_16">
    <path clip-path="url(#p2b19111afb)" d="M 73.832727 274.121943 
L 80.45833 274.42276 
L 87.083933 274.782893 
L 93.709536 274.104995 
L 100.335139 273.486414 
L 106.960742 270.482481 
L 113.586345 271.537459 
L 120.211948 271.139194 
L 126.837551 269.821531 
L 133.463154 270.524849 
L 140.088757 270.363849 
L 146.71436 270.012189 
L 153.339963 269.402082 
L 159.965566 266.660834 
L 166.591169 264.944906 
L 173.216772 268.169156 
L 179.842375 264.834747 
L 186.467978 265.04659 
L 193.093581 262.517185 
L 199.719184 258.890434 
L 206.344787 259.01754 
L 212.97039 261.839288 
L 219.595993 258.593854 
L 226.221596 257.352454 
L 232.847199 257.941377 
L 239.472801 255.267919 
L 246.098404 247.031465 
L 252.724007 257.021979 
L 259.34961 241.260863 
L 265.975213 252.937647 
L 272.600816 242.502263 
L 279.226419 240.61686 
L 285.852022 231.36356 
L 292.477625 232.956619 
L 299.103228 214.962678 
L 305.728831 224.838797 
L 312.354434 207.734596 
L 318.980037 209.492892 
L 325.60564 192.528508 
M 345.482449 194.371542 
" style="fill:none;stroke:#2ca02c;stroke-linecap:square;stroke-width:1.5;"/>
   </g>
   <g id="line2d_17">
    <path clip-path="url(#p2b19111afb)" d="M 73.832727 295.416397 
L 80.45833 295.471476 
L 87.083933 294.361419 
L 93.709536 293.967391 
L 100.335139 294.340235 
L 106.960742 294.272445 
L 113.586345 292.90394 
L 120.211948 292.925124 
L 126.837551 291.450697 
L 133.463154 292.209095 
L 140.088757 289.607663 
L 146.71436 290.19235 
L 153.339963 290.692299 
L 159.965566 288.777239 
L 166.591169 287.065548 
L 173.216772 285.175908 
L 179.842375 281.748289 
L 186.467978 283.396428 
L 193.093581 281.858448 
L 199.719184 279.329043 
L 206.344787 277.519904 
L 212.97039 275.575186 
L 219.595993 271.990803 
L 226.221596 270.707034 
L 232.847199 255.950054 
" style="fill:none;stroke:#d62728;stroke-linecap:square;stroke-width:1.5;"/>
   </g>
   <g id="line2d_18">
    <path clip-path="url(#p2b19111afb)" d="M 73.832727 286.781678 
L 80.45833 286.582546 
L 87.083933 287.260443 
L 93.709536 287.535839 
L 100.335139 287.366365 
L 106.960742 288.201026 
L 113.586345 282.235528 
L 120.211948 283.01511 
L 126.837551 283.947219 
L 133.463154 283.36677 
L 140.088757 284.476827 
L 146.71436 282.485503 
L 153.339963 283.485402 
L 159.965566 283.917561 
L 166.591169 282.095712 
L 173.216772 280.180651 
L 179.842375 279.553596 
L 186.467978 274.748998 
L 193.093581 279.92644 
L 199.719184 278.125775 
L 206.344787 276.392899 
L 212.97039 275.477738 
L 219.595993 277.668194 
L 226.221596 275.316737 
L 232.847199 271.486616 
L 239.472801 271.541696 
L 246.098404 271.067167 
L 252.724007 267.838681 
L 259.34961 267.296363 
L 265.975213 263.695032 
L 272.600816 261.678287 
M 292.477625 255.594157 
L 299.103228 253.780782 
L 305.728831 253.196095 
L 312.354434 254.204468 
M 325.60564 235.507208 
M 345.482449 229.414604 
" style="fill:none;stroke:#9467bd;stroke-linecap:square;stroke-width:1.5;"/>
   </g>
   <g id="line2d_19">
    <path clip-path="url(#p2b19111afb)" d="M 80.45833 53.568 
L 87.083933 172.420374 
L 93.709536 203.620606 
L 100.335139 216.242209 
L 106.960742 227.219911 
L 113.586345 232.308379 
L 120.211948 239.896594 
L 126.837551 243.832636 
L 133.463154 244.324112 
L 140.088757 245.086747 
L 146.71436 250.264189 
L 153.339963 252.564803 
L 159.965566 252.730041 
L 166.591169 252.700383 
L 173.216772 254.784917 
L 179.842375 253.687571 
L 186.467978 257.886298 
L 193.093581 258.699775 
L 199.719184 258.50488 
L 206.344787 257.721061 
L 212.97039 260.91989 
L 219.595993 261.436786 
M 232.847199 257.377875 
" style="fill:none;stroke:#8c564b;stroke-linecap:square;stroke-width:1.5;"/>
   </g>
   <g id="patch_3">
    <path d="M 57.6 307.584 
L 57.6 41.472 
" style="fill:none;stroke:#000000;stroke-linecap:square;stroke-linejoin:miter;stroke-width:0.8;"/>
   </g>
   <g id="patch_4">
    <path d="M 414.72 307.584 
L 414.72 41.472 
" style="fill:none;stroke:#000000;stroke-linecap:square;stroke-linejoin:miter;stroke-width:0.8;"/>
   </g>
   <g id="patch_5">
    <path d="M 57.6 307.584 
L 414.72 307.584 
" style="fill:none;stroke:#000000;stroke-linecap:square;stroke-linejoin:miter;stroke-width:0.8;"/>
   </g>
   <g id="patch_6">
    <path d="M 57.6 41.472 
L 414.72 41.472 
" style="fill:none;stroke:#000000;stroke-linecap:square;stroke-linejoin:miter;stroke-width:0.8;"/>
   </g>
   <g id="text_16">
    <text style="font-family:DejaVu Sans;font-size:12px;font-style:normal;font-weight:normal;text-anchor:middle;" transform="rotate(-0, 236.16, 35.472)" x="236.16" y="35.472">Coin Flips for 2014 Lin. x*2.0</text>
   </g>
   <g id="legend_1">
    <g id="patch_7">
     <path d="M 101.533437 137.54075 
L 370.786563 137.54075 
Q 372.786563 137.54075 372.786563 135.54075 
L 372.786563 48.472 
Q 372.786563 46.472 370.786563 46.472 
L 101.533437 46.472 
Q 99.533437 46.472 99.533437 48.472 
L 99.533437 135.54075 
Q 99.533437 137.54075 101.533437 137.54075 
z
" style="fill:#ffffff;opacity:0.8;stroke:#cccccc;stroke-linejoin:miter;"/>
    </g>
    <g id="line2d_20">
     <path d="M 103.533437 54.570438 
L 123.533437 54.570438 
" style="fill:none;stroke:#1f77b4;stroke-linecap:square;stroke-width:1.5;"/>
    </g>
    <g id="line2d_21"/>
    <g id="text_17">
     <text style="font-family:DejaVu Sans;font-size:10px;font-style:normal;font-weight:normal;text-anchor:start;" transform="rotate(-0, 131.533437, 58.070438)" x="131.533437" y="58.070438">Coin Flip Lower Bound</text>
    </g>
    <g id="line2d_22">
     <path d="M 103.533437 69.248563 
L 123.533437 69.248563 
" style="fill:none;stroke:#ff7f0e;stroke-linecap:square;stroke-width:1.5;"/>
    </g>
    <g id="line2d_23"/>
    <g id="text_18">
     <text style="font-family:DejaVu Sans;font-size:10px;font-style:normal;font-weight:normal;text-anchor:start;" transform="rotate(-0, 131.533437, 72.748563)" x="131.533437" y="72.748563">Avg. Coins Flipped 2014 Lin. x*2.0</text>
    </g>
    <g id="line2d_24">
     <path d="M 103.533437 83.926688 
L 123.533437 83.926688 
" style="fill:none;stroke:#2ca02c;stroke-linecap:square;stroke-width:1.5;"/>
    </g>
    <g id="line2d_25"/>
    <g id="text_19">
     <text style="font-family:DejaVu Sans;font-size:10px;font-style:normal;font-weight:normal;text-anchor:start;" transform="rotate(-0, 131.533437, 87.426688)" x="131.533437" y="87.426688">Avg. Coins Flipped 2016 Lin. x*2.0</text>
    </g>
    <g id="line2d_26">
     <path d="M 103.533437 98.604813 
L 123.533437 98.604813 
" style="fill:none;stroke:#d62728;stroke-linecap:square;stroke-width:1.5;"/>
    </g>
    <g id="line2d_27"/>
    <g id="text_20">
     <text style="font-family:DejaVu Sans;font-size:10px;font-style:normal;font-weight:normal;text-anchor:start;" transform="rotate(-0, 131.533437, 102.104813)" x="131.533437" y="102.104813">Avg. Coins Flipped Low-Mean Lin. x*2.0</text>
    </g>
    <g id="line2d_28">
     <path d="M 103.533437 113.282938 
L 123.533437 113.282938 
" style="fill:none;stroke:#9467bd;stroke-linecap:square;stroke-width:1.5;"/>
    </g>
    <g id="line2d_29"/>
    <g id="text_21">
     <text style="font-family:DejaVu Sans;font-size:10px;font-style:normal;font-weight:normal;text-anchor:start;" transform="rotate(-0, 131.533437, 116.782938)" x="131.533437" y="116.782938">Avg. Coins Flipped 2019x*2.0</text>
    </g>
    <g id="line2d_30">
     <path d="M 103.533437 127.961063 
L 123.533437 127.961063 
" style="fill:none;stroke:#8c564b;stroke-linecap:square;stroke-width:1.5;"/>
    </g>
    <g id="line2d_31"/>
    <g id="text_22">
     <text style="font-family:DejaVu Sans;font-size:10px;font-style:normal;font-weight:normal;text-anchor:start;" transform="rotate(-0, 131.533437, 131.461063)" x="131.533437" y="131.461063">Avg. Coins Flipped Low-Mean M=0.49999 x*2.0</text>
    </g>
   </g>
  </g>
 </g>
 <defs>
  <clipPath id="p2b19111afb">
   <rect height="266.112" width="357.12" x="57.6" y="41.472"/>
  </clipPath>
 </defs>
</svg>
