<?xml version="1.0" encoding="utf-8" standalone="no"?>
<!DOCTYPE svg PUBLIC "-//W3C//DTD SVG 1.1//EN"
  "http://www.w3.org/Graphics/SVG/1.1/DTD/svg11.dtd">
<!-- Created with matplotlib (https://matplotlib.org/) -->
<svg height="345.6pt" version="1.1" viewBox="0 0 460.8 345.6" width="460.8pt" xmlns="http://www.w3.org/2000/svg" xmlns:xlink="http://www.w3.org/1999/xlink">
 <defs>
  <style type="text/css">
*{stroke-linecap:butt;stroke-linejoin:round;}
  </style>
 </defs>
 <g id="figure_1">
  <g id="patch_1">
   <path d="M 0 345.6 
L 460.8 345.6 
L 460.8 0 
L 0 0 
z
" style="fill:#ffffff;"/>
  </g>
  <g id="axes_1">
   <g id="patch_2">
    <path d="M 57.6 307.584 
L 414.72 307.584 
L 414.72 41.472 
L 57.6 41.472 
z
" style="fill:#ffffff;"/>
   </g>
   <g id="matplotlib.axis_1">
    <g id="xtick_1">
     <g id="line2d_1">
      <defs>
       <path d="M 0 0 
L 0 3.5 
" id="mb50659a37b" style="stroke:#000000;stroke-width:0.8;"/>
      </defs>
      <g>
       <use style="stroke:#000000;stroke-width:0.8;" x="73.784019" xlink:href="#mb50659a37b" y="307.584"/>
      </g>
     </g>
     <g id="text_1">
      <text style="font-family:DejaVu Sans;font-size:10px;font-style:normal;font-weight:normal;text-anchor:middle;" transform="rotate(-0, 73.784019, 322.182437)" x="73.784019" y="322.182437">0.0</text>
     </g>
    </g>
    <g id="xtick_2">
     <g id="line2d_2">
      <g>
       <use style="stroke:#000000;stroke-width:0.8;" x="122.491943" xlink:href="#mb50659a37b" y="307.584"/>
      </g>
     </g>
     <g id="text_2">
      <text style="font-family:DejaVu Sans;font-size:10px;font-style:normal;font-weight:normal;text-anchor:middle;" transform="rotate(-0, 122.491943, 322.182437)" x="122.491943" y="322.182437">0.1</text>
     </g>
    </g>
    <g id="xtick_3">
     <g id="line2d_3">
      <g>
       <use style="stroke:#000000;stroke-width:0.8;" x="171.199866" xlink:href="#mb50659a37b" y="307.584"/>
      </g>
     </g>
     <g id="text_3">
      <text style="font-family:DejaVu Sans;font-size:10px;font-style:normal;font-weight:normal;text-anchor:middle;" transform="rotate(-0, 171.199866, 322.182437)" x="171.199866" y="322.182437">0.2</text>
     </g>
    </g>
    <g id="xtick_4">
     <g id="line2d_4">
      <g>
       <use style="stroke:#000000;stroke-width:0.8;" x="219.90779" xlink:href="#mb50659a37b" y="307.584"/>
      </g>
     </g>
     <g id="text_4">
      <text style="font-family:DejaVu Sans;font-size:10px;font-style:normal;font-weight:normal;text-anchor:middle;" transform="rotate(-0, 219.90779, 322.182437)" x="219.90779" y="322.182437">0.3</text>
     </g>
    </g>
    <g id="xtick_5">
     <g id="line2d_5">
      <g>
       <use style="stroke:#000000;stroke-width:0.8;" x="268.615713" xlink:href="#mb50659a37b" y="307.584"/>
      </g>
     </g>
     <g id="text_5">
      <text style="font-family:DejaVu Sans;font-size:10px;font-style:normal;font-weight:normal;text-anchor:middle;" transform="rotate(-0, 268.615713, 322.182437)" x="268.615713" y="322.182437">0.4</text>
     </g>
    </g>
    <g id="xtick_6">
     <g id="line2d_6">
      <g>
       <use style="stroke:#000000;stroke-width:0.8;" x="317.323636" xlink:href="#mb50659a37b" y="307.584"/>
      </g>
     </g>
     <g id="text_6">
      <text style="font-family:DejaVu Sans;font-size:10px;font-style:normal;font-weight:normal;text-anchor:middle;" transform="rotate(-0, 317.323636, 322.182437)" x="317.323636" y="322.182437">0.5</text>
     </g>
    </g>
    <g id="xtick_7">
     <g id="line2d_7">
      <g>
       <use style="stroke:#000000;stroke-width:0.8;" x="366.03156" xlink:href="#mb50659a37b" y="307.584"/>
      </g>
     </g>
     <g id="text_7">
      <text style="font-family:DejaVu Sans;font-size:10px;font-style:normal;font-weight:normal;text-anchor:middle;" transform="rotate(-0, 366.03156, 322.182437)" x="366.03156" y="322.182437">0.6</text>
     </g>
    </g>
    <g id="text_8">
     <text style="font-family:DejaVu Sans;font-size:10px;font-style:normal;font-weight:normal;text-anchor:middle;" transform="rotate(-0, 236.16, 335.860562)" x="236.16" y="335.860562">Input Coin's Heads Probability (λ)</text>
    </g>
   </g>
   <g id="matplotlib.axis_2">
    <g id="ytick_1">
     <g id="line2d_8">
      <defs>
       <path d="M 0 0 
L -3.5 0 
" id="m90f1aaea42" style="stroke:#000000;stroke-width:0.8;"/>
      </defs>
      <g>
       <use style="stroke:#000000;stroke-width:0.8;" x="57.6" xlink:href="#m90f1aaea42" y="295.522548"/>
      </g>
     </g>
     <g id="text_9">
      <text style="font-family:DejaVu Sans;font-size:10px;font-style:normal;font-weight:normal;text-anchor:end;" transform="rotate(-0, 50.6, 299.321766)" x="50.6" y="299.321766">0</text>
     </g>
    </g>
    <g id="ytick_2">
     <g id="line2d_9">
      <g>
       <use style="stroke:#000000;stroke-width:0.8;" x="57.6" xlink:href="#m90f1aaea42" y="247.136477"/>
      </g>
     </g>
     <g id="text_10">
      <text style="font-family:DejaVu Sans;font-size:10px;font-style:normal;font-weight:normal;text-anchor:end;" transform="rotate(-0, 50.6, 250.935695)" x="50.6" y="250.935695">2000</text>
     </g>
    </g>
    <g id="ytick_3">
     <g id="line2d_10">
      <g>
       <use style="stroke:#000000;stroke-width:0.8;" x="57.6" xlink:href="#m90f1aaea42" y="198.750406"/>
      </g>
     </g>
     <g id="text_11">
      <text style="font-family:DejaVu Sans;font-size:10px;font-style:normal;font-weight:normal;text-anchor:end;" transform="rotate(-0, 50.6, 202.549625)" x="50.6" y="202.549625">4000</text>
     </g>
    </g>
    <g id="ytick_4">
     <g id="line2d_11">
      <g>
       <use style="stroke:#000000;stroke-width:0.8;" x="57.6" xlink:href="#m90f1aaea42" y="150.364335"/>
      </g>
     </g>
     <g id="text_12">
      <text style="font-family:DejaVu Sans;font-size:10px;font-style:normal;font-weight:normal;text-anchor:end;" transform="rotate(-0, 50.6, 154.163554)" x="50.6" y="154.163554">6000</text>
     </g>
    </g>
    <g id="ytick_5">
     <g id="line2d_12">
      <g>
       <use style="stroke:#000000;stroke-width:0.8;" x="57.6" xlink:href="#m90f1aaea42" y="101.978264"/>
      </g>
     </g>
     <g id="text_13">
      <text style="font-family:DejaVu Sans;font-size:10px;font-style:normal;font-weight:normal;text-anchor:end;" transform="rotate(-0, 50.6, 105.777483)" x="50.6" y="105.777483">8000</text>
     </g>
    </g>
    <g id="ytick_6">
     <g id="line2d_13">
      <g>
       <use style="stroke:#000000;stroke-width:0.8;" x="57.6" xlink:href="#m90f1aaea42" y="53.592193"/>
      </g>
     </g>
     <g id="text_14">
      <text style="font-family:DejaVu Sans;font-size:10px;font-style:normal;font-weight:normal;text-anchor:end;" transform="rotate(-0, 50.6, 57.391412)" x="50.6" y="57.391412">10000</text>
     </g>
    </g>
    <g id="text_15">
     <text style="font-family:DejaVu Sans;font-size:10px;font-style:normal;font-weight:normal;text-anchor:middle;" transform="rotate(-90, 12.707812, 174.528)" x="12.707812" y="174.528">Coin Flips Needed</text>
    </g>
   </g>
   <g id="line2d_14">
    <path clip-path="url(#p3c7e05e9b7)" d="M 73.832727 295.486256 
L 78.751736 295.48607 
L 83.670744 295.485878 
L 88.589752 295.48568 
L 93.50876 295.485476 
L 98.427769 295.485265 
L 103.346777 295.485047 
L 108.265785 295.484821 
L 113.184793 295.484588 
L 118.103802 295.484346 
L 123.02281 295.484096 
L 127.941818 295.483837 
L 132.860826 295.483568 
L 137.779835 295.483289 
L 142.698843 295.482999 
L 147.617851 295.482698 
L 152.53686 295.482385 
L 157.455868 295.482059 
L 162.374876 295.48172 
L 167.293884 295.481366 
L 172.212893 295.480997 
L 177.131901 295.480611 
L 182.050909 295.480208 
L 186.969917 295.479786 
L 191.888926 295.479343 
L 196.807934 295.47888 
L 201.726942 295.478393 
L 206.64595 295.477881 
L 211.564959 295.477343 
L 216.483967 295.476775 
L 221.402975 295.476175 
L 226.321983 295.475542 
L 231.240992 295.474871 
L 236.16 295.474159 
L 241.079008 295.473403 
L 245.998017 295.472598 
L 250.917025 295.47174 
L 255.836033 295.470822 
L 260.755041 295.469839 
L 265.67405 295.468783 
L 270.593058 295.467646 
L 275.512066 295.466418 
L 280.431074 295.465087 
L 285.350083 295.463641 
L 290.269091 295.462063 
L 295.188099 295.460335 
L 300.107107 295.458435 
L 305.026116 295.456334 
L 309.945124 295.454 
L 314.864132 295.451391 
L 319.78314 295.448457 
L 324.702149 295.445131 
L 329.621157 295.44133 
L 334.540165 295.436945 
L 339.459174 295.431829 
L 344.378182 295.425783 
L 349.29719 295.418528 
L 354.216198 295.409662 
L 359.135207 295.39858 
L 364.054215 295.384333 
L 368.973223 295.365339 
L 373.892231 295.338754 
L 378.81124 295.298887 
L 383.730248 295.232471 
L 388.649256 295.099748 
L 393.568264 294.702452 
L 398.487273 53.568 
" style="fill:none;stroke:#1f77b4;stroke-linecap:square;stroke-width:1.5;"/>
   </g>
   <g id="line2d_15">
    <path clip-path="url(#p3c7e05e9b7)" d="M 73.832727 295.411744 
L 78.751736 295.392292 
L 83.670744 295.418034 
L 88.589752 295.407631 
L 93.50876 295.41905 
L 98.427769 295.418808 
L 103.346777 295.402792 
L 108.265785 295.415421 
L 113.184793 295.412421 
L 118.103802 295.412566 
L 123.02281 295.404437 
L 127.941818 295.410486 
L 132.860826 295.406808 
L 137.779835 295.415905 
L 142.698843 295.378551 
L 147.617851 295.39655 
L 152.53686 295.407969 
L 157.455868 295.409227 
L 162.374876 295.416098 
L 167.293884 295.403518 
L 172.212893 295.408792 
L 177.131901 295.395583 
L 182.050909 295.399115 
L 186.969917 295.408744 
L 191.888926 295.398099 
L 196.807934 295.396647 
L 201.726942 295.387792 
L 206.64595 295.394712 
L 211.564959 295.371777 
L 216.483967 295.381938 
L 221.402975 295.373712 
L 226.321983 295.398583 
L 231.240992 295.368535 
L 236.16 295.388228 
L 241.079008 295.341632 
L 245.998017 295.369503 
L 250.917025 295.36147 
L 255.836033 295.369986 
L 260.755041 295.376277 
L 265.67405 295.338245 
L 270.593058 295.309455 
L 275.512066 295.302488 
L 280.431074 295.3231 
L 285.350083 295.335197 
L 290.269091 295.322713 
L 295.188099 295.309359 
L 300.107107 295.330261 
L 305.026116 295.294601 
L 309.945124 295.255457 
L 314.864132 295.299052 
L 319.78314 295.251537 
L 324.702149 295.29881 
L 329.621157 295.255602 
L 334.540165 295.27844 
L 339.459174 295.134346 
L 344.378182 295.108073 
M 354.216198 295.173587 
" style="fill:none;stroke:#ff7f0e;stroke-linecap:square;stroke-width:1.5;"/>
   </g>
   <g id="line2d_16">
    <path clip-path="url(#p3c7e05e9b7)" d="M 73.832727 295.301714 
L 78.751736 295.311149 
L 83.670744 295.301181 
L 88.589752 295.30452 
L 93.50876 295.305778 
L 98.427769 295.303407 
L 103.346777 295.298375 
L 108.265785 295.265521 
L 113.184793 295.277666 
L 118.103802 295.256376 
L 123.02281 295.256134 
L 127.941818 295.270795 
L 132.860826 295.290295 
L 137.779835 295.267118 
L 142.698843 295.272585 
L 147.617851 295.266343 
L 152.53686 295.265908 
L 157.455868 295.232425 
L 162.374876 295.236925 
L 167.293884 295.237941 
L 172.212893 295.219796 
L 177.131901 295.217667 
L 182.050909 295.243505 
L 186.969917 295.248682 
L 191.888926 295.204893 
L 196.807934 295.18791 
L 201.726942 295.187619 
L 206.64595 295.18641 
L 211.564959 295.185877 
L 216.483967 295.159507 
L 221.402975 295.140878 
L 226.321983 295.164781 
L 231.240992 295.110589 
L 236.16 295.153555 
L 241.079008 295.079089 
L 245.998017 295.07546 
L 250.917025 295.099411 
L 255.836033 295.08267 
L 260.755041 295.073815 
L 265.67405 295.000801 
L 270.593058 295.03651 
L 275.512066 295.08896 
L 280.431074 294.996688 
L 285.350083 294.922706 
L 290.269091 294.8734 
L 295.188099 294.895754 
L 300.107107 294.849159 
L 305.026116 294.911528 
L 309.945124 294.831836 
L 314.864132 294.692533 
L 319.78314 294.665485 
L 324.702149 294.655711 
L 329.621157 294.393362 
M 339.459174 294.476489 
M 349.29719 294.424329 
L 354.216198 294.442038 
" style="fill:none;stroke:#2ca02c;stroke-linecap:square;stroke-width:1.5;"/>
   </g>
   <g id="line2d_17">
    <path clip-path="url(#p3c7e05e9b7)" d="M 73.832727 295.486548 
L 78.751736 295.488 
L 83.670744 295.485774 
L 88.589752 295.474839 
L 93.50876 295.427808 
L 98.427769 295.477936 
L 103.346777 295.474355 
L 108.265785 295.451275 
L 113.184793 295.424517 
L 118.103802 295.439517 
L 123.02281 295.449001 
L 127.941818 295.444259 
L 132.860826 295.418372 
L 137.779835 295.406421 
L 142.698843 295.383389 
L 147.617851 295.41184 
L 152.53686 295.377148 
L 157.455868 295.386196 
L 162.374876 295.341681 
L 167.293884 295.337568 
L 172.212893 295.369406 
L 177.131901 295.348697 
L 182.050909 295.318068 
L 186.969917 295.338923 
L 191.888926 295.275101 
L 196.807934 295.263005 
L 201.726942 295.250473 
L 206.64595 295.223377 
L 211.564959 295.219941 
L 216.483967 295.165507 
L 221.402975 295.150894 
L 226.321983 295.102605 
L 231.240992 295.052332 
" style="fill:none;stroke:#d62728;stroke-linecap:square;stroke-width:1.5;"/>
   </g>
   <g id="line2d_18">
    <path clip-path="url(#p3c7e05e9b7)" d="M 73.832727 295.419243 
L 78.751736 295.420743 
L 83.670744 295.418421 
L 88.589752 295.416969 
L 93.50876 295.424227 
L 98.427769 295.419969 
L 103.346777 295.413873 
L 108.265785 295.414792 
L 113.184793 295.382035 
L 118.103802 295.385567 
L 123.02281 295.383631 
L 127.941818 295.375502 
L 132.860826 295.377293 
L 137.779835 295.382615 
L 142.698843 295.381309 
L 147.617851 295.369503 
L 152.53686 295.381502 
L 157.455868 295.372309 
L 162.374876 295.382035 
L 167.293884 295.353293 
L 172.212893 295.347535 
L 177.131901 295.342697 
L 182.050909 295.340616 
L 186.969917 295.356003 
L 191.888926 295.35789 
M 201.726942 295.350535 
L 206.64595 295.314778 
L 211.564959 295.312117 
L 216.483967 295.321262 
L 221.402975 295.293875 
L 226.321983 295.268182 
L 231.240992 295.275343 
L 236.16 295.259376 
L 241.079008 295.229086 
L 245.998017 295.286762 
L 250.917025 295.280908 
L 255.836033 295.259424 
L 260.755041 295.210361 
L 265.67405 295.200538 
L 270.593058 295.221973 
L 275.512066 295.203151 
L 280.431074 295.1852 
M 290.269091 295.16512 
M 300.107107 295.127233 
M 309.945124 295.076186 
L 314.864132 295.013187 
M 324.702149 294.955076 
M 354.216198 294.767048 
" style="fill:none;stroke:#9467bd;stroke-linecap:square;stroke-width:1.5;"/>
   </g>
   <g id="line2d_19">
    <path clip-path="url(#p3c7e05e9b7)" d="M 78.751736 292.696269 
L 83.670744 293.921307 
L 88.589752 294.36554 
L 93.50876 294.542536 
L 98.427769 294.670469 
L 103.346777 294.730274 
L 108.265785 294.809047 
L 113.184793 294.873158 
L 118.103802 294.872094 
L 123.02281 294.910174 
L 127.941818 294.965721 
L 132.860826 295.005784 
L 137.779835 294.975301 
L 142.698843 294.978204 
L 147.617851 295.007091 
L 152.53686 294.996398 
L 157.455868 295.015123 
L 162.374876 295.004333 
L 167.293884 295.031332 
L 172.212893 295.039026 
L 177.131901 295.018994 
L 182.050909 295.056928 
L 186.969917 295.05088 
L 191.888926 295.071251 
L 196.807934 295.028816 
L 201.726942 295.056009 
L 206.64595 295.07967 
L 211.564959 295.095347 
L 216.483967 295.054412 
L 221.402975 295.064573 
L 226.321983 295.056735 
L 231.240992 295.063848 
" style="fill:none;stroke:#8c564b;stroke-linecap:square;stroke-width:1.5;"/>
   </g>
   <g id="patch_3">
    <path d="M 57.6 307.584 
L 57.6 41.472 
" style="fill:none;stroke:#000000;stroke-linecap:square;stroke-linejoin:miter;stroke-width:0.8;"/>
   </g>
   <g id="patch_4">
    <path d="M 414.72 307.584 
L 414.72 41.472 
" style="fill:none;stroke:#000000;stroke-linecap:square;stroke-linejoin:miter;stroke-width:0.8;"/>
   </g>
   <g id="patch_5">
    <path d="M 57.6 307.584 
L 414.72 307.584 
" style="fill:none;stroke:#000000;stroke-linecap:square;stroke-linejoin:miter;stroke-width:0.8;"/>
   </g>
   <g id="patch_6">
    <path d="M 57.6 41.472 
L 414.72 41.472 
" style="fill:none;stroke:#000000;stroke-linecap:square;stroke-linejoin:miter;stroke-width:0.8;"/>
   </g>
   <g id="text_16">
    <text style="font-family:DejaVu Sans;font-size:12px;font-style:normal;font-weight:normal;text-anchor:middle;" transform="rotate(-0, 236.16, 35.472)" x="236.16" y="35.472">Coin Flips for x*1.5</text>
   </g>
   <g id="legend_1">
    <g id="patch_7">
     <path d="M 64.6 137.54075 
L 333.853125 137.54075 
Q 335.853125 137.54075 335.853125 135.54075 
L 335.853125 48.472 
Q 335.853125 46.472 333.853125 46.472 
L 64.6 46.472 
Q 62.6 46.472 62.6 48.472 
L 62.6 135.54075 
Q 62.6 137.54075 64.6 137.54075 
z
" style="fill:#ffffff;opacity:0.8;stroke:#cccccc;stroke-linejoin:miter;"/>
    </g>
    <g id="line2d_20">
     <path d="M 66.6 54.570438 
L 86.6 54.570438 
" style="fill:none;stroke:#1f77b4;stroke-linecap:square;stroke-width:1.5;"/>
    </g>
    <g id="line2d_21"/>
    <g id="text_17">
     <text style="font-family:DejaVu Sans;font-size:10px;font-style:normal;font-weight:normal;text-anchor:start;" transform="rotate(-0, 94.6, 58.070438)" x="94.6" y="58.070438">Coin Flip Lower Bound (Mendo)</text>
    </g>
    <g id="line2d_22">
     <path d="M 66.6 69.248563 
L 86.6 69.248563 
" style="fill:none;stroke:#ff7f0e;stroke-linecap:square;stroke-width:1.5;"/>
    </g>
    <g id="line2d_23"/>
    <g id="text_18">
     <text style="font-family:DejaVu Sans;font-size:10px;font-style:normal;font-weight:normal;text-anchor:start;" transform="rotate(-0, 94.6, 72.748563)" x="94.6" y="72.748563">Avg. Coins Flipped 2014 Lin. x*1.5</text>
    </g>
    <g id="line2d_24">
     <path d="M 66.6 83.926688 
L 86.6 83.926688 
" style="fill:none;stroke:#2ca02c;stroke-linecap:square;stroke-width:1.5;"/>
    </g>
    <g id="line2d_25"/>
    <g id="text_19">
     <text style="font-family:DejaVu Sans;font-size:10px;font-style:normal;font-weight:normal;text-anchor:start;" transform="rotate(-0, 94.6, 87.426688)" x="94.6" y="87.426688">Avg. Coins Flipped 2016 Lin. x*1.5</text>
    </g>
    <g id="line2d_26">
     <path d="M 66.6 98.604813 
L 86.6 98.604813 
" style="fill:none;stroke:#d62728;stroke-linecap:square;stroke-width:1.5;"/>
    </g>
    <g id="line2d_27"/>
    <g id="text_20">
     <text style="font-family:DejaVu Sans;font-size:10px;font-style:normal;font-weight:normal;text-anchor:start;" transform="rotate(-0, 94.6, 102.104813)" x="94.6" y="102.104813">Avg. Coins Flipped Low-Mean Lin. x*1.5</text>
    </g>
    <g id="line2d_28">
     <path d="M 66.6 113.282938 
L 86.6 113.282938 
" style="fill:none;stroke:#9467bd;stroke-linecap:square;stroke-width:1.5;"/>
    </g>
    <g id="line2d_29"/>
    <g id="text_21">
     <text style="font-family:DejaVu Sans;font-size:10px;font-style:normal;font-weight:normal;text-anchor:start;" transform="rotate(-0, 94.6, 116.782938)" x="94.6" y="116.782938">Avg. Coins Flipped 2019x*1.5</text>
    </g>
    <g id="line2d_30">
     <path d="M 66.6 127.961063 
L 86.6 127.961063 
" style="fill:none;stroke:#8c564b;stroke-linecap:square;stroke-width:1.5;"/>
    </g>
    <g id="line2d_31"/>
    <g id="text_22">
     <text style="font-family:DejaVu Sans;font-size:10px;font-style:normal;font-weight:normal;text-anchor:start;" transform="rotate(-0, 94.6, 131.461063)" x="94.6" y="131.461063">Avg. Coins Flipped Low-Mean M=0.49999 x*1.5</text>
    </g>
   </g>
  </g>
 </g>
 <defs>
  <clipPath id="p3c7e05e9b7">
   <rect height="266.112" width="357.12" x="57.6" y="41.472"/>
  </clipPath>
 </defs>
</svg>
