<?xml version="1.0" encoding="utf-8" standalone="no"?>
<!DOCTYPE svg PUBLIC "-//W3C//DTD SVG 1.1//EN"
  "http://www.w3.org/Graphics/SVG/1.1/DTD/svg11.dtd">
<!-- Created with matplotlib (https://matplotlib.org/) -->
<svg height="252pt" version="1.1" viewBox="0 0 324 252" width="324pt" xmlns="http://www.w3.org/2000/svg" xmlns:xlink="http://www.w3.org/1999/xlink">
 <defs>
  <style type="text/css">
*{stroke-linecap:butt;stroke-linejoin:round;}
  </style>
 </defs>
 <g id="figure_1">
  <g id="patch_1">
   <path d="M 0 252 
L 324 252 
L 324 0 
L 0 0 
z
" style="fill:#ffffff;"/>
  </g>
  <g id="axes_1">
   <g id="patch_2">
    <path d="M 40.5 224.28 
L 291.6 224.28 
L 291.6 30.24 
L 40.5 30.24 
z
" style="fill:#ffffff;"/>
   </g>
   <g id="matplotlib.axis_1">
    <g id="xtick_1">
     <g id="line2d_1">
      <defs>
       <path d="M 0 0 
L 0 3.5 
" id="ma58aa7190a" style="stroke:#000000;stroke-width:0.8;"/>
      </defs>
      <g>
       <use style="stroke:#000000;stroke-width:0.8;" x="51.890805" xlink:href="#ma58aa7190a" y="224.28"/>
      </g>
     </g>
     <g id="text_1">
      <text style="font-family:DejaVu Sans;font-size:10px;font-style:normal;font-weight:normal;text-anchor:middle;" transform="rotate(-0, 51.890805, 238.878438)" x="51.890805" y="238.878438">0.0</text>
     </g>
    </g>
    <g id="xtick_2">
     <g id="line2d_2">
      <g>
       <use style="stroke:#000000;stroke-width:0.8;" x="97.554483" xlink:href="#ma58aa7190a" y="224.28"/>
      </g>
     </g>
     <g id="text_2">
      <text style="font-family:DejaVu Sans;font-size:10px;font-style:normal;font-weight:normal;text-anchor:middle;" transform="rotate(-0, 97.554483, 238.878438)" x="97.554483" y="238.878438">0.2</text>
     </g>
    </g>
    <g id="xtick_3">
     <g id="line2d_3">
      <g>
       <use style="stroke:#000000;stroke-width:0.8;" x="143.218161" xlink:href="#ma58aa7190a" y="224.28"/>
      </g>
     </g>
     <g id="text_3">
      <text style="font-family:DejaVu Sans;font-size:10px;font-style:normal;font-weight:normal;text-anchor:middle;" transform="rotate(-0, 143.218161, 238.878438)" x="143.218161" y="238.878438">0.4</text>
     </g>
    </g>
    <g id="xtick_4">
     <g id="line2d_4">
      <g>
       <use style="stroke:#000000;stroke-width:0.8;" x="188.881839" xlink:href="#ma58aa7190a" y="224.28"/>
      </g>
     </g>
     <g id="text_4">
      <text style="font-family:DejaVu Sans;font-size:10px;font-style:normal;font-weight:normal;text-anchor:middle;" transform="rotate(-0, 188.881839, 238.878438)" x="188.881839" y="238.878438">0.6</text>
     </g>
    </g>
    <g id="xtick_5">
     <g id="line2d_5">
      <g>
       <use style="stroke:#000000;stroke-width:0.8;" x="234.545517" xlink:href="#ma58aa7190a" y="224.28"/>
      </g>
     </g>
     <g id="text_5">
      <text style="font-family:DejaVu Sans;font-size:10px;font-style:normal;font-weight:normal;text-anchor:middle;" transform="rotate(-0, 234.545517, 238.878438)" x="234.545517" y="238.878438">0.8</text>
     </g>
    </g>
    <g id="xtick_6">
     <g id="line2d_6">
      <g>
       <use style="stroke:#000000;stroke-width:0.8;" x="280.209195" xlink:href="#ma58aa7190a" y="224.28"/>
      </g>
     </g>
     <g id="text_6">
      <text style="font-family:DejaVu Sans;font-size:10px;font-style:normal;font-weight:normal;text-anchor:middle;" transform="rotate(-0, 280.209195, 238.878438)" x="280.209195" y="238.878438">1.0</text>
     </g>
    </g>
    <g id="text_7">
     <text style="font-family:DejaVu Sans;font-size:10px;font-style:normal;font-weight:normal;text-anchor:middle;" transform="rotate(-0, 166.05, 252.556563)" x="166.05" y="252.556563">Input Coin's Heads Probability (λ)</text>
    </g>
   </g>
   <g id="matplotlib.axis_2">
    <g id="ytick_1">
     <g id="line2d_7">
      <defs>
       <path d="M 0 0 
L -3.5 0 
" id="mb4ca3aad9d" style="stroke:#000000;stroke-width:0.8;"/>
      </defs>
      <g>
       <use style="stroke:#000000;stroke-width:0.8;" x="40.5" xlink:href="#mb4ca3aad9d" y="215.46"/>
      </g>
     </g>
     <g id="text_8">
      <text style="font-family:DejaVu Sans;font-size:10px;font-style:normal;font-weight:normal;text-anchor:end;" transform="rotate(-0, 33.5, 219.259219)" x="33.5" y="219.259219">0.00</text>
     </g>
    </g>
    <g id="ytick_2">
     <g id="line2d_8">
      <g>
       <use style="stroke:#000000;stroke-width:0.8;" x="40.5" xlink:href="#mb4ca3aad9d" y="183.733381"/>
      </g>
     </g>
     <g id="text_9">
      <text style="font-family:DejaVu Sans;font-size:10px;font-style:normal;font-weight:normal;text-anchor:end;" transform="rotate(-0, 33.5, 187.5326)" x="33.5" y="187.5326">0.05</text>
     </g>
    </g>
    <g id="ytick_3">
     <g id="line2d_9">
      <g>
       <use style="stroke:#000000;stroke-width:0.8;" x="40.5" xlink:href="#mb4ca3aad9d" y="152.006763"/>
      </g>
     </g>
     <g id="text_10">
      <text style="font-family:DejaVu Sans;font-size:10px;font-style:normal;font-weight:normal;text-anchor:end;" transform="rotate(-0, 33.5, 155.805981)" x="33.5" y="155.805981">0.10</text>
     </g>
    </g>
    <g id="ytick_4">
     <g id="line2d_10">
      <g>
       <use style="stroke:#000000;stroke-width:0.8;" x="40.5" xlink:href="#mb4ca3aad9d" y="120.280144"/>
      </g>
     </g>
     <g id="text_11">
      <text style="font-family:DejaVu Sans;font-size:10px;font-style:normal;font-weight:normal;text-anchor:end;" transform="rotate(-0, 33.5, 124.079363)" x="33.5" y="124.079363">0.15</text>
     </g>
    </g>
    <g id="ytick_5">
     <g id="line2d_11">
      <g>
       <use style="stroke:#000000;stroke-width:0.8;" x="40.5" xlink:href="#mb4ca3aad9d" y="88.553525"/>
      </g>
     </g>
     <g id="text_12">
      <text style="font-family:DejaVu Sans;font-size:10px;font-style:normal;font-weight:normal;text-anchor:end;" transform="rotate(-0, 33.5, 92.352744)" x="33.5" y="92.352744">0.20</text>
     </g>
    </g>
    <g id="ytick_6">
     <g id="line2d_12">
      <g>
       <use style="stroke:#000000;stroke-width:0.8;" x="40.5" xlink:href="#mb4ca3aad9d" y="56.826906"/>
      </g>
     </g>
     <g id="text_13">
      <text style="font-family:DejaVu Sans;font-size:10px;font-style:normal;font-weight:normal;text-anchor:end;" transform="rotate(-0, 33.5, 60.626125)" x="33.5" y="60.626125">0.25</text>
     </g>
    </g>
    <g id="text_14">
     <text style="font-family:DejaVu Sans;font-size:10px;font-style:normal;font-weight:normal;text-anchor:middle;" transform="rotate(-90, 5.154687, 127.26)" x="5.154687" y="127.26">Simulated Mean / Function Value</text>
    </g>
   </g>
   <g id="line2d_13">
    <path clip-path="url(#pefa584cf2e)" d="M 52.119123 215.24856 
L 54.420757 213.124914 
L 56.722391 211.015441 
L 59.024025 208.919999 
L 61.325658 206.838447 
L 63.627292 204.770649 
L 65.928926 202.716469 
L 68.23056 200.675772 
L 70.532194 198.648427 
L 72.833828 196.634302 
L 75.135462 194.633269 
L 77.437096 192.6452 
L 79.738729 190.66997 
L 82.040363 188.707456 
L 84.341997 186.757533 
L 86.643631 184.820083 
L 88.945265 182.894985 
L 91.246899 180.982121 
L 93.548533 179.081376 
L 95.850167 177.192635 
L 98.151801 175.315784 
L 100.453434 173.450712 
L 102.755068 171.597307 
L 105.056702 169.755461 
L 107.358336 167.925066 
L 109.65997 166.106015 
L 111.961604 164.298204 
L 114.263238 162.501528 
L 116.564872 160.715885 
L 118.866505 158.941174 
L 121.168139 157.177294 
L 123.469773 155.424146 
L 125.771407 153.681634 
L 128.073041 151.94966 
L 130.374675 150.22813 
L 132.676309 148.516948 
L 134.977943 146.816023 
L 137.279576 145.125261 
L 139.58121 143.444573 
L 141.882844 141.773868 
L 144.184478 140.113058 
L 146.486112 138.462055 
L 148.787746 136.820773 
L 151.08938 135.189125 
L 153.391014 133.567028 
L 155.692648 131.954397 
L 157.994281 130.351151 
L 160.295915 128.757207 
L 162.597549 127.172485 
L 164.899183 125.596905 
L 167.200817 124.030387 
L 169.502451 122.472855 
L 171.804085 120.924231 
L 174.105719 119.384438 
L 176.407352 117.853402 
L 178.708986 116.331048 
L 181.01062 114.817302 
L 183.312254 113.312092 
L 185.613888 111.815345 
L 187.915522 110.32699 
L 190.217156 108.846958 
L 192.51879 107.375177 
L 194.820424 105.911581 
L 197.122057 104.456099 
L 199.423691 103.008666 
L 201.725325 101.569214 
L 204.026959 100.137678 
L 206.328593 98.713993 
L 208.630227 97.298094 
L 210.931861 95.889917 
L 213.233495 94.4894 
L 215.535128 93.09648 
L 217.836762 91.711096 
L 220.138396 90.333186 
L 222.44003 88.96269 
L 224.741664 87.599549 
L 227.043298 86.243703 
L 229.344932 84.895095 
L 231.646566 83.553665 
L 233.948199 82.219358 
L 236.249833 80.892116 
L 238.551467 79.571884 
L 240.853101 78.258606 
L 243.154735 76.952228 
L 245.456369 75.652695 
L 247.758003 74.359953 
L 250.059637 73.073949 
L 252.361271 71.794631 
L 254.662904 70.521948 
L 256.964538 69.255846 
L 259.266172 67.996276 
L 261.567806 66.743187 
L 263.86944 65.496529 
L 266.171074 64.256253 
L 268.472708 63.02231 
L 270.774342 61.794651 
L 273.075975 60.573229 
L 275.377609 59.357996 
L 277.679243 58.148906 
L 279.980877 56.945911 
" style="fill:none;stroke:#1f77b4;stroke-linecap:square;stroke-width:1.5;"/>
   </g>
   <g id="line2d_14">
    <path clip-path="url(#pefa584cf2e)" d="M 51.913636 215.46 
L 54.219421 212.921871 
L 56.525207 214.190935 
L 58.830992 207.845612 
L 61.136777 210.383741 
L 63.442562 201.500288 
L 65.748347 204.038417 
L 68.054132 201.500288 
L 70.359917 187.540576 
L 72.665702 195.154964 
L 74.971488 192.616835 
L 77.277273 192.616835 
L 79.583058 188.80964 
L 81.888843 185.002446 
L 84.194628 173.580863 
L 86.500413 188.80964 
L 88.806198 196.424029 
L 91.111983 187.540576 
L 93.417769 183.733381 
L 95.723554 182.464317 
L 98.029339 177.388058 
L 100.335124 185.002446 
L 102.640909 169.773669 
L 104.946694 173.580863 
L 107.252479 171.042734 
L 109.558264 168.504604 
L 111.86405 146.930504 
L 114.169835 169.773669 
L 116.47562 152.006763 
L 118.781405 164.69741 
L 121.08719 165.966475 
L 123.392975 146.930504 
L 125.69876 169.773669 
L 128.004545 159.621151 
L 130.310331 152.006763 
L 132.616116 140.58518 
L 134.921901 149.468633 
L 137.227686 134.239856 
L 139.533471 148.199568 
L 141.839256 138.04705 
L 144.145041 134.239856 
L 146.450826 140.58518 
L 148.756612 120.280144 
L 151.062397 136.777986 
L 153.368182 160.890216 
L 155.673967 124.087338 
L 157.979752 130.432662 
L 160.285537 139.316115 
L 162.591322 140.58518 
L 164.897107 116.47295 
L 167.202893 127.894532 
L 169.508678 112.665755 
L 171.814463 136.777986 
L 174.120248 102.513237 
L 176.426033 127.894532 
L 178.731818 122.818273 
L 181.037603 111.396691 
L 183.343388 102.513237 
L 185.649174 112.665755 
L 187.954959 115.203885 
L 190.260744 116.47295 
L 192.566529 116.47295 
L 194.872314 105.051367 
L 197.178099 108.858561 
L 199.483884 113.93482 
L 201.789669 107.589496 
L 204.095455 82.208201 
L 206.40124 102.513237 
L 208.707025 102.513237 
L 211.01281 98.706043 
L 213.318595 96.167914 
L 215.62438 79.670072 
L 217.930165 84.746331 
L 220.23595 89.82259 
L 222.541736 77.131942 
L 224.847521 99.975108 
L 227.153306 79.670072 
L 229.459091 84.746331 
L 231.764876 77.131942 
L 234.070661 93.629784 
L 236.376446 72.055683 
L 238.682231 80.939137 
L 240.988017 79.670072 
L 243.293802 47.943453 
L 245.599587 78.401007 
L 247.905372 83.477266 
L 250.211157 75.862878 
L 252.516942 63.17223 
L 254.822727 75.862878 
L 257.128512 72.055683 
L 259.434298 74.593813 
L 261.740083 68.248489 
L 264.045868 66.979424 
L 266.351653 58.095971 
L 268.657438 49.212518 
L 270.963223 58.095971 
L 273.269008 45.405324 
L 275.574793 64.441295 
L 277.880579 39.06 
L 280.186364 65.71036 
" style="fill:none;stroke:#ff7f0e;stroke-linecap:square;stroke-width:1.5;"/>
   </g>
   <g id="patch_3">
    <path d="M 40.5 224.28 
L 40.5 30.24 
" style="fill:none;stroke:#000000;stroke-linecap:square;stroke-linejoin:miter;stroke-width:0.8;"/>
   </g>
   <g id="patch_4">
    <path d="M 291.6 224.28 
L 291.6 30.24 
" style="fill:none;stroke:#000000;stroke-linecap:square;stroke-linejoin:miter;stroke-width:0.8;"/>
   </g>
   <g id="patch_5">
    <path d="M 40.5 224.28 
L 291.6 224.28 
" style="fill:none;stroke:#000000;stroke-linecap:square;stroke-linejoin:miter;stroke-width:0.8;"/>
   </g>
   <g id="patch_6">
    <path d="M 40.5 30.24 
L 291.6 30.24 
" style="fill:none;stroke:#000000;stroke-linecap:square;stroke-linejoin:miter;stroke-width:0.8;"/>
   </g>
   <g id="text_15">
    <text style="font-family:DejaVu Sans;font-size:12px;font-style:normal;font-weight:normal;text-anchor:middle;" transform="rotate(-0, 166.05, 24.24)" x="166.05" y="24.24">Expected Value Generated by (1/3)*x/(1+(1/3)*x) Algorithm</text>
   </g>
   <g id="legend_1">
    <g id="patch_7">
     <path d="M 47.5 67.59625 
L 271.998438 67.59625 
Q 273.998438 67.59625 273.998438 65.59625 
L 273.998438 37.24 
Q 273.998438 35.24 271.998438 35.24 
L 47.5 35.24 
Q 45.5 35.24 45.5 37.24 
L 45.5 65.59625 
Q 45.5 67.59625 47.5 67.59625 
z
" style="fill:#ffffff;opacity:0.8;stroke:#cccccc;stroke-linejoin:miter;"/>
    </g>
    <g id="line2d_15">
     <path d="M 49.5 43.338438 
L 69.5 43.338438 
" style="fill:none;stroke:#1f77b4;stroke-linecap:square;stroke-width:1.5;"/>
    </g>
    <g id="line2d_16"/>
    <g id="text_16">
     <text style="font-family:DejaVu Sans;font-size:10px;font-style:normal;font-weight:normal;text-anchor:start;" transform="rotate(-0, 77.5, 46.838438)" x="77.5" y="46.838438">(1/3)*x/(1+(1/3)*x)</text>
    </g>
    <g id="line2d_17">
     <path d="M 49.5 58.016563 
L 69.5 58.016563 
" style="fill:none;stroke:#ff7f0e;stroke-linecap:square;stroke-width:1.5;"/>
    </g>
    <g id="line2d_18"/>
    <g id="text_17">
     <text style="font-family:DejaVu Sans;font-size:10px;font-style:normal;font-weight:normal;text-anchor:start;" transform="rotate(-0, 77.5, 61.516563)" x="77.5" y="61.516563">Simulated Mean of (1/3)*x/(1+(1/3)*x)</text>
    </g>
   </g>
  </g>
 </g>
 <defs>
  <clipPath id="pefa584cf2e">
   <rect height="194.04" width="251.1" x="40.5" y="30.24"/>
  </clipPath>
 </defs>
</svg>
