<?xml version="1.0" encoding="utf-8" standalone="no"?>
<!DOCTYPE svg PUBLIC "-//W3C//DTD SVG 1.1//EN"
  "http://www.w3.org/Graphics/SVG/1.1/DTD/svg11.dtd">
<!-- Created with matplotlib (https://matplotlib.org/) -->
<svg height="252pt" version="1.1" viewBox="0 0 324 252" width="324pt" xmlns="http://www.w3.org/2000/svg" xmlns:xlink="http://www.w3.org/1999/xlink">
 <defs>
  <style type="text/css">
*{stroke-linecap:butt;stroke-linejoin:round;}
  </style>
 </defs>
 <g id="figure_1">
  <g id="patch_1">
   <path d="M 0 252 
L 324 252 
L 324 0 
L 0 0 
z
" style="fill:#ffffff;"/>
  </g>
  <g id="axes_1">
   <g id="patch_2">
    <path d="M 40.5 224.28 
L 291.6 224.28 
L 291.6 30.24 
L 40.5 30.24 
z
" style="fill:#ffffff;"/>
   </g>
   <g id="matplotlib.axis_1">
    <g id="xtick_1">
     <g id="line2d_1">
      <defs>
       <path d="M 0 0 
L 0 3.5 
" id="mdc203ca1a8" style="stroke:#000000;stroke-width:0.8;"/>
      </defs>
      <g>
       <use style="stroke:#000000;stroke-width:0.8;" x="51.890805" xlink:href="#mdc203ca1a8" y="224.28"/>
      </g>
     </g>
     <g id="text_1">
      <text style="font-family:DejaVu Sans;font-size:10px;font-style:normal;font-weight:normal;text-anchor:middle;" transform="rotate(-0, 51.890805, 238.878438)" x="51.890805" y="238.878438">0.0</text>
     </g>
    </g>
    <g id="xtick_2">
     <g id="line2d_2">
      <g>
       <use style="stroke:#000000;stroke-width:0.8;" x="97.554483" xlink:href="#mdc203ca1a8" y="224.28"/>
      </g>
     </g>
     <g id="text_2">
      <text style="font-family:DejaVu Sans;font-size:10px;font-style:normal;font-weight:normal;text-anchor:middle;" transform="rotate(-0, 97.554483, 238.878438)" x="97.554483" y="238.878438">0.2</text>
     </g>
    </g>
    <g id="xtick_3">
     <g id="line2d_3">
      <g>
       <use style="stroke:#000000;stroke-width:0.8;" x="143.218161" xlink:href="#mdc203ca1a8" y="224.28"/>
      </g>
     </g>
     <g id="text_3">
      <text style="font-family:DejaVu Sans;font-size:10px;font-style:normal;font-weight:normal;text-anchor:middle;" transform="rotate(-0, 143.218161, 238.878438)" x="143.218161" y="238.878438">0.4</text>
     </g>
    </g>
    <g id="xtick_4">
     <g id="line2d_4">
      <g>
       <use style="stroke:#000000;stroke-width:0.8;" x="188.881839" xlink:href="#mdc203ca1a8" y="224.28"/>
      </g>
     </g>
     <g id="text_4">
      <text style="font-family:DejaVu Sans;font-size:10px;font-style:normal;font-weight:normal;text-anchor:middle;" transform="rotate(-0, 188.881839, 238.878438)" x="188.881839" y="238.878438">0.6</text>
     </g>
    </g>
    <g id="xtick_5">
     <g id="line2d_5">
      <g>
       <use style="stroke:#000000;stroke-width:0.8;" x="234.545517" xlink:href="#mdc203ca1a8" y="224.28"/>
      </g>
     </g>
     <g id="text_5">
      <text style="font-family:DejaVu Sans;font-size:10px;font-style:normal;font-weight:normal;text-anchor:middle;" transform="rotate(-0, 234.545517, 238.878438)" x="234.545517" y="238.878438">0.8</text>
     </g>
    </g>
    <g id="xtick_6">
     <g id="line2d_6">
      <g>
       <use style="stroke:#000000;stroke-width:0.8;" x="280.209195" xlink:href="#mdc203ca1a8" y="224.28"/>
      </g>
     </g>
     <g id="text_6">
      <text style="font-family:DejaVu Sans;font-size:10px;font-style:normal;font-weight:normal;text-anchor:middle;" transform="rotate(-0, 280.209195, 238.878438)" x="280.209195" y="238.878438">1.0</text>
     </g>
    </g>
    <g id="text_7">
     <text style="font-family:DejaVu Sans;font-size:10px;font-style:normal;font-weight:normal;text-anchor:middle;" transform="rotate(-0, 166.05, 252.556563)" x="166.05" y="252.556563">Input Coin's Heads Probability (λ)</text>
    </g>
   </g>
   <g id="matplotlib.axis_2">
    <g id="ytick_1">
     <g id="line2d_7">
      <defs>
       <path d="M 0 0 
L -3.5 0 
" id="mcda02ab445" style="stroke:#000000;stroke-width:0.8;"/>
      </defs>
      <g>
       <use style="stroke:#000000;stroke-width:0.8;" x="40.5" xlink:href="#mcda02ab445" y="215.46"/>
      </g>
     </g>
     <g id="text_8">
      <text style="font-family:DejaVu Sans;font-size:10px;font-style:normal;font-weight:normal;text-anchor:end;" transform="rotate(-0, 33.5, 219.259219)" x="33.5" y="219.259219">0.0</text>
     </g>
    </g>
    <g id="ytick_2">
     <g id="line2d_8">
      <g>
       <use style="stroke:#000000;stroke-width:0.8;" x="40.5" xlink:href="#mcda02ab445" y="185.961672"/>
      </g>
     </g>
     <g id="text_9">
      <text style="font-family:DejaVu Sans;font-size:10px;font-style:normal;font-weight:normal;text-anchor:end;" transform="rotate(-0, 33.5, 189.760891)" x="33.5" y="189.760891">0.1</text>
     </g>
    </g>
    <g id="ytick_3">
     <g id="line2d_9">
      <g>
       <use style="stroke:#000000;stroke-width:0.8;" x="40.5" xlink:href="#mcda02ab445" y="156.463344"/>
      </g>
     </g>
     <g id="text_10">
      <text style="font-family:DejaVu Sans;font-size:10px;font-style:normal;font-weight:normal;text-anchor:end;" transform="rotate(-0, 33.5, 160.262563)" x="33.5" y="160.262563">0.2</text>
     </g>
    </g>
    <g id="ytick_4">
     <g id="line2d_10">
      <g>
       <use style="stroke:#000000;stroke-width:0.8;" x="40.5" xlink:href="#mcda02ab445" y="126.965017"/>
      </g>
     </g>
     <g id="text_11">
      <text style="font-family:DejaVu Sans;font-size:10px;font-style:normal;font-weight:normal;text-anchor:end;" transform="rotate(-0, 33.5, 130.764235)" x="33.5" y="130.764235">0.3</text>
     </g>
    </g>
    <g id="ytick_5">
     <g id="line2d_11">
      <g>
       <use style="stroke:#000000;stroke-width:0.8;" x="40.5" xlink:href="#mcda02ab445" y="97.466689"/>
      </g>
     </g>
     <g id="text_12">
      <text style="font-family:DejaVu Sans;font-size:10px;font-style:normal;font-weight:normal;text-anchor:end;" transform="rotate(-0, 33.5, 101.265908)" x="33.5" y="101.265908">0.4</text>
     </g>
    </g>
    <g id="ytick_6">
     <g id="line2d_12">
      <g>
       <use style="stroke:#000000;stroke-width:0.8;" x="40.5" xlink:href="#mcda02ab445" y="67.968361"/>
      </g>
     </g>
     <g id="text_13">
      <text style="font-family:DejaVu Sans;font-size:10px;font-style:normal;font-weight:normal;text-anchor:end;" transform="rotate(-0, 33.5, 71.76758)" x="33.5" y="71.76758">0.5</text>
     </g>
    </g>
    <g id="ytick_7">
     <g id="line2d_13">
      <g>
       <use style="stroke:#000000;stroke-width:0.8;" x="40.5" xlink:href="#mcda02ab445" y="38.470033"/>
      </g>
     </g>
     <g id="text_14">
      <text style="font-family:DejaVu Sans;font-size:10px;font-style:normal;font-weight:normal;text-anchor:end;" transform="rotate(-0, 33.5, 42.269252)" x="33.5" y="42.269252">0.6</text>
     </g>
    </g>
    <g id="text_15">
     <text style="font-family:DejaVu Sans;font-size:10px;font-style:normal;font-weight:normal;text-anchor:middle;" transform="rotate(-90, 11.517187, 127.26)" x="11.517187" y="127.26">Simulated Mean / Function Value</text>
    </g>
   </g>
   <g id="line2d_14">
    <path clip-path="url(#pe14ece5042)" d="M 52.119123 215.165164 
L 54.420757 212.20939 
L 56.722391 209.283267 
L 59.024025 206.386507 
L 61.325658 203.518831 
L 63.627292 200.679968 
L 65.928926 197.869654 
L 68.23056 195.087635 
L 70.532194 192.333664 
L 72.833828 189.6075 
L 75.135462 186.908912 
L 77.437096 184.237673 
L 79.738729 181.593566 
L 82.040363 178.976378 
L 84.341997 176.385905 
L 86.643631 173.821948 
L 88.945265 171.284316 
L 91.246899 168.772822 
L 93.548533 166.287286 
L 95.850167 163.827535 
L 98.151801 161.393401 
L 100.453434 158.984722 
L 102.755068 156.601342 
L 105.056702 154.243109 
L 107.358336 151.90988 
L 109.65997 149.601513 
L 111.961604 147.317875 
L 114.263238 145.058838 
L 116.564872 142.824276 
L 118.866505 140.614073 
L 121.168139 138.428115 
L 123.469773 136.266294 
L 125.771407 134.128506 
L 128.073041 132.014656 
L 130.374675 129.924649 
L 132.676309 127.858399 
L 134.977943 125.815823 
L 137.279576 123.796845 
L 139.58121 121.801391 
L 141.882844 119.829395 
L 144.184478 117.880796 
L 146.486112 115.955537 
L 148.787746 114.053567 
L 151.08938 112.174839 
L 153.391014 110.319313 
L 155.692648 108.486955 
L 157.994281 106.677735 
L 160.295915 104.891629 
L 162.597549 103.128618 
L 164.899183 101.388692 
L 167.200817 99.671843 
L 169.502451 97.978071 
L 171.804085 96.307384 
L 174.105719 94.659793 
L 176.407352 93.035319 
L 178.708986 91.433988 
L 181.01062 89.855834 
L 183.312254 88.300898 
L 185.613888 86.769229 
L 187.915522 85.260885 
L 190.217156 83.77593 
L 192.51879 82.314441 
L 194.820424 80.8765 
L 197.122057 79.462201 
L 199.423691 78.071649 
L 201.725325 76.704958 
L 204.026959 75.362255 
L 206.328593 74.043679 
L 208.630227 72.749384 
L 210.931861 71.479534 
L 213.233495 70.234312 
L 215.535128 69.013916 
L 217.836762 67.818562 
L 220.138396 66.648485 
L 222.44003 65.503941 
L 224.741664 64.385208 
L 227.043298 63.29259 
L 229.344932 62.22642 
L 231.646566 61.187058 
L 233.948199 60.174903 
L 236.249833 59.190388 
L 238.551467 58.233992 
L 240.853101 57.30624 
L 243.154735 56.407717 
L 245.456369 55.53907 
L 247.758003 54.70102 
L 250.059637 53.894378 
L 252.361271 53.120059 
L 254.662904 52.379104 
L 256.964538 51.672707 
L 259.266172 51.002254 
L 261.567806 50.369374 
L 263.86944 49.776014 
L 266.171074 49.224546 
L 268.472708 48.717942 
L 270.774342 48.260057 
L 273.075975 47.856164 
L 275.377609 47.514065 
L 277.679243 47.247098 
L 279.980877 47.089027 
" style="fill:none;stroke:#1f77b4;stroke-linecap:square;stroke-width:1.5;"/>
   </g>
   <g id="line2d_15">
    <path clip-path="url(#pe14ece5042)" d="M 51.913636 215.46 
L 54.219421 213.100134 
L 56.525207 208.970368 
L 58.830992 207.200468 
L 61.136777 202.480736 
L 63.442562 199.530903 
L 65.748347 194.811171 
L 68.054132 202.480736 
L 70.359917 192.451304 
L 72.665702 185.961672 
L 74.971488 189.501472 
L 77.277273 180.062007 
L 79.583058 177.112174 
L 81.888843 176.522207 
L 84.194628 171.212508 
L 86.500413 172.982408 
L 88.806198 168.852642 
L 91.111983 169.442609 
L 93.417769 162.36301 
L 95.723554 162.36301 
L 98.029339 160.003144 
L 100.335124 155.873378 
L 102.640909 170.622542 
L 104.946694 154.103478 
L 107.252479 144.664013 
L 109.558264 152.333579 
L 111.86405 160.59311 
L 114.169835 152.333579 
L 116.47562 136.994448 
L 118.781405 141.714181 
L 121.08719 134.634582 
L 123.392975 133.454649 
L 125.69876 124.015184 
L 128.004545 139.944281 
L 130.310331 136.994448 
L 132.616116 122.835251 
L 134.921901 121.655318 
L 137.227686 116.345619 
L 139.533471 128.14495 
L 141.839256 119.295452 
L 144.145041 115.755652 
L 146.450826 117.525552 
L 148.756612 113.985753 
L 151.062397 108.676054 
L 153.368182 111.625886 
L 155.673967 105.136254 
L 157.979752 114.575719 
L 160.285537 96.286756 
L 162.591322 99.826555 
L 164.897107 100.416522 
L 167.202893 101.006488 
L 169.508678 98.646622 
L 171.814463 93.336923 
L 174.120248 89.797124 
L 176.426033 82.717525 
L 178.731818 103.366355 
L 181.037603 89.797124 
L 183.343388 90.977057 
L 185.649174 77.997793 
L 187.954959 87.437258 
L 190.260744 83.897458 
L 192.566529 86.257324 
L 194.872314 73.27806 
L 197.178099 70.918194 
L 199.483884 84.487425 
L 201.789669 77.997793 
L 204.095455 66.198462 
L 206.40124 74.457993 
L 208.707025 78.587759 
L 211.01281 80.947625 
L 213.318595 73.868027 
L 215.62438 61.478729 
L 217.930165 72.098127 
L 220.23595 58.528896 
L 222.541736 63.838595 
L 224.847521 63.838595 
L 227.153306 62.658662 
L 229.459091 58.528896 
L 231.764876 72.688094 
L 234.070661 57.93893 
L 236.376446 55.579064 
L 238.682231 57.348963 
L 240.988017 57.348963 
L 243.293802 69.738261 
L 245.599587 46.729565 
L 247.905372 59.118863 
L 250.211157 56.758997 
L 252.516942 59.118863 
L 254.822727 58.528896 
L 257.128512 56.758997 
L 259.434298 59.708829 
L 261.740083 42.599799 
L 264.045868 48.499465 
L 266.351653 48.499465 
L 268.657438 56.16903 
L 270.963223 55.579064 
L 273.269008 45.549632 
L 275.574793 52.629231 
L 277.880579 63.248629 
L 280.186364 39.06 
" style="fill:none;stroke:#ff7f0e;stroke-linecap:square;stroke-width:1.5;"/>
   </g>
   <g id="patch_3">
    <path d="M 40.5 224.28 
L 40.5 30.24 
" style="fill:none;stroke:#000000;stroke-linecap:square;stroke-linejoin:miter;stroke-width:0.8;"/>
   </g>
   <g id="patch_4">
    <path d="M 291.6 224.28 
L 291.6 30.24 
" style="fill:none;stroke:#000000;stroke-linecap:square;stroke-linejoin:miter;stroke-width:0.8;"/>
   </g>
   <g id="patch_5">
    <path d="M 40.5 224.28 
L 291.6 224.28 
" style="fill:none;stroke:#000000;stroke-linecap:square;stroke-linejoin:miter;stroke-width:0.8;"/>
   </g>
   <g id="patch_6">
    <path d="M 40.5 30.24 
L 291.6 30.24 
" style="fill:none;stroke:#000000;stroke-linecap:square;stroke-linejoin:miter;stroke-width:0.8;"/>
   </g>
   <g id="text_16">
    <text style="font-family:DejaVu Sans;font-size:12px;font-style:normal;font-weight:normal;text-anchor:middle;" transform="rotate(-0, 166.05, 24.24)" x="166.05" y="24.24">Expected Value in arcsin(x)+sqrt(1-x*x)-1 Algorithm</text>
   </g>
   <g id="legend_1">
    <g id="patch_7">
     <path d="M 47.5 219.28 
L 292.5625 219.28 
Q 294.5625 219.28 294.5625 217.28 
L 294.5625 188.92375 
Q 294.5625 186.92375 292.5625 186.92375 
L 47.5 186.92375 
Q 45.5 186.92375 45.5 188.92375 
L 45.5 217.28 
Q 45.5 219.28 47.5 219.28 
z
" style="fill:#ffffff;opacity:0.8;stroke:#cccccc;stroke-linejoin:miter;"/>
    </g>
    <g id="line2d_16">
     <path d="M 49.5 195.022188 
L 69.5 195.022188 
" style="fill:none;stroke:#1f77b4;stroke-linecap:square;stroke-width:1.5;"/>
    </g>
    <g id="line2d_17"/>
    <g id="text_17">
     <text style="font-family:DejaVu Sans;font-size:10px;font-style:normal;font-weight:normal;text-anchor:start;" transform="rotate(-0, 77.5, 198.522188)" x="77.5" y="198.522188">arcsin(x)+sqrt(1-x*x)-1</text>
    </g>
    <g id="line2d_18">
     <path d="M 49.5 209.700312 
L 69.5 209.700312 
" style="fill:none;stroke:#ff7f0e;stroke-linecap:square;stroke-width:1.5;"/>
    </g>
    <g id="line2d_19"/>
    <g id="text_18">
     <text style="font-family:DejaVu Sans;font-size:10px;font-style:normal;font-weight:normal;text-anchor:start;" transform="rotate(-0, 77.5, 213.200312)" x="77.5" y="213.200312">Simulated Mean of arcsin(x)+sqrt(1-x*x)-1</text>
    </g>
   </g>
  </g>
 </g>
 <defs>
  <clipPath id="pe14ece5042">
   <rect height="194.04" width="251.1" x="40.5" y="30.24"/>
  </clipPath>
 </defs>
</svg>
