<?xml version="1.0" encoding="utf-8" standalone="no"?>
<!DOCTYPE svg PUBLIC "-//W3C//DTD SVG 1.1//EN"
  "http://www.w3.org/Graphics/SVG/1.1/DTD/svg11.dtd">
<!-- Created with matplotlib (https://matplotlib.org/) -->
<svg height="252pt" version="1.1" viewBox="0 0 324 252" width="324pt" xmlns="http://www.w3.org/2000/svg" xmlns:xlink="http://www.w3.org/1999/xlink">
 <defs>
  <style type="text/css">
*{stroke-linecap:butt;stroke-linejoin:round;}
  </style>
 </defs>
 <g id="figure_1">
  <g id="patch_1">
   <path d="M 0 252 
L 324 252 
L 324 0 
L 0 0 
z
" style="fill:#ffffff;"/>
  </g>
  <g id="axes_1">
   <g id="patch_2">
    <path d="M 40.5 224.28 
L 291.6 224.28 
L 291.6 30.24 
L 40.5 30.24 
z
" style="fill:#ffffff;"/>
   </g>
   <g id="matplotlib.axis_1">
    <g id="xtick_1">
     <g id="line2d_1">
      <defs>
       <path d="M 0 0 
L 0 3.5 
" id="m6cf57a861b" style="stroke:#000000;stroke-width:0.8;"/>
      </defs>
      <g>
       <use style="stroke:#000000;stroke-width:0.8;" x="51.890805" xlink:href="#m6cf57a861b" y="224.28"/>
      </g>
     </g>
     <g id="text_1">
      <text style="font-family:DejaVu Sans;font-size:10px;font-style:normal;font-weight:normal;text-anchor:middle;" transform="rotate(-0, 51.890805, 238.878438)" x="51.890805" y="238.878438">0.0</text>
     </g>
    </g>
    <g id="xtick_2">
     <g id="line2d_2">
      <g>
       <use style="stroke:#000000;stroke-width:0.8;" x="97.554483" xlink:href="#m6cf57a861b" y="224.28"/>
      </g>
     </g>
     <g id="text_2">
      <text style="font-family:DejaVu Sans;font-size:10px;font-style:normal;font-weight:normal;text-anchor:middle;" transform="rotate(-0, 97.554483, 238.878438)" x="97.554483" y="238.878438">0.2</text>
     </g>
    </g>
    <g id="xtick_3">
     <g id="line2d_3">
      <g>
       <use style="stroke:#000000;stroke-width:0.8;" x="143.218161" xlink:href="#m6cf57a861b" y="224.28"/>
      </g>
     </g>
     <g id="text_3">
      <text style="font-family:DejaVu Sans;font-size:10px;font-style:normal;font-weight:normal;text-anchor:middle;" transform="rotate(-0, 143.218161, 238.878438)" x="143.218161" y="238.878438">0.4</text>
     </g>
    </g>
    <g id="xtick_4">
     <g id="line2d_4">
      <g>
       <use style="stroke:#000000;stroke-width:0.8;" x="188.881839" xlink:href="#m6cf57a861b" y="224.28"/>
      </g>
     </g>
     <g id="text_4">
      <text style="font-family:DejaVu Sans;font-size:10px;font-style:normal;font-weight:normal;text-anchor:middle;" transform="rotate(-0, 188.881839, 238.878438)" x="188.881839" y="238.878438">0.6</text>
     </g>
    </g>
    <g id="xtick_5">
     <g id="line2d_5">
      <g>
       <use style="stroke:#000000;stroke-width:0.8;" x="234.545517" xlink:href="#m6cf57a861b" y="224.28"/>
      </g>
     </g>
     <g id="text_5">
      <text style="font-family:DejaVu Sans;font-size:10px;font-style:normal;font-weight:normal;text-anchor:middle;" transform="rotate(-0, 234.545517, 238.878438)" x="234.545517" y="238.878438">0.8</text>
     </g>
    </g>
    <g id="xtick_6">
     <g id="line2d_6">
      <g>
       <use style="stroke:#000000;stroke-width:0.8;" x="280.209195" xlink:href="#m6cf57a861b" y="224.28"/>
      </g>
     </g>
     <g id="text_6">
      <text style="font-family:DejaVu Sans;font-size:10px;font-style:normal;font-weight:normal;text-anchor:middle;" transform="rotate(-0, 280.209195, 238.878438)" x="280.209195" y="238.878438">1.0</text>
     </g>
    </g>
    <g id="text_7">
     <text style="font-family:DejaVu Sans;font-size:10px;font-style:normal;font-weight:normal;text-anchor:middle;" transform="rotate(-0, 166.05, 252.556563)" x="166.05" y="252.556563">Input Coin's Heads Probability (λ)</text>
    </g>
   </g>
   <g id="matplotlib.axis_2">
    <g id="ytick_1">
     <g id="line2d_7">
      <defs>
       <path d="M 0 0 
L -3.5 0 
" id="m153abf2830" style="stroke:#000000;stroke-width:0.8;"/>
      </defs>
      <g>
       <use style="stroke:#000000;stroke-width:0.8;" x="40.5" xlink:href="#m153abf2830" y="216.445229"/>
      </g>
     </g>
     <g id="text_8">
      <text style="font-family:DejaVu Sans;font-size:10px;font-style:normal;font-weight:normal;text-anchor:end;" transform="rotate(-0, 33.5, 220.244448)" x="33.5" y="220.244448">0</text>
     </g>
    </g>
    <g id="ytick_2">
     <g id="line2d_8">
      <g>
       <use style="stroke:#000000;stroke-width:0.8;" x="40.5" xlink:href="#m153abf2830" y="193.507682"/>
      </g>
     </g>
     <g id="text_9">
      <text style="font-family:DejaVu Sans;font-size:10px;font-style:normal;font-weight:normal;text-anchor:end;" transform="rotate(-0, 33.5, 197.3069)" x="33.5" y="197.3069">10</text>
     </g>
    </g>
    <g id="ytick_3">
     <g id="line2d_9">
      <g>
       <use style="stroke:#000000;stroke-width:0.8;" x="40.5" xlink:href="#m153abf2830" y="170.570134"/>
      </g>
     </g>
     <g id="text_10">
      <text style="font-family:DejaVu Sans;font-size:10px;font-style:normal;font-weight:normal;text-anchor:end;" transform="rotate(-0, 33.5, 174.369353)" x="33.5" y="174.369353">20</text>
     </g>
    </g>
    <g id="ytick_4">
     <g id="line2d_10">
      <g>
       <use style="stroke:#000000;stroke-width:0.8;" x="40.5" xlink:href="#m153abf2830" y="147.632587"/>
      </g>
     </g>
     <g id="text_11">
      <text style="font-family:DejaVu Sans;font-size:10px;font-style:normal;font-weight:normal;text-anchor:end;" transform="rotate(-0, 33.5, 151.431806)" x="33.5" y="151.431806">30</text>
     </g>
    </g>
    <g id="ytick_5">
     <g id="line2d_11">
      <g>
       <use style="stroke:#000000;stroke-width:0.8;" x="40.5" xlink:href="#m153abf2830" y="124.695039"/>
      </g>
     </g>
     <g id="text_12">
      <text style="font-family:DejaVu Sans;font-size:10px;font-style:normal;font-weight:normal;text-anchor:end;" transform="rotate(-0, 33.5, 128.494258)" x="33.5" y="128.494258">40</text>
     </g>
    </g>
    <g id="ytick_6">
     <g id="line2d_12">
      <g>
       <use style="stroke:#000000;stroke-width:0.8;" x="40.5" xlink:href="#m153abf2830" y="101.757492"/>
      </g>
     </g>
     <g id="text_13">
      <text style="font-family:DejaVu Sans;font-size:10px;font-style:normal;font-weight:normal;text-anchor:end;" transform="rotate(-0, 33.5, 105.556711)" x="33.5" y="105.556711">50</text>
     </g>
    </g>
    <g id="ytick_7">
     <g id="line2d_13">
      <g>
       <use style="stroke:#000000;stroke-width:0.8;" x="40.5" xlink:href="#m153abf2830" y="78.819945"/>
      </g>
     </g>
     <g id="text_14">
      <text style="font-family:DejaVu Sans;font-size:10px;font-style:normal;font-weight:normal;text-anchor:end;" transform="rotate(-0, 33.5, 82.619163)" x="33.5" y="82.619163">60</text>
     </g>
    </g>
    <g id="ytick_8">
     <g id="line2d_14">
      <g>
       <use style="stroke:#000000;stroke-width:0.8;" x="40.5" xlink:href="#m153abf2830" y="55.882397"/>
      </g>
     </g>
     <g id="text_15">
      <text style="font-family:DejaVu Sans;font-size:10px;font-style:normal;font-weight:normal;text-anchor:end;" transform="rotate(-0, 33.5, 59.681616)" x="33.5" y="59.681616">70</text>
     </g>
    </g>
    <g id="ytick_9">
     <g id="line2d_15">
      <g>
       <use style="stroke:#000000;stroke-width:0.8;" x="40.5" xlink:href="#m153abf2830" y="32.94485"/>
      </g>
     </g>
     <g id="text_16">
      <text style="font-family:DejaVu Sans;font-size:10px;font-style:normal;font-weight:normal;text-anchor:end;" transform="rotate(-0, 33.5, 36.744069)" x="33.5" y="36.744069">80</text>
     </g>
    </g>
    <g id="text_17">
     <text style="font-family:DejaVu Sans;font-size:10px;font-style:normal;font-weight:normal;text-anchor:middle;" transform="rotate(-90, 14.695312, 127.26)" x="14.695312" y="127.26">Coin Flips Needed</text>
    </g>
   </g>
   <g id="line2d_16">
    <path clip-path="url(#pa52b985ccc)" d="M 51.913636 215.298409 
L 54.219421 215.304131 
L 56.525207 215.30972 
L 58.830992 215.315179 
L 61.136777 215.32051 
L 63.442562 215.325717 
L 65.748347 215.330801 
L 68.054132 215.335767 
L 70.359917 215.340615 
L 72.665702 215.345349 
L 74.971488 215.34997 
L 77.277273 215.354481 
L 79.583058 215.358883 
L 81.888843 215.363179 
L 84.194628 215.36737 
L 86.500413 215.371457 
L 88.806198 215.375444 
L 91.111983 215.37933 
L 93.417769 215.383118 
L 95.723554 215.386809 
L 98.029339 215.390403 
L 100.335124 215.393903 
L 102.640909 215.39731 
L 104.946694 215.400623 
L 107.252479 215.403845 
L 109.558264 215.406976 
L 111.86405 215.410018 
L 114.169835 215.412969 
L 116.47562 215.415833 
L 118.781405 215.418608 
L 121.08719 215.421295 
L 123.392975 215.423895 
L 125.69876 215.426408 
L 128.004545 215.428835 
L 130.310331 215.431174 
L 132.616116 215.433428 
L 134.921901 215.435595 
L 137.227686 215.437675 
L 139.533471 215.439668 
L 141.839256 215.441575 
L 144.145041 215.443394 
L 146.450826 215.445124 
L 148.756612 215.446767 
L 151.062397 215.44832 
L 153.368182 215.449783 
L 155.673967 215.451154 
L 157.979752 215.452434 
L 160.285537 215.453621 
L 162.591322 215.454712 
L 164.897107 215.455708 
L 167.202893 215.456605 
L 169.508678 215.457403 
L 171.814463 215.4581 
L 174.120248 215.458692 
L 176.426033 215.459178 
L 178.731818 215.459555 
L 181.037603 215.459819 
L 183.343388 215.459969 
L 185.649174 215.46 
L 187.954959 215.459908 
L 190.260744 215.45969 
L 192.566529 215.45934 
L 194.872314 215.458854 
L 197.178099 215.458226 
L 199.483884 215.457451 
L 201.789669 215.456521 
L 204.095455 215.455429 
L 206.40124 215.454167 
L 208.707025 215.452727 
L 211.01281 215.451099 
L 213.318595 215.449271 
L 215.62438 215.447232 
L 217.930165 215.444969 
L 220.23595 215.442467 
L 222.541736 215.439708 
L 224.847521 215.436674 
L 227.153306 215.433344 
L 229.459091 215.429694 
L 231.764876 215.425695 
L 234.070661 215.421317 
L 236.376446 215.416523 
L 238.682231 215.411271 
L 240.988017 215.405512 
L 243.293802 215.399187 
L 245.599587 215.392227 
L 247.905372 215.384551 
L 250.211157 215.376056 
L 252.516942 215.36662 
L 254.822727 215.356088 
L 257.128512 215.344264 
L 259.434298 215.330893 
L 261.740083 215.315637 
L 264.045868 215.298031 
L 266.351653 215.277412 
L 268.657438 215.252791 
L 270.963223 215.222577 
L 273.269008 215.183971 
L 275.574793 215.131216 
L 277.880579 215.048524 
L 280.186364 213.121825 
" style="fill:none;stroke:#1f77b4;stroke-linecap:square;stroke-width:1.5;"/>
   </g>
   <g id="line2d_17">
    <path clip-path="url(#pa52b985ccc)" d="M 51.913636 210.164929 
L 54.219421 210.224566 
L 56.525207 209.949316 
L 58.830992 210.064003 
L 61.136777 210.311729 
L 63.442562 210.233741 
L 65.748347 210.403479 
L 68.054132 210.073178 
L 70.359917 210.137404 
L 72.665702 210.242916 
L 74.971488 210.233741 
L 77.277273 210.141991 
L 79.583058 210.201629 
L 81.888843 210.275029 
L 84.194628 210.252091 
L 86.500413 210.215391 
L 88.806198 210.270441 
L 91.111983 210.275029 
L 93.417769 210.229154 
L 95.723554 210.068591 
L 98.029339 210.275029 
L 100.335124 210.261266 
L 102.640909 210.412654 
L 104.946694 210.132816 
L 107.252479 210.197041 
L 109.558264 210.210804 
L 111.86405 210.297966 
L 114.169835 210.210804 
L 116.47562 210.114466 
L 118.781405 210.362192 
L 121.08719 210.141991 
L 123.392975 210.270441 
L 125.69876 210.302554 
L 128.004545 210.256679 
L 130.310331 210.146579 
L 132.616116 210.210804 
L 134.921901 210.311729 
L 137.227686 210.146579 
L 139.533471 210.394304 
L 141.839256 210.022716 
L 144.145041 210.109879 
L 146.450826 210.141991 
L 148.756612 210.164929 
L 151.062397 210.091528 
L 153.368182 210.146579 
L 155.673967 210.105291 
L 157.979752 210.233741 
L 160.285537 210.348429 
L 162.591322 210.008953 
L 164.897107 210.224566 
L 167.202893 210.151166 
L 169.508678 210.004366 
L 171.814463 210.077766 
L 174.120248 210.054828 
L 176.426033 209.852978 
L 178.731818 209.908028 
L 181.037603 209.986016 
L 183.343388 210.027303 
L 185.649174 209.894266 
L 187.954959 209.976841 
L 190.260744 210.132816 
L 192.566529 209.820865 
L 194.872314 209.862153 
L 197.178099 209.710765 
L 199.483884 209.81169 
L 201.789669 209.706178 
L 204.095455 209.55479 
L 206.40124 209.62819 
L 208.707025 209.55479 
L 211.01281 209.46304 
L 213.318595 209.49974 
L 215.62438 209.178614 
L 217.930165 209.38964 
L 220.23595 209.146502 
L 222.541736 209.086864 
L 224.847521 208.875838 
L 227.153306 208.963001 
L 229.459091 209.196964 
L 231.764876 208.843726 
L 234.070661 209.050164 
L 236.376446 208.39415 
L 238.682231 208.706101 
L 240.988017 208.004212 
L 243.293802 208.293225 
L 245.599587 208.701513 
L 247.905372 207.921637 
L 250.211157 207.985862 
L 252.516942 208.178537 
L 254.822727 207.494998 
L 257.128512 207.476648 
L 259.434298 207.109647 
L 261.740083 205.192068 
L 264.045868 205.83432 
L 266.351653 206.724297 
L 268.657438 202.843264 
L 270.963223 204.146116 
L 273.269008 205.490256 
L 275.574793 201.049547 
L 277.880579 198.448429 
L 280.186364 39.06 
" style="fill:none;stroke:#ff7f0e;stroke-linecap:square;stroke-width:1.5;"/>
   </g>
   <g id="patch_3">
    <path d="M 40.5 224.28 
L 40.5 30.24 
" style="fill:none;stroke:#000000;stroke-linecap:square;stroke-linejoin:miter;stroke-width:0.8;"/>
   </g>
   <g id="patch_4">
    <path d="M 291.6 224.28 
L 291.6 30.24 
" style="fill:none;stroke:#000000;stroke-linecap:square;stroke-linejoin:miter;stroke-width:0.8;"/>
   </g>
   <g id="patch_5">
    <path d="M 40.5 224.28 
L 291.6 224.28 
" style="fill:none;stroke:#000000;stroke-linecap:square;stroke-linejoin:miter;stroke-width:0.8;"/>
   </g>
   <g id="patch_6">
    <path d="M 40.5 30.24 
L 291.6 30.24 
" style="fill:none;stroke:#000000;stroke-linecap:square;stroke-linejoin:miter;stroke-width:0.8;"/>
   </g>
   <g id="text_18">
    <text style="font-family:DejaVu Sans;font-size:12px;font-style:normal;font-weight:normal;text-anchor:middle;" transform="rotate(-0, 166.05, 24.24)" x="166.05" y="24.24">Coin Flips for arcsin(x)/2</text>
   </g>
   <g id="legend_1">
    <g id="patch_7">
     <path d="M 47.5 67.59625 
L 247.323438 67.59625 
Q 249.323438 67.59625 249.323438 65.59625 
L 249.323438 37.24 
Q 249.323438 35.24 247.323438 35.24 
L 47.5 35.24 
Q 45.5 35.24 45.5 37.24 
L 45.5 65.59625 
Q 45.5 67.59625 47.5 67.59625 
z
" style="fill:#ffffff;opacity:0.8;stroke:#cccccc;stroke-linejoin:miter;"/>
    </g>
    <g id="line2d_18">
     <path d="M 49.5 43.338438 
L 69.5 43.338438 
" style="fill:none;stroke:#1f77b4;stroke-linecap:square;stroke-width:1.5;"/>
    </g>
    <g id="line2d_19"/>
    <g id="text_19">
     <text style="font-family:DejaVu Sans;font-size:10px;font-style:normal;font-weight:normal;text-anchor:start;" transform="rotate(-0, 77.5, 46.838438)" x="77.5" y="46.838438">Coin Flip Lower Bound</text>
    </g>
    <g id="line2d_20">
     <path d="M 49.5 58.016563 
L 69.5 58.016563 
" style="fill:none;stroke:#ff7f0e;stroke-linecap:square;stroke-width:1.5;"/>
    </g>
    <g id="line2d_21"/>
    <g id="text_20">
     <text style="font-family:DejaVu Sans;font-size:10px;font-style:normal;font-weight:normal;text-anchor:start;" transform="rotate(-0, 77.5, 61.516563)" x="77.5" y="61.516563">Average Coins Flipped arcsin(x)/2</text>
    </g>
   </g>
  </g>
 </g>
 <defs>
  <clipPath id="pa52b985ccc">
   <rect height="194.04" width="251.1" x="40.5" y="30.24"/>
  </clipPath>
 </defs>
</svg>
