<?xml version="1.0" encoding="utf-8" standalone="no"?>
<!DOCTYPE svg PUBLIC "-//W3C//DTD SVG 1.1//EN"
  "http://www.w3.org/Graphics/SVG/1.1/DTD/svg11.dtd">
<!-- Created with matplotlib (https://matplotlib.org/) -->
<svg height="345.6pt" version="1.1" viewBox="0 0 460.8 345.6" width="460.8pt" xmlns="http://www.w3.org/2000/svg" xmlns:xlink="http://www.w3.org/1999/xlink">
 <defs>
  <style type="text/css">
*{stroke-linecap:butt;stroke-linejoin:round;}
  </style>
 </defs>
 <g id="figure_1">
  <g id="patch_1">
   <path d="M 0 345.6 
L 460.8 345.6 
L 460.8 0 
L 0 0 
z
" style="fill:#ffffff;"/>
  </g>
  <g id="axes_1">
   <g id="patch_2">
    <path d="M 57.6 307.584 
L 414.72 307.584 
L 414.72 41.472 
L 57.6 41.472 
z
" style="fill:#ffffff;"/>
   </g>
   <g id="matplotlib.axis_1">
    <g id="xtick_1">
     <g id="line2d_1">
      <defs>
       <path d="M 0 0 
L 0 3.5 
" id="m9989ee4fb2" style="stroke:#000000;stroke-width:0.8;"/>
      </defs>
      <g>
       <use style="stroke:#000000;stroke-width:0.8;" x="73.800255" xlink:href="#m9989ee4fb2" y="307.584"/>
      </g>
     </g>
     <g id="text_1">
      <text style="font-family:DejaVu Sans;font-size:10px;font-style:normal;font-weight:normal;text-anchor:middle;" transform="rotate(-0, 73.800255, 322.182437)" x="73.800255" y="322.182437">0.0</text>
     </g>
    </g>
    <g id="xtick_2">
     <g id="line2d_2">
      <g>
       <use style="stroke:#000000;stroke-width:0.8;" x="138.744153" xlink:href="#m9989ee4fb2" y="307.584"/>
      </g>
     </g>
     <g id="text_2">
      <text style="font-family:DejaVu Sans;font-size:10px;font-style:normal;font-weight:normal;text-anchor:middle;" transform="rotate(-0, 138.744153, 322.182437)" x="138.744153" y="322.182437">0.2</text>
     </g>
    </g>
    <g id="xtick_3">
     <g id="line2d_3">
      <g>
       <use style="stroke:#000000;stroke-width:0.8;" x="203.688051" xlink:href="#m9989ee4fb2" y="307.584"/>
      </g>
     </g>
     <g id="text_3">
      <text style="font-family:DejaVu Sans;font-size:10px;font-style:normal;font-weight:normal;text-anchor:middle;" transform="rotate(-0, 203.688051, 322.182437)" x="203.688051" y="322.182437">0.4</text>
     </g>
    </g>
    <g id="xtick_4">
     <g id="line2d_4">
      <g>
       <use style="stroke:#000000;stroke-width:0.8;" x="268.631949" xlink:href="#m9989ee4fb2" y="307.584"/>
      </g>
     </g>
     <g id="text_4">
      <text style="font-family:DejaVu Sans;font-size:10px;font-style:normal;font-weight:normal;text-anchor:middle;" transform="rotate(-0, 268.631949, 322.182437)" x="268.631949" y="322.182437">0.6</text>
     </g>
    </g>
    <g id="xtick_5">
     <g id="line2d_5">
      <g>
       <use style="stroke:#000000;stroke-width:0.8;" x="333.575847" xlink:href="#m9989ee4fb2" y="307.584"/>
      </g>
     </g>
     <g id="text_5">
      <text style="font-family:DejaVu Sans;font-size:10px;font-style:normal;font-weight:normal;text-anchor:middle;" transform="rotate(-0, 333.575847, 322.182437)" x="333.575847" y="322.182437">0.8</text>
     </g>
    </g>
    <g id="xtick_6">
     <g id="line2d_6">
      <g>
       <use style="stroke:#000000;stroke-width:0.8;" x="398.519745" xlink:href="#m9989ee4fb2" y="307.584"/>
      </g>
     </g>
     <g id="text_6">
      <text style="font-family:DejaVu Sans;font-size:10px;font-style:normal;font-weight:normal;text-anchor:middle;" transform="rotate(-0, 398.519745, 322.182437)" x="398.519745" y="322.182437">1.0</text>
     </g>
    </g>
    <g id="text_7">
     <text style="font-family:DejaVu Sans;font-size:10px;font-style:normal;font-weight:normal;text-anchor:middle;" transform="rotate(-0, 236.16, 335.860562)" x="236.16" y="335.860562">Input Coin's Heads Probability (λ)</text>
    </g>
   </g>
   <g id="matplotlib.axis_2">
    <g id="ytick_1">
     <g id="line2d_7">
      <defs>
       <path d="M 0 0 
L -3.5 0 
" id="m3123e40d2a" style="stroke:#000000;stroke-width:0.8;"/>
      </defs>
      <g>
       <use style="stroke:#000000;stroke-width:0.8;" x="57.6" xlink:href="#m3123e40d2a" y="296.482265"/>
      </g>
     </g>
     <g id="text_8">
      <text style="font-family:DejaVu Sans;font-size:10px;font-style:normal;font-weight:normal;text-anchor:end;" transform="rotate(-0, 50.6, 300.281484)" x="50.6" y="300.281484">0</text>
     </g>
    </g>
    <g id="ytick_2">
     <g id="line2d_8">
      <g>
       <use style="stroke:#000000;stroke-width:0.8;" x="57.6" xlink:href="#m3123e40d2a" y="250.186427"/>
      </g>
     </g>
     <g id="text_9">
      <text style="font-family:DejaVu Sans;font-size:10px;font-style:normal;font-weight:normal;text-anchor:end;" transform="rotate(-0, 50.6, 253.985645)" x="50.6" y="253.985645">20</text>
     </g>
    </g>
    <g id="ytick_3">
     <g id="line2d_9">
      <g>
       <use style="stroke:#000000;stroke-width:0.8;" x="57.6" xlink:href="#m3123e40d2a" y="203.890588"/>
      </g>
     </g>
     <g id="text_10">
      <text style="font-family:DejaVu Sans;font-size:10px;font-style:normal;font-weight:normal;text-anchor:end;" transform="rotate(-0, 50.6, 207.689807)" x="50.6" y="207.689807">40</text>
     </g>
    </g>
    <g id="ytick_4">
     <g id="line2d_10">
      <g>
       <use style="stroke:#000000;stroke-width:0.8;" x="57.6" xlink:href="#m3123e40d2a" y="157.594749"/>
      </g>
     </g>
     <g id="text_11">
      <text style="font-family:DejaVu Sans;font-size:10px;font-style:normal;font-weight:normal;text-anchor:end;" transform="rotate(-0, 50.6, 161.393968)" x="50.6" y="161.393968">60</text>
     </g>
    </g>
    <g id="ytick_5">
     <g id="line2d_11">
      <g>
       <use style="stroke:#000000;stroke-width:0.8;" x="57.6" xlink:href="#m3123e40d2a" y="111.298911"/>
      </g>
     </g>
     <g id="text_12">
      <text style="font-family:DejaVu Sans;font-size:10px;font-style:normal;font-weight:normal;text-anchor:end;" transform="rotate(-0, 50.6, 115.098129)" x="50.6" y="115.098129">80</text>
     </g>
    </g>
    <g id="ytick_6">
     <g id="line2d_12">
      <g>
       <use style="stroke:#000000;stroke-width:0.8;" x="57.6" xlink:href="#m3123e40d2a" y="65.003072"/>
      </g>
     </g>
     <g id="text_13">
      <text style="font-family:DejaVu Sans;font-size:10px;font-style:normal;font-weight:normal;text-anchor:end;" transform="rotate(-0, 50.6, 68.802291)" x="50.6" y="68.802291">100</text>
     </g>
    </g>
    <g id="text_14">
     <text style="font-family:DejaVu Sans;font-size:10px;font-style:normal;font-weight:normal;text-anchor:middle;" transform="rotate(-90, 25.432813, 174.528)" x="25.432813" y="174.528">Coin Flips Needed</text>
    </g>
   </g>
   <g id="line2d_13">
    <path clip-path="url(#p7326c54358)" d="M 73.832727 295.324927 
L 77.112066 295.330702 
L 80.391405 295.336342 
L 83.670744 295.34185 
L 86.950083 295.347231 
L 90.229421 295.352485 
L 93.50876 295.357616 
L 96.788099 295.362627 
L 100.067438 295.36752 
L 103.346777 295.372297 
L 106.626116 295.376961 
L 109.905455 295.381513 
L 113.184793 295.385956 
L 116.464132 295.390291 
L 119.743471 295.39452 
L 123.02281 295.398645 
L 126.302149 295.402668 
L 129.581488 295.40659 
L 132.860826 295.410413 
L 136.140165 295.414137 
L 139.419504 295.417765 
L 142.698843 295.421297 
L 145.978182 295.424735 
L 149.257521 295.428079 
L 152.53686 295.43133 
L 155.816198 295.43449 
L 159.095537 295.437559 
L 162.374876 295.440538 
L 165.654215 295.443427 
L 168.933554 295.446228 
L 172.212893 295.44894 
L 175.492231 295.451564 
L 178.77157 295.4541 
L 182.050909 295.456549 
L 185.330248 295.45891 
L 188.609587 295.461184 
L 191.888926 295.463371 
L 195.168264 295.46547 
L 198.447603 295.467482 
L 201.726942 295.469406 
L 205.006281 295.471241 
L 208.28562 295.472988 
L 211.564959 295.474645 
L 214.844298 295.476213 
L 218.123636 295.477689 
L 221.402975 295.479073 
L 224.682314 295.480365 
L 227.961653 295.481562 
L 231.240992 295.482664 
L 234.520331 295.483668 
L 237.799669 295.484574 
L 241.079008 295.48538 
L 244.358347 295.486082 
L 247.637686 295.48668 
L 250.917025 295.48717 
L 254.196364 295.487551 
L 257.475702 295.487818 
L 260.755041 295.487969 
L 264.03438 295.488 
L 267.313719 295.487908 
L 270.593058 295.487687 
L 273.872397 295.487334 
L 277.151736 295.486844 
L 280.431074 295.48621 
L 283.710413 295.485427 
L 286.989752 295.484489 
L 290.269091 295.483387 
L 293.54843 295.482114 
L 296.827769 295.48066 
L 300.107107 295.479017 
L 303.386446 295.477173 
L 306.665785 295.475115 
L 309.945124 295.472832 
L 313.224463 295.470306 
L 316.503802 295.467522 
L 319.78314 295.46446 
L 323.062479 295.4611 
L 326.341818 295.457416 
L 329.621157 295.453381 
L 332.900496 295.448962 
L 336.179835 295.444124 
L 339.459174 295.438824 
L 342.738512 295.433012 
L 346.017851 295.426629 
L 349.29719 295.419606 
L 352.576529 295.411859 
L 355.855868 295.403286 
L 359.135207 295.393764 
L 362.414545 295.383135 
L 365.693884 295.371203 
L 368.973223 295.357709 
L 372.252562 295.342313 
L 375.531901 295.324545 
L 378.81124 295.303738 
L 382.090579 295.27889 
L 385.369917 295.2484 
L 388.649256 295.209439 
L 391.928595 295.156201 
L 395.207934 295.072751 
L 398.487273 293.12838 
" style="fill:none;stroke:#1f77b4;stroke-linecap:square;stroke-width:1.5;"/>
   </g>
   <g id="line2d_14">
    <path clip-path="url(#p7326c54358)" d="M 73.832727 290.093439 
L 77.112066 290.042514 
L 80.391405 290.121217 
L 83.670744 290.130476 
L 86.950083 290.139735 
L 90.229421 290.010107 
L 93.50876 290.19529 
L 96.788099 290.236957 
L 100.067438 290.255475 
L 103.346777 289.996218 
L 106.626116 290.079551 
L 109.905455 290.394362 
L 113.184793 290.111958 
L 116.464132 290.255475 
L 119.743471 290.130476 
L 123.02281 290.074921 
L 126.302149 290.246216 
L 129.581488 290.148994 
L 132.860826 290.491584 
L 136.140165 290.121217 
L 139.419504 290.148994 
L 142.698843 290.324919 
L 145.978182 290.278623 
L 149.257521 290.223068 
L 152.53686 290.172142 
L 155.816198 290.236957 
L 159.095537 290.297141 
L 162.374876 290.042514 
L 165.654215 290.357326 
L 168.933554 290.121217 
L 172.212893 290.273993 
L 175.492231 290.19529 
L 178.77157 290.111958 
L 182.050909 290.375844 
L 185.330248 290.172142 
L 188.609587 290.158254 
L 191.888926 290.162883 
L 195.168264 290.107328 
L 198.447603 290.070292 
L 201.726942 290.176772 
L 205.006281 290.125847 
L 208.28562 290.176772 
L 211.564959 290.357326 
L 214.844298 290.093439 
L 218.123636 290.190661 
L 221.402975 290.255475 
L 224.682314 290.250845 
L 227.961653 290.070292 
L 231.240992 290.065662 
L 234.520331 290.167513 
L 237.799669 290.153624 
L 241.079008 289.834183 
L 244.358347 290.019366 
L 247.637686 289.991589 
L 250.917025 290.098069 
L 254.196364 289.806405 
L 257.475702 290.130476 
L 260.755041 290.065662 
L 264.03438 289.834183 
L 267.313719 289.982329 
L 270.593058 289.880479 
L 273.872397 289.908256 
L 277.151736 289.699925 
L 280.431074 289.468446 
L 283.710413 289.551778 
L 286.989752 289.709184 
L 290.269091 289.565667 
L 293.54843 289.264744 
L 296.827769 289.491594 
L 300.107107 289.681406 
L 303.386446 289.542519 
L 306.665785 289.519371 
L 309.945124 289.394372 
L 313.224463 289.024006 
L 316.503802 289.037894 
L 319.78314 289.204559 
L 323.062479 289.125856 
L 326.341818 289.153634 
L 329.621157 289.181411 
L 332.900496 288.741601 
L 336.179835 288.459196 
L 339.459174 288.769378 
L 342.738512 289.102708 
L 346.017851 288.098089 
L 349.29719 288.287902 
L 352.576529 287.824943 
L 355.855868 288.130496 
L 359.135207 287.602723 
L 362.414545 287.496243 
L 365.693884 287.056432 
L 368.973223 287.250875 
L 372.252562 286.959211 
L 375.531901 285.436078 
L 378.81124 285.945332 
L 382.090579 284.945342 
L 385.369917 284.477754 
L 388.649256 283.621281 
L 391.928595 281.996297 
L 395.207934 277.125975 
L 398.487273 53.568 
" style="fill:none;stroke:#ff7f0e;stroke-linecap:square;stroke-width:1.5;"/>
   </g>
   <g id="patch_3">
    <path d="M 57.6 307.584 
L 57.6 41.472 
" style="fill:none;stroke:#000000;stroke-linecap:square;stroke-linejoin:miter;stroke-width:0.8;"/>
   </g>
   <g id="patch_4">
    <path d="M 414.72 307.584 
L 414.72 41.472 
" style="fill:none;stroke:#000000;stroke-linecap:square;stroke-linejoin:miter;stroke-width:0.8;"/>
   </g>
   <g id="patch_5">
    <path d="M 57.6 307.584 
L 414.72 307.584 
" style="fill:none;stroke:#000000;stroke-linecap:square;stroke-linejoin:miter;stroke-width:0.8;"/>
   </g>
   <g id="patch_6">
    <path d="M 57.6 41.472 
L 414.72 41.472 
" style="fill:none;stroke:#000000;stroke-linecap:square;stroke-linejoin:miter;stroke-width:0.8;"/>
   </g>
   <g id="text_15">
    <text style="font-family:DejaVu Sans;font-size:12px;font-style:normal;font-weight:normal;text-anchor:middle;" transform="rotate(-0, 236.16, 35.472)" x="236.16" y="35.472">Coin Flips for arcsin(x)/2</text>
   </g>
   <g id="legend_1">
    <g id="patch_7">
     <path d="M 64.6 78.82825 
L 252.535938 78.82825 
Q 254.535938 78.82825 254.535938 76.82825 
L 254.535938 48.472 
Q 254.535938 46.472 252.535938 46.472 
L 64.6 46.472 
Q 62.6 46.472 62.6 48.472 
L 62.6 76.82825 
Q 62.6 78.82825 64.6 78.82825 
z
" style="fill:#ffffff;opacity:0.8;stroke:#cccccc;stroke-linejoin:miter;"/>
    </g>
    <g id="line2d_15">
     <path d="M 66.6 54.570437 
L 86.6 54.570437 
" style="fill:none;stroke:#1f77b4;stroke-linecap:square;stroke-width:1.5;"/>
    </g>
    <g id="line2d_16"/>
    <g id="text_16">
     <text style="font-family:DejaVu Sans;font-size:10px;font-style:normal;font-weight:normal;text-anchor:start;" transform="rotate(-0, 94.6, 58.070437)" x="94.6" y="58.070437">Coin Flip Lower Bound (Mendo)</text>
    </g>
    <g id="line2d_17">
     <path d="M 66.6 69.248562 
L 86.6 69.248562 
" style="fill:none;stroke:#ff7f0e;stroke-linecap:square;stroke-width:1.5;"/>
    </g>
    <g id="line2d_18"/>
    <g id="text_17">
     <text style="font-family:DejaVu Sans;font-size:10px;font-style:normal;font-weight:normal;text-anchor:start;" transform="rotate(-0, 94.6, 72.748562)" x="94.6" y="72.748562">Avg. Coins Flipped arcsin(x)/2</text>
    </g>
   </g>
  </g>
 </g>
 <defs>
  <clipPath id="p7326c54358">
   <rect height="266.112" width="357.12" x="57.6" y="41.472"/>
  </clipPath>
 </defs>
</svg>
