<?xml version="1.0" encoding="utf-8" standalone="no"?>
<!DOCTYPE svg PUBLIC "-//W3C//DTD SVG 1.1//EN"
  "http://www.w3.org/Graphics/SVG/1.1/DTD/svg11.dtd">
<!-- Created with matplotlib (https://matplotlib.org/) -->
<svg height="345.6pt" version="1.1" viewBox="0 0 460.8 345.6" width="460.8pt" xmlns="http://www.w3.org/2000/svg" xmlns:xlink="http://www.w3.org/1999/xlink">
 <defs>
  <style type="text/css">
*{stroke-linecap:butt;stroke-linejoin:round;}
  </style>
 </defs>
 <g id="figure_1">
  <g id="patch_1">
   <path d="M 0 345.6 
L 460.8 345.6 
L 460.8 0 
L 0 0 
z
" style="fill:#ffffff;"/>
  </g>
  <g id="axes_1">
   <g id="patch_2">
    <path d="M 57.6 307.584 
L 414.72 307.584 
L 414.72 41.472 
L 57.6 41.472 
z
" style="fill:#ffffff;"/>
   </g>
   <g id="matplotlib.axis_1">
    <g id="xtick_1">
     <g id="line2d_1">
      <defs>
       <path d="M 0 0 
L 0 3.5 
" id="m69fb6382c3" style="stroke:#000000;stroke-width:0.8;"/>
      </defs>
      <g>
       <use style="stroke:#000000;stroke-width:0.8;" x="73.800255" xlink:href="#m69fb6382c3" y="307.584"/>
      </g>
     </g>
     <g id="text_1">
      <text style="font-family:DejaVu Sans;font-size:10px;font-style:normal;font-weight:normal;text-anchor:middle;" transform="rotate(-0, 73.800255, 322.182437)" x="73.800255" y="322.182437">0.0</text>
     </g>
    </g>
    <g id="xtick_2">
     <g id="line2d_2">
      <g>
       <use style="stroke:#000000;stroke-width:0.8;" x="138.744153" xlink:href="#m69fb6382c3" y="307.584"/>
      </g>
     </g>
     <g id="text_2">
      <text style="font-family:DejaVu Sans;font-size:10px;font-style:normal;font-weight:normal;text-anchor:middle;" transform="rotate(-0, 138.744153, 322.182437)" x="138.744153" y="322.182437">0.2</text>
     </g>
    </g>
    <g id="xtick_3">
     <g id="line2d_3">
      <g>
       <use style="stroke:#000000;stroke-width:0.8;" x="203.688051" xlink:href="#m69fb6382c3" y="307.584"/>
      </g>
     </g>
     <g id="text_3">
      <text style="font-family:DejaVu Sans;font-size:10px;font-style:normal;font-weight:normal;text-anchor:middle;" transform="rotate(-0, 203.688051, 322.182437)" x="203.688051" y="322.182437">0.4</text>
     </g>
    </g>
    <g id="xtick_4">
     <g id="line2d_4">
      <g>
       <use style="stroke:#000000;stroke-width:0.8;" x="268.631949" xlink:href="#m69fb6382c3" y="307.584"/>
      </g>
     </g>
     <g id="text_4">
      <text style="font-family:DejaVu Sans;font-size:10px;font-style:normal;font-weight:normal;text-anchor:middle;" transform="rotate(-0, 268.631949, 322.182437)" x="268.631949" y="322.182437">0.6</text>
     </g>
    </g>
    <g id="xtick_5">
     <g id="line2d_5">
      <g>
       <use style="stroke:#000000;stroke-width:0.8;" x="333.575847" xlink:href="#m69fb6382c3" y="307.584"/>
      </g>
     </g>
     <g id="text_5">
      <text style="font-family:DejaVu Sans;font-size:10px;font-style:normal;font-weight:normal;text-anchor:middle;" transform="rotate(-0, 333.575847, 322.182437)" x="333.575847" y="322.182437">0.8</text>
     </g>
    </g>
    <g id="xtick_6">
     <g id="line2d_6">
      <g>
       <use style="stroke:#000000;stroke-width:0.8;" x="398.519745" xlink:href="#m69fb6382c3" y="307.584"/>
      </g>
     </g>
     <g id="text_6">
      <text style="font-family:DejaVu Sans;font-size:10px;font-style:normal;font-weight:normal;text-anchor:middle;" transform="rotate(-0, 398.519745, 322.182437)" x="398.519745" y="322.182437">1.0</text>
     </g>
    </g>
    <g id="text_7">
     <text style="font-family:DejaVu Sans;font-size:10px;font-style:normal;font-weight:normal;text-anchor:middle;" transform="rotate(-0, 236.16, 335.860562)" x="236.16" y="335.860562">Input Coin's Heads Probability (λ)</text>
    </g>
   </g>
   <g id="matplotlib.axis_2">
    <g id="ytick_1">
     <g id="line2d_7">
      <defs>
       <path d="M 0 0 
L -3.5 0 
" id="m506f889898" style="stroke:#000000;stroke-width:0.8;"/>
      </defs>
      <g>
       <use style="stroke:#000000;stroke-width:0.8;" x="57.6" xlink:href="#m506f889898" y="295.488001"/>
      </g>
     </g>
     <g id="text_8">
      <text style="font-family:DejaVu Sans;font-size:10px;font-style:normal;font-weight:normal;text-anchor:end;" transform="rotate(-0, 50.6, 299.28722)" x="50.6" y="299.28722">0.0</text>
     </g>
    </g>
    <g id="ytick_2">
     <g id="line2d_8">
      <g>
       <use style="stroke:#000000;stroke-width:0.8;" x="57.6" xlink:href="#m506f889898" y="263.283528"/>
      </g>
     </g>
     <g id="text_9">
      <text style="font-family:DejaVu Sans;font-size:10px;font-style:normal;font-weight:normal;text-anchor:end;" transform="rotate(-0, 50.6, 267.082747)" x="50.6" y="267.082747">0.5</text>
     </g>
    </g>
    <g id="ytick_3">
     <g id="line2d_9">
      <g>
       <use style="stroke:#000000;stroke-width:0.8;" x="57.6" xlink:href="#m506f889898" y="231.079055"/>
      </g>
     </g>
     <g id="text_10">
      <text style="font-family:DejaVu Sans;font-size:10px;font-style:normal;font-weight:normal;text-anchor:end;" transform="rotate(-0, 50.6, 234.878274)" x="50.6" y="234.878274">1.0</text>
     </g>
    </g>
    <g id="ytick_4">
     <g id="line2d_10">
      <g>
       <use style="stroke:#000000;stroke-width:0.8;" x="57.6" xlink:href="#m506f889898" y="198.874582"/>
      </g>
     </g>
     <g id="text_11">
      <text style="font-family:DejaVu Sans;font-size:10px;font-style:normal;font-weight:normal;text-anchor:end;" transform="rotate(-0, 50.6, 202.673801)" x="50.6" y="202.673801">1.5</text>
     </g>
    </g>
    <g id="ytick_5">
     <g id="line2d_11">
      <g>
       <use style="stroke:#000000;stroke-width:0.8;" x="57.6" xlink:href="#m506f889898" y="166.670109"/>
      </g>
     </g>
     <g id="text_12">
      <text style="font-family:DejaVu Sans;font-size:10px;font-style:normal;font-weight:normal;text-anchor:end;" transform="rotate(-0, 50.6, 170.469328)" x="50.6" y="170.469328">2.0</text>
     </g>
    </g>
    <g id="ytick_6">
     <g id="line2d_12">
      <g>
       <use style="stroke:#000000;stroke-width:0.8;" x="57.6" xlink:href="#m506f889898" y="134.465636"/>
      </g>
     </g>
     <g id="text_13">
      <text style="font-family:DejaVu Sans;font-size:10px;font-style:normal;font-weight:normal;text-anchor:end;" transform="rotate(-0, 50.6, 138.264855)" x="50.6" y="138.264855">2.5</text>
     </g>
    </g>
    <g id="ytick_7">
     <g id="line2d_13">
      <g>
       <use style="stroke:#000000;stroke-width:0.8;" x="57.6" xlink:href="#m506f889898" y="102.261163"/>
      </g>
     </g>
     <g id="text_14">
      <text style="font-family:DejaVu Sans;font-size:10px;font-style:normal;font-weight:normal;text-anchor:end;" transform="rotate(-0, 50.6, 106.060382)" x="50.6" y="106.060382">3.0</text>
     </g>
    </g>
    <g id="ytick_8">
     <g id="line2d_14">
      <g>
       <use style="stroke:#000000;stroke-width:0.8;" x="57.6" xlink:href="#m506f889898" y="70.05669"/>
      </g>
     </g>
     <g id="text_15">
      <text style="font-family:DejaVu Sans;font-size:10px;font-style:normal;font-weight:normal;text-anchor:end;" transform="rotate(-0, 50.6, 73.855909)" x="50.6" y="73.855909">3.5</text>
     </g>
    </g>
    <g id="text_16">
     <text style="font-family:DejaVu Sans;font-size:10px;font-style:normal;font-weight:normal;text-anchor:middle;" transform="rotate(-90, 28.617187, 174.528)" x="28.617187" y="174.528">Coin Flips Needed</text>
    </g>
   </g>
   <g id="line2d_15">
    <path clip-path="url(#pf18db16552)" d="M 73.832727 231.088716 
L 77.112066 232.060551 
L 80.391405 233.024983 
L 83.670744 233.982259 
L 86.950083 234.932616 
L 90.229421 235.876277 
L 93.50876 236.813458 
L 96.788099 237.74436 
L 100.067438 238.669179 
L 103.346777 239.588098 
L 106.626116 240.50129 
L 109.905455 241.408921 
L 113.184793 242.311146 
L 116.464132 243.208112 
L 119.743471 244.099956 
L 123.02281 244.986808 
L 126.302149 245.868787 
L 129.581488 246.746008 
L 132.860826 247.618573 
L 136.140165 248.486578 
L 139.419504 249.350111 
L 142.698843 250.209252 
L 145.978182 251.064072 
L 149.257521 251.914636 
L 152.53686 252.760999 
L 155.816198 253.603209 
L 159.095537 254.441305 
L 162.374876 255.275321 
L 165.654215 256.105281 
L 168.933554 256.9312 
L 172.212893 257.753086 
L 175.492231 258.570941 
L 178.77157 259.384756 
L 182.050909 260.194515 
L 185.330248 261.000194 
L 188.609587 261.80176 
L 191.888926 262.599172 
L 195.168264 263.39238 
L 198.447603 264.181327 
L 201.726942 264.965944 
L 205.006281 265.746158 
L 208.28562 266.521882 
L 211.564959 267.293023 
L 214.844298 268.059477 
L 218.123636 268.821133 
L 221.402975 269.577867 
L 224.682314 270.329549 
L 227.961653 271.076037 
L 231.240992 271.817179 
L 234.520331 272.552814 
L 237.799669 273.282769 
L 241.079008 274.006862 
L 244.358347 274.724899 
L 247.637686 275.436678 
L 250.917025 276.141984 
L 254.196364 276.84059 
L 257.475702 277.532259 
L 260.755041 278.216744 
L 264.03438 278.893783 
L 267.313719 279.563107 
L 270.593058 280.224431 
L 273.872397 280.877461 
L 277.151736 281.521889 
L 280.431074 282.157397 
L 283.710413 282.783654 
L 286.989752 283.400317 
L 290.269091 284.007031 
L 293.54843 284.603427 
L 296.827769 285.189128 
L 300.107107 285.763741 
L 303.386446 286.326863 
L 306.665785 286.878078 
L 309.945124 287.416961 
L 313.224463 287.943071 
L 316.503802 288.45596 
L 319.78314 288.955165 
L 323.062479 289.440216 
L 326.341818 289.910629 
L 329.621157 290.365913 
L 332.900496 290.805564 
L 336.179835 291.229073 
L 339.459174 291.635919 
L 342.738512 292.025575 
L 346.017851 292.397505 
L 349.29719 292.751167 
L 352.576529 293.086016 
L 355.855868 293.401497 
L 359.135207 293.697057 
L 362.414545 293.972136 
L 365.693884 294.226174 
L 368.973223 294.458611 
L 372.252562 294.668888 
L 375.531901 294.856448 
L 378.81124 295.020739 
L 382.090579 295.161216 
L 385.369917 295.277341 
L 388.649256 295.368586 
L 391.928595 295.434439 
L 395.207934 295.474401 
L 398.487273 295.488 
" style="fill:none;stroke:#1f77b4;stroke-linecap:square;stroke-width:1.5;"/>
   </g>
   <g id="line2d_16">
    <path clip-path="url(#pf18db16552)" d="M 73.832727 74.307681 
L 77.112066 71.731323 
L 80.391405 72.375412 
L 83.670744 72.117776 
L 86.950083 69.799054 
L 90.229421 68.768511 
L 93.50876 70.958415 
L 96.788099 74.694134 
L 100.067438 76.884038 
L 103.346777 74.694134 
L 106.626116 74.822952 
L 109.905455 71.344869 
L 113.184793 76.626403 
L 116.464132 73.663591 
L 119.743471 77.656946 
L 123.02281 77.656946 
L 126.302149 80.877393 
L 129.581488 78.172217 
L 132.860826 77.914582 
L 136.140165 75.209406 
L 139.419504 79.073943 
L 142.698843 79.84685 
L 145.978182 79.589214 
L 149.257521 76.626403 
L 152.53686 81.135029 
L 155.816198 80.362122 
L 159.095537 79.331578 
L 162.374876 79.975668 
L 165.654215 83.067297 
L 168.933554 86.158927 
L 172.212893 83.453751 
L 175.492231 84.226658 
L 178.77157 83.969023 
L 182.050909 83.453751 
L 185.330248 82.165572 
L 188.609587 86.931834 
L 191.888926 84.355476 
L 195.168264 88.091195 
L 198.447603 84.870748 
L 201.726942 83.324933 
L 205.006281 87.318288 
L 208.28562 84.355476 
L 211.564959 84.613112 
L 214.844298 89.894646 
L 218.123636 85.128384 
L 221.402975 82.809661 
L 224.682314 82.036754 
L 227.961653 86.158927 
L 231.240992 85.128384 
L 234.520331 88.864102 
L 237.799669 82.29439 
L 241.079008 89.121738 
L 244.358347 87.575923 
L 247.637686 87.318288 
L 250.917025 88.091195 
L 254.196364 89.63701 
L 257.475702 88.864102 
L 260.755041 87.18947 
L 264.03438 91.826914 
L 267.313719 87.575923 
L 270.593058 83.840205 
L 273.872397 90.538735 
L 277.151736 90.538735 
L 280.431074 90.538735 
L 283.710413 89.379374 
L 286.989752 85.386019 
L 290.269091 92.728639 
L 293.54843 91.826914 
L 296.827769 87.318288 
L 300.107107 87.704741 
L 303.386446 83.840205 
L 306.665785 91.569278 
L 309.945124 92.857457 
L 313.224463 83.582569 
L 316.503802 86.674198 
L 319.78314 85.386019 
L 323.062479 87.447106 
L 326.341818 86.674198 
L 329.621157 85.772473 
L 332.900496 84.870748 
L 336.179835 83.711387 
L 339.459174 81.779118 
L 342.738512 86.674198 
L 346.017851 83.196115 
L 349.29719 89.765828 
L 352.576529 86.416562 
L 355.855868 78.945125 
L 359.135207 84.226658 
L 362.414545 76.239949 
L 365.693884 70.958415 
L 368.973223 79.84685 
L 372.252562 81.006211 
L 375.531901 74.694134 
L 378.81124 79.718032 
L 382.090579 82.036754 
L 385.369917 67.093879 
L 388.649256 67.093879 
L 391.928595 65.419246 
L 395.207934 56.788447 
L 398.487273 53.568 
" style="fill:none;stroke:#ff7f0e;stroke-linecap:square;stroke-width:1.5;"/>
   </g>
   <g id="patch_3">
    <path d="M 57.6 307.584 
L 57.6 41.472 
" style="fill:none;stroke:#000000;stroke-linecap:square;stroke-linejoin:miter;stroke-width:0.8;"/>
   </g>
   <g id="patch_4">
    <path d="M 414.72 307.584 
L 414.72 41.472 
" style="fill:none;stroke:#000000;stroke-linecap:square;stroke-linejoin:miter;stroke-width:0.8;"/>
   </g>
   <g id="patch_5">
    <path d="M 57.6 307.584 
L 414.72 307.584 
" style="fill:none;stroke:#000000;stroke-linecap:square;stroke-linejoin:miter;stroke-width:0.8;"/>
   </g>
   <g id="patch_6">
    <path d="M 57.6 41.472 
L 414.72 41.472 
" style="fill:none;stroke:#000000;stroke-linecap:square;stroke-linejoin:miter;stroke-width:0.8;"/>
   </g>
   <g id="text_17">
    <text style="font-family:DejaVu Sans;font-size:12px;font-style:normal;font-weight:normal;text-anchor:middle;" transform="rotate(-0, 236.16, 35.472)" x="236.16" y="35.472">Coin Flips for arcsin(x)+sqrt(1-x*x)-1</text>
   </g>
   <g id="legend_1">
    <g id="patch_7">
     <path d="M 164.445 190.706125 
L 407.72 190.706125 
Q 409.72 190.706125 409.72 188.706125 
L 409.72 160.349875 
Q 409.72 158.349875 407.72 158.349875 
L 164.445 158.349875 
Q 162.445 158.349875 162.445 160.349875 
L 162.445 188.706125 
Q 162.445 190.706125 164.445 190.706125 
z
" style="fill:#ffffff;opacity:0.8;stroke:#cccccc;stroke-linejoin:miter;"/>
    </g>
    <g id="line2d_17">
     <path d="M 166.445 166.448312 
L 186.445 166.448312 
" style="fill:none;stroke:#1f77b4;stroke-linecap:square;stroke-width:1.5;"/>
    </g>
    <g id="line2d_18"/>
    <g id="text_18">
     <text style="font-family:DejaVu Sans;font-size:10px;font-style:normal;font-weight:normal;text-anchor:start;" transform="rotate(-0, 194.445, 169.948312)" x="194.445" y="169.948312">Coin Flip Lower Bound</text>
    </g>
    <g id="line2d_19">
     <path d="M 166.445 181.126437 
L 186.445 181.126437 
" style="fill:none;stroke:#ff7f0e;stroke-linecap:square;stroke-width:1.5;"/>
    </g>
    <g id="line2d_20"/>
    <g id="text_19">
     <text style="font-family:DejaVu Sans;font-size:10px;font-style:normal;font-weight:normal;text-anchor:start;" transform="rotate(-0, 194.445, 184.626437)" x="194.445" y="184.626437">Avg. Coins Flipped arcsin(x)+sqrt(1-x*x)-1</text>
    </g>
   </g>
  </g>
 </g>
 <defs>
  <clipPath id="pf18db16552">
   <rect height="266.112" width="357.12" x="57.6" y="41.472"/>
  </clipPath>
 </defs>
</svg>
