<?xml version="1.0" encoding="utf-8" standalone="no"?>
<!DOCTYPE svg PUBLIC "-//W3C//DTD SVG 1.1//EN"
  "http://www.w3.org/Graphics/SVG/1.1/DTD/svg11.dtd">
<!-- Created with matplotlib (https://matplotlib.org/) -->
<svg height="345.6pt" version="1.1" viewBox="0 0 460.8 345.6" width="460.8pt" xmlns="http://www.w3.org/2000/svg" xmlns:xlink="http://www.w3.org/1999/xlink">
 <defs>
  <style type="text/css">
*{stroke-linecap:butt;stroke-linejoin:round;}
  </style>
 </defs>
 <g id="figure_1">
  <g id="patch_1">
   <path d="M 0 345.6 
L 460.8 345.6 
L 460.8 0 
L 0 0 
z
" style="fill:#ffffff;"/>
  </g>
  <g id="axes_1">
   <g id="patch_2">
    <path d="M 57.6 307.584 
L 414.72 307.584 
L 414.72 41.472 
L 57.6 41.472 
z
" style="fill:#ffffff;"/>
   </g>
   <g id="matplotlib.axis_1">
    <g id="xtick_1">
     <g id="line2d_1">
      <defs>
       <path d="M 0 0 
L 0 3.5 
" id="mf08a489438" style="stroke:#000000;stroke-width:0.8;"/>
      </defs>
      <g>
       <use style="stroke:#000000;stroke-width:0.8;" x="73.800255" xlink:href="#mf08a489438" y="307.584"/>
      </g>
     </g>
     <g id="text_1">
      <text style="font-family:DejaVu Sans;font-size:10px;font-style:normal;font-weight:normal;text-anchor:middle;" transform="rotate(-0, 73.800255, 322.182437)" x="73.800255" y="322.182437">0.0</text>
     </g>
    </g>
    <g id="xtick_2">
     <g id="line2d_2">
      <g>
       <use style="stroke:#000000;stroke-width:0.8;" x="138.744153" xlink:href="#mf08a489438" y="307.584"/>
      </g>
     </g>
     <g id="text_2">
      <text style="font-family:DejaVu Sans;font-size:10px;font-style:normal;font-weight:normal;text-anchor:middle;" transform="rotate(-0, 138.744153, 322.182437)" x="138.744153" y="322.182437">0.2</text>
     </g>
    </g>
    <g id="xtick_3">
     <g id="line2d_3">
      <g>
       <use style="stroke:#000000;stroke-width:0.8;" x="203.688051" xlink:href="#mf08a489438" y="307.584"/>
      </g>
     </g>
     <g id="text_3">
      <text style="font-family:DejaVu Sans;font-size:10px;font-style:normal;font-weight:normal;text-anchor:middle;" transform="rotate(-0, 203.688051, 322.182437)" x="203.688051" y="322.182437">0.4</text>
     </g>
    </g>
    <g id="xtick_4">
     <g id="line2d_4">
      <g>
       <use style="stroke:#000000;stroke-width:0.8;" x="268.631949" xlink:href="#mf08a489438" y="307.584"/>
      </g>
     </g>
     <g id="text_4">
      <text style="font-family:DejaVu Sans;font-size:10px;font-style:normal;font-weight:normal;text-anchor:middle;" transform="rotate(-0, 268.631949, 322.182437)" x="268.631949" y="322.182437">0.6</text>
     </g>
    </g>
    <g id="xtick_5">
     <g id="line2d_5">
      <g>
       <use style="stroke:#000000;stroke-width:0.8;" x="333.575847" xlink:href="#mf08a489438" y="307.584"/>
      </g>
     </g>
     <g id="text_5">
      <text style="font-family:DejaVu Sans;font-size:10px;font-style:normal;font-weight:normal;text-anchor:middle;" transform="rotate(-0, 333.575847, 322.182437)" x="333.575847" y="322.182437">0.8</text>
     </g>
    </g>
    <g id="xtick_6">
     <g id="line2d_6">
      <g>
       <use style="stroke:#000000;stroke-width:0.8;" x="398.519745" xlink:href="#mf08a489438" y="307.584"/>
      </g>
     </g>
     <g id="text_6">
      <text style="font-family:DejaVu Sans;font-size:10px;font-style:normal;font-weight:normal;text-anchor:middle;" transform="rotate(-0, 398.519745, 322.182437)" x="398.519745" y="322.182437">1.0</text>
     </g>
    </g>
    <g id="text_7">
     <text style="font-family:DejaVu Sans;font-size:10px;font-style:normal;font-weight:normal;text-anchor:middle;" transform="rotate(-0, 236.16, 335.860562)" x="236.16" y="335.860562">Input Coin's Heads Probability (λ)</text>
    </g>
   </g>
   <g id="matplotlib.axis_2">
    <g id="ytick_1">
     <g id="line2d_7">
      <defs>
       <path d="M 0 0 
L -3.5 0 
" id="m6623f2223d" style="stroke:#000000;stroke-width:0.8;"/>
      </defs>
      <g>
       <use style="stroke:#000000;stroke-width:0.8;" x="57.6" xlink:href="#m6623f2223d" y="297.428433"/>
      </g>
     </g>
     <g id="text_8">
      <text style="font-family:DejaVu Sans;font-size:10px;font-style:normal;font-weight:normal;text-anchor:end;" transform="rotate(-0, 50.6, 301.227652)" x="50.6" y="301.227652">0</text>
     </g>
    </g>
    <g id="ytick_2">
     <g id="line2d_8">
      <g>
       <use style="stroke:#000000;stroke-width:0.8;" x="57.6" xlink:href="#m6623f2223d" y="252.252362"/>
      </g>
     </g>
     <g id="text_9">
      <text style="font-family:DejaVu Sans;font-size:10px;font-style:normal;font-weight:normal;text-anchor:end;" transform="rotate(-0, 50.6, 256.051581)" x="50.6" y="256.051581">10</text>
     </g>
    </g>
    <g id="ytick_3">
     <g id="line2d_9">
      <g>
       <use style="stroke:#000000;stroke-width:0.8;" x="57.6" xlink:href="#m6623f2223d" y="207.076291"/>
      </g>
     </g>
     <g id="text_10">
      <text style="font-family:DejaVu Sans;font-size:10px;font-style:normal;font-weight:normal;text-anchor:end;" transform="rotate(-0, 50.6, 210.875509)" x="50.6" y="210.875509">20</text>
     </g>
    </g>
    <g id="ytick_4">
     <g id="line2d_10">
      <g>
       <use style="stroke:#000000;stroke-width:0.8;" x="57.6" xlink:href="#m6623f2223d" y="161.900219"/>
      </g>
     </g>
     <g id="text_11">
      <text style="font-family:DejaVu Sans;font-size:10px;font-style:normal;font-weight:normal;text-anchor:end;" transform="rotate(-0, 50.6, 165.699438)" x="50.6" y="165.699438">30</text>
     </g>
    </g>
    <g id="ytick_5">
     <g id="line2d_11">
      <g>
       <use style="stroke:#000000;stroke-width:0.8;" x="57.6" xlink:href="#m6623f2223d" y="116.724148"/>
      </g>
     </g>
     <g id="text_12">
      <text style="font-family:DejaVu Sans;font-size:10px;font-style:normal;font-weight:normal;text-anchor:end;" transform="rotate(-0, 50.6, 120.523367)" x="50.6" y="120.523367">40</text>
     </g>
    </g>
    <g id="ytick_6">
     <g id="line2d_12">
      <g>
       <use style="stroke:#000000;stroke-width:0.8;" x="57.6" xlink:href="#m6623f2223d" y="71.548076"/>
      </g>
     </g>
     <g id="text_13">
      <text style="font-family:DejaVu Sans;font-size:10px;font-style:normal;font-weight:normal;text-anchor:end;" transform="rotate(-0, 50.6, 75.347295)" x="50.6" y="75.347295">50</text>
     </g>
    </g>
    <g id="text_14">
     <text style="font-family:DejaVu Sans;font-size:10px;font-style:normal;font-weight:normal;text-anchor:middle;" transform="rotate(-90, 31.795312, 174.528)" x="31.795312" y="174.528">Coin Flips Needed</text>
    </g>
   </g>
   <g id="line2d_13">
    <path clip-path="url(#p12f89f68c1)" d="M 73.832727 295.169743 
L 77.112066 295.181013 
L 80.391405 295.19202 
L 83.670744 295.202771 
L 86.950083 295.213271 
L 90.229421 295.223526 
L 93.50876 295.23354 
L 96.788099 295.24332 
L 100.067438 295.252869 
L 103.346777 295.262192 
L 106.626116 295.271293 
L 109.905455 295.280177 
L 113.184793 295.288847 
L 116.464132 295.297308 
L 119.743471 295.305562 
L 123.02281 295.313613 
L 126.302149 295.321464 
L 129.581488 295.329119 
L 132.860826 295.336579 
L 136.140165 295.343848 
L 139.419504 295.350927 
L 142.698843 295.357821 
L 145.978182 295.36453 
L 149.257521 295.371056 
L 152.53686 295.377402 
L 155.816198 295.383569 
L 159.095537 295.389558 
L 162.374876 295.395372 
L 165.654215 295.401011 
L 168.933554 295.406477 
L 172.212893 295.411769 
L 175.492231 295.41689 
L 178.77157 295.42184 
L 182.050909 295.426619 
L 185.330248 295.431227 
L 188.609587 295.435665 
L 191.888926 295.439933 
L 195.168264 295.44403 
L 198.447603 295.447956 
L 201.726942 295.451711 
L 205.006281 295.455293 
L 208.28562 295.458702 
L 211.564959 295.461937 
L 214.844298 295.464995 
L 218.123636 295.467877 
L 221.402975 295.470578 
L 224.682314 295.473099 
L 227.961653 295.475436 
L 231.240992 295.477586 
L 234.520331 295.479546 
L 237.799669 295.481314 
L 241.079008 295.482886 
L 244.358347 295.484257 
L 247.637686 295.485424 
L 250.917025 295.486381 
L 254.196364 295.487123 
L 257.475702 295.487644 
L 260.755041 295.487939 
L 264.03438 295.488 
L 267.313719 295.487819 
L 270.593058 295.487389 
L 273.872397 295.486701 
L 277.151736 295.485743 
L 280.431074 295.484507 
L 283.710413 295.482979 
L 286.989752 295.481147 
L 290.269091 295.478997 
L 293.54843 295.476512 
L 296.827769 295.473676 
L 300.107107 295.470469 
L 303.386446 295.466869 
L 306.665785 295.462854 
L 309.945124 295.458397 
L 313.224463 295.453468 
L 316.503802 295.448035 
L 319.78314 295.442059 
L 323.062479 295.435501 
L 326.341818 295.428311 
L 329.621157 295.420436 
L 332.900496 295.411813 
L 336.179835 295.402371 
L 339.459174 295.392027 
L 342.738512 295.380684 
L 346.017851 295.368227 
L 349.29719 295.35452 
L 352.576529 295.339401 
L 355.855868 295.32267 
L 359.135207 295.304086 
L 362.414545 295.283343 
L 365.693884 295.260055 
L 368.973223 295.233721 
L 372.252562 295.203674 
L 375.531901 295.168997 
L 378.81124 295.128389 
L 382.090579 295.079896 
L 385.369917 295.02039 
L 388.649256 294.944354 
L 391.928595 294.840452 
L 395.207934 294.677589 
L 398.487273 290.882906 
" style="fill:none;stroke:#1f77b4;stroke-linecap:square;stroke-width:1.5;"/>
   </g>
   <g id="line2d_14">
    <path clip-path="url(#p12f89f68c1)" d="M 73.832727 284.697816 
L 77.112066 284.607464 
L 80.391405 285.312211 
L 83.670744 285.041155 
L 86.950083 285.203788 
L 90.229421 285.258 
L 93.50876 285.167648 
L 96.788099 285.375457 
L 100.067438 285.248964 
L 103.346777 285.303176 
L 106.626116 284.724922 
L 109.905455 284.815274 
L 113.184793 285.131507 
L 116.464132 285.48388 
L 119.743471 285.221859 
L 123.02281 285.420634 
L 126.302149 285.384493 
L 129.581488 285.158612 
L 132.860826 284.914662 
L 136.140165 285.230894 
L 139.419504 285.023084 
L 142.698843 285.140542 
L 145.978182 285.122471 
L 149.257521 285.267035 
L 152.53686 285.420634 
L 155.816198 285.285105 
L 159.095537 285.059225 
L 162.374876 285.122471 
L 165.654215 285.194753 
L 168.933554 285.294141 
L 172.212893 285.140542 
L 175.492231 285.429669 
L 178.77157 285.059225 
L 182.050909 284.887556 
L 185.330248 285.158612 
L 188.609587 284.914662 
L 191.888926 285.05019 
L 195.168264 285.239929 
L 198.447603 285.131507 
L 201.726942 285.032119 
L 205.006281 285.303176 
L 208.28562 285.140542 
L 211.564959 285.140542 
L 214.844298 285.176683 
L 218.123636 284.995978 
L 221.402975 284.779133 
L 224.682314 285.023084 
L 227.961653 284.995978 
L 231.240992 284.887556 
L 234.520331 285.023084 
L 237.799669 285.149577 
L 241.079008 284.851415 
L 244.358347 284.788169 
L 247.637686 284.742992 
L 250.917025 284.851415 
L 254.196364 284.878521 
L 257.475702 284.417725 
L 260.755041 284.435795 
L 264.03438 284.598429 
L 267.313719 284.589394 
L 270.593058 284.480971 
L 273.872397 283.965964 
L 277.151736 284.255091 
L 280.431074 284.020175 
L 283.710413 284.246056 
L 286.989752 283.866577 
L 290.269091 284.209915 
L 293.54843 283.866577 
L 296.827769 284.065351 
L 300.107107 283.767189 
L 303.386446 283.568415 
L 306.665785 283.550344 
L 309.945124 283.315429 
L 313.224463 284.038246 
L 316.503802 283.396746 
L 319.78314 283.36964 
L 323.062479 283.216041 
L 326.341818 283.324464 
L 329.621157 283.125689 
L 332.900496 282.963055 
L 336.179835 283.16183 
L 339.459174 283.116654 
L 342.738512 282.12278 
L 346.017851 281.363822 
L 349.29719 280.975308 
L 352.576529 279.981435 
L 355.855868 280.85785 
L 359.135207 281.128907 
L 362.414545 279.421251 
L 365.693884 280.053716 
L 368.973223 278.608082 
L 372.252562 280.351878 
L 375.531901 276.728757 
L 378.81124 276.412525 
L 382.090579 276.891391 
L 385.369917 272.789404 
L 388.649256 271.560615 
L 391.928595 263.709014 
L 395.207934 264.070422 
L 398.487273 53.568 
" style="fill:none;stroke:#ff7f0e;stroke-linecap:square;stroke-width:1.5;"/>
   </g>
   <g id="patch_3">
    <path d="M 57.6 307.584 
L 57.6 41.472 
" style="fill:none;stroke:#000000;stroke-linecap:square;stroke-linejoin:miter;stroke-width:0.8;"/>
   </g>
   <g id="patch_4">
    <path d="M 414.72 307.584 
L 414.72 41.472 
" style="fill:none;stroke:#000000;stroke-linecap:square;stroke-linejoin:miter;stroke-width:0.8;"/>
   </g>
   <g id="patch_5">
    <path d="M 57.6 307.584 
L 414.72 307.584 
" style="fill:none;stroke:#000000;stroke-linecap:square;stroke-linejoin:miter;stroke-width:0.8;"/>
   </g>
   <g id="patch_6">
    <path d="M 57.6 41.472 
L 414.72 41.472 
" style="fill:none;stroke:#000000;stroke-linecap:square;stroke-linejoin:miter;stroke-width:0.8;"/>
   </g>
   <g id="text_15">
    <text style="font-family:DejaVu Sans;font-size:12px;font-style:normal;font-weight:normal;text-anchor:middle;" transform="rotate(-0, 236.16, 35.472)" x="236.16" y="35.472">Coin Flips for arcsin(x)/2</text>
   </g>
   <g id="legend_1">
    <g id="patch_7">
     <path d="M 64.6 78.82825 
L 245.05625 78.82825 
Q 247.05625 78.82825 247.05625 76.82825 
L 247.05625 48.472 
Q 247.05625 46.472 245.05625 46.472 
L 64.6 46.472 
Q 62.6 46.472 62.6 48.472 
L 62.6 76.82825 
Q 62.6 78.82825 64.6 78.82825 
z
" style="fill:#ffffff;opacity:0.8;stroke:#cccccc;stroke-linejoin:miter;"/>
    </g>
    <g id="line2d_15">
     <path d="M 66.6 54.570437 
L 86.6 54.570437 
" style="fill:none;stroke:#1f77b4;stroke-linecap:square;stroke-width:1.5;"/>
    </g>
    <g id="line2d_16"/>
    <g id="text_16">
     <text style="font-family:DejaVu Sans;font-size:10px;font-style:normal;font-weight:normal;text-anchor:start;" transform="rotate(-0, 94.6, 58.070437)" x="94.6" y="58.070437">Coin Flip Lower Bound</text>
    </g>
    <g id="line2d_17">
     <path d="M 66.6 69.248562 
L 86.6 69.248562 
" style="fill:none;stroke:#ff7f0e;stroke-linecap:square;stroke-width:1.5;"/>
    </g>
    <g id="line2d_18"/>
    <g id="text_17">
     <text style="font-family:DejaVu Sans;font-size:10px;font-style:normal;font-weight:normal;text-anchor:start;" transform="rotate(-0, 94.6, 72.748562)" x="94.6" y="72.748562">Avg. Coins Flipped arcsin(x)/2</text>
    </g>
   </g>
  </g>
 </g>
 <defs>
  <clipPath id="p12f89f68c1">
   <rect height="266.112" width="357.12" x="57.6" y="41.472"/>
  </clipPath>
 </defs>
</svg>
