<svg height="460.8" viewBox="0 0 460.8 345.6" width="614.4" xmlns="http://www.w3.org/2000/svg" xmlns:xlink="http://www.w3.org/1999/xlink"><defs><style>*{stroke-linecap:butt;stroke-linejoin:round}</style></defs><g id="figure_1"><path d="M0 345.6h460.8V0H0z" fill="#fff" id="patch_1"/><g id="axes_1"><path d="M57.6 307.584h357.12V41.472H57.6z" fill="#fff" id="patch_2"/><g id="matplotlib.axis_1"><g id="xtick_1"><g id="line2d_1"><defs><path d="M0 0v3.5" id="m2d49245265" stroke="#000" stroke-width=".8"/></defs><use x="73.8" xlink:href="#m2d49245265" y="307.584" stroke="#000" stroke-width=".8"/></g><text x="73.8" y="322.182" font-family="DejaVu Sans" font-size="10" font-weight="400" text-anchor="middle" id="text_1">0.0</text></g><g id="xtick_2"><use x="138.744" xlink:href="#m2d49245265" y="307.584" stroke="#000" stroke-width=".8" id="line2d_2"/><text x="138.744" y="322.182" font-family="DejaVu Sans" font-size="10" font-weight="400" text-anchor="middle" id="text_2">0.2</text></g><g id="xtick_3"><use x="203.688" xlink:href="#m2d49245265" y="307.584" stroke="#000" stroke-width=".8" id="line2d_3"/><text x="203.688" y="322.182" font-family="DejaVu Sans" font-size="10" font-weight="400" text-anchor="middle" id="text_3">0.4</text></g><g id="xtick_4"><use x="268.632" xlink:href="#m2d49245265" y="307.584" stroke="#000" stroke-width=".8" id="line2d_4"/><text x="268.632" y="322.182" font-family="DejaVu Sans" font-size="10" font-weight="400" text-anchor="middle" id="text_4">0.6</text></g><g id="xtick_5"><use x="333.576" xlink:href="#m2d49245265" y="307.584" stroke="#000" stroke-width=".8" id="line2d_5"/><text x="333.576" y="322.182" font-family="DejaVu Sans" font-size="10" font-weight="400" text-anchor="middle" id="text_5">0.8</text></g><g id="xtick_6"><use x="398.52" xlink:href="#m2d49245265" y="307.584" stroke="#000" stroke-width=".8" id="line2d_6"/><text x="398.52" y="322.182" font-family="DejaVu Sans" font-size="10" font-weight="400" text-anchor="middle" id="text_6">1.0</text></g><text x="236.16" y="335.861" font-family="DejaVu Sans" font-size="10" font-weight="400" text-anchor="middle" id="text_7">Input Coin&apos;s Heads Probability (λ)</text></g><g id="matplotlib.axis_2"><g id="ytick_1"><g id="line2d_7"><defs><path d="M0 0h-3.5" id="m615b8740d9" stroke="#000" stroke-width=".8"/></defs><use x="57.6" xlink:href="#m615b8740d9" y="296.661" stroke="#000" stroke-width=".8"/></g><text x="50.6" y="300.46" font-family="DejaVu Sans" font-size="10" font-weight="400" text-anchor="end" id="text_8">0</text></g><g id="ytick_2"><use x="57.6" xlink:href="#m615b8740d9" y="242.053" stroke="#000" stroke-width=".8" id="line2d_8"/><text x="50.6" y="245.852" font-family="DejaVu Sans" font-size="10" font-weight="400" text-anchor="end" id="text_9">20</text></g><g id="ytick_3"><use x="57.6" xlink:href="#m615b8740d9" y="187.445" stroke="#000" stroke-width=".8" id="line2d_9"/><text x="50.6" y="191.244" font-family="DejaVu Sans" font-size="10" font-weight="400" text-anchor="end" id="text_10">40</text></g><g id="ytick_4"><use x="57.6" xlink:href="#m615b8740d9" y="132.837" stroke="#000" stroke-width=".8" id="line2d_10"/><text x="50.6" y="136.636" font-family="DejaVu Sans" font-size="10" font-weight="400" text-anchor="end" id="text_11">60</text></g><g id="ytick_5"><use x="57.6" xlink:href="#m615b8740d9" y="78.229" stroke="#000" stroke-width=".8" id="line2d_11"/><text x="50.6" y="82.028" font-family="DejaVu Sans" font-size="10" font-weight="400" text-anchor="end" id="text_12">80</text></g><text transform="rotate(-90 31.795 174.528)" x="31.795" y="174.528" font-family="DejaVu Sans" font-size="10" font-weight="400" text-anchor="middle" id="text_13">Coin Flips Needed</text></g><path clip-path="url(#p4e4fb87805)" d="M73.833 295.296l3.28.006 3.278.007 3.28.007 3.28.006 3.278.006 3.28.006 3.28.006 3.278.006 3.28.006 3.28.005 3.278.005 3.28.006 3.28.005 3.278.005 3.28.005 3.28.004 3.278.005 3.28.004 3.28.005 3.279.004 3.279.004 3.28.004 3.279.004 3.279.004 3.28.004 3.279.004 3.279.003 3.28.003 3.279.004 3.279.003 3.28.003 3.279.003 3.279.003 3.28.003 3.279.002 3.279.003 3.28.002 3.279.003 3.279.002 3.28.002 3.279.002 3.279.002 3.28.002 3.279.002 3.279.001 3.28.002 3.279.001 3.279.002h3.28l3.279.002h3.279l3.28.002h3.279l3.279.001h6.559l3.279.001h13.117l3.28-.001 3.28-.001 3.278-.001 3.28-.001 3.28-.001 3.278-.002 3.28-.002 3.28-.002 3.278-.002 3.28-.002 3.28-.003 3.278-.003 3.28-.003 3.28-.004 3.278-.004 3.28-.004 3.28-.005 3.278-.005 3.28-.006 3.28-.006 3.279-.007 3.279-.007 3.28-.009 3.279-.009 3.279-.01 3.28-.011 3.279-.013 3.279-.014 3.28-.016 3.279-.018 3.279-.02 3.28-.025 3.279-.03 3.279-.036 3.28-.046 3.279-.062 3.279-.099 3.28-2.293" fill="none" stroke="#1f77b4" stroke-linecap="square" stroke-width="1.5" id="line2d_12"/><path clip-path="url(#p4e4fb87805)" d="M73.833 288.94l3.28.19 3.278-.098 3.28.295 3.28-.257 3.278.279 3.28-.077 3.28-.25 3.278.207 3.28-.071 3.28.278 3.278-.104h3.28l3.28-.016 3.278-.016 3.28-.142h3.28l3.278.016 3.28.05 3.28-.017 3.279.12 3.279-.011 3.28-.087 3.279-.028 3.279.126h3.28l3.279-.175 3.279.05 3.28.092 3.279.104 3.279-.448 3.28.311 3.279.126 3.279-.164 3.28.153 3.279.05 3.279-.143 3.28.05 3.279-.028 3.279.033 3.28-.038 3.279-.039 3.279-.076 3.28-.137 3.279.175 3.279.006 3.28-.164 3.279.022 3.279.021 3.28.099 3.279-.104 3.279-.093 3.28.088 3.279-.115 3.279.267 3.28-.196 3.279-.06 3.279.104 3.28-.219 3.279.017 3.28.005 3.278.005 3.28-.202 3.28.29 3.278-.273 3.28.114 3.28-.114 3.278.065 3.28-.065 3.28-.033 3.278-.071 3.28-.18 3.28-.268 3.278.077 3.28-.093 3.28-.077 3.278.148 3.28-.044 3.28-.393 3.278.158 3.28.24 3.28-.425 3.279-.159 3.279.055 3.28-.961 3.279.17 3.279-.045 3.28-.726 3.279-.388 3.279.268 3.28-.825 3.279-.72 3.279.234 3.28-.917 3.279-.24 3.279-1.289 3.28-2.392 3.279-.743 3.279-1.474 3.28-224.04" fill="none" stroke="#ff7f0e" stroke-linecap="square" stroke-width="1.5" id="line2d_13"/><path d="M57.6 307.584V41.472" fill="none" stroke="#000" stroke-linecap="square" stroke-width=".8" id="patch_3"/><path d="M414.72 307.584V41.472" fill="none" stroke="#000" stroke-linecap="square" stroke-width=".8" id="patch_4"/><path d="M57.6 307.584h357.12" fill="none" stroke="#000" stroke-linecap="square" stroke-width=".8" id="patch_5"/><path d="M57.6 41.472h357.12" fill="none" stroke="#000" stroke-linecap="square" stroke-width=".8" id="patch_6"/><text x="236.16" y="35.472" font-family="DejaVu Sans" font-size="12" font-weight="400" text-anchor="middle" id="text_14">Coin Flips for arcsin(x)/2</text><g id="legend_1"><path d="M64.6 78.828h187.936q2 0 2-2V48.472q0-2-2-2H64.6q-2 0-2 2v28.356q0 2 2 2z" fill="#fff" opacity=".8" stroke="#ccc" id="patch_7"/><path d="M66.6 54.57h20" fill="none" stroke="#1f77b4" stroke-linecap="square" stroke-width="1.5" id="line2d_14"/><text x="94.6" y="58.07" font-family="DejaVu Sans" font-size="10" font-weight="400" id="text_15">Coin Flip Lower Bound (Mendo)</text><path d="M66.6 69.249h20" fill="none" stroke="#ff7f0e" stroke-linecap="square" stroke-width="1.5" id="line2d_16"/><text x="94.6" y="72.749" font-family="DejaVu Sans" font-size="10" font-weight="400" id="text_16">Avg. Coins Flipped arcsin(x)/2</text></g></g></g><defs><clipPath id="p4e4fb87805"><path d="M57.6 41.472h357.12v266.112H57.6z"/></clipPath></defs></svg>