<?xml version="1.0" encoding="utf-8" standalone="no"?>
<!DOCTYPE svg PUBLIC "-//W3C//DTD SVG 1.1//EN"
  "http://www.w3.org/Graphics/SVG/1.1/DTD/svg11.dtd">
<!-- Created with matplotlib (https://matplotlib.org/) -->
<svg height="345.6pt" version="1.1" viewBox="0 0 460.8 345.6" width="460.8pt" xmlns="http://www.w3.org/2000/svg" xmlns:xlink="http://www.w3.org/1999/xlink">
 <defs>
  <style type="text/css">
*{stroke-linecap:butt;stroke-linejoin:round;}
  </style>
 </defs>
 <g id="figure_1">
  <g id="patch_1">
   <path d="M 0 345.6 
L 460.8 345.6 
L 460.8 0 
L 0 0 
z
" style="fill:#ffffff;"/>
  </g>
  <g id="axes_1">
   <g id="patch_2">
    <path d="M 57.6 307.584 
L 414.72 307.584 
L 414.72 41.472 
L 57.6 41.472 
z
" style="fill:#ffffff;"/>
   </g>
   <g id="matplotlib.axis_1">
    <g id="xtick_1">
     <g id="line2d_1">
      <defs>
       <path d="M 0 0 
L 0 3.5 
" id="m2c6de7b098" style="stroke:#000000;stroke-width:0.8;"/>
      </defs>
      <g>
       <use style="stroke:#000000;stroke-width:0.8;" x="73.800255" xlink:href="#m2c6de7b098" y="307.584"/>
      </g>
     </g>
     <g id="text_1">
      <text style="font-family:DejaVu Sans;font-size:10px;font-style:normal;font-weight:normal;text-anchor:middle;" transform="rotate(-0, 73.800255, 322.182437)" x="73.800255" y="322.182437">0.0</text>
     </g>
    </g>
    <g id="xtick_2">
     <g id="line2d_2">
      <g>
       <use style="stroke:#000000;stroke-width:0.8;" x="138.744153" xlink:href="#m2c6de7b098" y="307.584"/>
      </g>
     </g>
     <g id="text_2">
      <text style="font-family:DejaVu Sans;font-size:10px;font-style:normal;font-weight:normal;text-anchor:middle;" transform="rotate(-0, 138.744153, 322.182437)" x="138.744153" y="322.182437">0.2</text>
     </g>
    </g>
    <g id="xtick_3">
     <g id="line2d_3">
      <g>
       <use style="stroke:#000000;stroke-width:0.8;" x="203.688051" xlink:href="#m2c6de7b098" y="307.584"/>
      </g>
     </g>
     <g id="text_3">
      <text style="font-family:DejaVu Sans;font-size:10px;font-style:normal;font-weight:normal;text-anchor:middle;" transform="rotate(-0, 203.688051, 322.182437)" x="203.688051" y="322.182437">0.4</text>
     </g>
    </g>
    <g id="xtick_4">
     <g id="line2d_4">
      <g>
       <use style="stroke:#000000;stroke-width:0.8;" x="268.631949" xlink:href="#m2c6de7b098" y="307.584"/>
      </g>
     </g>
     <g id="text_4">
      <text style="font-family:DejaVu Sans;font-size:10px;font-style:normal;font-weight:normal;text-anchor:middle;" transform="rotate(-0, 268.631949, 322.182437)" x="268.631949" y="322.182437">0.6</text>
     </g>
    </g>
    <g id="xtick_5">
     <g id="line2d_5">
      <g>
       <use style="stroke:#000000;stroke-width:0.8;" x="333.575847" xlink:href="#m2c6de7b098" y="307.584"/>
      </g>
     </g>
     <g id="text_5">
      <text style="font-family:DejaVu Sans;font-size:10px;font-style:normal;font-weight:normal;text-anchor:middle;" transform="rotate(-0, 333.575847, 322.182437)" x="333.575847" y="322.182437">0.8</text>
     </g>
    </g>
    <g id="xtick_6">
     <g id="line2d_6">
      <g>
       <use style="stroke:#000000;stroke-width:0.8;" x="398.519745" xlink:href="#m2c6de7b098" y="307.584"/>
      </g>
     </g>
     <g id="text_6">
      <text style="font-family:DejaVu Sans;font-size:10px;font-style:normal;font-weight:normal;text-anchor:middle;" transform="rotate(-0, 398.519745, 322.182437)" x="398.519745" y="322.182437">1.0</text>
     </g>
    </g>
    <g id="text_7">
     <text style="font-family:DejaVu Sans;font-size:10px;font-style:normal;font-weight:normal;text-anchor:middle;" transform="rotate(-0, 236.16, 335.860562)" x="236.16" y="335.860562">Input Coin's Heads Probability (λ)</text>
    </g>
   </g>
   <g id="matplotlib.axis_2">
    <g id="ytick_1">
     <g id="line2d_7">
      <defs>
       <path d="M 0 0 
L -3.5 0 
" id="m726a2558de" style="stroke:#000000;stroke-width:0.8;"/>
      </defs>
      <g>
       <use style="stroke:#000000;stroke-width:0.8;" x="57.6" xlink:href="#m726a2558de" y="297.375355"/>
      </g>
     </g>
     <g id="text_8">
      <text style="font-family:DejaVu Sans;font-size:10px;font-style:normal;font-weight:normal;text-anchor:end;" transform="rotate(-0, 50.6, 301.174574)" x="50.6" y="301.174574">0</text>
     </g>
    </g>
    <g id="ytick_2">
     <g id="line2d_8">
      <g>
       <use style="stroke:#000000;stroke-width:0.8;" x="57.6" xlink:href="#m726a2558de" y="253.435018"/>
      </g>
     </g>
     <g id="text_9">
      <text style="font-family:DejaVu Sans;font-size:10px;font-style:normal;font-weight:normal;text-anchor:end;" transform="rotate(-0, 50.6, 257.234237)" x="50.6" y="257.234237">10</text>
     </g>
    </g>
    <g id="ytick_3">
     <g id="line2d_9">
      <g>
       <use style="stroke:#000000;stroke-width:0.8;" x="57.6" xlink:href="#m726a2558de" y="209.494681"/>
      </g>
     </g>
     <g id="text_10">
      <text style="font-family:DejaVu Sans;font-size:10px;font-style:normal;font-weight:normal;text-anchor:end;" transform="rotate(-0, 50.6, 213.293899)" x="50.6" y="213.293899">20</text>
     </g>
    </g>
    <g id="ytick_4">
     <g id="line2d_10">
      <g>
       <use style="stroke:#000000;stroke-width:0.8;" x="57.6" xlink:href="#m726a2558de" y="165.554344"/>
      </g>
     </g>
     <g id="text_11">
      <text style="font-family:DejaVu Sans;font-size:10px;font-style:normal;font-weight:normal;text-anchor:end;" transform="rotate(-0, 50.6, 169.353562)" x="50.6" y="169.353562">30</text>
     </g>
    </g>
    <g id="ytick_5">
     <g id="line2d_11">
      <g>
       <use style="stroke:#000000;stroke-width:0.8;" x="57.6" xlink:href="#m726a2558de" y="121.614006"/>
      </g>
     </g>
     <g id="text_12">
      <text style="font-family:DejaVu Sans;font-size:10px;font-style:normal;font-weight:normal;text-anchor:end;" transform="rotate(-0, 50.6, 125.413225)" x="50.6" y="125.413225">40</text>
     </g>
    </g>
    <g id="ytick_6">
     <g id="line2d_12">
      <g>
       <use style="stroke:#000000;stroke-width:0.8;" x="57.6" xlink:href="#m726a2558de" y="77.673669"/>
      </g>
     </g>
     <g id="text_13">
      <text style="font-family:DejaVu Sans;font-size:10px;font-style:normal;font-weight:normal;text-anchor:end;" transform="rotate(-0, 50.6, 81.472888)" x="50.6" y="81.472888">50</text>
     </g>
    </g>
    <g id="text_14">
     <text style="font-family:DejaVu Sans;font-size:10px;font-style:normal;font-weight:normal;text-anchor:middle;" transform="rotate(-90, 31.795312, 174.528)" x="31.795312" y="174.528">Coin Flips Needed</text>
    </g>
   </g>
   <g id="line2d_13">
    <path clip-path="url(#p438ce0ae77)" d="M 73.832727 295.178448 
L 77.112066 295.18941 
L 80.391405 295.200116 
L 83.670744 295.210573 
L 86.950083 295.220786 
L 90.229421 295.23076 
L 93.50876 295.240501 
L 96.788099 295.250013 
L 100.067438 295.2593 
L 103.346777 295.268368 
L 106.626116 295.277221 
L 109.905455 295.285862 
L 113.184793 295.294295 
L 116.464132 295.302524 
L 119.743471 295.310552 
L 123.02281 295.318383 
L 126.302149 295.32602 
L 129.581488 295.333465 
L 132.860826 295.340721 
L 136.140165 295.347791 
L 139.419504 295.354677 
L 142.698843 295.361382 
L 145.978182 295.367907 
L 149.257521 295.374255 
L 152.53686 295.380427 
L 155.816198 295.386425 
L 159.095537 295.392251 
L 162.374876 295.397906 
L 165.654215 295.403391 
L 168.933554 295.408707 
L 172.212893 295.413855 
L 175.492231 295.418835 
L 178.77157 295.42365 
L 182.050909 295.428298 
L 185.330248 295.43278 
L 188.609587 295.437097 
L 191.888926 295.441248 
L 195.168264 295.445233 
L 198.447603 295.449052 
L 201.726942 295.452704 
L 205.006281 295.456188 
L 208.28562 295.459504 
L 211.564959 295.46265 
L 214.844298 295.465625 
L 218.123636 295.468427 
L 221.402975 295.471055 
L 224.682314 295.473507 
L 227.961653 295.475779 
L 231.240992 295.477871 
L 234.520331 295.479778 
L 237.799669 295.481497 
L 241.079008 295.483026 
L 244.358347 295.48436 
L 247.637686 295.485494 
L 250.917025 295.486425 
L 254.196364 295.487147 
L 257.475702 295.487654 
L 260.755041 295.487941 
L 264.03438 295.488 
L 267.313719 295.487824 
L 270.593058 295.487406 
L 273.872397 295.486736 
L 277.151736 295.485805 
L 280.431074 295.484602 
L 283.710413 295.483116 
L 286.989752 295.481335 
L 290.269091 295.479243 
L 293.54843 295.476826 
L 296.827769 295.474068 
L 300.107107 295.470948 
L 303.386446 295.467447 
L 306.665785 295.463542 
L 309.945124 295.459207 
L 313.224463 295.454413 
L 316.503802 295.449128 
L 319.78314 295.443316 
L 323.062479 295.436937 
L 326.341818 295.429944 
L 329.621157 295.422284 
L 332.900496 295.413897 
L 336.179835 295.404713 
L 339.459174 295.394652 
L 342.738512 295.383619 
L 346.017851 295.371503 
L 349.29719 295.358171 
L 352.576529 295.343465 
L 355.855868 295.327193 
L 359.135207 295.309117 
L 362.414545 295.288941 
L 365.693884 295.266291 
L 368.973223 295.240677 
L 372.252562 295.211451 
L 375.531901 295.177723 
L 378.81124 295.138226 
L 382.090579 295.091059 
L 385.369917 295.033181 
L 388.649256 294.959224 
L 391.928595 294.858165 
L 395.207934 294.699756 
L 398.487273 291.008872 
" style="fill:none;stroke:#1f77b4;stroke-linecap:square;stroke-width:1.5;"/>
   </g>
   <g id="line2d_14">
    <path clip-path="url(#p438ce0ae77)" d="M 73.832727 285.581769 
L 77.112066 285.274186 
L 80.391405 285.704802 
L 83.670744 285.353279 
L 86.950083 285.177518 
L 90.229421 285.52904 
L 93.50876 285.414795 
L 96.788099 285.282974 
L 100.067438 285.370855 
L 103.346777 285.432372 
L 106.626116 285.186306 
L 109.905455 285.476312 
L 113.184793 285.493888 
L 116.464132 285.203882 
L 119.743471 285.572981 
L 123.02281 284.992968 
L 126.302149 285.739954 
L 129.581488 285.792682 
L 132.860826 285.555405 
L 136.140165 285.318127 
L 139.419504 285.616921 
L 142.698843 285.52904 
L 145.978182 285.476312 
L 149.257521 285.001756 
L 152.53686 285.493888 
L 155.816198 285.151153 
L 159.095537 285.520252 
L 162.374876 285.511464 
L 165.654215 285.4851 
L 168.933554 285.739954 
L 172.212893 285.52904 
L 175.492231 285.739954 
L 178.77157 285.476312 
L 182.050909 285.221458 
L 185.330248 285.634497 
L 188.609587 285.282974 
L 191.888926 285.414795 
L 195.168264 285.423584 
L 198.447603 285.696014 
L 201.726942 285.397219 
L 205.006281 285.362067 
L 208.28562 285.300551 
L 211.564959 285.414795 
L 214.844298 285.827835 
L 218.123636 285.107213 
L 221.402975 285.274186 
L 224.682314 285.142365 
L 227.961653 285.581769 
L 231.240992 285.502676 
L 234.520331 285.036909 
L 237.799669 285.072061 
L 241.079008 284.878723 
L 244.358347 285.634497 
L 247.637686 285.124789 
L 250.917025 285.107213 
L 254.196364 285.16873 
L 257.475702 284.720538 
L 260.755041 285.16873 
L 264.03438 285.063273 
L 267.313719 284.869935 
L 270.593058 284.843571 
L 273.872397 284.685386 
L 277.151736 284.702962 
L 280.431074 284.597505 
L 283.710413 284.412956 
L 286.989752 284.096585 
L 290.269091 284.316287 
L 293.54843 284.746902 
L 296.827769 283.490209 
L 300.107107 284.412956 
L 303.386446 284.342651 
L 306.665785 284.272347 
L 309.945124 283.657182 
L 313.224463 283.745063 
L 316.503802 284.184466 
L 319.78314 283.973552 
L 323.062479 283.841731 
L 326.341818 283.332023 
L 329.621157 282.927772 
L 332.900496 282.831104 
L 336.179835 282.980501 
L 339.459174 282.154422 
L 342.738512 281.767747 
L 346.017851 282.93656 
L 349.29719 281.25804 
L 352.576529 281.89078 
L 355.855868 280.765908 
L 359.135207 280.862576 
L 362.414545 280.449537 
L 365.693884 281.091066 
L 368.973223 279.131327 
L 372.252562 279.271936 
L 375.531901 277.918574 
L 378.81124 279.895889 
L 382.090579 276.679456 
L 385.369917 275.282154 
L 388.649256 271.670258 
L 391.928595 262.908555 
L 395.207934 265.316485 
L 398.487273 53.568 
" style="fill:none;stroke:#ff7f0e;stroke-linecap:square;stroke-width:1.5;"/>
   </g>
   <g id="patch_3">
    <path d="M 57.6 307.584 
L 57.6 41.472 
" style="fill:none;stroke:#000000;stroke-linecap:square;stroke-linejoin:miter;stroke-width:0.8;"/>
   </g>
   <g id="patch_4">
    <path d="M 414.72 307.584 
L 414.72 41.472 
" style="fill:none;stroke:#000000;stroke-linecap:square;stroke-linejoin:miter;stroke-width:0.8;"/>
   </g>
   <g id="patch_5">
    <path d="M 57.6 307.584 
L 414.72 307.584 
" style="fill:none;stroke:#000000;stroke-linecap:square;stroke-linejoin:miter;stroke-width:0.8;"/>
   </g>
   <g id="patch_6">
    <path d="M 57.6 41.472 
L 414.72 41.472 
" style="fill:none;stroke:#000000;stroke-linecap:square;stroke-linejoin:miter;stroke-width:0.8;"/>
   </g>
   <g id="text_15">
    <text style="font-family:DejaVu Sans;font-size:12px;font-style:normal;font-weight:normal;text-anchor:middle;" transform="rotate(-0, 236.16, 35.472)" x="236.16" y="35.472">Coin Flips for arcsin(x)/2</text>
   </g>
   <g id="legend_1">
    <g id="patch_7">
     <path d="M 64.6 78.82825 
L 264.423437 78.82825 
Q 266.423437 78.82825 266.423437 76.82825 
L 266.423437 48.472 
Q 266.423437 46.472 264.423437 46.472 
L 64.6 46.472 
Q 62.6 46.472 62.6 48.472 
L 62.6 76.82825 
Q 62.6 78.82825 64.6 78.82825 
z
" style="fill:#ffffff;opacity:0.8;stroke:#cccccc;stroke-linejoin:miter;"/>
    </g>
    <g id="line2d_15">
     <path d="M 66.6 54.570437 
L 86.6 54.570437 
" style="fill:none;stroke:#1f77b4;stroke-linecap:square;stroke-width:1.5;"/>
    </g>
    <g id="line2d_16"/>
    <g id="text_16">
     <text style="font-family:DejaVu Sans;font-size:10px;font-style:normal;font-weight:normal;text-anchor:start;" transform="rotate(-0, 94.6, 58.070437)" x="94.6" y="58.070437">Coin Flip Lower Bound</text>
    </g>
    <g id="line2d_17">
     <path d="M 66.6 69.248562 
L 86.6 69.248562 
" style="fill:none;stroke:#ff7f0e;stroke-linecap:square;stroke-width:1.5;"/>
    </g>
    <g id="line2d_18"/>
    <g id="text_17">
     <text style="font-family:DejaVu Sans;font-size:10px;font-style:normal;font-weight:normal;text-anchor:start;" transform="rotate(-0, 94.6, 72.748562)" x="94.6" y="72.748562">Average Coins Flipped arcsin(x)/2</text>
    </g>
   </g>
  </g>
 </g>
 <defs>
  <clipPath id="p438ce0ae77">
   <rect height="266.112" width="357.12" x="57.6" y="41.472"/>
  </clipPath>
 </defs>
</svg>
