<svg height="460.8" viewBox="0 0 460.8 345.6" width="614.4" xmlns="http://www.w3.org/2000/svg" xmlns:xlink="http://www.w3.org/1999/xlink"><defs><style>*{stroke-linecap:butt;stroke-linejoin:round}</style></defs><g id="figure_1"><path d="M0 345.6h460.8V0H0z" fill="#fff" id="patch_1"/><g id="axes_1"><path d="M57.6 307.584h357.12V41.472H57.6z" fill="#fff" id="patch_2"/><g id="matplotlib.axis_1"><g id="xtick_1"><g id="line2d_1"><defs><path d="M0 0v3.5" id="m5532372585" stroke="#000" stroke-width=".8"/></defs><use x="73.8" xlink:href="#m5532372585" y="307.584" stroke="#000" stroke-width=".8"/></g><text x="73.8" y="322.182" font-family="DejaVu Sans" font-size="10" font-weight="400" text-anchor="middle" id="text_1">0.0</text></g><g id="xtick_2"><use x="138.744" xlink:href="#m5532372585" y="307.584" stroke="#000" stroke-width=".8" id="line2d_2"/><text x="138.744" y="322.182" font-family="DejaVu Sans" font-size="10" font-weight="400" text-anchor="middle" id="text_2">0.2</text></g><g id="xtick_3"><use x="203.688" xlink:href="#m5532372585" y="307.584" stroke="#000" stroke-width=".8" id="line2d_3"/><text x="203.688" y="322.182" font-family="DejaVu Sans" font-size="10" font-weight="400" text-anchor="middle" id="text_3">0.4</text></g><g id="xtick_4"><use x="268.632" xlink:href="#m5532372585" y="307.584" stroke="#000" stroke-width=".8" id="line2d_4"/><text x="268.632" y="322.182" font-family="DejaVu Sans" font-size="10" font-weight="400" text-anchor="middle" id="text_4">0.6</text></g><g id="xtick_5"><use x="333.576" xlink:href="#m5532372585" y="307.584" stroke="#000" stroke-width=".8" id="line2d_5"/><text x="333.576" y="322.182" font-family="DejaVu Sans" font-size="10" font-weight="400" text-anchor="middle" id="text_5">0.8</text></g><g id="xtick_6"><use x="398.52" xlink:href="#m5532372585" y="307.584" stroke="#000" stroke-width=".8" id="line2d_6"/><text x="398.52" y="322.182" font-family="DejaVu Sans" font-size="10" font-weight="400" text-anchor="middle" id="text_6">1.0</text></g><text x="236.16" y="335.861" font-family="DejaVu Sans" font-size="10" font-weight="400" text-anchor="middle" id="text_7">Input Coin&apos;s Heads Probability (λ)</text></g><g id="matplotlib.axis_2"><g id="ytick_1"><g id="line2d_7"><defs><path d="M0 0h-3.5" id="mde4c881ea0" stroke="#000" stroke-width=".8"/></defs><use x="57.6" xlink:href="#mde4c881ea0" y="295.488" stroke="#000" stroke-width=".8"/></g><text x="50.6" y="299.287" font-family="DejaVu Sans" font-size="10" font-weight="400" text-anchor="end" id="text_8">0.0</text></g><g id="ytick_2"><use x="57.6" xlink:href="#mde4c881ea0" y="255.435" stroke="#000" stroke-width=".8" id="line2d_8"/><text x="50.6" y="259.234" font-family="DejaVu Sans" font-size="10" font-weight="400" text-anchor="end" id="text_9">0.1</text></g><g id="ytick_3"><use x="57.6" xlink:href="#mde4c881ea0" y="215.382" stroke="#000" stroke-width=".8" id="line2d_9"/><text x="50.6" y="219.181" font-family="DejaVu Sans" font-size="10" font-weight="400" text-anchor="end" id="text_10">0.2</text></g><g id="ytick_4"><use x="57.6" xlink:href="#mde4c881ea0" y="175.329" stroke="#000" stroke-width=".8" id="line2d_10"/><text x="50.6" y="179.128" font-family="DejaVu Sans" font-size="10" font-weight="400" text-anchor="end" id="text_11">0.3</text></g><g id="ytick_5"><use x="57.6" xlink:href="#mde4c881ea0" y="135.276" stroke="#000" stroke-width=".8" id="line2d_11"/><text x="50.6" y="139.075" font-family="DejaVu Sans" font-size="10" font-weight="400" text-anchor="end" id="text_12">0.4</text></g><g id="ytick_6"><use x="57.6" xlink:href="#mde4c881ea0" y="95.223" stroke="#000" stroke-width=".8" id="line2d_12"/><text x="50.6" y="99.022" font-family="DejaVu Sans" font-size="10" font-weight="400" text-anchor="end" id="text_13">0.5</text></g><g id="ytick_7"><use x="57.6" xlink:href="#mde4c881ea0" y="55.17" stroke="#000" stroke-width=".8" id="line2d_13"/><text x="50.6" y="58.969" font-family="DejaVu Sans" font-size="10" font-weight="400" text-anchor="end" id="text_14">0.6</text></g><text transform="rotate(-90 28.617 174.528)" x="28.617" y="174.528" font-family="DejaVu Sans" font-size="10" font-weight="400" text-anchor="middle" id="text_15">Simulated Mean / Function Value</text></g><path clip-path="url(#p4518b42c31)" d="M73.833 295.448l3.28-4.024 3.278-3.984 3.28-3.944 3.28-3.904 3.278-3.864 3.28-3.826 3.28-3.787 3.278-3.75 3.28-3.71 3.28-3.674 3.278-3.636 3.28-3.6 3.28-3.562 3.278-3.526 3.28-3.49 3.28-3.454 3.278-3.418 3.28-3.383 3.28-3.348 3.279-3.313 3.279-3.278 3.28-3.244 3.279-3.21 3.279-3.175 3.28-3.141 3.279-3.108 3.279-3.074 3.28-3.041 3.279-3.008 3.279-2.974 3.28-2.942 3.279-2.91 3.279-2.876 3.28-2.843 3.279-2.812 3.279-2.78 3.28-2.746 3.279-2.715 3.279-2.683 3.28-2.651 3.279-2.62 3.279-2.587 3.28-2.556 3.279-2.525 3.279-2.492 3.28-2.462 3.279-2.43 3.279-2.398 3.28-2.366 3.279-2.336 3.279-2.304 3.28-2.272 3.279-2.241 3.279-2.21 3.28-2.178 3.279-2.146 3.279-2.115 3.28-2.083 3.279-2.05 3.28-2.02 3.278-1.988 3.28-1.955 3.28-1.923 3.278-1.89 3.28-1.859 3.28-1.825 3.278-1.793 3.28-1.76 3.28-1.725 3.278-1.693 3.28-1.659 3.28-1.624 3.278-1.59 3.28-1.556 3.28-1.52 3.278-1.485 3.28-1.448 3.28-1.412 3.278-1.375 3.28-1.337 3.28-1.299 3.279-1.26 3.279-1.22 3.28-1.178 3.279-1.138 3.279-1.094 3.28-1.05 3.279-1.005 3.279-.958 3.28-.908 3.279-.857 3.279-.803 3.28-.746 3.279-.684 3.279-.617 3.28-.543 3.279-.457 3.279-.353 3.28-.195" fill="none" stroke="#1f77b4" stroke-linecap="square" stroke-width="1.5" id="line2d_14"/><path clip-path="url(#p4518b42c31)" d="M73.833 295.488l3.28-4.806 3.278-4.807 3.28-6.408 3.28-4.807 3.278 6.409 3.28-11.215 3.28 4.005 3.278-10.413 3.28-4.807 3.28 9.613 3.278-12.817 3.28-16.822 3.28 11.215 3.278-4.006 3.28 1.602 3.28-11.214 3.278-3.205 3.28-13.618 3.28 14.42 3.279-7.21 3.279-21.629 3.28 16.021 3.279-13.618 3.279 4.807h3.28l3.279-31.242 3.279 19.226 3.28-4.806 3.279 7.21 3.279-16.022 3.28-3.204 3.279-2.404 3.279 10.414 3.28-8.811 3.279-16.022 3.279 36.85 3.28-35.247 3.279 8.01 3.279-13.618 3.28 3.204 3.279-2.403 3.279-16.021 3.28 8.01 3.279 12.818 3.279-23.231 3.28-2.403 3.279 4.806 3.279-23.23 3.28 9.612 3.279-10.414 3.279 17.623 3.28.802 3.279-12.016 3.279-12.016 3.28 11.215 3.279-16.022 3.279 17.624 3.28-12.016 3.279 4.806 3.28-9.613 3.278-6.408 3.28-4.806 3.28 16.02 3.278-6.408 3.28-8.811 3.28-4.006 3.278-6.408h6.56l3.278-8.812 3.28.801 3.28 20.828 3.278-8.01 3.28-1.603 3.28 2.403 3.278.801 3.28-14.419 3.28-2.403 3.278 21.629 3.28-24.032 3.28-4.005 3.279 22.43 3.279-30.44 3.28-4.006 3.279 12.817 3.279-10.414 3.28 7.21 3.279 8.01 3.279-2.403 3.28.801 3.279-26.435 3.279 16.822 3.28 13.618 3.279-4.005 3.279-8.812 3.28-11.215 3.279-3.204 3.279 4.006 3.28-2.404" fill="none" stroke="#ff7f0e" stroke-linecap="square" stroke-width="1.5" id="line2d_15"/><path d="M57.6 307.584V41.472" fill="none" stroke="#000" stroke-linecap="square" stroke-width=".8" id="patch_3"/><path d="M414.72 307.584V41.472" fill="none" stroke="#000" stroke-linecap="square" stroke-width=".8" id="patch_4"/><path d="M57.6 307.584h357.12" fill="none" stroke="#000" stroke-linecap="square" stroke-width=".8" id="patch_5"/><path d="M57.6 41.472h357.12" fill="none" stroke="#000" stroke-linecap="square" stroke-width=".8" id="patch_6"/><text x="236.16" y="35.472" font-family="DejaVu Sans" font-size="12" font-weight="400" text-anchor="middle" id="text_16">Expected Value in arcsin(x)+sqrt(1-x*x)-1 Algorithm</text><g id="legend_1"><path d="M64.6 78.828h245.063q2 0 2-2V48.472q0-2-2-2H64.6q-2 0-2 2v28.356q0 2 2 2z" fill="#fff" opacity=".8" stroke="#ccc" id="patch_7"/><path d="M66.6 54.57h20" fill="none" stroke="#1f77b4" stroke-linecap="square" stroke-width="1.5" id="line2d_16"/><text x="94.6" y="58.07" font-family="DejaVu Sans" font-size="10" font-weight="400" id="text_17">arcsin(x)+sqrt(1-x*x)-1</text><path d="M66.6 69.249h20" fill="none" stroke="#ff7f0e" stroke-linecap="square" stroke-width="1.5" id="line2d_18"/><text x="94.6" y="72.749" font-family="DejaVu Sans" font-size="10" font-weight="400" id="text_18">Simulated Mean of arcsin(x)+sqrt(1-x*x)-1</text></g></g></g><defs><clipPath id="p4518b42c31"><path d="M57.6 41.472h357.12v266.112H57.6z"/></clipPath></defs></svg>