<?xml version="1.0" encoding="utf-8" standalone="no"?>
<!DOCTYPE svg PUBLIC "-//W3C//DTD SVG 1.1//EN"
  "http://www.w3.org/Graphics/SVG/1.1/DTD/svg11.dtd">
<!-- Created with matplotlib (https://matplotlib.org/) -->
<svg height="252pt" version="1.1" viewBox="0 0 324 252" width="324pt" xmlns="http://www.w3.org/2000/svg" xmlns:xlink="http://www.w3.org/1999/xlink">
 <defs>
  <style type="text/css">
*{stroke-linecap:butt;stroke-linejoin:round;}
  </style>
 </defs>
 <g id="figure_1">
  <g id="patch_1">
   <path d="M 0 252 
L 324 252 
L 324 0 
L 0 0 
z
" style="fill:#ffffff;"/>
  </g>
  <g id="axes_1">
   <g id="patch_2">
    <path d="M 40.5 224.28 
L 291.6 224.28 
L 291.6 30.24 
L 40.5 30.24 
z
" style="fill:#ffffff;"/>
   </g>
   <g id="matplotlib.axis_1">
    <g id="xtick_1">
     <g id="line2d_1">
      <defs>
       <path d="M 0 0 
L 0 3.5 
" id="m9ee75c05d7" style="stroke:#000000;stroke-width:0.8;"/>
      </defs>
      <g>
       <use style="stroke:#000000;stroke-width:0.8;" x="51.684906" xlink:href="#m9ee75c05d7" y="224.28"/>
      </g>
     </g>
     <g id="text_1">
      <text style="font-family:DejaVu Sans;font-size:10px;font-style:normal;font-weight:normal;text-anchor:middle;" transform="rotate(-0, 51.684906, 238.878438)" x="51.684906" y="238.878438">0.0</text>
     </g>
    </g>
    <g id="xtick_2">
     <g id="line2d_2">
      <g>
       <use style="stroke:#000000;stroke-width:0.8;" x="97.430944" xlink:href="#m9ee75c05d7" y="224.28"/>
      </g>
     </g>
     <g id="text_2">
      <text style="font-family:DejaVu Sans;font-size:10px;font-style:normal;font-weight:normal;text-anchor:middle;" transform="rotate(-0, 97.430944, 238.878438)" x="97.430944" y="238.878438">0.2</text>
     </g>
    </g>
    <g id="xtick_3">
     <g id="line2d_3">
      <g>
       <use style="stroke:#000000;stroke-width:0.8;" x="143.176981" xlink:href="#m9ee75c05d7" y="224.28"/>
      </g>
     </g>
     <g id="text_3">
      <text style="font-family:DejaVu Sans;font-size:10px;font-style:normal;font-weight:normal;text-anchor:middle;" transform="rotate(-0, 143.176981, 238.878438)" x="143.176981" y="238.878438">0.4</text>
     </g>
    </g>
    <g id="xtick_4">
     <g id="line2d_4">
      <g>
       <use style="stroke:#000000;stroke-width:0.8;" x="188.923019" xlink:href="#m9ee75c05d7" y="224.28"/>
      </g>
     </g>
     <g id="text_4">
      <text style="font-family:DejaVu Sans;font-size:10px;font-style:normal;font-weight:normal;text-anchor:middle;" transform="rotate(-0, 188.923019, 238.878438)" x="188.923019" y="238.878438">0.6</text>
     </g>
    </g>
    <g id="xtick_5">
     <g id="line2d_5">
      <g>
       <use style="stroke:#000000;stroke-width:0.8;" x="234.669056" xlink:href="#m9ee75c05d7" y="224.28"/>
      </g>
     </g>
     <g id="text_5">
      <text style="font-family:DejaVu Sans;font-size:10px;font-style:normal;font-weight:normal;text-anchor:middle;" transform="rotate(-0, 234.669056, 238.878438)" x="234.669056" y="238.878438">0.8</text>
     </g>
    </g>
    <g id="xtick_6">
     <g id="line2d_6">
      <g>
       <use style="stroke:#000000;stroke-width:0.8;" x="280.415094" xlink:href="#m9ee75c05d7" y="224.28"/>
      </g>
     </g>
     <g id="text_6">
      <text style="font-family:DejaVu Sans;font-size:10px;font-style:normal;font-weight:normal;text-anchor:middle;" transform="rotate(-0, 280.415094, 238.878438)" x="280.415094" y="238.878438">1.0</text>
     </g>
    </g>
    <g id="text_7">
     <text style="font-family:DejaVu Sans;font-size:10px;font-style:normal;font-weight:normal;text-anchor:middle;" transform="rotate(-0, 166.05, 252.556563)" x="166.05" y="252.556563">Input Coin's Heads Probability (λ)</text>
    </g>
   </g>
   <g id="matplotlib.axis_2">
    <g id="ytick_1">
     <g id="line2d_7">
      <defs>
       <path d="M 0 0 
L -3.5 0 
" id="m9c69461f6e" style="stroke:#000000;stroke-width:0.8;"/>
      </defs>
      <g>
       <use style="stroke:#000000;stroke-width:0.8;" x="40.5" xlink:href="#m9c69461f6e" y="201.647658"/>
      </g>
     </g>
     <g id="text_8">
      <text style="font-family:DejaVu Sans;font-size:10px;font-style:normal;font-weight:normal;text-anchor:end;" transform="rotate(-0, 33.5, 205.446877)" x="33.5" y="205.446877">4.5</text>
     </g>
    </g>
    <g id="ytick_2">
     <g id="line2d_8">
      <g>
       <use style="stroke:#000000;stroke-width:0.8;" x="40.5" xlink:href="#m9c69461f6e" y="167.915251"/>
      </g>
     </g>
     <g id="text_9">
      <text style="font-family:DejaVu Sans;font-size:10px;font-style:normal;font-weight:normal;text-anchor:end;" transform="rotate(-0, 33.5, 171.71447)" x="33.5" y="171.71447">5.0</text>
     </g>
    </g>
    <g id="ytick_3">
     <g id="line2d_9">
      <g>
       <use style="stroke:#000000;stroke-width:0.8;" x="40.5" xlink:href="#m9c69461f6e" y="134.182844"/>
      </g>
     </g>
     <g id="text_10">
      <text style="font-family:DejaVu Sans;font-size:10px;font-style:normal;font-weight:normal;text-anchor:end;" transform="rotate(-0, 33.5, 137.982062)" x="33.5" y="137.982062">5.5</text>
     </g>
    </g>
    <g id="ytick_4">
     <g id="line2d_10">
      <g>
       <use style="stroke:#000000;stroke-width:0.8;" x="40.5" xlink:href="#m9c69461f6e" y="100.450436"/>
      </g>
     </g>
     <g id="text_11">
      <text style="font-family:DejaVu Sans;font-size:10px;font-style:normal;font-weight:normal;text-anchor:end;" transform="rotate(-0, 33.5, 104.249655)" x="33.5" y="104.249655">6.0</text>
     </g>
    </g>
    <g id="ytick_5">
     <g id="line2d_11">
      <g>
       <use style="stroke:#000000;stroke-width:0.8;" x="40.5" xlink:href="#m9c69461f6e" y="66.718029"/>
      </g>
     </g>
     <g id="text_12">
      <text style="font-family:DejaVu Sans;font-size:10px;font-style:normal;font-weight:normal;text-anchor:end;" transform="rotate(-0, 33.5, 70.517247)" x="33.5" y="70.517247">6.5</text>
     </g>
    </g>
    <g id="ytick_6">
     <g id="line2d_12">
      <g>
       <use style="stroke:#000000;stroke-width:0.8;" x="40.5" xlink:href="#m9c69461f6e" y="32.985621"/>
      </g>
     </g>
     <g id="text_13">
      <text style="font-family:DejaVu Sans;font-size:10px;font-style:normal;font-weight:normal;text-anchor:end;" transform="rotate(-0, 33.5, 36.78484)" x="33.5" y="36.78484">7.0</text>
     </g>
    </g>
    <g id="text_14">
     <text style="font-family:DejaVu Sans;font-size:10px;font-style:normal;font-weight:normal;text-anchor:middle;" transform="rotate(-90, 11.517187, 127.26)" x="11.517187" y="127.26">Min. No. of Coin Flips Needed</text>
    </g>
    <g id="text_15">
     <text style="font-family:DejaVu Sans;font-size:10px;font-style:normal;font-weight:normal;text-anchor:start;" transform="rotate(-0, 40.5, 27.24)" x="40.5" y="27.24">1e−11</text>
    </g>
   </g>
   <g id="line2d_13">
    <path clip-path="url(#p25d2f97b54)" d="M 51.913636 168.083716 
L 54.219421 169.76021 
L 56.525207 171.397726 
L 58.830992 172.997148 
L 61.136777 174.559321 
L 63.442562 176.085052 
L 65.748347 177.57511 
L 68.054132 179.030231 
L 70.359917 180.451117 
L 72.665702 181.838435 
L 74.971488 183.192824 
L 77.277273 184.51489 
L 79.583058 185.805211 
L 81.888843 187.064336 
L 84.194628 188.292786 
L 86.500413 189.491055 
L 88.806198 190.659611 
L 91.111983 191.798895 
L 93.417769 192.909326 
L 95.723554 193.991295 
L 98.029339 195.045169 
L 100.335124 196.071295 
L 102.640909 197.069992 
L 104.946694 198.041558 
L 107.252479 198.986267 
L 109.558264 199.904373 
L 111.86405 200.796103 
L 114.169835 201.661664 
L 116.47562 202.50124 
L 118.781405 203.314993 
L 121.08719 204.10306 
L 123.392975 204.865557 
L 125.69876 205.602574 
L 128.004545 206.314182 
L 130.310331 207.000422 
L 132.616116 207.661315 
L 134.921901 208.296856 
L 137.227686 208.907011 
L 139.533471 209.491723 
L 141.839256 210.050906 
L 144.145041 210.584446 
L 146.450826 211.092198 
L 148.756612 211.573989 
L 151.062397 212.029609 
L 153.368182 212.458819 
L 155.673967 212.861343 
L 157.979752 213.236865 
L 160.285537 213.585033 
L 162.591322 213.905451 
L 164.897107 214.197679 
L 167.202893 214.461228 
L 169.508678 214.695561 
L 171.814463 214.900083 
L 174.120248 215.074144 
L 176.426033 215.217029 
L 178.731818 215.327954 
L 181.037603 215.406063 
L 183.343388 215.45042 
L 185.649174 215.46 
L 187.954959 215.433684 
L 190.260744 215.37025 
L 192.566529 215.268358 
L 194.872314 215.126545 
L 197.178099 214.943207 
L 199.483884 214.716588 
L 201.789669 214.444758 
L 204.095455 214.125597 
L 206.40124 213.756771 
L 208.707025 213.335706 
L 211.01281 212.859557 
L 213.318595 212.325174 
L 215.62438 211.729055 
L 217.930165 211.067307 
L 220.23595 210.335576 
L 222.541736 209.528987 
L 224.847521 208.642054 
L 227.153306 207.668587 
L 229.459091 206.601563 
L 231.764876 205.432981 
L 234.070661 204.153676 
L 236.376446 202.75309 
L 238.682231 201.218981 
L 240.988017 199.537057 
L 243.293802 197.690495 
L 245.599587 195.659323 
L 247.905372 193.419591 
L 250.211157 190.942252 
L 252.516942 188.191627 
L 254.822727 185.123226 
L 257.128512 181.680614 
L 259.434298 177.790716 
L 261.740083 173.356567 
L 264.045868 168.245586 
L 266.351653 162.269552 
L 268.657438 155.147991 
L 270.963223 146.434789 
L 273.269008 135.351188 
L 275.574793 120.325019 
L 277.880579 97.201558 
L 280.186364 39.06 
" style="fill:none;stroke:#1f77b4;stroke-linecap:square;stroke-width:1.5;"/>
   </g>
   <g id="patch_3">
    <path d="M 40.5 224.28 
L 40.5 30.24 
" style="fill:none;stroke:#000000;stroke-linecap:square;stroke-linejoin:miter;stroke-width:0.8;"/>
   </g>
   <g id="patch_4">
    <path d="M 291.6 224.28 
L 291.6 30.24 
" style="fill:none;stroke:#000000;stroke-linecap:square;stroke-linejoin:miter;stroke-width:0.8;"/>
   </g>
   <g id="patch_5">
    <path d="M 40.5 224.28 
L 291.6 224.28 
" style="fill:none;stroke:#000000;stroke-linecap:square;stroke-linejoin:miter;stroke-width:0.8;"/>
   </g>
   <g id="patch_6">
    <path d="M 40.5 30.24 
L 291.6 30.24 
" style="fill:none;stroke:#000000;stroke-linecap:square;stroke-linejoin:miter;stroke-width:0.8;"/>
   </g>
   <g id="text_16">
    <text style="font-family:DejaVu Sans;font-size:12px;font-style:normal;font-weight:normal;text-anchor:middle;" transform="rotate(-0, 166.05, 24.24)" x="166.05" y="24.24">Coin Flip Lower Bound for arcsin(x)/2</text>
   </g>
   <g id="legend_1">
    <g id="patch_7">
     <path d="M 47.5 52.918125 
L 190.86875 52.918125 
Q 192.86875 52.918125 192.86875 50.918125 
L 192.86875 37.24 
Q 192.86875 35.24 190.86875 35.24 
L 47.5 35.24 
Q 45.5 35.24 45.5 37.24 
L 45.5 50.918125 
Q 45.5 52.918125 47.5 52.918125 
z
" style="fill:#ffffff;opacity:0.8;stroke:#cccccc;stroke-linejoin:miter;"/>
    </g>
    <g id="line2d_14">
     <path d="M 49.5 43.338437 
L 69.5 43.338437 
" style="fill:none;stroke:#1f77b4;stroke-linecap:square;stroke-width:1.5;"/>
    </g>
    <g id="line2d_15"/>
    <g id="text_17">
     <text style="font-family:DejaVu Sans;font-size:10px;font-style:normal;font-weight:normal;text-anchor:start;" transform="rotate(-0, 77.5, 46.838437)" x="77.5" y="46.838437">Coin Flip Lower Bound</text>
    </g>
   </g>
  </g>
 </g>
 <defs>
  <clipPath id="p25d2f97b54">
   <rect height="194.04" width="251.1" x="40.5" y="30.24"/>
  </clipPath>
 </defs>
</svg>
