<?xml version="1.0" encoding="utf-8" standalone="no"?>
<!DOCTYPE svg PUBLIC "-//W3C//DTD SVG 1.1//EN"
  "http://www.w3.org/Graphics/SVG/1.1/DTD/svg11.dtd">
<!-- Created with matplotlib (https://matplotlib.org/) -->
<svg height="345.6pt" version="1.1" viewBox="0 0 460.8 345.6" width="460.8pt" xmlns="http://www.w3.org/2000/svg" xmlns:xlink="http://www.w3.org/1999/xlink">
 <defs>
  <style type="text/css">
*{stroke-linecap:butt;stroke-linejoin:round;}
  </style>
 </defs>
 <g id="figure_1">
  <g id="patch_1">
   <path d="M 0 345.6 
L 460.8 345.6 
L 460.8 0 
L 0 0 
z
" style="fill:#ffffff;"/>
  </g>
  <g id="axes_1">
   <g id="patch_2">
    <path d="M 57.6 307.584 
L 414.72 307.584 
L 414.72 41.472 
L 57.6 41.472 
z
" style="fill:#ffffff;"/>
   </g>
   <g id="matplotlib.axis_1">
    <g id="xtick_1">
     <g id="line2d_1">
      <defs>
       <path d="M 0 0 
L 0 3.5 
" id="mf35df15315" style="stroke:#000000;stroke-width:0.8;"/>
      </defs>
      <g>
       <use style="stroke:#000000;stroke-width:0.8;" x="73.800255" xlink:href="#mf35df15315" y="307.584"/>
      </g>
     </g>
     <g id="text_1">
      <text style="font-family:DejaVu Sans;font-size:10px;font-style:normal;font-weight:normal;text-anchor:middle;" transform="rotate(-0, 73.800255, 322.182437)" x="73.800255" y="322.182437">0.0</text>
     </g>
    </g>
    <g id="xtick_2">
     <g id="line2d_2">
      <g>
       <use style="stroke:#000000;stroke-width:0.8;" x="138.744153" xlink:href="#mf35df15315" y="307.584"/>
      </g>
     </g>
     <g id="text_2">
      <text style="font-family:DejaVu Sans;font-size:10px;font-style:normal;font-weight:normal;text-anchor:middle;" transform="rotate(-0, 138.744153, 322.182437)" x="138.744153" y="322.182437">0.2</text>
     </g>
    </g>
    <g id="xtick_3">
     <g id="line2d_3">
      <g>
       <use style="stroke:#000000;stroke-width:0.8;" x="203.688051" xlink:href="#mf35df15315" y="307.584"/>
      </g>
     </g>
     <g id="text_3">
      <text style="font-family:DejaVu Sans;font-size:10px;font-style:normal;font-weight:normal;text-anchor:middle;" transform="rotate(-0, 203.688051, 322.182437)" x="203.688051" y="322.182437">0.4</text>
     </g>
    </g>
    <g id="xtick_4">
     <g id="line2d_4">
      <g>
       <use style="stroke:#000000;stroke-width:0.8;" x="268.631949" xlink:href="#mf35df15315" y="307.584"/>
      </g>
     </g>
     <g id="text_4">
      <text style="font-family:DejaVu Sans;font-size:10px;font-style:normal;font-weight:normal;text-anchor:middle;" transform="rotate(-0, 268.631949, 322.182437)" x="268.631949" y="322.182437">0.6</text>
     </g>
    </g>
    <g id="xtick_5">
     <g id="line2d_5">
      <g>
       <use style="stroke:#000000;stroke-width:0.8;" x="333.575847" xlink:href="#mf35df15315" y="307.584"/>
      </g>
     </g>
     <g id="text_5">
      <text style="font-family:DejaVu Sans;font-size:10px;font-style:normal;font-weight:normal;text-anchor:middle;" transform="rotate(-0, 333.575847, 322.182437)" x="333.575847" y="322.182437">0.8</text>
     </g>
    </g>
    <g id="xtick_6">
     <g id="line2d_6">
      <g>
       <use style="stroke:#000000;stroke-width:0.8;" x="398.519745" xlink:href="#mf35df15315" y="307.584"/>
      </g>
     </g>
     <g id="text_6">
      <text style="font-family:DejaVu Sans;font-size:10px;font-style:normal;font-weight:normal;text-anchor:middle;" transform="rotate(-0, 398.519745, 322.182437)" x="398.519745" y="322.182437">1.0</text>
     </g>
    </g>
    <g id="text_7">
     <text style="font-family:DejaVu Sans;font-size:10px;font-style:normal;font-weight:normal;text-anchor:middle;" transform="rotate(-0, 236.16, 335.860562)" x="236.16" y="335.860562">Input Coin's Heads Probability (λ)</text>
    </g>
   </g>
   <g id="matplotlib.axis_2">
    <g id="ytick_1">
     <g id="line2d_7">
      <defs>
       <path d="M 0 0 
L -3.5 0 
" id="m0aef1b03e6" style="stroke:#000000;stroke-width:0.8;"/>
      </defs>
      <g>
       <use style="stroke:#000000;stroke-width:0.8;" x="57.6" xlink:href="#m0aef1b03e6" y="295.488"/>
      </g>
     </g>
     <g id="text_8">
      <text style="font-family:DejaVu Sans;font-size:10px;font-style:normal;font-weight:normal;text-anchor:end;" transform="rotate(-0, 50.6, 299.287219)" x="50.6" y="299.287219">0.0</text>
     </g>
    </g>
    <g id="ytick_2">
     <g id="line2d_8">
      <g>
       <use style="stroke:#000000;stroke-width:0.8;" x="57.6" xlink:href="#m0aef1b03e6" y="255.301953"/>
      </g>
     </g>
     <g id="text_9">
      <text style="font-family:DejaVu Sans;font-size:10px;font-style:normal;font-weight:normal;text-anchor:end;" transform="rotate(-0, 50.6, 259.101172)" x="50.6" y="259.101172">0.1</text>
     </g>
    </g>
    <g id="ytick_3">
     <g id="line2d_9">
      <g>
       <use style="stroke:#000000;stroke-width:0.8;" x="57.6" xlink:href="#m0aef1b03e6" y="215.115907"/>
      </g>
     </g>
     <g id="text_10">
      <text style="font-family:DejaVu Sans;font-size:10px;font-style:normal;font-weight:normal;text-anchor:end;" transform="rotate(-0, 50.6, 218.915126)" x="50.6" y="218.915126">0.2</text>
     </g>
    </g>
    <g id="ytick_4">
     <g id="line2d_10">
      <g>
       <use style="stroke:#000000;stroke-width:0.8;" x="57.6" xlink:href="#m0aef1b03e6" y="174.92986"/>
      </g>
     </g>
     <g id="text_11">
      <text style="font-family:DejaVu Sans;font-size:10px;font-style:normal;font-weight:normal;text-anchor:end;" transform="rotate(-0, 50.6, 178.729079)" x="50.6" y="178.729079">0.3</text>
     </g>
    </g>
    <g id="ytick_5">
     <g id="line2d_11">
      <g>
       <use style="stroke:#000000;stroke-width:0.8;" x="57.6" xlink:href="#m0aef1b03e6" y="134.743814"/>
      </g>
     </g>
     <g id="text_12">
      <text style="font-family:DejaVu Sans;font-size:10px;font-style:normal;font-weight:normal;text-anchor:end;" transform="rotate(-0, 50.6, 138.543033)" x="50.6" y="138.543033">0.4</text>
     </g>
    </g>
    <g id="ytick_6">
     <g id="line2d_12">
      <g>
       <use style="stroke:#000000;stroke-width:0.8;" x="57.6" xlink:href="#m0aef1b03e6" y="94.557767"/>
      </g>
     </g>
     <g id="text_13">
      <text style="font-family:DejaVu Sans;font-size:10px;font-style:normal;font-weight:normal;text-anchor:end;" transform="rotate(-0, 50.6, 98.356986)" x="50.6" y="98.356986">0.5</text>
     </g>
    </g>
    <g id="ytick_7">
     <g id="line2d_13">
      <g>
       <use style="stroke:#000000;stroke-width:0.8;" x="57.6" xlink:href="#m0aef1b03e6" y="54.371721"/>
      </g>
     </g>
     <g id="text_14">
      <text style="font-family:DejaVu Sans;font-size:10px;font-style:normal;font-weight:normal;text-anchor:end;" transform="rotate(-0, 50.6, 58.17094)" x="50.6" y="58.17094">0.6</text>
     </g>
    </g>
    <g id="text_15">
     <text style="font-family:DejaVu Sans;font-size:10px;font-style:normal;font-weight:normal;text-anchor:middle;" transform="rotate(-90, 28.617187, 174.528)" x="28.617187" y="174.528">Simulated Mean / Function Value</text>
    </g>
   </g>
   <g id="line2d_14">
    <path clip-path="url(#p5a3af7753e)" d="M 73.832727 295.447816 
L 77.112066 291.410259 
L 80.391405 287.413278 
L 83.670744 283.456475 
L 86.950083 279.539469 
L 90.229421 275.661886 
L 93.50876 271.823366 
L 96.788099 268.023559 
L 100.067438 264.262124 
L 103.346777 260.538734 
L 106.626116 256.853068 
L 109.905455 253.204817 
L 113.184793 249.593682 
L 116.464132 246.019371 
L 119.743471 242.481604 
L 123.02281 238.980108 
L 126.302149 235.51462 
L 129.581488 232.084884 
L 132.860826 228.690653 
L 136.140165 225.33169 
L 139.419504 222.007763 
L 142.698843 218.718651 
L 145.978182 215.464138 
L 149.257521 212.244019 
L 152.53686 209.058094 
L 155.816198 205.906171 
L 159.095537 202.788067 
L 162.374876 199.703603 
L 165.654215 196.652612 
L 168.933554 193.634929 
L 172.212893 190.650401 
L 175.492231 187.698879 
L 178.77157 184.780221 
L 182.050909 181.894295 
L 185.330248 179.040973 
L 188.609587 176.220134 
L 191.888926 173.431667 
L 195.168264 170.675465 
L 198.447603 167.95143 
L 201.726942 165.259469 
L 205.006281 162.599498 
L 208.28562 159.971439 
L 211.564959 157.375223 
L 214.844298 154.810785 
L 218.123636 152.278071 
L 221.402975 149.777033 
L 224.682314 147.30763 
L 227.961653 144.86983 
L 231.240992 142.463607 
L 234.520331 140.088945 
L 237.799669 137.745835 
L 241.079008 135.434278 
L 244.358347 133.154282 
L 247.637686 130.905866 
L 250.917025 128.689055 
L 254.196364 126.503886 
L 257.475702 124.350406 
L 260.755041 122.228672 
L 264.03438 120.13875 
L 267.313719 118.08072 
L 270.593058 116.054671 
L 273.872397 114.060705 
L 277.151736 112.098939 
L 280.431074 110.1695 
L 283.710413 108.272532 
L 286.989752 106.408192 
L 290.269091 104.576655 
L 293.54843 102.778111 
L 296.827769 101.01277 
L 300.107107 99.280861 
L 303.386446 97.582633 
L 306.665785 95.918359 
L 309.945124 94.288334 
L 313.224463 92.692883 
L 316.503802 91.132356 
L 319.78314 89.607137 
L 323.062479 88.117644 
L 326.341818 86.664333 
L 329.621157 85.247703 
L 332.900496 83.868298 
L 336.179835 82.526718 
L 339.459174 81.22362 
L 342.738512 79.95973 
L 346.017851 78.735851 
L 349.29719 77.552876 
L 352.576529 76.4118 
L 355.855868 75.313742 
L 359.135207 74.259964 
L 362.414545 73.251906 
L 365.693884 72.29122 
L 368.973223 71.379825 
L 372.252562 70.51998 
L 375.531901 69.714387 
L 378.81124 68.96635 
L 382.090579 68.280016 
L 385.369917 67.660787 
L 388.649256 67.116093 
L 391.928595 66.657033 
L 395.207934 66.302943 
L 398.487273 66.107712 
" style="fill:none;stroke:#1f77b4;stroke-linecap:square;stroke-width:1.5;"/>
   </g>
   <g id="line2d_15">
    <path clip-path="url(#p5a3af7753e)" d="M 73.832727 295.488 
L 77.112066 293.076837 
L 80.391405 285.843349 
L 83.670744 285.039628 
L 86.950083 280.217302 
L 90.229421 279.413581 
L 93.50876 266.554047 
L 96.788099 272.983814 
L 100.067438 261.731721 
L 103.346777 266.554047 
L 106.626116 251.283349 
L 109.905455 244.04986 
L 113.184793 249.675907 
L 116.464132 251.283349 
L 119.743471 252.08707 
L 123.02281 231.190326 
L 126.302149 229.582884 
L 129.581488 233.601488 
L 132.860826 220.741953 
L 136.140165 223.153116 
L 139.419504 224.760558 
L 142.698843 223.153116 
L 145.978182 219.938233 
L 149.257521 210.293581 
L 152.53686 208.68614 
L 155.816198 211.097302 
L 159.095537 210.293581 
L 162.374876 196.630326 
L 165.654215 209.48986 
L 168.933554 195.022884 
L 172.212893 192.611721 
L 175.492231 193.415442 
L 178.77157 191.004279 
L 182.050909 174.92986 
L 185.330248 184.574512 
L 188.609587 168.500093 
L 191.888926 171.714977 
L 195.168264 152.425674 
L 198.447603 173.322419 
L 201.726942 178.144744 
L 205.006281 154.033116 
L 208.28562 162.874047 
L 211.564959 166.08893 
L 214.844298 162.070326 
L 218.123636 162.874047 
L 221.402975 154.033116 
L 224.682314 161.266605 
L 227.961653 143.584744 
L 231.240992 150.014512 
L 234.520331 149.210791 
L 237.799669 141.977302 
L 241.079008 130.725209 
L 244.358347 115.454512 
L 247.637686 137.154977 
L 250.917025 116.258233 
L 254.196364 123.491721 
L 257.475702 118.669395 
L 260.755041 125.099163 
L 264.03438 109.024744 
L 267.313719 117.865674 
L 270.593058 117.865674 
L 273.872397 105.00614 
L 277.151736 109.828465 
L 280.431074 106.613581 
L 283.710413 107.417302 
L 286.989752 105.80986 
L 290.269091 110.632186 
L 293.54843 100.987535 
L 296.827769 97.772651 
L 300.107107 97.772651 
L 303.386446 106.613581 
L 306.665785 91.342884 
L 309.945124 102.594977 
L 313.224463 95.361488 
L 316.503802 76.875907 
L 319.78314 87.324279 
L 323.062479 91.342884 
L 326.341818 91.342884 
L 329.621157 96.96893 
L 332.900496 86.520558 
L 336.179835 88.128 
L 339.459174 91.342884 
L 342.738512 84.109395 
L 346.017851 71.24986 
L 349.29719 87.324279 
L 352.576529 83.305674 
L 355.855868 83.305674 
L 359.135207 75.268465 
L 362.414545 68.838698 
L 365.693884 68.838698 
L 368.973223 79.28707 
L 372.252562 79.28707 
L 375.531901 64.820093 
L 378.81124 78.483349 
L 382.090579 67.231256 
L 385.369917 70.44614 
L 388.649256 61.605209 
L 391.928595 67.231256 
L 395.207934 53.568 
L 398.487273 65.623814 
" style="fill:none;stroke:#ff7f0e;stroke-linecap:square;stroke-width:1.5;"/>
   </g>
   <g id="patch_3">
    <path d="M 57.6 307.584 
L 57.6 41.472 
" style="fill:none;stroke:#000000;stroke-linecap:square;stroke-linejoin:miter;stroke-width:0.8;"/>
   </g>
   <g id="patch_4">
    <path d="M 414.72 307.584 
L 414.72 41.472 
" style="fill:none;stroke:#000000;stroke-linecap:square;stroke-linejoin:miter;stroke-width:0.8;"/>
   </g>
   <g id="patch_5">
    <path d="M 57.6 307.584 
L 414.72 307.584 
" style="fill:none;stroke:#000000;stroke-linecap:square;stroke-linejoin:miter;stroke-width:0.8;"/>
   </g>
   <g id="patch_6">
    <path d="M 57.6 41.472 
L 414.72 41.472 
" style="fill:none;stroke:#000000;stroke-linecap:square;stroke-linejoin:miter;stroke-width:0.8;"/>
   </g>
   <g id="text_16">
    <text style="font-family:DejaVu Sans;font-size:12px;font-style:normal;font-weight:normal;text-anchor:middle;" transform="rotate(-0, 236.16, 35.472)" x="236.16" y="35.472">Expected Value in arcsin(x)+sqrt(1-x*x)-1 Algorithm</text>
   </g>
   <g id="legend_1">
    <g id="patch_7">
     <path d="M 64.6 78.82825 
L 309.6625 78.82825 
Q 311.6625 78.82825 311.6625 76.82825 
L 311.6625 48.472 
Q 311.6625 46.472 309.6625 46.472 
L 64.6 46.472 
Q 62.6 46.472 62.6 48.472 
L 62.6 76.82825 
Q 62.6 78.82825 64.6 78.82825 
z
" style="fill:#ffffff;opacity:0.8;stroke:#cccccc;stroke-linejoin:miter;"/>
    </g>
    <g id="line2d_16">
     <path d="M 66.6 54.570437 
L 86.6 54.570437 
" style="fill:none;stroke:#1f77b4;stroke-linecap:square;stroke-width:1.5;"/>
    </g>
    <g id="line2d_17"/>
    <g id="text_17">
     <text style="font-family:DejaVu Sans;font-size:10px;font-style:normal;font-weight:normal;text-anchor:start;" transform="rotate(-0, 94.6, 58.070437)" x="94.6" y="58.070437">arcsin(x)+sqrt(1-x*x)-1</text>
    </g>
    <g id="line2d_18">
     <path d="M 66.6 69.248562 
L 86.6 69.248562 
" style="fill:none;stroke:#ff7f0e;stroke-linecap:square;stroke-width:1.5;"/>
    </g>
    <g id="line2d_19"/>
    <g id="text_18">
     <text style="font-family:DejaVu Sans;font-size:10px;font-style:normal;font-weight:normal;text-anchor:start;" transform="rotate(-0, 94.6, 72.748562)" x="94.6" y="72.748562">Simulated Mean of arcsin(x)+sqrt(1-x*x)-1</text>
    </g>
   </g>
  </g>
 </g>
 <defs>
  <clipPath id="p5a3af7753e">
   <rect height="266.112" width="357.12" x="57.6" y="41.472"/>
  </clipPath>
 </defs>
</svg>
