<?xml version="1.0" encoding="utf-8" standalone="no"?>
<!DOCTYPE svg PUBLIC "-//W3C//DTD SVG 1.1//EN"
  "http://www.w3.org/Graphics/SVG/1.1/DTD/svg11.dtd">
<!-- Created with matplotlib (https://matplotlib.org/) -->
<svg height="345.6pt" version="1.1" viewBox="0 0 460.8 345.6" width="460.8pt" xmlns="http://www.w3.org/2000/svg" xmlns:xlink="http://www.w3.org/1999/xlink">
 <defs>
  <style type="text/css">
*{stroke-linecap:butt;stroke-linejoin:round;}
  </style>
 </defs>
 <g id="figure_1">
  <g id="patch_1">
   <path d="M 0 345.6 
L 460.8 345.6 
L 460.8 0 
L 0 0 
z
" style="fill:#ffffff;"/>
  </g>
  <g id="axes_1">
   <g id="patch_2">
    <path d="M 57.6 307.584 
L 414.72 307.584 
L 414.72 41.472 
L 57.6 41.472 
z
" style="fill:#ffffff;"/>
   </g>
   <g id="matplotlib.axis_1">
    <g id="xtick_1">
     <g id="line2d_1">
      <defs>
       <path d="M 0 0 
L 0 3.5 
" id="m6c143a4824" style="stroke:#000000;stroke-width:0.8;"/>
      </defs>
      <g>
       <use style="stroke:#000000;stroke-width:0.8;" x="73.800255" xlink:href="#m6c143a4824" y="307.584"/>
      </g>
     </g>
     <g id="text_1">
      <text style="font-family:DejaVu Sans;font-size:10px;font-style:normal;font-weight:normal;text-anchor:middle;" transform="rotate(-0, 73.800255, 322.182437)" x="73.800255" y="322.182437">0.0</text>
     </g>
    </g>
    <g id="xtick_2">
     <g id="line2d_2">
      <g>
       <use style="stroke:#000000;stroke-width:0.8;" x="138.744153" xlink:href="#m6c143a4824" y="307.584"/>
      </g>
     </g>
     <g id="text_2">
      <text style="font-family:DejaVu Sans;font-size:10px;font-style:normal;font-weight:normal;text-anchor:middle;" transform="rotate(-0, 138.744153, 322.182437)" x="138.744153" y="322.182437">0.2</text>
     </g>
    </g>
    <g id="xtick_3">
     <g id="line2d_3">
      <g>
       <use style="stroke:#000000;stroke-width:0.8;" x="203.688051" xlink:href="#m6c143a4824" y="307.584"/>
      </g>
     </g>
     <g id="text_3">
      <text style="font-family:DejaVu Sans;font-size:10px;font-style:normal;font-weight:normal;text-anchor:middle;" transform="rotate(-0, 203.688051, 322.182437)" x="203.688051" y="322.182437">0.4</text>
     </g>
    </g>
    <g id="xtick_4">
     <g id="line2d_4">
      <g>
       <use style="stroke:#000000;stroke-width:0.8;" x="268.631949" xlink:href="#m6c143a4824" y="307.584"/>
      </g>
     </g>
     <g id="text_4">
      <text style="font-family:DejaVu Sans;font-size:10px;font-style:normal;font-weight:normal;text-anchor:middle;" transform="rotate(-0, 268.631949, 322.182437)" x="268.631949" y="322.182437">0.6</text>
     </g>
    </g>
    <g id="xtick_5">
     <g id="line2d_5">
      <g>
       <use style="stroke:#000000;stroke-width:0.8;" x="333.575847" xlink:href="#m6c143a4824" y="307.584"/>
      </g>
     </g>
     <g id="text_5">
      <text style="font-family:DejaVu Sans;font-size:10px;font-style:normal;font-weight:normal;text-anchor:middle;" transform="rotate(-0, 333.575847, 322.182437)" x="333.575847" y="322.182437">0.8</text>
     </g>
    </g>
    <g id="xtick_6">
     <g id="line2d_6">
      <g>
       <use style="stroke:#000000;stroke-width:0.8;" x="398.519745" xlink:href="#m6c143a4824" y="307.584"/>
      </g>
     </g>
     <g id="text_6">
      <text style="font-family:DejaVu Sans;font-size:10px;font-style:normal;font-weight:normal;text-anchor:middle;" transform="rotate(-0, 398.519745, 322.182437)" x="398.519745" y="322.182437">1.0</text>
     </g>
    </g>
    <g id="text_7">
     <text style="font-family:DejaVu Sans;font-size:10px;font-style:normal;font-weight:normal;text-anchor:middle;" transform="rotate(-0, 236.16, 335.860562)" x="236.16" y="335.860562">Input Coin's Heads Probability (λ)</text>
    </g>
   </g>
   <g id="matplotlib.axis_2">
    <g id="ytick_1">
     <g id="line2d_7">
      <defs>
       <path d="M 0 0 
L -3.5 0 
" id="m7eadc25d6a" style="stroke:#000000;stroke-width:0.8;"/>
      </defs>
      <g>
       <use style="stroke:#000000;stroke-width:0.8;" x="57.6" xlink:href="#m7eadc25d6a" y="295.488001"/>
      </g>
     </g>
     <g id="text_8">
      <text style="font-family:DejaVu Sans;font-size:10px;font-style:normal;font-weight:normal;text-anchor:end;" transform="rotate(-0, 50.6, 299.28722)" x="50.6" y="299.28722">0.0</text>
     </g>
    </g>
    <g id="ytick_2">
     <g id="line2d_8">
      <g>
       <use style="stroke:#000000;stroke-width:0.8;" x="57.6" xlink:href="#m7eadc25d6a" y="264.834174"/>
      </g>
     </g>
     <g id="text_9">
      <text style="font-family:DejaVu Sans;font-size:10px;font-style:normal;font-weight:normal;text-anchor:end;" transform="rotate(-0, 50.6, 268.633393)" x="50.6" y="268.633393">0.5</text>
     </g>
    </g>
    <g id="ytick_3">
     <g id="line2d_9">
      <g>
       <use style="stroke:#000000;stroke-width:0.8;" x="57.6" xlink:href="#m7eadc25d6a" y="234.180348"/>
      </g>
     </g>
     <g id="text_10">
      <text style="font-family:DejaVu Sans;font-size:10px;font-style:normal;font-weight:normal;text-anchor:end;" transform="rotate(-0, 50.6, 237.979566)" x="50.6" y="237.979566">1.0</text>
     </g>
    </g>
    <g id="ytick_4">
     <g id="line2d_10">
      <g>
       <use style="stroke:#000000;stroke-width:0.8;" x="57.6" xlink:href="#m7eadc25d6a" y="203.526521"/>
      </g>
     </g>
     <g id="text_11">
      <text style="font-family:DejaVu Sans;font-size:10px;font-style:normal;font-weight:normal;text-anchor:end;" transform="rotate(-0, 50.6, 207.325739)" x="50.6" y="207.325739">1.5</text>
     </g>
    </g>
    <g id="ytick_5">
     <g id="line2d_11">
      <g>
       <use style="stroke:#000000;stroke-width:0.8;" x="57.6" xlink:href="#m7eadc25d6a" y="172.872694"/>
      </g>
     </g>
     <g id="text_12">
      <text style="font-family:DejaVu Sans;font-size:10px;font-style:normal;font-weight:normal;text-anchor:end;" transform="rotate(-0, 50.6, 176.671913)" x="50.6" y="176.671913">2.0</text>
     </g>
    </g>
    <g id="ytick_6">
     <g id="line2d_12">
      <g>
       <use style="stroke:#000000;stroke-width:0.8;" x="57.6" xlink:href="#m7eadc25d6a" y="142.218867"/>
      </g>
     </g>
     <g id="text_13">
      <text style="font-family:DejaVu Sans;font-size:10px;font-style:normal;font-weight:normal;text-anchor:end;" transform="rotate(-0, 50.6, 146.018086)" x="50.6" y="146.018086">2.5</text>
     </g>
    </g>
    <g id="ytick_7">
     <g id="line2d_13">
      <g>
       <use style="stroke:#000000;stroke-width:0.8;" x="57.6" xlink:href="#m7eadc25d6a" y="111.56504"/>
      </g>
     </g>
     <g id="text_14">
      <text style="font-family:DejaVu Sans;font-size:10px;font-style:normal;font-weight:normal;text-anchor:end;" transform="rotate(-0, 50.6, 115.364259)" x="50.6" y="115.364259">3.0</text>
     </g>
    </g>
    <g id="ytick_8">
     <g id="line2d_14">
      <g>
       <use style="stroke:#000000;stroke-width:0.8;" x="57.6" xlink:href="#m7eadc25d6a" y="80.911214"/>
      </g>
     </g>
     <g id="text_15">
      <text style="font-family:DejaVu Sans;font-size:10px;font-style:normal;font-weight:normal;text-anchor:end;" transform="rotate(-0, 50.6, 84.710432)" x="50.6" y="84.710432">3.5</text>
     </g>
    </g>
    <g id="ytick_9">
     <g id="line2d_15">
      <g>
       <use style="stroke:#000000;stroke-width:0.8;" x="57.6" xlink:href="#m7eadc25d6a" y="50.257387"/>
      </g>
     </g>
     <g id="text_16">
      <text style="font-family:DejaVu Sans;font-size:10px;font-style:normal;font-weight:normal;text-anchor:end;" transform="rotate(-0, 50.6, 54.056605)" x="50.6" y="54.056605">4.0</text>
     </g>
    </g>
    <g id="text_17">
     <text style="font-family:DejaVu Sans;font-size:10px;font-style:normal;font-weight:normal;text-anchor:middle;" transform="rotate(-90, 28.617187, 174.528)" x="28.617187" y="174.528">Coin Flips Needed</text>
    </g>
   </g>
   <g id="line2d_16">
    <path clip-path="url(#p14658974a3)" d="M 73.832727 234.189543 
L 77.112066 235.114584 
L 80.391405 236.032579 
L 83.670744 236.943762 
L 86.950083 237.848359 
L 90.229421 238.746583 
L 93.50876 239.638638 
L 96.788099 240.524718 
L 100.067438 241.405007 
L 103.346777 242.27968 
L 106.626116 243.148902 
L 109.905455 244.01283 
L 113.184793 244.871613 
L 116.464132 245.72539 
L 119.743471 246.574292 
L 123.02281 247.418441 
L 126.302149 248.257954 
L 129.581488 249.092936 
L 132.860826 249.923487 
L 136.140165 250.749697 
L 139.419504 251.571651 
L 142.698843 252.389425 
L 145.978182 253.203086 
L 149.257521 254.012695 
L 152.53686 254.818305 
L 155.816198 255.619962 
L 159.095537 256.417705 
L 162.374876 257.211563 
L 165.654215 258.00156 
L 168.933554 258.787711 
L 172.212893 259.570023 
L 175.492231 260.348499 
L 178.77157 261.123128 
L 182.050909 261.893897 
L 185.330248 262.660783 
L 188.609587 263.423753 
L 191.888926 264.18277 
L 195.168264 264.937785 
L 198.447603 265.688744 
L 201.726942 266.435582 
L 205.006281 267.178228 
L 208.28562 267.916601 
L 211.564959 268.650611 
L 214.844298 269.380161 
L 218.123636 270.105143 
L 221.402975 270.825441 
L 224.682314 271.540929 
L 227.961653 272.251474 
L 231.240992 272.95693 
L 234.520331 273.657143 
L 237.799669 274.351951 
L 241.079008 275.041179 
L 244.358347 275.724643 
L 247.637686 276.40215 
L 250.917025 277.073495 
L 254.196364 277.738463 
L 257.475702 278.396828 
L 260.755041 279.048355 
L 264.03438 279.692795 
L 267.313719 280.329891 
L 270.593058 280.959372 
L 273.872397 281.580959 
L 277.151736 282.194358 
L 280.431074 282.799266 
L 283.710413 283.395369 
L 286.989752 283.982339 
L 290.269091 284.559839 
L 293.54843 285.12752 
L 296.827769 285.685019 
L 300.107107 286.231964 
L 303.386446 286.767972 
L 306.665785 287.292646 
L 309.945124 287.805581 
L 313.224463 288.30636 
L 316.503802 288.794553 
L 319.78314 289.269721 
L 323.062479 289.731417 
L 326.341818 290.17918 
L 329.621157 290.612541 
L 332.900496 291.031024 
L 336.179835 291.434141 
L 339.459174 291.821397 
L 342.738512 292.192291 
L 346.017851 292.546312 
L 349.29719 292.882946 
L 352.576529 293.201671 
L 355.855868 293.501963 
L 359.135207 293.783291 
L 362.414545 294.045125 
L 365.693884 294.286931 
L 368.973223 294.508176 
L 372.252562 294.708328 
L 375.531901 294.886857 
L 378.81124 295.043238 
L 382.090579 295.176951 
L 385.369917 295.287484 
L 388.649256 295.374336 
L 391.928595 295.437018 
L 395.207934 295.475056 
L 398.487273 295.488 
" style="fill:none;stroke:#1f77b4;stroke-linecap:square;stroke-width:1.5;"/>
   </g>
   <g id="line2d_17">
    <path clip-path="url(#p14658974a3)" d="M 73.832727 82.750443 
L 77.112066 79.194599 
L 80.391405 79.43983 
L 83.670744 83.731366 
L 86.950083 82.014751 
L 90.229421 79.930291 
L 93.50876 86.796748 
L 96.788099 81.033829 
L 100.067438 84.099211 
L 103.346777 85.69321 
L 106.626116 86.551518 
L 109.905455 81.52429 
L 113.184793 82.382597 
L 116.464132 87.655055 
L 119.743471 89.37167 
L 123.02281 84.834903 
L 126.302149 86.919364 
L 129.581488 89.249054 
L 132.860826 88.513363 
L 136.140165 89.249054 
L 139.419504 86.061056 
L 142.698843 91.210899 
L 145.978182 92.559668 
L 149.257521 90.965669 
L 152.53686 93.050129 
L 155.816198 90.965669 
L 159.095537 95.134589 
L 162.374876 93.050129 
L 165.654215 91.701361 
L 168.933554 93.050129 
L 172.212893 98.690433 
L 175.492231 94.276282 
L 178.77157 95.011974 
L 182.050909 90.597823 
L 185.330248 91.088284 
L 188.609587 98.077357 
L 191.888926 96.483358 
L 195.168264 96.605973 
L 198.447603 95.502435 
L 201.726942 96.851203 
L 205.006281 94.398897 
L 208.28562 100.652278 
L 211.564959 93.785821 
L 214.844298 97.096434 
L 218.123636 97.096434 
L 221.402975 99.30351 
L 224.682314 98.199972 
L 227.961653 96.115512 
L 231.240992 97.219049 
L 234.520331 99.54874 
L 237.799669 97.586895 
L 241.079008 97.46428 
L 244.358347 99.30351 
L 247.637686 98.567818 
L 250.917025 99.058279 
L 254.196364 94.766743 
L 257.475702 99.54874 
L 260.755041 99.793971 
L 264.03438 97.219049 
L 267.313719 100.284432 
L 270.593058 94.153667 
L 273.872397 99.671356 
L 277.151736 93.29536 
L 280.431074 99.426125 
L 283.710413 99.793971 
L 286.989752 102.981969 
L 290.269091 98.690433 
L 293.54843 97.096434 
L 296.827769 100.774893 
L 300.107107 103.227199 
L 303.386446 99.793971 
L 306.665785 93.417975 
L 309.945124 94.766743 
L 313.224463 102.859353 
L 316.503802 95.134589 
L 319.78314 97.219049 
L 323.062479 99.180894 
L 326.341818 101.38797 
L 329.621157 91.45613 
L 332.900496 102.491508 
L 336.179835 101.6332 
L 339.459174 95.747666 
L 342.738512 92.314437 
L 346.017851 98.322587 
L 349.29719 97.096434 
L 352.576529 87.53244 
L 355.855868 94.276282 
L 359.135207 91.701361 
L 362.414545 95.870281 
L 365.693884 89.37167 
L 368.973223 92.437052 
L 372.252562 84.589673 
L 375.531901 86.674133 
L 378.81124 86.183672 
L 382.090579 72.695988 
L 385.369917 87.041979 
L 388.649256 74.412602 
L 391.928595 89.494285 
L 395.207934 64.112916 
L 398.487273 53.568 
" style="fill:none;stroke:#ff7f0e;stroke-linecap:square;stroke-width:1.5;"/>
   </g>
   <g id="patch_3">
    <path d="M 57.6 307.584 
L 57.6 41.472 
" style="fill:none;stroke:#000000;stroke-linecap:square;stroke-linejoin:miter;stroke-width:0.8;"/>
   </g>
   <g id="patch_4">
    <path d="M 414.72 307.584 
L 414.72 41.472 
" style="fill:none;stroke:#000000;stroke-linecap:square;stroke-linejoin:miter;stroke-width:0.8;"/>
   </g>
   <g id="patch_5">
    <path d="M 57.6 307.584 
L 414.72 307.584 
" style="fill:none;stroke:#000000;stroke-linecap:square;stroke-linejoin:miter;stroke-width:0.8;"/>
   </g>
   <g id="patch_6">
    <path d="M 57.6 41.472 
L 414.72 41.472 
" style="fill:none;stroke:#000000;stroke-linecap:square;stroke-linejoin:miter;stroke-width:0.8;"/>
   </g>
   <g id="text_18">
    <text style="font-family:DejaVu Sans;font-size:12px;font-style:normal;font-weight:normal;text-anchor:middle;" transform="rotate(-0, 236.16, 35.472)" x="236.16" y="35.472">Coin Flips for arcsin(x)+sqrt(1-x*x)-1</text>
   </g>
   <g id="legend_1">
    <g id="patch_7">
     <path d="M 64.6 78.82825 
L 307.875 78.82825 
Q 309.875 78.82825 309.875 76.82825 
L 309.875 48.472 
Q 309.875 46.472 307.875 46.472 
L 64.6 46.472 
Q 62.6 46.472 62.6 48.472 
L 62.6 76.82825 
Q 62.6 78.82825 64.6 78.82825 
z
" style="fill:#ffffff;opacity:0.8;stroke:#cccccc;stroke-linejoin:miter;"/>
    </g>
    <g id="line2d_18">
     <path d="M 66.6 54.570437 
L 86.6 54.570437 
" style="fill:none;stroke:#1f77b4;stroke-linecap:square;stroke-width:1.5;"/>
    </g>
    <g id="line2d_19"/>
    <g id="text_19">
     <text style="font-family:DejaVu Sans;font-size:10px;font-style:normal;font-weight:normal;text-anchor:start;" transform="rotate(-0, 94.6, 58.070437)" x="94.6" y="58.070437">Coin Flip Lower Bound (Mendo)</text>
    </g>
    <g id="line2d_20">
     <path d="M 66.6 69.248562 
L 86.6 69.248562 
" style="fill:none;stroke:#ff7f0e;stroke-linecap:square;stroke-width:1.5;"/>
    </g>
    <g id="line2d_21"/>
    <g id="text_20">
     <text style="font-family:DejaVu Sans;font-size:10px;font-style:normal;font-weight:normal;text-anchor:start;" transform="rotate(-0, 94.6, 72.748562)" x="94.6" y="72.748562">Avg. Coins Flipped arcsin(x)+sqrt(1-x*x)-1</text>
    </g>
   </g>
  </g>
 </g>
 <defs>
  <clipPath id="p14658974a3">
   <rect height="266.112" width="357.12" x="57.6" y="41.472"/>
  </clipPath>
 </defs>
</svg>
