<?xml version="1.0" encoding="utf-8" standalone="no"?>
<!DOCTYPE svg PUBLIC "-//W3C//DTD SVG 1.1//EN"
  "http://www.w3.org/Graphics/SVG/1.1/DTD/svg11.dtd">
<!-- Created with matplotlib (https://matplotlib.org/) -->
<svg height="345.6pt" version="1.1" viewBox="0 0 460.8 345.6" width="460.8pt" xmlns="http://www.w3.org/2000/svg" xmlns:xlink="http://www.w3.org/1999/xlink">
 <defs>
  <style type="text/css">
*{stroke-linecap:butt;stroke-linejoin:round;}
  </style>
 </defs>
 <g id="figure_1">
  <g id="patch_1">
   <path d="M 0 345.6 
L 460.8 345.6 
L 460.8 0 
L 0 0 
z
" style="fill:#ffffff;"/>
  </g>
  <g id="axes_1">
   <g id="patch_2">
    <path d="M 57.6 307.584 
L 414.72 307.584 
L 414.72 41.472 
L 57.6 41.472 
z
" style="fill:#ffffff;"/>
   </g>
   <g id="matplotlib.axis_1">
    <g id="xtick_1">
     <g id="line2d_1">
      <defs>
       <path d="M 0 0 
L 0 3.5 
" id="m7ad882c0c5" style="stroke:#000000;stroke-width:0.8;"/>
      </defs>
      <g>
       <use style="stroke:#000000;stroke-width:0.8;" x="73.800255" xlink:href="#m7ad882c0c5" y="307.584"/>
      </g>
     </g>
     <g id="text_1">
      <text style="font-family:DejaVu Sans;font-size:10px;font-style:normal;font-weight:normal;text-anchor:middle;" transform="rotate(-0, 73.800255, 322.182437)" x="73.800255" y="322.182437">0.0</text>
     </g>
    </g>
    <g id="xtick_2">
     <g id="line2d_2">
      <g>
       <use style="stroke:#000000;stroke-width:0.8;" x="138.744153" xlink:href="#m7ad882c0c5" y="307.584"/>
      </g>
     </g>
     <g id="text_2">
      <text style="font-family:DejaVu Sans;font-size:10px;font-style:normal;font-weight:normal;text-anchor:middle;" transform="rotate(-0, 138.744153, 322.182437)" x="138.744153" y="322.182437">0.2</text>
     </g>
    </g>
    <g id="xtick_3">
     <g id="line2d_3">
      <g>
       <use style="stroke:#000000;stroke-width:0.8;" x="203.688051" xlink:href="#m7ad882c0c5" y="307.584"/>
      </g>
     </g>
     <g id="text_3">
      <text style="font-family:DejaVu Sans;font-size:10px;font-style:normal;font-weight:normal;text-anchor:middle;" transform="rotate(-0, 203.688051, 322.182437)" x="203.688051" y="322.182437">0.4</text>
     </g>
    </g>
    <g id="xtick_4">
     <g id="line2d_4">
      <g>
       <use style="stroke:#000000;stroke-width:0.8;" x="268.631949" xlink:href="#m7ad882c0c5" y="307.584"/>
      </g>
     </g>
     <g id="text_4">
      <text style="font-family:DejaVu Sans;font-size:10px;font-style:normal;font-weight:normal;text-anchor:middle;" transform="rotate(-0, 268.631949, 322.182437)" x="268.631949" y="322.182437">0.6</text>
     </g>
    </g>
    <g id="xtick_5">
     <g id="line2d_5">
      <g>
       <use style="stroke:#000000;stroke-width:0.8;" x="333.575847" xlink:href="#m7ad882c0c5" y="307.584"/>
      </g>
     </g>
     <g id="text_5">
      <text style="font-family:DejaVu Sans;font-size:10px;font-style:normal;font-weight:normal;text-anchor:middle;" transform="rotate(-0, 333.575847, 322.182437)" x="333.575847" y="322.182437">0.8</text>
     </g>
    </g>
    <g id="xtick_6">
     <g id="line2d_6">
      <g>
       <use style="stroke:#000000;stroke-width:0.8;" x="398.519745" xlink:href="#m7ad882c0c5" y="307.584"/>
      </g>
     </g>
     <g id="text_6">
      <text style="font-family:DejaVu Sans;font-size:10px;font-style:normal;font-weight:normal;text-anchor:middle;" transform="rotate(-0, 398.519745, 322.182437)" x="398.519745" y="322.182437">1.0</text>
     </g>
    </g>
    <g id="text_7">
     <text style="font-family:DejaVu Sans;font-size:10px;font-style:normal;font-weight:normal;text-anchor:middle;" transform="rotate(-0, 236.16, 335.860562)" x="236.16" y="335.860562">Input Coin's Heads Probability (λ)</text>
    </g>
   </g>
   <g id="matplotlib.axis_2">
    <g id="ytick_1">
     <g id="line2d_7">
      <defs>
       <path d="M 0 0 
L -3.5 0 
" id="mbff1cf1e24" style="stroke:#000000;stroke-width:0.8;"/>
      </defs>
      <g>
       <use style="stroke:#000000;stroke-width:0.8;" x="57.6" xlink:href="#mbff1cf1e24" y="295.488001"/>
      </g>
     </g>
     <g id="text_8">
      <text style="font-family:DejaVu Sans;font-size:10px;font-style:normal;font-weight:normal;text-anchor:end;" transform="rotate(-0, 50.6, 299.28722)" x="50.6" y="299.28722">0.0</text>
     </g>
    </g>
    <g id="ytick_2">
     <g id="line2d_8">
      <g>
       <use style="stroke:#000000;stroke-width:0.8;" x="57.6" xlink:href="#mbff1cf1e24" y="264.599339"/>
      </g>
     </g>
     <g id="text_9">
      <text style="font-family:DejaVu Sans;font-size:10px;font-style:normal;font-weight:normal;text-anchor:end;" transform="rotate(-0, 50.6, 268.398558)" x="50.6" y="268.398558">0.5</text>
     </g>
    </g>
    <g id="ytick_3">
     <g id="line2d_9">
      <g>
       <use style="stroke:#000000;stroke-width:0.8;" x="57.6" xlink:href="#mbff1cf1e24" y="233.710677"/>
      </g>
     </g>
     <g id="text_10">
      <text style="font-family:DejaVu Sans;font-size:10px;font-style:normal;font-weight:normal;text-anchor:end;" transform="rotate(-0, 50.6, 237.509896)" x="50.6" y="237.509896">1.0</text>
     </g>
    </g>
    <g id="ytick_4">
     <g id="line2d_10">
      <g>
       <use style="stroke:#000000;stroke-width:0.8;" x="57.6" xlink:href="#mbff1cf1e24" y="202.822015"/>
      </g>
     </g>
     <g id="text_11">
      <text style="font-family:DejaVu Sans;font-size:10px;font-style:normal;font-weight:normal;text-anchor:end;" transform="rotate(-0, 50.6, 206.621234)" x="50.6" y="206.621234">1.5</text>
     </g>
    </g>
    <g id="ytick_5">
     <g id="line2d_11">
      <g>
       <use style="stroke:#000000;stroke-width:0.8;" x="57.6" xlink:href="#mbff1cf1e24" y="171.933353"/>
      </g>
     </g>
     <g id="text_12">
      <text style="font-family:DejaVu Sans;font-size:10px;font-style:normal;font-weight:normal;text-anchor:end;" transform="rotate(-0, 50.6, 175.732572)" x="50.6" y="175.732572">2.0</text>
     </g>
    </g>
    <g id="ytick_6">
     <g id="line2d_12">
      <g>
       <use style="stroke:#000000;stroke-width:0.8;" x="57.6" xlink:href="#mbff1cf1e24" y="141.044691"/>
      </g>
     </g>
     <g id="text_13">
      <text style="font-family:DejaVu Sans;font-size:10px;font-style:normal;font-weight:normal;text-anchor:end;" transform="rotate(-0, 50.6, 144.84391)" x="50.6" y="144.84391">2.5</text>
     </g>
    </g>
    <g id="ytick_7">
     <g id="line2d_13">
      <g>
       <use style="stroke:#000000;stroke-width:0.8;" x="57.6" xlink:href="#mbff1cf1e24" y="110.156029"/>
      </g>
     </g>
     <g id="text_14">
      <text style="font-family:DejaVu Sans;font-size:10px;font-style:normal;font-weight:normal;text-anchor:end;" transform="rotate(-0, 50.6, 113.955248)" x="50.6" y="113.955248">3.0</text>
     </g>
    </g>
    <g id="ytick_8">
     <g id="line2d_14">
      <g>
       <use style="stroke:#000000;stroke-width:0.8;" x="57.6" xlink:href="#mbff1cf1e24" y="79.267367"/>
      </g>
     </g>
     <g id="text_15">
      <text style="font-family:DejaVu Sans;font-size:10px;font-style:normal;font-weight:normal;text-anchor:end;" transform="rotate(-0, 50.6, 83.066586)" x="50.6" y="83.066586">3.5</text>
     </g>
    </g>
    <g id="ytick_9">
     <g id="line2d_15">
      <g>
       <use style="stroke:#000000;stroke-width:0.8;" x="57.6" xlink:href="#mbff1cf1e24" y="48.378705"/>
      </g>
     </g>
     <g id="text_16">
      <text style="font-family:DejaVu Sans;font-size:10px;font-style:normal;font-weight:normal;text-anchor:end;" transform="rotate(-0, 50.6, 52.177924)" x="50.6" y="52.177924">4.0</text>
     </g>
    </g>
    <g id="text_17">
     <text style="font-family:DejaVu Sans;font-size:10px;font-style:normal;font-weight:normal;text-anchor:middle;" transform="rotate(-90, 28.617187, 174.528)" x="28.617187" y="174.528">Coin Flips Needed</text>
    </g>
   </g>
   <g id="line2d_16">
    <path clip-path="url(#p2c40f5b9b9)" d="M 73.832727 233.719943 
L 77.112066 234.652071 
L 80.391405 235.577098 
L 83.670744 236.495262 
L 86.950083 237.406789 
L 90.229421 238.311894 
L 93.50876 239.210783 
L 96.788099 240.103651 
L 100.067438 240.990684 
L 103.346777 241.872057 
L 106.626116 242.747938 
L 109.905455 243.618485 
L 113.184793 244.483847 
L 116.464132 245.344165 
L 119.743471 246.19957 
L 123.02281 247.050186 
L 126.302149 247.89613 
L 129.581488 248.737509 
L 132.860826 249.574423 
L 136.140165 250.406963 
L 139.419504 251.235214 
L 142.698843 252.059252 
L 145.978182 252.879146 
L 149.257521 253.694957 
L 152.53686 254.506739 
L 155.816198 255.314538 
L 159.095537 256.118392 
L 162.374876 256.918332 
L 165.654215 257.714381 
L 168.933554 258.506554 
L 172.212893 259.29486 
L 175.492231 260.079299 
L 178.77157 260.859863 
L 182.050909 261.636537 
L 185.330248 262.409297 
L 188.609587 263.178113 
L 191.888926 263.942944 
L 195.168264 264.703743 
L 198.447603 265.460455 
L 201.726942 266.213015 
L 205.006281 266.96135 
L 208.28562 267.70538 
L 211.564959 268.445013 
L 214.844298 269.180152 
L 218.123636 269.910688 
L 221.402975 270.636504 
L 224.682314 271.357474 
L 227.961653 272.073462 
L 231.240992 272.784322 
L 234.520331 273.4899 
L 237.799669 274.19003 
L 241.079008 274.884538 
L 244.358347 275.573239 
L 247.637686 276.255936 
L 250.917025 276.932424 
L 254.196364 277.602486 
L 257.475702 278.265895 
L 260.755041 278.922413 
L 264.03438 279.57179 
L 267.313719 280.213766 
L 270.593058 280.84807 
L 273.872397 281.474418 
L 277.151736 282.092517 
L 280.431074 282.702059 
L 283.710413 283.302729 
L 286.989752 283.894196 
L 290.269091 284.47612 
L 293.54843 285.048149 
L 296.827769 285.609919 
L 300.107107 286.161055 
L 303.386446 286.701169 
L 306.665785 287.229863 
L 309.945124 287.746727 
L 313.224463 288.251342 
L 316.503802 288.743275 
L 319.78314 289.222084 
L 323.062479 289.687316 
L 326.341818 290.138509 
L 329.621157 290.575191 
L 332.900496 290.996879 
L 336.179835 291.403085 
L 339.459174 291.793308 
L 342.738512 292.167043 
L 346.017851 292.523776 
L 349.29719 292.862989 
L 352.576529 293.184156 
L 355.855868 293.486748 
L 359.135207 293.770231 
L 362.414545 294.034071 
L 365.693884 294.27773 
L 368.973223 294.50067 
L 372.252562 294.702355 
L 375.531901 294.882252 
L 378.81124 295.039831 
L 382.090579 295.174568 
L 385.369917 295.285948 
L 388.649256 295.373465 
L 391.928595 295.436627 
L 395.207934 295.474957 
L 398.487273 295.488 
" style="fill:none;stroke:#1f77b4;stroke-linecap:square;stroke-width:1.5;"/>
   </g>
   <g id="line2d_17">
    <path clip-path="url(#p2c40f5b9b9)" d="M 73.832727 80.255804 
L 77.112066 83.221116 
L 80.391405 81.120687 
L 83.670744 81.985569 
L 86.950083 82.479788 
L 90.229421 82.356233 
L 93.50876 80.626468 
L 96.788099 84.456662 
L 100.067438 77.661156 
L 103.346777 83.468225 
L 106.626116 85.568654 
L 109.905455 86.433536 
L 113.184793 82.109124 
L 116.464132 81.367796 
L 119.743471 86.8042 
L 123.02281 86.186427 
L 126.302149 84.703771 
L 129.581488 88.410411 
L 132.860826 86.8042 
L 136.140165 93.476151 
L 139.419504 85.445099 
L 142.698843 88.904629 
L 145.978182 91.499277 
L 149.257521 86.8042 
L 152.53686 89.398848 
L 155.816198 90.387285 
L 159.095537 92.981933 
L 162.374876 89.893067 
L 165.654215 91.499277 
L 168.933554 90.881504 
L 172.212893 94.093925 
L 175.492231 92.36416 
L 178.77157 93.352597 
L 182.050909 95.205916 
L 185.330248 91.993496 
L 188.609587 90.140176 
L 191.888926 91.375722 
L 195.168264 93.229042 
L 198.447603 93.723261 
L 201.726942 93.599706 
L 205.006281 96.070799 
L 208.28562 95.205916 
L 211.564959 92.734823 
L 214.844298 95.082362 
L 218.123636 93.105487 
L 221.402975 98.541892 
L 224.682314 91.993496 
L 227.961653 94.217479 
L 231.240992 97.553455 
L 234.520331 96.935682 
L 237.799669 96.194354 
L 241.079008 95.329471 
L 244.358347 96.317908 
L 247.637686 101.260094 
L 250.917025 96.565018 
L 254.196364 95.329471 
L 257.475702 97.306345 
L 260.755041 95.453026 
L 264.03438 97.800564 
L 267.313719 96.194354 
L 270.593058 98.171228 
L 273.872397 96.441463 
L 277.151736 95.700135 
L 280.431074 95.82369 
L 283.710413 98.418337 
L 286.989752 101.877867 
L 290.269091 96.194354 
L 293.54843 96.070799 
L 296.827769 95.82369 
L 300.107107 94.835252 
L 303.386446 96.935682 
L 306.665785 96.194354 
L 309.945124 96.317908 
L 313.224463 94.958807 
L 316.503802 95.453026 
L 319.78314 94.588143 
L 323.062479 98.418337 
L 326.341818 94.711698 
L 329.621157 95.57658 
L 332.900496 94.217479 
L 336.179835 88.533965 
L 339.459174 96.688572 
L 342.738512 81.862014 
L 346.017851 95.82369 
L 349.29719 98.418337 
L 352.576529 81.862014 
L 355.855868 91.252168 
L 359.135207 86.309982 
L 362.414545 84.950881 
L 365.693884 91.622832 
L 368.973223 95.205916 
L 372.252562 90.140176 
L 375.531901 81.244241 
L 378.81124 82.109124 
L 382.090579 79.638031 
L 385.369917 84.580217 
L 388.649256 63.699481 
L 391.928595 79.638031 
L 395.207934 53.568 
L 398.487273 69.877214 
" style="fill:none;stroke:#ff7f0e;stroke-linecap:square;stroke-width:1.5;"/>
   </g>
   <g id="patch_3">
    <path d="M 57.6 307.584 
L 57.6 41.472 
" style="fill:none;stroke:#000000;stroke-linecap:square;stroke-linejoin:miter;stroke-width:0.8;"/>
   </g>
   <g id="patch_4">
    <path d="M 414.72 307.584 
L 414.72 41.472 
" style="fill:none;stroke:#000000;stroke-linecap:square;stroke-linejoin:miter;stroke-width:0.8;"/>
   </g>
   <g id="patch_5">
    <path d="M 57.6 307.584 
L 414.72 307.584 
" style="fill:none;stroke:#000000;stroke-linecap:square;stroke-linejoin:miter;stroke-width:0.8;"/>
   </g>
   <g id="patch_6">
    <path d="M 57.6 41.472 
L 414.72 41.472 
" style="fill:none;stroke:#000000;stroke-linecap:square;stroke-linejoin:miter;stroke-width:0.8;"/>
   </g>
   <g id="text_18">
    <text style="font-family:DejaVu Sans;font-size:12px;font-style:normal;font-weight:normal;text-anchor:middle;" transform="rotate(-0, 236.16, 35.472)" x="236.16" y="35.472">Coin Flips for arcsin(x)+sqrt(1-x*x)-1</text>
   </g>
   <g id="legend_1">
    <g id="patch_7">
     <path d="M 164.445 190.706125 
L 407.72 190.706125 
Q 409.72 190.706125 409.72 188.706125 
L 409.72 160.349875 
Q 409.72 158.349875 407.72 158.349875 
L 164.445 158.349875 
Q 162.445 158.349875 162.445 160.349875 
L 162.445 188.706125 
Q 162.445 190.706125 164.445 190.706125 
z
" style="fill:#ffffff;opacity:0.8;stroke:#cccccc;stroke-linejoin:miter;"/>
    </g>
    <g id="line2d_18">
     <path d="M 166.445 166.448312 
L 186.445 166.448312 
" style="fill:none;stroke:#1f77b4;stroke-linecap:square;stroke-width:1.5;"/>
    </g>
    <g id="line2d_19"/>
    <g id="text_19">
     <text style="font-family:DejaVu Sans;font-size:10px;font-style:normal;font-weight:normal;text-anchor:start;" transform="rotate(-0, 194.445, 169.948312)" x="194.445" y="169.948312">Coin Flip Lower Bound (Mendo)</text>
    </g>
    <g id="line2d_20">
     <path d="M 166.445 181.126437 
L 186.445 181.126437 
" style="fill:none;stroke:#ff7f0e;stroke-linecap:square;stroke-width:1.5;"/>
    </g>
    <g id="line2d_21"/>
    <g id="text_20">
     <text style="font-family:DejaVu Sans;font-size:10px;font-style:normal;font-weight:normal;text-anchor:start;" transform="rotate(-0, 194.445, 184.626437)" x="194.445" y="184.626437">Avg. Coins Flipped arcsin(x)+sqrt(1-x*x)-1</text>
    </g>
   </g>
  </g>
 </g>
 <defs>
  <clipPath id="p2c40f5b9b9">
   <rect height="266.112" width="357.12" x="57.6" y="41.472"/>
  </clipPath>
 </defs>
</svg>
