<?xml version="1.0" encoding="utf-8" standalone="no"?>
<!DOCTYPE svg PUBLIC "-//W3C//DTD SVG 1.1//EN"
  "http://www.w3.org/Graphics/SVG/1.1/DTD/svg11.dtd">
<!-- Created with matplotlib (https://matplotlib.org/) -->
<svg height="345.6pt" version="1.1" viewBox="0 0 460.8 345.6" width="460.8pt" xmlns="http://www.w3.org/2000/svg" xmlns:xlink="http://www.w3.org/1999/xlink">
 <defs>
  <style type="text/css">
*{stroke-linecap:butt;stroke-linejoin:round;}
  </style>
 </defs>
 <g id="figure_1">
  <g id="patch_1">
   <path d="M 0 345.6 
L 460.8 345.6 
L 460.8 0 
L 0 0 
z
" style="fill:#ffffff;"/>
  </g>
  <g id="axes_1">
   <g id="patch_2">
    <path d="M 57.6 307.584 
L 414.72 307.584 
L 414.72 41.472 
L 57.6 41.472 
z
" style="fill:#ffffff;"/>
   </g>
   <g id="matplotlib.axis_1">
    <g id="xtick_1">
     <g id="line2d_1">
      <defs>
       <path d="M 0 0 
L 0 3.5 
" id="m12c100b2a2" style="stroke:#000000;stroke-width:0.8;"/>
      </defs>
      <g>
       <use style="stroke:#000000;stroke-width:0.8;" x="73.800255" xlink:href="#m12c100b2a2" y="307.584"/>
      </g>
     </g>
     <g id="text_1">
      <text style="font-family:DejaVu Sans;font-size:10px;font-style:normal;font-weight:normal;text-anchor:middle;" transform="rotate(-0, 73.800255, 322.182437)" x="73.800255" y="322.182437">0.0</text>
     </g>
    </g>
    <g id="xtick_2">
     <g id="line2d_2">
      <g>
       <use style="stroke:#000000;stroke-width:0.8;" x="138.744153" xlink:href="#m12c100b2a2" y="307.584"/>
      </g>
     </g>
     <g id="text_2">
      <text style="font-family:DejaVu Sans;font-size:10px;font-style:normal;font-weight:normal;text-anchor:middle;" transform="rotate(-0, 138.744153, 322.182437)" x="138.744153" y="322.182437">0.2</text>
     </g>
    </g>
    <g id="xtick_3">
     <g id="line2d_3">
      <g>
       <use style="stroke:#000000;stroke-width:0.8;" x="203.688051" xlink:href="#m12c100b2a2" y="307.584"/>
      </g>
     </g>
     <g id="text_3">
      <text style="font-family:DejaVu Sans;font-size:10px;font-style:normal;font-weight:normal;text-anchor:middle;" transform="rotate(-0, 203.688051, 322.182437)" x="203.688051" y="322.182437">0.4</text>
     </g>
    </g>
    <g id="xtick_4">
     <g id="line2d_4">
      <g>
       <use style="stroke:#000000;stroke-width:0.8;" x="268.631949" xlink:href="#m12c100b2a2" y="307.584"/>
      </g>
     </g>
     <g id="text_4">
      <text style="font-family:DejaVu Sans;font-size:10px;font-style:normal;font-weight:normal;text-anchor:middle;" transform="rotate(-0, 268.631949, 322.182437)" x="268.631949" y="322.182437">0.6</text>
     </g>
    </g>
    <g id="xtick_5">
     <g id="line2d_5">
      <g>
       <use style="stroke:#000000;stroke-width:0.8;" x="333.575847" xlink:href="#m12c100b2a2" y="307.584"/>
      </g>
     </g>
     <g id="text_5">
      <text style="font-family:DejaVu Sans;font-size:10px;font-style:normal;font-weight:normal;text-anchor:middle;" transform="rotate(-0, 333.575847, 322.182437)" x="333.575847" y="322.182437">0.8</text>
     </g>
    </g>
    <g id="xtick_6">
     <g id="line2d_6">
      <g>
       <use style="stroke:#000000;stroke-width:0.8;" x="398.519745" xlink:href="#m12c100b2a2" y="307.584"/>
      </g>
     </g>
     <g id="text_6">
      <text style="font-family:DejaVu Sans;font-size:10px;font-style:normal;font-weight:normal;text-anchor:middle;" transform="rotate(-0, 398.519745, 322.182437)" x="398.519745" y="322.182437">1.0</text>
     </g>
    </g>
    <g id="text_7">
     <text style="font-family:DejaVu Sans;font-size:10px;font-style:normal;font-weight:normal;text-anchor:middle;" transform="rotate(-0, 236.16, 335.860562)" x="236.16" y="335.860562">Input Coin's Heads Probability (λ)</text>
    </g>
   </g>
   <g id="matplotlib.axis_2">
    <g id="ytick_1">
     <g id="line2d_7">
      <defs>
       <path d="M 0 0 
L -3.5 0 
" id="m68da86eec4" style="stroke:#000000;stroke-width:0.8;"/>
      </defs>
      <g>
       <use style="stroke:#000000;stroke-width:0.8;" x="57.6" xlink:href="#m68da86eec4" y="295.512578"/>
      </g>
     </g>
     <g id="text_8">
      <text style="font-family:DejaVu Sans;font-size:10px;font-style:normal;font-weight:normal;text-anchor:end;" transform="rotate(-0, 50.6, 299.311797)" x="50.6" y="299.311797">0.0</text>
     </g>
    </g>
    <g id="ytick_2">
     <g id="line2d_8">
      <g>
       <use style="stroke:#000000;stroke-width:0.8;" x="57.6" xlink:href="#m68da86eec4" y="262.369485"/>
      </g>
     </g>
     <g id="text_9">
      <text style="font-family:DejaVu Sans;font-size:10px;font-style:normal;font-weight:normal;text-anchor:end;" transform="rotate(-0, 50.6, 266.168704)" x="50.6" y="266.168704">0.2</text>
     </g>
    </g>
    <g id="ytick_3">
     <g id="line2d_9">
      <g>
       <use style="stroke:#000000;stroke-width:0.8;" x="57.6" xlink:href="#m68da86eec4" y="229.226392"/>
      </g>
     </g>
     <g id="text_10">
      <text style="font-family:DejaVu Sans;font-size:10px;font-style:normal;font-weight:normal;text-anchor:end;" transform="rotate(-0, 50.6, 233.025611)" x="50.6" y="233.025611">0.4</text>
     </g>
    </g>
    <g id="ytick_4">
     <g id="line2d_10">
      <g>
       <use style="stroke:#000000;stroke-width:0.8;" x="57.6" xlink:href="#m68da86eec4" y="196.083299"/>
      </g>
     </g>
     <g id="text_11">
      <text style="font-family:DejaVu Sans;font-size:10px;font-style:normal;font-weight:normal;text-anchor:end;" transform="rotate(-0, 50.6, 199.882518)" x="50.6" y="199.882518">0.6</text>
     </g>
    </g>
    <g id="ytick_5">
     <g id="line2d_11">
      <g>
       <use style="stroke:#000000;stroke-width:0.8;" x="57.6" xlink:href="#m68da86eec4" y="162.940207"/>
      </g>
     </g>
     <g id="text_12">
      <text style="font-family:DejaVu Sans;font-size:10px;font-style:normal;font-weight:normal;text-anchor:end;" transform="rotate(-0, 50.6, 166.739425)" x="50.6" y="166.739425">0.8</text>
     </g>
    </g>
    <g id="ytick_6">
     <g id="line2d_12">
      <g>
       <use style="stroke:#000000;stroke-width:0.8;" x="57.6" xlink:href="#m68da86eec4" y="129.797114"/>
      </g>
     </g>
     <g id="text_13">
      <text style="font-family:DejaVu Sans;font-size:10px;font-style:normal;font-weight:normal;text-anchor:end;" transform="rotate(-0, 50.6, 133.596332)" x="50.6" y="133.596332">1.0</text>
     </g>
    </g>
    <g id="ytick_7">
     <g id="line2d_13">
      <g>
       <use style="stroke:#000000;stroke-width:0.8;" x="57.6" xlink:href="#m68da86eec4" y="96.654021"/>
      </g>
     </g>
     <g id="text_14">
      <text style="font-family:DejaVu Sans;font-size:10px;font-style:normal;font-weight:normal;text-anchor:end;" transform="rotate(-0, 50.6, 100.45324)" x="50.6" y="100.45324">1.2</text>
     </g>
    </g>
    <g id="ytick_8">
     <g id="line2d_14">
      <g>
       <use style="stroke:#000000;stroke-width:0.8;" x="57.6" xlink:href="#m68da86eec4" y="63.510928"/>
      </g>
     </g>
     <g id="text_15">
      <text style="font-family:DejaVu Sans;font-size:10px;font-style:normal;font-weight:normal;text-anchor:end;" transform="rotate(-0, 50.6, 67.310147)" x="50.6" y="67.310147">1.4</text>
     </g>
    </g>
    <g id="text_16">
     <text style="font-family:DejaVu Sans;font-size:10px;font-style:normal;font-weight:normal;text-anchor:middle;" transform="rotate(-90, 28.617187, 174.528)" x="28.617187" y="174.528">Coin Flips Needed</text>
    </g>
   </g>
   <g id="line2d_15">
    <path clip-path="url(#p733416cfc3)" d="M 73.832727 129.797118 
L 77.112066 129.825899 
L 80.391405 129.911316 
L 83.670744 130.053589 
L 86.950083 130.25286 
L 90.229421 130.509188 
L 93.50876 130.822554 
L 96.788099 131.192858 
L 100.067438 131.619922 
L 103.346777 132.103489 
L 106.626116 132.643226 
L 109.905455 133.238723 
L 113.184793 133.889499 
L 116.464132 134.594999 
L 119.743471 135.354599 
L 123.02281 136.167611 
L 126.302149 137.03328 
L 129.581488 137.950792 
L 132.860826 138.919272 
L 136.140165 139.937792 
L 139.419504 141.005374 
L 142.698843 142.120989 
L 145.978182 143.283564 
L 149.257521 144.491985 
L 152.53686 145.745104 
L 155.816198 147.041734 
L 159.095537 148.380663 
L 162.374876 149.76065 
L 165.654215 151.180434 
L 168.933554 152.638733 
L 172.212893 154.134253 
L 175.492231 155.665688 
L 178.77157 157.231724 
L 182.050909 158.831043 
L 185.330248 160.462327 
L 188.609587 162.124262 
L 191.888926 163.815538 
L 195.168264 165.534854 
L 198.447603 167.280925 
L 201.726942 169.052477 
L 205.006281 170.848254 
L 208.28562 172.667024 
L 211.564959 174.507574 
L 214.844298 176.368719 
L 218.123636 178.249299 
L 221.402975 180.148186 
L 224.682314 182.064281 
L 227.961653 183.99652 
L 231.240992 185.943874 
L 234.520331 187.905349 
L 237.799669 189.879989 
L 241.079008 191.866878 
L 244.358347 193.865141 
L 247.637686 195.873943 
L 250.917025 197.89249 
L 254.196364 199.920036 
L 257.475702 201.955873 
L 260.755041 203.999343 
L 264.03438 206.049831 
L 267.313719 208.106768 
L 270.593058 210.169631 
L 273.872397 212.237947 
L 277.151736 214.311287 
L 280.431074 216.389272 
L 283.710413 218.471571 
L 286.989752 220.557901 
L 290.269091 222.64803 
L 293.54843 224.741774 
L 296.827769 226.838999 
L 300.107107 228.939623 
L 303.386446 231.043614 
L 306.665785 233.150992 
L 309.945124 235.261828 
L 313.224463 237.376248 
L 316.503802 239.49443 
L 319.78314 241.616609 
L 323.062479 243.743072 
L 326.341818 245.874166 
L 329.621157 248.010296 
L 332.900496 250.151925 
L 336.179835 252.299577 
L 339.459174 254.453842 
L 342.738512 256.615372 
L 346.017851 258.784888 
L 349.29719 260.963181 
L 352.576529 263.151114 
L 355.855868 265.349629 
L 359.135207 267.559744 
L 362.414545 269.782564 
L 365.693884 272.01928 
L 368.973223 274.271179 
L 372.252562 276.539644 
L 375.531901 278.826163 
L 378.81124 281.132339 
L 382.090579 283.459891 
L 385.369917 285.810667 
L 388.649256 288.186653 
L 391.928595 290.58998 
L 395.207934 293.022941 
L 398.487273 295.488 
" style="fill:none;stroke:#1f77b4;stroke-linecap:square;stroke-width:1.5;"/>
   </g>
   <g id="line2d_16">
    <path clip-path="url(#p733416cfc3)" d="M 73.832727 62.185204 
L 77.112066 73.453856 
L 80.391405 68.150961 
L 83.670744 71.46527 
L 86.950083 80.745336 
L 90.229421 75.442441 
L 93.50876 67.156668 
L 96.788099 73.453856 
L 100.067438 70.139546 
L 103.346777 69.476685 
L 106.626116 73.785287 
L 109.905455 71.796701 
L 113.184793 69.476685 
L 116.464132 53.568 
L 119.743471 73.453856 
L 123.02281 67.488099 
L 126.302149 76.436734 
L 129.581488 57.21374 
L 132.860826 57.876602 
L 136.140165 74.116718 
L 139.419504 67.488099 
L 142.698843 69.476685 
L 145.978182 60.196619 
L 149.257521 71.46527 
L 152.53686 66.825237 
L 155.816198 67.81953 
L 159.095537 76.105303 
L 162.374876 62.185204 
L 165.654215 61.853773 
L 168.933554 56.550878 
L 172.212893 71.133839 
L 175.492231 75.442441 
L 178.77157 71.46527 
L 182.050909 62.848066 
L 185.330248 72.459563 
L 188.609587 70.470977 
L 191.888926 65.168083 
L 195.168264 58.208033 
L 198.447603 68.813823 
L 201.726942 70.139546 
L 205.006281 78.093889 
L 208.28562 67.156668 
L 211.564959 63.842359 
L 214.844298 68.482392 
L 218.123636 69.808116 
L 221.402975 63.179497 
L 224.682314 67.81953 
L 227.961653 71.796701 
L 231.240992 75.442441 
L 234.520331 73.122425 
L 237.799669 64.836652 
L 241.079008 77.762458 
L 244.358347 73.122425 
L 247.637686 66.493806 
L 250.917025 75.11101 
L 254.196364 73.785287 
L 257.475702 55.225155 
L 260.755041 69.476685 
L 264.03438 64.17379 
L 267.313719 72.128132 
L 270.593058 69.476685 
L 273.872397 62.516635 
L 277.151736 74.448149 
L 280.431074 80.745336 
L 283.710413 82.07106 
L 286.989752 67.156668 
L 290.269091 71.796701 
L 293.54843 81.408198 
L 296.827769 70.802408 
L 300.107107 77.099596 
L 303.386446 88.368248 
L 306.665785 75.442441 
L 309.945124 69.808116 
L 313.224463 91.682557 
L 316.503802 79.751043 
L 319.78314 70.470977 
L 323.062479 80.745336 
L 326.341818 65.830944 
L 329.621157 83.065353 
L 332.900496 77.431027 
L 336.179835 79.751043 
L 339.459174 87.373955 
L 342.738512 82.07106 
L 346.017851 85.385369 
L 349.29719 83.065353 
L 352.576529 85.7168 
L 355.855868 83.065353 
L 359.135207 79.419612 
L 362.414545 89.36254 
L 365.693884 86.048231 
L 368.973223 87.373955 
L 372.252562 83.728215 
L 375.531901 94.665435 
L 378.81124 90.356833 
L 382.090579 84.722507 
L 385.369917 82.07106 
L 388.649256 92.013988 
L 391.928595 94.996866 
L 395.207934 93.671142 
L 398.487273 92.67685 
" style="fill:none;stroke:#ff7f0e;stroke-linecap:square;stroke-width:1.5;"/>
   </g>
   <g id="patch_3">
    <path d="M 57.6 307.584 
L 57.6 41.472 
" style="fill:none;stroke:#000000;stroke-linecap:square;stroke-linejoin:miter;stroke-width:0.8;"/>
   </g>
   <g id="patch_4">
    <path d="M 414.72 307.584 
L 414.72 41.472 
" style="fill:none;stroke:#000000;stroke-linecap:square;stroke-linejoin:miter;stroke-width:0.8;"/>
   </g>
   <g id="patch_5">
    <path d="M 57.6 307.584 
L 414.72 307.584 
" style="fill:none;stroke:#000000;stroke-linecap:square;stroke-linejoin:miter;stroke-width:0.8;"/>
   </g>
   <g id="patch_6">
    <path d="M 57.6 41.472 
L 414.72 41.472 
" style="fill:none;stroke:#000000;stroke-linecap:square;stroke-linejoin:miter;stroke-width:0.8;"/>
   </g>
   <g id="text_17">
    <text style="font-family:DejaVu Sans;font-size:12px;font-style:normal;font-weight:normal;text-anchor:middle;" transform="rotate(-0, 236.16, 35.472)" x="236.16" y="35.472">Coin Flips for arctan(x)</text>
   </g>
   <g id="legend_1">
    <g id="patch_7">
     <path d="M 64.6 302.584 
L 359.996875 302.584 
Q 361.996875 302.584 361.996875 300.584 
L 361.996875 272.22775 
Q 361.996875 270.22775 359.996875 270.22775 
L 64.6 270.22775 
Q 62.6 270.22775 62.6 272.22775 
L 62.6 300.584 
Q 62.6 302.584 64.6 302.584 
z
" style="fill:#ffffff;opacity:0.8;stroke:#cccccc;stroke-linejoin:miter;"/>
    </g>
    <g id="line2d_17">
     <path d="M 66.6 278.326187 
L 86.6 278.326187 
" style="fill:none;stroke:#1f77b4;stroke-linecap:square;stroke-width:1.5;"/>
    </g>
    <g id="line2d_18"/>
    <g id="text_18">
     <text style="font-family:DejaVu Sans;font-size:10px;font-style:normal;font-weight:normal;text-anchor:start;" transform="rotate(-0, 94.6, 281.826187)" x="94.6" y="281.826187">Coin Flip Lower Bound</text>
    </g>
    <g id="line2d_19">
     <path d="M 66.6 293.004312 
L 86.6 293.004312 
" style="fill:none;stroke:#ff7f0e;stroke-linecap:square;stroke-width:1.5;"/>
    </g>
    <g id="line2d_20"/>
    <g id="text_19">
     <text style="font-family:DejaVu Sans;font-size:10px;font-style:normal;font-weight:normal;text-anchor:start;" transform="rotate(-0, 94.6, 296.504312)" x="94.6" y="296.504312">Avg. Coins Flipped arctan(x) (Two-Coin Special Case)</text>
    </g>
   </g>
  </g>
 </g>
 <defs>
  <clipPath id="p733416cfc3">
   <rect height="266.112" width="357.12" x="57.6" y="41.472"/>
  </clipPath>
 </defs>
</svg>
