<?xml version="1.0" encoding="utf-8" standalone="no"?>
<!DOCTYPE svg PUBLIC "-//W3C//DTD SVG 1.1//EN"
  "http://www.w3.org/Graphics/SVG/1.1/DTD/svg11.dtd">
<!-- Created with matplotlib (https://matplotlib.org/) -->
<svg height="345.6pt" version="1.1" viewBox="0 0 460.8 345.6" width="460.8pt" xmlns="http://www.w3.org/2000/svg" xmlns:xlink="http://www.w3.org/1999/xlink">
 <defs>
  <style type="text/css">
*{stroke-linecap:butt;stroke-linejoin:round;}
  </style>
 </defs>
 <g id="figure_1">
  <g id="patch_1">
   <path d="M 0 345.6 
L 460.8 345.6 
L 460.8 0 
L 0 0 
z
" style="fill:#ffffff;"/>
  </g>
  <g id="axes_1">
   <g id="patch_2">
    <path d="M 57.6 307.584 
L 414.72 307.584 
L 414.72 41.472 
L 57.6 41.472 
z
" style="fill:#ffffff;"/>
   </g>
   <g id="matplotlib.axis_1">
    <g id="xtick_1">
     <g id="line2d_1">
      <defs>
       <path d="M 0 0 
L 0 3.5 
" id="m01c8647d43" style="stroke:#000000;stroke-width:0.8;"/>
      </defs>
      <g>
       <use style="stroke:#000000;stroke-width:0.8;" x="73.800255" xlink:href="#m01c8647d43" y="307.584"/>
      </g>
     </g>
     <g id="text_1">
      <text style="font-family:DejaVu Sans;font-size:10px;font-style:normal;font-weight:normal;text-anchor:middle;" transform="rotate(-0, 73.800255, 322.182437)" x="73.800255" y="322.182437">0.0</text>
     </g>
    </g>
    <g id="xtick_2">
     <g id="line2d_2">
      <g>
       <use style="stroke:#000000;stroke-width:0.8;" x="138.744153" xlink:href="#m01c8647d43" y="307.584"/>
      </g>
     </g>
     <g id="text_2">
      <text style="font-family:DejaVu Sans;font-size:10px;font-style:normal;font-weight:normal;text-anchor:middle;" transform="rotate(-0, 138.744153, 322.182437)" x="138.744153" y="322.182437">0.2</text>
     </g>
    </g>
    <g id="xtick_3">
     <g id="line2d_3">
      <g>
       <use style="stroke:#000000;stroke-width:0.8;" x="203.688051" xlink:href="#m01c8647d43" y="307.584"/>
      </g>
     </g>
     <g id="text_3">
      <text style="font-family:DejaVu Sans;font-size:10px;font-style:normal;font-weight:normal;text-anchor:middle;" transform="rotate(-0, 203.688051, 322.182437)" x="203.688051" y="322.182437">0.4</text>
     </g>
    </g>
    <g id="xtick_4">
     <g id="line2d_4">
      <g>
       <use style="stroke:#000000;stroke-width:0.8;" x="268.631949" xlink:href="#m01c8647d43" y="307.584"/>
      </g>
     </g>
     <g id="text_4">
      <text style="font-family:DejaVu Sans;font-size:10px;font-style:normal;font-weight:normal;text-anchor:middle;" transform="rotate(-0, 268.631949, 322.182437)" x="268.631949" y="322.182437">0.6</text>
     </g>
    </g>
    <g id="xtick_5">
     <g id="line2d_5">
      <g>
       <use style="stroke:#000000;stroke-width:0.8;" x="333.575847" xlink:href="#m01c8647d43" y="307.584"/>
      </g>
     </g>
     <g id="text_5">
      <text style="font-family:DejaVu Sans;font-size:10px;font-style:normal;font-weight:normal;text-anchor:middle;" transform="rotate(-0, 333.575847, 322.182437)" x="333.575847" y="322.182437">0.8</text>
     </g>
    </g>
    <g id="xtick_6">
     <g id="line2d_6">
      <g>
       <use style="stroke:#000000;stroke-width:0.8;" x="398.519745" xlink:href="#m01c8647d43" y="307.584"/>
      </g>
     </g>
     <g id="text_6">
      <text style="font-family:DejaVu Sans;font-size:10px;font-style:normal;font-weight:normal;text-anchor:middle;" transform="rotate(-0, 398.519745, 322.182437)" x="398.519745" y="322.182437">1.0</text>
     </g>
    </g>
    <g id="text_7">
     <text style="font-family:DejaVu Sans;font-size:10px;font-style:normal;font-weight:normal;text-anchor:middle;" transform="rotate(-0, 236.16, 335.860562)" x="236.16" y="335.860562">Input Coin's Heads Probability (λ)</text>
    </g>
   </g>
   <g id="matplotlib.axis_2">
    <g id="ytick_1">
     <g id="line2d_7">
      <defs>
       <path d="M 0 0 
L -3.5 0 
" id="m0a37da0577" style="stroke:#000000;stroke-width:0.8;"/>
      </defs>
      <g>
       <use style="stroke:#000000;stroke-width:0.8;" x="57.6" xlink:href="#m0a37da0577" y="295.512444"/>
      </g>
     </g>
     <g id="text_8">
      <text style="font-family:DejaVu Sans;font-size:10px;font-style:normal;font-weight:normal;text-anchor:end;" transform="rotate(-0, 50.6, 299.311663)" x="50.6" y="299.311663">0.0</text>
     </g>
    </g>
    <g id="ytick_2">
     <g id="line2d_8">
      <g>
       <use style="stroke:#000000;stroke-width:0.8;" x="57.6" xlink:href="#m0a37da0577" y="262.549986"/>
      </g>
     </g>
     <g id="text_9">
      <text style="font-family:DejaVu Sans;font-size:10px;font-style:normal;font-weight:normal;text-anchor:end;" transform="rotate(-0, 50.6, 266.349205)" x="50.6" y="266.349205">0.2</text>
     </g>
    </g>
    <g id="ytick_3">
     <g id="line2d_9">
      <g>
       <use style="stroke:#000000;stroke-width:0.8;" x="57.6" xlink:href="#m0a37da0577" y="229.587528"/>
      </g>
     </g>
     <g id="text_10">
      <text style="font-family:DejaVu Sans;font-size:10px;font-style:normal;font-weight:normal;text-anchor:end;" transform="rotate(-0, 50.6, 233.386746)" x="50.6" y="233.386746">0.4</text>
     </g>
    </g>
    <g id="ytick_4">
     <g id="line2d_10">
      <g>
       <use style="stroke:#000000;stroke-width:0.8;" x="57.6" xlink:href="#m0a37da0577" y="196.625069"/>
      </g>
     </g>
     <g id="text_11">
      <text style="font-family:DejaVu Sans;font-size:10px;font-style:normal;font-weight:normal;text-anchor:end;" transform="rotate(-0, 50.6, 200.424288)" x="50.6" y="200.424288">0.6</text>
     </g>
    </g>
    <g id="ytick_5">
     <g id="line2d_11">
      <g>
       <use style="stroke:#000000;stroke-width:0.8;" x="57.6" xlink:href="#m0a37da0577" y="163.662611"/>
      </g>
     </g>
     <g id="text_12">
      <text style="font-family:DejaVu Sans;font-size:10px;font-style:normal;font-weight:normal;text-anchor:end;" transform="rotate(-0, 50.6, 167.46183)" x="50.6" y="167.46183">0.8</text>
     </g>
    </g>
    <g id="ytick_6">
     <g id="line2d_12">
      <g>
       <use style="stroke:#000000;stroke-width:0.8;" x="57.6" xlink:href="#m0a37da0577" y="130.700153"/>
      </g>
     </g>
     <g id="text_13">
      <text style="font-family:DejaVu Sans;font-size:10px;font-style:normal;font-weight:normal;text-anchor:end;" transform="rotate(-0, 50.6, 134.499371)" x="50.6" y="134.499371">1.0</text>
     </g>
    </g>
    <g id="ytick_7">
     <g id="line2d_13">
      <g>
       <use style="stroke:#000000;stroke-width:0.8;" x="57.6" xlink:href="#m0a37da0577" y="97.737694"/>
      </g>
     </g>
     <g id="text_14">
      <text style="font-family:DejaVu Sans;font-size:10px;font-style:normal;font-weight:normal;text-anchor:end;" transform="rotate(-0, 50.6, 101.536913)" x="50.6" y="101.536913">1.2</text>
     </g>
    </g>
    <g id="ytick_8">
     <g id="line2d_14">
      <g>
       <use style="stroke:#000000;stroke-width:0.8;" x="57.6" xlink:href="#m0a37da0577" y="64.775236"/>
      </g>
     </g>
     <g id="text_15">
      <text style="font-family:DejaVu Sans;font-size:10px;font-style:normal;font-weight:normal;text-anchor:end;" transform="rotate(-0, 50.6, 68.574455)" x="50.6" y="68.574455">1.4</text>
     </g>
    </g>
    <g id="text_16">
     <text style="font-family:DejaVu Sans;font-size:10px;font-style:normal;font-weight:normal;text-anchor:middle;" transform="rotate(-90, 28.617187, 174.528)" x="28.617187" y="174.528">Coin Flips Needed</text>
    </g>
   </g>
   <g id="line2d_15">
    <path clip-path="url(#p2d0d1d0bc8)" d="M 73.832727 130.700156 
L 77.112066 130.728781 
L 80.391405 130.813733 
L 83.670744 130.95523 
L 86.950083 131.153415 
L 90.229421 131.408346 
L 93.50876 131.720004 
L 96.788099 132.08829 
L 100.067438 132.513026 
L 103.346777 132.993958 
L 106.626116 133.530753 
L 109.905455 134.123005 
L 113.184793 134.770234 
L 116.464132 135.471888 
L 119.743471 136.227349 
L 123.02281 137.03593 
L 126.302149 137.896881 
L 129.581488 138.809392 
L 132.860826 139.772594 
L 136.140165 140.785563 
L 139.419504 141.847326 
L 142.698843 142.956861 
L 145.978182 144.113099 
L 149.257521 145.314935 
L 152.53686 146.561224 
L 155.816198 147.850788 
L 159.095537 149.182419 
L 162.374876 150.554885 
L 165.654215 151.96693 
L 168.933554 153.417282 
L 172.212893 154.904651 
L 175.492231 156.427739 
L 178.77157 157.98524 
L 182.050909 159.575843 
L 185.330248 161.198236 
L 188.609587 162.851113 
L 191.888926 164.533171 
L 195.168264 166.243118 
L 198.447603 167.979672 
L 201.726942 169.741568 
L 205.006281 171.527559 
L 208.28562 173.336416 
L 211.564959 175.166935 
L 214.844298 177.017936 
L 218.123636 178.888267 
L 221.402975 180.776804 
L 224.682314 182.682457 
L 227.961653 184.604165 
L 231.240992 186.540905 
L 234.520331 188.491689 
L 237.799669 190.455568 
L 241.079008 192.431628 
L 244.358347 194.419 
L 247.637686 196.416853 
L 250.917025 198.4244 
L 254.196364 200.440895 
L 257.475702 202.465637 
L 260.755041 204.49797 
L 264.03438 206.537282 
L 267.313719 208.583008 
L 270.593058 210.634629 
L 273.872397 212.691671 
L 277.151736 214.753712 
L 280.431074 216.820371 
L 283.710413 218.891321 
L 286.989752 220.966281 
L 290.269091 223.045018 
L 293.54843 225.127351 
L 296.827769 227.213146 
L 300.107107 229.302321 
L 303.386446 231.394845 
L 306.665785 233.490737 
L 309.945124 235.590069 
L 313.224463 237.692965 
L 316.503802 239.799603 
L 319.78314 241.910215 
L 323.062479 244.025089 
L 326.341818 246.144569 
L 329.621157 248.269056 
L 332.900496 250.399013 
L 336.179835 252.53496 
L 339.459174 254.677484 
L 342.738512 256.827233 
L 346.017851 258.984925 
L 349.29719 261.151346 
L 352.576529 263.327355 
L 355.855868 265.513887 
L 359.135207 267.711957 
L 362.414545 269.922662 
L 365.693884 272.147188 
L 368.973223 274.386814 
L 372.252562 276.642915 
L 375.531901 278.916973 
L 378.81124 281.21058 
L 382.090579 283.525446 
L 385.369917 285.86341 
L 388.649256 288.226446 
L 391.928595 290.616675 
L 395.207934 293.036376 
L 398.487273 295.488 
" style="fill:none;stroke:#1f77b4;stroke-linecap:square;stroke-width:1.5;"/>
   </g>
   <g id="line2d_16">
    <path clip-path="url(#p2d0d1d0bc8)" d="M 73.832727 70.708478 
L 77.112066 69.38998 
L 80.391405 72.356601 
L 83.670744 70.049229 
L 86.950083 61.149365 
L 90.229421 80.92684 
L 93.50876 76.312096 
L 96.788099 72.026977 
L 100.067438 76.312096 
L 103.346777 70.378854 
L 106.626116 62.797488 
L 109.905455 63.456738 
L 113.184793 66.752983 
L 116.464132 66.752983 
L 119.743471 79.608342 
L 123.02281 62.138239 
L 126.302149 64.115987 
L 129.581488 57.19387 
L 132.860826 68.401106 
L 136.140165 66.752983 
L 139.419504 81.58609 
L 142.698843 76.641721 
L 145.978182 71.697352 
L 149.257521 69.060355 
L 152.53686 82.245339 
L 155.816198 79.278718 
L 159.095537 74.004724 
L 162.374876 74.004724 
L 165.654215 63.456738 
L 168.933554 76.971345 
L 172.212893 70.378854 
L 175.492231 53.568 
L 178.77157 78.619468 
L 182.050909 63.456738 
L 185.330248 62.138239 
L 188.609587 66.752983 
L 191.888926 61.808615 
L 195.168264 76.641721 
L 198.447603 69.38998 
L 201.726942 69.38998 
L 205.006281 76.641721 
L 208.28562 70.708478 
L 211.564959 67.741857 
L 214.844298 64.115987 
L 218.123636 67.412233 
L 221.402975 67.741857 
L 224.682314 70.708478 
L 227.961653 63.456738 
L 231.240992 73.6751 
L 234.520331 70.378854 
L 237.799669 71.367728 
L 241.079008 77.630595 
L 244.358347 68.730731 
L 247.637686 73.01585 
L 250.917025 85.541585 
L 254.196364 69.719605 
L 257.475702 81.915714 
L 260.755041 69.060355 
L 264.03438 68.071482 
L 267.313719 76.312096 
L 270.593058 74.993598 
L 273.872397 69.060355 
L 277.151736 71.697352 
L 280.431074 71.038103 
L 283.710413 71.367728 
L 286.989752 71.697352 
L 290.269091 84.223086 
L 293.54843 75.323223 
L 296.827769 78.619468 
L 300.107107 82.904588 
L 303.386446 72.686226 
L 306.665785 81.915714 
L 309.945124 84.223086 
L 313.224463 75.982472 
L 316.503802 85.541585 
L 319.78314 80.267591 
L 323.062479 79.278718 
L 326.341818 76.971345 
L 329.621157 90.156329 
L 332.900496 86.530458 
L 336.179835 88.508206 
L 339.459174 79.278718 
L 342.738512 91.804452 
L 346.017851 89.49708 
L 349.29719 89.167455 
L 352.576529 85.541585 
L 355.855868 88.83783 
L 359.135207 82.904588 
L 362.414545 95.100698 
L 365.693884 91.474827 
L 368.973223 93.12295 
L 372.252562 88.508206 
L 375.531901 92.463701 
L 378.81124 89.167455 
L 382.090579 89.826704 
L 385.369917 89.49708 
L 388.649256 96.419196 
L 391.928595 93.782199 
L 395.207934 94.771073 
L 398.487273 100.704315 
" style="fill:none;stroke:#ff7f0e;stroke-linecap:square;stroke-width:1.5;"/>
   </g>
   <g id="patch_3">
    <path d="M 57.6 307.584 
L 57.6 41.472 
" style="fill:none;stroke:#000000;stroke-linecap:square;stroke-linejoin:miter;stroke-width:0.8;"/>
   </g>
   <g id="patch_4">
    <path d="M 414.72 307.584 
L 414.72 41.472 
" style="fill:none;stroke:#000000;stroke-linecap:square;stroke-linejoin:miter;stroke-width:0.8;"/>
   </g>
   <g id="patch_5">
    <path d="M 57.6 307.584 
L 414.72 307.584 
" style="fill:none;stroke:#000000;stroke-linecap:square;stroke-linejoin:miter;stroke-width:0.8;"/>
   </g>
   <g id="patch_6">
    <path d="M 57.6 41.472 
L 414.72 41.472 
" style="fill:none;stroke:#000000;stroke-linecap:square;stroke-linejoin:miter;stroke-width:0.8;"/>
   </g>
   <g id="text_17">
    <text style="font-family:DejaVu Sans;font-size:12px;font-style:normal;font-weight:normal;text-anchor:middle;" transform="rotate(-0, 236.16, 35.472)" x="236.16" y="35.472">Coin Flips for arctan(x)</text>
   </g>
   <g id="legend_1">
    <g id="patch_7">
     <path d="M 64.6 302.584 
L 379.364063 302.584 
Q 381.364063 302.584 381.364063 300.584 
L 381.364063 272.22775 
Q 381.364063 270.22775 379.364063 270.22775 
L 64.6 270.22775 
Q 62.6 270.22775 62.6 272.22775 
L 62.6 300.584 
Q 62.6 302.584 64.6 302.584 
z
" style="fill:#ffffff;opacity:0.8;stroke:#cccccc;stroke-linejoin:miter;"/>
    </g>
    <g id="line2d_17">
     <path d="M 66.6 278.326187 
L 86.6 278.326187 
" style="fill:none;stroke:#1f77b4;stroke-linecap:square;stroke-width:1.5;"/>
    </g>
    <g id="line2d_18"/>
    <g id="text_18">
     <text style="font-family:DejaVu Sans;font-size:10px;font-style:normal;font-weight:normal;text-anchor:start;" transform="rotate(-0, 94.6, 281.826187)" x="94.6" y="281.826187">Coin Flip Lower Bound</text>
    </g>
    <g id="line2d_19">
     <path d="M 66.6 293.004312 
L 86.6 293.004312 
" style="fill:none;stroke:#ff7f0e;stroke-linecap:square;stroke-width:1.5;"/>
    </g>
    <g id="line2d_20"/>
    <g id="text_19">
     <text style="font-family:DejaVu Sans;font-size:10px;font-style:normal;font-weight:normal;text-anchor:start;" transform="rotate(-0, 94.6, 296.504312)" x="94.6" y="296.504312">Average Coins Flipped arctan(x) (Two-Coin Special Case)</text>
    </g>
   </g>
  </g>
 </g>
 <defs>
  <clipPath id="p2d0d1d0bc8">
   <rect height="266.112" width="357.12" x="57.6" y="41.472"/>
  </clipPath>
 </defs>
</svg>
