<?xml version="1.0" encoding="utf-8" standalone="no"?>
<!DOCTYPE svg PUBLIC "-//W3C//DTD SVG 1.1//EN"
  "http://www.w3.org/Graphics/SVG/1.1/DTD/svg11.dtd">
<!-- Created with matplotlib (https://matplotlib.org/) -->
<svg height="252pt" version="1.1" viewBox="0 0 324 252" width="324pt" xmlns="http://www.w3.org/2000/svg" xmlns:xlink="http://www.w3.org/1999/xlink">
 <defs>
  <style type="text/css">
*{stroke-linecap:butt;stroke-linejoin:round;}
  </style>
 </defs>
 <g id="figure_1">
  <g id="patch_1">
   <path d="M 0 252 
L 324 252 
L 324 0 
L 0 0 
z
" style="fill:#ffffff;"/>
  </g>
  <g id="axes_1">
   <g id="patch_2">
    <path d="M 40.5 224.28 
L 291.6 224.28 
L 291.6 30.24 
L 40.5 30.24 
z
" style="fill:#ffffff;"/>
   </g>
   <g id="matplotlib.axis_1">
    <g id="xtick_1">
     <g id="line2d_1">
      <defs>
       <path d="M 0 0 
L 0 3.5 
" id="m843a55d8de" style="stroke:#000000;stroke-width:0.8;"/>
      </defs>
      <g>
       <use style="stroke:#000000;stroke-width:0.8;" x="51.890805" xlink:href="#m843a55d8de" y="224.28"/>
      </g>
     </g>
     <g id="text_1">
      <text style="font-family:DejaVu Sans;font-size:10px;font-style:normal;font-weight:normal;text-anchor:middle;" transform="rotate(-0, 51.890805, 238.878438)" x="51.890805" y="238.878438">0.0</text>
     </g>
    </g>
    <g id="xtick_2">
     <g id="line2d_2">
      <g>
       <use style="stroke:#000000;stroke-width:0.8;" x="97.554483" xlink:href="#m843a55d8de" y="224.28"/>
      </g>
     </g>
     <g id="text_2">
      <text style="font-family:DejaVu Sans;font-size:10px;font-style:normal;font-weight:normal;text-anchor:middle;" transform="rotate(-0, 97.554483, 238.878438)" x="97.554483" y="238.878438">0.2</text>
     </g>
    </g>
    <g id="xtick_3">
     <g id="line2d_3">
      <g>
       <use style="stroke:#000000;stroke-width:0.8;" x="143.218161" xlink:href="#m843a55d8de" y="224.28"/>
      </g>
     </g>
     <g id="text_3">
      <text style="font-family:DejaVu Sans;font-size:10px;font-style:normal;font-weight:normal;text-anchor:middle;" transform="rotate(-0, 143.218161, 238.878438)" x="143.218161" y="238.878438">0.4</text>
     </g>
    </g>
    <g id="xtick_4">
     <g id="line2d_4">
      <g>
       <use style="stroke:#000000;stroke-width:0.8;" x="188.881839" xlink:href="#m843a55d8de" y="224.28"/>
      </g>
     </g>
     <g id="text_4">
      <text style="font-family:DejaVu Sans;font-size:10px;font-style:normal;font-weight:normal;text-anchor:middle;" transform="rotate(-0, 188.881839, 238.878438)" x="188.881839" y="238.878438">0.6</text>
     </g>
    </g>
    <g id="xtick_5">
     <g id="line2d_5">
      <g>
       <use style="stroke:#000000;stroke-width:0.8;" x="234.545517" xlink:href="#m843a55d8de" y="224.28"/>
      </g>
     </g>
     <g id="text_5">
      <text style="font-family:DejaVu Sans;font-size:10px;font-style:normal;font-weight:normal;text-anchor:middle;" transform="rotate(-0, 234.545517, 238.878438)" x="234.545517" y="238.878438">0.8</text>
     </g>
    </g>
    <g id="xtick_6">
     <g id="line2d_6">
      <g>
       <use style="stroke:#000000;stroke-width:0.8;" x="280.209195" xlink:href="#m843a55d8de" y="224.28"/>
      </g>
     </g>
     <g id="text_6">
      <text style="font-family:DejaVu Sans;font-size:10px;font-style:normal;font-weight:normal;text-anchor:middle;" transform="rotate(-0, 280.209195, 238.878438)" x="280.209195" y="238.878438">1.0</text>
     </g>
    </g>
    <g id="text_7">
     <text style="font-family:DejaVu Sans;font-size:10px;font-style:normal;font-weight:normal;text-anchor:middle;" transform="rotate(-0, 166.05, 252.556563)" x="166.05" y="252.556563">Input Coin's Heads Probability (λ)</text>
    </g>
   </g>
   <g id="matplotlib.axis_2">
    <g id="ytick_1">
     <g id="line2d_7">
      <defs>
       <path d="M 0 0 
L -3.5 0 
" id="mca38d0f9ed" style="stroke:#000000;stroke-width:0.8;"/>
      </defs>
      <g>
       <use style="stroke:#000000;stroke-width:0.8;" x="40.5" xlink:href="#mca38d0f9ed" y="215.46"/>
      </g>
     </g>
     <g id="text_8">
      <text style="font-family:DejaVu Sans;font-size:10px;font-style:normal;font-weight:normal;text-anchor:end;" transform="rotate(-0, 33.5, 219.259219)" x="33.5" y="219.259219">0.0</text>
     </g>
    </g>
    <g id="ytick_2">
     <g id="line2d_8">
      <g>
       <use style="stroke:#000000;stroke-width:0.8;" x="40.5" xlink:href="#mca38d0f9ed" y="193.464988"/>
      </g>
     </g>
     <g id="text_9">
      <text style="font-family:DejaVu Sans;font-size:10px;font-style:normal;font-weight:normal;text-anchor:end;" transform="rotate(-0, 33.5, 197.264206)" x="33.5" y="197.264206">0.1</text>
     </g>
    </g>
    <g id="ytick_3">
     <g id="line2d_9">
      <g>
       <use style="stroke:#000000;stroke-width:0.8;" x="40.5" xlink:href="#mca38d0f9ed" y="171.469975"/>
      </g>
     </g>
     <g id="text_10">
      <text style="font-family:DejaVu Sans;font-size:10px;font-style:normal;font-weight:normal;text-anchor:end;" transform="rotate(-0, 33.5, 175.269194)" x="33.5" y="175.269194">0.2</text>
     </g>
    </g>
    <g id="ytick_4">
     <g id="line2d_10">
      <g>
       <use style="stroke:#000000;stroke-width:0.8;" x="40.5" xlink:href="#mca38d0f9ed" y="149.474963"/>
      </g>
     </g>
     <g id="text_11">
      <text style="font-family:DejaVu Sans;font-size:10px;font-style:normal;font-weight:normal;text-anchor:end;" transform="rotate(-0, 33.5, 153.274181)" x="33.5" y="153.274181">0.3</text>
     </g>
    </g>
    <g id="ytick_5">
     <g id="line2d_11">
      <g>
       <use style="stroke:#000000;stroke-width:0.8;" x="40.5" xlink:href="#mca38d0f9ed" y="127.47995"/>
      </g>
     </g>
     <g id="text_12">
      <text style="font-family:DejaVu Sans;font-size:10px;font-style:normal;font-weight:normal;text-anchor:end;" transform="rotate(-0, 33.5, 131.279169)" x="33.5" y="131.279169">0.4</text>
     </g>
    </g>
    <g id="ytick_6">
     <g id="line2d_12">
      <g>
       <use style="stroke:#000000;stroke-width:0.8;" x="40.5" xlink:href="#mca38d0f9ed" y="105.484938"/>
      </g>
     </g>
     <g id="text_13">
      <text style="font-family:DejaVu Sans;font-size:10px;font-style:normal;font-weight:normal;text-anchor:end;" transform="rotate(-0, 33.5, 109.284156)" x="33.5" y="109.284156">0.5</text>
     </g>
    </g>
    <g id="ytick_7">
     <g id="line2d_13">
      <g>
       <use style="stroke:#000000;stroke-width:0.8;" x="40.5" xlink:href="#mca38d0f9ed" y="83.489925"/>
      </g>
     </g>
     <g id="text_14">
      <text style="font-family:DejaVu Sans;font-size:10px;font-style:normal;font-weight:normal;text-anchor:end;" transform="rotate(-0, 33.5, 87.289144)" x="33.5" y="87.289144">0.6</text>
     </g>
    </g>
    <g id="ytick_8">
     <g id="line2d_14">
      <g>
       <use style="stroke:#000000;stroke-width:0.8;" x="40.5" xlink:href="#mca38d0f9ed" y="61.494913"/>
      </g>
     </g>
     <g id="text_15">
      <text style="font-family:DejaVu Sans;font-size:10px;font-style:normal;font-weight:normal;text-anchor:end;" transform="rotate(-0, 33.5, 65.294131)" x="33.5" y="65.294131">0.7</text>
     </g>
    </g>
    <g id="ytick_9">
     <g id="line2d_15">
      <g>
       <use style="stroke:#000000;stroke-width:0.8;" x="40.5" xlink:href="#mca38d0f9ed" y="39.4999"/>
      </g>
     </g>
     <g id="text_16">
      <text style="font-family:DejaVu Sans;font-size:10px;font-style:normal;font-weight:normal;text-anchor:end;" transform="rotate(-0, 33.5, 43.299119)" x="33.5" y="43.299119">0.8</text>
     </g>
    </g>
    <g id="text_17">
     <text style="font-family:DejaVu Sans;font-size:10px;font-style:normal;font-weight:normal;text-anchor:middle;" transform="rotate(-90, 11.517187, 127.26)" x="11.517187" y="127.26">Simulated Mean / Function Value</text>
    </g>
   </g>
   <g id="line2d_16">
    <path clip-path="url(#pb4f2c0ccdf)" d="M 52.119123 215.24005 
L 54.420757 213.022875 
L 56.722391 210.806194 
L 59.024025 208.590459 
L 61.325658 206.376118 
L 63.627292 204.163618 
L 65.928926 201.953403 
L 68.23056 199.745916 
L 70.532194 197.541595 
L 72.833828 195.340876 
L 75.135462 193.144188 
L 77.437096 190.951959 
L 79.738729 188.764608 
L 82.040363 186.58255 
L 84.341997 184.406194 
L 86.643631 182.235943 
L 88.945265 180.07219 
L 91.246899 177.915325 
L 93.548533 175.765726 
L 95.850167 173.623766 
L 98.151801 171.489808 
L 100.453434 169.364207 
L 102.755068 167.247308 
L 105.056702 165.139447 
L 107.358336 163.040952 
L 109.65997 160.95214 
L 111.961604 158.873318 
L 114.263238 156.804784 
L 116.564872 154.746823 
L 118.866505 152.699713 
L 121.168139 150.66372 
L 123.469773 148.639099 
L 125.771407 146.626097 
L 128.073041 144.624947 
L 130.374675 142.635873 
L 132.676309 140.65909 
L 134.977943 138.694798 
L 137.279576 136.743192 
L 139.58121 134.804452 
L 141.882844 132.87875 
L 144.184478 130.966248 
L 146.486112 129.067096 
L 148.787746 127.181435 
L 151.08938 125.309395 
L 153.391014 123.4511 
L 155.692648 121.606659 
L 157.994281 119.776175 
L 160.295915 117.95974 
L 162.597549 116.15744 
L 164.899183 114.369348 
L 167.200817 112.59553 
L 169.502451 110.836045 
L 171.804085 109.090941 
L 174.105719 107.360261 
L 176.407352 105.644037 
L 178.708986 103.942297 
L 181.01062 102.255057 
L 183.312254 100.582331 
L 185.613888 98.924121 
L 187.915522 97.280427 
L 190.217156 95.65124 
L 192.51879 94.036544 
L 194.820424 92.436319 
L 197.122057 90.850539 
L 199.423691 89.279172 
L 201.725325 87.722179 
L 204.026959 86.17952 
L 206.328593 84.651145 
L 208.630227 83.137004 
L 210.931861 81.63704 
L 213.233495 80.151192 
L 215.535128 78.679396 
L 217.836762 77.221583 
L 220.138396 75.777682 
L 222.44003 74.347616 
L 224.741664 72.931307 
L 227.043298 71.528673 
L 229.344932 70.13963 
L 231.646566 68.76409 
L 233.948199 67.401963 
L 236.249833 66.053157 
L 238.551467 64.717577 
L 240.853101 63.395127 
L 243.154735 62.085709 
L 245.456369 60.789222 
L 247.758003 59.505565 
L 250.059637 58.234633 
L 252.361271 56.976323 
L 254.662904 55.730528 
L 256.964538 54.497142 
L 259.266172 53.276055 
L 261.567806 52.067161 
L 263.86944 50.870347 
L 266.171074 49.685505 
L 268.472708 48.512524 
L 270.774342 47.351291 
L 273.075975 46.201695 
L 275.377609 45.063624 
L 277.679243 43.936965 
L 279.980877 42.821606 
" style="fill:none;stroke:#1f77b4;stroke-linecap:square;stroke-width:1.5;"/>
   </g>
   <g id="line2d_17">
    <path clip-path="url(#pb4f2c0ccdf)" d="M 51.913636 215.46 
L 54.219421 213.260499 
L 56.525207 210.181197 
L 58.830992 208.421596 
L 61.136777 204.902394 
L 63.442562 204.902394 
L 65.748347 197.86399 
L 68.054132 198.30389 
L 70.359917 194.784688 
L 72.665702 196.544289 
L 74.971488 196.98419 
L 77.277273 188.626085 
L 79.583058 188.186185 
L 81.888843 182.467481 
L 84.194628 182.907382 
L 86.500413 183.787182 
L 88.806198 184.666983 
L 91.111983 175.429077 
L 93.417769 171.909875 
L 95.723554 166.191172 
L 98.029339 165.311372 
L 100.335124 171.030075 
L 102.640909 162.67197 
L 104.946694 168.830574 
L 107.252479 167.070973 
L 109.558264 162.23207 
L 111.86405 155.633566 
L 114.169835 160.032569 
L 116.47562 150.354763 
L 118.781405 156.953267 
L 121.08719 152.114364 
L 123.392975 150.794663 
L 125.69876 146.395661 
L 128.004545 141.996658 
L 130.310331 140.676958 
L 132.616116 138.917357 
L 134.921901 138.917357 
L 137.227686 141.116858 
L 139.533471 130.119352 
L 141.839256 136.717855 
L 144.145041 129.679451 
L 146.450826 129.679451 
L 148.756612 123.080948 
L 151.062397 135.838055 
L 153.368182 112.963242 
L 155.673967 120.881446 
L 157.979752 123.520848 
L 160.285537 116.922344 
L 162.591322 118.242045 
L 164.897107 113.403142 
L 167.202893 114.282943 
L 169.508678 115.162743 
L 171.814463 111.203641 
L 174.120248 118.242045 
L 176.426033 104.165237 
L 178.731818 102.405636 
L 181.037603 102.405636 
L 183.343388 108.124339 
L 185.649174 96.247032 
L 187.954959 105.045037 
L 190.260744 97.566733 
L 192.566529 98.886434 
L 194.872314 101.965736 
L 197.178099 100.206135 
L 199.483884 89.648529 
L 201.789669 93.607631 
L 204.095455 90.088429 
L 206.40124 75.571721 
L 208.707025 81.290424 
L 211.01281 85.249526 
L 213.318595 81.290424 
L 215.62438 78.211122 
L 217.930165 79.530823 
L 220.23595 79.090923 
L 222.541736 79.530823 
L 224.847521 69.853017 
L 227.153306 64.134314 
L 229.459091 67.213616 
L 231.764876 74.25202 
L 234.070661 65.014115 
L 236.376446 66.333815 
L 238.682231 61.934813 
L 240.988017 62.814613 
L 243.293802 63.254514 
L 245.599587 59.295411 
L 247.905372 55.336309 
L 250.211157 60.175212 
L 252.516942 57.09591 
L 254.822727 50.057506 
L 257.128512 51.817107 
L 259.434298 50.057506 
L 261.740083 51.817107 
L 264.045868 56.65601 
L 266.351653 49.177706 
L 268.657438 42.139302 
L 270.963223 41.699401 
L 273.269008 45.658504 
L 275.574793 44.338803 
L 277.880579 39.06 
L 280.186364 41.259501 
" style="fill:none;stroke:#ff7f0e;stroke-linecap:square;stroke-width:1.5;"/>
   </g>
   <g id="patch_3">
    <path d="M 40.5 224.28 
L 40.5 30.24 
" style="fill:none;stroke:#000000;stroke-linecap:square;stroke-linejoin:miter;stroke-width:0.8;"/>
   </g>
   <g id="patch_4">
    <path d="M 291.6 224.28 
L 291.6 30.24 
" style="fill:none;stroke:#000000;stroke-linecap:square;stroke-linejoin:miter;stroke-width:0.8;"/>
   </g>
   <g id="patch_5">
    <path d="M 40.5 224.28 
L 291.6 224.28 
" style="fill:none;stroke:#000000;stroke-linecap:square;stroke-linejoin:miter;stroke-width:0.8;"/>
   </g>
   <g id="patch_6">
    <path d="M 40.5 30.24 
L 291.6 30.24 
" style="fill:none;stroke:#000000;stroke-linecap:square;stroke-linejoin:miter;stroke-width:0.8;"/>
   </g>
   <g id="text_18">
    <text style="font-family:DejaVu Sans;font-size:12px;font-style:normal;font-weight:normal;text-anchor:middle;" transform="rotate(-0, 166.05, 24.24)" x="166.05" y="24.24">Expected Value in arctan(x) (Two-Coin Special Case) Algorithm</text>
   </g>
   <g id="legend_1">
    <g id="patch_7">
     <path d="M 47.5 219.28 
L 344.684375 219.28 
Q 346.684375 219.28 346.684375 217.28 
L 346.684375 188.92375 
Q 346.684375 186.92375 344.684375 186.92375 
L 47.5 186.92375 
Q 45.5 186.92375 45.5 188.92375 
L 45.5 217.28 
Q 45.5 219.28 47.5 219.28 
z
" style="fill:#ffffff;opacity:0.8;stroke:#cccccc;stroke-linejoin:miter;"/>
    </g>
    <g id="line2d_18">
     <path d="M 49.5 195.022188 
L 69.5 195.022188 
" style="fill:none;stroke:#1f77b4;stroke-linecap:square;stroke-width:1.5;"/>
    </g>
    <g id="line2d_19"/>
    <g id="text_19">
     <text style="font-family:DejaVu Sans;font-size:10px;font-style:normal;font-weight:normal;text-anchor:start;" transform="rotate(-0, 77.5, 198.522188)" x="77.5" y="198.522188">arctan(x)</text>
    </g>
    <g id="line2d_20">
     <path d="M 49.5 209.700312 
L 69.5 209.700312 
" style="fill:none;stroke:#ff7f0e;stroke-linecap:square;stroke-width:1.5;"/>
    </g>
    <g id="line2d_21"/>
    <g id="text_20">
     <text style="font-family:DejaVu Sans;font-size:10px;font-style:normal;font-weight:normal;text-anchor:start;" transform="rotate(-0, 77.5, 213.200312)" x="77.5" y="213.200312">Simulated Mean of arctan(x) (Two-Coin Special Case)</text>
    </g>
   </g>
  </g>
 </g>
 <defs>
  <clipPath id="pb4f2c0ccdf">
   <rect height="194.04" width="251.1" x="40.5" y="30.24"/>
  </clipPath>
 </defs>
</svg>
