<?xml version="1.0" encoding="utf-8" standalone="no"?>
<!DOCTYPE svg PUBLIC "-//W3C//DTD SVG 1.1//EN"
  "http://www.w3.org/Graphics/SVG/1.1/DTD/svg11.dtd">
<!-- Created with matplotlib (https://matplotlib.org/) -->
<svg height="252pt" version="1.1" viewBox="0 0 324 252" width="324pt" xmlns="http://www.w3.org/2000/svg" xmlns:xlink="http://www.w3.org/1999/xlink">
 <defs>
  <style type="text/css">
*{stroke-linecap:butt;stroke-linejoin:round;}
  </style>
 </defs>
 <g id="figure_1">
  <g id="patch_1">
   <path d="M 0 252 
L 324 252 
L 324 0 
L 0 0 
z
" style="fill:#ffffff;"/>
  </g>
  <g id="axes_1">
   <g id="patch_2">
    <path d="M 40.5 224.28 
L 291.6 224.28 
L 291.6 30.24 
L 40.5 30.24 
z
" style="fill:#ffffff;"/>
   </g>
   <g id="matplotlib.axis_1">
    <g id="xtick_1">
     <g id="line2d_1">
      <defs>
       <path d="M 0 0 
L 0 3.5 
" id="m95dd78f5eb" style="stroke:#000000;stroke-width:0.8;"/>
      </defs>
      <g>
       <use style="stroke:#000000;stroke-width:0.8;" x="51.890805" xlink:href="#m95dd78f5eb" y="224.28"/>
      </g>
     </g>
     <g id="text_1">
      <text style="font-family:DejaVu Sans;font-size:10px;font-style:normal;font-weight:normal;text-anchor:middle;" transform="rotate(-0, 51.890805, 238.878438)" x="51.890805" y="238.878438">0.0</text>
     </g>
    </g>
    <g id="xtick_2">
     <g id="line2d_2">
      <g>
       <use style="stroke:#000000;stroke-width:0.8;" x="97.554483" xlink:href="#m95dd78f5eb" y="224.28"/>
      </g>
     </g>
     <g id="text_2">
      <text style="font-family:DejaVu Sans;font-size:10px;font-style:normal;font-weight:normal;text-anchor:middle;" transform="rotate(-0, 97.554483, 238.878438)" x="97.554483" y="238.878438">0.2</text>
     </g>
    </g>
    <g id="xtick_3">
     <g id="line2d_3">
      <g>
       <use style="stroke:#000000;stroke-width:0.8;" x="143.218161" xlink:href="#m95dd78f5eb" y="224.28"/>
      </g>
     </g>
     <g id="text_3">
      <text style="font-family:DejaVu Sans;font-size:10px;font-style:normal;font-weight:normal;text-anchor:middle;" transform="rotate(-0, 143.218161, 238.878438)" x="143.218161" y="238.878438">0.4</text>
     </g>
    </g>
    <g id="xtick_4">
     <g id="line2d_4">
      <g>
       <use style="stroke:#000000;stroke-width:0.8;" x="188.881839" xlink:href="#m95dd78f5eb" y="224.28"/>
      </g>
     </g>
     <g id="text_4">
      <text style="font-family:DejaVu Sans;font-size:10px;font-style:normal;font-weight:normal;text-anchor:middle;" transform="rotate(-0, 188.881839, 238.878438)" x="188.881839" y="238.878438">0.6</text>
     </g>
    </g>
    <g id="xtick_5">
     <g id="line2d_5">
      <g>
       <use style="stroke:#000000;stroke-width:0.8;" x="234.545517" xlink:href="#m95dd78f5eb" y="224.28"/>
      </g>
     </g>
     <g id="text_5">
      <text style="font-family:DejaVu Sans;font-size:10px;font-style:normal;font-weight:normal;text-anchor:middle;" transform="rotate(-0, 234.545517, 238.878438)" x="234.545517" y="238.878438">0.8</text>
     </g>
    </g>
    <g id="xtick_6">
     <g id="line2d_6">
      <g>
       <use style="stroke:#000000;stroke-width:0.8;" x="280.209195" xlink:href="#m95dd78f5eb" y="224.28"/>
      </g>
     </g>
     <g id="text_6">
      <text style="font-family:DejaVu Sans;font-size:10px;font-style:normal;font-weight:normal;text-anchor:middle;" transform="rotate(-0, 280.209195, 238.878438)" x="280.209195" y="238.878438">1.0</text>
     </g>
    </g>
    <g id="text_7">
     <text style="font-family:DejaVu Sans;font-size:10px;font-style:normal;font-weight:normal;text-anchor:middle;" transform="rotate(-0, 166.05, 252.556563)" x="166.05" y="252.556563">Probability</text>
    </g>
   </g>
   <g id="matplotlib.axis_2">
    <g id="ytick_1">
     <g id="line2d_7">
      <defs>
       <path d="M 0 0 
L -3.5 0 
" id="m022733480e" style="stroke:#000000;stroke-width:0.8;"/>
      </defs>
      <g>
       <use style="stroke:#000000;stroke-width:0.8;" x="40.5" xlink:href="#m022733480e" y="193.247629"/>
      </g>
     </g>
     <g id="text_8">
      <text style="font-family:DejaVu Sans;font-size:10px;font-style:normal;font-weight:normal;text-anchor:end;" transform="rotate(-0, 33.5, 197.046848)" x="33.5" y="197.046848">7.0</text>
     </g>
    </g>
    <g id="ytick_2">
     <g id="line2d_8">
      <g>
       <use style="stroke:#000000;stroke-width:0.8;" x="40.5" xlink:href="#m022733480e" y="160.773402"/>
      </g>
     </g>
     <g id="text_9">
      <text style="font-family:DejaVu Sans;font-size:10px;font-style:normal;font-weight:normal;text-anchor:end;" transform="rotate(-0, 33.5, 164.572621)" x="33.5" y="164.572621">7.5</text>
     </g>
    </g>
    <g id="ytick_3">
     <g id="line2d_9">
      <g>
       <use style="stroke:#000000;stroke-width:0.8;" x="40.5" xlink:href="#m022733480e" y="128.299175"/>
      </g>
     </g>
     <g id="text_10">
      <text style="font-family:DejaVu Sans;font-size:10px;font-style:normal;font-weight:normal;text-anchor:end;" transform="rotate(-0, 33.5, 132.098394)" x="33.5" y="132.098394">8.0</text>
     </g>
    </g>
    <g id="ytick_4">
     <g id="line2d_10">
      <g>
       <use style="stroke:#000000;stroke-width:0.8;" x="40.5" xlink:href="#m022733480e" y="95.824948"/>
      </g>
     </g>
     <g id="text_11">
      <text style="font-family:DejaVu Sans;font-size:10px;font-style:normal;font-weight:normal;text-anchor:end;" transform="rotate(-0, 33.5, 99.624167)" x="33.5" y="99.624167">8.5</text>
     </g>
    </g>
    <g id="ytick_5">
     <g id="line2d_11">
      <g>
       <use style="stroke:#000000;stroke-width:0.8;" x="40.5" xlink:href="#m022733480e" y="63.350722"/>
      </g>
     </g>
     <g id="text_12">
      <text style="font-family:DejaVu Sans;font-size:10px;font-style:normal;font-weight:normal;text-anchor:end;" transform="rotate(-0, 33.5, 67.14994)" x="33.5" y="67.14994">9.0</text>
     </g>
    </g>
    <g id="ytick_6">
     <g id="line2d_12">
      <g>
       <use style="stroke:#000000;stroke-width:0.8;" x="40.5" xlink:href="#m022733480e" y="30.876495"/>
      </g>
     </g>
     <g id="text_13">
      <text style="font-family:DejaVu Sans;font-size:10px;font-style:normal;font-weight:normal;text-anchor:end;" transform="rotate(-0, 33.5, 34.675714)" x="33.5" y="34.675714">9.5</text>
     </g>
    </g>
    <g id="text_14">
     <text style="font-family:DejaVu Sans;font-size:10px;font-style:normal;font-weight:normal;text-anchor:middle;" transform="rotate(-90, 11.517187, 127.26)" x="11.517187" y="127.26">Average Bits Consumed Per Call</text>
    </g>
   </g>
   <g id="line2d_13">
    <path clip-path="url(#p6eb003ad9f)" d="M 51.913636 45.554845 
L 54.219421 69.066186 
L 56.525207 106.086804 
L 58.830992 72.053814 
L 61.136777 89.330103 
L 63.442562 95.954845 
L 65.748347 66.078557 
L 68.054132 79.328041 
L 70.359917 59.323918 
L 72.665702 134.014639 
L 74.971488 89.849691 
L 77.277273 39.06 
L 79.583058 108.814639 
L 81.888843 63.480619 
L 84.194628 80.497113 
L 86.500413 99.851753 
L 88.806198 74.911546 
L 91.111983 73.09299 
L 93.417769 121.934227 
L 95.723554 59.973402 
L 98.029339 141.158969 
L 100.335124 78.029072 
L 102.640909 65.818763 
L 104.946694 103.488866 
L 107.252479 68.286804 
L 109.558264 86.08268 
L 111.86405 68.416701 
L 114.169835 61.012577 
L 116.47562 141.158969 
L 118.781405 121.024948 
L 121.08719 100.501237 
L 123.392975 77.769278 
L 125.69876 79.847629 
L 128.004545 94.266186 
L 130.310331 112.191959 
L 132.616116 85.952784 
L 134.921901 102.579588 
L 137.227686 93.22701 
L 139.533471 126.480619 
L 141.839256 101.670309 
L 144.145041 76.470309 
L 146.450826 103.618763 
L 148.756612 101.670309 
L 151.062397 118.03732 
L 153.368182 60.49299 
L 155.673967 140.249691 
L 157.979752 103.618763 
L 160.285537 113.750722 
L 162.591322 93.22701 
L 164.897107 107.905361 
L 167.202893 120.11567 
L 169.508678 134.794021 
L 171.814463 110.503299 
L 174.120248 102.189897 
L 176.426033 120.375464 
L 178.731818 119.336289 
L 181.037603 107.385773 
L 183.343388 95.565155 
L 185.649174 117.257938 
L 187.954959 132.325979 
L 190.260744 128.94866 
L 192.566529 84.134227 
L 194.872314 139.210515 
L 197.178099 141.158969 
L 199.483884 113.101237 
L 201.789669 136.352784 
L 204.095455 147.783711 
L 206.40124 128.688866 
L 208.707025 141.808454 
L 211.01281 131.416701 
L 213.318595 135.963093 
L 215.62438 106.216701 
L 217.930165 136.742474 
L 220.23595 164.020825 
L 222.541736 133.884742 
L 224.847521 140.119794 
L 227.153306 148.563093 
L 229.459091 149.212577 
L 231.764876 172.074433 
L 234.070661 155.707423 
L 236.376446 187.012577 
L 238.682231 182.336289 
L 240.988017 142.587835 
L 243.293802 154.278557 
L 245.599587 168.43732 
L 247.905372 178.439381 
L 250.211157 157.396082 
L 252.516942 145.965155 
L 254.822727 201.431134 
L 257.128512 206.107423 
L 259.434298 169.216701 
L 261.740083 200.002268 
L 264.045868 137.911546 
L 266.351653 180.517732 
L 268.657438 215.46 
L 270.963223 211.433196 
L 273.269008 194.806392 
L 275.574793 183.245567 
L 277.880579 166.618763 
L 280.186364 188.961031 
" style="fill:none;stroke:#1f77b4;stroke-linecap:square;stroke-width:1.5;"/>
   </g>
   <g id="patch_3">
    <path d="M 40.5 224.28 
L 40.5 30.24 
" style="fill:none;stroke:#000000;stroke-linecap:square;stroke-linejoin:miter;stroke-width:0.8;"/>
   </g>
   <g id="patch_4">
    <path d="M 291.6 224.28 
L 291.6 30.24 
" style="fill:none;stroke:#000000;stroke-linecap:square;stroke-linejoin:miter;stroke-width:0.8;"/>
   </g>
   <g id="patch_5">
    <path d="M 40.5 224.28 
L 291.6 224.28 
" style="fill:none;stroke:#000000;stroke-linecap:square;stroke-linejoin:miter;stroke-width:0.8;"/>
   </g>
   <g id="patch_6">
    <path d="M 40.5 30.24 
L 291.6 30.24 
" style="fill:none;stroke:#000000;stroke-linecap:square;stroke-linejoin:miter;stroke-width:0.8;"/>
   </g>
   <g id="text_15">
    <text style="font-family:DejaVu Sans;font-size:12px;font-style:normal;font-weight:normal;text-anchor:middle;" transform="rotate(-0, 166.05, 24.24)" x="166.05" y="24.24">Avg. Bits Consumed by arctan(x) (Two-Coin Special Case) Algorithm</text>
   </g>
  </g>
 </g>
 <defs>
  <clipPath id="p6eb003ad9f">
   <rect height="194.04" width="251.1" x="40.5" y="30.24"/>
  </clipPath>
 </defs>
</svg>
