<?xml version="1.0" encoding="utf-8" standalone="no"?>
<!DOCTYPE svg PUBLIC "-//W3C//DTD SVG 1.1//EN"
  "http://www.w3.org/Graphics/SVG/1.1/DTD/svg11.dtd">
<!-- Created with matplotlib (https://matplotlib.org/) -->
<svg height="252pt" version="1.1" viewBox="0 0 324 252" width="324pt" xmlns="http://www.w3.org/2000/svg" xmlns:xlink="http://www.w3.org/1999/xlink">
 <defs>
  <style type="text/css">
*{stroke-linecap:butt;stroke-linejoin:round;}
  </style>
 </defs>
 <g id="figure_1">
  <g id="patch_1">
   <path d="M 0 252 
L 324 252 
L 324 0 
L 0 0 
z
" style="fill:#ffffff;"/>
  </g>
  <g id="axes_1">
   <g id="patch_2">
    <path d="M 40.5 224.28 
L 291.6 224.28 
L 291.6 30.24 
L 40.5 30.24 
z
" style="fill:#ffffff;"/>
   </g>
   <g id="matplotlib.axis_1">
    <g id="xtick_1">
     <g id="line2d_1">
      <defs>
       <path d="M 0 0 
L 0 3.5 
" id="m4b9d72ef6f" style="stroke:#000000;stroke-width:0.8;"/>
      </defs>
      <g>
       <use style="stroke:#000000;stroke-width:0.8;" x="51.890805" xlink:href="#m4b9d72ef6f" y="224.28"/>
      </g>
     </g>
     <g id="text_1">
      <text style="font-family:DejaVu Sans;font-size:10px;font-style:normal;font-weight:normal;text-anchor:middle;" transform="rotate(-0, 51.890805, 238.878438)" x="51.890805" y="238.878438">0.0</text>
     </g>
    </g>
    <g id="xtick_2">
     <g id="line2d_2">
      <g>
       <use style="stroke:#000000;stroke-width:0.8;" x="97.554483" xlink:href="#m4b9d72ef6f" y="224.28"/>
      </g>
     </g>
     <g id="text_2">
      <text style="font-family:DejaVu Sans;font-size:10px;font-style:normal;font-weight:normal;text-anchor:middle;" transform="rotate(-0, 97.554483, 238.878438)" x="97.554483" y="238.878438">0.2</text>
     </g>
    </g>
    <g id="xtick_3">
     <g id="line2d_3">
      <g>
       <use style="stroke:#000000;stroke-width:0.8;" x="143.218161" xlink:href="#m4b9d72ef6f" y="224.28"/>
      </g>
     </g>
     <g id="text_3">
      <text style="font-family:DejaVu Sans;font-size:10px;font-style:normal;font-weight:normal;text-anchor:middle;" transform="rotate(-0, 143.218161, 238.878438)" x="143.218161" y="238.878438">0.4</text>
     </g>
    </g>
    <g id="xtick_4">
     <g id="line2d_4">
      <g>
       <use style="stroke:#000000;stroke-width:0.8;" x="188.881839" xlink:href="#m4b9d72ef6f" y="224.28"/>
      </g>
     </g>
     <g id="text_4">
      <text style="font-family:DejaVu Sans;font-size:10px;font-style:normal;font-weight:normal;text-anchor:middle;" transform="rotate(-0, 188.881839, 238.878438)" x="188.881839" y="238.878438">0.6</text>
     </g>
    </g>
    <g id="xtick_5">
     <g id="line2d_5">
      <g>
       <use style="stroke:#000000;stroke-width:0.8;" x="234.545517" xlink:href="#m4b9d72ef6f" y="224.28"/>
      </g>
     </g>
     <g id="text_5">
      <text style="font-family:DejaVu Sans;font-size:10px;font-style:normal;font-weight:normal;text-anchor:middle;" transform="rotate(-0, 234.545517, 238.878438)" x="234.545517" y="238.878438">0.8</text>
     </g>
    </g>
    <g id="xtick_6">
     <g id="line2d_6">
      <g>
       <use style="stroke:#000000;stroke-width:0.8;" x="280.209195" xlink:href="#m4b9d72ef6f" y="224.28"/>
      </g>
     </g>
     <g id="text_6">
      <text style="font-family:DejaVu Sans;font-size:10px;font-style:normal;font-weight:normal;text-anchor:middle;" transform="rotate(-0, 280.209195, 238.878438)" x="280.209195" y="238.878438">1.0</text>
     </g>
    </g>
    <g id="text_7">
     <text style="font-family:DejaVu Sans;font-size:10px;font-style:normal;font-weight:normal;text-anchor:middle;" transform="rotate(-0, 166.05, 252.556563)" x="166.05" y="252.556563">Input Coin's Heads Probability (λ)</text>
    </g>
   </g>
   <g id="matplotlib.axis_2">
    <g id="ytick_1">
     <g id="line2d_7">
      <defs>
       <path d="M 0 0 
L -3.5 0 
" id="ma9534a1660" style="stroke:#000000;stroke-width:0.8;"/>
      </defs>
      <g>
       <use style="stroke:#000000;stroke-width:0.8;" x="40.5" xlink:href="#ma9534a1660" y="215.46"/>
      </g>
     </g>
     <g id="text_8">
      <text style="font-family:DejaVu Sans;font-size:10px;font-style:normal;font-weight:normal;text-anchor:end;" transform="rotate(-0, 33.5, 219.259219)" x="33.5" y="219.259219">0.0</text>
     </g>
    </g>
    <g id="ytick_2">
     <g id="line2d_8">
      <g>
       <use style="stroke:#000000;stroke-width:0.8;" x="40.5" xlink:href="#ma9534a1660" y="193.895208"/>
      </g>
     </g>
     <g id="text_9">
      <text style="font-family:DejaVu Sans;font-size:10px;font-style:normal;font-weight:normal;text-anchor:end;" transform="rotate(-0, 33.5, 197.694427)" x="33.5" y="197.694427">0.1</text>
     </g>
    </g>
    <g id="ytick_3">
     <g id="line2d_9">
      <g>
       <use style="stroke:#000000;stroke-width:0.8;" x="40.5" xlink:href="#ma9534a1660" y="172.330416"/>
      </g>
     </g>
     <g id="text_10">
      <text style="font-family:DejaVu Sans;font-size:10px;font-style:normal;font-weight:normal;text-anchor:end;" transform="rotate(-0, 33.5, 176.129634)" x="33.5" y="176.129634">0.2</text>
     </g>
    </g>
    <g id="ytick_4">
     <g id="line2d_10">
      <g>
       <use style="stroke:#000000;stroke-width:0.8;" x="40.5" xlink:href="#ma9534a1660" y="150.765623"/>
      </g>
     </g>
     <g id="text_11">
      <text style="font-family:DejaVu Sans;font-size:10px;font-style:normal;font-weight:normal;text-anchor:end;" transform="rotate(-0, 33.5, 154.564842)" x="33.5" y="154.564842">0.3</text>
     </g>
    </g>
    <g id="ytick_5">
     <g id="line2d_11">
      <g>
       <use style="stroke:#000000;stroke-width:0.8;" x="40.5" xlink:href="#ma9534a1660" y="129.200831"/>
      </g>
     </g>
     <g id="text_12">
      <text style="font-family:DejaVu Sans;font-size:10px;font-style:normal;font-weight:normal;text-anchor:end;" transform="rotate(-0, 33.5, 133.00005)" x="33.5" y="133.00005">0.4</text>
     </g>
    </g>
    <g id="ytick_6">
     <g id="line2d_12">
      <g>
       <use style="stroke:#000000;stroke-width:0.8;" x="40.5" xlink:href="#ma9534a1660" y="107.636039"/>
      </g>
     </g>
     <g id="text_13">
      <text style="font-family:DejaVu Sans;font-size:10px;font-style:normal;font-weight:normal;text-anchor:end;" transform="rotate(-0, 33.5, 111.435258)" x="33.5" y="111.435258">0.5</text>
     </g>
    </g>
    <g id="ytick_7">
     <g id="line2d_13">
      <g>
       <use style="stroke:#000000;stroke-width:0.8;" x="40.5" xlink:href="#ma9534a1660" y="86.071247"/>
      </g>
     </g>
     <g id="text_14">
      <text style="font-family:DejaVu Sans;font-size:10px;font-style:normal;font-weight:normal;text-anchor:end;" transform="rotate(-0, 33.5, 89.870466)" x="33.5" y="89.870466">0.6</text>
     </g>
    </g>
    <g id="ytick_8">
     <g id="line2d_14">
      <g>
       <use style="stroke:#000000;stroke-width:0.8;" x="40.5" xlink:href="#ma9534a1660" y="64.506455"/>
      </g>
     </g>
     <g id="text_15">
      <text style="font-family:DejaVu Sans;font-size:10px;font-style:normal;font-weight:normal;text-anchor:end;" transform="rotate(-0, 33.5, 68.305674)" x="33.5" y="68.305674">0.7</text>
     </g>
    </g>
    <g id="ytick_9">
     <g id="line2d_15">
      <g>
       <use style="stroke:#000000;stroke-width:0.8;" x="40.5" xlink:href="#ma9534a1660" y="42.941663"/>
      </g>
     </g>
     <g id="text_16">
      <text style="font-family:DejaVu Sans;font-size:10px;font-style:normal;font-weight:normal;text-anchor:end;" transform="rotate(-0, 33.5, 46.740881)" x="33.5" y="46.740881">0.8</text>
     </g>
    </g>
    <g id="text_17">
     <text style="font-family:DejaVu Sans;font-size:10px;font-style:normal;font-weight:normal;text-anchor:middle;" transform="rotate(-90, 11.517187, 127.26)" x="11.517187" y="127.26">Simulated Mean / Function Value</text>
    </g>
   </g>
   <g id="line2d_16">
    <path clip-path="url(#p61c20605bd)" d="M 52.119123 215.244352 
L 54.420757 213.070545 
L 56.722391 210.897222 
L 59.024025 208.724827 
L 61.325658 206.553798 
L 63.627292 204.384574 
L 65.928926 202.217591 
L 68.23056 200.053282 
L 70.532194 197.892077 
L 72.833828 195.734404 
L 75.135462 193.580683 
L 77.437096 191.431334 
L 79.738729 189.286767 
L 82.040363 187.14739 
L 84.341997 185.013604 
L 86.643631 182.885802 
L 88.945265 180.764373 
L 91.246899 178.649695 
L 93.548533 176.542142 
L 95.850167 174.442079 
L 98.151801 172.349861 
L 100.453434 170.265836 
L 102.755068 168.190343 
L 105.056702 166.123712 
L 107.358336 164.066264 
L 109.65997 162.018309 
L 111.961604 159.980148 
L 114.263238 157.952074 
L 116.564872 155.934367 
L 118.866505 153.927298 
L 121.168139 151.931129 
L 123.469773 149.94611 
L 125.771407 147.972481 
L 128.073041 146.010474 
L 130.374675 144.060306 
L 132.676309 142.122188 
L 134.977943 140.196318 
L 137.279576 138.282885 
L 139.58121 136.382067 
L 141.882844 134.494032 
L 144.184478 132.618937 
L 146.486112 130.756932 
L 148.787746 128.908155 
L 151.08938 127.072732 
L 153.391014 125.250785 
L 155.692648 123.442421 
L 157.994281 121.647741 
L 160.295915 119.866836 
L 162.597549 118.099788 
L 164.899183 116.346671 
L 167.200817 114.607549 
L 169.502451 112.882479 
L 171.804085 111.17151 
L 174.105719 109.474681 
L 176.407352 107.792027 
L 178.708986 106.123572 
L 181.01062 104.469335 
L 183.312254 102.829326 
L 185.613888 101.203552 
L 187.915522 99.592008 
L 190.217156 97.994687 
L 192.51879 96.411575 
L 194.820424 94.842651 
L 197.122057 93.287888 
L 199.423691 91.747257 
L 201.725325 90.220719 
L 204.026959 88.708233 
L 206.328593 87.209753 
L 208.630227 85.725229 
L 210.931861 84.254604 
L 213.233495 82.797819 
L 215.535128 81.354811 
L 217.836762 79.925513 
L 220.138396 78.509854 
L 222.44003 77.10776 
L 224.741664 75.719154 
L 227.043298 74.343956 
L 229.344932 72.982082 
L 231.646566 71.633447 
L 233.948199 70.297963 
L 236.249833 68.97554 
L 238.551467 67.666084 
L 240.853101 66.369501 
L 243.154735 65.085695 
L 245.456369 63.814568 
L 247.758003 62.556018 
L 250.059637 61.309946 
L 252.361271 60.076248 
L 254.662904 58.854821 
L 256.964538 57.645559 
L 259.266172 56.448357 
L 261.567806 55.263109 
L 263.86944 54.089705 
L 266.171074 52.928038 
L 268.472708 51.778 
L 270.774342 50.639481 
L 273.075975 49.512371 
L 275.377609 48.39656 
L 277.679243 47.291939 
L 279.980877 46.198396 
" style="fill:none;stroke:#1f77b4;stroke-linecap:square;stroke-width:1.5;"/>
   </g>
   <g id="line2d_17">
    <path clip-path="url(#p61c20605bd)" d="M 51.913636 215.46 
L 54.219421 213.734817 
L 56.525207 209.853154 
L 58.830992 212.872225 
L 61.136777 205.540196 
L 63.442562 204.246308 
L 65.748347 201.658533 
L 68.054132 201.227237 
L 70.359917 197.77687 
L 72.665702 200.795941 
L 74.971488 197.345575 
L 77.277273 192.170024 
L 79.583058 185.700587 
L 81.888843 183.975403 
L 84.194628 186.131883 
L 86.500413 182.681516 
L 88.806198 179.231149 
L 91.111983 184.837995 
L 93.417769 172.761711 
L 95.723554 174.918191 
L 98.029339 171.036528 
L 100.335124 169.742641 
L 102.640909 166.292274 
L 104.946694 158.097653 
L 107.252479 166.72357 
L 109.558264 166.292274 
L 111.86405 156.372469 
L 114.169835 149.471736 
L 116.47562 158.097653 
L 118.781405 154.21599 
L 121.08719 153.353399 
L 123.392975 154.21599 
L 125.69876 144.296186 
L 128.004545 147.315257 
L 130.310331 149.903032 
L 132.616116 138.258044 
L 134.921901 145.590073 
L 137.227686 131.357311 
L 139.533471 137.395452 
L 141.839256 141.708411 
L 144.145041 132.219902 
L 146.450826 127.044352 
L 148.756612 125.319169 
L 151.062397 131.357311 
L 153.368182 116.693252 
L 155.673967 122.731394 
L 157.979752 117.555844 
L 160.285537 107.636039 
L 162.591322 108.929927 
L 164.897107 115.399364 
L 167.202893 117.555844 
L 169.508678 105.910856 
L 171.814463 108.067335 
L 174.120248 108.929927 
L 176.426033 111.517702 
L 178.731818 101.597897 
L 181.037603 99.872714 
L 183.343388 110.65511 
L 185.649174 98.578826 
L 187.954959 104.185672 
L 190.260744 96.853643 
L 192.566529 103.754377 
L 194.872314 86.071247 
L 197.178099 90.384205 
L 199.483884 99.010122 
L 201.789669 88.659022 
L 204.095455 81.326993 
L 206.40124 92.97198 
L 208.707025 77.44533 
L 211.01281 83.052176 
L 213.318595 87.79643 
L 215.62438 86.502543 
L 217.930165 83.483472 
L 220.23595 80.895697 
L 222.541736 72.701076 
L 224.847521 81.758289 
L 227.153306 76.582738 
L 229.459091 67.525526 
L 231.764876 69.250709 
L 234.070661 68.819413 
L 236.376446 67.956822 
L 238.682231 66.662934 
L 240.988017 62.349976 
L 243.293802 65.800342 
L 245.599587 61.91868 
L 247.905372 66.231638 
L 250.211157 64.075159 
L 252.516942 54.155355 
L 254.822727 59.7622 
L 257.128512 53.724059 
L 259.434298 58.899609 
L 261.740083 57.605721 
L 264.045868 47.254621 
L 266.351653 52.430171 
L 268.657438 52.861467 
L 270.963223 54.155355 
L 273.269008 51.136284 
L 275.574793 45.098142 
L 277.880579 39.06 
L 280.186364 51.136284 
" style="fill:none;stroke:#ff7f0e;stroke-linecap:square;stroke-width:1.5;"/>
   </g>
   <g id="patch_3">
    <path d="M 40.5 224.28 
L 40.5 30.24 
" style="fill:none;stroke:#000000;stroke-linecap:square;stroke-linejoin:miter;stroke-width:0.8;"/>
   </g>
   <g id="patch_4">
    <path d="M 291.6 224.28 
L 291.6 30.24 
" style="fill:none;stroke:#000000;stroke-linecap:square;stroke-linejoin:miter;stroke-width:0.8;"/>
   </g>
   <g id="patch_5">
    <path d="M 40.5 224.28 
L 291.6 224.28 
" style="fill:none;stroke:#000000;stroke-linecap:square;stroke-linejoin:miter;stroke-width:0.8;"/>
   </g>
   <g id="patch_6">
    <path d="M 40.5 30.24 
L 291.6 30.24 
" style="fill:none;stroke:#000000;stroke-linecap:square;stroke-linejoin:miter;stroke-width:0.8;"/>
   </g>
   <g id="text_18">
    <text style="font-family:DejaVu Sans;font-size:12px;font-style:normal;font-weight:normal;text-anchor:middle;" transform="rotate(-0, 166.05, 24.24)" x="166.05" y="24.24">Expected Value in arctan(x) (Two-Coin Special Case) Algorithm</text>
   </g>
   <g id="legend_1">
    <g id="patch_7">
     <path d="M 47.5 219.28 
L 344.684375 219.28 
Q 346.684375 219.28 346.684375 217.28 
L 346.684375 188.92375 
Q 346.684375 186.92375 344.684375 186.92375 
L 47.5 186.92375 
Q 45.5 186.92375 45.5 188.92375 
L 45.5 217.28 
Q 45.5 219.28 47.5 219.28 
z
" style="fill:#ffffff;opacity:0.8;stroke:#cccccc;stroke-linejoin:miter;"/>
    </g>
    <g id="line2d_18">
     <path d="M 49.5 195.022188 
L 69.5 195.022188 
" style="fill:none;stroke:#1f77b4;stroke-linecap:square;stroke-width:1.5;"/>
    </g>
    <g id="line2d_19"/>
    <g id="text_19">
     <text style="font-family:DejaVu Sans;font-size:10px;font-style:normal;font-weight:normal;text-anchor:start;" transform="rotate(-0, 77.5, 198.522188)" x="77.5" y="198.522188">arctan(x)</text>
    </g>
    <g id="line2d_20">
     <path d="M 49.5 209.700312 
L 69.5 209.700312 
" style="fill:none;stroke:#ff7f0e;stroke-linecap:square;stroke-width:1.5;"/>
    </g>
    <g id="line2d_21"/>
    <g id="text_20">
     <text style="font-family:DejaVu Sans;font-size:10px;font-style:normal;font-weight:normal;text-anchor:start;" transform="rotate(-0, 77.5, 213.200312)" x="77.5" y="213.200312">Simulated Mean of arctan(x) (Two-Coin Special Case)</text>
    </g>
   </g>
  </g>
 </g>
 <defs>
  <clipPath id="p61c20605bd">
   <rect height="194.04" width="251.1" x="40.5" y="30.24"/>
  </clipPath>
 </defs>
</svg>
