<?xml version="1.0" encoding="utf-8" standalone="no"?>
<!DOCTYPE svg PUBLIC "-//W3C//DTD SVG 1.1//EN"
  "http://www.w3.org/Graphics/SVG/1.1/DTD/svg11.dtd">
<!-- Created with matplotlib (https://matplotlib.org/) -->
<svg height="345.6pt" version="1.1" viewBox="0 0 460.8 345.6" width="460.8pt" xmlns="http://www.w3.org/2000/svg" xmlns:xlink="http://www.w3.org/1999/xlink">
 <defs>
  <style type="text/css">
*{stroke-linecap:butt;stroke-linejoin:round;}
  </style>
 </defs>
 <g id="figure_1">
  <g id="patch_1">
   <path d="M 0 345.6 
L 460.8 345.6 
L 460.8 0 
L 0 0 
z
" style="fill:#ffffff;"/>
  </g>
  <g id="axes_1">
   <g id="patch_2">
    <path d="M 57.6 307.584 
L 414.72 307.584 
L 414.72 41.472 
L 57.6 41.472 
z
" style="fill:#ffffff;"/>
   </g>
   <g id="matplotlib.axis_1">
    <g id="xtick_1">
     <g id="line2d_1">
      <defs>
       <path d="M 0 0 
L 0 3.5 
" id="m589035e043" style="stroke:#000000;stroke-width:0.8;"/>
      </defs>
      <g>
       <use style="stroke:#000000;stroke-width:0.8;" x="73.800255" xlink:href="#m589035e043" y="307.584"/>
      </g>
     </g>
     <g id="text_1">
      <text style="font-family:DejaVu Sans;font-size:10px;font-style:normal;font-weight:normal;text-anchor:middle;" transform="rotate(-0, 73.800255, 322.182437)" x="73.800255" y="322.182437">0.0</text>
     </g>
    </g>
    <g id="xtick_2">
     <g id="line2d_2">
      <g>
       <use style="stroke:#000000;stroke-width:0.8;" x="138.744153" xlink:href="#m589035e043" y="307.584"/>
      </g>
     </g>
     <g id="text_2">
      <text style="font-family:DejaVu Sans;font-size:10px;font-style:normal;font-weight:normal;text-anchor:middle;" transform="rotate(-0, 138.744153, 322.182437)" x="138.744153" y="322.182437">0.2</text>
     </g>
    </g>
    <g id="xtick_3">
     <g id="line2d_3">
      <g>
       <use style="stroke:#000000;stroke-width:0.8;" x="203.688051" xlink:href="#m589035e043" y="307.584"/>
      </g>
     </g>
     <g id="text_3">
      <text style="font-family:DejaVu Sans;font-size:10px;font-style:normal;font-weight:normal;text-anchor:middle;" transform="rotate(-0, 203.688051, 322.182437)" x="203.688051" y="322.182437">0.4</text>
     </g>
    </g>
    <g id="xtick_4">
     <g id="line2d_4">
      <g>
       <use style="stroke:#000000;stroke-width:0.8;" x="268.631949" xlink:href="#m589035e043" y="307.584"/>
      </g>
     </g>
     <g id="text_4">
      <text style="font-family:DejaVu Sans;font-size:10px;font-style:normal;font-weight:normal;text-anchor:middle;" transform="rotate(-0, 268.631949, 322.182437)" x="268.631949" y="322.182437">0.6</text>
     </g>
    </g>
    <g id="xtick_5">
     <g id="line2d_5">
      <g>
       <use style="stroke:#000000;stroke-width:0.8;" x="333.575847" xlink:href="#m589035e043" y="307.584"/>
      </g>
     </g>
     <g id="text_5">
      <text style="font-family:DejaVu Sans;font-size:10px;font-style:normal;font-weight:normal;text-anchor:middle;" transform="rotate(-0, 333.575847, 322.182437)" x="333.575847" y="322.182437">0.8</text>
     </g>
    </g>
    <g id="xtick_6">
     <g id="line2d_6">
      <g>
       <use style="stroke:#000000;stroke-width:0.8;" x="398.519745" xlink:href="#m589035e043" y="307.584"/>
      </g>
     </g>
     <g id="text_6">
      <text style="font-family:DejaVu Sans;font-size:10px;font-style:normal;font-weight:normal;text-anchor:middle;" transform="rotate(-0, 398.519745, 322.182437)" x="398.519745" y="322.182437">1.0</text>
     </g>
    </g>
    <g id="text_7">
     <text style="font-family:DejaVu Sans;font-size:10px;font-style:normal;font-weight:normal;text-anchor:middle;" transform="rotate(-0, 236.16, 335.860562)" x="236.16" y="335.860562">Input Coin's Heads Probability (λ)</text>
    </g>
   </g>
   <g id="matplotlib.axis_2">
    <g id="ytick_1">
     <g id="line2d_7">
      <defs>
       <path d="M 0 0 
L -3.5 0 
" id="mdb1795a3b5" style="stroke:#000000;stroke-width:0.8;"/>
      </defs>
      <g>
       <use style="stroke:#000000;stroke-width:0.8;" x="57.6" xlink:href="#mdb1795a3b5" y="295.492078"/>
      </g>
     </g>
     <g id="text_8">
      <text style="font-family:DejaVu Sans;font-size:10px;font-style:normal;font-weight:normal;text-anchor:end;" transform="rotate(-0, 50.6, 299.291297)" x="50.6" y="299.291297">0</text>
     </g>
    </g>
    <g id="ytick_2">
     <g id="line2d_8">
      <g>
       <use style="stroke:#000000;stroke-width:0.8;" x="57.6" xlink:href="#mdb1795a3b5" y="240.496834"/>
      </g>
     </g>
     <g id="text_9">
      <text style="font-family:DejaVu Sans;font-size:10px;font-style:normal;font-weight:normal;text-anchor:end;" transform="rotate(-0, 50.6, 244.296053)" x="50.6" y="244.296053">2</text>
     </g>
    </g>
    <g id="ytick_3">
     <g id="line2d_9">
      <g>
       <use style="stroke:#000000;stroke-width:0.8;" x="57.6" xlink:href="#mdb1795a3b5" y="185.50159"/>
      </g>
     </g>
     <g id="text_10">
      <text style="font-family:DejaVu Sans;font-size:10px;font-style:normal;font-weight:normal;text-anchor:end;" transform="rotate(-0, 50.6, 189.300809)" x="50.6" y="189.300809">4</text>
     </g>
    </g>
    <g id="ytick_4">
     <g id="line2d_10">
      <g>
       <use style="stroke:#000000;stroke-width:0.8;" x="57.6" xlink:href="#mdb1795a3b5" y="130.506346"/>
      </g>
     </g>
     <g id="text_11">
      <text style="font-family:DejaVu Sans;font-size:10px;font-style:normal;font-weight:normal;text-anchor:end;" transform="rotate(-0, 50.6, 134.305565)" x="50.6" y="134.305565">6</text>
     </g>
    </g>
    <g id="ytick_5">
     <g id="line2d_11">
      <g>
       <use style="stroke:#000000;stroke-width:0.8;" x="57.6" xlink:href="#mdb1795a3b5" y="75.511102"/>
      </g>
     </g>
     <g id="text_12">
      <text style="font-family:DejaVu Sans;font-size:10px;font-style:normal;font-weight:normal;text-anchor:end;" transform="rotate(-0, 50.6, 79.310321)" x="50.6" y="79.310321">8</text>
     </g>
    </g>
    <g id="text_13">
     <text style="font-family:DejaVu Sans;font-size:10px;font-style:normal;font-weight:normal;text-anchor:middle;" transform="rotate(-90, 38.157812, 174.528)" x="38.157812" y="174.528">Coin Flips Needed</text>
    </g>
   </g>
   <g id="line2d_12">
    <path clip-path="url(#p3da18efabb)" d="M 73.832727 267.994457 
L 77.112066 267.999233 
L 80.391405 268.013406 
L 83.670744 268.037014 
L 86.950083 268.07008 
L 90.229421 268.112613 
L 93.50876 268.16461 
L 96.788099 268.226056 
L 100.067438 268.29692 
L 103.346777 268.37716 
L 106.626116 268.46672 
L 109.905455 268.565532 
L 113.184793 268.673517 
L 116.464132 268.790583 
L 119.743471 268.916625 
L 123.02281 269.05153 
L 126.302149 269.195173 
L 129.581488 269.347419 
L 132.860826 269.508121 
L 136.140165 269.677127 
L 139.419504 269.854274 
L 142.698843 270.039391 
L 145.978182 270.2323 
L 149.257521 270.432817 
L 152.53686 270.64075 
L 155.816198 270.855904 
L 159.095537 271.078076 
L 162.374876 271.307061 
L 165.654215 271.542649 
L 168.933554 271.784629 
L 172.212893 272.032785 
L 175.492231 272.2869 
L 178.77157 272.546756 
L 182.050909 272.812136 
L 185.330248 273.082819 
L 188.609587 273.358589 
L 191.888926 273.639227 
L 195.168264 273.924518 
L 198.447603 274.214248 
L 201.726942 274.508206 
L 205.006281 274.806185 
L 208.28562 275.107978 
L 211.564959 275.413386 
L 214.844298 275.722211 
L 218.123636 276.034261 
L 221.402975 276.349348 
L 224.682314 276.667291 
L 227.961653 276.987913 
L 231.240992 277.311042 
L 234.520331 277.636515 
L 237.799669 277.964173 
L 241.079008 278.293863 
L 244.358347 278.62544 
L 247.637686 278.958766 
L 250.917025 279.293709 
L 254.196364 279.630145 
L 257.475702 279.967957 
L 260.755041 280.307036 
L 264.03438 280.647279 
L 267.313719 280.988592 
L 270.593058 281.330889 
L 273.872397 281.67409 
L 277.151736 282.018125 
L 280.431074 282.362931 
L 283.710413 282.708452 
L 286.989752 283.054643 
L 290.269091 283.401464 
L 293.54843 283.748884 
L 296.827769 284.096883 
L 300.107107 284.445445 
L 303.386446 284.794566 
L 306.665785 285.144249 
L 309.945124 285.494506 
L 313.224463 285.845357 
L 316.503802 286.196833 
L 319.78314 286.548972 
L 323.062479 286.901822 
L 326.341818 287.25544 
L 329.621157 287.609894 
L 332.900496 287.965261 
L 336.179835 288.321626 
L 339.459174 288.679089 
L 342.738512 289.037758 
L 346.017851 289.397752 
L 349.29719 289.759202 
L 352.576529 290.122252 
L 355.855868 290.487057 
L 359.135207 290.853788 
L 362.414545 291.222626 
L 365.693884 291.593771 
L 368.973223 291.967435 
L 372.252562 292.343847 
L 375.531901 292.723256 
L 378.81124 293.105926 
L 382.090579 293.492143 
L 385.369917 293.882214 
L 388.649256 294.276467 
L 391.928595 294.675258 
L 395.207934 295.078966 
L 398.487273 295.488 
" style="fill:none;stroke:#1f77b4;stroke-linecap:square;stroke-width:1.5;"/>
   </g>
   <g id="line2d_13">
    <path clip-path="url(#p3da18efabb)" d="M 73.832727 257.65535 
L 77.112066 258.480279 
L 80.391405 257.710346 
L 83.670744 259.965151 
L 86.950083 259.74517 
L 90.229421 257.54536 
L 93.50876 257.710346 
L 96.788099 257.380374 
L 100.067438 259.140222 
L 103.346777 258.920241 
L 106.626116 259.415198 
L 109.905455 258.59027 
L 113.184793 256.610441 
L 116.464132 257.160393 
L 119.743471 258.315293 
L 123.02281 258.150308 
L 126.302149 255.730517 
L 129.581488 258.315293 
L 132.860826 257.875331 
L 136.140165 256.995408 
L 139.419504 258.260298 
L 142.698843 257.050403 
L 145.978182 257.875331 
L 149.257521 255.730517 
L 152.53686 256.665436 
L 155.816198 256.280469 
L 159.095537 255.730517 
L 162.374876 256.830422 
L 165.654215 255.400545 
L 168.933554 255.455541 
L 172.212893 254.795598 
L 175.492231 255.895503 
L 178.77157 255.455541 
L 182.050909 255.125569 
L 185.330248 254.19065 
L 188.609587 255.180564 
L 191.888926 256.170479 
L 195.168264 256.830422 
L 198.447603 253.475712 
L 201.726942 256.280469 
L 205.006281 256.005493 
L 208.28562 255.895503 
L 211.564959 253.585702 
L 214.844298 255.565531 
L 218.123636 253.03575 
L 221.402975 253.695693 
L 224.682314 254.300641 
L 227.961653 254.630612 
L 231.240992 253.530707 
L 234.520331 253.420717 
L 237.799669 251.88085 
L 241.079008 255.290555 
L 244.358347 252.155826 
L 247.637686 253.255731 
L 250.917025 252.375807 
L 254.196364 250.945931 
L 257.475702 253.14574 
L 260.755041 251.440888 
L 264.03438 252.155826 
L 267.313719 252.595788 
L 270.593058 252.815769 
L 273.872397 250.670954 
L 277.151736 250.121002 
L 280.431074 253.640698 
L 283.710413 251.055921 
L 286.989752 250.780945 
L 290.269091 248.856111 
L 293.54843 247.921192 
L 296.827769 249.736035 
L 300.107107 250.615959 
L 303.386446 250.450973 
L 306.665785 253.03575 
L 309.945124 247.096264 
L 313.224463 248.031183 
L 316.503802 247.316245 
L 319.78314 247.37124 
L 323.062479 243.191601 
L 326.341818 245.501402 
L 329.621157 243.906539 
L 332.900496 247.811202 
L 336.179835 241.596739 
L 339.459174 242.421668 
L 342.738512 240.771811 
L 346.017851 246.381325 
L 349.29719 238.077044 
L 352.576529 238.956967 
L 355.855868 238.187034 
L 359.135207 232.962486 
L 362.414545 230.817671 
L 365.693884 228.562866 
L 368.973223 237.417101 
L 372.252562 234.557348 
L 375.531901 226.528042 
L 378.81124 226.418052 
L 382.090579 221.853447 
L 385.369917 211.019384 
L 388.649256 216.573903 
L 391.928595 208.04964 
L 395.207934 176.977328 
L 398.487273 53.568 
" style="fill:none;stroke:#ff7f0e;stroke-linecap:square;stroke-width:1.5;"/>
   </g>
   <g id="patch_3">
    <path d="M 57.6 307.584 
L 57.6 41.472 
" style="fill:none;stroke:#000000;stroke-linecap:square;stroke-linejoin:miter;stroke-width:0.8;"/>
   </g>
   <g id="patch_4">
    <path d="M 414.72 307.584 
L 414.72 41.472 
" style="fill:none;stroke:#000000;stroke-linecap:square;stroke-linejoin:miter;stroke-width:0.8;"/>
   </g>
   <g id="patch_5">
    <path d="M 57.6 307.584 
L 414.72 307.584 
" style="fill:none;stroke:#000000;stroke-linecap:square;stroke-linejoin:miter;stroke-width:0.8;"/>
   </g>
   <g id="patch_6">
    <path d="M 57.6 41.472 
L 414.72 41.472 
" style="fill:none;stroke:#000000;stroke-linecap:square;stroke-linejoin:miter;stroke-width:0.8;"/>
   </g>
   <g id="text_14">
    <text style="font-family:DejaVu Sans;font-size:12px;font-style:normal;font-weight:normal;text-anchor:middle;" transform="rotate(-0, 236.16, 35.472)" x="236.16" y="35.472">Coin Flips for arctan(x)</text>
   </g>
   <g id="legend_1">
    <g id="patch_7">
     <path d="M 64.6 78.82825 
L 284.773438 78.82825 
Q 286.773438 78.82825 286.773438 76.82825 
L 286.773438 48.472 
Q 286.773438 46.472 284.773438 46.472 
L 64.6 46.472 
Q 62.6 46.472 62.6 48.472 
L 62.6 76.82825 
Q 62.6 78.82825 64.6 78.82825 
z
" style="fill:#ffffff;opacity:0.8;stroke:#cccccc;stroke-linejoin:miter;"/>
    </g>
    <g id="line2d_14">
     <path d="M 66.6 54.570437 
L 86.6 54.570437 
" style="fill:none;stroke:#1f77b4;stroke-linecap:square;stroke-width:1.5;"/>
    </g>
    <g id="line2d_15"/>
    <g id="text_15">
     <text style="font-family:DejaVu Sans;font-size:10px;font-style:normal;font-weight:normal;text-anchor:start;" transform="rotate(-0, 94.6, 58.070437)" x="94.6" y="58.070437">Coin Flip Lower Bound</text>
    </g>
    <g id="line2d_16">
     <path d="M 66.6 69.248562 
L 86.6 69.248562 
" style="fill:none;stroke:#ff7f0e;stroke-linecap:square;stroke-width:1.5;"/>
    </g>
    <g id="line2d_17"/>
    <g id="text_16">
     <text style="font-family:DejaVu Sans;font-size:10px;font-style:normal;font-weight:normal;text-anchor:start;" transform="rotate(-0, 94.6, 72.748562)" x="94.6" y="72.748562">Avg. Coins Flipped arctan(x) (Flajolet)</text>
    </g>
   </g>
  </g>
 </g>
 <defs>
  <clipPath id="p3da18efabb">
   <rect height="266.112" width="357.12" x="57.6" y="41.472"/>
  </clipPath>
 </defs>
</svg>
