<svg height="460.8" viewBox="0 0 460.8 345.6" width="614.4" xmlns="http://www.w3.org/2000/svg" xmlns:xlink="http://www.w3.org/1999/xlink"><defs><style>*{stroke-linecap:butt;stroke-linejoin:round}</style></defs><g id="figure_1"><path d="M0 345.6h460.8V0H0z" fill="#fff" id="patch_1"/><g id="axes_1"><path d="M57.6 307.584h357.12V41.472H57.6z" fill="#fff" id="patch_2"/><g id="matplotlib.axis_1"><g id="xtick_1"><g id="line2d_1"><defs><path d="M0 0v3.5" id="m025956dc9e" stroke="#000" stroke-width=".8"/></defs><use x="73.8" xlink:href="#m025956dc9e" y="307.584" stroke="#000" stroke-width=".8"/></g><text x="73.8" y="322.182" font-family="DejaVu Sans" font-size="10" font-weight="400" text-anchor="middle" id="text_1">0.0</text></g><g id="xtick_2"><use x="138.744" xlink:href="#m025956dc9e" y="307.584" stroke="#000" stroke-width=".8" id="line2d_2"/><text x="138.744" y="322.182" font-family="DejaVu Sans" font-size="10" font-weight="400" text-anchor="middle" id="text_2">0.2</text></g><g id="xtick_3"><use x="203.688" xlink:href="#m025956dc9e" y="307.584" stroke="#000" stroke-width=".8" id="line2d_3"/><text x="203.688" y="322.182" font-family="DejaVu Sans" font-size="10" font-weight="400" text-anchor="middle" id="text_3">0.4</text></g><g id="xtick_4"><use x="268.632" xlink:href="#m025956dc9e" y="307.584" stroke="#000" stroke-width=".8" id="line2d_4"/><text x="268.632" y="322.182" font-family="DejaVu Sans" font-size="10" font-weight="400" text-anchor="middle" id="text_4">0.6</text></g><g id="xtick_5"><use x="333.576" xlink:href="#m025956dc9e" y="307.584" stroke="#000" stroke-width=".8" id="line2d_5"/><text x="333.576" y="322.182" font-family="DejaVu Sans" font-size="10" font-weight="400" text-anchor="middle" id="text_5">0.8</text></g><g id="xtick_6"><use x="398.52" xlink:href="#m025956dc9e" y="307.584" stroke="#000" stroke-width=".8" id="line2d_6"/><text x="398.52" y="322.182" font-family="DejaVu Sans" font-size="10" font-weight="400" text-anchor="middle" id="text_6">1.0</text></g><text x="236.16" y="335.861" font-family="DejaVu Sans" font-size="10" font-weight="400" text-anchor="middle" id="text_7">Probability</text></g><g id="matplotlib.axis_2"><g id="ytick_1"><g id="line2d_7"><defs><path d="M0 0h-3.5" id="m16f4132e2c" stroke="#000" stroke-width=".8"/></defs><use x="57.6" xlink:href="#m16f4132e2c" y="286.162" stroke="#000" stroke-width=".8"/></g><text x="50.6" y="289.961" font-family="DejaVu Sans" font-size="10" font-weight="400" text-anchor="end" id="text_8">7.5</text></g><g id="ytick_2"><use x="57.6" xlink:href="#m16f4132e2c" y="251.259" stroke="#000" stroke-width=".8" id="line2d_8"/><text x="50.6" y="255.058" font-family="DejaVu Sans" font-size="10" font-weight="400" text-anchor="end" id="text_9">10.0</text></g><g id="ytick_3"><use x="57.6" xlink:href="#m16f4132e2c" y="216.356" stroke="#000" stroke-width=".8" id="line2d_9"/><text x="50.6" y="220.155" font-family="DejaVu Sans" font-size="10" font-weight="400" text-anchor="end" id="text_10">12.5</text></g><g id="ytick_4"><use x="57.6" xlink:href="#m16f4132e2c" y="181.453" stroke="#000" stroke-width=".8" id="line2d_10"/><text x="50.6" y="185.252" font-family="DejaVu Sans" font-size="10" font-weight="400" text-anchor="end" id="text_11">15.0</text></g><g id="ytick_5"><use x="57.6" xlink:href="#m16f4132e2c" y="146.55" stroke="#000" stroke-width=".8" id="line2d_11"/><text x="50.6" y="150.349" font-family="DejaVu Sans" font-size="10" font-weight="400" text-anchor="end" id="text_12">17.5</text></g><g id="ytick_6"><use x="57.6" xlink:href="#m16f4132e2c" y="111.647" stroke="#000" stroke-width=".8" id="line2d_12"/><text x="50.6" y="115.446" font-family="DejaVu Sans" font-size="10" font-weight="400" text-anchor="end" id="text_13">20.0</text></g><g id="ytick_7"><use x="57.6" xlink:href="#m16f4132e2c" y="76.744" stroke="#000" stroke-width=".8" id="line2d_13"/><text x="50.6" y="80.543" font-family="DejaVu Sans" font-size="10" font-weight="400" text-anchor="end" id="text_14">22.5</text></g><g id="ytick_8"><use x="57.6" xlink:href="#m16f4132e2c" y="41.841" stroke="#000" stroke-width=".8" id="line2d_14"/><text x="50.6" y="45.64" font-family="DejaVu Sans" font-size="10" font-weight="400" text-anchor="end" id="text_15">25.0</text></g><text transform="rotate(-90 22.255 174.528)" x="22.255" y="174.528" font-family="DejaVu Sans" font-size="10" font-weight="400" text-anchor="middle" id="text_16">Average Bits Consumed Per Call</text></g><path clip-path="url(#pa876ba0b3f)" d="M73.833 293.785l3.28-.28 3.278 1.983 3.28-6.283 3.28 1.09 3.278.697 3.28 1.732 3.28-1.061 3.278.167 3.28.559 3.28-.503 3.278-2.736 3.28-1.369 3.28 4.691 3.278-.977 3.28 2.094 3.28-6.003 3.278 2.904 3.28.167 3.28-1.507 3.279.977 3.279-.475 3.28-2.01 3.279 2.038 3.279-.251 3.28 2.206 3.279-3.658 3.279-1.927 3.28 5.194 3.279-3.183 3.279-.587 3.28-.111 3.279.781 3.279-1.926 3.28-2.457 3.279 2.233 3.279.754 3.28 6.953 3.279-11.197 3.279 1.899 3.28-1.536 3.279 6.506 3.279-1.703 3.28-2.876 3.279 2.178 3.279-3.965 3.28 2.652 3.279-5.835 3.279 7.566 3.28-3.574 3.279-3.434 3.279 5.5 3.28-4.858 3.279-.363 3.279.642 3.28-2.317 3.279.642 3.279 3.35 3.28-4.495 3.279.14 3.28-2.68 3.278-4.692 3.28 2.541 3.28-3.015 3.278 8.963 3.28-6.785 3.28-3.072 3.278 2.541 3.28-12.565 3.28 7.623 3.278-2.82 3.28 4.579 3.28-2.709 3.278 4.72 3.28-13.822 3.28 3.518 3.278-4.523 3.28 1.005 3.28-2.039 3.278-2.122 3.28 7.4 3.28-8.545 3.279-7.539 3.279 8.852 3.28-13.738 3.279 7.874 3.279-4.105 3.28.42 3.279-14.046 3.279 5.473 3.28-21.416 3.279 14.184 3.279-9.968 3.28-5.25 3.279-42.442 3.279.643 3.28-1.173 3.279-32.725 3.279 10.554 3.28-94.154" fill="none" stroke="#1f77b4" stroke-linecap="square" stroke-width="1.5" id="line2d_15"/><path d="M57.6 307.584V41.472" fill="none" stroke="#000" stroke-linecap="square" stroke-width=".8" id="patch_3"/><path d="M414.72 307.584V41.472" fill="none" stroke="#000" stroke-linecap="square" stroke-width=".8" id="patch_4"/><path d="M57.6 307.584h357.12" fill="none" stroke="#000" stroke-linecap="square" stroke-width=".8" id="patch_5"/><path d="M57.6 41.472h357.12" fill="none" stroke="#000" stroke-linecap="square" stroke-width=".8" id="patch_6"/><text x="236.16" y="35.472" font-family="DejaVu Sans" font-size="12" font-weight="400" text-anchor="middle" id="text_17">Avg. Bits Consumed by arctan(x) (Flajolet) Algorithm</text><g id="legend_1"><path d="M64.6 64.15h125.008q2 0 2-2V48.472q0-2-2-2H64.6q-2 0-2 2V62.15q0 2 2 2z" fill="#fff" opacity=".8" stroke="#ccc" id="patch_7"/><path d="M66.6 54.57h20" fill="none" stroke="#1f77b4" stroke-linecap="square" stroke-width="1.5" id="line2d_16"/><text x="94.6" y="58.07" font-family="DejaVu Sans" font-size="10" font-weight="400" id="text_18">arctan(x) (Flajolet)</text></g></g></g><defs><clipPath id="pa876ba0b3f"><path d="M57.6 41.472h357.12v266.112H57.6z"/></clipPath></defs></svg>