<svg height="460.8" viewBox="0 0 460.8 345.6" width="614.4" xmlns="http://www.w3.org/2000/svg" xmlns:xlink="http://www.w3.org/1999/xlink"><defs><style>*{stroke-linecap:butt;stroke-linejoin:round}</style></defs><g id="figure_1"><path d="M0 345.6h460.8V0H0z" fill="#fff" id="patch_1"/><g id="axes_1"><path d="M57.6 307.584h357.12V41.472H57.6z" fill="#fff" id="patch_2"/><g id="matplotlib.axis_1"><g id="xtick_1"><g id="line2d_1"><defs><path d="M0 0v3.5" id="m187686ea39" stroke="#000" stroke-width=".8"/></defs><use x="73.8" xlink:href="#m187686ea39" y="307.584" stroke="#000" stroke-width=".8"/></g><text x="73.8" y="322.182" font-family="DejaVu Sans" font-size="10" font-weight="400" text-anchor="middle" id="text_1">0.0</text></g><g id="xtick_2"><use x="138.744" xlink:href="#m187686ea39" y="307.584" stroke="#000" stroke-width=".8" id="line2d_2"/><text x="138.744" y="322.182" font-family="DejaVu Sans" font-size="10" font-weight="400" text-anchor="middle" id="text_2">0.2</text></g><g id="xtick_3"><use x="203.688" xlink:href="#m187686ea39" y="307.584" stroke="#000" stroke-width=".8" id="line2d_3"/><text x="203.688" y="322.182" font-family="DejaVu Sans" font-size="10" font-weight="400" text-anchor="middle" id="text_3">0.4</text></g><g id="xtick_4"><use x="268.632" xlink:href="#m187686ea39" y="307.584" stroke="#000" stroke-width=".8" id="line2d_4"/><text x="268.632" y="322.182" font-family="DejaVu Sans" font-size="10" font-weight="400" text-anchor="middle" id="text_4">0.6</text></g><g id="xtick_5"><use x="333.576" xlink:href="#m187686ea39" y="307.584" stroke="#000" stroke-width=".8" id="line2d_5"/><text x="333.576" y="322.182" font-family="DejaVu Sans" font-size="10" font-weight="400" text-anchor="middle" id="text_5">0.8</text></g><g id="xtick_6"><use x="398.52" xlink:href="#m187686ea39" y="307.584" stroke="#000" stroke-width=".8" id="line2d_6"/><text x="398.52" y="322.182" font-family="DejaVu Sans" font-size="10" font-weight="400" text-anchor="middle" id="text_6">1.0</text></g><text x="236.16" y="335.861" font-family="DejaVu Sans" font-size="10" font-weight="400" text-anchor="middle" id="text_7">Input Coin&apos;s Heads Probability (λ)</text></g><g id="matplotlib.axis_2"><g id="ytick_1"><g id="line2d_7"><defs><path d="M0 0h-3.5" id="m7decbf5bf2" stroke="#000" stroke-width=".8"/></defs><use x="57.6" xlink:href="#m7decbf5bf2" y="295.488" stroke="#000" stroke-width=".8"/></g><text x="50.6" y="299.287" font-family="DejaVu Sans" font-size="10" font-weight="400" text-anchor="end" id="text_8">0.0</text></g><g id="ytick_2"><use x="57.6" xlink:href="#m7decbf5bf2" y="264.865" stroke="#000" stroke-width=".8" id="line2d_8"/><text x="50.6" y="268.664" font-family="DejaVu Sans" font-size="10" font-weight="400" text-anchor="end" id="text_9">0.1</text></g><g id="ytick_3"><use x="57.6" xlink:href="#m7decbf5bf2" y="234.242" stroke="#000" stroke-width=".8" id="line2d_9"/><text x="50.6" y="238.042" font-family="DejaVu Sans" font-size="10" font-weight="400" text-anchor="end" id="text_10">0.2</text></g><g id="ytick_4"><use x="57.6" xlink:href="#m7decbf5bf2" y="203.62" stroke="#000" stroke-width=".8" id="line2d_10"/><text x="50.6" y="207.419" font-family="DejaVu Sans" font-size="10" font-weight="400" text-anchor="end" id="text_11">0.3</text></g><g id="ytick_5"><use x="57.6" xlink:href="#m7decbf5bf2" y="172.997" stroke="#000" stroke-width=".8" id="line2d_11"/><text x="50.6" y="176.796" font-family="DejaVu Sans" font-size="10" font-weight="400" text-anchor="end" id="text_12">0.4</text></g><g id="ytick_6"><use x="57.6" xlink:href="#m7decbf5bf2" y="142.374" stroke="#000" stroke-width=".8" id="line2d_12"/><text x="50.6" y="146.173" font-family="DejaVu Sans" font-size="10" font-weight="400" text-anchor="end" id="text_13">0.5</text></g><g id="ytick_7"><use x="57.6" xlink:href="#m7decbf5bf2" y="111.751" stroke="#000" stroke-width=".8" id="line2d_13"/><text x="50.6" y="115.551" font-family="DejaVu Sans" font-size="10" font-weight="400" text-anchor="end" id="text_14">0.6</text></g><g id="ytick_8"><use x="57.6" xlink:href="#m7decbf5bf2" y="81.129" stroke="#000" stroke-width=".8" id="line2d_14"/><text x="50.6" y="84.928" font-family="DejaVu Sans" font-size="10" font-weight="400" text-anchor="end" id="text_15">0.7</text></g><g id="ytick_9"><use x="57.6" xlink:href="#m7decbf5bf2" y="50.506" stroke="#000" stroke-width=".8" id="line2d_15"/><text x="50.6" y="54.305" font-family="DejaVu Sans" font-size="10" font-weight="400" text-anchor="end" id="text_16">0.8</text></g><text transform="rotate(-90 28.617 174.528)" x="28.617" y="174.528" font-family="DejaVu Sans" font-size="10" font-weight="400" text-anchor="middle" id="text_17">Simulated Mean / Function Value</text></g><path clip-path="url(#p31c1168249)" d="M73.833 295.457l3.28-3.092 3.278-3.092 3.28-3.09 3.28-3.09 3.278-3.085 3.28-3.083 3.28-3.08 3.278-3.075 3.28-3.07 3.28-3.064 3.278-3.058 3.28-3.051 3.28-3.044 3.278-3.036 3.28-3.028 3.28-3.018 3.278-3.01 3.28-2.998 3.28-2.988 3.279-2.977 3.279-2.966 3.28-2.953 3.279-2.94 3.279-2.928 3.28-2.914 3.279-2.9 3.279-2.886 3.28-2.87 3.279-2.857 3.279-2.84 3.28-2.824 3.279-2.809 3.279-2.791 3.28-2.775 3.279-2.758 3.279-2.74 3.28-2.722 3.279-2.705 3.279-2.686 3.28-2.668 3.279-2.649 3.279-2.63 3.28-2.612 3.279-2.592 3.279-2.573 3.28-2.553 3.279-2.533 3.279-2.514 3.28-2.494 3.279-2.474 3.279-2.454 3.28-2.434 3.279-2.414 3.279-2.394 3.28-2.373 3.279-2.353 3.279-2.333 3.28-2.313 3.279-2.292 3.28-2.272 3.278-2.251 3.28-2.232 3.28-2.211 3.278-2.192 3.28-2.17 3.28-2.152 3.278-2.13 3.28-2.112 3.28-2.091 3.278-2.072 3.28-2.052 3.28-2.033 3.278-2.013 3.28-1.994 3.28-1.974 3.278-1.956 3.28-1.936 3.28-1.918 3.278-1.899 3.28-1.88 3.28-1.862 3.279-1.843 3.279-1.826 3.28-1.807 3.279-1.789 3.279-1.772 3.28-1.753 3.279-1.737 3.279-1.719 3.28-1.702 3.279-1.685 3.279-1.668 3.28-1.651 3.279-1.635 3.279-1.618 3.28-1.602 3.279-1.586 3.279-1.57 3.28-1.554" fill="none" stroke="#1f77b4" stroke-linecap="square" stroke-width="1.5" id="line2d_16"/><path clip-path="url(#p31c1168249)" d="M73.833 295.488l3.28-2.45 3.278-4.9 3.28-2.45 3.28-7.961 3.278 3.675 3.28-6.125 3.28 5.512 3.278-16.536 3.28-4.9 3.28 4.9 3.278-.613 3.28-6.124 3.28 2.45 3.278-14.7 3.28-1.224 3.28-3.063 3.278 9.187 3.28-22.048 3.28 10.412 3.279-14.087 3.279 10.412 3.28-14.087 3.279 6.125 3.279-17.761 3.28 9.187 3.279-1.225 3.279 1.837 3.28-1.837 3.279-1.225 3.279-18.374 3.28 7.35 3.279-2.45 3.279-17.149 3.28 1.837 3.279 11.025 3.279-17.15 3.28-6.124 3.279 3.063 3.279 7.961 3.28-12.861 3.279.612 3.279-4.9 3.28-2.45 3.279 7.963 3.279-12.862 3.28 10.412 3.279 1.837 3.279-15.924 3.28-11.636 3.279 6.737 3.279-6.125 3.28 3.675 3.279-3.062 3.279-9.8 3.28 3.063 3.279-1.838 3.279-6.124 3.28-6.737 3.279 8.574 3.28-1.837 3.278-4.9 3.28 3.675 3.28-1.225 3.278-8.574 3.28-1.225 3.28 4.287 3.278-3.675 3.28-8.574 3.28 4.9 3.278-11.025 3.28-3.062 3.28.612 3.278 3.063 3.28-7.962 3.28-10.412 3.278 12.25 3.28-8.575 3.28-1.225 3.278 6.737 3.28-8.575 3.28-1.224 3.279 3.062 3.279-15.312 3.28 15.312 3.279-18.374 3.279-7.35 3.28 8.575 3.279-15.311 3.279 2.45 3.28 1.837 3.279-6.125 3.279 15.312 3.28-4.9 3.279-7.35 3.279 11.025 3.28-2.45 3.279-14.699 3.279 11.637 3.28-4.9" fill="none" stroke="#ff7f0e" stroke-linecap="square" stroke-width="1.5" id="line2d_17"/><path d="M57.6 307.584V41.472" fill="none" stroke="#000" stroke-linecap="square" stroke-width=".8" id="patch_3"/><path d="M414.72 307.584V41.472" fill="none" stroke="#000" stroke-linecap="square" stroke-width=".8" id="patch_4"/><path d="M57.6 307.584h357.12" fill="none" stroke="#000" stroke-linecap="square" stroke-width=".8" id="patch_5"/><path d="M57.6 41.472h357.12" fill="none" stroke="#000" stroke-linecap="square" stroke-width=".8" id="patch_6"/><text x="236.16" y="35.472" font-family="DejaVu Sans" font-size="12" font-weight="400" text-anchor="middle" id="text_18">Expected Value in arctan(x) (Two-Coin Special Case) Algorithm</text><g id="legend_1"><path d="M110.536 302.584H407.72q2 0 2-2v-28.356q0-2-2-2H110.536q-2 0-2 2v28.356q0 2 2 2z" fill="#fff" opacity=".8" stroke="#ccc" id="patch_7"/><path d="M112.536 278.326h20" fill="none" stroke="#1f77b4" stroke-linecap="square" stroke-width="1.5" id="line2d_18"/><text x="140.536" y="281.826" font-family="DejaVu Sans" font-size="10" font-weight="400" id="text_19">arctan(x)</text><path d="M112.536 293.004h20" fill="none" stroke="#ff7f0e" stroke-linecap="square" stroke-width="1.5" id="line2d_20"/><text x="140.536" y="296.504" font-family="DejaVu Sans" font-size="10" font-weight="400" id="text_20">Simulated Mean of arctan(x) (Two-Coin Special Case)</text></g></g></g><defs><clipPath id="p31c1168249"><path d="M57.6 41.472h357.12v266.112H57.6z"/></clipPath></defs></svg>