<?xml version="1.0" encoding="utf-8" standalone="no"?>
<!DOCTYPE svg PUBLIC "-//W3C//DTD SVG 1.1//EN"
  "http://www.w3.org/Graphics/SVG/1.1/DTD/svg11.dtd">
<!-- Created with matplotlib (https://matplotlib.org/) -->
<svg height="345.6pt" version="1.1" viewBox="0 0 460.8 345.6" width="460.8pt" xmlns="http://www.w3.org/2000/svg" xmlns:xlink="http://www.w3.org/1999/xlink">
 <defs>
  <style type="text/css">
*{stroke-linecap:butt;stroke-linejoin:round;}
  </style>
 </defs>
 <g id="figure_1">
  <g id="patch_1">
   <path d="M 0 345.6 
L 460.8 345.6 
L 460.8 0 
L 0 0 
z
" style="fill:#ffffff;"/>
  </g>
  <g id="axes_1">
   <g id="patch_2">
    <path d="M 57.6 307.584 
L 414.72 307.584 
L 414.72 41.472 
L 57.6 41.472 
z
" style="fill:#ffffff;"/>
   </g>
   <g id="matplotlib.axis_1">
    <g id="xtick_1">
     <g id="line2d_1">
      <defs>
       <path d="M 0 0 
L 0 3.5 
" id="m858837c5b8" style="stroke:#000000;stroke-width:0.8;"/>
      </defs>
      <g>
       <use style="stroke:#000000;stroke-width:0.8;" x="73.800255" xlink:href="#m858837c5b8" y="307.584"/>
      </g>
     </g>
     <g id="text_1">
      <text style="font-family:DejaVu Sans;font-size:10px;font-style:normal;font-weight:normal;text-anchor:middle;" transform="rotate(-0, 73.800255, 322.182437)" x="73.800255" y="322.182437">0.0</text>
     </g>
    </g>
    <g id="xtick_2">
     <g id="line2d_2">
      <g>
       <use style="stroke:#000000;stroke-width:0.8;" x="138.744153" xlink:href="#m858837c5b8" y="307.584"/>
      </g>
     </g>
     <g id="text_2">
      <text style="font-family:DejaVu Sans;font-size:10px;font-style:normal;font-weight:normal;text-anchor:middle;" transform="rotate(-0, 138.744153, 322.182437)" x="138.744153" y="322.182437">0.2</text>
     </g>
    </g>
    <g id="xtick_3">
     <g id="line2d_3">
      <g>
       <use style="stroke:#000000;stroke-width:0.8;" x="203.688051" xlink:href="#m858837c5b8" y="307.584"/>
      </g>
     </g>
     <g id="text_3">
      <text style="font-family:DejaVu Sans;font-size:10px;font-style:normal;font-weight:normal;text-anchor:middle;" transform="rotate(-0, 203.688051, 322.182437)" x="203.688051" y="322.182437">0.4</text>
     </g>
    </g>
    <g id="xtick_4">
     <g id="line2d_4">
      <g>
       <use style="stroke:#000000;stroke-width:0.8;" x="268.631949" xlink:href="#m858837c5b8" y="307.584"/>
      </g>
     </g>
     <g id="text_4">
      <text style="font-family:DejaVu Sans;font-size:10px;font-style:normal;font-weight:normal;text-anchor:middle;" transform="rotate(-0, 268.631949, 322.182437)" x="268.631949" y="322.182437">0.6</text>
     </g>
    </g>
    <g id="xtick_5">
     <g id="line2d_5">
      <g>
       <use style="stroke:#000000;stroke-width:0.8;" x="333.575847" xlink:href="#m858837c5b8" y="307.584"/>
      </g>
     </g>
     <g id="text_5">
      <text style="font-family:DejaVu Sans;font-size:10px;font-style:normal;font-weight:normal;text-anchor:middle;" transform="rotate(-0, 333.575847, 322.182437)" x="333.575847" y="322.182437">0.8</text>
     </g>
    </g>
    <g id="xtick_6">
     <g id="line2d_6">
      <g>
       <use style="stroke:#000000;stroke-width:0.8;" x="398.519745" xlink:href="#m858837c5b8" y="307.584"/>
      </g>
     </g>
     <g id="text_6">
      <text style="font-family:DejaVu Sans;font-size:10px;font-style:normal;font-weight:normal;text-anchor:middle;" transform="rotate(-0, 398.519745, 322.182437)" x="398.519745" y="322.182437">1.0</text>
     </g>
    </g>
    <g id="text_7">
     <text style="font-family:DejaVu Sans;font-size:10px;font-style:normal;font-weight:normal;text-anchor:middle;" transform="rotate(-0, 236.16, 335.860562)" x="236.16" y="335.860562">Input Coin's Heads Probability (λ)</text>
    </g>
   </g>
   <g id="matplotlib.axis_2">
    <g id="ytick_1">
     <g id="line2d_7">
      <defs>
       <path d="M 0 0 
L -3.5 0 
" id="m1790cf3ab6" style="stroke:#000000;stroke-width:0.8;"/>
      </defs>
      <g>
       <use style="stroke:#000000;stroke-width:0.8;" x="57.6" xlink:href="#m1790cf3ab6" y="295.488"/>
      </g>
     </g>
     <g id="text_8">
      <text style="font-family:DejaVu Sans;font-size:10px;font-style:normal;font-weight:normal;text-anchor:end;" transform="rotate(-0, 50.6, 299.287219)" x="50.6" y="299.287219">0.0</text>
     </g>
    </g>
    <g id="ytick_2">
     <g id="line2d_8">
      <g>
       <use style="stroke:#000000;stroke-width:0.8;" x="57.6" xlink:href="#m1790cf3ab6" y="236.911729"/>
      </g>
     </g>
     <g id="text_9">
      <text style="font-family:DejaVu Sans;font-size:10px;font-style:normal;font-weight:normal;text-anchor:end;" transform="rotate(-0, 50.6, 240.710948)" x="50.6" y="240.710948">0.2</text>
     </g>
    </g>
    <g id="ytick_3">
     <g id="line2d_9">
      <g>
       <use style="stroke:#000000;stroke-width:0.8;" x="57.6" xlink:href="#m1790cf3ab6" y="178.335458"/>
      </g>
     </g>
     <g id="text_10">
      <text style="font-family:DejaVu Sans;font-size:10px;font-style:normal;font-weight:normal;text-anchor:end;" transform="rotate(-0, 50.6, 182.134676)" x="50.6" y="182.134676">0.4</text>
     </g>
    </g>
    <g id="ytick_4">
     <g id="line2d_10">
      <g>
       <use style="stroke:#000000;stroke-width:0.8;" x="57.6" xlink:href="#m1790cf3ab6" y="119.759186"/>
      </g>
     </g>
     <g id="text_11">
      <text style="font-family:DejaVu Sans;font-size:10px;font-style:normal;font-weight:normal;text-anchor:end;" transform="rotate(-0, 50.6, 123.558405)" x="50.6" y="123.558405">0.6</text>
     </g>
    </g>
    <g id="ytick_5">
     <g id="line2d_11">
      <g>
       <use style="stroke:#000000;stroke-width:0.8;" x="57.6" xlink:href="#m1790cf3ab6" y="61.182915"/>
      </g>
     </g>
     <g id="text_12">
      <text style="font-family:DejaVu Sans;font-size:10px;font-style:normal;font-weight:normal;text-anchor:end;" transform="rotate(-0, 50.6, 64.982134)" x="50.6" y="64.982134">0.8</text>
     </g>
    </g>
    <g id="text_13">
     <text style="font-family:DejaVu Sans;font-size:10px;font-style:normal;font-weight:normal;text-anchor:middle;" transform="rotate(-90, 28.617187, 174.528)" x="28.617187" y="174.528">Simulated Mean / Function Value</text>
    </g>
   </g>
   <g id="line2d_12">
    <path clip-path="url(#p1c82f18eea)" d="M 73.832727 295.458712 
L 77.112066 292.50101 
L 80.391405 289.543916 
L 83.670744 286.588035 
L 86.950083 283.633966 
L 90.229421 280.682307 
L 93.50876 277.733656 
L 96.788099 274.788604 
L 100.067438 271.847739 
L 103.346777 268.911643 
L 106.626116 265.980894 
L 109.905455 263.056061 
L 113.184793 260.13771 
L 116.464132 257.226395 
L 119.743471 254.322665 
L 123.02281 251.427058 
L 126.302149 248.540103 
L 129.581488 245.662322 
L 132.860826 242.794222 
L 136.140165 239.936302 
L 139.419504 237.08905 
L 142.698843 234.25294 
L 145.978182 231.428437 
L 149.257521 228.615991 
L 152.53686 225.816041 
L 155.816198 223.029011 
L 159.095537 220.255314 
L 162.374876 217.495348 
L 165.654215 214.749498 
L 168.933554 212.018134 
L 172.212893 209.301614 
L 175.492231 206.600281 
L 178.77157 203.914463 
L 182.050909 201.244475 
L 185.330248 198.590617 
L 188.609587 195.953175 
L 191.888926 193.332421 
L 195.168264 190.728613 
L 198.447603 188.141994 
L 201.726942 185.572795 
L 205.006281 183.021231 
L 208.28562 180.487504 
L 211.564959 177.971805 
L 214.844298 175.474307 
L 218.123636 172.995174 
L 221.402975 170.534555 
L 224.682314 168.092586 
L 227.961653 165.669393 
L 231.240992 163.265088 
L 234.520331 160.87977 
L 237.799669 158.513529 
L 241.079008 156.166441 
L 244.358347 153.838573 
L 247.637686 151.52998 
L 250.917025 149.240707 
L 254.196364 146.970789 
L 257.475702 144.720251 
L 260.755041 142.489107 
L 264.03438 140.277365 
L 267.313719 138.08502 
L 270.593058 135.912061 
L 273.872397 133.758469 
L 277.151736 131.624215 
L 280.431074 129.509264 
L 283.710413 127.413572 
L 286.989752 125.337089 
L 290.269091 123.279759 
L 293.54843 121.241518 
L 296.827769 119.222295 
L 300.107107 117.222016 
L 303.386446 115.240599 
L 306.665785 113.277957 
L 309.945124 111.333999 
L 313.224463 109.408627 
L 316.503802 107.501741 
L 319.78314 105.613234 
L 323.062479 103.742998 
L 326.341818 101.890919 
L 329.621157 100.056879 
L 332.900496 98.240758 
L 336.179835 96.442433 
L 339.459174 94.661776 
L 342.738512 92.898658 
L 346.017851 91.152948 
L 349.29719 89.42451 
L 352.576529 87.713209 
L 355.855868 86.018906 
L 359.135207 84.341461 
L 362.414545 82.680732 
L 365.693884 81.036575 
L 368.973223 79.408845 
L 372.252562 77.797398 
L 375.531901 76.202085 
L 378.81124 74.622759 
L 382.090579 73.059271 
L 385.369917 71.511472 
L 388.649256 69.979213 
L 391.928595 68.462342 
L 395.207934 66.96071 
L 398.487273 65.474166 
" style="fill:none;stroke:#1f77b4;stroke-linecap:square;stroke-width:1.5;"/>
   </g>
   <g id="line2d_13">
    <path clip-path="url(#p1c82f18eea)" d="M 73.832727 295.488 
L 77.112066 291.973424 
L 80.391405 292.559186 
L 83.670744 288.458847 
L 86.950083 285.530034 
L 90.229421 276.743593 
L 93.50876 280.258169 
L 96.788099 276.743593 
L 100.067438 264.442576 
L 103.346777 266.199864 
L 106.626116 265.028339 
L 109.905455 263.271051 
L 113.184793 256.827661 
L 116.464132 251.555797 
L 119.743471 258.584949 
L 123.02281 251.555797 
L 126.302149 244.526644 
L 129.581488 235.740203 
L 132.860826 245.698169 
L 136.140165 242.183593 
L 139.419504 237.497492 
L 142.698843 243.940881 
L 145.978182 235.740203 
L 149.257521 214.652746 
L 152.53686 224.024949 
L 155.816198 219.338847 
L 159.095537 215.824271 
L 162.374876 217.581559 
L 165.654215 219.92461 
L 168.933554 199.422915 
L 172.212893 207.037831 
L 175.492231 208.795119 
L 178.77157 207.037831 
L 182.050909 197.079864 
L 185.330248 195.908339 
L 188.609587 191.808 
L 191.888926 202.937492 
L 195.168264 192.393763 
L 198.447603 185.950373 
L 201.726942 182.435797 
L 205.006281 167.791729 
L 208.28562 174.235119 
L 211.564959 174.820881 
L 214.844298 175.406644 
L 218.123636 164.862915 
L 221.402975 175.406644 
L 224.682314 166.034441 
L 227.961653 168.963254 
L 231.240992 166.034441 
L 234.520331 158.419525 
L 237.799669 156.662237 
L 241.079008 164.277153 
L 244.358347 150.218847 
L 247.637686 157.833763 
L 250.917025 154.904949 
L 254.196364 162.519864 
L 257.475702 143.775458 
L 260.755041 144.36122 
L 264.03438 133.817492 
L 267.313719 139.675119 
L 270.593058 143.775458 
L 273.872397 139.089356 
L 277.151736 118.001898 
L 280.431074 123.273763 
L 283.710413 125.031051 
L 286.989752 132.645966 
L 290.269091 128.545627 
L 293.54843 120.344949 
L 296.827769 120.344949 
L 300.107107 110.972746 
L 303.386446 118.587661 
L 306.665785 109.80122 
L 309.945124 123.273763 
L 313.224463 119.759186 
L 316.503802 95.157153 
L 319.78314 108.043932 
L 323.062479 115.073085 
L 326.341818 102.186305 
L 329.621157 109.215458 
L 332.900496 99.257492 
L 336.179835 94.57139 
L 339.459174 96.328678 
L 342.738512 89.885288 
L 346.017851 98.085966 
L 349.29719 86.370712 
L 352.576529 82.856136 
L 355.855868 84.613424 
L 359.135207 87.542237 
L 362.414545 88.128 
L 365.693884 74.655458 
L 368.973223 74.655458 
L 372.252562 70.555119 
L 375.531901 71.140881 
L 378.81124 72.312407 
L 382.090579 72.898169 
L 385.369917 74.655458 
L 388.649256 75.24122 
L 391.928595 64.111729 
L 395.207934 69.383593 
L 398.487273 53.568 
" style="fill:none;stroke:#ff7f0e;stroke-linecap:square;stroke-width:1.5;"/>
   </g>
   <g id="patch_3">
    <path d="M 57.6 307.584 
L 57.6 41.472 
" style="fill:none;stroke:#000000;stroke-linecap:square;stroke-linejoin:miter;stroke-width:0.8;"/>
   </g>
   <g id="patch_4">
    <path d="M 414.72 307.584 
L 414.72 41.472 
" style="fill:none;stroke:#000000;stroke-linecap:square;stroke-linejoin:miter;stroke-width:0.8;"/>
   </g>
   <g id="patch_5">
    <path d="M 57.6 307.584 
L 414.72 307.584 
" style="fill:none;stroke:#000000;stroke-linecap:square;stroke-linejoin:miter;stroke-width:0.8;"/>
   </g>
   <g id="patch_6">
    <path d="M 57.6 41.472 
L 414.72 41.472 
" style="fill:none;stroke:#000000;stroke-linecap:square;stroke-linejoin:miter;stroke-width:0.8;"/>
   </g>
   <g id="text_14">
    <text style="font-family:DejaVu Sans;font-size:12px;font-style:normal;font-weight:normal;" transform="translate(88.425938 22.034625)">Simulated Mean for arctan(x) (Flajolet) Algorithm</text>
    <text style="font-family:DejaVu Sans;font-size:12px;font-style:normal;font-weight:normal;" transform="translate(132.609375 35.472)">(Wasserstein Distances in Legend)</text>
   </g>
   <g id="legend_1">
    <g id="patch_7">
     <path d="M 64.6 78.82825 
L 242.85 78.82825 
Q 244.85 78.82825 244.85 76.82825 
L 244.85 48.472 
Q 244.85 46.472 242.85 46.472 
L 64.6 46.472 
Q 62.6 46.472 62.6 48.472 
L 62.6 76.82825 
Q 62.6 78.82825 64.6 78.82825 
z
" style="fill:#ffffff;opacity:0.8;stroke:#cccccc;stroke-linejoin:miter;"/>
    </g>
    <g id="line2d_14">
     <path d="M 66.6 54.570437 
L 86.6 54.570437 
" style="fill:none;stroke:#1f77b4;stroke-linecap:square;stroke-width:1.5;"/>
    </g>
    <g id="line2d_15"/>
    <g id="text_15">
     <text style="font-family:DejaVu Sans;font-size:10px;font-style:normal;font-weight:normal;text-anchor:start;" transform="rotate(-0, 94.6, 58.070437)" x="94.6" y="58.070437">arctan(x)</text>
    </g>
    <g id="line2d_16">
     <path d="M 66.6 69.248562 
L 86.6 69.248562 
" style="fill:none;stroke:#ff7f0e;stroke-linecap:square;stroke-width:1.5;"/>
    </g>
    <g id="line2d_17"/>
    <g id="text_16">
     <text style="font-family:DejaVu Sans;font-size:10px;font-style:normal;font-weight:normal;text-anchor:start;" transform="rotate(-0, 94.6, 72.748562)" x="94.6" y="72.748562">Simul. Mean (WD=0.007413)</text>
    </g>
   </g>
  </g>
 </g>
 <defs>
  <clipPath id="p1c82f18eea">
   <rect height="266.112" width="357.12" x="57.6" y="41.472"/>
  </clipPath>
 </defs>
</svg>
