<svg height="460.8" viewBox="0 0 460.8 345.6" width="614.4" xmlns="http://www.w3.org/2000/svg" xmlns:xlink="http://www.w3.org/1999/xlink"><defs><style>*{stroke-linecap:butt;stroke-linejoin:round}</style></defs><g id="figure_1"><path d="M0 345.6h460.8V0H0z" fill="#fff" id="patch_1"/><g id="axes_1"><path d="M57.6 307.584h357.12V41.472H57.6z" fill="#fff" id="patch_2"/><g id="matplotlib.axis_1"><g id="xtick_1"><g id="line2d_1"><defs><path d="M0 0v3.5" id="m4170e96574" stroke="#000" stroke-width=".8"/></defs><use x="73.8" xlink:href="#m4170e96574" y="307.584" stroke="#000" stroke-width=".8"/></g><text x="73.8" y="322.182" font-family="DejaVu Sans" font-size="10" font-weight="400" text-anchor="middle" id="text_1">0.0</text></g><g id="xtick_2"><use x="138.744" xlink:href="#m4170e96574" y="307.584" stroke="#000" stroke-width=".8" id="line2d_2"/><text x="138.744" y="322.182" font-family="DejaVu Sans" font-size="10" font-weight="400" text-anchor="middle" id="text_2">0.2</text></g><g id="xtick_3"><use x="203.688" xlink:href="#m4170e96574" y="307.584" stroke="#000" stroke-width=".8" id="line2d_3"/><text x="203.688" y="322.182" font-family="DejaVu Sans" font-size="10" font-weight="400" text-anchor="middle" id="text_3">0.4</text></g><g id="xtick_4"><use x="268.632" xlink:href="#m4170e96574" y="307.584" stroke="#000" stroke-width=".8" id="line2d_4"/><text x="268.632" y="322.182" font-family="DejaVu Sans" font-size="10" font-weight="400" text-anchor="middle" id="text_4">0.6</text></g><g id="xtick_5"><use x="333.576" xlink:href="#m4170e96574" y="307.584" stroke="#000" stroke-width=".8" id="line2d_5"/><text x="333.576" y="322.182" font-family="DejaVu Sans" font-size="10" font-weight="400" text-anchor="middle" id="text_5">0.8</text></g><g id="xtick_6"><use x="398.52" xlink:href="#m4170e96574" y="307.584" stroke="#000" stroke-width=".8" id="line2d_6"/><text x="398.52" y="322.182" font-family="DejaVu Sans" font-size="10" font-weight="400" text-anchor="middle" id="text_6">1.0</text></g><text x="236.16" y="335.861" font-family="DejaVu Sans" font-size="10" font-weight="400" text-anchor="middle" id="text_7">Probability</text></g><g id="matplotlib.axis_2"><g id="ytick_1"><g id="line2d_7"><defs><path d="M0 0h-3.5" id="md45b202165" stroke="#000" stroke-width=".8"/></defs><use x="57.6" xlink:href="#md45b202165" y="303.795" stroke="#000" stroke-width=".8"/></g><text x="50.6" y="307.594" font-family="DejaVu Sans" font-size="10" font-weight="400" text-anchor="end" id="text_8">0</text></g><g id="ytick_2"><use x="57.6" xlink:href="#md45b202165" y="273.246" stroke="#000" stroke-width=".8" id="line2d_8"/><text x="50.6" y="277.045" font-family="DejaVu Sans" font-size="10" font-weight="400" text-anchor="end" id="text_9">25</text></g><g id="ytick_3"><use x="57.6" xlink:href="#md45b202165" y="242.698" stroke="#000" stroke-width=".8" id="line2d_9"/><text x="50.6" y="246.497" font-family="DejaVu Sans" font-size="10" font-weight="400" text-anchor="end" id="text_10">50</text></g><g id="ytick_4"><use x="57.6" xlink:href="#md45b202165" y="212.149" stroke="#000" stroke-width=".8" id="line2d_10"/><text x="50.6" y="215.948" font-family="DejaVu Sans" font-size="10" font-weight="400" text-anchor="end" id="text_11">75</text></g><g id="ytick_5"><use x="57.6" xlink:href="#md45b202165" y="181.601" stroke="#000" stroke-width=".8" id="line2d_11"/><text x="50.6" y="185.4" font-family="DejaVu Sans" font-size="10" font-weight="400" text-anchor="end" id="text_12">100</text></g><g id="ytick_6"><use x="57.6" xlink:href="#md45b202165" y="151.052" stroke="#000" stroke-width=".8" id="line2d_12"/><text x="50.6" y="154.851" font-family="DejaVu Sans" font-size="10" font-weight="400" text-anchor="end" id="text_13">125</text></g><g id="ytick_7"><use x="57.6" xlink:href="#md45b202165" y="120.504" stroke="#000" stroke-width=".8" id="line2d_13"/><text x="50.6" y="124.303" font-family="DejaVu Sans" font-size="10" font-weight="400" text-anchor="end" id="text_14">150</text></g><g id="ytick_8"><use x="57.6" xlink:href="#md45b202165" y="89.955" stroke="#000" stroke-width=".8" id="line2d_14"/><text x="50.6" y="93.754" font-family="DejaVu Sans" font-size="10" font-weight="400" text-anchor="end" id="text_15">175</text></g><g id="ytick_9"><use x="57.6" xlink:href="#md45b202165" y="59.406" stroke="#000" stroke-width=".8" id="line2d_15"/><text x="50.6" y="63.206" font-family="DejaVu Sans" font-size="10" font-weight="400" text-anchor="end" id="text_16">200</text></g><text transform="rotate(-90 25.433 174.528)" x="25.433" y="174.528" font-family="DejaVu Sans" font-size="10" font-weight="400" text-anchor="middle" id="text_17">Average Bits Consumed Per Call</text></g><path clip-path="url(#p0fbaf48d58)" d="M73.833 294.88l3.28.44 3.278-.201 3.28.327 3.28-.452 3.278.118 3.28-.237 3.28.202 3.278-.317 3.28.405 3.28.13 3.278-.064 3.28.11 3.28-.07 3.278-.152 3.28-.303 3.28.171 3.278-.225 3.28.04 3.28.327 3.279-.056 3.279-.081 3.28.303 3.279-.34 3.279.533 3.28-.445 3.279-.09 3.279-.108 3.28-.12 3.279.245 3.279-.352 3.28.389 3.279-.352 3.279-.052 3.28-.005 3.279-.124 3.279.283 3.28.345 3.279-.704 3.279.52 3.28-.224 3.279-.296 3.279-.213 3.28.296 3.279-.037 3.279-.295 3.28.364 3.279-.154 3.279.516 3.28-.697 3.279-.151 3.279.168 3.28.203 3.279.049 3.279-.604 3.28.526 3.279-1.017 3.279.758 3.28-.303 3.279.19 3.28-.577 3.278.675 3.28-.281 3.28.337 3.278-.628 3.28-.002 3.28.251 3.278-.518 3.28-.068 3.28-.271 3.278.425 3.28-.548 3.28.108 3.278-.484 3.28-.083 3.28-.12 3.278.26 3.28-.392 3.28.15 3.278-.712 3.28.765 3.28-.858 3.279.76 3.279-1.07 3.28-.499 3.279.575 3.279-1.154 3.28.337 3.279-1.358 3.279-.223 3.28.291 3.279-1.552 3.279-.696 3.28 1.874 3.279-2.634 3.279 2.067 3.28.213 3.279-3.383 3.279-3.834 3.28-227.572" fill="none" stroke="#1f77b4" stroke-linecap="square" stroke-width="1.5" id="line2d_16"/><path d="M57.6 307.584V41.472" fill="none" stroke="#000" stroke-linecap="square" stroke-width=".8" id="patch_3"/><path d="M414.72 307.584V41.472" fill="none" stroke="#000" stroke-linecap="square" stroke-width=".8" id="patch_4"/><path d="M57.6 307.584h357.12" fill="none" stroke="#000" stroke-linecap="square" stroke-width=".8" id="patch_5"/><path d="M57.6 41.472h357.12" fill="none" stroke="#000" stroke-linecap="square" stroke-width=".8" id="patch_6"/><text x="236.16" y="35.472" font-family="DejaVu Sans" font-size="12" font-weight="400" text-anchor="middle" id="text_18">Avg. Bits Consumed by arctan(x) (Flajolet) Algorithm</text><g id="legend_1"><path d="M64.6 64.15h125.008q2 0 2-2V48.472q0-2-2-2H64.6q-2 0-2 2V62.15q0 2 2 2z" fill="#fff" opacity=".8" stroke="#ccc" id="patch_7"/><path d="M66.6 54.57h20" fill="none" stroke="#1f77b4" stroke-linecap="square" stroke-width="1.5" id="line2d_17"/><text x="94.6" y="58.07" font-family="DejaVu Sans" font-size="10" font-weight="400" id="text_19">arctan(x) (Flajolet)</text></g></g></g><defs><clipPath id="p0fbaf48d58"><path d="M57.6 41.472h357.12v266.112H57.6z"/></clipPath></defs></svg>