<?xml version="1.0" encoding="utf-8" standalone="no"?>
<!DOCTYPE svg PUBLIC "-//W3C//DTD SVG 1.1//EN"
  "http://www.w3.org/Graphics/SVG/1.1/DTD/svg11.dtd">
<!-- Created with matplotlib (https://matplotlib.org/) -->
<svg height="345.6pt" version="1.1" viewBox="0 0 460.8 345.6" width="460.8pt" xmlns="http://www.w3.org/2000/svg" xmlns:xlink="http://www.w3.org/1999/xlink">
 <defs>
  <style type="text/css">
*{stroke-linecap:butt;stroke-linejoin:round;}
  </style>
 </defs>
 <g id="figure_1">
  <g id="patch_1">
   <path d="M 0 345.6 
L 460.8 345.6 
L 460.8 0 
L 0 0 
z
" style="fill:#ffffff;"/>
  </g>
  <g id="axes_1">
   <g id="patch_2">
    <path d="M 57.6 307.584 
L 414.72 307.584 
L 414.72 41.472 
L 57.6 41.472 
z
" style="fill:#ffffff;"/>
   </g>
   <g id="matplotlib.axis_1">
    <g id="xtick_1">
     <g id="line2d_1">
      <defs>
       <path d="M 0 0 
L 0 3.5 
" id="mb4c44b5a59" style="stroke:#000000;stroke-width:0.8;"/>
      </defs>
      <g>
       <use style="stroke:#000000;stroke-width:0.8;" x="73.800255" xlink:href="#mb4c44b5a59" y="307.584"/>
      </g>
     </g>
     <g id="text_1">
      <text style="font-family:DejaVu Sans;font-size:10px;font-style:normal;font-weight:normal;text-anchor:middle;" transform="rotate(-0, 73.800255, 322.182437)" x="73.800255" y="322.182437">0.0</text>
     </g>
    </g>
    <g id="xtick_2">
     <g id="line2d_2">
      <g>
       <use style="stroke:#000000;stroke-width:0.8;" x="138.744153" xlink:href="#mb4c44b5a59" y="307.584"/>
      </g>
     </g>
     <g id="text_2">
      <text style="font-family:DejaVu Sans;font-size:10px;font-style:normal;font-weight:normal;text-anchor:middle;" transform="rotate(-0, 138.744153, 322.182437)" x="138.744153" y="322.182437">0.2</text>
     </g>
    </g>
    <g id="xtick_3">
     <g id="line2d_3">
      <g>
       <use style="stroke:#000000;stroke-width:0.8;" x="203.688051" xlink:href="#mb4c44b5a59" y="307.584"/>
      </g>
     </g>
     <g id="text_3">
      <text style="font-family:DejaVu Sans;font-size:10px;font-style:normal;font-weight:normal;text-anchor:middle;" transform="rotate(-0, 203.688051, 322.182437)" x="203.688051" y="322.182437">0.4</text>
     </g>
    </g>
    <g id="xtick_4">
     <g id="line2d_4">
      <g>
       <use style="stroke:#000000;stroke-width:0.8;" x="268.631949" xlink:href="#mb4c44b5a59" y="307.584"/>
      </g>
     </g>
     <g id="text_4">
      <text style="font-family:DejaVu Sans;font-size:10px;font-style:normal;font-weight:normal;text-anchor:middle;" transform="rotate(-0, 268.631949, 322.182437)" x="268.631949" y="322.182437">0.6</text>
     </g>
    </g>
    <g id="xtick_5">
     <g id="line2d_5">
      <g>
       <use style="stroke:#000000;stroke-width:0.8;" x="333.575847" xlink:href="#mb4c44b5a59" y="307.584"/>
      </g>
     </g>
     <g id="text_5">
      <text style="font-family:DejaVu Sans;font-size:10px;font-style:normal;font-weight:normal;text-anchor:middle;" transform="rotate(-0, 333.575847, 322.182437)" x="333.575847" y="322.182437">0.8</text>
     </g>
    </g>
    <g id="xtick_6">
     <g id="line2d_6">
      <g>
       <use style="stroke:#000000;stroke-width:0.8;" x="398.519745" xlink:href="#mb4c44b5a59" y="307.584"/>
      </g>
     </g>
     <g id="text_6">
      <text style="font-family:DejaVu Sans;font-size:10px;font-style:normal;font-weight:normal;text-anchor:middle;" transform="rotate(-0, 398.519745, 322.182437)" x="398.519745" y="322.182437">1.0</text>
     </g>
    </g>
    <g id="text_7">
     <text style="font-family:DejaVu Sans;font-size:10px;font-style:normal;font-weight:normal;text-anchor:middle;" transform="rotate(-0, 236.16, 335.860562)" x="236.16" y="335.860562">Input Coin's Heads Probability (λ)</text>
    </g>
   </g>
   <g id="matplotlib.axis_2">
    <g id="ytick_1">
     <g id="line2d_7">
      <defs>
       <path d="M 0 0 
L -3.5 0 
" id="m118e1dc523" style="stroke:#000000;stroke-width:0.8;"/>
      </defs>
      <g>
       <use style="stroke:#000000;stroke-width:0.8;" x="57.6" xlink:href="#m118e1dc523" y="305.568"/>
      </g>
     </g>
     <g id="text_8">
      <text style="font-family:DejaVu Sans;font-size:10px;font-style:normal;font-weight:normal;text-anchor:end;" transform="rotate(-0, 50.6, 309.367219)" x="50.6" y="309.367219">0.5</text>
     </g>
    </g>
    <g id="ytick_2">
     <g id="line2d_8">
      <g>
       <use style="stroke:#000000;stroke-width:0.8;" x="57.6" xlink:href="#m118e1dc523" y="255.168"/>
      </g>
     </g>
     <g id="text_9">
      <text style="font-family:DejaVu Sans;font-size:10px;font-style:normal;font-weight:normal;text-anchor:end;" transform="rotate(-0, 50.6, 258.967219)" x="50.6" y="258.967219">0.6</text>
     </g>
    </g>
    <g id="ytick_3">
     <g id="line2d_9">
      <g>
       <use style="stroke:#000000;stroke-width:0.8;" x="57.6" xlink:href="#m118e1dc523" y="204.768"/>
      </g>
     </g>
     <g id="text_10">
      <text style="font-family:DejaVu Sans;font-size:10px;font-style:normal;font-weight:normal;text-anchor:end;" transform="rotate(-0, 50.6, 208.567219)" x="50.6" y="208.567219">0.7</text>
     </g>
    </g>
    <g id="ytick_4">
     <g id="line2d_10">
      <g>
       <use style="stroke:#000000;stroke-width:0.8;" x="57.6" xlink:href="#m118e1dc523" y="154.368"/>
      </g>
     </g>
     <g id="text_11">
      <text style="font-family:DejaVu Sans;font-size:10px;font-style:normal;font-weight:normal;text-anchor:end;" transform="rotate(-0, 50.6, 158.167219)" x="50.6" y="158.167219">0.8</text>
     </g>
    </g>
    <g id="ytick_5">
     <g id="line2d_11">
      <g>
       <use style="stroke:#000000;stroke-width:0.8;" x="57.6" xlink:href="#m118e1dc523" y="103.968"/>
      </g>
     </g>
     <g id="text_12">
      <text style="font-family:DejaVu Sans;font-size:10px;font-style:normal;font-weight:normal;text-anchor:end;" transform="rotate(-0, 50.6, 107.767219)" x="50.6" y="107.767219">0.9</text>
     </g>
    </g>
    <g id="ytick_6">
     <g id="line2d_12">
      <g>
       <use style="stroke:#000000;stroke-width:0.8;" x="57.6" xlink:href="#m118e1dc523" y="53.568"/>
      </g>
     </g>
     <g id="text_13">
      <text style="font-family:DejaVu Sans;font-size:10px;font-style:normal;font-weight:normal;text-anchor:end;" transform="rotate(-0, 50.6, 57.367219)" x="50.6" y="57.367219">1.0</text>
     </g>
    </g>
    <g id="text_14">
     <text style="font-family:DejaVu Sans;font-size:10px;font-style:normal;font-weight:normal;text-anchor:middle;" transform="rotate(-90, 28.617187, 174.528)" x="28.617187" y="174.528">Simulated Mean / Function Value</text>
    </g>
   </g>
   <g id="line2d_13">
    <path clip-path="url(#p0b5451d9b4)" d="M 73.832727 53.568003 
L 77.112066 53.594213 
L 80.391405 53.671822 
L 83.670744 53.800824 
L 86.950083 53.981204 
L 90.229421 54.212944 
L 93.50876 54.496021 
L 96.788099 54.830406 
L 100.067438 55.216064 
L 103.346777 55.652956 
L 106.626116 56.141038 
L 109.905455 56.68026 
L 113.184793 57.270567 
L 116.464132 57.911898 
L 119.743471 58.604189 
L 123.02281 59.347368 
L 126.302149 60.141361 
L 129.581488 60.986085 
L 132.860826 61.881455 
L 136.140165 62.827379 
L 139.419504 63.823762 
L 142.698843 64.870501 
L 145.978182 65.967489 
L 149.257521 67.114615 
L 152.53686 68.311762 
L 155.816198 69.558807 
L 159.095537 70.855624 
L 162.374876 72.20208 
L 165.654215 73.598038 
L 168.933554 75.043355 
L 172.212893 76.537885 
L 175.492231 78.081474 
L 178.77157 79.673965 
L 182.050909 81.315196 
L 185.330248 83.005 
L 188.609587 84.743203 
L 191.888926 86.52963 
L 195.168264 88.364097 
L 198.447603 90.246417 
L 201.726942 92.176399 
L 205.006281 94.153846 
L 208.28562 96.178556 
L 211.564959 98.250322 
L 214.844298 100.368934 
L 218.123636 102.534174 
L 221.402975 104.745823 
L 224.682314 107.003655 
L 227.961653 109.307439 
L 231.240992 111.656941 
L 234.520331 114.051921 
L 237.799669 116.492134 
L 241.079008 118.977332 
L 244.358347 121.507262 
L 247.637686 124.081664 
L 250.917025 126.700278 
L 254.196364 129.362835 
L 257.475702 132.069064 
L 260.755041 134.818689 
L 264.03438 137.61143 
L 267.313719 140.447002 
L 270.593058 143.325115 
L 273.872397 146.245477 
L 277.151736 149.207789 
L 280.431074 152.211748 
L 283.710413 155.25705 
L 286.989752 158.343383 
L 290.269091 161.470432 
L 293.54843 164.637879 
L 296.827769 167.8454 
L 300.107107 171.092669 
L 303.386446 174.379353 
L 306.665785 177.705119 
L 309.945124 181.069626 
L 313.224463 184.472532 
L 316.503802 187.913489 
L 319.78314 191.392147 
L 323.062479 194.908151 
L 326.341818 198.461142 
L 329.621157 202.050758 
L 332.900496 205.676633 
L 336.179835 209.338396 
L 339.459174 213.035675 
L 342.738512 216.768093 
L 346.017851 220.535268 
L 349.29719 224.336817 
L 352.576529 228.172352 
L 355.855868 232.041481 
L 359.135207 235.94381 
L 362.414545 239.878942 
L 365.693884 243.846474 
L 368.973223 247.846002 
L 372.252562 251.877118 
L 375.531901 255.939411 
L 378.81124 260.032467 
L 382.090579 264.155868 
L 385.369917 268.309194 
L 388.649256 272.492022 
L 391.928595 276.703923 
L 395.207934 280.94447 
L 398.487273 285.213229 
" style="fill:none;stroke:#1f77b4;stroke-linecap:square;stroke-width:1.5;"/>
   </g>
   <g id="line2d_14">
    <path clip-path="url(#p0b5451d9b4)" d="M 73.832727 53.568 
L 77.112066 53.568 
L 80.391405 53.568 
L 83.670744 53.568 
L 86.950083 53.568 
L 90.229421 54.576 
L 93.50876 54.576 
L 96.788099 55.584 
L 100.067438 55.584 
L 103.346777 55.584 
L 106.626116 53.568 
L 109.905455 55.584 
L 113.184793 56.592 
L 116.464132 55.584 
L 119.743471 57.6 
L 123.02281 58.608 
L 126.302149 62.64 
L 129.581488 59.616 
L 132.860826 64.656 
L 136.140165 62.64 
L 139.419504 63.648 
L 142.698843 73.728 
L 145.978182 66.672 
L 149.257521 74.736 
L 152.53686 68.688 
L 155.816198 69.696 
L 159.095537 69.696 
L 162.374876 74.736 
L 165.654215 68.688 
L 168.933554 74.736 
L 172.212893 70.704 
L 175.492231 76.752 
L 178.77157 91.872 
L 182.050909 82.8 
L 185.330248 78.768 
L 188.609587 84.816 
L 191.888926 81.792 
L 195.168264 75.744 
L 198.447603 87.84 
L 201.726942 82.8 
L 205.006281 86.832 
L 208.28562 90.864 
L 211.564959 94.896 
L 214.844298 111.024 
L 218.123636 93.888 
L 221.402975 110.016 
L 224.682314 108 
L 227.961653 97.92 
L 231.240992 121.104 
L 234.520331 105.984 
L 237.799669 125.136 
L 241.079008 111.024 
L 244.358347 130.176 
L 247.637686 114.048 
L 250.917025 136.224 
L 254.196364 119.088 
L 257.475702 125.136 
L 260.755041 130.176 
L 264.03438 132.192 
L 267.313719 138.24 
L 270.593058 144.288 
L 273.872397 160.416 
L 277.151736 145.296 
L 280.431074 151.344 
L 283.710413 149.328 
L 286.989752 163.44 
L 290.269091 155.376 
L 293.54843 163.44 
L 296.827769 172.512 
L 300.107107 169.488 
L 303.386446 178.56 
L 306.665785 176.544 
L 309.945124 167.472 
L 313.224463 182.592 
L 316.503802 206.784 
L 319.78314 199.728 
L 323.062479 184.608 
L 326.341818 190.656 
L 329.621157 201.744 
L 332.900496 205.776 
L 336.179835 218.88 
L 339.459174 203.76 
L 342.738512 230.976 
L 346.017851 236.016 
L 349.29719 230.976 
L 352.576529 218.88 
L 355.855868 231.984 
L 359.135207 230.976 
L 362.414545 256.176 
L 365.693884 243.072 
L 368.973223 232.992 
L 372.252562 257.184 
L 375.531901 248.112 
L 378.81124 262.224 
L 382.090579 259.2 
L 385.369917 275.328 
L 388.649256 271.296 
L 391.928595 295.488 
L 395.207934 277.344 
L 398.487273 295.488 
" style="fill:none;stroke:#ff7f0e;stroke-linecap:square;stroke-width:1.5;"/>
   </g>
   <g id="patch_3">
    <path d="M 57.6 307.584 
L 57.6 41.472 
" style="fill:none;stroke:#000000;stroke-linecap:square;stroke-linejoin:miter;stroke-width:0.8;"/>
   </g>
   <g id="patch_4">
    <path d="M 414.72 307.584 
L 414.72 41.472 
" style="fill:none;stroke:#000000;stroke-linecap:square;stroke-linejoin:miter;stroke-width:0.8;"/>
   </g>
   <g id="patch_5">
    <path d="M 57.6 307.584 
L 414.72 307.584 
" style="fill:none;stroke:#000000;stroke-linecap:square;stroke-linejoin:miter;stroke-width:0.8;"/>
   </g>
   <g id="patch_6">
    <path d="M 57.6 41.472 
L 414.72 41.472 
" style="fill:none;stroke:#000000;stroke-linecap:square;stroke-linejoin:miter;stroke-width:0.8;"/>
   </g>
   <g id="text_15">
    <text style="font-family:DejaVu Sans;font-size:12px;font-style:normal;font-weight:normal;" transform="translate(125.901562 22.034625)">Simulated Mean for cos(x) Algorithm</text>
    <text style="font-family:DejaVu Sans;font-size:12px;font-style:normal;font-weight:normal;" transform="translate(132.609375 35.472)">(Wasserstein Distances in Legend)</text>
   </g>
   <g id="legend_1">
    <g id="patch_7">
     <path d="M 229.47 78.82825 
L 407.72 78.82825 
Q 409.72 78.82825 409.72 76.82825 
L 409.72 48.472 
Q 409.72 46.472 407.72 46.472 
L 229.47 46.472 
Q 227.47 46.472 227.47 48.472 
L 227.47 76.82825 
Q 227.47 78.82825 229.47 78.82825 
z
" style="fill:#ffffff;opacity:0.8;stroke:#cccccc;stroke-linejoin:miter;"/>
    </g>
    <g id="line2d_15">
     <path d="M 231.47 54.570437 
L 251.47 54.570437 
" style="fill:none;stroke:#1f77b4;stroke-linecap:square;stroke-width:1.5;"/>
    </g>
    <g id="line2d_16"/>
    <g id="text_16">
     <text style="font-family:DejaVu Sans;font-size:10px;font-style:normal;font-weight:normal;text-anchor:start;" transform="rotate(-0, 259.47, 58.070437)" x="259.47" y="58.070437">cos(x)</text>
    </g>
    <g id="line2d_17">
     <path d="M 231.47 69.248562 
L 251.47 69.248562 
" style="fill:none;stroke:#ff7f0e;stroke-linecap:square;stroke-width:1.5;"/>
    </g>
    <g id="line2d_18"/>
    <g id="text_17">
     <text style="font-family:DejaVu Sans;font-size:10px;font-style:normal;font-weight:normal;text-anchor:start;" transform="rotate(-0, 259.47, 72.748562)" x="259.47" y="72.748562">Simul. Mean (WD=0.004055)</text>
    </g>
   </g>
  </g>
 </g>
 <defs>
  <clipPath id="p0b5451d9b4">
   <rect height="266.112" width="357.12" x="57.6" y="41.472"/>
  </clipPath>
 </defs>
</svg>
