<?xml version="1.0" encoding="utf-8" standalone="no"?>
<!DOCTYPE svg PUBLIC "-//W3C//DTD SVG 1.1//EN"
  "http://www.w3.org/Graphics/SVG/1.1/DTD/svg11.dtd">
<!-- Created with matplotlib (https://matplotlib.org/) -->
<svg height="345.6pt" version="1.1" viewBox="0 0 460.8 345.6" width="460.8pt" xmlns="http://www.w3.org/2000/svg" xmlns:xlink="http://www.w3.org/1999/xlink">
 <defs>
  <style type="text/css">
*{stroke-linecap:butt;stroke-linejoin:round;}
  </style>
 </defs>
 <g id="figure_1">
  <g id="patch_1">
   <path d="M 0 345.6 
L 460.8 345.6 
L 460.8 0 
L 0 0 
z
" style="fill:#ffffff;"/>
  </g>
  <g id="axes_1">
   <g id="patch_2">
    <path d="M 57.6 307.584 
L 414.72 307.584 
L 414.72 41.472 
L 57.6 41.472 
z
" style="fill:#ffffff;"/>
   </g>
   <g id="matplotlib.axis_1">
    <g id="xtick_1">
     <g id="line2d_1">
      <defs>
       <path d="M 0 0 
L 0 3.5 
" id="m0380540626" style="stroke:#000000;stroke-width:0.8;"/>
      </defs>
      <g>
       <use style="stroke:#000000;stroke-width:0.8;" x="73.800255" xlink:href="#m0380540626" y="307.584"/>
      </g>
     </g>
     <g id="text_1">
      <text style="font-family:DejaVu Sans;font-size:10px;font-style:normal;font-weight:normal;text-anchor:middle;" transform="rotate(-0, 73.800255, 322.182437)" x="73.800255" y="322.182437">0.0</text>
     </g>
    </g>
    <g id="xtick_2">
     <g id="line2d_2">
      <g>
       <use style="stroke:#000000;stroke-width:0.8;" x="138.744153" xlink:href="#m0380540626" y="307.584"/>
      </g>
     </g>
     <g id="text_2">
      <text style="font-family:DejaVu Sans;font-size:10px;font-style:normal;font-weight:normal;text-anchor:middle;" transform="rotate(-0, 138.744153, 322.182437)" x="138.744153" y="322.182437">0.2</text>
     </g>
    </g>
    <g id="xtick_3">
     <g id="line2d_3">
      <g>
       <use style="stroke:#000000;stroke-width:0.8;" x="203.688051" xlink:href="#m0380540626" y="307.584"/>
      </g>
     </g>
     <g id="text_3">
      <text style="font-family:DejaVu Sans;font-size:10px;font-style:normal;font-weight:normal;text-anchor:middle;" transform="rotate(-0, 203.688051, 322.182437)" x="203.688051" y="322.182437">0.4</text>
     </g>
    </g>
    <g id="xtick_4">
     <g id="line2d_4">
      <g>
       <use style="stroke:#000000;stroke-width:0.8;" x="268.631949" xlink:href="#m0380540626" y="307.584"/>
      </g>
     </g>
     <g id="text_4">
      <text style="font-family:DejaVu Sans;font-size:10px;font-style:normal;font-weight:normal;text-anchor:middle;" transform="rotate(-0, 268.631949, 322.182437)" x="268.631949" y="322.182437">0.6</text>
     </g>
    </g>
    <g id="xtick_5">
     <g id="line2d_5">
      <g>
       <use style="stroke:#000000;stroke-width:0.8;" x="333.575847" xlink:href="#m0380540626" y="307.584"/>
      </g>
     </g>
     <g id="text_5">
      <text style="font-family:DejaVu Sans;font-size:10px;font-style:normal;font-weight:normal;text-anchor:middle;" transform="rotate(-0, 333.575847, 322.182437)" x="333.575847" y="322.182437">0.8</text>
     </g>
    </g>
    <g id="xtick_6">
     <g id="line2d_6">
      <g>
       <use style="stroke:#000000;stroke-width:0.8;" x="398.519745" xlink:href="#m0380540626" y="307.584"/>
      </g>
     </g>
     <g id="text_6">
      <text style="font-family:DejaVu Sans;font-size:10px;font-style:normal;font-weight:normal;text-anchor:middle;" transform="rotate(-0, 398.519745, 322.182437)" x="398.519745" y="322.182437">1.0</text>
     </g>
    </g>
    <g id="text_7">
     <text style="font-family:DejaVu Sans;font-size:10px;font-style:normal;font-weight:normal;text-anchor:middle;" transform="rotate(-0, 236.16, 335.860562)" x="236.16" y="335.860562">Input Coin's Heads Probability (λ)</text>
    </g>
   </g>
   <g id="matplotlib.axis_2">
    <g id="ytick_1">
     <g id="line2d_7">
      <defs>
       <path d="M 0 0 
L -3.5 0 
" id="mfd6db65897" style="stroke:#000000;stroke-width:0.8;"/>
      </defs>
      <g>
       <use style="stroke:#000000;stroke-width:0.8;" x="57.6" xlink:href="#mfd6db65897" y="295.488146"/>
      </g>
     </g>
     <g id="text_8">
      <text style="font-family:DejaVu Sans;font-size:10px;font-style:normal;font-weight:normal;text-anchor:end;" transform="rotate(-0, 50.6, 299.287365)" x="50.6" y="299.287365">0</text>
     </g>
    </g>
    <g id="ytick_2">
     <g id="line2d_8">
      <g>
       <use style="stroke:#000000;stroke-width:0.8;" x="57.6" xlink:href="#mfd6db65897" y="245.37003"/>
      </g>
     </g>
     <g id="text_9">
      <text style="font-family:DejaVu Sans;font-size:10px;font-style:normal;font-weight:normal;text-anchor:end;" transform="rotate(-0, 50.6, 249.169249)" x="50.6" y="249.169249">20</text>
     </g>
    </g>
    <g id="ytick_3">
     <g id="line2d_9">
      <g>
       <use style="stroke:#000000;stroke-width:0.8;" x="57.6" xlink:href="#mfd6db65897" y="195.251914"/>
      </g>
     </g>
     <g id="text_10">
      <text style="font-family:DejaVu Sans;font-size:10px;font-style:normal;font-weight:normal;text-anchor:end;" transform="rotate(-0, 50.6, 199.051133)" x="50.6" y="199.051133">40</text>
     </g>
    </g>
    <g id="ytick_4">
     <g id="line2d_10">
      <g>
       <use style="stroke:#000000;stroke-width:0.8;" x="57.6" xlink:href="#mfd6db65897" y="145.133798"/>
      </g>
     </g>
     <g id="text_11">
      <text style="font-family:DejaVu Sans;font-size:10px;font-style:normal;font-weight:normal;text-anchor:end;" transform="rotate(-0, 50.6, 148.933017)" x="50.6" y="148.933017">60</text>
     </g>
    </g>
    <g id="ytick_5">
     <g id="line2d_11">
      <g>
       <use style="stroke:#000000;stroke-width:0.8;" x="57.6" xlink:href="#mfd6db65897" y="95.015682"/>
      </g>
     </g>
     <g id="text_12">
      <text style="font-family:DejaVu Sans;font-size:10px;font-style:normal;font-weight:normal;text-anchor:end;" transform="rotate(-0, 50.6, 98.814901)" x="50.6" y="98.814901">80</text>
     </g>
    </g>
    <g id="ytick_6">
     <g id="line2d_12">
      <g>
       <use style="stroke:#000000;stroke-width:0.8;" x="57.6" xlink:href="#mfd6db65897" y="44.897566"/>
      </g>
     </g>
     <g id="text_13">
      <text style="font-family:DejaVu Sans;font-size:10px;font-style:normal;font-weight:normal;text-anchor:end;" transform="rotate(-0, 50.6, 48.696785)" x="50.6" y="48.696785">100</text>
     </g>
    </g>
    <g id="text_14">
     <text style="font-family:DejaVu Sans;font-size:10px;font-style:normal;font-weight:normal;text-anchor:middle;" transform="rotate(-90, 25.432813, 174.528)" x="25.432813" y="174.528">Coin Flips Needed</text>
    </g>
   </g>
   <g id="line2d_13">
    <path clip-path="url(#pbe02ff9276)" d="M 73.832727 292.982616 
L 77.112066 293.020425 
L 80.391405 293.057937 
L 83.670744 293.095153 
L 86.950083 293.132075 
L 90.229421 293.168704 
L 93.50876 293.205042 
L 96.788099 293.241089 
L 100.067438 293.276847 
L 103.346777 293.312317 
L 106.626116 293.347501 
L 109.905455 293.382399 
L 113.184793 293.417013 
L 116.464132 293.451345 
L 119.743471 293.485396 
L 123.02281 293.519166 
L 126.302149 293.552658 
L 129.581488 293.585872 
L 132.860826 293.618811 
L 136.140165 293.651474 
L 139.419504 293.683864 
L 142.698843 293.715981 
L 145.978182 293.747828 
L 149.257521 293.779405 
L 152.53686 293.810714 
L 155.816198 293.841755 
L 159.095537 293.872531 
L 162.374876 293.903043 
L 165.654215 293.933291 
L 168.933554 293.963278 
L 172.212893 293.993004 
L 175.492231 294.02247 
L 178.77157 294.051679 
L 182.050909 294.080631 
L 185.330248 294.109328 
L 188.609587 294.13777 
L 191.888926 294.16596 
L 195.168264 294.193899 
L 198.447603 294.221587 
L 201.726942 294.249026 
L 205.006281 294.276218 
L 208.28562 294.303163 
L 211.564959 294.329864 
L 214.844298 294.35632 
L 218.123636 294.382534 
L 221.402975 294.408507 
L 224.682314 294.434241 
L 227.961653 294.459735 
L 231.240992 294.484992 
L 234.520331 294.510014 
L 237.799669 294.5348 
L 241.079008 294.559353 
L 244.358347 294.583674 
L 247.637686 294.607764 
L 250.917025 294.631624 
L 254.196364 294.655256 
L 257.475702 294.678661 
L 260.755041 294.70184 
L 264.03438 294.724794 
L 267.313719 294.747525 
L 270.593058 294.770035 
L 273.872397 294.792323 
L 277.151736 294.814392 
L 280.431074 294.836243 
L 283.710413 294.857876 
L 286.989752 294.879294 
L 290.269091 294.900498 
L 293.54843 294.921488 
L 296.827769 294.942267 
L 300.107107 294.962834 
L 303.386446 294.983193 
L 306.665785 295.003343 
L 309.945124 295.023286 
L 313.224463 295.043023 
L 316.503802 295.062556 
L 319.78314 295.081886 
L 323.062479 295.101014 
L 326.341818 295.119941 
L 329.621157 295.138668 
L 332.900496 295.157197 
L 336.179835 295.175529 
L 339.459174 295.193665 
L 342.738512 295.211606 
L 346.017851 295.229354 
L 349.29719 295.24691 
L 352.576529 295.264275 
L 355.855868 295.28145 
L 359.135207 295.298436 
L 362.414545 295.315236 
L 365.693884 295.331848 
L 368.973223 295.348276 
L 372.252562 295.36452 
L 375.531901 295.380582 
L 378.81124 295.396462 
L 382.090579 295.412162 
L 385.369917 295.427683 
L 388.649256 295.443026 
L 391.928595 295.458192 
L 395.207934 295.473183 
L 398.487273 295.488 
" style="fill:none;stroke:#1f77b4;stroke-linecap:square;stroke-width:1.5;"/>
   </g>
   <g id="line2d_14">
    <path clip-path="url(#pbe02ff9276)" d="M 73.832727 292.98224 
L 77.112066 292.962193 
L 80.391405 292.932122 
L 83.670744 292.917086 
L 86.950083 292.887016 
L 90.229421 292.882004 
L 93.50876 292.846921 
L 96.788099 292.766732 
L 100.067438 292.766732 
L 103.346777 292.826874 
L 106.626116 292.701579 
L 109.905455 292.701579 
L 113.184793 292.556236 
L 116.464132 292.571271 
L 119.743471 292.606354 
L 123.02281 292.581295 
L 126.302149 292.526165 
L 129.581488 292.506118 
L 132.860826 292.496094 
L 136.140165 292.415905 
L 139.419504 292.29061 
L 142.698843 292.420917 
L 145.978182 292.205409 
L 149.257521 292.18035 
L 152.53686 292.270563 
L 155.816198 292.150279 
L 159.095537 292.055055 
L 162.374876 292.105173 
L 165.654215 291.879641 
L 168.933554 291.964842 
L 172.212893 291.98489 
L 175.492231 291.859594 
L 178.77157 291.894677 
L 182.050909 291.724275 
L 185.330248 291.563897 
L 188.609587 291.614015 
L 191.888926 291.453638 
L 195.168264 291.403519 
L 198.447603 291.473685 
L 201.726942 291.448626 
L 205.006281 291.338366 
L 208.28562 291.32333 
L 211.564959 291.162952 
L 214.844298 290.676807 
L 218.123636 290.872267 
L 221.402975 290.762008 
L 224.682314 290.787067 
L 227.961653 290.636712 
L 231.240992 290.541488 
L 234.520331 290.315956 
L 237.799669 290.16059 
L 241.079008 290.225744 
L 244.358347 289.729574 
L 247.637686 290.295909 
L 250.917025 290.005224 
L 254.196364 289.945082 
L 257.475702 289.935059 
L 260.755041 289.68948 
L 264.03438 289.458936 
L 267.313719 289.403807 
L 270.593058 289.183287 
L 273.872397 288.957755 
L 277.151736 288.83246 
L 280.431074 288.391421 
L 283.710413 288.135818 
L 286.989752 288.210995 
L 290.269091 287.704802 
L 293.54843 287.885228 
L 296.827769 287.273787 
L 300.107107 287.108397 
L 303.386446 286.983102 
L 306.665785 285.965704 
L 309.945124 286.637287 
L 313.224463 286.206271 
L 316.503802 285.078613 
L 319.78314 284.311806 
L 323.062479 284.306794 
L 326.341818 283.875778 
L 329.621157 283.489869 
L 332.900496 283.159089 
L 336.179835 281.926184 
L 339.459174 282.988688 
L 342.738512 281.024058 
L 346.017851 280.432664 
L 349.29719 278.743683 
L 352.576529 277.826522 
L 355.855868 276.648746 
L 359.135207 274.714187 
L 362.414545 272.01282 
L 365.693884 270.454147 
L 368.973223 268.258973 
L 372.252562 265.823233 
L 375.531901 260.320264 
L 378.81124 252.672239 
L 382.090579 247.585251 
L 385.369917 237.165694 
L 388.649256 216.491971 
L 391.928595 171.410726 
L 395.207934 53.568 
" style="fill:none;stroke:#ff7f0e;stroke-linecap:square;stroke-width:1.5;"/>
   </g>
   <g id="patch_3">
    <path d="M 57.6 307.584 
L 57.6 41.472 
" style="fill:none;stroke:#000000;stroke-linecap:square;stroke-linejoin:miter;stroke-width:0.8;"/>
   </g>
   <g id="patch_4">
    <path d="M 414.72 307.584 
L 414.72 41.472 
" style="fill:none;stroke:#000000;stroke-linecap:square;stroke-linejoin:miter;stroke-width:0.8;"/>
   </g>
   <g id="patch_5">
    <path d="M 57.6 307.584 
L 414.72 307.584 
" style="fill:none;stroke:#000000;stroke-linecap:square;stroke-linejoin:miter;stroke-width:0.8;"/>
   </g>
   <g id="patch_6">
    <path d="M 57.6 41.472 
L 414.72 41.472 
" style="fill:none;stroke:#000000;stroke-linecap:square;stroke-linejoin:miter;stroke-width:0.8;"/>
   </g>
   <g id="text_15">
    <text style="font-family:DejaVu Sans;font-size:12px;font-style:normal;font-weight:normal;text-anchor:middle;" transform="rotate(-0, 236.16, 35.472)" x="236.16" y="35.472">Coin Flips for exp(-x)</text>
   </g>
   <g id="legend_1">
    <g id="patch_7">
     <path d="M 64.6 78.82825 
L 286.375 78.82825 
Q 288.375 78.82825 288.375 76.82825 
L 288.375 48.472 
Q 288.375 46.472 286.375 46.472 
L 64.6 46.472 
Q 62.6 46.472 62.6 48.472 
L 62.6 76.82825 
Q 62.6 78.82825 64.6 78.82825 
z
" style="fill:#ffffff;opacity:0.8;stroke:#cccccc;stroke-linejoin:miter;"/>
    </g>
    <g id="line2d_15">
     <path d="M 66.6 54.570437 
L 86.6 54.570437 
" style="fill:none;stroke:#1f77b4;stroke-linecap:square;stroke-width:1.5;"/>
    </g>
    <g id="line2d_16"/>
    <g id="text_16">
     <text style="font-family:DejaVu Sans;font-size:10px;font-style:normal;font-weight:normal;text-anchor:start;" transform="rotate(-0, 94.6, 58.070437)" x="94.6" y="58.070437">Coin Flip Lower Bound</text>
    </g>
    <g id="line2d_17">
     <path d="M 66.6 69.248562 
L 86.6 69.248562 
" style="fill:none;stroke:#ff7f0e;stroke-linecap:square;stroke-width:1.5;"/>
    </g>
    <g id="line2d_18"/>
    <g id="text_17">
     <text style="font-family:DejaVu Sans;font-size:10px;font-style:normal;font-weight:normal;text-anchor:start;" transform="rotate(-0, 94.6, 72.748562)" x="94.6" y="72.748562">Average Coins Flipped exp(-x) (Alg. 2)</text>
    </g>
   </g>
  </g>
 </g>
 <defs>
  <clipPath id="pbe02ff9276">
   <rect height="266.112" width="357.12" x="57.6" y="41.472"/>
  </clipPath>
 </defs>
</svg>
