<?xml version="1.0" encoding="utf-8" standalone="no"?>
<!DOCTYPE svg PUBLIC "-//W3C//DTD SVG 1.1//EN"
  "http://www.w3.org/Graphics/SVG/1.1/DTD/svg11.dtd">
<!-- Created with matplotlib (https://matplotlib.org/) -->
<svg height="252pt" version="1.1" viewBox="0 0 324 252" width="324pt" xmlns="http://www.w3.org/2000/svg" xmlns:xlink="http://www.w3.org/1999/xlink">
 <defs>
  <style type="text/css">
*{stroke-linecap:butt;stroke-linejoin:round;}
  </style>
 </defs>
 <g id="figure_1">
  <g id="patch_1">
   <path d="M 0 252 
L 324 252 
L 324 0 
L 0 0 
z
" style="fill:#ffffff;"/>
  </g>
  <g id="axes_1">
   <g id="patch_2">
    <path d="M 40.5 224.28 
L 291.6 224.28 
L 291.6 30.24 
L 40.5 30.24 
z
" style="fill:#ffffff;"/>
   </g>
   <g id="matplotlib.axis_1">
    <g id="xtick_1">
     <g id="line2d_1">
      <defs>
       <path d="M 0 0 
L 0 3.5 
" id="m44569aa222" style="stroke:#000000;stroke-width:0.8;"/>
      </defs>
      <g>
       <use style="stroke:#000000;stroke-width:0.8;" x="51.889843" xlink:href="#m44569aa222" y="224.28"/>
      </g>
     </g>
     <g id="text_1">
      <text style="font-family:DejaVu Sans;font-size:10px;font-style:normal;font-weight:normal;text-anchor:middle;" transform="rotate(-0, 51.889843, 238.878438)" x="51.889843" y="238.878438">0.0</text>
     </g>
    </g>
    <g id="xtick_2">
     <g id="line2d_2">
      <g>
       <use style="stroke:#000000;stroke-width:0.8;" x="99.476203" xlink:href="#m44569aa222" y="224.28"/>
      </g>
     </g>
     <g id="text_2">
      <text style="font-family:DejaVu Sans;font-size:10px;font-style:normal;font-weight:normal;text-anchor:middle;" transform="rotate(-0, 99.476203, 238.878438)" x="99.476203" y="238.878438">0.2</text>
     </g>
    </g>
    <g id="xtick_3">
     <g id="line2d_3">
      <g>
       <use style="stroke:#000000;stroke-width:0.8;" x="147.062562" xlink:href="#m44569aa222" y="224.28"/>
      </g>
     </g>
     <g id="text_3">
      <text style="font-family:DejaVu Sans;font-size:10px;font-style:normal;font-weight:normal;text-anchor:middle;" transform="rotate(-0, 147.062562, 238.878438)" x="147.062562" y="238.878438">0.4</text>
     </g>
    </g>
    <g id="xtick_4">
     <g id="line2d_4">
      <g>
       <use style="stroke:#000000;stroke-width:0.8;" x="194.648921" xlink:href="#m44569aa222" y="224.28"/>
      </g>
     </g>
     <g id="text_4">
      <text style="font-family:DejaVu Sans;font-size:10px;font-style:normal;font-weight:normal;text-anchor:middle;" transform="rotate(-0, 194.648921, 238.878438)" x="194.648921" y="238.878438">0.6</text>
     </g>
    </g>
    <g id="xtick_5">
     <g id="line2d_5">
      <g>
       <use style="stroke:#000000;stroke-width:0.8;" x="242.235281" xlink:href="#m44569aa222" y="224.28"/>
      </g>
     </g>
     <g id="text_5">
      <text style="font-family:DejaVu Sans;font-size:10px;font-style:normal;font-weight:normal;text-anchor:middle;" transform="rotate(-0, 242.235281, 238.878438)" x="242.235281" y="238.878438">0.8</text>
     </g>
    </g>
    <g id="xtick_6">
     <g id="line2d_6">
      <g>
       <use style="stroke:#000000;stroke-width:0.8;" x="289.82164" xlink:href="#m44569aa222" y="224.28"/>
      </g>
     </g>
     <g id="text_6">
      <text style="font-family:DejaVu Sans;font-size:10px;font-style:normal;font-weight:normal;text-anchor:middle;" transform="rotate(-0, 289.82164, 238.878438)" x="289.82164" y="238.878438">1.0</text>
     </g>
    </g>
    <g id="text_7">
     <text style="font-family:DejaVu Sans;font-size:10px;font-style:normal;font-weight:normal;text-anchor:middle;" transform="rotate(-0, 166.05, 252.556563)" x="166.05" y="252.556563">Probability</text>
    </g>
   </g>
   <g id="matplotlib.axis_2">
    <g id="ytick_1">
     <g id="line2d_7">
      <defs>
       <path d="M 0 0 
L -3.5 0 
" id="m8f7f9153eb" style="stroke:#000000;stroke-width:0.8;"/>
      </defs>
      <g>
       <use style="stroke:#000000;stroke-width:0.8;" x="40.5" xlink:href="#m8f7f9153eb" y="216.095691"/>
      </g>
     </g>
     <g id="text_8">
      <text style="font-family:DejaVu Sans;font-size:10px;font-style:normal;font-weight:normal;text-anchor:end;" transform="rotate(-0, 33.5, 219.89491)" x="33.5" y="219.89491">0</text>
     </g>
    </g>
    <g id="ytick_2">
     <g id="line2d_8">
      <g>
       <use style="stroke:#000000;stroke-width:0.8;" x="40.5" xlink:href="#m8f7f9153eb" y="183.562891"/>
      </g>
     </g>
     <g id="text_9">
      <text style="font-family:DejaVu Sans;font-size:10px;font-style:normal;font-weight:normal;text-anchor:end;" transform="rotate(-0, 33.5, 187.362109)" x="33.5" y="187.362109">100</text>
     </g>
    </g>
    <g id="ytick_3">
     <g id="line2d_9">
      <g>
       <use style="stroke:#000000;stroke-width:0.8;" x="40.5" xlink:href="#m8f7f9153eb" y="151.03009"/>
      </g>
     </g>
     <g id="text_10">
      <text style="font-family:DejaVu Sans;font-size:10px;font-style:normal;font-weight:normal;text-anchor:end;" transform="rotate(-0, 33.5, 154.829309)" x="33.5" y="154.829309">200</text>
     </g>
    </g>
    <g id="ytick_4">
     <g id="line2d_10">
      <g>
       <use style="stroke:#000000;stroke-width:0.8;" x="40.5" xlink:href="#m8f7f9153eb" y="118.49729"/>
      </g>
     </g>
     <g id="text_11">
      <text style="font-family:DejaVu Sans;font-size:10px;font-style:normal;font-weight:normal;text-anchor:end;" transform="rotate(-0, 33.5, 122.296509)" x="33.5" y="122.296509">300</text>
     </g>
    </g>
    <g id="ytick_5">
     <g id="line2d_11">
      <g>
       <use style="stroke:#000000;stroke-width:0.8;" x="40.5" xlink:href="#m8f7f9153eb" y="85.96449"/>
      </g>
     </g>
     <g id="text_12">
      <text style="font-family:DejaVu Sans;font-size:10px;font-style:normal;font-weight:normal;text-anchor:end;" transform="rotate(-0, 33.5, 89.763709)" x="33.5" y="89.763709">400</text>
     </g>
    </g>
    <g id="ytick_6">
     <g id="line2d_12">
      <g>
       <use style="stroke:#000000;stroke-width:0.8;" x="40.5" xlink:href="#m8f7f9153eb" y="53.43169"/>
      </g>
     </g>
     <g id="text_13">
      <text style="font-family:DejaVu Sans;font-size:10px;font-style:normal;font-weight:normal;text-anchor:end;" transform="rotate(-0, 33.5, 57.230909)" x="33.5" y="57.230909">500</text>
     </g>
    </g>
    <g id="text_14">
     <text style="font-family:DejaVu Sans;font-size:10px;font-style:normal;font-weight:normal;text-anchor:middle;" transform="rotate(-90, 8.332812, 127.26)" x="8.332812" y="127.26">Average Bits Consumed Per Call</text>
    </g>
   </g>
   <g id="line2d_13">
    <path clip-path="url(#pab0216f067)" d="M 51.913636 215.452843 
L 54.316507 215.433323 
L 56.719378 215.425515 
L 59.122249 215.46 
L 61.52512 215.38062 
L 63.92799 215.439179 
L 66.330861 215.392982 
L 68.733732 215.409899 
L 71.136603 215.396236 
L 73.539474 215.368908 
L 75.942344 215.299288 
L 78.345215 215.324013 
L 80.748086 215.356546 
L 83.150957 215.311 
L 85.553828 215.293432 
L 87.956699 215.340279 
L 90.359569 215.196484 
L 92.76244 215.234873 
L 95.165311 215.243332 
L 97.568182 215.224463 
L 99.971053 215.218607 
L 102.373923 215.260249 
L 104.776794 215.169807 
L 107.179665 215.116454 
L 109.582536 215.136624 
L 111.985407 215.062449 
L 114.388278 215.014301 
L 116.791148 215.061799 
L 119.194019 214.978515 
L 121.59689 214.966803 
L 123.999761 215.040327 
L 126.402632 214.905641 
L 128.805502 214.968755 
L 131.208373 214.748833 
L 133.611244 214.752737 
L 136.014115 214.634968 
L 138.416986 214.754689 
L 140.819856 214.692877 
L 143.222727 214.64668 
L 145.625598 214.639523 
L 148.028469 214.628462 
L 150.43134 214.53737 
L 152.834211 214.453435 
L 155.237081 214.330461 
L 157.639952 214.433915 
L 160.042823 214.489221 
L 162.445694 214.403335 
L 164.848565 214.447579 
L 167.251435 214.116395 
L 169.654306 214.119649 
L 172.057177 214.176906 
L 174.460048 214.003181 
L 176.862919 213.78391 
L 179.265789 213.623198 
L 181.66866 213.761137 
L 184.071531 213.766342 
L 186.474402 213.617993 
L 188.877273 213.251023 
L 191.280144 213.33756 
L 193.683014 213.376599 
L 196.085885 212.816385 
L 198.488756 213.096167 
L 200.891627 212.513179 
L 203.294498 212.411026 
L 205.697368 212.308873 
L 208.100239 212.523589 
L 210.50311 212.126039 
L 212.905981 211.811772 
L 215.308852 211.414221 
L 217.711722 211.49295 
L 220.114593 211.388195 
L 222.517464 210.343892 
L 224.920335 210.331529 
L 227.323206 209.599541 
L 229.726077 209.382873 
L 232.128947 209.264454 
L 234.531818 208.541575 
L 236.934689 208.7153 
L 239.33756 207.052874 
L 241.740431 206.190755 
L 244.143301 205.71057 
L 246.546172 204.355905 
L 248.949043 203.926472 
L 251.351914 202.399382 
L 253.754785 201.242516 
L 256.157656 198.701704 
L 258.560526 195.741219 
L 260.963397 192.450852 
L 263.366268 187.314573 
L 265.769139 182.567387 
L 268.17201 175.224734 
L 270.57488 169.312223 
L 272.977751 154.683524 
L 275.380622 135.255586 
L 277.783493 98.657487 
L 280.186364 39.06 
" style="fill:none;stroke:#1f77b4;stroke-linecap:square;stroke-width:1.5;"/>
   </g>
   <g id="patch_3">
    <path d="M 40.5 224.28 
L 40.5 30.24 
" style="fill:none;stroke:#000000;stroke-linecap:square;stroke-linejoin:miter;stroke-width:0.8;"/>
   </g>
   <g id="patch_4">
    <path d="M 291.6 224.28 
L 291.6 30.24 
" style="fill:none;stroke:#000000;stroke-linecap:square;stroke-linejoin:miter;stroke-width:0.8;"/>
   </g>
   <g id="patch_5">
    <path d="M 40.5 224.28 
L 291.6 224.28 
" style="fill:none;stroke:#000000;stroke-linecap:square;stroke-linejoin:miter;stroke-width:0.8;"/>
   </g>
   <g id="patch_6">
    <path d="M 40.5 30.24 
L 291.6 30.24 
" style="fill:none;stroke:#000000;stroke-linecap:square;stroke-linejoin:miter;stroke-width:0.8;"/>
   </g>
   <g id="text_15">
    <text style="font-family:DejaVu Sans;font-size:12px;font-style:normal;font-weight:normal;text-anchor:middle;" transform="rotate(-0, 166.05, 24.24)" x="166.05" y="24.24">Avg. Bits Consumed by exp(-x) (Flajolet) Algorithm</text>
   </g>
   <g id="legend_1">
    <g id="patch_7">
     <path d="M 47.5 52.918125 
L 265.692188 52.918125 
Q 267.692188 52.918125 267.692188 50.918125 
L 267.692188 37.24 
Q 267.692188 35.24 265.692188 35.24 
L 47.5 35.24 
Q 45.5 35.24 45.5 37.24 
L 45.5 50.918125 
Q 45.5 52.918125 47.5 52.918125 
z
" style="fill:#ffffff;opacity:0.8;stroke:#cccccc;stroke-linejoin:miter;"/>
    </g>
    <g id="line2d_14">
     <path d="M 49.5 43.338437 
L 69.5 43.338437 
" style="fill:none;stroke:#1f77b4;stroke-linecap:square;stroke-width:1.5;"/>
    </g>
    <g id="line2d_15"/>
    <g id="text_16">
     <text style="font-family:DejaVu Sans;font-size:10px;font-style:normal;font-weight:normal;text-anchor:start;" transform="rotate(-0, 77.5, 46.838437)" x="77.5" y="46.838437">Avg. Bits Consumed exp(-x) (Flajolet)</text>
    </g>
   </g>
  </g>
 </g>
 <defs>
  <clipPath id="pab0216f067">
   <rect height="194.04" width="251.1" x="40.5" y="30.24"/>
  </clipPath>
 </defs>
</svg>
