<svg height="460.8" viewBox="0 0 460.8 345.6" width="614.4" xmlns="http://www.w3.org/2000/svg" xmlns:xlink="http://www.w3.org/1999/xlink"><defs><style>*{stroke-linecap:butt;stroke-linejoin:round}</style></defs><g id="figure_1"><path d="M0 345.6h460.8V0H0z" fill="#fff" id="patch_1"/><g id="axes_1"><path d="M57.6 307.584h357.12V41.472H57.6z" fill="#fff" id="patch_2"/><g id="matplotlib.axis_1"><g id="xtick_1"><g id="line2d_1"><defs><path d="M0 0v3.5" id="m0323e510a7" stroke="#000" stroke-width=".8"/></defs><use x="73.8" xlink:href="#m0323e510a7" y="307.584" stroke="#000" stroke-width=".8"/></g><text x="73.8" y="322.182" font-family="DejaVu Sans" font-size="10" font-weight="400" text-anchor="middle" id="text_1">0.0</text></g><g id="xtick_2"><use x="138.744" xlink:href="#m0323e510a7" y="307.584" stroke="#000" stroke-width=".8" id="line2d_2"/><text x="138.744" y="322.182" font-family="DejaVu Sans" font-size="10" font-weight="400" text-anchor="middle" id="text_2">0.2</text></g><g id="xtick_3"><use x="203.688" xlink:href="#m0323e510a7" y="307.584" stroke="#000" stroke-width=".8" id="line2d_3"/><text x="203.688" y="322.182" font-family="DejaVu Sans" font-size="10" font-weight="400" text-anchor="middle" id="text_3">0.4</text></g><g id="xtick_4"><use x="268.632" xlink:href="#m0323e510a7" y="307.584" stroke="#000" stroke-width=".8" id="line2d_4"/><text x="268.632" y="322.182" font-family="DejaVu Sans" font-size="10" font-weight="400" text-anchor="middle" id="text_4">0.6</text></g><g id="xtick_5"><use x="333.576" xlink:href="#m0323e510a7" y="307.584" stroke="#000" stroke-width=".8" id="line2d_5"/><text x="333.576" y="322.182" font-family="DejaVu Sans" font-size="10" font-weight="400" text-anchor="middle" id="text_5">0.8</text></g><g id="xtick_6"><use x="398.52" xlink:href="#m0323e510a7" y="307.584" stroke="#000" stroke-width=".8" id="line2d_6"/><text x="398.52" y="322.182" font-family="DejaVu Sans" font-size="10" font-weight="400" text-anchor="middle" id="text_6">1.0</text></g><text x="236.16" y="335.861" font-family="DejaVu Sans" font-size="10" font-weight="400" text-anchor="middle" id="text_7">Input Coin&apos;s Heads Probability (λ)</text></g><g id="matplotlib.axis_2"><g id="ytick_1"><g id="line2d_7"><defs><path d="M0 0h-3.5" id="mf0f841842d" stroke="#000" stroke-width=".8"/></defs><use x="57.6" xlink:href="#mf0f841842d" y="295.488" stroke="#000" stroke-width=".8"/></g><text x="50.6" y="299.287" font-family="DejaVu Sans" font-size="10" font-weight="400" text-anchor="end" id="text_8">0</text></g><g id="ytick_2"><use x="57.6" xlink:href="#mf0f841842d" y="244.364" stroke="#000" stroke-width=".8" id="line2d_8"/><text x="50.6" y="248.163" font-family="DejaVu Sans" font-size="10" font-weight="400" text-anchor="end" id="text_9">50</text></g><g id="ytick_3"><use x="57.6" xlink:href="#mf0f841842d" y="193.24" stroke="#000" stroke-width=".8" id="line2d_9"/><text x="50.6" y="197.04" font-family="DejaVu Sans" font-size="10" font-weight="400" text-anchor="end" id="text_10">100</text></g><g id="ytick_4"><use x="57.6" xlink:href="#mf0f841842d" y="142.117" stroke="#000" stroke-width=".8" id="line2d_10"/><text x="50.6" y="145.916" font-family="DejaVu Sans" font-size="10" font-weight="400" text-anchor="end" id="text_11">150</text></g><g id="ytick_5"><use x="57.6" xlink:href="#mf0f841842d" y="90.993" stroke="#000" stroke-width=".8" id="line2d_11"/><text x="50.6" y="94.792" font-family="DejaVu Sans" font-size="10" font-weight="400" text-anchor="end" id="text_12">200</text></g><text transform="rotate(-90 25.433 174.528)" x="25.433" y="174.528" font-family="DejaVu Sans" font-size="10" font-weight="400" text-anchor="middle" id="text_13">Coin Flips Needed</text></g><path clip-path="url(#p0d850a159e)" d="M73.833 294.466l3.28.015 3.278.015 3.28.016 3.28.015 3.278.015 3.28.014 3.28.015 3.278.015 3.28.014 3.28.015 3.278.014 3.28.014 3.28.014 3.278.014 3.28.014 3.28.013 3.278.014 3.28.013 3.28.014 3.279.013 3.279.013 3.28.013 3.279.013 3.279.013 3.28.012 3.279.013 3.279.012 3.28.013 3.279.012 3.279.012 3.28.012 3.279.012 3.279.012 3.28.011 3.279.012 3.279.012 3.28.011 3.279.011 3.279.011 3.28.012 3.279.01 3.279.011 3.28.011 3.279.01 3.279.012 3.28.01 3.279.01 3.279.01 3.28.011 3.279.01 3.279.01 3.28.01 3.279.01 3.279.01 3.28.01 3.279.009 3.279.01 3.28.009 3.279.009 3.28.01 3.278.008 3.28.01 3.28.008 3.278.009 3.28.009 3.28.008 3.278.009 3.28.008 3.28.009 3.278.008 3.28.008 3.28.008 3.278.008 3.28.008 3.28.008 3.278.008 3.28.008 3.28.007 3.278.008 3.28.008 3.28.007 3.279.007 3.279.007 3.28.008 3.279.007 3.279.007 3.28.007 3.279.007 3.279.006 3.28.007 3.279.007 3.279.006 3.28.007 3.279.006 3.279.006 3.28.007 3.279.006 3.279.006 3.28.006" fill="none" stroke="#1f77b4" stroke-linecap="square" stroke-width="1.5" id="line2d_12"/><path clip-path="url(#p0d850a159e)" d="M73.833 294.466l3.28-.009 3.278-.008 3.28-.004 3.28-.037 3.278-.024 3.28.012 3.28-.024 3.278-.003 3.28.007 3.28-.056 3.278.033 3.28-.047 3.28-.037 3.278-.018 3.28.012 3.28-.02 3.278.022 3.28-.053 3.28-.008 3.279-.008 3.279-.009 3.28-.022 3.279-.05 3.279.09 3.28-.18 3.279-.013 3.279.002 3.28-.031 3.279-.035 3.279-.053 3.28.045 3.279-.1 3.279-.035 3.28.061 3.279-.19 3.279-.098 3.28.063 3.279.033 3.279-.094 3.28-.043 3.279-.078 3.279-.038 3.28-.133 3.279.07 3.279-.158 3.28.114 3.279-.006 3.279-.307 3.28-.024 3.279.098 3.279-.004 3.28-.348 3.279.035 3.279-.035 3.28-.206 3.279-.432 3.279.107 3.28-.08 3.279-.004 3.28-.456 3.278.441 3.28-.296 3.28-.425 3.278-.109 3.28-.613 3.28.398 3.278-.625 3.28-.233 3.28-.195 3.278-.468 3.28-.648 3.28-.372 3.278-.665 3.28.528 3.28-.925 3.278-.975 3.28-.289 3.28-.574 3.278-1.182 3.28-1.665 3.28-1.01 3.279-2.256 3.279-2.057 3.28-3.124 3.279-1.8 3.279-1.15 3.28-6.318 3.279-1.254 3.279-9.272 3.28-9.177 3.279-16.207 3.279-17.662 3.28-24.165 3.279-39.74 3.279-94" fill="none" stroke="#ff7f0e" stroke-linecap="square" stroke-width="1.5" id="line2d_13"/><path d="M57.6 307.584V41.472" fill="none" stroke="#000" stroke-linecap="square" stroke-width=".8" id="patch_3"/><path d="M414.72 307.584V41.472" fill="none" stroke="#000" stroke-linecap="square" stroke-width=".8" id="patch_4"/><path d="M57.6 307.584h357.12" fill="none" stroke="#000" stroke-linecap="square" stroke-width=".8" id="patch_5"/><path d="M57.6 41.472h357.12" fill="none" stroke="#000" stroke-linecap="square" stroke-width=".8" id="patch_6"/><text x="236.16" y="35.472" font-family="DejaVu Sans" font-size="12" font-weight="400" text-anchor="middle" id="text_14">Coin Flips for exp(-x)</text><g id="legend_1"><path d="M64.6 78.828h210.128q2 0 2-2V48.472q0-2-2-2H64.6q-2 0-2 2v28.356q0 2 2 2z" fill="#fff" opacity=".8" stroke="#ccc" id="patch_7"/><path d="M66.6 54.57h20" fill="none" stroke="#1f77b4" stroke-linecap="square" stroke-width="1.5" id="line2d_14"/><text x="94.6" y="58.07" font-family="DejaVu Sans" font-size="10" font-weight="400" id="text_15">Coin Flip Lower Bound</text><path d="M66.6 69.249h20" fill="none" stroke="#ff7f0e" stroke-linecap="square" stroke-width="1.5" id="line2d_16"/><text x="94.6" y="72.749" font-family="DejaVu Sans" font-size="10" font-weight="400" id="text_16">Avg. Coins Flipped exp(-x) (Flajolet)</text></g></g></g><defs><clipPath id="p0d850a159e"><path d="M57.6 41.472h357.12v266.112H57.6z"/></clipPath></defs></svg>