<?xml version="1.0" encoding="utf-8" standalone="no"?>
<!DOCTYPE svg PUBLIC "-//W3C//DTD SVG 1.1//EN"
  "http://www.w3.org/Graphics/SVG/1.1/DTD/svg11.dtd">
<!-- Created with matplotlib (https://matplotlib.org/) -->
<svg height="345.6pt" version="1.1" viewBox="0 0 460.8 345.6" width="460.8pt" xmlns="http://www.w3.org/2000/svg" xmlns:xlink="http://www.w3.org/1999/xlink">
 <defs>
  <style type="text/css">
*{stroke-linecap:butt;stroke-linejoin:round;}
  </style>
 </defs>
 <g id="figure_1">
  <g id="patch_1">
   <path d="M 0 345.6 
L 460.8 345.6 
L 460.8 0 
L 0 0 
z
" style="fill:#ffffff;"/>
  </g>
  <g id="axes_1">
   <g id="patch_2">
    <path d="M 57.6 307.584 
L 414.72 307.584 
L 414.72 41.472 
L 57.6 41.472 
z
" style="fill:#ffffff;"/>
   </g>
   <g id="matplotlib.axis_1">
    <g id="xtick_1">
     <g id="line2d_1">
      <defs>
       <path d="M 0 0 
L 0 3.5 
" id="m6218f0f7c0" style="stroke:#000000;stroke-width:0.8;"/>
      </defs>
      <g>
       <use style="stroke:#000000;stroke-width:0.8;" x="73.800255" xlink:href="#m6218f0f7c0" y="307.584"/>
      </g>
     </g>
     <g id="text_1">
      <text style="font-family:DejaVu Sans;font-size:10px;font-style:normal;font-weight:normal;text-anchor:middle;" transform="rotate(-0, 73.800255, 322.182437)" x="73.800255" y="322.182437">0.0</text>
     </g>
    </g>
    <g id="xtick_2">
     <g id="line2d_2">
      <g>
       <use style="stroke:#000000;stroke-width:0.8;" x="138.744153" xlink:href="#m6218f0f7c0" y="307.584"/>
      </g>
     </g>
     <g id="text_2">
      <text style="font-family:DejaVu Sans;font-size:10px;font-style:normal;font-weight:normal;text-anchor:middle;" transform="rotate(-0, 138.744153, 322.182437)" x="138.744153" y="322.182437">0.2</text>
     </g>
    </g>
    <g id="xtick_3">
     <g id="line2d_3">
      <g>
       <use style="stroke:#000000;stroke-width:0.8;" x="203.688051" xlink:href="#m6218f0f7c0" y="307.584"/>
      </g>
     </g>
     <g id="text_3">
      <text style="font-family:DejaVu Sans;font-size:10px;font-style:normal;font-weight:normal;text-anchor:middle;" transform="rotate(-0, 203.688051, 322.182437)" x="203.688051" y="322.182437">0.4</text>
     </g>
    </g>
    <g id="xtick_4">
     <g id="line2d_4">
      <g>
       <use style="stroke:#000000;stroke-width:0.8;" x="268.631949" xlink:href="#m6218f0f7c0" y="307.584"/>
      </g>
     </g>
     <g id="text_4">
      <text style="font-family:DejaVu Sans;font-size:10px;font-style:normal;font-weight:normal;text-anchor:middle;" transform="rotate(-0, 268.631949, 322.182437)" x="268.631949" y="322.182437">0.6</text>
     </g>
    </g>
    <g id="xtick_5">
     <g id="line2d_5">
      <g>
       <use style="stroke:#000000;stroke-width:0.8;" x="333.575847" xlink:href="#m6218f0f7c0" y="307.584"/>
      </g>
     </g>
     <g id="text_5">
      <text style="font-family:DejaVu Sans;font-size:10px;font-style:normal;font-weight:normal;text-anchor:middle;" transform="rotate(-0, 333.575847, 322.182437)" x="333.575847" y="322.182437">0.8</text>
     </g>
    </g>
    <g id="xtick_6">
     <g id="line2d_6">
      <g>
       <use style="stroke:#000000;stroke-width:0.8;" x="398.519745" xlink:href="#m6218f0f7c0" y="307.584"/>
      </g>
     </g>
     <g id="text_6">
      <text style="font-family:DejaVu Sans;font-size:10px;font-style:normal;font-weight:normal;text-anchor:middle;" transform="rotate(-0, 398.519745, 322.182437)" x="398.519745" y="322.182437">1.0</text>
     </g>
    </g>
    <g id="text_7">
     <text style="font-family:DejaVu Sans;font-size:10px;font-style:normal;font-weight:normal;text-anchor:middle;" transform="rotate(-0, 236.16, 335.860562)" x="236.16" y="335.860562">Input Coin's Heads Probability (λ)</text>
    </g>
   </g>
   <g id="matplotlib.axis_2">
    <g id="ytick_1">
     <g id="line2d_7">
      <defs>
       <path d="M 0 0 
L -3.5 0 
" id="m0bbb8998d8" style="stroke:#000000;stroke-width:0.8;"/>
      </defs>
      <g>
       <use style="stroke:#000000;stroke-width:0.8;" x="57.6" xlink:href="#m0bbb8998d8" y="295.488151"/>
      </g>
     </g>
     <g id="text_8">
      <text style="font-family:DejaVu Sans;font-size:10px;font-style:normal;font-weight:normal;text-anchor:end;" transform="rotate(-0, 50.6, 299.28737)" x="50.6" y="299.28737">0</text>
     </g>
    </g>
    <g id="ytick_2">
     <g id="line2d_8">
      <g>
       <use style="stroke:#000000;stroke-width:0.8;" x="57.6" xlink:href="#m0bbb8998d8" y="243.585094"/>
      </g>
     </g>
     <g id="text_9">
      <text style="font-family:DejaVu Sans;font-size:10px;font-style:normal;font-weight:normal;text-anchor:end;" transform="rotate(-0, 50.6, 247.384312)" x="50.6" y="247.384312">20</text>
     </g>
    </g>
    <g id="ytick_3">
     <g id="line2d_9">
      <g>
       <use style="stroke:#000000;stroke-width:0.8;" x="57.6" xlink:href="#m0bbb8998d8" y="191.682036"/>
      </g>
     </g>
     <g id="text_10">
      <text style="font-family:DejaVu Sans;font-size:10px;font-style:normal;font-weight:normal;text-anchor:end;" transform="rotate(-0, 50.6, 195.481255)" x="50.6" y="195.481255">40</text>
     </g>
    </g>
    <g id="ytick_4">
     <g id="line2d_10">
      <g>
       <use style="stroke:#000000;stroke-width:0.8;" x="57.6" xlink:href="#m0bbb8998d8" y="139.778979"/>
      </g>
     </g>
     <g id="text_11">
      <text style="font-family:DejaVu Sans;font-size:10px;font-style:normal;font-weight:normal;text-anchor:end;" transform="rotate(-0, 50.6, 143.578197)" x="50.6" y="143.578197">60</text>
     </g>
    </g>
    <g id="ytick_5">
     <g id="line2d_11">
      <g>
       <use style="stroke:#000000;stroke-width:0.8;" x="57.6" xlink:href="#m0bbb8998d8" y="87.875921"/>
      </g>
     </g>
     <g id="text_12">
      <text style="font-family:DejaVu Sans;font-size:10px;font-style:normal;font-weight:normal;text-anchor:end;" transform="rotate(-0, 50.6, 91.67514)" x="50.6" y="91.67514">80</text>
     </g>
    </g>
    <g id="text_13">
     <text style="font-family:DejaVu Sans;font-size:10px;font-style:normal;font-weight:normal;text-anchor:middle;" transform="rotate(-90, 31.795312, 174.528)" x="31.795312" y="174.528">Coin Flips Needed</text>
    </g>
   </g>
   <g id="line2d_12">
    <path clip-path="url(#p778f3aa57e)" d="M 73.832727 292.893387 
L 77.112066 292.932543 
L 80.391405 292.971391 
L 83.670744 293.009933 
L 86.950083 293.04817 
L 90.229421 293.086103 
L 93.50876 293.123735 
L 96.788099 293.161066 
L 100.067438 293.198097 
L 103.346777 293.234831 
L 106.626116 293.271267 
L 109.905455 293.307409 
L 113.184793 293.343256 
L 116.464132 293.37881 
L 119.743471 293.414074 
L 123.02281 293.449047 
L 126.302149 293.483731 
L 129.581488 293.518129 
L 132.860826 293.55224 
L 136.140165 293.586067 
L 139.419504 293.61961 
L 142.698843 293.652871 
L 145.978182 293.685852 
L 149.257521 293.718554 
L 152.53686 293.750978 
L 155.816198 293.783125 
L 159.095537 293.814997 
L 162.374876 293.846595 
L 165.654215 293.877921 
L 168.933554 293.908975 
L 172.212893 293.93976 
L 175.492231 293.970276 
L 178.77157 294.000525 
L 182.050909 294.030508 
L 185.330248 294.060227 
L 188.609587 294.089682 
L 191.888926 294.118876 
L 195.168264 294.14781 
L 198.447603 294.176484 
L 201.726942 294.204901 
L 205.006281 294.233061 
L 208.28562 294.260966 
L 211.564959 294.288617 
L 214.844298 294.316016 
L 218.123636 294.343164 
L 221.402975 294.370062 
L 224.682314 294.396711 
L 227.961653 294.423114 
L 231.240992 294.449271 
L 234.520331 294.475183 
L 237.799669 294.500852 
L 241.079008 294.52628 
L 244.358347 294.551467 
L 247.637686 294.576414 
L 250.917025 294.601124 
L 254.196364 294.625598 
L 257.475702 294.649836 
L 260.755041 294.673841 
L 264.03438 294.697613 
L 267.313719 294.721154 
L 270.593058 294.744464 
L 273.872397 294.767547 
L 277.151736 294.790402 
L 280.431074 294.81303 
L 283.710413 294.835435 
L 286.989752 294.857615 
L 290.269091 294.879574 
L 293.54843 294.901312 
L 296.827769 294.922831 
L 300.107107 294.944131 
L 303.386446 294.965214 
L 306.665785 294.986082 
L 309.945124 295.006735 
L 313.224463 295.027176 
L 316.503802 295.047404 
L 319.78314 295.067422 
L 323.062479 295.087231 
L 326.341818 295.106832 
L 329.621157 295.126227 
L 332.900496 295.145415 
L 336.179835 295.1644 
L 339.459174 295.183182 
L 342.738512 295.201763 
L 346.017851 295.220143 
L 349.29719 295.238324 
L 352.576529 295.256307 
L 355.855868 295.274094 
L 359.135207 295.291685 
L 362.414545 295.309083 
L 365.693884 295.326287 
L 368.973223 295.3433 
L 372.252562 295.360123 
L 375.531901 295.376756 
L 378.81124 295.393202 
L 382.090579 295.409461 
L 385.369917 295.425535 
L 388.649256 295.441424 
L 391.928595 295.457131 
L 395.207934 295.472656 
L 398.487273 295.488 
" style="fill:none;stroke:#1f77b4;stroke-linecap:square;stroke-width:1.5;"/>
   </g>
   <g id="line2d_13">
    <path clip-path="url(#p778f3aa57e)" d="M 73.832727 292.892998 
L 77.112066 292.861856 
L 80.391405 292.820334 
L 83.670744 292.825524 
L 86.950083 292.742479 
L 90.229421 292.726908 
L 93.50876 292.763241 
L 96.788099 292.685386 
L 100.067438 292.643863 
L 103.346777 292.545248 
L 106.626116 292.571199 
L 109.905455 292.607531 
L 113.184793 292.57639 
L 116.464132 292.57639 
L 119.743471 292.446632 
L 123.02281 292.41549 
L 126.302149 292.389539 
L 129.581488 292.296113 
L 132.860826 292.373968 
L 136.140165 292.322065 
L 139.419504 292.223449 
L 142.698843 292.145594 
L 145.978182 292.041788 
L 149.257521 292.161165 
L 152.53686 292.031407 
L 155.816198 291.948363 
L 159.095537 291.995075 
L 162.374876 291.995075 
L 165.654215 291.854937 
L 168.933554 291.880889 
L 172.212893 291.73037 
L 175.492231 291.714799 
L 178.77157 291.652515 
L 182.050909 291.548709 
L 185.330248 291.73037 
L 188.609587 291.465664 
L 191.888926 291.382619 
L 195.168264 291.418951 
L 198.447603 291.408571 
L 201.726942 290.998537 
L 205.006281 291.102343 
L 208.28562 290.88954 
L 211.564959 290.967395 
L 214.844298 290.749402 
L 218.123636 290.910301 
L 221.402975 290.744212 
L 224.682314 290.630025 
L 227.961653 290.55217 
L 231.240992 290.655976 
L 234.520331 290.194039 
L 237.799669 290.219991 
L 241.079008 290.147326 
L 244.358347 289.887811 
L 247.637686 289.970856 
L 250.917025 289.638676 
L 254.196364 289.638676 
L 257.475702 289.52968 
L 260.755041 289.166359 
L 264.03438 289.488158 
L 267.313719 288.875702 
L 270.593058 288.860131 
L 273.872397 288.616186 
L 277.151736 288.408574 
L 280.431074 288.450096 
L 283.710413 288.455287 
L 286.989752 287.863592 
L 290.269091 288.128297 
L 293.54843 287.422416 
L 296.827769 286.939717 
L 300.107107 287.116188 
L 303.386446 286.514112 
L 306.665785 286.508922 
L 309.945124 285.777089 
L 313.224463 286.109269 
L 316.503802 284.998543 
L 319.78314 284.842834 
L 323.062479 284.26671 
L 326.341818 283.981243 
L 329.621157 283.545258 
L 332.900496 282.180207 
L 336.179835 283.062559 
L 339.459174 281.20443 
L 342.738512 280.986437 
L 346.017851 279.600625 
L 349.29719 278.588516 
L 352.576529 276.268449 
L 355.855868 275.567758 
L 359.135207 272.910321 
L 362.414545 272.567761 
L 365.693884 269.406865 
L 368.973223 265.42071 
L 372.252562 260.925905 
L 375.531901 256.986463 
L 378.81124 251.702732 
L 382.090579 247.228688 
L 385.369917 227.578191 
L 388.649256 203.666452 
L 391.928595 165.829123 
L 395.207934 53.568 
" style="fill:none;stroke:#ff7f0e;stroke-linecap:square;stroke-width:1.5;"/>
   </g>
   <g id="patch_3">
    <path d="M 57.6 307.584 
L 57.6 41.472 
" style="fill:none;stroke:#000000;stroke-linecap:square;stroke-linejoin:miter;stroke-width:0.8;"/>
   </g>
   <g id="patch_4">
    <path d="M 414.72 307.584 
L 414.72 41.472 
" style="fill:none;stroke:#000000;stroke-linecap:square;stroke-linejoin:miter;stroke-width:0.8;"/>
   </g>
   <g id="patch_5">
    <path d="M 57.6 307.584 
L 414.72 307.584 
" style="fill:none;stroke:#000000;stroke-linecap:square;stroke-linejoin:miter;stroke-width:0.8;"/>
   </g>
   <g id="patch_6">
    <path d="M 57.6 41.472 
L 414.72 41.472 
" style="fill:none;stroke:#000000;stroke-linecap:square;stroke-linejoin:miter;stroke-width:0.8;"/>
   </g>
   <g id="text_14">
    <text style="font-family:DejaVu Sans;font-size:12px;font-style:normal;font-weight:normal;text-anchor:middle;" transform="rotate(-0, 236.16, 35.472)" x="236.16" y="35.472">Coin Flips for exp(-x)</text>
   </g>
   <g id="legend_1">
    <g id="patch_7">
     <path d="M 64.6 78.82825 
L 267.007812 78.82825 
Q 269.007812 78.82825 269.007812 76.82825 
L 269.007812 48.472 
Q 269.007812 46.472 267.007812 46.472 
L 64.6 46.472 
Q 62.6 46.472 62.6 48.472 
L 62.6 76.82825 
Q 62.6 78.82825 64.6 78.82825 
z
" style="fill:#ffffff;opacity:0.8;stroke:#cccccc;stroke-linejoin:miter;"/>
    </g>
    <g id="line2d_14">
     <path d="M 66.6 54.570437 
L 86.6 54.570437 
" style="fill:none;stroke:#1f77b4;stroke-linecap:square;stroke-width:1.5;"/>
    </g>
    <g id="line2d_15"/>
    <g id="text_15">
     <text style="font-family:DejaVu Sans;font-size:10px;font-style:normal;font-weight:normal;text-anchor:start;" transform="rotate(-0, 94.6, 58.070437)" x="94.6" y="58.070437">Coin Flip Lower Bound (Mendo)</text>
    </g>
    <g id="line2d_16">
     <path d="M 66.6 69.248562 
L 86.6 69.248562 
" style="fill:none;stroke:#ff7f0e;stroke-linecap:square;stroke-width:1.5;"/>
    </g>
    <g id="line2d_17"/>
    <g id="text_16">
     <text style="font-family:DejaVu Sans;font-size:10px;font-style:normal;font-weight:normal;text-anchor:start;" transform="rotate(-0, 94.6, 72.748562)" x="94.6" y="72.748562">Avg. Coins Flipped exp(-x) (Alg. 2)</text>
    </g>
   </g>
  </g>
 </g>
 <defs>
  <clipPath id="p778f3aa57e">
   <rect height="266.112" width="357.12" x="57.6" y="41.472"/>
  </clipPath>
 </defs>
</svg>
