<?xml version="1.0" encoding="utf-8" standalone="no"?>
<!DOCTYPE svg PUBLIC "-//W3C//DTD SVG 1.1//EN"
  "http://www.w3.org/Graphics/SVG/1.1/DTD/svg11.dtd">
<!-- Created with matplotlib (https://matplotlib.org/) -->
<svg height="252pt" version="1.1" viewBox="0 0 324 252" width="324pt" xmlns="http://www.w3.org/2000/svg" xmlns:xlink="http://www.w3.org/1999/xlink">
 <defs>
  <style type="text/css">
*{stroke-linecap:butt;stroke-linejoin:round;}
  </style>
 </defs>
 <g id="figure_1">
  <g id="patch_1">
   <path d="M 0 252 
L 324 252 
L 324 0 
L 0 0 
z
" style="fill:#ffffff;"/>
  </g>
  <g id="axes_1">
   <g id="patch_2">
    <path d="M 40.5 224.28 
L 291.6 224.28 
L 291.6 30.24 
L 40.5 30.24 
z
" style="fill:#ffffff;"/>
   </g>
   <g id="matplotlib.axis_1">
    <g id="xtick_1">
     <g id="line2d_1">
      <defs>
       <path d="M 0 0 
L 0 3.5 
" id="m46ecc2d148" style="stroke:#000000;stroke-width:0.8;"/>
      </defs>
      <g>
       <use style="stroke:#000000;stroke-width:0.8;" x="51.890784" xlink:href="#m46ecc2d148" y="224.28"/>
      </g>
     </g>
     <g id="text_1">
      <text style="font-family:DejaVu Sans;font-size:10px;font-style:normal;font-weight:normal;text-anchor:middle;" transform="rotate(-0, 51.890784, 238.878438)" x="51.890784" y="238.878438">0.0</text>
     </g>
    </g>
    <g id="xtick_2">
     <g id="line2d_2">
      <g>
       <use style="stroke:#000000;stroke-width:0.8;" x="97.595605" xlink:href="#m46ecc2d148" y="224.28"/>
      </g>
     </g>
     <g id="text_2">
      <text style="font-family:DejaVu Sans;font-size:10px;font-style:normal;font-weight:normal;text-anchor:middle;" transform="rotate(-0, 97.595605, 238.878438)" x="97.595605" y="238.878438">0.2</text>
     </g>
    </g>
    <g id="xtick_3">
     <g id="line2d_3">
      <g>
       <use style="stroke:#000000;stroke-width:0.8;" x="143.300425" xlink:href="#m46ecc2d148" y="224.28"/>
      </g>
     </g>
     <g id="text_3">
      <text style="font-family:DejaVu Sans;font-size:10px;font-style:normal;font-weight:normal;text-anchor:middle;" transform="rotate(-0, 143.300425, 238.878438)" x="143.300425" y="238.878438">0.4</text>
     </g>
    </g>
    <g id="xtick_4">
     <g id="line2d_4">
      <g>
       <use style="stroke:#000000;stroke-width:0.8;" x="189.005246" xlink:href="#m46ecc2d148" y="224.28"/>
      </g>
     </g>
     <g id="text_4">
      <text style="font-family:DejaVu Sans;font-size:10px;font-style:normal;font-weight:normal;text-anchor:middle;" transform="rotate(-0, 189.005246, 238.878438)" x="189.005246" y="238.878438">0.6</text>
     </g>
    </g>
    <g id="xtick_5">
     <g id="line2d_5">
      <g>
       <use style="stroke:#000000;stroke-width:0.8;" x="234.710067" xlink:href="#m46ecc2d148" y="224.28"/>
      </g>
     </g>
     <g id="text_5">
      <text style="font-family:DejaVu Sans;font-size:10px;font-style:normal;font-weight:normal;text-anchor:middle;" transform="rotate(-0, 234.710067, 238.878438)" x="234.710067" y="238.878438">0.8</text>
     </g>
    </g>
    <g id="xtick_6">
     <g id="line2d_6">
      <g>
       <use style="stroke:#000000;stroke-width:0.8;" x="280.414888" xlink:href="#m46ecc2d148" y="224.28"/>
      </g>
     </g>
     <g id="text_6">
      <text style="font-family:DejaVu Sans;font-size:10px;font-style:normal;font-weight:normal;text-anchor:middle;" transform="rotate(-0, 280.414888, 238.878438)" x="280.414888" y="238.878438">1.0</text>
     </g>
    </g>
    <g id="text_7">
     <text style="font-family:DejaVu Sans;font-size:10px;font-style:normal;font-weight:normal;text-anchor:middle;" transform="rotate(-0, 166.05, 252.556563)" x="166.05" y="252.556563">Input Coin's Heads Probability (λ)</text>
    </g>
   </g>
   <g id="matplotlib.axis_2">
    <g id="ytick_1">
     <g id="line2d_7">
      <defs>
       <path d="M 0 0 
L -3.5 0 
" id="m695de4e815" style="stroke:#000000;stroke-width:0.8;"/>
      </defs>
      <g>
       <use style="stroke:#000000;stroke-width:0.8;" x="40.5" xlink:href="#m695de4e815" y="204.953417"/>
      </g>
     </g>
     <g id="text_8">
      <text style="font-family:DejaVu Sans;font-size:10px;font-style:normal;font-weight:normal;text-anchor:end;" transform="rotate(-0, 33.5, 208.752636)" x="33.5" y="208.752636">0.4</text>
     </g>
    </g>
    <g id="ytick_2">
     <g id="line2d_8">
      <g>
       <use style="stroke:#000000;stroke-width:0.8;" x="40.5" xlink:href="#m695de4e815" y="177.304514"/>
      </g>
     </g>
     <g id="text_9">
      <text style="font-family:DejaVu Sans;font-size:10px;font-style:normal;font-weight:normal;text-anchor:end;" transform="rotate(-0, 33.5, 181.103733)" x="33.5" y="181.103733">0.5</text>
     </g>
    </g>
    <g id="ytick_3">
     <g id="line2d_9">
      <g>
       <use style="stroke:#000000;stroke-width:0.8;" x="40.5" xlink:href="#m695de4e815" y="149.655611"/>
      </g>
     </g>
     <g id="text_10">
      <text style="font-family:DejaVu Sans;font-size:10px;font-style:normal;font-weight:normal;text-anchor:end;" transform="rotate(-0, 33.5, 153.45483)" x="33.5" y="153.45483">0.6</text>
     </g>
    </g>
    <g id="ytick_4">
     <g id="line2d_10">
      <g>
       <use style="stroke:#000000;stroke-width:0.8;" x="40.5" xlink:href="#m695de4e815" y="122.006708"/>
      </g>
     </g>
     <g id="text_11">
      <text style="font-family:DejaVu Sans;font-size:10px;font-style:normal;font-weight:normal;text-anchor:end;" transform="rotate(-0, 33.5, 125.805927)" x="33.5" y="125.805927">0.7</text>
     </g>
    </g>
    <g id="ytick_5">
     <g id="line2d_11">
      <g>
       <use style="stroke:#000000;stroke-width:0.8;" x="40.5" xlink:href="#m695de4e815" y="94.357806"/>
      </g>
     </g>
     <g id="text_12">
      <text style="font-family:DejaVu Sans;font-size:10px;font-style:normal;font-weight:normal;text-anchor:end;" transform="rotate(-0, 33.5, 98.157024)" x="33.5" y="98.157024">0.8</text>
     </g>
    </g>
    <g id="ytick_6">
     <g id="line2d_12">
      <g>
       <use style="stroke:#000000;stroke-width:0.8;" x="40.5" xlink:href="#m695de4e815" y="66.708903"/>
      </g>
     </g>
     <g id="text_13">
      <text style="font-family:DejaVu Sans;font-size:10px;font-style:normal;font-weight:normal;text-anchor:end;" transform="rotate(-0, 33.5, 70.508122)" x="33.5" y="70.508122">0.9</text>
     </g>
    </g>
    <g id="ytick_7">
     <g id="line2d_13">
      <g>
       <use style="stroke:#000000;stroke-width:0.8;" x="40.5" xlink:href="#m695de4e815" y="39.06"/>
      </g>
     </g>
     <g id="text_14">
      <text style="font-family:DejaVu Sans;font-size:10px;font-style:normal;font-weight:normal;text-anchor:end;" transform="rotate(-0, 33.5, 42.859219)" x="33.5" y="42.859219">1.0</text>
     </g>
    </g>
    <g id="text_15">
     <text style="font-family:DejaVu Sans;font-size:10px;font-style:normal;font-weight:normal;text-anchor:middle;" transform="rotate(-90, 11.517187, 127.26)" x="11.517187" y="127.26">Simulated Mean / Function Value</text>
    </g>
   </g>
   <g id="line2d_14">
    <path clip-path="url(#p986219933a)" d="M 52.119308 39.336351 
L 54.423016 42.10681 
L 56.726723 44.849481 
L 59.030431 47.564643 
L 61.334139 50.252571 
L 63.637846 52.913539 
L 65.941554 55.547817 
L 68.245261 58.155672 
L 70.548969 60.737371 
L 72.852677 63.293174 
L 75.156384 65.823342 
L 77.460092 68.328133 
L 79.7638 70.8078 
L 82.067507 73.262595 
L 84.371215 75.692768 
L 86.674923 78.098567 
L 88.97863 80.480235 
L 91.282338 82.838014 
L 93.586045 85.172144 
L 95.889753 87.482863 
L 98.193461 89.770405 
L 100.497168 92.035002 
L 102.800876 94.276885 
L 105.104584 96.496282 
L 107.408291 98.693417 
L 109.711999 100.868515 
L 112.015706 103.021797 
L 114.319414 105.15348 
L 116.623122 107.263783 
L 118.926829 109.352918 
L 121.230537 111.4211 
L 123.534245 113.468537 
L 125.837952 115.495438 
L 128.14166 117.502009 
L 130.445368 119.488454 
L 132.749075 121.454974 
L 135.052783 123.40177 
L 137.35649 125.329039 
L 139.660198 127.236977 
L 141.963906 129.125779 
L 144.267613 130.995635 
L 146.571321 132.846736 
L 148.875029 134.679271 
L 151.178736 136.493425 
L 153.482444 138.289382 
L 155.786152 140.067326 
L 158.089859 141.827437 
L 160.393567 143.569894 
L 162.697274 145.294873 
L 165.000982 147.002551 
L 167.30469 148.6931 
L 169.608397 150.366693 
L 171.912105 152.023499 
L 174.215813 153.663688 
L 176.51952 155.287425 
L 178.823228 156.894875 
L 181.126935 158.486203 
L 183.430643 160.061569 
L 185.734351 161.621134 
L 188.038058 163.165057 
L 190.341766 164.693494 
L 192.645474 166.2066 
L 194.949181 167.704529 
L 197.252889 169.187434 
L 199.556597 170.655466 
L 201.860304 172.108772 
L 204.164012 173.547502 
L 206.467719 174.971801 
L 208.771427 176.381814 
L 211.075135 177.777684 
L 213.378842 179.159554 
L 215.68255 180.527563 
L 217.986258 181.881851 
L 220.289965 183.222555 
L 222.593673 184.549812 
L 224.89738 185.863756 
L 227.201088 187.164521 
L 229.504796 188.452239 
L 231.808503 189.727041 
L 234.112211 190.989056 
L 236.415919 192.238414 
L 238.719626 193.47524 
L 241.023334 194.69966 
L 243.327042 195.9118 
L 245.630749 197.111781 
L 247.934457 198.299726 
L 250.238164 199.475757 
L 252.541872 200.639991 
L 254.84558 201.792548 
L 257.149287 202.933544 
L 259.452995 204.063096 
L 261.756703 205.181319 
L 264.06041 206.288325 
L 266.364118 207.384228 
L 268.667825 208.469139 
L 270.971533 209.543169 
L 273.275241 210.606425 
L 275.578948 211.659017 
L 277.882656 212.701051 
L 280.186364 213.732634 
" style="fill:none;stroke:#1f77b4;stroke-linecap:square;stroke-width:1.5;"/>
   </g>
   <g id="line2d_15">
    <path clip-path="url(#p986219933a)" d="M 51.913636 39.06 
L 54.221499 43.483824 
L 56.529362 44.589781 
L 58.837224 49.013605 
L 61.145087 48.460627 
L 63.452949 52.331473 
L 65.760812 57.861254 
L 68.068675 61.179122 
L 70.376537 55.096364 
L 72.6844 65.602947 
L 74.992263 72.238683 
L 77.300125 68.920815 
L 79.607988 71.132727 
L 81.91585 76.10953 
L 84.223713 82.192288 
L 86.531576 71.132727 
L 88.839438 79.427398 
L 91.147301 84.404201 
L 93.455163 82.745266 
L 95.763026 90.486959 
L 98.070889 88.828025 
L 100.378751 89.381003 
L 102.686614 94.357806 
L 104.994477 91.039937 
L 107.302339 88.275047 
L 109.610202 103.205455 
L 111.918064 102.099498 
L 114.225927 100.993542 
L 116.53379 113.712038 
L 118.841652 114.817994 
L 121.149515 110.947147 
L 123.457377 107.629279 
L 125.76524 118.68884 
L 128.073103 128.089467 
L 130.380965 123.665643 
L 132.688828 115.92395 
L 134.996691 132.513292 
L 137.304553 115.92395 
L 139.612416 126.983511 
L 141.920278 129.748401 
L 144.228141 131.407335 
L 146.536004 133.619248 
L 148.843866 124.771599 
L 151.151729 141.913918 
L 153.459591 135.278182 
L 155.767454 135.278182 
L 158.075317 127.536489 
L 160.383179 135.278182 
L 162.691042 147.996677 
L 164.998905 150.208589 
L 167.306767 154.079436 
L 169.61463 151.314545 
L 171.922492 154.079436 
L 174.230355 148.549655 
L 176.538218 157.397304 
L 178.84608 159.056238 
L 181.153943 152.420502 
L 183.461805 156.844326 
L 185.769668 161.821129 
L 188.077531 168.456865 
L 190.385393 165.138997 
L 192.693256 181.175361 
L 195.001119 157.950282 
L 197.308981 165.138997 
L 199.616844 171.774734 
L 201.924706 172.88069 
L 204.232569 179.516426 
L 206.540432 171.774734 
L 208.848294 178.41047 
L 211.156157 183.387273 
L 213.464019 177.304514 
L 215.771882 192.7879 
L 218.079745 174.539624 
L 220.387607 176.198558 
L 222.69547 175.64558 
L 225.003333 181.728339 
L 227.311195 181.175361 
L 229.619058 192.7879 
L 231.92692 193.340878 
L 234.234783 192.7879 
L 236.542646 192.234922 
L 238.850508 199.423636 
L 241.158371 193.893856 
L 243.466233 194.446834 
L 245.774096 200.529592 
L 248.081959 200.529592 
L 250.389821 188.364075 
L 252.697684 199.976614 
L 255.005547 194.446834 
L 257.313409 197.764702 
L 259.621272 197.211724 
L 261.929134 193.893856 
L 264.236997 208.271285 
L 266.54486 204.400439 
L 268.852722 207.165329 
L 271.160585 215.46 
" style="fill:none;stroke:#ff7f0e;stroke-linecap:square;stroke-width:1.5;"/>
   </g>
   <g id="patch_3">
    <path d="M 40.5 224.28 
L 40.5 30.24 
" style="fill:none;stroke:#000000;stroke-linecap:square;stroke-linejoin:miter;stroke-width:0.8;"/>
   </g>
   <g id="patch_4">
    <path d="M 291.6 224.28 
L 291.6 30.24 
" style="fill:none;stroke:#000000;stroke-linecap:square;stroke-linejoin:miter;stroke-width:0.8;"/>
   </g>
   <g id="patch_5">
    <path d="M 40.5 224.28 
L 291.6 224.28 
" style="fill:none;stroke:#000000;stroke-linecap:square;stroke-linejoin:miter;stroke-width:0.8;"/>
   </g>
   <g id="patch_6">
    <path d="M 40.5 30.24 
L 291.6 30.24 
" style="fill:none;stroke:#000000;stroke-linecap:square;stroke-linejoin:miter;stroke-width:0.8;"/>
   </g>
   <g id="text_16">
    <text style="font-family:DejaVu Sans;font-size:12px;font-style:normal;font-weight:normal;text-anchor:middle;" transform="rotate(-0, 166.05, 24.24)" x="166.05" y="24.24">Expected Value in exp(-x) (Flajolet) Algorithm</text>
   </g>
   <g id="legend_1">
    <g id="patch_7">
     <path d="M 72.684375 67.59625 
L 284.6 67.59625 
Q 286.6 67.59625 286.6 65.59625 
L 286.6 37.24 
Q 286.6 35.24 284.6 35.24 
L 72.684375 35.24 
Q 70.684375 35.24 70.684375 37.24 
L 70.684375 65.59625 
Q 70.684375 67.59625 72.684375 67.59625 
z
" style="fill:#ffffff;opacity:0.8;stroke:#cccccc;stroke-linejoin:miter;"/>
    </g>
    <g id="line2d_16">
     <path d="M 74.684375 43.338438 
L 94.684375 43.338438 
" style="fill:none;stroke:#1f77b4;stroke-linecap:square;stroke-width:1.5;"/>
    </g>
    <g id="line2d_17"/>
    <g id="text_17">
     <text style="font-family:DejaVu Sans;font-size:10px;font-style:normal;font-weight:normal;text-anchor:start;" transform="rotate(-0, 102.684375, 46.838438)" x="102.684375" y="46.838438">exp(-x)</text>
    </g>
    <g id="line2d_18">
     <path d="M 74.684375 58.016563 
L 94.684375 58.016563 
" style="fill:none;stroke:#ff7f0e;stroke-linecap:square;stroke-width:1.5;"/>
    </g>
    <g id="line2d_19"/>
    <g id="text_18">
     <text style="font-family:DejaVu Sans;font-size:10px;font-style:normal;font-weight:normal;text-anchor:start;" transform="rotate(-0, 102.684375, 61.516563)" x="102.684375" y="61.516563">Simulated Mean of exp(-x) (Flajolet)</text>
    </g>
   </g>
  </g>
 </g>
 <defs>
  <clipPath id="p986219933a">
   <rect height="194.04" width="251.1" x="40.5" y="30.24"/>
  </clipPath>
 </defs>
</svg>
