<?xml version="1.0" encoding="utf-8" standalone="no"?>
<!DOCTYPE svg PUBLIC "-//W3C//DTD SVG 1.1//EN"
  "http://www.w3.org/Graphics/SVG/1.1/DTD/svg11.dtd">
<!-- Created with matplotlib (https://matplotlib.org/) -->
<svg height="252pt" version="1.1" viewBox="0 0 324 252" width="324pt" xmlns="http://www.w3.org/2000/svg" xmlns:xlink="http://www.w3.org/1999/xlink">
 <defs>
  <style type="text/css">
*{stroke-linecap:butt;stroke-linejoin:round;}
  </style>
 </defs>
 <g id="figure_1">
  <g id="patch_1">
   <path d="M 0 252 
L 324 252 
L 324 0 
L 0 0 
z
" style="fill:#ffffff;"/>
  </g>
  <g id="axes_1">
   <g id="patch_2">
    <path d="M 40.5 224.28 
L 291.6 224.28 
L 291.6 30.24 
L 40.5 30.24 
z
" style="fill:#ffffff;"/>
   </g>
   <g id="matplotlib.axis_1">
    <g id="xtick_1">
     <g id="line2d_1">
      <defs>
       <path d="M 0 0 
L 0 3.5 
" id="m58b419b18b" style="stroke:#000000;stroke-width:0.8;"/>
      </defs>
      <g>
       <use style="stroke:#000000;stroke-width:0.8;" x="51.890805" xlink:href="#m58b419b18b" y="224.28"/>
      </g>
     </g>
     <g id="text_1">
      <text style="font-family:DejaVu Sans;font-size:10px;font-style:normal;font-weight:normal;text-anchor:middle;" transform="rotate(-0, 51.890805, 238.878438)" x="51.890805" y="238.878438">0.0</text>
     </g>
    </g>
    <g id="xtick_2">
     <g id="line2d_2">
      <g>
       <use style="stroke:#000000;stroke-width:0.8;" x="97.554483" xlink:href="#m58b419b18b" y="224.28"/>
      </g>
     </g>
     <g id="text_2">
      <text style="font-family:DejaVu Sans;font-size:10px;font-style:normal;font-weight:normal;text-anchor:middle;" transform="rotate(-0, 97.554483, 238.878438)" x="97.554483" y="238.878438">0.2</text>
     </g>
    </g>
    <g id="xtick_3">
     <g id="line2d_3">
      <g>
       <use style="stroke:#000000;stroke-width:0.8;" x="143.218161" xlink:href="#m58b419b18b" y="224.28"/>
      </g>
     </g>
     <g id="text_3">
      <text style="font-family:DejaVu Sans;font-size:10px;font-style:normal;font-weight:normal;text-anchor:middle;" transform="rotate(-0, 143.218161, 238.878438)" x="143.218161" y="238.878438">0.4</text>
     </g>
    </g>
    <g id="xtick_4">
     <g id="line2d_4">
      <g>
       <use style="stroke:#000000;stroke-width:0.8;" x="188.881839" xlink:href="#m58b419b18b" y="224.28"/>
      </g>
     </g>
     <g id="text_4">
      <text style="font-family:DejaVu Sans;font-size:10px;font-style:normal;font-weight:normal;text-anchor:middle;" transform="rotate(-0, 188.881839, 238.878438)" x="188.881839" y="238.878438">0.6</text>
     </g>
    </g>
    <g id="xtick_5">
     <g id="line2d_5">
      <g>
       <use style="stroke:#000000;stroke-width:0.8;" x="234.545517" xlink:href="#m58b419b18b" y="224.28"/>
      </g>
     </g>
     <g id="text_5">
      <text style="font-family:DejaVu Sans;font-size:10px;font-style:normal;font-weight:normal;text-anchor:middle;" transform="rotate(-0, 234.545517, 238.878438)" x="234.545517" y="238.878438">0.8</text>
     </g>
    </g>
    <g id="xtick_6">
     <g id="line2d_6">
      <g>
       <use style="stroke:#000000;stroke-width:0.8;" x="280.209195" xlink:href="#m58b419b18b" y="224.28"/>
      </g>
     </g>
     <g id="text_6">
      <text style="font-family:DejaVu Sans;font-size:10px;font-style:normal;font-weight:normal;text-anchor:middle;" transform="rotate(-0, 280.209195, 238.878438)" x="280.209195" y="238.878438">1.0</text>
     </g>
    </g>
    <g id="text_7">
     <text style="font-family:DejaVu Sans;font-size:10px;font-style:normal;font-weight:normal;text-anchor:middle;" transform="rotate(-0, 166.05, 252.556563)" x="166.05" y="252.556563">Probability</text>
    </g>
   </g>
   <g id="matplotlib.axis_2">
    <g id="ytick_1">
     <g id="line2d_7">
      <defs>
       <path d="M 0 0 
L -3.5 0 
" id="m956785cfcf" style="stroke:#000000;stroke-width:0.8;"/>
      </defs>
      <g>
       <use style="stroke:#000000;stroke-width:0.8;" x="40.5" xlink:href="#m956785cfcf" y="215.192031"/>
      </g>
     </g>
     <g id="text_8">
      <text style="font-family:DejaVu Sans;font-size:10px;font-style:normal;font-weight:normal;text-anchor:end;" transform="rotate(-0, 33.5, 218.99125)" x="33.5" y="218.99125">2</text>
     </g>
    </g>
    <g id="ytick_2">
     <g id="line2d_8">
      <g>
       <use style="stroke:#000000;stroke-width:0.8;" x="40.5" xlink:href="#m956785cfcf" y="176.910781"/>
      </g>
     </g>
     <g id="text_9">
      <text style="font-family:DejaVu Sans;font-size:10px;font-style:normal;font-weight:normal;text-anchor:end;" transform="rotate(-0, 33.5, 180.71)" x="33.5" y="180.71">4</text>
     </g>
    </g>
    <g id="ytick_3">
     <g id="line2d_9">
      <g>
       <use style="stroke:#000000;stroke-width:0.8;" x="40.5" xlink:href="#m956785cfcf" y="138.629531"/>
      </g>
     </g>
     <g id="text_10">
      <text style="font-family:DejaVu Sans;font-size:10px;font-style:normal;font-weight:normal;text-anchor:end;" transform="rotate(-0, 33.5, 142.42875)" x="33.5" y="142.42875">6</text>
     </g>
    </g>
    <g id="ytick_4">
     <g id="line2d_10">
      <g>
       <use style="stroke:#000000;stroke-width:0.8;" x="40.5" xlink:href="#m956785cfcf" y="100.348281"/>
      </g>
     </g>
     <g id="text_11">
      <text style="font-family:DejaVu Sans;font-size:10px;font-style:normal;font-weight:normal;text-anchor:end;" transform="rotate(-0, 33.5, 104.1475)" x="33.5" y="104.1475">8</text>
     </g>
    </g>
    <g id="ytick_5">
     <g id="line2d_11">
      <g>
       <use style="stroke:#000000;stroke-width:0.8;" x="40.5" xlink:href="#m956785cfcf" y="62.067031"/>
      </g>
     </g>
     <g id="text_12">
      <text style="font-family:DejaVu Sans;font-size:10px;font-style:normal;font-weight:normal;text-anchor:end;" transform="rotate(-0, 33.5, 65.86625)" x="33.5" y="65.86625">10</text>
     </g>
    </g>
    <g id="text_13">
     <text style="font-family:DejaVu Sans;font-size:10px;font-style:normal;font-weight:normal;text-anchor:middle;" transform="rotate(-90, 14.695312, 127.26)" x="14.695312" y="127.26">Average Bits Consumed Per Call</text>
    </g>
   </g>
   <g id="line2d_12">
    <path clip-path="url(#p9ca76502fe)" d="M 51.913636 215.268594 
L 54.219421 214.464688 
L 56.525207 213.852188 
L 58.830992 214.579531 
L 61.136777 215.46 
L 63.442562 211.325625 
L 65.748347 213.584219 
L 68.054132 213.737344 
L 70.359917 211.785 
L 72.665702 208.339688 
L 74.971488 211.976406 
L 77.277273 210.406875 
L 79.583058 212.665469 
L 81.888843 210.56 
L 84.194628 207.229531 
L 86.500413 207.459219 
L 88.806198 206.731875 
L 91.111983 207.459219 
L 93.417769 205.009219 
L 95.723554 203.975625 
L 98.029339 199.152188 
L 100.335124 197.927188 
L 102.640909 204.320156 
L 104.946694 204.358438 
L 107.252479 195.2475 
L 109.558264 202.099844 
L 111.86405 196.4725 
L 114.169835 196.817031 
L 116.47562 194.979531 
L 118.781405 192.874063 
L 121.08719 195.438906 
L 123.392975 190.002969 
L 125.69876 189.045938 
L 128.004545 190.3475 
L 130.310331 186.36625 
L 132.616116 192.606094 
L 134.921901 183.342031 
L 137.227686 186.136563 
L 139.533471 192.146719 
L 141.839256 191.419375 
L 144.145041 184.988125 
L 146.450826 183.61 
L 148.756612 177.638125 
L 151.062397 171.130313 
L 153.368182 173.465469 
L 155.673967 177.638125 
L 157.979752 166.76625 
L 160.285537 172.431875 
L 162.591322 170.211563 
L 164.897107 171.66625 
L 167.202893 166.651406 
L 169.508678 168.642031 
L 171.814463 166.536563 
L 174.120248 162.593594 
L 176.426033 158.880313 
L 178.731818 157.770156 
L 181.037603 153.674063 
L 183.343388 150.190469 
L 185.649174 152.295938 
L 187.954959 145.596719 
L 190.260744 150.113906 
L 192.566529 145.711563 
L 194.872314 151.721719 
L 197.178099 143.988906 
L 199.483884 144.601406 
L 201.789669 139.586563 
L 204.095455 133.385 
L 206.40124 126.302969 
L 208.707025 123.89125 
L 211.01281 126.762344 
L 213.318595 117.995938 
L 215.62438 123.738125 
L 217.930165 117.727969 
L 220.23595 111.067031 
L 222.541736 118.685 
L 224.847521 115.392813 
L 227.153306 107.009219 
L 229.459091 108.808438 
L 231.764876 104.827188 
L 234.070661 113.134219 
L 236.376446 99.927188 
L 238.682231 96.367031 
L 240.988017 87.14125 
L 243.293802 90.127188 
L 245.599587 93.87875 
L 247.905372 86.949844 
L 250.211157 85.571719 
L 252.516942 84.308438 
L 254.822727 70.871719 
L 257.128512 72.173281 
L 259.434298 73.589688 
L 261.740083 64.631875 
L 264.045868 67.54125 
L 266.351653 51.386563 
L 268.657438 50.161563 
L 270.963223 46.945938 
L 273.269008 45.644375 
L 275.574793 42.045938 
L 277.880579 46.754531 
L 280.186364 39.06 
" style="fill:none;stroke:#1f77b4;stroke-linecap:square;stroke-width:1.5;"/>
   </g>
   <g id="patch_3">
    <path d="M 40.5 224.28 
L 40.5 30.24 
" style="fill:none;stroke:#000000;stroke-linecap:square;stroke-linejoin:miter;stroke-width:0.8;"/>
   </g>
   <g id="patch_4">
    <path d="M 291.6 224.28 
L 291.6 30.24 
" style="fill:none;stroke:#000000;stroke-linecap:square;stroke-linejoin:miter;stroke-width:0.8;"/>
   </g>
   <g id="patch_5">
    <path d="M 40.5 224.28 
L 291.6 224.28 
" style="fill:none;stroke:#000000;stroke-linecap:square;stroke-linejoin:miter;stroke-width:0.8;"/>
   </g>
   <g id="patch_6">
    <path d="M 40.5 30.24 
L 291.6 30.24 
" style="fill:none;stroke:#000000;stroke-linecap:square;stroke-linejoin:miter;stroke-width:0.8;"/>
   </g>
   <g id="text_14">
    <text style="font-family:DejaVu Sans;font-size:12px;font-style:normal;font-weight:normal;text-anchor:middle;" transform="rotate(-0, 166.05, 24.24)" x="166.05" y="24.24">Avg. Bits Consumed by exp(x)*(1-x) Algorithm</text>
   </g>
  </g>
 </g>
 <defs>
  <clipPath id="p9ca76502fe">
   <rect height="194.04" width="251.1" x="40.5" y="30.24"/>
  </clipPath>
 </defs>
</svg>
