<?xml version="1.0" encoding="utf-8" standalone="no"?>
<!DOCTYPE svg PUBLIC "-//W3C//DTD SVG 1.1//EN"
  "http://www.w3.org/Graphics/SVG/1.1/DTD/svg11.dtd">
<!-- Created with matplotlib (https://matplotlib.org/) -->
<svg height="345.6pt" version="1.1" viewBox="0 0 460.8 345.6" width="460.8pt" xmlns="http://www.w3.org/2000/svg" xmlns:xlink="http://www.w3.org/1999/xlink">
 <defs>
  <style type="text/css">
*{stroke-linecap:butt;stroke-linejoin:round;}
  </style>
 </defs>
 <g id="figure_1">
  <g id="patch_1">
   <path d="M 0 345.6 
L 460.8 345.6 
L 460.8 0 
L 0 0 
z
" style="fill:#ffffff;"/>
  </g>
  <g id="axes_1">
   <g id="patch_2">
    <path d="M 57.6 307.584 
L 414.72 307.584 
L 414.72 41.472 
L 57.6 41.472 
z
" style="fill:#ffffff;"/>
   </g>
   <g id="matplotlib.axis_1">
    <g id="xtick_1">
     <g id="line2d_1">
      <defs>
       <path d="M 0 0 
L 0 3.5 
" id="m293a599cd0" style="stroke:#000000;stroke-width:0.8;"/>
      </defs>
      <g>
       <use style="stroke:#000000;stroke-width:0.8;" x="73.800255" xlink:href="#m293a599cd0" y="307.584"/>
      </g>
     </g>
     <g id="text_1">
      <text style="font-family:DejaVu Sans;font-size:10px;font-style:normal;font-weight:normal;text-anchor:middle;" transform="rotate(-0, 73.800255, 322.182437)" x="73.800255" y="322.182437">0.0</text>
     </g>
    </g>
    <g id="xtick_2">
     <g id="line2d_2">
      <g>
       <use style="stroke:#000000;stroke-width:0.8;" x="138.744153" xlink:href="#m293a599cd0" y="307.584"/>
      </g>
     </g>
     <g id="text_2">
      <text style="font-family:DejaVu Sans;font-size:10px;font-style:normal;font-weight:normal;text-anchor:middle;" transform="rotate(-0, 138.744153, 322.182437)" x="138.744153" y="322.182437">0.2</text>
     </g>
    </g>
    <g id="xtick_3">
     <g id="line2d_3">
      <g>
       <use style="stroke:#000000;stroke-width:0.8;" x="203.688051" xlink:href="#m293a599cd0" y="307.584"/>
      </g>
     </g>
     <g id="text_3">
      <text style="font-family:DejaVu Sans;font-size:10px;font-style:normal;font-weight:normal;text-anchor:middle;" transform="rotate(-0, 203.688051, 322.182437)" x="203.688051" y="322.182437">0.4</text>
     </g>
    </g>
    <g id="xtick_4">
     <g id="line2d_4">
      <g>
       <use style="stroke:#000000;stroke-width:0.8;" x="268.631949" xlink:href="#m293a599cd0" y="307.584"/>
      </g>
     </g>
     <g id="text_4">
      <text style="font-family:DejaVu Sans;font-size:10px;font-style:normal;font-weight:normal;text-anchor:middle;" transform="rotate(-0, 268.631949, 322.182437)" x="268.631949" y="322.182437">0.6</text>
     </g>
    </g>
    <g id="xtick_5">
     <g id="line2d_5">
      <g>
       <use style="stroke:#000000;stroke-width:0.8;" x="333.575847" xlink:href="#m293a599cd0" y="307.584"/>
      </g>
     </g>
     <g id="text_5">
      <text style="font-family:DejaVu Sans;font-size:10px;font-style:normal;font-weight:normal;text-anchor:middle;" transform="rotate(-0, 333.575847, 322.182437)" x="333.575847" y="322.182437">0.8</text>
     </g>
    </g>
    <g id="xtick_6">
     <g id="line2d_6">
      <g>
       <use style="stroke:#000000;stroke-width:0.8;" x="398.519745" xlink:href="#m293a599cd0" y="307.584"/>
      </g>
     </g>
     <g id="text_6">
      <text style="font-family:DejaVu Sans;font-size:10px;font-style:normal;font-weight:normal;text-anchor:middle;" transform="rotate(-0, 398.519745, 322.182437)" x="398.519745" y="322.182437">1.0</text>
     </g>
    </g>
    <g id="text_7">
     <text style="font-family:DejaVu Sans;font-size:10px;font-style:normal;font-weight:normal;text-anchor:middle;" transform="rotate(-0, 236.16, 335.860562)" x="236.16" y="335.860562">Input Coin's Heads Probability (λ)</text>
    </g>
   </g>
   <g id="matplotlib.axis_2">
    <g id="ytick_1">
     <g id="line2d_7">
      <defs>
       <path d="M 0 0 
L -3.5 0 
" id="m5efd1285bd" style="stroke:#000000;stroke-width:0.8;"/>
      </defs>
      <g>
       <use style="stroke:#000000;stroke-width:0.8;" x="57.6" xlink:href="#m5efd1285bd" y="276.193767"/>
      </g>
     </g>
     <g id="text_8">
      <text style="font-family:DejaVu Sans;font-size:10px;font-style:normal;font-weight:normal;text-anchor:end;" transform="rotate(-0, 50.6, 279.992986)" x="50.6" y="279.992986">0.4</text>
     </g>
    </g>
    <g id="ytick_2">
     <g id="line2d_8">
      <g>
       <use style="stroke:#000000;stroke-width:0.8;" x="57.6" xlink:href="#m5efd1285bd" y="239.089472"/>
      </g>
     </g>
     <g id="text_9">
      <text style="font-family:DejaVu Sans;font-size:10px;font-style:normal;font-weight:normal;text-anchor:end;" transform="rotate(-0, 50.6, 242.888691)" x="50.6" y="242.888691">0.5</text>
     </g>
    </g>
    <g id="ytick_3">
     <g id="line2d_9">
      <g>
       <use style="stroke:#000000;stroke-width:0.8;" x="57.6" xlink:href="#m5efd1285bd" y="201.985178"/>
      </g>
     </g>
     <g id="text_10">
      <text style="font-family:DejaVu Sans;font-size:10px;font-style:normal;font-weight:normal;text-anchor:end;" transform="rotate(-0, 50.6, 205.784397)" x="50.6" y="205.784397">0.6</text>
     </g>
    </g>
    <g id="ytick_4">
     <g id="line2d_10">
      <g>
       <use style="stroke:#000000;stroke-width:0.8;" x="57.6" xlink:href="#m5efd1285bd" y="164.880883"/>
      </g>
     </g>
     <g id="text_11">
      <text style="font-family:DejaVu Sans;font-size:10px;font-style:normal;font-weight:normal;text-anchor:end;" transform="rotate(-0, 50.6, 168.680102)" x="50.6" y="168.680102">0.7</text>
     </g>
    </g>
    <g id="ytick_5">
     <g id="line2d_11">
      <g>
       <use style="stroke:#000000;stroke-width:0.8;" x="57.6" xlink:href="#m5efd1285bd" y="127.776589"/>
      </g>
     </g>
     <g id="text_12">
      <text style="font-family:DejaVu Sans;font-size:10px;font-style:normal;font-weight:normal;text-anchor:end;" transform="rotate(-0, 50.6, 131.575808)" x="50.6" y="131.575808">0.8</text>
     </g>
    </g>
    <g id="ytick_6">
     <g id="line2d_12">
      <g>
       <use style="stroke:#000000;stroke-width:0.8;" x="57.6" xlink:href="#m5efd1285bd" y="90.672294"/>
      </g>
     </g>
     <g id="text_13">
      <text style="font-family:DejaVu Sans;font-size:10px;font-style:normal;font-weight:normal;text-anchor:end;" transform="rotate(-0, 50.6, 94.471513)" x="50.6" y="94.471513">0.9</text>
     </g>
    </g>
    <g id="ytick_7">
     <g id="line2d_13">
      <g>
       <use style="stroke:#000000;stroke-width:0.8;" x="57.6" xlink:href="#m5efd1285bd" y="53.568"/>
      </g>
     </g>
     <g id="text_14">
      <text style="font-family:DejaVu Sans;font-size:10px;font-style:normal;font-weight:normal;text-anchor:end;" transform="rotate(-0, 50.6, 57.367219)" x="50.6" y="57.367219">1.0</text>
     </g>
    </g>
    <g id="text_15">
     <text style="font-family:DejaVu Sans;font-size:10px;font-style:normal;font-weight:normal;text-anchor:middle;" transform="rotate(-90, 28.617187, 174.528)" x="28.617187" y="174.528">Simulated Mean / Function Value</text>
    </g>
   </g>
   <g id="line2d_14">
    <path clip-path="url(#p888a7dc335)" d="M 73.832727 53.605102 
L 77.112066 57.333031 
L 80.391405 61.0235 
L 83.670744 64.676888 
L 86.950083 68.293565 
L 90.229421 71.873901 
L 93.50876 75.418262 
L 96.788099 78.927008 
L 100.067438 82.400497 
L 103.346777 85.839085 
L 106.626116 89.243121 
L 109.905455 92.612953 
L 113.184793 95.948924 
L 116.464132 99.251374 
L 119.743471 102.520641 
L 123.02281 105.757058 
L 126.302149 108.960955 
L 129.581488 112.132659 
L 132.860826 115.272493 
L 136.140165 118.380777 
L 139.419504 121.457829 
L 142.698843 124.503961 
L 145.978182 127.519486 
L 149.257521 130.504711 
L 152.53686 133.459939 
L 155.816198 136.385473 
L 159.095537 139.28161 
L 162.374876 142.148647 
L 165.654215 144.986875 
L 168.933554 147.796584 
L 172.212893 150.578061 
L 175.492231 153.331589 
L 178.77157 156.057449 
L 182.050909 158.755919 
L 185.330248 161.427275 
L 188.609587 164.071788 
L 191.888926 166.689729 
L 195.168264 169.281364 
L 198.447603 171.846958 
L 201.726942 174.386773 
L 205.006281 176.901067 
L 208.28562 179.390097 
L 211.564959 181.854117 
L 214.844298 184.293378 
L 218.123636 186.708129 
L 221.402975 189.098616 
L 224.682314 191.465083 
L 227.961653 193.807771 
L 231.240992 196.12692 
L 234.520331 198.422765 
L 237.799669 200.695542 
L 241.079008 202.945481 
L 244.358347 205.172813 
L 247.637686 207.377763 
L 250.917025 209.560558 
L 254.196364 211.721421 
L 257.475702 213.86057 
L 260.755041 215.978225 
L 264.03438 218.074601 
L 267.313719 220.149913 
L 270.593058 222.204371 
L 273.872397 224.238186 
L 277.151736 226.251565 
L 280.431074 228.244713 
L 283.710413 230.217833 
L 286.989752 232.171128 
L 290.269091 234.104795 
L 293.54843 236.019032 
L 296.827769 237.914035 
L 300.107107 239.789997 
L 303.386446 241.647109 
L 306.665785 243.48556 
L 309.945124 245.305538 
L 313.224463 247.107228 
L 316.503802 248.890815 
L 319.78314 250.65648 
L 323.062479 252.404404 
L 326.341818 254.134763 
L 329.621157 255.847737 
L 332.900496 257.543497 
L 336.179835 259.222219 
L 339.459174 260.884072 
L 342.738512 262.529227 
L 346.017851 264.157851 
L 349.29719 265.770111 
L 352.576529 267.36617 
L 355.855868 268.946191 
L 359.135207 270.510337 
L 362.414545 272.058765 
L 365.693884 273.591635 
L 368.973223 275.109102 
L 372.252562 276.611321 
L 375.531901 278.098446 
L 378.81124 279.570628 
L 382.090579 281.028017 
L 385.369917 282.470763 
L 388.649256 283.899011 
L 391.928595 285.312908 
L 395.207934 286.712597 
L 398.487273 288.098223 
" style="fill:none;stroke:#1f77b4;stroke-linecap:square;stroke-width:1.5;"/>
   </g>
   <g id="line2d_15">
    <path clip-path="url(#p888a7dc335)" d="M 73.832727 53.568 
L 77.112066 55.052172 
L 80.391405 60.988859 
L 83.670744 68.409718 
L 86.950083 71.378061 
L 90.229421 69.151804 
L 93.50876 80.283092 
L 96.788099 81.025178 
L 100.067438 85.477693 
L 103.346777 86.961865 
L 106.626116 86.219779 
L 109.905455 90.672294 
L 113.184793 104.02984 
L 116.464132 95.866896 
L 119.743471 103.287755 
L 123.02281 99.577325 
L 126.302149 117.387387 
L 129.581488 109.966528 
L 132.860826 115.161129 
L 136.140165 118.129472 
L 139.419504 129.260761 
L 142.698843 115.161129 
L 145.978182 124.808245 
L 149.257521 142.618307 
L 152.53686 126.292417 
L 155.816198 138.165791 
L 159.095537 137.423706 
L 162.374876 140.392049 
L 165.654215 138.907877 
L 168.933554 158.20211 
L 172.212893 150.039166 
L 175.492231 147.812908 
L 178.77157 151.523337 
L 182.050909 167.107141 
L 185.330248 173.043828 
L 188.609587 166.365055 
L 191.888926 175.270086 
L 195.168264 167.849227 
L 198.447603 170.817571 
L 201.726942 177.496344 
L 205.006281 160.428368 
L 208.28562 176.012172 
L 211.564959 171.559656 
L 214.844298 173.785914 
L 218.123636 193.822233 
L 221.402975 201.243092 
L 224.682314 193.822233 
L 227.961653 195.306405 
L 231.240992 190.85389 
L 234.520331 203.46935 
L 237.799669 190.111804 
L 241.079008 193.080147 
L 244.358347 202.727264 
L 247.637686 201.985178 
L 250.917025 213.858552 
L 254.196364 215.342724 
L 257.475702 207.921865 
L 260.755041 222.763583 
L 264.03438 214.600638 
L 267.313719 231.668613 
L 270.593058 207.921865 
L 273.872397 219.795239 
L 277.151736 239.831558 
L 280.431074 229.442356 
L 283.710413 231.668613 
L 286.989752 241.31573 
L 290.269091 243.541988 
L 293.54843 233.152785 
L 296.827769 253.189104 
L 300.107107 239.831558 
L 303.386446 242.057816 
L 306.665785 239.831558 
L 309.945124 244.284074 
L 313.224463 256.899534 
L 316.503802 236.121129 
L 319.78314 258.383706 
L 323.062479 250.220761 
L 326.341818 246.510331 
L 329.621157 261.352049 
L 332.900496 258.383706 
L 336.179835 256.899534 
L 339.459174 244.284074 
L 342.738512 273.225423 
L 346.017851 264.320393 
L 349.29719 253.93119 
L 352.576529 258.383706 
L 355.855868 260.609963 
L 359.135207 262.094135 
L 362.414545 268.772908 
L 365.693884 279.16211 
L 368.973223 268.030822 
L 372.252562 265.062479 
L 375.531901 279.16211 
L 378.81124 285.840883 
L 382.090579 282.87254 
L 385.369917 279.904196 
L 388.649256 270.25708 
L 391.928595 295.488 
L 395.207934 280.646282 
" style="fill:none;stroke:#ff7f0e;stroke-linecap:square;stroke-width:1.5;"/>
   </g>
   <g id="patch_3">
    <path d="M 57.6 307.584 
L 57.6 41.472 
" style="fill:none;stroke:#000000;stroke-linecap:square;stroke-linejoin:miter;stroke-width:0.8;"/>
   </g>
   <g id="patch_4">
    <path d="M 414.72 307.584 
L 414.72 41.472 
" style="fill:none;stroke:#000000;stroke-linecap:square;stroke-linejoin:miter;stroke-width:0.8;"/>
   </g>
   <g id="patch_5">
    <path d="M 57.6 307.584 
L 414.72 307.584 
" style="fill:none;stroke:#000000;stroke-linecap:square;stroke-linejoin:miter;stroke-width:0.8;"/>
   </g>
   <g id="patch_6">
    <path d="M 57.6 41.472 
L 414.72 41.472 
" style="fill:none;stroke:#000000;stroke-linecap:square;stroke-linejoin:miter;stroke-width:0.8;"/>
   </g>
   <g id="text_16">
    <text style="font-family:DejaVu Sans;font-size:12px;font-style:normal;font-weight:normal;text-anchor:middle;" transform="rotate(-0, 236.16, 35.472)" x="236.16" y="35.472">Expected Value in exp(-x) (Alg. 2) Algorithm</text>
   </g>
   <g id="legend_1">
    <g id="patch_7">
     <path d="M 203.524687 78.82825 
L 407.72 78.82825 
Q 409.72 78.82825 409.72 76.82825 
L 409.72 48.472 
Q 409.72 46.472 407.72 46.472 
L 203.524687 46.472 
Q 201.524687 46.472 201.524687 48.472 
L 201.524687 76.82825 
Q 201.524687 78.82825 203.524687 78.82825 
z
" style="fill:#ffffff;opacity:0.8;stroke:#cccccc;stroke-linejoin:miter;"/>
    </g>
    <g id="line2d_16">
     <path d="M 205.524687 54.570437 
L 225.524687 54.570437 
" style="fill:none;stroke:#1f77b4;stroke-linecap:square;stroke-width:1.5;"/>
    </g>
    <g id="line2d_17"/>
    <g id="text_17">
     <text style="font-family:DejaVu Sans;font-size:10px;font-style:normal;font-weight:normal;text-anchor:start;" transform="rotate(-0, 233.524687, 58.070437)" x="233.524687" y="58.070437">exp(-x)</text>
    </g>
    <g id="line2d_18">
     <path d="M 205.524687 69.248562 
L 225.524687 69.248562 
" style="fill:none;stroke:#ff7f0e;stroke-linecap:square;stroke-width:1.5;"/>
    </g>
    <g id="line2d_19"/>
    <g id="text_18">
     <text style="font-family:DejaVu Sans;font-size:10px;font-style:normal;font-weight:normal;text-anchor:start;" transform="rotate(-0, 233.524687, 72.748562)" x="233.524687" y="72.748562">Simulated Mean of exp(-x) (Alg. 2)</text>
    </g>
   </g>
  </g>
 </g>
 <defs>
  <clipPath id="p888a7dc335">
   <rect height="266.112" width="357.12" x="57.6" y="41.472"/>
  </clipPath>
 </defs>
</svg>
