<?xml version="1.0" encoding="utf-8" standalone="no"?>
<!DOCTYPE svg PUBLIC "-//W3C//DTD SVG 1.1//EN"
  "http://www.w3.org/Graphics/SVG/1.1/DTD/svg11.dtd">
<!-- Created with matplotlib (https://matplotlib.org/) -->
<svg height="345.6pt" version="1.1" viewBox="0 0 460.8 345.6" width="460.8pt" xmlns="http://www.w3.org/2000/svg" xmlns:xlink="http://www.w3.org/1999/xlink">
 <defs>
  <style type="text/css">
*{stroke-linecap:butt;stroke-linejoin:round;}
  </style>
 </defs>
 <g id="figure_1">
  <g id="patch_1">
   <path d="M 0 345.6 
L 460.8 345.6 
L 460.8 0 
L 0 0 
z
" style="fill:#ffffff;"/>
  </g>
  <g id="axes_1">
   <g id="patch_2">
    <path d="M 57.6 307.584 
L 414.72 307.584 
L 414.72 41.472 
L 57.6 41.472 
z
" style="fill:#ffffff;"/>
   </g>
   <g id="matplotlib.axis_1">
    <g id="xtick_1">
     <g id="line2d_1">
      <defs>
       <path d="M 0 0 
L 0 3.5 
" id="m73473f4587" style="stroke:#000000;stroke-width:0.8;"/>
      </defs>
      <g>
       <use style="stroke:#000000;stroke-width:0.8;" x="73.800255" xlink:href="#m73473f4587" y="307.584"/>
      </g>
     </g>
     <g id="text_1">
      <text style="font-family:DejaVu Sans;font-size:10px;font-style:normal;font-weight:normal;text-anchor:middle;" transform="rotate(-0, 73.800255, 322.182437)" x="73.800255" y="322.182437">0.0</text>
     </g>
    </g>
    <g id="xtick_2">
     <g id="line2d_2">
      <g>
       <use style="stroke:#000000;stroke-width:0.8;" x="138.744153" xlink:href="#m73473f4587" y="307.584"/>
      </g>
     </g>
     <g id="text_2">
      <text style="font-family:DejaVu Sans;font-size:10px;font-style:normal;font-weight:normal;text-anchor:middle;" transform="rotate(-0, 138.744153, 322.182437)" x="138.744153" y="322.182437">0.2</text>
     </g>
    </g>
    <g id="xtick_3">
     <g id="line2d_3">
      <g>
       <use style="stroke:#000000;stroke-width:0.8;" x="203.688051" xlink:href="#m73473f4587" y="307.584"/>
      </g>
     </g>
     <g id="text_3">
      <text style="font-family:DejaVu Sans;font-size:10px;font-style:normal;font-weight:normal;text-anchor:middle;" transform="rotate(-0, 203.688051, 322.182437)" x="203.688051" y="322.182437">0.4</text>
     </g>
    </g>
    <g id="xtick_4">
     <g id="line2d_4">
      <g>
       <use style="stroke:#000000;stroke-width:0.8;" x="268.631949" xlink:href="#m73473f4587" y="307.584"/>
      </g>
     </g>
     <g id="text_4">
      <text style="font-family:DejaVu Sans;font-size:10px;font-style:normal;font-weight:normal;text-anchor:middle;" transform="rotate(-0, 268.631949, 322.182437)" x="268.631949" y="322.182437">0.6</text>
     </g>
    </g>
    <g id="xtick_5">
     <g id="line2d_5">
      <g>
       <use style="stroke:#000000;stroke-width:0.8;" x="333.575847" xlink:href="#m73473f4587" y="307.584"/>
      </g>
     </g>
     <g id="text_5">
      <text style="font-family:DejaVu Sans;font-size:10px;font-style:normal;font-weight:normal;text-anchor:middle;" transform="rotate(-0, 333.575847, 322.182437)" x="333.575847" y="322.182437">0.8</text>
     </g>
    </g>
    <g id="xtick_6">
     <g id="line2d_6">
      <g>
       <use style="stroke:#000000;stroke-width:0.8;" x="398.519745" xlink:href="#m73473f4587" y="307.584"/>
      </g>
     </g>
     <g id="text_6">
      <text style="font-family:DejaVu Sans;font-size:10px;font-style:normal;font-weight:normal;text-anchor:middle;" transform="rotate(-0, 398.519745, 322.182437)" x="398.519745" y="322.182437">1.0</text>
     </g>
    </g>
    <g id="text_7">
     <text style="font-family:DejaVu Sans;font-size:10px;font-style:normal;font-weight:normal;text-anchor:middle;" transform="rotate(-0, 236.16, 335.860562)" x="236.16" y="335.860562">Input Coin's Heads Probability (λ)</text>
    </g>
   </g>
   <g id="matplotlib.axis_2">
    <g id="ytick_1">
     <g id="line2d_7">
      <defs>
       <path d="M 0 0 
L -3.5 0 
" id="me9776c3132" style="stroke:#000000;stroke-width:0.8;"/>
      </defs>
      <g>
       <use style="stroke:#000000;stroke-width:0.8;" x="57.6" xlink:href="#me9776c3132" y="295.493177"/>
      </g>
     </g>
     <g id="text_8">
      <text style="font-family:DejaVu Sans;font-size:10px;font-style:normal;font-weight:normal;text-anchor:end;" transform="rotate(-0, 50.6, 299.292395)" x="50.6" y="299.292395">0.0</text>
     </g>
    </g>
    <g id="ytick_2">
     <g id="line2d_8">
      <g>
       <use style="stroke:#000000;stroke-width:0.8;" x="57.6" xlink:href="#me9776c3132" y="251.021637"/>
      </g>
     </g>
     <g id="text_9">
      <text style="font-family:DejaVu Sans;font-size:10px;font-style:normal;font-weight:normal;text-anchor:end;" transform="rotate(-0, 50.6, 254.820856)" x="50.6" y="254.820856">0.5</text>
     </g>
    </g>
    <g id="ytick_3">
     <g id="line2d_9">
      <g>
       <use style="stroke:#000000;stroke-width:0.8;" x="57.6" xlink:href="#me9776c3132" y="206.550097"/>
      </g>
     </g>
     <g id="text_10">
      <text style="font-family:DejaVu Sans;font-size:10px;font-style:normal;font-weight:normal;text-anchor:end;" transform="rotate(-0, 50.6, 210.349316)" x="50.6" y="210.349316">1.0</text>
     </g>
    </g>
    <g id="ytick_4">
     <g id="line2d_10">
      <g>
       <use style="stroke:#000000;stroke-width:0.8;" x="57.6" xlink:href="#me9776c3132" y="162.078557"/>
      </g>
     </g>
     <g id="text_11">
      <text style="font-family:DejaVu Sans;font-size:10px;font-style:normal;font-weight:normal;text-anchor:end;" transform="rotate(-0, 50.6, 165.877776)" x="50.6" y="165.877776">1.5</text>
     </g>
    </g>
    <g id="ytick_5">
     <g id="line2d_11">
      <g>
       <use style="stroke:#000000;stroke-width:0.8;" x="57.6" xlink:href="#me9776c3132" y="117.607017"/>
      </g>
     </g>
     <g id="text_12">
      <text style="font-family:DejaVu Sans;font-size:10px;font-style:normal;font-weight:normal;text-anchor:end;" transform="rotate(-0, 50.6, 121.406236)" x="50.6" y="121.406236">2.0</text>
     </g>
    </g>
    <g id="ytick_6">
     <g id="line2d_12">
      <g>
       <use style="stroke:#000000;stroke-width:0.8;" x="57.6" xlink:href="#me9776c3132" y="73.135478"/>
      </g>
     </g>
     <g id="text_13">
      <text style="font-family:DejaVu Sans;font-size:10px;font-style:normal;font-weight:normal;text-anchor:end;" transform="rotate(-0, 50.6, 76.934696)" x="50.6" y="76.934696">2.5</text>
     </g>
    </g>
    <g id="text_14">
     <text style="font-family:DejaVu Sans;font-size:10px;font-style:normal;font-weight:normal;text-anchor:middle;" transform="rotate(-90, 28.617187, 174.528)" x="28.617187" y="174.528">Coin Flips Needed</text>
    </g>
   </g>
   <g id="line2d_13">
    <path clip-path="url(#pddae1f370a)" d="M 73.832727 206.563438 
L 77.112066 207.905402 
L 80.391405 209.23683 
L 83.670744 210.557766 
L 86.950083 211.868257 
L 90.229421 213.16835 
L 93.50876 214.458088 
L 96.788099 215.73752 
L 100.067438 217.00669 
L 103.346777 218.265645 
L 106.626116 219.51443 
L 109.905455 220.753092 
L 113.184793 221.981676 
L 116.464132 223.20023 
L 119.743471 224.408798 
L 123.02281 225.607427 
L 126.302149 226.796163 
L 129.581488 227.975052 
L 132.860826 229.14414 
L 136.140165 230.303474 
L 139.419504 231.453099 
L 142.698843 232.593061 
L 145.978182 233.723408 
L 149.257521 234.844183 
L 152.53686 235.955435 
L 155.816198 237.057208 
L 159.095537 238.14955 
L 162.374876 239.232506 
L 165.654215 240.306121 
L 168.933554 241.370443 
L 172.212893 242.425517 
L 175.492231 243.47139 
L 178.77157 244.508107 
L 182.050909 245.535714 
L 185.330248 246.554257 
L 188.609587 247.563783 
L 191.888926 248.564337 
L 195.168264 249.555965 
L 198.447603 250.538713 
L 201.726942 251.512627 
L 205.006281 252.477752 
L 208.28562 253.434135 
L 211.564959 254.381821 
L 214.844298 255.320856 
L 218.123636 256.251286 
L 221.402975 257.173156 
L 224.682314 258.086512 
L 227.961653 258.9914 
L 231.240992 259.887865 
L 234.520331 260.775952 
L 237.799669 261.655708 
L 241.079008 262.527177 
L 244.358347 263.390405 
L 247.637686 264.245437 
L 250.917025 265.092319 
L 254.196364 265.931095 
L 257.475702 266.761811 
L 260.755041 267.584512 
L 264.03438 268.399243 
L 267.313719 269.206049 
L 270.593058 270.004976 
L 273.872397 270.796067 
L 277.151736 271.579368 
L 280.431074 272.354923 
L 283.710413 273.122777 
L 286.989752 273.882976 
L 290.269091 274.635562 
L 293.54843 275.380582 
L 296.827769 276.118079 
L 300.107107 276.848097 
L 303.386446 277.570681 
L 306.665785 278.285876 
L 309.945124 278.993725 
L 313.224463 279.694272 
L 316.503802 280.387562 
L 319.78314 281.073638 
L 323.062479 281.752544 
L 326.341818 282.424324 
L 329.621157 283.089021 
L 332.900496 283.74668 
L 336.179835 284.397343 
L 339.459174 285.041054 
L 342.738512 285.677857 
L 346.017851 286.307794 
L 349.29719 286.930908 
L 352.576529 287.547244 
L 355.855868 288.156843 
L 359.135207 288.759749 
L 362.414545 289.356004 
L 365.693884 289.945651 
L 368.973223 290.528732 
L 372.252562 291.105291 
L 375.531901 291.675369 
L 378.81124 292.239009 
L 382.090579 292.796253 
L 385.369917 293.347143 
L 388.649256 293.891721 
L 391.928595 294.430028 
L 395.207934 294.962108 
L 398.487273 295.488 
" style="fill:none;stroke:#1f77b4;stroke-linecap:square;stroke-width:1.5;"/>
   </g>
   <g id="line2d_14">
    <path clip-path="url(#pddae1f370a)" d="M 73.832727 206.550097 
L 77.112066 205.48278 
L 80.391405 202.992374 
L 83.670744 203.17026 
L 86.950083 202.636601 
L 90.229421 202.102943 
L 93.50876 201.035626 
L 96.788099 199.256764 
L 100.067438 196.944244 
L 103.346777 197.477903 
L 106.626116 194.631724 
L 109.905455 195.343269 
L 113.184793 196.054814 
L 116.464132 194.453838 
L 119.743471 194.631724 
L 123.02281 191.60766 
L 126.302149 190.006684 
L 129.581488 188.227823 
L 132.860826 188.939367 
L 136.140165 183.24701 
L 139.419504 185.737416 
L 142.698843 185.55953 
L 145.978182 182.713352 
L 149.257521 182.001807 
L 152.53686 182.179693 
L 155.816198 184.314327 
L 159.095537 181.112376 
L 162.374876 178.62197 
L 165.654215 178.62197 
L 168.933554 174.530588 
L 172.212893 175.775791 
L 175.492231 175.775791 
L 178.77157 175.242133 
L 182.050909 171.506524 
L 185.330248 170.794979 
L 188.609587 167.593028 
L 191.888926 164.74685 
L 195.168264 161.544899 
L 198.447603 168.838231 
L 201.726942 167.770914 
L 205.006281 158.520834 
L 208.28562 157.275631 
L 211.564959 157.453517 
L 214.844298 159.054492 
L 218.123636 154.251566 
L 221.402975 157.453517 
L 224.682314 157.097745 
L 227.961653 146.068803 
L 231.240992 151.583274 
L 234.520331 149.982298 
L 237.799669 147.669778 
L 241.079008 146.068803 
L 244.358347 146.424575 
L 247.637686 143.40051 
L 250.917025 146.424575 
L 254.196364 145.001486 
L 257.475702 135.573519 
L 260.755041 138.597584 
L 264.03438 134.506202 
L 267.313719 130.770593 
L 270.593058 133.083113 
L 273.872397 131.660024 
L 277.151736 128.813845 
L 280.431074 132.371569 
L 283.710413 121.164741 
L 286.989752 126.501325 
L 290.269091 122.943602 
L 293.54843 119.385879 
L 296.827769 119.385879 
L 300.107107 123.477261 
L 303.386446 119.919537 
L 306.665785 113.159863 
L 309.945124 106.578075 
L 313.224463 111.203116 
L 316.503802 111.736774 
L 319.78314 107.28962 
L 323.062479 102.66458 
L 326.341818 102.842466 
L 329.621157 100.707832 
L 332.900496 94.126044 
L 336.179835 95.904906 
L 339.459174 95.904906 
L 342.738512 91.10198 
L 346.017851 90.212549 
L 349.29719 95.193361 
L 352.576529 85.231736 
L 355.855868 84.164419 
L 359.135207 85.765395 
L 362.414545 78.11629 
L 365.693884 72.779705 
L 368.973223 76.159542 
L 372.252562 74.558567 
L 375.531901 67.44312 
L 378.81124 61.750763 
L 382.090579 66.020031 
L 385.369917 63.707511 
L 388.649256 60.50556 
L 391.928595 53.568 
L 395.207934 54.813203 
L 398.487273 62.640194 
" style="fill:none;stroke:#ff7f0e;stroke-linecap:square;stroke-width:1.5;"/>
   </g>
   <g id="patch_3">
    <path d="M 57.6 307.584 
L 57.6 41.472 
" style="fill:none;stroke:#000000;stroke-linecap:square;stroke-linejoin:miter;stroke-width:0.8;"/>
   </g>
   <g id="patch_4">
    <path d="M 414.72 307.584 
L 414.72 41.472 
" style="fill:none;stroke:#000000;stroke-linecap:square;stroke-linejoin:miter;stroke-width:0.8;"/>
   </g>
   <g id="patch_5">
    <path d="M 57.6 307.584 
L 414.72 307.584 
" style="fill:none;stroke:#000000;stroke-linecap:square;stroke-linejoin:miter;stroke-width:0.8;"/>
   </g>
   <g id="patch_6">
    <path d="M 57.6 41.472 
L 414.72 41.472 
" style="fill:none;stroke:#000000;stroke-linecap:square;stroke-linejoin:miter;stroke-width:0.8;"/>
   </g>
   <g id="text_15">
    <text style="font-family:DejaVu Sans;font-size:12px;font-style:normal;font-weight:normal;text-anchor:middle;" transform="rotate(-0, 236.16, 35.472)" x="236.16" y="35.472">Coin Flips for exp(-x)</text>
   </g>
   <g id="legend_1">
    <g id="patch_7">
     <path d="M 64.6 78.82825 
L 288.970312 78.82825 
Q 290.970312 78.82825 290.970312 76.82825 
L 290.970312 48.472 
Q 290.970312 46.472 288.970312 46.472 
L 64.6 46.472 
Q 62.6 46.472 62.6 48.472 
L 62.6 76.82825 
Q 62.6 78.82825 64.6 78.82825 
z
" style="fill:#ffffff;opacity:0.8;stroke:#cccccc;stroke-linejoin:miter;"/>
    </g>
    <g id="line2d_15">
     <path d="M 66.6 54.570437 
L 86.6 54.570437 
" style="fill:none;stroke:#1f77b4;stroke-linecap:square;stroke-width:1.5;"/>
    </g>
    <g id="line2d_16"/>
    <g id="text_16">
     <text style="font-family:DejaVu Sans;font-size:10px;font-style:normal;font-weight:normal;text-anchor:start;" transform="rotate(-0, 94.6, 58.070437)" x="94.6" y="58.070437">Coin Flip Lower Bound</text>
    </g>
    <g id="line2d_17">
     <path d="M 66.6 69.248562 
L 86.6 69.248562 
" style="fill:none;stroke:#ff7f0e;stroke-linecap:square;stroke-width:1.5;"/>
    </g>
    <g id="line2d_18"/>
    <g id="text_17">
     <text style="font-family:DejaVu Sans;font-size:10px;font-style:normal;font-weight:normal;text-anchor:start;" transform="rotate(-0, 94.6, 72.748562)" x="94.6" y="72.748562">Avg. Coins Flipped exp(-x) (Alt. Series)</text>
    </g>
   </g>
  </g>
 </g>
 <defs>
  <clipPath id="pddae1f370a">
   <rect height="266.112" width="357.12" x="57.6" y="41.472"/>
  </clipPath>
 </defs>
</svg>
