<svg height="460.8" viewBox="0 0 460.8 345.6" width="614.4" xmlns="http://www.w3.org/2000/svg" xmlns:xlink="http://www.w3.org/1999/xlink"><defs><style>*{stroke-linecap:butt;stroke-linejoin:round}</style></defs><g id="figure_1"><path d="M0 345.6h460.8V0H0z" fill="#fff" id="patch_1"/><g id="axes_1"><path d="M57.6 307.584h357.12V41.472H57.6z" fill="#fff" id="patch_2"/><g id="matplotlib.axis_1"><g id="xtick_1"><g id="line2d_1"><defs><path d="M0 0v3.5" id="m19db7be73c" stroke="#000" stroke-width=".8"/></defs><use x="73.8" xlink:href="#m19db7be73c" y="307.584" stroke="#000" stroke-width=".8"/></g><text x="73.8" y="322.182" font-family="DejaVu Sans" font-size="10" font-weight="400" text-anchor="middle" id="text_1">0.0</text></g><g id="xtick_2"><use x="138.744" xlink:href="#m19db7be73c" y="307.584" stroke="#000" stroke-width=".8" id="line2d_2"/><text x="138.744" y="322.182" font-family="DejaVu Sans" font-size="10" font-weight="400" text-anchor="middle" id="text_2">0.2</text></g><g id="xtick_3"><use x="203.688" xlink:href="#m19db7be73c" y="307.584" stroke="#000" stroke-width=".8" id="line2d_3"/><text x="203.688" y="322.182" font-family="DejaVu Sans" font-size="10" font-weight="400" text-anchor="middle" id="text_3">0.4</text></g><g id="xtick_4"><use x="268.632" xlink:href="#m19db7be73c" y="307.584" stroke="#000" stroke-width=".8" id="line2d_4"/><text x="268.632" y="322.182" font-family="DejaVu Sans" font-size="10" font-weight="400" text-anchor="middle" id="text_4">0.6</text></g><g id="xtick_5"><use x="333.576" xlink:href="#m19db7be73c" y="307.584" stroke="#000" stroke-width=".8" id="line2d_5"/><text x="333.576" y="322.182" font-family="DejaVu Sans" font-size="10" font-weight="400" text-anchor="middle" id="text_5">0.8</text></g><g id="xtick_6"><use x="398.52" xlink:href="#m19db7be73c" y="307.584" stroke="#000" stroke-width=".8" id="line2d_6"/><text x="398.52" y="322.182" font-family="DejaVu Sans" font-size="10" font-weight="400" text-anchor="middle" id="text_6">1.0</text></g><text x="236.16" y="335.861" font-family="DejaVu Sans" font-size="10" font-weight="400" text-anchor="middle" id="text_7">Input Coin&apos;s Heads Probability (λ)</text></g><g id="matplotlib.axis_2"><g id="ytick_1"><g id="line2d_7"><defs><path d="M0 0h-3.5" id="m6ab9852cf1" stroke="#000" stroke-width=".8"/></defs><use x="57.6" xlink:href="#m6ab9852cf1" y="295.493" stroke="#000" stroke-width=".8"/></g><text x="50.6" y="299.292" font-family="DejaVu Sans" font-size="10" font-weight="400" text-anchor="end" id="text_8">0.0</text></g><g id="ytick_2"><use x="57.6" xlink:href="#m6ab9852cf1" y="250.492" stroke="#000" stroke-width=".8" id="line2d_8"/><text x="50.6" y="254.291" font-family="DejaVu Sans" font-size="10" font-weight="400" text-anchor="end" id="text_9">0.5</text></g><g id="ytick_3"><use x="57.6" xlink:href="#m6ab9852cf1" y="205.491" stroke="#000" stroke-width=".8" id="line2d_9"/><text x="50.6" y="209.291" font-family="DejaVu Sans" font-size="10" font-weight="400" text-anchor="end" id="text_10">1.0</text></g><g id="ytick_4"><use x="57.6" xlink:href="#m6ab9852cf1" y="160.49" stroke="#000" stroke-width=".8" id="line2d_10"/><text x="50.6" y="164.29" font-family="DejaVu Sans" font-size="10" font-weight="400" text-anchor="end" id="text_11">1.5</text></g><g id="ytick_5"><use x="57.6" xlink:href="#m6ab9852cf1" y="115.489" stroke="#000" stroke-width=".8" id="line2d_11"/><text x="50.6" y="119.289" font-family="DejaVu Sans" font-size="10" font-weight="400" text-anchor="end" id="text_12">2.0</text></g><g id="ytick_6"><use x="57.6" xlink:href="#m6ab9852cf1" y="70.488" stroke="#000" stroke-width=".8" id="line2d_12"/><text x="50.6" y="74.288" font-family="DejaVu Sans" font-size="10" font-weight="400" text-anchor="end" id="text_13">2.5</text></g><text transform="rotate(-90 28.617 174.528)" x="28.617" y="174.528" font-family="DejaVu Sans" font-size="10" font-weight="400" text-anchor="middle" id="text_14">Coin Flips Needed</text></g><path clip-path="url(#pcdaf9ef18d)" d="M73.833 205.505l3.28 1.358 3.278 1.347 3.28 1.337 3.28 1.326 3.278 1.315 3.28 1.305 3.28 1.295 3.278 1.284 3.28 1.274 3.28 1.264 3.278 1.253 3.28 1.244 3.28 1.233 3.278 1.223 3.28 1.212 3.28 1.203 3.278 1.193 3.28 1.183 3.28 1.173 3.279 1.164 3.279 1.153 3.28 1.144 3.279 1.134 3.279 1.125 3.28 1.115 3.279 1.105 3.279 1.096 3.28 1.086 3.279 1.077 3.279 1.068 3.28 1.058 3.279 1.05 3.279 1.039 3.28 1.03 3.279 1.022 3.279 1.013 3.28 1.003 3.279.995 3.279.985 3.28.977 3.279.967 3.279.96 3.28.95 3.279.941 3.279.933 3.28.924 3.279.916 3.279.907 3.28.899 3.279.89 3.279.882 3.28.873 3.279.865 3.279.857 3.28.85 3.279.84 3.279.832 3.28.825 3.279.816 3.28.809 3.278.8 3.28.793 3.28.785 3.278.777 3.28.769 3.28.761 3.278.754 3.28.746 3.28.74 3.278.73 3.28.724 3.28.716 3.278.71 3.28.7 3.28.695 3.278.687 3.28.68 3.28.672 3.278.666 3.28.658 3.28.652 3.279.644 3.279.638 3.28.63 3.279.624 3.279.617 3.28.61 3.279.603 3.279.597 3.28.59 3.279.583 3.279.577 3.28.57 3.279.564 3.279.558 3.28.55 3.279.545 3.279.539 3.28.532" fill="none" stroke="#1f77b4" stroke-linecap="square" stroke-width="1.5" id="line2d_13"/><path clip-path="url(#pcdaf9ef18d)" d="M73.833 205.491l3.28-.9 3.278-1.26 3.28.54 3.28-1.98 3.278-.54 3.28-.9 3.28-1.98 3.278.18 3.28-2.52 3.28.18 3.278-1.08 3.28-.72 3.28 1.44 3.278-5.94 3.28.18 3.28-.9 3.278-.18 3.28.54 3.28-4.14 3.279-.36 3.279-3.78 3.28 2.34 3.279-.36 3.279-1.62 3.28-1.8 3.279-1.26 3.279-4.5 3.28-.18 3.279 5.94 3.279-7.74 3.28-2.7 3.279.54 3.279 1.26 3.28-2.7 3.279 1.62 3.279-7.2 3.28 3.24 3.279-1.8 3.279 3.6 3.28-8.82 3.279.36 3.279-3.96 3.28 1.98 3.279-3.78 3.279-6.481 3.28 5.76 3.279 1.08 3.279-1.98 3.28-12.42 3.279 6.66 3.279 1.26 3.28-5.94 3.279 4.5 3.279-10.08 3.28 2.52 3.279-2.52 3.279.18 3.28-.36 3.279-7.56 3.28 3.24 3.278-3.96 3.28-3.78 3.28.36 3.278-2.7 3.28-1.8 3.28-1.8 3.278.9 3.28-3.24 3.28-5.22 3.278 9.18 3.28-7.56 3.28 3.06 3.278-4.5 3.28-11.521 3.28 8.82 3.278-3.24 3.28-2.34 3.28-9 3.278 5.94 3.28-4.68 3.28 2.52 3.279-8.82 3.279 1.98 3.28-7.38 3.279-.9 3.279.36 3.28-1.98 3.279-3.42 3.279-4.32 3.28 2.52 3.279-3.96 3.279-4.86 3.28 1.08 3.279-13.861 3.279 9 3.28-8.64 3.279 4.14 3.279-3.06 3.28-1.08" fill="none" stroke="#ff7f0e" stroke-linecap="square" stroke-width="1.5" id="line2d_14"/><path d="M57.6 307.584V41.472" fill="none" stroke="#000" stroke-linecap="square" stroke-width=".8" id="patch_3"/><path d="M414.72 307.584V41.472" fill="none" stroke="#000" stroke-linecap="square" stroke-width=".8" id="patch_4"/><path d="M57.6 307.584h357.12" fill="none" stroke="#000" stroke-linecap="square" stroke-width=".8" id="patch_5"/><path d="M57.6 41.472h357.12" fill="none" stroke="#000" stroke-linecap="square" stroke-width=".8" id="patch_6"/><text x="236.16" y="35.472" font-family="DejaVu Sans" font-size="12" font-weight="400" text-anchor="middle" id="text_15">Coin Flips for exp(-x)</text><g id="legend_1"><path d="M64.6 78.828h224.37q2 0 2-2V48.472q0-2-2-2H64.6q-2 0-2 2v28.356q0 2 2 2z" fill="#fff" opacity=".8" stroke="#ccc" id="patch_7"/><path d="M66.6 54.57h20" fill="none" stroke="#1f77b4" stroke-linecap="square" stroke-width="1.5" id="line2d_15"/><text x="94.6" y="58.07" font-family="DejaVu Sans" font-size="10" font-weight="400" id="text_16">Coin Flip Lower Bound (Mendo)</text><path d="M66.6 69.249h20" fill="none" stroke="#ff7f0e" stroke-linecap="square" stroke-width="1.5" id="line2d_17"/><text x="94.6" y="72.749" font-family="DejaVu Sans" font-size="10" font-weight="400" id="text_17">Avg. Coins Flipped exp(-x) (Alt. Series)</text></g></g></g><defs><clipPath id="pcdaf9ef18d"><path d="M57.6 41.472h357.12v266.112H57.6z"/></clipPath></defs></svg>