<?xml version="1.0" encoding="utf-8" standalone="no"?>
<!DOCTYPE svg PUBLIC "-//W3C//DTD SVG 1.1//EN"
  "http://www.w3.org/Graphics/SVG/1.1/DTD/svg11.dtd">
<!-- Created with matplotlib (https://matplotlib.org/) -->
<svg height="345.6pt" version="1.1" viewBox="0 0 460.8 345.6" width="460.8pt" xmlns="http://www.w3.org/2000/svg" xmlns:xlink="http://www.w3.org/1999/xlink">
 <defs>
  <style type="text/css">
*{stroke-linecap:butt;stroke-linejoin:round;}
  </style>
 </defs>
 <g id="figure_1">
  <g id="patch_1">
   <path d="M 0 345.6 
L 460.8 345.6 
L 460.8 0 
L 0 0 
z
" style="fill:#ffffff;"/>
  </g>
  <g id="axes_1">
   <g id="patch_2">
    <path d="M 57.6 307.584 
L 414.72 307.584 
L 414.72 41.472 
L 57.6 41.472 
z
" style="fill:#ffffff;"/>
   </g>
   <g id="matplotlib.axis_1">
    <g id="xtick_1">
     <g id="line2d_1">
      <defs>
       <path d="M 0 0 
L 0 3.5 
" id="mca3a952ab9" style="stroke:#000000;stroke-width:0.8;"/>
      </defs>
      <g>
       <use style="stroke:#000000;stroke-width:0.8;" x="73.800255" xlink:href="#mca3a952ab9" y="307.584"/>
      </g>
     </g>
     <g id="text_1">
      <text style="font-family:DejaVu Sans;font-size:10px;font-style:normal;font-weight:normal;text-anchor:middle;" transform="rotate(-0, 73.800255, 322.182437)" x="73.800255" y="322.182437">0.0</text>
     </g>
    </g>
    <g id="xtick_2">
     <g id="line2d_2">
      <g>
       <use style="stroke:#000000;stroke-width:0.8;" x="138.744153" xlink:href="#mca3a952ab9" y="307.584"/>
      </g>
     </g>
     <g id="text_2">
      <text style="font-family:DejaVu Sans;font-size:10px;font-style:normal;font-weight:normal;text-anchor:middle;" transform="rotate(-0, 138.744153, 322.182437)" x="138.744153" y="322.182437">0.2</text>
     </g>
    </g>
    <g id="xtick_3">
     <g id="line2d_3">
      <g>
       <use style="stroke:#000000;stroke-width:0.8;" x="203.688051" xlink:href="#mca3a952ab9" y="307.584"/>
      </g>
     </g>
     <g id="text_3">
      <text style="font-family:DejaVu Sans;font-size:10px;font-style:normal;font-weight:normal;text-anchor:middle;" transform="rotate(-0, 203.688051, 322.182437)" x="203.688051" y="322.182437">0.4</text>
     </g>
    </g>
    <g id="xtick_4">
     <g id="line2d_4">
      <g>
       <use style="stroke:#000000;stroke-width:0.8;" x="268.631949" xlink:href="#mca3a952ab9" y="307.584"/>
      </g>
     </g>
     <g id="text_4">
      <text style="font-family:DejaVu Sans;font-size:10px;font-style:normal;font-weight:normal;text-anchor:middle;" transform="rotate(-0, 268.631949, 322.182437)" x="268.631949" y="322.182437">0.6</text>
     </g>
    </g>
    <g id="xtick_5">
     <g id="line2d_5">
      <g>
       <use style="stroke:#000000;stroke-width:0.8;" x="333.575847" xlink:href="#mca3a952ab9" y="307.584"/>
      </g>
     </g>
     <g id="text_5">
      <text style="font-family:DejaVu Sans;font-size:10px;font-style:normal;font-weight:normal;text-anchor:middle;" transform="rotate(-0, 333.575847, 322.182437)" x="333.575847" y="322.182437">0.8</text>
     </g>
    </g>
    <g id="xtick_6">
     <g id="line2d_6">
      <g>
       <use style="stroke:#000000;stroke-width:0.8;" x="398.519745" xlink:href="#mca3a952ab9" y="307.584"/>
      </g>
     </g>
     <g id="text_6">
      <text style="font-family:DejaVu Sans;font-size:10px;font-style:normal;font-weight:normal;text-anchor:middle;" transform="rotate(-0, 398.519745, 322.182437)" x="398.519745" y="322.182437">1.0</text>
     </g>
    </g>
    <g id="text_7">
     <text style="font-family:DejaVu Sans;font-size:10px;font-style:normal;font-weight:normal;text-anchor:middle;" transform="rotate(-0, 236.16, 335.860562)" x="236.16" y="335.860562">Input Coin's Heads Probability (λ)</text>
    </g>
   </g>
   <g id="matplotlib.axis_2">
    <g id="ytick_1">
     <g id="line2d_7">
      <defs>
       <path d="M 0 0 
L -3.5 0 
" id="mb2f4b74419" style="stroke:#000000;stroke-width:0.8;"/>
      </defs>
      <g>
       <use style="stroke:#000000;stroke-width:0.8;" x="57.6" xlink:href="#mb2f4b74419" y="274.163745"/>
      </g>
     </g>
     <g id="text_8">
      <text style="font-family:DejaVu Sans;font-size:10px;font-style:normal;font-weight:normal;text-anchor:end;" transform="rotate(-0, 50.6, 277.962963)" x="50.6" y="277.962963">0.4</text>
     </g>
    </g>
    <g id="ytick_2">
     <g id="line2d_8">
      <g>
       <use style="stroke:#000000;stroke-width:0.8;" x="57.6" xlink:href="#mb2f4b74419" y="237.397787"/>
      </g>
     </g>
     <g id="text_9">
      <text style="font-family:DejaVu Sans;font-size:10px;font-style:normal;font-weight:normal;text-anchor:end;" transform="rotate(-0, 50.6, 241.197006)" x="50.6" y="241.197006">0.5</text>
     </g>
    </g>
    <g id="ytick_3">
     <g id="line2d_9">
      <g>
       <use style="stroke:#000000;stroke-width:0.8;" x="57.6" xlink:href="#mb2f4b74419" y="200.63183"/>
      </g>
     </g>
     <g id="text_10">
      <text style="font-family:DejaVu Sans;font-size:10px;font-style:normal;font-weight:normal;text-anchor:end;" transform="rotate(-0, 50.6, 204.431049)" x="50.6" y="204.431049">0.6</text>
     </g>
    </g>
    <g id="ytick_4">
     <g id="line2d_10">
      <g>
       <use style="stroke:#000000;stroke-width:0.8;" x="57.6" xlink:href="#mb2f4b74419" y="163.865872"/>
      </g>
     </g>
     <g id="text_11">
      <text style="font-family:DejaVu Sans;font-size:10px;font-style:normal;font-weight:normal;text-anchor:end;" transform="rotate(-0, 50.6, 167.665091)" x="50.6" y="167.665091">0.7</text>
     </g>
    </g>
    <g id="ytick_5">
     <g id="line2d_11">
      <g>
       <use style="stroke:#000000;stroke-width:0.8;" x="57.6" xlink:href="#mb2f4b74419" y="127.099915"/>
      </g>
     </g>
     <g id="text_12">
      <text style="font-family:DejaVu Sans;font-size:10px;font-style:normal;font-weight:normal;text-anchor:end;" transform="rotate(-0, 50.6, 130.899134)" x="50.6" y="130.899134">0.8</text>
     </g>
    </g>
    <g id="ytick_6">
     <g id="line2d_12">
      <g>
       <use style="stroke:#000000;stroke-width:0.8;" x="57.6" xlink:href="#mb2f4b74419" y="90.333957"/>
      </g>
     </g>
     <g id="text_13">
      <text style="font-family:DejaVu Sans;font-size:10px;font-style:normal;font-weight:normal;text-anchor:end;" transform="rotate(-0, 50.6, 94.133176)" x="50.6" y="94.133176">0.9</text>
     </g>
    </g>
    <g id="ytick_7">
     <g id="line2d_13">
      <g>
       <use style="stroke:#000000;stroke-width:0.8;" x="57.6" xlink:href="#mb2f4b74419" y="53.568"/>
      </g>
     </g>
     <g id="text_14">
      <text style="font-family:DejaVu Sans;font-size:10px;font-style:normal;font-weight:normal;text-anchor:end;" transform="rotate(-0, 50.6, 57.367219)" x="50.6" y="57.367219">1.0</text>
     </g>
    </g>
    <g id="text_15">
     <text style="font-family:DejaVu Sans;font-size:10px;font-style:normal;font-weight:normal;text-anchor:middle;" transform="rotate(-90, 28.617187, 174.528)" x="28.617187" y="174.528">Simulated Mean / Function Value</text>
    </g>
   </g>
   <g id="line2d_14">
    <path clip-path="url(#pdc9dc28e68)" d="M 73.832727 53.604764 
L 77.112066 57.298699 
L 80.391405 60.955517 
L 83.670744 64.575591 
L 86.950083 68.159289 
L 90.229421 71.706978 
L 93.50876 75.219019 
L 96.788099 78.695771 
L 100.067438 82.137587 
L 103.346777 85.54482 
L 106.626116 88.917816 
L 109.905455 92.25692 
L 113.184793 95.562471 
L 116.464132 98.834809 
L 119.743471 102.074265 
L 123.02281 105.28117 
L 126.302149 108.455852 
L 129.581488 111.598635 
L 132.860826 114.709838 
L 136.140165 117.789779 
L 139.419504 120.838772 
L 142.698843 123.857129 
L 145.978182 126.845157 
L 149.257521 129.80316 
L 152.53686 132.731441 
L 155.816198 135.630298 
L 159.095537 138.500027 
L 162.374876 141.340921 
L 165.654215 144.153268 
L 168.933554 146.937357 
L 172.212893 149.693471 
L 175.492231 152.421891 
L 178.77157 155.122895 
L 182.050909 157.796759 
L 185.330248 160.443756 
L 188.609587 163.064155 
L 191.888926 165.658224 
L 195.168264 168.226227 
L 198.447603 170.768427 
L 201.726942 173.285082 
L 205.006281 175.776449 
L 208.28562 178.242783 
L 211.564959 180.684335 
L 214.844298 183.101353 
L 218.123636 185.494085 
L 221.402975 187.862774 
L 224.682314 190.207663 
L 227.961653 192.528989 
L 231.240992 194.826991 
L 234.520331 197.101901 
L 237.799669 199.353953 
L 241.079008 201.583376 
L 244.358347 203.790398 
L 247.637686 205.975243 
L 250.917025 208.138134 
L 254.196364 210.279292 
L 257.475702 212.398936 
L 260.755041 214.49728 
L 264.03438 216.574541 
L 267.313719 218.630929 
L 270.593058 220.666653 
L 273.872397 222.681923 
L 277.151736 224.676943 
L 280.431074 226.651916 
L 283.710413 228.607045 
L 286.989752 230.542528 
L 290.269091 232.458563 
L 293.54843 234.355345 
L 296.827769 236.233068 
L 300.107107 238.091924 
L 303.386446 239.932101 
L 306.665785 241.753789 
L 309.945124 243.557171 
L 313.224463 245.342433 
L 316.503802 247.109756 
L 319.78314 248.859321 
L 323.062479 250.591306 
L 326.341818 252.305887 
L 329.621157 254.00324 
L 332.900496 255.683538 
L 336.179835 257.346952 
L 339.459174 258.993652 
L 342.738512 260.623806 
L 346.017851 262.237579 
L 349.29719 263.835137 
L 352.576529 265.416642 
L 355.855868 266.982256 
L 359.135207 268.532139 
L 362.414545 270.066448 
L 365.693884 271.58534 
L 368.973223 273.08897 
L 372.252562 274.577492 
L 375.531901 276.051056 
L 378.81124 277.509814 
L 382.090579 278.953914 
L 385.369917 280.383503 
L 388.649256 281.798728 
L 391.928595 283.199732 
L 395.207934 284.586659 
L 398.487273 285.95965 
" style="fill:none;stroke:#1f77b4;stroke-linecap:square;stroke-width:1.5;"/>
   </g>
   <g id="line2d_15">
    <path clip-path="url(#pdc9dc28e68)" d="M 73.832727 53.568 
L 77.112066 59.450553 
L 80.391405 58.715234 
L 83.670744 60.921191 
L 86.950083 66.803745 
L 90.229421 69.009702 
L 93.50876 78.568851 
L 96.788099 74.156936 
L 100.067438 91.069277 
L 103.346777 90.333957 
L 106.626116 91.069277 
L 109.905455 94.745872 
L 113.184793 97.687149 
L 116.464132 95.481191 
L 119.743471 95.481191 
L 123.02281 105.04034 
L 126.302149 108.716936 
L 129.581488 110.922894 
L 132.860826 108.716936 
L 136.140165 120.482043 
L 139.419504 116.805447 
L 142.698843 114.599489 
L 145.978182 124.158638 
L 149.257521 115.334809 
L 152.53686 135.923745 
L 155.816198 142.541617 
L 159.095537 129.305872 
L 162.374876 150.630128 
L 165.654215 144.747574 
L 168.933554 141.806298 
L 172.212893 158.718638 
L 175.492231 156.512681 
L 178.77157 152.836085 
L 182.050909 137.394383 
L 185.330248 165.336511 
L 188.609587 155.042043 
L 191.888926 170.483745 
L 195.168264 170.483745 
L 198.447603 163.130553 
L 201.726942 176.366298 
L 205.006281 171.219064 
L 208.28562 185.190128 
L 211.564959 191.072681 
L 214.844298 178.572255 
L 218.123636 195.484596 
L 221.402975 175.630979 
L 224.682314 188.131404 
L 227.961653 195.484596 
L 231.240992 193.278638 
L 234.520331 184.454809 
L 237.799669 193.278638 
L 241.079008 199.161191 
L 244.358347 199.161191 
L 247.637686 210.926298 
L 250.917025 196.955234 
L 254.196364 216.073532 
L 257.475702 200.63183 
L 260.755041 213.132255 
L 264.03438 219.750128 
L 267.313719 202.102468 
L 270.593058 217.54417 
L 273.872397 221.956085 
L 277.151736 241.074383 
L 280.431074 232.985872 
L 283.710413 245.486298 
L 286.989752 227.103319 
L 290.269091 230.779915 
L 293.54843 228.573957 
L 296.827769 229.309277 
L 300.107107 235.927149 
L 303.386446 251.368851 
L 306.665785 246.221617 
L 309.945124 238.868426 
L 313.224463 248.427574 
L 316.503802 252.839489 
L 319.78314 235.19183 
L 323.062479 249.162894 
L 326.341818 269.75183 
L 329.621157 261.663319 
L 332.900496 244.750979 
L 336.179835 269.75183 
L 339.459174 252.839489 
L 342.738512 252.839489 
L 346.017851 262.398638 
L 349.29719 273.428426 
L 352.576529 252.839489 
L 355.855868 266.810553 
L 359.135207 271.957787 
L 362.414545 266.810553 
L 365.693884 278.57566 
L 368.973223 265.339915 
L 372.252562 274.899064 
L 375.531901 284.458213 
L 378.81124 278.57566 
L 382.090579 285.193532 
L 385.369917 280.046298 
L 388.649256 295.488 
L 391.928595 285.193532 
L 395.207934 269.75183 
L 398.487273 287.399489 
" style="fill:none;stroke:#ff7f0e;stroke-linecap:square;stroke-width:1.5;"/>
   </g>
   <g id="patch_3">
    <path d="M 57.6 307.584 
L 57.6 41.472 
" style="fill:none;stroke:#000000;stroke-linecap:square;stroke-linejoin:miter;stroke-width:0.8;"/>
   </g>
   <g id="patch_4">
    <path d="M 414.72 307.584 
L 414.72 41.472 
" style="fill:none;stroke:#000000;stroke-linecap:square;stroke-linejoin:miter;stroke-width:0.8;"/>
   </g>
   <g id="patch_5">
    <path d="M 57.6 307.584 
L 414.72 307.584 
" style="fill:none;stroke:#000000;stroke-linecap:square;stroke-linejoin:miter;stroke-width:0.8;"/>
   </g>
   <g id="patch_6">
    <path d="M 57.6 41.472 
L 414.72 41.472 
" style="fill:none;stroke:#000000;stroke-linecap:square;stroke-linejoin:miter;stroke-width:0.8;"/>
   </g>
   <g id="text_16">
    <text style="font-family:DejaVu Sans;font-size:12px;font-style:normal;font-weight:normal;" transform="translate(85.907813 22.034625)">Simulated Mean for exp(-x) (Alt. Series) Algorithm</text>
    <text style="font-family:DejaVu Sans;font-size:12px;font-style:normal;font-weight:normal;" transform="translate(132.609375 35.472)">(Wasserstein Distances in Legend)</text>
   </g>
   <g id="legend_1">
    <g id="patch_7">
     <path d="M 229.47 78.82825 
L 407.72 78.82825 
Q 409.72 78.82825 409.72 76.82825 
L 409.72 48.472 
Q 409.72 46.472 407.72 46.472 
L 229.47 46.472 
Q 227.47 46.472 227.47 48.472 
L 227.47 76.82825 
Q 227.47 78.82825 229.47 78.82825 
z
" style="fill:#ffffff;opacity:0.8;stroke:#cccccc;stroke-linejoin:miter;"/>
    </g>
    <g id="line2d_16">
     <path d="M 231.47 54.570437 
L 251.47 54.570437 
" style="fill:none;stroke:#1f77b4;stroke-linecap:square;stroke-width:1.5;"/>
    </g>
    <g id="line2d_17"/>
    <g id="text_17">
     <text style="font-family:DejaVu Sans;font-size:10px;font-style:normal;font-weight:normal;text-anchor:start;" transform="rotate(-0, 259.47, 58.070437)" x="259.47" y="58.070437">exp(-x)</text>
    </g>
    <g id="line2d_18">
     <path d="M 231.47 69.248562 
L 251.47 69.248562 
" style="fill:none;stroke:#ff7f0e;stroke-linecap:square;stroke-width:1.5;"/>
    </g>
    <g id="line2d_19"/>
    <g id="text_18">
     <text style="font-family:DejaVu Sans;font-size:10px;font-style:normal;font-weight:normal;text-anchor:start;" transform="rotate(-0, 259.47, 72.748562)" x="259.47" y="72.748562">Simul. Mean (WD=0.005818)</text>
    </g>
   </g>
  </g>
 </g>
 <defs>
  <clipPath id="pdc9dc28e68">
   <rect height="266.112" width="357.12" x="57.6" y="41.472"/>
  </clipPath>
 </defs>
</svg>
