<?xml version="1.0" encoding="utf-8" standalone="no"?>
<!DOCTYPE svg PUBLIC "-//W3C//DTD SVG 1.1//EN"
  "http://www.w3.org/Graphics/SVG/1.1/DTD/svg11.dtd">
<!-- Created with matplotlib (https://matplotlib.org/) -->
<svg height="345.6pt" version="1.1" viewBox="0 0 460.8 345.6" width="460.8pt" xmlns="http://www.w3.org/2000/svg" xmlns:xlink="http://www.w3.org/1999/xlink">
 <defs>
  <style type="text/css">
*{stroke-linecap:butt;stroke-linejoin:round;}
  </style>
 </defs>
 <g id="figure_1">
  <g id="patch_1">
   <path d="M 0 345.6 
L 460.8 345.6 
L 460.8 0 
L 0 0 
z
" style="fill:#ffffff;"/>
  </g>
  <g id="axes_1">
   <g id="patch_2">
    <path d="M 57.6 307.584 
L 414.72 307.584 
L 414.72 41.472 
L 57.6 41.472 
z
" style="fill:#ffffff;"/>
   </g>
   <g id="matplotlib.axis_1">
    <g id="xtick_1">
     <g id="line2d_1">
      <defs>
       <path d="M 0 0 
L 0 3.5 
" id="m1336b47432" style="stroke:#000000;stroke-width:0.8;"/>
      </defs>
      <g>
       <use style="stroke:#000000;stroke-width:0.8;" x="73.800255" xlink:href="#m1336b47432" y="307.584"/>
      </g>
     </g>
     <g id="text_1">
      <text style="font-family:DejaVu Sans;font-size:10px;font-style:normal;font-weight:normal;text-anchor:middle;" transform="rotate(-0, 73.800255, 322.182437)" x="73.800255" y="322.182437">0.0</text>
     </g>
    </g>
    <g id="xtick_2">
     <g id="line2d_2">
      <g>
       <use style="stroke:#000000;stroke-width:0.8;" x="138.744153" xlink:href="#m1336b47432" y="307.584"/>
      </g>
     </g>
     <g id="text_2">
      <text style="font-family:DejaVu Sans;font-size:10px;font-style:normal;font-weight:normal;text-anchor:middle;" transform="rotate(-0, 138.744153, 322.182437)" x="138.744153" y="322.182437">0.2</text>
     </g>
    </g>
    <g id="xtick_3">
     <g id="line2d_3">
      <g>
       <use style="stroke:#000000;stroke-width:0.8;" x="203.688051" xlink:href="#m1336b47432" y="307.584"/>
      </g>
     </g>
     <g id="text_3">
      <text style="font-family:DejaVu Sans;font-size:10px;font-style:normal;font-weight:normal;text-anchor:middle;" transform="rotate(-0, 203.688051, 322.182437)" x="203.688051" y="322.182437">0.4</text>
     </g>
    </g>
    <g id="xtick_4">
     <g id="line2d_4">
      <g>
       <use style="stroke:#000000;stroke-width:0.8;" x="268.631949" xlink:href="#m1336b47432" y="307.584"/>
      </g>
     </g>
     <g id="text_4">
      <text style="font-family:DejaVu Sans;font-size:10px;font-style:normal;font-weight:normal;text-anchor:middle;" transform="rotate(-0, 268.631949, 322.182437)" x="268.631949" y="322.182437">0.6</text>
     </g>
    </g>
    <g id="xtick_5">
     <g id="line2d_5">
      <g>
       <use style="stroke:#000000;stroke-width:0.8;" x="333.575847" xlink:href="#m1336b47432" y="307.584"/>
      </g>
     </g>
     <g id="text_5">
      <text style="font-family:DejaVu Sans;font-size:10px;font-style:normal;font-weight:normal;text-anchor:middle;" transform="rotate(-0, 333.575847, 322.182437)" x="333.575847" y="322.182437">0.8</text>
     </g>
    </g>
    <g id="xtick_6">
     <g id="line2d_6">
      <g>
       <use style="stroke:#000000;stroke-width:0.8;" x="398.519745" xlink:href="#m1336b47432" y="307.584"/>
      </g>
     </g>
     <g id="text_6">
      <text style="font-family:DejaVu Sans;font-size:10px;font-style:normal;font-weight:normal;text-anchor:middle;" transform="rotate(-0, 398.519745, 322.182437)" x="398.519745" y="322.182437">1.0</text>
     </g>
    </g>
    <g id="text_7">
     <text style="font-family:DejaVu Sans;font-size:10px;font-style:normal;font-weight:normal;text-anchor:middle;" transform="rotate(-0, 236.16, 335.860562)" x="236.16" y="335.860562">Input Coin's Heads Probability (λ)</text>
    </g>
   </g>
   <g id="matplotlib.axis_2">
    <g id="ytick_1">
     <g id="line2d_7">
      <defs>
       <path d="M 0 0 
L -3.5 0 
" id="m9dbc49fc01" style="stroke:#000000;stroke-width:0.8;"/>
      </defs>
      <g>
       <use style="stroke:#000000;stroke-width:0.8;" x="57.6" xlink:href="#m9dbc49fc01" y="295.493124"/>
      </g>
     </g>
     <g id="text_8">
      <text style="font-family:DejaVu Sans;font-size:10px;font-style:normal;font-weight:normal;text-anchor:end;" transform="rotate(-0, 50.6, 299.292343)" x="50.6" y="299.292343">0.0</text>
     </g>
    </g>
    <g id="ytick_2">
     <g id="line2d_8">
      <g>
       <use style="stroke:#000000;stroke-width:0.8;" x="57.6" xlink:href="#m9dbc49fc01" y="251.474724"/>
      </g>
     </g>
     <g id="text_9">
      <text style="font-family:DejaVu Sans;font-size:10px;font-style:normal;font-weight:normal;text-anchor:end;" transform="rotate(-0, 50.6, 255.273943)" x="50.6" y="255.273943">0.5</text>
     </g>
    </g>
    <g id="ytick_3">
     <g id="line2d_9">
      <g>
       <use style="stroke:#000000;stroke-width:0.8;" x="57.6" xlink:href="#m9dbc49fc01" y="207.456325"/>
      </g>
     </g>
     <g id="text_10">
      <text style="font-family:DejaVu Sans;font-size:10px;font-style:normal;font-weight:normal;text-anchor:end;" transform="rotate(-0, 50.6, 211.255544)" x="50.6" y="211.255544">1.0</text>
     </g>
    </g>
    <g id="ytick_4">
     <g id="line2d_10">
      <g>
       <use style="stroke:#000000;stroke-width:0.8;" x="57.6" xlink:href="#m9dbc49fc01" y="163.437925"/>
      </g>
     </g>
     <g id="text_11">
      <text style="font-family:DejaVu Sans;font-size:10px;font-style:normal;font-weight:normal;text-anchor:end;" transform="rotate(-0, 50.6, 167.237144)" x="50.6" y="167.237144">1.5</text>
     </g>
    </g>
    <g id="ytick_5">
     <g id="line2d_11">
      <g>
       <use style="stroke:#000000;stroke-width:0.8;" x="57.6" xlink:href="#m9dbc49fc01" y="119.419526"/>
      </g>
     </g>
     <g id="text_12">
      <text style="font-family:DejaVu Sans;font-size:10px;font-style:normal;font-weight:normal;text-anchor:end;" transform="rotate(-0, 50.6, 123.218744)" x="50.6" y="123.218744">2.0</text>
     </g>
    </g>
    <g id="ytick_6">
     <g id="line2d_12">
      <g>
       <use style="stroke:#000000;stroke-width:0.8;" x="57.6" xlink:href="#m9dbc49fc01" y="75.401126"/>
      </g>
     </g>
     <g id="text_13">
      <text style="font-family:DejaVu Sans;font-size:10px;font-style:normal;font-weight:normal;text-anchor:end;" transform="rotate(-0, 50.6, 79.200345)" x="50.6" y="79.200345">2.5</text>
     </g>
    </g>
    <g id="text_14">
     <text style="font-family:DejaVu Sans;font-size:10px;font-style:normal;font-weight:normal;text-anchor:middle;" transform="rotate(-90, 28.617187, 174.528)" x="28.617187" y="174.528">Coin Flips Needed</text>
    </g>
   </g>
   <g id="line2d_13">
    <path clip-path="url(#p635f5dac16)" d="M 73.832727 207.469529 
L 77.112066 208.79782 
L 80.391405 210.115681 
L 83.670744 211.423158 
L 86.950083 212.720296 
L 90.229421 214.007141 
L 93.50876 215.283738 
L 96.788099 216.550133 
L 100.067438 217.806371 
L 103.346777 219.052497 
L 106.626116 220.288558 
L 109.905455 221.514599 
L 113.184793 222.730665 
L 116.464132 223.936802 
L 119.743471 225.133055 
L 123.02281 226.319471 
L 126.302149 227.496095 
L 129.581488 228.662972 
L 132.860826 229.820148 
L 136.140165 230.967668 
L 139.419504 232.105579 
L 142.698843 233.233926 
L 145.978182 234.352754 
L 149.257521 235.46211 
L 152.53686 236.562039 
L 155.816198 237.652586 
L 159.095537 238.733797 
L 162.374876 239.805718 
L 165.654215 240.868394 
L 168.933554 241.921871 
L 172.212893 242.966195 
L 175.492231 244.00141 
L 178.77157 245.027564 
L 182.050909 246.0447 
L 185.330248 247.052865 
L 188.609587 248.052104 
L 191.888926 249.042463 
L 195.168264 250.023987 
L 198.447603 250.996721 
L 201.726942 251.960711 
L 205.006281 252.916002 
L 208.28562 253.86264 
L 211.564959 254.80067 
L 214.844298 255.730137 
L 218.123636 256.651086 
L 221.402975 257.563563 
L 224.682314 258.467613 
L 227.961653 259.36328 
L 231.240992 260.25061 
L 234.520331 261.129649 
L 237.799669 262.00044 
L 241.079008 262.863029 
L 244.358347 263.717461 
L 247.637686 264.563781 
L 250.917025 265.402034 
L 254.196364 266.232263 
L 257.475702 267.054515 
L 260.755041 267.868833 
L 264.03438 268.675263 
L 267.313719 269.473848 
L 270.593058 270.264634 
L 273.872397 271.047664 
L 277.151736 271.822983 
L 280.431074 272.590636 
L 283.710413 273.350666 
L 286.989752 274.103119 
L 290.269091 274.848037 
L 293.54843 275.585465 
L 296.827769 276.315447 
L 300.107107 277.038027 
L 303.386446 277.753249 
L 306.665785 278.461156 
L 309.945124 279.161793 
L 313.224463 279.855202 
L 316.503802 280.541427 
L 319.78314 281.220512 
L 323.062479 281.892501 
L 326.341818 282.557436 
L 329.621157 283.21536 
L 332.900496 283.866317 
L 336.179835 284.510351 
L 339.459174 285.147503 
L 342.738512 285.777816 
L 346.017851 286.401335 
L 349.29719 287.0181 
L 352.576529 287.628156 
L 355.855868 288.231543 
L 359.135207 288.828306 
L 362.414545 289.418485 
L 365.693884 290.002124 
L 368.973223 290.579265 
L 372.252562 291.149949 
L 375.531901 291.714218 
L 378.81124 292.272115 
L 382.090579 292.823681 
L 385.369917 293.368957 
L 388.649256 293.907986 
L 391.928595 294.440809 
L 395.207934 294.967466 
L 398.487273 295.488 
" style="fill:none;stroke:#1f77b4;stroke-linecap:square;stroke-width:1.5;"/>
   </g>
   <g id="line2d_14">
    <path clip-path="url(#p635f5dac16)" d="M 73.832727 207.456325 
L 77.112066 206.75203 
L 80.391405 205.695589 
L 83.670744 203.406632 
L 86.950083 202.702338 
L 90.229421 203.230558 
L 93.50876 199.004792 
L 96.788099 200.237307 
L 100.067438 199.180866 
L 103.346777 200.765528 
L 106.626116 198.476571 
L 109.905455 198.300498 
L 113.184793 197.42013 
L 116.464132 193.370437 
L 119.743471 194.602952 
L 123.02281 192.313995 
L 126.302149 189.320744 
L 129.581488 188.088229 
L 132.860826 187.207861 
L 136.140165 187.383935 
L 139.419504 186.503567 
L 142.698843 191.08148 
L 145.978182 186.151419 
L 149.257521 185.271051 
L 152.53686 180.869211 
L 155.816198 183.334242 
L 159.095537 179.636696 
L 162.374876 175.058783 
L 165.654215 176.115224 
L 168.933554 178.228107 
L 172.212893 176.291298 
L 175.492231 174.354488 
L 178.77157 176.995592 
L 182.050909 170.480869 
L 185.330248 173.121973 
L 188.609587 167.311544 
L 191.888926 166.431176 
L 195.168264 165.726882 
L 198.447603 167.311544 
L 201.726942 165.550808 
L 205.006281 163.790072 
L 208.28562 162.557557 
L 211.564959 159.036085 
L 214.844298 156.571055 
L 218.123636 162.381484 
L 221.402975 159.74038 
L 224.682314 153.049583 
L 227.961653 154.458172 
L 231.240992 154.986393 
L 234.520331 146.006639 
L 237.799669 147.239154 
L 241.079008 143.013388 
L 244.358347 145.478418 
L 247.637686 145.126271 
L 250.917025 134.737929 
L 254.196364 144.59805 
L 257.475702 138.963695 
L 260.755041 135.970444 
L 264.03438 131.744678 
L 267.313719 135.79437 
L 270.593058 128.9275 
L 273.872397 135.970444 
L 277.151736 134.209708 
L 280.431074 124.52566 
L 283.710413 127.518911 
L 286.989752 125.053881 
L 290.269091 120.475967 
L 293.54843 121.884556 
L 296.827769 116.074127 
L 300.107107 117.130569 
L 303.386446 120.12382 
L 306.665785 116.602348 
L 309.945124 114.841612 
L 313.224463 109.559404 
L 316.503802 110.087625 
L 319.78314 108.85511 
L 323.062479 106.742227 
L 326.341818 105.157564 
L 329.621157 96.706032 
L 332.900496 106.9183 
L 336.179835 95.825664 
L 339.459174 89.487014 
L 342.738512 93.008486 
L 346.017851 91.775971 
L 349.29719 93.008486 
L 352.576529 89.134867 
L 355.855868 78.218304 
L 359.135207 84.733027 
L 362.414545 90.015235 
L 365.693884 79.450819 
L 368.973223 78.394377 
L 372.252562 74.344685 
L 375.531901 79.450819 
L 378.81124 73.288243 
L 382.090579 73.288243 
L 385.369917 62.019533 
L 388.649256 58.145914 
L 391.928595 57.089472 
L 395.207934 53.568 
L 398.487273 60.963091 
" style="fill:none;stroke:#ff7f0e;stroke-linecap:square;stroke-width:1.5;"/>
   </g>
   <g id="patch_3">
    <path d="M 57.6 307.584 
L 57.6 41.472 
" style="fill:none;stroke:#000000;stroke-linecap:square;stroke-linejoin:miter;stroke-width:0.8;"/>
   </g>
   <g id="patch_4">
    <path d="M 414.72 307.584 
L 414.72 41.472 
" style="fill:none;stroke:#000000;stroke-linecap:square;stroke-linejoin:miter;stroke-width:0.8;"/>
   </g>
   <g id="patch_5">
    <path d="M 57.6 307.584 
L 414.72 307.584 
" style="fill:none;stroke:#000000;stroke-linecap:square;stroke-linejoin:miter;stroke-width:0.8;"/>
   </g>
   <g id="patch_6">
    <path d="M 57.6 41.472 
L 414.72 41.472 
" style="fill:none;stroke:#000000;stroke-linecap:square;stroke-linejoin:miter;stroke-width:0.8;"/>
   </g>
   <g id="text_15">
    <text style="font-family:DejaVu Sans;font-size:12px;font-style:normal;font-weight:normal;text-anchor:middle;" transform="rotate(-0, 236.16, 35.472)" x="236.16" y="35.472">Coin Flips for exp(-x)</text>
   </g>
   <g id="legend_1">
    <g id="patch_7">
     <path d="M 64.6 78.82825 
L 308.3375 78.82825 
Q 310.3375 78.82825 310.3375 76.82825 
L 310.3375 48.472 
Q 310.3375 46.472 308.3375 46.472 
L 64.6 46.472 
Q 62.6 46.472 62.6 48.472 
L 62.6 76.82825 
Q 62.6 78.82825 64.6 78.82825 
z
" style="fill:#ffffff;opacity:0.8;stroke:#cccccc;stroke-linejoin:miter;"/>
    </g>
    <g id="line2d_15">
     <path d="M 66.6 54.570437 
L 86.6 54.570437 
" style="fill:none;stroke:#1f77b4;stroke-linecap:square;stroke-width:1.5;"/>
    </g>
    <g id="line2d_16"/>
    <g id="text_16">
     <text style="font-family:DejaVu Sans;font-size:10px;font-style:normal;font-weight:normal;text-anchor:start;" transform="rotate(-0, 94.6, 58.070437)" x="94.6" y="58.070437">Coin Flip Lower Bound</text>
    </g>
    <g id="line2d_17">
     <path d="M 66.6 69.248562 
L 86.6 69.248562 
" style="fill:none;stroke:#ff7f0e;stroke-linecap:square;stroke-width:1.5;"/>
    </g>
    <g id="line2d_18"/>
    <g id="text_17">
     <text style="font-family:DejaVu Sans;font-size:10px;font-style:normal;font-weight:normal;text-anchor:start;" transform="rotate(-0, 94.6, 72.748562)" x="94.6" y="72.748562">Average Coins Flipped exp(-x) (Alt. Series)</text>
    </g>
   </g>
  </g>
 </g>
 <defs>
  <clipPath id="p635f5dac16">
   <rect height="266.112" width="357.12" x="57.6" y="41.472"/>
  </clipPath>
 </defs>
</svg>
