<svg height="460.8" viewBox="0 0 460.8 345.6" width="614.4" xmlns="http://www.w3.org/2000/svg" xmlns:xlink="http://www.w3.org/1999/xlink"><defs><style>*{stroke-linecap:butt;stroke-linejoin:round}</style></defs><g id="figure_1"><path d="M0 345.6h460.8V0H0z" fill="#fff" id="patch_1"/><g id="axes_1"><path d="M57.6 307.584h357.12V41.472H57.6z" fill="#fff" id="patch_2"/><g id="matplotlib.axis_1"><g id="xtick_1"><g id="line2d_1"><defs><path d="M0 0v3.5" id="md29c48c93d" stroke="#000" stroke-width=".8"/></defs><use x="73.799" xlink:href="#md29c48c93d" y="307.584" stroke="#000" stroke-width=".8"/></g><text x="73.799" y="322.182" font-family="DejaVu Sans" font-size="10" font-weight="400" text-anchor="middle" id="text_1">0.0</text></g><g id="xtick_2"><use x="141.477" xlink:href="#md29c48c93d" y="307.584" stroke="#000" stroke-width=".8" id="line2d_2"/><text x="141.477" y="322.182" font-family="DejaVu Sans" font-size="10" font-weight="400" text-anchor="middle" id="text_2">0.2</text></g><g id="xtick_3"><use x="209.156" xlink:href="#md29c48c93d" y="307.584" stroke="#000" stroke-width=".8" id="line2d_3"/><text x="209.156" y="322.182" font-family="DejaVu Sans" font-size="10" font-weight="400" text-anchor="middle" id="text_3">0.4</text></g><g id="xtick_4"><use x="276.834" xlink:href="#md29c48c93d" y="307.584" stroke="#000" stroke-width=".8" id="line2d_4"/><text x="276.834" y="322.182" font-family="DejaVu Sans" font-size="10" font-weight="400" text-anchor="middle" id="text_4">0.6</text></g><g id="xtick_5"><use x="344.512" xlink:href="#md29c48c93d" y="307.584" stroke="#000" stroke-width=".8" id="line2d_5"/><text x="344.512" y="322.182" font-family="DejaVu Sans" font-size="10" font-weight="400" text-anchor="middle" id="text_5">0.8</text></g><g id="xtick_6"><use x="412.191" xlink:href="#md29c48c93d" y="307.584" stroke="#000" stroke-width=".8" id="line2d_6"/><text x="412.191" y="322.182" font-family="DejaVu Sans" font-size="10" font-weight="400" text-anchor="middle" id="text_6">1.0</text></g><text x="236.16" y="335.861" font-family="DejaVu Sans" font-size="10" font-weight="400" text-anchor="middle" id="text_7">Probability</text></g><g id="matplotlib.axis_2"><g id="ytick_1"><g id="line2d_7"><defs><path d="M0 0h-3.5" id="m10861ef8c0" stroke="#000" stroke-width=".8"/></defs><use x="57.6" xlink:href="#m10861ef8c0" y="296.417" stroke="#000" stroke-width=".8"/></g><text x="50.6" y="300.216" font-family="DejaVu Sans" font-size="10" font-weight="400" text-anchor="end" id="text_8">0</text></g><g id="ytick_2"><use x="57.6" xlink:href="#m10861ef8c0" y="248.702" stroke="#000" stroke-width=".8" id="line2d_8"/><text x="50.6" y="252.502" font-family="DejaVu Sans" font-size="10" font-weight="400" text-anchor="end" id="text_9">100</text></g><g id="ytick_3"><use x="57.6" xlink:href="#m10861ef8c0" y="200.988" stroke="#000" stroke-width=".8" id="line2d_9"/><text x="50.6" y="204.788" font-family="DejaVu Sans" font-size="10" font-weight="400" text-anchor="end" id="text_10">200</text></g><g id="ytick_4"><use x="57.6" xlink:href="#m10861ef8c0" y="153.274" stroke="#000" stroke-width=".8" id="line2d_10"/><text x="50.6" y="157.073" font-family="DejaVu Sans" font-size="10" font-weight="400" text-anchor="end" id="text_11">300</text></g><g id="ytick_5"><use x="57.6" xlink:href="#m10861ef8c0" y="105.56" stroke="#000" stroke-width=".8" id="line2d_11"/><text x="50.6" y="109.359" font-family="DejaVu Sans" font-size="10" font-weight="400" text-anchor="end" id="text_12">400</text></g><g id="ytick_6"><use x="57.6" xlink:href="#m10861ef8c0" y="57.846" stroke="#000" stroke-width=".8" id="line2d_12"/><text x="50.6" y="61.645" font-family="DejaVu Sans" font-size="10" font-weight="400" text-anchor="end" id="text_13">500</text></g><text transform="rotate(-90 25.433 174.528)" x="25.433" y="174.528" font-family="DejaVu Sans" font-size="10" font-weight="400" text-anchor="middle" id="text_14">Average Bits Consumed Per Call</text></g><path clip-path="url(#p3359615519)" d="M73.833 295.402l3.417.086 3.418-.09 3.417.07 3.417-.009 3.418-.023 3.417-.03 3.418-.021 3.417.029 3.417-.047 3.418-.125 3.417.093 3.418.02 3.417-.03 3.418-.057 3.417-.051 3.417.002 3.418-.075 3.417-.024 3.418-.079 3.417.062 3.417-.054 3.418.032 3.417-.027 3.418-.173 3.417.107 3.418-.072 3.417-.067 3.417-.041 3.418.094 3.417-.084 3.418-.18 3.417.084 3.417-.07 3.418.082 3.417-.183 3.418.004 3.417-.004 3.418-.336 3.417-.085 3.417-.029 3.418-.067 3.417-.21 3.418.175 3.417.203 3.417-.258 3.418-.007 3.417-.186 3.418-.278 3.417-.192 3.418.071 3.417.053 3.417-.247 3.418-.12 3.417-.487 3.418.07 3.417.35 3.417-1.247 3.418.543 3.417-.004 3.418-.288 3.417-.813 3.418-.208 3.417.093 3.417.456 3.418-.746 3.417.099 3.418-1.041 3.417-.342 3.417.112 3.418-.601 3.417-.928 3.418.358 3.417-1.143 3.418.117 3.417-1.682 3.417.492 3.418-1.1 3.417-1.212 3.418-2.51 3.417.534 3.417-1.031 3.418-3.575 3.417-2.975 3.418-1.036 3.417-4.536 3.418-.506 3.417-5.47 3.417-6.53 3.418-7.487 3.417-9.058 3.418-10.527 3.417-18.368 3.417-39.854 3.418-22.555 3.417-94.834" fill="none" stroke="#1f77b4" stroke-linecap="square" stroke-width="1.5" id="line2d_13"/><path d="M57.6 307.584V41.472" fill="none" stroke="#000" stroke-linecap="square" stroke-width=".8" id="patch_3"/><path d="M414.72 307.584V41.472" fill="none" stroke="#000" stroke-linecap="square" stroke-width=".8" id="patch_4"/><path d="M57.6 307.584h357.12" fill="none" stroke="#000" stroke-linecap="square" stroke-width=".8" id="patch_5"/><path d="M57.6 41.472h357.12" fill="none" stroke="#000" stroke-linecap="square" stroke-width=".8" id="patch_6"/><text x="236.16" y="35.472" font-family="DejaVu Sans" font-size="12" font-weight="400" text-anchor="middle" id="text_15">Avg. Bits Consumed by exp(-x) (Flajolet) Algorithm</text><g id="legend_1"><path d="M64.6 64.15h114.963q2 0 2-2V48.472q0-2-2-2H64.6q-2 0-2 2V62.15q0 2 2 2z" fill="#fff" opacity=".8" stroke="#ccc" id="patch_7"/><path d="M66.6 54.57h20" fill="none" stroke="#1f77b4" stroke-linecap="square" stroke-width="1.5" id="line2d_14"/><text x="94.6" y="58.07" font-family="DejaVu Sans" font-size="10" font-weight="400" id="text_16">exp(-x) (Flajolet)</text></g></g></g><defs><clipPath id="p3359615519"><path d="M57.6 41.472h357.12v266.112H57.6z"/></clipPath></defs></svg>