<?xml version="1.0" encoding="utf-8" standalone="no"?>
<!DOCTYPE svg PUBLIC "-//W3C//DTD SVG 1.1//EN"
  "http://www.w3.org/Graphics/SVG/1.1/DTD/svg11.dtd">
<!-- Created with matplotlib (https://matplotlib.org/) -->
<svg height="345.6pt" version="1.1" viewBox="0 0 460.8 345.6" width="460.8pt" xmlns="http://www.w3.org/2000/svg" xmlns:xlink="http://www.w3.org/1999/xlink">
 <defs>
  <style type="text/css">
*{stroke-linecap:butt;stroke-linejoin:round;}
  </style>
 </defs>
 <g id="figure_1">
  <g id="patch_1">
   <path d="M 0 345.6 
L 460.8 345.6 
L 460.8 0 
L 0 0 
z
" style="fill:#ffffff;"/>
  </g>
  <g id="axes_1">
   <g id="patch_2">
    <path d="M 57.6 307.584 
L 414.72 307.584 
L 414.72 41.472 
L 57.6 41.472 
z
" style="fill:#ffffff;"/>
   </g>
   <g id="matplotlib.axis_1">
    <g id="xtick_1">
     <g id="line2d_1">
      <defs>
       <path d="M 0 0 
L 0 3.5 
" id="m5d90ea06fd" style="stroke:#000000;stroke-width:0.8;"/>
      </defs>
      <g>
       <use style="stroke:#000000;stroke-width:0.8;" x="73.800255" xlink:href="#m5d90ea06fd" y="307.584"/>
      </g>
     </g>
     <g id="text_1">
      <text style="font-family:DejaVu Sans;font-size:10px;font-style:normal;font-weight:normal;text-anchor:middle;" transform="rotate(-0, 73.800255, 322.182437)" x="73.800255" y="322.182437">0.0</text>
     </g>
    </g>
    <g id="xtick_2">
     <g id="line2d_2">
      <g>
       <use style="stroke:#000000;stroke-width:0.8;" x="138.744153" xlink:href="#m5d90ea06fd" y="307.584"/>
      </g>
     </g>
     <g id="text_2">
      <text style="font-family:DejaVu Sans;font-size:10px;font-style:normal;font-weight:normal;text-anchor:middle;" transform="rotate(-0, 138.744153, 322.182437)" x="138.744153" y="322.182437">0.2</text>
     </g>
    </g>
    <g id="xtick_3">
     <g id="line2d_3">
      <g>
       <use style="stroke:#000000;stroke-width:0.8;" x="203.688051" xlink:href="#m5d90ea06fd" y="307.584"/>
      </g>
     </g>
     <g id="text_3">
      <text style="font-family:DejaVu Sans;font-size:10px;font-style:normal;font-weight:normal;text-anchor:middle;" transform="rotate(-0, 203.688051, 322.182437)" x="203.688051" y="322.182437">0.4</text>
     </g>
    </g>
    <g id="xtick_4">
     <g id="line2d_4">
      <g>
       <use style="stroke:#000000;stroke-width:0.8;" x="268.631949" xlink:href="#m5d90ea06fd" y="307.584"/>
      </g>
     </g>
     <g id="text_4">
      <text style="font-family:DejaVu Sans;font-size:10px;font-style:normal;font-weight:normal;text-anchor:middle;" transform="rotate(-0, 268.631949, 322.182437)" x="268.631949" y="322.182437">0.6</text>
     </g>
    </g>
    <g id="xtick_5">
     <g id="line2d_5">
      <g>
       <use style="stroke:#000000;stroke-width:0.8;" x="333.575847" xlink:href="#m5d90ea06fd" y="307.584"/>
      </g>
     </g>
     <g id="text_5">
      <text style="font-family:DejaVu Sans;font-size:10px;font-style:normal;font-weight:normal;text-anchor:middle;" transform="rotate(-0, 333.575847, 322.182437)" x="333.575847" y="322.182437">0.8</text>
     </g>
    </g>
    <g id="xtick_6">
     <g id="line2d_6">
      <g>
       <use style="stroke:#000000;stroke-width:0.8;" x="398.519745" xlink:href="#m5d90ea06fd" y="307.584"/>
      </g>
     </g>
     <g id="text_6">
      <text style="font-family:DejaVu Sans;font-size:10px;font-style:normal;font-weight:normal;text-anchor:middle;" transform="rotate(-0, 398.519745, 322.182437)" x="398.519745" y="322.182437">1.0</text>
     </g>
    </g>
    <g id="text_7">
     <text style="font-family:DejaVu Sans;font-size:10px;font-style:normal;font-weight:normal;text-anchor:middle;" transform="rotate(-0, 236.16, 335.860562)" x="236.16" y="335.860562">Input Coin's Heads Probability (λ)</text>
    </g>
   </g>
   <g id="matplotlib.axis_2">
    <g id="ytick_1">
     <g id="line2d_7">
      <defs>
       <path d="M 0 0 
L -3.5 0 
" id="m17e76d57d7" style="stroke:#000000;stroke-width:0.8;"/>
      </defs>
      <g>
       <use style="stroke:#000000;stroke-width:0.8;" x="57.6" xlink:href="#m17e76d57d7" y="295.488"/>
      </g>
     </g>
     <g id="text_8">
      <text style="font-family:DejaVu Sans;font-size:10px;font-style:normal;font-weight:normal;text-anchor:end;" transform="rotate(-0, 50.6, 299.287219)" x="50.6" y="299.287219">0.0</text>
     </g>
    </g>
    <g id="ytick_2">
     <g id="line2d_8">
      <g>
       <use style="stroke:#000000;stroke-width:0.8;" x="57.6" xlink:href="#m17e76d57d7" y="247.104"/>
      </g>
     </g>
     <g id="text_9">
      <text style="font-family:DejaVu Sans;font-size:10px;font-style:normal;font-weight:normal;text-anchor:end;" transform="rotate(-0, 50.6, 250.903219)" x="50.6" y="250.903219">0.2</text>
     </g>
    </g>
    <g id="ytick_3">
     <g id="line2d_9">
      <g>
       <use style="stroke:#000000;stroke-width:0.8;" x="57.6" xlink:href="#m17e76d57d7" y="198.72"/>
      </g>
     </g>
     <g id="text_10">
      <text style="font-family:DejaVu Sans;font-size:10px;font-style:normal;font-weight:normal;text-anchor:end;" transform="rotate(-0, 50.6, 202.519219)" x="50.6" y="202.519219">0.4</text>
     </g>
    </g>
    <g id="ytick_4">
     <g id="line2d_10">
      <g>
       <use style="stroke:#000000;stroke-width:0.8;" x="57.6" xlink:href="#m17e76d57d7" y="150.336"/>
      </g>
     </g>
     <g id="text_11">
      <text style="font-family:DejaVu Sans;font-size:10px;font-style:normal;font-weight:normal;text-anchor:end;" transform="rotate(-0, 50.6, 154.135219)" x="50.6" y="154.135219">0.6</text>
     </g>
    </g>
    <g id="ytick_5">
     <g id="line2d_11">
      <g>
       <use style="stroke:#000000;stroke-width:0.8;" x="57.6" xlink:href="#m17e76d57d7" y="101.952"/>
      </g>
     </g>
     <g id="text_12">
      <text style="font-family:DejaVu Sans;font-size:10px;font-style:normal;font-weight:normal;text-anchor:end;" transform="rotate(-0, 50.6, 105.751219)" x="50.6" y="105.751219">0.8</text>
     </g>
    </g>
    <g id="ytick_6">
     <g id="line2d_12">
      <g>
       <use style="stroke:#000000;stroke-width:0.8;" x="57.6" xlink:href="#m17e76d57d7" y="53.568"/>
      </g>
     </g>
     <g id="text_13">
      <text style="font-family:DejaVu Sans;font-size:10px;font-style:normal;font-weight:normal;text-anchor:end;" transform="rotate(-0, 50.6, 57.367219)" x="50.6" y="57.367219">1.0</text>
     </g>
    </g>
    <g id="text_14">
     <text style="font-family:DejaVu Sans;font-size:10px;font-style:normal;font-weight:normal;text-anchor:middle;" transform="rotate(-90, 28.617187, 174.528)" x="28.617187" y="174.528">Simulated Mean / Function Value</text>
    </g>
   </g>
   <g id="line2d_13">
    <path clip-path="url(#p423e1ba054)" d="M 73.832727 53.568001 
L 77.112066 53.580668 
L 80.391405 53.618516 
L 83.670744 53.682055 
L 86.950083 53.771803 
L 90.229421 53.888284 
L 93.50876 54.032034 
L 96.788099 54.203592 
L 100.067438 54.403509 
L 103.346777 54.632344 
L 106.626116 54.890661 
L 109.905455 55.179037 
L 113.184793 55.498054 
L 116.464132 55.848306 
L 119.743471 56.230393 
L 123.02281 56.644926 
L 126.302149 57.092523 
L 129.581488 57.573814 
L 132.860826 58.089436 
L 136.140165 58.640036 
L 139.419504 59.226272 
L 142.698843 59.84881 
L 145.978182 60.508327 
L 149.257521 61.20551 
L 152.53686 61.941054 
L 155.816198 62.715667 
L 159.095537 63.530066 
L 162.374876 64.38498 
L 165.654215 65.281146 
L 168.933554 66.219314 
L 172.212893 67.200244 
L 175.492231 68.224708 
L 178.77157 69.293489 
L 182.050909 70.40738 
L 185.330248 71.567187 
L 188.609587 72.773728 
L 191.888926 74.027831 
L 195.168264 75.330339 
L 198.447603 76.682104 
L 201.726942 78.083992 
L 205.006281 79.536882 
L 208.28562 81.041663 
L 211.564959 82.599241 
L 214.844298 84.210532 
L 218.123636 85.876465 
L 221.402975 87.597985 
L 224.682314 89.376047 
L 227.961653 91.211622 
L 231.240992 93.105695 
L 234.520331 95.059264 
L 237.799669 97.073341 
L 241.079008 99.148955 
L 244.358347 101.287145 
L 247.637686 103.48897 
L 250.917025 105.7555 
L 254.196364 108.087822 
L 257.475702 110.487038 
L 260.755041 112.954266 
L 264.03438 115.49064 
L 267.313719 118.097308 
L 270.593058 120.775437 
L 273.872397 123.526208 
L 277.151736 126.350821 
L 280.431074 129.250491 
L 283.710413 132.226451 
L 286.989752 135.27995 
L 290.269091 138.412256 
L 293.54843 141.624655 
L 296.827769 144.918449 
L 300.107107 148.294961 
L 303.386446 151.755528 
L 306.665785 155.301512 
L 309.945124 158.934288 
L 313.224463 162.655253 
L 316.503802 166.465823 
L 319.78314 170.367435 
L 323.062479 174.361543 
L 326.341818 178.449623 
L 329.621157 182.633172 
L 332.900496 186.913706 
L 336.179835 191.292763 
L 339.459174 195.771903 
L 342.738512 200.352705 
L 346.017851 205.036772 
L 349.29719 209.825728 
L 352.576529 214.721221 
L 355.855868 219.724919 
L 359.135207 224.838515 
L 362.414545 230.063724 
L 365.693884 235.402285 
L 368.973223 240.855961 
L 372.252562 246.426539 
L 375.531901 252.115829 
L 378.81124 257.925669 
L 382.090579 263.857918 
L 385.369917 269.914464 
L 388.649256 276.097219 
L 391.928595 282.40812 
L 395.207934 288.849132 
L 398.487273 295.422246 
" style="fill:none;stroke:#1f77b4;stroke-linecap:square;stroke-width:1.5;"/>
   </g>
   <g id="line2d_14">
    <path clip-path="url(#p423e1ba054)" d="M 73.832727 53.568 
L 77.112066 53.568 
L 80.391405 53.568 
L 83.670744 54.05184 
L 86.950083 54.05184 
L 90.229421 54.05184 
L 93.50876 55.50336 
L 96.788099 54.53568 
L 100.067438 55.01952 
L 103.346777 54.53568 
L 106.626116 56.95488 
L 109.905455 54.53568 
L 113.184793 55.01952 
L 116.464132 55.9872 
L 119.743471 55.9872 
L 123.02281 57.92256 
L 126.302149 59.85792 
L 129.581488 57.92256 
L 132.860826 61.79328 
L 136.140165 58.4064 
L 139.419504 59.37408 
L 142.698843 61.30944 
L 145.978182 63.2448 
L 149.257521 61.79328 
L 152.53686 62.27712 
L 155.816198 63.2448 
L 159.095537 65.664 
L 162.374876 63.72864 
L 165.654215 63.2448 
L 168.933554 70.01856 
L 172.212893 66.14784 
L 175.492231 70.01856 
L 178.77157 68.0832 
L 182.050909 65.664 
L 185.330248 71.47008 
L 188.609587 69.05088 
L 191.888926 72.43776 
L 195.168264 72.9216 
L 198.447603 78.72768 
L 201.726942 79.69536 
L 205.006281 84.53376 
L 208.28562 75.3408 
L 211.564959 74.85696 
L 214.844298 82.5984 
L 218.123636 86.46912 
L 221.402975 92.2752 
L 224.682314 89.856 
L 227.961653 97.59744 
L 231.240992 92.75904 
L 234.520331 89.37216 
L 237.799669 98.56512 
L 241.079008 96.62976 
L 244.358347 104.3712 
L 247.637686 100.50048 
L 250.917025 108.24192 
L 254.196364 100.98432 
L 257.475702 103.40352 
L 260.755041 116.95104 
L 264.03438 115.98336 
L 267.313719 123.24096 
L 270.593058 121.78944 
L 273.872397 115.98336 
L 277.151736 113.08032 
L 280.431074 129.04704 
L 283.710413 124.20864 
L 286.989752 129.53088 
L 290.269091 143.56224 
L 293.54843 138.24 
L 296.827769 144.52992 
L 300.107107 141.62688 
L 303.386446 139.69152 
L 306.665785 147.9168 
L 309.945124 162.91584 
L 313.224463 169.20576 
L 316.503802 165.33504 
L 319.78314 175.49568 
L 323.062479 184.2048 
L 326.341818 182.75328 
L 329.621157 179.85024 
L 332.900496 182.26944 
L 336.179835 184.68864 
L 339.459174 195.33312 
L 342.738512 199.68768 
L 346.017851 205.9776 
L 349.29719 217.10592 
L 352.576529 218.0736 
L 355.855868 223.87968 
L 359.135207 219.04128 
L 362.414545 229.68576 
L 365.693884 237.4272 
L 368.973223 242.2656 
L 372.252562 245.16864 
L 375.531901 253.39392 
L 378.81124 254.3616 
L 382.090579 261.6192 
L 385.369917 271.77984 
L 388.649256 271.77984 
L 391.928595 283.392 
L 395.207934 291.61728 
L 398.487273 295.488 
" style="fill:none;stroke:#ff7f0e;stroke-linecap:square;stroke-width:1.5;"/>
   </g>
   <g id="patch_3">
    <path d="M 57.6 307.584 
L 57.6 41.472 
" style="fill:none;stroke:#000000;stroke-linecap:square;stroke-linejoin:miter;stroke-width:0.8;"/>
   </g>
   <g id="patch_4">
    <path d="M 414.72 307.584 
L 414.72 41.472 
" style="fill:none;stroke:#000000;stroke-linecap:square;stroke-linejoin:miter;stroke-width:0.8;"/>
   </g>
   <g id="patch_5">
    <path d="M 57.6 307.584 
L 414.72 307.584 
" style="fill:none;stroke:#000000;stroke-linecap:square;stroke-linejoin:miter;stroke-width:0.8;"/>
   </g>
   <g id="patch_6">
    <path d="M 57.6 41.472 
L 414.72 41.472 
" style="fill:none;stroke:#000000;stroke-linecap:square;stroke-linejoin:miter;stroke-width:0.8;"/>
   </g>
   <g id="text_15">
    <text style="font-family:DejaVu Sans;font-size:12px;font-style:normal;font-weight:normal;" transform="translate(107.835 22.034625)">Simulated Mean for exp(x)*(1-x) Algorithm</text>
    <text style="font-family:DejaVu Sans;font-size:12px;font-style:normal;font-weight:normal;" transform="translate(132.609375 35.472)">(Wasserstein Distances in Legend)</text>
   </g>
   <g id="legend_1">
    <g id="patch_7">
     <path d="M 229.47 78.82825 
L 407.72 78.82825 
Q 409.72 78.82825 409.72 76.82825 
L 409.72 48.472 
Q 409.72 46.472 407.72 46.472 
L 229.47 46.472 
Q 227.47 46.472 227.47 48.472 
L 227.47 76.82825 
Q 227.47 78.82825 229.47 78.82825 
z
" style="fill:#ffffff;opacity:0.8;stroke:#cccccc;stroke-linejoin:miter;"/>
    </g>
    <g id="line2d_15">
     <path d="M 231.47 54.570437 
L 251.47 54.570437 
" style="fill:none;stroke:#1f77b4;stroke-linecap:square;stroke-width:1.5;"/>
    </g>
    <g id="line2d_16"/>
    <g id="text_16">
     <text style="font-family:DejaVu Sans;font-size:10px;font-style:normal;font-weight:normal;text-anchor:start;" transform="rotate(-0, 259.47, 58.070437)" x="259.47" y="58.070437">exp(x)*(1-x)</text>
    </g>
    <g id="line2d_17">
     <path d="M 231.47 69.248562 
L 251.47 69.248562 
" style="fill:none;stroke:#ff7f0e;stroke-linecap:square;stroke-width:1.5;"/>
    </g>
    <g id="line2d_18"/>
    <g id="text_17">
     <text style="font-family:DejaVu Sans;font-size:10px;font-style:normal;font-weight:normal;text-anchor:start;" transform="rotate(-0, 259.47, 72.748562)" x="259.47" y="72.748562">Simul. Mean (WD=0.007180)</text>
    </g>
   </g>
  </g>
 </g>
 <defs>
  <clipPath id="p423e1ba054">
   <rect height="266.112" width="357.12" x="57.6" y="41.472"/>
  </clipPath>
 </defs>
</svg>
