<?xml version="1.0" encoding="utf-8" standalone="no"?>
<!DOCTYPE svg PUBLIC "-//W3C//DTD SVG 1.1//EN"
  "http://www.w3.org/Graphics/SVG/1.1/DTD/svg11.dtd">
<!-- Created with matplotlib (https://matplotlib.org/) -->
<svg height="252pt" version="1.1" viewBox="0 0 324 252" width="324pt" xmlns="http://www.w3.org/2000/svg" xmlns:xlink="http://www.w3.org/1999/xlink">
 <defs>
  <style type="text/css">
*{stroke-linecap:butt;stroke-linejoin:round;}
  </style>
 </defs>
 <g id="figure_1">
  <g id="patch_1">
   <path d="M 0 252 
L 324 252 
L 324 0 
L 0 0 
z
" style="fill:#ffffff;"/>
  </g>
  <g id="axes_1">
   <g id="patch_2">
    <path d="M 40.5 224.28 
L 291.6 224.28 
L 291.6 30.24 
L 40.5 30.24 
z
" style="fill:#ffffff;"/>
   </g>
   <g id="matplotlib.axis_1">
    <g id="xtick_1">
     <g id="line2d_1">
      <defs>
       <path d="M 0 0 
L 0 3.5 
" id="mce8b77123a" style="stroke:#000000;stroke-width:0.8;"/>
      </defs>
      <g>
       <use style="stroke:#000000;stroke-width:0.8;" x="51.890091" xlink:href="#mce8b77123a" y="224.28"/>
      </g>
     </g>
     <g id="text_1">
      <text style="font-family:DejaVu Sans;font-size:10px;font-style:normal;font-weight:normal;text-anchor:middle;" transform="rotate(-0, 51.890091, 238.878438)" x="51.890091" y="238.878438">0.0</text>
     </g>
    </g>
    <g id="xtick_2">
     <g id="line2d_2">
      <g>
       <use style="stroke:#000000;stroke-width:0.8;" x="98.980759" xlink:href="#mce8b77123a" y="224.28"/>
      </g>
     </g>
     <g id="text_2">
      <text style="font-family:DejaVu Sans;font-size:10px;font-style:normal;font-weight:normal;text-anchor:middle;" transform="rotate(-0, 98.980759, 238.878438)" x="98.980759" y="238.878438">0.2</text>
     </g>
    </g>
    <g id="xtick_3">
     <g id="line2d_3">
      <g>
       <use style="stroke:#000000;stroke-width:0.8;" x="146.071427" xlink:href="#mce8b77123a" y="224.28"/>
      </g>
     </g>
     <g id="text_3">
      <text style="font-family:DejaVu Sans;font-size:10px;font-style:normal;font-weight:normal;text-anchor:middle;" transform="rotate(-0, 146.071427, 238.878438)" x="146.071427" y="238.878438">0.4</text>
     </g>
    </g>
    <g id="xtick_4">
     <g id="line2d_4">
      <g>
       <use style="stroke:#000000;stroke-width:0.8;" x="193.162095" xlink:href="#mce8b77123a" y="224.28"/>
      </g>
     </g>
     <g id="text_4">
      <text style="font-family:DejaVu Sans;font-size:10px;font-style:normal;font-weight:normal;text-anchor:middle;" transform="rotate(-0, 193.162095, 238.878438)" x="193.162095" y="238.878438">0.6</text>
     </g>
    </g>
    <g id="xtick_5">
     <g id="line2d_5">
      <g>
       <use style="stroke:#000000;stroke-width:0.8;" x="240.252764" xlink:href="#mce8b77123a" y="224.28"/>
      </g>
     </g>
     <g id="text_5">
      <text style="font-family:DejaVu Sans;font-size:10px;font-style:normal;font-weight:normal;text-anchor:middle;" transform="rotate(-0, 240.252764, 238.878438)" x="240.252764" y="238.878438">0.8</text>
     </g>
    </g>
    <g id="xtick_6">
     <g id="line2d_6">
      <g>
       <use style="stroke:#000000;stroke-width:0.8;" x="287.343432" xlink:href="#mce8b77123a" y="224.28"/>
      </g>
     </g>
     <g id="text_6">
      <text style="font-family:DejaVu Sans;font-size:10px;font-style:normal;font-weight:normal;text-anchor:middle;" transform="rotate(-0, 287.343432, 238.878438)" x="287.343432" y="238.878438">1.0</text>
     </g>
    </g>
    <g id="text_7">
     <text style="font-family:DejaVu Sans;font-size:10px;font-style:normal;font-weight:normal;text-anchor:middle;" transform="rotate(-0, 166.05, 252.556563)" x="166.05" y="252.556563">Probability</text>
    </g>
   </g>
   <g id="matplotlib.axis_2">
    <g id="ytick_1">
     <g id="line2d_7">
      <defs>
       <path d="M 0 0 
L -3.5 0 
" id="m38d98a46ac" style="stroke:#000000;stroke-width:0.8;"/>
      </defs>
      <g>
       <use style="stroke:#000000;stroke-width:0.8;" x="40.5" xlink:href="#m38d98a46ac" y="215.820238"/>
      </g>
     </g>
     <g id="text_8">
      <text style="font-family:DejaVu Sans;font-size:10px;font-style:normal;font-weight:normal;text-anchor:end;" transform="rotate(-0, 33.5, 219.619456)" x="33.5" y="219.619456">0</text>
     </g>
    </g>
    <g id="ytick_2">
     <g id="line2d_8">
      <g>
       <use style="stroke:#000000;stroke-width:0.8;" x="40.5" xlink:href="#m38d98a46ac" y="178.986133"/>
      </g>
     </g>
     <g id="text_9">
      <text style="font-family:DejaVu Sans;font-size:10px;font-style:normal;font-weight:normal;text-anchor:end;" transform="rotate(-0, 33.5, 182.785352)" x="33.5" y="182.785352">200</text>
     </g>
    </g>
    <g id="ytick_3">
     <g id="line2d_9">
      <g>
       <use style="stroke:#000000;stroke-width:0.8;" x="40.5" xlink:href="#m38d98a46ac" y="142.152028"/>
      </g>
     </g>
     <g id="text_10">
      <text style="font-family:DejaVu Sans;font-size:10px;font-style:normal;font-weight:normal;text-anchor:end;" transform="rotate(-0, 33.5, 145.951247)" x="33.5" y="145.951247">400</text>
     </g>
    </g>
    <g id="ytick_4">
     <g id="line2d_10">
      <g>
       <use style="stroke:#000000;stroke-width:0.8;" x="40.5" xlink:href="#m38d98a46ac" y="105.317924"/>
      </g>
     </g>
     <g id="text_11">
      <text style="font-family:DejaVu Sans;font-size:10px;font-style:normal;font-weight:normal;text-anchor:end;" transform="rotate(-0, 33.5, 109.117143)" x="33.5" y="109.117143">600</text>
     </g>
    </g>
    <g id="ytick_5">
     <g id="line2d_11">
      <g>
       <use style="stroke:#000000;stroke-width:0.8;" x="40.5" xlink:href="#m38d98a46ac" y="68.483819"/>
      </g>
     </g>
     <g id="text_12">
      <text style="font-family:DejaVu Sans;font-size:10px;font-style:normal;font-weight:normal;text-anchor:end;" transform="rotate(-0, 33.5, 72.283038)" x="33.5" y="72.283038">800</text>
     </g>
    </g>
    <g id="ytick_6">
     <g id="line2d_12">
      <g>
       <use style="stroke:#000000;stroke-width:0.8;" x="40.5" xlink:href="#m38d98a46ac" y="31.649715"/>
      </g>
     </g>
     <g id="text_13">
      <text style="font-family:DejaVu Sans;font-size:10px;font-style:normal;font-weight:normal;text-anchor:end;" transform="rotate(-0, 33.5, 35.448934)" x="33.5" y="35.448934">1000</text>
     </g>
    </g>
    <g id="text_14">
     <text style="font-family:DejaVu Sans;font-size:10px;font-style:normal;font-weight:normal;text-anchor:middle;" transform="rotate(-90, 1.970312, 127.26)" x="1.970312" y="127.26">Average Bits Consumed Per Call</text>
    </g>
   </g>
   <g id="line2d_13">
    <path clip-path="url(#pffe2693902)" d="M 51.913636 215.442688 
L 54.291477 215.440846 
L 56.669318 215.46 
L 59.047159 215.443793 
L 61.425 215.423534 
L 63.802841 215.440846 
L 66.180682 215.45779 
L 68.558523 215.409169 
L 70.936364 215.398487 
L 73.314205 215.417272 
L 75.692045 215.359811 
L 78.069886 215.361653 
L 80.447727 215.383753 
L 82.825568 215.389279 
L 85.203409 215.342499 
L 87.58125 215.352813 
L 89.959091 215.365336 
L 92.336932 215.38228 
L 94.714773 215.297193 
L 97.092614 215.310085 
L 99.470455 215.280618 
L 101.848295 215.325556 
L 104.226136 215.276198 
L 106.603977 215.2401 
L 108.981818 215.280986 
L 111.359659 215.284301 
L 113.7375 215.239732 
L 116.115341 215.235312 
L 118.493182 215.183008 
L 120.871023 215.188164 
L 123.248864 215.189638 
L 125.626705 215.168642 
L 128.004545 215.124073 
L 130.382386 215.054088 
L 132.760227 215.113023 
L 135.138068 215.098289 
L 137.515909 215.047458 
L 139.89375 215.072137 
L 142.271591 215.018727 
L 144.649432 214.999574 
L 147.027273 214.999574 
L 149.405114 214.950953 
L 151.782955 214.884283 
L 154.160795 214.89386 
L 156.538636 214.877284 
L 158.916477 214.865498 
L 161.294318 214.745787 
L 163.672159 214.637494 
L 166.05 214.819455 
L 168.427841 214.64744 
L 170.805682 214.722213 
L 173.183523 214.525887 
L 175.561364 214.584085 
L 177.939205 214.562353 
L 180.317045 214.415753 
L 182.694886 214.381129 
L 185.072727 214.320353 
L 187.450568 214.241159 
L 189.828409 214.371921 
L 192.20625 214.214639 
L 194.584091 213.972271 
L 196.961932 214.03452 
L 199.339773 214.02126 
L 201.717614 213.827144 
L 204.095455 213.673914 
L 206.473295 213.69933 
L 208.851136 213.450331 
L 211.228977 213.245534 
L 213.606818 213.15971 
L 215.984659 212.936495 
L 218.3625 212.665765 
L 220.740341 212.875719 
L 223.118182 212.619722 
L 225.496023 212.291899 
L 227.873864 212.367409 
L 230.251705 211.597207 
L 232.629545 211.468288 
L 235.007386 211.361838 
L 237.385227 210.895518 
L 239.763068 210.381314 
L 242.140909 209.814437 
L 244.51875 208.980881 
L 246.896591 208.776083 
L 249.274432 208.037191 
L 251.652273 207.886171 
L 254.030114 205.42639 
L 256.407955 203.98544 
L 258.785795 201.50982 
L 261.163636 200.444946 
L 263.541477 198.363819 
L 265.919318 194.240609 
L 268.297159 189.252166 
L 270.675 182.929592 
L 273.052841 171.962238 
L 275.430682 154.064915 
L 277.808523 121.090656 
L 280.186364 39.06 
" style="fill:none;stroke:#1f77b4;stroke-linecap:square;stroke-width:1.5;"/>
   </g>
   <g id="patch_3">
    <path d="M 40.5 224.28 
L 40.5 30.24 
" style="fill:none;stroke:#000000;stroke-linecap:square;stroke-linejoin:miter;stroke-width:0.8;"/>
   </g>
   <g id="patch_4">
    <path d="M 291.6 224.28 
L 291.6 30.24 
" style="fill:none;stroke:#000000;stroke-linecap:square;stroke-linejoin:miter;stroke-width:0.8;"/>
   </g>
   <g id="patch_5">
    <path d="M 40.5 224.28 
L 291.6 224.28 
" style="fill:none;stroke:#000000;stroke-linecap:square;stroke-linejoin:miter;stroke-width:0.8;"/>
   </g>
   <g id="patch_6">
    <path d="M 40.5 30.24 
L 291.6 30.24 
" style="fill:none;stroke:#000000;stroke-linecap:square;stroke-linejoin:miter;stroke-width:0.8;"/>
   </g>
   <g id="text_15">
    <text style="font-family:DejaVu Sans;font-size:12px;font-style:normal;font-weight:normal;text-anchor:middle;" transform="rotate(-0, 166.05, 24.24)" x="166.05" y="24.24">Avg. Bits Consumed by exp(-x) (Flajolet) Algorithm</text>
   </g>
  </g>
 </g>
 <defs>
  <clipPath id="pffe2693902">
   <rect height="194.04" width="251.1" x="40.5" y="30.24"/>
  </clipPath>
 </defs>
</svg>
