<?xml version="1.0" encoding="utf-8" standalone="no"?>
<!DOCTYPE svg PUBLIC "-//W3C//DTD SVG 1.1//EN"
  "http://www.w3.org/Graphics/SVG/1.1/DTD/svg11.dtd">
<!-- Created with matplotlib (https://matplotlib.org/) -->
<svg height="252pt" version="1.1" viewBox="0 0 324 252" width="324pt" xmlns="http://www.w3.org/2000/svg" xmlns:xlink="http://www.w3.org/1999/xlink">
 <defs>
  <style type="text/css">
*{stroke-linecap:butt;stroke-linejoin:round;}
  </style>
 </defs>
 <g id="figure_1">
  <g id="patch_1">
   <path d="M 0 252 
L 324 252 
L 324 0 
L 0 0 
z
" style="fill:#ffffff;"/>
  </g>
  <g id="axes_1">
   <g id="patch_2">
    <path d="M 40.5 224.28 
L 291.6 224.28 
L 291.6 30.24 
L 40.5 30.24 
z
" style="fill:#ffffff;"/>
   </g>
   <g id="matplotlib.axis_1">
    <g id="xtick_1">
     <g id="line2d_1">
      <defs>
       <path d="M 0 0 
L 0 3.5 
" id="mae74b4f527" style="stroke:#000000;stroke-width:0.8;"/>
      </defs>
      <g>
       <use style="stroke:#000000;stroke-width:0.8;" x="51.890784" xlink:href="#mae74b4f527" y="224.28"/>
      </g>
     </g>
     <g id="text_1">
      <text style="font-family:DejaVu Sans;font-size:10px;font-style:normal;font-weight:normal;text-anchor:middle;" transform="rotate(-0, 51.890784, 238.878438)" x="51.890784" y="238.878438">0.0</text>
     </g>
    </g>
    <g id="xtick_2">
     <g id="line2d_2">
      <g>
       <use style="stroke:#000000;stroke-width:0.8;" x="97.595605" xlink:href="#mae74b4f527" y="224.28"/>
      </g>
     </g>
     <g id="text_2">
      <text style="font-family:DejaVu Sans;font-size:10px;font-style:normal;font-weight:normal;text-anchor:middle;" transform="rotate(-0, 97.595605, 238.878438)" x="97.595605" y="238.878438">0.2</text>
     </g>
    </g>
    <g id="xtick_3">
     <g id="line2d_3">
      <g>
       <use style="stroke:#000000;stroke-width:0.8;" x="143.300425" xlink:href="#mae74b4f527" y="224.28"/>
      </g>
     </g>
     <g id="text_3">
      <text style="font-family:DejaVu Sans;font-size:10px;font-style:normal;font-weight:normal;text-anchor:middle;" transform="rotate(-0, 143.300425, 238.878438)" x="143.300425" y="238.878438">0.4</text>
     </g>
    </g>
    <g id="xtick_4">
     <g id="line2d_4">
      <g>
       <use style="stroke:#000000;stroke-width:0.8;" x="189.005246" xlink:href="#mae74b4f527" y="224.28"/>
      </g>
     </g>
     <g id="text_4">
      <text style="font-family:DejaVu Sans;font-size:10px;font-style:normal;font-weight:normal;text-anchor:middle;" transform="rotate(-0, 189.005246, 238.878438)" x="189.005246" y="238.878438">0.6</text>
     </g>
    </g>
    <g id="xtick_5">
     <g id="line2d_5">
      <g>
       <use style="stroke:#000000;stroke-width:0.8;" x="234.710067" xlink:href="#mae74b4f527" y="224.28"/>
      </g>
     </g>
     <g id="text_5">
      <text style="font-family:DejaVu Sans;font-size:10px;font-style:normal;font-weight:normal;text-anchor:middle;" transform="rotate(-0, 234.710067, 238.878438)" x="234.710067" y="238.878438">0.8</text>
     </g>
    </g>
    <g id="xtick_6">
     <g id="line2d_6">
      <g>
       <use style="stroke:#000000;stroke-width:0.8;" x="280.414888" xlink:href="#mae74b4f527" y="224.28"/>
      </g>
     </g>
     <g id="text_6">
      <text style="font-family:DejaVu Sans;font-size:10px;font-style:normal;font-weight:normal;text-anchor:middle;" transform="rotate(-0, 280.414888, 238.878438)" x="280.414888" y="238.878438">1.0</text>
     </g>
    </g>
    <g id="text_7">
     <text style="font-family:DejaVu Sans;font-size:10px;font-style:normal;font-weight:normal;text-anchor:middle;" transform="rotate(-0, 166.05, 252.556563)" x="166.05" y="252.556563">Input Coin's Heads Probability (λ)</text>
    </g>
   </g>
   <g id="matplotlib.axis_2">
    <g id="ytick_1">
     <g id="line2d_7">
      <defs>
       <path d="M 0 0 
L -3.5 0 
" id="m49ecb46dd2" style="stroke:#000000;stroke-width:0.8;"/>
      </defs>
      <g>
       <use style="stroke:#000000;stroke-width:0.8;" x="40.5" xlink:href="#m49ecb46dd2" y="200.894862"/>
      </g>
     </g>
     <g id="text_8">
      <text style="font-family:DejaVu Sans;font-size:10px;font-style:normal;font-weight:normal;text-anchor:end;" transform="rotate(-0, 33.5, 204.694081)" x="33.5" y="204.694081">0.4</text>
     </g>
    </g>
    <g id="ytick_2">
     <g id="line2d_8">
      <g>
       <use style="stroke:#000000;stroke-width:0.8;" x="40.5" xlink:href="#m49ecb46dd2" y="173.922385"/>
      </g>
     </g>
     <g id="text_9">
      <text style="font-family:DejaVu Sans;font-size:10px;font-style:normal;font-weight:normal;text-anchor:end;" transform="rotate(-0, 33.5, 177.721604)" x="33.5" y="177.721604">0.5</text>
     </g>
    </g>
    <g id="ytick_3">
     <g id="line2d_9">
      <g>
       <use style="stroke:#000000;stroke-width:0.8;" x="40.5" xlink:href="#m49ecb46dd2" y="146.949908"/>
      </g>
     </g>
     <g id="text_10">
      <text style="font-family:DejaVu Sans;font-size:10px;font-style:normal;font-weight:normal;text-anchor:end;" transform="rotate(-0, 33.5, 150.749127)" x="33.5" y="150.749127">0.6</text>
     </g>
    </g>
    <g id="ytick_4">
     <g id="line2d_10">
      <g>
       <use style="stroke:#000000;stroke-width:0.8;" x="40.5" xlink:href="#m49ecb46dd2" y="119.977431"/>
      </g>
     </g>
     <g id="text_11">
      <text style="font-family:DejaVu Sans;font-size:10px;font-style:normal;font-weight:normal;text-anchor:end;" transform="rotate(-0, 33.5, 123.77665)" x="33.5" y="123.77665">0.7</text>
     </g>
    </g>
    <g id="ytick_5">
     <g id="line2d_11">
      <g>
       <use style="stroke:#000000;stroke-width:0.8;" x="40.5" xlink:href="#m49ecb46dd2" y="93.004954"/>
      </g>
     </g>
     <g id="text_12">
      <text style="font-family:DejaVu Sans;font-size:10px;font-style:normal;font-weight:normal;text-anchor:end;" transform="rotate(-0, 33.5, 96.804173)" x="33.5" y="96.804173">0.8</text>
     </g>
    </g>
    <g id="ytick_6">
     <g id="line2d_12">
      <g>
       <use style="stroke:#000000;stroke-width:0.8;" x="40.5" xlink:href="#m49ecb46dd2" y="66.032477"/>
      </g>
     </g>
     <g id="text_13">
      <text style="font-family:DejaVu Sans;font-size:10px;font-style:normal;font-weight:normal;text-anchor:end;" transform="rotate(-0, 33.5, 69.831696)" x="33.5" y="69.831696">0.9</text>
     </g>
    </g>
    <g id="ytick_7">
     <g id="line2d_13">
      <g>
       <use style="stroke:#000000;stroke-width:0.8;" x="40.5" xlink:href="#m49ecb46dd2" y="39.06"/>
      </g>
     </g>
     <g id="text_14">
      <text style="font-family:DejaVu Sans;font-size:10px;font-style:normal;font-weight:normal;text-anchor:end;" transform="rotate(-0, 33.5, 42.859219)" x="33.5" y="42.859219">1.0</text>
     </g>
    </g>
    <g id="text_15">
     <text style="font-family:DejaVu Sans;font-size:10px;font-style:normal;font-weight:normal;text-anchor:middle;" transform="rotate(-90, 11.517187, 127.26)" x="11.517187" y="127.26">Simulated Mean / Function Value</text>
    </g>
   </g>
   <g id="line2d_14">
    <path clip-path="url(#p6abdd5d848)" d="M 52.119308 39.32959 
L 54.423016 42.03227 
L 56.726723 44.707843 
L 59.030431 47.356578 
L 61.334139 49.978747 
L 63.637846 52.574614 
L 65.941554 55.144445 
L 68.245261 57.6885 
L 70.548969 60.207037 
L 72.852677 62.700314 
L 75.156384 65.168582 
L 77.460092 67.612093 
L 79.7638 70.031095 
L 82.067507 72.425834 
L 84.371215 74.796554 
L 86.674923 77.143495 
L 88.97863 79.466896 
L 91.282338 81.766992 
L 93.586045 84.044018 
L 95.889753 86.298206 
L 98.193461 88.529783 
L 100.497168 90.738977 
L 102.800876 92.926013 
L 105.104584 95.091113 
L 107.408291 97.234496 
L 109.711999 99.35638 
L 112.015706 101.456982 
L 114.319414 103.536514 
L 116.623122 105.595189 
L 118.926829 107.633214 
L 121.230537 109.650798 
L 123.534245 111.648145 
L 125.837952 113.625458 
L 128.14166 115.582939 
L 130.445368 117.520785 
L 132.749075 119.439195 
L 135.052783 121.338363 
L 137.35649 123.218481 
L 139.660198 125.079742 
L 141.963906 126.922334 
L 144.267613 128.746445 
L 146.571321 130.55226 
L 148.875029 132.339961 
L 151.178736 134.109732 
L 153.482444 135.861752 
L 155.786152 137.596199 
L 158.089859 139.313249 
L 160.393567 141.013077 
L 162.697274 142.695855 
L 165.000982 144.361754 
L 167.30469 146.010945 
L 169.608397 147.643593 
L 171.912105 149.259866 
L 174.215813 150.859928 
L 176.51952 152.44394 
L 178.823228 154.012065 
L 181.126935 155.564461 
L 183.430643 157.101286 
L 185.734351 158.622697 
L 188.038058 160.128848 
L 190.341766 161.619891 
L 192.645474 163.09598 
L 194.949181 164.557263 
L 197.252889 166.003889 
L 199.556597 167.436005 
L 201.860304 168.853756 
L 204.164012 170.257288 
L 206.467719 171.646742 
L 208.771427 173.022259 
L 211.075135 174.38398 
L 213.378842 175.732042 
L 215.68255 177.066583 
L 217.986258 178.387739 
L 220.289965 179.695643 
L 222.593673 180.990428 
L 224.89738 182.272227 
L 227.201088 183.541169 
L 229.504796 184.797383 
L 231.808503 186.040997 
L 234.112211 187.272138 
L 236.415919 188.49093 
L 238.719626 189.697497 
L 241.023334 190.891962 
L 243.327042 192.074447 
L 245.630749 193.245071 
L 247.934457 194.403953 
L 250.238164 195.551212 
L 252.541872 196.686964 
L 254.84558 197.811323 
L 257.149287 198.924405 
L 259.452995 200.026323 
L 261.756703 201.117189 
L 264.06041 202.197113 
L 266.364118 203.266205 
L 268.667825 204.324573 
L 270.971533 205.372327 
L 273.275241 206.409571 
L 275.578948 207.436411 
L 277.882656 208.452952 
L 280.186364 209.459297 
" style="fill:none;stroke:#1f77b4;stroke-linecap:square;stroke-width:1.5;"/>
   </g>
   <g id="line2d_15">
    <path clip-path="url(#p6abdd5d848)" d="M 51.913636 39.06 
L 54.221499 40.678349 
L 56.529362 44.454495 
L 58.837224 43.915046 
L 61.145087 52.546239 
L 63.452949 55.243486 
L 65.760812 57.940734 
L 68.068675 59.019633 
L 70.376537 57.401284 
L 72.6844 57.401284 
L 74.992263 69.808624 
L 77.300125 66.032477 
L 79.607988 77.900367 
L 81.91585 74.66367 
L 84.223713 80.597615 
L 86.531576 77.360917 
L 88.839438 78.439817 
L 91.147301 83.834312 
L 93.455163 90.307706 
L 95.763026 80.597615 
L 98.070889 78.979266 
L 100.378751 89.228807 
L 102.686614 92.465505 
L 104.994477 89.228807 
L 107.302339 98.938899 
L 109.610202 100.557248 
L 111.918064 101.096697 
L 114.225927 115.661835 
L 116.53379 97.86 
L 118.841652 114.582936 
L 121.149515 109.72789 
L 123.457377 111.346239 
L 125.76524 112.964587 
L 128.073103 115.122385 
L 130.380965 110.267339 
L 132.688828 118.359083 
L 134.996691 117.280183 
L 137.304553 124.832477 
L 139.612416 114.043486 
L 141.920278 124.832477 
L 144.228141 126.450826 
L 146.536004 124.832477 
L 148.843866 130.766422 
L 151.151729 133.46367 
L 153.459591 135.082018 
L 155.767454 134.003119 
L 158.075317 132.384771 
L 160.383179 144.252661 
L 162.691042 149.647156 
L 164.998905 151.804954 
L 167.306767 146.949908 
L 169.61463 151.804954 
L 171.922492 152.344404 
L 174.230355 159.896697 
L 176.538218 162.593945 
L 178.84608 161.515046 
L 181.153943 155.581101 
L 183.461805 152.344404 
L 185.769668 157.19945 
L 188.077531 147.489358 
L 190.385393 155.041651 
L 192.693256 157.738899 
L 195.001119 160.975596 
L 197.308981 170.146239 
L 199.616844 163.672844 
L 201.924706 160.436147 
L 204.232569 174.461835 
L 206.540432 178.777431 
L 208.848294 167.98844 
L 211.156157 175.001284 
L 213.464019 174.461835 
L 215.771882 170.146239 
L 218.079745 180.39578 
L 220.387607 170.146239 
L 222.69547 178.777431 
L 225.003333 189.026972 
L 227.311195 180.39578 
L 229.619058 189.026972 
L 231.92692 191.184771 
L 234.234783 186.869174 
L 236.542646 187.408624 
L 238.850508 198.197615 
L 241.158371 196.039817 
L 243.466233 190.105872 
L 245.774096 184.171927 
L 248.081959 196.579266 
L 250.389821 196.039817 
L 252.697684 198.197615 
L 255.005547 194.960917 
L 257.313409 205.210459 
L 259.621272 197.118716 
L 261.929134 202.513211 
L 264.236997 211.144404 
L 266.54486 196.579266 
L 268.852722 215.46 
L 271.160585 208.447156 
L 273.468447 208.447156 
L 275.77631 200.355413 
L 278.084173 207.368257 
" style="fill:none;stroke:#ff7f0e;stroke-linecap:square;stroke-width:1.5;"/>
   </g>
   <g id="patch_3">
    <path d="M 40.5 224.28 
L 40.5 30.24 
" style="fill:none;stroke:#000000;stroke-linecap:square;stroke-linejoin:miter;stroke-width:0.8;"/>
   </g>
   <g id="patch_4">
    <path d="M 291.6 224.28 
L 291.6 30.24 
" style="fill:none;stroke:#000000;stroke-linecap:square;stroke-linejoin:miter;stroke-width:0.8;"/>
   </g>
   <g id="patch_5">
    <path d="M 40.5 224.28 
L 291.6 224.28 
" style="fill:none;stroke:#000000;stroke-linecap:square;stroke-linejoin:miter;stroke-width:0.8;"/>
   </g>
   <g id="patch_6">
    <path d="M 40.5 30.24 
L 291.6 30.24 
" style="fill:none;stroke:#000000;stroke-linecap:square;stroke-linejoin:miter;stroke-width:0.8;"/>
   </g>
   <g id="text_16">
    <text style="font-family:DejaVu Sans;font-size:12px;font-style:normal;font-weight:normal;text-anchor:middle;" transform="rotate(-0, 166.05, 24.24)" x="166.05" y="24.24">Expected Value in exp(-x) (Alg. 2) Algorithm</text>
   </g>
   <g id="legend_1">
    <g id="patch_7">
     <path d="M 80.404688 67.59625 
L 284.6 67.59625 
Q 286.6 67.59625 286.6 65.59625 
L 286.6 37.24 
Q 286.6 35.24 284.6 35.24 
L 80.404688 35.24 
Q 78.404688 35.24 78.404688 37.24 
L 78.404688 65.59625 
Q 78.404688 67.59625 80.404688 67.59625 
z
" style="fill:#ffffff;opacity:0.8;stroke:#cccccc;stroke-linejoin:miter;"/>
    </g>
    <g id="line2d_16">
     <path d="M 82.404688 43.338438 
L 102.404688 43.338438 
" style="fill:none;stroke:#1f77b4;stroke-linecap:square;stroke-width:1.5;"/>
    </g>
    <g id="line2d_17"/>
    <g id="text_17">
     <text style="font-family:DejaVu Sans;font-size:10px;font-style:normal;font-weight:normal;text-anchor:start;" transform="rotate(-0, 110.404688, 46.838438)" x="110.404688" y="46.838438">exp(-x)</text>
    </g>
    <g id="line2d_18">
     <path d="M 82.404688 58.016563 
L 102.404688 58.016563 
" style="fill:none;stroke:#ff7f0e;stroke-linecap:square;stroke-width:1.5;"/>
    </g>
    <g id="line2d_19"/>
    <g id="text_18">
     <text style="font-family:DejaVu Sans;font-size:10px;font-style:normal;font-weight:normal;text-anchor:start;" transform="rotate(-0, 110.404688, 61.516563)" x="110.404688" y="61.516563">Simulated Mean of exp(-x) (Alg. 2)</text>
    </g>
   </g>
  </g>
 </g>
 <defs>
  <clipPath id="p6abdd5d848">
   <rect height="194.04" width="251.1" x="40.5" y="30.24"/>
  </clipPath>
 </defs>
</svg>
