<?xml version="1.0" encoding="utf-8" standalone="no"?>
<!DOCTYPE svg PUBLIC "-//W3C//DTD SVG 1.1//EN"
  "http://www.w3.org/Graphics/SVG/1.1/DTD/svg11.dtd">
<!-- Created with matplotlib (https://matplotlib.org/) -->
<svg height="252pt" version="1.1" viewBox="0 0 324 252" width="324pt" xmlns="http://www.w3.org/2000/svg" xmlns:xlink="http://www.w3.org/1999/xlink">
 <defs>
  <style type="text/css">
*{stroke-linecap:butt;stroke-linejoin:round;}
  </style>
 </defs>
 <g id="figure_1">
  <g id="patch_1">
   <path d="M 0 252 
L 324 252 
L 324 0 
L 0 0 
z
" style="fill:#ffffff;"/>
  </g>
  <g id="axes_1">
   <g id="patch_2">
    <path d="M 40.5 224.28 
L 291.6 224.28 
L 291.6 30.24 
L 40.5 30.24 
z
" style="fill:#ffffff;"/>
   </g>
   <g id="matplotlib.axis_1">
    <g id="xtick_1">
     <g id="line2d_1">
      <defs>
       <path d="M 0 0 
L 0 3.5 
" id="mde729c94cf" style="stroke:#000000;stroke-width:0.8;"/>
      </defs>
      <g>
       <use style="stroke:#000000;stroke-width:0.8;" x="51.890805" xlink:href="#mde729c94cf" y="224.28"/>
      </g>
     </g>
     <g id="text_1">
      <text style="font-family:DejaVu Sans;font-size:10px;font-style:normal;font-weight:normal;text-anchor:middle;" transform="rotate(-0, 51.890805, 238.878438)" x="51.890805" y="238.878438">0.0</text>
     </g>
    </g>
    <g id="xtick_2">
     <g id="line2d_2">
      <g>
       <use style="stroke:#000000;stroke-width:0.8;" x="97.554483" xlink:href="#mde729c94cf" y="224.28"/>
      </g>
     </g>
     <g id="text_2">
      <text style="font-family:DejaVu Sans;font-size:10px;font-style:normal;font-weight:normal;text-anchor:middle;" transform="rotate(-0, 97.554483, 238.878438)" x="97.554483" y="238.878438">0.2</text>
     </g>
    </g>
    <g id="xtick_3">
     <g id="line2d_3">
      <g>
       <use style="stroke:#000000;stroke-width:0.8;" x="143.218161" xlink:href="#mde729c94cf" y="224.28"/>
      </g>
     </g>
     <g id="text_3">
      <text style="font-family:DejaVu Sans;font-size:10px;font-style:normal;font-weight:normal;text-anchor:middle;" transform="rotate(-0, 143.218161, 238.878438)" x="143.218161" y="238.878438">0.4</text>
     </g>
    </g>
    <g id="xtick_4">
     <g id="line2d_4">
      <g>
       <use style="stroke:#000000;stroke-width:0.8;" x="188.881839" xlink:href="#mde729c94cf" y="224.28"/>
      </g>
     </g>
     <g id="text_4">
      <text style="font-family:DejaVu Sans;font-size:10px;font-style:normal;font-weight:normal;text-anchor:middle;" transform="rotate(-0, 188.881839, 238.878438)" x="188.881839" y="238.878438">0.6</text>
     </g>
    </g>
    <g id="xtick_5">
     <g id="line2d_5">
      <g>
       <use style="stroke:#000000;stroke-width:0.8;" x="234.545517" xlink:href="#mde729c94cf" y="224.28"/>
      </g>
     </g>
     <g id="text_5">
      <text style="font-family:DejaVu Sans;font-size:10px;font-style:normal;font-weight:normal;text-anchor:middle;" transform="rotate(-0, 234.545517, 238.878438)" x="234.545517" y="238.878438">0.8</text>
     </g>
    </g>
    <g id="xtick_6">
     <g id="line2d_6">
      <g>
       <use style="stroke:#000000;stroke-width:0.8;" x="280.209195" xlink:href="#mde729c94cf" y="224.28"/>
      </g>
     </g>
     <g id="text_6">
      <text style="font-family:DejaVu Sans;font-size:10px;font-style:normal;font-weight:normal;text-anchor:middle;" transform="rotate(-0, 280.209195, 238.878438)" x="280.209195" y="238.878438">1.0</text>
     </g>
    </g>
    <g id="text_7">
     <text style="font-family:DejaVu Sans;font-size:10px;font-style:normal;font-weight:normal;text-anchor:middle;" transform="rotate(-0, 166.05, 252.556563)" x="166.05" y="252.556563">Input Coin's Heads Probability (λ)</text>
    </g>
   </g>
   <g id="matplotlib.axis_2">
    <g id="ytick_1">
     <g id="line2d_7">
      <defs>
       <path d="M 0 0 
L -3.5 0 
" id="m67ea1ead92" style="stroke:#000000;stroke-width:0.8;"/>
      </defs>
      <g>
       <use style="stroke:#000000;stroke-width:0.8;" x="40.5" xlink:href="#m67ea1ead92" y="204.953417"/>
      </g>
     </g>
     <g id="text_8">
      <text style="font-family:DejaVu Sans;font-size:10px;font-style:normal;font-weight:normal;text-anchor:end;" transform="rotate(-0, 33.5, 208.752636)" x="33.5" y="208.752636">0.4</text>
     </g>
    </g>
    <g id="ytick_2">
     <g id="line2d_8">
      <g>
       <use style="stroke:#000000;stroke-width:0.8;" x="40.5" xlink:href="#m67ea1ead92" y="177.304514"/>
      </g>
     </g>
     <g id="text_9">
      <text style="font-family:DejaVu Sans;font-size:10px;font-style:normal;font-weight:normal;text-anchor:end;" transform="rotate(-0, 33.5, 181.103733)" x="33.5" y="181.103733">0.5</text>
     </g>
    </g>
    <g id="ytick_3">
     <g id="line2d_9">
      <g>
       <use style="stroke:#000000;stroke-width:0.8;" x="40.5" xlink:href="#m67ea1ead92" y="149.655611"/>
      </g>
     </g>
     <g id="text_10">
      <text style="font-family:DejaVu Sans;font-size:10px;font-style:normal;font-weight:normal;text-anchor:end;" transform="rotate(-0, 33.5, 153.45483)" x="33.5" y="153.45483">0.6</text>
     </g>
    </g>
    <g id="ytick_4">
     <g id="line2d_10">
      <g>
       <use style="stroke:#000000;stroke-width:0.8;" x="40.5" xlink:href="#m67ea1ead92" y="122.006708"/>
      </g>
     </g>
     <g id="text_11">
      <text style="font-family:DejaVu Sans;font-size:10px;font-style:normal;font-weight:normal;text-anchor:end;" transform="rotate(-0, 33.5, 125.805927)" x="33.5" y="125.805927">0.7</text>
     </g>
    </g>
    <g id="ytick_5">
     <g id="line2d_11">
      <g>
       <use style="stroke:#000000;stroke-width:0.8;" x="40.5" xlink:href="#m67ea1ead92" y="94.357806"/>
      </g>
     </g>
     <g id="text_12">
      <text style="font-family:DejaVu Sans;font-size:10px;font-style:normal;font-weight:normal;text-anchor:end;" transform="rotate(-0, 33.5, 98.157024)" x="33.5" y="98.157024">0.8</text>
     </g>
    </g>
    <g id="ytick_6">
     <g id="line2d_12">
      <g>
       <use style="stroke:#000000;stroke-width:0.8;" x="40.5" xlink:href="#m67ea1ead92" y="66.708903"/>
      </g>
     </g>
     <g id="text_13">
      <text style="font-family:DejaVu Sans;font-size:10px;font-style:normal;font-weight:normal;text-anchor:end;" transform="rotate(-0, 33.5, 70.508122)" x="33.5" y="70.508122">0.9</text>
     </g>
    </g>
    <g id="ytick_7">
     <g id="line2d_13">
      <g>
       <use style="stroke:#000000;stroke-width:0.8;" x="40.5" xlink:href="#m67ea1ead92" y="39.06"/>
      </g>
     </g>
     <g id="text_14">
      <text style="font-family:DejaVu Sans;font-size:10px;font-style:normal;font-weight:normal;text-anchor:end;" transform="rotate(-0, 33.5, 42.859219)" x="33.5" y="42.859219">1.0</text>
     </g>
    </g>
    <g id="text_15">
     <text style="font-family:DejaVu Sans;font-size:10px;font-style:normal;font-weight:normal;text-anchor:middle;" transform="rotate(-90, 11.517187, 127.26)" x="11.517187" y="127.26">Simulated Mean / Function Value</text>
    </g>
   </g>
   <g id="line2d_14">
    <path clip-path="url(#p2cb83c4475)" d="M 52.119123 39.336351 
L 54.420757 42.10681 
L 56.722391 44.849481 
L 59.024025 47.564643 
L 61.325658 50.252571 
L 63.627292 52.913539 
L 65.928926 55.547817 
L 68.23056 58.155672 
L 70.532194 60.737371 
L 72.833828 63.293174 
L 75.135462 65.823342 
L 77.437096 68.328133 
L 79.738729 70.8078 
L 82.040363 73.262595 
L 84.341997 75.692768 
L 86.643631 78.098567 
L 88.945265 80.480235 
L 91.246899 82.838014 
L 93.548533 85.172144 
L 95.850167 87.482863 
L 98.151801 89.770405 
L 100.453434 92.035002 
L 102.755068 94.276885 
L 105.056702 96.496282 
L 107.358336 98.693417 
L 109.65997 100.868515 
L 111.961604 103.021797 
L 114.263238 105.15348 
L 116.564872 107.263783 
L 118.866505 109.352918 
L 121.168139 111.4211 
L 123.469773 113.468537 
L 125.771407 115.495438 
L 128.073041 117.502009 
L 130.374675 119.488454 
L 132.676309 121.454974 
L 134.977943 123.40177 
L 137.279576 125.329039 
L 139.58121 127.236977 
L 141.882844 129.125779 
L 144.184478 130.995635 
L 146.486112 132.846736 
L 148.787746 134.679271 
L 151.08938 136.493425 
L 153.391014 138.289382 
L 155.692648 140.067326 
L 157.994281 141.827437 
L 160.295915 143.569894 
L 162.597549 145.294873 
L 164.899183 147.002551 
L 167.200817 148.6931 
L 169.502451 150.366693 
L 171.804085 152.023499 
L 174.105719 153.663688 
L 176.407352 155.287425 
L 178.708986 156.894875 
L 181.01062 158.486203 
L 183.312254 160.061569 
L 185.613888 161.621134 
L 187.915522 163.165057 
L 190.217156 164.693494 
L 192.51879 166.2066 
L 194.820424 167.704529 
L 197.122057 169.187434 
L 199.423691 170.655466 
L 201.725325 172.108772 
L 204.026959 173.547502 
L 206.328593 174.971801 
L 208.630227 176.381814 
L 210.931861 177.777684 
L 213.233495 179.159554 
L 215.535128 180.527563 
L 217.836762 181.881851 
L 220.138396 183.222555 
L 222.44003 184.549812 
L 224.741664 185.863756 
L 227.043298 187.164521 
L 229.344932 188.452239 
L 231.646566 189.727041 
L 233.948199 190.989056 
L 236.249833 192.238414 
L 238.551467 193.47524 
L 240.853101 194.69966 
L 243.154735 195.9118 
L 245.456369 197.111781 
L 247.758003 198.299726 
L 250.059637 199.475757 
L 252.361271 200.639991 
L 254.662904 201.792548 
L 256.964538 202.933544 
L 259.266172 204.063096 
L 261.567806 205.181319 
L 263.86944 206.288325 
L 266.171074 207.384228 
L 268.472708 208.469139 
L 270.774342 209.543169 
L 273.075975 210.606425 
L 275.377609 211.659017 
L 277.679243 212.701051 
L 279.980877 213.732634 
" style="fill:none;stroke:#1f77b4;stroke-linecap:square;stroke-width:1.5;"/>
   </g>
   <g id="line2d_15">
    <path clip-path="url(#p2cb83c4475)" d="M 51.913636 39.06 
L 54.219421 42.377868 
L 56.525207 46.248715 
L 58.830992 43.483824 
L 61.136777 49.013605 
L 63.442562 51.225517 
L 65.748347 57.861254 
L 68.054132 63.391034 
L 70.359917 58.414232 
L 72.665702 63.944013 
L 74.971488 65.602947 
L 77.277273 62.285078 
L 79.583058 73.344639 
L 81.888843 80.533354 
L 84.194628 73.344639 
L 86.500413 74.450596 
L 88.806198 78.87442 
L 91.111983 80.533354 
L 93.417769 88.828025 
L 95.723554 89.381003 
L 98.029339 80.533354 
L 100.335124 94.910784 
L 102.640909 94.910784 
L 104.946694 98.228652 
L 107.252479 100.993542 
L 109.558264 102.652476 
L 111.86405 105.417367 
L 114.169835 102.099498 
L 116.47562 109.841191 
L 118.781405 108.182257 
L 121.08719 109.841191 
L 123.392975 117.029906 
L 125.69876 119.794796 
L 128.004545 113.712038 
L 130.310331 122.559687 
L 132.616116 117.582884 
L 134.921901 131.960313 
L 137.227686 126.983511 
L 139.533471 127.536489 
L 141.839256 135.83116 
L 144.145041 128.642445 
L 146.450826 133.619248 
L 148.756612 136.937116 
L 151.062397 136.384138 
L 153.368182 140.254984 
L 155.673967 139.702006 
L 157.979752 145.231787 
L 160.285537 142.466897 
L 162.591322 148.549655 
L 164.897107 145.231787 
L 167.202893 149.655611 
L 169.508678 163.480063 
L 171.814463 147.996677 
L 174.120248 151.867524 
L 176.426033 170.115799 
L 178.731818 165.138997 
L 181.037603 164.033041 
L 183.343388 162.927085 
L 185.649174 159.056238 
L 187.954959 161.821129 
L 190.260744 170.115799 
L 192.566529 162.374107 
L 194.872314 157.950282 
L 197.178099 172.327712 
L 199.483884 167.903887 
L 201.789669 179.516426 
L 204.095455 175.092602 
L 206.40124 173.986646 
L 208.707025 172.88069 
L 211.01281 177.304514 
L 213.318595 187.258119 
L 215.62438 185.599185 
L 217.930165 192.234922 
L 220.23595 177.857492 
L 222.541736 195.55279 
L 224.847521 178.41047 
L 227.153306 179.516426 
L 229.459091 181.175361 
L 231.764876 185.599185 
L 234.070661 188.917053 
L 236.376446 201.635549 
L 238.682231 189.470031 
L 240.988017 206.059373 
L 243.293802 202.741505 
L 245.599587 198.31768 
L 247.905372 197.211724 
L 250.211157 193.340878 
L 252.516942 188.364075 
L 254.822727 203.294483 
L 257.128512 201.635549 
L 259.434298 205.506395 
L 261.740083 212.69511 
L 264.045868 209.930219 
L 266.351653 212.142132 
L 268.657438 211.036176 
L 270.963223 215.46 
L 273.269008 209.377241 
L 275.574793 206.612351 
L 277.880579 206.612351 
L 280.186364 215.46 
" style="fill:none;stroke:#ff7f0e;stroke-linecap:square;stroke-width:1.5;"/>
   </g>
   <g id="patch_3">
    <path d="M 40.5 224.28 
L 40.5 30.24 
" style="fill:none;stroke:#000000;stroke-linecap:square;stroke-linejoin:miter;stroke-width:0.8;"/>
   </g>
   <g id="patch_4">
    <path d="M 291.6 224.28 
L 291.6 30.24 
" style="fill:none;stroke:#000000;stroke-linecap:square;stroke-linejoin:miter;stroke-width:0.8;"/>
   </g>
   <g id="patch_5">
    <path d="M 40.5 224.28 
L 291.6 224.28 
" style="fill:none;stroke:#000000;stroke-linecap:square;stroke-linejoin:miter;stroke-width:0.8;"/>
   </g>
   <g id="patch_6">
    <path d="M 40.5 30.24 
L 291.6 30.24 
" style="fill:none;stroke:#000000;stroke-linecap:square;stroke-linejoin:miter;stroke-width:0.8;"/>
   </g>
   <g id="text_16">
    <text style="font-family:DejaVu Sans;font-size:12px;font-style:normal;font-weight:normal;text-anchor:middle;" transform="rotate(-0, 166.05, 24.24)" x="166.05" y="24.24">Expected Value in exp(-x) (Alt. Series) Algorithm</text>
   </g>
   <g id="legend_1">
    <g id="patch_7">
     <path d="M 58.442188 67.59625 
L 284.6 67.59625 
Q 286.6 67.59625 286.6 65.59625 
L 286.6 37.24 
Q 286.6 35.24 284.6 35.24 
L 58.442188 35.24 
Q 56.442188 35.24 56.442188 37.24 
L 56.442188 65.59625 
Q 56.442188 67.59625 58.442188 67.59625 
z
" style="fill:#ffffff;opacity:0.8;stroke:#cccccc;stroke-linejoin:miter;"/>
    </g>
    <g id="line2d_16">
     <path d="M 60.442188 43.338438 
L 80.442188 43.338438 
" style="fill:none;stroke:#1f77b4;stroke-linecap:square;stroke-width:1.5;"/>
    </g>
    <g id="line2d_17"/>
    <g id="text_17">
     <text style="font-family:DejaVu Sans;font-size:10px;font-style:normal;font-weight:normal;text-anchor:start;" transform="rotate(-0, 88.442188, 46.838438)" x="88.442188" y="46.838438">exp(-x)</text>
    </g>
    <g id="line2d_18">
     <path d="M 60.442188 58.016563 
L 80.442188 58.016563 
" style="fill:none;stroke:#ff7f0e;stroke-linecap:square;stroke-width:1.5;"/>
    </g>
    <g id="line2d_19"/>
    <g id="text_18">
     <text style="font-family:DejaVu Sans;font-size:10px;font-style:normal;font-weight:normal;text-anchor:start;" transform="rotate(-0, 88.442188, 61.516563)" x="88.442188" y="61.516563">Simulated Mean of exp(-x) (Alt. Series)</text>
    </g>
   </g>
  </g>
 </g>
 <defs>
  <clipPath id="p2cb83c4475">
   <rect height="194.04" width="251.1" x="40.5" y="30.24"/>
  </clipPath>
 </defs>
</svg>
