<?xml version="1.0" encoding="utf-8" standalone="no"?>
<!DOCTYPE svg PUBLIC "-//W3C//DTD SVG 1.1//EN"
  "http://www.w3.org/Graphics/SVG/1.1/DTD/svg11.dtd">
<!-- Created with matplotlib (https://matplotlib.org/) -->
<svg height="345.6pt" version="1.1" viewBox="0 0 460.8 345.6" width="460.8pt" xmlns="http://www.w3.org/2000/svg" xmlns:xlink="http://www.w3.org/1999/xlink">
 <defs>
  <style type="text/css">
*{stroke-linecap:butt;stroke-linejoin:round;}
  </style>
 </defs>
 <g id="figure_1">
  <g id="patch_1">
   <path d="M 0 345.6 
L 460.8 345.6 
L 460.8 0 
L 0 0 
z
" style="fill:#ffffff;"/>
  </g>
  <g id="axes_1">
   <g id="patch_2">
    <path d="M 57.6 307.584 
L 414.72 307.584 
L 414.72 41.472 
L 57.6 41.472 
z
" style="fill:#ffffff;"/>
   </g>
   <g id="matplotlib.axis_1">
    <g id="xtick_1">
     <g id="line2d_1">
      <defs>
       <path d="M 0 0 
L 0 3.5 
" id="m9e00e7c8ab" style="stroke:#000000;stroke-width:0.8;"/>
      </defs>
      <g>
       <use style="stroke:#000000;stroke-width:0.8;" x="73.800255" xlink:href="#m9e00e7c8ab" y="307.584"/>
      </g>
     </g>
     <g id="text_1">
      <text style="font-family:DejaVu Sans;font-size:10px;font-style:normal;font-weight:normal;text-anchor:middle;" transform="rotate(-0, 73.800255, 322.182437)" x="73.800255" y="322.182437">0.0</text>
     </g>
    </g>
    <g id="xtick_2">
     <g id="line2d_2">
      <g>
       <use style="stroke:#000000;stroke-width:0.8;" x="138.744153" xlink:href="#m9e00e7c8ab" y="307.584"/>
      </g>
     </g>
     <g id="text_2">
      <text style="font-family:DejaVu Sans;font-size:10px;font-style:normal;font-weight:normal;text-anchor:middle;" transform="rotate(-0, 138.744153, 322.182437)" x="138.744153" y="322.182437">0.2</text>
     </g>
    </g>
    <g id="xtick_3">
     <g id="line2d_3">
      <g>
       <use style="stroke:#000000;stroke-width:0.8;" x="203.688051" xlink:href="#m9e00e7c8ab" y="307.584"/>
      </g>
     </g>
     <g id="text_3">
      <text style="font-family:DejaVu Sans;font-size:10px;font-style:normal;font-weight:normal;text-anchor:middle;" transform="rotate(-0, 203.688051, 322.182437)" x="203.688051" y="322.182437">0.4</text>
     </g>
    </g>
    <g id="xtick_4">
     <g id="line2d_4">
      <g>
       <use style="stroke:#000000;stroke-width:0.8;" x="268.631949" xlink:href="#m9e00e7c8ab" y="307.584"/>
      </g>
     </g>
     <g id="text_4">
      <text style="font-family:DejaVu Sans;font-size:10px;font-style:normal;font-weight:normal;text-anchor:middle;" transform="rotate(-0, 268.631949, 322.182437)" x="268.631949" y="322.182437">0.6</text>
     </g>
    </g>
    <g id="xtick_5">
     <g id="line2d_5">
      <g>
       <use style="stroke:#000000;stroke-width:0.8;" x="333.575847" xlink:href="#m9e00e7c8ab" y="307.584"/>
      </g>
     </g>
     <g id="text_5">
      <text style="font-family:DejaVu Sans;font-size:10px;font-style:normal;font-weight:normal;text-anchor:middle;" transform="rotate(-0, 333.575847, 322.182437)" x="333.575847" y="322.182437">0.8</text>
     </g>
    </g>
    <g id="xtick_6">
     <g id="line2d_6">
      <g>
       <use style="stroke:#000000;stroke-width:0.8;" x="398.519745" xlink:href="#m9e00e7c8ab" y="307.584"/>
      </g>
     </g>
     <g id="text_6">
      <text style="font-family:DejaVu Sans;font-size:10px;font-style:normal;font-weight:normal;text-anchor:middle;" transform="rotate(-0, 398.519745, 322.182437)" x="398.519745" y="322.182437">1.0</text>
     </g>
    </g>
    <g id="text_7">
     <text style="font-family:DejaVu Sans;font-size:10px;font-style:normal;font-weight:normal;text-anchor:middle;" transform="rotate(-0, 236.16, 335.860562)" x="236.16" y="335.860562">Input Coin's Heads Probability (λ)</text>
    </g>
   </g>
   <g id="matplotlib.axis_2">
    <g id="ytick_1">
     <g id="line2d_7">
      <defs>
       <path d="M 0 0 
L -3.5 0 
" id="m3d371254f4" style="stroke:#000000;stroke-width:0.8;"/>
      </defs>
      <g>
       <use style="stroke:#000000;stroke-width:0.8;" x="57.6" xlink:href="#m3d371254f4" y="295.505805"/>
      </g>
     </g>
     <g id="text_8">
      <text style="font-family:DejaVu Sans;font-size:10px;font-style:normal;font-weight:normal;text-anchor:end;" transform="rotate(-0, 50.6, 299.305024)" x="50.6" y="299.305024">0.0</text>
     </g>
    </g>
    <g id="ytick_2">
     <g id="line2d_8">
      <g>
       <use style="stroke:#000000;stroke-width:0.8;" x="57.6" xlink:href="#m3d371254f4" y="250.998129"/>
      </g>
     </g>
     <g id="text_9">
      <text style="font-family:DejaVu Sans;font-size:10px;font-style:normal;font-weight:normal;text-anchor:end;" transform="rotate(-0, 50.6, 254.797347)" x="50.6" y="254.797347">0.5</text>
     </g>
    </g>
    <g id="ytick_3">
     <g id="line2d_9">
      <g>
       <use style="stroke:#000000;stroke-width:0.8;" x="57.6" xlink:href="#m3d371254f4" y="206.490452"/>
      </g>
     </g>
     <g id="text_10">
      <text style="font-family:DejaVu Sans;font-size:10px;font-style:normal;font-weight:normal;text-anchor:end;" transform="rotate(-0, 50.6, 210.289671)" x="50.6" y="210.289671">1.0</text>
     </g>
    </g>
    <g id="ytick_4">
     <g id="line2d_10">
      <g>
       <use style="stroke:#000000;stroke-width:0.8;" x="57.6" xlink:href="#m3d371254f4" y="161.982776"/>
      </g>
     </g>
     <g id="text_11">
      <text style="font-family:DejaVu Sans;font-size:10px;font-style:normal;font-weight:normal;text-anchor:end;" transform="rotate(-0, 50.6, 165.781995)" x="50.6" y="165.781995">1.5</text>
     </g>
    </g>
    <g id="ytick_5">
     <g id="line2d_11">
      <g>
       <use style="stroke:#000000;stroke-width:0.8;" x="57.6" xlink:href="#m3d371254f4" y="117.4751"/>
      </g>
     </g>
     <g id="text_12">
      <text style="font-family:DejaVu Sans;font-size:10px;font-style:normal;font-weight:normal;text-anchor:end;" transform="rotate(-0, 50.6, 121.274318)" x="50.6" y="121.274318">2.0</text>
     </g>
    </g>
    <g id="ytick_6">
     <g id="line2d_12">
      <g>
       <use style="stroke:#000000;stroke-width:0.8;" x="57.6" xlink:href="#m3d371254f4" y="72.967423"/>
      </g>
     </g>
     <g id="text_13">
      <text style="font-family:DejaVu Sans;font-size:10px;font-style:normal;font-weight:normal;text-anchor:end;" transform="rotate(-0, 50.6, 76.766642)" x="50.6" y="76.766642">2.5</text>
     </g>
    </g>
    <g id="text_14">
     <text style="font-family:DejaVu Sans;font-size:10px;font-style:normal;font-weight:normal;text-anchor:middle;" transform="rotate(-90, 28.617187, 174.528)" x="28.617187" y="174.528">Coin Flips Needed</text>
    </g>
   </g>
   <g id="line2d_13">
    <path clip-path="url(#pdac7338fd4)" d="M 73.832727 295.488 
L 77.112066 293.683892 
L 80.391405 291.867649 
L 83.670744 290.039239 
L 86.950083 288.198633 
L 90.229421 286.3458 
L 93.50876 284.48071 
L 96.788099 282.603334 
L 100.067438 280.71364 
L 103.346777 278.811599 
L 106.626116 276.897182 
L 109.905455 274.970357 
L 113.184793 273.031097 
L 116.464132 271.079371 
L 119.743471 269.115149 
L 123.02281 267.138403 
L 126.302149 265.149102 
L 129.581488 263.147218 
L 132.860826 261.132722 
L 136.140165 259.105584 
L 139.419504 257.065775 
L 142.698843 255.013267 
L 145.978182 252.948031 
L 149.257521 250.870037 
L 152.53686 248.779258 
L 155.816198 246.675665 
L 159.095537 244.559229 
L 162.374876 242.429923 
L 165.654215 240.287716 
L 168.933554 238.132583 
L 172.212893 235.964494 
L 175.492231 233.783421 
L 178.77157 231.589337 
L 182.050909 229.382214 
L 185.330248 227.162023 
L 188.609587 224.928738 
L 191.888926 222.682331 
L 195.168264 220.422774 
L 198.447603 218.15004 
L 201.726942 215.864102 
L 205.006281 213.564933 
L 208.28562 211.252504 
L 211.564959 208.926791 
L 214.844298 206.587764 
L 218.123636 204.235399 
L 221.402975 201.869667 
L 224.682314 199.490543 
L 227.961653 197.097999 
L 231.240992 194.69201 
L 234.520331 192.272549 
L 237.799669 189.83959 
L 241.079008 187.393107 
L 244.358347 184.933073 
L 247.637686 182.459462 
L 250.917025 179.972249 
L 254.196364 177.471409 
L 257.475702 174.956914 
L 260.755041 172.42874 
L 264.03438 169.886861 
L 267.313719 167.331252 
L 270.593058 164.761887 
L 273.872397 162.178742 
L 277.151736 159.58179 
L 280.431074 156.971007 
L 283.710413 154.346369 
L 286.989752 151.707849 
L 290.269091 149.055425 
L 293.54843 146.38907 
L 296.827769 143.70876 
L 300.107107 141.014471 
L 303.386446 138.306178 
L 306.665785 135.583858 
L 309.945124 132.847485 
L 313.224463 130.097037 
L 316.503802 127.332488 
L 319.78314 124.553815 
L 323.062479 121.760995 
L 326.341818 118.954003 
L 329.621157 116.132816 
L 332.900496 113.29741 
L 336.179835 110.447762 
L 339.459174 107.583849 
L 342.738512 104.705647 
L 346.017851 101.813133 
L 349.29719 98.906284 
L 352.576529 95.985078 
L 355.855868 93.049491 
L 359.135207 90.099501 
L 362.414545 87.135085 
L 365.693884 84.15622 
L 368.973223 81.162884 
L 372.252562 78.155054 
L 375.531901 75.132709 
L 378.81124 72.095826 
L 382.090579 69.044383 
L 385.369917 65.978358 
L 388.649256 62.897729 
L 391.928595 59.802474 
L 395.207934 56.692571 
L 398.487273 53.568 
" style="fill:none;stroke:#1f77b4;stroke-linecap:square;stroke-width:1.5;"/>
   </g>
   <g id="line2d_14">
    <path clip-path="url(#pdac7338fd4)" d="M 73.832727 206.490452 
L 77.112066 205.600299 
L 80.391405 204.888176 
L 83.670744 203.641961 
L 86.950083 202.573777 
L 90.229421 201.683623 
L 93.50876 201.149531 
L 96.788099 199.903316 
L 100.067438 198.479071 
L 103.346777 198.835132 
L 106.626116 197.054825 
L 109.905455 196.164671 
L 113.184793 194.028303 
L 116.464132 195.80861 
L 119.743471 194.384364 
L 123.02281 189.755566 
L 126.302149 191.535873 
L 129.581488 186.551013 
L 132.860826 186.372983 
L 136.140165 190.64572 
L 139.419504 184.770706 
L 142.698843 181.388123 
L 145.978182 183.524491 
L 149.257521 183.346461 
L 152.53686 179.963877 
L 155.816198 180.319939 
L 159.095537 180.497969 
L 162.374876 175.869171 
L 165.654215 181.566154 
L 168.933554 176.937355 
L 172.212893 175.157048 
L 175.492231 173.19871 
L 178.77157 171.596434 
L 182.050909 172.486588 
L 185.330248 170.884311 
L 188.609587 169.104004 
L 191.888926 170.52825 
L 195.168264 169.638096 
L 198.447603 162.694899 
L 201.726942 162.694899 
L 205.006281 162.87293 
L 208.28562 160.914592 
L 211.564959 156.997916 
L 214.844298 155.039579 
L 218.123636 156.463824 
L 221.402975 153.793364 
L 224.682314 149.520627 
L 227.961653 151.122903 
L 231.240992 150.41078 
L 234.520331 146.316074 
L 237.799669 148.630473 
L 241.079008 141.153184 
L 244.358347 144.535767 
L 247.637686 138.126662 
L 250.917025 140.441061 
L 254.196364 136.168324 
L 257.475702 141.153184 
L 260.755041 137.236508 
L 264.03438 133.853925 
L 267.313719 133.141802 
L 270.593058 130.649372 
L 273.872397 126.376635 
L 277.151736 132.073618 
L 280.431074 128.691034 
L 283.710413 123.528144 
L 286.989752 127.088758 
L 290.269091 125.664512 
L 293.54843 123.706174 
L 296.827769 118.187223 
L 300.107107 118.543284 
L 303.386446 110.887964 
L 306.665785 108.751595 
L 309.945124 107.50538 
L 313.224463 105.903104 
L 316.503802 110.175841 
L 319.78314 105.547043 
L 323.062479 97.713691 
L 326.341818 102.164459 
L 329.621157 94.8652 
L 332.900496 95.577323 
L 336.179835 90.948525 
L 339.459174 97.713691 
L 342.738512 94.8652 
L 346.017851 90.770494 
L 349.29719 93.618985 
L 352.576529 80.978805 
L 355.855868 87.922003 
L 359.135207 80.088652 
L 362.414545 75.993945 
L 365.693884 79.73259 
L 368.973223 71.899239 
L 372.252562 73.323485 
L 375.531901 68.338625 
L 378.81124 61.217397 
L 382.090579 65.846195 
L 385.369917 64.243919 
L 388.649256 58.012844 
L 391.928595 56.588599 
L 395.207934 53.918138 
L 398.487273 56.94466 
" style="fill:none;stroke:#ff7f0e;stroke-linecap:square;stroke-width:1.5;"/>
   </g>
   <g id="patch_3">
    <path d="M 57.6 307.584 
L 57.6 41.472 
" style="fill:none;stroke:#000000;stroke-linecap:square;stroke-linejoin:miter;stroke-width:0.8;"/>
   </g>
   <g id="patch_4">
    <path d="M 414.72 307.584 
L 414.72 41.472 
" style="fill:none;stroke:#000000;stroke-linecap:square;stroke-linejoin:miter;stroke-width:0.8;"/>
   </g>
   <g id="patch_5">
    <path d="M 57.6 307.584 
L 414.72 307.584 
" style="fill:none;stroke:#000000;stroke-linecap:square;stroke-linejoin:miter;stroke-width:0.8;"/>
   </g>
   <g id="patch_6">
    <path d="M 57.6 41.472 
L 414.72 41.472 
" style="fill:none;stroke:#000000;stroke-linecap:square;stroke-linejoin:miter;stroke-width:0.8;"/>
   </g>
   <g id="text_15">
    <text style="font-family:DejaVu Sans;font-size:12px;font-style:normal;font-weight:normal;text-anchor:middle;" transform="rotate(-0, 236.16, 35.472)" x="236.16" y="35.472">Coin Flips for exp(x)*(1-x)</text>
   </g>
   <g id="legend_1">
    <g id="patch_7">
     <path d="M 64.6 78.82825 
L 252.535938 78.82825 
Q 254.535938 78.82825 254.535938 76.82825 
L 254.535938 48.472 
Q 254.535938 46.472 252.535938 46.472 
L 64.6 46.472 
Q 62.6 46.472 62.6 48.472 
L 62.6 76.82825 
Q 62.6 78.82825 64.6 78.82825 
z
" style="fill:#ffffff;opacity:0.8;stroke:#cccccc;stroke-linejoin:miter;"/>
    </g>
    <g id="line2d_15">
     <path d="M 66.6 54.570437 
L 86.6 54.570437 
" style="fill:none;stroke:#1f77b4;stroke-linecap:square;stroke-width:1.5;"/>
    </g>
    <g id="line2d_16"/>
    <g id="text_16">
     <text style="font-family:DejaVu Sans;font-size:10px;font-style:normal;font-weight:normal;text-anchor:start;" transform="rotate(-0, 94.6, 58.070437)" x="94.6" y="58.070437">Coin Flip Lower Bound (Mendo)</text>
    </g>
    <g id="line2d_17">
     <path d="M 66.6 69.248562 
L 86.6 69.248562 
" style="fill:none;stroke:#ff7f0e;stroke-linecap:square;stroke-width:1.5;"/>
    </g>
    <g id="line2d_18"/>
    <g id="text_17">
     <text style="font-family:DejaVu Sans;font-size:10px;font-style:normal;font-weight:normal;text-anchor:start;" transform="rotate(-0, 94.6, 72.748562)" x="94.6" y="72.748562">Avg. Coins Flipped exp(x)*(1-x)</text>
    </g>
   </g>
  </g>
 </g>
 <defs>
  <clipPath id="pdac7338fd4">
   <rect height="266.112" width="357.12" x="57.6" y="41.472"/>
  </clipPath>
 </defs>
</svg>
