<?xml version="1.0" encoding="utf-8" standalone="no"?>
<!DOCTYPE svg PUBLIC "-//W3C//DTD SVG 1.1//EN"
  "http://www.w3.org/Graphics/SVG/1.1/DTD/svg11.dtd">
<!-- Created with matplotlib (https://matplotlib.org/) -->
<svg height="345.6pt" version="1.1" viewBox="0 0 460.8 345.6" width="460.8pt" xmlns="http://www.w3.org/2000/svg" xmlns:xlink="http://www.w3.org/1999/xlink">
 <defs>
  <style type="text/css">
*{stroke-linecap:butt;stroke-linejoin:round;}
  </style>
 </defs>
 <g id="figure_1">
  <g id="patch_1">
   <path d="M 0 345.6 
L 460.8 345.6 
L 460.8 0 
L 0 0 
z
" style="fill:#ffffff;"/>
  </g>
  <g id="axes_1">
   <g id="patch_2">
    <path d="M 57.6 307.584 
L 414.72 307.584 
L 414.72 41.472 
L 57.6 41.472 
z
" style="fill:#ffffff;"/>
   </g>
   <g id="matplotlib.axis_1">
    <g id="xtick_1">
     <g id="line2d_1">
      <defs>
       <path d="M 0 0 
L 0 3.5 
" id="ma8bda01ee9" style="stroke:#000000;stroke-width:0.8;"/>
      </defs>
      <g>
       <use style="stroke:#000000;stroke-width:0.8;" x="73.800255" xlink:href="#ma8bda01ee9" y="307.584"/>
      </g>
     </g>
     <g id="text_1">
      <text style="font-family:DejaVu Sans;font-size:10px;font-style:normal;font-weight:normal;text-anchor:middle;" transform="rotate(-0, 73.800255, 322.182437)" x="73.800255" y="322.182437">0.0</text>
     </g>
    </g>
    <g id="xtick_2">
     <g id="line2d_2">
      <g>
       <use style="stroke:#000000;stroke-width:0.8;" x="138.744153" xlink:href="#ma8bda01ee9" y="307.584"/>
      </g>
     </g>
     <g id="text_2">
      <text style="font-family:DejaVu Sans;font-size:10px;font-style:normal;font-weight:normal;text-anchor:middle;" transform="rotate(-0, 138.744153, 322.182437)" x="138.744153" y="322.182437">0.2</text>
     </g>
    </g>
    <g id="xtick_3">
     <g id="line2d_3">
      <g>
       <use style="stroke:#000000;stroke-width:0.8;" x="203.688051" xlink:href="#ma8bda01ee9" y="307.584"/>
      </g>
     </g>
     <g id="text_3">
      <text style="font-family:DejaVu Sans;font-size:10px;font-style:normal;font-weight:normal;text-anchor:middle;" transform="rotate(-0, 203.688051, 322.182437)" x="203.688051" y="322.182437">0.4</text>
     </g>
    </g>
    <g id="xtick_4">
     <g id="line2d_4">
      <g>
       <use style="stroke:#000000;stroke-width:0.8;" x="268.631949" xlink:href="#ma8bda01ee9" y="307.584"/>
      </g>
     </g>
     <g id="text_4">
      <text style="font-family:DejaVu Sans;font-size:10px;font-style:normal;font-weight:normal;text-anchor:middle;" transform="rotate(-0, 268.631949, 322.182437)" x="268.631949" y="322.182437">0.6</text>
     </g>
    </g>
    <g id="xtick_5">
     <g id="line2d_5">
      <g>
       <use style="stroke:#000000;stroke-width:0.8;" x="333.575847" xlink:href="#ma8bda01ee9" y="307.584"/>
      </g>
     </g>
     <g id="text_5">
      <text style="font-family:DejaVu Sans;font-size:10px;font-style:normal;font-weight:normal;text-anchor:middle;" transform="rotate(-0, 333.575847, 322.182437)" x="333.575847" y="322.182437">0.8</text>
     </g>
    </g>
    <g id="xtick_6">
     <g id="line2d_6">
      <g>
       <use style="stroke:#000000;stroke-width:0.8;" x="398.519745" xlink:href="#ma8bda01ee9" y="307.584"/>
      </g>
     </g>
     <g id="text_6">
      <text style="font-family:DejaVu Sans;font-size:10px;font-style:normal;font-weight:normal;text-anchor:middle;" transform="rotate(-0, 398.519745, 322.182437)" x="398.519745" y="322.182437">1.0</text>
     </g>
    </g>
    <g id="text_7">
     <text style="font-family:DejaVu Sans;font-size:10px;font-style:normal;font-weight:normal;text-anchor:middle;" transform="rotate(-0, 236.16, 335.860562)" x="236.16" y="335.860562">Input Coin's Heads Probability (λ)</text>
    </g>
   </g>
   <g id="matplotlib.axis_2">
    <g id="ytick_1">
     <g id="line2d_7">
      <defs>
       <path d="M 0 0 
L -3.5 0 
" id="m9769a54efc" style="stroke:#000000;stroke-width:0.8;"/>
      </defs>
      <g>
       <use style="stroke:#000000;stroke-width:0.8;" x="57.6" xlink:href="#m9769a54efc" y="295.48806"/>
      </g>
     </g>
     <g id="text_8">
      <text style="font-family:DejaVu Sans;font-size:10px;font-style:normal;font-weight:normal;text-anchor:end;" transform="rotate(-0, 50.6, 299.287278)" x="50.6" y="299.287278">0</text>
     </g>
    </g>
    <g id="ytick_2">
     <g id="line2d_8">
      <g>
       <use style="stroke:#000000;stroke-width:0.8;" x="57.6" xlink:href="#m9769a54efc" y="244.202082"/>
      </g>
     </g>
     <g id="text_9">
      <text style="font-family:DejaVu Sans;font-size:10px;font-style:normal;font-weight:normal;text-anchor:end;" transform="rotate(-0, 50.6, 248.001301)" x="50.6" y="248.001301">50</text>
     </g>
    </g>
    <g id="ytick_3">
     <g id="line2d_9">
      <g>
       <use style="stroke:#000000;stroke-width:0.8;" x="57.6" xlink:href="#m9769a54efc" y="192.916104"/>
      </g>
     </g>
     <g id="text_10">
      <text style="font-family:DejaVu Sans;font-size:10px;font-style:normal;font-weight:normal;text-anchor:end;" transform="rotate(-0, 50.6, 196.715323)" x="50.6" y="196.715323">100</text>
     </g>
    </g>
    <g id="ytick_4">
     <g id="line2d_10">
      <g>
       <use style="stroke:#000000;stroke-width:0.8;" x="57.6" xlink:href="#m9769a54efc" y="141.630127"/>
      </g>
     </g>
     <g id="text_11">
      <text style="font-family:DejaVu Sans;font-size:10px;font-style:normal;font-weight:normal;text-anchor:end;" transform="rotate(-0, 50.6, 145.429345)" x="50.6" y="145.429345">150</text>
     </g>
    </g>
    <g id="ytick_5">
     <g id="line2d_11">
      <g>
       <use style="stroke:#000000;stroke-width:0.8;" x="57.6" xlink:href="#m9769a54efc" y="90.344149"/>
      </g>
     </g>
     <g id="text_12">
      <text style="font-family:DejaVu Sans;font-size:10px;font-style:normal;font-weight:normal;text-anchor:end;" transform="rotate(-0, 50.6, 94.143368)" x="50.6" y="94.143368">200</text>
     </g>
    </g>
    <g id="text_13">
     <text style="font-family:DejaVu Sans;font-size:10px;font-style:normal;font-weight:normal;text-anchor:middle;" transform="rotate(-90, 25.432813, 174.528)" x="25.432813" y="174.528">Coin Flips Needed</text>
    </g>
   </g>
   <g id="line2d_12">
    <path clip-path="url(#p5169f625d6)" d="M 73.832727 294.462494 
L 77.112066 294.47797 
L 80.391405 294.493324 
L 83.670744 294.508558 
L 86.950083 294.523671 
L 90.229421 294.538664 
L 93.50876 294.553538 
L 96.788099 294.568292 
L 100.067438 294.582929 
L 103.346777 294.597448 
L 106.626116 294.611849 
L 109.905455 294.626134 
L 113.184793 294.640302 
L 116.464132 294.654355 
L 119.743471 294.668292 
L 123.02281 294.682115 
L 126.302149 294.695824 
L 129.581488 294.709419 
L 132.860826 294.722902 
L 136.140165 294.736272 
L 139.419504 294.749529 
L 142.698843 294.762676 
L 145.978182 294.775711 
L 149.257521 294.788636 
L 152.53686 294.801452 
L 155.816198 294.814158 
L 159.095537 294.826755 
L 162.374876 294.839244 
L 165.654215 294.851625 
L 168.933554 294.863899 
L 172.212893 294.876067 
L 175.492231 294.888128 
L 178.77157 294.900084 
L 182.050909 294.911935 
L 185.330248 294.923681 
L 188.609587 294.935323 
L 191.888926 294.946862 
L 195.168264 294.958297 
L 198.447603 294.969631 
L 201.726942 294.980862 
L 205.006281 294.991992 
L 208.28562 295.003022 
L 211.564959 295.013951 
L 214.844298 295.02478 
L 218.123636 295.03551 
L 221.402975 295.046141 
L 224.682314 295.056674 
L 227.961653 295.06711 
L 231.240992 295.077448 
L 234.520331 295.08769 
L 237.799669 295.097835 
L 241.079008 295.107885 
L 244.358347 295.11784 
L 247.637686 295.127701 
L 250.917025 295.137467 
L 254.196364 295.14714 
L 257.475702 295.156721 
L 260.755041 295.166208 
L 264.03438 295.175604 
L 267.313719 295.184908 
L 270.593058 295.194122 
L 273.872397 295.203245 
L 277.151736 295.212278 
L 280.431074 295.221222 
L 283.710413 295.230077 
L 286.989752 295.238844 
L 290.269091 295.247523 
L 293.54843 295.256115 
L 296.827769 295.26462 
L 300.107107 295.273039 
L 303.386446 295.281372 
L 306.665785 295.28962 
L 309.945124 295.297783 
L 313.224463 295.305862 
L 316.503802 295.313857 
L 319.78314 295.321769 
L 323.062479 295.329598 
L 326.341818 295.337346 
L 329.621157 295.345011 
L 332.900496 295.352595 
L 336.179835 295.360099 
L 339.459174 295.367523 
L 342.738512 295.374866 
L 346.017851 295.382131 
L 349.29719 295.389317 
L 352.576529 295.396425 
L 355.855868 295.403455 
L 359.135207 295.410408 
L 362.414545 295.417284 
L 365.693884 295.424084 
L 368.973223 295.430808 
L 372.252562 295.437457 
L 375.531901 295.444032 
L 378.81124 295.450532 
L 382.090579 295.456958 
L 385.369917 295.463311 
L 388.649256 295.469591 
L 391.928595 295.475799 
L 395.207934 295.481935 
L 398.487273 295.488 
" style="fill:none;stroke:#1f77b4;stroke-linecap:square;stroke-width:1.5;"/>
   </g>
   <g id="line2d_13">
    <path clip-path="url(#p5169f625d6)" d="M 73.832727 294.46234 
L 77.112066 294.456186 
L 80.391405 294.441826 
L 83.670744 294.429517 
L 86.950083 294.400797 
L 90.229421 294.398746 
L 93.50876 294.4049 
L 96.788099 294.37618 
L 100.067438 294.351562 
L 103.346777 294.355665 
L 106.626116 294.363871 
L 109.905455 294.306431 
L 113.184793 294.314637 
L 116.464132 294.312585 
L 119.743471 294.318739 
L 123.02281 294.265402 
L 126.302149 294.23463 
L 129.581488 294.238733 
L 132.860826 294.226425 
L 136.140165 294.185396 
L 139.419504 294.187447 
L 142.698843 294.14847 
L 145.978182 294.146419 
L 149.257521 294.050001 
L 152.53686 294.142316 
L 155.816198 293.994612 
L 159.095537 294.054104 
L 162.374876 293.959738 
L 165.654215 293.955635 
L 168.933554 293.869474 
L 172.212893 293.947429 
L 175.492231 293.916657 
L 178.77157 293.844857 
L 182.050909 293.795622 
L 185.330248 293.8346 
L 188.609587 293.789468 
L 191.888926 293.674588 
L 195.168264 293.699205 
L 198.447603 293.688948 
L 201.726942 293.680742 
L 205.006281 293.537141 
L 208.28562 293.50637 
L 211.564959 293.475598 
L 214.844298 293.477649 
L 218.123636 293.288917 
L 221.402975 293.295071 
L 224.682314 293.262248 
L 227.961653 293.124802 
L 231.240992 293.053001 
L 234.520331 293.001715 
L 237.799669 292.771954 
L 241.079008 292.634508 
L 244.358347 292.819137 
L 247.637686 292.611942 
L 250.917025 292.591428 
L 254.196364 292.587325 
L 257.475702 292.511422 
L 260.755041 292.570913 
L 264.03438 292.127802 
L 267.313719 292.244734 
L 270.593058 291.723669 
L 273.872397 291.832395 
L 277.151736 291.424159 
L 280.431074 291.45493 
L 283.710413 291.461085 
L 286.989752 290.864116 
L 290.269091 290.718464 
L 293.54843 290.523577 
L 296.827769 290.037386 
L 300.107107 290.047643 
L 303.386446 289.963534 
L 306.665785 289.559401 
L 309.945124 288.671128 
L 313.224463 288.40444 
L 316.503802 286.728415 
L 319.78314 287.756186 
L 323.062479 286.677129 
L 326.341818 286.139652 
L 329.621157 285.152909 
L 332.900496 284.34054 
L 336.179835 282.494244 
L 339.459174 282.23166 
L 342.738512 280.504348 
L 346.017851 277.835426 
L 349.29719 278.670362 
L 352.576529 272.18166 
L 355.855868 271.022597 
L 359.135207 265.338059 
L 362.414545 259.329394 
L 365.693884 257.823638 
L 368.973223 241.623423 
L 372.252562 231.94063 
L 375.531901 216.983588 
L 378.81124 191.434965 
L 382.090579 153.75208 
L 385.369917 53.568 
" style="fill:none;stroke:#ff7f0e;stroke-linecap:square;stroke-width:1.5;"/>
   </g>
   <g id="patch_3">
    <path d="M 57.6 307.584 
L 57.6 41.472 
" style="fill:none;stroke:#000000;stroke-linecap:square;stroke-linejoin:miter;stroke-width:0.8;"/>
   </g>
   <g id="patch_4">
    <path d="M 414.72 307.584 
L 414.72 41.472 
" style="fill:none;stroke:#000000;stroke-linecap:square;stroke-linejoin:miter;stroke-width:0.8;"/>
   </g>
   <g id="patch_5">
    <path d="M 57.6 307.584 
L 414.72 307.584 
" style="fill:none;stroke:#000000;stroke-linecap:square;stroke-linejoin:miter;stroke-width:0.8;"/>
   </g>
   <g id="patch_6">
    <path d="M 57.6 41.472 
L 414.72 41.472 
" style="fill:none;stroke:#000000;stroke-linecap:square;stroke-linejoin:miter;stroke-width:0.8;"/>
   </g>
   <g id="text_14">
    <text style="font-family:DejaVu Sans;font-size:12px;font-style:normal;font-weight:normal;text-anchor:middle;" transform="rotate(-0, 236.16, 35.472)" x="236.16" y="35.472">Coin Flips for exp(-x)</text>
   </g>
   <g id="legend_1">
    <g id="patch_7">
     <path d="M 64.6 78.82825 
L 294.095312 78.82825 
Q 296.095312 78.82825 296.095312 76.82825 
L 296.095312 48.472 
Q 296.095312 46.472 294.095312 46.472 
L 64.6 46.472 
Q 62.6 46.472 62.6 48.472 
L 62.6 76.82825 
Q 62.6 78.82825 64.6 78.82825 
z
" style="fill:#ffffff;opacity:0.8;stroke:#cccccc;stroke-linejoin:miter;"/>
    </g>
    <g id="line2d_14">
     <path d="M 66.6 54.570437 
L 86.6 54.570437 
" style="fill:none;stroke:#1f77b4;stroke-linecap:square;stroke-width:1.5;"/>
    </g>
    <g id="line2d_15"/>
    <g id="text_15">
     <text style="font-family:DejaVu Sans;font-size:10px;font-style:normal;font-weight:normal;text-anchor:start;" transform="rotate(-0, 94.6, 58.070437)" x="94.6" y="58.070437">Coin Flip Lower Bound</text>
    </g>
    <g id="line2d_16">
     <path d="M 66.6 69.248562 
L 86.6 69.248562 
" style="fill:none;stroke:#ff7f0e;stroke-linecap:square;stroke-width:1.5;"/>
    </g>
    <g id="line2d_17"/>
    <g id="text_16">
     <text style="font-family:DejaVu Sans;font-size:10px;font-style:normal;font-weight:normal;text-anchor:start;" transform="rotate(-0, 94.6, 72.748562)" x="94.6" y="72.748562">Average Coins Flipped exp(-x) (Flajolet)</text>
    </g>
   </g>
  </g>
 </g>
 <defs>
  <clipPath id="p5169f625d6">
   <rect height="266.112" width="357.12" x="57.6" y="41.472"/>
  </clipPath>
 </defs>
</svg>
