<?xml version="1.0" encoding="utf-8" standalone="no"?>
<!DOCTYPE svg PUBLIC "-//W3C//DTD SVG 1.1//EN"
  "http://www.w3.org/Graphics/SVG/1.1/DTD/svg11.dtd">
<!-- Created with matplotlib (https://matplotlib.org/) -->
<svg height="252pt" version="1.1" viewBox="0 0 324 252" width="324pt" xmlns="http://www.w3.org/2000/svg" xmlns:xlink="http://www.w3.org/1999/xlink">
 <defs>
  <style type="text/css">
*{stroke-linecap:butt;stroke-linejoin:round;}
  </style>
 </defs>
 <g id="figure_1">
  <g id="patch_1">
   <path d="M 0 252 
L 324 252 
L 324 0 
L 0 0 
z
" style="fill:#ffffff;"/>
  </g>
  <g id="axes_1">
   <g id="patch_2">
    <path d="M 40.5 224.28 
L 291.6 224.28 
L 291.6 30.24 
L 40.5 30.24 
z
" style="fill:#ffffff;"/>
   </g>
   <g id="matplotlib.axis_1">
    <g id="xtick_1">
     <g id="line2d_1">
      <defs>
       <path d="M 0 0 
L 0 3.5 
" id="m54e8243daa" style="stroke:#000000;stroke-width:0.8;"/>
      </defs>
      <g>
       <use style="stroke:#000000;stroke-width:0.8;" x="51.890805" xlink:href="#m54e8243daa" y="224.28"/>
      </g>
     </g>
     <g id="text_1">
      <text style="font-family:DejaVu Sans;font-size:10px;font-style:normal;font-weight:normal;text-anchor:middle;" transform="rotate(-0, 51.890805, 238.878438)" x="51.890805" y="238.878438">0.0</text>
     </g>
    </g>
    <g id="xtick_2">
     <g id="line2d_2">
      <g>
       <use style="stroke:#000000;stroke-width:0.8;" x="97.554483" xlink:href="#m54e8243daa" y="224.28"/>
      </g>
     </g>
     <g id="text_2">
      <text style="font-family:DejaVu Sans;font-size:10px;font-style:normal;font-weight:normal;text-anchor:middle;" transform="rotate(-0, 97.554483, 238.878438)" x="97.554483" y="238.878438">0.2</text>
     </g>
    </g>
    <g id="xtick_3">
     <g id="line2d_3">
      <g>
       <use style="stroke:#000000;stroke-width:0.8;" x="143.218161" xlink:href="#m54e8243daa" y="224.28"/>
      </g>
     </g>
     <g id="text_3">
      <text style="font-family:DejaVu Sans;font-size:10px;font-style:normal;font-weight:normal;text-anchor:middle;" transform="rotate(-0, 143.218161, 238.878438)" x="143.218161" y="238.878438">0.4</text>
     </g>
    </g>
    <g id="xtick_4">
     <g id="line2d_4">
      <g>
       <use style="stroke:#000000;stroke-width:0.8;" x="188.881839" xlink:href="#m54e8243daa" y="224.28"/>
      </g>
     </g>
     <g id="text_4">
      <text style="font-family:DejaVu Sans;font-size:10px;font-style:normal;font-weight:normal;text-anchor:middle;" transform="rotate(-0, 188.881839, 238.878438)" x="188.881839" y="238.878438">0.6</text>
     </g>
    </g>
    <g id="xtick_5">
     <g id="line2d_5">
      <g>
       <use style="stroke:#000000;stroke-width:0.8;" x="234.545517" xlink:href="#m54e8243daa" y="224.28"/>
      </g>
     </g>
     <g id="text_5">
      <text style="font-family:DejaVu Sans;font-size:10px;font-style:normal;font-weight:normal;text-anchor:middle;" transform="rotate(-0, 234.545517, 238.878438)" x="234.545517" y="238.878438">0.8</text>
     </g>
    </g>
    <g id="xtick_6">
     <g id="line2d_6">
      <g>
       <use style="stroke:#000000;stroke-width:0.8;" x="280.209195" xlink:href="#m54e8243daa" y="224.28"/>
      </g>
     </g>
     <g id="text_6">
      <text style="font-family:DejaVu Sans;font-size:10px;font-style:normal;font-weight:normal;text-anchor:middle;" transform="rotate(-0, 280.209195, 238.878438)" x="280.209195" y="238.878438">1.0</text>
     </g>
    </g>
    <g id="text_7">
     <text style="font-family:DejaVu Sans;font-size:10px;font-style:normal;font-weight:normal;text-anchor:middle;" transform="rotate(-0, 166.05, 252.556563)" x="166.05" y="252.556563">Input Coin's Heads Probability (λ)</text>
    </g>
   </g>
   <g id="matplotlib.axis_2">
    <g id="ytick_1">
     <g id="line2d_7">
      <defs>
       <path d="M 0 0 
L -3.5 0 
" id="ma7d118f683" style="stroke:#000000;stroke-width:0.8;"/>
      </defs>
      <g>
       <use style="stroke:#000000;stroke-width:0.8;" x="40.5" xlink:href="#ma7d118f683" y="201.890769"/>
      </g>
     </g>
     <g id="text_8">
      <text style="font-family:DejaVu Sans;font-size:10px;font-style:normal;font-weight:normal;text-anchor:end;" transform="rotate(-0, 33.5, 205.689988)" x="33.5" y="205.689988">0.4</text>
     </g>
    </g>
    <g id="ytick_2">
     <g id="line2d_8">
      <g>
       <use style="stroke:#000000;stroke-width:0.8;" x="40.5" xlink:href="#ma7d118f683" y="174.752308"/>
      </g>
     </g>
     <g id="text_9">
      <text style="font-family:DejaVu Sans;font-size:10px;font-style:normal;font-weight:normal;text-anchor:end;" transform="rotate(-0, 33.5, 178.551526)" x="33.5" y="178.551526">0.5</text>
     </g>
    </g>
    <g id="ytick_3">
     <g id="line2d_9">
      <g>
       <use style="stroke:#000000;stroke-width:0.8;" x="40.5" xlink:href="#ma7d118f683" y="147.613846"/>
      </g>
     </g>
     <g id="text_10">
      <text style="font-family:DejaVu Sans;font-size:10px;font-style:normal;font-weight:normal;text-anchor:end;" transform="rotate(-0, 33.5, 151.413065)" x="33.5" y="151.413065">0.6</text>
     </g>
    </g>
    <g id="ytick_4">
     <g id="line2d_10">
      <g>
       <use style="stroke:#000000;stroke-width:0.8;" x="40.5" xlink:href="#ma7d118f683" y="120.475385"/>
      </g>
     </g>
     <g id="text_11">
      <text style="font-family:DejaVu Sans;font-size:10px;font-style:normal;font-weight:normal;text-anchor:end;" transform="rotate(-0, 33.5, 124.274603)" x="33.5" y="124.274603">0.7</text>
     </g>
    </g>
    <g id="ytick_5">
     <g id="line2d_11">
      <g>
       <use style="stroke:#000000;stroke-width:0.8;" x="40.5" xlink:href="#ma7d118f683" y="93.336923"/>
      </g>
     </g>
     <g id="text_12">
      <text style="font-family:DejaVu Sans;font-size:10px;font-style:normal;font-weight:normal;text-anchor:end;" transform="rotate(-0, 33.5, 97.136142)" x="33.5" y="97.136142">0.8</text>
     </g>
    </g>
    <g id="ytick_6">
     <g id="line2d_12">
      <g>
       <use style="stroke:#000000;stroke-width:0.8;" x="40.5" xlink:href="#ma7d118f683" y="66.198462"/>
      </g>
     </g>
     <g id="text_13">
      <text style="font-family:DejaVu Sans;font-size:10px;font-style:normal;font-weight:normal;text-anchor:end;" transform="rotate(-0, 33.5, 69.99768)" x="33.5" y="69.99768">0.9</text>
     </g>
    </g>
    <g id="ytick_7">
     <g id="line2d_13">
      <g>
       <use style="stroke:#000000;stroke-width:0.8;" x="40.5" xlink:href="#ma7d118f683" y="39.06"/>
      </g>
     </g>
     <g id="text_14">
      <text style="font-family:DejaVu Sans;font-size:10px;font-style:normal;font-weight:normal;text-anchor:end;" transform="rotate(-0, 33.5, 42.859219)" x="33.5" y="42.859219">1.0</text>
     </g>
    </g>
    <g id="text_15">
     <text style="font-family:DejaVu Sans;font-size:10px;font-style:normal;font-weight:normal;text-anchor:middle;" transform="rotate(-90, 11.517187, 127.26)" x="11.517187" y="127.26">Simulated Mean / Function Value</text>
    </g>
   </g>
   <g id="line2d_14">
    <path clip-path="url(#p6b9978ce92)" d="M 51.913636 39.087137 
L 54.219421 41.813782 
L 56.525207 44.513029 
L 58.830992 47.185154 
L 61.136777 49.830429 
L 63.442562 52.449124 
L 65.748347 55.041505 
L 68.054132 57.607838 
L 70.359917 60.148384 
L 72.665702 62.663403 
L 74.971488 65.153149 
L 77.277273 67.617879 
L 79.583058 70.057842 
L 81.888843 72.473289 
L 84.194628 74.864464 
L 86.500413 77.231613 
L 88.806198 79.574976 
L 91.111983 81.894792 
L 93.417769 84.191299 
L 95.723554 86.46473 
L 98.029339 88.715317 
L 100.335124 90.94329 
L 102.640909 93.148876 
L 104.946694 95.332299 
L 107.252479 97.493784 
L 109.558264 99.633549 
L 111.86405 101.751814 
L 114.169835 103.848794 
L 116.47562 105.924703 
L 118.781405 107.979753 
L 121.08719 110.014154 
L 123.392975 112.028112 
L 125.69876 114.021834 
L 128.004545 115.995523 
L 130.310331 117.94938 
L 132.616116 119.883604 
L 134.921901 121.798393 
L 137.227686 123.693941 
L 139.533471 125.570443 
L 141.839256 127.42809 
L 144.145041 129.26707 
L 146.450826 131.087572 
L 148.756612 132.889782 
L 151.062397 134.673882 
L 153.368182 136.440056 
L 155.673967 138.188482 
L 157.979752 139.919341 
L 160.285537 141.632807 
L 162.591322 143.329056 
L 164.897107 145.008261 
L 167.202893 146.670593 
L 169.508678 148.316222 
L 171.814463 149.945315 
L 174.120248 151.558038 
L 176.426033 153.154557 
L 178.731818 154.735034 
L 181.037603 156.29963 
L 183.343388 157.848504 
L 185.649174 159.381815 
L 187.954959 160.899719 
L 190.260744 162.402371 
L 192.566529 163.889924 
L 194.872314 165.36253 
L 197.178099 166.820339 
L 199.483884 168.2635 
L 201.789669 169.692159 
L 204.095455 171.106463 
L 206.40124 172.506556 
L 208.707025 173.892581 
L 211.01281 175.264679 
L 213.318595 176.622989 
L 215.62438 177.967651 
L 217.930165 179.298802 
L 220.23595 180.616576 
L 222.541736 181.92111 
L 224.847521 183.212536 
L 227.153306 184.490985 
L 229.459091 185.756588 
L 231.764876 187.009474 
L 234.070661 188.249771 
L 236.376446 189.477605 
L 238.682231 190.693102 
L 240.988017 191.896385 
L 243.293802 193.087577 
L 245.599587 194.2668 
L 247.905372 195.434174 
L 250.211157 196.589818 
L 252.516942 197.73385 
L 254.822727 198.866387 
L 257.128512 199.987543 
L 259.434298 201.097434 
L 261.740083 202.196173 
L 264.045868 203.283871 
L 266.351653 204.36064 
L 268.657438 205.42659 
L 270.963223 206.481828 
L 273.269008 207.526464 
L 275.574793 208.560602 
L 277.880579 209.58435 
L 280.186364 210.597811 
" style="fill:none;stroke:#1f77b4;stroke-linecap:square;stroke-width:1.5;"/>
   </g>
   <g id="line2d_15">
    <path clip-path="url(#p6b9978ce92)" d="M 51.913636 39.06 
L 54.219421 40.145538 
L 56.525207 43.944923 
L 58.830992 45.030462 
L 61.136777 51.000923 
L 63.442562 52.629231 
L 65.748347 52.629231 
L 68.054132 59.142462 
L 70.359917 66.741231 
L 72.665702 64.570154 
L 74.971488 61.856308 
L 77.277273 61.313538 
L 79.583058 67.826769 
L 81.888843 74.34 
L 84.194628 71.626154 
L 86.500413 77.596615 
L 88.806198 72.711692 
L 91.111983 81.938769 
L 93.417769 82.481538 
L 95.723554 80.310462 
L 98.029339 86.823692 
L 100.335124 91.165846 
L 102.640909 88.994769 
L 104.946694 93.336923 
L 107.252479 98.764615 
L 109.558264 95.508 
L 111.86405 93.336923 
L 114.169835 108.534462 
L 116.47562 103.649538 
L 118.781405 113.419385 
L 121.08719 91.165846 
L 123.392975 113.962154 
L 125.69876 115.047692 
L 128.004545 117.761538 
L 130.310331 108.534462 
L 132.616116 125.903077 
L 134.921901 123.732 
L 137.227686 126.988615 
L 139.533471 137.844 
L 141.839256 127.531385 
L 144.145041 139.472308 
L 146.450826 129.702462 
L 148.756612 124.274769 
L 151.062397 132.959077 
L 153.368182 135.672923 
L 155.673967 136.758462 
L 157.979752 136.215692 
L 160.285537 137.301231 
L 162.591322 144.9 
L 164.897107 143.814462 
L 167.202893 148.699385 
L 169.508678 157.383692 
L 171.814463 151.956 
L 174.120248 147.071077 
L 176.426033 145.442769 
L 178.731818 160.640308 
L 181.037603 163.354154 
L 183.343388 167.153538 
L 185.649174 168.781846 
L 187.954959 167.696308 
L 190.260744 168.239077 
L 192.566529 157.383692 
L 194.872314 172.038462 
L 197.178099 163.354154 
L 199.483884 172.038462 
L 201.789669 178.551692 
L 204.095455 178.551692 
L 206.40124 180.18 
L 208.707025 169.324615 
L 211.01281 175.837846 
L 213.318595 175.295077 
L 215.62438 176.923385 
L 217.930165 187.778769 
L 220.23595 177.466154 
L 222.541736 176.380615 
L 224.847521 181.808308 
L 227.153306 192.120923 
L 229.459091 193.749231 
L 231.764876 180.18 
L 234.070661 188.864308 
L 236.376446 189.949846 
L 238.682231 194.834769 
L 240.988017 193.749231 
L 243.293802 184.522154 
L 245.599587 202.976308 
L 247.905372 204.061846 
L 250.211157 207.861231 
L 252.516942 210.575077 
L 254.822727 185.064923 
L 257.128512 191.578154 
L 259.434298 210.032308 
L 261.740083 215.46 
L 264.045868 202.433538 
L 266.351653 199.176923 
L 268.657438 205.147385 
L 270.963223 205.147385 
L 273.269008 205.690154 
" style="fill:none;stroke:#ff7f0e;stroke-linecap:square;stroke-width:1.5;"/>
   </g>
   <g id="patch_3">
    <path d="M 40.5 224.28 
L 40.5 30.24 
" style="fill:none;stroke:#000000;stroke-linecap:square;stroke-linejoin:miter;stroke-width:0.8;"/>
   </g>
   <g id="patch_4">
    <path d="M 291.6 224.28 
L 291.6 30.24 
" style="fill:none;stroke:#000000;stroke-linecap:square;stroke-linejoin:miter;stroke-width:0.8;"/>
   </g>
   <g id="patch_5">
    <path d="M 40.5 224.28 
L 291.6 224.28 
" style="fill:none;stroke:#000000;stroke-linecap:square;stroke-linejoin:miter;stroke-width:0.8;"/>
   </g>
   <g id="patch_6">
    <path d="M 40.5 30.24 
L 291.6 30.24 
" style="fill:none;stroke:#000000;stroke-linecap:square;stroke-linejoin:miter;stroke-width:0.8;"/>
   </g>
   <g id="text_16">
    <text style="font-family:DejaVu Sans;font-size:12px;font-style:normal;font-weight:normal;text-anchor:middle;" transform="rotate(-0, 166.05, 24.24)" x="166.05" y="24.24">Expected Value in exp(-x) (Flajolet) Algorithm</text>
   </g>
   <g id="legend_1">
    <g id="patch_7">
     <path d="M 72.684375 67.59625 
L 284.6 67.59625 
Q 286.6 67.59625 286.6 65.59625 
L 286.6 37.24 
Q 286.6 35.24 284.6 35.24 
L 72.684375 35.24 
Q 70.684375 35.24 70.684375 37.24 
L 70.684375 65.59625 
Q 70.684375 67.59625 72.684375 67.59625 
z
" style="fill:#ffffff;opacity:0.8;stroke:#cccccc;stroke-linejoin:miter;"/>
    </g>
    <g id="line2d_16">
     <path d="M 74.684375 43.338438 
L 94.684375 43.338438 
" style="fill:none;stroke:#1f77b4;stroke-linecap:square;stroke-width:1.5;"/>
    </g>
    <g id="line2d_17"/>
    <g id="text_17">
     <text style="font-family:DejaVu Sans;font-size:10px;font-style:normal;font-weight:normal;text-anchor:start;" transform="rotate(-0, 102.684375, 46.838438)" x="102.684375" y="46.838438">exp(-x)</text>
    </g>
    <g id="line2d_18">
     <path d="M 74.684375 58.016563 
L 94.684375 58.016563 
" style="fill:none;stroke:#ff7f0e;stroke-linecap:square;stroke-width:1.5;"/>
    </g>
    <g id="line2d_19"/>
    <g id="text_18">
     <text style="font-family:DejaVu Sans;font-size:10px;font-style:normal;font-weight:normal;text-anchor:start;" transform="rotate(-0, 102.684375, 61.516563)" x="102.684375" y="61.516563">Simulated Mean of exp(-x) (Flajolet)</text>
    </g>
   </g>
  </g>
 </g>
 <defs>
  <clipPath id="p6b9978ce92">
   <rect height="194.04" width="251.1" x="40.5" y="30.24"/>
  </clipPath>
 </defs>
</svg>
