<?xml version="1.0" encoding="utf-8" standalone="no"?>
<!DOCTYPE svg PUBLIC "-//W3C//DTD SVG 1.1//EN"
  "http://www.w3.org/Graphics/SVG/1.1/DTD/svg11.dtd">
<!-- Created with matplotlib (https://matplotlib.org/) -->
<svg height="252pt" version="1.1" viewBox="0 0 324 252" width="324pt" xmlns="http://www.w3.org/2000/svg" xmlns:xlink="http://www.w3.org/1999/xlink">
 <defs>
  <style type="text/css">
*{stroke-linecap:butt;stroke-linejoin:round;}
  </style>
 </defs>
 <g id="figure_1">
  <g id="patch_1">
   <path d="M 0 252 
L 324 252 
L 324 0 
L 0 0 
z
" style="fill:#ffffff;"/>
  </g>
  <g id="axes_1">
   <g id="patch_2">
    <path d="M 40.5 224.28 
L 291.6 224.28 
L 291.6 30.24 
L 40.5 30.24 
z
" style="fill:#ffffff;"/>
   </g>
   <g id="matplotlib.axis_1">
    <g id="xtick_1">
     <g id="line2d_1">
      <defs>
       <path d="M 0 0 
L 0 3.5 
" id="m79ab971b4d" style="stroke:#000000;stroke-width:0.8;"/>
      </defs>
      <g>
       <use style="stroke:#000000;stroke-width:0.8;" x="51.684906" xlink:href="#m79ab971b4d" y="224.28"/>
      </g>
     </g>
     <g id="text_1">
      <text style="font-family:DejaVu Sans;font-size:10px;font-style:normal;font-weight:normal;text-anchor:middle;" transform="rotate(-0, 51.684906, 238.878438)" x="51.684906" y="238.878438">0.0</text>
     </g>
    </g>
    <g id="xtick_2">
     <g id="line2d_2">
      <g>
       <use style="stroke:#000000;stroke-width:0.8;" x="97.430944" xlink:href="#m79ab971b4d" y="224.28"/>
      </g>
     </g>
     <g id="text_2">
      <text style="font-family:DejaVu Sans;font-size:10px;font-style:normal;font-weight:normal;text-anchor:middle;" transform="rotate(-0, 97.430944, 238.878438)" x="97.430944" y="238.878438">0.2</text>
     </g>
    </g>
    <g id="xtick_3">
     <g id="line2d_3">
      <g>
       <use style="stroke:#000000;stroke-width:0.8;" x="143.176981" xlink:href="#m79ab971b4d" y="224.28"/>
      </g>
     </g>
     <g id="text_3">
      <text style="font-family:DejaVu Sans;font-size:10px;font-style:normal;font-weight:normal;text-anchor:middle;" transform="rotate(-0, 143.176981, 238.878438)" x="143.176981" y="238.878438">0.4</text>
     </g>
    </g>
    <g id="xtick_4">
     <g id="line2d_4">
      <g>
       <use style="stroke:#000000;stroke-width:0.8;" x="188.923019" xlink:href="#m79ab971b4d" y="224.28"/>
      </g>
     </g>
     <g id="text_4">
      <text style="font-family:DejaVu Sans;font-size:10px;font-style:normal;font-weight:normal;text-anchor:middle;" transform="rotate(-0, 188.923019, 238.878438)" x="188.923019" y="238.878438">0.6</text>
     </g>
    </g>
    <g id="xtick_5">
     <g id="line2d_5">
      <g>
       <use style="stroke:#000000;stroke-width:0.8;" x="234.669056" xlink:href="#m79ab971b4d" y="224.28"/>
      </g>
     </g>
     <g id="text_5">
      <text style="font-family:DejaVu Sans;font-size:10px;font-style:normal;font-weight:normal;text-anchor:middle;" transform="rotate(-0, 234.669056, 238.878438)" x="234.669056" y="238.878438">0.8</text>
     </g>
    </g>
    <g id="xtick_6">
     <g id="line2d_6">
      <g>
       <use style="stroke:#000000;stroke-width:0.8;" x="280.415094" xlink:href="#m79ab971b4d" y="224.28"/>
      </g>
     </g>
     <g id="text_6">
      <text style="font-family:DejaVu Sans;font-size:10px;font-style:normal;font-weight:normal;text-anchor:middle;" transform="rotate(-0, 280.415094, 238.878438)" x="280.415094" y="238.878438">1.0</text>
     </g>
    </g>
    <g id="text_7">
     <text style="font-family:DejaVu Sans;font-size:10px;font-style:normal;font-weight:normal;text-anchor:middle;" transform="rotate(-0, 166.05, 252.556563)" x="166.05" y="252.556563">Input Coin's Heads Probability (λ)</text>
    </g>
   </g>
   <g id="matplotlib.axis_2">
    <g id="ytick_1">
     <g id="line2d_7">
      <defs>
       <path d="M 0 0 
L -3.5 0 
" id="m92fabd609e" style="stroke:#000000;stroke-width:0.8;"/>
      </defs>
      <g>
       <use style="stroke:#000000;stroke-width:0.8;" x="40.5" xlink:href="#m92fabd609e" y="215.590094"/>
      </g>
     </g>
     <g id="text_8">
      <text style="font-family:DejaVu Sans;font-size:10px;font-style:normal;font-weight:normal;text-anchor:end;" transform="rotate(-0, 33.5, 219.389312)" x="33.5" y="219.389312">0.0</text>
     </g>
    </g>
    <g id="ytick_2">
     <g id="line2d_8">
      <g>
       <use style="stroke:#000000;stroke-width:0.8;" x="40.5" xlink:href="#m92fabd609e" y="183.077535"/>
      </g>
     </g>
     <g id="text_9">
      <text style="font-family:DejaVu Sans;font-size:10px;font-style:normal;font-weight:normal;text-anchor:end;" transform="rotate(-0, 33.5, 186.876754)" x="33.5" y="186.876754">0.5</text>
     </g>
    </g>
    <g id="ytick_3">
     <g id="line2d_9">
      <g>
       <use style="stroke:#000000;stroke-width:0.8;" x="40.5" xlink:href="#m92fabd609e" y="150.564977"/>
      </g>
     </g>
     <g id="text_10">
      <text style="font-family:DejaVu Sans;font-size:10px;font-style:normal;font-weight:normal;text-anchor:end;" transform="rotate(-0, 33.5, 154.364196)" x="33.5" y="154.364196">1.0</text>
     </g>
    </g>
    <g id="ytick_4">
     <g id="line2d_10">
      <g>
       <use style="stroke:#000000;stroke-width:0.8;" x="40.5" xlink:href="#m92fabd609e" y="118.052419"/>
      </g>
     </g>
     <g id="text_11">
      <text style="font-family:DejaVu Sans;font-size:10px;font-style:normal;font-weight:normal;text-anchor:end;" transform="rotate(-0, 33.5, 121.851637)" x="33.5" y="121.851637">1.5</text>
     </g>
    </g>
    <g id="ytick_5">
     <g id="line2d_11">
      <g>
       <use style="stroke:#000000;stroke-width:0.8;" x="40.5" xlink:href="#m92fabd609e" y="85.53986"/>
      </g>
     </g>
     <g id="text_12">
      <text style="font-family:DejaVu Sans;font-size:10px;font-style:normal;font-weight:normal;text-anchor:end;" transform="rotate(-0, 33.5, 89.339079)" x="33.5" y="89.339079">2.0</text>
     </g>
    </g>
    <g id="ytick_6">
     <g id="line2d_12">
      <g>
       <use style="stroke:#000000;stroke-width:0.8;" x="40.5" xlink:href="#m92fabd609e" y="53.027302"/>
      </g>
     </g>
     <g id="text_13">
      <text style="font-family:DejaVu Sans;font-size:10px;font-style:normal;font-weight:normal;text-anchor:end;" transform="rotate(-0, 33.5, 56.826521)" x="33.5" y="56.826521">2.5</text>
     </g>
    </g>
    <g id="text_14">
     <text style="font-family:DejaVu Sans;font-size:10px;font-style:normal;font-weight:normal;text-anchor:middle;" transform="rotate(-90, 11.517187, 127.26)" x="11.517187" y="127.26">Min. No. of Coin Flips Needed</text>
    </g>
    <g id="text_15">
     <text style="font-family:DejaVu Sans;font-size:10px;font-style:normal;font-weight:normal;text-anchor:start;" transform="rotate(-0, 40.5, 27.24)" x="40.5" y="27.24">1e−10</text>
    </g>
   </g>
   <g id="line2d_13">
    <path clip-path="url(#pf466d3374f)" d="M 51.913636 215.46 
L 54.219421 214.143704 
L 56.525207 212.818574 
L 58.830992 211.484586 
L 61.136777 210.141718 
L 63.442562 208.78995 
L 65.748347 207.429258 
L 68.054132 206.059622 
L 70.359917 204.681019 
L 72.665702 203.293427 
L 74.971488 201.896824 
L 77.277273 200.49119 
L 79.583058 199.076503 
L 81.888843 197.652741 
L 84.194628 196.219882 
L 86.500413 194.777905 
L 88.806198 193.32679 
L 91.111983 191.866514 
L 93.417769 190.397057 
L 95.723554 188.918397 
L 98.029339 187.430514 
L 100.335124 185.933386 
L 102.640909 184.426992 
L 104.946694 182.911312 
L 107.252479 181.386325 
L 109.558264 179.85201 
L 111.86405 178.308346 
L 114.169835 176.755313 
L 116.47562 175.19289 
L 118.781405 173.621057 
L 121.08719 172.039793 
L 123.392975 170.449079 
L 125.69876 168.848893 
L 128.004545 167.239216 
L 130.310331 165.620027 
L 132.616116 163.991306 
L 134.921901 162.353033 
L 137.227686 160.705189 
L 139.533471 159.047754 
L 141.839256 157.380707 
L 144.145041 155.704029 
L 146.450826 154.0177 
L 148.756612 152.3217 
L 151.062397 150.616011 
L 153.368182 148.900612 
L 155.673967 147.175485 
L 157.979752 145.440609 
L 160.285537 143.695966 
L 162.591322 141.941536 
L 164.897107 140.1773 
L 167.202893 138.40324 
L 169.508678 136.619335 
L 171.814463 134.825568 
L 174.120248 133.021919 
L 176.426033 131.208369 
L 178.731818 129.3849 
L 181.037603 127.551493 
L 183.343388 125.70813 
L 185.649174 123.854792 
L 187.954959 121.99146 
L 190.260744 120.118116 
L 192.566529 118.234742 
L 194.872314 116.341319 
L 197.178099 114.43783 
L 199.483884 112.524256 
L 201.789669 110.600579 
L 204.095455 108.666781 
L 206.40124 106.722844 
L 208.707025 104.768751 
L 211.01281 102.804483 
L 213.318595 100.830024 
L 215.62438 98.845354 
L 217.930165 96.850457 
L 220.23595 94.845316 
L 222.541736 92.829912 
L 224.847521 90.804229 
L 227.153306 88.768248 
L 229.459091 86.721954 
L 231.764876 84.665328 
L 234.070661 82.598354 
L 236.376446 80.521014 
L 238.682231 78.433292 
L 240.988017 76.335171 
L 243.293802 74.226634 
L 245.599587 72.107664 
L 247.905372 69.978244 
L 250.211157 67.838359 
L 252.516942 65.68799 
L 254.822727 63.527123 
L 257.128512 61.35574 
L 259.434298 59.173826 
L 261.740083 56.981363 
L 264.045868 54.778336 
L 266.351653 52.564728 
L 268.657438 50.340524 
L 270.963223 48.105708 
L 273.269008 45.860263 
L 275.574793 43.604174 
L 277.880579 41.337425 
L 280.186364 39.06 
" style="fill:none;stroke:#1f77b4;stroke-linecap:square;stroke-width:1.5;"/>
   </g>
   <g id="patch_3">
    <path d="M 40.5 224.28 
L 40.5 30.24 
" style="fill:none;stroke:#000000;stroke-linecap:square;stroke-linejoin:miter;stroke-width:0.8;"/>
   </g>
   <g id="patch_4">
    <path d="M 291.6 224.28 
L 291.6 30.24 
" style="fill:none;stroke:#000000;stroke-linecap:square;stroke-linejoin:miter;stroke-width:0.8;"/>
   </g>
   <g id="patch_5">
    <path d="M 40.5 224.28 
L 291.6 224.28 
" style="fill:none;stroke:#000000;stroke-linecap:square;stroke-linejoin:miter;stroke-width:0.8;"/>
   </g>
   <g id="patch_6">
    <path d="M 40.5 30.24 
L 291.6 30.24 
" style="fill:none;stroke:#000000;stroke-linecap:square;stroke-linejoin:miter;stroke-width:0.8;"/>
   </g>
   <g id="text_16">
    <text style="font-family:DejaVu Sans;font-size:12px;font-style:normal;font-weight:normal;text-anchor:middle;" transform="rotate(-0, 166.05, 24.24)" x="166.05" y="24.24">Coin Flip Lower Bound for exp(x)*(1-x)</text>
   </g>
   <g id="legend_1">
    <g id="patch_7">
     <path d="M 47.5 52.918125 
L 190.86875 52.918125 
Q 192.86875 52.918125 192.86875 50.918125 
L 192.86875 37.24 
Q 192.86875 35.24 190.86875 35.24 
L 47.5 35.24 
Q 45.5 35.24 45.5 37.24 
L 45.5 50.918125 
Q 45.5 52.918125 47.5 52.918125 
z
" style="fill:#ffffff;opacity:0.8;stroke:#cccccc;stroke-linejoin:miter;"/>
    </g>
    <g id="line2d_14">
     <path d="M 49.5 43.338437 
L 69.5 43.338437 
" style="fill:none;stroke:#1f77b4;stroke-linecap:square;stroke-width:1.5;"/>
    </g>
    <g id="line2d_15"/>
    <g id="text_17">
     <text style="font-family:DejaVu Sans;font-size:10px;font-style:normal;font-weight:normal;text-anchor:start;" transform="rotate(-0, 77.5, 46.838437)" x="77.5" y="46.838437">Coin Flip Lower Bound</text>
    </g>
   </g>
  </g>
 </g>
 <defs>
  <clipPath id="pf466d3374f">
   <rect height="194.04" width="251.1" x="40.5" y="30.24"/>
  </clipPath>
 </defs>
</svg>
