<?xml version="1.0" encoding="utf-8" standalone="no"?>
<!DOCTYPE svg PUBLIC "-//W3C//DTD SVG 1.1//EN"
  "http://www.w3.org/Graphics/SVG/1.1/DTD/svg11.dtd">
<!-- Created with matplotlib (https://matplotlib.org/) -->
<svg height="252pt" version="1.1" viewBox="0 0 324 252" width="324pt" xmlns="http://www.w3.org/2000/svg" xmlns:xlink="http://www.w3.org/1999/xlink">
 <defs>
  <style type="text/css">
*{stroke-linecap:butt;stroke-linejoin:round;}
  </style>
 </defs>
 <g id="figure_1">
  <g id="patch_1">
   <path d="M 0 252 
L 324 252 
L 324 0 
L 0 0 
z
" style="fill:#ffffff;"/>
  </g>
  <g id="axes_1">
   <g id="patch_2">
    <path d="M 40.5 224.28 
L 291.6 224.28 
L 291.6 30.24 
L 40.5 30.24 
z
" style="fill:#ffffff;"/>
   </g>
   <g id="matplotlib.axis_1">
    <g id="xtick_1">
     <g id="line2d_1">
      <defs>
       <path d="M 0 0 
L 0 3.5 
" id="mc4c2e26d31" style="stroke:#000000;stroke-width:0.8;"/>
      </defs>
      <g>
       <use style="stroke:#000000;stroke-width:0.8;" x="51.890784" xlink:href="#mc4c2e26d31" y="224.28"/>
      </g>
     </g>
     <g id="text_1">
      <text style="font-family:DejaVu Sans;font-size:10px;font-style:normal;font-weight:normal;text-anchor:middle;" transform="rotate(-0, 51.890784, 238.878438)" x="51.890784" y="238.878438">0.0</text>
     </g>
    </g>
    <g id="xtick_2">
     <g id="line2d_2">
      <g>
       <use style="stroke:#000000;stroke-width:0.8;" x="97.595605" xlink:href="#mc4c2e26d31" y="224.28"/>
      </g>
     </g>
     <g id="text_2">
      <text style="font-family:DejaVu Sans;font-size:10px;font-style:normal;font-weight:normal;text-anchor:middle;" transform="rotate(-0, 97.595605, 238.878438)" x="97.595605" y="238.878438">0.2</text>
     </g>
    </g>
    <g id="xtick_3">
     <g id="line2d_3">
      <g>
       <use style="stroke:#000000;stroke-width:0.8;" x="143.300425" xlink:href="#mc4c2e26d31" y="224.28"/>
      </g>
     </g>
     <g id="text_3">
      <text style="font-family:DejaVu Sans;font-size:10px;font-style:normal;font-weight:normal;text-anchor:middle;" transform="rotate(-0, 143.300425, 238.878438)" x="143.300425" y="238.878438">0.4</text>
     </g>
    </g>
    <g id="xtick_4">
     <g id="line2d_4">
      <g>
       <use style="stroke:#000000;stroke-width:0.8;" x="189.005246" xlink:href="#mc4c2e26d31" y="224.28"/>
      </g>
     </g>
     <g id="text_4">
      <text style="font-family:DejaVu Sans;font-size:10px;font-style:normal;font-weight:normal;text-anchor:middle;" transform="rotate(-0, 189.005246, 238.878438)" x="189.005246" y="238.878438">0.6</text>
     </g>
    </g>
    <g id="xtick_5">
     <g id="line2d_5">
      <g>
       <use style="stroke:#000000;stroke-width:0.8;" x="234.710067" xlink:href="#mc4c2e26d31" y="224.28"/>
      </g>
     </g>
     <g id="text_5">
      <text style="font-family:DejaVu Sans;font-size:10px;font-style:normal;font-weight:normal;text-anchor:middle;" transform="rotate(-0, 234.710067, 238.878438)" x="234.710067" y="238.878438">0.8</text>
     </g>
    </g>
    <g id="xtick_6">
     <g id="line2d_6">
      <g>
       <use style="stroke:#000000;stroke-width:0.8;" x="280.414888" xlink:href="#mc4c2e26d31" y="224.28"/>
      </g>
     </g>
     <g id="text_6">
      <text style="font-family:DejaVu Sans;font-size:10px;font-style:normal;font-weight:normal;text-anchor:middle;" transform="rotate(-0, 280.414888, 238.878438)" x="280.414888" y="238.878438">1.0</text>
     </g>
    </g>
    <g id="text_7">
     <text style="font-family:DejaVu Sans;font-size:10px;font-style:normal;font-weight:normal;text-anchor:middle;" transform="rotate(-0, 166.05, 252.556563)" x="166.05" y="252.556563">Input Coin's Heads Probability (λ)</text>
    </g>
   </g>
   <g id="matplotlib.axis_2">
    <g id="ytick_1">
     <g id="line2d_7">
      <defs>
       <path d="M 0 0 
L -3.5 0 
" id="ma2853c47eb" style="stroke:#000000;stroke-width:0.8;"/>
      </defs>
      <g>
       <use style="stroke:#000000;stroke-width:0.8;" x="40.5" xlink:href="#ma2853c47eb" y="202.899009"/>
      </g>
     </g>
     <g id="text_8">
      <text style="font-family:DejaVu Sans;font-size:10px;font-style:normal;font-weight:normal;text-anchor:end;" transform="rotate(-0, 33.5, 206.698228)" x="33.5" y="206.698228">0.4</text>
     </g>
    </g>
    <g id="ytick_2">
     <g id="line2d_8">
      <g>
       <use style="stroke:#000000;stroke-width:0.8;" x="40.5" xlink:href="#ma2853c47eb" y="175.592508"/>
      </g>
     </g>
     <g id="text_9">
      <text style="font-family:DejaVu Sans;font-size:10px;font-style:normal;font-weight:normal;text-anchor:end;" transform="rotate(-0, 33.5, 179.391726)" x="33.5" y="179.391726">0.5</text>
     </g>
    </g>
    <g id="ytick_3">
     <g id="line2d_9">
      <g>
       <use style="stroke:#000000;stroke-width:0.8;" x="40.5" xlink:href="#ma2853c47eb" y="148.286006"/>
      </g>
     </g>
     <g id="text_10">
      <text style="font-family:DejaVu Sans;font-size:10px;font-style:normal;font-weight:normal;text-anchor:end;" transform="rotate(-0, 33.5, 152.085225)" x="33.5" y="152.085225">0.6</text>
     </g>
    </g>
    <g id="ytick_4">
     <g id="line2d_10">
      <g>
       <use style="stroke:#000000;stroke-width:0.8;" x="40.5" xlink:href="#ma2853c47eb" y="120.979505"/>
      </g>
     </g>
     <g id="text_11">
      <text style="font-family:DejaVu Sans;font-size:10px;font-style:normal;font-weight:normal;text-anchor:end;" transform="rotate(-0, 33.5, 124.778723)" x="33.5" y="124.778723">0.7</text>
     </g>
    </g>
    <g id="ytick_5">
     <g id="line2d_11">
      <g>
       <use style="stroke:#000000;stroke-width:0.8;" x="40.5" xlink:href="#ma2853c47eb" y="93.673003"/>
      </g>
     </g>
     <g id="text_12">
      <text style="font-family:DejaVu Sans;font-size:10px;font-style:normal;font-weight:normal;text-anchor:end;" transform="rotate(-0, 33.5, 97.472222)" x="33.5" y="97.472222">0.8</text>
     </g>
    </g>
    <g id="ytick_6">
     <g id="line2d_12">
      <g>
       <use style="stroke:#000000;stroke-width:0.8;" x="40.5" xlink:href="#ma2853c47eb" y="66.366502"/>
      </g>
     </g>
     <g id="text_13">
      <text style="font-family:DejaVu Sans;font-size:10px;font-style:normal;font-weight:normal;text-anchor:end;" transform="rotate(-0, 33.5, 70.16572)" x="33.5" y="70.16572">0.9</text>
     </g>
    </g>
    <g id="ytick_7">
     <g id="line2d_13">
      <g>
       <use style="stroke:#000000;stroke-width:0.8;" x="40.5" xlink:href="#ma2853c47eb" y="39.06"/>
      </g>
     </g>
     <g id="text_14">
      <text style="font-family:DejaVu Sans;font-size:10px;font-style:normal;font-weight:normal;text-anchor:end;" transform="rotate(-0, 33.5, 42.859219)" x="33.5" y="42.859219">1.0</text>
     </g>
    </g>
    <g id="text_15">
     <text style="font-family:DejaVu Sans;font-size:10px;font-style:normal;font-weight:normal;text-anchor:middle;" transform="rotate(-90, 11.517187, 127.26)" x="11.517187" y="127.26">Simulated Mean / Function Value</text>
    </g>
   </g>
   <g id="line2d_14">
    <path clip-path="url(#pc42d1d9c5f)" d="M 52.119308 39.332929 
L 54.423016 42.069079 
L 56.726723 44.777785 
L 59.030431 47.459322 
L 61.334139 50.113963 
L 63.637846 52.741978 
L 65.941554 55.343633 
L 68.245261 57.919193 
L 70.548969 60.46892 
L 72.852677 62.993073 
L 75.156384 65.491908 
L 77.460092 67.965679 
L 79.7638 70.414638 
L 82.067507 72.839034 
L 84.371215 75.239112 
L 86.674923 77.615117 
L 88.97863 79.967291 
L 91.282338 82.295871 
L 93.586045 84.601096 
L 95.889753 86.883199 
L 98.193461 89.142412 
L 100.497168 91.378965 
L 102.800876 93.593085 
L 105.104584 95.784996 
L 107.408291 97.954923 
L 109.711999 100.103085 
L 112.015706 102.2297 
L 114.319414 104.334985 
L 116.623122 106.419154 
L 118.926829 108.482418 
L 121.230537 110.524987 
L 123.534245 112.547069 
L 125.837952 114.548869 
L 128.14166 116.530591 
L 130.445368 118.492436 
L 132.749075 120.434603 
L 135.052783 122.35729 
L 137.35649 124.260692 
L 139.660198 126.145002 
L 141.963906 128.010413 
L 144.267613 129.857113 
L 146.571321 131.685291 
L 148.875029 133.495131 
L 151.178736 135.286819 
L 153.482444 137.060535 
L 155.786152 138.816461 
L 158.089859 140.554775 
L 160.393567 142.275653 
L 162.697274 143.979271 
L 165.000982 145.665801 
L 167.30469 147.335414 
L 169.608397 148.988282 
L 171.912105 150.62457 
L 174.215813 152.244447 
L 176.51952 153.848076 
L 178.823228 155.43562 
L 181.126935 157.007241 
L 183.430643 158.563098 
L 185.734351 160.103349 
L 188.038058 161.628152 
L 190.341766 163.137661 
L 192.645474 164.632029 
L 194.949181 166.111408 
L 197.252889 167.575949 
L 199.556597 169.0258 
L 201.860304 170.461109 
L 204.164012 171.882022 
L 206.467719 173.288683 
L 208.771427 174.681234 
L 211.075135 176.059818 
L 213.378842 177.424575 
L 215.68255 178.775643 
L 217.986258 180.113159 
L 220.289965 181.43726 
L 222.593673 182.74808 
L 224.89738 184.045753 
L 227.201088 185.330409 
L 229.504796 186.60218 
L 231.808503 187.861195 
L 234.112211 189.107582 
L 236.415919 190.341467 
L 238.719626 191.562977 
L 241.023334 192.772234 
L 243.327042 193.969363 
L 245.630749 195.154483 
L 247.934457 196.327717 
L 250.238164 197.489184 
L 252.541872 198.639 
L 254.84558 199.777284 
L 257.149287 200.90415 
L 259.452995 202.019714 
L 261.756703 203.124089 
L 264.06041 204.217386 
L 266.364118 205.299718 
L 268.667825 206.371193 
L 270.971533 207.431922 
L 273.275241 208.482011 
L 275.578948 209.521568 
L 277.882656 210.550698 
L 280.186364 211.569505 
" style="fill:none;stroke:#1f77b4;stroke-linecap:square;stroke-width:1.5;"/>
   </g>
   <g id="line2d_15">
    <path clip-path="url(#pc42d1d9c5f)" d="M 51.913636 39.06 
L 54.221499 41.24452 
L 56.529362 47.25195 
L 58.837224 51.074861 
L 61.145087 49.982601 
L 63.452949 57.628421 
L 65.760812 55.443901 
L 68.068675 64.728111 
L 70.376537 59.266811 
L 72.6844 59.266811 
L 74.992263 66.366502 
L 77.300125 63.635851 
L 79.607988 71.281672 
L 81.91585 65.820372 
L 84.223713 74.558452 
L 86.531576 80.019752 
L 88.839438 89.303963 
L 91.147301 79.473622 
L 93.455163 88.211703 
L 95.763026 84.934923 
L 98.070889 89.850093 
L 100.378751 89.303963 
L 102.686614 91.488483 
L 104.994477 88.211703 
L 107.302339 104.049474 
L 109.610202 100.772693 
L 111.918064 98.588173 
L 114.225927 112.241424 
L 116.53379 110.603034 
L 118.841652 109.510774 
L 121.149515 113.879814 
L 123.457377 117.702724 
L 125.76524 107.872384 
L 128.073103 114.425944 
L 130.380965 121.525635 
L 132.688828 119.887245 
L 134.996691 134.632755 
L 137.304553 118.248854 
L 139.612416 116.064334 
L 141.920278 126.440805 
L 144.228141 122.617895 
L 146.536004 130.809845 
L 148.843866 137.363406 
L 151.151729 145.009226 
L 153.459591 143.370836 
L 155.767454 145.009226 
L 158.075317 140.640186 
L 160.383179 151.562786 
L 162.691042 147.193746 
L 164.998905 156.477957 
L 167.306767 141.186316 
L 169.61463 151.016656 
L 171.922492 157.024087 
L 174.230355 167.400557 
L 176.538218 160.300867 
L 178.84608 143.916966 
L 181.153943 163.031517 
L 183.461805 157.024087 
L 185.769668 160.300867 
L 188.077531 165.762167 
L 190.385393 168.492817 
L 192.693256 160.846997 
L 195.001119 170.677337 
L 197.308981 160.846997 
L 199.616844 169.038947 
L 201.924706 166.854427 
L 204.232569 177.230898 
L 206.540432 178.323158 
L 208.848294 177.230898 
L 211.156157 185.422848 
L 213.464019 177.777028 
L 215.771882 170.131207 
L 218.079745 177.777028 
L 220.387607 183.784458 
L 222.69547 179.961548 
L 225.003333 182.146068 
L 227.311195 182.146068 
L 229.619058 194.707059 
L 231.92692 194.707059 
L 234.234783 180.507678 
L 236.542646 194.707059 
L 238.850508 196.345449 
L 241.158371 197.437709 
L 243.466233 191.430279 
L 245.774096 193.614799 
L 248.081959 208.90644 
L 250.389821 197.437709 
L 252.697684 191.976409 
L 255.005547 196.891579 
L 257.313409 202.899009 
L 259.621272 203.445139 
L 261.929134 210.54483 
L 264.236997 214.91387 
L 266.54486 215.46 
L 268.852722 203.991269 
L 271.160585 213.82161 
" style="fill:none;stroke:#ff7f0e;stroke-linecap:square;stroke-width:1.5;"/>
   </g>
   <g id="patch_3">
    <path d="M 40.5 224.28 
L 40.5 30.24 
" style="fill:none;stroke:#000000;stroke-linecap:square;stroke-linejoin:miter;stroke-width:0.8;"/>
   </g>
   <g id="patch_4">
    <path d="M 291.6 224.28 
L 291.6 30.24 
" style="fill:none;stroke:#000000;stroke-linecap:square;stroke-linejoin:miter;stroke-width:0.8;"/>
   </g>
   <g id="patch_5">
    <path d="M 40.5 224.28 
L 291.6 224.28 
" style="fill:none;stroke:#000000;stroke-linecap:square;stroke-linejoin:miter;stroke-width:0.8;"/>
   </g>
   <g id="patch_6">
    <path d="M 40.5 30.24 
L 291.6 30.24 
" style="fill:none;stroke:#000000;stroke-linecap:square;stroke-linejoin:miter;stroke-width:0.8;"/>
   </g>
   <g id="text_16">
    <text style="font-family:DejaVu Sans;font-size:12px;font-style:normal;font-weight:normal;text-anchor:middle;" transform="rotate(-0, 166.05, 24.24)" x="166.05" y="24.24">Expected Value in exp(-x) (Flajolet) Algorithm</text>
   </g>
   <g id="legend_1">
    <g id="patch_7">
     <path d="M 72.684375 67.59625 
L 284.6 67.59625 
Q 286.6 67.59625 286.6 65.59625 
L 286.6 37.24 
Q 286.6 35.24 284.6 35.24 
L 72.684375 35.24 
Q 70.684375 35.24 70.684375 37.24 
L 70.684375 65.59625 
Q 70.684375 67.59625 72.684375 67.59625 
z
" style="fill:#ffffff;opacity:0.8;stroke:#cccccc;stroke-linejoin:miter;"/>
    </g>
    <g id="line2d_16">
     <path d="M 74.684375 43.338438 
L 94.684375 43.338438 
" style="fill:none;stroke:#1f77b4;stroke-linecap:square;stroke-width:1.5;"/>
    </g>
    <g id="line2d_17"/>
    <g id="text_17">
     <text style="font-family:DejaVu Sans;font-size:10px;font-style:normal;font-weight:normal;text-anchor:start;" transform="rotate(-0, 102.684375, 46.838438)" x="102.684375" y="46.838438">exp(-x)</text>
    </g>
    <g id="line2d_18">
     <path d="M 74.684375 58.016563 
L 94.684375 58.016563 
" style="fill:none;stroke:#ff7f0e;stroke-linecap:square;stroke-width:1.5;"/>
    </g>
    <g id="line2d_19"/>
    <g id="text_18">
     <text style="font-family:DejaVu Sans;font-size:10px;font-style:normal;font-weight:normal;text-anchor:start;" transform="rotate(-0, 102.684375, 61.516563)" x="102.684375" y="61.516563">Simulated Mean of exp(-x) (Flajolet)</text>
    </g>
   </g>
  </g>
 </g>
 <defs>
  <clipPath id="pc42d1d9c5f">
   <rect height="194.04" width="251.1" x="40.5" y="30.24"/>
  </clipPath>
 </defs>
</svg>
