<?xml version="1.0" encoding="utf-8" standalone="no"?>
<!DOCTYPE svg PUBLIC "-//W3C//DTD SVG 1.1//EN"
  "http://www.w3.org/Graphics/SVG/1.1/DTD/svg11.dtd">
<!-- Created with matplotlib (https://matplotlib.org/) -->
<svg height="345.6pt" version="1.1" viewBox="0 0 460.8 345.6" width="460.8pt" xmlns="http://www.w3.org/2000/svg" xmlns:xlink="http://www.w3.org/1999/xlink">
 <defs>
  <style type="text/css">
*{stroke-linecap:butt;stroke-linejoin:round;}
  </style>
 </defs>
 <g id="figure_1">
  <g id="patch_1">
   <path d="M 0 345.6 
L 460.8 345.6 
L 460.8 0 
L 0 0 
z
" style="fill:#ffffff;"/>
  </g>
  <g id="axes_1">
   <g id="patch_2">
    <path d="M 57.6 307.584 
L 414.72 307.584 
L 414.72 41.472 
L 57.6 41.472 
z
" style="fill:#ffffff;"/>
   </g>
   <g id="matplotlib.axis_1">
    <g id="xtick_1">
     <g id="line2d_1">
      <defs>
       <path d="M 0 0 
L 0 3.5 
" id="m437a0dc17e" style="stroke:#000000;stroke-width:0.8;"/>
      </defs>
      <g>
       <use style="stroke:#000000;stroke-width:0.8;" x="73.800255" xlink:href="#m437a0dc17e" y="307.584"/>
      </g>
     </g>
     <g id="text_1">
      <text style="font-family:DejaVu Sans;font-size:10px;font-style:normal;font-weight:normal;text-anchor:middle;" transform="rotate(-0, 73.800255, 322.182437)" x="73.800255" y="322.182437">0.0</text>
     </g>
    </g>
    <g id="xtick_2">
     <g id="line2d_2">
      <g>
       <use style="stroke:#000000;stroke-width:0.8;" x="138.744153" xlink:href="#m437a0dc17e" y="307.584"/>
      </g>
     </g>
     <g id="text_2">
      <text style="font-family:DejaVu Sans;font-size:10px;font-style:normal;font-weight:normal;text-anchor:middle;" transform="rotate(-0, 138.744153, 322.182437)" x="138.744153" y="322.182437">0.2</text>
     </g>
    </g>
    <g id="xtick_3">
     <g id="line2d_3">
      <g>
       <use style="stroke:#000000;stroke-width:0.8;" x="203.688051" xlink:href="#m437a0dc17e" y="307.584"/>
      </g>
     </g>
     <g id="text_3">
      <text style="font-family:DejaVu Sans;font-size:10px;font-style:normal;font-weight:normal;text-anchor:middle;" transform="rotate(-0, 203.688051, 322.182437)" x="203.688051" y="322.182437">0.4</text>
     </g>
    </g>
    <g id="xtick_4">
     <g id="line2d_4">
      <g>
       <use style="stroke:#000000;stroke-width:0.8;" x="268.631949" xlink:href="#m437a0dc17e" y="307.584"/>
      </g>
     </g>
     <g id="text_4">
      <text style="font-family:DejaVu Sans;font-size:10px;font-style:normal;font-weight:normal;text-anchor:middle;" transform="rotate(-0, 268.631949, 322.182437)" x="268.631949" y="322.182437">0.6</text>
     </g>
    </g>
    <g id="xtick_5">
     <g id="line2d_5">
      <g>
       <use style="stroke:#000000;stroke-width:0.8;" x="333.575847" xlink:href="#m437a0dc17e" y="307.584"/>
      </g>
     </g>
     <g id="text_5">
      <text style="font-family:DejaVu Sans;font-size:10px;font-style:normal;font-weight:normal;text-anchor:middle;" transform="rotate(-0, 333.575847, 322.182437)" x="333.575847" y="322.182437">0.8</text>
     </g>
    </g>
    <g id="xtick_6">
     <g id="line2d_6">
      <g>
       <use style="stroke:#000000;stroke-width:0.8;" x="398.519745" xlink:href="#m437a0dc17e" y="307.584"/>
      </g>
     </g>
     <g id="text_6">
      <text style="font-family:DejaVu Sans;font-size:10px;font-style:normal;font-weight:normal;text-anchor:middle;" transform="rotate(-0, 398.519745, 322.182437)" x="398.519745" y="322.182437">1.0</text>
     </g>
    </g>
    <g id="text_7">
     <text style="font-family:DejaVu Sans;font-size:10px;font-style:normal;font-weight:normal;text-anchor:middle;" transform="rotate(-0, 236.16, 335.860562)" x="236.16" y="335.860562">Input Coin's Heads Probability (λ)</text>
    </g>
   </g>
   <g id="matplotlib.axis_2">
    <g id="ytick_1">
     <g id="line2d_7">
      <defs>
       <path d="M 0 0 
L -3.5 0 
" id="m8ee344cb61" style="stroke:#000000;stroke-width:0.8;"/>
      </defs>
      <g>
       <use style="stroke:#000000;stroke-width:0.8;" x="57.6" xlink:href="#m8ee344cb61" y="295.493135"/>
      </g>
     </g>
     <g id="text_8">
      <text style="font-family:DejaVu Sans;font-size:10px;font-style:normal;font-weight:normal;text-anchor:end;" transform="rotate(-0, 50.6, 299.292354)" x="50.6" y="299.292354">0.0</text>
     </g>
    </g>
    <g id="ytick_2">
     <g id="line2d_8">
      <g>
       <use style="stroke:#000000;stroke-width:0.8;" x="57.6" xlink:href="#m8ee344cb61" y="251.378413"/>
      </g>
     </g>
     <g id="text_9">
      <text style="font-family:DejaVu Sans;font-size:10px;font-style:normal;font-weight:normal;text-anchor:end;" transform="rotate(-0, 50.6, 255.177632)" x="50.6" y="255.177632">0.5</text>
     </g>
    </g>
    <g id="ytick_3">
     <g id="line2d_9">
      <g>
       <use style="stroke:#000000;stroke-width:0.8;" x="57.6" xlink:href="#m8ee344cb61" y="207.263691"/>
      </g>
     </g>
     <g id="text_10">
      <text style="font-family:DejaVu Sans;font-size:10px;font-style:normal;font-weight:normal;text-anchor:end;" transform="rotate(-0, 50.6, 211.06291)" x="50.6" y="211.06291">1.0</text>
     </g>
    </g>
    <g id="ytick_4">
     <g id="line2d_10">
      <g>
       <use style="stroke:#000000;stroke-width:0.8;" x="57.6" xlink:href="#m8ee344cb61" y="163.148969"/>
      </g>
     </g>
     <g id="text_11">
      <text style="font-family:DejaVu Sans;font-size:10px;font-style:normal;font-weight:normal;text-anchor:end;" transform="rotate(-0, 50.6, 166.948188)" x="50.6" y="166.948188">1.5</text>
     </g>
    </g>
    <g id="ytick_5">
     <g id="line2d_11">
      <g>
       <use style="stroke:#000000;stroke-width:0.8;" x="57.6" xlink:href="#m8ee344cb61" y="119.034247"/>
      </g>
     </g>
     <g id="text_12">
      <text style="font-family:DejaVu Sans;font-size:10px;font-style:normal;font-weight:normal;text-anchor:end;" transform="rotate(-0, 50.6, 122.833466)" x="50.6" y="122.833466">2.0</text>
     </g>
    </g>
    <g id="ytick_6">
     <g id="line2d_12">
      <g>
       <use style="stroke:#000000;stroke-width:0.8;" x="57.6" xlink:href="#m8ee344cb61" y="74.919525"/>
      </g>
     </g>
     <g id="text_13">
      <text style="font-family:DejaVu Sans;font-size:10px;font-style:normal;font-weight:normal;text-anchor:end;" transform="rotate(-0, 50.6, 78.718744)" x="50.6" y="78.718744">2.5</text>
     </g>
    </g>
    <g id="text_14">
     <text style="font-family:DejaVu Sans;font-size:10px;font-style:normal;font-weight:normal;text-anchor:middle;" transform="rotate(-90, 28.617187, 174.528)" x="28.617187" y="174.528">Coin Flips Needed</text>
    </g>
   </g>
   <g id="line2d_13">
    <path clip-path="url(#pad5b59ad84)" d="M 73.832727 207.276925 
L 77.112066 208.608122 
L 80.391405 209.928867 
L 83.670744 211.239205 
L 86.950083 212.539181 
L 90.229421 213.828842 
L 93.50876 215.108233 
L 96.788099 216.377399 
L 100.067438 217.636385 
L 103.346777 218.885239 
L 106.626116 220.124005 
L 109.905455 221.352728 
L 113.184793 222.571455 
L 116.464132 223.780231 
L 119.743471 224.979103 
L 123.02281 226.168115 
L 126.302149 227.347313 
L 129.581488 228.516743 
L 132.860826 229.676451 
L 136.140165 230.826483 
L 139.419504 231.966884 
L 142.698843 233.0977 
L 145.978182 234.218976 
L 149.257521 235.33076 
L 152.53686 236.433095 
L 155.816198 237.526029 
L 159.095537 238.609606 
L 162.374876 239.683872 
L 165.654215 240.748874 
L 168.933554 241.804656 
L 172.212893 242.851265 
L 175.492231 243.888746 
L 178.77157 244.917145 
L 182.050909 245.936507 
L 185.330248 246.946878 
L 188.609587 247.948303 
L 191.888926 248.940829 
L 195.168264 249.924501 
L 198.447603 250.899364 
L 201.726942 251.865463 
L 205.006281 252.822845 
L 208.28562 253.771555 
L 211.564959 254.711637 
L 214.844298 255.643138 
L 218.123636 256.566102 
L 221.402975 257.480576 
L 224.682314 258.386604 
L 227.961653 259.284231 
L 231.240992 260.173503 
L 234.520331 261.054465 
L 237.799669 261.927162 
L 241.079008 262.791638 
L 244.358347 263.64794 
L 247.637686 264.496112 
L 250.917025 265.336199 
L 254.196364 266.168245 
L 257.475702 266.992296 
L 260.755041 267.808396 
L 264.03438 268.61659 
L 267.313719 269.416923 
L 270.593058 270.209439 
L 273.872397 270.994183 
L 277.151736 271.771199 
L 280.431074 272.540531 
L 283.710413 273.302225 
L 286.989752 274.056324 
L 290.269091 274.802872 
L 293.54843 275.541914 
L 296.827769 276.273493 
L 300.107107 276.997654 
L 303.386446 277.714441 
L 306.665785 278.423898 
L 309.945124 279.126067 
L 313.224463 279.820993 
L 316.503802 280.508721 
L 319.78314 281.189292 
L 323.062479 281.862751 
L 326.341818 282.52914 
L 329.621157 283.188505 
L 332.900496 283.840886 
L 336.179835 284.486329 
L 339.459174 285.124875 
L 342.738512 285.756568 
L 346.017851 286.381451 
L 349.29719 286.999566 
L 352.576529 287.610956 
L 355.855868 288.215664 
L 359.135207 288.813733 
L 362.414545 289.405204 
L 365.693884 289.99012 
L 368.973223 290.568523 
L 372.252562 291.140456 
L 375.531901 291.70596 
L 378.81124 292.265078 
L 382.090579 292.81785 
L 385.369917 293.36432 
L 388.649256 293.904529 
L 391.928595 294.438517 
L 395.207934 294.966327 
L 398.487273 295.488 
" style="fill:none;stroke:#1f77b4;stroke-linecap:square;stroke-width:1.5;"/>
   </g>
   <g id="line2d_14">
    <path clip-path="url(#pad5b59ad84)" d="M 73.832727 207.263691 
L 77.112066 206.734315 
L 80.391405 204.969726 
L 83.670744 205.499102 
L 86.950083 202.499301 
L 90.229421 202.146383 
L 93.50876 203.028678 
L 96.788099 200.734712 
L 100.067438 199.146582 
L 103.346777 197.205535 
L 106.626116 198.087829 
L 109.905455 198.440747 
L 113.184793 194.205734 
L 116.464132 194.029275 
L 119.743471 195.264487 
L 123.02281 191.735309 
L 126.302149 191.735309 
L 129.581488 188.735508 
L 132.860826 189.617802 
L 136.140165 186.618001 
L 139.419504 186.79446 
L 142.698843 186.441542 
L 145.978182 186.441542 
L 149.257521 186.79446 
L 152.53686 183.794659 
L 155.816198 183.265282 
L 159.095537 180.618399 
L 162.374876 180.265481 
L 165.654215 177.26568 
L 168.933554 178.677351 
L 172.212893 171.442537 
L 175.492231 173.383585 
L 178.77157 171.266078 
L 182.050909 167.913359 
L 185.330248 172.677749 
L 188.609587 168.619195 
L 191.888926 165.442935 
L 195.168264 164.56064 
L 198.447603 167.383983 
L 201.726942 162.796051 
L 205.006281 165.442935 
L 208.28562 165.266476 
L 211.564959 159.090415 
L 214.844298 163.148969 
L 218.123636 162.796051 
L 221.402975 159.619792 
L 224.682314 163.854805 
L 227.961653 157.149367 
L 231.240992 149.208717 
L 234.520331 155.737696 
L 237.799669 149.914553 
L 241.079008 148.502882 
L 244.358347 147.620587 
L 247.637686 142.326821 
L 250.917025 144.267868 
L 254.196364 146.385375 
L 257.475702 140.915149 
L 260.755041 141.268067 
L 264.03438 136.150759 
L 267.313719 131.386369 
L 270.593058 129.268863 
L 273.872397 130.504075 
L 277.151736 130.151157 
L 280.431074 124.328014 
L 283.710413 122.563425 
L 286.989752 130.504075 
L 290.269091 123.44572 
L 293.54843 118.504871 
L 296.827769 120.26946 
L 300.107107 116.210905 
L 303.386446 110.564221 
L 306.665785 113.740481 
L 309.945124 111.446515 
L 313.224463 109.15255 
L 316.503802 109.681926 
L 319.78314 106.152749 
L 323.062479 109.15255 
L 326.341818 102.270653 
L 329.621157 108.093796 
L 332.900496 97.153345 
L 336.179835 91.506661 
L 339.459174 94.330003 
L 342.738512 96.800427 
L 346.017851 88.153942 
L 349.29719 89.742072 
L 352.576529 88.50686 
L 355.855868 83.036634 
L 359.135207 85.507059 
L 362.414545 81.977881 
L 365.693884 75.095984 
L 368.973223 75.978279 
L 372.252562 76.331197 
L 375.531901 73.684313 
L 378.81124 71.919724 
L 382.090579 63.979074 
L 385.369917 65.037828 
L 388.649256 58.861767 
L 391.928595 62.038027 
L 395.207934 53.568 
L 398.487273 56.920719 
" style="fill:none;stroke:#ff7f0e;stroke-linecap:square;stroke-width:1.5;"/>
   </g>
   <g id="patch_3">
    <path d="M 57.6 307.584 
L 57.6 41.472 
" style="fill:none;stroke:#000000;stroke-linecap:square;stroke-linejoin:miter;stroke-width:0.8;"/>
   </g>
   <g id="patch_4">
    <path d="M 414.72 307.584 
L 414.72 41.472 
" style="fill:none;stroke:#000000;stroke-linecap:square;stroke-linejoin:miter;stroke-width:0.8;"/>
   </g>
   <g id="patch_5">
    <path d="M 57.6 307.584 
L 414.72 307.584 
" style="fill:none;stroke:#000000;stroke-linecap:square;stroke-linejoin:miter;stroke-width:0.8;"/>
   </g>
   <g id="patch_6">
    <path d="M 57.6 41.472 
L 414.72 41.472 
" style="fill:none;stroke:#000000;stroke-linecap:square;stroke-linejoin:miter;stroke-width:0.8;"/>
   </g>
   <g id="text_15">
    <text style="font-family:DejaVu Sans;font-size:12px;font-style:normal;font-weight:normal;text-anchor:middle;" transform="rotate(-0, 236.16, 35.472)" x="236.16" y="35.472">Coin Flips for exp(-x)</text>
   </g>
   <g id="legend_1">
    <g id="patch_7">
     <path d="M 64.6 78.82825 
L 288.970312 78.82825 
Q 290.970312 78.82825 290.970312 76.82825 
L 290.970312 48.472 
Q 290.970312 46.472 288.970312 46.472 
L 64.6 46.472 
Q 62.6 46.472 62.6 48.472 
L 62.6 76.82825 
Q 62.6 78.82825 64.6 78.82825 
z
" style="fill:#ffffff;opacity:0.8;stroke:#cccccc;stroke-linejoin:miter;"/>
    </g>
    <g id="line2d_15">
     <path d="M 66.6 54.570437 
L 86.6 54.570437 
" style="fill:none;stroke:#1f77b4;stroke-linecap:square;stroke-width:1.5;"/>
    </g>
    <g id="line2d_16"/>
    <g id="text_16">
     <text style="font-family:DejaVu Sans;font-size:10px;font-style:normal;font-weight:normal;text-anchor:start;" transform="rotate(-0, 94.6, 58.070437)" x="94.6" y="58.070437">Coin Flip Lower Bound (Mendo)</text>
    </g>
    <g id="line2d_17">
     <path d="M 66.6 69.248562 
L 86.6 69.248562 
" style="fill:none;stroke:#ff7f0e;stroke-linecap:square;stroke-width:1.5;"/>
    </g>
    <g id="line2d_18"/>
    <g id="text_17">
     <text style="font-family:DejaVu Sans;font-size:10px;font-style:normal;font-weight:normal;text-anchor:start;" transform="rotate(-0, 94.6, 72.748562)" x="94.6" y="72.748562">Avg. Coins Flipped exp(-x) (Alt. Series)</text>
    </g>
   </g>
  </g>
 </g>
 <defs>
  <clipPath id="pad5b59ad84">
   <rect height="266.112" width="357.12" x="57.6" y="41.472"/>
  </clipPath>
 </defs>
</svg>
