<?xml version="1.0" encoding="utf-8" standalone="no"?>
<!DOCTYPE svg PUBLIC "-//W3C//DTD SVG 1.1//EN"
  "http://www.w3.org/Graphics/SVG/1.1/DTD/svg11.dtd">
<!-- Created with matplotlib (https://matplotlib.org/) -->
<svg height="252pt" version="1.1" viewBox="0 0 324 252" width="324pt" xmlns="http://www.w3.org/2000/svg" xmlns:xlink="http://www.w3.org/1999/xlink">
 <defs>
  <style type="text/css">
*{stroke-linecap:butt;stroke-linejoin:round;}
  </style>
 </defs>
 <g id="figure_1">
  <g id="patch_1">
   <path d="M 0 252 
L 324 252 
L 324 0 
L 0 0 
z
" style="fill:#ffffff;"/>
  </g>
  <g id="axes_1">
   <g id="patch_2">
    <path d="M 40.5 224.28 
L 291.6 224.28 
L 291.6 30.24 
L 40.5 30.24 
z
" style="fill:#ffffff;"/>
   </g>
   <g id="matplotlib.axis_1">
    <g id="xtick_1">
     <g id="line2d_1">
      <defs>
       <path d="M 0 0 
L 0 3.5 
" id="m52ff67d746" style="stroke:#000000;stroke-width:0.8;"/>
      </defs>
      <g>
       <use style="stroke:#000000;stroke-width:0.8;" x="51.684906" xlink:href="#m52ff67d746" y="224.28"/>
      </g>
     </g>
     <g id="text_1">
      <text style="font-family:DejaVu Sans;font-size:10px;font-style:normal;font-weight:normal;text-anchor:middle;" transform="rotate(-0, 51.684906, 238.878438)" x="51.684906" y="238.878438">0.0</text>
     </g>
    </g>
    <g id="xtick_2">
     <g id="line2d_2">
      <g>
       <use style="stroke:#000000;stroke-width:0.8;" x="97.430944" xlink:href="#m52ff67d746" y="224.28"/>
      </g>
     </g>
     <g id="text_2">
      <text style="font-family:DejaVu Sans;font-size:10px;font-style:normal;font-weight:normal;text-anchor:middle;" transform="rotate(-0, 97.430944, 238.878438)" x="97.430944" y="238.878438">0.2</text>
     </g>
    </g>
    <g id="xtick_3">
     <g id="line2d_3">
      <g>
       <use style="stroke:#000000;stroke-width:0.8;" x="143.176981" xlink:href="#m52ff67d746" y="224.28"/>
      </g>
     </g>
     <g id="text_3">
      <text style="font-family:DejaVu Sans;font-size:10px;font-style:normal;font-weight:normal;text-anchor:middle;" transform="rotate(-0, 143.176981, 238.878438)" x="143.176981" y="238.878438">0.4</text>
     </g>
    </g>
    <g id="xtick_4">
     <g id="line2d_4">
      <g>
       <use style="stroke:#000000;stroke-width:0.8;" x="188.923019" xlink:href="#m52ff67d746" y="224.28"/>
      </g>
     </g>
     <g id="text_4">
      <text style="font-family:DejaVu Sans;font-size:10px;font-style:normal;font-weight:normal;text-anchor:middle;" transform="rotate(-0, 188.923019, 238.878438)" x="188.923019" y="238.878438">0.6</text>
     </g>
    </g>
    <g id="xtick_5">
     <g id="line2d_5">
      <g>
       <use style="stroke:#000000;stroke-width:0.8;" x="234.669056" xlink:href="#m52ff67d746" y="224.28"/>
      </g>
     </g>
     <g id="text_5">
      <text style="font-family:DejaVu Sans;font-size:10px;font-style:normal;font-weight:normal;text-anchor:middle;" transform="rotate(-0, 234.669056, 238.878438)" x="234.669056" y="238.878438">0.8</text>
     </g>
    </g>
    <g id="xtick_6">
     <g id="line2d_6">
      <g>
       <use style="stroke:#000000;stroke-width:0.8;" x="280.415094" xlink:href="#m52ff67d746" y="224.28"/>
      </g>
     </g>
     <g id="text_6">
      <text style="font-family:DejaVu Sans;font-size:10px;font-style:normal;font-weight:normal;text-anchor:middle;" transform="rotate(-0, 280.415094, 238.878438)" x="280.415094" y="238.878438">1.0</text>
     </g>
    </g>
    <g id="text_7">
     <text style="font-family:DejaVu Sans;font-size:10px;font-style:normal;font-weight:normal;text-anchor:middle;" transform="rotate(-0, 166.05, 252.556563)" x="166.05" y="252.556563">Input Coin's Heads Probability (λ)</text>
    </g>
   </g>
   <g id="matplotlib.axis_2">
    <g id="ytick_1">
     <g id="line2d_7">
      <defs>
       <path d="M 0 0 
L -3.5 0 
" id="m09cb17bf37" style="stroke:#000000;stroke-width:0.8;"/>
      </defs>
      <g>
       <use style="stroke:#000000;stroke-width:0.8;" x="40.5" xlink:href="#m09cb17bf37" y="215.562935"/>
      </g>
     </g>
     <g id="text_8">
      <text style="font-family:DejaVu Sans;font-size:10px;font-style:normal;font-weight:normal;text-anchor:end;" transform="rotate(-0, 33.5, 219.362153)" x="33.5" y="219.362153">0.0</text>
     </g>
    </g>
    <g id="ytick_2">
     <g id="line2d_8">
      <g>
       <use style="stroke:#000000;stroke-width:0.8;" x="40.5" xlink:href="#m09cb17bf37" y="180.209338"/>
      </g>
     </g>
     <g id="text_9">
      <text style="font-family:DejaVu Sans;font-size:10px;font-style:normal;font-weight:normal;text-anchor:end;" transform="rotate(-0, 33.5, 184.008557)" x="33.5" y="184.008557">0.2</text>
     </g>
    </g>
    <g id="ytick_3">
     <g id="line2d_9">
      <g>
       <use style="stroke:#000000;stroke-width:0.8;" x="40.5" xlink:href="#m09cb17bf37" y="144.855741"/>
      </g>
     </g>
     <g id="text_10">
      <text style="font-family:DejaVu Sans;font-size:10px;font-style:normal;font-weight:normal;text-anchor:end;" transform="rotate(-0, 33.5, 148.65496)" x="33.5" y="148.65496">0.4</text>
     </g>
    </g>
    <g id="ytick_4">
     <g id="line2d_10">
      <g>
       <use style="stroke:#000000;stroke-width:0.8;" x="40.5" xlink:href="#m09cb17bf37" y="109.502145"/>
      </g>
     </g>
     <g id="text_11">
      <text style="font-family:DejaVu Sans;font-size:10px;font-style:normal;font-weight:normal;text-anchor:end;" transform="rotate(-0, 33.5, 113.301363)" x="33.5" y="113.301363">0.6</text>
     </g>
    </g>
    <g id="ytick_5">
     <g id="line2d_11">
      <g>
       <use style="stroke:#000000;stroke-width:0.8;" x="40.5" xlink:href="#m09cb17bf37" y="74.148548"/>
      </g>
     </g>
     <g id="text_12">
      <text style="font-family:DejaVu Sans;font-size:10px;font-style:normal;font-weight:normal;text-anchor:end;" transform="rotate(-0, 33.5, 77.947767)" x="33.5" y="77.947767">0.8</text>
     </g>
    </g>
    <g id="ytick_6">
     <g id="line2d_12">
      <g>
       <use style="stroke:#000000;stroke-width:0.8;" x="40.5" xlink:href="#m09cb17bf37" y="38.794951"/>
      </g>
     </g>
     <g id="text_13">
      <text style="font-family:DejaVu Sans;font-size:10px;font-style:normal;font-weight:normal;text-anchor:end;" transform="rotate(-0, 33.5, 42.59417)" x="33.5" y="42.59417">1.0</text>
     </g>
    </g>
    <g id="text_14">
     <text style="font-family:DejaVu Sans;font-size:10px;font-style:normal;font-weight:normal;text-anchor:middle;" transform="rotate(-90, 11.517187, 127.26)" x="11.517187" y="127.26">Min. No. of Coin Flips Needed</text>
    </g>
    <g id="text_15">
     <text style="font-family:DejaVu Sans;font-size:10px;font-style:normal;font-weight:normal;text-anchor:start;" transform="rotate(-0, 40.5, 27.24)" x="40.5" y="27.24">1e−10</text>
    </g>
   </g>
   <g id="line2d_13">
    <path clip-path="url(#p1c43816e1b)" d="M 51.913636 39.06 
L 54.219421 41.720408 
L 56.525207 44.359959 
L 58.830992 46.978742 
L 61.136777 49.576848 
L 63.442562 52.154369 
L 65.748347 54.711394 
L 68.054132 57.248015 
L 70.359917 59.764323 
L 72.665702 62.260408 
L 74.971488 64.736361 
L 77.277273 67.192274 
L 79.583058 69.628237 
L 81.888843 72.044342 
L 84.194628 74.44068 
L 86.500413 76.817341 
L 88.806198 79.174416 
L 91.111983 81.511998 
L 93.417769 83.830176 
L 95.723554 86.129043 
L 98.029339 88.408689 
L 100.335124 90.669205 
L 102.640909 92.910683 
L 104.946694 95.133214 
L 107.252479 97.336888 
L 109.558264 99.521797 
L 111.86405 101.688033 
L 114.169835 103.835685 
L 116.47562 105.964846 
L 118.781405 108.075606 
L 121.08719 110.168056 
L 123.392975 112.242287 
L 125.69876 114.298391 
L 128.004545 116.336458 
L 130.310331 118.356579 
L 132.616116 120.358844 
L 134.921901 122.343346 
L 137.227686 124.310174 
L 139.533471 126.259419 
L 141.839256 128.191171 
L 144.145041 130.105523 
L 146.450826 132.002563 
L 148.756612 133.882382 
L 151.062397 135.745071 
L 153.368182 137.590721 
L 155.673967 139.41942 
L 157.979752 141.231261 
L 160.285537 143.026332 
L 162.591322 144.804724 
L 164.897107 146.566526 
L 167.202893 148.311829 
L 169.508678 150.040723 
L 171.814463 151.753296 
L 174.120248 153.449639 
L 176.426033 155.129842 
L 178.731818 156.793992 
L 181.037603 158.442181 
L 183.343388 160.074496 
L 185.649174 161.691028 
L 187.954959 163.291865 
L 190.260744 164.877095 
L 192.566529 166.446808 
L 194.872314 168.001092 
L 197.178099 169.540036 
L 199.483884 171.063729 
L 201.789669 172.572257 
L 204.095455 174.06571 
L 206.40124 175.544175 
L 208.707025 177.00774 
L 211.01281 178.456494 
L 213.318595 179.890522 
L 215.62438 181.309914 
L 217.930165 182.714756 
L 220.23595 184.105134 
L 222.541736 185.481138 
L 224.847521 186.842852 
L 227.153306 188.190363 
L 229.459091 189.523759 
L 231.764876 190.843125 
L 234.070661 192.148548 
L 236.376446 193.440114 
L 238.682231 194.717908 
L 240.988017 195.982015 
L 243.293802 197.232523 
L 245.599587 198.469515 
L 247.905372 199.693077 
L 250.211157 200.903294 
L 252.516942 202.10025 
L 254.822727 203.284031 
L 257.128512 204.45472 
L 259.434298 205.612402 
L 261.740083 206.75716 
L 264.045868 207.889079 
L 266.351653 209.008242 
L 268.657438 210.114733 
L 270.963223 211.208634 
L 273.269008 212.290028 
L 275.574793 213.358999 
L 277.880579 214.415629 
L 280.186364 215.46 
" style="fill:none;stroke:#1f77b4;stroke-linecap:square;stroke-width:1.5;"/>
   </g>
   <g id="patch_3">
    <path d="M 40.5 224.28 
L 40.5 30.24 
" style="fill:none;stroke:#000000;stroke-linecap:square;stroke-linejoin:miter;stroke-width:0.8;"/>
   </g>
   <g id="patch_4">
    <path d="M 291.6 224.28 
L 291.6 30.24 
" style="fill:none;stroke:#000000;stroke-linecap:square;stroke-linejoin:miter;stroke-width:0.8;"/>
   </g>
   <g id="patch_5">
    <path d="M 40.5 224.28 
L 291.6 224.28 
" style="fill:none;stroke:#000000;stroke-linecap:square;stroke-linejoin:miter;stroke-width:0.8;"/>
   </g>
   <g id="patch_6">
    <path d="M 40.5 30.24 
L 291.6 30.24 
" style="fill:none;stroke:#000000;stroke-linecap:square;stroke-linejoin:miter;stroke-width:0.8;"/>
   </g>
   <g id="text_16">
    <text style="font-family:DejaVu Sans;font-size:12px;font-style:normal;font-weight:normal;text-anchor:middle;" transform="rotate(-0, 166.05, 24.24)" x="166.05" y="24.24">Coin Flip Lower Bound for exp(-x)</text>
   </g>
   <g id="legend_1">
    <g id="patch_7">
     <path d="M 141.23125 52.918125 
L 284.6 52.918125 
Q 286.6 52.918125 286.6 50.918125 
L 286.6 37.24 
Q 286.6 35.24 284.6 35.24 
L 141.23125 35.24 
Q 139.23125 35.24 139.23125 37.24 
L 139.23125 50.918125 
Q 139.23125 52.918125 141.23125 52.918125 
z
" style="fill:#ffffff;opacity:0.8;stroke:#cccccc;stroke-linejoin:miter;"/>
    </g>
    <g id="line2d_14">
     <path d="M 143.23125 43.338437 
L 163.23125 43.338437 
" style="fill:none;stroke:#1f77b4;stroke-linecap:square;stroke-width:1.5;"/>
    </g>
    <g id="line2d_15"/>
    <g id="text_17">
     <text style="font-family:DejaVu Sans;font-size:10px;font-style:normal;font-weight:normal;text-anchor:start;" transform="rotate(-0, 171.23125, 46.838437)" x="171.23125" y="46.838437">Coin Flip Lower Bound</text>
    </g>
   </g>
  </g>
 </g>
 <defs>
  <clipPath id="p1c43816e1b">
   <rect height="194.04" width="251.1" x="40.5" y="30.24"/>
  </clipPath>
 </defs>
</svg>
