<?xml version="1.0" encoding="utf-8" standalone="no"?>
<!DOCTYPE svg PUBLIC "-//W3C//DTD SVG 1.1//EN"
  "http://www.w3.org/Graphics/SVG/1.1/DTD/svg11.dtd">
<!-- Created with matplotlib (https://matplotlib.org/) -->
<svg height="252pt" version="1.1" viewBox="0 0 324 252" width="324pt" xmlns="http://www.w3.org/2000/svg" xmlns:xlink="http://www.w3.org/1999/xlink">
 <defs>
  <style type="text/css">
*{stroke-linecap:butt;stroke-linejoin:round;}
  </style>
 </defs>
 <g id="figure_1">
  <g id="patch_1">
   <path d="M 0 252 
L 324 252 
L 324 0 
L 0 0 
z
" style="fill:#ffffff;"/>
  </g>
  <g id="axes_1">
   <g id="patch_2">
    <path d="M 40.5 224.28 
L 291.6 224.28 
L 291.6 30.24 
L 40.5 30.24 
z
" style="fill:#ffffff;"/>
   </g>
   <g id="matplotlib.axis_1">
    <g id="xtick_1">
     <g id="line2d_1">
      <defs>
       <path d="M 0 0 
L 0 3.5 
" id="m64e1bd71dc" style="stroke:#000000;stroke-width:0.8;"/>
      </defs>
      <g>
       <use style="stroke:#000000;stroke-width:0.8;" x="51.890805" xlink:href="#m64e1bd71dc" y="224.28"/>
      </g>
     </g>
     <g id="text_1">
      <text style="font-family:DejaVu Sans;font-size:10px;font-style:normal;font-weight:normal;text-anchor:middle;" transform="rotate(-0, 51.890805, 238.878438)" x="51.890805" y="238.878438">0.0</text>
     </g>
    </g>
    <g id="xtick_2">
     <g id="line2d_2">
      <g>
       <use style="stroke:#000000;stroke-width:0.8;" x="97.554483" xlink:href="#m64e1bd71dc" y="224.28"/>
      </g>
     </g>
     <g id="text_2">
      <text style="font-family:DejaVu Sans;font-size:10px;font-style:normal;font-weight:normal;text-anchor:middle;" transform="rotate(-0, 97.554483, 238.878438)" x="97.554483" y="238.878438">0.2</text>
     </g>
    </g>
    <g id="xtick_3">
     <g id="line2d_3">
      <g>
       <use style="stroke:#000000;stroke-width:0.8;" x="143.218161" xlink:href="#m64e1bd71dc" y="224.28"/>
      </g>
     </g>
     <g id="text_3">
      <text style="font-family:DejaVu Sans;font-size:10px;font-style:normal;font-weight:normal;text-anchor:middle;" transform="rotate(-0, 143.218161, 238.878438)" x="143.218161" y="238.878438">0.4</text>
     </g>
    </g>
    <g id="xtick_4">
     <g id="line2d_4">
      <g>
       <use style="stroke:#000000;stroke-width:0.8;" x="188.881839" xlink:href="#m64e1bd71dc" y="224.28"/>
      </g>
     </g>
     <g id="text_4">
      <text style="font-family:DejaVu Sans;font-size:10px;font-style:normal;font-weight:normal;text-anchor:middle;" transform="rotate(-0, 188.881839, 238.878438)" x="188.881839" y="238.878438">0.6</text>
     </g>
    </g>
    <g id="xtick_5">
     <g id="line2d_5">
      <g>
       <use style="stroke:#000000;stroke-width:0.8;" x="234.545517" xlink:href="#m64e1bd71dc" y="224.28"/>
      </g>
     </g>
     <g id="text_5">
      <text style="font-family:DejaVu Sans;font-size:10px;font-style:normal;font-weight:normal;text-anchor:middle;" transform="rotate(-0, 234.545517, 238.878438)" x="234.545517" y="238.878438">0.8</text>
     </g>
    </g>
    <g id="xtick_6">
     <g id="line2d_6">
      <g>
       <use style="stroke:#000000;stroke-width:0.8;" x="280.209195" xlink:href="#m64e1bd71dc" y="224.28"/>
      </g>
     </g>
     <g id="text_6">
      <text style="font-family:DejaVu Sans;font-size:10px;font-style:normal;font-weight:normal;text-anchor:middle;" transform="rotate(-0, 280.209195, 238.878438)" x="280.209195" y="238.878438">1.0</text>
     </g>
    </g>
    <g id="text_7">
     <text style="font-family:DejaVu Sans;font-size:10px;font-style:normal;font-weight:normal;text-anchor:middle;" transform="rotate(-0, 166.05, 252.556563)" x="166.05" y="252.556563">Probability</text>
    </g>
   </g>
   <g id="matplotlib.axis_2">
    <g id="ytick_1">
     <g id="line2d_7">
      <defs>
       <path d="M 0 0 
L -3.5 0 
" id="mf8232be245" style="stroke:#000000;stroke-width:0.8;"/>
      </defs>
      <g>
       <use style="stroke:#000000;stroke-width:0.8;" x="40.5" xlink:href="#mf8232be245" y="215.2719"/>
      </g>
     </g>
     <g id="text_8">
      <text style="font-family:DejaVu Sans;font-size:10px;font-style:normal;font-weight:normal;text-anchor:end;" transform="rotate(-0, 33.5, 219.071119)" x="33.5" y="219.071119">2</text>
     </g>
    </g>
    <g id="ytick_2">
     <g id="line2d_8">
      <g>
       <use style="stroke:#000000;stroke-width:0.8;" x="40.5" xlink:href="#mf8232be245" y="177.651939"/>
      </g>
     </g>
     <g id="text_9">
      <text style="font-family:DejaVu Sans;font-size:10px;font-style:normal;font-weight:normal;text-anchor:end;" transform="rotate(-0, 33.5, 181.451157)" x="33.5" y="181.451157">4</text>
     </g>
    </g>
    <g id="ytick_3">
     <g id="line2d_9">
      <g>
       <use style="stroke:#000000;stroke-width:0.8;" x="40.5" xlink:href="#mf8232be245" y="140.031977"/>
      </g>
     </g>
     <g id="text_10">
      <text style="font-family:DejaVu Sans;font-size:10px;font-style:normal;font-weight:normal;text-anchor:end;" transform="rotate(-0, 33.5, 143.831196)" x="33.5" y="143.831196">6</text>
     </g>
    </g>
    <g id="ytick_4">
     <g id="line2d_10">
      <g>
       <use style="stroke:#000000;stroke-width:0.8;" x="40.5" xlink:href="#mf8232be245" y="102.412015"/>
      </g>
     </g>
     <g id="text_11">
      <text style="font-family:DejaVu Sans;font-size:10px;font-style:normal;font-weight:normal;text-anchor:end;" transform="rotate(-0, 33.5, 106.211234)" x="33.5" y="106.211234">8</text>
     </g>
    </g>
    <g id="ytick_5">
     <g id="line2d_11">
      <g>
       <use style="stroke:#000000;stroke-width:0.8;" x="40.5" xlink:href="#mf8232be245" y="64.792054"/>
      </g>
     </g>
     <g id="text_12">
      <text style="font-family:DejaVu Sans;font-size:10px;font-style:normal;font-weight:normal;text-anchor:end;" transform="rotate(-0, 33.5, 68.591272)" x="33.5" y="68.591272">10</text>
     </g>
    </g>
    <g id="text_13">
     <text style="font-family:DejaVu Sans;font-size:10px;font-style:normal;font-weight:normal;text-anchor:middle;" transform="rotate(-90, 14.695312, 127.26)" x="14.695312" y="127.26">Average Bits Consumed Per Call</text>
    </g>
   </g>
   <g id="line2d_12">
    <path clip-path="url(#pb2e54694c5)" d="M 51.913636 215.46 
L 54.219421 214.858081 
L 56.525207 214.594741 
L 58.830992 214.97094 
L 61.136777 213.240422 
L 63.442562 211.397044 
L 65.748347 214.594741 
L 68.054132 212.563263 
L 70.359917 210.607025 
L 72.665702 211.321804 
L 74.971488 210.343685 
L 77.277273 212.751363 
L 79.583058 205.37785 
L 81.888843 208.387447 
L 84.194628 209.139846 
L 86.500413 206.544069 
L 88.806198 209.967486 
L 91.111983 207.785528 
L 93.417769 208.425067 
L 95.723554 206.13025 
L 98.029339 203.346372 
L 100.335124 200.524875 
L 102.640909 202.029674 
L 104.946694 200.562495 
L 107.252479 196.424299 
L 109.558264 204.625451 
L 111.86405 192.850403 
L 114.169835 199.734856 
L 116.47562 198.380537 
L 118.781405 197.440038 
L 121.08719 194.919501 
L 123.392975 189.803186 
L 125.69876 190.555585 
L 128.004545 189.389367 
L 130.310331 197.628138 
L 132.616116 188.260768 
L 134.921901 189.013167 
L 137.227686 184.273052 
L 139.533471 186.00357 
L 141.839256 190.969405 
L 144.145041 184.611631 
L 146.450826 174.190902 
L 148.756612 188.223148 
L 151.062397 170.692246 
L 153.368182 180.661536 
L 155.673967 177.990518 
L 157.979752 169.337927 
L 160.285537 171.519885 
L 162.591322 171.933704 
L 164.897107 165.613551 
L 167.202893 167.682649 
L 169.508678 164.183992 
L 171.814463 167.456929 
L 174.120248 153.575163 
L 176.426033 155.380921 
L 178.731818 158.315278 
L 181.037603 153.650403 
L 183.343388 160.610096 
L 185.649174 160.158656 
L 187.954959 153.838503 
L 190.260744 146.164031 
L 192.566529 154.553282 
L 194.872314 148.233129 
L 197.178099 139.994357 
L 199.483884 148.045029 
L 201.789669 137.586679 
L 204.095455 134.689942 
L 206.40124 129.009328 
L 208.707025 136.75904 
L 211.01281 135.705681 
L 213.318595 119.942917 
L 215.62438 115.315662 
L 217.930165 122.124875 
L 220.23595 120.356737 
L 222.541736 114.412783 
L 224.847521 113.321804 
L 227.153306 114.525643 
L 229.459091 108.431209 
L 231.764876 107.64119 
L 234.070661 104.217774 
L 236.376446 101.358656 
L 238.682231 101.847716 
L 240.988017 99.063839 
L 243.293802 95.640422 
L 245.599587 86.348292 
L 247.905372 82.021996 
L 250.211157 86.987831 
L 252.516942 78.41048 
L 254.822727 79.313359 
L 257.128512 71.939846 
L 259.434298 73.820845 
L 261.740083 69.005489 
L 264.045868 73.519885 
L 266.351653 66.898772 
L 268.657438 63.362495 
L 270.963223 64.039655 
L 273.269008 42.107217 
L 275.574793 41.204338 
L 277.880579 39.06 
L 280.186364 44.025835 
" style="fill:none;stroke:#1f77b4;stroke-linecap:square;stroke-width:1.5;"/>
   </g>
   <g id="patch_3">
    <path d="M 40.5 224.28 
L 40.5 30.24 
" style="fill:none;stroke:#000000;stroke-linecap:square;stroke-linejoin:miter;stroke-width:0.8;"/>
   </g>
   <g id="patch_4">
    <path d="M 291.6 224.28 
L 291.6 30.24 
" style="fill:none;stroke:#000000;stroke-linecap:square;stroke-linejoin:miter;stroke-width:0.8;"/>
   </g>
   <g id="patch_5">
    <path d="M 40.5 224.28 
L 291.6 224.28 
" style="fill:none;stroke:#000000;stroke-linecap:square;stroke-linejoin:miter;stroke-width:0.8;"/>
   </g>
   <g id="patch_6">
    <path d="M 40.5 30.24 
L 291.6 30.24 
" style="fill:none;stroke:#000000;stroke-linecap:square;stroke-linejoin:miter;stroke-width:0.8;"/>
   </g>
   <g id="text_14">
    <text style="font-family:DejaVu Sans;font-size:12px;font-style:normal;font-weight:normal;text-anchor:middle;" transform="rotate(-0, 166.05, 24.24)" x="166.05" y="24.24">Average Bits Consumed by exp(x)*(1-x) Algorithm</text>
   </g>
  </g>
 </g>
 <defs>
  <clipPath id="pb2e54694c5">
   <rect height="194.04" width="251.1" x="40.5" y="30.24"/>
  </clipPath>
 </defs>
</svg>
