<?xml version="1.0" encoding="utf-8" standalone="no"?>
<!DOCTYPE svg PUBLIC "-//W3C//DTD SVG 1.1//EN"
  "http://www.w3.org/Graphics/SVG/1.1/DTD/svg11.dtd">
<!-- Created with matplotlib (https://matplotlib.org/) -->
<svg height="252pt" version="1.1" viewBox="0 0 324 252" width="324pt" xmlns="http://www.w3.org/2000/svg" xmlns:xlink="http://www.w3.org/1999/xlink">
 <defs>
  <style type="text/css">
*{stroke-linecap:butt;stroke-linejoin:round;}
  </style>
 </defs>
 <g id="figure_1">
  <g id="patch_1">
   <path d="M 0 252 
L 324 252 
L 324 0 
L 0 0 
z
" style="fill:#ffffff;"/>
  </g>
  <g id="axes_1">
   <g id="patch_2">
    <path d="M 40.5 224.28 
L 291.6 224.28 
L 291.6 30.24 
L 40.5 30.24 
z
" style="fill:#ffffff;"/>
   </g>
   <g id="matplotlib.axis_1">
    <g id="xtick_1">
     <g id="line2d_1">
      <defs>
       <path d="M 0 0 
L 0 3.5 
" id="m9cfba7aa71" style="stroke:#000000;stroke-width:0.8;"/>
      </defs>
      <g>
       <use style="stroke:#000000;stroke-width:0.8;" x="51.890805" xlink:href="#m9cfba7aa71" y="224.28"/>
      </g>
     </g>
     <g id="text_1">
      <text style="font-family:DejaVu Sans;font-size:10px;font-style:normal;font-weight:normal;text-anchor:middle;" transform="rotate(-0, 51.890805, 238.878438)" x="51.890805" y="238.878438">0.0</text>
     </g>
    </g>
    <g id="xtick_2">
     <g id="line2d_2">
      <g>
       <use style="stroke:#000000;stroke-width:0.8;" x="97.554483" xlink:href="#m9cfba7aa71" y="224.28"/>
      </g>
     </g>
     <g id="text_2">
      <text style="font-family:DejaVu Sans;font-size:10px;font-style:normal;font-weight:normal;text-anchor:middle;" transform="rotate(-0, 97.554483, 238.878438)" x="97.554483" y="238.878438">0.2</text>
     </g>
    </g>
    <g id="xtick_3">
     <g id="line2d_3">
      <g>
       <use style="stroke:#000000;stroke-width:0.8;" x="143.218161" xlink:href="#m9cfba7aa71" y="224.28"/>
      </g>
     </g>
     <g id="text_3">
      <text style="font-family:DejaVu Sans;font-size:10px;font-style:normal;font-weight:normal;text-anchor:middle;" transform="rotate(-0, 143.218161, 238.878438)" x="143.218161" y="238.878438">0.4</text>
     </g>
    </g>
    <g id="xtick_4">
     <g id="line2d_4">
      <g>
       <use style="stroke:#000000;stroke-width:0.8;" x="188.881839" xlink:href="#m9cfba7aa71" y="224.28"/>
      </g>
     </g>
     <g id="text_4">
      <text style="font-family:DejaVu Sans;font-size:10px;font-style:normal;font-weight:normal;text-anchor:middle;" transform="rotate(-0, 188.881839, 238.878438)" x="188.881839" y="238.878438">0.6</text>
     </g>
    </g>
    <g id="xtick_5">
     <g id="line2d_5">
      <g>
       <use style="stroke:#000000;stroke-width:0.8;" x="234.545517" xlink:href="#m9cfba7aa71" y="224.28"/>
      </g>
     </g>
     <g id="text_5">
      <text style="font-family:DejaVu Sans;font-size:10px;font-style:normal;font-weight:normal;text-anchor:middle;" transform="rotate(-0, 234.545517, 238.878438)" x="234.545517" y="238.878438">0.8</text>
     </g>
    </g>
    <g id="xtick_6">
     <g id="line2d_6">
      <g>
       <use style="stroke:#000000;stroke-width:0.8;" x="280.209195" xlink:href="#m9cfba7aa71" y="224.28"/>
      </g>
     </g>
     <g id="text_6">
      <text style="font-family:DejaVu Sans;font-size:10px;font-style:normal;font-weight:normal;text-anchor:middle;" transform="rotate(-0, 280.209195, 238.878438)" x="280.209195" y="238.878438">1.0</text>
     </g>
    </g>
    <g id="text_7">
     <text style="font-family:DejaVu Sans;font-size:10px;font-style:normal;font-weight:normal;text-anchor:middle;" transform="rotate(-0, 166.05, 252.556563)" x="166.05" y="252.556563">Input Coin's Heads Probability (λ)</text>
    </g>
   </g>
   <g id="matplotlib.axis_2">
    <g id="ytick_1">
     <g id="line2d_7">
      <defs>
       <path d="M 0 0 
L -3.5 0 
" id="m0e97c66fc6" style="stroke:#000000;stroke-width:0.8;"/>
      </defs>
      <g>
       <use style="stroke:#000000;stroke-width:0.8;" x="40.5" xlink:href="#m0e97c66fc6" y="201.890769"/>
      </g>
     </g>
     <g id="text_8">
      <text style="font-family:DejaVu Sans;font-size:10px;font-style:normal;font-weight:normal;text-anchor:end;" transform="rotate(-0, 33.5, 205.689988)" x="33.5" y="205.689988">0.4</text>
     </g>
    </g>
    <g id="ytick_2">
     <g id="line2d_8">
      <g>
       <use style="stroke:#000000;stroke-width:0.8;" x="40.5" xlink:href="#m0e97c66fc6" y="174.752308"/>
      </g>
     </g>
     <g id="text_9">
      <text style="font-family:DejaVu Sans;font-size:10px;font-style:normal;font-weight:normal;text-anchor:end;" transform="rotate(-0, 33.5, 178.551526)" x="33.5" y="178.551526">0.5</text>
     </g>
    </g>
    <g id="ytick_3">
     <g id="line2d_9">
      <g>
       <use style="stroke:#000000;stroke-width:0.8;" x="40.5" xlink:href="#m0e97c66fc6" y="147.613846"/>
      </g>
     </g>
     <g id="text_10">
      <text style="font-family:DejaVu Sans;font-size:10px;font-style:normal;font-weight:normal;text-anchor:end;" transform="rotate(-0, 33.5, 151.413065)" x="33.5" y="151.413065">0.6</text>
     </g>
    </g>
    <g id="ytick_4">
     <g id="line2d_10">
      <g>
       <use style="stroke:#000000;stroke-width:0.8;" x="40.5" xlink:href="#m0e97c66fc6" y="120.475385"/>
      </g>
     </g>
     <g id="text_11">
      <text style="font-family:DejaVu Sans;font-size:10px;font-style:normal;font-weight:normal;text-anchor:end;" transform="rotate(-0, 33.5, 124.274603)" x="33.5" y="124.274603">0.7</text>
     </g>
    </g>
    <g id="ytick_5">
     <g id="line2d_11">
      <g>
       <use style="stroke:#000000;stroke-width:0.8;" x="40.5" xlink:href="#m0e97c66fc6" y="93.336923"/>
      </g>
     </g>
     <g id="text_12">
      <text style="font-family:DejaVu Sans;font-size:10px;font-style:normal;font-weight:normal;text-anchor:end;" transform="rotate(-0, 33.5, 97.136142)" x="33.5" y="97.136142">0.8</text>
     </g>
    </g>
    <g id="ytick_6">
     <g id="line2d_12">
      <g>
       <use style="stroke:#000000;stroke-width:0.8;" x="40.5" xlink:href="#m0e97c66fc6" y="66.198462"/>
      </g>
     </g>
     <g id="text_13">
      <text style="font-family:DejaVu Sans;font-size:10px;font-style:normal;font-weight:normal;text-anchor:end;" transform="rotate(-0, 33.5, 69.99768)" x="33.5" y="69.99768">0.9</text>
     </g>
    </g>
    <g id="ytick_7">
     <g id="line2d_13">
      <g>
       <use style="stroke:#000000;stroke-width:0.8;" x="40.5" xlink:href="#m0e97c66fc6" y="39.06"/>
      </g>
     </g>
     <g id="text_14">
      <text style="font-family:DejaVu Sans;font-size:10px;font-style:normal;font-weight:normal;text-anchor:end;" transform="rotate(-0, 33.5, 42.859219)" x="33.5" y="42.859219">1.0</text>
     </g>
    </g>
    <g id="text_15">
     <text style="font-family:DejaVu Sans;font-size:10px;font-style:normal;font-weight:normal;text-anchor:middle;" transform="rotate(-90, 11.517187, 127.26)" x="11.517187" y="127.26">Simulated Mean / Function Value</text>
    </g>
   </g>
   <g id="line2d_14">
    <path clip-path="url(#pe848c61316)" d="M 52.119123 39.331249 
L 54.420757 42.050561 
L 56.722391 44.742599 
L 59.024025 47.407634 
L 61.325658 50.045939 
L 63.627292 52.657781 
L 65.928926 55.243426 
L 68.23056 57.803137 
L 70.532194 60.337173 
L 72.833828 62.845792 
L 75.135462 65.32925 
L 77.437096 67.787798 
L 79.738729 70.221686 
L 82.040363 72.631163 
L 84.341997 75.016471 
L 86.643631 77.377855 
L 88.945265 79.715553 
L 91.246899 82.029804 
L 93.548533 84.320843 
L 95.850167 86.588902 
L 98.151801 88.834213 
L 100.453434 91.057002 
L 102.755068 93.257496 
L 105.056702 95.435919 
L 107.358336 97.592493 
L 109.65997 99.727435 
L 111.961604 101.840963 
L 114.263238 103.933293 
L 116.564872 106.004636 
L 118.866505 108.055203 
L 121.168139 110.085203 
L 123.469773 112.094841 
L 125.771407 114.084322 
L 128.073041 116.053849 
L 130.374675 118.003621 
L 132.676309 119.933836 
L 134.977943 121.844691 
L 137.279576 123.73638 
L 139.58121 125.609095 
L 141.882844 127.463026 
L 144.184478 129.298362 
L 146.486112 131.115289 
L 148.787746 132.913992 
L 151.08938 134.694654 
L 153.391014 136.457455 
L 155.692648 138.202576 
L 157.994281 139.930192 
L 160.295915 141.64048 
L 162.597549 143.333614 
L 164.899183 145.009765 
L 167.200817 146.669104 
L 169.502451 148.3118 
L 171.804085 149.938019 
L 174.105719 151.547927 
L 176.407352 153.141687 
L 178.708986 154.719462 
L 181.01062 156.281411 
L 183.312254 157.827694 
L 185.613888 159.358467 
L 187.915522 160.873887 
L 190.217156 162.374106 
L 192.51879 163.859278 
L 194.820424 165.329553 
L 197.122057 166.785082 
L 199.423691 168.226011 
L 201.725325 169.652487 
L 204.026959 171.064656 
L 206.328593 172.46266 
L 208.630227 173.846642 
L 210.931861 175.216743 
L 213.233495 176.573101 
L 215.535128 177.915854 
L 217.836762 179.24514 
L 220.138396 180.561093 
L 222.44003 181.863846 
L 224.741664 183.153533 
L 227.043298 184.430284 
L 229.344932 185.694228 
L 231.646566 186.945496 
L 233.948199 188.184212 
L 236.249833 189.410505 
L 238.551467 190.624497 
L 240.853101 191.826313 
L 243.154735 193.016074 
L 245.456369 194.193902 
L 247.758003 195.359916 
L 250.059637 196.514235 
L 252.361271 197.656976 
L 254.662904 198.788254 
L 256.964538 199.908186 
L 259.266172 201.016885 
L 261.567806 202.114464 
L 263.86944 203.201033 
L 266.171074 204.276704 
L 268.472708 205.341586 
L 270.774342 206.395787 
L 273.075975 207.439414 
L 275.377609 208.472574 
L 277.679243 209.49537 
L 279.980877 210.507908 
" style="fill:none;stroke:#1f77b4;stroke-linecap:square;stroke-width:1.5;"/>
   </g>
   <g id="line2d_15">
    <path clip-path="url(#pe848c61316)" d="M 51.913636 39.06 
L 54.219421 42.316615 
L 56.525207 48.829846 
L 58.830992 46.658769 
L 61.136777 51.543692 
L 63.442562 52.086462 
L 65.748347 52.629231 
L 68.054132 61.313538 
L 70.359917 59.142462 
L 72.665702 65.655692 
L 74.971488 64.570154 
L 77.277273 67.826769 
L 79.583058 69.455077 
L 81.888843 81.396 
L 84.194628 71.083385 
L 86.500413 77.596615 
L 88.806198 75.968308 
L 91.111983 79.224923 
L 93.417769 92.794154 
L 95.723554 90.080308 
L 98.029339 91.165846 
L 100.335124 90.623077 
L 102.640909 93.336923 
L 104.946694 98.764615 
L 107.252479 98.221846 
L 109.558264 99.307385 
L 111.86405 111.248308 
L 114.169835 108.534462 
L 116.47562 107.991692 
L 118.781405 99.850154 
L 121.08719 102.564 
L 123.392975 111.791077 
L 125.69876 116.133231 
L 128.004545 114.504923 
L 130.310331 108.534462 
L 132.616116 121.560923 
L 134.921901 118.847077 
L 137.227686 117.761538 
L 139.533471 121.018154 
L 141.839256 138.386769 
L 144.145041 125.360308 
L 146.450826 138.386769 
L 148.756612 133.501846 
L 151.062397 138.386769 
L 153.368182 137.844 
L 155.673967 134.587385 
L 157.979752 144.357231 
L 160.285537 151.956 
L 162.591322 141.643385 
L 164.897107 154.127077 
L 167.202893 150.327692 
L 169.508678 142.186154 
L 171.814463 143.814462 
L 174.120248 161.725846 
L 176.426033 144.357231 
L 178.731818 145.985538 
L 181.037603 166.068 
L 183.343388 150.870462 
L 185.649174 155.755385 
L 187.954959 162.268615 
L 190.260744 163.896923 
L 192.566529 164.982462 
L 194.872314 157.926462 
L 197.178099 157.926462 
L 199.483884 171.495692 
L 201.789669 182.893846 
L 204.095455 166.610769 
L 206.40124 168.781846 
L 208.707025 174.209538 
L 211.01281 183.979385 
L 213.318595 174.209538 
L 215.62438 189.407077 
L 217.930165 173.124 
L 220.23595 181.808308 
L 222.541736 178.008923 
L 224.847521 187.778769 
L 227.153306 186.150462 
L 229.459091 186.693231 
L 231.764876 190.492615 
L 234.070661 191.035385 
L 236.376446 187.778769 
L 238.682231 192.120923 
L 240.988017 201.348 
L 243.293802 195.920308 
L 245.599587 200.805231 
L 247.905372 193.749231 
L 250.211157 197.548615 
L 252.516942 198.634154 
L 254.822727 195.377538 
L 257.128512 191.578154 
L 259.434298 204.061846 
L 261.740083 201.890769 
L 264.045868 213.831692 
L 266.351653 209.489538 
L 268.657438 212.746154 
L 270.963223 205.147385 
L 273.269008 211.117846 
L 275.574793 201.348 
L 277.880579 210.032308 
L 280.186364 215.46 
" style="fill:none;stroke:#ff7f0e;stroke-linecap:square;stroke-width:1.5;"/>
   </g>
   <g id="patch_3">
    <path d="M 40.5 224.28 
L 40.5 30.24 
" style="fill:none;stroke:#000000;stroke-linecap:square;stroke-linejoin:miter;stroke-width:0.8;"/>
   </g>
   <g id="patch_4">
    <path d="M 291.6 224.28 
L 291.6 30.24 
" style="fill:none;stroke:#000000;stroke-linecap:square;stroke-linejoin:miter;stroke-width:0.8;"/>
   </g>
   <g id="patch_5">
    <path d="M 40.5 224.28 
L 291.6 224.28 
" style="fill:none;stroke:#000000;stroke-linecap:square;stroke-linejoin:miter;stroke-width:0.8;"/>
   </g>
   <g id="patch_6">
    <path d="M 40.5 30.24 
L 291.6 30.24 
" style="fill:none;stroke:#000000;stroke-linecap:square;stroke-linejoin:miter;stroke-width:0.8;"/>
   </g>
   <g id="text_16">
    <text style="font-family:DejaVu Sans;font-size:12px;font-style:normal;font-weight:normal;text-anchor:middle;" transform="rotate(-0, 166.05, 24.24)" x="166.05" y="24.24">Expected Value in exp(-x) (Alt. Series) Algorithm</text>
   </g>
   <g id="legend_1">
    <g id="patch_7">
     <path d="M 58.442188 67.59625 
L 284.6 67.59625 
Q 286.6 67.59625 286.6 65.59625 
L 286.6 37.24 
Q 286.6 35.24 284.6 35.24 
L 58.442188 35.24 
Q 56.442188 35.24 56.442188 37.24 
L 56.442188 65.59625 
Q 56.442188 67.59625 58.442188 67.59625 
z
" style="fill:#ffffff;opacity:0.8;stroke:#cccccc;stroke-linejoin:miter;"/>
    </g>
    <g id="line2d_16">
     <path d="M 60.442188 43.338438 
L 80.442188 43.338438 
" style="fill:none;stroke:#1f77b4;stroke-linecap:square;stroke-width:1.5;"/>
    </g>
    <g id="line2d_17"/>
    <g id="text_17">
     <text style="font-family:DejaVu Sans;font-size:10px;font-style:normal;font-weight:normal;text-anchor:start;" transform="rotate(-0, 88.442188, 46.838438)" x="88.442188" y="46.838438">exp(-x)</text>
    </g>
    <g id="line2d_18">
     <path d="M 60.442188 58.016563 
L 80.442188 58.016563 
" style="fill:none;stroke:#ff7f0e;stroke-linecap:square;stroke-width:1.5;"/>
    </g>
    <g id="line2d_19"/>
    <g id="text_18">
     <text style="font-family:DejaVu Sans;font-size:10px;font-style:normal;font-weight:normal;text-anchor:start;" transform="rotate(-0, 88.442188, 61.516563)" x="88.442188" y="61.516563">Simulated Mean of exp(-x) (Alt. Series)</text>
    </g>
   </g>
  </g>
 </g>
 <defs>
  <clipPath id="pe848c61316">
   <rect height="194.04" width="251.1" x="40.5" y="30.24"/>
  </clipPath>
 </defs>
</svg>
