<?xml version="1.0" encoding="utf-8" standalone="no"?>
<!DOCTYPE svg PUBLIC "-//W3C//DTD SVG 1.1//EN"
  "http://www.w3.org/Graphics/SVG/1.1/DTD/svg11.dtd">
<!-- Created with matplotlib (https://matplotlib.org/) -->
<svg height="345.6pt" version="1.1" viewBox="0 0 460.8 345.6" width="460.8pt" xmlns="http://www.w3.org/2000/svg" xmlns:xlink="http://www.w3.org/1999/xlink">
 <defs>
  <style type="text/css">
*{stroke-linecap:butt;stroke-linejoin:round;}
  </style>
 </defs>
 <g id="figure_1">
  <g id="patch_1">
   <path d="M 0 345.6 
L 460.8 345.6 
L 460.8 0 
L 0 0 
z
" style="fill:#ffffff;"/>
  </g>
  <g id="axes_1">
   <g id="patch_2">
    <path d="M 57.6 307.584 
L 414.72 307.584 
L 414.72 41.472 
L 57.6 41.472 
z
" style="fill:#ffffff;"/>
   </g>
   <g id="matplotlib.axis_1">
    <g id="xtick_1">
     <g id="line2d_1">
      <defs>
       <path d="M 0 0 
L 0 3.5 
" id="ma7187112e8" style="stroke:#000000;stroke-width:0.8;"/>
      </defs>
      <g>
       <use style="stroke:#000000;stroke-width:0.8;" x="73.800255" xlink:href="#ma7187112e8" y="307.584"/>
      </g>
     </g>
     <g id="text_1">
      <text style="font-family:DejaVu Sans;font-size:10px;font-style:normal;font-weight:normal;text-anchor:middle;" transform="rotate(-0, 73.800255, 322.182437)" x="73.800255" y="322.182437">0.0</text>
     </g>
    </g>
    <g id="xtick_2">
     <g id="line2d_2">
      <g>
       <use style="stroke:#000000;stroke-width:0.8;" x="138.744153" xlink:href="#ma7187112e8" y="307.584"/>
      </g>
     </g>
     <g id="text_2">
      <text style="font-family:DejaVu Sans;font-size:10px;font-style:normal;font-weight:normal;text-anchor:middle;" transform="rotate(-0, 138.744153, 322.182437)" x="138.744153" y="322.182437">0.2</text>
     </g>
    </g>
    <g id="xtick_3">
     <g id="line2d_3">
      <g>
       <use style="stroke:#000000;stroke-width:0.8;" x="203.688051" xlink:href="#ma7187112e8" y="307.584"/>
      </g>
     </g>
     <g id="text_3">
      <text style="font-family:DejaVu Sans;font-size:10px;font-style:normal;font-weight:normal;text-anchor:middle;" transform="rotate(-0, 203.688051, 322.182437)" x="203.688051" y="322.182437">0.4</text>
     </g>
    </g>
    <g id="xtick_4">
     <g id="line2d_4">
      <g>
       <use style="stroke:#000000;stroke-width:0.8;" x="268.631949" xlink:href="#ma7187112e8" y="307.584"/>
      </g>
     </g>
     <g id="text_4">
      <text style="font-family:DejaVu Sans;font-size:10px;font-style:normal;font-weight:normal;text-anchor:middle;" transform="rotate(-0, 268.631949, 322.182437)" x="268.631949" y="322.182437">0.6</text>
     </g>
    </g>
    <g id="xtick_5">
     <g id="line2d_5">
      <g>
       <use style="stroke:#000000;stroke-width:0.8;" x="333.575847" xlink:href="#ma7187112e8" y="307.584"/>
      </g>
     </g>
     <g id="text_5">
      <text style="font-family:DejaVu Sans;font-size:10px;font-style:normal;font-weight:normal;text-anchor:middle;" transform="rotate(-0, 333.575847, 322.182437)" x="333.575847" y="322.182437">0.8</text>
     </g>
    </g>
    <g id="xtick_6">
     <g id="line2d_6">
      <g>
       <use style="stroke:#000000;stroke-width:0.8;" x="398.519745" xlink:href="#ma7187112e8" y="307.584"/>
      </g>
     </g>
     <g id="text_6">
      <text style="font-family:DejaVu Sans;font-size:10px;font-style:normal;font-weight:normal;text-anchor:middle;" transform="rotate(-0, 398.519745, 322.182437)" x="398.519745" y="322.182437">1.0</text>
     </g>
    </g>
    <g id="text_7">
     <text style="font-family:DejaVu Sans;font-size:10px;font-style:normal;font-weight:normal;text-anchor:middle;" transform="rotate(-0, 236.16, 335.860562)" x="236.16" y="335.860562">Input Coin's Heads Probability (λ)</text>
    </g>
   </g>
   <g id="matplotlib.axis_2">
    <g id="ytick_1">
     <g id="line2d_7">
      <defs>
       <path d="M 0 0 
L -3.5 0 
" id="m20ca458ab5" style="stroke:#000000;stroke-width:0.8;"/>
      </defs>
      <g>
       <use style="stroke:#000000;stroke-width:0.8;" x="57.6" xlink:href="#m20ca458ab5" y="295.488065"/>
      </g>
     </g>
     <g id="text_8">
      <text style="font-family:DejaVu Sans;font-size:10px;font-style:normal;font-weight:normal;text-anchor:end;" transform="rotate(-0, 50.6, 299.287284)" x="50.6" y="299.287284">0</text>
     </g>
    </g>
    <g id="ytick_2">
     <g id="line2d_8">
      <g>
       <use style="stroke:#000000;stroke-width:0.8;" x="57.6" xlink:href="#m20ca458ab5" y="239.634923"/>
      </g>
     </g>
     <g id="text_9">
      <text style="font-family:DejaVu Sans;font-size:10px;font-style:normal;font-weight:normal;text-anchor:end;" transform="rotate(-0, 50.6, 243.434142)" x="50.6" y="243.434142">50</text>
     </g>
    </g>
    <g id="ytick_3">
     <g id="line2d_9">
      <g>
       <use style="stroke:#000000;stroke-width:0.8;" x="57.6" xlink:href="#m20ca458ab5" y="183.781781"/>
      </g>
     </g>
     <g id="text_10">
      <text style="font-family:DejaVu Sans;font-size:10px;font-style:normal;font-weight:normal;text-anchor:end;" transform="rotate(-0, 50.6, 187.581)" x="50.6" y="187.581">100</text>
     </g>
    </g>
    <g id="ytick_4">
     <g id="line2d_10">
      <g>
       <use style="stroke:#000000;stroke-width:0.8;" x="57.6" xlink:href="#m20ca458ab5" y="127.928639"/>
      </g>
     </g>
     <g id="text_11">
      <text style="font-family:DejaVu Sans;font-size:10px;font-style:normal;font-weight:normal;text-anchor:end;" transform="rotate(-0, 50.6, 131.727858)" x="50.6" y="131.727858">150</text>
     </g>
    </g>
    <g id="ytick_5">
     <g id="line2d_11">
      <g>
       <use style="stroke:#000000;stroke-width:0.8;" x="57.6" xlink:href="#m20ca458ab5" y="72.075497"/>
      </g>
     </g>
     <g id="text_12">
      <text style="font-family:DejaVu Sans;font-size:10px;font-style:normal;font-weight:normal;text-anchor:end;" transform="rotate(-0, 50.6, 75.874716)" x="50.6" y="75.874716">200</text>
     </g>
    </g>
    <g id="text_13">
     <text style="font-family:DejaVu Sans;font-size:10px;font-style:normal;font-weight:normal;text-anchor:middle;" transform="rotate(-90, 25.432813, 174.528)" x="25.432813" y="174.528">Coin Flips Needed</text>
    </g>
   </g>
   <g id="line2d_12">
    <path clip-path="url(#p8f8df8ace4)" d="M 73.832727 294.37117 
L 77.112066 294.388024 
L 80.391405 294.404746 
L 83.670744 294.421336 
L 86.950083 294.437795 
L 90.229421 294.454123 
L 93.50876 294.470321 
L 96.788099 294.48639 
L 100.067438 294.50233 
L 103.346777 294.518141 
L 106.626116 294.533825 
L 109.905455 294.549382 
L 113.184793 294.564812 
L 116.464132 294.580116 
L 119.743471 294.595295 
L 123.02281 294.610349 
L 126.302149 294.625279 
L 129.581488 294.640085 
L 132.860826 294.654768 
L 136.140165 294.669328 
L 139.419504 294.683766 
L 142.698843 294.698084 
L 145.978182 294.71228 
L 149.257521 294.726356 
L 152.53686 294.740313 
L 155.816198 294.75415 
L 159.095537 294.767869 
L 162.374876 294.78147 
L 165.654215 294.794954 
L 168.933554 294.808321 
L 172.212893 294.821572 
L 175.492231 294.834708 
L 178.77157 294.847728 
L 182.050909 294.860634 
L 185.330248 294.873426 
L 188.609587 294.886105 
L 191.888926 294.898672 
L 195.168264 294.911126 
L 198.447603 294.923468 
L 201.726942 294.9357 
L 205.006281 294.947821 
L 208.28562 294.959833 
L 211.564959 294.971735 
L 214.844298 294.983529 
L 218.123636 294.995214 
L 221.402975 295.006792 
L 224.682314 295.018263 
L 227.961653 295.029628 
L 231.240992 295.040887 
L 234.520331 295.052041 
L 237.799669 295.06309 
L 241.079008 295.074035 
L 244.358347 295.084877 
L 247.637686 295.095615 
L 250.917025 295.106252 
L 254.196364 295.116786 
L 257.475702 295.127219 
L 260.755041 295.137552 
L 264.03438 295.147784 
L 267.313719 295.157917 
L 270.593058 295.167951 
L 273.872397 295.177887 
L 277.151736 295.187724 
L 280.431074 295.197465 
L 283.710413 295.207108 
L 286.989752 295.216656 
L 290.269091 295.226108 
L 293.54843 295.235465 
L 296.827769 295.244727 
L 300.107107 295.253896 
L 303.386446 295.262971 
L 306.665785 295.271953 
L 309.945124 295.280843 
L 313.224463 295.289642 
L 316.503802 295.298349 
L 319.78314 295.306966 
L 323.062479 295.315492 
L 326.341818 295.323929 
L 329.621157 295.332278 
L 332.900496 295.340537 
L 336.179835 295.348709 
L 339.459174 295.356794 
L 342.738512 295.364791 
L 346.017851 295.372703 
L 349.29719 295.380529 
L 352.576529 295.38827 
L 355.855868 295.395926 
L 359.135207 295.403498 
L 362.414545 295.410986 
L 365.693884 295.418392 
L 368.973223 295.425715 
L 372.252562 295.432956 
L 375.531901 295.440116 
L 378.81124 295.447195 
L 382.090579 295.454194 
L 385.369917 295.461112 
L 388.649256 295.467952 
L 391.928595 295.474713 
L 395.207934 295.481395 
L 398.487273 295.488 
" style="fill:none;stroke:#1f77b4;stroke-linecap:square;stroke-width:1.5;"/>
   </g>
   <g id="line2d_13">
    <path clip-path="url(#p8f8df8ace4)" d="M 73.832727 294.368768 
L 77.112066 294.3643 
L 80.391405 294.333022 
L 83.670744 294.324086 
L 86.950083 294.312915 
L 90.229421 294.303978 
L 93.50876 294.324086 
L 96.788099 294.277169 
L 100.067438 294.281637 
L 103.346777 294.212379 
L 106.626116 294.236955 
L 109.905455 294.216848 
L 113.184793 294.232486 
L 116.464132 294.172165 
L 119.743471 294.19674 
L 123.02281 294.203443 
L 126.302149 294.15876 
L 129.581488 294.116312 
L 132.860826 294.129717 
L 136.140165 294.091736 
L 139.419504 294.060459 
L 142.698843 293.977796 
L 145.978182 293.975562 
L 149.257521 294.015776 
L 152.53686 293.913006 
L 155.816198 293.988967 
L 159.095537 293.977796 
L 162.374876 293.848217 
L 165.654215 293.805768 
L 168.933554 293.792364 
L 172.212893 293.781193 
L 175.492231 293.718637 
L 178.77157 293.774491 
L 182.050909 293.705233 
L 185.330248 293.568951 
L 188.609587 293.62257 
L 191.888926 293.492991 
L 195.168264 293.595761 
L 198.447603 293.40586 
L 201.726942 293.421499 
L 205.006281 293.412562 
L 208.28562 293.354475 
L 211.564959 293.314261 
L 214.844298 293.20032 
L 218.123636 293.160106 
L 221.402975 293.034995 
L 224.682314 293.034995 
L 227.961653 292.98361 
L 231.240992 292.952332 
L 234.520331 292.744559 
L 237.799669 292.742325 
L 241.079008 292.545721 
L 244.358347 292.62615 
L 247.637686 292.434015 
L 250.917025 292.197198 
L 254.196364 292.172623 
L 257.475702 292.471995 
L 260.755041 292.045277 
L 264.03438 291.879952 
L 267.313719 291.70569 
L 270.593058 291.363869 
L 273.872397 291.605155 
L 277.151736 291.296845 
L 280.431074 291.249929 
L 283.710413 290.718207 
L 286.989752 290.488092 
L 290.269091 290.130632 
L 293.54843 289.965306 
L 296.827769 290.293723 
L 300.107107 289.156553 
L 303.386446 289.207938 
L 306.665785 289.207938 
L 309.945124 287.74682 
L 313.224463 286.92913 
L 316.503802 286.897852 
L 319.78314 286.392939 
L 323.062479 286.471134 
L 326.341818 284.630214 
L 329.621157 283.392509 
L 332.900496 282.7111 
L 336.179835 282.411727 
L 339.459174 281.701275 
L 342.738512 278.83936 
L 346.017851 278.464027 
L 349.29719 274.536434 
L 352.576529 271.203119 
L 355.855868 267.519046 
L 359.135207 263.410489 
L 362.414545 258.374769 
L 365.693884 251.413234 
L 368.973223 241.075934 
L 372.252562 225.655999 
L 375.531901 202.879087 
L 378.81124 176.516404 
L 382.090579 131.471962 
L 385.369917 53.568 
" style="fill:none;stroke:#ff7f0e;stroke-linecap:square;stroke-width:1.5;"/>
   </g>
   <g id="patch_3">
    <path d="M 57.6 307.584 
L 57.6 41.472 
" style="fill:none;stroke:#000000;stroke-linecap:square;stroke-linejoin:miter;stroke-width:0.8;"/>
   </g>
   <g id="patch_4">
    <path d="M 414.72 307.584 
L 414.72 41.472 
" style="fill:none;stroke:#000000;stroke-linecap:square;stroke-linejoin:miter;stroke-width:0.8;"/>
   </g>
   <g id="patch_5">
    <path d="M 57.6 307.584 
L 414.72 307.584 
" style="fill:none;stroke:#000000;stroke-linecap:square;stroke-linejoin:miter;stroke-width:0.8;"/>
   </g>
   <g id="patch_6">
    <path d="M 57.6 41.472 
L 414.72 41.472 
" style="fill:none;stroke:#000000;stroke-linecap:square;stroke-linejoin:miter;stroke-width:0.8;"/>
   </g>
   <g id="text_14">
    <text style="font-family:DejaVu Sans;font-size:12px;font-style:normal;font-weight:normal;text-anchor:middle;" transform="rotate(-0, 236.16, 35.472)" x="236.16" y="35.472">Coin Flips for exp(-x)</text>
   </g>
   <g id="legend_1">
    <g id="patch_7">
     <path d="M 64.6 78.82825 
L 274.728125 78.82825 
Q 276.728125 78.82825 276.728125 76.82825 
L 276.728125 48.472 
Q 276.728125 46.472 274.728125 46.472 
L 64.6 46.472 
Q 62.6 46.472 62.6 48.472 
L 62.6 76.82825 
Q 62.6 78.82825 64.6 78.82825 
z
" style="fill:#ffffff;opacity:0.8;stroke:#cccccc;stroke-linejoin:miter;"/>
    </g>
    <g id="line2d_14">
     <path d="M 66.6 54.570437 
L 86.6 54.570437 
" style="fill:none;stroke:#1f77b4;stroke-linecap:square;stroke-width:1.5;"/>
    </g>
    <g id="line2d_15"/>
    <g id="text_15">
     <text style="font-family:DejaVu Sans;font-size:10px;font-style:normal;font-weight:normal;text-anchor:start;" transform="rotate(-0, 94.6, 58.070437)" x="94.6" y="58.070437">Coin Flip Lower Bound</text>
    </g>
    <g id="line2d_16">
     <path d="M 66.6 69.248562 
L 86.6 69.248562 
" style="fill:none;stroke:#ff7f0e;stroke-linecap:square;stroke-width:1.5;"/>
    </g>
    <g id="line2d_17"/>
    <g id="text_16">
     <text style="font-family:DejaVu Sans;font-size:10px;font-style:normal;font-weight:normal;text-anchor:start;" transform="rotate(-0, 94.6, 72.748562)" x="94.6" y="72.748562">Avg. Coins Flipped exp(-x) (Flajolet)</text>
    </g>
   </g>
  </g>
 </g>
 <defs>
  <clipPath id="p8f8df8ace4">
   <rect height="266.112" width="357.12" x="57.6" y="41.472"/>
  </clipPath>
 </defs>
</svg>
