<svg height="460.8" viewBox="0 0 460.8 345.6" width="614.4" xmlns="http://www.w3.org/2000/svg" xmlns:xlink="http://www.w3.org/1999/xlink"><defs><style>*{stroke-linecap:butt;stroke-linejoin:round}</style></defs><g id="figure_1"><path d="M0 345.6h460.8V0H0z" fill="#fff" id="patch_1"/><g id="axes_1"><path d="M57.6 307.584h357.12V41.472H57.6z" fill="#fff" id="patch_2"/><g id="matplotlib.axis_1"><g id="xtick_1"><g id="line2d_1"><defs><path d="M0 0v3.5" id="m297e92ea27" stroke="#000" stroke-width=".8"/></defs><use x="73.8" xlink:href="#m297e92ea27" y="307.584" stroke="#000" stroke-width=".8"/></g><text x="73.8" y="322.182" font-family="DejaVu Sans" font-size="10" font-weight="400" text-anchor="middle" id="text_1">0.0</text></g><g id="xtick_2"><use x="138.744" xlink:href="#m297e92ea27" y="307.584" stroke="#000" stroke-width=".8" id="line2d_2"/><text x="138.744" y="322.182" font-family="DejaVu Sans" font-size="10" font-weight="400" text-anchor="middle" id="text_2">0.2</text></g><g id="xtick_3"><use x="203.688" xlink:href="#m297e92ea27" y="307.584" stroke="#000" stroke-width=".8" id="line2d_3"/><text x="203.688" y="322.182" font-family="DejaVu Sans" font-size="10" font-weight="400" text-anchor="middle" id="text_3">0.4</text></g><g id="xtick_4"><use x="268.632" xlink:href="#m297e92ea27" y="307.584" stroke="#000" stroke-width=".8" id="line2d_4"/><text x="268.632" y="322.182" font-family="DejaVu Sans" font-size="10" font-weight="400" text-anchor="middle" id="text_4">0.6</text></g><g id="xtick_5"><use x="333.576" xlink:href="#m297e92ea27" y="307.584" stroke="#000" stroke-width=".8" id="line2d_5"/><text x="333.576" y="322.182" font-family="DejaVu Sans" font-size="10" font-weight="400" text-anchor="middle" id="text_5">0.8</text></g><g id="xtick_6"><use x="398.52" xlink:href="#m297e92ea27" y="307.584" stroke="#000" stroke-width=".8" id="line2d_6"/><text x="398.52" y="322.182" font-family="DejaVu Sans" font-size="10" font-weight="400" text-anchor="middle" id="text_6">1.0</text></g><text x="236.16" y="335.861" font-family="DejaVu Sans" font-size="10" font-weight="400" text-anchor="middle" id="text_7">Probability</text></g><g id="matplotlib.axis_2"><g id="ytick_1"><g id="line2d_7"><defs><path d="M0 0h-3.5" id="m442d139eb5" stroke="#000" stroke-width=".8"/></defs><use x="57.6" xlink:href="#m442d139eb5" y="301.721" stroke="#000" stroke-width=".8"/></g><text x="50.6" y="305.52" font-family="DejaVu Sans" font-size="10" font-weight="400" text-anchor="end" id="text_8">5</text></g><g id="ytick_2"><use x="57.6" xlink:href="#m442d139eb5" y="268.706" stroke="#000" stroke-width=".8" id="line2d_8"/><text x="50.6" y="272.506" font-family="DejaVu Sans" font-size="10" font-weight="400" text-anchor="end" id="text_9">10</text></g><g id="ytick_3"><use x="57.6" xlink:href="#m442d139eb5" y="235.691" stroke="#000" stroke-width=".8" id="line2d_9"/><text x="50.6" y="239.491" font-family="DejaVu Sans" font-size="10" font-weight="400" text-anchor="end" id="text_10">15</text></g><g id="ytick_4"><use x="57.6" xlink:href="#m442d139eb5" y="202.677" stroke="#000" stroke-width=".8" id="line2d_10"/><text x="50.6" y="206.476" font-family="DejaVu Sans" font-size="10" font-weight="400" text-anchor="end" id="text_11">20</text></g><g id="ytick_5"><use x="57.6" xlink:href="#m442d139eb5" y="169.662" stroke="#000" stroke-width=".8" id="line2d_11"/><text x="50.6" y="173.461" font-family="DejaVu Sans" font-size="10" font-weight="400" text-anchor="end" id="text_12">25</text></g><g id="ytick_6"><use x="57.6" xlink:href="#m442d139eb5" y="136.647" stroke="#000" stroke-width=".8" id="line2d_12"/><text x="50.6" y="140.446" font-family="DejaVu Sans" font-size="10" font-weight="400" text-anchor="end" id="text_13">30</text></g><g id="ytick_7"><use x="57.6" xlink:href="#m442d139eb5" y="103.632" stroke="#000" stroke-width=".8" id="line2d_13"/><text x="50.6" y="107.431" font-family="DejaVu Sans" font-size="10" font-weight="400" text-anchor="end" id="text_14">35</text></g><g id="ytick_8"><use x="57.6" xlink:href="#m442d139eb5" y="70.617" stroke="#000" stroke-width=".8" id="line2d_14"/><text x="50.6" y="74.416" font-family="DejaVu Sans" font-size="10" font-weight="400" text-anchor="end" id="text_15">40</text></g><text transform="rotate(-90 31.795 174.528)" x="31.795" y="174.528" font-family="DejaVu Sans" font-size="10" font-weight="400" text-anchor="middle" id="text_16">Average Bits Consumed Per Call</text></g><path clip-path="url(#pba9c66ce9f)" d="M73.833 294.55l3.28-.132 3.278.436 3.28-.449 3.28-.555 3.278 1.268 3.28.344 3.28-.357 3.278-.053 3.28-.132 3.28.013 3.278-.422 3.28-.146 3.28 1.123 3.278-1.347 3.28.832 3.28-1.373 3.278-.291 3.28-.449 3.28-.04 3.279.832 3.279-.21 3.28-1.19 3.279.357 3.279.74 3.28 1.135 3.279-2.245 3.279.04 3.28 1.004 3.279-2.338 3.279 1.836 3.28-.753 3.279-.964 3.279.449 3.28-1.043 3.279.515 3.279.686 3.28-2.112 3.279.66 3.279.145 3.28.33 3.279-2.509 3.279-.132 3.28-.37 3.279.278 3.279 2.601 3.28-5.045 3.279 1.876 3.279 1.149 3.28-2.84 3.279 1.651 3.279-1.334 3.28-.541 3.279.792 3.279 1.664 3.28-.607 3.279-1.862 3.279.884 3.28-1.003 3.279-2.153 3.28.885 3.278-3.05 3.28 2.561 3.28-.462 3.278-.396 3.28-3.13 3.28 3.553 3.278-7.713 3.28 5.454 3.28-.964 3.278-.026 3.28-1.228 3.28-.74 3.278-5.533 3.28 2.39 3.28.515 3.278-1.294 3.28 1.704 3.28-5.534 3.278 1.083 3.28-2.456 3.28 3.183 3.279-.846 3.279.265 3.28-2.18 3.279-1.346 3.279.21 3.28-5.202 3.279-1.123 3.279 1.492 3.28-3.948 3.279.898 3.279-5.375 3.28-7.316 3.279-.343 3.279-13.391 3.28-6.3 3.279.912 3.279-5.81 3.28-169.024" fill="none" stroke="#1f77b4" stroke-linecap="square" stroke-width="1.5" id="line2d_15"/><path d="M57.6 307.584V41.472" fill="none" stroke="#000" stroke-linecap="square" stroke-width=".8" id="patch_3"/><path d="M414.72 307.584V41.472" fill="none" stroke="#000" stroke-linecap="square" stroke-width=".8" id="patch_4"/><path d="M57.6 307.584h357.12" fill="none" stroke="#000" stroke-linecap="square" stroke-width=".8" id="patch_5"/><path d="M57.6 41.472h357.12" fill="none" stroke="#000" stroke-linecap="square" stroke-width=".8" id="patch_6"/><text x="236.16" y="35.472" font-family="DejaVu Sans" font-size="12" font-weight="400" text-anchor="middle" id="text_17">Avg. Bits Consumed by log(1+x) (Flajolet) Algorithm</text><g id="legend_1"><path d="M64.6 64.15h123.097q2 0 2-2V48.472q0-2-2-2H64.6q-2 0-2 2V62.15q0 2 2 2z" fill="#fff" opacity=".8" stroke="#ccc" id="patch_7"/><path d="M66.6 54.57h20" fill="none" stroke="#1f77b4" stroke-linecap="square" stroke-width="1.5" id="line2d_16"/><text x="94.6" y="58.07" font-family="DejaVu Sans" font-size="10" font-weight="400" id="text_18">log(1+x) (Flajolet)</text></g></g></g><defs><clipPath id="pba9c66ce9f"><path d="M57.6 41.472h357.12v266.112H57.6z"/></clipPath></defs></svg>