<?xml version="1.0" encoding="utf-8" standalone="no"?>
<!DOCTYPE svg PUBLIC "-//W3C//DTD SVG 1.1//EN"
  "http://www.w3.org/Graphics/SVG/1.1/DTD/svg11.dtd">
<!-- Created with matplotlib (https://matplotlib.org/) -->
<svg height="252pt" version="1.1" viewBox="0 0 324 252" width="324pt" xmlns="http://www.w3.org/2000/svg" xmlns:xlink="http://www.w3.org/1999/xlink">
 <defs>
  <style type="text/css">
*{stroke-linecap:butt;stroke-linejoin:round;}
  </style>
 </defs>
 <g id="figure_1">
  <g id="patch_1">
   <path d="M 0 252 
L 324 252 
L 324 0 
L 0 0 
z
" style="fill:#ffffff;"/>
  </g>
  <g id="axes_1">
   <g id="patch_2">
    <path d="M 40.5 224.28 
L 291.6 224.28 
L 291.6 30.24 
L 40.5 30.24 
z
" style="fill:#ffffff;"/>
   </g>
   <g id="matplotlib.axis_1">
    <g id="xtick_1">
     <g id="line2d_1">
      <defs>
       <path d="M 0 0 
L 0 3.5 
" id="me3fea6d075" style="stroke:#000000;stroke-width:0.8;"/>
      </defs>
      <g>
       <use style="stroke:#000000;stroke-width:0.8;" x="51.890805" xlink:href="#me3fea6d075" y="224.28"/>
      </g>
     </g>
     <g id="text_1">
      <text style="font-family:DejaVu Sans;font-size:10px;font-style:normal;font-weight:normal;text-anchor:middle;" transform="rotate(-0, 51.890805, 238.878438)" x="51.890805" y="238.878438">0.0</text>
     </g>
    </g>
    <g id="xtick_2">
     <g id="line2d_2">
      <g>
       <use style="stroke:#000000;stroke-width:0.8;" x="97.554483" xlink:href="#me3fea6d075" y="224.28"/>
      </g>
     </g>
     <g id="text_2">
      <text style="font-family:DejaVu Sans;font-size:10px;font-style:normal;font-weight:normal;text-anchor:middle;" transform="rotate(-0, 97.554483, 238.878438)" x="97.554483" y="238.878438">0.2</text>
     </g>
    </g>
    <g id="xtick_3">
     <g id="line2d_3">
      <g>
       <use style="stroke:#000000;stroke-width:0.8;" x="143.218161" xlink:href="#me3fea6d075" y="224.28"/>
      </g>
     </g>
     <g id="text_3">
      <text style="font-family:DejaVu Sans;font-size:10px;font-style:normal;font-weight:normal;text-anchor:middle;" transform="rotate(-0, 143.218161, 238.878438)" x="143.218161" y="238.878438">0.4</text>
     </g>
    </g>
    <g id="xtick_4">
     <g id="line2d_4">
      <g>
       <use style="stroke:#000000;stroke-width:0.8;" x="188.881839" xlink:href="#me3fea6d075" y="224.28"/>
      </g>
     </g>
     <g id="text_4">
      <text style="font-family:DejaVu Sans;font-size:10px;font-style:normal;font-weight:normal;text-anchor:middle;" transform="rotate(-0, 188.881839, 238.878438)" x="188.881839" y="238.878438">0.6</text>
     </g>
    </g>
    <g id="xtick_5">
     <g id="line2d_5">
      <g>
       <use style="stroke:#000000;stroke-width:0.8;" x="234.545517" xlink:href="#me3fea6d075" y="224.28"/>
      </g>
     </g>
     <g id="text_5">
      <text style="font-family:DejaVu Sans;font-size:10px;font-style:normal;font-weight:normal;text-anchor:middle;" transform="rotate(-0, 234.545517, 238.878438)" x="234.545517" y="238.878438">0.8</text>
     </g>
    </g>
    <g id="xtick_6">
     <g id="line2d_6">
      <g>
       <use style="stroke:#000000;stroke-width:0.8;" x="280.209195" xlink:href="#me3fea6d075" y="224.28"/>
      </g>
     </g>
     <g id="text_6">
      <text style="font-family:DejaVu Sans;font-size:10px;font-style:normal;font-weight:normal;text-anchor:middle;" transform="rotate(-0, 280.209195, 238.878438)" x="280.209195" y="238.878438">1.0</text>
     </g>
    </g>
    <g id="text_7">
     <text style="font-family:DejaVu Sans;font-size:10px;font-style:normal;font-weight:normal;text-anchor:middle;" transform="rotate(-0, 166.05, 252.556563)" x="166.05" y="252.556563">Input Coin's Heads Probability (λ)</text>
    </g>
   </g>
   <g id="matplotlib.axis_2">
    <g id="ytick_1">
     <g id="line2d_7">
      <defs>
       <path d="M 0 0 
L -3.5 0 
" id="m1e9d653e6d" style="stroke:#000000;stroke-width:0.8;"/>
      </defs>
      <g>
       <use style="stroke:#000000;stroke-width:0.8;" x="40.5" xlink:href="#m1e9d653e6d" y="215.46"/>
      </g>
     </g>
     <g id="text_8">
      <text style="font-family:DejaVu Sans;font-size:10px;font-style:normal;font-weight:normal;text-anchor:end;" transform="rotate(-0, 33.5, 219.259219)" x="33.5" y="219.259219">0.0</text>
     </g>
    </g>
    <g id="ytick_2">
     <g id="line2d_8">
      <g>
       <use style="stroke:#000000;stroke-width:0.8;" x="40.5" xlink:href="#m1e9d653e6d" y="190.187794"/>
      </g>
     </g>
     <g id="text_9">
      <text style="font-family:DejaVu Sans;font-size:10px;font-style:normal;font-weight:normal;text-anchor:end;" transform="rotate(-0, 33.5, 193.987012)" x="33.5" y="193.987012">0.1</text>
     </g>
    </g>
    <g id="ytick_3">
     <g id="line2d_9">
      <g>
       <use style="stroke:#000000;stroke-width:0.8;" x="40.5" xlink:href="#m1e9d653e6d" y="164.915587"/>
      </g>
     </g>
     <g id="text_10">
      <text style="font-family:DejaVu Sans;font-size:10px;font-style:normal;font-weight:normal;text-anchor:end;" transform="rotate(-0, 33.5, 168.714806)" x="33.5" y="168.714806">0.2</text>
     </g>
    </g>
    <g id="ytick_4">
     <g id="line2d_10">
      <g>
       <use style="stroke:#000000;stroke-width:0.8;" x="40.5" xlink:href="#m1e9d653e6d" y="139.643381"/>
      </g>
     </g>
     <g id="text_11">
      <text style="font-family:DejaVu Sans;font-size:10px;font-style:normal;font-weight:normal;text-anchor:end;" transform="rotate(-0, 33.5, 143.4426)" x="33.5" y="143.4426">0.3</text>
     </g>
    </g>
    <g id="ytick_5">
     <g id="line2d_11">
      <g>
       <use style="stroke:#000000;stroke-width:0.8;" x="40.5" xlink:href="#m1e9d653e6d" y="114.371175"/>
      </g>
     </g>
     <g id="text_12">
      <text style="font-family:DejaVu Sans;font-size:10px;font-style:normal;font-weight:normal;text-anchor:end;" transform="rotate(-0, 33.5, 118.170394)" x="33.5" y="118.170394">0.4</text>
     </g>
    </g>
    <g id="ytick_6">
     <g id="line2d_12">
      <g>
       <use style="stroke:#000000;stroke-width:0.8;" x="40.5" xlink:href="#m1e9d653e6d" y="89.098968"/>
      </g>
     </g>
     <g id="text_13">
      <text style="font-family:DejaVu Sans;font-size:10px;font-style:normal;font-weight:normal;text-anchor:end;" transform="rotate(-0, 33.5, 92.898187)" x="33.5" y="92.898187">0.5</text>
     </g>
    </g>
    <g id="ytick_7">
     <g id="line2d_13">
      <g>
       <use style="stroke:#000000;stroke-width:0.8;" x="40.5" xlink:href="#m1e9d653e6d" y="63.826762"/>
      </g>
     </g>
     <g id="text_14">
      <text style="font-family:DejaVu Sans;font-size:10px;font-style:normal;font-weight:normal;text-anchor:end;" transform="rotate(-0, 33.5, 67.625981)" x="33.5" y="67.625981">0.6</text>
     </g>
    </g>
    <g id="ytick_8">
     <g id="line2d_14">
      <g>
       <use style="stroke:#000000;stroke-width:0.8;" x="40.5" xlink:href="#m1e9d653e6d" y="38.554556"/>
      </g>
     </g>
     <g id="text_15">
      <text style="font-family:DejaVu Sans;font-size:10px;font-style:normal;font-weight:normal;text-anchor:end;" transform="rotate(-0, 33.5, 42.353775)" x="33.5" y="42.353775">0.7</text>
     </g>
    </g>
    <g id="text_16">
     <text style="font-family:DejaVu Sans;font-size:10px;font-style:normal;font-weight:normal;text-anchor:middle;" transform="rotate(-90, 11.517187, 127.26)" x="11.517187" y="127.26">Simulated Mean / Function Value</text>
    </g>
   </g>
   <g id="line2d_15">
    <path clip-path="url(#p6a822e88dc)" d="M 51.913636 215.434729 
L 54.219421 212.895546 
L 56.525207 210.38162 
L 58.830992 207.892456 
L 61.136777 205.42757 
L 63.442562 202.986493 
L 65.748347 200.568768 
L 68.054132 198.173955 
L 70.359917 195.801622 
L 72.665702 193.451352 
L 74.971488 191.122737 
L 77.277273 188.815383 
L 79.583058 186.528905 
L 81.888843 184.262928 
L 84.194628 182.017088 
L 86.500413 179.79103 
L 88.806198 177.584409 
L 91.111983 175.396888 
L 93.417769 173.228139 
L 95.723554 171.077844 
L 98.029339 168.94569 
L 100.335124 166.831374 
L 102.640909 164.734601 
L 104.946694 162.65508 
L 107.252479 160.592532 
L 109.558264 158.54668 
L 111.86405 156.517258 
L 114.169835 154.504002 
L 116.47562 152.506658 
L 118.781405 150.524975 
L 121.08719 148.558711 
L 123.392975 146.607627 
L 125.69876 144.671491 
L 128.004545 142.750075 
L 130.310331 140.843157 
L 132.616116 138.95052 
L 134.921901 137.071952 
L 137.227686 135.207245 
L 139.533471 133.356196 
L 141.839256 131.518606 
L 144.145041 129.694282 
L 146.450826 127.883032 
L 148.756612 126.084671 
L 151.062397 124.299017 
L 153.368182 122.525891 
L 155.673967 120.765119 
L 157.979752 119.01653 
L 160.285537 117.279956 
L 162.591322 115.555234 
L 164.897107 113.842202 
L 167.202893 112.140704 
L 169.508678 110.450585 
L 171.814463 108.771694 
L 174.120248 107.103883 
L 176.426033 105.447006 
L 178.731818 103.80092 
L 181.037603 102.165488 
L 183.343388 100.54057 
L 185.649174 98.926034 
L 187.954959 97.321746 
L 190.260744 95.727579 
L 192.566529 94.143404 
L 194.872314 92.569098 
L 197.178099 91.004539 
L 199.483884 89.449605 
L 201.789669 87.904181 
L 204.095455 86.368149 
L 206.40124 84.841397 
L 208.707025 83.323813 
L 211.01281 81.815287 
L 213.318595 80.315713 
L 215.62438 78.824985 
L 217.930165 77.342998 
L 220.23595 75.869651 
L 222.541736 74.404843 
L 224.847521 72.948477 
L 227.153306 71.500456 
L 229.459091 70.060684 
L 231.764876 68.629068 
L 234.070661 67.205516 
L 236.376446 65.789938 
L 238.682231 64.382245 
L 240.988017 62.98235 
L 243.293802 61.590166 
L 245.599587 60.20561 
L 247.905372 58.828597 
L 250.211157 57.459047 
L 252.516942 56.096879 
L 254.822727 54.742013 
L 257.128512 53.394373 
L 259.434298 52.05388 
L 261.740083 50.72046 
L 264.045868 49.394039 
L 266.351653 48.074543 
L 268.657438 46.761901 
L 270.963223 45.456041 
L 273.269008 44.156895 
L 275.574793 42.864392 
L 277.880579 41.578467 
L 280.186364 40.299051 
" style="fill:none;stroke:#1f77b4;stroke-linecap:square;stroke-width:1.5;"/>
   </g>
   <g id="line2d_16">
    <path clip-path="url(#p6a822e88dc)" d="M 51.913636 215.46 
L 54.219421 212.427335 
L 56.525207 209.39467 
L 58.830992 208.889226 
L 61.136777 207.372894 
L 63.442562 206.86745 
L 65.748347 195.242235 
L 68.054132 194.231347 
L 70.359917 195.242235 
L 72.665702 198.780344 
L 74.971488 193.725903 
L 77.277273 189.176905 
L 79.583058 185.638797 
L 81.888843 184.122464 
L 84.194628 188.166017 
L 86.500413 181.089799 
L 88.806198 173.508138 
L 91.111983 182.100688 
L 93.417769 169.464585 
L 95.723554 162.893811 
L 98.029339 169.970029 
L 100.335124 162.893811 
L 102.640909 162.388367 
L 104.946694 159.861146 
L 107.252479 154.806705 
L 109.558264 154.301261 
L 111.86405 157.333926 
L 114.169835 143.18149 
L 116.47562 160.36659 
L 118.781405 153.795817 
L 121.08719 146.719599 
L 123.392975 136.105272 
L 125.69876 145.708711 
L 128.004545 135.599828 
L 130.310331 138.632493 
L 132.616116 138.127049 
L 134.921901 133.072607 
L 137.227686 134.083496 
L 139.533471 128.018166 
L 141.839256 132.061719 
L 144.145041 129.534499 
L 146.450826 118.920172 
L 148.756612 123.974613 
L 151.062397 118.414728 
L 153.368182 122.458281 
L 155.673967 122.458281 
L 157.979752 112.854842 
L 160.285537 113.360287 
L 162.591322 115.887507 
L 164.897107 114.371175 
L 167.202893 98.196963 
L 169.508678 118.920172 
L 171.814463 106.284069 
L 174.120248 96.68063 
L 176.426033 103.251404 
L 178.731818 115.382063 
L 181.037603 99.713295 
L 183.343388 107.294957 
L 185.649174 102.74596 
L 187.954959 90.615301 
L 190.260744 96.68063 
L 192.566529 89.098968 
L 194.872314 96.175186 
L 197.178099 96.175186 
L 199.483884 98.196963 
L 201.789669 94.15341 
L 204.095455 93.142521 
L 206.40124 85.56086 
L 208.707025 83.539083 
L 211.01281 76.968309 
L 213.318595 83.539083 
L 215.62438 71.408424 
L 217.930165 79.49553 
L 220.23595 87.582636 
L 222.541736 76.968309 
L 224.847521 69.386648 
L 227.153306 59.783209 
L 229.459091 70.397536 
L 231.764876 70.90298 
L 234.070661 71.408424 
L 236.376446 76.462865 
L 238.682231 59.783209 
L 240.988017 56.750544 
L 243.293802 61.804986 
L 245.599587 61.804986 
L 247.905372 58.772321 
L 250.211157 53.212436 
L 252.516942 50.179771 
L 254.822727 45.12533 
L 257.128512 52.201547 
L 259.434298 42.598109 
L 261.740083 57.761433 
L 264.045868 50.179771 
L 266.351653 43.103553 
L 268.657438 54.728768 
L 270.963223 51.696103 
L 273.269008 42.092665 
L 275.574793 44.619885 
L 277.880579 39.06 
L 280.186364 40.576332 
" style="fill:none;stroke:#ff7f0e;stroke-linecap:square;stroke-width:1.5;"/>
   </g>
   <g id="patch_3">
    <path d="M 40.5 224.28 
L 40.5 30.24 
" style="fill:none;stroke:#000000;stroke-linecap:square;stroke-linejoin:miter;stroke-width:0.8;"/>
   </g>
   <g id="patch_4">
    <path d="M 291.6 224.28 
L 291.6 30.24 
" style="fill:none;stroke:#000000;stroke-linecap:square;stroke-linejoin:miter;stroke-width:0.8;"/>
   </g>
   <g id="patch_5">
    <path d="M 40.5 224.28 
L 291.6 224.28 
" style="fill:none;stroke:#000000;stroke-linecap:square;stroke-linejoin:miter;stroke-width:0.8;"/>
   </g>
   <g id="patch_6">
    <path d="M 40.5 30.24 
L 291.6 30.24 
" style="fill:none;stroke:#000000;stroke-linecap:square;stroke-linejoin:miter;stroke-width:0.8;"/>
   </g>
   <g id="text_17">
    <text style="font-family:DejaVu Sans;font-size:12px;font-style:normal;font-weight:normal;text-anchor:middle;" transform="rotate(-0, 166.05, 24.24)" x="166.05" y="24.24">Expected Value in log(1+x) (Two-Coin Special Case) Algorithm</text>
   </g>
   <g id="legend_1">
    <g id="patch_7">
     <path d="M 47.5 219.28 
L 342.773438 219.28 
Q 344.773438 219.28 344.773438 217.28 
L 344.773438 188.92375 
Q 344.773438 186.92375 342.773438 186.92375 
L 47.5 186.92375 
Q 45.5 186.92375 45.5 188.92375 
L 45.5 217.28 
Q 45.5 219.28 47.5 219.28 
z
" style="fill:#ffffff;opacity:0.8;stroke:#cccccc;stroke-linejoin:miter;"/>
    </g>
    <g id="line2d_17">
     <path d="M 49.5 195.022188 
L 69.5 195.022188 
" style="fill:none;stroke:#1f77b4;stroke-linecap:square;stroke-width:1.5;"/>
    </g>
    <g id="line2d_18"/>
    <g id="text_18">
     <text style="font-family:DejaVu Sans;font-size:10px;font-style:normal;font-weight:normal;text-anchor:start;" transform="rotate(-0, 77.5, 198.522188)" x="77.5" y="198.522188">log(1+x)</text>
    </g>
    <g id="line2d_19">
     <path d="M 49.5 209.700312 
L 69.5 209.700312 
" style="fill:none;stroke:#ff7f0e;stroke-linecap:square;stroke-width:1.5;"/>
    </g>
    <g id="line2d_20"/>
    <g id="text_19">
     <text style="font-family:DejaVu Sans;font-size:10px;font-style:normal;font-weight:normal;text-anchor:start;" transform="rotate(-0, 77.5, 213.200312)" x="77.5" y="213.200312">Simulated Mean of log(1+x) (Two-Coin Special Case)</text>
    </g>
   </g>
  </g>
 </g>
 <defs>
  <clipPath id="p6a822e88dc">
   <rect height="194.04" width="251.1" x="40.5" y="30.24"/>
  </clipPath>
 </defs>
</svg>
