<?xml version="1.0" encoding="utf-8" standalone="no"?>
<!DOCTYPE svg PUBLIC "-//W3C//DTD SVG 1.1//EN"
  "http://www.w3.org/Graphics/SVG/1.1/DTD/svg11.dtd">
<!-- Created with matplotlib (https://matplotlib.org/) -->
<svg height="252pt" version="1.1" viewBox="0 0 324 252" width="324pt" xmlns="http://www.w3.org/2000/svg" xmlns:xlink="http://www.w3.org/1999/xlink">
 <defs>
  <style type="text/css">
*{stroke-linecap:butt;stroke-linejoin:round;}
  </style>
 </defs>
 <g id="figure_1">
  <g id="patch_1">
   <path d="M 0 252 
L 324 252 
L 324 0 
L 0 0 
z
" style="fill:#ffffff;"/>
  </g>
  <g id="axes_1">
   <g id="patch_2">
    <path d="M 40.5 224.28 
L 291.6 224.28 
L 291.6 30.24 
L 40.5 30.24 
z
" style="fill:#ffffff;"/>
   </g>
   <g id="matplotlib.axis_1">
    <g id="xtick_1">
     <g id="line2d_1">
      <defs>
       <path d="M 0 0 
L 0 3.5 
" id="m7b1bf6b316" style="stroke:#000000;stroke-width:0.8;"/>
      </defs>
      <g>
       <use style="stroke:#000000;stroke-width:0.8;" x="51.890805" xlink:href="#m7b1bf6b316" y="224.28"/>
      </g>
     </g>
     <g id="text_1">
      <text style="font-family:DejaVu Sans;font-size:10px;font-style:normal;font-weight:normal;text-anchor:middle;" transform="rotate(-0, 51.890805, 238.878438)" x="51.890805" y="238.878438">0.0</text>
     </g>
    </g>
    <g id="xtick_2">
     <g id="line2d_2">
      <g>
       <use style="stroke:#000000;stroke-width:0.8;" x="97.554483" xlink:href="#m7b1bf6b316" y="224.28"/>
      </g>
     </g>
     <g id="text_2">
      <text style="font-family:DejaVu Sans;font-size:10px;font-style:normal;font-weight:normal;text-anchor:middle;" transform="rotate(-0, 97.554483, 238.878438)" x="97.554483" y="238.878438">0.2</text>
     </g>
    </g>
    <g id="xtick_3">
     <g id="line2d_3">
      <g>
       <use style="stroke:#000000;stroke-width:0.8;" x="143.218161" xlink:href="#m7b1bf6b316" y="224.28"/>
      </g>
     </g>
     <g id="text_3">
      <text style="font-family:DejaVu Sans;font-size:10px;font-style:normal;font-weight:normal;text-anchor:middle;" transform="rotate(-0, 143.218161, 238.878438)" x="143.218161" y="238.878438">0.4</text>
     </g>
    </g>
    <g id="xtick_4">
     <g id="line2d_4">
      <g>
       <use style="stroke:#000000;stroke-width:0.8;" x="188.881839" xlink:href="#m7b1bf6b316" y="224.28"/>
      </g>
     </g>
     <g id="text_4">
      <text style="font-family:DejaVu Sans;font-size:10px;font-style:normal;font-weight:normal;text-anchor:middle;" transform="rotate(-0, 188.881839, 238.878438)" x="188.881839" y="238.878438">0.6</text>
     </g>
    </g>
    <g id="xtick_5">
     <g id="line2d_5">
      <g>
       <use style="stroke:#000000;stroke-width:0.8;" x="234.545517" xlink:href="#m7b1bf6b316" y="224.28"/>
      </g>
     </g>
     <g id="text_5">
      <text style="font-family:DejaVu Sans;font-size:10px;font-style:normal;font-weight:normal;text-anchor:middle;" transform="rotate(-0, 234.545517, 238.878438)" x="234.545517" y="238.878438">0.8</text>
     </g>
    </g>
    <g id="xtick_6">
     <g id="line2d_6">
      <g>
       <use style="stroke:#000000;stroke-width:0.8;" x="280.209195" xlink:href="#m7b1bf6b316" y="224.28"/>
      </g>
     </g>
     <g id="text_6">
      <text style="font-family:DejaVu Sans;font-size:10px;font-style:normal;font-weight:normal;text-anchor:middle;" transform="rotate(-0, 280.209195, 238.878438)" x="280.209195" y="238.878438">1.0</text>
     </g>
    </g>
    <g id="text_7">
     <text style="font-family:DejaVu Sans;font-size:10px;font-style:normal;font-weight:normal;text-anchor:middle;" transform="rotate(-0, 166.05, 252.556563)" x="166.05" y="252.556563">Probability</text>
    </g>
   </g>
   <g id="matplotlib.axis_2">
    <g id="ytick_1">
     <g id="line2d_7">
      <defs>
       <path d="M 0 0 
L -3.5 0 
" id="m35f53d78ef" style="stroke:#000000;stroke-width:0.8;"/>
      </defs>
      <g>
       <use style="stroke:#000000;stroke-width:0.8;" x="40.5" xlink:href="#m35f53d78ef" y="209.80017"/>
      </g>
     </g>
     <g id="text_8">
      <text style="font-family:DejaVu Sans;font-size:10px;font-style:normal;font-weight:normal;text-anchor:end;" transform="rotate(-0, 33.5, 213.599389)" x="33.5" y="213.599389">5</text>
     </g>
    </g>
    <g id="ytick_2">
     <g id="line2d_8">
      <g>
       <use style="stroke:#000000;stroke-width:0.8;" x="40.5" xlink:href="#m35f53d78ef" y="180.260348"/>
      </g>
     </g>
     <g id="text_9">
      <text style="font-family:DejaVu Sans;font-size:10px;font-style:normal;font-weight:normal;text-anchor:end;" transform="rotate(-0, 33.5, 184.059567)" x="33.5" y="184.059567">10</text>
     </g>
    </g>
    <g id="ytick_3">
     <g id="line2d_9">
      <g>
       <use style="stroke:#000000;stroke-width:0.8;" x="40.5" xlink:href="#m35f53d78ef" y="150.720526"/>
      </g>
     </g>
     <g id="text_10">
      <text style="font-family:DejaVu Sans;font-size:10px;font-style:normal;font-weight:normal;text-anchor:end;" transform="rotate(-0, 33.5, 154.519745)" x="33.5" y="154.519745">15</text>
     </g>
    </g>
    <g id="ytick_4">
     <g id="line2d_10">
      <g>
       <use style="stroke:#000000;stroke-width:0.8;" x="40.5" xlink:href="#m35f53d78ef" y="121.180705"/>
      </g>
     </g>
     <g id="text_11">
      <text style="font-family:DejaVu Sans;font-size:10px;font-style:normal;font-weight:normal;text-anchor:end;" transform="rotate(-0, 33.5, 124.979923)" x="33.5" y="124.979923">20</text>
     </g>
    </g>
    <g id="ytick_5">
     <g id="line2d_11">
      <g>
       <use style="stroke:#000000;stroke-width:0.8;" x="40.5" xlink:href="#m35f53d78ef" y="91.640883"/>
      </g>
     </g>
     <g id="text_12">
      <text style="font-family:DejaVu Sans;font-size:10px;font-style:normal;font-weight:normal;text-anchor:end;" transform="rotate(-0, 33.5, 95.440102)" x="33.5" y="95.440102">25</text>
     </g>
    </g>
    <g id="ytick_6">
     <g id="line2d_12">
      <g>
       <use style="stroke:#000000;stroke-width:0.8;" x="40.5" xlink:href="#m35f53d78ef" y="62.101061"/>
      </g>
     </g>
     <g id="text_13">
      <text style="font-family:DejaVu Sans;font-size:10px;font-style:normal;font-weight:normal;text-anchor:end;" transform="rotate(-0, 33.5, 65.90028)" x="33.5" y="65.90028">30</text>
     </g>
    </g>
    <g id="ytick_7">
     <g id="line2d_13">
      <g>
       <use style="stroke:#000000;stroke-width:0.8;" x="40.5" xlink:href="#m35f53d78ef" y="32.561239"/>
      </g>
     </g>
     <g id="text_14">
      <text style="font-family:DejaVu Sans;font-size:10px;font-style:normal;font-weight:normal;text-anchor:end;" transform="rotate(-0, 33.5, 36.360458)" x="33.5" y="36.360458">35</text>
     </g>
    </g>
    <g id="text_15">
     <text style="font-family:DejaVu Sans;font-size:10px;font-style:normal;font-weight:normal;text-anchor:middle;" transform="rotate(-90, 14.695312, 127.26)" x="14.695312" y="127.26">Average Bits Consumed Per Call</text>
    </g>
   </g>
   <g id="line2d_14">
    <path clip-path="url(#p39ac62db59)" d="M 51.913636 215.46 
L 54.219421 215.093706 
L 56.525207 213.994825 
L 58.830992 215.389104 
L 61.136777 213.900297 
L 63.442562 214.491094 
L 65.748347 213.321317 
L 68.054132 213.935745 
L 70.359917 213.392212 
L 72.665702 214.172064 
L 74.971488 214.160248 
L 77.277273 214.514726 
L 79.583058 212.021565 
L 81.888843 211.950669 
L 84.194628 212.765968 
L 86.500413 212.47057 
L 88.806198 212.600545 
L 91.111983 213.144078 
L 93.417769 212.045197 
L 95.723554 209.693827 
L 98.029339 211.986117 
L 100.335124 210.201912 
L 102.640909 210.709997 
L 104.946694 210.367335 
L 107.252479 210.355519 
L 109.558264 210.532758 
L 111.86405 209.953777 
L 114.169835 208.819448 
L 116.47562 209.457508 
L 118.781405 210.568206 
L 121.08719 208.90216 
L 123.392975 207.921437 
L 125.69876 207.023427 
L 128.004545 208.984871 
L 130.310331 207.590591 
L 132.616116 208.476786 
L 134.921901 205.889098 
L 137.227686 206.219944 
L 139.533471 206.787108 
L 141.839256 203.289593 
L 144.145041 204.022181 
L 146.450826 204.872928 
L 148.756612 204.412107 
L 151.062397 205.298301 
L 153.368182 202.840588 
L 155.673967 203.088723 
L 157.979752 203.017827 
L 160.285537 203.277777 
L 162.591322 203.325041 
L 164.897107 202.651533 
L 167.202893 201.930762 
L 169.508678 202.108001 
L 171.814463 201.186358 
L 174.120248 199.154018 
L 176.426033 199.437601 
L 178.731818 199.55576 
L 181.037603 199.756631 
L 183.343388 197.322549 
L 185.649174 199.603024 
L 187.954959 194.451279 
L 190.260744 196.802649 
L 192.566529 193.411477 
L 194.872314 192.962472 
L 197.178099 195.195682 
L 199.483884 194.250408 
L 201.789669 195.432001 
L 204.095455 193.399661 
L 206.40124 192.454387 
L 208.707025 189.453141 
L 211.01281 190.941948 
L 213.318595 189.216822 
L 215.62438 191.308242 
L 217.930165 191.851774 
L 220.23595 188.011598 
L 222.541736 185.813835 
L 224.847521 188.141573 
L 227.153306 181.760971 
L 229.459091 185.199407 
L 231.764876 181.418309 
L 234.070661 186.510975 
L 236.376446 179.610472 
L 238.682231 180.461219 
L 240.988017 180.555747 
L 243.293802 172.993552 
L 245.599587 177.377262 
L 247.905372 173.478005 
L 250.211157 169.791435 
L 252.516942 167.794544 
L 254.822727 168.657106 
L 257.128512 169.460589 
L 259.434298 154.064434 
L 261.740083 164.852377 
L 264.045868 153.036449 
L 266.351653 151.949383 
L 268.657438 150.354233 
L 270.963223 146.833086 
L 273.269008 137.451239 
L 275.574793 133.15024 
L 277.880579 121.31068 
L 280.186364 39.06 
" style="fill:none;stroke:#1f77b4;stroke-linecap:square;stroke-width:1.5;"/>
   </g>
   <g id="patch_3">
    <path d="M 40.5 224.28 
L 40.5 30.24 
" style="fill:none;stroke:#000000;stroke-linecap:square;stroke-linejoin:miter;stroke-width:0.8;"/>
   </g>
   <g id="patch_4">
    <path d="M 291.6 224.28 
L 291.6 30.24 
" style="fill:none;stroke:#000000;stroke-linecap:square;stroke-linejoin:miter;stroke-width:0.8;"/>
   </g>
   <g id="patch_5">
    <path d="M 40.5 224.28 
L 291.6 224.28 
" style="fill:none;stroke:#000000;stroke-linecap:square;stroke-linejoin:miter;stroke-width:0.8;"/>
   </g>
   <g id="patch_6">
    <path d="M 40.5 30.24 
L 291.6 30.24 
" style="fill:none;stroke:#000000;stroke-linecap:square;stroke-linejoin:miter;stroke-width:0.8;"/>
   </g>
   <g id="text_16">
    <text style="font-family:DejaVu Sans;font-size:12px;font-style:normal;font-weight:normal;text-anchor:middle;" transform="rotate(-0, 166.05, 24.24)" x="166.05" y="24.24">Avg. Bits Consumed by log(1+x) (Flajolet) Algorithm</text>
   </g>
  </g>
 </g>
 <defs>
  <clipPath id="p39ac62db59">
   <rect height="194.04" width="251.1" x="40.5" y="30.24"/>
  </clipPath>
 </defs>
</svg>
