<?xml version="1.0" encoding="utf-8" standalone="no"?>
<!DOCTYPE svg PUBLIC "-//W3C//DTD SVG 1.1//EN"
  "http://www.w3.org/Graphics/SVG/1.1/DTD/svg11.dtd">
<!-- Created with matplotlib (https://matplotlib.org/) -->
<svg height="345.6pt" version="1.1" viewBox="0 0 460.8 345.6" width="460.8pt" xmlns="http://www.w3.org/2000/svg" xmlns:xlink="http://www.w3.org/1999/xlink">
 <defs>
  <style type="text/css">
*{stroke-linecap:butt;stroke-linejoin:round;}
  </style>
 </defs>
 <g id="figure_1">
  <g id="patch_1">
   <path d="M 0 345.6 
L 460.8 345.6 
L 460.8 0 
L 0 0 
z
" style="fill:#ffffff;"/>
  </g>
  <g id="axes_1">
   <g id="patch_2">
    <path d="M 57.6 307.584 
L 414.72 307.584 
L 414.72 41.472 
L 57.6 41.472 
z
" style="fill:#ffffff;"/>
   </g>
   <g id="matplotlib.axis_1">
    <g id="xtick_1">
     <g id="line2d_1">
      <defs>
       <path d="M 0 0 
L 0 3.5 
" id="m5372358d19" style="stroke:#000000;stroke-width:0.8;"/>
      </defs>
      <g>
       <use style="stroke:#000000;stroke-width:0.8;" x="73.800255" xlink:href="#m5372358d19" y="307.584"/>
      </g>
     </g>
     <g id="text_1">
      <text style="font-family:DejaVu Sans;font-size:10px;font-style:normal;font-weight:normal;text-anchor:middle;" transform="rotate(-0, 73.800255, 322.182437)" x="73.800255" y="322.182437">0.0</text>
     </g>
    </g>
    <g id="xtick_2">
     <g id="line2d_2">
      <g>
       <use style="stroke:#000000;stroke-width:0.8;" x="138.744153" xlink:href="#m5372358d19" y="307.584"/>
      </g>
     </g>
     <g id="text_2">
      <text style="font-family:DejaVu Sans;font-size:10px;font-style:normal;font-weight:normal;text-anchor:middle;" transform="rotate(-0, 138.744153, 322.182437)" x="138.744153" y="322.182437">0.2</text>
     </g>
    </g>
    <g id="xtick_3">
     <g id="line2d_3">
      <g>
       <use style="stroke:#000000;stroke-width:0.8;" x="203.688051" xlink:href="#m5372358d19" y="307.584"/>
      </g>
     </g>
     <g id="text_3">
      <text style="font-family:DejaVu Sans;font-size:10px;font-style:normal;font-weight:normal;text-anchor:middle;" transform="rotate(-0, 203.688051, 322.182437)" x="203.688051" y="322.182437">0.4</text>
     </g>
    </g>
    <g id="xtick_4">
     <g id="line2d_4">
      <g>
       <use style="stroke:#000000;stroke-width:0.8;" x="268.631949" xlink:href="#m5372358d19" y="307.584"/>
      </g>
     </g>
     <g id="text_4">
      <text style="font-family:DejaVu Sans;font-size:10px;font-style:normal;font-weight:normal;text-anchor:middle;" transform="rotate(-0, 268.631949, 322.182437)" x="268.631949" y="322.182437">0.6</text>
     </g>
    </g>
    <g id="xtick_5">
     <g id="line2d_5">
      <g>
       <use style="stroke:#000000;stroke-width:0.8;" x="333.575847" xlink:href="#m5372358d19" y="307.584"/>
      </g>
     </g>
     <g id="text_5">
      <text style="font-family:DejaVu Sans;font-size:10px;font-style:normal;font-weight:normal;text-anchor:middle;" transform="rotate(-0, 333.575847, 322.182437)" x="333.575847" y="322.182437">0.8</text>
     </g>
    </g>
    <g id="xtick_6">
     <g id="line2d_6">
      <g>
       <use style="stroke:#000000;stroke-width:0.8;" x="398.519745" xlink:href="#m5372358d19" y="307.584"/>
      </g>
     </g>
     <g id="text_6">
      <text style="font-family:DejaVu Sans;font-size:10px;font-style:normal;font-weight:normal;text-anchor:middle;" transform="rotate(-0, 398.519745, 322.182437)" x="398.519745" y="322.182437">1.0</text>
     </g>
    </g>
    <g id="text_7">
     <text style="font-family:DejaVu Sans;font-size:10px;font-style:normal;font-weight:normal;text-anchor:middle;" transform="rotate(-0, 236.16, 335.860562)" x="236.16" y="335.860562">Input Coin's Heads Probability (λ)</text>
    </g>
   </g>
   <g id="matplotlib.axis_2">
    <g id="ytick_1">
     <g id="line2d_7">
      <defs>
       <path d="M 0 0 
L -3.5 0 
" id="m7325b3ca41" style="stroke:#000000;stroke-width:0.8;"/>
      </defs>
      <g>
       <use style="stroke:#000000;stroke-width:0.8;" x="57.6" xlink:href="#m7325b3ca41" y="295.488"/>
      </g>
     </g>
     <g id="text_8">
      <text style="font-family:DejaVu Sans;font-size:10px;font-style:normal;font-weight:normal;text-anchor:end;" transform="rotate(-0, 50.6, 299.287219)" x="50.6" y="299.287219">0.0</text>
     </g>
    </g>
    <g id="ytick_2">
     <g id="line2d_8">
      <g>
       <use style="stroke:#000000;stroke-width:0.8;" x="57.6" xlink:href="#m7325b3ca41" y="260.583804"/>
      </g>
     </g>
     <g id="text_9">
      <text style="font-family:DejaVu Sans;font-size:10px;font-style:normal;font-weight:normal;text-anchor:end;" transform="rotate(-0, 50.6, 264.383022)" x="50.6" y="264.383022">0.1</text>
     </g>
    </g>
    <g id="ytick_3">
     <g id="line2d_9">
      <g>
       <use style="stroke:#000000;stroke-width:0.8;" x="57.6" xlink:href="#m7325b3ca41" y="225.679607"/>
      </g>
     </g>
     <g id="text_10">
      <text style="font-family:DejaVu Sans;font-size:10px;font-style:normal;font-weight:normal;text-anchor:end;" transform="rotate(-0, 50.6, 229.478826)" x="50.6" y="229.478826">0.2</text>
     </g>
    </g>
    <g id="ytick_4">
     <g id="line2d_10">
      <g>
       <use style="stroke:#000000;stroke-width:0.8;" x="57.6" xlink:href="#m7325b3ca41" y="190.775411"/>
      </g>
     </g>
     <g id="text_11">
      <text style="font-family:DejaVu Sans;font-size:10px;font-style:normal;font-weight:normal;text-anchor:end;" transform="rotate(-0, 50.6, 194.57463)" x="50.6" y="194.57463">0.3</text>
     </g>
    </g>
    <g id="ytick_5">
     <g id="line2d_11">
      <g>
       <use style="stroke:#000000;stroke-width:0.8;" x="57.6" xlink:href="#m7325b3ca41" y="155.871215"/>
      </g>
     </g>
     <g id="text_12">
      <text style="font-family:DejaVu Sans;font-size:10px;font-style:normal;font-weight:normal;text-anchor:end;" transform="rotate(-0, 50.6, 159.670434)" x="50.6" y="159.670434">0.4</text>
     </g>
    </g>
    <g id="ytick_6">
     <g id="line2d_12">
      <g>
       <use style="stroke:#000000;stroke-width:0.8;" x="57.6" xlink:href="#m7325b3ca41" y="120.967019"/>
      </g>
     </g>
     <g id="text_13">
      <text style="font-family:DejaVu Sans;font-size:10px;font-style:normal;font-weight:normal;text-anchor:end;" transform="rotate(-0, 50.6, 124.766237)" x="50.6" y="124.766237">0.5</text>
     </g>
    </g>
    <g id="ytick_7">
     <g id="line2d_13">
      <g>
       <use style="stroke:#000000;stroke-width:0.8;" x="57.6" xlink:href="#m7325b3ca41" y="86.062822"/>
      </g>
     </g>
     <g id="text_14">
      <text style="font-family:DejaVu Sans;font-size:10px;font-style:normal;font-weight:normal;text-anchor:end;" transform="rotate(-0, 50.6, 89.862041)" x="50.6" y="89.862041">0.6</text>
     </g>
    </g>
    <g id="ytick_8">
     <g id="line2d_14">
      <g>
       <use style="stroke:#000000;stroke-width:0.8;" x="57.6" xlink:href="#m7325b3ca41" y="51.158626"/>
      </g>
     </g>
     <g id="text_15">
      <text style="font-family:DejaVu Sans;font-size:10px;font-style:normal;font-weight:normal;text-anchor:end;" transform="rotate(-0, 50.6, 54.957845)" x="50.6" y="54.957845">0.7</text>
     </g>
    </g>
    <g id="text_16">
     <text style="font-family:DejaVu Sans;font-size:10px;font-style:normal;font-weight:normal;text-anchor:middle;" transform="rotate(-90, 28.617187, 174.528)" x="28.617187" y="174.528">Simulated Mean / Function Value</text>
    </g>
   </g>
   <g id="line2d_15">
    <path clip-path="url(#pdbebf4bcf4)" d="M 73.832727 295.453098 
L 77.112066 291.946156 
L 80.391405 288.474099 
L 83.670744 285.03624 
L 86.950083 281.631912 
L 90.229421 278.260468 
L 93.50876 274.921277 
L 96.788099 271.613729 
L 100.067438 268.337229 
L 103.346777 265.091201 
L 106.626116 261.875082 
L 109.905455 258.688327 
L 113.184793 255.530403 
L 116.464132 252.400795 
L 119.743471 249.298998 
L 123.02281 246.224524 
L 126.302149 243.176893 
L 129.581488 240.155643 
L 132.860826 237.16032 
L 136.140165 234.190483 
L 139.419504 231.245702 
L 142.698843 228.325558 
L 145.978182 225.429641 
L 149.257521 222.557554 
L 152.53686 219.708907 
L 155.816198 216.88332 
L 159.095537 214.080424 
L 162.374876 211.299857 
L 165.654215 208.541265 
L 168.933554 205.804305 
L 172.212893 203.088639 
L 175.492231 200.393939 
L 178.77157 197.719884 
L 182.050909 195.066159 
L 185.330248 192.432458 
L 188.609587 189.818481 
L 191.888926 187.223934 
L 195.168264 184.648532 
L 198.447603 182.091993 
L 201.726942 179.554043 
L 205.006281 177.034414 
L 208.28562 174.532843 
L 211.564959 172.049073 
L 214.844298 169.582853 
L 218.123636 167.133936 
L 221.402975 164.702081 
L 224.682314 162.287053 
L 227.961653 159.888619 
L 231.240992 157.506554 
L 234.520331 155.140635 
L 237.799669 152.790646 
L 241.079008 150.456372 
L 244.358347 148.137605 
L 247.637686 145.834141 
L 250.917025 143.545779 
L 254.196364 141.272322 
L 257.475702 139.013577 
L 260.755041 136.769355 
L 264.03438 134.539471 
L 267.313719 132.323742 
L 270.593058 130.12199 
L 273.872397 127.934039 
L 277.151736 125.759718 
L 280.431074 123.598858 
L 283.710413 121.451294 
L 286.989752 119.316862 
L 290.269091 117.195402 
L 293.54843 115.08676 
L 296.827769 112.990779 
L 300.107107 110.90731 
L 303.386446 108.836203 
L 306.665785 106.777314 
L 309.945124 104.730497 
L 313.224463 102.695614 
L 316.503802 100.672525 
L 319.78314 98.661095 
L 323.062479 96.661189 
L 326.341818 94.672677 
L 329.621157 92.69543 
L 332.900496 90.72932 
L 336.179835 88.774223 
L 339.459174 86.830016 
L 342.738512 84.896579 
L 346.017851 82.973793 
L 349.29719 81.061541 
L 352.576529 79.159708 
L 355.855868 77.268181 
L 359.135207 75.38685 
L 362.414545 73.515605 
L 365.693884 71.654338 
L 368.973223 69.802944 
L 372.252562 67.961319 
L 375.531901 66.129359 
L 378.81124 64.306964 
L 382.090579 62.494035 
L 385.369917 60.690473 
L 388.649256 58.896183 
L 391.928595 57.111069 
L 395.207934 55.335039 
L 398.487273 53.568 
" style="fill:none;stroke:#1f77b4;stroke-linecap:square;stroke-width:1.5;"/>
   </g>
   <g id="line2d_16">
    <path clip-path="url(#pdbebf4bcf4)" d="M 73.832727 295.488 
L 77.112066 291.299496 
L 80.391405 287.809077 
L 83.670744 285.016741 
L 86.950083 288.507161 
L 90.229421 280.130154 
L 93.50876 273.149314 
L 96.788099 272.45123 
L 100.067438 262.678055 
L 103.346777 264.074223 
L 106.626116 271.753147 
L 109.905455 259.187636 
L 113.184793 250.810629 
L 116.464132 245.924041 
L 119.743471 248.018293 
L 123.02281 245.924041 
L 126.302149 241.735538 
L 129.581488 241.037454 
L 132.860826 238.943202 
L 136.140165 236.150866 
L 139.419504 224.28344 
L 142.698843 224.28344 
L 145.978182 228.471943 
L 149.257521 222.887272 
L 152.53686 215.208349 
L 155.816198 222.887272 
L 159.095537 207.529425 
L 162.374876 216.604516 
L 165.654215 197.75625 
L 168.933554 199.850502 
L 172.212893 197.75625 
L 175.492231 198.454334 
L 178.77157 202.642838 
L 182.050909 208.227509 
L 185.330248 190.775411 
L 188.609587 186.586908 
L 191.888926 183.096488 
L 195.168264 185.888824 
L 198.447603 183.096488 
L 201.726942 174.719481 
L 205.006281 169.832893 
L 208.28562 173.323313 
L 211.564959 190.077327 
L 214.844298 182.398404 
L 218.123636 171.229061 
L 221.402975 149.588459 
L 224.682314 156.569299 
L 227.961653 148.192292 
L 231.240992 146.796124 
L 234.520331 152.380795 
L 237.799669 157.965467 
L 241.079008 149.588459 
L 244.358347 139.117201 
L 247.637686 155.871215 
L 250.917025 162.15397 
L 254.196364 139.815285 
L 257.475702 118.174683 
L 260.755041 133.532529 
L 264.03438 124.457438 
L 267.313719 128.645942 
L 270.593058 131.438277 
L 273.872397 124.457438 
L 277.151736 137.721033 
L 280.431074 133.532529 
L 283.710413 118.872767 
L 286.989752 123.759354 
L 290.269091 115.382347 
L 293.54843 113.288095 
L 296.827769 118.174683 
L 300.107107 121.665102 
L 303.386446 96.534081 
L 306.665785 102.816836 
L 309.945124 86.760906 
L 313.224463 100.024501 
L 316.503802 100.024501 
L 319.78314 90.94941 
L 323.062479 99.326417 
L 326.341818 97.930249 
L 329.621157 85.364738 
L 332.900496 88.855158 
L 336.179835 84.666654 
L 339.459174 97.232165 
L 342.738512 101.420669 
L 346.017851 84.666654 
L 349.29719 79.780067 
L 352.576529 81.176235 
L 355.855868 76.987731 
L 359.135207 68.610724 
L 362.414545 72.101144 
L 365.693884 66.516472 
L 368.973223 71.40306 
L 372.252562 72.799228 
L 375.531901 58.139465 
L 378.81124 65.120304 
L 382.090579 60.931801 
L 385.369917 58.139465 
L 388.649256 66.516472 
L 391.928595 61.629885 
L 395.207934 63.724137 
L 398.487273 54.649046 
" style="fill:none;stroke:#ff7f0e;stroke-linecap:square;stroke-width:1.5;"/>
   </g>
   <g id="patch_3">
    <path d="M 57.6 307.584 
L 57.6 41.472 
" style="fill:none;stroke:#000000;stroke-linecap:square;stroke-linejoin:miter;stroke-width:0.8;"/>
   </g>
   <g id="patch_4">
    <path d="M 414.72 307.584 
L 414.72 41.472 
" style="fill:none;stroke:#000000;stroke-linecap:square;stroke-linejoin:miter;stroke-width:0.8;"/>
   </g>
   <g id="patch_5">
    <path d="M 57.6 307.584 
L 414.72 307.584 
" style="fill:none;stroke:#000000;stroke-linecap:square;stroke-linejoin:miter;stroke-width:0.8;"/>
   </g>
   <g id="patch_6">
    <path d="M 57.6 41.472 
L 414.72 41.472 
" style="fill:none;stroke:#000000;stroke-linecap:square;stroke-linejoin:miter;stroke-width:0.8;"/>
   </g>
   <g id="text_17">
    <text style="font-family:DejaVu Sans;font-size:12px;font-style:normal;font-weight:normal;" transform="translate(89.5725 22.034625)">Simulated Mean for log(1+x) (Flajolet) Algorithm</text>
    <text style="font-family:DejaVu Sans;font-size:12px;font-style:normal;font-weight:normal;" transform="translate(132.609375 35.472)">(Wasserstein Distances in Legend)</text>
   </g>
   <g id="legend_1">
    <g id="patch_7">
     <path d="M 64.6 78.82825 
L 242.85 78.82825 
Q 244.85 78.82825 244.85 76.82825 
L 244.85 48.472 
Q 244.85 46.472 242.85 46.472 
L 64.6 46.472 
Q 62.6 46.472 62.6 48.472 
L 62.6 76.82825 
Q 62.6 78.82825 64.6 78.82825 
z
" style="fill:#ffffff;opacity:0.8;stroke:#cccccc;stroke-linejoin:miter;"/>
    </g>
    <g id="line2d_17">
     <path d="M 66.6 54.570437 
L 86.6 54.570437 
" style="fill:none;stroke:#1f77b4;stroke-linecap:square;stroke-width:1.5;"/>
    </g>
    <g id="line2d_18"/>
    <g id="text_18">
     <text style="font-family:DejaVu Sans;font-size:10px;font-style:normal;font-weight:normal;text-anchor:start;" transform="rotate(-0, 94.6, 58.070437)" x="94.6" y="58.070437">log(1+x)</text>
    </g>
    <g id="line2d_19">
     <path d="M 66.6 69.248562 
L 86.6 69.248562 
" style="fill:none;stroke:#ff7f0e;stroke-linecap:square;stroke-width:1.5;"/>
    </g>
    <g id="line2d_20"/>
    <g id="text_19">
     <text style="font-family:DejaVu Sans;font-size:10px;font-style:normal;font-weight:normal;text-anchor:start;" transform="rotate(-0, 94.6, 72.748562)" x="94.6" y="72.748562">Simul. Mean (WD=0.005211)</text>
    </g>
   </g>
  </g>
 </g>
 <defs>
  <clipPath id="pdbebf4bcf4">
   <rect height="266.112" width="357.12" x="57.6" y="41.472"/>
  </clipPath>
 </defs>
</svg>
