<?xml version="1.0" encoding="utf-8" standalone="no"?>
<!DOCTYPE svg PUBLIC "-//W3C//DTD SVG 1.1//EN"
  "http://www.w3.org/Graphics/SVG/1.1/DTD/svg11.dtd">
<!-- Created with matplotlib (https://matplotlib.org/) -->
<svg height="252pt" version="1.1" viewBox="0 0 324 252" width="324pt" xmlns="http://www.w3.org/2000/svg" xmlns:xlink="http://www.w3.org/1999/xlink">
 <defs>
  <style type="text/css">
*{stroke-linecap:butt;stroke-linejoin:round;}
  </style>
 </defs>
 <g id="figure_1">
  <g id="patch_1">
   <path d="M 0 252 
L 324 252 
L 324 0 
L 0 0 
z
" style="fill:#ffffff;"/>
  </g>
  <g id="axes_1">
   <g id="patch_2">
    <path d="M 40.5 224.28 
L 291.6 224.28 
L 291.6 30.24 
L 40.5 30.24 
z
" style="fill:#ffffff;"/>
   </g>
   <g id="matplotlib.axis_1">
    <g id="xtick_1">
     <g id="line2d_1">
      <defs>
       <path d="M 0 0 
L 0 3.5 
" id="mbf4e151a45" style="stroke:#000000;stroke-width:0.8;"/>
      </defs>
      <g>
       <use style="stroke:#000000;stroke-width:0.8;" x="51.890805" xlink:href="#mbf4e151a45" y="224.28"/>
      </g>
     </g>
     <g id="text_1">
      <text style="font-family:DejaVu Sans;font-size:10px;font-style:normal;font-weight:normal;text-anchor:middle;" transform="rotate(-0, 51.890805, 238.878438)" x="51.890805" y="238.878438">0.0</text>
     </g>
    </g>
    <g id="xtick_2">
     <g id="line2d_2">
      <g>
       <use style="stroke:#000000;stroke-width:0.8;" x="97.554483" xlink:href="#mbf4e151a45" y="224.28"/>
      </g>
     </g>
     <g id="text_2">
      <text style="font-family:DejaVu Sans;font-size:10px;font-style:normal;font-weight:normal;text-anchor:middle;" transform="rotate(-0, 97.554483, 238.878438)" x="97.554483" y="238.878438">0.2</text>
     </g>
    </g>
    <g id="xtick_3">
     <g id="line2d_3">
      <g>
       <use style="stroke:#000000;stroke-width:0.8;" x="143.218161" xlink:href="#mbf4e151a45" y="224.28"/>
      </g>
     </g>
     <g id="text_3">
      <text style="font-family:DejaVu Sans;font-size:10px;font-style:normal;font-weight:normal;text-anchor:middle;" transform="rotate(-0, 143.218161, 238.878438)" x="143.218161" y="238.878438">0.4</text>
     </g>
    </g>
    <g id="xtick_4">
     <g id="line2d_4">
      <g>
       <use style="stroke:#000000;stroke-width:0.8;" x="188.881839" xlink:href="#mbf4e151a45" y="224.28"/>
      </g>
     </g>
     <g id="text_4">
      <text style="font-family:DejaVu Sans;font-size:10px;font-style:normal;font-weight:normal;text-anchor:middle;" transform="rotate(-0, 188.881839, 238.878438)" x="188.881839" y="238.878438">0.6</text>
     </g>
    </g>
    <g id="xtick_5">
     <g id="line2d_5">
      <g>
       <use style="stroke:#000000;stroke-width:0.8;" x="234.545517" xlink:href="#mbf4e151a45" y="224.28"/>
      </g>
     </g>
     <g id="text_5">
      <text style="font-family:DejaVu Sans;font-size:10px;font-style:normal;font-weight:normal;text-anchor:middle;" transform="rotate(-0, 234.545517, 238.878438)" x="234.545517" y="238.878438">0.8</text>
     </g>
    </g>
    <g id="xtick_6">
     <g id="line2d_6">
      <g>
       <use style="stroke:#000000;stroke-width:0.8;" x="280.209195" xlink:href="#mbf4e151a45" y="224.28"/>
      </g>
     </g>
     <g id="text_6">
      <text style="font-family:DejaVu Sans;font-size:10px;font-style:normal;font-weight:normal;text-anchor:middle;" transform="rotate(-0, 280.209195, 238.878438)" x="280.209195" y="238.878438">1.0</text>
     </g>
    </g>
    <g id="text_7">
     <text style="font-family:DejaVu Sans;font-size:10px;font-style:normal;font-weight:normal;text-anchor:middle;" transform="rotate(-0, 166.05, 252.556563)" x="166.05" y="252.556563">Input Coin's Heads Probability (λ)</text>
    </g>
   </g>
   <g id="matplotlib.axis_2">
    <g id="ytick_1">
     <g id="line2d_7">
      <defs>
       <path d="M 0 0 
L -3.5 0 
" id="m0afcd5f68f" style="stroke:#000000;stroke-width:0.8;"/>
      </defs>
      <g>
       <use style="stroke:#000000;stroke-width:0.8;" x="40.5" xlink:href="#m0afcd5f68f" y="215.713686"/>
      </g>
     </g>
     <g id="text_8">
      <text style="font-family:DejaVu Sans;font-size:10px;font-style:normal;font-weight:normal;text-anchor:end;" transform="rotate(-0, 33.5, 219.512905)" x="33.5" y="219.512905">0.0</text>
     </g>
    </g>
    <g id="ytick_2">
     <g id="line2d_8">
      <g>
       <use style="stroke:#000000;stroke-width:0.8;" x="40.5" xlink:href="#m0afcd5f68f" y="190.332409"/>
      </g>
     </g>
     <g id="text_9">
      <text style="font-family:DejaVu Sans;font-size:10px;font-style:normal;font-weight:normal;text-anchor:end;" transform="rotate(-0, 33.5, 194.131628)" x="33.5" y="194.131628">0.1</text>
     </g>
    </g>
    <g id="ytick_3">
     <g id="line2d_9">
      <g>
       <use style="stroke:#000000;stroke-width:0.8;" x="40.5" xlink:href="#m0afcd5f68f" y="164.951133"/>
      </g>
     </g>
     <g id="text_10">
      <text style="font-family:DejaVu Sans;font-size:10px;font-style:normal;font-weight:normal;text-anchor:end;" transform="rotate(-0, 33.5, 168.750351)" x="33.5" y="168.750351">0.2</text>
     </g>
    </g>
    <g id="ytick_4">
     <g id="line2d_10">
      <g>
       <use style="stroke:#000000;stroke-width:0.8;" x="40.5" xlink:href="#m0afcd5f68f" y="139.569856"/>
      </g>
     </g>
     <g id="text_11">
      <text style="font-family:DejaVu Sans;font-size:10px;font-style:normal;font-weight:normal;text-anchor:end;" transform="rotate(-0, 33.5, 143.369075)" x="33.5" y="143.369075">0.3</text>
     </g>
    </g>
    <g id="ytick_5">
     <g id="line2d_11">
      <g>
       <use style="stroke:#000000;stroke-width:0.8;" x="40.5" xlink:href="#m0afcd5f68f" y="114.188579"/>
      </g>
     </g>
     <g id="text_12">
      <text style="font-family:DejaVu Sans;font-size:10px;font-style:normal;font-weight:normal;text-anchor:end;" transform="rotate(-0, 33.5, 117.987798)" x="33.5" y="117.987798">0.4</text>
     </g>
    </g>
    <g id="ytick_6">
     <g id="line2d_12">
      <g>
       <use style="stroke:#000000;stroke-width:0.8;" x="40.5" xlink:href="#m0afcd5f68f" y="88.807302"/>
      </g>
     </g>
     <g id="text_13">
      <text style="font-family:DejaVu Sans;font-size:10px;font-style:normal;font-weight:normal;text-anchor:end;" transform="rotate(-0, 33.5, 92.606521)" x="33.5" y="92.606521">0.5</text>
     </g>
    </g>
    <g id="ytick_7">
     <g id="line2d_13">
      <g>
       <use style="stroke:#000000;stroke-width:0.8;" x="40.5" xlink:href="#m0afcd5f68f" y="63.426026"/>
      </g>
     </g>
     <g id="text_14">
      <text style="font-family:DejaVu Sans;font-size:10px;font-style:normal;font-weight:normal;text-anchor:end;" transform="rotate(-0, 33.5, 67.225244)" x="33.5" y="67.225244">0.6</text>
     </g>
    </g>
    <g id="ytick_8">
     <g id="line2d_14">
      <g>
       <use style="stroke:#000000;stroke-width:0.8;" x="40.5" xlink:href="#m0afcd5f68f" y="38.044749"/>
      </g>
     </g>
     <g id="text_15">
      <text style="font-family:DejaVu Sans;font-size:10px;font-style:normal;font-weight:normal;text-anchor:end;" transform="rotate(-0, 33.5, 41.843968)" x="33.5" y="41.843968">0.7</text>
     </g>
    </g>
    <g id="text_16">
     <text style="font-family:DejaVu Sans;font-size:10px;font-style:normal;font-weight:normal;text-anchor:middle;" transform="rotate(-90, 11.517187, 127.26)" x="11.517187" y="127.26">Simulated Mean / Function Value</text>
    </g>
   </g>
   <g id="line2d_15">
    <path clip-path="url(#p9e2a8b161b)" d="M 52.119123 215.46 
L 54.420757 212.916703 
L 56.722391 210.398639 
L 59.024025 207.905311 
L 61.325658 205.436238 
L 63.627292 202.990952 
L 65.928926 200.569001 
L 68.23056 198.169942 
L 70.532194 195.793347 
L 72.833828 193.438799 
L 75.135462 191.105893 
L 77.437096 188.794235 
L 79.738729 186.503441 
L 82.040363 184.233138 
L 84.341997 181.982962 
L 86.643631 179.752559 
L 88.945265 177.541587 
L 91.246899 175.349707 
L 93.548533 173.176595 
L 95.850167 171.02193 
L 98.151801 168.885403 
L 100.453434 166.766711 
L 102.755068 164.665558 
L 105.056702 162.581657 
L 107.358336 160.514726 
L 109.65997 158.464491 
L 111.961604 156.430684 
L 114.263238 154.413046 
L 116.564872 152.411319 
L 118.866505 150.425257 
L 121.168139 148.454614 
L 123.469773 146.499154 
L 125.771407 144.558644 
L 128.073041 142.632858 
L 130.374675 140.721573 
L 132.676309 138.824574 
L 134.977943 136.941648 
L 137.279576 135.072587 
L 139.58121 133.21719 
L 141.882844 131.375257 
L 144.184478 129.546596 
L 146.486112 127.731015 
L 148.787746 125.928329 
L 151.08938 124.138356 
L 153.391014 122.360919 
L 155.692648 120.595842 
L 157.994281 118.842955 
L 160.295915 117.102091 
L 162.597549 115.373087 
L 164.899183 113.65578 
L 167.200817 111.950015 
L 169.502451 110.255638 
L 171.804085 108.572496 
L 174.105719 106.900443 
L 176.407352 105.239332 
L 178.708986 103.589023 
L 181.01062 101.949374 
L 183.312254 100.32025 
L 185.613888 98.701516 
L 187.915522 97.09304 
L 190.217156 95.494693 
L 192.51879 93.906349 
L 194.820424 92.327883 
L 197.122057 90.759172 
L 199.423691 89.200098 
L 201.725325 87.650542 
L 204.026959 86.110388 
L 206.328593 84.579525 
L 208.630227 83.057839 
L 210.931861 81.545222 
L 213.233495 80.041566 
L 215.535128 78.546765 
L 217.836762 77.060717 
L 220.138396 75.583319 
L 222.44003 74.11447 
L 224.741664 72.654073 
L 227.043298 71.202031 
L 229.344932 69.758249 
L 231.646566 68.322633 
L 233.948199 66.895092 
L 236.249833 65.475534 
L 238.551467 64.063872 
L 240.853101 62.660019 
L 243.154735 61.263887 
L 245.456369 59.875393 
L 247.758003 58.494453 
L 250.059637 57.120986 
L 252.361271 55.754911 
L 254.662904 54.39615 
L 256.964538 53.044624 
L 259.266172 51.700256 
L 261.567806 50.362972 
L 263.86944 49.032696 
L 266.171074 47.709357 
L 268.472708 46.392881 
L 270.774342 45.083199 
L 273.075975 43.780239 
L 275.377609 42.483935 
L 277.679243 41.194217 
L 279.980877 39.91102 
" style="fill:none;stroke:#1f77b4;stroke-linecap:square;stroke-width:1.5;"/>
   </g>
   <g id="line2d_16">
    <path clip-path="url(#p9e2a8b161b)" d="M 51.913636 215.20606 
L 54.219421 213.175558 
L 56.525207 210.637431 
L 58.830992 205.561175 
L 61.136777 200.992545 
L 63.442562 204.038299 
L 65.748347 205.561175 
L 68.054132 195.408665 
L 70.359917 194.393414 
L 72.665702 192.362911 
L 74.971488 192.870537 
L 77.277273 185.763779 
L 79.583058 178.657022 
L 81.888843 178.657022 
L 84.194628 183.733277 
L 86.500413 175.611269 
L 88.806198 180.687524 
L 91.111983 170.535013 
L 93.417769 173.073141 
L 95.723554 174.596018 
L 98.029339 174.088392 
L 100.335124 172.565516 
L 102.640909 161.397754 
L 104.946694 161.905379 
L 107.252479 163.935881 
L 109.558264 156.321498 
L 111.86405 163.428256 
L 114.169835 148.19949 
L 116.47562 148.19949 
L 118.781405 155.306247 
L 121.08719 158.859626 
L 123.392975 143.123235 
L 125.69876 139.569856 
L 128.004545 144.138486 
L 130.310331 146.168988 
L 132.616116 134.4936 
L 134.921901 146.168988 
L 137.227686 143.63086 
L 139.533471 133.478349 
L 141.839256 137.539354 
L 144.145041 132.970724 
L 146.450826 127.386843 
L 148.756612 120.280085 
L 151.062397 127.386843 
L 153.368182 115.711456 
L 155.673967 116.726707 
L 157.979752 123.833464 
L 160.285537 122.310588 
L 162.591322 112.158077 
L 164.897107 112.158077 
L 167.202893 103.020817 
L 169.508678 112.665702 
L 171.814463 115.711456 
L 174.120248 109.619949 
L 176.426033 107.589447 
L 178.731818 100.48269 
L 181.037603 103.020817 
L 183.343388 106.066571 
L 185.649174 97.436936 
L 187.954959 104.036068 
L 190.260744 96.421685 
L 192.566529 94.898809 
L 194.872314 88.807302 
L 197.178099 87.284426 
L 199.483884 83.731047 
L 201.789669 84.746298 
L 204.095455 88.299677 
L 206.40124 83.731047 
L 208.707025 76.116664 
L 211.01281 90.330179 
L 213.318595 74.593787 
L 215.62438 82.715796 
L 217.930165 66.471779 
L 220.23595 73.070911 
L 222.541736 65.964153 
L 224.847521 62.9184 
L 227.153306 76.62429 
L 229.459091 63.426026 
L 231.764876 62.9184 
L 234.070661 71.040409 
L 236.376446 71.548034 
L 238.682231 70.025158 
L 240.988017 63.426026 
L 243.293802 59.365021 
L 245.599587 59.872647 
L 247.905372 46.674383 
L 250.211157 70.025158 
L 252.516942 67.994655 
L 254.822727 51.243013 
L 257.128512 39.06 
L 259.434298 48.704885 
L 261.740083 46.674383 
L 264.045868 45.659132 
L 266.351653 42.613379 
L 268.657438 55.304017 
L 270.963223 43.62863 
L 273.269008 41.090502 
L 275.574793 49.720136 
L 277.880579 46.166757 
L 280.186364 39.06 
" style="fill:none;stroke:#ff7f0e;stroke-linecap:square;stroke-width:1.5;"/>
   </g>
   <g id="patch_3">
    <path d="M 40.5 224.28 
L 40.5 30.24 
" style="fill:none;stroke:#000000;stroke-linecap:square;stroke-linejoin:miter;stroke-width:0.8;"/>
   </g>
   <g id="patch_4">
    <path d="M 291.6 224.28 
L 291.6 30.24 
" style="fill:none;stroke:#000000;stroke-linecap:square;stroke-linejoin:miter;stroke-width:0.8;"/>
   </g>
   <g id="patch_5">
    <path d="M 40.5 224.28 
L 291.6 224.28 
" style="fill:none;stroke:#000000;stroke-linecap:square;stroke-linejoin:miter;stroke-width:0.8;"/>
   </g>
   <g id="patch_6">
    <path d="M 40.5 30.24 
L 291.6 30.24 
" style="fill:none;stroke:#000000;stroke-linecap:square;stroke-linejoin:miter;stroke-width:0.8;"/>
   </g>
   <g id="text_17">
    <text style="font-family:DejaVu Sans;font-size:12px;font-style:normal;font-weight:normal;text-anchor:middle;" transform="rotate(-0, 166.05, 24.24)" x="166.05" y="24.24">Expected Value in log(1+x) (Flajolet) Algorithm</text>
   </g>
   <g id="legend_1">
    <g id="patch_7">
     <path d="M 64.55 219.28 
L 284.6 219.28 
Q 286.6 219.28 286.6 217.28 
L 286.6 188.92375 
Q 286.6 186.92375 284.6 186.92375 
L 64.55 186.92375 
Q 62.55 186.92375 62.55 188.92375 
L 62.55 217.28 
Q 62.55 219.28 64.55 219.28 
z
" style="fill:#ffffff;opacity:0.8;stroke:#cccccc;stroke-linejoin:miter;"/>
    </g>
    <g id="line2d_17">
     <path d="M 66.55 195.022188 
L 86.55 195.022188 
" style="fill:none;stroke:#1f77b4;stroke-linecap:square;stroke-width:1.5;"/>
    </g>
    <g id="line2d_18"/>
    <g id="text_18">
     <text style="font-family:DejaVu Sans;font-size:10px;font-style:normal;font-weight:normal;text-anchor:start;" transform="rotate(-0, 94.55, 198.522188)" x="94.55" y="198.522188">log(1+x)</text>
    </g>
    <g id="line2d_19">
     <path d="M 66.55 209.700312 
L 86.55 209.700312 
" style="fill:none;stroke:#ff7f0e;stroke-linecap:square;stroke-width:1.5;"/>
    </g>
    <g id="line2d_20"/>
    <g id="text_19">
     <text style="font-family:DejaVu Sans;font-size:10px;font-style:normal;font-weight:normal;text-anchor:start;" transform="rotate(-0, 94.55, 213.200312)" x="94.55" y="213.200312">Simulated Mean of log(1+x) (Flajolet)</text>
    </g>
   </g>
  </g>
 </g>
 <defs>
  <clipPath id="p9e2a8b161b">
   <rect height="194.04" width="251.1" x="40.5" y="30.24"/>
  </clipPath>
 </defs>
</svg>
