<?xml version="1.0" encoding="utf-8" standalone="no"?>
<!DOCTYPE svg PUBLIC "-//W3C//DTD SVG 1.1//EN"
  "http://www.w3.org/Graphics/SVG/1.1/DTD/svg11.dtd">
<!-- Created with matplotlib (https://matplotlib.org/) -->
<svg height="345.6pt" version="1.1" viewBox="0 0 460.8 345.6" width="460.8pt" xmlns="http://www.w3.org/2000/svg" xmlns:xlink="http://www.w3.org/1999/xlink">
 <defs>
  <style type="text/css">
*{stroke-linecap:butt;stroke-linejoin:round;}
  </style>
 </defs>
 <g id="figure_1">
  <g id="patch_1">
   <path d="M 0 345.6 
L 460.8 345.6 
L 460.8 0 
L 0 0 
z
" style="fill:#ffffff;"/>
  </g>
  <g id="axes_1">
   <g id="patch_2">
    <path d="M 57.6 307.584 
L 414.72 307.584 
L 414.72 41.472 
L 57.6 41.472 
z
" style="fill:#ffffff;"/>
   </g>
   <g id="matplotlib.axis_1">
    <g id="xtick_1">
     <g id="line2d_1">
      <defs>
       <path d="M 0 0 
L 0 3.5 
" id="m87d0929dc5" style="stroke:#000000;stroke-width:0.8;"/>
      </defs>
      <g>
       <use style="stroke:#000000;stroke-width:0.8;" x="73.800255" xlink:href="#m87d0929dc5" y="307.584"/>
      </g>
     </g>
     <g id="text_1">
      <text style="font-family:DejaVu Sans;font-size:10px;font-style:normal;font-weight:normal;text-anchor:middle;" transform="rotate(-0, 73.800255, 322.182437)" x="73.800255" y="322.182437">0.0</text>
     </g>
    </g>
    <g id="xtick_2">
     <g id="line2d_2">
      <g>
       <use style="stroke:#000000;stroke-width:0.8;" x="138.744153" xlink:href="#m87d0929dc5" y="307.584"/>
      </g>
     </g>
     <g id="text_2">
      <text style="font-family:DejaVu Sans;font-size:10px;font-style:normal;font-weight:normal;text-anchor:middle;" transform="rotate(-0, 138.744153, 322.182437)" x="138.744153" y="322.182437">0.2</text>
     </g>
    </g>
    <g id="xtick_3">
     <g id="line2d_3">
      <g>
       <use style="stroke:#000000;stroke-width:0.8;" x="203.688051" xlink:href="#m87d0929dc5" y="307.584"/>
      </g>
     </g>
     <g id="text_3">
      <text style="font-family:DejaVu Sans;font-size:10px;font-style:normal;font-weight:normal;text-anchor:middle;" transform="rotate(-0, 203.688051, 322.182437)" x="203.688051" y="322.182437">0.4</text>
     </g>
    </g>
    <g id="xtick_4">
     <g id="line2d_4">
      <g>
       <use style="stroke:#000000;stroke-width:0.8;" x="268.631949" xlink:href="#m87d0929dc5" y="307.584"/>
      </g>
     </g>
     <g id="text_4">
      <text style="font-family:DejaVu Sans;font-size:10px;font-style:normal;font-weight:normal;text-anchor:middle;" transform="rotate(-0, 268.631949, 322.182437)" x="268.631949" y="322.182437">0.6</text>
     </g>
    </g>
    <g id="xtick_5">
     <g id="line2d_5">
      <g>
       <use style="stroke:#000000;stroke-width:0.8;" x="333.575847" xlink:href="#m87d0929dc5" y="307.584"/>
      </g>
     </g>
     <g id="text_5">
      <text style="font-family:DejaVu Sans;font-size:10px;font-style:normal;font-weight:normal;text-anchor:middle;" transform="rotate(-0, 333.575847, 322.182437)" x="333.575847" y="322.182437">0.8</text>
     </g>
    </g>
    <g id="xtick_6">
     <g id="line2d_6">
      <g>
       <use style="stroke:#000000;stroke-width:0.8;" x="398.519745" xlink:href="#m87d0929dc5" y="307.584"/>
      </g>
     </g>
     <g id="text_6">
      <text style="font-family:DejaVu Sans;font-size:10px;font-style:normal;font-weight:normal;text-anchor:middle;" transform="rotate(-0, 398.519745, 322.182437)" x="398.519745" y="322.182437">1.0</text>
     </g>
    </g>
    <g id="text_7">
     <text style="font-family:DejaVu Sans;font-size:10px;font-style:normal;font-weight:normal;text-anchor:middle;" transform="rotate(-0, 236.16, 335.860562)" x="236.16" y="335.860562">Input Coin's Heads Probability (λ)</text>
    </g>
   </g>
   <g id="matplotlib.axis_2">
    <g id="ytick_1">
     <g id="line2d_7">
      <defs>
       <path d="M 0 0 
L -3.5 0 
" id="ma11e1da1fb" style="stroke:#000000;stroke-width:0.8;"/>
      </defs>
      <g>
       <use style="stroke:#000000;stroke-width:0.8;" x="57.6" xlink:href="#ma11e1da1fb" y="295.492936"/>
      </g>
     </g>
     <g id="text_8">
      <text style="font-family:DejaVu Sans;font-size:10px;font-style:normal;font-weight:normal;text-anchor:end;" transform="rotate(-0, 50.6, 299.292155)" x="50.6" y="299.292155">0</text>
     </g>
    </g>
    <g id="ytick_2">
     <g id="line2d_8">
      <g>
       <use style="stroke:#000000;stroke-width:0.8;" x="57.6" xlink:href="#ma11e1da1fb" y="253.492079"/>
      </g>
     </g>
     <g id="text_9">
      <text style="font-family:DejaVu Sans;font-size:10px;font-style:normal;font-weight:normal;text-anchor:end;" transform="rotate(-0, 50.6, 257.291298)" x="50.6" y="257.291298">1</text>
     </g>
    </g>
    <g id="ytick_3">
     <g id="line2d_9">
      <g>
       <use style="stroke:#000000;stroke-width:0.8;" x="57.6" xlink:href="#ma11e1da1fb" y="211.491222"/>
      </g>
     </g>
     <g id="text_10">
      <text style="font-family:DejaVu Sans;font-size:10px;font-style:normal;font-weight:normal;text-anchor:end;" transform="rotate(-0, 50.6, 215.290441)" x="50.6" y="215.290441">2</text>
     </g>
    </g>
    <g id="ytick_4">
     <g id="line2d_10">
      <g>
       <use style="stroke:#000000;stroke-width:0.8;" x="57.6" xlink:href="#ma11e1da1fb" y="169.490365"/>
      </g>
     </g>
     <g id="text_11">
      <text style="font-family:DejaVu Sans;font-size:10px;font-style:normal;font-weight:normal;text-anchor:end;" transform="rotate(-0, 50.6, 173.289584)" x="50.6" y="173.289584">3</text>
     </g>
    </g>
    <g id="ytick_5">
     <g id="line2d_11">
      <g>
       <use style="stroke:#000000;stroke-width:0.8;" x="57.6" xlink:href="#ma11e1da1fb" y="127.489508"/>
      </g>
     </g>
     <g id="text_12">
      <text style="font-family:DejaVu Sans;font-size:10px;font-style:normal;font-weight:normal;text-anchor:end;" transform="rotate(-0, 50.6, 131.288727)" x="50.6" y="131.288727">4</text>
     </g>
    </g>
    <g id="ytick_6">
     <g id="line2d_12">
      <g>
       <use style="stroke:#000000;stroke-width:0.8;" x="57.6" xlink:href="#ma11e1da1fb" y="85.488651"/>
      </g>
     </g>
     <g id="text_13">
      <text style="font-family:DejaVu Sans;font-size:10px;font-style:normal;font-weight:normal;text-anchor:end;" transform="rotate(-0, 50.6, 89.28787)" x="50.6" y="89.28787">5</text>
     </g>
    </g>
    <g id="ytick_7">
     <g id="line2d_13">
      <g>
       <use style="stroke:#000000;stroke-width:0.8;" x="57.6" xlink:href="#ma11e1da1fb" y="43.487794"/>
      </g>
     </g>
     <g id="text_14">
      <text style="font-family:DejaVu Sans;font-size:10px;font-style:normal;font-weight:normal;text-anchor:end;" transform="rotate(-0, 50.6, 47.287013)" x="50.6" y="47.287013">6</text>
     </g>
    </g>
    <g id="text_15">
     <text style="font-family:DejaVu Sans;font-size:10px;font-style:normal;font-weight:normal;text-anchor:middle;" transform="rotate(-90, 38.157812, 174.528)" x="38.157812" y="174.528">Coin Flips Needed</text>
    </g>
   </g>
   <g id="line2d_14">
    <path clip-path="url(#p05f067b9dc)" d="M 73.832727 253.498379 
L 77.112066 254.128515 
L 80.391405 254.746951 
L 83.670744 255.354104 
L 86.950083 255.950373 
L 90.229421 256.536145 
L 93.50876 257.111787 
L 96.788099 257.677656 
L 100.067438 258.234093 
L 103.346777 258.781428 
L 106.626116 259.319979 
L 109.905455 259.850052 
L 113.184793 260.371942 
L 116.464132 260.885933 
L 119.743471 261.392302 
L 123.02281 261.891314 
L 126.302149 262.383226 
L 129.581488 262.868288 
L 132.860826 263.34674 
L 136.140165 263.818815 
L 139.419504 264.284741 
L 142.698843 264.744735 
L 145.978182 265.199013 
L 149.257521 265.64778 
L 152.53686 266.091238 
L 155.816198 266.529582 
L 159.095537 266.963002 
L 162.374876 267.391686 
L 165.654215 267.815812 
L 168.933554 268.235558 
L 172.212893 268.651096 
L 175.492231 269.062593 
L 178.77157 269.470216 
L 182.050909 269.874124 
L 185.330248 270.274475 
L 188.609587 270.671424 
L 191.888926 271.065123 
L 195.168264 271.455721 
L 198.447603 271.843363 
L 201.726942 272.228194 
L 205.006281 272.610357 
L 208.28562 272.989989 
L 211.564959 273.367231 
L 214.844298 273.742218 
L 218.123636 274.115084 
L 221.402975 274.485963 
L 224.682314 274.854988 
L 227.961653 275.222289 
L 231.240992 275.587996 
L 234.520331 275.952239 
L 237.799669 276.315147 
L 241.079008 276.676848 
L 244.358347 277.03747 
L 247.637686 277.397141 
L 250.917025 277.755989 
L 254.196364 278.114141 
L 257.475702 278.471727 
L 260.755041 278.828874 
L 264.03438 279.185713 
L 267.313719 279.542373 
L 270.593058 279.898986 
L 273.872397 280.255683 
L 277.151736 280.612599 
L 280.431074 280.969868 
L 283.710413 281.327627 
L 286.989752 281.686015 
L 290.269091 282.045172 
L 293.54843 282.40524 
L 296.827769 282.766366 
L 300.107107 283.128698 
L 303.386446 283.492385 
L 306.665785 283.857583 
L 309.945124 284.224448 
L 313.224463 284.593142 
L 316.503802 284.96383 
L 319.78314 285.336682 
L 323.062479 285.711871 
L 326.341818 286.089576 
L 329.621157 286.469981 
L 332.900496 286.853277 
L 336.179835 287.239657 
L 339.459174 287.629326 
L 342.738512 288.022491 
L 346.017851 288.419368 
L 349.29719 288.820182 
L 352.576529 289.225164 
L 355.855868 289.634556 
L 359.135207 290.048609 
L 362.414545 290.467582 
L 365.693884 290.891747 
L 368.973223 291.321387 
L 372.252562 291.756797 
L 375.531901 292.198285 
L 378.81124 292.646175 
L 382.090579 293.100802 
L 385.369917 293.56252 
L 388.649256 294.0317 
L 391.928595 294.50873 
L 395.207934 294.994021 
L 398.487273 295.488 
" style="fill:none;stroke:#1f77b4;stroke-linecap:square;stroke-width:1.5;"/>
   </g>
   <g id="line2d_15">
    <path clip-path="url(#p05f067b9dc)" d="M 73.832727 231.819637 
L 77.112066 234.003682 
L 80.391405 232.995661 
L 83.670744 231.399629 
L 86.950083 230.97962 
L 90.229421 233.751677 
L 93.50876 232.659654 
L 96.788099 232.407649 
L 100.067438 233.163665 
L 103.346777 233.079663 
L 106.626116 233.499671 
L 109.905455 235.599714 
L 113.184793 234.591694 
L 116.464132 231.399629 
L 119.743471 231.48363 
L 123.02281 233.667675 
L 126.302149 233.499671 
L 129.581488 233.163665 
L 132.860826 234.759697 
L 136.140165 233.079663 
L 139.419504 232.995661 
L 142.698843 232.071642 
L 145.978182 233.751677 
L 149.257521 233.91968 
L 152.53686 231.231625 
L 155.816198 229.551591 
L 159.095537 232.743656 
L 162.374876 232.407649 
L 165.654215 231.735635 
L 168.933554 234.675695 
L 172.212893 231.063622 
L 175.492231 232.071642 
L 178.77157 233.163665 
L 182.050909 229.719594 
L 185.330248 231.063622 
L 188.609587 231.651634 
L 191.888926 232.575653 
L 195.168264 232.155644 
L 198.447603 230.895618 
L 201.726942 229.047581 
L 205.006281 227.703553 
L 208.28562 231.903639 
L 211.564959 229.215584 
L 214.844298 229.215584 
L 218.123636 228.54357 
L 221.402975 232.743656 
L 224.682314 232.239646 
L 227.961653 229.215584 
L 231.240992 228.03956 
L 234.520331 226.275524 
L 237.799669 227.53555 
L 241.079008 228.207563 
L 244.358347 230.391608 
L 247.637686 226.611531 
L 250.917025 230.139603 
L 254.196364 227.199543 
L 257.475702 224.427486 
L 260.755041 226.275524 
L 264.03438 224.931497 
L 267.313719 225.939517 
L 270.593058 225.183502 
L 273.872397 225.771514 
L 277.151736 221.739431 
L 280.431074 223.503467 
L 283.710413 222.495447 
L 286.989752 222.831454 
L 290.269091 222.831454 
L 293.54843 225.519509 
L 296.827769 216.363322 
L 300.107107 222.999457 
L 303.386446 222.579449 
L 306.665785 220.983416 
L 309.945124 215.019294 
L 313.224463 219.639389 
L 316.503802 214.851291 
L 319.78314 220.731411 
L 323.062479 220.395404 
L 326.341818 211.995233 
L 329.621157 214.431282 
L 332.900496 210.147195 
L 336.179835 216.78333 
L 339.459174 215.187298 
L 342.738512 204.351077 
L 346.017851 215.859311 
L 349.29719 199.310974 
L 352.576529 207.795147 
L 355.855868 201.915027 
L 359.135207 188.306749 
L 362.414545 209.559183 
L 365.693884 188.222748 
L 368.973223 190.742799 
L 372.252562 188.978763 
L 375.531901 186.206706 
L 378.81124 184.106664 
L 382.090579 164.450262 
L 385.369917 170.918394 
L 388.649256 156.554101 
L 391.928595 154.706064 
L 395.207934 124.297443 
L 398.487273 53.568 
" style="fill:none;stroke:#ff7f0e;stroke-linecap:square;stroke-width:1.5;"/>
   </g>
   <g id="patch_3">
    <path d="M 57.6 307.584 
L 57.6 41.472 
" style="fill:none;stroke:#000000;stroke-linecap:square;stroke-linejoin:miter;stroke-width:0.8;"/>
   </g>
   <g id="patch_4">
    <path d="M 414.72 307.584 
L 414.72 41.472 
" style="fill:none;stroke:#000000;stroke-linecap:square;stroke-linejoin:miter;stroke-width:0.8;"/>
   </g>
   <g id="patch_5">
    <path d="M 57.6 307.584 
L 414.72 307.584 
" style="fill:none;stroke:#000000;stroke-linecap:square;stroke-linejoin:miter;stroke-width:0.8;"/>
   </g>
   <g id="patch_6">
    <path d="M 57.6 41.472 
L 414.72 41.472 
" style="fill:none;stroke:#000000;stroke-linecap:square;stroke-linejoin:miter;stroke-width:0.8;"/>
   </g>
   <g id="text_16">
    <text style="font-family:DejaVu Sans;font-size:12px;font-style:normal;font-weight:normal;text-anchor:middle;" transform="rotate(-0, 236.16, 35.472)" x="236.16" y="35.472">Coin Flips for log(1+x)</text>
   </g>
   <g id="legend_1">
    <g id="patch_7">
     <path d="M 64.6 78.82825 
L 282.8625 78.82825 
Q 284.8625 78.82825 284.8625 76.82825 
L 284.8625 48.472 
Q 284.8625 46.472 282.8625 46.472 
L 64.6 46.472 
Q 62.6 46.472 62.6 48.472 
L 62.6 76.82825 
Q 62.6 78.82825 64.6 78.82825 
z
" style="fill:#ffffff;opacity:0.8;stroke:#cccccc;stroke-linejoin:miter;"/>
    </g>
    <g id="line2d_16">
     <path d="M 66.6 54.570437 
L 86.6 54.570437 
" style="fill:none;stroke:#1f77b4;stroke-linecap:square;stroke-width:1.5;"/>
    </g>
    <g id="line2d_17"/>
    <g id="text_17">
     <text style="font-family:DejaVu Sans;font-size:10px;font-style:normal;font-weight:normal;text-anchor:start;" transform="rotate(-0, 94.6, 58.070437)" x="94.6" y="58.070437">Coin Flip Lower Bound</text>
    </g>
    <g id="line2d_18">
     <path d="M 66.6 69.248562 
L 86.6 69.248562 
" style="fill:none;stroke:#ff7f0e;stroke-linecap:square;stroke-width:1.5;"/>
    </g>
    <g id="line2d_19"/>
    <g id="text_18">
     <text style="font-family:DejaVu Sans;font-size:10px;font-style:normal;font-weight:normal;text-anchor:start;" transform="rotate(-0, 94.6, 72.748562)" x="94.6" y="72.748562">Avg. Coins Flipped log(1+x) (Flajolet)</text>
    </g>
   </g>
  </g>
 </g>
 <defs>
  <clipPath id="p05f067b9dc">
   <rect height="266.112" width="357.12" x="57.6" y="41.472"/>
  </clipPath>
 </defs>
</svg>
