<?xml version="1.0" encoding="utf-8" standalone="no"?>
<!DOCTYPE svg PUBLIC "-//W3C//DTD SVG 1.1//EN"
  "http://www.w3.org/Graphics/SVG/1.1/DTD/svg11.dtd">
<!-- Created with matplotlib (https://matplotlib.org/) -->
<svg height="252pt" version="1.1" viewBox="0 0 324 252" width="324pt" xmlns="http://www.w3.org/2000/svg" xmlns:xlink="http://www.w3.org/1999/xlink">
 <defs>
  <style type="text/css">
*{stroke-linecap:butt;stroke-linejoin:round;}
  </style>
 </defs>
 <g id="figure_1">
  <g id="patch_1">
   <path d="M 0 252 
L 324 252 
L 324 0 
L 0 0 
z
" style="fill:#ffffff;"/>
  </g>
  <g id="axes_1">
   <g id="patch_2">
    <path d="M 40.5 224.28 
L 291.6 224.28 
L 291.6 30.24 
L 40.5 30.24 
z
" style="fill:#ffffff;"/>
   </g>
   <g id="matplotlib.axis_1">
    <g id="xtick_1">
     <g id="line2d_1">
      <defs>
       <path d="M 0 0 
L 0 3.5 
" id="m0fdc247ad4" style="stroke:#000000;stroke-width:0.8;"/>
      </defs>
      <g>
       <use style="stroke:#000000;stroke-width:0.8;" x="51.890805" xlink:href="#m0fdc247ad4" y="224.28"/>
      </g>
     </g>
     <g id="text_1">
      <text style="font-family:DejaVu Sans;font-size:10px;font-style:normal;font-weight:normal;text-anchor:middle;" transform="rotate(-0, 51.890805, 238.878438)" x="51.890805" y="238.878438">0.0</text>
     </g>
    </g>
    <g id="xtick_2">
     <g id="line2d_2">
      <g>
       <use style="stroke:#000000;stroke-width:0.8;" x="97.554483" xlink:href="#m0fdc247ad4" y="224.28"/>
      </g>
     </g>
     <g id="text_2">
      <text style="font-family:DejaVu Sans;font-size:10px;font-style:normal;font-weight:normal;text-anchor:middle;" transform="rotate(-0, 97.554483, 238.878438)" x="97.554483" y="238.878438">0.2</text>
     </g>
    </g>
    <g id="xtick_3">
     <g id="line2d_3">
      <g>
       <use style="stroke:#000000;stroke-width:0.8;" x="143.218161" xlink:href="#m0fdc247ad4" y="224.28"/>
      </g>
     </g>
     <g id="text_3">
      <text style="font-family:DejaVu Sans;font-size:10px;font-style:normal;font-weight:normal;text-anchor:middle;" transform="rotate(-0, 143.218161, 238.878438)" x="143.218161" y="238.878438">0.4</text>
     </g>
    </g>
    <g id="xtick_4">
     <g id="line2d_4">
      <g>
       <use style="stroke:#000000;stroke-width:0.8;" x="188.881839" xlink:href="#m0fdc247ad4" y="224.28"/>
      </g>
     </g>
     <g id="text_4">
      <text style="font-family:DejaVu Sans;font-size:10px;font-style:normal;font-weight:normal;text-anchor:middle;" transform="rotate(-0, 188.881839, 238.878438)" x="188.881839" y="238.878438">0.6</text>
     </g>
    </g>
    <g id="xtick_5">
     <g id="line2d_5">
      <g>
       <use style="stroke:#000000;stroke-width:0.8;" x="234.545517" xlink:href="#m0fdc247ad4" y="224.28"/>
      </g>
     </g>
     <g id="text_5">
      <text style="font-family:DejaVu Sans;font-size:10px;font-style:normal;font-weight:normal;text-anchor:middle;" transform="rotate(-0, 234.545517, 238.878438)" x="234.545517" y="238.878438">0.8</text>
     </g>
    </g>
    <g id="xtick_6">
     <g id="line2d_6">
      <g>
       <use style="stroke:#000000;stroke-width:0.8;" x="280.209195" xlink:href="#m0fdc247ad4" y="224.28"/>
      </g>
     </g>
     <g id="text_6">
      <text style="font-family:DejaVu Sans;font-size:10px;font-style:normal;font-weight:normal;text-anchor:middle;" transform="rotate(-0, 280.209195, 238.878438)" x="280.209195" y="238.878438">1.0</text>
     </g>
    </g>
    <g id="text_7">
     <text style="font-family:DejaVu Sans;font-size:10px;font-style:normal;font-weight:normal;text-anchor:middle;" transform="rotate(-0, 166.05, 252.556563)" x="166.05" y="252.556563">Input Coin's Heads Probability (λ)</text>
    </g>
   </g>
   <g id="matplotlib.axis_2">
    <g id="ytick_1">
     <g id="line2d_7">
      <defs>
       <path d="M 0 0 
L -3.5 0 
" id="mc82e2b6762" style="stroke:#000000;stroke-width:0.8;"/>
      </defs>
      <g>
       <use style="stroke:#000000;stroke-width:0.8;" x="40.5" xlink:href="#mc82e2b6762" y="215.46"/>
      </g>
     </g>
     <g id="text_8">
      <text style="font-family:DejaVu Sans;font-size:10px;font-style:normal;font-weight:normal;text-anchor:end;" transform="rotate(-0, 33.5, 219.259219)" x="33.5" y="219.259219">0.0</text>
     </g>
    </g>
    <g id="ytick_2">
     <g id="line2d_8">
      <g>
       <use style="stroke:#000000;stroke-width:0.8;" x="40.5" xlink:href="#mc82e2b6762" y="189.992484"/>
      </g>
     </g>
     <g id="text_9">
      <text style="font-family:DejaVu Sans;font-size:10px;font-style:normal;font-weight:normal;text-anchor:end;" transform="rotate(-0, 33.5, 193.791703)" x="33.5" y="193.791703">0.1</text>
     </g>
    </g>
    <g id="ytick_3">
     <g id="line2d_9">
      <g>
       <use style="stroke:#000000;stroke-width:0.8;" x="40.5" xlink:href="#mc82e2b6762" y="164.524968"/>
      </g>
     </g>
     <g id="text_10">
      <text style="font-family:DejaVu Sans;font-size:10px;font-style:normal;font-weight:normal;text-anchor:end;" transform="rotate(-0, 33.5, 168.324187)" x="33.5" y="168.324187">0.2</text>
     </g>
    </g>
    <g id="ytick_4">
     <g id="line2d_10">
      <g>
       <use style="stroke:#000000;stroke-width:0.8;" x="40.5" xlink:href="#mc82e2b6762" y="139.057452"/>
      </g>
     </g>
     <g id="text_11">
      <text style="font-family:DejaVu Sans;font-size:10px;font-style:normal;font-weight:normal;text-anchor:end;" transform="rotate(-0, 33.5, 142.856671)" x="33.5" y="142.856671">0.3</text>
     </g>
    </g>
    <g id="ytick_5">
     <g id="line2d_11">
      <g>
       <use style="stroke:#000000;stroke-width:0.8;" x="40.5" xlink:href="#mc82e2b6762" y="113.589936"/>
      </g>
     </g>
     <g id="text_12">
      <text style="font-family:DejaVu Sans;font-size:10px;font-style:normal;font-weight:normal;text-anchor:end;" transform="rotate(-0, 33.5, 117.389155)" x="33.5" y="117.389155">0.4</text>
     </g>
    </g>
    <g id="ytick_6">
     <g id="line2d_12">
      <g>
       <use style="stroke:#000000;stroke-width:0.8;" x="40.5" xlink:href="#mc82e2b6762" y="88.12242"/>
      </g>
     </g>
     <g id="text_13">
      <text style="font-family:DejaVu Sans;font-size:10px;font-style:normal;font-weight:normal;text-anchor:end;" transform="rotate(-0, 33.5, 91.921639)" x="33.5" y="91.921639">0.5</text>
     </g>
    </g>
    <g id="ytick_7">
     <g id="line2d_13">
      <g>
       <use style="stroke:#000000;stroke-width:0.8;" x="40.5" xlink:href="#mc82e2b6762" y="62.654904"/>
      </g>
     </g>
     <g id="text_14">
      <text style="font-family:DejaVu Sans;font-size:10px;font-style:normal;font-weight:normal;text-anchor:end;" transform="rotate(-0, 33.5, 66.454122)" x="33.5" y="66.454122">0.6</text>
     </g>
    </g>
    <g id="ytick_8">
     <g id="line2d_14">
      <g>
       <use style="stroke:#000000;stroke-width:0.8;" x="40.5" xlink:href="#mc82e2b6762" y="37.187388"/>
      </g>
     </g>
     <g id="text_15">
      <text style="font-family:DejaVu Sans;font-size:10px;font-style:normal;font-weight:normal;text-anchor:end;" transform="rotate(-0, 33.5, 40.986606)" x="33.5" y="40.986606">0.7</text>
     </g>
    </g>
    <g id="text_16">
     <text style="font-family:DejaVu Sans;font-size:10px;font-style:normal;font-weight:normal;text-anchor:middle;" transform="rotate(-90, 11.517187, 127.26)" x="11.517187" y="127.26">Simulated Mean / Function Value</text>
    </g>
   </g>
   <g id="line2d_15">
    <path clip-path="url(#pd16f03cbf0)" d="M 52.119123 215.205452 
L 54.420757 212.653514 
L 56.722391 210.126894 
L 59.024025 207.625094 
L 61.325658 205.147631 
L 63.627292 202.694038 
L 65.928926 200.263857 
L 68.23056 197.856647 
L 70.532194 195.471977 
L 72.833828 193.109429 
L 75.135462 190.768596 
L 77.437096 188.449084 
L 79.738729 186.150506 
L 82.040363 183.872488 
L 84.341997 181.614667 
L 86.643631 179.376686 
L 88.945265 177.158201 
L 91.246899 174.958875 
L 93.548533 172.778378 
L 95.850167 170.616393 
L 98.151801 168.472606 
L 100.453434 166.346715 
L 102.755068 164.238423 
L 105.056702 162.147441 
L 107.358336 160.073487 
L 109.65997 158.016286 
L 111.961604 155.97557 
L 114.263238 153.951075 
L 116.564872 151.942548 
L 118.866505 149.949737 
L 121.168139 147.972398 
L 123.469773 146.010294 
L 125.771407 144.063191 
L 128.073041 142.130861 
L 130.374675 140.213083 
L 132.676309 138.309638 
L 134.977943 136.420314 
L 137.279576 134.544903 
L 139.58121 132.683201 
L 141.882844 130.83501 
L 144.184478 129.000135 
L 146.486112 127.178385 
L 148.787746 125.369574 
L 151.08938 123.57352 
L 153.391014 121.790043 
L 155.692648 120.018969 
L 157.994281 118.260126 
L 160.295915 116.513348 
L 162.597549 114.778468 
L 164.899183 113.055327 
L 167.200817 111.343766 
L 169.502451 109.643631 
L 171.804085 107.954771 
L 174.105719 106.277036 
L 176.407352 104.610282 
L 178.708986 102.954365 
L 181.01062 101.309145 
L 183.312254 99.674485 
L 185.613888 98.050251 
L 187.915522 96.43631 
L 190.217156 94.832533 
L 192.51879 93.238792 
L 194.820424 91.654962 
L 197.122057 90.080922 
L 199.423691 88.51655 
L 201.725325 86.961729 
L 204.026959 85.416342 
L 206.328593 83.880277 
L 208.630227 82.353421 
L 210.931861 80.835664 
L 213.233495 79.326899 
L 215.535128 77.82702 
L 217.836762 76.335922 
L 220.138396 74.853504 
L 222.44003 73.379665 
L 224.741664 71.914306 
L 227.043298 70.45733 
L 229.344932 69.008643 
L 231.646566 67.568149 
L 233.948199 66.135757 
L 236.249833 64.711376 
L 238.551467 63.294918 
L 240.853101 61.886294 
L 243.154735 60.485418 
L 245.456369 59.092206 
L 247.758003 57.706575 
L 250.059637 56.328441 
L 252.361271 54.957725 
L 254.662904 53.594347 
L 256.964538 52.238228 
L 259.266172 50.889293 
L 261.567806 49.547465 
L 263.86944 48.212669 
L 266.171074 46.884834 
L 268.472708 45.563885 
L 270.774342 44.249752 
L 273.075975 42.942366 
L 275.377609 41.641657 
L 277.679243 40.347557 
L 279.980877 39.06 
" style="fill:none;stroke:#1f77b4;stroke-linecap:square;stroke-width:1.5;"/>
   </g>
   <g id="line2d_16">
    <path clip-path="url(#pd16f03cbf0)" d="M 51.913636 215.46 
L 54.219421 210.366497 
L 56.525207 210.875847 
L 58.830992 206.291694 
L 61.136777 206.291694 
L 63.442562 200.688841 
L 65.748347 197.632739 
L 68.054132 195.595337 
L 70.359917 192.539236 
L 72.665702 197.123388 
L 74.971488 192.029885 
L 77.277273 191.520535 
L 79.583058 186.427032 
L 81.888843 184.898981 
L 84.194628 178.277427 
L 86.500413 182.352229 
L 88.806198 166.053019 
L 91.111983 170.637172 
L 93.417769 172.165223 
L 95.723554 165.034318 
L 98.029339 173.693274 
L 100.335124 172.165223 
L 102.640909 156.375363 
L 104.946694 167.58107 
L 107.252479 165.034318 
L 109.558264 164.524968 
L 111.86405 153.319261 
L 114.169835 150.263159 
L 116.47562 152.30056 
L 118.781405 157.903414 
L 121.08719 146.697707 
L 123.392975 145.169656 
L 125.69876 141.094853 
L 128.004545 144.150955 
L 130.310331 137.020051 
L 132.616116 146.188356 
L 134.921901 136.00135 
L 137.227686 130.398496 
L 139.533471 135.492 
L 141.839256 139.057452 
L 144.145041 129.889146 
L 146.450826 128.870445 
L 148.756612 127.342394 
L 151.062397 118.683439 
L 153.368182 119.70214 
L 155.673967 117.155388 
L 157.979752 116.646038 
L 160.285537 117.155388 
L 162.591322 116.646038 
L 164.897107 115.627337 
L 167.202893 116.136687 
L 169.508678 106.459031 
L 171.814463 116.646038 
L 174.120248 112.061885 
L 176.426033 106.459031 
L 178.731818 101.874878 
L 181.037603 100.346827 
L 183.343388 96.272025 
L 185.649174 101.874878 
L 187.954959 93.215923 
L 190.260744 93.725273 
L 192.566529 102.384229 
L 194.872314 84.556968 
L 197.178099 97.290726 
L 199.483884 89.14112 
L 201.789669 87.103719 
L 204.095455 89.650471 
L 206.40124 82.010216 
L 208.707025 95.253324 
L 211.01281 75.388662 
L 213.318595 83.028917 
L 215.62438 77.426063 
L 217.930165 75.898012 
L 220.23595 74.369961 
L 222.541736 73.860611 
L 224.847521 72.33256 
L 227.153306 67.748407 
L 229.459091 73.35126 
L 231.764876 72.33256 
L 234.070661 72.33256 
L 236.376446 64.692305 
L 238.682231 62.145553 
L 240.988017 64.692305 
L 243.293802 68.257757 
L 245.599587 67.239057 
L 247.905372 57.05205 
L 250.211157 61.636203 
L 252.516942 55.523999 
L 254.822727 50.430496 
L 257.128512 49.921146 
L 259.434298 60.108152 
L 261.740083 49.921146 
L 264.045868 46.865044 
L 266.351653 42.790241 
L 268.657438 41.771541 
L 270.963223 45.336993 
L 273.269008 40.24349 
L 275.574793 40.75284 
L 277.880579 40.75284 
L 280.186364 39.734139 
" style="fill:none;stroke:#ff7f0e;stroke-linecap:square;stroke-width:1.5;"/>
   </g>
   <g id="patch_3">
    <path d="M 40.5 224.28 
L 40.5 30.24 
" style="fill:none;stroke:#000000;stroke-linecap:square;stroke-linejoin:miter;stroke-width:0.8;"/>
   </g>
   <g id="patch_4">
    <path d="M 291.6 224.28 
L 291.6 30.24 
" style="fill:none;stroke:#000000;stroke-linecap:square;stroke-linejoin:miter;stroke-width:0.8;"/>
   </g>
   <g id="patch_5">
    <path d="M 40.5 224.28 
L 291.6 224.28 
" style="fill:none;stroke:#000000;stroke-linecap:square;stroke-linejoin:miter;stroke-width:0.8;"/>
   </g>
   <g id="patch_6">
    <path d="M 40.5 30.24 
L 291.6 30.24 
" style="fill:none;stroke:#000000;stroke-linecap:square;stroke-linejoin:miter;stroke-width:0.8;"/>
   </g>
   <g id="text_17">
    <text style="font-family:DejaVu Sans;font-size:12px;font-style:normal;font-weight:normal;text-anchor:middle;" transform="rotate(-0, 166.05, 24.24)" x="166.05" y="24.24">Expected Value in log(1+x) (Flajolet) Algorithm</text>
   </g>
   <g id="legend_1">
    <g id="patch_7">
     <path d="M 64.55 219.28 
L 284.6 219.28 
Q 286.6 219.28 286.6 217.28 
L 286.6 188.92375 
Q 286.6 186.92375 284.6 186.92375 
L 64.55 186.92375 
Q 62.55 186.92375 62.55 188.92375 
L 62.55 217.28 
Q 62.55 219.28 64.55 219.28 
z
" style="fill:#ffffff;opacity:0.8;stroke:#cccccc;stroke-linejoin:miter;"/>
    </g>
    <g id="line2d_17">
     <path d="M 66.55 195.022188 
L 86.55 195.022188 
" style="fill:none;stroke:#1f77b4;stroke-linecap:square;stroke-width:1.5;"/>
    </g>
    <g id="line2d_18"/>
    <g id="text_18">
     <text style="font-family:DejaVu Sans;font-size:10px;font-style:normal;font-weight:normal;text-anchor:start;" transform="rotate(-0, 94.55, 198.522188)" x="94.55" y="198.522188">log(1+x)</text>
    </g>
    <g id="line2d_19">
     <path d="M 66.55 209.700312 
L 86.55 209.700312 
" style="fill:none;stroke:#ff7f0e;stroke-linecap:square;stroke-width:1.5;"/>
    </g>
    <g id="line2d_20"/>
    <g id="text_19">
     <text style="font-family:DejaVu Sans;font-size:10px;font-style:normal;font-weight:normal;text-anchor:start;" transform="rotate(-0, 94.55, 213.200312)" x="94.55" y="213.200312">Simulated Mean of log(1+x) (Flajolet)</text>
    </g>
   </g>
  </g>
 </g>
 <defs>
  <clipPath id="pd16f03cbf0">
   <rect height="194.04" width="251.1" x="40.5" y="30.24"/>
  </clipPath>
 </defs>
</svg>
