<?xml version="1.0" encoding="utf-8" standalone="no"?>
<!DOCTYPE svg PUBLIC "-//W3C//DTD SVG 1.1//EN"
  "http://www.w3.org/Graphics/SVG/1.1/DTD/svg11.dtd">
<!-- Created with matplotlib (https://matplotlib.org/) -->
<svg height="345.6pt" version="1.1" viewBox="0 0 460.8 345.6" width="460.8pt" xmlns="http://www.w3.org/2000/svg" xmlns:xlink="http://www.w3.org/1999/xlink">
 <defs>
  <style type="text/css">
*{stroke-linecap:butt;stroke-linejoin:round;}
  </style>
 </defs>
 <g id="figure_1">
  <g id="patch_1">
   <path d="M 0 345.6 
L 460.8 345.6 
L 460.8 0 
L 0 0 
z
" style="fill:#ffffff;"/>
  </g>
  <g id="axes_1">
   <g id="patch_2">
    <path d="M 57.6 307.584 
L 414.72 307.584 
L 414.72 41.472 
L 57.6 41.472 
z
" style="fill:#ffffff;"/>
   </g>
   <g id="matplotlib.axis_1">
    <g id="xtick_1">
     <g id="line2d_1">
      <defs>
       <path d="M 0 0 
L 0 3.5 
" id="mdd6483763a" style="stroke:#000000;stroke-width:0.8;"/>
      </defs>
      <g>
       <use style="stroke:#000000;stroke-width:0.8;" x="73.800255" xlink:href="#mdd6483763a" y="307.584"/>
      </g>
     </g>
     <g id="text_1">
      <text style="font-family:DejaVu Sans;font-size:10px;font-style:normal;font-weight:normal;text-anchor:middle;" transform="rotate(-0, 73.800255, 322.182437)" x="73.800255" y="322.182437">0.0</text>
     </g>
    </g>
    <g id="xtick_2">
     <g id="line2d_2">
      <g>
       <use style="stroke:#000000;stroke-width:0.8;" x="138.744153" xlink:href="#mdd6483763a" y="307.584"/>
      </g>
     </g>
     <g id="text_2">
      <text style="font-family:DejaVu Sans;font-size:10px;font-style:normal;font-weight:normal;text-anchor:middle;" transform="rotate(-0, 138.744153, 322.182437)" x="138.744153" y="322.182437">0.2</text>
     </g>
    </g>
    <g id="xtick_3">
     <g id="line2d_3">
      <g>
       <use style="stroke:#000000;stroke-width:0.8;" x="203.688051" xlink:href="#mdd6483763a" y="307.584"/>
      </g>
     </g>
     <g id="text_3">
      <text style="font-family:DejaVu Sans;font-size:10px;font-style:normal;font-weight:normal;text-anchor:middle;" transform="rotate(-0, 203.688051, 322.182437)" x="203.688051" y="322.182437">0.4</text>
     </g>
    </g>
    <g id="xtick_4">
     <g id="line2d_4">
      <g>
       <use style="stroke:#000000;stroke-width:0.8;" x="268.631949" xlink:href="#mdd6483763a" y="307.584"/>
      </g>
     </g>
     <g id="text_4">
      <text style="font-family:DejaVu Sans;font-size:10px;font-style:normal;font-weight:normal;text-anchor:middle;" transform="rotate(-0, 268.631949, 322.182437)" x="268.631949" y="322.182437">0.6</text>
     </g>
    </g>
    <g id="xtick_5">
     <g id="line2d_5">
      <g>
       <use style="stroke:#000000;stroke-width:0.8;" x="333.575847" xlink:href="#mdd6483763a" y="307.584"/>
      </g>
     </g>
     <g id="text_5">
      <text style="font-family:DejaVu Sans;font-size:10px;font-style:normal;font-weight:normal;text-anchor:middle;" transform="rotate(-0, 333.575847, 322.182437)" x="333.575847" y="322.182437">0.8</text>
     </g>
    </g>
    <g id="xtick_6">
     <g id="line2d_6">
      <g>
       <use style="stroke:#000000;stroke-width:0.8;" x="398.519745" xlink:href="#mdd6483763a" y="307.584"/>
      </g>
     </g>
     <g id="text_6">
      <text style="font-family:DejaVu Sans;font-size:10px;font-style:normal;font-weight:normal;text-anchor:middle;" transform="rotate(-0, 398.519745, 322.182437)" x="398.519745" y="322.182437">1.0</text>
     </g>
    </g>
    <g id="text_7">
     <text style="font-family:DejaVu Sans;font-size:10px;font-style:normal;font-weight:normal;text-anchor:middle;" transform="rotate(-0, 236.16, 335.860562)" x="236.16" y="335.860562">Input Coin's Heads Probability (λ)</text>
    </g>
   </g>
   <g id="matplotlib.axis_2">
    <g id="ytick_1">
     <g id="line2d_7">
      <defs>
       <path d="M 0 0 
L -3.5 0 
" id="me0ab2648c8" style="stroke:#000000;stroke-width:0.8;"/>
      </defs>
      <g>
       <use style="stroke:#000000;stroke-width:0.8;" x="57.6" xlink:href="#me0ab2648c8" y="295.488"/>
      </g>
     </g>
     <g id="text_8">
      <text style="font-family:DejaVu Sans;font-size:10px;font-style:normal;font-weight:normal;text-anchor:end;" transform="rotate(-0, 50.6, 299.287219)" x="50.6" y="299.287219">0.0</text>
     </g>
    </g>
    <g id="ytick_2">
     <g id="line2d_8">
      <g>
       <use style="stroke:#000000;stroke-width:0.8;" x="57.6" xlink:href="#me0ab2648c8" y="261.510472"/>
      </g>
     </g>
     <g id="text_9">
      <text style="font-family:DejaVu Sans;font-size:10px;font-style:normal;font-weight:normal;text-anchor:end;" transform="rotate(-0, 50.6, 265.309691)" x="50.6" y="265.309691">0.1</text>
     </g>
    </g>
    <g id="ytick_3">
     <g id="line2d_9">
      <g>
       <use style="stroke:#000000;stroke-width:0.8;" x="57.6" xlink:href="#me0ab2648c8" y="227.532944"/>
      </g>
     </g>
     <g id="text_10">
      <text style="font-family:DejaVu Sans;font-size:10px;font-style:normal;font-weight:normal;text-anchor:end;" transform="rotate(-0, 50.6, 231.332163)" x="50.6" y="231.332163">0.2</text>
     </g>
    </g>
    <g id="ytick_4">
     <g id="line2d_10">
      <g>
       <use style="stroke:#000000;stroke-width:0.8;" x="57.6" xlink:href="#me0ab2648c8" y="193.555416"/>
      </g>
     </g>
     <g id="text_11">
      <text style="font-family:DejaVu Sans;font-size:10px;font-style:normal;font-weight:normal;text-anchor:end;" transform="rotate(-0, 50.6, 197.354634)" x="50.6" y="197.354634">0.3</text>
     </g>
    </g>
    <g id="ytick_5">
     <g id="line2d_11">
      <g>
       <use style="stroke:#000000;stroke-width:0.8;" x="57.6" xlink:href="#me0ab2648c8" y="159.577888"/>
      </g>
     </g>
     <g id="text_12">
      <text style="font-family:DejaVu Sans;font-size:10px;font-style:normal;font-weight:normal;text-anchor:end;" transform="rotate(-0, 50.6, 163.377106)" x="50.6" y="163.377106">0.4</text>
     </g>
    </g>
    <g id="ytick_6">
     <g id="line2d_12">
      <g>
       <use style="stroke:#000000;stroke-width:0.8;" x="57.6" xlink:href="#me0ab2648c8" y="125.60036"/>
      </g>
     </g>
     <g id="text_13">
      <text style="font-family:DejaVu Sans;font-size:10px;font-style:normal;font-weight:normal;text-anchor:end;" transform="rotate(-0, 50.6, 129.399578)" x="50.6" y="129.399578">0.5</text>
     </g>
    </g>
    <g id="ytick_7">
     <g id="line2d_13">
      <g>
       <use style="stroke:#000000;stroke-width:0.8;" x="57.6" xlink:href="#me0ab2648c8" y="91.622831"/>
      </g>
     </g>
     <g id="text_14">
      <text style="font-family:DejaVu Sans;font-size:10px;font-style:normal;font-weight:normal;text-anchor:end;" transform="rotate(-0, 50.6, 95.42205)" x="50.6" y="95.42205">0.6</text>
     </g>
    </g>
    <g id="ytick_8">
     <g id="line2d_14">
      <g>
       <use style="stroke:#000000;stroke-width:0.8;" x="57.6" xlink:href="#me0ab2648c8" y="57.645303"/>
      </g>
     </g>
     <g id="text_15">
      <text style="font-family:DejaVu Sans;font-size:10px;font-style:normal;font-weight:normal;text-anchor:end;" transform="rotate(-0, 50.6, 61.444522)" x="50.6" y="61.444522">0.7</text>
     </g>
    </g>
    <g id="text_16">
     <text style="font-family:DejaVu Sans;font-size:10px;font-style:normal;font-weight:normal;text-anchor:middle;" transform="rotate(-90, 28.617187, 174.528)" x="28.617187" y="174.528">Simulated Mean / Function Value</text>
    </g>
   </g>
   <g id="line2d_15">
    <path clip-path="url(#p3b6a4140da)" d="M 73.832727 295.454024 
L 77.112066 292.040188 
L 80.391405 288.66031 
L 83.670744 285.313723 
L 86.950083 281.999776 
L 90.229421 278.71784 
L 93.50876 275.467301 
L 96.788099 272.247565 
L 100.067438 269.058053 
L 103.346777 265.898203 
L 106.626116 262.767468 
L 109.905455 259.665318 
L 113.184793 256.591234 
L 116.464132 253.544713 
L 119.743471 250.525266 
L 123.02281 247.532415 
L 126.302149 244.565696 
L 129.581488 241.624657 
L 132.860826 238.708856 
L 136.140165 235.817865 
L 139.419504 232.951265 
L 142.698843 230.108647 
L 145.978182 227.289614 
L 149.257521 224.493778 
L 152.53686 221.720759 
L 155.816198 218.970189 
L 159.095537 216.241706 
L 162.374876 213.53496 
L 165.654215 210.849606 
L 168.933554 208.185309 
L 172.212893 205.541741 
L 175.492231 202.918582 
L 178.77157 200.31552 
L 182.050909 197.732249 
L 185.330248 195.16847 
L 188.609587 192.623891 
L 191.888926 190.098227 
L 195.168264 187.591198 
L 198.447603 185.102533 
L 201.726942 182.631962 
L 205.006281 180.179227 
L 208.28562 177.74407 
L 211.564959 175.326241 
L 214.844298 172.925497 
L 218.123636 170.541596 
L 221.402975 168.174304 
L 224.682314 165.823392 
L 227.961653 163.488634 
L 231.240992 161.16981 
L 234.520331 158.866704 
L 237.799669 156.579104 
L 241.079008 154.306803 
L 244.358347 152.049597 
L 247.637686 149.807287 
L 250.917025 147.579679 
L 254.196364 145.366579 
L 257.475702 143.167802 
L 260.755041 140.983162 
L 264.03438 138.812478 
L 267.313719 136.655574 
L 270.593058 134.512276 
L 273.872397 132.382413 
L 277.151736 130.265818 
L 280.431074 128.162327 
L 283.710413 126.071778 
L 286.989752 123.994012 
L 290.269091 121.928876 
L 293.54843 119.876215 
L 296.827769 117.835881 
L 300.107107 115.807725 
L 303.386446 113.791604 
L 306.665785 111.787376 
L 309.945124 109.7949 
L 313.224463 107.814041 
L 316.503802 105.844663 
L 319.78314 103.886633 
L 323.062479 101.939823 
L 326.341818 100.004104 
L 329.621157 98.079351 
L 332.900496 96.165439 
L 336.179835 94.262248 
L 339.459174 92.369657 
L 342.738512 90.487551 
L 346.017851 88.615812 
L 349.29719 86.754328 
L 352.576529 84.902987 
L 355.855868 83.061679 
L 359.135207 81.230295 
L 362.414545 79.408729 
L 365.693884 77.596877 
L 368.973223 75.794636 
L 372.252562 74.001903 
L 375.531901 72.21858 
L 378.81124 70.444567 
L 382.090579 68.679769 
L 385.369917 66.92409 
L 388.649256 65.177437 
L 391.928595 63.439716 
L 395.207934 61.710837 
L 398.487273 59.990711 
" style="fill:none;stroke:#1f77b4;stroke-linecap:square;stroke-width:1.5;"/>
   </g>
   <g id="line2d_16">
    <path clip-path="url(#p3b6a4140da)" d="M 73.832727 295.488 
L 77.112066 292.769798 
L 80.391405 291.410697 
L 83.670744 285.294742 
L 86.950083 279.178787 
L 90.229421 279.858337 
L 93.50876 282.576539 
L 96.788099 275.101483 
L 100.067438 272.383281 
L 103.346777 266.946876 
L 106.626116 268.305978 
L 109.905455 252.676315 
L 113.184793 250.637663 
L 116.464132 251.996764 
L 119.743471 251.996764 
L 123.02281 245.880809 
L 126.302149 231.610247 
L 129.581488 243.162607 
L 132.860826 233.648899 
L 136.140165 238.405753 
L 139.419504 237.046652 
L 142.698843 226.173843 
L 145.978182 238.405753 
L 149.257521 229.571596 
L 152.53686 210.54418 
L 155.816198 214.621483 
L 159.095537 215.980584 
L 162.374876 209.185079 
L 165.654215 209.185079 
L 168.933554 211.903281 
L 172.212893 209.864629 
L 175.492231 202.389573 
L 178.77157 197.632719 
L 182.050909 203.069124 
L 185.330248 186.08036 
L 188.609587 204.428225 
L 191.888926 192.875865 
L 195.168264 190.837213 
L 198.447603 192.875865 
L 201.726942 184.041708 
L 205.006281 176.566652 
L 208.28562 179.964404 
L 211.564959 172.489348 
L 214.844298 169.771146 
L 218.123636 166.373393 
L 221.402975 167.732494 
L 224.682314 158.218787 
L 227.961653 156.859685 
L 231.240992 167.052944 
L 234.520331 154.141483 
L 237.799669 148.025528 
L 241.079008 150.74373 
L 244.358347 150.06418 
L 247.637686 152.102831 
L 250.917025 158.898337 
L 254.196364 160.936989 
L 257.475702 130.357213 
L 260.755041 133.754966 
L 264.03438 142.589124 
L 267.313719 135.793618 
L 270.593058 135.114067 
L 273.872397 131.036764 
L 277.151736 133.754966 
L 280.431074 120.843506 
L 283.710413 112.009348 
L 286.989752 127.639011 
L 290.269091 118.125303 
L 293.54843 113.368449 
L 296.827769 125.60036 
L 300.107107 104.534292 
L 303.386446 109.291146 
L 306.665785 102.49564 
L 309.945124 117.445753 
L 313.224463 104.534292 
L 316.503802 107.252494 
L 319.78314 112.009348 
L 323.062479 101.136539 
L 326.341818 109.970697 
L 329.621157 106.572944 
L 332.900496 82.109124 
L 336.179835 88.225079 
L 339.459174 86.186427 
L 342.738512 90.943281 
L 346.017851 75.993169 
L 349.29719 92.981933 
L 352.576529 82.109124 
L 355.855868 86.865978 
L 359.135207 65.79991 
L 362.414545 79.390921 
L 365.693884 83.468225 
L 368.973223 73.954517 
L 372.252562 66.479461 
L 375.531901 78.711371 
L 378.81124 69.197663 
L 382.090579 71.236315 
L 385.369917 62.402157 
L 388.649256 63.081708 
L 391.928595 71.236315 
L 395.207934 53.568 
L 398.487273 74.634067 
" style="fill:none;stroke:#ff7f0e;stroke-linecap:square;stroke-width:1.5;"/>
   </g>
   <g id="patch_3">
    <path d="M 57.6 307.584 
L 57.6 41.472 
" style="fill:none;stroke:#000000;stroke-linecap:square;stroke-linejoin:miter;stroke-width:0.8;"/>
   </g>
   <g id="patch_4">
    <path d="M 414.72 307.584 
L 414.72 41.472 
" style="fill:none;stroke:#000000;stroke-linecap:square;stroke-linejoin:miter;stroke-width:0.8;"/>
   </g>
   <g id="patch_5">
    <path d="M 57.6 307.584 
L 414.72 307.584 
" style="fill:none;stroke:#000000;stroke-linecap:square;stroke-linejoin:miter;stroke-width:0.8;"/>
   </g>
   <g id="patch_6">
    <path d="M 57.6 41.472 
L 414.72 41.472 
" style="fill:none;stroke:#000000;stroke-linecap:square;stroke-linejoin:miter;stroke-width:0.8;"/>
   </g>
   <g id="text_17">
    <text style="font-family:DejaVu Sans;font-size:12px;font-style:normal;font-weight:normal;" transform="translate(44.438437 22.034625)">Simulated Mean for log(1+x) (Two-Coin Special Case) Algorithm</text>
    <text style="font-family:DejaVu Sans;font-size:12px;font-style:normal;font-weight:normal;" transform="translate(132.609375 35.472)">(Wasserstein Distances in Legend)</text>
   </g>
   <g id="legend_1">
    <g id="patch_7">
     <path d="M 64.6 78.82825 
L 242.85 78.82825 
Q 244.85 78.82825 244.85 76.82825 
L 244.85 48.472 
Q 244.85 46.472 242.85 46.472 
L 64.6 46.472 
Q 62.6 46.472 62.6 48.472 
L 62.6 76.82825 
Q 62.6 78.82825 64.6 78.82825 
z
" style="fill:#ffffff;opacity:0.8;stroke:#cccccc;stroke-linejoin:miter;"/>
    </g>
    <g id="line2d_17">
     <path d="M 66.6 54.570437 
L 86.6 54.570437 
" style="fill:none;stroke:#1f77b4;stroke-linecap:square;stroke-width:1.5;"/>
    </g>
    <g id="line2d_18"/>
    <g id="text_18">
     <text style="font-family:DejaVu Sans;font-size:10px;font-style:normal;font-weight:normal;text-anchor:start;" transform="rotate(-0, 94.6, 58.070437)" x="94.6" y="58.070437">log(1+x)</text>
    </g>
    <g id="line2d_19">
     <path d="M 66.6 69.248562 
L 86.6 69.248562 
" style="fill:none;stroke:#ff7f0e;stroke-linecap:square;stroke-width:1.5;"/>
    </g>
    <g id="line2d_20"/>
    <g id="text_19">
     <text style="font-family:DejaVu Sans;font-size:10px;font-style:normal;font-weight:normal;text-anchor:start;" transform="rotate(-0, 94.6, 72.748562)" x="94.6" y="72.748562">Simul. Mean (WD=0.005982)</text>
    </g>
   </g>
  </g>
 </g>
 <defs>
  <clipPath id="p3b6a4140da">
   <rect height="266.112" width="357.12" x="57.6" y="41.472"/>
  </clipPath>
 </defs>
</svg>
