<?xml version="1.0" encoding="utf-8" standalone="no"?>
<!DOCTYPE svg PUBLIC "-//W3C//DTD SVG 1.1//EN"
  "http://www.w3.org/Graphics/SVG/1.1/DTD/svg11.dtd">
<!-- Created with matplotlib (https://matplotlib.org/) -->
<svg height="345.6pt" version="1.1" viewBox="0 0 460.8 345.6" width="460.8pt" xmlns="http://www.w3.org/2000/svg" xmlns:xlink="http://www.w3.org/1999/xlink">
 <defs>
  <style type="text/css">
*{stroke-linecap:butt;stroke-linejoin:round;}
  </style>
 </defs>
 <g id="figure_1">
  <g id="patch_1">
   <path d="M 0 345.6 
L 460.8 345.6 
L 460.8 0 
L 0 0 
z
" style="fill:#ffffff;"/>
  </g>
  <g id="axes_1">
   <g id="patch_2">
    <path d="M 57.6 307.584 
L 414.72 307.584 
L 414.72 41.472 
L 57.6 41.472 
z
" style="fill:#ffffff;"/>
   </g>
   <g id="matplotlib.axis_1">
    <g id="xtick_1">
     <g id="line2d_1">
      <defs>
       <path d="M 0 0 
L 0 3.5 
" id="mf276b9541a" style="stroke:#000000;stroke-width:0.8;"/>
      </defs>
      <g>
       <use style="stroke:#000000;stroke-width:0.8;" x="73.800255" xlink:href="#mf276b9541a" y="307.584"/>
      </g>
     </g>
     <g id="text_1">
      <text style="font-family:DejaVu Sans;font-size:10px;font-style:normal;font-weight:normal;text-anchor:middle;" transform="rotate(-0, 73.800255, 322.182437)" x="73.800255" y="322.182437">0.0</text>
     </g>
    </g>
    <g id="xtick_2">
     <g id="line2d_2">
      <g>
       <use style="stroke:#000000;stroke-width:0.8;" x="138.744153" xlink:href="#mf276b9541a" y="307.584"/>
      </g>
     </g>
     <g id="text_2">
      <text style="font-family:DejaVu Sans;font-size:10px;font-style:normal;font-weight:normal;text-anchor:middle;" transform="rotate(-0, 138.744153, 322.182437)" x="138.744153" y="322.182437">0.2</text>
     </g>
    </g>
    <g id="xtick_3">
     <g id="line2d_3">
      <g>
       <use style="stroke:#000000;stroke-width:0.8;" x="203.688051" xlink:href="#mf276b9541a" y="307.584"/>
      </g>
     </g>
     <g id="text_3">
      <text style="font-family:DejaVu Sans;font-size:10px;font-style:normal;font-weight:normal;text-anchor:middle;" transform="rotate(-0, 203.688051, 322.182437)" x="203.688051" y="322.182437">0.4</text>
     </g>
    </g>
    <g id="xtick_4">
     <g id="line2d_4">
      <g>
       <use style="stroke:#000000;stroke-width:0.8;" x="268.631949" xlink:href="#mf276b9541a" y="307.584"/>
      </g>
     </g>
     <g id="text_4">
      <text style="font-family:DejaVu Sans;font-size:10px;font-style:normal;font-weight:normal;text-anchor:middle;" transform="rotate(-0, 268.631949, 322.182437)" x="268.631949" y="322.182437">0.6</text>
     </g>
    </g>
    <g id="xtick_5">
     <g id="line2d_5">
      <g>
       <use style="stroke:#000000;stroke-width:0.8;" x="333.575847" xlink:href="#mf276b9541a" y="307.584"/>
      </g>
     </g>
     <g id="text_5">
      <text style="font-family:DejaVu Sans;font-size:10px;font-style:normal;font-weight:normal;text-anchor:middle;" transform="rotate(-0, 333.575847, 322.182437)" x="333.575847" y="322.182437">0.8</text>
     </g>
    </g>
    <g id="xtick_6">
     <g id="line2d_6">
      <g>
       <use style="stroke:#000000;stroke-width:0.8;" x="398.519745" xlink:href="#mf276b9541a" y="307.584"/>
      </g>
     </g>
     <g id="text_6">
      <text style="font-family:DejaVu Sans;font-size:10px;font-style:normal;font-weight:normal;text-anchor:middle;" transform="rotate(-0, 398.519745, 322.182437)" x="398.519745" y="322.182437">1.0</text>
     </g>
    </g>
    <g id="text_7">
     <text style="font-family:DejaVu Sans;font-size:10px;font-style:normal;font-weight:normal;text-anchor:middle;" transform="rotate(-0, 236.16, 335.860562)" x="236.16" y="335.860562">Input Coin's Heads Probability (λ)</text>
    </g>
   </g>
   <g id="matplotlib.axis_2">
    <g id="ytick_1">
     <g id="line2d_7">
      <defs>
       <path d="M 0 0 
L -3.5 0 
" id="m73b4af553e" style="stroke:#000000;stroke-width:0.8;"/>
      </defs>
      <g>
       <use style="stroke:#000000;stroke-width:0.8;" x="57.6" xlink:href="#m73b4af553e" y="295.488"/>
      </g>
     </g>
     <g id="text_8">
      <text style="font-family:DejaVu Sans;font-size:10px;font-style:normal;font-weight:normal;text-anchor:end;" transform="rotate(-0, 50.6, 299.287219)" x="50.6" y="299.287219">0.0</text>
     </g>
    </g>
    <g id="ytick_2">
     <g id="line2d_8">
      <g>
       <use style="stroke:#000000;stroke-width:0.8;" x="57.6" xlink:href="#m73b4af553e" y="261.221711"/>
      </g>
     </g>
     <g id="text_9">
      <text style="font-family:DejaVu Sans;font-size:10px;font-style:normal;font-weight:normal;text-anchor:end;" transform="rotate(-0, 50.6, 265.02093)" x="50.6" y="265.02093">0.1</text>
     </g>
    </g>
    <g id="ytick_3">
     <g id="line2d_9">
      <g>
       <use style="stroke:#000000;stroke-width:0.8;" x="57.6" xlink:href="#m73b4af553e" y="226.955422"/>
      </g>
     </g>
     <g id="text_10">
      <text style="font-family:DejaVu Sans;font-size:10px;font-style:normal;font-weight:normal;text-anchor:end;" transform="rotate(-0, 50.6, 230.754641)" x="50.6" y="230.754641">0.2</text>
     </g>
    </g>
    <g id="ytick_4">
     <g id="line2d_10">
      <g>
       <use style="stroke:#000000;stroke-width:0.8;" x="57.6" xlink:href="#m73b4af553e" y="192.689133"/>
      </g>
     </g>
     <g id="text_11">
      <text style="font-family:DejaVu Sans;font-size:10px;font-style:normal;font-weight:normal;text-anchor:end;" transform="rotate(-0, 50.6, 196.488352)" x="50.6" y="196.488352">0.3</text>
     </g>
    </g>
    <g id="ytick_5">
     <g id="line2d_11">
      <g>
       <use style="stroke:#000000;stroke-width:0.8;" x="57.6" xlink:href="#m73b4af553e" y="158.422844"/>
      </g>
     </g>
     <g id="text_12">
      <text style="font-family:DejaVu Sans;font-size:10px;font-style:normal;font-weight:normal;text-anchor:end;" transform="rotate(-0, 50.6, 162.222063)" x="50.6" y="162.222063">0.4</text>
     </g>
    </g>
    <g id="ytick_6">
     <g id="line2d_12">
      <g>
       <use style="stroke:#000000;stroke-width:0.8;" x="57.6" xlink:href="#m73b4af553e" y="124.156555"/>
      </g>
     </g>
     <g id="text_13">
      <text style="font-family:DejaVu Sans;font-size:10px;font-style:normal;font-weight:normal;text-anchor:end;" transform="rotate(-0, 50.6, 127.955774)" x="50.6" y="127.955774">0.5</text>
     </g>
    </g>
    <g id="ytick_7">
     <g id="line2d_13">
      <g>
       <use style="stroke:#000000;stroke-width:0.8;" x="57.6" xlink:href="#m73b4af553e" y="89.890266"/>
      </g>
     </g>
     <g id="text_14">
      <text style="font-family:DejaVu Sans;font-size:10px;font-style:normal;font-weight:normal;text-anchor:end;" transform="rotate(-0, 50.6, 93.689485)" x="50.6" y="93.689485">0.6</text>
     </g>
    </g>
    <g id="ytick_8">
     <g id="line2d_14">
      <g>
       <use style="stroke:#000000;stroke-width:0.8;" x="57.6" xlink:href="#m73b4af553e" y="55.623977"/>
      </g>
     </g>
     <g id="text_15">
      <text style="font-family:DejaVu Sans;font-size:10px;font-style:normal;font-weight:normal;text-anchor:end;" transform="rotate(-0, 50.6, 59.423196)" x="50.6" y="59.423196">0.7</text>
     </g>
    </g>
    <g id="text_16">
     <text style="font-family:DejaVu Sans;font-size:10px;font-style:normal;font-weight:normal;text-anchor:middle;" transform="rotate(-90, 28.617187, 174.528)" x="28.617187" y="174.528">Simulated Mean / Function Value</text>
    </g>
   </g>
   <g id="line2d_15">
    <path clip-path="url(#p3d64c80182)" d="M 73.832727 295.453735 
L 77.112066 292.010886 
L 80.391405 288.602285 
L 83.670744 285.227256 
L 86.950083 281.885146 
L 90.229421 278.575317 
L 93.50876 275.297153 
L 96.788099 272.050054 
L 100.067438 268.833436 
L 103.346777 265.646731 
L 106.626116 262.48939 
L 109.905455 259.360876 
L 113.184793 256.260666 
L 116.464132 253.188255 
L 119.743471 250.143146 
L 123.02281 247.12486 
L 126.302149 244.132929 
L 129.581488 241.166895 
L 132.860826 238.226314 
L 136.140165 235.310754 
L 139.419504 232.419791 
L 142.698843 229.553015 
L 145.978182 226.710024 
L 149.257521 223.890427 
L 152.53686 221.093842 
L 155.816198 218.319896 
L 159.095537 215.568225 
L 162.374876 212.838475 
L 165.654215 210.130299 
L 168.933554 207.44336 
L 172.212893 204.777325 
L 175.492231 202.131873 
L 178.77157 199.506689 
L 182.050909 196.901463 
L 185.330248 194.315896 
L 188.609587 191.749692 
L 191.888926 189.202563 
L 195.168264 186.674228 
L 198.447603 184.164412 
L 201.726942 181.672846 
L 205.006281 179.199266 
L 208.28562 176.743413 
L 211.564959 174.305037 
L 214.844298 171.883889 
L 218.123636 169.479728 
L 221.402975 167.092318 
L 224.682314 164.721427 
L 227.961653 162.366827 
L 231.240992 160.028296 
L 234.520331 157.705617 
L 237.799669 155.398575 
L 241.079008 153.106963 
L 244.358347 150.830574 
L 247.637686 148.569208 
L 250.917025 146.322668 
L 254.196364 144.09076 
L 257.475702 141.873296 
L 260.755041 139.670089 
L 264.03438 137.480958 
L 267.313719 135.305724 
L 270.593058 133.144211 
L 273.872397 130.996247 
L 277.151736 128.861664 
L 280.431074 126.740296 
L 283.710413 124.63198 
L 286.989752 122.536556 
L 290.269091 120.453869 
L 293.54843 118.383764 
L 296.827769 116.326089 
L 300.107107 114.280697 
L 303.386446 112.247442 
L 306.665785 110.226181 
L 309.945124 108.216772 
L 313.224463 106.219078 
L 316.503802 104.232963 
L 319.78314 102.258293 
L 323.062479 100.294938 
L 326.341818 98.342768 
L 329.621157 96.401657 
L 332.900496 94.471479 
L 336.179835 92.552114 
L 339.459174 90.643439 
L 342.738512 88.745337 
L 346.017851 86.857692 
L 349.29719 84.980388 
L 352.576529 83.113313 
L 355.855868 81.256356 
L 359.135207 79.409408 
L 362.414545 77.572361 
L 365.693884 75.745111 
L 368.973223 73.927553 
L 372.252562 72.119585 
L 375.531901 70.321106 
L 378.81124 68.532017 
L 382.090579 66.752221 
L 385.369917 64.981621 
L 388.649256 63.220123 
L 391.928595 61.467634 
L 395.207934 59.724063 
L 398.487273 57.989318 
" style="fill:none;stroke:#1f77b4;stroke-linecap:square;stroke-width:1.5;"/>
   </g>
   <g id="line2d_16">
    <path clip-path="url(#p3d64c80182)" d="M 73.832727 295.488 
L 77.112066 294.117348 
L 80.391405 290.005394 
L 83.670744 283.152136 
L 86.950083 284.522788 
L 90.229421 281.781484 
L 93.50876 277.66953 
L 96.788099 270.130946 
L 100.067438 272.186924 
L 103.346777 266.018992 
L 106.626116 264.64834 
L 109.905455 259.165734 
L 113.184793 255.053779 
L 116.464132 248.200521 
L 119.743471 244.773892 
L 123.02281 239.291286 
L 126.302149 244.773892 
L 129.581488 244.088567 
L 132.860826 239.976612 
L 136.140165 231.067377 
L 139.419504 223.528793 
L 142.698843 228.326074 
L 145.978182 229.696725 
L 149.257521 224.214119 
L 152.53686 220.78749 
L 155.816198 220.102164 
L 159.095537 234.494006 
L 162.374876 220.102164 
L 165.654215 207.7663 
L 168.933554 211.878255 
L 172.212893 194.74511 
L 175.492231 189.262504 
L 178.77157 196.115762 
L 182.050909 197.486414 
L 185.330248 190.633156 
L 188.609587 189.262504 
L 191.888926 190.633156 
L 195.168264 183.779898 
L 198.447603 189.262504 
L 201.726942 176.241314 
L 205.006281 187.206527 
L 208.28562 183.779898 
L 211.564959 174.870663 
L 214.844298 174.870663 
L 218.123636 174.870663 
L 221.402975 162.534799 
L 224.682314 165.276102 
L 227.961653 159.10817 
L 231.240992 165.276102 
L 234.520331 165.276102 
L 237.799669 167.332079 
L 241.079008 135.121768 
L 244.358347 146.772306 
L 247.637686 147.457632 
L 250.917025 157.737518 
L 254.196364 139.919048 
L 257.475702 140.604374 
L 260.755041 133.06579 
L 264.03438 135.121768 
L 267.313719 135.121768 
L 270.593058 137.863071 
L 273.872397 132.380465 
L 277.151736 137.863071 
L 280.431074 114.561994 
L 283.710413 129.639161 
L 286.989752 132.380465 
L 290.269091 115.932646 
L 293.54843 130.324487 
L 296.827769 119.359275 
L 300.107107 120.044601 
L 303.386446 107.023411 
L 306.665785 113.191343 
L 309.945124 107.023411 
L 313.224463 98.114176 
L 316.503802 96.743524 
L 319.78314 93.316895 
L 323.062479 85.092986 
L 326.341818 100.855479 
L 329.621157 88.519615 
L 332.900496 96.058198 
L 336.179835 90.575592 
L 339.459174 94.687547 
L 342.738512 94.687547 
L 346.017851 86.463637 
L 349.29719 76.869076 
L 352.576529 100.170153 
L 355.855868 80.295705 
L 359.135207 73.442448 
L 362.414545 65.903864 
L 365.693884 75.498425 
L 368.973223 83.722334 
L 372.252562 62.477235 
L 375.531901 63.162561 
L 378.81124 63.162561 
L 382.090579 63.162561 
L 385.369917 53.568 
L 388.649256 69.330493 
L 391.928595 75.498425 
L 395.207934 68.645167 
L 398.487273 65.218538 
" style="fill:none;stroke:#ff7f0e;stroke-linecap:square;stroke-width:1.5;"/>
   </g>
   <g id="patch_3">
    <path d="M 57.6 307.584 
L 57.6 41.472 
" style="fill:none;stroke:#000000;stroke-linecap:square;stroke-linejoin:miter;stroke-width:0.8;"/>
   </g>
   <g id="patch_4">
    <path d="M 414.72 307.584 
L 414.72 41.472 
" style="fill:none;stroke:#000000;stroke-linecap:square;stroke-linejoin:miter;stroke-width:0.8;"/>
   </g>
   <g id="patch_5">
    <path d="M 57.6 307.584 
L 414.72 307.584 
" style="fill:none;stroke:#000000;stroke-linecap:square;stroke-linejoin:miter;stroke-width:0.8;"/>
   </g>
   <g id="patch_6">
    <path d="M 57.6 41.472 
L 414.72 41.472 
" style="fill:none;stroke:#000000;stroke-linecap:square;stroke-linejoin:miter;stroke-width:0.8;"/>
   </g>
   <g id="text_17">
    <text style="font-family:DejaVu Sans;font-size:12px;font-style:normal;font-weight:normal;" transform="translate(89.5725 22.034625)">Simulated Mean for log(1+x) (Flajolet) Algorithm</text>
    <text style="font-family:DejaVu Sans;font-size:12px;font-style:normal;font-weight:normal;" transform="translate(132.609375 35.472)">(Wasserstein Distances in Legend)</text>
   </g>
   <g id="legend_1">
    <g id="patch_7">
     <path d="M 64.6 78.82825 
L 242.85 78.82825 
Q 244.85 78.82825 244.85 76.82825 
L 244.85 48.472 
Q 244.85 46.472 242.85 46.472 
L 64.6 46.472 
Q 62.6 46.472 62.6 48.472 
L 62.6 76.82825 
Q 62.6 78.82825 64.6 78.82825 
z
" style="fill:#ffffff;opacity:0.8;stroke:#cccccc;stroke-linejoin:miter;"/>
    </g>
    <g id="line2d_17">
     <path d="M 66.6 54.570437 
L 86.6 54.570437 
" style="fill:none;stroke:#1f77b4;stroke-linecap:square;stroke-width:1.5;"/>
    </g>
    <g id="line2d_18"/>
    <g id="text_18">
     <text style="font-family:DejaVu Sans;font-size:10px;font-style:normal;font-weight:normal;text-anchor:start;" transform="rotate(-0, 94.6, 58.070437)" x="94.6" y="58.070437">log(1+x)</text>
    </g>
    <g id="line2d_19">
     <path d="M 66.6 69.248562 
L 86.6 69.248562 
" style="fill:none;stroke:#ff7f0e;stroke-linecap:square;stroke-width:1.5;"/>
    </g>
    <g id="line2d_20"/>
    <g id="text_19">
     <text style="font-family:DejaVu Sans;font-size:10px;font-style:normal;font-weight:normal;text-anchor:start;" transform="rotate(-0, 94.6, 72.748562)" x="94.6" y="72.748562">Simul. Mean (WD=0.006857)</text>
    </g>
   </g>
  </g>
 </g>
 <defs>
  <clipPath id="p3d64c80182">
   <rect height="266.112" width="357.12" x="57.6" y="41.472"/>
  </clipPath>
 </defs>
</svg>
