<?xml version="1.0" encoding="utf-8" standalone="no"?>
<!DOCTYPE svg PUBLIC "-//W3C//DTD SVG 1.1//EN"
  "http://www.w3.org/Graphics/SVG/1.1/DTD/svg11.dtd">
<!-- Created with matplotlib (https://matplotlib.org/) -->
<svg height="345.6pt" version="1.1" viewBox="0 0 460.8 345.6" width="460.8pt" xmlns="http://www.w3.org/2000/svg" xmlns:xlink="http://www.w3.org/1999/xlink">
 <defs>
  <style type="text/css">
*{stroke-linecap:butt;stroke-linejoin:round;}
  </style>
 </defs>
 <g id="figure_1">
  <g id="patch_1">
   <path d="M 0 345.6 
L 460.8 345.6 
L 460.8 0 
L 0 0 
z
" style="fill:#ffffff;"/>
  </g>
  <g id="axes_1">
   <g id="patch_2">
    <path d="M 57.6 307.584 
L 414.72 307.584 
L 414.72 41.472 
L 57.6 41.472 
z
" style="fill:#ffffff;"/>
   </g>
   <g id="matplotlib.axis_1">
    <g id="xtick_1">
     <g id="line2d_1">
      <defs>
       <path d="M 0 0 
L 0 3.5 
" id="m994561ad8d" style="stroke:#000000;stroke-width:0.8;"/>
      </defs>
      <g>
       <use style="stroke:#000000;stroke-width:0.8;" x="73.800255" xlink:href="#m994561ad8d" y="307.584"/>
      </g>
     </g>
     <g id="text_1">
      <text style="font-family:DejaVu Sans;font-size:10px;font-style:normal;font-weight:normal;text-anchor:middle;" transform="rotate(-0, 73.800255, 322.182437)" x="73.800255" y="322.182437">0.0</text>
     </g>
    </g>
    <g id="xtick_2">
     <g id="line2d_2">
      <g>
       <use style="stroke:#000000;stroke-width:0.8;" x="138.744153" xlink:href="#m994561ad8d" y="307.584"/>
      </g>
     </g>
     <g id="text_2">
      <text style="font-family:DejaVu Sans;font-size:10px;font-style:normal;font-weight:normal;text-anchor:middle;" transform="rotate(-0, 138.744153, 322.182437)" x="138.744153" y="322.182437">0.2</text>
     </g>
    </g>
    <g id="xtick_3">
     <g id="line2d_3">
      <g>
       <use style="stroke:#000000;stroke-width:0.8;" x="203.688051" xlink:href="#m994561ad8d" y="307.584"/>
      </g>
     </g>
     <g id="text_3">
      <text style="font-family:DejaVu Sans;font-size:10px;font-style:normal;font-weight:normal;text-anchor:middle;" transform="rotate(-0, 203.688051, 322.182437)" x="203.688051" y="322.182437">0.4</text>
     </g>
    </g>
    <g id="xtick_4">
     <g id="line2d_4">
      <g>
       <use style="stroke:#000000;stroke-width:0.8;" x="268.631949" xlink:href="#m994561ad8d" y="307.584"/>
      </g>
     </g>
     <g id="text_4">
      <text style="font-family:DejaVu Sans;font-size:10px;font-style:normal;font-weight:normal;text-anchor:middle;" transform="rotate(-0, 268.631949, 322.182437)" x="268.631949" y="322.182437">0.6</text>
     </g>
    </g>
    <g id="xtick_5">
     <g id="line2d_5">
      <g>
       <use style="stroke:#000000;stroke-width:0.8;" x="333.575847" xlink:href="#m994561ad8d" y="307.584"/>
      </g>
     </g>
     <g id="text_5">
      <text style="font-family:DejaVu Sans;font-size:10px;font-style:normal;font-weight:normal;text-anchor:middle;" transform="rotate(-0, 333.575847, 322.182437)" x="333.575847" y="322.182437">0.8</text>
     </g>
    </g>
    <g id="xtick_6">
     <g id="line2d_6">
      <g>
       <use style="stroke:#000000;stroke-width:0.8;" x="398.519745" xlink:href="#m994561ad8d" y="307.584"/>
      </g>
     </g>
     <g id="text_6">
      <text style="font-family:DejaVu Sans;font-size:10px;font-style:normal;font-weight:normal;text-anchor:middle;" transform="rotate(-0, 398.519745, 322.182437)" x="398.519745" y="322.182437">1.0</text>
     </g>
    </g>
    <g id="text_7">
     <text style="font-family:DejaVu Sans;font-size:10px;font-style:normal;font-weight:normal;text-anchor:middle;" transform="rotate(-0, 236.16, 335.860562)" x="236.16" y="335.860562">Input Coin's Heads Probability (λ)</text>
    </g>
   </g>
   <g id="matplotlib.axis_2">
    <g id="ytick_1">
     <g id="line2d_7">
      <defs>
       <path d="M 0 0 
L -3.5 0 
" id="m6c43f31383" style="stroke:#000000;stroke-width:0.8;"/>
      </defs>
      <g>
       <use style="stroke:#000000;stroke-width:0.8;" x="57.6" xlink:href="#m6c43f31383" y="295.506806"/>
      </g>
     </g>
     <g id="text_8">
      <text style="font-family:DejaVu Sans;font-size:10px;font-style:normal;font-weight:normal;text-anchor:end;" transform="rotate(-0, 50.6, 299.306025)" x="50.6" y="299.306025">0.0</text>
     </g>
    </g>
    <g id="ytick_2">
     <g id="line2d_8">
      <g>
       <use style="stroke:#000000;stroke-width:0.8;" x="57.6" xlink:href="#m6c43f31383" y="263.504319"/>
      </g>
     </g>
     <g id="text_9">
      <text style="font-family:DejaVu Sans;font-size:10px;font-style:normal;font-weight:normal;text-anchor:end;" transform="rotate(-0, 50.6, 267.303537)" x="50.6" y="267.303537">0.2</text>
     </g>
    </g>
    <g id="ytick_3">
     <g id="line2d_9">
      <g>
       <use style="stroke:#000000;stroke-width:0.8;" x="57.6" xlink:href="#m6c43f31383" y="231.501831"/>
      </g>
     </g>
     <g id="text_10">
      <text style="font-family:DejaVu Sans;font-size:10px;font-style:normal;font-weight:normal;text-anchor:end;" transform="rotate(-0, 50.6, 235.30105)" x="50.6" y="235.30105">0.4</text>
     </g>
    </g>
    <g id="ytick_4">
     <g id="line2d_10">
      <g>
       <use style="stroke:#000000;stroke-width:0.8;" x="57.6" xlink:href="#m6c43f31383" y="199.499343"/>
      </g>
     </g>
     <g id="text_11">
      <text style="font-family:DejaVu Sans;font-size:10px;font-style:normal;font-weight:normal;text-anchor:end;" transform="rotate(-0, 50.6, 203.298562)" x="50.6" y="203.298562">0.6</text>
     </g>
    </g>
    <g id="ytick_5">
     <g id="line2d_11">
      <g>
       <use style="stroke:#000000;stroke-width:0.8;" x="57.6" xlink:href="#m6c43f31383" y="167.496856"/>
      </g>
     </g>
     <g id="text_12">
      <text style="font-family:DejaVu Sans;font-size:10px;font-style:normal;font-weight:normal;text-anchor:end;" transform="rotate(-0, 50.6, 171.296075)" x="50.6" y="171.296075">0.8</text>
     </g>
    </g>
    <g id="ytick_6">
     <g id="line2d_12">
      <g>
       <use style="stroke:#000000;stroke-width:0.8;" x="57.6" xlink:href="#m6c43f31383" y="135.494368"/>
      </g>
     </g>
     <g id="text_13">
      <text style="font-family:DejaVu Sans;font-size:10px;font-style:normal;font-weight:normal;text-anchor:end;" transform="rotate(-0, 50.6, 139.293587)" x="50.6" y="139.293587">1.0</text>
     </g>
    </g>
    <g id="ytick_7">
     <g id="line2d_13">
      <g>
       <use style="stroke:#000000;stroke-width:0.8;" x="57.6" xlink:href="#m6c43f31383" y="103.491881"/>
      </g>
     </g>
     <g id="text_14">
      <text style="font-family:DejaVu Sans;font-size:10px;font-style:normal;font-weight:normal;text-anchor:end;" transform="rotate(-0, 50.6, 107.291099)" x="50.6" y="107.291099">1.2</text>
     </g>
    </g>
    <g id="ytick_8">
     <g id="line2d_14">
      <g>
       <use style="stroke:#000000;stroke-width:0.8;" x="57.6" xlink:href="#m6c43f31383" y="71.489393"/>
      </g>
     </g>
     <g id="text_15">
      <text style="font-family:DejaVu Sans;font-size:10px;font-style:normal;font-weight:normal;text-anchor:end;" transform="rotate(-0, 50.6, 75.288612)" x="50.6" y="75.288612">1.4</text>
     </g>
    </g>
    <g id="text_16">
     <text style="font-family:DejaVu Sans;font-size:10px;font-style:normal;font-weight:normal;text-anchor:middle;" transform="rotate(-90, 28.617187, 174.528)" x="28.617187" y="174.528">Coin Flips Needed</text>
    </g>
   </g>
   <g id="line2d_15">
    <path clip-path="url(#pd7a4d31ca1)" d="M 73.832727 135.518367 
L 77.112066 137.919022 
L 80.391405 140.275104 
L 83.670744 142.5882 
L 86.950083 144.859835 
L 90.229421 147.091472 
L 93.50876 149.284521 
L 96.788099 151.440335 
L 100.067438 153.560218 
L 103.346777 155.645425 
L 106.626116 157.697166 
L 109.905455 159.716606 
L 113.184793 161.704871 
L 116.464132 163.663046 
L 119.743471 165.592181 
L 123.02281 167.493287 
L 126.302149 169.367346 
L 129.581488 171.215306 
L 132.860826 173.038084 
L 136.140165 174.83657 
L 139.419504 176.611625 
L 142.698843 178.364087 
L 145.978182 180.094767 
L 149.257521 181.804454 
L 152.53686 183.493913 
L 155.816198 185.163891 
L 159.095537 186.815113 
L 162.374876 188.448285 
L 165.654215 190.064097 
L 168.933554 191.663221 
L 172.212893 193.246313 
L 175.492231 194.814013 
L 178.77157 196.366949 
L 182.050909 197.905735 
L 185.330248 199.43097 
L 188.609587 200.943244 
L 191.888926 202.443135 
L 195.168264 203.931211 
L 198.447603 205.408028 
L 201.726942 206.874137 
L 205.006281 208.330076 
L 208.28562 209.77638 
L 211.564959 211.213573 
L 214.844298 212.642175 
L 218.123636 214.062699 
L 221.402975 215.475654 
L 224.682314 216.881542 
L 227.961653 218.280864 
L 231.240992 219.674115 
L 234.520331 221.061788 
L 237.799669 222.444373 
L 241.079008 223.822361 
L 244.358347 225.196238 
L 247.637686 226.566491 
L 250.917025 227.933608 
L 254.196364 229.298077 
L 257.475702 230.660386 
L 260.755041 232.021026 
L 264.03438 233.380489 
L 267.313719 234.739272 
L 270.593058 236.097874 
L 273.872397 237.4568 
L 277.151736 238.816557 
L 280.431074 240.17766 
L 283.710413 241.54063 
L 286.989752 242.905995 
L 290.269091 244.27429 
L 293.54843 245.646059 
L 296.827769 247.021856 
L 300.107107 248.402244 
L 303.386446 249.787799 
L 306.665785 251.179108 
L 309.945124 252.57677 
L 313.224463 253.9814 
L 316.503802 255.393627 
L 319.78314 256.814095 
L 323.062479 258.243468 
L 326.341818 259.682427 
L 329.621157 261.131674 
L 332.900496 262.59193 
L 336.179835 264.063941 
L 339.459174 265.548477 
L 342.738512 267.046334 
L 346.017851 268.558334 
L 349.29719 270.085331 
L 352.576529 271.62821 
L 355.855868 273.187888 
L 359.135207 274.765321 
L 362.414545 276.3615 
L 365.693884 277.97746 
L 368.973223 279.614278 
L 372.252562 281.273078 
L 375.531901 282.955036 
L 378.81124 284.661378 
L 382.090579 286.393389 
L 385.369917 288.152417 
L 388.649256 289.939871 
L 391.928595 291.757235 
L 395.207934 293.606066 
L 398.487273 295.488 
" style="fill:none;stroke:#1f77b4;stroke-linecap:square;stroke-width:1.5;"/>
   </g>
   <g id="line2d_16">
    <path clip-path="url(#pd7a4d31ca1)" d="M 73.832727 62.528697 
L 77.112066 60.608547 
L 80.391405 53.568 
L 83.670744 57.728323 
L 86.950083 59.008423 
L 90.229421 65.40892 
L 93.50876 68.609169 
L 96.788099 77.249841 
L 100.067438 62.208672 
L 103.346777 68.609169 
L 106.626116 69.249219 
L 109.905455 62.848721 
L 113.184793 74.689642 
L 116.464132 76.929816 
L 119.743471 62.208672 
L 123.02281 58.368373 
L 126.302149 75.649716 
L 129.581488 82.370239 
L 132.860826 76.609791 
L 136.140165 87.170612 
L 139.419504 81.090139 
L 142.698843 83.650338 
L 145.978182 76.289766 
L 149.257521 82.690264 
L 152.53686 80.45009 
L 155.816198 84.610413 
L 159.095537 75.649716 
L 162.374876 87.810662 
L 165.654215 92.93106 
L 168.933554 91.65096 
L 172.212893 89.090761 
L 175.492231 95.171234 
L 178.77157 92.93106 
L 182.050909 90.370861 
L 185.330248 86.210537 
L 188.609587 99.331557 
L 191.888926 90.050836 
L 195.168264 90.690886 
L 198.447603 94.531184 
L 201.726942 99.971607 
L 205.006281 101.571731 
L 208.28562 96.451333 
L 211.564959 97.411408 
L 214.844298 95.491259 
L 218.123636 97.411408 
L 221.402975 96.451333 
L 224.682314 101.891756 
L 227.961653 105.41203 
L 231.240992 101.251706 
L 234.520331 111.812527 
L 237.799669 110.532428 
L 241.079008 101.891756 
L 244.358347 106.692129 
L 247.637686 108.612279 
L 250.917025 114.372726 
L 254.196364 112.452577 
L 257.475702 103.811905 
L 260.755041 109.252328 
L 264.03438 116.612901 
L 267.313719 111.172478 
L 270.593058 116.612901 
L 273.872397 108.932304 
L 277.151736 114.372726 
L 280.431074 116.612901 
L 283.710413 115.972851 
L 286.989752 113.412652 
L 290.269091 117.893 
L 293.54843 119.813149 
L 296.827769 123.013398 
L 300.107107 122.693373 
L 303.386446 120.133174 
L 306.665785 117.893 
L 309.945124 120.453199 
L 313.224463 123.973473 
L 316.503802 119.813149 
L 319.78314 119.813149 
L 323.062479 122.053323 
L 326.341818 118.213025 
L 329.621157 125.253572 
L 332.900496 124.293498 
L 336.179835 123.653448 
L 339.459174 126.213647 
L 342.738512 124.613522 
L 346.017851 126.853697 
L 349.29719 127.493746 
L 352.576529 129.73392 
L 355.855868 130.053945 
L 359.135207 125.573597 
L 362.414545 129.413896 
L 365.693884 130.693995 
L 368.973223 131.974095 
L 372.252562 130.693995 
L 375.531901 131.334045 
L 378.81124 131.65407 
L 382.090579 132.294119 
L 385.369917 131.65407 
L 388.649256 134.854318 
L 391.928595 134.534294 
L 395.207934 135.174343 
L 398.487273 135.494368 
" style="fill:none;stroke:#ff7f0e;stroke-linecap:square;stroke-width:1.5;"/>
   </g>
   <g id="patch_3">
    <path d="M 57.6 307.584 
L 57.6 41.472 
" style="fill:none;stroke:#000000;stroke-linecap:square;stroke-linejoin:miter;stroke-width:0.8;"/>
   </g>
   <g id="patch_4">
    <path d="M 414.72 307.584 
L 414.72 41.472 
" style="fill:none;stroke:#000000;stroke-linecap:square;stroke-linejoin:miter;stroke-width:0.8;"/>
   </g>
   <g id="patch_5">
    <path d="M 57.6 307.584 
L 414.72 307.584 
" style="fill:none;stroke:#000000;stroke-linecap:square;stroke-linejoin:miter;stroke-width:0.8;"/>
   </g>
   <g id="patch_6">
    <path d="M 57.6 41.472 
L 414.72 41.472 
" style="fill:none;stroke:#000000;stroke-linecap:square;stroke-linejoin:miter;stroke-width:0.8;"/>
   </g>
   <g id="text_17">
    <text style="font-family:DejaVu Sans;font-size:12px;font-style:normal;font-weight:normal;text-anchor:middle;" transform="rotate(-0, 236.16, 35.472)" x="236.16" y="35.472">Coin Flips for log(1+x)</text>
   </g>
   <g id="legend_1">
    <g id="patch_7">
     <path d="M 64.6 302.584 
L 358.085938 302.584 
Q 360.085938 302.584 360.085938 300.584 
L 360.085938 272.22775 
Q 360.085938 270.22775 358.085938 270.22775 
L 64.6 270.22775 
Q 62.6 270.22775 62.6 272.22775 
L 62.6 300.584 
Q 62.6 302.584 64.6 302.584 
z
" style="fill:#ffffff;opacity:0.8;stroke:#cccccc;stroke-linejoin:miter;"/>
    </g>
    <g id="line2d_17">
     <path d="M 66.6 278.326187 
L 86.6 278.326187 
" style="fill:none;stroke:#1f77b4;stroke-linecap:square;stroke-width:1.5;"/>
    </g>
    <g id="line2d_18"/>
    <g id="text_18">
     <text style="font-family:DejaVu Sans;font-size:10px;font-style:normal;font-weight:normal;text-anchor:start;" transform="rotate(-0, 94.6, 281.826187)" x="94.6" y="281.826187">Coin Flip Lower Bound (Mendo)</text>
    </g>
    <g id="line2d_19">
     <path d="M 66.6 293.004312 
L 86.6 293.004312 
" style="fill:none;stroke:#ff7f0e;stroke-linecap:square;stroke-width:1.5;"/>
    </g>
    <g id="line2d_20"/>
    <g id="text_19">
     <text style="font-family:DejaVu Sans;font-size:10px;font-style:normal;font-weight:normal;text-anchor:start;" transform="rotate(-0, 94.6, 296.504312)" x="94.6" y="296.504312">Avg. Coins Flipped log(1+x) (Two-Coin Special Case)</text>
    </g>
   </g>
  </g>
 </g>
 <defs>
  <clipPath id="pd7a4d31ca1">
   <rect height="266.112" width="357.12" x="57.6" y="41.472"/>
  </clipPath>
 </defs>
</svg>
