<?xml version="1.0" encoding="utf-8" standalone="no"?>
<!DOCTYPE svg PUBLIC "-//W3C//DTD SVG 1.1//EN"
  "http://www.w3.org/Graphics/SVG/1.1/DTD/svg11.dtd">
<!-- Created with matplotlib (https://matplotlib.org/) -->
<svg height="252pt" version="1.1" viewBox="0 0 324 252" width="324pt" xmlns="http://www.w3.org/2000/svg" xmlns:xlink="http://www.w3.org/1999/xlink">
 <defs>
  <style type="text/css">
*{stroke-linecap:butt;stroke-linejoin:round;}
  </style>
 </defs>
 <g id="figure_1">
  <g id="patch_1">
   <path d="M 0 252 
L 324 252 
L 324 0 
L 0 0 
z
" style="fill:#ffffff;"/>
  </g>
  <g id="axes_1">
   <g id="patch_2">
    <path d="M 40.5 224.28 
L 291.6 224.28 
L 291.6 30.24 
L 40.5 30.24 
z
" style="fill:#ffffff;"/>
   </g>
   <g id="matplotlib.axis_1">
    <g id="xtick_1">
     <g id="line2d_1">
      <defs>
       <path d="M 0 0 
L 0 3.5 
" id="m475f8c5a58" style="stroke:#000000;stroke-width:0.8;"/>
      </defs>
      <g>
       <use style="stroke:#000000;stroke-width:0.8;" x="51.890805" xlink:href="#m475f8c5a58" y="224.28"/>
      </g>
     </g>
     <g id="text_1">
      <text style="font-family:DejaVu Sans;font-size:10px;font-style:normal;font-weight:normal;text-anchor:middle;" transform="rotate(-0, 51.890805, 238.878438)" x="51.890805" y="238.878438">0.0</text>
     </g>
    </g>
    <g id="xtick_2">
     <g id="line2d_2">
      <g>
       <use style="stroke:#000000;stroke-width:0.8;" x="97.554483" xlink:href="#m475f8c5a58" y="224.28"/>
      </g>
     </g>
     <g id="text_2">
      <text style="font-family:DejaVu Sans;font-size:10px;font-style:normal;font-weight:normal;text-anchor:middle;" transform="rotate(-0, 97.554483, 238.878438)" x="97.554483" y="238.878438">0.2</text>
     </g>
    </g>
    <g id="xtick_3">
     <g id="line2d_3">
      <g>
       <use style="stroke:#000000;stroke-width:0.8;" x="143.218161" xlink:href="#m475f8c5a58" y="224.28"/>
      </g>
     </g>
     <g id="text_3">
      <text style="font-family:DejaVu Sans;font-size:10px;font-style:normal;font-weight:normal;text-anchor:middle;" transform="rotate(-0, 143.218161, 238.878438)" x="143.218161" y="238.878438">0.4</text>
     </g>
    </g>
    <g id="xtick_4">
     <g id="line2d_4">
      <g>
       <use style="stroke:#000000;stroke-width:0.8;" x="188.881839" xlink:href="#m475f8c5a58" y="224.28"/>
      </g>
     </g>
     <g id="text_4">
      <text style="font-family:DejaVu Sans;font-size:10px;font-style:normal;font-weight:normal;text-anchor:middle;" transform="rotate(-0, 188.881839, 238.878438)" x="188.881839" y="238.878438">0.6</text>
     </g>
    </g>
    <g id="xtick_5">
     <g id="line2d_5">
      <g>
       <use style="stroke:#000000;stroke-width:0.8;" x="234.545517" xlink:href="#m475f8c5a58" y="224.28"/>
      </g>
     </g>
     <g id="text_5">
      <text style="font-family:DejaVu Sans;font-size:10px;font-style:normal;font-weight:normal;text-anchor:middle;" transform="rotate(-0, 234.545517, 238.878438)" x="234.545517" y="238.878438">0.8</text>
     </g>
    </g>
    <g id="xtick_6">
     <g id="line2d_6">
      <g>
       <use style="stroke:#000000;stroke-width:0.8;" x="280.209195" xlink:href="#m475f8c5a58" y="224.28"/>
      </g>
     </g>
     <g id="text_6">
      <text style="font-family:DejaVu Sans;font-size:10px;font-style:normal;font-weight:normal;text-anchor:middle;" transform="rotate(-0, 280.209195, 238.878438)" x="280.209195" y="238.878438">1.0</text>
     </g>
    </g>
    <g id="text_7">
     <text style="font-family:DejaVu Sans;font-size:10px;font-style:normal;font-weight:normal;text-anchor:middle;" transform="rotate(-0, 166.05, 252.556563)" x="166.05" y="252.556563">Probability</text>
    </g>
   </g>
   <g id="matplotlib.axis_2">
    <g id="ytick_1">
     <g id="line2d_7">
      <defs>
       <path d="M 0 0 
L -3.5 0 
" id="m2df15dd996" style="stroke:#000000;stroke-width:0.8;"/>
      </defs>
      <g>
       <use style="stroke:#000000;stroke-width:0.8;" x="40.5" xlink:href="#m2df15dd996" y="211.778609"/>
      </g>
     </g>
     <g id="text_8">
      <text style="font-family:DejaVu Sans;font-size:10px;font-style:normal;font-weight:normal;text-anchor:end;" transform="rotate(-0, 33.5, 215.577827)" x="33.5" y="215.577827">5.4</text>
     </g>
    </g>
    <g id="ytick_2">
     <g id="line2d_8">
      <g>
       <use style="stroke:#000000;stroke-width:0.8;" x="40.5" xlink:href="#m2df15dd996" y="181.100348"/>
      </g>
     </g>
     <g id="text_9">
      <text style="font-family:DejaVu Sans;font-size:10px;font-style:normal;font-weight:normal;text-anchor:end;" transform="rotate(-0, 33.5, 184.899567)" x="33.5" y="184.899567">5.6</text>
     </g>
    </g>
    <g id="ytick_3">
     <g id="line2d_9">
      <g>
       <use style="stroke:#000000;stroke-width:0.8;" x="40.5" xlink:href="#m2df15dd996" y="150.422087"/>
      </g>
     </g>
     <g id="text_10">
      <text style="font-family:DejaVu Sans;font-size:10px;font-style:normal;font-weight:normal;text-anchor:end;" transform="rotate(-0, 33.5, 154.221306)" x="33.5" y="154.221306">5.8</text>
     </g>
    </g>
    <g id="ytick_4">
     <g id="line2d_10">
      <g>
       <use style="stroke:#000000;stroke-width:0.8;" x="40.5" xlink:href="#m2df15dd996" y="119.743826"/>
      </g>
     </g>
     <g id="text_11">
      <text style="font-family:DejaVu Sans;font-size:10px;font-style:normal;font-weight:normal;text-anchor:end;" transform="rotate(-0, 33.5, 123.543045)" x="33.5" y="123.543045">6.0</text>
     </g>
    </g>
    <g id="ytick_5">
     <g id="line2d_11">
      <g>
       <use style="stroke:#000000;stroke-width:0.8;" x="40.5" xlink:href="#m2df15dd996" y="89.065565"/>
      </g>
     </g>
     <g id="text_12">
      <text style="font-family:DejaVu Sans;font-size:10px;font-style:normal;font-weight:normal;text-anchor:end;" transform="rotate(-0, 33.5, 92.864784)" x="33.5" y="92.864784">6.2</text>
     </g>
    </g>
    <g id="ytick_6">
     <g id="line2d_12">
      <g>
       <use style="stroke:#000000;stroke-width:0.8;" x="40.5" xlink:href="#m2df15dd996" y="58.387304"/>
      </g>
     </g>
     <g id="text_13">
      <text style="font-family:DejaVu Sans;font-size:10px;font-style:normal;font-weight:normal;text-anchor:end;" transform="rotate(-0, 33.5, 62.186523)" x="33.5" y="62.186523">6.4</text>
     </g>
    </g>
    <g id="text_14">
     <text style="font-family:DejaVu Sans;font-size:10px;font-style:normal;font-weight:normal;text-anchor:middle;" transform="rotate(-90, 11.517187, 127.26)" x="11.517187" y="127.26">Average Bits Consumed Per Call</text>
    </g>
   </g>
   <g id="line2d_13">
    <path clip-path="url(#p1c0832b914)" d="M 51.913636 136.003304 
L 54.219421 152.262783 
L 56.525207 135.696522 
L 58.830992 67.590783 
L 61.136777 78.941739 
L 63.442562 109.62 
L 65.748347 116.062435 
L 68.054132 81.396 
L 70.359917 138.150783 
L 72.665702 47.649913 
L 74.971488 104.404696 
L 77.277273 132.321913 
L 79.583058 98.269043 
L 81.888843 124.652348 
L 84.194628 116.369217 
L 86.500413 112.074261 
L 88.806198 119.130261 
L 91.111983 215.46 
L 93.417769 113.608174 
L 95.723554 97.655478 
L 98.029339 109.926783 
L 100.335124 132.321913 
L 102.640909 71.272174 
L 104.946694 119.743826 
L 107.252479 157.78487 
L 109.558264 132.01513 
L 111.86405 79.248522 
L 114.169835 70.965391 
L 116.47562 125.572696 
L 118.781405 124.345565 
L 121.08719 135.389739 
L 123.392975 76.487478 
L 125.69876 93.053739 
L 128.004545 114.528522 
L 130.310331 92.746957 
L 132.616116 139.684696 
L 134.921901 128.640522 
L 137.227686 141.525391 
L 139.533471 101.950435 
L 141.839256 97.655478 
L 144.145041 51.024522 
L 146.450826 68.204348 
L 148.756612 89.67913 
L 151.062397 72.806087 
L 153.368182 127.106609 
L 155.673967 153.796696 
L 157.979752 155.637391 
L 160.285537 103.79113 
L 162.591322 76.794261 
L 164.897107 113.608174 
L 167.202893 87.531652 
L 169.508678 100.416522 
L 171.814463 124.038783 
L 174.120248 56.546609 
L 176.426033 151.956 
L 178.731818 103.79113 
L 181.037603 57.466957 
L 183.343388 108.39287 
L 185.649174 109.926783 
L 187.954959 102.564 
L 190.260744 117.596348 
L 192.566529 135.696522 
L 194.872314 92.746957 
L 197.178099 82.316348 
L 199.483884 84.463826 
L 201.789669 72.806087 
L 204.095455 150.72887 
L 206.40124 117.289565 
L 208.707025 129.56087 
L 211.01281 154.103478 
L 213.318595 144.9 
L 215.62438 139.377913 
L 217.930165 98.882609 
L 220.23595 67.897565 
L 222.541736 51.331304 
L 224.847521 39.06 
L 227.153306 96.121565 
L 229.459091 87.838435 
L 231.764876 89.67913 
L 234.070661 71.578957 
L 236.376446 76.487478 
L 238.682231 75.56713 
L 240.988017 136.310087 
L 243.293802 62.375478 
L 245.599587 99.802957 
L 247.905372 67.897565 
L 250.211157 53.478783 
L 252.516942 111.460696 
L 254.822727 119.130261 
L 257.128512 120.664174 
L 259.434298 93.360522 
L 261.740083 128.333739 
L 264.045868 130.481217 
L 266.351653 167.908696 
L 268.657438 131.708348 
L 270.963223 100.416522 
L 273.269008 129.254087 
L 275.574793 130.788 
L 277.880579 83.850261 
L 280.186364 90.599478 
" style="fill:none;stroke:#1f77b4;stroke-linecap:square;stroke-width:1.5;"/>
   </g>
   <g id="patch_3">
    <path d="M 40.5 224.28 
L 40.5 30.24 
" style="fill:none;stroke:#000000;stroke-linecap:square;stroke-linejoin:miter;stroke-width:0.8;"/>
   </g>
   <g id="patch_4">
    <path d="M 291.6 224.28 
L 291.6 30.24 
" style="fill:none;stroke:#000000;stroke-linecap:square;stroke-linejoin:miter;stroke-width:0.8;"/>
   </g>
   <g id="patch_5">
    <path d="M 40.5 224.28 
L 291.6 224.28 
" style="fill:none;stroke:#000000;stroke-linecap:square;stroke-linejoin:miter;stroke-width:0.8;"/>
   </g>
   <g id="patch_6">
    <path d="M 40.5 30.24 
L 291.6 30.24 
" style="fill:none;stroke:#000000;stroke-linecap:square;stroke-linejoin:miter;stroke-width:0.8;"/>
   </g>
   <g id="text_15">
    <text style="font-family:DejaVu Sans;font-size:12px;font-style:normal;font-weight:normal;text-anchor:middle;" transform="rotate(-0, 166.05, 24.24)" x="166.05" y="24.24">Avg. Bits Consumed by log(1+x) (Two-Coin Special Case) Algorithm</text>
   </g>
  </g>
 </g>
 <defs>
  <clipPath id="p1c0832b914">
   <rect height="194.04" width="251.1" x="40.5" y="30.24"/>
  </clipPath>
 </defs>
</svg>
