<svg height="460.8" viewBox="0 0 460.8 345.6" width="614.4" xmlns="http://www.w3.org/2000/svg" xmlns:xlink="http://www.w3.org/1999/xlink"><defs><style>*{stroke-linecap:butt;stroke-linejoin:round}</style></defs><g id="figure_1"><path d="M0 345.6h460.8V0H0z" fill="#fff" id="patch_1"/><g id="axes_1"><path d="M57.6 307.584h357.12V41.472H57.6z" fill="#fff" id="patch_2"/><g id="matplotlib.axis_1"><g id="xtick_1"><g id="line2d_1"><defs><path d="M0 0v3.5" id="mef57a60ddf" stroke="#000" stroke-width=".8"/></defs><use x="73.8" xlink:href="#mef57a60ddf" y="307.584" stroke="#000" stroke-width=".8"/></g><text x="73.8" y="322.182" font-family="DejaVu Sans" font-size="10" font-weight="400" text-anchor="middle" id="text_1">0.0</text></g><g id="xtick_2"><use x="138.744" xlink:href="#mef57a60ddf" y="307.584" stroke="#000" stroke-width=".8" id="line2d_2"/><text x="138.744" y="322.182" font-family="DejaVu Sans" font-size="10" font-weight="400" text-anchor="middle" id="text_2">0.2</text></g><g id="xtick_3"><use x="203.688" xlink:href="#mef57a60ddf" y="307.584" stroke="#000" stroke-width=".8" id="line2d_3"/><text x="203.688" y="322.182" font-family="DejaVu Sans" font-size="10" font-weight="400" text-anchor="middle" id="text_3">0.4</text></g><g id="xtick_4"><use x="268.632" xlink:href="#mef57a60ddf" y="307.584" stroke="#000" stroke-width=".8" id="line2d_4"/><text x="268.632" y="322.182" font-family="DejaVu Sans" font-size="10" font-weight="400" text-anchor="middle" id="text_4">0.6</text></g><g id="xtick_5"><use x="333.576" xlink:href="#mef57a60ddf" y="307.584" stroke="#000" stroke-width=".8" id="line2d_5"/><text x="333.576" y="322.182" font-family="DejaVu Sans" font-size="10" font-weight="400" text-anchor="middle" id="text_5">0.8</text></g><g id="xtick_6"><use x="398.52" xlink:href="#mef57a60ddf" y="307.584" stroke="#000" stroke-width=".8" id="line2d_6"/><text x="398.52" y="322.182" font-family="DejaVu Sans" font-size="10" font-weight="400" text-anchor="middle" id="text_6">1.0</text></g><text x="236.16" y="335.861" font-family="DejaVu Sans" font-size="10" font-weight="400" text-anchor="middle" id="text_7">Probability</text></g><g id="matplotlib.axis_2"><g id="ytick_1"><g id="line2d_7"><defs><path d="M0 0h-3.5" id="ma608787c4b" stroke="#000" stroke-width=".8"/></defs><use x="57.6" xlink:href="#ma608787c4b" y="263.684" stroke="#000" stroke-width=".8"/></g><text x="50.6" y="267.483" font-family="DejaVu Sans" font-size="10" font-weight="400" text-anchor="end" id="text_8">20</text></g><g id="ytick_2"><use x="57.6" xlink:href="#ma608787c4b" y="218.521" stroke="#000" stroke-width=".8" id="line2d_8"/><text x="50.6" y="222.32" font-family="DejaVu Sans" font-size="10" font-weight="400" text-anchor="end" id="text_9">40</text></g><g id="ytick_3"><use x="57.6" xlink:href="#ma608787c4b" y="173.358" stroke="#000" stroke-width=".8" id="line2d_9"/><text x="50.6" y="177.157" font-family="DejaVu Sans" font-size="10" font-weight="400" text-anchor="end" id="text_10">60</text></g><g id="ytick_4"><use x="57.6" xlink:href="#ma608787c4b" y="128.195" stroke="#000" stroke-width=".8" id="line2d_10"/><text x="50.6" y="131.995" font-family="DejaVu Sans" font-size="10" font-weight="400" text-anchor="end" id="text_11">80</text></g><g id="ytick_5"><use x="57.6" xlink:href="#ma608787c4b" y="83.032" stroke="#000" stroke-width=".8" id="line2d_11"/><text x="50.6" y="86.832" font-family="DejaVu Sans" font-size="10" font-weight="400" text-anchor="end" id="text_12">100</text></g><text transform="rotate(-90 25.433 174.528)" x="25.433" y="174.528" font-family="DejaVu Sans" font-size="10" font-weight="400" text-anchor="middle" id="text_13">Average Bits Consumed Per Call</text></g><path clip-path="url(#p68c0e689bb)" d="M73.833 294.91l3.28.578 3.278-.289 3.28.081 3.28-.031h3.278l3.28.162 3.28-.528 3.278.384 3.28-.163 3.28-.072 3.278-.199 3.28.352 3.28-.185 3.278.045 3.28-.668 3.28.51 3.278-.356 3.28.126 3.28.077 3.279.194 3.279.032 3.28-.172 3.279.199 3.279-1.107 3.28.578 3.279-.307 3.279.122 3.28-.402 3.279.52 3.279-.366 3.28.04 3.279.624 3.279-1.378 3.28.899 3.279-.443 3.279.619 3.28-.587 3.279-.596 3.279.772 3.28-.077 3.279-.871 3.279.433 3.28-.8 3.279.39 3.279-.037 3.28.361 3.279-.524 3.279.154 3.28-.294 3.279-.97 3.279.84 3.28-.488 3.279.162 3.279-.844 3.28-.027 3.279.257 3.279.818 3.28-.913 3.279-.722 3.28.591 3.278.339 3.28-.74 3.28.379 3.278-.402 3.28-.407 3.28-.18 3.278-.213 3.28.267 3.28-1.45 3.278 1.676 3.28-1.035 3.28-.849 3.278.967 3.28-1.49 3.28.112 3.278 1.066 3.28-1.215 3.28-.194 3.278-3.22 3.28 2.145 3.28-.795 3.279-.194 3.279-.912 3.28 1.093 3.279.713 3.279-3.87 3.28 2 3.279-1.454 3.279-2.43 3.28-2.18 3.279 2.298 3.279.059 3.28-2.588 3.279-4.187 3.279 1.518 3.28-.664 3.279-8.848 3.279 7.209 3.28-220.17" fill="none" stroke="#1f77b4" stroke-linecap="square" stroke-width="1.5" id="line2d_12"/><path d="M57.6 307.584V41.472" fill="none" stroke="#000" stroke-linecap="square" stroke-width=".8" id="patch_3"/><path d="M414.72 307.584V41.472" fill="none" stroke="#000" stroke-linecap="square" stroke-width=".8" id="patch_4"/><path d="M57.6 307.584h357.12" fill="none" stroke="#000" stroke-linecap="square" stroke-width=".8" id="patch_5"/><path d="M57.6 41.472h357.12" fill="none" stroke="#000" stroke-linecap="square" stroke-width=".8" id="patch_6"/><text x="236.16" y="35.472" font-family="DejaVu Sans" font-size="12" font-weight="400" text-anchor="middle" id="text_14">Avg. Bits Consumed by log(1+x) (Flajolet) Algorithm</text><g id="legend_1"><path d="M64.6 64.15h123.097q2 0 2-2V48.472q0-2-2-2H64.6q-2 0-2 2V62.15q0 2 2 2z" fill="#fff" opacity=".8" stroke="#ccc" id="patch_7"/><path d="M66.6 54.57h20" fill="none" stroke="#1f77b4" stroke-linecap="square" stroke-width="1.5" id="line2d_13"/><text x="94.6" y="58.07" font-family="DejaVu Sans" font-size="10" font-weight="400" id="text_15">log(1+x) (Flajolet)</text></g></g></g><defs><clipPath id="p68c0e689bb"><path d="M57.6 41.472h357.12v266.112H57.6z"/></clipPath></defs></svg>