<?xml version="1.0" encoding="utf-8" standalone="no"?>
<!DOCTYPE svg PUBLIC "-//W3C//DTD SVG 1.1//EN"
  "http://www.w3.org/Graphics/SVG/1.1/DTD/svg11.dtd">
<!-- Created with matplotlib (https://matplotlib.org/) -->
<svg height="252pt" version="1.1" viewBox="0 0 324 252" width="324pt" xmlns="http://www.w3.org/2000/svg" xmlns:xlink="http://www.w3.org/1999/xlink">
 <defs>
  <style type="text/css">
*{stroke-linecap:butt;stroke-linejoin:round;}
  </style>
 </defs>
 <g id="figure_1">
  <g id="patch_1">
   <path d="M 0 252 
L 324 252 
L 324 0 
L 0 0 
z
" style="fill:#ffffff;"/>
  </g>
  <g id="axes_1">
   <g id="patch_2">
    <path d="M 40.5 224.28 
L 291.6 224.28 
L 291.6 30.24 
L 40.5 30.24 
z
" style="fill:#ffffff;"/>
   </g>
   <g id="matplotlib.axis_1">
    <g id="xtick_1">
     <g id="line2d_1">
      <defs>
       <path d="M 0 0 
L 0 3.5 
" id="mce3bed95fd" style="stroke:#000000;stroke-width:0.8;"/>
      </defs>
      <g>
       <use style="stroke:#000000;stroke-width:0.8;" x="51.890805" xlink:href="#mce3bed95fd" y="224.28"/>
      </g>
     </g>
     <g id="text_1">
      <text style="font-family:DejaVu Sans;font-size:10px;font-style:normal;font-weight:normal;text-anchor:middle;" transform="rotate(-0, 51.890805, 238.878438)" x="51.890805" y="238.878438">0.0</text>
     </g>
    </g>
    <g id="xtick_2">
     <g id="line2d_2">
      <g>
       <use style="stroke:#000000;stroke-width:0.8;" x="97.554483" xlink:href="#mce3bed95fd" y="224.28"/>
      </g>
     </g>
     <g id="text_2">
      <text style="font-family:DejaVu Sans;font-size:10px;font-style:normal;font-weight:normal;text-anchor:middle;" transform="rotate(-0, 97.554483, 238.878438)" x="97.554483" y="238.878438">0.2</text>
     </g>
    </g>
    <g id="xtick_3">
     <g id="line2d_3">
      <g>
       <use style="stroke:#000000;stroke-width:0.8;" x="143.218161" xlink:href="#mce3bed95fd" y="224.28"/>
      </g>
     </g>
     <g id="text_3">
      <text style="font-family:DejaVu Sans;font-size:10px;font-style:normal;font-weight:normal;text-anchor:middle;" transform="rotate(-0, 143.218161, 238.878438)" x="143.218161" y="238.878438">0.4</text>
     </g>
    </g>
    <g id="xtick_4">
     <g id="line2d_4">
      <g>
       <use style="stroke:#000000;stroke-width:0.8;" x="188.881839" xlink:href="#mce3bed95fd" y="224.28"/>
      </g>
     </g>
     <g id="text_4">
      <text style="font-family:DejaVu Sans;font-size:10px;font-style:normal;font-weight:normal;text-anchor:middle;" transform="rotate(-0, 188.881839, 238.878438)" x="188.881839" y="238.878438">0.6</text>
     </g>
    </g>
    <g id="xtick_5">
     <g id="line2d_5">
      <g>
       <use style="stroke:#000000;stroke-width:0.8;" x="234.545517" xlink:href="#mce3bed95fd" y="224.28"/>
      </g>
     </g>
     <g id="text_5">
      <text style="font-family:DejaVu Sans;font-size:10px;font-style:normal;font-weight:normal;text-anchor:middle;" transform="rotate(-0, 234.545517, 238.878438)" x="234.545517" y="238.878438">0.8</text>
     </g>
    </g>
    <g id="xtick_6">
     <g id="line2d_6">
      <g>
       <use style="stroke:#000000;stroke-width:0.8;" x="280.209195" xlink:href="#mce3bed95fd" y="224.28"/>
      </g>
     </g>
     <g id="text_6">
      <text style="font-family:DejaVu Sans;font-size:10px;font-style:normal;font-weight:normal;text-anchor:middle;" transform="rotate(-0, 280.209195, 238.878438)" x="280.209195" y="238.878438">1.0</text>
     </g>
    </g>
    <g id="text_7">
     <text style="font-family:DejaVu Sans;font-size:10px;font-style:normal;font-weight:normal;text-anchor:middle;" transform="rotate(-0, 166.05, 252.556563)" x="166.05" y="252.556563">Probability</text>
    </g>
   </g>
   <g id="matplotlib.axis_2">
    <g id="ytick_1">
     <g id="line2d_7">
      <defs>
       <path d="M 0 0 
L -3.5 0 
" id="mb57610cb0a" style="stroke:#000000;stroke-width:0.8;"/>
      </defs>
      <g>
       <use style="stroke:#000000;stroke-width:0.8;" x="40.5" xlink:href="#mb57610cb0a" y="217.9296"/>
      </g>
     </g>
     <g id="text_8">
      <text style="font-family:DejaVu Sans;font-size:10px;font-style:normal;font-weight:normal;text-anchor:end;" transform="rotate(-0, 33.5, 221.728819)" x="33.5" y="221.728819">5.6</text>
     </g>
    </g>
    <g id="ytick_2">
     <g id="line2d_8">
      <g>
       <use style="stroke:#000000;stroke-width:0.8;" x="40.5" xlink:href="#mb57610cb0a" y="182.6496"/>
      </g>
     </g>
     <g id="text_9">
      <text style="font-family:DejaVu Sans;font-size:10px;font-style:normal;font-weight:normal;text-anchor:end;" transform="rotate(-0, 33.5, 186.448819)" x="33.5" y="186.448819">5.8</text>
     </g>
    </g>
    <g id="ytick_3">
     <g id="line2d_9">
      <g>
       <use style="stroke:#000000;stroke-width:0.8;" x="40.5" xlink:href="#mb57610cb0a" y="147.3696"/>
      </g>
     </g>
     <g id="text_10">
      <text style="font-family:DejaVu Sans;font-size:10px;font-style:normal;font-weight:normal;text-anchor:end;" transform="rotate(-0, 33.5, 151.168819)" x="33.5" y="151.168819">6.0</text>
     </g>
    </g>
    <g id="ytick_4">
     <g id="line2d_10">
      <g>
       <use style="stroke:#000000;stroke-width:0.8;" x="40.5" xlink:href="#mb57610cb0a" y="112.0896"/>
      </g>
     </g>
     <g id="text_11">
      <text style="font-family:DejaVu Sans;font-size:10px;font-style:normal;font-weight:normal;text-anchor:end;" transform="rotate(-0, 33.5, 115.888819)" x="33.5" y="115.888819">6.2</text>
     </g>
    </g>
    <g id="ytick_5">
     <g id="line2d_11">
      <g>
       <use style="stroke:#000000;stroke-width:0.8;" x="40.5" xlink:href="#mb57610cb0a" y="76.8096"/>
      </g>
     </g>
     <g id="text_12">
      <text style="font-family:DejaVu Sans;font-size:10px;font-style:normal;font-weight:normal;text-anchor:end;" transform="rotate(-0, 33.5, 80.608819)" x="33.5" y="80.608819">6.4</text>
     </g>
    </g>
    <g id="ytick_6">
     <g id="line2d_12">
      <g>
       <use style="stroke:#000000;stroke-width:0.8;" x="40.5" xlink:href="#mb57610cb0a" y="41.5296"/>
      </g>
     </g>
     <g id="text_13">
      <text style="font-family:DejaVu Sans;font-size:10px;font-style:normal;font-weight:normal;text-anchor:end;" transform="rotate(-0, 33.5, 45.328819)" x="33.5" y="45.328819">6.6</text>
     </g>
    </g>
    <g id="text_14">
     <text style="font-family:DejaVu Sans;font-size:10px;font-style:normal;font-weight:normal;text-anchor:middle;" transform="rotate(-90, 11.517187, 127.26)" x="11.517187" y="127.26">Average Bits Consumed Per Call</text>
    </g>
   </g>
   <g id="line2d_13">
    <path clip-path="url(#pcd93772e85)" d="M 51.913636 75.0456 
L 54.219421 150.192 
L 56.525207 93.0384 
L 58.830992 146.664 
L 61.136777 159.3648 
L 63.442562 144.5472 
L 65.748347 114.2064 
L 68.054132 123.732 
L 70.359917 145.9584 
L 72.665702 199.2312 
L 74.971488 117.3816 
L 77.277273 155.1312 
L 79.583058 116.3232 
L 81.888843 145.2528 
L 84.194628 130.0824 
L 86.500413 210.168 
L 88.806198 148.7808 
L 91.111983 157.248 
L 93.417769 175.9464 
L 95.723554 136.08 
L 98.029339 107.5032 
L 100.335124 114.5592 
L 102.640909 142.4304 
L 104.946694 115.6176 
L 107.252479 97.6248 
L 109.558264 139.9608 
L 111.86405 125.8488 
L 114.169835 90.5688 
L 116.47562 138.9024 
L 118.781405 118.0872 
L 121.08719 90.216 
L 123.392975 98.3304 
L 125.69876 90.9216 
L 128.004545 111.384 
L 130.310331 121.968 
L 132.616116 186.8832 
L 134.921901 195.7032 
L 137.227686 135.7272 
L 139.533471 144.9 
L 141.839256 101.5056 
L 144.145041 90.9216 
L 146.450826 86.688 
L 148.756612 145.6056 
L 151.062397 178.416 
L 153.368182 170.3016 
L 155.673967 39.06 
L 157.979752 142.7832 
L 160.285537 80.3376 
L 162.591322 163.2456 
L 164.897107 150.5448 
L 167.202893 117.7344 
L 169.508678 87.7464 
L 171.814463 108.9144 
L 174.120248 159.7176 
L 176.426033 204.1704 
L 178.731818 110.3256 
L 181.037603 215.46 
L 183.343388 144.9 
L 185.649174 160.4232 
L 187.954959 123.3792 
L 190.260744 113.148 
L 192.566529 154.4256 
L 194.872314 190.764 
L 197.178099 85.6296 
L 199.483884 193.2336 
L 201.789669 177.7104 
L 204.095455 154.4256 
L 206.40124 123.732 
L 208.707025 138.5496 
L 211.01281 81.0432 
L 213.318595 108.5616 
L 215.62438 123.0264 
L 217.930165 72.576 
L 220.23595 171.36 
L 222.541736 136.7856 
L 224.847521 154.4256 
L 227.153306 133.6104 
L 229.459091 97.272 
L 231.764876 176.652 
L 234.070661 93.744 
L 236.376446 184.4136 
L 238.682231 76.8096 
L 240.988017 112.0896 
L 243.293802 62.6976 
L 245.599587 138.5496 
L 247.905372 169.2432 
L 250.211157 106.7976 
L 252.516942 142.7832 
L 254.822727 111.0312 
L 257.128512 86.688 
L 259.434298 89.5104 
L 261.740083 116.676 
L 264.045868 84.924 
L 266.351653 95.8608 
L 268.657438 119.4984 
L 270.963223 42.2352 
L 273.269008 66.9312 
L 275.574793 54.2304 
L 277.880579 183.3552 
L 280.186364 144.9 
" style="fill:none;stroke:#1f77b4;stroke-linecap:square;stroke-width:1.5;"/>
   </g>
   <g id="patch_3">
    <path d="M 40.5 224.28 
L 40.5 30.24 
" style="fill:none;stroke:#000000;stroke-linecap:square;stroke-linejoin:miter;stroke-width:0.8;"/>
   </g>
   <g id="patch_4">
    <path d="M 291.6 224.28 
L 291.6 30.24 
" style="fill:none;stroke:#000000;stroke-linecap:square;stroke-linejoin:miter;stroke-width:0.8;"/>
   </g>
   <g id="patch_5">
    <path d="M 40.5 224.28 
L 291.6 224.28 
" style="fill:none;stroke:#000000;stroke-linecap:square;stroke-linejoin:miter;stroke-width:0.8;"/>
   </g>
   <g id="patch_6">
    <path d="M 40.5 30.24 
L 291.6 30.24 
" style="fill:none;stroke:#000000;stroke-linecap:square;stroke-linejoin:miter;stroke-width:0.8;"/>
   </g>
   <g id="text_15">
    <text style="font-family:DejaVu Sans;font-size:12px;font-style:normal;font-weight:normal;text-anchor:middle;" transform="rotate(-0, 166.05, 24.24)" x="166.05" y="24.24">Avg. Bits Consumed by log(1+x) (Two-Coin Special Case) Algorithm</text>
   </g>
  </g>
 </g>
 <defs>
  <clipPath id="pcd93772e85">
   <rect height="194.04" width="251.1" x="40.5" y="30.24"/>
  </clipPath>
 </defs>
</svg>
