<?xml version="1.0" encoding="utf-8" standalone="no"?>
<!DOCTYPE svg PUBLIC "-//W3C//DTD SVG 1.1//EN"
  "http://www.w3.org/Graphics/SVG/1.1/DTD/svg11.dtd">
<!-- Created with matplotlib (https://matplotlib.org/) -->
<svg height="345.6pt" version="1.1" viewBox="0 0 460.8 345.6" width="460.8pt" xmlns="http://www.w3.org/2000/svg" xmlns:xlink="http://www.w3.org/1999/xlink">
 <defs>
  <style type="text/css">
*{stroke-linecap:butt;stroke-linejoin:round;}
  </style>
 </defs>
 <g id="figure_1">
  <g id="patch_1">
   <path d="M 0 345.6 
L 460.8 345.6 
L 460.8 0 
L 0 0 
z
" style="fill:#ffffff;"/>
  </g>
  <g id="axes_1">
   <g id="patch_2">
    <path d="M 57.6 307.584 
L 414.72 307.584 
L 414.72 41.472 
L 57.6 41.472 
z
" style="fill:#ffffff;"/>
   </g>
   <g id="matplotlib.axis_1">
    <g id="xtick_1">
     <g id="line2d_1">
      <defs>
       <path d="M 0 0 
L 0 3.5 
" id="mb31eb309e2" style="stroke:#000000;stroke-width:0.8;"/>
      </defs>
      <g>
       <use style="stroke:#000000;stroke-width:0.8;" x="73.800255" xlink:href="#mb31eb309e2" y="307.584"/>
      </g>
     </g>
     <g id="text_1">
      <text style="font-family:DejaVu Sans;font-size:10px;font-style:normal;font-weight:normal;text-anchor:middle;" transform="rotate(-0, 73.800255, 322.182437)" x="73.800255" y="322.182437">0.0</text>
     </g>
    </g>
    <g id="xtick_2">
     <g id="line2d_2">
      <g>
       <use style="stroke:#000000;stroke-width:0.8;" x="138.744153" xlink:href="#mb31eb309e2" y="307.584"/>
      </g>
     </g>
     <g id="text_2">
      <text style="font-family:DejaVu Sans;font-size:10px;font-style:normal;font-weight:normal;text-anchor:middle;" transform="rotate(-0, 138.744153, 322.182437)" x="138.744153" y="322.182437">0.2</text>
     </g>
    </g>
    <g id="xtick_3">
     <g id="line2d_3">
      <g>
       <use style="stroke:#000000;stroke-width:0.8;" x="203.688051" xlink:href="#mb31eb309e2" y="307.584"/>
      </g>
     </g>
     <g id="text_3">
      <text style="font-family:DejaVu Sans;font-size:10px;font-style:normal;font-weight:normal;text-anchor:middle;" transform="rotate(-0, 203.688051, 322.182437)" x="203.688051" y="322.182437">0.4</text>
     </g>
    </g>
    <g id="xtick_4">
     <g id="line2d_4">
      <g>
       <use style="stroke:#000000;stroke-width:0.8;" x="268.631949" xlink:href="#mb31eb309e2" y="307.584"/>
      </g>
     </g>
     <g id="text_4">
      <text style="font-family:DejaVu Sans;font-size:10px;font-style:normal;font-weight:normal;text-anchor:middle;" transform="rotate(-0, 268.631949, 322.182437)" x="268.631949" y="322.182437">0.6</text>
     </g>
    </g>
    <g id="xtick_5">
     <g id="line2d_5">
      <g>
       <use style="stroke:#000000;stroke-width:0.8;" x="333.575847" xlink:href="#mb31eb309e2" y="307.584"/>
      </g>
     </g>
     <g id="text_5">
      <text style="font-family:DejaVu Sans;font-size:10px;font-style:normal;font-weight:normal;text-anchor:middle;" transform="rotate(-0, 333.575847, 322.182437)" x="333.575847" y="322.182437">0.8</text>
     </g>
    </g>
    <g id="xtick_6">
     <g id="line2d_6">
      <g>
       <use style="stroke:#000000;stroke-width:0.8;" x="398.519745" xlink:href="#mb31eb309e2" y="307.584"/>
      </g>
     </g>
     <g id="text_6">
      <text style="font-family:DejaVu Sans;font-size:10px;font-style:normal;font-weight:normal;text-anchor:middle;" transform="rotate(-0, 398.519745, 322.182437)" x="398.519745" y="322.182437">1.0</text>
     </g>
    </g>
    <g id="text_7">
     <text style="font-family:DejaVu Sans;font-size:10px;font-style:normal;font-weight:normal;text-anchor:middle;" transform="rotate(-0, 236.16, 335.860562)" x="236.16" y="335.860562">Input Coin's Heads Probability (λ)</text>
    </g>
   </g>
   <g id="matplotlib.axis_2">
    <g id="ytick_1">
     <g id="line2d_7">
      <defs>
       <path d="M 0 0 
L -3.5 0 
" id="m3aa7ddd33b" style="stroke:#000000;stroke-width:0.8;"/>
      </defs>
      <g>
       <use style="stroke:#000000;stroke-width:0.8;" x="57.6" xlink:href="#m3aa7ddd33b" y="295.488"/>
      </g>
     </g>
     <g id="text_8">
      <text style="font-family:DejaVu Sans;font-size:10px;font-style:normal;font-weight:normal;text-anchor:end;" transform="rotate(-0, 50.6, 299.287219)" x="50.6" y="299.287219">0.0</text>
     </g>
    </g>
    <g id="ytick_2">
     <g id="line2d_8">
      <g>
       <use style="stroke:#000000;stroke-width:0.8;" x="57.6" xlink:href="#m3aa7ddd33b" y="262.073635"/>
      </g>
     </g>
     <g id="text_9">
      <text style="font-family:DejaVu Sans;font-size:10px;font-style:normal;font-weight:normal;text-anchor:end;" transform="rotate(-0, 50.6, 265.872854)" x="50.6" y="265.872854">0.1</text>
     </g>
    </g>
    <g id="ytick_3">
     <g id="line2d_9">
      <g>
       <use style="stroke:#000000;stroke-width:0.8;" x="57.6" xlink:href="#m3aa7ddd33b" y="228.659271"/>
      </g>
     </g>
     <g id="text_10">
      <text style="font-family:DejaVu Sans;font-size:10px;font-style:normal;font-weight:normal;text-anchor:end;" transform="rotate(-0, 50.6, 232.458489)" x="50.6" y="232.458489">0.2</text>
     </g>
    </g>
    <g id="ytick_4">
     <g id="line2d_10">
      <g>
       <use style="stroke:#000000;stroke-width:0.8;" x="57.6" xlink:href="#m3aa7ddd33b" y="195.244906"/>
      </g>
     </g>
     <g id="text_11">
      <text style="font-family:DejaVu Sans;font-size:10px;font-style:normal;font-weight:normal;text-anchor:end;" transform="rotate(-0, 50.6, 199.044125)" x="50.6" y="199.044125">0.3</text>
     </g>
    </g>
    <g id="ytick_5">
     <g id="line2d_11">
      <g>
       <use style="stroke:#000000;stroke-width:0.8;" x="57.6" xlink:href="#m3aa7ddd33b" y="161.830541"/>
      </g>
     </g>
     <g id="text_12">
      <text style="font-family:DejaVu Sans;font-size:10px;font-style:normal;font-weight:normal;text-anchor:end;" transform="rotate(-0, 50.6, 165.62976)" x="50.6" y="165.62976">0.4</text>
     </g>
    </g>
    <g id="ytick_6">
     <g id="line2d_12">
      <g>
       <use style="stroke:#000000;stroke-width:0.8;" x="57.6" xlink:href="#m3aa7ddd33b" y="128.416177"/>
      </g>
     </g>
     <g id="text_13">
      <text style="font-family:DejaVu Sans;font-size:10px;font-style:normal;font-weight:normal;text-anchor:end;" transform="rotate(-0, 50.6, 132.215396)" x="50.6" y="132.215396">0.5</text>
     </g>
    </g>
    <g id="ytick_7">
     <g id="line2d_13">
      <g>
       <use style="stroke:#000000;stroke-width:0.8;" x="57.6" xlink:href="#m3aa7ddd33b" y="95.001812"/>
      </g>
     </g>
     <g id="text_14">
      <text style="font-family:DejaVu Sans;font-size:10px;font-style:normal;font-weight:normal;text-anchor:end;" transform="rotate(-0, 50.6, 98.801031)" x="50.6" y="98.801031">0.6</text>
     </g>
    </g>
    <g id="ytick_8">
     <g id="line2d_14">
      <g>
       <use style="stroke:#000000;stroke-width:0.8;" x="57.6" xlink:href="#m3aa7ddd33b" y="61.587448"/>
      </g>
     </g>
     <g id="text_15">
      <text style="font-family:DejaVu Sans;font-size:10px;font-style:normal;font-weight:normal;text-anchor:end;" transform="rotate(-0, 50.6, 65.386666)" x="50.6" y="65.386666">0.7</text>
     </g>
    </g>
    <g id="text_16">
     <text style="font-family:DejaVu Sans;font-size:10px;font-style:normal;font-weight:normal;text-anchor:middle;" transform="rotate(-90, 28.617187, 174.528)" x="28.617187" y="174.528">Simulated Mean / Function Value</text>
    </g>
   </g>
   <g id="line2d_15">
    <path clip-path="url(#p3b545d55ef)" d="M 73.832727 295.454587 
L 77.112066 292.097334 
L 80.391405 288.773476 
L 83.670744 285.482357 
L 86.950083 282.223338 
L 90.229421 278.995798 
L 93.50876 275.799136 
L 96.788099 272.632765 
L 100.067438 269.496118 
L 103.346777 266.388641 
L 106.626116 263.309798 
L 109.905455 260.259064 
L 113.184793 257.235932 
L 116.464132 254.239906 
L 119.743471 251.270504 
L 123.02281 248.327259 
L 126.302149 245.409712 
L 129.581488 242.517419 
L 132.860826 239.649947 
L 136.140165 236.806873 
L 139.419504 233.987785 
L 142.698843 231.192283 
L 145.978182 228.419974 
L 149.257521 225.670477 
L 152.53686 222.94342 
L 155.816198 220.23844 
L 159.095537 217.555181 
L 162.374876 214.893297 
L 165.654215 212.252452 
L 168.933554 209.632315 
L 172.212893 207.032563 
L 175.492231 204.452882 
L 178.77157 201.892964 
L 182.050909 199.35251 
L 185.330248 196.831224 
L 188.609587 194.328821 
L 191.888926 191.845018 
L 195.168264 189.379543 
L 198.447603 186.932126 
L 201.726942 184.502505 
L 205.006281 182.090422 
L 208.28562 179.695627 
L 211.564959 177.317873 
L 214.844298 174.956919 
L 218.123636 172.612531 
L 221.402975 170.284476 
L 224.682314 167.972529 
L 227.961653 165.676469 
L 231.240992 163.396079 
L 234.520331 161.131146 
L 237.799669 158.881462 
L 241.079008 156.646823 
L 244.358347 154.427029 
L 247.637686 152.221885 
L 250.917025 150.031198 
L 254.196364 147.85478 
L 257.475702 145.692446 
L 260.755041 143.544015 
L 264.03438 141.40931 
L 267.313719 139.288156 
L 270.593058 137.180382 
L 273.872397 135.085821 
L 277.151736 133.004308 
L 280.431074 130.935681 
L 283.710413 128.879781 
L 286.989752 126.836454 
L 290.269091 124.805546 
L 293.54843 122.786908 
L 296.827769 120.780391 
L 300.107107 118.785851 
L 303.386446 116.803147 
L 306.665785 114.832137 
L 309.945124 112.872686 
L 313.224463 110.924659 
L 316.503802 108.987922 
L 319.78314 107.062347 
L 323.062479 105.147804 
L 326.341818 103.244169 
L 329.621157 101.351317 
L 332.900496 99.469128 
L 336.179835 97.597481 
L 339.459174 95.73626 
L 342.738512 93.885348 
L 346.017851 92.044633 
L 349.29719 90.214002 
L 352.576529 88.393346 
L 355.855868 86.582557 
L 359.135207 84.781527 
L 362.414545 82.990154 
L 365.693884 81.208332 
L 368.973223 79.435962 
L 372.252562 77.672943 
L 375.531901 75.919178 
L 378.81124 74.174569 
L 382.090579 72.439022 
L 385.369917 70.712442 
L 388.649256 68.994739 
L 391.928595 67.28582 
L 395.207934 65.585597 
L 398.487273 63.893981 
" style="fill:none;stroke:#1f77b4;stroke-linecap:square;stroke-width:1.5;"/>
   </g>
   <g id="line2d_16">
    <path clip-path="url(#p3b545d55ef)" d="M 73.832727 295.488 
L 77.112066 292.146564 
L 80.391405 290.809989 
L 83.670744 285.463691 
L 86.950083 276.775956 
L 90.229421 282.790541 
L 93.50876 280.78568 
L 96.788099 270.093083 
L 100.067438 275.439381 
L 103.346777 272.097945 
L 106.626116 264.078497 
L 109.905455 262.741923 
L 113.184793 260.737061 
L 116.464132 259.400486 
L 119.743471 258.732199 
L 123.02281 254.722475 
L 126.302149 242.025017 
L 129.581488 246.03474 
L 132.860826 232.000707 
L 136.140165 232.668994 
L 139.419504 242.693304 
L 142.698843 238.68358 
L 145.978182 232.668994 
L 149.257521 225.317834 
L 152.53686 221.30811 
L 155.816198 219.971536 
L 159.095537 211.283801 
L 162.374876 207.942365 
L 165.654215 206.60579 
L 168.933554 209.278939 
L 172.212893 216.630099 
L 175.492231 207.274077 
L 178.77157 197.918055 
L 182.050909 197.249768 
L 185.330248 203.932641 
L 188.609587 185.888884 
L 191.888926 191.90347 
L 195.168264 197.918055 
L 198.447603 193.240044 
L 201.726942 180.542586 
L 205.006281 181.210873 
L 208.28562 185.888884 
L 211.564959 174.528 
L 214.844298 186.557171 
L 218.123636 167.845127 
L 221.402975 176.532862 
L 224.682314 177.201149 
L 227.961653 167.17684 
L 231.240992 168.513414 
L 234.520331 153.811094 
L 237.799669 159.82568 
L 241.079008 153.811094 
L 244.358347 161.162254 
L 247.637686 137.772199 
L 250.917025 155.815956 
L 254.196364 155.815956 
L 257.475702 140.445348 
L 260.755041 139.108773 
L 264.03438 141.113635 
L 267.313719 132.425901 
L 270.593058 147.796508 
L 273.872397 141.113635 
L 277.151736 122.401591 
L 280.431074 129.084464 
L 283.710413 126.411315 
L 286.989752 126.411315 
L 290.269091 117.72358 
L 293.54843 120.396729 
L 296.827769 107.699271 
L 300.107107 103.02126 
L 303.386446 129.752751 
L 306.665785 124.406453 
L 309.945124 113.045569 
L 313.224463 118.391867 
L 316.503802 119.060155 
L 319.78314 103.02126 
L 323.062479 113.713856 
L 326.341818 99.679823 
L 329.621157 105.694409 
L 332.900496 110.37242 
L 336.179835 102.352972 
L 339.459174 85.64579 
L 342.738512 90.992088 
L 346.017851 86.314077 
L 349.29719 99.679823 
L 352.576529 82.972641 
L 355.855868 90.992088 
L 359.135207 81.636066 
L 362.414545 92.99695 
L 365.693884 84.977503 
L 368.973223 64.260597 
L 372.252562 76.958055 
L 375.531901 74.284906 
L 378.81124 78.962917 
L 382.090579 59.582586 
L 385.369917 72.280044 
L 388.649256 62.255735 
L 391.928595 62.924022 
L 395.207934 56.909436 
L 398.487273 53.568 
" style="fill:none;stroke:#ff7f0e;stroke-linecap:square;stroke-width:1.5;"/>
   </g>
   <g id="patch_3">
    <path d="M 57.6 307.584 
L 57.6 41.472 
" style="fill:none;stroke:#000000;stroke-linecap:square;stroke-linejoin:miter;stroke-width:0.8;"/>
   </g>
   <g id="patch_4">
    <path d="M 414.72 307.584 
L 414.72 41.472 
" style="fill:none;stroke:#000000;stroke-linecap:square;stroke-linejoin:miter;stroke-width:0.8;"/>
   </g>
   <g id="patch_5">
    <path d="M 57.6 307.584 
L 414.72 307.584 
" style="fill:none;stroke:#000000;stroke-linecap:square;stroke-linejoin:miter;stroke-width:0.8;"/>
   </g>
   <g id="patch_6">
    <path d="M 57.6 41.472 
L 414.72 41.472 
" style="fill:none;stroke:#000000;stroke-linecap:square;stroke-linejoin:miter;stroke-width:0.8;"/>
   </g>
   <g id="text_17">
    <text style="font-family:DejaVu Sans;font-size:12px;font-style:normal;font-weight:normal;text-anchor:middle;" transform="rotate(-0, 236.16, 35.472)" x="236.16" y="35.472">Expected Value in log(1+x) (Flajolet) Algorithm</text>
   </g>
   <g id="legend_1">
    <g id="patch_7">
     <path d="M 64.6 78.82825 
L 284.65 78.82825 
Q 286.65 78.82825 286.65 76.82825 
L 286.65 48.472 
Q 286.65 46.472 284.65 46.472 
L 64.6 46.472 
Q 62.6 46.472 62.6 48.472 
L 62.6 76.82825 
Q 62.6 78.82825 64.6 78.82825 
z
" style="fill:#ffffff;opacity:0.8;stroke:#cccccc;stroke-linejoin:miter;"/>
    </g>
    <g id="line2d_17">
     <path d="M 66.6 54.570437 
L 86.6 54.570437 
" style="fill:none;stroke:#1f77b4;stroke-linecap:square;stroke-width:1.5;"/>
    </g>
    <g id="line2d_18"/>
    <g id="text_18">
     <text style="font-family:DejaVu Sans;font-size:10px;font-style:normal;font-weight:normal;text-anchor:start;" transform="rotate(-0, 94.6, 58.070437)" x="94.6" y="58.070437">log(1+x)</text>
    </g>
    <g id="line2d_19">
     <path d="M 66.6 69.248562 
L 86.6 69.248562 
" style="fill:none;stroke:#ff7f0e;stroke-linecap:square;stroke-width:1.5;"/>
    </g>
    <g id="line2d_20"/>
    <g id="text_19">
     <text style="font-family:DejaVu Sans;font-size:10px;font-style:normal;font-weight:normal;text-anchor:start;" transform="rotate(-0, 94.6, 72.748562)" x="94.6" y="72.748562">Simulated Mean of log(1+x) (Flajolet)</text>
    </g>
   </g>
  </g>
 </g>
 <defs>
  <clipPath id="p3b545d55ef">
   <rect height="266.112" width="357.12" x="57.6" y="41.472"/>
  </clipPath>
 </defs>
</svg>
