<svg height="460.8" viewBox="0 0 460.8 345.6" width="614.4" xmlns="http://www.w3.org/2000/svg" xmlns:xlink="http://www.w3.org/1999/xlink"><defs><style>*{stroke-linecap:butt;stroke-linejoin:round}</style></defs><g id="figure_1"><path d="M0 345.6h460.8V0H0z" fill="#fff" id="patch_1"/><g id="axes_1"><path d="M57.6 307.584h357.12V41.472H57.6z" fill="#fff" id="patch_2"/><g id="matplotlib.axis_1"><g id="xtick_1"><g id="line2d_1"><defs><path d="M0 0v3.5" id="m37cb45041e" stroke="#000" stroke-width=".8"/></defs><use x="73.8" xlink:href="#m37cb45041e" y="307.584" stroke="#000" stroke-width=".8"/></g><text x="73.8" y="322.182" font-family="DejaVu Sans" font-size="10" font-weight="400" text-anchor="middle" id="text_1">0.0</text></g><g id="xtick_2"><use x="138.744" xlink:href="#m37cb45041e" y="307.584" stroke="#000" stroke-width=".8" id="line2d_2"/><text x="138.744" y="322.182" font-family="DejaVu Sans" font-size="10" font-weight="400" text-anchor="middle" id="text_2">0.2</text></g><g id="xtick_3"><use x="203.688" xlink:href="#m37cb45041e" y="307.584" stroke="#000" stroke-width=".8" id="line2d_3"/><text x="203.688" y="322.182" font-family="DejaVu Sans" font-size="10" font-weight="400" text-anchor="middle" id="text_3">0.4</text></g><g id="xtick_4"><use x="268.632" xlink:href="#m37cb45041e" y="307.584" stroke="#000" stroke-width=".8" id="line2d_4"/><text x="268.632" y="322.182" font-family="DejaVu Sans" font-size="10" font-weight="400" text-anchor="middle" id="text_4">0.6</text></g><g id="xtick_5"><use x="333.576" xlink:href="#m37cb45041e" y="307.584" stroke="#000" stroke-width=".8" id="line2d_5"/><text x="333.576" y="322.182" font-family="DejaVu Sans" font-size="10" font-weight="400" text-anchor="middle" id="text_5">0.8</text></g><g id="xtick_6"><use x="398.52" xlink:href="#m37cb45041e" y="307.584" stroke="#000" stroke-width=".8" id="line2d_6"/><text x="398.52" y="322.182" font-family="DejaVu Sans" font-size="10" font-weight="400" text-anchor="middle" id="text_6">1.0</text></g><text x="236.16" y="335.861" font-family="DejaVu Sans" font-size="10" font-weight="400" text-anchor="middle" id="text_7">Probability</text></g><g id="matplotlib.axis_2"><g id="ytick_1"><g id="line2d_7"><defs><path d="M0 0h-3.5" id="mff659ff495" stroke="#000" stroke-width=".8"/></defs><use x="57.6" xlink:href="#mff659ff495" y="277.192" stroke="#000" stroke-width=".8"/></g><text x="50.6" y="280.991" font-family="DejaVu Sans" font-size="10" font-weight="400" text-anchor="end" id="text_8">5.5</text></g><g id="ytick_2"><use x="57.6" xlink:href="#mff659ff495" y="234.839" stroke="#000" stroke-width=".8" id="line2d_8"/><text x="50.6" y="238.638" font-family="DejaVu Sans" font-size="10" font-weight="400" text-anchor="end" id="text_9">6.0</text></g><g id="ytick_3"><use x="57.6" xlink:href="#mff659ff495" y="192.486" stroke="#000" stroke-width=".8" id="line2d_9"/><text x="50.6" y="196.285" font-family="DejaVu Sans" font-size="10" font-weight="400" text-anchor="end" id="text_10">6.5</text></g><g id="ytick_4"><use x="57.6" xlink:href="#mff659ff495" y="150.133" stroke="#000" stroke-width=".8" id="line2d_10"/><text x="50.6" y="153.932" font-family="DejaVu Sans" font-size="10" font-weight="400" text-anchor="end" id="text_11">7.0</text></g><g id="ytick_5"><use x="57.6" xlink:href="#mff659ff495" y="107.78" stroke="#000" stroke-width=".8" id="line2d_11"/><text x="50.6" y="111.579" font-family="DejaVu Sans" font-size="10" font-weight="400" text-anchor="end" id="text_12">7.5</text></g><g id="ytick_6"><use x="57.6" xlink:href="#mff659ff495" y="65.427" stroke="#000" stroke-width=".8" id="line2d_12"/><text x="50.6" y="69.226" font-family="DejaVu Sans" font-size="10" font-weight="400" text-anchor="end" id="text_13">8.0</text></g><text transform="rotate(-90 28.617 174.528)" x="28.617" y="174.528" font-family="DejaVu Sans" font-size="10" font-weight="400" text-anchor="middle" id="text_14">Average Bits Consumed Per Call</text></g><path clip-path="url(#pe9e129c754)" d="M73.833 53.568l3.28 19.821 3.278-14.061 3.28 52.179 3.28-2.541 3.278 6.098 3.28 26.598 3.28-50.654 3.278-2.372 3.28 45.91 3.28 1.526 3.278-49.638 3.28 30.155 3.28 4.574 3.278 16.603 3.28-15.925 3.28-36.762 3.278 25.242 3.28 43.539 3.28-31.341 3.279-23.38 3.279 40.998 3.28 29.647 3.279-64.037 3.279 24.903 3.28 42.353 3.279 12.029 3.279-22.193 3.28-.509 3.279-.847 3.279 3.727 3.28-7.115 3.279 20.33 3.279-45.403 3.28 14.908 3.279 18.297 3.279-7.115 3.28 8.978 3.279 14.062 3.279 27.275 3.28-15.247 3.279-29.817 3.279 43.54 3.28-11.52 3.279-14.231 3.279 22.531 3.28 38.118 3.279-44.047 3.279 36.593 3.28-15.755 3.279 6.945 3.279-37.778 3.28 14.06 3.279 6.1 3.279 34.56 3.28-15.586 3.279-15.078 3.279-.847 3.28-18.635 3.279 15.077 3.28 6.946 3.278 22.193 3.28-8.301 3.28 2.541 3.278 18.466 3.28-31.51 3.28-16.603 3.278 21.685 3.28 15.247 3.28 15.586 3.278 21.007 3.28-37.44 3.28 6.776 3.278 7.793 3.28-22.362 3.28 35.238 3.278-29.648 3.28-20.498 3.28 51.84 3.278-7.116 3.28-19.482 3.28 14.908 3.279-17.45 3.279 33.036 3.28-13.553 3.279 3.05 3.279 8.131 3.28 12.876 3.279 6.607 3.279-16.264 3.28 5.76 3.279-9.995 3.279-4.574 3.28 9.148 3.279 2.372 3.279 6.437 3.28-6.437 3.279 20.33 3.279.338 3.28-23.379" fill="none" stroke="#1f77b4" stroke-linecap="square" stroke-width="1.5" id="line2d_13"/><path d="M57.6 307.584V41.472" fill="none" stroke="#000" stroke-linecap="square" stroke-width=".8" id="patch_3"/><path d="M414.72 307.584V41.472" fill="none" stroke="#000" stroke-linecap="square" stroke-width=".8" id="patch_4"/><path d="M57.6 307.584h357.12" fill="none" stroke="#000" stroke-linecap="square" stroke-width=".8" id="patch_5"/><path d="M57.6 41.472h357.12" fill="none" stroke="#000" stroke-linecap="square" stroke-width=".8" id="patch_6"/><text x="236.16" y="35.472" font-family="DejaVu Sans" font-size="12" font-weight="400" text-anchor="middle" id="text_15">Avg. Bits Consumed by log(1+x) (Two-Coin Special Case) Algorithm</text><g id="legend_1"><path d="M209.4 64.15h198.32q2 0 2-2V48.472q0-2-2-2H209.4q-2 0-2 2V62.15q0 2 2 2z" fill="#fff" opacity=".8" stroke="#ccc" id="patch_7"/><path d="M211.4 54.57h20" fill="none" stroke="#1f77b4" stroke-linecap="square" stroke-width="1.5" id="line2d_14"/><text x="239.4" y="58.07" font-family="DejaVu Sans" font-size="10" font-weight="400" id="text_16">log(1+x) (Two-Coin Special Case)</text></g></g></g><defs><clipPath id="pe9e129c754"><path d="M57.6 41.472h357.12v266.112H57.6z"/></clipPath></defs></svg>