<?xml version="1.0" encoding="utf-8" standalone="no"?>
<!DOCTYPE svg PUBLIC "-//W3C//DTD SVG 1.1//EN"
  "http://www.w3.org/Graphics/SVG/1.1/DTD/svg11.dtd">
<!-- Created with matplotlib (https://matplotlib.org/) -->
<svg height="252pt" version="1.1" viewBox="0 0 324 252" width="324pt" xmlns="http://www.w3.org/2000/svg" xmlns:xlink="http://www.w3.org/1999/xlink">
 <defs>
  <style type="text/css">
*{stroke-linecap:butt;stroke-linejoin:round;}
  </style>
 </defs>
 <g id="figure_1">
  <g id="patch_1">
   <path d="M 0 252 
L 324 252 
L 324 0 
L 0 0 
z
" style="fill:#ffffff;"/>
  </g>
  <g id="axes_1">
   <g id="patch_2">
    <path d="M 40.5 224.28 
L 291.6 224.28 
L 291.6 30.24 
L 40.5 30.24 
z
" style="fill:#ffffff;"/>
   </g>
   <g id="matplotlib.axis_1">
    <g id="xtick_1">
     <g id="line2d_1">
      <defs>
       <path d="M 0 0 
L 0 3.5 
" id="m23bef599cc" style="stroke:#000000;stroke-width:0.8;"/>
      </defs>
      <g>
       <use style="stroke:#000000;stroke-width:0.8;" x="51.890805" xlink:href="#m23bef599cc" y="224.28"/>
      </g>
     </g>
     <g id="text_1">
      <text style="font-family:DejaVu Sans;font-size:10px;font-style:normal;font-weight:normal;text-anchor:middle;" transform="rotate(-0, 51.890805, 238.878438)" x="51.890805" y="238.878438">0.0</text>
     </g>
    </g>
    <g id="xtick_2">
     <g id="line2d_2">
      <g>
       <use style="stroke:#000000;stroke-width:0.8;" x="97.554483" xlink:href="#m23bef599cc" y="224.28"/>
      </g>
     </g>
     <g id="text_2">
      <text style="font-family:DejaVu Sans;font-size:10px;font-style:normal;font-weight:normal;text-anchor:middle;" transform="rotate(-0, 97.554483, 238.878438)" x="97.554483" y="238.878438">0.2</text>
     </g>
    </g>
    <g id="xtick_3">
     <g id="line2d_3">
      <g>
       <use style="stroke:#000000;stroke-width:0.8;" x="143.218161" xlink:href="#m23bef599cc" y="224.28"/>
      </g>
     </g>
     <g id="text_3">
      <text style="font-family:DejaVu Sans;font-size:10px;font-style:normal;font-weight:normal;text-anchor:middle;" transform="rotate(-0, 143.218161, 238.878438)" x="143.218161" y="238.878438">0.4</text>
     </g>
    </g>
    <g id="xtick_4">
     <g id="line2d_4">
      <g>
       <use style="stroke:#000000;stroke-width:0.8;" x="188.881839" xlink:href="#m23bef599cc" y="224.28"/>
      </g>
     </g>
     <g id="text_4">
      <text style="font-family:DejaVu Sans;font-size:10px;font-style:normal;font-weight:normal;text-anchor:middle;" transform="rotate(-0, 188.881839, 238.878438)" x="188.881839" y="238.878438">0.6</text>
     </g>
    </g>
    <g id="xtick_5">
     <g id="line2d_5">
      <g>
       <use style="stroke:#000000;stroke-width:0.8;" x="234.545517" xlink:href="#m23bef599cc" y="224.28"/>
      </g>
     </g>
     <g id="text_5">
      <text style="font-family:DejaVu Sans;font-size:10px;font-style:normal;font-weight:normal;text-anchor:middle;" transform="rotate(-0, 234.545517, 238.878438)" x="234.545517" y="238.878438">0.8</text>
     </g>
    </g>
    <g id="xtick_6">
     <g id="line2d_6">
      <g>
       <use style="stroke:#000000;stroke-width:0.8;" x="280.209195" xlink:href="#m23bef599cc" y="224.28"/>
      </g>
     </g>
     <g id="text_6">
      <text style="font-family:DejaVu Sans;font-size:10px;font-style:normal;font-weight:normal;text-anchor:middle;" transform="rotate(-0, 280.209195, 238.878438)" x="280.209195" y="238.878438">1.0</text>
     </g>
    </g>
    <g id="text_7">
     <text style="font-family:DejaVu Sans;font-size:10px;font-style:normal;font-weight:normal;text-anchor:middle;" transform="rotate(-0, 166.05, 252.556563)" x="166.05" y="252.556563">Probability</text>
    </g>
   </g>
   <g id="matplotlib.axis_2">
    <g id="ytick_1">
     <g id="line2d_7">
      <defs>
       <path d="M 0 0 
L -3.5 0 
" id="mc3dc868731" style="stroke:#000000;stroke-width:0.8;"/>
      </defs>
      <g>
       <use style="stroke:#000000;stroke-width:0.8;" x="40.5" xlink:href="#mc3dc868731" y="216.314651"/>
      </g>
     </g>
     <g id="text_8">
      <text style="font-family:DejaVu Sans;font-size:10px;font-style:normal;font-weight:normal;text-anchor:end;" transform="rotate(-0, 33.5, 220.11387)" x="33.5" y="220.11387">2.0</text>
     </g>
    </g>
    <g id="ytick_2">
     <g id="line2d_8">
      <g>
       <use style="stroke:#000000;stroke-width:0.8;" x="40.5" xlink:href="#mc3dc868731" y="173.582093"/>
      </g>
     </g>
     <g id="text_9">
      <text style="font-family:DejaVu Sans;font-size:10px;font-style:normal;font-weight:normal;text-anchor:end;" transform="rotate(-0, 33.5, 177.381312)" x="33.5" y="177.381312">2.5</text>
     </g>
    </g>
    <g id="ytick_3">
     <g id="line2d_9">
      <g>
       <use style="stroke:#000000;stroke-width:0.8;" x="40.5" xlink:href="#mc3dc868731" y="130.849535"/>
      </g>
     </g>
     <g id="text_10">
      <text style="font-family:DejaVu Sans;font-size:10px;font-style:normal;font-weight:normal;text-anchor:end;" transform="rotate(-0, 33.5, 134.648754)" x="33.5" y="134.648754">3.0</text>
     </g>
    </g>
    <g id="ytick_4">
     <g id="line2d_10">
      <g>
       <use style="stroke:#000000;stroke-width:0.8;" x="40.5" xlink:href="#mc3dc868731" y="88.116977"/>
      </g>
     </g>
     <g id="text_11">
      <text style="font-family:DejaVu Sans;font-size:10px;font-style:normal;font-weight:normal;text-anchor:end;" transform="rotate(-0, 33.5, 91.916195)" x="33.5" y="91.916195">3.5</text>
     </g>
    </g>
    <g id="ytick_5">
     <g id="line2d_11">
      <g>
       <use style="stroke:#000000;stroke-width:0.8;" x="40.5" xlink:href="#mc3dc868731" y="45.384419"/>
      </g>
     </g>
     <g id="text_12">
      <text style="font-family:DejaVu Sans;font-size:10px;font-style:normal;font-weight:normal;text-anchor:end;" transform="rotate(-0, 33.5, 49.183637)" x="33.5" y="49.183637">4.0</text>
     </g>
    </g>
    <g id="text_13">
     <text style="font-family:DejaVu Sans;font-size:10px;font-style:normal;font-weight:normal;text-anchor:middle;" transform="rotate(-90, 11.517187, 127.26)" x="11.517187" y="127.26">Average Bits Consumed Per Call</text>
    </g>
   </g>
   <g id="line2d_12">
    <path clip-path="url(#p75a568b283)" d="M 51.913636 208.622791 
L 54.219421 210.503023 
L 56.525207 203.665814 
L 58.830992 215.46 
L 61.136777 208.964651 
L 63.442562 189.136744 
L 65.748347 214.092558 
L 68.054132 196.657674 
L 70.359917 203.836744 
L 72.665702 201.10186 
L 74.971488 202.811163 
L 77.277273 196.144884 
L 79.583058 196.828605 
L 81.888843 186.914651 
L 84.194628 198.196047 
L 86.500413 201.272791 
L 88.806198 195.632093 
L 91.111983 189.649535 
L 93.417769 189.820465 
L 95.723554 179.906512 
L 98.029339 190.333256 
L 100.335124 166.744884 
L 102.640909 183.325116 
L 104.946694 186.743721 
L 107.252479 166.232093 
L 109.558264 169.137907 
L 111.86405 180.077442 
L 114.169835 167.257674 
L 116.47562 186.40186 
L 118.781405 162.300698 
L 121.08719 171.872791 
L 123.392975 175.291395 
L 125.69876 163.155349 
L 128.004545 155.805349 
L 130.310331 155.634419 
L 132.616116 145.378605 
L 134.921901 144.523953 
L 137.227686 134.95186 
L 139.533471 155.634419 
L 141.839256 155.121628 
L 144.145041 147.087907 
L 146.450826 144.694884 
L 148.756612 149.13907 
L 151.062397 146.233256 
L 153.368182 129.140233 
L 155.673967 142.30186 
L 157.979752 145.549535 
L 160.285537 137.686744 
L 162.591322 141.276279 
L 164.897107 131.362326 
L 167.202893 128.969302 
L 169.508678 122.644884 
L 171.814463 132.216977 
L 174.120248 119.56814 
L 176.426033 129.653023 
L 178.731818 122.303023 
L 181.037603 121.619302 
L 183.343388 122.815814 
L 185.649174 120.593721 
L 187.954959 109.654186 
L 190.260744 110.166977 
L 192.566529 94.954186 
L 194.872314 105.55186 
L 197.178099 102.816977 
L 199.483884 112.73093 
L 201.789669 98.372791 
L 204.095455 111.705349 
L 206.40124 102.475116 
L 208.707025 92.561163 
L 211.01281 110.679767 
L 213.318595 101.791395 
L 215.62438 89.313488 
L 217.930165 90.68093 
L 220.23595 86.749535 
L 222.541736 103.158837 
L 224.847521 92.732093 
L 227.153306 90.16814 
L 229.459091 76.664651 
L 231.764876 73.929767 
L 234.070661 80.766977 
L 236.376446 79.912326 
L 238.682231 74.784419 
L 240.988017 79.057674 
L 243.293802 76.15186 
L 245.599587 75.63907 
L 247.905372 65.041395 
L 250.211157 77.519302 
L 252.516942 69.143721 
L 254.822727 64.357674 
L 257.128512 69.827442 
L 259.434298 69.998372 
L 261.740083 40.256512 
L 264.045868 52.563488 
L 266.351653 55.127442 
L 268.657438 43.333256 
L 270.963223 49.657674 
L 273.269008 46.58093 
L 275.574793 47.606512 
L 277.880579 49.828605 
L 280.186364 39.06 
" style="fill:none;stroke:#1f77b4;stroke-linecap:square;stroke-width:1.5;"/>
   </g>
   <g id="patch_3">
    <path d="M 40.5 224.28 
L 40.5 30.24 
" style="fill:none;stroke:#000000;stroke-linecap:square;stroke-linejoin:miter;stroke-width:0.8;"/>
   </g>
   <g id="patch_4">
    <path d="M 291.6 224.28 
L 291.6 30.24 
" style="fill:none;stroke:#000000;stroke-linecap:square;stroke-linejoin:miter;stroke-width:0.8;"/>
   </g>
   <g id="patch_5">
    <path d="M 40.5 224.28 
L 291.6 224.28 
" style="fill:none;stroke:#000000;stroke-linecap:square;stroke-linejoin:miter;stroke-width:0.8;"/>
   </g>
   <g id="patch_6">
    <path d="M 40.5 30.24 
L 291.6 30.24 
" style="fill:none;stroke:#000000;stroke-linecap:square;stroke-linejoin:miter;stroke-width:0.8;"/>
   </g>
   <g id="text_14">
    <text style="font-family:DejaVu Sans;font-size:12px;font-style:normal;font-weight:normal;text-anchor:middle;" transform="rotate(-0, 166.05, 24.24)" x="166.05" y="24.24">Avg. Bits Consumed by pow(x,2/1) Algorithm</text>
   </g>
  </g>
 </g>
 <defs>
  <clipPath id="p75a568b283">
   <rect height="194.04" width="251.1" x="40.5" y="30.24"/>
  </clipPath>
 </defs>
</svg>
