<?xml version="1.0" encoding="utf-8" standalone="no"?>
<!DOCTYPE svg PUBLIC "-//W3C//DTD SVG 1.1//EN"
  "http://www.w3.org/Graphics/SVG/1.1/DTD/svg11.dtd">
<!-- Created with matplotlib (https://matplotlib.org/) -->
<svg height="252pt" version="1.1" viewBox="0 0 324 252" width="324pt" xmlns="http://www.w3.org/2000/svg" xmlns:xlink="http://www.w3.org/1999/xlink">
 <defs>
  <style type="text/css">
*{stroke-linecap:butt;stroke-linejoin:round;}
  </style>
 </defs>
 <g id="figure_1">
  <g id="patch_1">
   <path d="M 0 252 
L 324 252 
L 324 0 
L 0 0 
z
" style="fill:#ffffff;"/>
  </g>
  <g id="axes_1">
   <g id="patch_2">
    <path d="M 40.5 224.28 
L 291.6 224.28 
L 291.6 30.24 
L 40.5 30.24 
z
" style="fill:#ffffff;"/>
   </g>
   <g id="matplotlib.axis_1">
    <g id="xtick_1">
     <g id="line2d_1">
      <defs>
       <path d="M 0 0 
L 0 3.5 
" id="m986621b0aa" style="stroke:#000000;stroke-width:0.8;"/>
      </defs>
      <g>
       <use style="stroke:#000000;stroke-width:0.8;" x="51.684906" xlink:href="#m986621b0aa" y="224.28"/>
      </g>
     </g>
     <g id="text_1">
      <text style="font-family:DejaVu Sans;font-size:10px;font-style:normal;font-weight:normal;text-anchor:middle;" transform="rotate(-0, 51.684906, 238.878438)" x="51.684906" y="238.878438">0.0</text>
     </g>
    </g>
    <g id="xtick_2">
     <g id="line2d_2">
      <g>
       <use style="stroke:#000000;stroke-width:0.8;" x="97.430944" xlink:href="#m986621b0aa" y="224.28"/>
      </g>
     </g>
     <g id="text_2">
      <text style="font-family:DejaVu Sans;font-size:10px;font-style:normal;font-weight:normal;text-anchor:middle;" transform="rotate(-0, 97.430944, 238.878438)" x="97.430944" y="238.878438">0.2</text>
     </g>
    </g>
    <g id="xtick_3">
     <g id="line2d_3">
      <g>
       <use style="stroke:#000000;stroke-width:0.8;" x="143.176981" xlink:href="#m986621b0aa" y="224.28"/>
      </g>
     </g>
     <g id="text_3">
      <text style="font-family:DejaVu Sans;font-size:10px;font-style:normal;font-weight:normal;text-anchor:middle;" transform="rotate(-0, 143.176981, 238.878438)" x="143.176981" y="238.878438">0.4</text>
     </g>
    </g>
    <g id="xtick_4">
     <g id="line2d_4">
      <g>
       <use style="stroke:#000000;stroke-width:0.8;" x="188.923019" xlink:href="#m986621b0aa" y="224.28"/>
      </g>
     </g>
     <g id="text_4">
      <text style="font-family:DejaVu Sans;font-size:10px;font-style:normal;font-weight:normal;text-anchor:middle;" transform="rotate(-0, 188.923019, 238.878438)" x="188.923019" y="238.878438">0.6</text>
     </g>
    </g>
    <g id="xtick_5">
     <g id="line2d_5">
      <g>
       <use style="stroke:#000000;stroke-width:0.8;" x="234.669056" xlink:href="#m986621b0aa" y="224.28"/>
      </g>
     </g>
     <g id="text_5">
      <text style="font-family:DejaVu Sans;font-size:10px;font-style:normal;font-weight:normal;text-anchor:middle;" transform="rotate(-0, 234.669056, 238.878438)" x="234.669056" y="238.878438">0.8</text>
     </g>
    </g>
    <g id="xtick_6">
     <g id="line2d_6">
      <g>
       <use style="stroke:#000000;stroke-width:0.8;" x="280.415094" xlink:href="#m986621b0aa" y="224.28"/>
      </g>
     </g>
     <g id="text_6">
      <text style="font-family:DejaVu Sans;font-size:10px;font-style:normal;font-weight:normal;text-anchor:middle;" transform="rotate(-0, 280.415094, 238.878438)" x="280.415094" y="238.878438">1.0</text>
     </g>
    </g>
    <g id="text_7">
     <text style="font-family:DejaVu Sans;font-size:10px;font-style:normal;font-weight:normal;text-anchor:middle;" transform="rotate(-0, 166.05, 252.556563)" x="166.05" y="252.556563">Input Coin's Heads Probability (λ)</text>
    </g>
   </g>
   <g id="matplotlib.axis_2">
    <g id="ytick_1">
     <g id="line2d_7">
      <defs>
       <path d="M 0 0 
L -3.5 0 
" id="md7bcdcad0f" style="stroke:#000000;stroke-width:0.8;"/>
      </defs>
      <g>
       <use style="stroke:#000000;stroke-width:0.8;" x="40.5" xlink:href="#md7bcdcad0f" y="193.256347"/>
      </g>
     </g>
     <g id="text_8">
      <text style="font-family:DejaVu Sans;font-size:10px;font-style:normal;font-weight:normal;text-anchor:end;" transform="rotate(-0, 33.5, 197.055566)" x="33.5" y="197.055566">0.4</text>
     </g>
    </g>
    <g id="ytick_2">
     <g id="line2d_8">
      <g>
       <use style="stroke:#000000;stroke-width:0.8;" x="40.5" xlink:href="#md7bcdcad0f" y="156.968179"/>
      </g>
     </g>
     <g id="text_9">
      <text style="font-family:DejaVu Sans;font-size:10px;font-style:normal;font-weight:normal;text-anchor:end;" transform="rotate(-0, 33.5, 160.767398)" x="33.5" y="160.767398">0.6</text>
     </g>
    </g>
    <g id="ytick_3">
     <g id="line2d_9">
      <g>
       <use style="stroke:#000000;stroke-width:0.8;" x="40.5" xlink:href="#md7bcdcad0f" y="120.680011"/>
      </g>
     </g>
     <g id="text_10">
      <text style="font-family:DejaVu Sans;font-size:10px;font-style:normal;font-weight:normal;text-anchor:end;" transform="rotate(-0, 33.5, 124.479229)" x="33.5" y="124.479229">0.8</text>
     </g>
    </g>
    <g id="ytick_4">
     <g id="line2d_10">
      <g>
       <use style="stroke:#000000;stroke-width:0.8;" x="40.5" xlink:href="#md7bcdcad0f" y="84.391842"/>
      </g>
     </g>
     <g id="text_11">
      <text style="font-family:DejaVu Sans;font-size:10px;font-style:normal;font-weight:normal;text-anchor:end;" transform="rotate(-0, 33.5, 88.191061)" x="33.5" y="88.191061">1.0</text>
     </g>
    </g>
    <g id="ytick_5">
     <g id="line2d_11">
      <g>
       <use style="stroke:#000000;stroke-width:0.8;" x="40.5" xlink:href="#md7bcdcad0f" y="48.103674"/>
      </g>
     </g>
     <g id="text_12">
      <text style="font-family:DejaVu Sans;font-size:10px;font-style:normal;font-weight:normal;text-anchor:end;" transform="rotate(-0, 33.5, 51.902893)" x="33.5" y="51.902893">1.2</text>
     </g>
    </g>
    <g id="text_13">
     <text style="font-family:DejaVu Sans;font-size:10px;font-style:normal;font-weight:normal;text-anchor:middle;" transform="rotate(-90, 11.517187, 127.26)" x="11.517187" y="127.26">Min. No. of Coin Flips Needed</text>
    </g>
    <g id="text_14">
     <text style="font-family:DejaVu Sans;font-size:10px;font-style:normal;font-weight:normal;text-anchor:start;" transform="rotate(-0, 40.5, 27.24)" x="40.5" y="27.24">1e−10</text>
    </g>
   </g>
   <g id="line2d_12">
    <path clip-path="url(#p1bfbc7cc8e)" d="M 51.913636 215.46 
L 54.219421 174.542753 
L 56.525207 159.130636 
L 58.830992 148.829243 
L 61.136777 140.966844 
L 63.442562 134.568012 
L 65.748347 129.156478 
L 68.054132 124.460803 
L 70.359917 120.310364 
L 72.665702 116.590342 
L 74.971488 113.219489 
L 77.277273 110.138037 
L 79.583058 107.300645 
L 81.888843 104.672046 
L 84.194628 102.224228 
L 86.500413 99.93455 
L 88.806198 97.784433 
L 91.111983 95.758434 
L 93.417769 93.843565 
L 95.723554 92.0288 
L 98.029339 90.304688 
L 100.335124 88.663068 
L 102.640909 87.09684 
L 104.946694 85.599786 
L 107.252479 84.166431 
L 109.558264 82.791928 
L 111.86405 81.471961 
L 114.169835 80.202675 
L 116.47562 78.980606 
L 118.781405 77.802636 
L 121.08719 76.665944 
L 123.392975 75.567968 
L 125.69876 74.506379 
L 128.004545 73.479049 
L 130.310331 72.48403 
L 132.616116 71.519535 
L 134.921901 70.58392 
L 137.227686 69.675668 
L 139.533471 68.793377 
L 141.839256 67.93575 
L 144.145041 67.101583 
L 146.450826 66.289756 
L 148.756612 65.499228 
L 151.062397 64.729026 
L 153.368182 63.978242 
L 155.673967 63.246026 
L 157.979752 62.531584 
L 160.285537 61.834167 
L 162.591322 61.153074 
L 164.897107 60.487645 
L 167.202893 59.837259 
L 169.508678 59.201328 
L 171.814463 58.579301 
L 174.120248 57.970654 
L 176.426033 57.374893 
L 178.731818 56.791548 
L 181.037603 56.220177 
L 183.343388 55.660358 
L 185.649174 55.111691 
L 187.954959 54.573797 
L 190.260744 54.046313 
L 192.566529 53.528897 
L 194.872314 53.021219 
L 197.178099 52.522968 
L 199.483884 52.033845 
L 201.789669 51.553567 
L 204.095455 51.08186 
L 206.40124 50.618465 
L 208.707025 50.163134 
L 211.01281 49.715627 
L 213.318595 49.275718 
L 215.62438 48.843188 
L 217.930165 48.417827 
L 220.23595 47.999434 
L 222.541736 47.587817 
L 224.847521 47.182789 
L 227.153306 46.784173 
L 229.459091 46.391797 
L 231.764876 46.005498 
L 234.070661 45.625115 
L 236.376446 45.250497 
L 238.682231 44.881497 
L 240.988017 44.517972 
L 243.293802 44.159787 
L 245.599587 43.806809 
L 247.905372 43.458912 
L 250.211157 43.115972 
L 252.516942 42.777872 
L 254.822727 42.444496 
L 257.128512 42.115735 
L 259.434298 41.79148 
L 261.740083 41.471629 
L 264.045868 41.156083 
L 266.351653 40.844743 
L 268.657438 40.537516 
L 270.963223 40.234311 
L 273.269008 39.935041 
L 275.574793 39.639621 
L 277.880579 39.347967 
L 280.186364 39.06 
" style="fill:none;stroke:#1f77b4;stroke-linecap:square;stroke-width:1.5;"/>
   </g>
   <g id="patch_3">
    <path d="M 40.5 224.28 
L 40.5 30.24 
" style="fill:none;stroke:#000000;stroke-linecap:square;stroke-linejoin:miter;stroke-width:0.8;"/>
   </g>
   <g id="patch_4">
    <path d="M 291.6 224.28 
L 291.6 30.24 
" style="fill:none;stroke:#000000;stroke-linecap:square;stroke-linejoin:miter;stroke-width:0.8;"/>
   </g>
   <g id="patch_5">
    <path d="M 40.5 224.28 
L 291.6 224.28 
" style="fill:none;stroke:#000000;stroke-linecap:square;stroke-linejoin:miter;stroke-width:0.8;"/>
   </g>
   <g id="patch_6">
    <path d="M 40.5 30.24 
L 291.6 30.24 
" style="fill:none;stroke:#000000;stroke-linecap:square;stroke-linejoin:miter;stroke-width:0.8;"/>
   </g>
   <g id="text_15">
    <text style="font-family:DejaVu Sans;font-size:12px;font-style:normal;font-weight:normal;text-anchor:middle;" transform="rotate(-0, 166.05, 24.24)" x="166.05" y="24.24">Coin Flip Lower Bound for pow(x,5/4)</text>
   </g>
   <g id="legend_1">
    <g id="patch_7">
     <path d="M 47.5 52.918125 
L 190.86875 52.918125 
Q 192.86875 52.918125 192.86875 50.918125 
L 192.86875 37.24 
Q 192.86875 35.24 190.86875 35.24 
L 47.5 35.24 
Q 45.5 35.24 45.5 37.24 
L 45.5 50.918125 
Q 45.5 52.918125 47.5 52.918125 
z
" style="fill:#ffffff;opacity:0.8;stroke:#cccccc;stroke-linejoin:miter;"/>
    </g>
    <g id="line2d_13">
     <path d="M 49.5 43.338437 
L 69.5 43.338437 
" style="fill:none;stroke:#1f77b4;stroke-linecap:square;stroke-width:1.5;"/>
    </g>
    <g id="line2d_14"/>
    <g id="text_16">
     <text style="font-family:DejaVu Sans;font-size:10px;font-style:normal;font-weight:normal;text-anchor:start;" transform="rotate(-0, 77.5, 46.838437)" x="77.5" y="46.838437">Coin Flip Lower Bound</text>
    </g>
   </g>
  </g>
 </g>
 <defs>
  <clipPath id="p1bfbc7cc8e">
   <rect height="194.04" width="251.1" x="40.5" y="30.24"/>
  </clipPath>
 </defs>
</svg>
