<?xml version="1.0" encoding="utf-8" standalone="no"?>
<!DOCTYPE svg PUBLIC "-//W3C//DTD SVG 1.1//EN"
  "http://www.w3.org/Graphics/SVG/1.1/DTD/svg11.dtd">
<!-- Created with matplotlib (https://matplotlib.org/) -->
<svg height="345.6pt" version="1.1" viewBox="0 0 460.8 345.6" width="460.8pt" xmlns="http://www.w3.org/2000/svg" xmlns:xlink="http://www.w3.org/1999/xlink">
 <defs>
  <style type="text/css">
*{stroke-linecap:butt;stroke-linejoin:round;}
  </style>
 </defs>
 <g id="figure_1">
  <g id="patch_1">
   <path d="M 0 345.6 
L 460.8 345.6 
L 460.8 0 
L 0 0 
z
" style="fill:#ffffff;"/>
  </g>
  <g id="axes_1">
   <g id="patch_2">
    <path d="M 57.6 307.584 
L 414.72 307.584 
L 414.72 41.472 
L 57.6 41.472 
z
" style="fill:#ffffff;"/>
   </g>
   <g id="matplotlib.axis_1">
    <g id="xtick_1">
     <g id="line2d_1">
      <defs>
       <path d="M 0 0 
L 0 3.5 
" id="m63f25e93eb" style="stroke:#000000;stroke-width:0.8;"/>
      </defs>
      <g>
       <use style="stroke:#000000;stroke-width:0.8;" x="73.800255" xlink:href="#m63f25e93eb" y="307.584"/>
      </g>
     </g>
     <g id="text_1">
      <text style="font-family:DejaVu Sans;font-size:10px;font-style:normal;font-weight:normal;text-anchor:middle;" transform="rotate(-0, 73.800255, 322.182437)" x="73.800255" y="322.182437">0.0</text>
     </g>
    </g>
    <g id="xtick_2">
     <g id="line2d_2">
      <g>
       <use style="stroke:#000000;stroke-width:0.8;" x="138.744153" xlink:href="#m63f25e93eb" y="307.584"/>
      </g>
     </g>
     <g id="text_2">
      <text style="font-family:DejaVu Sans;font-size:10px;font-style:normal;font-weight:normal;text-anchor:middle;" transform="rotate(-0, 138.744153, 322.182437)" x="138.744153" y="322.182437">0.2</text>
     </g>
    </g>
    <g id="xtick_3">
     <g id="line2d_3">
      <g>
       <use style="stroke:#000000;stroke-width:0.8;" x="203.688051" xlink:href="#m63f25e93eb" y="307.584"/>
      </g>
     </g>
     <g id="text_3">
      <text style="font-family:DejaVu Sans;font-size:10px;font-style:normal;font-weight:normal;text-anchor:middle;" transform="rotate(-0, 203.688051, 322.182437)" x="203.688051" y="322.182437">0.4</text>
     </g>
    </g>
    <g id="xtick_4">
     <g id="line2d_4">
      <g>
       <use style="stroke:#000000;stroke-width:0.8;" x="268.631949" xlink:href="#m63f25e93eb" y="307.584"/>
      </g>
     </g>
     <g id="text_4">
      <text style="font-family:DejaVu Sans;font-size:10px;font-style:normal;font-weight:normal;text-anchor:middle;" transform="rotate(-0, 268.631949, 322.182437)" x="268.631949" y="322.182437">0.6</text>
     </g>
    </g>
    <g id="xtick_5">
     <g id="line2d_5">
      <g>
       <use style="stroke:#000000;stroke-width:0.8;" x="333.575847" xlink:href="#m63f25e93eb" y="307.584"/>
      </g>
     </g>
     <g id="text_5">
      <text style="font-family:DejaVu Sans;font-size:10px;font-style:normal;font-weight:normal;text-anchor:middle;" transform="rotate(-0, 333.575847, 322.182437)" x="333.575847" y="322.182437">0.8</text>
     </g>
    </g>
    <g id="xtick_6">
     <g id="line2d_6">
      <g>
       <use style="stroke:#000000;stroke-width:0.8;" x="398.519745" xlink:href="#m63f25e93eb" y="307.584"/>
      </g>
     </g>
     <g id="text_6">
      <text style="font-family:DejaVu Sans;font-size:10px;font-style:normal;font-weight:normal;text-anchor:middle;" transform="rotate(-0, 398.519745, 322.182437)" x="398.519745" y="322.182437">1.0</text>
     </g>
    </g>
    <g id="text_7">
     <text style="font-family:DejaVu Sans;font-size:10px;font-style:normal;font-weight:normal;text-anchor:middle;" transform="rotate(-0, 236.16, 335.860562)" x="236.16" y="335.860562">Input Coin's Heads Probability (λ)</text>
    </g>
   </g>
   <g id="matplotlib.axis_2">
    <g id="ytick_1">
     <g id="line2d_7">
      <defs>
       <path d="M 0 0 
L -3.5 0 
" id="md7022897ef" style="stroke:#000000;stroke-width:0.8;"/>
      </defs>
      <g>
       <use style="stroke:#000000;stroke-width:0.8;" x="57.6" xlink:href="#md7022897ef" y="295.790856"/>
      </g>
     </g>
     <g id="text_8">
      <text style="font-family:DejaVu Sans;font-size:10px;font-style:normal;font-weight:normal;text-anchor:end;" transform="rotate(-0, 50.6, 299.590075)" x="50.6" y="299.590075">0</text>
     </g>
    </g>
    <g id="ytick_2">
     <g id="line2d_8">
      <g>
       <use style="stroke:#000000;stroke-width:0.8;" x="57.6" xlink:href="#md7022897ef" y="252.956702"/>
      </g>
     </g>
     <g id="text_9">
      <text style="font-family:DejaVu Sans;font-size:10px;font-style:normal;font-weight:normal;text-anchor:end;" transform="rotate(-0, 50.6, 256.755921)" x="50.6" y="256.755921">20</text>
     </g>
    </g>
    <g id="ytick_3">
     <g id="line2d_9">
      <g>
       <use style="stroke:#000000;stroke-width:0.8;" x="57.6" xlink:href="#md7022897ef" y="210.122548"/>
      </g>
     </g>
     <g id="text_10">
      <text style="font-family:DejaVu Sans;font-size:10px;font-style:normal;font-weight:normal;text-anchor:end;" transform="rotate(-0, 50.6, 213.921767)" x="50.6" y="213.921767">40</text>
     </g>
    </g>
    <g id="ytick_4">
     <g id="line2d_10">
      <g>
       <use style="stroke:#000000;stroke-width:0.8;" x="57.6" xlink:href="#md7022897ef" y="167.288395"/>
      </g>
     </g>
     <g id="text_11">
      <text style="font-family:DejaVu Sans;font-size:10px;font-style:normal;font-weight:normal;text-anchor:end;" transform="rotate(-0, 50.6, 171.087613)" x="50.6" y="171.087613">60</text>
     </g>
    </g>
    <g id="ytick_5">
     <g id="line2d_11">
      <g>
       <use style="stroke:#000000;stroke-width:0.8;" x="57.6" xlink:href="#md7022897ef" y="124.454241"/>
      </g>
     </g>
     <g id="text_12">
      <text style="font-family:DejaVu Sans;font-size:10px;font-style:normal;font-weight:normal;text-anchor:end;" transform="rotate(-0, 50.6, 128.25346)" x="50.6" y="128.25346">80</text>
     </g>
    </g>
    <g id="ytick_6">
     <g id="line2d_12">
      <g>
       <use style="stroke:#000000;stroke-width:0.8;" x="57.6" xlink:href="#md7022897ef" y="81.620087"/>
      </g>
     </g>
     <g id="text_13">
      <text style="font-family:DejaVu Sans;font-size:10px;font-style:normal;font-weight:normal;text-anchor:end;" transform="rotate(-0, 50.6, 85.419306)" x="50.6" y="85.419306">100</text>
     </g>
    </g>
    <g id="text_14">
     <text style="font-family:DejaVu Sans;font-size:10px;font-style:normal;font-weight:normal;text-anchor:middle;" transform="rotate(-90, 25.432813, 174.528)" x="25.432813" y="174.528">Coin Flips Needed</text>
    </g>
   </g>
   <g id="line2d_13">
    <path clip-path="url(#pac9279efae)" d="M 73.832727 295.488 
L 77.112066 294.73483 
L 80.391405 294.543826 
L 83.670744 294.41862 
L 86.950083 294.323816 
L 90.229421 294.247 
L 93.50876 294.182219 
L 96.788099 294.126118 
L 100.067438 294.076604 
L 103.346777 294.032274 
L 106.626116 293.992141 
L 109.905455 293.955481 
L 113.184793 293.921745 
L 116.464132 293.890507 
L 119.743471 293.861431 
L 123.02281 293.834244 
L 126.302149 293.808723 
L 129.581488 293.784683 
L 132.860826 293.761967 
L 136.140165 293.740444 
L 139.419504 293.72 
L 142.698843 293.700539 
L 145.978182 293.681975 
L 149.257521 293.664234 
L 152.53686 293.64725 
L 155.816198 293.630966 
L 159.095537 293.61533 
L 162.374876 293.600297 
L 165.654215 293.585824 
L 168.933554 293.571875 
L 172.212893 293.558417 
L 175.492231 293.545418 
L 178.77157 293.532851 
L 182.050909 293.52069 
L 185.330248 293.508913 
L 188.609587 293.497498 
L 191.888926 293.486426 
L 195.168264 293.475678 
L 198.447603 293.465239 
L 201.726942 293.455091 
L 205.006281 293.445222 
L 208.28562 293.435618 
L 211.564959 293.426267 
L 214.844298 293.417156 
L 218.123636 293.408275 
L 221.402975 293.399615 
L 224.682314 293.391165 
L 227.961653 293.382917 
L 231.240992 293.374862 
L 234.520331 293.366993 
L 237.799669 293.359302 
L 241.079008 293.351782 
L 244.358347 293.344427 
L 247.637686 293.337231 
L 250.917025 293.330187 
L 254.196364 293.32329 
L 257.475702 293.316535 
L 260.755041 293.309917 
L 264.03438 293.30343 
L 267.313719 293.297072 
L 270.593058 293.290836 
L 273.872397 293.28472 
L 277.151736 293.278719 
L 280.431074 293.27283 
L 283.710413 293.267048 
L 286.989752 293.261372 
L 290.269091 293.255797 
L 293.54843 293.25032 
L 296.827769 293.244939 
L 300.107107 293.23965 
L 303.386446 293.234451 
L 306.665785 293.22934 
L 309.945124 293.224313 
L 313.224463 293.219369 
L 316.503802 293.214505 
L 319.78314 293.209719 
L 323.062479 293.205008 
L 326.341818 293.200372 
L 329.621157 293.195808 
L 332.900496 293.191313 
L 336.179835 293.186887 
L 339.459174 293.182527 
L 342.738512 293.178232 
L 346.017851 293.174 
L 349.29719 293.16983 
L 352.576529 293.16572 
L 355.855868 293.161668 
L 359.135207 293.157674 
L 362.414545 293.153735 
L 365.693884 293.149851 
L 368.973223 293.146021 
L 372.252562 293.142242 
L 375.531901 293.138515 
L 378.81124 293.134837 
L 382.090579 293.131208 
L 385.369917 293.127626 
L 388.649256 293.124091 
L 391.928595 293.120601 
L 395.207934 293.117156 
L 398.487273 293.113755 
" style="fill:none;stroke:#1f77b4;stroke-linecap:square;stroke-width:1.5;"/>
   </g>
   <g id="line2d_14">
    <path clip-path="url(#pac9279efae)" d="M 73.832727 53.568 
L 77.112066 274.112491 
L 80.391405 282.182445 
L 83.670744 284.945248 
L 86.950083 284.148533 
L 90.229421 285.403574 
L 93.50876 287.14264 
L 96.788099 287.626666 
L 100.067438 286.495845 
L 103.346777 287.84512 
L 106.626116 287.433913 
L 109.905455 288.217778 
L 113.184793 288.093559 
L 116.464132 289.142995 
L 119.743471 289.23723 
L 123.02281 289.19868 
L 126.302149 289.824058 
L 129.581488 289.160129 
L 132.860826 289.459968 
L 136.140165 289.442834 
L 139.419504 289.113011 
L 142.698843 289.54992 
L 145.978182 289.481385 
L 149.257521 289.849759 
L 152.53686 289.524219 
L 155.816198 290.128181 
L 159.095537 290.200999 
L 162.374876 290.166732 
L 165.654215 290.410886 
L 168.933554 290.119614 
L 172.212893 290.209566 
L 175.492231 290.106764 
L 178.77157 290.526538 
L 182.050909 290.547956 
L 185.330248 290.385186 
L 188.609587 290.60364 
L 191.888926 290.423736 
L 195.168264 290.723576 
L 198.447603 290.368052 
L 201.726942 290.693592 
L 205.006281 290.787827 
L 208.28562 290.924896 
L 211.564959 290.787827 
L 214.844298 290.959163 
L 218.123636 290.796394 
L 221.402975 290.530822 
L 224.682314 291.006281 
L 227.961653 290.903479 
L 231.240992 290.950597 
L 234.520331 291.066249 
L 237.799669 290.869212 
L 241.079008 290.937746 
L 244.358347 291.006281 
L 247.637686 291.070532 
L 250.917025 291.001998 
L 254.196364 291.014848 
L 257.475702 291.203318 
L 260.755041 291.036265 
L 264.03438 291.250436 
L 267.313719 291.091949 
L 270.593058 291.061965 
L 273.872397 291.160484 
L 277.151736 291.190468 
L 280.431074 291.370371 
L 283.710413 291.237585 
L 286.989752 291.074816 
L 290.269091 291.233302 
L 293.54843 291.259002 
L 296.827769 291.28042 
L 300.107107 291.297553 
L 303.386446 291.314687 
L 306.665785 291.271853 
L 309.945124 291.259002 
L 313.224463 291.211885 
L 316.503802 291.301837 
L 319.78314 291.361804 
L 323.062479 291.361804 
L 326.341818 291.241869 
L 329.621157 291.396072 
L 332.900496 291.331821 
L 336.179835 291.383222 
L 339.459174 291.404639 
L 342.738512 291.331821 
L 346.017851 291.387505 
L 349.29719 291.374655 
L 352.576529 291.421772 
L 355.855868 291.473173 
L 359.135207 291.340387 
L 362.414545 291.438906 
L 365.693884 291.438906 
L 368.973223 291.490307 
L 372.252562 291.434623 
L 375.531901 291.46889 
L 378.81124 291.498874 
L 382.090579 291.490307 
L 385.369917 291.486023 
L 388.649256 291.511724 
L 391.928595 291.473173 
L 395.207934 291.498874 
L 398.487273 291.507441 
" style="fill:none;stroke:#ff7f0e;stroke-linecap:square;stroke-width:1.5;"/>
   </g>
   <g id="patch_3">
    <path d="M 57.6 307.584 
L 57.6 41.472 
" style="fill:none;stroke:#000000;stroke-linecap:square;stroke-linejoin:miter;stroke-width:0.8;"/>
   </g>
   <g id="patch_4">
    <path d="M 414.72 307.584 
L 414.72 41.472 
" style="fill:none;stroke:#000000;stroke-linecap:square;stroke-linejoin:miter;stroke-width:0.8;"/>
   </g>
   <g id="patch_5">
    <path d="M 57.6 307.584 
L 414.72 307.584 
" style="fill:none;stroke:#000000;stroke-linecap:square;stroke-linejoin:miter;stroke-width:0.8;"/>
   </g>
   <g id="patch_6">
    <path d="M 57.6 41.472 
L 414.72 41.472 
" style="fill:none;stroke:#000000;stroke-linecap:square;stroke-linejoin:miter;stroke-width:0.8;"/>
   </g>
   <g id="text_15">
    <text style="font-family:DejaVu Sans;font-size:12px;font-style:normal;font-weight:normal;text-anchor:middle;" transform="rotate(-0, 236.16, 35.472)" x="236.16" y="35.472">Coin Flips for pow(x,5/4)</text>
   </g>
   <g id="legend_1">
    <g id="patch_7">
     <path d="M 219.784062 78.82825 
L 407.72 78.82825 
Q 409.72 78.82825 409.72 76.82825 
L 409.72 48.472 
Q 409.72 46.472 407.72 46.472 
L 219.784062 46.472 
Q 217.784062 46.472 217.784062 48.472 
L 217.784062 76.82825 
Q 217.784062 78.82825 219.784062 78.82825 
z
" style="fill:#ffffff;opacity:0.8;stroke:#cccccc;stroke-linejoin:miter;"/>
    </g>
    <g id="line2d_15">
     <path d="M 221.784062 54.570437 
L 241.784062 54.570437 
" style="fill:none;stroke:#1f77b4;stroke-linecap:square;stroke-width:1.5;"/>
    </g>
    <g id="line2d_16"/>
    <g id="text_16">
     <text style="font-family:DejaVu Sans;font-size:10px;font-style:normal;font-weight:normal;text-anchor:start;" transform="rotate(-0, 249.784062, 58.070437)" x="249.784062" y="58.070437">Coin Flip Lower Bound (Mendo)</text>
    </g>
    <g id="line2d_17">
     <path d="M 221.784062 69.248562 
L 241.784062 69.248562 
" style="fill:none;stroke:#ff7f0e;stroke-linecap:square;stroke-width:1.5;"/>
    </g>
    <g id="line2d_18"/>
    <g id="text_17">
     <text style="font-family:DejaVu Sans;font-size:10px;font-style:normal;font-weight:normal;text-anchor:start;" transform="rotate(-0, 249.784062, 72.748562)" x="249.784062" y="72.748562">Avg. Coins Flipped pow(x,5/4)</text>
    </g>
   </g>
  </g>
 </g>
 <defs>
  <clipPath id="pac9279efae">
   <rect height="266.112" width="357.12" x="57.6" y="41.472"/>
  </clipPath>
 </defs>
</svg>
