<?xml version="1.0" encoding="utf-8" standalone="no"?>
<!DOCTYPE svg PUBLIC "-//W3C//DTD SVG 1.1//EN"
  "http://www.w3.org/Graphics/SVG/1.1/DTD/svg11.dtd">
<!-- Created with matplotlib (https://matplotlib.org/) -->
<svg height="252pt" version="1.1" viewBox="0 0 324 252" width="324pt" xmlns="http://www.w3.org/2000/svg" xmlns:xlink="http://www.w3.org/1999/xlink">
 <defs>
  <style type="text/css">
*{stroke-linecap:butt;stroke-linejoin:round;}
  </style>
 </defs>
 <g id="figure_1">
  <g id="patch_1">
   <path d="M 0 252 
L 324 252 
L 324 0 
L 0 0 
z
" style="fill:#ffffff;"/>
  </g>
  <g id="axes_1">
   <g id="patch_2">
    <path d="M 40.5 224.28 
L 291.6 224.28 
L 291.6 30.24 
L 40.5 30.24 
z
" style="fill:#ffffff;"/>
   </g>
   <g id="matplotlib.axis_1">
    <g id="xtick_1">
     <g id="line2d_1">
      <defs>
       <path d="M 0 0 
L 0 3.5 
" id="m3ed0c5c3fb" style="stroke:#000000;stroke-width:0.8;"/>
      </defs>
      <g>
       <use style="stroke:#000000;stroke-width:0.8;" x="51.890805" xlink:href="#m3ed0c5c3fb" y="224.28"/>
      </g>
     </g>
     <g id="text_1">
      <text style="font-family:DejaVu Sans;font-size:10px;font-style:normal;font-weight:normal;text-anchor:middle;" transform="rotate(-0, 51.890805, 238.878438)" x="51.890805" y="238.878438">0.0</text>
     </g>
    </g>
    <g id="xtick_2">
     <g id="line2d_2">
      <g>
       <use style="stroke:#000000;stroke-width:0.8;" x="97.554483" xlink:href="#m3ed0c5c3fb" y="224.28"/>
      </g>
     </g>
     <g id="text_2">
      <text style="font-family:DejaVu Sans;font-size:10px;font-style:normal;font-weight:normal;text-anchor:middle;" transform="rotate(-0, 97.554483, 238.878438)" x="97.554483" y="238.878438">0.2</text>
     </g>
    </g>
    <g id="xtick_3">
     <g id="line2d_3">
      <g>
       <use style="stroke:#000000;stroke-width:0.8;" x="143.218161" xlink:href="#m3ed0c5c3fb" y="224.28"/>
      </g>
     </g>
     <g id="text_3">
      <text style="font-family:DejaVu Sans;font-size:10px;font-style:normal;font-weight:normal;text-anchor:middle;" transform="rotate(-0, 143.218161, 238.878438)" x="143.218161" y="238.878438">0.4</text>
     </g>
    </g>
    <g id="xtick_4">
     <g id="line2d_4">
      <g>
       <use style="stroke:#000000;stroke-width:0.8;" x="188.881839" xlink:href="#m3ed0c5c3fb" y="224.28"/>
      </g>
     </g>
     <g id="text_4">
      <text style="font-family:DejaVu Sans;font-size:10px;font-style:normal;font-weight:normal;text-anchor:middle;" transform="rotate(-0, 188.881839, 238.878438)" x="188.881839" y="238.878438">0.6</text>
     </g>
    </g>
    <g id="xtick_5">
     <g id="line2d_5">
      <g>
       <use style="stroke:#000000;stroke-width:0.8;" x="234.545517" xlink:href="#m3ed0c5c3fb" y="224.28"/>
      </g>
     </g>
     <g id="text_5">
      <text style="font-family:DejaVu Sans;font-size:10px;font-style:normal;font-weight:normal;text-anchor:middle;" transform="rotate(-0, 234.545517, 238.878438)" x="234.545517" y="238.878438">0.8</text>
     </g>
    </g>
    <g id="xtick_6">
     <g id="line2d_6">
      <g>
       <use style="stroke:#000000;stroke-width:0.8;" x="280.209195" xlink:href="#m3ed0c5c3fb" y="224.28"/>
      </g>
     </g>
     <g id="text_6">
      <text style="font-family:DejaVu Sans;font-size:10px;font-style:normal;font-weight:normal;text-anchor:middle;" transform="rotate(-0, 280.209195, 238.878438)" x="280.209195" y="238.878438">1.0</text>
     </g>
    </g>
    <g id="text_7">
     <text style="font-family:DejaVu Sans;font-size:10px;font-style:normal;font-weight:normal;text-anchor:middle;" transform="rotate(-0, 166.05, 252.556563)" x="166.05" y="252.556563">Input Coin's Heads Probability (λ)</text>
    </g>
   </g>
   <g id="matplotlib.axis_2">
    <g id="ytick_1">
     <g id="line2d_7">
      <defs>
       <path d="M 0 0 
L -3.5 0 
" id="mb40a0844f1" style="stroke:#000000;stroke-width:0.8;"/>
      </defs>
      <g>
       <use style="stroke:#000000;stroke-width:0.8;" x="40.5" xlink:href="#mb40a0844f1" y="187.920759"/>
      </g>
     </g>
     <g id="text_8">
      <text style="font-family:DejaVu Sans;font-size:10px;font-style:normal;font-weight:normal;text-anchor:end;" transform="rotate(-0, 33.5, 191.719978)" x="33.5" y="191.719978">0.2</text>
     </g>
    </g>
    <g id="ytick_2">
     <g id="line2d_8">
      <g>
       <use style="stroke:#000000;stroke-width:0.8;" x="40.5" xlink:href="#mb40a0844f1" y="150.70557"/>
      </g>
     </g>
     <g id="text_9">
      <text style="font-family:DejaVu Sans;font-size:10px;font-style:normal;font-weight:normal;text-anchor:end;" transform="rotate(-0, 33.5, 154.504788)" x="33.5" y="154.504788">0.4</text>
     </g>
    </g>
    <g id="ytick_3">
     <g id="line2d_9">
      <g>
       <use style="stroke:#000000;stroke-width:0.8;" x="40.5" xlink:href="#mb40a0844f1" y="113.49038"/>
      </g>
     </g>
     <g id="text_10">
      <text style="font-family:DejaVu Sans;font-size:10px;font-style:normal;font-weight:normal;text-anchor:end;" transform="rotate(-0, 33.5, 117.289598)" x="33.5" y="117.289598">0.6</text>
     </g>
    </g>
    <g id="ytick_4">
     <g id="line2d_10">
      <g>
       <use style="stroke:#000000;stroke-width:0.8;" x="40.5" xlink:href="#mb40a0844f1" y="76.27519"/>
      </g>
     </g>
     <g id="text_11">
      <text style="font-family:DejaVu Sans;font-size:10px;font-style:normal;font-weight:normal;text-anchor:end;" transform="rotate(-0, 33.5, 80.074409)" x="33.5" y="80.074409">0.8</text>
     </g>
    </g>
    <g id="ytick_5">
     <g id="line2d_11">
      <g>
       <use style="stroke:#000000;stroke-width:0.8;" x="40.5" xlink:href="#mb40a0844f1" y="39.06"/>
      </g>
     </g>
     <g id="text_12">
      <text style="font-family:DejaVu Sans;font-size:10px;font-style:normal;font-weight:normal;text-anchor:end;" transform="rotate(-0, 33.5, 42.859219)" x="33.5" y="42.859219">1.0</text>
     </g>
    </g>
    <g id="text_13">
     <text style="font-family:DejaVu Sans;font-size:10px;font-style:normal;font-weight:normal;text-anchor:middle;" transform="rotate(-90, 11.517187, 127.26)" x="11.517187" y="127.26">Simulated Mean / Function Value</text>
    </g>
   </g>
   <g id="line2d_12">
    <path clip-path="url(#p6be53325fe)" d="M 52.119123 206.528354 
L 54.420757 183.65194 
L 56.722391 173.667646 
L 59.024025 166.530435 
L 61.325658 160.804747 
L 63.627292 155.949242 
L 65.928926 151.693648 
L 68.23056 147.88121 
L 70.532194 144.411944 
L 72.833828 141.217702 
L 75.135462 138.249711 
L 77.437096 135.471718 
L 79.738729 132.855955 
L 82.040363 130.38063 
L 84.341997 128.028287 
L 86.643631 125.784702 
L 88.945265 123.638115 
L 91.246899 121.578675 
L 93.548533 119.598043 
L 95.850167 117.689087 
L 98.151801 115.845653 
L 100.453434 114.062393 
L 102.755068 112.334625 
L 105.056702 110.658223 
L 107.358336 109.029532 
L 109.65997 107.445295 
L 111.961604 105.902599 
L 114.263238 104.398821 
L 116.564872 102.931598 
L 118.866505 101.498785 
L 121.168139 100.098434 
L 123.469773 98.728765 
L 125.771407 97.388152 
L 128.073041 96.0751 
L 130.374675 94.788236 
L 132.676309 93.526292 
L 134.977943 92.288095 
L 137.279576 91.072558 
L 139.58121 89.878673 
L 141.882844 88.7055 
L 144.184478 87.552163 
L 146.486112 86.417846 
L 148.787746 85.301782 
L 151.08938 84.203254 
L 153.391014 83.121591 
L 155.692648 82.056157 
L 157.994281 81.00636 
L 160.295915 79.971636 
L 162.597549 78.951457 
L 164.899183 77.945321 
L 167.200817 76.952755 
L 169.502451 75.973312 
L 171.804085 75.006564 
L 174.105719 74.05211 
L 176.407352 73.109564 
L 178.708986 72.178564 
L 181.01062 71.25876 
L 183.312254 70.349824 
L 185.613888 69.451439 
L 187.915522 68.563304 
L 190.217156 67.685132 
L 192.51879 66.816649 
L 194.820424 65.95759 
L 197.122057 65.107705 
L 199.423691 64.266753 
L 201.725325 63.434502 
L 204.026959 62.610732 
L 206.328593 61.795228 
L 208.630227 60.987787 
L 210.931861 60.188212 
L 213.233495 59.396315 
L 215.535128 58.611914 
L 217.836762 57.834833 
L 220.138396 57.064906 
L 222.44003 56.301968 
L 224.741664 55.545864 
L 227.043298 54.796442 
L 229.344932 54.053558 
L 231.646566 53.317069 
L 233.948199 52.586841 
L 236.249833 51.862742 
L 238.551467 51.144644 
L 240.853101 50.432426 
L 243.154735 49.725967 
L 245.456369 49.025154 
L 247.758003 48.329875 
L 250.059637 47.640021 
L 252.361271 46.955488 
L 254.662904 46.276175 
L 256.964538 45.601983 
L 259.266172 44.932817 
L 261.567806 44.268585 
L 263.86944 43.609195 
L 266.171074 42.954561 
L 268.472708 42.304599 
L 270.774342 41.659225 
L 273.075975 41.01836 
L 275.377609 40.381925 
L 277.679243 39.749845 
L 279.980877 39.122046 
" style="fill:none;stroke:#1f77b4;stroke-linecap:square;stroke-width:1.5;"/>
   </g>
   <g id="line2d_13">
    <path clip-path="url(#p6be53325fe)" d="M 51.913636 215.46 
L 54.219421 179.733418 
L 56.525207 173.034684 
L 58.830992 167.452405 
L 61.136777 159.637215 
L 63.442562 159.637215 
L 65.748347 154.799241 
L 68.054132 146.984051 
L 70.359917 144.006835 
L 72.665702 141.773924 
L 74.971488 138.424557 
L 77.277273 132.842278 
L 79.583058 130.609367 
L 81.888843 129.865063 
L 84.194628 129.865063 
L 86.500413 121.677722 
L 88.806198 119.44481 
L 91.111983 117.211899 
L 93.417769 123.538481 
L 95.723554 119.072658 
L 98.029339 125.399241 
L 100.335124 116.467595 
L 102.640909 107.908101 
L 104.946694 109.396709 
L 107.252479 103.81443 
L 109.558264 107.163797 
L 111.86405 108.280253 
L 114.169835 103.81443 
L 116.47562 95.254937 
L 118.781405 96.371392 
L 121.08719 98.604304 
L 123.392975 103.070127 
L 125.69876 90.04481 
L 128.004545 97.86 
L 130.310331 95.999241 
L 132.616116 87.811899 
L 134.921901 94.510633 
L 137.227686 92.277722 
L 139.533471 86.695443 
L 141.839256 86.695443 
L 144.145041 94.138481 
L 146.450826 88.184051 
L 148.756612 82.973924 
L 151.062397 75.903038 
L 153.368182 83.718228 
L 155.673967 74.042278 
L 157.979752 76.647342 
L 160.285537 80.741013 
L 162.591322 84.834684 
L 164.897107 82.601772 
L 167.202893 74.786582 
L 169.508678 83.346076 
L 171.814463 74.786582 
L 174.120248 78.880253 
L 176.426033 71.809367 
L 178.731818 75.903038 
L 181.037603 71.437215 
L 183.343388 69.204304 
L 185.649174 66.971392 
L 187.954959 72.181519 
L 190.260744 65.854937 
L 192.566529 67.343544 
L 194.872314 63.994177 
L 197.178099 63.249873 
L 199.483884 68.087848 
L 201.789669 62.133418 
L 204.095455 65.854937 
L 206.40124 60.272658 
L 208.707025 59.528354 
L 211.01281 60.64481 
L 213.318595 58.784051 
L 215.62438 59.528354 
L 217.930165 55.806835 
L 220.23595 54.69038 
L 222.541736 53.201772 
L 224.847521 55.434684 
L 227.153306 54.69038 
L 229.459091 53.201772 
L 231.764876 55.062532 
L 234.070661 53.201772 
L 236.376446 49.852405 
L 238.682231 53.201772 
L 240.988017 50.968861 
L 243.293802 52.085316 
L 245.599587 49.852405 
L 247.905372 46.503038 
L 250.211157 48.735949 
L 252.516942 46.503038 
L 254.822727 47.247342 
L 257.128512 47.991646 
L 259.434298 42.409367 
L 261.740083 44.642278 
L 264.045868 43.153671 
L 266.351653 40.920759 
L 268.657438 42.409367 
L 270.963223 40.920759 
L 273.269008 40.548608 
L 275.574793 40.176456 
L 277.880579 40.176456 
L 280.186364 39.06 
" style="fill:none;stroke:#ff7f0e;stroke-linecap:square;stroke-width:1.5;"/>
   </g>
   <g id="patch_3">
    <path d="M 40.5 224.28 
L 40.5 30.24 
" style="fill:none;stroke:#000000;stroke-linecap:square;stroke-linejoin:miter;stroke-width:0.8;"/>
   </g>
   <g id="patch_4">
    <path d="M 291.6 224.28 
L 291.6 30.24 
" style="fill:none;stroke:#000000;stroke-linecap:square;stroke-linejoin:miter;stroke-width:0.8;"/>
   </g>
   <g id="patch_5">
    <path d="M 40.5 224.28 
L 291.6 224.28 
" style="fill:none;stroke:#000000;stroke-linecap:square;stroke-linejoin:miter;stroke-width:0.8;"/>
   </g>
   <g id="patch_6">
    <path d="M 40.5 30.24 
L 291.6 30.24 
" style="fill:none;stroke:#000000;stroke-linecap:square;stroke-linejoin:miter;stroke-width:0.8;"/>
   </g>
   <g id="text_14">
    <text style="font-family:DejaVu Sans;font-size:12px;font-style:normal;font-weight:normal;text-anchor:middle;" transform="rotate(-0, 166.05, 24.24)" x="166.05" y="24.24">Expected Value in pow(x,1/3) Algorithm</text>
   </g>
   <g id="legend_1">
    <g id="patch_7">
     <path d="M 102.007813 219.28 
L 284.6 219.28 
Q 286.6 219.28 286.6 217.28 
L 286.6 188.92375 
Q 286.6 186.92375 284.6 186.92375 
L 102.007813 186.92375 
Q 100.007813 186.92375 100.007813 188.92375 
L 100.007813 217.28 
Q 100.007813 219.28 102.007813 219.28 
z
" style="fill:#ffffff;opacity:0.8;stroke:#cccccc;stroke-linejoin:miter;"/>
    </g>
    <g id="line2d_14">
     <path d="M 104.007813 195.022188 
L 124.007813 195.022188 
" style="fill:none;stroke:#1f77b4;stroke-linecap:square;stroke-width:1.5;"/>
    </g>
    <g id="line2d_15"/>
    <g id="text_15">
     <text style="font-family:DejaVu Sans;font-size:10px;font-style:normal;font-weight:normal;text-anchor:start;" transform="rotate(-0, 132.007813, 198.522188)" x="132.007813" y="198.522188">pow(x,1/3)</text>
    </g>
    <g id="line2d_16">
     <path d="M 104.007813 209.700312 
L 124.007813 209.700312 
" style="fill:none;stroke:#ff7f0e;stroke-linecap:square;stroke-width:1.5;"/>
    </g>
    <g id="line2d_17"/>
    <g id="text_16">
     <text style="font-family:DejaVu Sans;font-size:10px;font-style:normal;font-weight:normal;text-anchor:start;" transform="rotate(-0, 132.007813, 213.200312)" x="132.007813" y="213.200312">Simulated Mean of pow(x,1/3)</text>
    </g>
   </g>
  </g>
 </g>
 <defs>
  <clipPath id="p6be53325fe">
   <rect height="194.04" width="251.1" x="40.5" y="30.24"/>
  </clipPath>
 </defs>
</svg>
