<?xml version="1.0" encoding="utf-8" standalone="no"?>
<!DOCTYPE svg PUBLIC "-//W3C//DTD SVG 1.1//EN"
  "http://www.w3.org/Graphics/SVG/1.1/DTD/svg11.dtd">
<!-- Created with matplotlib (https://matplotlib.org/) -->
<svg height="252pt" version="1.1" viewBox="0 0 324 252" width="324pt" xmlns="http://www.w3.org/2000/svg" xmlns:xlink="http://www.w3.org/1999/xlink">
 <defs>
  <style type="text/css">
*{stroke-linecap:butt;stroke-linejoin:round;}
  </style>
 </defs>
 <g id="figure_1">
  <g id="patch_1">
   <path d="M 0 252 
L 324 252 
L 324 0 
L 0 0 
z
" style="fill:#ffffff;"/>
  </g>
  <g id="axes_1">
   <g id="patch_2">
    <path d="M 40.5 224.28 
L 291.6 224.28 
L 291.6 30.24 
L 40.5 30.24 
z
" style="fill:#ffffff;"/>
   </g>
   <g id="matplotlib.axis_1">
    <g id="xtick_1">
     <g id="line2d_1">
      <defs>
       <path d="M 0 0 
L 0 3.5 
" id="mb2696483a4" style="stroke:#000000;stroke-width:0.8;"/>
      </defs>
      <g>
       <use style="stroke:#000000;stroke-width:0.8;" x="51.890805" xlink:href="#mb2696483a4" y="224.28"/>
      </g>
     </g>
     <g id="text_1">
      <text style="font-family:DejaVu Sans;font-size:10px;font-style:normal;font-weight:normal;text-anchor:middle;" transform="rotate(-0, 51.890805, 238.878438)" x="51.890805" y="238.878438">0.0</text>
     </g>
    </g>
    <g id="xtick_2">
     <g id="line2d_2">
      <g>
       <use style="stroke:#000000;stroke-width:0.8;" x="97.554483" xlink:href="#mb2696483a4" y="224.28"/>
      </g>
     </g>
     <g id="text_2">
      <text style="font-family:DejaVu Sans;font-size:10px;font-style:normal;font-weight:normal;text-anchor:middle;" transform="rotate(-0, 97.554483, 238.878438)" x="97.554483" y="238.878438">0.2</text>
     </g>
    </g>
    <g id="xtick_3">
     <g id="line2d_3">
      <g>
       <use style="stroke:#000000;stroke-width:0.8;" x="143.218161" xlink:href="#mb2696483a4" y="224.28"/>
      </g>
     </g>
     <g id="text_3">
      <text style="font-family:DejaVu Sans;font-size:10px;font-style:normal;font-weight:normal;text-anchor:middle;" transform="rotate(-0, 143.218161, 238.878438)" x="143.218161" y="238.878438">0.4</text>
     </g>
    </g>
    <g id="xtick_4">
     <g id="line2d_4">
      <g>
       <use style="stroke:#000000;stroke-width:0.8;" x="188.881839" xlink:href="#mb2696483a4" y="224.28"/>
      </g>
     </g>
     <g id="text_4">
      <text style="font-family:DejaVu Sans;font-size:10px;font-style:normal;font-weight:normal;text-anchor:middle;" transform="rotate(-0, 188.881839, 238.878438)" x="188.881839" y="238.878438">0.6</text>
     </g>
    </g>
    <g id="xtick_5">
     <g id="line2d_5">
      <g>
       <use style="stroke:#000000;stroke-width:0.8;" x="234.545517" xlink:href="#mb2696483a4" y="224.28"/>
      </g>
     </g>
     <g id="text_5">
      <text style="font-family:DejaVu Sans;font-size:10px;font-style:normal;font-weight:normal;text-anchor:middle;" transform="rotate(-0, 234.545517, 238.878438)" x="234.545517" y="238.878438">0.8</text>
     </g>
    </g>
    <g id="xtick_6">
     <g id="line2d_6">
      <g>
       <use style="stroke:#000000;stroke-width:0.8;" x="280.209195" xlink:href="#mb2696483a4" y="224.28"/>
      </g>
     </g>
     <g id="text_6">
      <text style="font-family:DejaVu Sans;font-size:10px;font-style:normal;font-weight:normal;text-anchor:middle;" transform="rotate(-0, 280.209195, 238.878438)" x="280.209195" y="238.878438">1.0</text>
     </g>
    </g>
    <g id="text_7">
     <text style="font-family:DejaVu Sans;font-size:10px;font-style:normal;font-weight:normal;text-anchor:middle;" transform="rotate(-0, 166.05, 252.556563)" x="166.05" y="252.556563">Probability</text>
    </g>
   </g>
   <g id="matplotlib.axis_2">
    <g id="ytick_1">
     <g id="line2d_7">
      <defs>
       <path d="M 0 0 
L -3.5 0 
" id="m2e8fdf7c15" style="stroke:#000000;stroke-width:0.8;"/>
      </defs>
      <g>
       <use style="stroke:#000000;stroke-width:0.8;" x="40.5" xlink:href="#m2e8fdf7c15" y="199.414183"/>
      </g>
     </g>
     <g id="text_8">
      <text style="font-family:DejaVu Sans;font-size:10px;font-style:normal;font-weight:normal;text-anchor:end;" transform="rotate(-0, 33.5, 203.213401)" x="33.5" y="203.213401">5</text>
     </g>
    </g>
    <g id="ytick_2">
     <g id="line2d_8">
      <g>
       <use style="stroke:#000000;stroke-width:0.8;" x="40.5" xlink:href="#m2e8fdf7c15" y="173.416423"/>
      </g>
     </g>
     <g id="text_9">
      <text style="font-family:DejaVu Sans;font-size:10px;font-style:normal;font-weight:normal;text-anchor:end;" transform="rotate(-0, 33.5, 177.215642)" x="33.5" y="177.215642">10</text>
     </g>
    </g>
    <g id="ytick_3">
     <g id="line2d_9">
      <g>
       <use style="stroke:#000000;stroke-width:0.8;" x="40.5" xlink:href="#m2e8fdf7c15" y="147.418663"/>
      </g>
     </g>
     <g id="text_10">
      <text style="font-family:DejaVu Sans;font-size:10px;font-style:normal;font-weight:normal;text-anchor:end;" transform="rotate(-0, 33.5, 151.217882)" x="33.5" y="151.217882">15</text>
     </g>
    </g>
    <g id="ytick_4">
     <g id="line2d_10">
      <g>
       <use style="stroke:#000000;stroke-width:0.8;" x="40.5" xlink:href="#m2e8fdf7c15" y="121.420903"/>
      </g>
     </g>
     <g id="text_11">
      <text style="font-family:DejaVu Sans;font-size:10px;font-style:normal;font-weight:normal;text-anchor:end;" transform="rotate(-0, 33.5, 125.220122)" x="33.5" y="125.220122">20</text>
     </g>
    </g>
    <g id="ytick_5">
     <g id="line2d_11">
      <g>
       <use style="stroke:#000000;stroke-width:0.8;" x="40.5" xlink:href="#m2e8fdf7c15" y="95.423143"/>
      </g>
     </g>
     <g id="text_12">
      <text style="font-family:DejaVu Sans;font-size:10px;font-style:normal;font-weight:normal;text-anchor:end;" transform="rotate(-0, 33.5, 99.222362)" x="33.5" y="99.222362">25</text>
     </g>
    </g>
    <g id="ytick_6">
     <g id="line2d_12">
      <g>
       <use style="stroke:#000000;stroke-width:0.8;" x="40.5" xlink:href="#m2e8fdf7c15" y="69.425383"/>
      </g>
     </g>
     <g id="text_13">
      <text style="font-family:DejaVu Sans;font-size:10px;font-style:normal;font-weight:normal;text-anchor:end;" transform="rotate(-0, 33.5, 73.224602)" x="33.5" y="73.224602">30</text>
     </g>
    </g>
    <g id="ytick_7">
     <g id="line2d_13">
      <g>
       <use style="stroke:#000000;stroke-width:0.8;" x="40.5" xlink:href="#m2e8fdf7c15" y="43.427624"/>
      </g>
     </g>
     <g id="text_14">
      <text style="font-family:DejaVu Sans;font-size:10px;font-style:normal;font-weight:normal;text-anchor:end;" transform="rotate(-0, 33.5, 47.226842)" x="33.5" y="47.226842">35</text>
     </g>
    </g>
    <g id="text_15">
     <text style="font-family:DejaVu Sans;font-size:10px;font-style:normal;font-weight:normal;text-anchor:middle;" transform="rotate(-90, 14.695312, 127.26)" x="14.695312" y="127.26">Average Bits Consumed Per Call</text>
    </g>
   </g>
   <g id="line2d_14">
    <path clip-path="url(#pd12554bb35)" d="M 51.913636 39.06 
L 54.219421 158.774484 
L 56.525207 173.198042 
L 58.830992 179.707881 
L 61.136777 193.195518 
L 63.442562 186.498496 
L 65.748347 192.821151 
L 68.054132 188.328738 
L 70.359917 192.94594 
L 72.665702 193.237115 
L 74.971488 195.50412 
L 77.277273 197.24077 
L 79.583058 193.039532 
L 81.888843 195.680904 
L 84.194628 197.916712 
L 86.500413 198.457465 
L 88.806198 199.871743 
L 91.111983 197.750326 
L 93.417769 200.058927 
L 95.723554 198.384671 
L 98.029339 199.965335 
L 100.335124 199.715757 
L 102.640909 201.223627 
L 104.946694 200.776465 
L 107.252479 202.107551 
L 109.558264 200.651676 
L 111.86405 202.128349 
L 114.169835 201.410811 
L 116.47562 202.294734 
L 118.781405 202.201142 
L 121.08719 205.102492 
L 123.392975 202.533914 
L 125.69876 203.636219 
L 128.004545 201.899568 
L 130.310331 202.554712 
L 132.616116 205.008901 
L 134.921901 205.882425 
L 137.227686 204.998501 
L 139.533471 204.041784 
L 141.839256 204.478546 
L 144.145041 204.956905 
L 146.450826 205.549654 
L 148.756612 204.353757 
L 151.062397 204.582537 
L 153.368182 205.445663 
L 155.673967 206.683156 
L 157.979752 206.100806 
L 160.285537 208.326215 
L 162.591322 207.275905 
L 164.897107 208.534197 
L 167.202893 207.577479 
L 169.508678 207.171914 
L 171.814463 208.118233 
L 174.120248 209.875681 
L 176.426033 208.606991 
L 178.731818 207.151116 
L 181.037603 208.399008 
L 183.343388 208.877367 
L 185.649174 209.490914 
L 187.954959 209.220538 
L 190.260744 208.970959 
L 192.566529 209.698896 
L 194.872314 209.324529 
L 197.178099 209.126946 
L 199.483884 210.218852 
L 201.789669 210.46843 
L 204.095455 210.749206 
L 206.40124 211.778717 
L 208.707025 210.281246 
L 211.01281 210.666013 
L 213.318595 211.16517 
L 215.62438 211.39395 
L 217.930165 211.237964 
L 220.23595 211.830713 
L 222.541736 211.737121 
L 224.847521 212.402663 
L 227.153306 211.63313 
L 229.459091 213.130601 
L 231.764876 212.257076 
L 234.070661 211.674726 
L 236.376446 213.016211 
L 238.682231 212.91222 
L 240.988017 212.974614 
L 243.293802 213.411377 
L 245.599587 214.2953 
L 247.905372 213.068206 
L 250.211157 213.411377 
L 252.516942 213.920933 
L 254.822727 214.170511 
L 257.128512 213.993726 
L 259.434298 214.336897 
L 261.740083 214.253704 
L 264.045868 214.42009 
L 266.351653 214.024924 
L 268.657438 214.617673 
L 270.963223 214.06652 
L 273.269008 214.836054 
L 275.574793 215.262417 
L 277.880579 214.2953 
L 280.186364 215.46 
" style="fill:none;stroke:#1f77b4;stroke-linecap:square;stroke-width:1.5;"/>
   </g>
   <g id="patch_3">
    <path d="M 40.5 224.28 
L 40.5 30.24 
" style="fill:none;stroke:#000000;stroke-linecap:square;stroke-linejoin:miter;stroke-width:0.8;"/>
   </g>
   <g id="patch_4">
    <path d="M 291.6 224.28 
L 291.6 30.24 
" style="fill:none;stroke:#000000;stroke-linecap:square;stroke-linejoin:miter;stroke-width:0.8;"/>
   </g>
   <g id="patch_5">
    <path d="M 40.5 224.28 
L 291.6 224.28 
" style="fill:none;stroke:#000000;stroke-linecap:square;stroke-linejoin:miter;stroke-width:0.8;"/>
   </g>
   <g id="patch_6">
    <path d="M 40.5 30.24 
L 291.6 30.24 
" style="fill:none;stroke:#000000;stroke-linecap:square;stroke-linejoin:miter;stroke-width:0.8;"/>
   </g>
   <g id="text_16">
    <text style="font-family:DejaVu Sans;font-size:12px;font-style:normal;font-weight:normal;text-anchor:middle;" transform="rotate(-0, 166.05, 24.24)" x="166.05" y="24.24">Avg. Bits Consumed by pow(x,4/5) Algorithm</text>
   </g>
  </g>
 </g>
 <defs>
  <clipPath id="pd12554bb35">
   <rect height="194.04" width="251.1" x="40.5" y="30.24"/>
  </clipPath>
 </defs>
</svg>
