<?xml version="1.0" encoding="utf-8" standalone="no"?>
<!DOCTYPE svg PUBLIC "-//W3C//DTD SVG 1.1//EN"
  "http://www.w3.org/Graphics/SVG/1.1/DTD/svg11.dtd">
<!-- Created with matplotlib (https://matplotlib.org/) -->
<svg height="252pt" version="1.1" viewBox="0 0 324 252" width="324pt" xmlns="http://www.w3.org/2000/svg" xmlns:xlink="http://www.w3.org/1999/xlink">
 <defs>
  <style type="text/css">
*{stroke-linecap:butt;stroke-linejoin:round;}
  </style>
 </defs>
 <g id="figure_1">
  <g id="patch_1">
   <path d="M 0 252 
L 324 252 
L 324 0 
L 0 0 
z
" style="fill:#ffffff;"/>
  </g>
  <g id="axes_1">
   <g id="patch_2">
    <path d="M 40.5 224.28 
L 291.6 224.28 
L 291.6 30.24 
L 40.5 30.24 
z
" style="fill:#ffffff;"/>
   </g>
   <g id="matplotlib.axis_1">
    <g id="xtick_1">
     <g id="line2d_1">
      <defs>
       <path d="M 0 0 
L 0 3.5 
" id="ma896bac2e1" style="stroke:#000000;stroke-width:0.8;"/>
      </defs>
      <g>
       <use style="stroke:#000000;stroke-width:0.8;" x="51.890805" xlink:href="#ma896bac2e1" y="224.28"/>
      </g>
     </g>
     <g id="text_1">
      <text style="font-family:DejaVu Sans;font-size:10px;font-style:normal;font-weight:normal;text-anchor:middle;" transform="rotate(-0, 51.890805, 238.878438)" x="51.890805" y="238.878438">0.0</text>
     </g>
    </g>
    <g id="xtick_2">
     <g id="line2d_2">
      <g>
       <use style="stroke:#000000;stroke-width:0.8;" x="97.554483" xlink:href="#ma896bac2e1" y="224.28"/>
      </g>
     </g>
     <g id="text_2">
      <text style="font-family:DejaVu Sans;font-size:10px;font-style:normal;font-weight:normal;text-anchor:middle;" transform="rotate(-0, 97.554483, 238.878438)" x="97.554483" y="238.878438">0.2</text>
     </g>
    </g>
    <g id="xtick_3">
     <g id="line2d_3">
      <g>
       <use style="stroke:#000000;stroke-width:0.8;" x="143.218161" xlink:href="#ma896bac2e1" y="224.28"/>
      </g>
     </g>
     <g id="text_3">
      <text style="font-family:DejaVu Sans;font-size:10px;font-style:normal;font-weight:normal;text-anchor:middle;" transform="rotate(-0, 143.218161, 238.878438)" x="143.218161" y="238.878438">0.4</text>
     </g>
    </g>
    <g id="xtick_4">
     <g id="line2d_4">
      <g>
       <use style="stroke:#000000;stroke-width:0.8;" x="188.881839" xlink:href="#ma896bac2e1" y="224.28"/>
      </g>
     </g>
     <g id="text_4">
      <text style="font-family:DejaVu Sans;font-size:10px;font-style:normal;font-weight:normal;text-anchor:middle;" transform="rotate(-0, 188.881839, 238.878438)" x="188.881839" y="238.878438">0.6</text>
     </g>
    </g>
    <g id="xtick_5">
     <g id="line2d_5">
      <g>
       <use style="stroke:#000000;stroke-width:0.8;" x="234.545517" xlink:href="#ma896bac2e1" y="224.28"/>
      </g>
     </g>
     <g id="text_5">
      <text style="font-family:DejaVu Sans;font-size:10px;font-style:normal;font-weight:normal;text-anchor:middle;" transform="rotate(-0, 234.545517, 238.878438)" x="234.545517" y="238.878438">0.8</text>
     </g>
    </g>
    <g id="xtick_6">
     <g id="line2d_6">
      <g>
       <use style="stroke:#000000;stroke-width:0.8;" x="280.209195" xlink:href="#ma896bac2e1" y="224.28"/>
      </g>
     </g>
     <g id="text_6">
      <text style="font-family:DejaVu Sans;font-size:10px;font-style:normal;font-weight:normal;text-anchor:middle;" transform="rotate(-0, 280.209195, 238.878438)" x="280.209195" y="238.878438">1.0</text>
     </g>
    </g>
    <g id="text_7">
     <text style="font-family:DejaVu Sans;font-size:10px;font-style:normal;font-weight:normal;text-anchor:middle;" transform="rotate(-0, 166.05, 252.556563)" x="166.05" y="252.556563">Input Coin's Heads Probability (λ)</text>
    </g>
   </g>
   <g id="matplotlib.axis_2">
    <g id="ytick_1">
     <g id="line2d_7">
      <defs>
       <path d="M 0 0 
L -3.5 0 
" id="mf98f25ae10" style="stroke:#000000;stroke-width:0.8;"/>
      </defs>
      <g>
       <use style="stroke:#000000;stroke-width:0.8;" x="40.5" xlink:href="#mf98f25ae10" y="215.813507"/>
      </g>
     </g>
     <g id="text_8">
      <text style="font-family:DejaVu Sans;font-size:10px;font-style:normal;font-weight:normal;text-anchor:end;" transform="rotate(-0, 33.5, 219.612726)" x="33.5" y="219.612726">0.0</text>
     </g>
    </g>
    <g id="ytick_2">
     <g id="line2d_8">
      <g>
       <use style="stroke:#000000;stroke-width:0.8;" x="40.5" xlink:href="#mf98f25ae10" y="180.462806"/>
      </g>
     </g>
     <g id="text_9">
      <text style="font-family:DejaVu Sans;font-size:10px;font-style:normal;font-weight:normal;text-anchor:end;" transform="rotate(-0, 33.5, 184.262024)" x="33.5" y="184.262024">0.2</text>
     </g>
    </g>
    <g id="ytick_3">
     <g id="line2d_9">
      <g>
       <use style="stroke:#000000;stroke-width:0.8;" x="40.5" xlink:href="#mf98f25ae10" y="145.112104"/>
      </g>
     </g>
     <g id="text_10">
      <text style="font-family:DejaVu Sans;font-size:10px;font-style:normal;font-weight:normal;text-anchor:end;" transform="rotate(-0, 33.5, 148.911323)" x="33.5" y="148.911323">0.4</text>
     </g>
    </g>
    <g id="ytick_4">
     <g id="line2d_10">
      <g>
       <use style="stroke:#000000;stroke-width:0.8;" x="40.5" xlink:href="#mf98f25ae10" y="109.761403"/>
      </g>
     </g>
     <g id="text_11">
      <text style="font-family:DejaVu Sans;font-size:10px;font-style:normal;font-weight:normal;text-anchor:end;" transform="rotate(-0, 33.5, 113.560622)" x="33.5" y="113.560622">0.6</text>
     </g>
    </g>
    <g id="ytick_5">
     <g id="line2d_11">
      <g>
       <use style="stroke:#000000;stroke-width:0.8;" x="40.5" xlink:href="#mf98f25ae10" y="74.410701"/>
      </g>
     </g>
     <g id="text_12">
      <text style="font-family:DejaVu Sans;font-size:10px;font-style:normal;font-weight:normal;text-anchor:end;" transform="rotate(-0, 33.5, 78.20992)" x="33.5" y="78.20992">0.8</text>
     </g>
    </g>
    <g id="ytick_6">
     <g id="line2d_12">
      <g>
       <use style="stroke:#000000;stroke-width:0.8;" x="40.5" xlink:href="#mf98f25ae10" y="39.06"/>
      </g>
     </g>
     <g id="text_13">
      <text style="font-family:DejaVu Sans;font-size:10px;font-style:normal;font-weight:normal;text-anchor:end;" transform="rotate(-0, 33.5, 42.859219)" x="33.5" y="42.859219">1.0</text>
     </g>
    </g>
    <g id="text_14">
     <text style="font-family:DejaVu Sans;font-size:10px;font-style:normal;font-weight:normal;text-anchor:middle;" transform="rotate(-90, 11.517187, 127.26)" x="11.517187" y="127.26">Simulated Mean / Function Value</text>
    </g>
   </g>
   <g id="line2d_13">
    <path clip-path="url(#p8efba3a9a3)" d="M 52.119123 215.109839 
L 54.420757 210.99375 
L 56.722391 207.726141 
L 59.024025 204.768555 
L 61.325658 201.999379 
L 63.627292 199.363509 
L 65.928926 196.829734 
L 68.23056 194.378098 
L 70.532194 191.994813 
L 72.833828 189.669821 
L 75.135462 187.395485 
L 77.437096 185.165827 
L 79.738729 182.976044 
L 82.040363 180.822206 
L 84.341997 178.701037 
L 86.643631 176.609773 
L 88.945265 174.546049 
L 91.246899 172.507821 
L 93.548533 170.49331 
L 95.850167 168.500949 
L 98.151801 166.529353 
L 100.453434 164.577287 
L 102.755068 162.643645 
L 105.056702 160.72743 
L 107.358336 158.82774 
L 109.65997 156.943756 
L 111.961604 155.074729 
L 114.263238 153.219973 
L 116.564872 151.378859 
L 118.866505 149.550806 
L 121.168139 147.735276 
L 123.469773 145.931773 
L 125.771407 144.139833 
L 128.073041 142.359025 
L 130.374675 140.588948 
L 132.676309 138.829223 
L 134.977943 137.079498 
L 137.279576 135.339442 
L 139.58121 133.608743 
L 141.882844 131.887106 
L 144.184478 130.174254 
L 146.486112 128.469925 
L 148.787746 126.773871 
L 151.08938 125.085855 
L 153.391014 123.405655 
L 155.692648 121.733059 
L 157.994281 120.067865 
L 160.295915 118.40988 
L 162.597549 116.758921 
L 164.899183 115.114813 
L 167.200817 113.477389 
L 169.502451 111.846489 
L 171.804085 110.221961 
L 174.105719 108.603657 
L 176.407352 106.991437 
L 178.708986 105.385168 
L 181.01062 103.784718 
L 183.312254 102.189964 
L 185.613888 100.600787 
L 187.915522 99.017071 
L 190.217156 97.438706 
L 192.51879 95.865585 
L 194.820424 94.297606 
L 197.122057 92.734668 
L 199.423691 91.176677 
L 201.725325 89.623539 
L 204.026959 88.075166 
L 206.328593 86.531471 
L 208.630227 84.992371 
L 210.931861 83.457784 
L 213.233495 81.927633 
L 215.535128 80.401841 
L 217.836762 78.880336 
L 220.138396 77.363045 
L 222.44003 75.8499 
L 224.741664 74.340834 
L 227.043298 72.835782 
L 229.344932 71.33468 
L 231.646566 69.837467 
L 233.948199 68.344083 
L 236.249833 66.854471 
L 238.551467 65.368574 
L 240.853101 63.886336 
L 243.154735 62.407705 
L 245.456369 60.932629 
L 247.758003 59.461057 
L 250.059637 57.992939 
L 252.361271 56.528227 
L 254.662904 55.066875 
L 256.964538 53.608837 
L 259.266172 52.154068 
L 261.567806 50.702525 
L 263.86944 49.254165 
L 266.171074 47.808947 
L 268.472708 46.36683 
L 270.774342 44.927776 
L 273.075975 43.491744 
L 275.377609 42.058698 
L 277.679243 40.628601 
L 279.980877 39.201417 
" style="fill:none;stroke:#1f77b4;stroke-linecap:square;stroke-width:1.5;"/>
   </g>
   <g id="line2d_14">
    <path clip-path="url(#p8efba3a9a3)" d="M 51.913636 215.46 
L 54.219421 213.338958 
L 56.525207 207.329339 
L 58.830992 205.561804 
L 61.136777 198.84517 
L 63.442562 201.673226 
L 65.748347 197.077635 
L 68.054132 195.663607 
L 70.359917 190.714509 
L 72.665702 192.128537 
L 74.971488 185.765411 
L 77.277273 186.118918 
L 79.583058 182.937355 
L 81.888843 180.109299 
L 84.194628 178.341764 
L 86.500413 174.806693 
L 88.806198 179.755792 
L 91.111983 173.746172 
L 93.417769 171.271623 
L 95.723554 170.564609 
L 98.029339 170.918116 
L 100.335124 163.494469 
L 102.640909 163.847976 
L 104.946694 151.121723 
L 107.252479 160.312906 
L 109.558264 161.01992 
L 111.86405 152.535752 
L 114.169835 157.48485 
L 116.47562 147.233146 
L 118.781405 156.070822 
L 121.08719 146.526132 
L 123.392975 142.284048 
L 125.69876 145.112104 
L 128.004545 147.233146 
L 130.310331 141.930541 
L 132.616116 139.455992 
L 134.921901 140.516513 
L 137.227686 135.567415 
L 139.533471 134.860401 
L 141.839256 132.385852 
L 144.145041 130.971824 
L 146.450826 128.850782 
L 148.756612 127.790261 
L 151.062397 136.627936 
L 153.368182 120.72012 
L 155.673967 123.548176 
L 157.979752 116.478036 
L 160.285537 116.831543 
L 162.591322 114.710501 
L 164.897107 117.538557 
L 167.202893 112.942966 
L 169.508678 106.226333 
L 171.814463 106.57984 
L 174.120248 105.872826 
L 176.426033 106.933347 
L 178.731818 108.347375 
L 181.037603 105.519319 
L 183.343388 101.630741 
L 185.649174 99.863206 
L 187.954959 100.57022 
L 190.260744 100.923727 
L 192.566529 96.328136 
L 194.872314 91.025531 
L 197.178099 96.328136 
L 199.483884 88.197475 
L 201.789669 91.379038 
L 204.095455 80.066814 
L 206.40124 87.490461 
L 208.707025 89.96501 
L 211.01281 84.308898 
L 213.318595 82.89487 
L 215.62438 81.834349 
L 217.930165 74.764208 
L 220.23595 77.945772 
L 222.541736 77.592265 
L 224.847521 71.229138 
L 227.153306 71.229138 
L 229.459091 71.936152 
L 231.764876 67.340561 
L 234.070661 69.108096 
L 236.376446 60.623928 
L 238.682231 63.805491 
L 240.988017 65.926533 
L 243.293802 62.037956 
L 245.599587 57.442365 
L 247.905372 58.502886 
L 250.211157 58.856393 
L 252.516942 59.563407 
L 254.822727 55.321323 
L 257.128512 52.846774 
L 259.434298 52.13976 
L 261.740083 51.432745 
L 264.045868 51.079238 
L 266.351653 47.190661 
L 268.657438 46.837154 
L 270.963223 44.362605 
L 273.269008 42.948577 
L 275.574793 42.948577 
L 277.880579 40.120521 
L 280.186364 39.06 
" style="fill:none;stroke:#ff7f0e;stroke-linecap:square;stroke-width:1.5;"/>
   </g>
   <g id="patch_3">
    <path d="M 40.5 224.28 
L 40.5 30.24 
" style="fill:none;stroke:#000000;stroke-linecap:square;stroke-linejoin:miter;stroke-width:0.8;"/>
   </g>
   <g id="patch_4">
    <path d="M 291.6 224.28 
L 291.6 30.24 
" style="fill:none;stroke:#000000;stroke-linecap:square;stroke-linejoin:miter;stroke-width:0.8;"/>
   </g>
   <g id="patch_5">
    <path d="M 40.5 224.28 
L 291.6 224.28 
" style="fill:none;stroke:#000000;stroke-linecap:square;stroke-linejoin:miter;stroke-width:0.8;"/>
   </g>
   <g id="patch_6">
    <path d="M 40.5 30.24 
L 291.6 30.24 
" style="fill:none;stroke:#000000;stroke-linecap:square;stroke-linejoin:miter;stroke-width:0.8;"/>
   </g>
   <g id="text_15">
    <text style="font-family:DejaVu Sans;font-size:12px;font-style:normal;font-weight:normal;text-anchor:middle;" transform="rotate(-0, 166.05, 24.24)" x="166.05" y="24.24">Expected Value in pow(x,4/5) Algorithm</text>
   </g>
   <g id="legend_1">
    <g id="patch_7">
     <path d="M 102.007813 219.28 
L 284.6 219.28 
Q 286.6 219.28 286.6 217.28 
L 286.6 188.92375 
Q 286.6 186.92375 284.6 186.92375 
L 102.007813 186.92375 
Q 100.007813 186.92375 100.007813 188.92375 
L 100.007813 217.28 
Q 100.007813 219.28 102.007813 219.28 
z
" style="fill:#ffffff;opacity:0.8;stroke:#cccccc;stroke-linejoin:miter;"/>
    </g>
    <g id="line2d_15">
     <path d="M 104.007813 195.022188 
L 124.007813 195.022188 
" style="fill:none;stroke:#1f77b4;stroke-linecap:square;stroke-width:1.5;"/>
    </g>
    <g id="line2d_16"/>
    <g id="text_16">
     <text style="font-family:DejaVu Sans;font-size:10px;font-style:normal;font-weight:normal;text-anchor:start;" transform="rotate(-0, 132.007813, 198.522188)" x="132.007813" y="198.522188">pow(x,4/5)</text>
    </g>
    <g id="line2d_17">
     <path d="M 104.007813 209.700312 
L 124.007813 209.700312 
" style="fill:none;stroke:#ff7f0e;stroke-linecap:square;stroke-width:1.5;"/>
    </g>
    <g id="line2d_18"/>
    <g id="text_17">
     <text style="font-family:DejaVu Sans;font-size:10px;font-style:normal;font-weight:normal;text-anchor:start;" transform="rotate(-0, 132.007813, 213.200312)" x="132.007813" y="213.200312">Simulated Mean of pow(x,4/5)</text>
    </g>
   </g>
  </g>
 </g>
 <defs>
  <clipPath id="p8efba3a9a3">
   <rect height="194.04" width="251.1" x="40.5" y="30.24"/>
  </clipPath>
 </defs>
</svg>
