<?xml version="1.0" encoding="utf-8" standalone="no"?>
<!DOCTYPE svg PUBLIC "-//W3C//DTD SVG 1.1//EN"
  "http://www.w3.org/Graphics/SVG/1.1/DTD/svg11.dtd">
<!-- Created with matplotlib (https://matplotlib.org/) -->
<svg height="345.6pt" version="1.1" viewBox="0 0 460.8 345.6" width="460.8pt" xmlns="http://www.w3.org/2000/svg" xmlns:xlink="http://www.w3.org/1999/xlink">
 <defs>
  <style type="text/css">
*{stroke-linecap:butt;stroke-linejoin:round;}
  </style>
 </defs>
 <g id="figure_1">
  <g id="patch_1">
   <path d="M 0 345.6 
L 460.8 345.6 
L 460.8 0 
L 0 0 
z
" style="fill:#ffffff;"/>
  </g>
  <g id="axes_1">
   <g id="patch_2">
    <path d="M 57.6 307.584 
L 414.72 307.584 
L 414.72 41.472 
L 57.6 41.472 
z
" style="fill:#ffffff;"/>
   </g>
   <g id="matplotlib.axis_1">
    <g id="xtick_1">
     <g id="line2d_1">
      <defs>
       <path d="M 0 0 
L 0 3.5 
" id="m5cf0bd30ff" style="stroke:#000000;stroke-width:0.8;"/>
      </defs>
      <g>
       <use style="stroke:#000000;stroke-width:0.8;" x="73.800255" xlink:href="#m5cf0bd30ff" y="307.584"/>
      </g>
     </g>
     <g id="text_1">
      <text style="font-family:DejaVu Sans;font-size:10px;font-style:normal;font-weight:normal;text-anchor:middle;" transform="rotate(-0, 73.800255, 322.182437)" x="73.800255" y="322.182437">0.0</text>
     </g>
    </g>
    <g id="xtick_2">
     <g id="line2d_2">
      <g>
       <use style="stroke:#000000;stroke-width:0.8;" x="138.744153" xlink:href="#m5cf0bd30ff" y="307.584"/>
      </g>
     </g>
     <g id="text_2">
      <text style="font-family:DejaVu Sans;font-size:10px;font-style:normal;font-weight:normal;text-anchor:middle;" transform="rotate(-0, 138.744153, 322.182437)" x="138.744153" y="322.182437">0.2</text>
     </g>
    </g>
    <g id="xtick_3">
     <g id="line2d_3">
      <g>
       <use style="stroke:#000000;stroke-width:0.8;" x="203.688051" xlink:href="#m5cf0bd30ff" y="307.584"/>
      </g>
     </g>
     <g id="text_3">
      <text style="font-family:DejaVu Sans;font-size:10px;font-style:normal;font-weight:normal;text-anchor:middle;" transform="rotate(-0, 203.688051, 322.182437)" x="203.688051" y="322.182437">0.4</text>
     </g>
    </g>
    <g id="xtick_4">
     <g id="line2d_4">
      <g>
       <use style="stroke:#000000;stroke-width:0.8;" x="268.631949" xlink:href="#m5cf0bd30ff" y="307.584"/>
      </g>
     </g>
     <g id="text_4">
      <text style="font-family:DejaVu Sans;font-size:10px;font-style:normal;font-weight:normal;text-anchor:middle;" transform="rotate(-0, 268.631949, 322.182437)" x="268.631949" y="322.182437">0.6</text>
     </g>
    </g>
    <g id="xtick_5">
     <g id="line2d_5">
      <g>
       <use style="stroke:#000000;stroke-width:0.8;" x="333.575847" xlink:href="#m5cf0bd30ff" y="307.584"/>
      </g>
     </g>
     <g id="text_5">
      <text style="font-family:DejaVu Sans;font-size:10px;font-style:normal;font-weight:normal;text-anchor:middle;" transform="rotate(-0, 333.575847, 322.182437)" x="333.575847" y="322.182437">0.8</text>
     </g>
    </g>
    <g id="xtick_6">
     <g id="line2d_6">
      <g>
       <use style="stroke:#000000;stroke-width:0.8;" x="398.519745" xlink:href="#m5cf0bd30ff" y="307.584"/>
      </g>
     </g>
     <g id="text_6">
      <text style="font-family:DejaVu Sans;font-size:10px;font-style:normal;font-weight:normal;text-anchor:middle;" transform="rotate(-0, 398.519745, 322.182437)" x="398.519745" y="322.182437">1.0</text>
     </g>
    </g>
    <g id="text_7">
     <text style="font-family:DejaVu Sans;font-size:10px;font-style:normal;font-weight:normal;text-anchor:middle;" transform="rotate(-0, 236.16, 335.860562)" x="236.16" y="335.860562">Input Coin's Heads Probability (λ)</text>
    </g>
   </g>
   <g id="matplotlib.axis_2">
    <g id="ytick_1">
     <g id="line2d_7">
      <defs>
       <path d="M 0 0 
L -3.5 0 
" id="mfe887b5547" style="stroke:#000000;stroke-width:0.8;"/>
      </defs>
      <g>
       <use style="stroke:#000000;stroke-width:0.8;" x="57.6" xlink:href="#mfe887b5547" y="274.23428"/>
      </g>
     </g>
     <g id="text_8">
      <text style="font-family:DejaVu Sans;font-size:10px;font-style:normal;font-weight:normal;text-anchor:end;" transform="rotate(-0, 50.6, 278.033499)" x="50.6" y="278.033499">2</text>
     </g>
    </g>
    <g id="ytick_2">
     <g id="line2d_8">
      <g>
       <use style="stroke:#000000;stroke-width:0.8;" x="57.6" xlink:href="#mfe887b5547" y="240.228072"/>
      </g>
     </g>
     <g id="text_9">
      <text style="font-family:DejaVu Sans;font-size:10px;font-style:normal;font-weight:normal;text-anchor:end;" transform="rotate(-0, 50.6, 244.027291)" x="50.6" y="244.027291">4</text>
     </g>
    </g>
    <g id="ytick_3">
     <g id="line2d_9">
      <g>
       <use style="stroke:#000000;stroke-width:0.8;" x="57.6" xlink:href="#mfe887b5547" y="206.221865"/>
      </g>
     </g>
     <g id="text_10">
      <text style="font-family:DejaVu Sans;font-size:10px;font-style:normal;font-weight:normal;text-anchor:end;" transform="rotate(-0, 50.6, 210.021084)" x="50.6" y="210.021084">6</text>
     </g>
    </g>
    <g id="ytick_4">
     <g id="line2d_10">
      <g>
       <use style="stroke:#000000;stroke-width:0.8;" x="57.6" xlink:href="#mfe887b5547" y="172.215658"/>
      </g>
     </g>
     <g id="text_11">
      <text style="font-family:DejaVu Sans;font-size:10px;font-style:normal;font-weight:normal;text-anchor:end;" transform="rotate(-0, 50.6, 176.014876)" x="50.6" y="176.014876">8</text>
     </g>
    </g>
    <g id="ytick_5">
     <g id="line2d_11">
      <g>
       <use style="stroke:#000000;stroke-width:0.8;" x="57.6" xlink:href="#mfe887b5547" y="138.20945"/>
      </g>
     </g>
     <g id="text_12">
      <text style="font-family:DejaVu Sans;font-size:10px;font-style:normal;font-weight:normal;text-anchor:end;" transform="rotate(-0, 50.6, 142.008669)" x="50.6" y="142.008669">10</text>
     </g>
    </g>
    <g id="ytick_6">
     <g id="line2d_12">
      <g>
       <use style="stroke:#000000;stroke-width:0.8;" x="57.6" xlink:href="#mfe887b5547" y="104.203243"/>
      </g>
     </g>
     <g id="text_13">
      <text style="font-family:DejaVu Sans;font-size:10px;font-style:normal;font-weight:normal;text-anchor:end;" transform="rotate(-0, 50.6, 108.002462)" x="50.6" y="108.002462">12</text>
     </g>
    </g>
    <g id="ytick_7">
     <g id="line2d_13">
      <g>
       <use style="stroke:#000000;stroke-width:0.8;" x="57.6" xlink:href="#mfe887b5547" y="70.197035"/>
      </g>
     </g>
     <g id="text_14">
      <text style="font-family:DejaVu Sans;font-size:10px;font-style:normal;font-weight:normal;text-anchor:end;" transform="rotate(-0, 50.6, 73.996254)" x="50.6" y="73.996254">14</text>
     </g>
    </g>
    <g id="text_15">
     <text style="font-family:DejaVu Sans;font-size:10px;font-style:normal;font-weight:normal;text-anchor:middle;" transform="rotate(-90, 31.795312, 174.528)" x="31.795312" y="174.528">Coin Flips Needed</text>
    </g>
   </g>
   <g id="line2d_14">
    <path clip-path="url(#p5c2aaef440)" d="M 73.832727 187.902073 
L 77.112066 277.463203 
L 80.391405 282.005024 
L 83.670744 284.287289 
L 86.950083 285.753364 
L 90.229421 286.808212 
L 93.50876 287.619182 
L 96.788099 288.270503 
L 100.067438 288.810099 
L 103.346777 289.267637 
L 106.626116 289.662663 
L 109.905455 290.008674 
L 113.184793 290.315355 
L 116.464132 290.589865 
L 119.743471 290.837637 
L 123.02281 291.062882 
L 126.302149 291.268922 
L 129.581488 291.458422 
L 132.860826 291.633548 
L 136.140165 291.796083 
L 139.419504 291.947511 
L 142.698843 292.089077 
L 145.978182 292.221838 
L 149.257521 292.346695 
L 152.53686 292.464425 
L 155.816198 292.575697 
L 159.095537 292.681099 
L 162.374876 292.781141 
L 165.654215 292.876274 
L 168.933554 292.966899 
L 172.212893 293.053368 
L 175.492231 293.135997 
L 178.77157 293.21507 
L 182.050909 293.29084 
L 185.330248 293.363538 
L 188.609587 293.433368 
L 191.888926 293.50052 
L 195.168264 293.565165 
L 198.447603 293.627457 
L 201.726942 293.68754 
L 205.006281 293.745544 
L 208.28562 293.801588 
L 211.564959 293.855782 
L 214.844298 293.908229 
L 218.123636 293.959022 
L 221.402975 294.008249 
L 224.682314 294.055988 
L 227.961653 294.102316 
L 231.240992 294.147302 
L 234.520331 294.191011 
L 237.799669 294.233502 
L 241.079008 294.274833 
L 244.358347 294.315057 
L 247.637686 294.354222 
L 250.917025 294.392376 
L 254.196364 294.429562 
L 257.475702 294.46582 
L 260.755041 294.501189 
L 264.03438 294.535707 
L 267.313719 294.569406 
L 270.593058 294.602319 
L 273.872397 294.634477 
L 277.151736 294.665909 
L 280.431074 294.696642 
L 283.710413 294.726702 
L 286.989752 294.756113 
L 290.269091 294.784899 
L 293.54843 294.813083 
L 296.827769 294.840684 
L 300.107107 294.867723 
L 303.386446 294.89422 
L 306.665785 294.920192 
L 309.945124 294.945656 
L 313.224463 294.97063 
L 316.503802 294.995129 
L 319.78314 295.019167 
L 323.062479 295.042761 
L 326.341818 295.065922 
L 329.621157 295.088665 
L 332.900496 295.111001 
L 336.179835 295.132944 
L 339.459174 295.154504 
L 342.738512 295.175694 
L 346.017851 295.196522 
L 349.29719 295.217 
L 352.576529 295.237138 
L 355.855868 295.256945 
L 359.135207 295.276429 
L 362.414545 295.2956 
L 365.693884 295.314467 
L 368.973223 295.333036 
L 372.252562 295.351317 
L 375.531901 295.369316 
L 378.81124 295.38704 
L 382.090579 295.404497 
L 385.369917 295.421694 
L 388.649256 295.438636 
L 391.928595 295.455331 
L 395.207934 295.471783 
L 398.487273 295.488 
" style="fill:none;stroke:#1f77b4;stroke-linecap:square;stroke-width:1.5;"/>
   </g>
   <g id="line2d_15">
    <path clip-path="url(#p5c2aaef440)" d="M 73.832727 53.568 
L 77.112066 249.579779 
L 80.391405 259.44158 
L 83.670744 270.187541 
L 86.950083 265.392666 
L 90.229421 267.467045 
L 93.50876 274.914404 
L 96.788099 275.152447 
L 100.067438 277.362851 
L 103.346777 278.144994 
L 106.626116 277.668907 
L 109.905455 277.770925 
L 113.184793 275.118441 
L 116.464132 280.627447 
L 119.743471 283.041888 
L 123.02281 280.219372 
L 126.302149 280.389403 
L 129.581488 283.279931 
L 132.860826 282.701825 
L 136.140165 282.905863 
L 139.419504 283.313937 
L 142.698843 284.674185 
L 145.978182 285.524341 
L 149.257521 283.858036 
L 152.53686 284.300117 
L 155.816198 284.742198 
L 159.095537 284.640179 
L 162.374876 284.946235 
L 165.654215 284.844217 
L 168.933554 286.06844 
L 172.212893 284.946235 
L 175.492231 285.524341 
L 178.77157 285.150272 
L 182.050909 286.170459 
L 185.330248 285.150272 
L 188.609587 286.238471 
L 191.888926 286.034434 
L 195.168264 285.898409 
L 198.447603 287.05462 
L 201.726942 286.204465 
L 205.006281 287.632726 
L 208.28562 286.612539 
L 211.564959 287.462694 
L 214.844298 286.544527 
L 218.123636 286.986608 
L 221.402975 287.666732 
L 224.682314 287.156639 
L 227.961653 288.652912 
L 231.240992 287.700738 
L 234.520331 287.394682 
L 237.799669 288.720924 
L 241.079008 288.142819 
L 244.358347 289.367042 
L 247.637686 288.278843 
L 250.917025 289.128999 
L 254.196364 288.992974 
L 257.475702 288.516887 
L 260.755041 287.700738 
L 264.03438 288.380862 
L 267.313719 288.958968 
L 270.593058 288.652912 
L 273.872397 289.02698 
L 277.151736 289.503067 
L 280.431074 289.128999 
L 283.710413 289.333036 
L 286.989752 289.571079 
L 290.269091 289.469061 
L 293.54843 289.197011 
L 296.827769 289.571079 
L 300.107107 289.367042 
L 303.386446 289.537073 
L 306.665785 290.217197 
L 309.945124 289.571079 
L 313.224463 289.809123 
L 316.503802 289.503067 
L 319.78314 289.979154 
L 323.062479 290.149185 
L 326.341818 290.183191 
L 329.621157 290.149185 
L 332.900496 289.877135 
L 336.179835 290.625272 
L 339.459174 290.523253 
L 342.738512 290.387228 
L 346.017851 290.353222 
L 349.29719 290.693284 
L 352.576529 290.72729 
L 355.855868 290.693284 
L 359.135207 290.863315 
L 362.414545 290.693284 
L 365.693884 290.489247 
L 368.973223 290.99934 
L 372.252562 290.931328 
L 375.531901 291.033346 
L 378.81124 290.965334 
L 382.090579 290.965334 
L 385.369917 291.101359 
L 388.649256 291.135365 
L 391.928595 291.101359 
L 395.207934 291.237384 
L 398.487273 291.237384 
" style="fill:none;stroke:#ff7f0e;stroke-linecap:square;stroke-width:1.5;"/>
   </g>
   <g id="patch_3">
    <path d="M 57.6 307.584 
L 57.6 41.472 
" style="fill:none;stroke:#000000;stroke-linecap:square;stroke-linejoin:miter;stroke-width:0.8;"/>
   </g>
   <g id="patch_4">
    <path d="M 414.72 307.584 
L 414.72 41.472 
" style="fill:none;stroke:#000000;stroke-linecap:square;stroke-linejoin:miter;stroke-width:0.8;"/>
   </g>
   <g id="patch_5">
    <path d="M 57.6 307.584 
L 414.72 307.584 
" style="fill:none;stroke:#000000;stroke-linecap:square;stroke-linejoin:miter;stroke-width:0.8;"/>
   </g>
   <g id="patch_6">
    <path d="M 57.6 41.472 
L 414.72 41.472 
" style="fill:none;stroke:#000000;stroke-linecap:square;stroke-linejoin:miter;stroke-width:0.8;"/>
   </g>
   <g id="text_16">
    <text style="font-family:DejaVu Sans;font-size:12px;font-style:normal;font-weight:normal;text-anchor:middle;" transform="rotate(-0, 236.16, 35.472)" x="236.16" y="35.472">Coin Flips for pow(x,3/4)</text>
   </g>
   <g id="legend_1">
    <g id="patch_7">
     <path d="M 219.784062 78.82825 
L 407.72 78.82825 
Q 409.72 78.82825 409.72 76.82825 
L 409.72 48.472 
Q 409.72 46.472 407.72 46.472 
L 219.784062 46.472 
Q 217.784062 46.472 217.784062 48.472 
L 217.784062 76.82825 
Q 217.784062 78.82825 219.784062 78.82825 
z
" style="fill:#ffffff;opacity:0.8;stroke:#cccccc;stroke-linejoin:miter;"/>
    </g>
    <g id="line2d_16">
     <path d="M 221.784062 54.570437 
L 241.784062 54.570437 
" style="fill:none;stroke:#1f77b4;stroke-linecap:square;stroke-width:1.5;"/>
    </g>
    <g id="line2d_17"/>
    <g id="text_17">
     <text style="font-family:DejaVu Sans;font-size:10px;font-style:normal;font-weight:normal;text-anchor:start;" transform="rotate(-0, 249.784062, 58.070437)" x="249.784062" y="58.070437">Coin Flip Lower Bound (Mendo)</text>
    </g>
    <g id="line2d_18">
     <path d="M 221.784062 69.248562 
L 241.784062 69.248562 
" style="fill:none;stroke:#ff7f0e;stroke-linecap:square;stroke-width:1.5;"/>
    </g>
    <g id="line2d_19"/>
    <g id="text_18">
     <text style="font-family:DejaVu Sans;font-size:10px;font-style:normal;font-weight:normal;text-anchor:start;" transform="rotate(-0, 249.784062, 72.748562)" x="249.784062" y="72.748562">Avg. Coins Flipped pow(x,3/4)</text>
    </g>
   </g>
  </g>
 </g>
 <defs>
  <clipPath id="p5c2aaef440">
   <rect height="266.112" width="357.12" x="57.6" y="41.472"/>
  </clipPath>
 </defs>
</svg>
