<?xml version="1.0" encoding="utf-8" standalone="no"?>
<!DOCTYPE svg PUBLIC "-//W3C//DTD SVG 1.1//EN"
  "http://www.w3.org/Graphics/SVG/1.1/DTD/svg11.dtd">
<!-- Created with matplotlib (https://matplotlib.org/) -->
<svg height="345.6pt" version="1.1" viewBox="0 0 460.8 345.6" width="460.8pt" xmlns="http://www.w3.org/2000/svg" xmlns:xlink="http://www.w3.org/1999/xlink">
 <defs>
  <style type="text/css">
*{stroke-linecap:butt;stroke-linejoin:round;}
  </style>
 </defs>
 <g id="figure_1">
  <g id="patch_1">
   <path d="M 0 345.6 
L 460.8 345.6 
L 460.8 0 
L 0 0 
z
" style="fill:#ffffff;"/>
  </g>
  <g id="axes_1">
   <g id="patch_2">
    <path d="M 57.6 307.584 
L 414.72 307.584 
L 414.72 41.472 
L 57.6 41.472 
z
" style="fill:#ffffff;"/>
   </g>
   <g id="matplotlib.axis_1">
    <g id="xtick_1">
     <g id="line2d_1">
      <defs>
       <path d="M 0 0 
L 0 3.5 
" id="m68d796e529" style="stroke:#000000;stroke-width:0.8;"/>
      </defs>
      <g>
       <use style="stroke:#000000;stroke-width:0.8;" x="73.800255" xlink:href="#m68d796e529" y="307.584"/>
      </g>
     </g>
     <g id="text_1">
      <text style="font-family:DejaVu Sans;font-size:10px;font-style:normal;font-weight:normal;text-anchor:middle;" transform="rotate(-0, 73.800255, 322.182437)" x="73.800255" y="322.182437">0.0</text>
     </g>
    </g>
    <g id="xtick_2">
     <g id="line2d_2">
      <g>
       <use style="stroke:#000000;stroke-width:0.8;" x="138.744153" xlink:href="#m68d796e529" y="307.584"/>
      </g>
     </g>
     <g id="text_2">
      <text style="font-family:DejaVu Sans;font-size:10px;font-style:normal;font-weight:normal;text-anchor:middle;" transform="rotate(-0, 138.744153, 322.182437)" x="138.744153" y="322.182437">0.2</text>
     </g>
    </g>
    <g id="xtick_3">
     <g id="line2d_3">
      <g>
       <use style="stroke:#000000;stroke-width:0.8;" x="203.688051" xlink:href="#m68d796e529" y="307.584"/>
      </g>
     </g>
     <g id="text_3">
      <text style="font-family:DejaVu Sans;font-size:10px;font-style:normal;font-weight:normal;text-anchor:middle;" transform="rotate(-0, 203.688051, 322.182437)" x="203.688051" y="322.182437">0.4</text>
     </g>
    </g>
    <g id="xtick_4">
     <g id="line2d_4">
      <g>
       <use style="stroke:#000000;stroke-width:0.8;" x="268.631949" xlink:href="#m68d796e529" y="307.584"/>
      </g>
     </g>
     <g id="text_4">
      <text style="font-family:DejaVu Sans;font-size:10px;font-style:normal;font-weight:normal;text-anchor:middle;" transform="rotate(-0, 268.631949, 322.182437)" x="268.631949" y="322.182437">0.6</text>
     </g>
    </g>
    <g id="xtick_5">
     <g id="line2d_5">
      <g>
       <use style="stroke:#000000;stroke-width:0.8;" x="333.575847" xlink:href="#m68d796e529" y="307.584"/>
      </g>
     </g>
     <g id="text_5">
      <text style="font-family:DejaVu Sans;font-size:10px;font-style:normal;font-weight:normal;text-anchor:middle;" transform="rotate(-0, 333.575847, 322.182437)" x="333.575847" y="322.182437">0.8</text>
     </g>
    </g>
    <g id="xtick_6">
     <g id="line2d_6">
      <g>
       <use style="stroke:#000000;stroke-width:0.8;" x="398.519745" xlink:href="#m68d796e529" y="307.584"/>
      </g>
     </g>
     <g id="text_6">
      <text style="font-family:DejaVu Sans;font-size:10px;font-style:normal;font-weight:normal;text-anchor:middle;" transform="rotate(-0, 398.519745, 322.182437)" x="398.519745" y="322.182437">1.0</text>
     </g>
    </g>
    <g id="text_7">
     <text style="font-family:DejaVu Sans;font-size:10px;font-style:normal;font-weight:normal;text-anchor:middle;" transform="rotate(-0, 236.16, 335.860562)" x="236.16" y="335.860562">Input Coin's Heads Probability (λ)</text>
    </g>
   </g>
   <g id="matplotlib.axis_2">
    <g id="ytick_1">
     <g id="line2d_7">
      <defs>
       <path d="M 0 0 
L -3.5 0 
" id="m21860a0df3" style="stroke:#000000;stroke-width:0.8;"/>
      </defs>
      <g>
       <use style="stroke:#000000;stroke-width:0.8;" x="57.6" xlink:href="#m21860a0df3" y="296.132702"/>
      </g>
     </g>
     <g id="text_8">
      <text style="font-family:DejaVu Sans;font-size:10px;font-style:normal;font-weight:normal;text-anchor:end;" transform="rotate(-0, 50.6, 299.931921)" x="50.6" y="299.931921">0</text>
     </g>
    </g>
    <g id="ytick_2">
     <g id="line2d_8">
      <g>
       <use style="stroke:#000000;stroke-width:0.8;" x="57.6" xlink:href="#m21860a0df3" y="250.541261"/>
      </g>
     </g>
     <g id="text_9">
      <text style="font-family:DejaVu Sans;font-size:10px;font-style:normal;font-weight:normal;text-anchor:end;" transform="rotate(-0, 50.6, 254.34048)" x="50.6" y="254.34048">10</text>
     </g>
    </g>
    <g id="ytick_3">
     <g id="line2d_9">
      <g>
       <use style="stroke:#000000;stroke-width:0.8;" x="57.6" xlink:href="#m21860a0df3" y="204.94982"/>
      </g>
     </g>
     <g id="text_10">
      <text style="font-family:DejaVu Sans;font-size:10px;font-style:normal;font-weight:normal;text-anchor:end;" transform="rotate(-0, 50.6, 208.749039)" x="50.6" y="208.749039">20</text>
     </g>
    </g>
    <g id="ytick_4">
     <g id="line2d_10">
      <g>
       <use style="stroke:#000000;stroke-width:0.8;" x="57.6" xlink:href="#m21860a0df3" y="159.35838"/>
      </g>
     </g>
     <g id="text_11">
      <text style="font-family:DejaVu Sans;font-size:10px;font-style:normal;font-weight:normal;text-anchor:end;" transform="rotate(-0, 50.6, 163.157598)" x="50.6" y="163.157598">30</text>
     </g>
    </g>
    <g id="ytick_5">
     <g id="line2d_11">
      <g>
       <use style="stroke:#000000;stroke-width:0.8;" x="57.6" xlink:href="#m21860a0df3" y="113.766939"/>
      </g>
     </g>
     <g id="text_12">
      <text style="font-family:DejaVu Sans;font-size:10px;font-style:normal;font-weight:normal;text-anchor:end;" transform="rotate(-0, 50.6, 117.566157)" x="50.6" y="117.566157">40</text>
     </g>
    </g>
    <g id="ytick_6">
     <g id="line2d_12">
      <g>
       <use style="stroke:#000000;stroke-width:0.8;" x="57.6" xlink:href="#m21860a0df3" y="68.175498"/>
      </g>
     </g>
     <g id="text_13">
      <text style="font-family:DejaVu Sans;font-size:10px;font-style:normal;font-weight:normal;text-anchor:end;" transform="rotate(-0, 50.6, 71.974716)" x="50.6" y="71.974716">50</text>
     </g>
    </g>
    <g id="text_14">
     <text style="font-family:DejaVu Sans;font-size:10px;font-style:normal;font-weight:normal;text-anchor:middle;" transform="rotate(-90, 31.795312, 174.528)" x="31.795312" y="174.528">Coin Flips Needed</text>
    </g>
   </g>
   <g id="line2d_13">
    <path clip-path="url(#p177bf46bdd)" d="M 73.832727 295.488 
L 77.112066 293.884695 
L 80.391405 293.478096 
L 83.670744 293.211565 
L 86.950083 293.009753 
L 90.229421 292.846231 
L 93.50876 292.708329 
L 96.788099 292.588905 
L 100.067438 292.483501 
L 103.346777 292.389134 
L 106.626116 292.303702 
L 109.905455 292.225661 
L 113.184793 292.153846 
L 116.464132 292.08735 
L 119.743471 292.025454 
L 123.02281 291.96758 
L 126.302149 291.913252 
L 129.581488 291.862076 
L 132.860826 291.81372 
L 136.140165 291.767903 
L 139.419504 291.724384 
L 142.698843 291.682956 
L 145.978182 291.643438 
L 149.257521 291.605671 
L 152.53686 291.569517 
L 155.816198 291.534853 
L 159.095537 291.501568 
L 162.374876 291.469566 
L 165.654215 291.438757 
L 168.933554 291.409064 
L 172.212893 291.380414 
L 175.492231 291.352742 
L 178.77157 291.32599 
L 182.050909 291.300104 
L 185.330248 291.275034 
L 188.609587 291.250734 
L 191.888926 291.227165 
L 195.168264 291.204286 
L 198.447603 291.182062 
L 201.726942 291.160461 
L 205.006281 291.139453 
L 208.28562 291.119008 
L 211.564959 291.0991 
L 214.844298 291.079706 
L 218.123636 291.060801 
L 221.402975 291.042365 
L 224.682314 291.024378 
L 227.961653 291.00682 
L 231.240992 290.989673 
L 234.520331 290.972922 
L 237.799669 290.95655 
L 241.079008 290.940542 
L 244.358347 290.924885 
L 247.637686 290.909566 
L 250.917025 290.894571 
L 254.196364 290.87989 
L 257.475702 290.86551 
L 260.755041 290.851421 
L 264.03438 290.837614 
L 267.313719 290.824078 
L 270.593058 290.810804 
L 273.872397 290.797784 
L 277.151736 290.78501 
L 280.431074 290.772473 
L 283.710413 290.760166 
L 286.989752 290.748082 
L 290.269091 290.736214 
L 293.54843 290.724555 
L 296.827769 290.7131 
L 300.107107 290.701842 
L 303.386446 290.690775 
L 306.665785 290.679894 
L 309.945124 290.669193 
L 313.224463 290.658668 
L 316.503802 290.648314 
L 319.78314 290.638126 
L 323.062479 290.628099 
L 326.341818 290.618229 
L 329.621157 290.608513 
L 332.900496 290.598945 
L 336.179835 290.589523 
L 339.459174 290.580242 
L 342.738512 290.571099 
L 346.017851 290.56209 
L 349.29719 290.553213 
L 352.576529 290.544463 
L 355.855868 290.535838 
L 359.135207 290.527335 
L 362.414545 290.518951 
L 365.693884 290.510684 
L 368.973223 290.502529 
L 372.252562 290.494486 
L 375.531901 290.486551 
L 378.81124 290.478722 
L 382.090579 290.470996 
L 385.369917 290.463372 
L 388.649256 290.455846 
L 391.928595 290.448418 
L 395.207934 290.441084 
L 398.487273 290.433843 
" style="fill:none;stroke:#1f77b4;stroke-linecap:square;stroke-width:1.5;"/>
   </g>
   <g id="line2d_14">
    <path clip-path="url(#p177bf46bdd)" d="M 73.832727 53.568 
L 77.112066 251.179542 
L 80.391405 265.112286 
L 83.670744 272.716938 
L 86.950083 273.957025 
L 90.229421 273.592294 
L 93.50876 275.671264 
L 96.788099 275.780683 
L 100.067438 278.124083 
L 103.346777 278.333804 
L 106.626116 278.908256 
L 109.905455 279.865676 
L 113.184793 279.637719 
L 116.464132 281.242538 
L 119.743471 280.959871 
L 123.02281 281.49785 
L 126.302149 282.956776 
L 129.581488 282.920303 
L 132.860826 281.032817 
L 136.140165 282.984131 
L 139.419504 282.601163 
L 142.698843 283.458282 
L 145.978182 283.622411 
L 149.257521 282.82912 
L 152.53686 283.339744 
L 155.816198 283.458282 
L 159.095537 283.239443 
L 162.374876 283.52211 
L 165.654215 284.014497 
L 168.933554 284.652777 
L 172.212893 283.996261 
L 175.492231 285.017509 
L 178.77157 284.151272 
L 182.050909 284.324519 
L 185.330248 284.944563 
L 188.609587 285.272821 
L 191.888926 284.552476 
L 195.168264 285.482542 
L 198.447603 285.236348 
L 201.726942 285.573725 
L 205.006281 285.391359 
L 208.28562 285.136047 
L 211.564959 285.327531 
L 214.844298 285.8108 
L 218.123636 285.591961 
L 221.402975 285.75609 
L 224.682314 285.409595 
L 227.961653 285.901983 
L 231.240992 285.974929 
L 234.520331 285.163402 
L 237.799669 285.610198 
L 241.079008 286.002284 
L 244.358347 285.519015 
L 247.637686 285.993166 
L 250.917025 286.18465 
L 254.196364 285.929338 
L 257.475702 285.956693 
L 260.755041 286.047876 
L 264.03438 286.44908 
L 267.313719 285.856392 
L 270.593058 286.002284 
L 273.872397 286.084349 
L 277.151736 286.421725 
L 280.431074 286.266714 
L 283.710413 286.248478 
L 286.989752 286.476435 
L 290.269091 286.421725 
L 293.54843 286.476435 
L 296.827769 286.430844 
L 300.107107 286.07523 
L 303.386446 286.585855 
L 306.665785 286.658801 
L 309.945124 286.485553 
L 313.224463 286.476435 
L 316.503802 286.5585 
L 319.78314 286.585855 
L 323.062479 286.631446 
L 326.341818 286.50379 
L 329.621157 286.859403 
L 332.900496 286.914113 
L 336.179835 286.731747 
L 339.459174 286.786457 
L 342.738512 286.813812 
L 346.017851 286.804693 
L 349.29719 286.868522 
L 352.576529 286.777339 
L 355.855868 286.695274 
L 359.135207 286.76822 
L 362.414545 286.914113 
L 365.693884 286.82293 
L 368.973223 286.76822 
L 372.252562 286.977941 
L 375.531901 286.87764 
L 378.81124 286.950586 
L 382.090579 286.968823 
L 385.369917 286.959704 
L 388.649256 286.977941 
L 391.928595 286.950586 
L 395.207934 286.987059 
L 398.487273 287.014414 
" style="fill:none;stroke:#ff7f0e;stroke-linecap:square;stroke-width:1.5;"/>
   </g>
   <g id="patch_3">
    <path d="M 57.6 307.584 
L 57.6 41.472 
" style="fill:none;stroke:#000000;stroke-linecap:square;stroke-linejoin:miter;stroke-width:0.8;"/>
   </g>
   <g id="patch_4">
    <path d="M 414.72 307.584 
L 414.72 41.472 
" style="fill:none;stroke:#000000;stroke-linecap:square;stroke-linejoin:miter;stroke-width:0.8;"/>
   </g>
   <g id="patch_5">
    <path d="M 57.6 307.584 
L 414.72 307.584 
" style="fill:none;stroke:#000000;stroke-linecap:square;stroke-linejoin:miter;stroke-width:0.8;"/>
   </g>
   <g id="patch_6">
    <path d="M 57.6 41.472 
L 414.72 41.472 
" style="fill:none;stroke:#000000;stroke-linecap:square;stroke-linejoin:miter;stroke-width:0.8;"/>
   </g>
   <g id="text_15">
    <text style="font-family:DejaVu Sans;font-size:12px;font-style:normal;font-weight:normal;text-anchor:middle;" transform="rotate(-0, 236.16, 35.472)" x="236.16" y="35.472">Coin Flips for pow(x,5/4)</text>
   </g>
   <g id="legend_1">
    <g id="patch_7">
     <path d="M 219.784062 78.82825 
L 407.72 78.82825 
Q 409.72 78.82825 409.72 76.82825 
L 409.72 48.472 
Q 409.72 46.472 407.72 46.472 
L 219.784062 46.472 
Q 217.784062 46.472 217.784062 48.472 
L 217.784062 76.82825 
Q 217.784062 78.82825 219.784062 78.82825 
z
" style="fill:#ffffff;opacity:0.8;stroke:#cccccc;stroke-linejoin:miter;"/>
    </g>
    <g id="line2d_15">
     <path d="M 221.784062 54.570437 
L 241.784062 54.570437 
" style="fill:none;stroke:#1f77b4;stroke-linecap:square;stroke-width:1.5;"/>
    </g>
    <g id="line2d_16"/>
    <g id="text_16">
     <text style="font-family:DejaVu Sans;font-size:10px;font-style:normal;font-weight:normal;text-anchor:start;" transform="rotate(-0, 249.784062, 58.070437)" x="249.784062" y="58.070437">Coin Flip Lower Bound (Mendo)</text>
    </g>
    <g id="line2d_17">
     <path d="M 221.784062 69.248562 
L 241.784062 69.248562 
" style="fill:none;stroke:#ff7f0e;stroke-linecap:square;stroke-width:1.5;"/>
    </g>
    <g id="line2d_18"/>
    <g id="text_17">
     <text style="font-family:DejaVu Sans;font-size:10px;font-style:normal;font-weight:normal;text-anchor:start;" transform="rotate(-0, 249.784062, 72.748562)" x="249.784062" y="72.748562">Avg. Coins Flipped pow(x,5/4)</text>
    </g>
   </g>
  </g>
 </g>
 <defs>
  <clipPath id="p177bf46bdd">
   <rect height="266.112" width="357.12" x="57.6" y="41.472"/>
  </clipPath>
 </defs>
</svg>
