<?xml version="1.0" encoding="utf-8" standalone="no"?>
<!DOCTYPE svg PUBLIC "-//W3C//DTD SVG 1.1//EN"
  "http://www.w3.org/Graphics/SVG/1.1/DTD/svg11.dtd">
<!-- Created with matplotlib (https://matplotlib.org/) -->
<svg height="345.6pt" version="1.1" viewBox="0 0 460.8 345.6" width="460.8pt" xmlns="http://www.w3.org/2000/svg" xmlns:xlink="http://www.w3.org/1999/xlink">
 <defs>
  <style type="text/css">
*{stroke-linecap:butt;stroke-linejoin:round;}
  </style>
 </defs>
 <g id="figure_1">
  <g id="patch_1">
   <path d="M 0 345.6 
L 460.8 345.6 
L 460.8 0 
L 0 0 
z
" style="fill:#ffffff;"/>
  </g>
  <g id="axes_1">
   <g id="patch_2">
    <path d="M 57.6 307.584 
L 414.72 307.584 
L 414.72 41.472 
L 57.6 41.472 
z
" style="fill:#ffffff;"/>
   </g>
   <g id="matplotlib.axis_1">
    <g id="xtick_1">
     <g id="line2d_1">
      <defs>
       <path d="M 0 0 
L 0 3.5 
" id="m4e8ef7b674" style="stroke:#000000;stroke-width:0.8;"/>
      </defs>
      <g>
       <use style="stroke:#000000;stroke-width:0.8;" x="73.800255" xlink:href="#m4e8ef7b674" y="307.584"/>
      </g>
     </g>
     <g id="text_1">
      <text style="font-family:DejaVu Sans;font-size:10px;font-style:normal;font-weight:normal;text-anchor:middle;" transform="rotate(-0, 73.800255, 322.182437)" x="73.800255" y="322.182437">0.0</text>
     </g>
    </g>
    <g id="xtick_2">
     <g id="line2d_2">
      <g>
       <use style="stroke:#000000;stroke-width:0.8;" x="138.744153" xlink:href="#m4e8ef7b674" y="307.584"/>
      </g>
     </g>
     <g id="text_2">
      <text style="font-family:DejaVu Sans;font-size:10px;font-style:normal;font-weight:normal;text-anchor:middle;" transform="rotate(-0, 138.744153, 322.182437)" x="138.744153" y="322.182437">0.2</text>
     </g>
    </g>
    <g id="xtick_3">
     <g id="line2d_3">
      <g>
       <use style="stroke:#000000;stroke-width:0.8;" x="203.688051" xlink:href="#m4e8ef7b674" y="307.584"/>
      </g>
     </g>
     <g id="text_3">
      <text style="font-family:DejaVu Sans;font-size:10px;font-style:normal;font-weight:normal;text-anchor:middle;" transform="rotate(-0, 203.688051, 322.182437)" x="203.688051" y="322.182437">0.4</text>
     </g>
    </g>
    <g id="xtick_4">
     <g id="line2d_4">
      <g>
       <use style="stroke:#000000;stroke-width:0.8;" x="268.631949" xlink:href="#m4e8ef7b674" y="307.584"/>
      </g>
     </g>
     <g id="text_4">
      <text style="font-family:DejaVu Sans;font-size:10px;font-style:normal;font-weight:normal;text-anchor:middle;" transform="rotate(-0, 268.631949, 322.182437)" x="268.631949" y="322.182437">0.6</text>
     </g>
    </g>
    <g id="xtick_5">
     <g id="line2d_5">
      <g>
       <use style="stroke:#000000;stroke-width:0.8;" x="333.575847" xlink:href="#m4e8ef7b674" y="307.584"/>
      </g>
     </g>
     <g id="text_5">
      <text style="font-family:DejaVu Sans;font-size:10px;font-style:normal;font-weight:normal;text-anchor:middle;" transform="rotate(-0, 333.575847, 322.182437)" x="333.575847" y="322.182437">0.8</text>
     </g>
    </g>
    <g id="xtick_6">
     <g id="line2d_6">
      <g>
       <use style="stroke:#000000;stroke-width:0.8;" x="398.519745" xlink:href="#m4e8ef7b674" y="307.584"/>
      </g>
     </g>
     <g id="text_6">
      <text style="font-family:DejaVu Sans;font-size:10px;font-style:normal;font-weight:normal;text-anchor:middle;" transform="rotate(-0, 398.519745, 322.182437)" x="398.519745" y="322.182437">1.0</text>
     </g>
    </g>
    <g id="text_7">
     <text style="font-family:DejaVu Sans;font-size:10px;font-style:normal;font-weight:normal;text-anchor:middle;" transform="rotate(-0, 236.16, 335.860562)" x="236.16" y="335.860562">Input Coin's Heads Probability (λ)</text>
    </g>
   </g>
   <g id="matplotlib.axis_2">
    <g id="ytick_1">
     <g id="line2d_7">
      <defs>
       <path d="M 0 0 
L -3.5 0 
" id="m59bfa84305" style="stroke:#000000;stroke-width:0.8;"/>
      </defs>
      <g>
       <use style="stroke:#000000;stroke-width:0.8;" x="57.6" xlink:href="#m59bfa84305" y="295.488"/>
      </g>
     </g>
     <g id="text_8">
      <text style="font-family:DejaVu Sans;font-size:10px;font-style:normal;font-weight:normal;text-anchor:end;" transform="rotate(-0, 50.6, 299.287219)" x="50.6" y="299.287219">0.0</text>
     </g>
    </g>
    <g id="ytick_2">
     <g id="line2d_8">
      <g>
       <use style="stroke:#000000;stroke-width:0.8;" x="57.6" xlink:href="#m59bfa84305" y="247.104"/>
      </g>
     </g>
     <g id="text_9">
      <text style="font-family:DejaVu Sans;font-size:10px;font-style:normal;font-weight:normal;text-anchor:end;" transform="rotate(-0, 50.6, 250.903219)" x="50.6" y="250.903219">0.2</text>
     </g>
    </g>
    <g id="ytick_3">
     <g id="line2d_9">
      <g>
       <use style="stroke:#000000;stroke-width:0.8;" x="57.6" xlink:href="#m59bfa84305" y="198.72"/>
      </g>
     </g>
     <g id="text_10">
      <text style="font-family:DejaVu Sans;font-size:10px;font-style:normal;font-weight:normal;text-anchor:end;" transform="rotate(-0, 50.6, 202.519219)" x="50.6" y="202.519219">0.4</text>
     </g>
    </g>
    <g id="ytick_4">
     <g id="line2d_10">
      <g>
       <use style="stroke:#000000;stroke-width:0.8;" x="57.6" xlink:href="#m59bfa84305" y="150.336"/>
      </g>
     </g>
     <g id="text_11">
      <text style="font-family:DejaVu Sans;font-size:10px;font-style:normal;font-weight:normal;text-anchor:end;" transform="rotate(-0, 50.6, 154.135219)" x="50.6" y="154.135219">0.6</text>
     </g>
    </g>
    <g id="ytick_5">
     <g id="line2d_11">
      <g>
       <use style="stroke:#000000;stroke-width:0.8;" x="57.6" xlink:href="#m59bfa84305" y="101.952"/>
      </g>
     </g>
     <g id="text_12">
      <text style="font-family:DejaVu Sans;font-size:10px;font-style:normal;font-weight:normal;text-anchor:end;" transform="rotate(-0, 50.6, 105.751219)" x="50.6" y="105.751219">0.8</text>
     </g>
    </g>
    <g id="ytick_6">
     <g id="line2d_12">
      <g>
       <use style="stroke:#000000;stroke-width:0.8;" x="57.6" xlink:href="#m59bfa84305" y="53.568"/>
      </g>
     </g>
     <g id="text_13">
      <text style="font-family:DejaVu Sans;font-size:10px;font-style:normal;font-weight:normal;text-anchor:end;" transform="rotate(-0, 50.6, 57.367219)" x="50.6" y="57.367219">1.0</text>
     </g>
    </g>
    <g id="text_14">
     <text style="font-family:DejaVu Sans;font-size:10px;font-style:normal;font-weight:normal;text-anchor:middle;" transform="rotate(-90, 28.617187, 174.528)" x="28.617187" y="174.528">Simulated Mean / Function Value</text>
    </g>
   </g>
   <g id="line2d_13">
    <path clip-path="url(#p275e062ac3)" d="M 73.832727 295.485581 
L 77.112066 294.703906 
L 80.391405 293.63452 
L 83.670744 292.417496 
L 86.950083 291.093228 
L 90.229421 289.682953 
L 93.50876 288.200083 
L 96.788099 286.653965 
L 100.067438 285.05154 
L 103.346777 283.398195 
L 106.626116 281.698247 
L 109.905455 279.955244 
L 113.184793 278.172162 
L 116.464132 276.351535 
L 119.743471 274.495553 
L 123.02281 272.60613 
L 126.302149 270.684953 
L 129.581488 268.733523 
L 132.860826 266.753187 
L 136.140165 264.745156 
L 139.419504 262.710532 
L 142.698843 260.65032 
L 145.978182 258.565438 
L 149.257521 256.456732 
L 152.53686 254.324985 
L 155.816198 252.170919 
L 159.095537 249.995208 
L 162.374876 247.798479 
L 165.654215 245.58132 
L 168.933554 243.344279 
L 172.212893 241.087873 
L 175.492231 238.812588 
L 178.77157 236.518883 
L 182.050909 234.207191 
L 185.330248 231.877923 
L 188.609587 229.531468 
L 191.888926 227.168195 
L 195.168264 224.788456 
L 198.447603 222.392586 
L 201.726942 219.980904 
L 205.006281 217.553715 
L 208.28562 215.111311 
L 211.564959 212.653972 
L 214.844298 210.181964 
L 218.123636 207.695544 
L 221.402975 205.194959 
L 224.682314 202.680445 
L 227.961653 200.15223 
L 231.240992 197.610533 
L 234.520331 195.055566 
L 237.799669 192.487531 
L 241.079008 189.906627 
L 244.358347 187.313041 
L 247.637686 184.706958 
L 250.917025 182.088554 
L 254.196364 179.458002 
L 257.475702 176.815467 
L 260.755041 174.16111 
L 264.03438 171.495088 
L 267.313719 168.81755 
L 270.593058 166.128645 
L 273.872397 163.428513 
L 277.151736 160.717294 
L 280.431074 157.995123 
L 283.710413 155.262128 
L 286.989752 152.518439 
L 290.269091 149.764177 
L 293.54843 146.999464 
L 296.827769 144.224417 
L 300.107107 141.43915 
L 303.386446 138.643775 
L 306.665785 135.838399 
L 309.945124 133.023129 
L 313.224463 130.198067 
L 316.503802 127.363315 
L 319.78314 124.518972 
L 323.062479 121.665132 
L 326.341818 118.80189 
L 329.621157 115.929338 
L 332.900496 113.047565 
L 336.179835 110.156659 
L 339.459174 107.256705 
L 342.738512 104.347789 
L 346.017851 101.429991 
L 349.29719 98.503392 
L 352.576529 95.56807 
L 355.855868 92.624104 
L 359.135207 89.671568 
L 362.414545 86.710536 
L 365.693884 83.741081 
L 368.973223 80.763274 
L 372.252562 77.777185 
L 375.531901 74.782881 
L 378.81124 71.78043 
L 382.090579 68.769899 
L 385.369917 65.75135 
L 388.649256 62.724848 
L 391.928595 59.690455 
L 395.207934 56.648233 
L 398.487273 53.59824 
" style="fill:none;stroke:#1f77b4;stroke-linecap:square;stroke-width:1.5;"/>
   </g>
   <g id="line2d_14">
    <path clip-path="url(#p275e062ac3)" d="M 73.832727 295.488 
L 77.112066 295.488 
L 80.391405 292.58496 
L 83.670744 291.13344 
L 86.950083 293.0688 
L 90.229421 288.71424 
L 93.50876 286.77888 
L 96.788099 284.35968 
L 100.067438 289.19808 
L 103.346777 282.42432 
L 106.626116 284.84352 
L 109.905455 282.42432 
L 113.184793 278.06976 
L 116.464132 272.74752 
L 119.743471 273.23136 
L 123.02281 275.16672 
L 126.302149 269.84448 
L 129.581488 267.90912 
L 132.860826 271.77984 
L 136.140165 264.0384 
L 139.419504 263.55456 
L 142.698843 263.55456 
L 145.978182 253.39392 
L 149.257521 255.32928 
L 152.53686 255.32928 
L 155.816198 252.91008 
L 159.095537 245.16864 
L 162.374876 250.00704 
L 165.654215 240.33024 
L 168.933554 248.07168 
L 172.212893 235.49184 
L 175.492231 243.23328 
L 178.77157 243.23328 
L 182.050909 233.55648 
L 185.330248 236.94336 
L 188.609587 232.5888 
L 191.888926 222.42816 
L 195.168264 226.29888 
L 198.447603 224.36352 
L 201.726942 210.816 
L 205.006281 218.0736 
L 208.28562 215.6544 
L 211.564959 220.00896 
L 214.844298 221.94432 
L 218.123636 212.26752 
L 221.402975 203.07456 
L 224.682314 205.9776 
L 227.961653 208.88064 
L 231.240992 197.26848 
L 234.520331 191.4624 
L 237.799669 200.17152 
L 241.079008 180.33408 
L 244.358347 189.0432 
L 247.637686 188.07552 
L 250.917025 192.91392 
L 254.196364 182.26944 
L 257.475702 184.2048 
L 260.755041 170.17344 
L 264.03438 186.624 
L 267.313719 168.72192 
L 270.593058 170.17344 
L 273.872397 159.04512 
L 277.151736 158.07744 
L 280.431074 155.1744 
L 283.710413 155.65824 
L 286.989752 149.36832 
L 290.269091 148.40064 
L 293.54843 155.1744 
L 296.827769 128.5632 
L 300.107107 154.20672 
L 303.386446 133.4016 
L 306.665785 130.9824 
L 309.945124 134.85312 
L 313.224463 130.49856 
L 316.503802 133.88544 
L 319.78314 123.24096 
L 323.062479 123.24096 
L 326.341818 117.43488 
L 329.621157 117.91872 
L 332.900496 115.01568 
L 336.179835 107.75808 
L 339.459174 109.2096 
L 342.738512 100.01664 
L 346.017851 97.59744 
L 349.29719 97.59744 
L 352.576529 99.04896 
L 355.855868 85.50144 
L 359.135207 87.92064 
L 362.414545 90.33984 
L 365.693884 78.24384 
L 368.973223 75.3408 
L 372.252562 75.3408 
L 375.531901 75.82464 
L 378.81124 70.98624 
L 382.090579 72.43776 
L 385.369917 64.69632 
L 388.649256 64.69632 
L 391.928595 60.34176 
L 395.207934 57.43872 
L 398.487273 53.568 
" style="fill:none;stroke:#ff7f0e;stroke-linecap:square;stroke-width:1.5;"/>
   </g>
   <g id="patch_3">
    <path d="M 57.6 307.584 
L 57.6 41.472 
" style="fill:none;stroke:#000000;stroke-linecap:square;stroke-linejoin:miter;stroke-width:0.8;"/>
   </g>
   <g id="patch_4">
    <path d="M 414.72 307.584 
L 414.72 41.472 
" style="fill:none;stroke:#000000;stroke-linecap:square;stroke-linejoin:miter;stroke-width:0.8;"/>
   </g>
   <g id="patch_5">
    <path d="M 57.6 307.584 
L 414.72 307.584 
" style="fill:none;stroke:#000000;stroke-linecap:square;stroke-linejoin:miter;stroke-width:0.8;"/>
   </g>
   <g id="patch_6">
    <path d="M 57.6 41.472 
L 414.72 41.472 
" style="fill:none;stroke:#000000;stroke-linecap:square;stroke-linejoin:miter;stroke-width:0.8;"/>
   </g>
   <g id="text_15">
    <text style="font-family:DejaVu Sans;font-size:12px;font-style:normal;font-weight:normal;text-anchor:middle;" transform="rotate(-0, 236.16, 35.472)" x="236.16" y="35.472">Expected Value in pow(x,5/4) Algorithm</text>
   </g>
   <g id="legend_1">
    <g id="patch_7">
     <path d="M 64.6 78.82825 
L 247.192187 78.82825 
Q 249.192187 78.82825 249.192187 76.82825 
L 249.192187 48.472 
Q 249.192187 46.472 247.192187 46.472 
L 64.6 46.472 
Q 62.6 46.472 62.6 48.472 
L 62.6 76.82825 
Q 62.6 78.82825 64.6 78.82825 
z
" style="fill:#ffffff;opacity:0.8;stroke:#cccccc;stroke-linejoin:miter;"/>
    </g>
    <g id="line2d_15">
     <path d="M 66.6 54.570437 
L 86.6 54.570437 
" style="fill:none;stroke:#1f77b4;stroke-linecap:square;stroke-width:1.5;"/>
    </g>
    <g id="line2d_16"/>
    <g id="text_16">
     <text style="font-family:DejaVu Sans;font-size:10px;font-style:normal;font-weight:normal;text-anchor:start;" transform="rotate(-0, 94.6, 58.070437)" x="94.6" y="58.070437">pow(x,5/4)</text>
    </g>
    <g id="line2d_17">
     <path d="M 66.6 69.248562 
L 86.6 69.248562 
" style="fill:none;stroke:#ff7f0e;stroke-linecap:square;stroke-width:1.5;"/>
    </g>
    <g id="line2d_18"/>
    <g id="text_17">
     <text style="font-family:DejaVu Sans;font-size:10px;font-style:normal;font-weight:normal;text-anchor:start;" transform="rotate(-0, 94.6, 72.748562)" x="94.6" y="72.748562">Simulated Mean of pow(x,5/4)</text>
    </g>
   </g>
  </g>
 </g>
 <defs>
  <clipPath id="p275e062ac3">
   <rect height="266.112" width="357.12" x="57.6" y="41.472"/>
  </clipPath>
 </defs>
</svg>
