<?xml version="1.0" encoding="utf-8" standalone="no"?>
<!DOCTYPE svg PUBLIC "-//W3C//DTD SVG 1.1//EN"
  "http://www.w3.org/Graphics/SVG/1.1/DTD/svg11.dtd">
<!-- Created with matplotlib (https://matplotlib.org/) -->
<svg height="345.6pt" version="1.1" viewBox="0 0 460.8 345.6" width="460.8pt" xmlns="http://www.w3.org/2000/svg" xmlns:xlink="http://www.w3.org/1999/xlink">
 <defs>
  <style type="text/css">
*{stroke-linecap:butt;stroke-linejoin:round;}
  </style>
 </defs>
 <g id="figure_1">
  <g id="patch_1">
   <path d="M 0 345.6 
L 460.8 345.6 
L 460.8 0 
L 0 0 
z
" style="fill:#ffffff;"/>
  </g>
  <g id="axes_1">
   <g id="patch_2">
    <path d="M 57.6 307.584 
L 414.72 307.584 
L 414.72 41.472 
L 57.6 41.472 
z
" style="fill:#ffffff;"/>
   </g>
   <g id="matplotlib.axis_1">
    <g id="xtick_1">
     <g id="line2d_1">
      <defs>
       <path d="M 0 0 
L 0 3.5 
" id="m754defa5d3" style="stroke:#000000;stroke-width:0.8;"/>
      </defs>
      <g>
       <use style="stroke:#000000;stroke-width:0.8;" x="73.800255" xlink:href="#m754defa5d3" y="307.584"/>
      </g>
     </g>
     <g id="text_1">
      <text style="font-family:DejaVu Sans;font-size:10px;font-style:normal;font-weight:normal;text-anchor:middle;" transform="rotate(-0, 73.800255, 322.182437)" x="73.800255" y="322.182437">0.0</text>
     </g>
    </g>
    <g id="xtick_2">
     <g id="line2d_2">
      <g>
       <use style="stroke:#000000;stroke-width:0.8;" x="138.744153" xlink:href="#m754defa5d3" y="307.584"/>
      </g>
     </g>
     <g id="text_2">
      <text style="font-family:DejaVu Sans;font-size:10px;font-style:normal;font-weight:normal;text-anchor:middle;" transform="rotate(-0, 138.744153, 322.182437)" x="138.744153" y="322.182437">0.2</text>
     </g>
    </g>
    <g id="xtick_3">
     <g id="line2d_3">
      <g>
       <use style="stroke:#000000;stroke-width:0.8;" x="203.688051" xlink:href="#m754defa5d3" y="307.584"/>
      </g>
     </g>
     <g id="text_3">
      <text style="font-family:DejaVu Sans;font-size:10px;font-style:normal;font-weight:normal;text-anchor:middle;" transform="rotate(-0, 203.688051, 322.182437)" x="203.688051" y="322.182437">0.4</text>
     </g>
    </g>
    <g id="xtick_4">
     <g id="line2d_4">
      <g>
       <use style="stroke:#000000;stroke-width:0.8;" x="268.631949" xlink:href="#m754defa5d3" y="307.584"/>
      </g>
     </g>
     <g id="text_4">
      <text style="font-family:DejaVu Sans;font-size:10px;font-style:normal;font-weight:normal;text-anchor:middle;" transform="rotate(-0, 268.631949, 322.182437)" x="268.631949" y="322.182437">0.6</text>
     </g>
    </g>
    <g id="xtick_5">
     <g id="line2d_5">
      <g>
       <use style="stroke:#000000;stroke-width:0.8;" x="333.575847" xlink:href="#m754defa5d3" y="307.584"/>
      </g>
     </g>
     <g id="text_5">
      <text style="font-family:DejaVu Sans;font-size:10px;font-style:normal;font-weight:normal;text-anchor:middle;" transform="rotate(-0, 333.575847, 322.182437)" x="333.575847" y="322.182437">0.8</text>
     </g>
    </g>
    <g id="xtick_6">
     <g id="line2d_6">
      <g>
       <use style="stroke:#000000;stroke-width:0.8;" x="398.519745" xlink:href="#m754defa5d3" y="307.584"/>
      </g>
     </g>
     <g id="text_6">
      <text style="font-family:DejaVu Sans;font-size:10px;font-style:normal;font-weight:normal;text-anchor:middle;" transform="rotate(-0, 398.519745, 322.182437)" x="398.519745" y="322.182437">1.0</text>
     </g>
    </g>
    <g id="text_7">
     <text style="font-family:DejaVu Sans;font-size:10px;font-style:normal;font-weight:normal;text-anchor:middle;" transform="rotate(-0, 236.16, 335.860562)" x="236.16" y="335.860562">Input Coin's Heads Probability (λ)</text>
    </g>
   </g>
   <g id="matplotlib.axis_2">
    <g id="ytick_1">
     <g id="line2d_7">
      <defs>
       <path d="M 0 0 
L -3.5 0 
" id="m12f8a4c168" style="stroke:#000000;stroke-width:0.8;"/>
      </defs>
      <g>
       <use style="stroke:#000000;stroke-width:0.8;" x="57.6" xlink:href="#m12f8a4c168" y="295.488"/>
      </g>
     </g>
     <g id="text_8">
      <text style="font-family:DejaVu Sans;font-size:10px;font-style:normal;font-weight:normal;text-anchor:end;" transform="rotate(-0, 50.6, 299.287219)" x="50.6" y="299.287219">0.0</text>
     </g>
    </g>
    <g id="ytick_2">
     <g id="line2d_8">
      <g>
       <use style="stroke:#000000;stroke-width:0.8;" x="57.6" xlink:href="#m12f8a4c168" y="247.104"/>
      </g>
     </g>
     <g id="text_9">
      <text style="font-family:DejaVu Sans;font-size:10px;font-style:normal;font-weight:normal;text-anchor:end;" transform="rotate(-0, 50.6, 250.903219)" x="50.6" y="250.903219">0.2</text>
     </g>
    </g>
    <g id="ytick_3">
     <g id="line2d_9">
      <g>
       <use style="stroke:#000000;stroke-width:0.8;" x="57.6" xlink:href="#m12f8a4c168" y="198.72"/>
      </g>
     </g>
     <g id="text_10">
      <text style="font-family:DejaVu Sans;font-size:10px;font-style:normal;font-weight:normal;text-anchor:end;" transform="rotate(-0, 50.6, 202.519219)" x="50.6" y="202.519219">0.4</text>
     </g>
    </g>
    <g id="ytick_4">
     <g id="line2d_10">
      <g>
       <use style="stroke:#000000;stroke-width:0.8;" x="57.6" xlink:href="#m12f8a4c168" y="150.336"/>
      </g>
     </g>
     <g id="text_11">
      <text style="font-family:DejaVu Sans;font-size:10px;font-style:normal;font-weight:normal;text-anchor:end;" transform="rotate(-0, 50.6, 154.135219)" x="50.6" y="154.135219">0.6</text>
     </g>
    </g>
    <g id="ytick_5">
     <g id="line2d_11">
      <g>
       <use style="stroke:#000000;stroke-width:0.8;" x="57.6" xlink:href="#m12f8a4c168" y="101.952"/>
      </g>
     </g>
     <g id="text_12">
      <text style="font-family:DejaVu Sans;font-size:10px;font-style:normal;font-weight:normal;text-anchor:end;" transform="rotate(-0, 50.6, 105.751219)" x="50.6" y="105.751219">0.8</text>
     </g>
    </g>
    <g id="ytick_6">
     <g id="line2d_12">
      <g>
       <use style="stroke:#000000;stroke-width:0.8;" x="57.6" xlink:href="#m12f8a4c168" y="53.568"/>
      </g>
     </g>
     <g id="text_13">
      <text style="font-family:DejaVu Sans;font-size:10px;font-style:normal;font-weight:normal;text-anchor:end;" transform="rotate(-0, 50.6, 57.367219)" x="50.6" y="57.367219">1.0</text>
     </g>
    </g>
    <g id="text_14">
     <text style="font-family:DejaVu Sans;font-size:10px;font-style:normal;font-weight:normal;text-anchor:middle;" transform="rotate(-90, 28.617187, 174.528)" x="28.617187" y="174.528">Simulated Mean / Function Value</text>
    </g>
   </g>
   <g id="line2d_13">
    <path clip-path="url(#p6cceade884)" d="M 73.832727 295.335359 
L 77.112066 289.314698 
L 80.391405 284.781833 
L 83.670744 280.699095 
L 86.950083 276.884223 
L 90.229421 273.257076 
L 93.50876 269.772911 
L 96.788099 266.403361 
L 100.067438 263.128941 
L 103.346777 259.935497 
L 106.626116 256.812318 
L 109.905455 253.751033 
L 113.184793 250.744939 
L 116.464132 247.788553 
L 119.743471 244.877317 
L 123.02281 242.007383 
L 126.302149 239.175467 
L 129.581488 236.378733 
L 132.860826 233.614711 
L 136.140165 230.88123 
L 139.419504 228.176372 
L 142.698843 225.498427 
L 145.978182 222.845863 
L 149.257521 220.217303 
L 152.53686 217.611498 
L 155.816198 215.027317 
L 159.095537 212.463724 
L 162.374876 209.919774 
L 165.654215 207.394595 
L 168.933554 204.887388 
L 172.212893 202.397409 
L 175.492231 199.923974 
L 178.77157 197.466442 
L 182.050909 195.024221 
L 185.330248 192.596754 
L 188.609587 190.183522 
L 191.888926 187.784039 
L 195.168264 185.397848 
L 198.447603 183.024518 
L 201.726942 180.663646 
L 205.006281 178.314848 
L 208.28562 175.977763 
L 211.564959 173.652049 
L 214.844298 171.337382 
L 218.123636 169.033454 
L 221.402975 166.739974 
L 224.682314 164.456664 
L 227.961653 162.183257 
L 231.240992 159.919504 
L 234.520331 157.665161 
L 237.799669 155.42 
L 241.079008 153.183801 
L 244.358347 150.956353 
L 247.637686 148.737454 
L 250.917025 146.526912 
L 254.196364 144.324541 
L 257.475702 142.130163 
L 260.755041 139.943607 
L 264.03438 137.764709 
L 267.313719 135.593311 
L 270.593058 133.42926 
L 273.872397 131.27241 
L 277.151736 129.122619 
L 280.431074 126.97975 
L 283.710413 124.843673 
L 286.989752 122.714261 
L 290.269091 120.591389 
L 293.54843 118.47494 
L 296.827769 116.364798 
L 300.107107 114.260853 
L 303.386446 112.162997 
L 306.665785 110.071126 
L 309.945124 107.985139 
L 313.224463 105.904937 
L 316.503802 103.830426 
L 319.78314 101.761513 
L 323.062479 99.69811 
L 326.341818 97.640129 
L 329.621157 95.587486 
L 332.900496 93.5401 
L 336.179835 91.497889 
L 339.459174 89.460777 
L 342.738512 87.428688 
L 346.017851 85.401549 
L 349.29719 83.379288 
L 352.576529 81.361836 
L 355.855868 79.349125 
L 359.135207 77.341089 
L 362.414545 75.337663 
L 365.693884 73.338785 
L 368.973223 71.344394 
L 372.252562 69.354429 
L 375.531901 67.368832 
L 378.81124 65.387547 
L 382.090579 63.410518 
L 385.369917 61.43769 
L 388.649256 59.469011 
L 391.928595 57.504429 
L 395.207934 55.543893 
L 398.487273 53.587354 
" style="fill:none;stroke:#1f77b4;stroke-linecap:square;stroke-width:1.5;"/>
   </g>
   <g id="line2d_14">
    <path clip-path="url(#p6cceade884)" d="M 73.832727 295.488 
L 77.112066 289.68192 
L 80.391405 285.8112 
L 83.670744 281.45664 
L 86.950083 279.03744 
L 90.229421 271.296 
L 93.50876 265.97376 
L 96.788099 265.97376 
L 100.067438 263.07072 
L 103.346777 259.2 
L 106.626116 252.91008 
L 109.905455 256.7808 
L 113.184793 253.39392 
L 116.464132 246.13632 
L 119.743471 246.13632 
L 123.02281 249.5232 
L 126.302149 238.39488 
L 129.581488 238.87872 
L 132.860826 231.13728 
L 136.140165 238.87872 
L 139.419504 225.81504 
L 142.698843 222.42816 
L 145.978182 218.0736 
L 149.257521 225.3312 
L 152.53686 215.17056 
L 155.816198 220.00896 
L 159.095537 214.68672 
L 162.374876 204.52608 
L 165.654215 204.04224 
L 168.933554 206.46144 
L 172.212893 206.46144 
L 175.492231 204.52608 
L 178.77157 194.84928 
L 182.050909 196.78464 
L 185.330248 182.75328 
L 188.609587 188.55936 
L 191.888926 197.26848 
L 195.168264 179.3664 
L 198.447603 177.91488 
L 201.726942 180.33408 
L 205.006281 175.49568 
L 208.28562 178.88256 
L 211.564959 183.72096 
L 214.844298 170.17344 
L 218.123636 172.1088 
L 221.402975 167.2704 
L 224.682314 165.81888 
L 227.961653 163.39968 
L 231.240992 148.88448 
L 234.520331 161.46432 
L 237.799669 150.336 
L 241.079008 157.10976 
L 244.358347 160.0128 
L 247.637686 147.43296 
L 250.917025 146.46528 
L 254.196364 150.81984 
L 257.475702 139.69152 
L 260.755041 137.27232 
L 264.03438 131.95008 
L 267.313719 140.17536 
L 270.593058 133.4016 
L 273.872397 131.46624 
L 277.151736 131.95008 
L 280.431074 130.01472 
L 283.710413 125.17632 
L 286.989752 119.85408 
L 290.269091 120.33792 
L 293.54843 121.78944 
L 296.827769 117.43488 
L 300.107107 107.27424 
L 303.386446 109.2096 
L 306.665785 99.5328 
L 309.945124 107.27424 
L 313.224463 108.24192 
L 316.503802 99.04896 
L 319.78314 103.40352 
L 323.062479 111.6288 
L 326.341818 94.21056 
L 329.621157 100.50048 
L 332.900496 96.62976 
L 336.179835 92.75904 
L 339.459174 89.37216 
L 342.738512 89.37216 
L 346.017851 84.04992 
L 349.29719 90.82368 
L 352.576529 90.33984 
L 355.855868 75.3408 
L 359.135207 78.72768 
L 362.414545 78.72768 
L 365.693884 67.59936 
L 368.973223 72.9216 
L 372.252562 70.5024 
L 375.531901 68.56704 
L 378.81124 62.27712 
L 382.090579 64.69632 
L 385.369917 62.27712 
L 388.649256 57.43872 
L 391.928595 57.92256 
L 395.207934 55.50336 
L 398.487273 53.568 
" style="fill:none;stroke:#ff7f0e;stroke-linecap:square;stroke-width:1.5;"/>
   </g>
   <g id="patch_3">
    <path d="M 57.6 307.584 
L 57.6 41.472 
" style="fill:none;stroke:#000000;stroke-linecap:square;stroke-linejoin:miter;stroke-width:0.8;"/>
   </g>
   <g id="patch_4">
    <path d="M 414.72 307.584 
L 414.72 41.472 
" style="fill:none;stroke:#000000;stroke-linecap:square;stroke-linejoin:miter;stroke-width:0.8;"/>
   </g>
   <g id="patch_5">
    <path d="M 57.6 307.584 
L 414.72 307.584 
" style="fill:none;stroke:#000000;stroke-linecap:square;stroke-linejoin:miter;stroke-width:0.8;"/>
   </g>
   <g id="patch_6">
    <path d="M 57.6 41.472 
L 414.72 41.472 
" style="fill:none;stroke:#000000;stroke-linecap:square;stroke-linejoin:miter;stroke-width:0.8;"/>
   </g>
   <g id="text_15">
    <text style="font-family:DejaVu Sans;font-size:12px;font-style:normal;font-weight:normal;" transform="translate(112.047188 22.034625)">Simulated Mean for pow(x,4/5) Algorithm</text>
    <text style="font-family:DejaVu Sans;font-size:12px;font-style:normal;font-weight:normal;" transform="translate(132.609375 35.472)">(Wasserstein Distances in Legend)</text>
   </g>
   <g id="legend_1">
    <g id="patch_7">
     <path d="M 64.6 78.82825 
L 242.85 78.82825 
Q 244.85 78.82825 244.85 76.82825 
L 244.85 48.472 
Q 244.85 46.472 242.85 46.472 
L 64.6 46.472 
Q 62.6 46.472 62.6 48.472 
L 62.6 76.82825 
Q 62.6 78.82825 64.6 78.82825 
z
" style="fill:#ffffff;opacity:0.8;stroke:#cccccc;stroke-linejoin:miter;"/>
    </g>
    <g id="line2d_15">
     <path d="M 66.6 54.570437 
L 86.6 54.570437 
" style="fill:none;stroke:#1f77b4;stroke-linecap:square;stroke-width:1.5;"/>
    </g>
    <g id="line2d_16"/>
    <g id="text_16">
     <text style="font-family:DejaVu Sans;font-size:10px;font-style:normal;font-weight:normal;text-anchor:start;" transform="rotate(-0, 94.6, 58.070437)" x="94.6" y="58.070437">pow(x,4/5)</text>
    </g>
    <g id="line2d_17">
     <path d="M 66.6 69.248562 
L 86.6 69.248562 
" style="fill:none;stroke:#ff7f0e;stroke-linecap:square;stroke-width:1.5;"/>
    </g>
    <g id="line2d_18"/>
    <g id="text_17">
     <text style="font-family:DejaVu Sans;font-size:10px;font-style:normal;font-weight:normal;text-anchor:start;" transform="rotate(-0, 94.6, 72.748562)" x="94.6" y="72.748562">Simul. Mean (WD=0.005839)</text>
    </g>
   </g>
  </g>
 </g>
 <defs>
  <clipPath id="p6cceade884">
   <rect height="266.112" width="357.12" x="57.6" y="41.472"/>
  </clipPath>
 </defs>
</svg>
