<?xml version="1.0" encoding="utf-8" standalone="no"?>
<!DOCTYPE svg PUBLIC "-//W3C//DTD SVG 1.1//EN"
  "http://www.w3.org/Graphics/SVG/1.1/DTD/svg11.dtd">
<!-- Created with matplotlib (https://matplotlib.org/) -->
<svg height="345.6pt" version="1.1" viewBox="0 0 460.8 345.6" width="460.8pt" xmlns="http://www.w3.org/2000/svg" xmlns:xlink="http://www.w3.org/1999/xlink">
 <defs>
  <style type="text/css">
*{stroke-linecap:butt;stroke-linejoin:round;}
  </style>
 </defs>
 <g id="figure_1">
  <g id="patch_1">
   <path d="M 0 345.6 
L 460.8 345.6 
L 460.8 0 
L 0 0 
z
" style="fill:#ffffff;"/>
  </g>
  <g id="axes_1">
   <g id="patch_2">
    <path d="M 57.6 307.584 
L 414.72 307.584 
L 414.72 41.472 
L 57.6 41.472 
z
" style="fill:#ffffff;"/>
   </g>
   <g id="matplotlib.axis_1">
    <g id="xtick_1">
     <g id="line2d_1">
      <defs>
       <path d="M 0 0 
L 0 3.5 
" id="m44ed448206" style="stroke:#000000;stroke-width:0.8;"/>
      </defs>
      <g>
       <use style="stroke:#000000;stroke-width:0.8;" x="73.800255" xlink:href="#m44ed448206" y="307.584"/>
      </g>
     </g>
     <g id="text_1">
      <text style="font-family:DejaVu Sans;font-size:10px;font-style:normal;font-weight:normal;text-anchor:middle;" transform="rotate(-0, 73.800255, 322.182437)" x="73.800255" y="322.182437">0.0</text>
     </g>
    </g>
    <g id="xtick_2">
     <g id="line2d_2">
      <g>
       <use style="stroke:#000000;stroke-width:0.8;" x="138.744153" xlink:href="#m44ed448206" y="307.584"/>
      </g>
     </g>
     <g id="text_2">
      <text style="font-family:DejaVu Sans;font-size:10px;font-style:normal;font-weight:normal;text-anchor:middle;" transform="rotate(-0, 138.744153, 322.182437)" x="138.744153" y="322.182437">0.2</text>
     </g>
    </g>
    <g id="xtick_3">
     <g id="line2d_3">
      <g>
       <use style="stroke:#000000;stroke-width:0.8;" x="203.688051" xlink:href="#m44ed448206" y="307.584"/>
      </g>
     </g>
     <g id="text_3">
      <text style="font-family:DejaVu Sans;font-size:10px;font-style:normal;font-weight:normal;text-anchor:middle;" transform="rotate(-0, 203.688051, 322.182437)" x="203.688051" y="322.182437">0.4</text>
     </g>
    </g>
    <g id="xtick_4">
     <g id="line2d_4">
      <g>
       <use style="stroke:#000000;stroke-width:0.8;" x="268.631949" xlink:href="#m44ed448206" y="307.584"/>
      </g>
     </g>
     <g id="text_4">
      <text style="font-family:DejaVu Sans;font-size:10px;font-style:normal;font-weight:normal;text-anchor:middle;" transform="rotate(-0, 268.631949, 322.182437)" x="268.631949" y="322.182437">0.6</text>
     </g>
    </g>
    <g id="xtick_5">
     <g id="line2d_5">
      <g>
       <use style="stroke:#000000;stroke-width:0.8;" x="333.575847" xlink:href="#m44ed448206" y="307.584"/>
      </g>
     </g>
     <g id="text_5">
      <text style="font-family:DejaVu Sans;font-size:10px;font-style:normal;font-weight:normal;text-anchor:middle;" transform="rotate(-0, 333.575847, 322.182437)" x="333.575847" y="322.182437">0.8</text>
     </g>
    </g>
    <g id="xtick_6">
     <g id="line2d_6">
      <g>
       <use style="stroke:#000000;stroke-width:0.8;" x="398.519745" xlink:href="#m44ed448206" y="307.584"/>
      </g>
     </g>
     <g id="text_6">
      <text style="font-family:DejaVu Sans;font-size:10px;font-style:normal;font-weight:normal;text-anchor:middle;" transform="rotate(-0, 398.519745, 322.182437)" x="398.519745" y="322.182437">1.0</text>
     </g>
    </g>
    <g id="text_7">
     <text style="font-family:DejaVu Sans;font-size:10px;font-style:normal;font-weight:normal;text-anchor:middle;" transform="rotate(-0, 236.16, 335.860562)" x="236.16" y="335.860562">Input Coin's Heads Probability (λ)</text>
    </g>
   </g>
   <g id="matplotlib.axis_2">
    <g id="ytick_1">
     <g id="line2d_7">
      <defs>
       <path d="M 0 0 
L -3.5 0 
" id="m8561cd6874" style="stroke:#000000;stroke-width:0.8;"/>
      </defs>
      <g>
       <use style="stroke:#000000;stroke-width:0.8;" x="57.6" xlink:href="#m8561cd6874" y="295.536389"/>
      </g>
     </g>
     <g id="text_8">
      <text style="font-family:DejaVu Sans;font-size:10px;font-style:normal;font-weight:normal;text-anchor:end;" transform="rotate(-0, 50.6, 299.335608)" x="50.6" y="299.335608">0.00</text>
     </g>
    </g>
    <g id="ytick_2">
     <g id="line2d_8">
      <g>
       <use style="stroke:#000000;stroke-width:0.8;" x="57.6" xlink:href="#m8561cd6874" y="265.29034"/>
      </g>
     </g>
     <g id="text_9">
      <text style="font-family:DejaVu Sans;font-size:10px;font-style:normal;font-weight:normal;text-anchor:end;" transform="rotate(-0, 50.6, 269.089559)" x="50.6" y="269.089559">0.25</text>
     </g>
    </g>
    <g id="ytick_3">
     <g id="line2d_9">
      <g>
       <use style="stroke:#000000;stroke-width:0.8;" x="57.6" xlink:href="#m8561cd6874" y="235.044292"/>
      </g>
     </g>
     <g id="text_10">
      <text style="font-family:DejaVu Sans;font-size:10px;font-style:normal;font-weight:normal;text-anchor:end;" transform="rotate(-0, 50.6, 238.84351)" x="50.6" y="238.84351">0.50</text>
     </g>
    </g>
    <g id="ytick_4">
     <g id="line2d_10">
      <g>
       <use style="stroke:#000000;stroke-width:0.8;" x="57.6" xlink:href="#m8561cd6874" y="204.798243"/>
      </g>
     </g>
     <g id="text_11">
      <text style="font-family:DejaVu Sans;font-size:10px;font-style:normal;font-weight:normal;text-anchor:end;" transform="rotate(-0, 50.6, 208.597462)" x="50.6" y="208.597462">0.75</text>
     </g>
    </g>
    <g id="ytick_5">
     <g id="line2d_11">
      <g>
       <use style="stroke:#000000;stroke-width:0.8;" x="57.6" xlink:href="#m8561cd6874" y="174.552194"/>
      </g>
     </g>
     <g id="text_12">
      <text style="font-family:DejaVu Sans;font-size:10px;font-style:normal;font-weight:normal;text-anchor:end;" transform="rotate(-0, 50.6, 178.351413)" x="50.6" y="178.351413">1.00</text>
     </g>
    </g>
    <g id="ytick_6">
     <g id="line2d_12">
      <g>
       <use style="stroke:#000000;stroke-width:0.8;" x="57.6" xlink:href="#m8561cd6874" y="144.306146"/>
      </g>
     </g>
     <g id="text_13">
      <text style="font-family:DejaVu Sans;font-size:10px;font-style:normal;font-weight:normal;text-anchor:end;" transform="rotate(-0, 50.6, 148.105365)" x="50.6" y="148.105365">1.25</text>
     </g>
    </g>
    <g id="ytick_7">
     <g id="line2d_13">
      <g>
       <use style="stroke:#000000;stroke-width:0.8;" x="57.6" xlink:href="#m8561cd6874" y="114.060097"/>
      </g>
     </g>
     <g id="text_14">
      <text style="font-family:DejaVu Sans;font-size:10px;font-style:normal;font-weight:normal;text-anchor:end;" transform="rotate(-0, 50.6, 117.859316)" x="50.6" y="117.859316">1.50</text>
     </g>
    </g>
    <g id="ytick_8">
     <g id="line2d_14">
      <g>
       <use style="stroke:#000000;stroke-width:0.8;" x="57.6" xlink:href="#m8561cd6874" y="83.814049"/>
      </g>
     </g>
     <g id="text_15">
      <text style="font-family:DejaVu Sans;font-size:10px;font-style:normal;font-weight:normal;text-anchor:end;" transform="rotate(-0, 50.6, 87.613267)" x="50.6" y="87.613267">1.75</text>
     </g>
    </g>
    <g id="ytick_9">
     <g id="line2d_15">
      <g>
       <use style="stroke:#000000;stroke-width:0.8;" x="57.6" xlink:href="#m8561cd6874" y="53.568"/>
      </g>
     </g>
     <g id="text_16">
      <text style="font-family:DejaVu Sans;font-size:10px;font-style:normal;font-weight:normal;text-anchor:end;" transform="rotate(-0, 50.6, 57.367219)" x="50.6" y="57.367219">2.00</text>
     </g>
    </g>
    <g id="text_17">
     <text style="font-family:DejaVu Sans;font-size:10px;font-style:normal;font-weight:normal;text-anchor:middle;" transform="rotate(-90, 22.254687, 174.528)" x="22.254687" y="174.528">Coin Flips Needed</text>
    </g>
   </g>
   <g id="line2d_16">
    <path clip-path="url(#p87507fdd8f)" d="M 73.832727 295.488 
L 77.112066 290.650553 
L 80.391405 285.908869 
L 83.670744 281.260132 
L 86.950083 276.701636 
L 90.229421 272.230778 
L 93.50876 267.845055 
L 96.788099 263.542059 
L 100.067438 259.31947 
L 103.346777 255.175056 
L 106.626116 251.106665 
L 109.905455 247.112225 
L 113.184793 243.189738 
L 116.464132 239.337276 
L 119.743471 235.552982 
L 123.02281 231.835062 
L 126.302149 228.181784 
L 129.581488 224.591478 
L 132.860826 221.062529 
L 136.140165 217.593378 
L 139.419504 214.182517 
L 142.698843 210.828489 
L 145.978182 207.529887 
L 149.257521 204.285347 
L 152.53686 201.093551 
L 155.816198 197.953223 
L 159.095537 194.863128 
L 162.374876 191.822071 
L 165.654215 188.828894 
L 168.933554 185.882474 
L 172.212893 182.981724 
L 175.492231 180.125591 
L 178.77157 177.313054 
L 182.050909 174.543121 
L 185.330248 171.814832 
L 188.609587 169.127254 
L 191.888926 166.479484 
L 195.168264 163.870643 
L 198.447603 161.299879 
L 201.726942 158.766364 
L 205.006281 156.269295 
L 208.28562 153.807891 
L 211.564959 151.381394 
L 214.844298 148.989065 
L 218.123636 146.630188 
L 221.402975 144.304066 
L 224.682314 142.010023 
L 227.961653 139.747398 
L 231.240992 137.515551 
L 234.520331 135.313859 
L 237.799669 133.141713 
L 241.079008 130.998523 
L 244.358347 128.883715 
L 247.637686 126.796727 
L 250.917025 124.737015 
L 254.196364 122.704048 
L 257.475702 120.697307 
L 260.755041 118.716289 
L 264.03438 116.760501 
L 267.313719 114.829466 
L 270.593058 112.922717 
L 273.872397 111.039797 
L 277.151736 109.180263 
L 280.431074 107.343682 
L 283.710413 105.529632 
L 286.989752 103.7377 
L 290.269091 101.967485 
L 293.54843 100.218594 
L 296.827769 98.490644 
L 300.107107 96.783261 
L 303.386446 95.096081 
L 306.665785 93.428746 
L 309.945124 91.780908 
L 313.224463 90.152229 
L 316.503802 88.542374 
L 319.78314 86.951021 
L 323.062479 85.377851 
L 326.341818 83.822556 
L 329.621157 82.284831 
L 332.900496 80.764381 
L 336.179835 79.260917 
L 339.459174 77.774155 
L 342.738512 76.303819 
L 346.017851 74.849637 
L 349.29719 73.411346 
L 352.576529 71.988686 
L 355.855868 70.581403 
L 359.135207 69.18925 
L 362.414545 67.811985 
L 365.693884 66.449368 
L 368.973223 65.101169 
L 372.252562 63.767158 
L 375.531901 62.447115 
L 378.81124 61.140819 
L 382.090579 59.848059 
L 385.369917 58.568624 
L 388.649256 57.302309 
L 391.928595 56.048914 
L 395.207934 54.808241 
L 398.487273 53.580099 
" style="fill:none;stroke:#1f77b4;stroke-linecap:square;stroke-width:1.5;"/>
   </g>
   <g id="line2d_17">
    <path clip-path="url(#p87507fdd8f)" d="M 73.832727 174.552194 
L 77.112066 173.342352 
L 80.391405 172.132511 
L 83.670744 169.954795 
L 86.950083 168.744953 
L 90.229421 169.712827 
L 93.50876 166.809206 
L 96.788099 169.22889 
L 100.067438 165.599364 
L 103.346777 163.17968 
L 106.626116 160.034091 
L 109.905455 161.001965 
L 113.184793 160.759996 
L 116.464132 155.920628 
L 119.743471 158.340312 
L 123.02281 149.871419 
L 126.302149 153.500945 
L 129.581488 154.952755 
L 132.860826 149.871419 
L 136.140165 150.839292 
L 139.419504 150.597324 
L 142.698843 147.693703 
L 145.978182 150.839292 
L 149.257521 146.72583 
L 152.53686 145.999925 
L 155.816198 140.918588 
L 159.095537 142.612367 
L 162.374876 138.740873 
L 165.654215 146.483861 
L 168.933554 140.192683 
L 172.212893 140.67662 
L 175.492231 133.417568 
L 178.77157 138.256936 
L 182.050909 136.563157 
L 185.330248 133.417568 
L 188.609587 132.691663 
L 191.888926 130.030011 
L 195.168264 132.449695 
L 198.447603 126.158517 
L 201.726942 122.287022 
L 205.006281 122.287022 
L 208.28562 120.351275 
L 211.564959 125.916548 
L 214.844298 120.835212 
L 218.123636 115.269939 
L 221.402975 120.109307 
L 224.682314 114.786002 
L 227.961653 119.383402 
L 231.240992 113.57616 
L 234.520331 113.092224 
L 237.799669 114.544034 
L 241.079008 113.092224 
L 244.358347 115.511908 
L 247.637686 110.67254 
L 250.917025 105.107267 
L 254.196364 107.284982 
L 257.475702 106.801046 
L 260.755041 100.993804 
L 264.03438 105.107267 
L 267.313719 99.058057 
L 270.593058 101.961678 
L 273.872397 96.154436 
L 277.151736 96.638373 
L 280.431074 96.638373 
L 283.710413 92.524911 
L 286.989752 95.186563 
L 290.269091 97.364278 
L 293.54843 92.524911 
L 296.827769 89.137353 
L 300.107107 96.154436 
L 303.386446 87.927511 
L 306.665785 92.766879 
L 309.945124 84.297985 
L 313.224463 82.12027 
L 316.503802 78.248776 
L 319.78314 84.297985 
L 323.062479 83.814049 
L 326.341818 78.974681 
L 329.621157 75.829092 
L 332.900496 76.313029 
L 336.179835 75.345155 
L 339.459174 76.554997 
L 342.738512 72.199566 
L 346.017851 72.199566 
L 349.29719 71.957598 
L 352.576529 69.295945 
L 355.855868 68.812008 
L 359.135207 64.214609 
L 362.414545 67.11823 
L 365.693884 65.424451 
L 368.973223 67.360198 
L 372.252562 63.004767 
L 375.531901 60.827052 
L 378.81124 61.06902 
L 382.090579 58.407368 
L 385.369917 58.649336 
L 388.649256 57.439494 
L 391.928595 55.503747 
L 395.207934 54.293905 
L 398.487273 53.568 
" style="fill:none;stroke:#ff7f0e;stroke-linecap:square;stroke-width:1.5;"/>
   </g>
   <g id="patch_3">
    <path d="M 57.6 307.584 
L 57.6 41.472 
" style="fill:none;stroke:#000000;stroke-linecap:square;stroke-linejoin:miter;stroke-width:0.8;"/>
   </g>
   <g id="patch_4">
    <path d="M 414.72 307.584 
L 414.72 41.472 
" style="fill:none;stroke:#000000;stroke-linecap:square;stroke-linejoin:miter;stroke-width:0.8;"/>
   </g>
   <g id="patch_5">
    <path d="M 57.6 307.584 
L 414.72 307.584 
" style="fill:none;stroke:#000000;stroke-linecap:square;stroke-linejoin:miter;stroke-width:0.8;"/>
   </g>
   <g id="patch_6">
    <path d="M 57.6 41.472 
L 414.72 41.472 
" style="fill:none;stroke:#000000;stroke-linecap:square;stroke-linejoin:miter;stroke-width:0.8;"/>
   </g>
   <g id="text_18">
    <text style="font-family:DejaVu Sans;font-size:12px;font-style:normal;font-weight:normal;text-anchor:middle;" transform="rotate(-0, 236.16, 35.472)" x="236.16" y="35.472">Coin Flips for pow(x,2/1)</text>
   </g>
   <g id="legend_1">
    <g id="patch_7">
     <path d="M 64.6 78.82825 
L 245.404687 78.82825 
Q 247.404687 78.82825 247.404687 76.82825 
L 247.404687 48.472 
Q 247.404687 46.472 245.404687 46.472 
L 64.6 46.472 
Q 62.6 46.472 62.6 48.472 
L 62.6 76.82825 
Q 62.6 78.82825 64.6 78.82825 
z
" style="fill:#ffffff;opacity:0.8;stroke:#cccccc;stroke-linejoin:miter;"/>
    </g>
    <g id="line2d_18">
     <path d="M 66.6 54.570437 
L 86.6 54.570437 
" style="fill:none;stroke:#1f77b4;stroke-linecap:square;stroke-width:1.5;"/>
    </g>
    <g id="line2d_19"/>
    <g id="text_19">
     <text style="font-family:DejaVu Sans;font-size:10px;font-style:normal;font-weight:normal;text-anchor:start;" transform="rotate(-0, 94.6, 58.070437)" x="94.6" y="58.070437">Coin Flip Lower Bound</text>
    </g>
    <g id="line2d_20">
     <path d="M 66.6 69.248562 
L 86.6 69.248562 
" style="fill:none;stroke:#ff7f0e;stroke-linecap:square;stroke-width:1.5;"/>
    </g>
    <g id="line2d_21"/>
    <g id="text_20">
     <text style="font-family:DejaVu Sans;font-size:10px;font-style:normal;font-weight:normal;text-anchor:start;" transform="rotate(-0, 94.6, 72.748562)" x="94.6" y="72.748562">Avg. Coins Flipped pow(x,2/1)</text>
    </g>
   </g>
  </g>
 </g>
 <defs>
  <clipPath id="p87507fdd8f">
   <rect height="266.112" width="357.12" x="57.6" y="41.472"/>
  </clipPath>
 </defs>
</svg>
