<?xml version="1.0" encoding="utf-8" standalone="no"?>
<!DOCTYPE svg PUBLIC "-//W3C//DTD SVG 1.1//EN"
  "http://www.w3.org/Graphics/SVG/1.1/DTD/svg11.dtd">
<!-- Created with matplotlib (https://matplotlib.org/) -->
<svg height="345.6pt" version="1.1" viewBox="0 0 460.8 345.6" width="460.8pt" xmlns="http://www.w3.org/2000/svg" xmlns:xlink="http://www.w3.org/1999/xlink">
 <defs>
  <style type="text/css">
*{stroke-linecap:butt;stroke-linejoin:round;}
  </style>
 </defs>
 <g id="figure_1">
  <g id="patch_1">
   <path d="M 0 345.6 
L 460.8 345.6 
L 460.8 0 
L 0 0 
z
" style="fill:#ffffff;"/>
  </g>
  <g id="axes_1">
   <g id="patch_2">
    <path d="M 57.6 307.584 
L 414.72 307.584 
L 414.72 41.472 
L 57.6 41.472 
z
" style="fill:#ffffff;"/>
   </g>
   <g id="matplotlib.axis_1">
    <g id="xtick_1">
     <g id="line2d_1">
      <defs>
       <path d="M 0 0 
L 0 3.5 
" id="m478fb36e01" style="stroke:#000000;stroke-width:0.8;"/>
      </defs>
      <g>
       <use style="stroke:#000000;stroke-width:0.8;" x="73.800255" xlink:href="#m478fb36e01" y="307.584"/>
      </g>
     </g>
     <g id="text_1">
      <text style="font-family:DejaVu Sans;font-size:10px;font-style:normal;font-weight:normal;text-anchor:middle;" transform="rotate(-0, 73.800255, 322.182437)" x="73.800255" y="322.182437">0.0</text>
     </g>
    </g>
    <g id="xtick_2">
     <g id="line2d_2">
      <g>
       <use style="stroke:#000000;stroke-width:0.8;" x="138.744153" xlink:href="#m478fb36e01" y="307.584"/>
      </g>
     </g>
     <g id="text_2">
      <text style="font-family:DejaVu Sans;font-size:10px;font-style:normal;font-weight:normal;text-anchor:middle;" transform="rotate(-0, 138.744153, 322.182437)" x="138.744153" y="322.182437">0.2</text>
     </g>
    </g>
    <g id="xtick_3">
     <g id="line2d_3">
      <g>
       <use style="stroke:#000000;stroke-width:0.8;" x="203.688051" xlink:href="#m478fb36e01" y="307.584"/>
      </g>
     </g>
     <g id="text_3">
      <text style="font-family:DejaVu Sans;font-size:10px;font-style:normal;font-weight:normal;text-anchor:middle;" transform="rotate(-0, 203.688051, 322.182437)" x="203.688051" y="322.182437">0.4</text>
     </g>
    </g>
    <g id="xtick_4">
     <g id="line2d_4">
      <g>
       <use style="stroke:#000000;stroke-width:0.8;" x="268.631949" xlink:href="#m478fb36e01" y="307.584"/>
      </g>
     </g>
     <g id="text_4">
      <text style="font-family:DejaVu Sans;font-size:10px;font-style:normal;font-weight:normal;text-anchor:middle;" transform="rotate(-0, 268.631949, 322.182437)" x="268.631949" y="322.182437">0.6</text>
     </g>
    </g>
    <g id="xtick_5">
     <g id="line2d_5">
      <g>
       <use style="stroke:#000000;stroke-width:0.8;" x="333.575847" xlink:href="#m478fb36e01" y="307.584"/>
      </g>
     </g>
     <g id="text_5">
      <text style="font-family:DejaVu Sans;font-size:10px;font-style:normal;font-weight:normal;text-anchor:middle;" transform="rotate(-0, 333.575847, 322.182437)" x="333.575847" y="322.182437">0.8</text>
     </g>
    </g>
    <g id="xtick_6">
     <g id="line2d_6">
      <g>
       <use style="stroke:#000000;stroke-width:0.8;" x="398.519745" xlink:href="#m478fb36e01" y="307.584"/>
      </g>
     </g>
     <g id="text_6">
      <text style="font-family:DejaVu Sans;font-size:10px;font-style:normal;font-weight:normal;text-anchor:middle;" transform="rotate(-0, 398.519745, 322.182437)" x="398.519745" y="322.182437">1.0</text>
     </g>
    </g>
    <g id="text_7">
     <text style="font-family:DejaVu Sans;font-size:10px;font-style:normal;font-weight:normal;text-anchor:middle;" transform="rotate(-0, 236.16, 335.860562)" x="236.16" y="335.860562">Input Coin's Heads Probability (λ)</text>
    </g>
   </g>
   <g id="matplotlib.axis_2">
    <g id="ytick_1">
     <g id="line2d_7">
      <defs>
       <path d="M 0 0 
L -3.5 0 
" id="m9b4ab8b4e6" style="stroke:#000000;stroke-width:0.8;"/>
      </defs>
      <g>
       <use style="stroke:#000000;stroke-width:0.8;" x="57.6" xlink:href="#m9b4ab8b4e6" y="307.152906"/>
      </g>
     </g>
     <g id="text_8">
      <text style="font-family:DejaVu Sans;font-size:10px;font-style:normal;font-weight:normal;text-anchor:end;" transform="rotate(-0, 50.6, 310.952124)" x="50.6" y="310.952124">0.0</text>
     </g>
    </g>
    <g id="ytick_2">
     <g id="line2d_8">
      <g>
       <use style="stroke:#000000;stroke-width:0.8;" x="57.6" xlink:href="#m9b4ab8b4e6" y="256.435925"/>
      </g>
     </g>
     <g id="text_9">
      <text style="font-family:DejaVu Sans;font-size:10px;font-style:normal;font-weight:normal;text-anchor:end;" transform="rotate(-0, 50.6, 260.235143)" x="50.6" y="260.235143">0.2</text>
     </g>
    </g>
    <g id="ytick_3">
     <g id="line2d_9">
      <g>
       <use style="stroke:#000000;stroke-width:0.8;" x="57.6" xlink:href="#m9b4ab8b4e6" y="205.718943"/>
      </g>
     </g>
     <g id="text_10">
      <text style="font-family:DejaVu Sans;font-size:10px;font-style:normal;font-weight:normal;text-anchor:end;" transform="rotate(-0, 50.6, 209.518162)" x="50.6" y="209.518162">0.4</text>
     </g>
    </g>
    <g id="ytick_4">
     <g id="line2d_10">
      <g>
       <use style="stroke:#000000;stroke-width:0.8;" x="57.6" xlink:href="#m9b4ab8b4e6" y="155.001962"/>
      </g>
     </g>
     <g id="text_11">
      <text style="font-family:DejaVu Sans;font-size:10px;font-style:normal;font-weight:normal;text-anchor:end;" transform="rotate(-0, 50.6, 158.801181)" x="50.6" y="158.801181">0.6</text>
     </g>
    </g>
    <g id="ytick_5">
     <g id="line2d_11">
      <g>
       <use style="stroke:#000000;stroke-width:0.8;" x="57.6" xlink:href="#m9b4ab8b4e6" y="104.284981"/>
      </g>
     </g>
     <g id="text_12">
      <text style="font-family:DejaVu Sans;font-size:10px;font-style:normal;font-weight:normal;text-anchor:end;" transform="rotate(-0, 50.6, 108.0842)" x="50.6" y="108.0842">0.8</text>
     </g>
    </g>
    <g id="ytick_6">
     <g id="line2d_12">
      <g>
       <use style="stroke:#000000;stroke-width:0.8;" x="57.6" xlink:href="#m9b4ab8b4e6" y="53.568"/>
      </g>
     </g>
     <g id="text_13">
      <text style="font-family:DejaVu Sans;font-size:10px;font-style:normal;font-weight:normal;text-anchor:end;" transform="rotate(-0, 50.6, 57.367219)" x="50.6" y="57.367219">1.0</text>
     </g>
    </g>
    <g id="text_14">
     <text style="font-family:DejaVu Sans;font-size:10px;font-style:normal;font-weight:normal;text-anchor:middle;" transform="rotate(-90, 28.617187, 174.528)" x="28.617187" y="174.528">Simulated Mean / Function Value</text>
    </g>
   </g>
   <g id="line2d_13">
    <path clip-path="url(#p6430728f4c)" d="M 73.832727 295.382537 
L 77.112066 252.159689 
L 80.391405 237.979206 
L 83.670744 228.012155 
L 86.950083 220.071126 
L 90.229421 213.362347 
L 93.50876 207.49651 
L 96.788099 202.250199 
L 100.067438 197.481912 
L 103.346777 193.095698 
L 106.626116 189.023146 
L 109.905455 185.213559 
L 113.184793 181.628204 
L 116.464132 178.236738 
L 119.743471 175.014901 
L 123.02281 171.942952 
L 126.302149 169.004587 
L 129.581488 166.186168 
L 132.860826 163.476156 
L 136.140165 160.864692 
L 139.419504 158.343277 
L 142.698843 155.90453 
L 145.978182 153.541989 
L 149.257521 151.249967 
L 152.53686 149.023426 
L 155.816198 146.857881 
L 159.095537 144.749319 
L 162.374876 142.694132 
L 165.654215 140.689066 
L 168.933554 138.731173 
L 172.212893 136.817771 
L 175.492231 134.946418 
L 178.77157 133.114875 
L 182.050909 131.321092 
L 185.330248 129.563179 
L 188.609587 127.839396 
L 191.888926 126.148134 
L 195.168264 124.487899 
L 198.447603 122.857308 
L 201.726942 121.255071 
L 205.006281 119.679987 
L 208.28562 118.130934 
L 211.564959 116.606863 
L 214.844298 115.106789 
L 218.123636 113.629791 
L 221.402975 112.175 
L 224.682314 110.741601 
L 227.961653 109.328823 
L 231.240992 107.935941 
L 234.520331 106.562269 
L 237.799669 105.207158 
L 241.079008 103.869993 
L 244.358347 102.550192 
L 247.637686 101.247201 
L 250.917025 99.960496 
L 254.196364 98.689577 
L 257.475702 97.433968 
L 260.755041 96.193217 
L 264.03438 94.966891 
L 267.313719 93.754579 
L 270.593058 92.555887 
L 273.872397 91.370439 
L 277.151736 90.197874 
L 280.431074 89.037849 
L 283.710413 87.890033 
L 286.989752 86.754111 
L 290.269091 85.629778 
L 293.54843 84.516744 
L 296.827769 83.414729 
L 300.107107 82.323464 
L 303.386446 81.242691 
L 306.665785 80.172161 
L 309.945124 79.111635 
L 313.224463 78.060883 
L 316.503802 77.019682 
L 319.78314 75.987818 
L 323.062479 74.965085 
L 326.341818 73.951283 
L 329.621157 72.94622 
L 332.900496 71.949709 
L 336.179835 70.961572 
L 339.459174 69.981635 
L 342.738512 69.009729 
L 346.017851 68.045692 
L 349.29719 67.089367 
L 352.576529 66.1406 
L 355.855868 65.199246 
L 359.135207 64.26516 
L 362.414545 63.338203 
L 365.693884 62.418242 
L 368.973223 61.505146 
L 372.252562 60.598788 
L 375.531901 59.699045 
L 378.81124 58.805797 
L 382.090579 57.91893 
L 385.369917 57.03833 
L 388.649256 56.163887 
L 391.928595 55.295495 
L 395.207934 54.433051 
L 398.487273 53.576453 
" style="fill:none;stroke:#1f77b4;stroke-linecap:square;stroke-width:1.5;"/>
   </g>
   <g id="line2d_14">
    <path clip-path="url(#p6430728f4c)" d="M 73.832727 295.488 
L 77.112066 254.914415 
L 80.391405 237.163472 
L 83.670744 232.598943 
L 86.950083 219.412528 
L 90.229421 213.83366 
L 93.50876 214.848 
L 96.788099 203.690264 
L 100.067438 212.312151 
L 103.346777 191.518189 
L 106.626116 184.417811 
L 109.905455 182.896302 
L 113.184793 183.403472 
L 116.464132 181.881962 
L 119.743471 177.317434 
L 123.02281 170.724226 
L 126.302149 158.552151 
L 129.581488 164.131019 
L 132.860826 155.509132 
L 136.140165 158.552151 
L 139.419504 162.609509 
L 142.698843 153.480453 
L 145.978182 145.872906 
L 149.257521 150.944604 
L 152.53686 159.566491 
L 155.816198 145.872906 
L 159.095537 141.815547 
L 162.374876 146.380075 
L 165.654215 148.915925 
L 168.933554 137.251019 
L 172.212893 143.844226 
L 175.492231 135.22234 
L 178.77157 138.265358 
L 182.050909 130.657811 
L 185.330248 124.571774 
L 188.609587 124.571774 
L 191.888926 130.150642 
L 195.168264 128.629132 
L 198.447603 116.964226 
L 201.726942 111.892528 
L 205.006281 123.557434 
L 208.28562 116.964226 
L 211.564959 122.543094 
L 214.844298 117.471396 
L 218.123636 122.543094 
L 221.402975 114.428377 
L 224.682314 109.863849 
L 227.961653 103.777811 
L 231.240992 111.892528 
L 234.520331 104.792151 
L 237.799669 101.241962 
L 241.079008 106.82083 
L 244.358347 104.792151 
L 247.637686 98.198943 
L 250.917025 97.691774 
L 254.196364 101.241962 
L 257.475702 103.270642 
L 260.755041 92.620075 
L 264.03438 96.677434 
L 267.313719 97.184604 
L 270.593058 92.620075 
L 273.872397 99.720453 
L 277.151736 95.663094 
L 280.431074 88.562717 
L 283.710413 92.112906 
L 286.989752 83.491019 
L 290.269091 82.476679 
L 293.54843 86.026868 
L 296.827769 85.519698 
L 300.107107 82.983849 
L 303.386446 80.95517 
L 306.665785 75.376302 
L 309.945124 76.897811 
L 313.224463 79.43366 
L 316.503802 77.404981 
L 319.78314 81.969509 
L 323.062479 77.404981 
L 326.341818 73.347623 
L 329.621157 73.854792 
L 332.900496 71.826113 
L 336.179835 70.811774 
L 339.459174 69.290264 
L 342.738512 65.740075 
L 346.017851 67.768755 
L 349.29719 64.218566 
L 352.576529 72.333283 
L 355.855868 65.232906 
L 359.135207 61.682717 
L 362.414545 61.682717 
L 365.693884 62.697057 
L 368.973223 64.725736 
L 372.252562 62.697057 
L 375.531901 59.146868 
L 378.81124 61.175547 
L 382.090579 58.132528 
L 385.369917 56.103849 
L 388.649256 56.103849 
L 391.928595 57.118189 
L 395.207934 54.58234 
L 398.487273 53.568 
" style="fill:none;stroke:#ff7f0e;stroke-linecap:square;stroke-width:1.5;"/>
   </g>
   <g id="patch_3">
    <path d="M 57.6 307.584 
L 57.6 41.472 
" style="fill:none;stroke:#000000;stroke-linecap:square;stroke-linejoin:miter;stroke-width:0.8;"/>
   </g>
   <g id="patch_4">
    <path d="M 414.72 307.584 
L 414.72 41.472 
" style="fill:none;stroke:#000000;stroke-linecap:square;stroke-linejoin:miter;stroke-width:0.8;"/>
   </g>
   <g id="patch_5">
    <path d="M 57.6 307.584 
L 414.72 307.584 
" style="fill:none;stroke:#000000;stroke-linecap:square;stroke-linejoin:miter;stroke-width:0.8;"/>
   </g>
   <g id="patch_6">
    <path d="M 57.6 41.472 
L 414.72 41.472 
" style="fill:none;stroke:#000000;stroke-linecap:square;stroke-linejoin:miter;stroke-width:0.8;"/>
   </g>
   <g id="text_15">
    <text style="font-family:DejaVu Sans;font-size:12px;font-style:normal;font-weight:normal;" transform="translate(112.047188 22.034625)">Simulated Mean for pow(x,1/3) Algorithm</text>
    <text style="font-family:DejaVu Sans;font-size:12px;font-style:normal;font-weight:normal;" transform="translate(132.609375 35.472)">(Wasserstein Distances in Legend)</text>
   </g>
   <g id="legend_1">
    <g id="patch_7">
     <path d="M 64.6 78.82825 
L 242.85 78.82825 
Q 244.85 78.82825 244.85 76.82825 
L 244.85 48.472 
Q 244.85 46.472 242.85 46.472 
L 64.6 46.472 
Q 62.6 46.472 62.6 48.472 
L 62.6 76.82825 
Q 62.6 78.82825 64.6 78.82825 
z
" style="fill:#ffffff;opacity:0.8;stroke:#cccccc;stroke-linejoin:miter;"/>
    </g>
    <g id="line2d_15">
     <path d="M 66.6 54.570437 
L 86.6 54.570437 
" style="fill:none;stroke:#1f77b4;stroke-linecap:square;stroke-width:1.5;"/>
    </g>
    <g id="line2d_16"/>
    <g id="text_16">
     <text style="font-family:DejaVu Sans;font-size:10px;font-style:normal;font-weight:normal;text-anchor:start;" transform="rotate(-0, 94.6, 58.070437)" x="94.6" y="58.070437">pow(x,1/3)</text>
    </g>
    <g id="line2d_17">
     <path d="M 66.6 69.248562 
L 86.6 69.248562 
" style="fill:none;stroke:#ff7f0e;stroke-linecap:square;stroke-width:1.5;"/>
    </g>
    <g id="line2d_18"/>
    <g id="text_17">
     <text style="font-family:DejaVu Sans;font-size:10px;font-style:normal;font-weight:normal;text-anchor:start;" transform="rotate(-0, 94.6, 72.748562)" x="94.6" y="72.748562">Simul. Mean (WD=0.005462)</text>
    </g>
   </g>
  </g>
 </g>
 <defs>
  <clipPath id="p6430728f4c">
   <rect height="266.112" width="357.12" x="57.6" y="41.472"/>
  </clipPath>
 </defs>
</svg>
