<?xml version="1.0" encoding="utf-8" standalone="no"?>
<!DOCTYPE svg PUBLIC "-//W3C//DTD SVG 1.1//EN"
  "http://www.w3.org/Graphics/SVG/1.1/DTD/svg11.dtd">
<!-- Created with matplotlib (https://matplotlib.org/) -->
<svg height="345.6pt" version="1.1" viewBox="0 0 460.8 345.6" width="460.8pt" xmlns="http://www.w3.org/2000/svg" xmlns:xlink="http://www.w3.org/1999/xlink">
 <defs>
  <style type="text/css">
*{stroke-linecap:butt;stroke-linejoin:round;}
  </style>
 </defs>
 <g id="figure_1">
  <g id="patch_1">
   <path d="M 0 345.6 
L 460.8 345.6 
L 460.8 0 
L 0 0 
z
" style="fill:#ffffff;"/>
  </g>
  <g id="axes_1">
   <g id="patch_2">
    <path d="M 57.6 307.584 
L 414.72 307.584 
L 414.72 41.472 
L 57.6 41.472 
z
" style="fill:#ffffff;"/>
   </g>
   <g id="matplotlib.axis_1">
    <g id="xtick_1">
     <g id="line2d_1">
      <defs>
       <path d="M 0 0 
L 0 3.5 
" id="m36e65c4765" style="stroke:#000000;stroke-width:0.8;"/>
      </defs>
      <g>
       <use style="stroke:#000000;stroke-width:0.8;" x="73.800255" xlink:href="#m36e65c4765" y="307.584"/>
      </g>
     </g>
     <g id="text_1">
      <text style="font-family:DejaVu Sans;font-size:10px;font-style:normal;font-weight:normal;text-anchor:middle;" transform="rotate(-0, 73.800255, 322.182437)" x="73.800255" y="322.182437">0.0</text>
     </g>
    </g>
    <g id="xtick_2">
     <g id="line2d_2">
      <g>
       <use style="stroke:#000000;stroke-width:0.8;" x="138.744153" xlink:href="#m36e65c4765" y="307.584"/>
      </g>
     </g>
     <g id="text_2">
      <text style="font-family:DejaVu Sans;font-size:10px;font-style:normal;font-weight:normal;text-anchor:middle;" transform="rotate(-0, 138.744153, 322.182437)" x="138.744153" y="322.182437">0.2</text>
     </g>
    </g>
    <g id="xtick_3">
     <g id="line2d_3">
      <g>
       <use style="stroke:#000000;stroke-width:0.8;" x="203.688051" xlink:href="#m36e65c4765" y="307.584"/>
      </g>
     </g>
     <g id="text_3">
      <text style="font-family:DejaVu Sans;font-size:10px;font-style:normal;font-weight:normal;text-anchor:middle;" transform="rotate(-0, 203.688051, 322.182437)" x="203.688051" y="322.182437">0.4</text>
     </g>
    </g>
    <g id="xtick_4">
     <g id="line2d_4">
      <g>
       <use style="stroke:#000000;stroke-width:0.8;" x="268.631949" xlink:href="#m36e65c4765" y="307.584"/>
      </g>
     </g>
     <g id="text_4">
      <text style="font-family:DejaVu Sans;font-size:10px;font-style:normal;font-weight:normal;text-anchor:middle;" transform="rotate(-0, 268.631949, 322.182437)" x="268.631949" y="322.182437">0.6</text>
     </g>
    </g>
    <g id="xtick_5">
     <g id="line2d_5">
      <g>
       <use style="stroke:#000000;stroke-width:0.8;" x="333.575847" xlink:href="#m36e65c4765" y="307.584"/>
      </g>
     </g>
     <g id="text_5">
      <text style="font-family:DejaVu Sans;font-size:10px;font-style:normal;font-weight:normal;text-anchor:middle;" transform="rotate(-0, 333.575847, 322.182437)" x="333.575847" y="322.182437">0.8</text>
     </g>
    </g>
    <g id="xtick_6">
     <g id="line2d_6">
      <g>
       <use style="stroke:#000000;stroke-width:0.8;" x="398.519745" xlink:href="#m36e65c4765" y="307.584"/>
      </g>
     </g>
     <g id="text_6">
      <text style="font-family:DejaVu Sans;font-size:10px;font-style:normal;font-weight:normal;text-anchor:middle;" transform="rotate(-0, 398.519745, 322.182437)" x="398.519745" y="322.182437">1.0</text>
     </g>
    </g>
    <g id="text_7">
     <text style="font-family:DejaVu Sans;font-size:10px;font-style:normal;font-weight:normal;text-anchor:middle;" transform="rotate(-0, 236.16, 335.860562)" x="236.16" y="335.860562">Input Coin's Heads Probability (λ)</text>
    </g>
   </g>
   <g id="matplotlib.axis_2">
    <g id="ytick_1">
     <g id="line2d_7">
      <defs>
       <path d="M 0 0 
L -3.5 0 
" id="m40c2b9c89d" style="stroke:#000000;stroke-width:0.8;"/>
      </defs>
      <g>
       <use style="stroke:#000000;stroke-width:0.8;" x="57.6" xlink:href="#m40c2b9c89d" y="295.488"/>
      </g>
     </g>
     <g id="text_8">
      <text style="font-family:DejaVu Sans;font-size:10px;font-style:normal;font-weight:normal;text-anchor:end;" transform="rotate(-0, 50.6, 299.287219)" x="50.6" y="299.287219">0.0</text>
     </g>
    </g>
    <g id="ytick_2">
     <g id="line2d_8">
      <g>
       <use style="stroke:#000000;stroke-width:0.8;" x="57.6" xlink:href="#m40c2b9c89d" y="247.104"/>
      </g>
     </g>
     <g id="text_9">
      <text style="font-family:DejaVu Sans;font-size:10px;font-style:normal;font-weight:normal;text-anchor:end;" transform="rotate(-0, 50.6, 250.903219)" x="50.6" y="250.903219">0.2</text>
     </g>
    </g>
    <g id="ytick_3">
     <g id="line2d_9">
      <g>
       <use style="stroke:#000000;stroke-width:0.8;" x="57.6" xlink:href="#m40c2b9c89d" y="198.72"/>
      </g>
     </g>
     <g id="text_10">
      <text style="font-family:DejaVu Sans;font-size:10px;font-style:normal;font-weight:normal;text-anchor:end;" transform="rotate(-0, 50.6, 202.519219)" x="50.6" y="202.519219">0.4</text>
     </g>
    </g>
    <g id="ytick_4">
     <g id="line2d_10">
      <g>
       <use style="stroke:#000000;stroke-width:0.8;" x="57.6" xlink:href="#m40c2b9c89d" y="150.336"/>
      </g>
     </g>
     <g id="text_11">
      <text style="font-family:DejaVu Sans;font-size:10px;font-style:normal;font-weight:normal;text-anchor:end;" transform="rotate(-0, 50.6, 154.135219)" x="50.6" y="154.135219">0.6</text>
     </g>
    </g>
    <g id="ytick_5">
     <g id="line2d_11">
      <g>
       <use style="stroke:#000000;stroke-width:0.8;" x="57.6" xlink:href="#m40c2b9c89d" y="101.952"/>
      </g>
     </g>
     <g id="text_12">
      <text style="font-family:DejaVu Sans;font-size:10px;font-style:normal;font-weight:normal;text-anchor:end;" transform="rotate(-0, 50.6, 105.751219)" x="50.6" y="105.751219">0.8</text>
     </g>
    </g>
    <g id="ytick_6">
     <g id="line2d_12">
      <g>
       <use style="stroke:#000000;stroke-width:0.8;" x="57.6" xlink:href="#m40c2b9c89d" y="53.568"/>
      </g>
     </g>
     <g id="text_13">
      <text style="font-family:DejaVu Sans;font-size:10px;font-style:normal;font-weight:normal;text-anchor:end;" transform="rotate(-0, 50.6, 57.367219)" x="50.6" y="57.367219">1.0</text>
     </g>
    </g>
    <g id="text_14">
     <text style="font-family:DejaVu Sans;font-size:10px;font-style:normal;font-weight:normal;text-anchor:middle;" transform="rotate(-90, 28.617187, 174.528)" x="28.617187" y="174.528">Simulated Mean / Function Value</text>
    </g>
   </g>
   <g id="line2d_13">
    <path clip-path="url(#pea1ef53512)" d="M 73.832727 295.335359 
L 77.112066 289.314698 
L 80.391405 284.781833 
L 83.670744 280.699095 
L 86.950083 276.884223 
L 90.229421 273.257076 
L 93.50876 269.772911 
L 96.788099 266.403361 
L 100.067438 263.128941 
L 103.346777 259.935497 
L 106.626116 256.812318 
L 109.905455 253.751033 
L 113.184793 250.744939 
L 116.464132 247.788553 
L 119.743471 244.877317 
L 123.02281 242.007383 
L 126.302149 239.175467 
L 129.581488 236.378733 
L 132.860826 233.614711 
L 136.140165 230.88123 
L 139.419504 228.176372 
L 142.698843 225.498427 
L 145.978182 222.845863 
L 149.257521 220.217303 
L 152.53686 217.611498 
L 155.816198 215.027317 
L 159.095537 212.463724 
L 162.374876 209.919774 
L 165.654215 207.394595 
L 168.933554 204.887388 
L 172.212893 202.397409 
L 175.492231 199.923974 
L 178.77157 197.466442 
L 182.050909 195.024221 
L 185.330248 192.596754 
L 188.609587 190.183522 
L 191.888926 187.784039 
L 195.168264 185.397848 
L 198.447603 183.024518 
L 201.726942 180.663646 
L 205.006281 178.314848 
L 208.28562 175.977763 
L 211.564959 173.652049 
L 214.844298 171.337382 
L 218.123636 169.033454 
L 221.402975 166.739974 
L 224.682314 164.456664 
L 227.961653 162.183257 
L 231.240992 159.919504 
L 234.520331 157.665161 
L 237.799669 155.42 
L 241.079008 153.183801 
L 244.358347 150.956353 
L 247.637686 148.737454 
L 250.917025 146.526912 
L 254.196364 144.324541 
L 257.475702 142.130163 
L 260.755041 139.943607 
L 264.03438 137.764709 
L 267.313719 135.593311 
L 270.593058 133.42926 
L 273.872397 131.27241 
L 277.151736 129.122619 
L 280.431074 126.97975 
L 283.710413 124.843673 
L 286.989752 122.714261 
L 290.269091 120.591389 
L 293.54843 118.47494 
L 296.827769 116.364798 
L 300.107107 114.260853 
L 303.386446 112.162997 
L 306.665785 110.071126 
L 309.945124 107.985139 
L 313.224463 105.904937 
L 316.503802 103.830426 
L 319.78314 101.761513 
L 323.062479 99.69811 
L 326.341818 97.640129 
L 329.621157 95.587486 
L 332.900496 93.5401 
L 336.179835 91.497889 
L 339.459174 89.460777 
L 342.738512 87.428688 
L 346.017851 85.401549 
L 349.29719 83.379288 
L 352.576529 81.361836 
L 355.855868 79.349125 
L 359.135207 77.341089 
L 362.414545 75.337663 
L 365.693884 73.338785 
L 368.973223 71.344394 
L 372.252562 69.354429 
L 375.531901 67.368832 
L 378.81124 65.387547 
L 382.090579 63.410518 
L 385.369917 61.43769 
L 388.649256 59.469011 
L 391.928595 57.504429 
L 395.207934 55.543893 
L 398.487273 53.587354 
" style="fill:none;stroke:#1f77b4;stroke-linecap:square;stroke-width:1.5;"/>
   </g>
   <g id="line2d_14">
    <path clip-path="url(#pea1ef53512)" d="M 73.832727 295.488 
L 77.112066 287.26272 
L 80.391405 284.84352 
L 83.670744 278.06976 
L 86.950083 276.61824 
L 90.229421 275.16672 
L 93.50876 265.48992 
L 96.788099 263.55456 
L 100.067438 264.52224 
L 103.346777 252.42624 
L 106.626116 257.26464 
L 109.905455 256.29696 
L 113.184793 247.58784 
L 116.464132 250.00704 
L 119.743471 234.52416 
L 123.02281 246.13632 
L 126.302149 236.94336 
L 129.581488 224.36352 
L 132.860826 233.55648 
L 136.140165 233.07264 
L 139.419504 217.58976 
L 142.698843 229.68576 
L 145.978182 224.84736 
L 149.257521 228.23424 
L 152.53686 220.00896 
L 155.816198 210.816 
L 159.095537 212.26752 
L 162.374876 217.58976 
L 165.654215 206.94528 
L 168.933554 205.9776 
L 172.212893 200.17152 
L 175.492231 206.94528 
L 178.77157 201.1392 
L 182.050909 198.23616 
L 185.330248 196.3008 
L 188.609587 194.84928 
L 191.888926 192.43008 
L 195.168264 190.49472 
L 198.447603 183.23712 
L 201.726942 181.7856 
L 205.006281 177.43104 
L 208.28562 172.1088 
L 211.564959 174.04416 
L 214.844298 162.432 
L 218.123636 166.30272 
L 221.402975 175.01184 
L 224.682314 169.6896 
L 227.961653 162.91584 
L 231.240992 158.56128 
L 234.520331 154.69056 
L 237.799669 163.88352 
L 241.079008 151.78752 
L 244.358347 156.62592 
L 247.637686 150.336 
L 250.917025 139.20768 
L 254.196364 144.52992 
L 257.475702 133.88544 
L 260.755041 146.46528 
L 264.03438 143.56224 
L 267.313719 152.7552 
L 270.593058 131.46624 
L 273.872397 124.20864 
L 277.151736 119.85408 
L 280.431074 125.17632 
L 283.710413 117.91872 
L 286.989752 121.3056 
L 290.269091 115.01568 
L 293.54843 114.53184 
L 296.827769 114.53184 
L 300.107107 115.49952 
L 303.386446 107.27424 
L 306.665785 115.49952 
L 309.945124 110.17728 
L 313.224463 113.56416 
L 316.503802 100.01664 
L 319.78314 100.01664 
L 323.062479 102.43584 
L 326.341818 99.04896 
L 329.621157 91.30752 
L 332.900496 99.04896 
L 336.179835 99.04896 
L 339.459174 96.14592 
L 342.738512 87.4368 
L 346.017851 86.46912 
L 349.29719 84.53376 
L 352.576529 82.11456 
L 355.855868 81.63072 
L 359.135207 70.5024 
L 362.414545 75.3408 
L 365.693884 76.30848 
L 368.973223 69.05088 
L 372.252562 63.72864 
L 375.531901 62.76096 
L 378.81124 65.18016 
L 382.090579 62.76096 
L 385.369917 60.8256 
L 388.649256 58.4064 
L 391.928595 61.30944 
L 395.207934 54.05184 
L 398.487273 53.568 
" style="fill:none;stroke:#ff7f0e;stroke-linecap:square;stroke-width:1.5;"/>
   </g>
   <g id="patch_3">
    <path d="M 57.6 307.584 
L 57.6 41.472 
" style="fill:none;stroke:#000000;stroke-linecap:square;stroke-linejoin:miter;stroke-width:0.8;"/>
   </g>
   <g id="patch_4">
    <path d="M 414.72 307.584 
L 414.72 41.472 
" style="fill:none;stroke:#000000;stroke-linecap:square;stroke-linejoin:miter;stroke-width:0.8;"/>
   </g>
   <g id="patch_5">
    <path d="M 57.6 307.584 
L 414.72 307.584 
" style="fill:none;stroke:#000000;stroke-linecap:square;stroke-linejoin:miter;stroke-width:0.8;"/>
   </g>
   <g id="patch_6">
    <path d="M 57.6 41.472 
L 414.72 41.472 
" style="fill:none;stroke:#000000;stroke-linecap:square;stroke-linejoin:miter;stroke-width:0.8;"/>
   </g>
   <g id="text_15">
    <text style="font-family:DejaVu Sans;font-size:12px;font-style:normal;font-weight:normal;text-anchor:middle;" transform="rotate(-0, 236.16, 35.472)" x="236.16" y="35.472">Expected Value in pow(x,4/5) Algorithm</text>
   </g>
   <g id="legend_1">
    <g id="patch_7">
     <path d="M 64.6 78.82825 
L 247.192187 78.82825 
Q 249.192187 78.82825 249.192187 76.82825 
L 249.192187 48.472 
Q 249.192187 46.472 247.192187 46.472 
L 64.6 46.472 
Q 62.6 46.472 62.6 48.472 
L 62.6 76.82825 
Q 62.6 78.82825 64.6 78.82825 
z
" style="fill:#ffffff;opacity:0.8;stroke:#cccccc;stroke-linejoin:miter;"/>
    </g>
    <g id="line2d_15">
     <path d="M 66.6 54.570437 
L 86.6 54.570437 
" style="fill:none;stroke:#1f77b4;stroke-linecap:square;stroke-width:1.5;"/>
    </g>
    <g id="line2d_16"/>
    <g id="text_16">
     <text style="font-family:DejaVu Sans;font-size:10px;font-style:normal;font-weight:normal;text-anchor:start;" transform="rotate(-0, 94.6, 58.070437)" x="94.6" y="58.070437">pow(x,4/5)</text>
    </g>
    <g id="line2d_17">
     <path d="M 66.6 69.248562 
L 86.6 69.248562 
" style="fill:none;stroke:#ff7f0e;stroke-linecap:square;stroke-width:1.5;"/>
    </g>
    <g id="line2d_18"/>
    <g id="text_17">
     <text style="font-family:DejaVu Sans;font-size:10px;font-style:normal;font-weight:normal;text-anchor:start;" transform="rotate(-0, 94.6, 72.748562)" x="94.6" y="72.748562">Simulated Mean of pow(x,4/5)</text>
    </g>
   </g>
  </g>
 </g>
 <defs>
  <clipPath id="pea1ef53512">
   <rect height="266.112" width="357.12" x="57.6" y="41.472"/>
  </clipPath>
 </defs>
</svg>
