<?xml version="1.0" encoding="utf-8" standalone="no"?>
<!DOCTYPE svg PUBLIC "-//W3C//DTD SVG 1.1//EN"
  "http://www.w3.org/Graphics/SVG/1.1/DTD/svg11.dtd">
<!-- Created with matplotlib (https://matplotlib.org/) -->
<svg height="345.6pt" version="1.1" viewBox="0 0 460.8 345.6" width="460.8pt" xmlns="http://www.w3.org/2000/svg" xmlns:xlink="http://www.w3.org/1999/xlink">
 <defs>
  <style type="text/css">
*{stroke-linecap:butt;stroke-linejoin:round;}
  </style>
 </defs>
 <g id="figure_1">
  <g id="patch_1">
   <path d="M 0 345.6 
L 460.8 345.6 
L 460.8 0 
L 0 0 
z
" style="fill:#ffffff;"/>
  </g>
  <g id="axes_1">
   <g id="patch_2">
    <path d="M 57.6 307.584 
L 414.72 307.584 
L 414.72 41.472 
L 57.6 41.472 
z
" style="fill:#ffffff;"/>
   </g>
   <g id="matplotlib.axis_1">
    <g id="xtick_1">
     <g id="line2d_1">
      <defs>
       <path d="M 0 0 
L 0 3.5 
" id="meaf56ab37d" style="stroke:#000000;stroke-width:0.8;"/>
      </defs>
      <g>
       <use style="stroke:#000000;stroke-width:0.8;" x="73.800255" xlink:href="#meaf56ab37d" y="307.584"/>
      </g>
     </g>
     <g id="text_1">
      <text style="font-family:DejaVu Sans;font-size:10px;font-style:normal;font-weight:normal;text-anchor:middle;" transform="rotate(-0, 73.800255, 322.182437)" x="73.800255" y="322.182437">0.0</text>
     </g>
    </g>
    <g id="xtick_2">
     <g id="line2d_2">
      <g>
       <use style="stroke:#000000;stroke-width:0.8;" x="138.744153" xlink:href="#meaf56ab37d" y="307.584"/>
      </g>
     </g>
     <g id="text_2">
      <text style="font-family:DejaVu Sans;font-size:10px;font-style:normal;font-weight:normal;text-anchor:middle;" transform="rotate(-0, 138.744153, 322.182437)" x="138.744153" y="322.182437">0.2</text>
     </g>
    </g>
    <g id="xtick_3">
     <g id="line2d_3">
      <g>
       <use style="stroke:#000000;stroke-width:0.8;" x="203.688051" xlink:href="#meaf56ab37d" y="307.584"/>
      </g>
     </g>
     <g id="text_3">
      <text style="font-family:DejaVu Sans;font-size:10px;font-style:normal;font-weight:normal;text-anchor:middle;" transform="rotate(-0, 203.688051, 322.182437)" x="203.688051" y="322.182437">0.4</text>
     </g>
    </g>
    <g id="xtick_4">
     <g id="line2d_4">
      <g>
       <use style="stroke:#000000;stroke-width:0.8;" x="268.631949" xlink:href="#meaf56ab37d" y="307.584"/>
      </g>
     </g>
     <g id="text_4">
      <text style="font-family:DejaVu Sans;font-size:10px;font-style:normal;font-weight:normal;text-anchor:middle;" transform="rotate(-0, 268.631949, 322.182437)" x="268.631949" y="322.182437">0.6</text>
     </g>
    </g>
    <g id="xtick_5">
     <g id="line2d_5">
      <g>
       <use style="stroke:#000000;stroke-width:0.8;" x="333.575847" xlink:href="#meaf56ab37d" y="307.584"/>
      </g>
     </g>
     <g id="text_5">
      <text style="font-family:DejaVu Sans;font-size:10px;font-style:normal;font-weight:normal;text-anchor:middle;" transform="rotate(-0, 333.575847, 322.182437)" x="333.575847" y="322.182437">0.8</text>
     </g>
    </g>
    <g id="xtick_6">
     <g id="line2d_6">
      <g>
       <use style="stroke:#000000;stroke-width:0.8;" x="398.519745" xlink:href="#meaf56ab37d" y="307.584"/>
      </g>
     </g>
     <g id="text_6">
      <text style="font-family:DejaVu Sans;font-size:10px;font-style:normal;font-weight:normal;text-anchor:middle;" transform="rotate(-0, 398.519745, 322.182437)" x="398.519745" y="322.182437">1.0</text>
     </g>
    </g>
    <g id="text_7">
     <text style="font-family:DejaVu Sans;font-size:10px;font-style:normal;font-weight:normal;text-anchor:middle;" transform="rotate(-0, 236.16, 335.860562)" x="236.16" y="335.860562">Input Coin's Heads Probability (λ)</text>
    </g>
   </g>
   <g id="matplotlib.axis_2">
    <g id="ytick_1">
     <g id="line2d_7">
      <defs>
       <path d="M 0 0 
L -3.5 0 
" id="m63c51ab4da" style="stroke:#000000;stroke-width:0.8;"/>
      </defs>
      <g>
       <use style="stroke:#000000;stroke-width:0.8;" x="57.6" xlink:href="#m63c51ab4da" y="307.263502"/>
      </g>
     </g>
     <g id="text_8">
      <text style="font-family:DejaVu Sans;font-size:10px;font-style:normal;font-weight:normal;text-anchor:end;" transform="rotate(-0, 50.6, 311.062721)" x="50.6" y="311.062721">0.0</text>
     </g>
    </g>
    <g id="ytick_2">
     <g id="line2d_8">
      <g>
       <use style="stroke:#000000;stroke-width:0.8;" x="57.6" xlink:href="#m63c51ab4da" y="256.524402"/>
      </g>
     </g>
     <g id="text_9">
      <text style="font-family:DejaVu Sans;font-size:10px;font-style:normal;font-weight:normal;text-anchor:end;" transform="rotate(-0, 50.6, 260.32362)" x="50.6" y="260.32362">0.2</text>
     </g>
    </g>
    <g id="ytick_3">
     <g id="line2d_9">
      <g>
       <use style="stroke:#000000;stroke-width:0.8;" x="57.6" xlink:href="#m63c51ab4da" y="205.785301"/>
      </g>
     </g>
     <g id="text_10">
      <text style="font-family:DejaVu Sans;font-size:10px;font-style:normal;font-weight:normal;text-anchor:end;" transform="rotate(-0, 50.6, 209.58452)" x="50.6" y="209.58452">0.4</text>
     </g>
    </g>
    <g id="ytick_4">
     <g id="line2d_10">
      <g>
       <use style="stroke:#000000;stroke-width:0.8;" x="57.6" xlink:href="#m63c51ab4da" y="155.046201"/>
      </g>
     </g>
     <g id="text_11">
      <text style="font-family:DejaVu Sans;font-size:10px;font-style:normal;font-weight:normal;text-anchor:end;" transform="rotate(-0, 50.6, 158.84542)" x="50.6" y="158.84542">0.6</text>
     </g>
    </g>
    <g id="ytick_5">
     <g id="line2d_11">
      <g>
       <use style="stroke:#000000;stroke-width:0.8;" x="57.6" xlink:href="#m63c51ab4da" y="104.3071"/>
      </g>
     </g>
     <g id="text_12">
      <text style="font-family:DejaVu Sans;font-size:10px;font-style:normal;font-weight:normal;text-anchor:end;" transform="rotate(-0, 50.6, 108.106319)" x="50.6" y="108.106319">0.8</text>
     </g>
    </g>
    <g id="ytick_6">
     <g id="line2d_12">
      <g>
       <use style="stroke:#000000;stroke-width:0.8;" x="57.6" xlink:href="#m63c51ab4da" y="53.568"/>
      </g>
     </g>
     <g id="text_13">
      <text style="font-family:DejaVu Sans;font-size:10px;font-style:normal;font-weight:normal;text-anchor:end;" transform="rotate(-0, 50.6, 57.367219)" x="50.6" y="57.367219">1.0</text>
     </g>
    </g>
    <g id="text_14">
     <text style="font-family:DejaVu Sans;font-size:10px;font-style:normal;font-weight:normal;text-anchor:middle;" transform="rotate(-90, 28.617187, 174.528)" x="28.617187" y="174.528">Simulated Mean / Function Value</text>
    </g>
   </g>
   <g id="line2d_13">
    <path clip-path="url(#p25280075e1)" d="M 73.832727 295.488 
L 77.112066 252.246302 
L 80.391405 238.059634 
L 83.670744 228.088236 
L 86.950083 220.143743 
L 90.229421 213.432039 
L 93.50876 207.563643 
L 96.788099 202.315044 
L 100.067438 197.544677 
L 103.346777 193.156551 
L 106.626116 189.082222 
L 109.905455 185.270974 
L 113.184793 181.684055 
L 116.464132 178.29111 
L 119.743471 175.067868 
L 123.02281 171.994579 
L 126.302149 169.054933 
L 129.581488 166.235284 
L 132.860826 163.52409 
L 136.140165 160.911487 
L 139.419504 158.388973 
L 142.698843 155.949162 
L 145.978182 153.585591 
L 149.257521 151.292569 
L 152.53686 149.065058 
L 155.816198 146.898568 
L 159.095537 144.789086 
L 162.374876 142.733003 
L 165.654215 140.727062 
L 168.933554 138.768315 
L 172.212893 136.854079 
L 175.492231 134.981909 
L 178.77157 133.149568 
L 182.050909 131.355002 
L 185.330248 129.596323 
L 188.609587 127.871789 
L 191.888926 126.179788 
L 195.168264 124.51883 
L 198.447603 122.887527 
L 201.726942 121.284591 
L 205.006281 119.70882 
L 208.28562 118.159092 
L 211.564959 116.634356 
L 214.844298 115.133628 
L 218.123636 113.655986 
L 221.402975 112.200561 
L 224.682314 110.766536 
L 227.961653 109.353142 
L 231.240992 107.959653 
L 234.520331 106.585382 
L 237.799669 105.229679 
L 241.079008 103.891931 
L 244.358347 102.571554 
L 247.637686 101.267996 
L 250.917025 99.980729 
L 254.196364 98.709256 
L 257.475702 97.453099 
L 260.755041 96.211807 
L 264.03438 94.984946 
L 267.313719 93.772106 
L 270.593058 92.572891 
L 273.872397 91.386925 
L 277.151736 90.21385 
L 280.431074 89.053318 
L 283.710413 87.905002 
L 286.989752 86.768584 
L 290.269091 85.643761 
L 293.54843 84.530242 
L 296.827769 83.427746 
L 300.107107 82.336005 
L 303.386446 81.254761 
L 306.665785 80.183764 
L 309.945124 79.122776 
L 313.224463 78.071565 
L 316.503802 77.02991 
L 319.78314 75.997596 
L 323.062479 74.974417 
L 326.341818 73.960172 
L 329.621157 72.954671 
L 332.900496 71.957726 
L 336.179835 70.969158 
L 339.459174 69.988793 
L 342.738512 69.016464 
L 346.017851 68.052006 
L 349.29719 67.095264 
L 352.576529 66.146084 
L 355.855868 65.204318 
L 359.135207 64.269825 
L 362.414545 63.342464 
L 365.693884 62.422102 
L 368.973223 61.508607 
L 372.252562 60.601854 
L 375.531901 59.701719 
L 378.81124 58.808082 
L 382.090579 57.920828 
L 385.369917 57.039843 
L 388.649256 56.165019 
L 391.928595 55.296249 
L 395.207934 54.433428 
L 398.487273 53.576457 
" style="fill:none;stroke:#1f77b4;stroke-linecap:square;stroke-width:1.5;"/>
   </g>
   <g id="line2d_14">
    <path clip-path="url(#p25280075e1)" d="M 73.832727 294.578727 
L 77.112066 251.450492 
L 80.391405 226.080941 
L 83.670744 231.662242 
L 86.950083 210.35182 
L 90.229421 220.49964 
L 93.50876 208.322256 
L 96.788099 200.711391 
L 100.067438 195.637481 
L 103.346777 201.218782 
L 106.626116 192.085744 
L 109.905455 187.519225 
L 113.184793 187.011834 
L 116.464132 183.460097 
L 119.743471 176.864014 
L 123.02281 176.356623 
L 126.302149 158.090547 
L 129.581488 168.745758 
L 132.860826 159.61272 
L 136.140165 164.179239 
L 139.419504 170.267931 
L 142.698843 157.583156 
L 145.978182 148.450118 
L 149.257521 141.346644 
L 152.53686 149.4649 
L 155.816198 138.809689 
L 159.095537 147.942727 
L 162.374876 137.794907 
L 165.654215 135.257952 
L 168.933554 132.720997 
L 172.212893 131.198824 
L 175.492231 136.272734 
L 178.77157 133.228388 
L 182.050909 139.31708 
L 185.330248 126.124914 
L 188.609587 126.124914 
L 191.888926 119.02144 
L 195.168264 116.484485 
L 198.447603 131.198824 
L 201.726942 123.587959 
L 205.006281 119.02144 
L 208.28562 116.991876 
L 211.564959 116.484485 
L 214.844298 116.484485 
L 218.123636 112.932747 
L 221.402975 109.38101 
L 224.682314 117.499267 
L 227.961653 104.814491 
L 231.240992 106.336664 
L 234.520331 105.829273 
L 237.799669 102.784927 
L 241.079008 106.336664 
L 244.358347 97.203626 
L 247.637686 99.23319 
L 250.917025 99.23319 
L 254.196364 101.262754 
L 257.475702 93.651889 
L 260.755041 101.262754 
L 264.03438 98.218408 
L 267.313719 91.622325 
L 270.593058 101.770145 
L 273.872397 89.592761 
L 277.151736 87.055806 
L 280.431074 85.533633 
L 283.710413 85.533633 
L 286.989752 89.592761 
L 290.269091 89.592761 
L 293.54843 90.100152 
L 296.827769 76.400595 
L 300.107107 85.026242 
L 303.386446 83.504069 
L 306.665785 87.563197 
L 309.945124 80.459723 
L 313.224463 78.430159 
L 316.503802 79.444941 
L 319.78314 77.922768 
L 323.062479 71.326685 
L 326.341818 80.459723 
L 329.621157 67.774948 
L 332.900496 72.848858 
L 336.179835 70.819294 
L 339.459174 69.804512 
L 342.738512 67.267557 
L 346.017851 69.297121 
L 349.29719 65.745384 
L 352.576529 66.760166 
L 355.855868 62.193647 
L 359.135207 65.237993 
L 362.414545 62.193647 
L 365.693884 63.71582 
L 368.973223 63.208429 
L 372.252562 62.193647 
L 375.531901 59.656692 
L 378.81124 58.134519 
L 382.090579 58.64191 
L 385.369917 54.582782 
L 388.649256 55.597564 
L 391.928595 55.597564 
L 395.207934 55.090173 
L 398.487273 53.568 
" style="fill:none;stroke:#ff7f0e;stroke-linecap:square;stroke-width:1.5;"/>
   </g>
   <g id="patch_3">
    <path d="M 57.6 307.584 
L 57.6 41.472 
" style="fill:none;stroke:#000000;stroke-linecap:square;stroke-linejoin:miter;stroke-width:0.8;"/>
   </g>
   <g id="patch_4">
    <path d="M 414.72 307.584 
L 414.72 41.472 
" style="fill:none;stroke:#000000;stroke-linecap:square;stroke-linejoin:miter;stroke-width:0.8;"/>
   </g>
   <g id="patch_5">
    <path d="M 57.6 307.584 
L 414.72 307.584 
" style="fill:none;stroke:#000000;stroke-linecap:square;stroke-linejoin:miter;stroke-width:0.8;"/>
   </g>
   <g id="patch_6">
    <path d="M 57.6 41.472 
L 414.72 41.472 
" style="fill:none;stroke:#000000;stroke-linecap:square;stroke-linejoin:miter;stroke-width:0.8;"/>
   </g>
   <g id="text_15">
    <text style="font-family:DejaVu Sans;font-size:12px;font-style:normal;font-weight:normal;" transform="translate(112.047188 22.034625)">Simulated Mean for pow(x,1/3) Algorithm</text>
    <text style="font-family:DejaVu Sans;font-size:12px;font-style:normal;font-weight:normal;" transform="translate(132.609375 35.472)">(Wasserstein Distances in Legend)</text>
   </g>
   <g id="legend_1">
    <g id="patch_7">
     <path d="M 64.6 78.82825 
L 242.85 78.82825 
Q 244.85 78.82825 244.85 76.82825 
L 244.85 48.472 
Q 244.85 46.472 242.85 46.472 
L 64.6 46.472 
Q 62.6 46.472 62.6 48.472 
L 62.6 76.82825 
Q 62.6 78.82825 64.6 78.82825 
z
" style="fill:#ffffff;opacity:0.8;stroke:#cccccc;stroke-linejoin:miter;"/>
    </g>
    <g id="line2d_15">
     <path d="M 66.6 54.570437 
L 86.6 54.570437 
" style="fill:none;stroke:#1f77b4;stroke-linecap:square;stroke-width:1.5;"/>
    </g>
    <g id="line2d_16"/>
    <g id="text_16">
     <text style="font-family:DejaVu Sans;font-size:10px;font-style:normal;font-weight:normal;text-anchor:start;" transform="rotate(-0, 94.6, 58.070437)" x="94.6" y="58.070437">pow(x,1/3)</text>
    </g>
    <g id="line2d_17">
     <path d="M 66.6 69.248562 
L 86.6 69.248562 
" style="fill:none;stroke:#ff7f0e;stroke-linecap:square;stroke-width:1.5;"/>
    </g>
    <g id="line2d_18"/>
    <g id="text_17">
     <text style="font-family:DejaVu Sans;font-size:10px;font-style:normal;font-weight:normal;text-anchor:start;" transform="rotate(-0, 94.6, 72.748562)" x="94.6" y="72.748562">Simul. Mean (WD=0.006169)</text>
    </g>
   </g>
  </g>
 </g>
 <defs>
  <clipPath id="p25280075e1">
   <rect height="266.112" width="357.12" x="57.6" y="41.472"/>
  </clipPath>
 </defs>
</svg>
