<svg height="460.8" viewBox="0 0 460.8 345.6" width="614.4" xmlns="http://www.w3.org/2000/svg" xmlns:xlink="http://www.w3.org/1999/xlink"><defs><style>*{stroke-linecap:butt;stroke-linejoin:round}</style></defs><g id="figure_1"><path d="M0 345.6h460.8V0H0z" fill="#fff" id="patch_1"/><g id="axes_1"><path d="M57.6 307.584h357.12V41.472H57.6z" fill="#fff" id="patch_2"/><g id="matplotlib.axis_1"><g id="xtick_1"><g id="line2d_1"><defs><path d="M0 0v3.5" id="m977c504ae5" stroke="#000" stroke-width=".8"/></defs><use x="73.8" xlink:href="#m977c504ae5" y="307.584" stroke="#000" stroke-width=".8"/></g><text x="73.8" y="322.182" font-family="DejaVu Sans" font-size="10" font-weight="400" text-anchor="middle" id="text_1">0.0</text></g><g id="xtick_2"><use x="138.744" xlink:href="#m977c504ae5" y="307.584" stroke="#000" stroke-width=".8" id="line2d_2"/><text x="138.744" y="322.182" font-family="DejaVu Sans" font-size="10" font-weight="400" text-anchor="middle" id="text_2">0.2</text></g><g id="xtick_3"><use x="203.688" xlink:href="#m977c504ae5" y="307.584" stroke="#000" stroke-width=".8" id="line2d_3"/><text x="203.688" y="322.182" font-family="DejaVu Sans" font-size="10" font-weight="400" text-anchor="middle" id="text_3">0.4</text></g><g id="xtick_4"><use x="268.632" xlink:href="#m977c504ae5" y="307.584" stroke="#000" stroke-width=".8" id="line2d_4"/><text x="268.632" y="322.182" font-family="DejaVu Sans" font-size="10" font-weight="400" text-anchor="middle" id="text_4">0.6</text></g><g id="xtick_5"><use x="333.576" xlink:href="#m977c504ae5" y="307.584" stroke="#000" stroke-width=".8" id="line2d_5"/><text x="333.576" y="322.182" font-family="DejaVu Sans" font-size="10" font-weight="400" text-anchor="middle" id="text_5">0.8</text></g><g id="xtick_6"><use x="398.52" xlink:href="#m977c504ae5" y="307.584" stroke="#000" stroke-width=".8" id="line2d_6"/><text x="398.52" y="322.182" font-family="DejaVu Sans" font-size="10" font-weight="400" text-anchor="middle" id="text_6">1.0</text></g><text x="236.16" y="335.861" font-family="DejaVu Sans" font-size="10" font-weight="400" text-anchor="middle" id="text_7">Input Coin&apos;s Heads Probability (λ)</text></g><g id="matplotlib.axis_2"><g id="ytick_1"><g id="line2d_7"><defs><path d="M0 0h-3.5" id="m4bc60f0bd6" stroke="#000" stroke-width=".8"/></defs><use x="57.6" xlink:href="#m4bc60f0bd6" y="297.932" stroke="#000" stroke-width=".8"/></g><text x="50.6" y="301.731" font-family="DejaVu Sans" font-size="10" font-weight="400" text-anchor="end" id="text_8">0.0</text></g><g id="ytick_2"><use x="57.6" xlink:href="#m4bc60f0bd6" y="249.059" stroke="#000" stroke-width=".8" id="line2d_8"/><text x="50.6" y="252.858" font-family="DejaVu Sans" font-size="10" font-weight="400" text-anchor="end" id="text_9">0.2</text></g><g id="ytick_3"><use x="57.6" xlink:href="#m4bc60f0bd6" y="200.186" stroke="#000" stroke-width=".8" id="line2d_9"/><text x="50.6" y="203.985" font-family="DejaVu Sans" font-size="10" font-weight="400" text-anchor="end" id="text_10">0.4</text></g><g id="ytick_4"><use x="57.6" xlink:href="#m4bc60f0bd6" y="151.313" stroke="#000" stroke-width=".8" id="line2d_10"/><text x="50.6" y="155.113" font-family="DejaVu Sans" font-size="10" font-weight="400" text-anchor="end" id="text_11">0.6</text></g><g id="ytick_5"><use x="57.6" xlink:href="#m4bc60f0bd6" y="102.441" stroke="#000" stroke-width=".8" id="line2d_11"/><text x="50.6" y="106.24" font-family="DejaVu Sans" font-size="10" font-weight="400" text-anchor="end" id="text_12">0.8</text></g><g id="ytick_6"><use x="57.6" xlink:href="#m4bc60f0bd6" y="53.568" stroke="#000" stroke-width=".8" id="line2d_12"/><text x="50.6" y="57.367" font-family="DejaVu Sans" font-size="10" font-weight="400" text-anchor="end" id="text_13">1.0</text></g><text transform="rotate(-90 28.617 174.528)" x="28.617" y="174.528" font-family="DejaVu Sans" font-size="10" font-weight="400" text-anchor="middle" id="text_14">Simulated Mean / Function Value</text></g><path clip-path="url(#p0e8ff85e13)" d="M73.833 295.488l3.28-22.235 3.278-10.136 3.28-7.79 3.28-6.57 3.278-5.79 3.28-5.237 3.28-4.816 3.278-4.483 3.28-4.21 3.28-3.984 3.278-3.788 3.28-3.62 3.28-3.473 3.278-3.34 3.28-3.225 3.28-3.118 3.278-3.022 3.28-2.935 3.28-2.854 3.279-2.78 3.279-2.711 3.28-2.648 3.279-2.588 3.279-2.532 3.28-2.48 3.279-2.432 3.279-2.385 3.28-2.34 3.279-2.3 3.279-2.26 3.28-2.224 3.279-2.187 3.279-2.154 3.28-2.121 3.279-2.09 3.279-2.06 3.28-2.033 3.279-2.005 3.279-1.978 3.28-1.954 3.279-1.929 3.279-1.906 3.28-1.883 3.279-1.861 3.279-1.84 3.28-1.821 3.279-1.8 3.279-1.782 3.28-1.763 3.279-1.745 3.279-1.728 3.28-1.71 3.279-1.695 3.279-1.678 3.28-1.663 3.279-1.648 3.279-1.634 3.28-1.619 3.279-1.605 3.28-1.592 3.278-1.578 3.28-1.566 3.28-1.553 3.278-1.54 3.28-1.53 3.28-1.516 3.278-1.506 3.28-1.494 3.28-1.484 3.278-1.473 3.28-1.462 3.28-1.452 3.278-1.442 3.28-1.432 3.28-1.422 3.278-1.413 3.28-1.404 3.28-1.395 3.278-1.386 3.28-1.377 3.28-1.368 3.279-1.36 3.279-1.352 3.28-1.343 3.279-1.336 3.279-1.328 3.28-1.32 3.279-1.313 3.279-1.305 3.28-1.297 3.279-1.291 3.279-1.284 3.28-1.276 3.279-1.27 3.279-1.263 3.28-1.256 3.279-1.25 3.279-1.244 3.28-1.237" fill="none" stroke="#1f77b4" stroke-linecap="square" stroke-width="1.5" id="line2d_13"/><path clip-path="url(#p0e8ff85e13)" d="M73.833 295.488l3.28-21.015 3.278-2.933 3.28-20.037 3.28-4.399 3.278-7.82 3.28 4.399 3.28-8.797 3.278-7.331 3.28-7.331 3.28 6.353 3.278-18.571 3.28 4.887 3.28-8.797 3.278 11.24 3.28-17.105 3.28-2.443 3.278-10.752 3.28 4.398 3.28 9.286 3.279-15.15 3.279-1.955 3.28 11.729 3.279-10.752 3.279-4.399 3.28-3.42 3.279-2.444 3.279-8.797 3.28 5.376 3.279-2.933 3.279-11.24 3.28 9.774 3.279-7.33 3.279 1.465 3.28 5.376 3.279-15.15h3.279l3.28 3.42 3.279.978 3.279-7.33 3.28-2.933 3.279-9.774 3.279 12.218 3.28-10.752 3.279 1.466 3.279-.978 3.28-11.24 3.279 4.887 3.279-.977 3.28-6.843 3.279 4.888 3.279 2.443 3.28-3.42 3.279-11.242 3.279-.488 3.28 1.466 3.279-4.887 3.279 1.466 3.28-6.842 3.279 1.955 3.28-.978 3.278.978 3.28-6.354 3.28-.977h3.278l3.28 8.797 3.28-10.264 3.278-1.954 3.28 3.42 3.28-5.375 3.278-9.286 3.28 9.286 3.28-3.91 3.278-1.955 3.28-7.82 3.28 5.376 3.278 6.842 3.28-9.285 3.28-1.955 3.278 3.42 3.28-11.24 3.28 4.887 3.279-2.932 3.279-.977 3.28-4.399h3.279l3.279-.489 3.28-3.42 3.279-.49 3.279-.977 3.28.489 3.279-3.421 3.279 1.955 3.28-.49 3.279-1.465 3.279-1.955 3.28-3.91 3.279.489 3.279-.978 3.28-1.466" fill="none" stroke="#ff7f0e" stroke-linecap="square" stroke-width="1.5" id="line2d_14"/><path d="M57.6 307.584V41.472" fill="none" stroke="#000" stroke-linecap="square" stroke-width=".8" id="patch_3"/><path d="M414.72 307.584V41.472" fill="none" stroke="#000" stroke-linecap="square" stroke-width=".8" id="patch_4"/><path d="M57.6 307.584h357.12" fill="none" stroke="#000" stroke-linecap="square" stroke-width=".8" id="patch_5"/><path d="M57.6 41.472h357.12" fill="none" stroke="#000" stroke-linecap="square" stroke-width=".8" id="patch_6"/><g id="text_15" font-family="DejaVu Sans" font-size="12" font-weight="400"><text transform="translate(112.047 22.035)">Simulated Mean for pow(x,2/4) Algorithm</text><text transform="translate(132.61 35.472)">(Wasserstein Distances in Legend)</text></g><g id="legend_1"><path d="M64.6 78.828h178.25q2 0 2-2V48.472q0-2-2-2H64.6q-2 0-2 2v28.356q0 2 2 2z" fill="#fff" opacity=".8" stroke="#ccc" id="patch_7"/><path d="M66.6 54.57h20" fill="none" stroke="#1f77b4" stroke-linecap="square" stroke-width="1.5" id="line2d_15"/><text x="94.6" y="58.07" font-family="DejaVu Sans" font-size="10" font-weight="400" id="text_16">pow(x,2/4)</text><path d="M66.6 69.249h20" fill="none" stroke="#ff7f0e" stroke-linecap="square" stroke-width="1.5" id="line2d_17"/><text x="94.6" y="72.749" font-family="DejaVu Sans" font-size="10" font-weight="400" id="text_17">Simul. Mean (WD=0.005588)</text></g></g></g><defs><clipPath id="p0e8ff85e13"><path d="M57.6 41.472h357.12v266.112H57.6z"/></clipPath></defs></svg>