<?xml version="1.0" encoding="utf-8" standalone="no"?>
<!DOCTYPE svg PUBLIC "-//W3C//DTD SVG 1.1//EN"
  "http://www.w3.org/Graphics/SVG/1.1/DTD/svg11.dtd">
<!-- Created with matplotlib (https://matplotlib.org/) -->
<svg height="252pt" version="1.1" viewBox="0 0 324 252" width="324pt" xmlns="http://www.w3.org/2000/svg" xmlns:xlink="http://www.w3.org/1999/xlink">
 <defs>
  <style type="text/css">
*{stroke-linecap:butt;stroke-linejoin:round;}
  </style>
 </defs>
 <g id="figure_1">
  <g id="patch_1">
   <path d="M 0 252 
L 324 252 
L 324 0 
L 0 0 
z
" style="fill:#ffffff;"/>
  </g>
  <g id="axes_1">
   <g id="patch_2">
    <path d="M 40.5 224.28 
L 291.6 224.28 
L 291.6 30.24 
L 40.5 30.24 
z
" style="fill:#ffffff;"/>
   </g>
   <g id="matplotlib.axis_1">
    <g id="xtick_1">
     <g id="line2d_1">
      <defs>
       <path d="M 0 0 
L 0 3.5 
" id="m0c69c1d4b2" style="stroke:#000000;stroke-width:0.8;"/>
      </defs>
      <g>
       <use style="stroke:#000000;stroke-width:0.8;" x="51.890805" xlink:href="#m0c69c1d4b2" y="224.28"/>
      </g>
     </g>
     <g id="text_1">
      <text style="font-family:DejaVu Sans;font-size:10px;font-style:normal;font-weight:normal;text-anchor:middle;" transform="rotate(-0, 51.890805, 238.878438)" x="51.890805" y="238.878438">0.0</text>
     </g>
    </g>
    <g id="xtick_2">
     <g id="line2d_2">
      <g>
       <use style="stroke:#000000;stroke-width:0.8;" x="97.554483" xlink:href="#m0c69c1d4b2" y="224.28"/>
      </g>
     </g>
     <g id="text_2">
      <text style="font-family:DejaVu Sans;font-size:10px;font-style:normal;font-weight:normal;text-anchor:middle;" transform="rotate(-0, 97.554483, 238.878438)" x="97.554483" y="238.878438">0.2</text>
     </g>
    </g>
    <g id="xtick_3">
     <g id="line2d_3">
      <g>
       <use style="stroke:#000000;stroke-width:0.8;" x="143.218161" xlink:href="#m0c69c1d4b2" y="224.28"/>
      </g>
     </g>
     <g id="text_3">
      <text style="font-family:DejaVu Sans;font-size:10px;font-style:normal;font-weight:normal;text-anchor:middle;" transform="rotate(-0, 143.218161, 238.878438)" x="143.218161" y="238.878438">0.4</text>
     </g>
    </g>
    <g id="xtick_4">
     <g id="line2d_4">
      <g>
       <use style="stroke:#000000;stroke-width:0.8;" x="188.881839" xlink:href="#m0c69c1d4b2" y="224.28"/>
      </g>
     </g>
     <g id="text_4">
      <text style="font-family:DejaVu Sans;font-size:10px;font-style:normal;font-weight:normal;text-anchor:middle;" transform="rotate(-0, 188.881839, 238.878438)" x="188.881839" y="238.878438">0.6</text>
     </g>
    </g>
    <g id="xtick_5">
     <g id="line2d_5">
      <g>
       <use style="stroke:#000000;stroke-width:0.8;" x="234.545517" xlink:href="#m0c69c1d4b2" y="224.28"/>
      </g>
     </g>
     <g id="text_5">
      <text style="font-family:DejaVu Sans;font-size:10px;font-style:normal;font-weight:normal;text-anchor:middle;" transform="rotate(-0, 234.545517, 238.878438)" x="234.545517" y="238.878438">0.8</text>
     </g>
    </g>
    <g id="xtick_6">
     <g id="line2d_6">
      <g>
       <use style="stroke:#000000;stroke-width:0.8;" x="280.209195" xlink:href="#m0c69c1d4b2" y="224.28"/>
      </g>
     </g>
     <g id="text_6">
      <text style="font-family:DejaVu Sans;font-size:10px;font-style:normal;font-weight:normal;text-anchor:middle;" transform="rotate(-0, 280.209195, 238.878438)" x="280.209195" y="238.878438">1.0</text>
     </g>
    </g>
    <g id="text_7">
     <text style="font-family:DejaVu Sans;font-size:10px;font-style:normal;font-weight:normal;text-anchor:middle;" transform="rotate(-0, 166.05, 252.556563)" x="166.05" y="252.556563">Input Coin's Heads Probability (λ)</text>
    </g>
   </g>
   <g id="matplotlib.axis_2">
    <g id="ytick_1">
     <g id="line2d_7">
      <defs>
       <path d="M 0 0 
L -3.5 0 
" id="m0c92e3f781" style="stroke:#000000;stroke-width:0.8;"/>
      </defs>
      <g>
       <use style="stroke:#000000;stroke-width:0.8;" x="40.5" xlink:href="#m0c92e3f781" y="221.291405"/>
      </g>
     </g>
     <g id="text_8">
      <text style="font-family:DejaVu Sans;font-size:10px;font-style:normal;font-weight:normal;text-anchor:end;" transform="rotate(-0, 33.5, 225.090624)" x="33.5" y="225.090624">0.0</text>
     </g>
    </g>
    <g id="ytick_2">
     <g id="line2d_8">
      <g>
       <use style="stroke:#000000;stroke-width:0.8;" x="40.5" xlink:href="#m0c92e3f781" y="184.845124"/>
      </g>
     </g>
     <g id="text_9">
      <text style="font-family:DejaVu Sans;font-size:10px;font-style:normal;font-weight:normal;text-anchor:end;" transform="rotate(-0, 33.5, 188.644343)" x="33.5" y="188.644343">0.2</text>
     </g>
    </g>
    <g id="ytick_3">
     <g id="line2d_9">
      <g>
       <use style="stroke:#000000;stroke-width:0.8;" x="40.5" xlink:href="#m0c92e3f781" y="148.398843"/>
      </g>
     </g>
     <g id="text_10">
      <text style="font-family:DejaVu Sans;font-size:10px;font-style:normal;font-weight:normal;text-anchor:end;" transform="rotate(-0, 33.5, 152.198062)" x="33.5" y="152.198062">0.4</text>
     </g>
    </g>
    <g id="ytick_4">
     <g id="line2d_10">
      <g>
       <use style="stroke:#000000;stroke-width:0.8;" x="40.5" xlink:href="#m0c92e3f781" y="111.952562"/>
      </g>
     </g>
     <g id="text_11">
      <text style="font-family:DejaVu Sans;font-size:10px;font-style:normal;font-weight:normal;text-anchor:end;" transform="rotate(-0, 33.5, 115.751781)" x="33.5" y="115.751781">0.6</text>
     </g>
    </g>
    <g id="ytick_5">
     <g id="line2d_11">
      <g>
       <use style="stroke:#000000;stroke-width:0.8;" x="40.5" xlink:href="#m0c92e3f781" y="75.506281"/>
      </g>
     </g>
     <g id="text_12">
      <text style="font-family:DejaVu Sans;font-size:10px;font-style:normal;font-weight:normal;text-anchor:end;" transform="rotate(-0, 33.5, 79.3055)" x="33.5" y="79.3055">0.8</text>
     </g>
    </g>
    <g id="ytick_6">
     <g id="line2d_12">
      <g>
       <use style="stroke:#000000;stroke-width:0.8;" x="40.5" xlink:href="#m0c92e3f781" y="39.06"/>
      </g>
     </g>
     <g id="text_13">
      <text style="font-family:DejaVu Sans;font-size:10px;font-style:normal;font-weight:normal;text-anchor:end;" transform="rotate(-0, 33.5, 42.859219)" x="33.5" y="42.859219">1.0</text>
     </g>
    </g>
    <g id="text_14">
     <text style="font-family:DejaVu Sans;font-size:10px;font-style:normal;font-weight:normal;text-anchor:middle;" transform="rotate(-90, 11.517187, 127.26)" x="11.517187" y="127.26">Simulated Mean / Function Value</text>
    </g>
   </g>
   <g id="line2d_13">
    <path clip-path="url(#pe0f2029747)" d="M 52.119123 203.068264 
L 54.420757 180.664503 
L 56.722391 170.886496 
L 59.024025 163.896748 
L 61.325658 158.289359 
L 63.627292 153.534175 
L 65.928926 149.366506 
L 68.23056 145.632838 
L 70.532194 142.235251 
L 72.833828 139.107006 
L 75.135462 136.200337 
L 77.437096 133.47974 
L 79.738729 130.918022 
L 82.040363 128.49384 
L 84.341997 126.190099 
L 86.643631 123.99287 
L 88.945265 121.890633 
L 91.246899 119.873744 
L 93.548533 117.934034 
L 95.850167 116.064519 
L 98.151801 114.259172 
L 100.453434 112.512757 
L 102.755068 110.820686 
L 105.056702 109.178921 
L 107.358336 107.58388 
L 109.65997 106.032376 
L 111.961604 104.521553 
L 114.263238 103.048846 
L 116.564872 101.611937 
L 118.866505 100.208728 
L 121.168139 98.837309 
L 123.469773 97.495939 
L 125.771407 96.183025 
L 128.073041 94.897102 
L 130.374675 93.636827 
L 132.676309 92.400955 
L 134.977943 91.188341 
L 137.279576 89.997919 
L 139.58121 88.8287 
L 141.882844 87.679766 
L 144.184478 86.550259 
L 146.486112 85.439378 
L 148.787746 84.346373 
L 151.08938 83.270543 
L 153.391014 82.211227 
L 155.692648 81.167807 
L 157.994281 80.139699 
L 160.295915 79.126354 
L 162.597549 78.127253 
L 164.899183 77.141905 
L 167.200817 76.169847 
L 169.502451 75.21064 
L 171.804085 74.263867 
L 174.105719 73.329132 
L 176.407352 72.406061 
L 178.708986 71.494296 
L 181.01062 70.593497 
L 183.312254 69.70334 
L 185.613888 68.823516 
L 187.915522 67.953732 
L 190.217156 67.093704 
L 192.51879 66.243164 
L 194.820424 65.401855 
L 197.122057 64.56953 
L 199.423691 63.745952 
L 201.725325 62.930897 
L 204.026959 62.124146 
L 206.328593 61.325492 
L 208.630227 60.534733 
L 210.931861 59.751679 
L 213.233495 58.976143 
L 215.535128 58.207949 
L 217.836762 57.446924 
L 220.138396 56.692903 
L 222.44003 55.945729 
L 224.741664 55.205247 
L 227.043298 54.471309 
L 229.344932 53.743773 
L 231.646566 53.022502 
L 233.948199 52.307361 
L 236.249833 51.598222 
L 238.551467 50.894961 
L 240.853101 50.197458 
L 243.154735 49.505596 
L 245.456369 48.819263 
L 247.758003 48.138348 
L 250.059637 47.462748 
L 252.361271 46.792358 
L 254.662904 46.127081 
L 256.964538 45.466818 
L 259.266172 44.811478 
L 261.567806 44.160969 
L 263.86944 43.515203 
L 266.171074 42.874095 
L 268.472708 42.237562 
L 270.774342 41.605522 
L 273.075975 40.977898 
L 275.377609 40.354612 
L 277.679243 39.735592 
L 279.980877 39.120764 
" style="fill:none;stroke:#1f77b4;stroke-linecap:square;stroke-width:1.5;"/>
   </g>
   <g id="line2d_14">
    <path clip-path="url(#pe0f2029747)" d="M 51.913636 215.46 
L 54.219421 181.564959 
L 56.525207 171.36 
L 58.830992 163.341818 
L 61.136777 162.977355 
L 63.442562 154.959174 
L 65.748347 149.492231 
L 68.054132 144.025289 
L 70.359917 138.558347 
L 72.665702 139.651736 
L 74.971488 132.726942 
L 77.277273 134.913719 
L 79.583058 134.913719 
L 81.888843 134.184793 
L 84.194628 129.446777 
L 86.500413 128.717851 
L 88.806198 120.335207 
L 91.111983 118.14843 
L 93.417769 118.877355 
L 95.723554 107.943471 
L 98.029339 117.055041 
L 100.335124 109.03686 
L 102.640909 106.48562 
L 104.946694 107.943471 
L 107.252479 109.401322 
L 109.558264 105.027769 
L 111.86405 104.298843 
L 114.169835 98.467438 
L 116.47562 96.645124 
L 118.781405 100.654215 
L 121.08719 98.467438 
L 123.392975 91.542645 
L 125.69876 91.907107 
L 128.004545 96.645124 
L 130.310331 98.102975 
L 132.616116 88.991405 
L 134.921901 90.813719 
L 137.227686 91.178182 
L 139.533471 91.542645 
L 141.839256 85.71124 
L 144.145041 83.888926 
L 146.450826 82.066612 
L 148.756612 82.431074 
L 151.062397 84.982314 
L 153.368182 79.515372 
L 155.673967 82.066612 
L 157.979752 77.328595 
L 160.285537 82.066612 
L 162.591322 87.169091 
L 164.897107 81.337686 
L 167.202893 78.786446 
L 169.508678 80.60876 
L 171.814463 71.861653 
L 174.120248 76.964132 
L 176.426033 70.039339 
L 178.731818 76.964132 
L 181.037603 64.93686 
L 183.343388 67.488099 
L 185.649174 63.843471 
L 187.954959 68.581488 
L 190.260744 70.768264 
L 192.566529 68.217025 
L 194.872314 67.488099 
L 197.178099 68.217025 
L 199.483884 62.750083 
L 201.789669 58.012066 
L 204.095455 61.292231 
L 206.40124 68.217025 
L 208.707025 64.207934 
L 211.01281 63.843471 
L 213.318595 64.207934 
L 215.62438 55.825289 
L 217.930165 56.554215 
L 220.23595 58.012066 
L 222.541736 52.180661 
L 224.847521 52.180661 
L 227.153306 55.460826 
L 229.459091 51.816198 
L 231.764876 54.731901 
L 234.070661 55.460826 
L 236.376446 51.451736 
L 238.682231 51.816198 
L 240.988017 52.180661 
L 243.293802 48.900496 
L 245.599587 49.629421 
L 247.905372 47.442645 
L 250.211157 48.17157 
L 252.516942 44.891405 
L 254.822727 46.349256 
L 257.128512 43.798017 
L 259.434298 45.620331 
L 261.740083 44.526942 
L 264.045868 47.078182 
L 266.351653 43.433554 
L 268.657438 44.526942 
L 270.963223 41.975702 
L 273.269008 41.61124 
L 275.574793 40.517851 
L 277.880579 39.424463 
L 280.186364 39.06 
" style="fill:none;stroke:#ff7f0e;stroke-linecap:square;stroke-width:1.5;"/>
   </g>
   <g id="patch_3">
    <path d="M 40.5 224.28 
L 40.5 30.24 
" style="fill:none;stroke:#000000;stroke-linecap:square;stroke-linejoin:miter;stroke-width:0.8;"/>
   </g>
   <g id="patch_4">
    <path d="M 291.6 224.28 
L 291.6 30.24 
" style="fill:none;stroke:#000000;stroke-linecap:square;stroke-linejoin:miter;stroke-width:0.8;"/>
   </g>
   <g id="patch_5">
    <path d="M 40.5 224.28 
L 291.6 224.28 
" style="fill:none;stroke:#000000;stroke-linecap:square;stroke-linejoin:miter;stroke-width:0.8;"/>
   </g>
   <g id="patch_6">
    <path d="M 40.5 30.24 
L 291.6 30.24 
" style="fill:none;stroke:#000000;stroke-linecap:square;stroke-linejoin:miter;stroke-width:0.8;"/>
   </g>
   <g id="text_15">
    <text style="font-family:DejaVu Sans;font-size:12px;font-style:normal;font-weight:normal;text-anchor:middle;" transform="rotate(-0, 166.05, 24.24)" x="166.05" y="24.24">Expected Value in pow(x,1/3) Algorithm</text>
   </g>
   <g id="legend_1">
    <g id="patch_7">
     <path d="M 102.007813 219.28 
L 284.6 219.28 
Q 286.6 219.28 286.6 217.28 
L 286.6 188.92375 
Q 286.6 186.92375 284.6 186.92375 
L 102.007813 186.92375 
Q 100.007813 186.92375 100.007813 188.92375 
L 100.007813 217.28 
Q 100.007813 219.28 102.007813 219.28 
z
" style="fill:#ffffff;opacity:0.8;stroke:#cccccc;stroke-linejoin:miter;"/>
    </g>
    <g id="line2d_15">
     <path d="M 104.007813 195.022188 
L 124.007813 195.022188 
" style="fill:none;stroke:#1f77b4;stroke-linecap:square;stroke-width:1.5;"/>
    </g>
    <g id="line2d_16"/>
    <g id="text_16">
     <text style="font-family:DejaVu Sans;font-size:10px;font-style:normal;font-weight:normal;text-anchor:start;" transform="rotate(-0, 132.007813, 198.522188)" x="132.007813" y="198.522188">pow(x,1/3)</text>
    </g>
    <g id="line2d_17">
     <path d="M 104.007813 209.700312 
L 124.007813 209.700312 
" style="fill:none;stroke:#ff7f0e;stroke-linecap:square;stroke-width:1.5;"/>
    </g>
    <g id="line2d_18"/>
    <g id="text_17">
     <text style="font-family:DejaVu Sans;font-size:10px;font-style:normal;font-weight:normal;text-anchor:start;" transform="rotate(-0, 132.007813, 213.200312)" x="132.007813" y="213.200312">Simulated Mean of pow(x,1/3)</text>
    </g>
   </g>
  </g>
 </g>
 <defs>
  <clipPath id="pe0f2029747">
   <rect height="194.04" width="251.1" x="40.5" y="30.24"/>
  </clipPath>
 </defs>
</svg>
