<?xml version="1.0" encoding="utf-8" standalone="no"?>
<!DOCTYPE svg PUBLIC "-//W3C//DTD SVG 1.1//EN"
  "http://www.w3.org/Graphics/SVG/1.1/DTD/svg11.dtd">
<!-- Created with matplotlib (https://matplotlib.org/) -->
<svg height="345.6pt" version="1.1" viewBox="0 0 460.8 345.6" width="460.8pt" xmlns="http://www.w3.org/2000/svg" xmlns:xlink="http://www.w3.org/1999/xlink">
 <defs>
  <style type="text/css">
*{stroke-linecap:butt;stroke-linejoin:round;}
  </style>
 </defs>
 <g id="figure_1">
  <g id="patch_1">
   <path d="M 0 345.6 
L 460.8 345.6 
L 460.8 0 
L 0 0 
z
" style="fill:#ffffff;"/>
  </g>
  <g id="axes_1">
   <g id="patch_2">
    <path d="M 57.6 307.584 
L 414.72 307.584 
L 414.72 41.472 
L 57.6 41.472 
z
" style="fill:#ffffff;"/>
   </g>
   <g id="matplotlib.axis_1">
    <g id="xtick_1">
     <g id="line2d_1">
      <defs>
       <path d="M 0 0 
L 0 3.5 
" id="m89b945f0a4" style="stroke:#000000;stroke-width:0.8;"/>
      </defs>
      <g>
       <use style="stroke:#000000;stroke-width:0.8;" x="73.800255" xlink:href="#m89b945f0a4" y="307.584"/>
      </g>
     </g>
     <g id="text_1">
      <text style="font-family:DejaVu Sans;font-size:10px;font-style:normal;font-weight:normal;text-anchor:middle;" transform="rotate(-0, 73.800255, 322.182437)" x="73.800255" y="322.182437">0.0</text>
     </g>
    </g>
    <g id="xtick_2">
     <g id="line2d_2">
      <g>
       <use style="stroke:#000000;stroke-width:0.8;" x="138.744153" xlink:href="#m89b945f0a4" y="307.584"/>
      </g>
     </g>
     <g id="text_2">
      <text style="font-family:DejaVu Sans;font-size:10px;font-style:normal;font-weight:normal;text-anchor:middle;" transform="rotate(-0, 138.744153, 322.182437)" x="138.744153" y="322.182437">0.2</text>
     </g>
    </g>
    <g id="xtick_3">
     <g id="line2d_3">
      <g>
       <use style="stroke:#000000;stroke-width:0.8;" x="203.688051" xlink:href="#m89b945f0a4" y="307.584"/>
      </g>
     </g>
     <g id="text_3">
      <text style="font-family:DejaVu Sans;font-size:10px;font-style:normal;font-weight:normal;text-anchor:middle;" transform="rotate(-0, 203.688051, 322.182437)" x="203.688051" y="322.182437">0.4</text>
     </g>
    </g>
    <g id="xtick_4">
     <g id="line2d_4">
      <g>
       <use style="stroke:#000000;stroke-width:0.8;" x="268.631949" xlink:href="#m89b945f0a4" y="307.584"/>
      </g>
     </g>
     <g id="text_4">
      <text style="font-family:DejaVu Sans;font-size:10px;font-style:normal;font-weight:normal;text-anchor:middle;" transform="rotate(-0, 268.631949, 322.182437)" x="268.631949" y="322.182437">0.6</text>
     </g>
    </g>
    <g id="xtick_5">
     <g id="line2d_5">
      <g>
       <use style="stroke:#000000;stroke-width:0.8;" x="333.575847" xlink:href="#m89b945f0a4" y="307.584"/>
      </g>
     </g>
     <g id="text_5">
      <text style="font-family:DejaVu Sans;font-size:10px;font-style:normal;font-weight:normal;text-anchor:middle;" transform="rotate(-0, 333.575847, 322.182437)" x="333.575847" y="322.182437">0.8</text>
     </g>
    </g>
    <g id="xtick_6">
     <g id="line2d_6">
      <g>
       <use style="stroke:#000000;stroke-width:0.8;" x="398.519745" xlink:href="#m89b945f0a4" y="307.584"/>
      </g>
     </g>
     <g id="text_6">
      <text style="font-family:DejaVu Sans;font-size:10px;font-style:normal;font-weight:normal;text-anchor:middle;" transform="rotate(-0, 398.519745, 322.182437)" x="398.519745" y="322.182437">1.0</text>
     </g>
    </g>
    <g id="text_7">
     <text style="font-family:DejaVu Sans;font-size:10px;font-style:normal;font-weight:normal;text-anchor:middle;" transform="rotate(-0, 236.16, 335.860562)" x="236.16" y="335.860562">Input Coin's Heads Probability (λ)</text>
    </g>
   </g>
   <g id="matplotlib.axis_2">
    <g id="ytick_1">
     <g id="line2d_7">
      <defs>
       <path d="M 0 0 
L -3.5 0 
" id="m6025bea601" style="stroke:#000000;stroke-width:0.8;"/>
      </defs>
      <g>
       <use style="stroke:#000000;stroke-width:0.8;" x="57.6" xlink:href="#m6025bea601" y="295.70473"/>
      </g>
     </g>
     <g id="text_8">
      <text style="font-family:DejaVu Sans;font-size:10px;font-style:normal;font-weight:normal;text-anchor:end;" transform="rotate(-0, 50.6, 299.503949)" x="50.6" y="299.503949">0</text>
     </g>
    </g>
    <g id="ytick_2">
     <g id="line2d_8">
      <g>
       <use style="stroke:#000000;stroke-width:0.8;" x="57.6" xlink:href="#m6025bea601" y="263.196348"/>
      </g>
     </g>
     <g id="text_9">
      <text style="font-family:DejaVu Sans;font-size:10px;font-style:normal;font-weight:normal;text-anchor:end;" transform="rotate(-0, 50.6, 266.995567)" x="50.6" y="266.995567">50</text>
     </g>
    </g>
    <g id="ytick_3">
     <g id="line2d_9">
      <g>
       <use style="stroke:#000000;stroke-width:0.8;" x="57.6" xlink:href="#m6025bea601" y="230.687967"/>
      </g>
     </g>
     <g id="text_10">
      <text style="font-family:DejaVu Sans;font-size:10px;font-style:normal;font-weight:normal;text-anchor:end;" transform="rotate(-0, 50.6, 234.487185)" x="50.6" y="234.487185">100</text>
     </g>
    </g>
    <g id="ytick_4">
     <g id="line2d_10">
      <g>
       <use style="stroke:#000000;stroke-width:0.8;" x="57.6" xlink:href="#m6025bea601" y="198.179585"/>
      </g>
     </g>
     <g id="text_11">
      <text style="font-family:DejaVu Sans;font-size:10px;font-style:normal;font-weight:normal;text-anchor:end;" transform="rotate(-0, 50.6, 201.978804)" x="50.6" y="201.978804">150</text>
     </g>
    </g>
    <g id="ytick_5">
     <g id="line2d_11">
      <g>
       <use style="stroke:#000000;stroke-width:0.8;" x="57.6" xlink:href="#m6025bea601" y="165.671203"/>
      </g>
     </g>
     <g id="text_12">
      <text style="font-family:DejaVu Sans;font-size:10px;font-style:normal;font-weight:normal;text-anchor:end;" transform="rotate(-0, 50.6, 169.470422)" x="50.6" y="169.470422">200</text>
     </g>
    </g>
    <g id="ytick_6">
     <g id="line2d_12">
      <g>
       <use style="stroke:#000000;stroke-width:0.8;" x="57.6" xlink:href="#m6025bea601" y="133.162822"/>
      </g>
     </g>
     <g id="text_13">
      <text style="font-family:DejaVu Sans;font-size:10px;font-style:normal;font-weight:normal;text-anchor:end;" transform="rotate(-0, 50.6, 136.962041)" x="50.6" y="136.962041">250</text>
     </g>
    </g>
    <g id="ytick_7">
     <g id="line2d_13">
      <g>
       <use style="stroke:#000000;stroke-width:0.8;" x="57.6" xlink:href="#m6025bea601" y="100.65444"/>
      </g>
     </g>
     <g id="text_14">
      <text style="font-family:DejaVu Sans;font-size:10px;font-style:normal;font-weight:normal;text-anchor:end;" transform="rotate(-0, 50.6, 104.453659)" x="50.6" y="104.453659">300</text>
     </g>
    </g>
    <g id="ytick_8">
     <g id="line2d_14">
      <g>
       <use style="stroke:#000000;stroke-width:0.8;" x="57.6" xlink:href="#m6025bea601" y="68.146059"/>
      </g>
     </g>
     <g id="text_15">
      <text style="font-family:DejaVu Sans;font-size:10px;font-style:normal;font-weight:normal;text-anchor:end;" transform="rotate(-0, 50.6, 71.945277)" x="50.6" y="71.945277">350</text>
     </g>
    </g>
    <g id="text_16">
     <text style="font-family:DejaVu Sans;font-size:10px;font-style:normal;font-weight:normal;text-anchor:middle;" transform="rotate(-90, 25.432813, 174.528)" x="25.432813" y="174.528">Coin Flips Needed</text>
    </g>
   </g>
   <g id="line2d_15">
    <path clip-path="url(#p6e86cc7875)" d="M 73.832727 170.125954 
L 77.112066 293.763231 
L 80.391405 294.396808 
L 83.670744 294.659307 
L 86.950083 294.809522 
L 90.229421 294.909073 
L 93.50876 294.980909 
L 96.788099 295.035718 
L 100.067438 295.079221 
L 103.346777 295.114779 
L 106.626116 295.144514 
L 109.905455 295.169835 
L 113.184793 295.191718 
L 116.464132 295.210866 
L 119.743471 295.227795 
L 123.02281 295.242897 
L 126.302149 295.256474 
L 129.581488 295.268761 
L 132.860826 295.279948 
L 136.140165 295.290187 
L 139.419504 295.299602 
L 142.698843 295.308298 
L 145.978182 295.316359 
L 149.257521 295.323859 
L 152.53686 295.330857 
L 155.816198 295.337408 
L 159.095537 295.343556 
L 162.374876 295.349341 
L 165.654215 295.354795 
L 168.933554 295.35995 
L 172.212893 295.36483 
L 175.492231 295.36946 
L 178.77157 295.373859 
L 182.050909 295.378046 
L 185.330248 295.382037 
L 188.609587 295.385847 
L 191.888926 295.389489 
L 195.168264 295.392975 
L 198.447603 295.396315 
L 201.726942 295.399519 
L 205.006281 295.402596 
L 208.28562 295.405555 
L 211.564959 295.408402 
L 214.844298 295.411143 
L 218.123636 295.413787 
L 221.402975 295.416337 
L 224.682314 295.4188 
L 227.961653 295.42118 
L 231.240992 295.423481 
L 234.520331 295.425709 
L 237.799669 295.427866 
L 241.079008 295.429956 
L 244.358347 295.431983 
L 247.637686 295.43395 
L 250.917025 295.435859 
L 254.196364 295.437713 
L 257.475702 295.439516 
L 260.755041 295.441268 
L 264.03438 295.442973 
L 267.313719 295.444633 
L 270.593058 295.446249 
L 273.872397 295.447823 
L 277.151736 295.449357 
L 280.431074 295.450853 
L 283.710413 295.452313 
L 286.989752 295.453737 
L 290.269091 295.455127 
L 293.54843 295.456485 
L 296.827769 295.457811 
L 300.107107 295.459107 
L 303.386446 295.460374 
L 306.665785 295.461613 
L 309.945124 295.462825 
L 313.224463 295.464011 
L 316.503802 295.465172 
L 319.78314 295.466309 
L 323.062479 295.467422 
L 326.341818 295.468512 
L 329.621157 295.469581 
L 332.900496 295.470629 
L 336.179835 295.471656 
L 339.459174 295.472663 
L 342.738512 295.473651 
L 346.017851 295.47462 
L 349.29719 295.475571 
L 352.576529 295.476505 
L 355.855868 295.477422 
L 359.135207 295.478322 
L 362.414545 295.479207 
L 365.693884 295.480076 
L 368.973223 295.480929 
L 372.252562 295.481768 
L 375.531901 295.482593 
L 378.81124 295.483404 
L 382.090579 295.484202 
L 385.369917 295.484986 
L 388.649256 295.485758 
L 391.928595 295.486517 
L 395.207934 295.487265 
L 398.487273 295.488 
" style="fill:none;stroke:#1f77b4;stroke-linecap:square;stroke-width:1.5;"/>
   </g>
   <g id="line2d_16">
    <path clip-path="url(#p6e86cc7875)" d="M 73.832727 53.568 
L 77.112066 279.672896 
L 80.391405 287.282458 
L 83.670744 289.036611 
L 86.950083 290.408464 
L 90.229421 291.01182 
L 93.50876 291.481241 
L 96.788099 291.654185 
L 100.067438 292.395377 
L 103.346777 292.806282 
L 106.626116 292.362868 
L 109.905455 292.971425 
L 113.184793 293.119663 
L 116.464132 293.321215 
L 119.743471 293.37843 
L 123.02281 293.356324 
L 126.302149 293.530569 
L 129.581488 293.686609 
L 132.860826 293.745125 
L 136.140165 293.754227 
L 139.419504 293.903765 
L 142.698843 293.794537 
L 145.978182 294.091014 
L 149.257521 293.814042 
L 152.53686 293.933673 
L 155.816198 294.106618 
L 159.095537 294.089713 
L 162.374876 294.161232 
L 165.654215 294.237952 
L 168.933554 294.334176 
L 172.212893 294.369285 
L 175.492231 294.360183 
L 178.77157 294.353681 
L 182.050909 294.404395 
L 185.330248 294.404395 
L 188.609587 294.361483 
L 191.888926 294.38619 
L 195.168264 294.447306 
L 198.447603 294.514923 
L 201.726942 294.514923 
L 205.006281 294.50322 
L 208.28562 294.449906 
L 211.564959 294.583841 
L 214.844298 294.583841 
L 218.123636 294.61895 
L 221.402975 294.625452 
L 224.682314 294.599445 
L 227.961653 294.615049 
L 231.240992 294.65796 
L 234.520331 294.638455 
L 237.799669 294.726878 
L 241.079008 294.694369 
L 244.358347 294.709973 
L 247.637686 294.730779 
L 250.917025 294.717775 
L 254.196364 294.752884 
L 257.475702 294.724277 
L 260.755041 294.77369 
L 264.03438 294.77369 
L 267.313719 294.804898 
L 270.593058 294.823102 
L 273.872397 294.793195 
L 277.151736 294.799696 
L 280.431074 294.869915 
L 283.710413 294.820502 
L 286.989752 294.814 
L 290.269091 294.821802 
L 293.54843 294.864713 
L 296.827769 294.905024 
L 300.107107 294.859512 
L 303.386446 294.885519 
L 306.665785 294.901123 
L 309.945124 294.916727 
L 313.224463 294.914126 
L 316.503802 294.901123 
L 319.78314 294.93103 
L 323.062479 294.933631 
L 326.341818 294.924529 
L 329.621157 294.936232 
L 332.900496 294.959638 
L 336.179835 294.92843 
L 339.459174 294.96744 
L 342.738512 294.972641 
L 346.017851 294.981743 
L 349.29719 294.983044 
L 352.576529 294.981743 
L 355.855868 294.999948 
L 359.135207 294.999948 
L 362.414545 294.985644 
L 365.693884 295.00775 
L 368.973223 295.018153 
L 372.252562 295.022054 
L 375.531901 295.014252 
L 378.81124 295.032456 
L 382.090579 295.041559 
L 385.369917 295.037658 
L 388.649256 295.037658 
L 391.928595 295.04806 
L 395.207934 295.050661 
L 398.487273 295.054562 
" style="fill:none;stroke:#ff7f0e;stroke-linecap:square;stroke-width:1.5;"/>
   </g>
   <g id="patch_3">
    <path d="M 57.6 307.584 
L 57.6 41.472 
" style="fill:none;stroke:#000000;stroke-linecap:square;stroke-linejoin:miter;stroke-width:0.8;"/>
   </g>
   <g id="patch_4">
    <path d="M 414.72 307.584 
L 414.72 41.472 
" style="fill:none;stroke:#000000;stroke-linecap:square;stroke-linejoin:miter;stroke-width:0.8;"/>
   </g>
   <g id="patch_5">
    <path d="M 57.6 307.584 
L 414.72 307.584 
" style="fill:none;stroke:#000000;stroke-linecap:square;stroke-linejoin:miter;stroke-width:0.8;"/>
   </g>
   <g id="patch_6">
    <path d="M 57.6 41.472 
L 414.72 41.472 
" style="fill:none;stroke:#000000;stroke-linecap:square;stroke-linejoin:miter;stroke-width:0.8;"/>
   </g>
   <g id="text_17">
    <text style="font-family:DejaVu Sans;font-size:12px;font-style:normal;font-weight:normal;text-anchor:middle;" transform="rotate(-0, 236.16, 35.472)" x="236.16" y="35.472">Coin Flips for pow(x,1/3)</text>
   </g>
   <g id="legend_1">
    <g id="patch_7">
     <path d="M 226.915312 78.82825 
L 407.72 78.82825 
Q 409.72 78.82825 409.72 76.82825 
L 409.72 48.472 
Q 409.72 46.472 407.72 46.472 
L 226.915312 46.472 
Q 224.915312 46.472 224.915312 48.472 
L 224.915312 76.82825 
Q 224.915312 78.82825 226.915312 78.82825 
z
" style="fill:#ffffff;opacity:0.8;stroke:#cccccc;stroke-linejoin:miter;"/>
    </g>
    <g id="line2d_17">
     <path d="M 228.915312 54.570437 
L 248.915312 54.570437 
" style="fill:none;stroke:#1f77b4;stroke-linecap:square;stroke-width:1.5;"/>
    </g>
    <g id="line2d_18"/>
    <g id="text_18">
     <text style="font-family:DejaVu Sans;font-size:10px;font-style:normal;font-weight:normal;text-anchor:start;" transform="rotate(-0, 256.915313, 58.070437)" x="256.915313" y="58.070437">Coin Flip Lower Bound</text>
    </g>
    <g id="line2d_19">
     <path d="M 228.915312 69.248562 
L 248.915312 69.248562 
" style="fill:none;stroke:#ff7f0e;stroke-linecap:square;stroke-width:1.5;"/>
    </g>
    <g id="line2d_20"/>
    <g id="text_19">
     <text style="font-family:DejaVu Sans;font-size:10px;font-style:normal;font-weight:normal;text-anchor:start;" transform="rotate(-0, 256.915313, 72.748562)" x="256.915313" y="72.748562">Avg. Coins Flipped pow(x,1/3)</text>
    </g>
   </g>
  </g>
 </g>
 <defs>
  <clipPath id="p6e86cc7875">
   <rect height="266.112" width="357.12" x="57.6" y="41.472"/>
  </clipPath>
 </defs>
</svg>
