<?xml version="1.0" encoding="utf-8" standalone="no"?>
<!DOCTYPE svg PUBLIC "-//W3C//DTD SVG 1.1//EN"
  "http://www.w3.org/Graphics/SVG/1.1/DTD/svg11.dtd">
<!-- Created with matplotlib (https://matplotlib.org/) -->
<svg height="345.6pt" version="1.1" viewBox="0 0 460.8 345.6" width="460.8pt" xmlns="http://www.w3.org/2000/svg" xmlns:xlink="http://www.w3.org/1999/xlink">
 <defs>
  <style type="text/css">
*{stroke-linecap:butt;stroke-linejoin:round;}
  </style>
 </defs>
 <g id="figure_1">
  <g id="patch_1">
   <path d="M 0 345.6 
L 460.8 345.6 
L 460.8 0 
L 0 0 
z
" style="fill:#ffffff;"/>
  </g>
  <g id="axes_1">
   <g id="patch_2">
    <path d="M 57.6 307.584 
L 414.72 307.584 
L 414.72 41.472 
L 57.6 41.472 
z
" style="fill:#ffffff;"/>
   </g>
   <g id="matplotlib.axis_1">
    <g id="xtick_1">
     <g id="line2d_1">
      <defs>
       <path d="M 0 0 
L 0 3.5 
" id="ma92e2b719a" style="stroke:#000000;stroke-width:0.8;"/>
      </defs>
      <g>
       <use style="stroke:#000000;stroke-width:0.8;" x="73.800255" xlink:href="#ma92e2b719a" y="307.584"/>
      </g>
     </g>
     <g id="text_1">
      <text style="font-family:DejaVu Sans;font-size:10px;font-style:normal;font-weight:normal;text-anchor:middle;" transform="rotate(-0, 73.800255, 322.182437)" x="73.800255" y="322.182437">0.0</text>
     </g>
    </g>
    <g id="xtick_2">
     <g id="line2d_2">
      <g>
       <use style="stroke:#000000;stroke-width:0.8;" x="138.744153" xlink:href="#ma92e2b719a" y="307.584"/>
      </g>
     </g>
     <g id="text_2">
      <text style="font-family:DejaVu Sans;font-size:10px;font-style:normal;font-weight:normal;text-anchor:middle;" transform="rotate(-0, 138.744153, 322.182437)" x="138.744153" y="322.182437">0.2</text>
     </g>
    </g>
    <g id="xtick_3">
     <g id="line2d_3">
      <g>
       <use style="stroke:#000000;stroke-width:0.8;" x="203.688051" xlink:href="#ma92e2b719a" y="307.584"/>
      </g>
     </g>
     <g id="text_3">
      <text style="font-family:DejaVu Sans;font-size:10px;font-style:normal;font-weight:normal;text-anchor:middle;" transform="rotate(-0, 203.688051, 322.182437)" x="203.688051" y="322.182437">0.4</text>
     </g>
    </g>
    <g id="xtick_4">
     <g id="line2d_4">
      <g>
       <use style="stroke:#000000;stroke-width:0.8;" x="268.631949" xlink:href="#ma92e2b719a" y="307.584"/>
      </g>
     </g>
     <g id="text_4">
      <text style="font-family:DejaVu Sans;font-size:10px;font-style:normal;font-weight:normal;text-anchor:middle;" transform="rotate(-0, 268.631949, 322.182437)" x="268.631949" y="322.182437">0.6</text>
     </g>
    </g>
    <g id="xtick_5">
     <g id="line2d_5">
      <g>
       <use style="stroke:#000000;stroke-width:0.8;" x="333.575847" xlink:href="#ma92e2b719a" y="307.584"/>
      </g>
     </g>
     <g id="text_5">
      <text style="font-family:DejaVu Sans;font-size:10px;font-style:normal;font-weight:normal;text-anchor:middle;" transform="rotate(-0, 333.575847, 322.182437)" x="333.575847" y="322.182437">0.8</text>
     </g>
    </g>
    <g id="xtick_6">
     <g id="line2d_6">
      <g>
       <use style="stroke:#000000;stroke-width:0.8;" x="398.519745" xlink:href="#ma92e2b719a" y="307.584"/>
      </g>
     </g>
     <g id="text_6">
      <text style="font-family:DejaVu Sans;font-size:10px;font-style:normal;font-weight:normal;text-anchor:middle;" transform="rotate(-0, 398.519745, 322.182437)" x="398.519745" y="322.182437">1.0</text>
     </g>
    </g>
    <g id="text_7">
     <text style="font-family:DejaVu Sans;font-size:10px;font-style:normal;font-weight:normal;text-anchor:middle;" transform="rotate(-0, 236.16, 335.860562)" x="236.16" y="335.860562">Input Coin's Heads Probability (λ)</text>
    </g>
   </g>
   <g id="matplotlib.axis_2">
    <g id="ytick_1">
     <g id="line2d_7">
      <defs>
       <path d="M 0 0 
L -3.5 0 
" id="mf0bbc9e77e" style="stroke:#000000;stroke-width:0.8;"/>
      </defs>
      <g>
       <use style="stroke:#000000;stroke-width:0.8;" x="57.6" xlink:href="#mf0bbc9e77e" y="297.230582"/>
      </g>
     </g>
     <g id="text_8">
      <text style="font-family:DejaVu Sans;font-size:10px;font-style:normal;font-weight:normal;text-anchor:end;" transform="rotate(-0, 50.6, 301.0298)" x="50.6" y="301.0298">0</text>
     </g>
    </g>
    <g id="ytick_2">
     <g id="line2d_8">
      <g>
       <use style="stroke:#000000;stroke-width:0.8;" x="57.6" xlink:href="#mf0bbc9e77e" y="262.37982"/>
      </g>
     </g>
     <g id="text_9">
      <text style="font-family:DejaVu Sans;font-size:10px;font-style:normal;font-weight:normal;text-anchor:end;" transform="rotate(-0, 50.6, 266.179039)" x="50.6" y="266.179039">10</text>
     </g>
    </g>
    <g id="ytick_3">
     <g id="line2d_9">
      <g>
       <use style="stroke:#000000;stroke-width:0.8;" x="57.6" xlink:href="#mf0bbc9e77e" y="227.529059"/>
      </g>
     </g>
     <g id="text_10">
      <text style="font-family:DejaVu Sans;font-size:10px;font-style:normal;font-weight:normal;text-anchor:end;" transform="rotate(-0, 50.6, 231.328278)" x="50.6" y="231.328278">20</text>
     </g>
    </g>
    <g id="ytick_4">
     <g id="line2d_10">
      <g>
       <use style="stroke:#000000;stroke-width:0.8;" x="57.6" xlink:href="#mf0bbc9e77e" y="192.678298"/>
      </g>
     </g>
     <g id="text_11">
      <text style="font-family:DejaVu Sans;font-size:10px;font-style:normal;font-weight:normal;text-anchor:end;" transform="rotate(-0, 50.6, 196.477517)" x="50.6" y="196.477517">30</text>
     </g>
    </g>
    <g id="ytick_5">
     <g id="line2d_11">
      <g>
       <use style="stroke:#000000;stroke-width:0.8;" x="57.6" xlink:href="#mf0bbc9e77e" y="157.827537"/>
      </g>
     </g>
     <g id="text_12">
      <text style="font-family:DejaVu Sans;font-size:10px;font-style:normal;font-weight:normal;text-anchor:end;" transform="rotate(-0, 50.6, 161.626756)" x="50.6" y="161.626756">40</text>
     </g>
    </g>
    <g id="ytick_6">
     <g id="line2d_12">
      <g>
       <use style="stroke:#000000;stroke-width:0.8;" x="57.6" xlink:href="#mf0bbc9e77e" y="122.976776"/>
      </g>
     </g>
     <g id="text_13">
      <text style="font-family:DejaVu Sans;font-size:10px;font-style:normal;font-weight:normal;text-anchor:end;" transform="rotate(-0, 50.6, 126.775995)" x="50.6" y="126.775995">50</text>
     </g>
    </g>
    <g id="ytick_7">
     <g id="line2d_13">
      <g>
       <use style="stroke:#000000;stroke-width:0.8;" x="57.6" xlink:href="#mf0bbc9e77e" y="88.126015"/>
      </g>
     </g>
     <g id="text_14">
      <text style="font-family:DejaVu Sans;font-size:10px;font-style:normal;font-weight:normal;text-anchor:end;" transform="rotate(-0, 50.6, 91.925234)" x="50.6" y="91.925234">60</text>
     </g>
    </g>
    <g id="ytick_8">
     <g id="line2d_14">
      <g>
       <use style="stroke:#000000;stroke-width:0.8;" x="57.6" xlink:href="#mf0bbc9e77e" y="53.275254"/>
      </g>
     </g>
     <g id="text_15">
      <text style="font-family:DejaVu Sans;font-size:10px;font-style:normal;font-weight:normal;text-anchor:end;" transform="rotate(-0, 50.6, 57.074472)" x="50.6" y="57.074472">70</text>
     </g>
    </g>
    <g id="text_16">
     <text style="font-family:DejaVu Sans;font-size:10px;font-style:normal;font-weight:normal;text-anchor:middle;" transform="rotate(-90, 31.795312, 174.528)" x="31.795312" y="174.528">Coin Flips Needed</text>
    </g>
   </g>
   <g id="line2d_15">
    <path clip-path="url(#p1c4c75c7ea)" d="M 73.832727 121.234238 
L 77.112066 287.731808 
L 80.391405 290.243856 
L 83.670744 291.361977 
L 86.950083 292.029718 
L 90.229421 292.485851 
L 93.50876 292.822761 
L 96.788099 293.084717 
L 100.067438 293.295939 
L 103.346777 293.470938 
L 106.626116 293.61901 
L 109.905455 293.746419 
L 113.184793 293.857564 
L 116.464132 293.955634 
L 119.743471 294.043007 
L 123.02281 294.121496 
L 126.302149 294.192512 
L 129.581488 294.257169 
L 132.860826 294.316363 
L 136.140165 294.370823 
L 139.419504 294.421147 
L 142.698843 294.467834 
L 145.978182 294.511303 
L 149.257521 294.551906 
L 152.53686 294.589945 
L 155.816198 294.625679 
L 159.095537 294.659332 
L 162.374876 294.691098 
L 165.654215 294.721148 
L 168.933554 294.74963 
L 172.212893 294.776677 
L 175.492231 294.802404 
L 178.77157 294.826916 
L 182.050909 294.850306 
L 185.330248 294.872656 
L 188.609587 294.894042 
L 191.888926 294.914531 
L 195.168264 294.934183 
L 198.447603 294.953055 
L 201.726942 294.971196 
L 205.006281 294.988653 
L 208.28562 295.005468 
L 211.564959 295.021678 
L 214.844298 295.03732 
L 218.123636 295.052425 
L 221.402975 295.067025 
L 224.682314 295.081145 
L 227.961653 295.094813 
L 231.240992 295.108052 
L 234.520331 295.120883 
L 237.799669 295.133327 
L 241.079008 295.145404 
L 244.358347 295.15713 
L 247.637686 295.168524 
L 250.917025 295.179599 
L 254.196364 295.190371 
L 257.475702 295.200853 
L 260.755041 295.211058 
L 264.03438 295.220998 
L 267.313719 295.230684 
L 270.593058 295.240128 
L 273.872397 295.249338 
L 277.151736 295.258324 
L 280.431074 295.267096 
L 283.710413 295.275661 
L 286.989752 295.284028 
L 290.269091 295.292204 
L 293.54843 295.300196 
L 296.827769 295.308011 
L 300.107107 295.315656 
L 303.386446 295.323136 
L 306.665785 295.330458 
L 309.945124 295.337627 
L 313.224463 295.344648 
L 316.503802 295.351526 
L 319.78314 295.358267 
L 323.062479 295.364873 
L 326.341818 295.371351 
L 329.621157 295.377704 
L 332.900496 295.383936 
L 336.179835 295.39005 
L 339.459174 295.396051 
L 342.738512 295.401942 
L 346.017851 295.407726 
L 349.29719 295.413406 
L 352.576529 295.418986 
L 355.855868 295.424469 
L 359.135207 295.429856 
L 362.414545 295.435152 
L 365.693884 295.440358 
L 368.973223 295.445477 
L 372.252562 295.450511 
L 375.531901 295.455463 
L 378.81124 295.460335 
L 382.090579 295.465129 
L 385.369917 295.469848 
L 388.649256 295.474492 
L 391.928595 295.479064 
L 395.207934 295.483566 
L 398.487273 295.488 
" style="fill:none;stroke:#1f77b4;stroke-linecap:square;stroke-width:1.5;"/>
   </g>
   <g id="line2d_16">
    <path clip-path="url(#p1c4c75c7ea)" d="M 73.832727 53.568 
L 77.112066 265.376986 
L 80.391405 274.27787 
L 83.670744 278.076603 
L 86.950083 280.132798 
L 90.229421 281.324694 
L 93.50876 284.447322 
L 96.788099 285.632248 
L 100.067438 284.307919 
L 103.346777 285.945905 
L 106.626116 285.095547 
L 109.905455 285.485875 
L 113.184793 286.921726 
L 116.464132 287.772085 
L 119.743471 288.0021 
L 123.02281 287.569951 
L 126.302149 288.636384 
L 129.581488 287.960279 
L 132.860826 287.604801 
L 136.140165 289.040653 
L 139.419504 289.633116 
L 142.698843 289.36128 
L 145.978182 289.654026 
L 149.257521 290.176788 
L 152.53686 290.176788 
L 155.816198 290.469534 
L 159.095537 290.490444 
L 162.374876 290.546206 
L 165.654215 290.964415 
L 168.933554 291.466266 
L 172.212893 290.818042 
L 175.492231 291.361713 
L 178.77157 291.466266 
L 182.050909 291.089878 
L 185.330248 291.20837 
L 188.609587 291.068967 
L 191.888926 291.117758 
L 195.168264 291.542937 
L 198.447603 291.591728 
L 201.726942 291.591728 
L 205.006281 291.814773 
L 208.28562 291.891445 
L 211.564959 291.982057 
L 214.844298 292.149341 
L 218.123636 292.191162 
L 221.402975 291.954176 
L 224.682314 292.267833 
L 227.961653 292.191162 
L 231.240992 292.302684 
L 234.520331 292.079639 
L 237.799669 292.198132 
L 241.079008 292.400266 
L 244.358347 292.449057 
L 247.637686 292.672102 
L 250.917025 292.546639 
L 254.196364 292.407236 
L 257.475702 292.56755 
L 260.755041 292.553609 
L 264.03438 292.58846 
L 267.313719 292.483908 
L 270.593058 292.895147 
L 273.872397 292.776654 
L 277.151736 292.769684 
L 280.431074 292.992729 
L 283.710413 292.860296 
L 286.989752 292.957878 
L 290.269091 292.964848 
L 293.54843 292.874236 
L 296.827769 292.950908 
L 300.107107 293.153043 
L 303.386446 293.180923 
L 306.665785 293.076371 
L 309.945124 293.118192 
L 313.224463 293.111222 
L 316.503802 293.187893 
L 319.78314 293.376087 
L 323.062479 293.173953 
L 326.341818 293.313356 
L 329.621157 293.355177 
L 332.900496 293.320326 
L 336.179835 293.417908 
L 339.459174 293.376087 
L 342.738512 293.410938 
L 346.017851 293.438819 
L 349.29719 293.438819 
L 352.576529 293.403968 
L 355.855868 293.48761 
L 359.135207 293.50155 
L 362.414545 293.564282 
L 365.693884 293.564282 
L 368.973223 293.613073 
L 372.252562 293.620043 
L 375.531901 293.613073 
L 378.81124 293.633983 
L 382.090579 293.682774 
L 385.369917 293.654894 
L 388.649256 293.703685 
L 391.928595 293.689744 
L 395.207934 293.738535 
L 398.487273 293.745506 
" style="fill:none;stroke:#ff7f0e;stroke-linecap:square;stroke-width:1.5;"/>
   </g>
   <g id="patch_3">
    <path d="M 57.6 307.584 
L 57.6 41.472 
" style="fill:none;stroke:#000000;stroke-linecap:square;stroke-linejoin:miter;stroke-width:0.8;"/>
   </g>
   <g id="patch_4">
    <path d="M 414.72 307.584 
L 414.72 41.472 
" style="fill:none;stroke:#000000;stroke-linecap:square;stroke-linejoin:miter;stroke-width:0.8;"/>
   </g>
   <g id="patch_5">
    <path d="M 57.6 307.584 
L 414.72 307.584 
" style="fill:none;stroke:#000000;stroke-linecap:square;stroke-linejoin:miter;stroke-width:0.8;"/>
   </g>
   <g id="patch_6">
    <path d="M 57.6 41.472 
L 414.72 41.472 
" style="fill:none;stroke:#000000;stroke-linecap:square;stroke-linejoin:miter;stroke-width:0.8;"/>
   </g>
   <g id="text_17">
    <text style="font-family:DejaVu Sans;font-size:12px;font-style:normal;font-weight:normal;text-anchor:middle;" transform="rotate(-0, 236.16, 35.472)" x="236.16" y="35.472">Coin Flips for pow(x,2/4)</text>
   </g>
   <g id="legend_1">
    <g id="patch_7">
     <path d="M 219.784062 78.82825 
L 407.72 78.82825 
Q 409.72 78.82825 409.72 76.82825 
L 409.72 48.472 
Q 409.72 46.472 407.72 46.472 
L 219.784062 46.472 
Q 217.784062 46.472 217.784062 48.472 
L 217.784062 76.82825 
Q 217.784062 78.82825 219.784062 78.82825 
z
" style="fill:#ffffff;opacity:0.8;stroke:#cccccc;stroke-linejoin:miter;"/>
    </g>
    <g id="line2d_17">
     <path d="M 221.784062 54.570437 
L 241.784062 54.570437 
" style="fill:none;stroke:#1f77b4;stroke-linecap:square;stroke-width:1.5;"/>
    </g>
    <g id="line2d_18"/>
    <g id="text_18">
     <text style="font-family:DejaVu Sans;font-size:10px;font-style:normal;font-weight:normal;text-anchor:start;" transform="rotate(-0, 249.784062, 58.070437)" x="249.784062" y="58.070437">Coin Flip Lower Bound (Mendo)</text>
    </g>
    <g id="line2d_19">
     <path d="M 221.784062 69.248562 
L 241.784062 69.248562 
" style="fill:none;stroke:#ff7f0e;stroke-linecap:square;stroke-width:1.5;"/>
    </g>
    <g id="line2d_20"/>
    <g id="text_19">
     <text style="font-family:DejaVu Sans;font-size:10px;font-style:normal;font-weight:normal;text-anchor:start;" transform="rotate(-0, 249.784062, 72.748562)" x="249.784062" y="72.748562">Avg. Coins Flipped pow(x,2/4)</text>
    </g>
   </g>
  </g>
 </g>
 <defs>
  <clipPath id="p1c4c75c7ea">
   <rect height="266.112" width="357.12" x="57.6" y="41.472"/>
  </clipPath>
 </defs>
</svg>
