<?xml version="1.0" encoding="utf-8" standalone="no"?>
<!DOCTYPE svg PUBLIC "-//W3C//DTD SVG 1.1//EN"
  "http://www.w3.org/Graphics/SVG/1.1/DTD/svg11.dtd">
<!-- Created with matplotlib (https://matplotlib.org/) -->
<svg height="345.6pt" version="1.1" viewBox="0 0 460.8 345.6" width="460.8pt" xmlns="http://www.w3.org/2000/svg" xmlns:xlink="http://www.w3.org/1999/xlink">
 <defs>
  <style type="text/css">
*{stroke-linecap:butt;stroke-linejoin:round;}
  </style>
 </defs>
 <g id="figure_1">
  <g id="patch_1">
   <path d="M 0 345.6 
L 460.8 345.6 
L 460.8 0 
L 0 0 
z
" style="fill:#ffffff;"/>
  </g>
  <g id="axes_1">
   <g id="patch_2">
    <path d="M 57.6 307.584 
L 414.72 307.584 
L 414.72 41.472 
L 57.6 41.472 
z
" style="fill:#ffffff;"/>
   </g>
   <g id="matplotlib.axis_1">
    <g id="xtick_1">
     <g id="line2d_1">
      <defs>
       <path d="M 0 0 
L 0 3.5 
" id="mf1c02aa9e8" style="stroke:#000000;stroke-width:0.8;"/>
      </defs>
      <g>
       <use style="stroke:#000000;stroke-width:0.8;" x="73.800255" xlink:href="#mf1c02aa9e8" y="307.584"/>
      </g>
     </g>
     <g id="text_1">
      <text style="font-family:DejaVu Sans;font-size:10px;font-style:normal;font-weight:normal;text-anchor:middle;" transform="rotate(-0, 73.800255, 322.182437)" x="73.800255" y="322.182437">0.0</text>
     </g>
    </g>
    <g id="xtick_2">
     <g id="line2d_2">
      <g>
       <use style="stroke:#000000;stroke-width:0.8;" x="138.744153" xlink:href="#mf1c02aa9e8" y="307.584"/>
      </g>
     </g>
     <g id="text_2">
      <text style="font-family:DejaVu Sans;font-size:10px;font-style:normal;font-weight:normal;text-anchor:middle;" transform="rotate(-0, 138.744153, 322.182437)" x="138.744153" y="322.182437">0.2</text>
     </g>
    </g>
    <g id="xtick_3">
     <g id="line2d_3">
      <g>
       <use style="stroke:#000000;stroke-width:0.8;" x="203.688051" xlink:href="#mf1c02aa9e8" y="307.584"/>
      </g>
     </g>
     <g id="text_3">
      <text style="font-family:DejaVu Sans;font-size:10px;font-style:normal;font-weight:normal;text-anchor:middle;" transform="rotate(-0, 203.688051, 322.182437)" x="203.688051" y="322.182437">0.4</text>
     </g>
    </g>
    <g id="xtick_4">
     <g id="line2d_4">
      <g>
       <use style="stroke:#000000;stroke-width:0.8;" x="268.631949" xlink:href="#mf1c02aa9e8" y="307.584"/>
      </g>
     </g>
     <g id="text_4">
      <text style="font-family:DejaVu Sans;font-size:10px;font-style:normal;font-weight:normal;text-anchor:middle;" transform="rotate(-0, 268.631949, 322.182437)" x="268.631949" y="322.182437">0.6</text>
     </g>
    </g>
    <g id="xtick_5">
     <g id="line2d_5">
      <g>
       <use style="stroke:#000000;stroke-width:0.8;" x="333.575847" xlink:href="#mf1c02aa9e8" y="307.584"/>
      </g>
     </g>
     <g id="text_5">
      <text style="font-family:DejaVu Sans;font-size:10px;font-style:normal;font-weight:normal;text-anchor:middle;" transform="rotate(-0, 333.575847, 322.182437)" x="333.575847" y="322.182437">0.8</text>
     </g>
    </g>
    <g id="xtick_6">
     <g id="line2d_6">
      <g>
       <use style="stroke:#000000;stroke-width:0.8;" x="398.519745" xlink:href="#mf1c02aa9e8" y="307.584"/>
      </g>
     </g>
     <g id="text_6">
      <text style="font-family:DejaVu Sans;font-size:10px;font-style:normal;font-weight:normal;text-anchor:middle;" transform="rotate(-0, 398.519745, 322.182437)" x="398.519745" y="322.182437">1.0</text>
     </g>
    </g>
    <g id="text_7">
     <text style="font-family:DejaVu Sans;font-size:10px;font-style:normal;font-weight:normal;text-anchor:middle;" transform="rotate(-0, 236.16, 335.860562)" x="236.16" y="335.860562">Input Coin's Heads Probability (λ)</text>
    </g>
   </g>
   <g id="matplotlib.axis_2">
    <g id="ytick_1">
     <g id="line2d_7">
      <defs>
       <path d="M 0 0 
L -3.5 0 
" id="m3807c2ea0f" style="stroke:#000000;stroke-width:0.8;"/>
      </defs>
      <g>
       <use style="stroke:#000000;stroke-width:0.8;" x="57.6" xlink:href="#m3807c2ea0f" y="295.886385"/>
      </g>
     </g>
     <g id="text_8">
      <text style="font-family:DejaVu Sans;font-size:10px;font-style:normal;font-weight:normal;text-anchor:end;" transform="rotate(-0, 50.6, 299.685604)" x="50.6" y="299.685604">0</text>
     </g>
    </g>
    <g id="ytick_2">
     <g id="line2d_8">
      <g>
       <use style="stroke:#000000;stroke-width:0.8;" x="57.6" xlink:href="#m3807c2ea0f" y="239.541135"/>
      </g>
     </g>
     <g id="text_9">
      <text style="font-family:DejaVu Sans;font-size:10px;font-style:normal;font-weight:normal;text-anchor:end;" transform="rotate(-0, 50.6, 243.340353)" x="50.6" y="243.340353">20</text>
     </g>
    </g>
    <g id="ytick_3">
     <g id="line2d_9">
      <g>
       <use style="stroke:#000000;stroke-width:0.8;" x="57.6" xlink:href="#m3807c2ea0f" y="183.195884"/>
      </g>
     </g>
     <g id="text_10">
      <text style="font-family:DejaVu Sans;font-size:10px;font-style:normal;font-weight:normal;text-anchor:end;" transform="rotate(-0, 50.6, 186.995103)" x="50.6" y="186.995103">40</text>
     </g>
    </g>
    <g id="ytick_4">
     <g id="line2d_10">
      <g>
       <use style="stroke:#000000;stroke-width:0.8;" x="57.6" xlink:href="#m3807c2ea0f" y="126.850633"/>
      </g>
     </g>
     <g id="text_11">
      <text style="font-family:DejaVu Sans;font-size:10px;font-style:normal;font-weight:normal;text-anchor:end;" transform="rotate(-0, 50.6, 130.649852)" x="50.6" y="130.649852">60</text>
     </g>
    </g>
    <g id="ytick_5">
     <g id="line2d_11">
      <g>
       <use style="stroke:#000000;stroke-width:0.8;" x="57.6" xlink:href="#m3807c2ea0f" y="70.505382"/>
      </g>
     </g>
     <g id="text_12">
      <text style="font-family:DejaVu Sans;font-size:10px;font-style:normal;font-weight:normal;text-anchor:end;" transform="rotate(-0, 50.6, 74.304601)" x="50.6" y="74.304601">80</text>
     </g>
    </g>
    <g id="text_13">
     <text style="font-family:DejaVu Sans;font-size:10px;font-style:normal;font-weight:normal;text-anchor:middle;" transform="rotate(-90, 31.795312, 174.528)" x="31.795312" y="174.528">Coin Flips Needed</text>
    </g>
   </g>
   <g id="line2d_12">
    <path clip-path="url(#pf341abe764)" d="M 73.832727 295.488 
L 77.112066 294.497259 
L 80.391405 294.246007 
L 83.670744 294.081307 
L 86.950083 293.9566 
L 90.229421 293.855554 
L 93.50876 293.770339 
L 96.788099 293.696543 
L 100.067438 293.63141 
L 103.346777 293.573097 
L 106.626116 293.520305 
L 109.905455 293.472081 
L 113.184793 293.427704 
L 116.464132 293.386613 
L 119.743471 293.348366 
L 123.02281 293.312603 
L 126.302149 293.279032 
L 129.581488 293.247408 
L 132.860826 293.217527 
L 136.140165 293.189215 
L 139.419504 293.162324 
L 142.698843 293.136724 
L 145.978182 293.112304 
L 149.257521 293.088967 
L 152.53686 293.066626 
L 155.816198 293.045205 
L 159.095537 293.024638 
L 162.374876 293.004862 
L 165.654215 292.985824 
L 168.933554 292.967476 
L 172.212893 292.949772 
L 175.492231 292.932672 
L 178.77157 292.916141 
L 182.050909 292.900145 
L 185.330248 292.884653 
L 188.609587 292.869638 
L 191.888926 292.855073 
L 195.168264 292.840936 
L 198.447603 292.827203 
L 201.726942 292.813855 
L 205.006281 292.800873 
L 208.28562 292.788239 
L 211.564959 292.775938 
L 214.844298 292.763953 
L 218.123636 292.752271 
L 221.402975 292.740879 
L 224.682314 292.729764 
L 227.961653 292.718914 
L 231.240992 292.708319 
L 234.520331 292.697967 
L 237.799669 292.687851 
L 241.079008 292.677959 
L 244.358347 292.668284 
L 247.637686 292.658817 
L 250.917025 292.649552 
L 254.196364 292.640479 
L 257.475702 292.631594 
L 260.755041 292.622888 
L 264.03438 292.614356 
L 267.313719 292.605991 
L 270.593058 292.597789 
L 273.872397 292.589744 
L 277.151736 292.58185 
L 280.431074 292.574103 
L 283.710413 292.566498 
L 286.989752 292.559031 
L 290.269091 292.551697 
L 293.54843 292.544493 
L 296.827769 292.537414 
L 300.107107 292.530457 
L 303.386446 292.523618 
L 306.665785 292.516895 
L 309.945124 292.510282 
L 313.224463 292.503779 
L 316.503802 292.49738 
L 319.78314 292.491085 
L 323.062479 292.484889 
L 326.341818 292.47879 
L 329.621157 292.472786 
L 332.900496 292.466873 
L 336.179835 292.461051 
L 339.459174 292.455316 
L 342.738512 292.449666 
L 346.017851 292.444099 
L 349.29719 292.438614 
L 352.576529 292.433207 
L 355.855868 292.427877 
L 359.135207 292.422623 
L 362.414545 292.417442 
L 365.693884 292.412333 
L 368.973223 292.407295 
L 372.252562 292.402324 
L 375.531901 292.397421 
L 378.81124 292.392583 
L 382.090579 292.387809 
L 385.369917 292.383098 
L 388.649256 292.378447 
L 391.928595 292.373857 
L 395.207934 292.369325 
L 398.487273 292.364851 
" style="fill:none;stroke:#1f77b4;stroke-linecap:square;stroke-width:1.5;"/>
   </g>
   <g id="line2d_13">
    <path clip-path="url(#pf341abe764)" d="M 73.832727 53.568 
L 77.112066 265.950154 
L 80.391405 276.706462 
L 83.670744 279.613877 
L 86.950083 278.819409 
L 90.229421 281.997281 
L 93.50876 283.642562 
L 96.788099 283.225607 
L 100.067438 283.969365 
L 103.346777 284.825813 
L 106.626116 284.780736 
L 109.905455 285.794951 
L 113.184793 286.448556 
L 116.464132 285.761144 
L 119.743471 286.037235 
L 123.02281 286.566881 
L 126.302149 286.211906 
L 129.581488 288.071299 
L 132.860826 287.620537 
L 136.140165 288.285411 
L 139.419504 288.014954 
L 142.698843 287.88536 
L 145.978182 288.2347 
L 149.257521 288.505157 
L 152.53686 287.203582 
L 155.816198 288.415005 
L 159.095537 287.800842 
L 162.374876 288.167086 
L 165.654215 288.093837 
L 168.933554 288.984092 
L 172.212893 288.882671 
L 175.492231 288.837594 
L 178.77157 289.012265 
L 182.050909 289.153128 
L 185.330248 288.798153 
L 188.609587 289.074244 
L 191.888926 289.192569 
L 195.168264 289.096783 
L 198.447603 289.1813 
L 201.726942 289.260184 
L 205.006281 289.322164 
L 208.28562 289.057341 
L 211.564959 289.536275 
L 214.844298 289.429219 
L 218.123636 289.170031 
L 221.402975 289.24328 
L 224.682314 289.705311 
L 227.961653 289.54191 
L 231.240992 289.457392 
L 234.520331 289.147493 
L 237.799669 289.620793 
L 241.079008 289.598255 
L 244.358347 289.648966 
L 247.637686 289.54191 
L 250.917025 289.423585 
L 254.196364 289.801098 
L 257.475702 289.671504 
L 260.755041 289.970134 
L 264.03438 289.857443 
L 267.313719 289.733484 
L 270.593058 289.722215 
L 273.872397 289.615159 
L 277.151736 289.896885 
L 280.431074 289.694042 
L 283.710413 290.088459 
L 286.989752 289.71658 
L 290.269091 290.01521 
L 293.54843 289.84054 
L 296.827769 289.930692 
L 300.107107 289.925058 
L 303.386446 289.919423 
L 306.665785 289.851809 
L 309.945124 290.07719 
L 313.224463 290.212418 
L 316.503802 290.060286 
L 319.78314 290.026479 
L 323.062479 289.975768 
L 326.341818 290.07719 
L 329.621157 290.13917 
L 332.900496 290.133535 
L 336.179835 290.065921 
L 339.459174 289.964499 
L 342.738512 290.01521 
L 346.017851 290.172977 
L 349.29719 290.099728 
L 352.576529 290.195515 
L 355.855868 290.167342 
L 359.135207 290.18988 
L 362.414545 290.082824 
L 365.693884 290.07719 
L 368.973223 290.13917 
L 372.252562 290.195515 
L 375.531901 290.280033 
L 378.81124 290.110997 
L 382.090579 290.156073 
L 385.369917 290.206784 
L 388.649256 290.229322 
L 391.928595 290.246226 
L 395.207934 290.240591 
L 398.487273 290.25186 
" style="fill:none;stroke:#ff7f0e;stroke-linecap:square;stroke-width:1.5;"/>
   </g>
   <g id="patch_3">
    <path d="M 57.6 307.584 
L 57.6 41.472 
" style="fill:none;stroke:#000000;stroke-linecap:square;stroke-linejoin:miter;stroke-width:0.8;"/>
   </g>
   <g id="patch_4">
    <path d="M 414.72 307.584 
L 414.72 41.472 
" style="fill:none;stroke:#000000;stroke-linecap:square;stroke-linejoin:miter;stroke-width:0.8;"/>
   </g>
   <g id="patch_5">
    <path d="M 57.6 307.584 
L 414.72 307.584 
" style="fill:none;stroke:#000000;stroke-linecap:square;stroke-linejoin:miter;stroke-width:0.8;"/>
   </g>
   <g id="patch_6">
    <path d="M 57.6 41.472 
L 414.72 41.472 
" style="fill:none;stroke:#000000;stroke-linecap:square;stroke-linejoin:miter;stroke-width:0.8;"/>
   </g>
   <g id="text_14">
    <text style="font-family:DejaVu Sans;font-size:12px;font-style:normal;font-weight:normal;text-anchor:middle;" transform="rotate(-0, 236.16, 35.472)" x="236.16" y="35.472">Coin Flips for pow(x,5/4)</text>
   </g>
   <g id="legend_1">
    <g id="patch_7">
     <path d="M 226.915312 78.82825 
L 407.72 78.82825 
Q 409.72 78.82825 409.72 76.82825 
L 409.72 48.472 
Q 409.72 46.472 407.72 46.472 
L 226.915312 46.472 
Q 224.915312 46.472 224.915312 48.472 
L 224.915312 76.82825 
Q 224.915312 78.82825 226.915312 78.82825 
z
" style="fill:#ffffff;opacity:0.8;stroke:#cccccc;stroke-linejoin:miter;"/>
    </g>
    <g id="line2d_14">
     <path d="M 228.915312 54.570437 
L 248.915312 54.570437 
" style="fill:none;stroke:#1f77b4;stroke-linecap:square;stroke-width:1.5;"/>
    </g>
    <g id="line2d_15"/>
    <g id="text_15">
     <text style="font-family:DejaVu Sans;font-size:10px;font-style:normal;font-weight:normal;text-anchor:start;" transform="rotate(-0, 256.915313, 58.070437)" x="256.915313" y="58.070437">Coin Flip Lower Bound</text>
    </g>
    <g id="line2d_16">
     <path d="M 228.915312 69.248562 
L 248.915312 69.248562 
" style="fill:none;stroke:#ff7f0e;stroke-linecap:square;stroke-width:1.5;"/>
    </g>
    <g id="line2d_17"/>
    <g id="text_16">
     <text style="font-family:DejaVu Sans;font-size:10px;font-style:normal;font-weight:normal;text-anchor:start;" transform="rotate(-0, 256.915313, 72.748562)" x="256.915313" y="72.748562">Avg. Coins Flipped pow(x,5/4)</text>
    </g>
   </g>
  </g>
 </g>
 <defs>
  <clipPath id="pf341abe764">
   <rect height="266.112" width="357.12" x="57.6" y="41.472"/>
  </clipPath>
 </defs>
</svg>
