<?xml version="1.0" encoding="utf-8" standalone="no"?>
<!DOCTYPE svg PUBLIC "-//W3C//DTD SVG 1.1//EN"
  "http://www.w3.org/Graphics/SVG/1.1/DTD/svg11.dtd">
<!-- Created with matplotlib (https://matplotlib.org/) -->
<svg height="252pt" version="1.1" viewBox="0 0 324 252" width="324pt" xmlns="http://www.w3.org/2000/svg" xmlns:xlink="http://www.w3.org/1999/xlink">
 <defs>
  <style type="text/css">
*{stroke-linecap:butt;stroke-linejoin:round;}
  </style>
 </defs>
 <g id="figure_1">
  <g id="patch_1">
   <path d="M 0 252 
L 324 252 
L 324 0 
L 0 0 
z
" style="fill:#ffffff;"/>
  </g>
  <g id="axes_1">
   <g id="patch_2">
    <path d="M 40.5 224.28 
L 291.6 224.28 
L 291.6 30.24 
L 40.5 30.24 
z
" style="fill:#ffffff;"/>
   </g>
   <g id="matplotlib.axis_1">
    <g id="xtick_1">
     <g id="line2d_1">
      <defs>
       <path d="M 0 0 
L 0 3.5 
" id="mcff3f587ca" style="stroke:#000000;stroke-width:0.8;"/>
      </defs>
      <g>
       <use style="stroke:#000000;stroke-width:0.8;" x="51.890805" xlink:href="#mcff3f587ca" y="224.28"/>
      </g>
     </g>
     <g id="text_1">
      <text style="font-family:DejaVu Sans;font-size:10px;font-style:normal;font-weight:normal;text-anchor:middle;" transform="rotate(-0, 51.890805, 238.878438)" x="51.890805" y="238.878438">0.0</text>
     </g>
    </g>
    <g id="xtick_2">
     <g id="line2d_2">
      <g>
       <use style="stroke:#000000;stroke-width:0.8;" x="97.554483" xlink:href="#mcff3f587ca" y="224.28"/>
      </g>
     </g>
     <g id="text_2">
      <text style="font-family:DejaVu Sans;font-size:10px;font-style:normal;font-weight:normal;text-anchor:middle;" transform="rotate(-0, 97.554483, 238.878438)" x="97.554483" y="238.878438">0.2</text>
     </g>
    </g>
    <g id="xtick_3">
     <g id="line2d_3">
      <g>
       <use style="stroke:#000000;stroke-width:0.8;" x="143.218161" xlink:href="#mcff3f587ca" y="224.28"/>
      </g>
     </g>
     <g id="text_3">
      <text style="font-family:DejaVu Sans;font-size:10px;font-style:normal;font-weight:normal;text-anchor:middle;" transform="rotate(-0, 143.218161, 238.878438)" x="143.218161" y="238.878438">0.4</text>
     </g>
    </g>
    <g id="xtick_4">
     <g id="line2d_4">
      <g>
       <use style="stroke:#000000;stroke-width:0.8;" x="188.881839" xlink:href="#mcff3f587ca" y="224.28"/>
      </g>
     </g>
     <g id="text_4">
      <text style="font-family:DejaVu Sans;font-size:10px;font-style:normal;font-weight:normal;text-anchor:middle;" transform="rotate(-0, 188.881839, 238.878438)" x="188.881839" y="238.878438">0.6</text>
     </g>
    </g>
    <g id="xtick_5">
     <g id="line2d_5">
      <g>
       <use style="stroke:#000000;stroke-width:0.8;" x="234.545517" xlink:href="#mcff3f587ca" y="224.28"/>
      </g>
     </g>
     <g id="text_5">
      <text style="font-family:DejaVu Sans;font-size:10px;font-style:normal;font-weight:normal;text-anchor:middle;" transform="rotate(-0, 234.545517, 238.878438)" x="234.545517" y="238.878438">0.8</text>
     </g>
    </g>
    <g id="xtick_6">
     <g id="line2d_6">
      <g>
       <use style="stroke:#000000;stroke-width:0.8;" x="280.209195" xlink:href="#mcff3f587ca" y="224.28"/>
      </g>
     </g>
     <g id="text_6">
      <text style="font-family:DejaVu Sans;font-size:10px;font-style:normal;font-weight:normal;text-anchor:middle;" transform="rotate(-0, 280.209195, 238.878438)" x="280.209195" y="238.878438">1.0</text>
     </g>
    </g>
    <g id="text_7">
     <text style="font-family:DejaVu Sans;font-size:10px;font-style:normal;font-weight:normal;text-anchor:middle;" transform="rotate(-0, 166.05, 252.556563)" x="166.05" y="252.556563">Input Coin's Heads Probability (λ)</text>
    </g>
   </g>
   <g id="matplotlib.axis_2">
    <g id="ytick_1">
     <g id="line2d_7">
      <defs>
       <path d="M 0 0 
L -3.5 0 
" id="ma10efcec84" style="stroke:#000000;stroke-width:0.8;"/>
      </defs>
      <g>
       <use style="stroke:#000000;stroke-width:0.8;" x="40.5" xlink:href="#ma10efcec84" y="215.46"/>
      </g>
     </g>
     <g id="text_8">
      <text style="font-family:DejaVu Sans;font-size:10px;font-style:normal;font-weight:normal;text-anchor:end;" transform="rotate(-0, 33.5, 219.259219)" x="33.5" y="219.259219">0.0</text>
     </g>
    </g>
    <g id="ytick_2">
     <g id="line2d_8">
      <g>
       <use style="stroke:#000000;stroke-width:0.8;" x="40.5" xlink:href="#ma10efcec84" y="180.18"/>
      </g>
     </g>
     <g id="text_9">
      <text style="font-family:DejaVu Sans;font-size:10px;font-style:normal;font-weight:normal;text-anchor:end;" transform="rotate(-0, 33.5, 183.979219)" x="33.5" y="183.979219">0.2</text>
     </g>
    </g>
    <g id="ytick_3">
     <g id="line2d_9">
      <g>
       <use style="stroke:#000000;stroke-width:0.8;" x="40.5" xlink:href="#ma10efcec84" y="144.9"/>
      </g>
     </g>
     <g id="text_10">
      <text style="font-family:DejaVu Sans;font-size:10px;font-style:normal;font-weight:normal;text-anchor:end;" transform="rotate(-0, 33.5, 148.699219)" x="33.5" y="148.699219">0.4</text>
     </g>
    </g>
    <g id="ytick_4">
     <g id="line2d_10">
      <g>
       <use style="stroke:#000000;stroke-width:0.8;" x="40.5" xlink:href="#ma10efcec84" y="109.62"/>
      </g>
     </g>
     <g id="text_11">
      <text style="font-family:DejaVu Sans;font-size:10px;font-style:normal;font-weight:normal;text-anchor:end;" transform="rotate(-0, 33.5, 113.419219)" x="33.5" y="113.419219">0.6</text>
     </g>
    </g>
    <g id="ytick_5">
     <g id="line2d_11">
      <g>
       <use style="stroke:#000000;stroke-width:0.8;" x="40.5" xlink:href="#ma10efcec84" y="74.34"/>
      </g>
     </g>
     <g id="text_12">
      <text style="font-family:DejaVu Sans;font-size:10px;font-style:normal;font-weight:normal;text-anchor:end;" transform="rotate(-0, 33.5, 78.139219)" x="33.5" y="78.139219">0.8</text>
     </g>
    </g>
    <g id="ytick_6">
     <g id="line2d_12">
      <g>
       <use style="stroke:#000000;stroke-width:0.8;" x="40.5" xlink:href="#ma10efcec84" y="39.06"/>
      </g>
     </g>
     <g id="text_13">
      <text style="font-family:DejaVu Sans;font-size:10px;font-style:normal;font-weight:normal;text-anchor:end;" transform="rotate(-0, 33.5, 42.859219)" x="33.5" y="42.859219">1.0</text>
     </g>
    </g>
    <g id="text_14">
     <text style="font-family:DejaVu Sans;font-size:10px;font-style:normal;font-weight:normal;text-anchor:middle;" transform="rotate(-90, 11.517187, 127.26)" x="11.517187" y="127.26">Simulated Mean / Function Value</text>
    </g>
   </g>
   <g id="line2d_13">
    <path clip-path="url(#pd37e85add1)" d="M 52.119123 214.757739 
L 54.420757 210.649882 
L 56.722391 207.388809 
L 59.024025 204.437138 
L 61.325658 201.673501 
L 63.627292 199.042902 
L 65.928926 196.514195 
L 68.23056 194.067462 
L 70.532194 191.688943 
L 72.833828 189.368601 
L 75.135462 187.098814 
L 77.437096 184.873615 
L 79.738729 182.688212 
L 82.040363 180.538681 
L 84.341997 178.421755 
L 86.643631 176.334674 
L 88.945265 174.275077 
L 91.246899 172.240926 
L 93.548533 170.230443 
L 95.850167 168.242067 
L 98.151801 166.274414 
L 100.453434 164.326252 
L 102.755068 162.396478 
L 105.056702 160.484095 
L 107.358336 158.588205 
L 109.65997 156.707989 
L 111.961604 154.842699 
L 114.263238 152.991653 
L 116.564872 151.154221 
L 118.866505 149.329824 
L 121.168139 147.517926 
L 123.469773 145.718029 
L 125.771407 143.929673 
L 128.073041 142.152427 
L 130.374675 140.38589 
L 132.676309 138.629685 
L 134.977943 136.883459 
L 137.279576 135.146883 
L 139.58121 133.419645 
L 141.882844 131.701452 
L 144.184478 129.992026 
L 146.486112 128.291105 
L 148.787746 126.598443 
L 151.08938 124.913803 
L 153.391014 123.236964 
L 155.692648 121.567713 
L 157.994281 119.905849 
L 160.295915 118.25118 
L 162.597549 116.603523 
L 164.899183 114.962703 
L 167.200817 113.328554 
L 169.502451 111.700916 
L 171.804085 110.079637 
L 174.105719 108.46457 
L 176.407352 106.855575 
L 178.708986 105.252517 
L 181.01062 103.655269 
L 183.312254 102.063704 
L 185.613888 100.477706 
L 187.915522 98.897157 
L 190.217156 97.321949 
L 192.51879 95.751974 
L 194.820424 94.187131 
L 197.122057 92.627319 
L 199.423691 91.072443 
L 201.725325 89.522412 
L 204.026959 87.977136 
L 206.328593 86.436528 
L 208.630227 84.900506 
L 210.931861 83.368989 
L 213.233495 81.841898 
L 215.535128 80.319158 
L 217.836762 78.800695 
L 220.138396 77.286439 
L 222.44003 75.776321 
L 224.741664 74.270273 
L 227.043298 72.76823 
L 229.344932 71.270131 
L 231.646566 69.775912 
L 233.948199 68.285515 
L 236.249833 66.798882 
L 238.551467 65.315957 
L 240.853101 63.836684 
L 243.154735 62.36101 
L 245.456369 60.888884 
L 247.758003 59.420254 
L 250.059637 57.955073 
L 252.361271 56.493291 
L 254.662904 55.034861 
L 256.964538 53.579739 
L 259.266172 52.12788 
L 261.567806 50.67924 
L 263.86944 49.233776 
L 266.171074 47.791449 
L 268.472708 46.352217 
L 270.774342 44.91604 
L 273.075975 43.482881 
L 275.377609 42.052701 
L 277.679243 40.625464 
L 279.980877 39.201134 
" style="fill:none;stroke:#1f77b4;stroke-linecap:square;stroke-width:1.5;"/>
   </g>
   <g id="line2d_14">
    <path clip-path="url(#pd37e85add1)" d="M 51.913636 215.46 
L 54.219421 211.2264 
L 56.525207 207.3456 
L 58.830992 205.2288 
L 61.136777 196.7616 
L 63.442562 200.6424 
L 65.748347 193.9392 
L 68.054132 191.1168 
L 70.359917 190.0584 
L 72.665702 186.5304 
L 74.971488 185.8248 
L 77.277273 184.7664 
L 79.583058 184.7664 
L 81.888843 183.708 
L 84.194628 175.2408 
L 86.500413 171.36 
L 88.806198 176.2992 
L 91.111983 177.0048 
L 93.417769 165.3624 
L 95.723554 162.8928 
L 98.029339 169.596 
L 100.335124 173.124 
L 102.640909 162.8928 
L 104.946694 156.1896 
L 107.252479 159.7176 
L 109.558264 158.6592 
L 111.86405 153.3672 
L 114.169835 157.6008 
L 116.47562 153.72 
L 118.781405 146.3112 
L 121.08719 149.8392 
L 123.392975 150.5448 
L 125.69876 144.9 
L 128.004545 140.3136 
L 130.310331 140.6664 
L 132.616116 143.136 
L 134.921901 137.844 
L 137.227686 135.7272 
L 139.533471 136.7856 
L 141.839256 129.3768 
L 144.145041 132.552 
L 146.450826 134.316 
L 148.756612 125.8488 
L 151.062397 123.0264 
L 153.368182 112.7952 
L 155.673967 119.1456 
L 157.979752 121.968 
L 160.285537 118.7928 
L 162.591322 121.6152 
L 164.897107 113.8536 
L 167.202893 116.676 
L 169.508678 112.7952 
L 171.814463 101.1528 
L 174.120248 111.0312 
L 176.426033 106.092 
L 178.731818 102.9168 
L 181.037603 106.4448 
L 183.343388 99.7416 
L 185.649174 96.2136 
L 187.954959 98.3304 
L 190.260744 93.0384 
L 192.566529 96.9192 
L 194.872314 94.0968 
L 197.178099 89.8632 
L 199.483884 89.5104 
L 201.789669 91.98 
L 204.095455 87.7464 
L 206.40124 83.16 
L 208.707025 78.2208 
L 211.01281 79.9848 
L 213.318595 85.6296 
L 215.62438 78.2208 
L 217.930165 77.5152 
L 220.23595 73.9872 
L 222.541736 71.8704 
L 224.847521 78.2208 
L 227.153306 76.104 
L 229.459091 75.3984 
L 231.764876 71.1648 
L 234.070661 72.2232 
L 236.376446 63.4032 
L 238.682231 61.2864 
L 240.988017 60.228 
L 243.293802 63.756 
L 245.599587 60.228 
L 247.905372 60.228 
L 250.211157 60.9336 
L 252.516942 58.1112 
L 254.822727 55.6416 
L 257.128512 52.4664 
L 259.434298 51.0552 
L 261.740083 52.1136 
L 264.045868 49.2912 
L 266.351653 46.116 
L 268.657438 46.8216 
L 270.963223 47.1744 
L 273.269008 44.7048 
L 275.574793 42.9408 
L 277.880579 40.1184 
L 280.186364 39.06 
" style="fill:none;stroke:#ff7f0e;stroke-linecap:square;stroke-width:1.5;"/>
   </g>
   <g id="patch_3">
    <path d="M 40.5 224.28 
L 40.5 30.24 
" style="fill:none;stroke:#000000;stroke-linecap:square;stroke-linejoin:miter;stroke-width:0.8;"/>
   </g>
   <g id="patch_4">
    <path d="M 291.6 224.28 
L 291.6 30.24 
" style="fill:none;stroke:#000000;stroke-linecap:square;stroke-linejoin:miter;stroke-width:0.8;"/>
   </g>
   <g id="patch_5">
    <path d="M 40.5 224.28 
L 291.6 224.28 
" style="fill:none;stroke:#000000;stroke-linecap:square;stroke-linejoin:miter;stroke-width:0.8;"/>
   </g>
   <g id="patch_6">
    <path d="M 40.5 30.24 
L 291.6 30.24 
" style="fill:none;stroke:#000000;stroke-linecap:square;stroke-linejoin:miter;stroke-width:0.8;"/>
   </g>
   <g id="text_15">
    <text style="font-family:DejaVu Sans;font-size:12px;font-style:normal;font-weight:normal;text-anchor:middle;" transform="rotate(-0, 166.05, 24.24)" x="166.05" y="24.24">Expected Value in pow(x,4/5) Algorithm</text>
   </g>
   <g id="legend_1">
    <g id="patch_7">
     <path d="M 47.5 67.59625 
L 230.092187 67.59625 
Q 232.092187 67.59625 232.092187 65.59625 
L 232.092187 37.24 
Q 232.092187 35.24 230.092187 35.24 
L 47.5 35.24 
Q 45.5 35.24 45.5 37.24 
L 45.5 65.59625 
Q 45.5 67.59625 47.5 67.59625 
z
" style="fill:#ffffff;opacity:0.8;stroke:#cccccc;stroke-linejoin:miter;"/>
    </g>
    <g id="line2d_15">
     <path d="M 49.5 43.338438 
L 69.5 43.338438 
" style="fill:none;stroke:#1f77b4;stroke-linecap:square;stroke-width:1.5;"/>
    </g>
    <g id="line2d_16"/>
    <g id="text_16">
     <text style="font-family:DejaVu Sans;font-size:10px;font-style:normal;font-weight:normal;text-anchor:start;" transform="rotate(-0, 77.5, 46.838438)" x="77.5" y="46.838438">pow(x,4/5)</text>
    </g>
    <g id="line2d_17">
     <path d="M 49.5 58.016563 
L 69.5 58.016563 
" style="fill:none;stroke:#ff7f0e;stroke-linecap:square;stroke-width:1.5;"/>
    </g>
    <g id="line2d_18"/>
    <g id="text_17">
     <text style="font-family:DejaVu Sans;font-size:10px;font-style:normal;font-weight:normal;text-anchor:start;" transform="rotate(-0, 77.5, 61.516563)" x="77.5" y="61.516563">Simulated Mean of pow(x,4/5)</text>
    </g>
   </g>
  </g>
 </g>
 <defs>
  <clipPath id="pd37e85add1">
   <rect height="194.04" width="251.1" x="40.5" y="30.24"/>
  </clipPath>
 </defs>
</svg>
