<?xml version="1.0" encoding="utf-8" standalone="no"?>
<!DOCTYPE svg PUBLIC "-//W3C//DTD SVG 1.1//EN"
  "http://www.w3.org/Graphics/SVG/1.1/DTD/svg11.dtd">
<!-- Created with matplotlib (https://matplotlib.org/) -->
<svg height="345.6pt" version="1.1" viewBox="0 0 460.8 345.6" width="460.8pt" xmlns="http://www.w3.org/2000/svg" xmlns:xlink="http://www.w3.org/1999/xlink">
 <defs>
  <style type="text/css">
*{stroke-linecap:butt;stroke-linejoin:round;}
  </style>
 </defs>
 <g id="figure_1">
  <g id="patch_1">
   <path d="M 0 345.6 
L 460.8 345.6 
L 460.8 0 
L 0 0 
z
" style="fill:#ffffff;"/>
  </g>
  <g id="axes_1">
   <g id="patch_2">
    <path d="M 57.6 307.584 
L 414.72 307.584 
L 414.72 41.472 
L 57.6 41.472 
z
" style="fill:#ffffff;"/>
   </g>
   <g id="matplotlib.axis_1">
    <g id="xtick_1">
     <g id="line2d_1">
      <defs>
       <path d="M 0 0 
L 0 3.5 
" id="mfeb9822e33" style="stroke:#000000;stroke-width:0.8;"/>
      </defs>
      <g>
       <use style="stroke:#000000;stroke-width:0.8;" x="73.800255" xlink:href="#mfeb9822e33" y="307.584"/>
      </g>
     </g>
     <g id="text_1">
      <text style="font-family:DejaVu Sans;font-size:10px;font-style:normal;font-weight:normal;text-anchor:middle;" transform="rotate(-0, 73.800255, 322.182437)" x="73.800255" y="322.182437">0.0</text>
     </g>
    </g>
    <g id="xtick_2">
     <g id="line2d_2">
      <g>
       <use style="stroke:#000000;stroke-width:0.8;" x="138.744153" xlink:href="#mfeb9822e33" y="307.584"/>
      </g>
     </g>
     <g id="text_2">
      <text style="font-family:DejaVu Sans;font-size:10px;font-style:normal;font-weight:normal;text-anchor:middle;" transform="rotate(-0, 138.744153, 322.182437)" x="138.744153" y="322.182437">0.2</text>
     </g>
    </g>
    <g id="xtick_3">
     <g id="line2d_3">
      <g>
       <use style="stroke:#000000;stroke-width:0.8;" x="203.688051" xlink:href="#mfeb9822e33" y="307.584"/>
      </g>
     </g>
     <g id="text_3">
      <text style="font-family:DejaVu Sans;font-size:10px;font-style:normal;font-weight:normal;text-anchor:middle;" transform="rotate(-0, 203.688051, 322.182437)" x="203.688051" y="322.182437">0.4</text>
     </g>
    </g>
    <g id="xtick_4">
     <g id="line2d_4">
      <g>
       <use style="stroke:#000000;stroke-width:0.8;" x="268.631949" xlink:href="#mfeb9822e33" y="307.584"/>
      </g>
     </g>
     <g id="text_4">
      <text style="font-family:DejaVu Sans;font-size:10px;font-style:normal;font-weight:normal;text-anchor:middle;" transform="rotate(-0, 268.631949, 322.182437)" x="268.631949" y="322.182437">0.6</text>
     </g>
    </g>
    <g id="xtick_5">
     <g id="line2d_5">
      <g>
       <use style="stroke:#000000;stroke-width:0.8;" x="333.575847" xlink:href="#mfeb9822e33" y="307.584"/>
      </g>
     </g>
     <g id="text_5">
      <text style="font-family:DejaVu Sans;font-size:10px;font-style:normal;font-weight:normal;text-anchor:middle;" transform="rotate(-0, 333.575847, 322.182437)" x="333.575847" y="322.182437">0.8</text>
     </g>
    </g>
    <g id="xtick_6">
     <g id="line2d_6">
      <g>
       <use style="stroke:#000000;stroke-width:0.8;" x="398.519745" xlink:href="#mfeb9822e33" y="307.584"/>
      </g>
     </g>
     <g id="text_6">
      <text style="font-family:DejaVu Sans;font-size:10px;font-style:normal;font-weight:normal;text-anchor:middle;" transform="rotate(-0, 398.519745, 322.182437)" x="398.519745" y="322.182437">1.0</text>
     </g>
    </g>
    <g id="text_7">
     <text style="font-family:DejaVu Sans;font-size:10px;font-style:normal;font-weight:normal;text-anchor:middle;" transform="rotate(-0, 236.16, 335.860562)" x="236.16" y="335.860562">Input Coin's Heads Probability (λ)</text>
    </g>
   </g>
   <g id="matplotlib.axis_2">
    <g id="ytick_1">
     <g id="line2d_7">
      <defs>
       <path d="M 0 0 
L -3.5 0 
" id="mf4aed9a892" style="stroke:#000000;stroke-width:0.8;"/>
      </defs>
      <g>
       <use style="stroke:#000000;stroke-width:0.8;" x="57.6" xlink:href="#mf4aed9a892" y="295.488"/>
      </g>
     </g>
     <g id="text_8">
      <text style="font-family:DejaVu Sans;font-size:10px;font-style:normal;font-weight:normal;text-anchor:end;" transform="rotate(-0, 50.6, 299.287219)" x="50.6" y="299.287219">0.0</text>
     </g>
    </g>
    <g id="ytick_2">
     <g id="line2d_8">
      <g>
       <use style="stroke:#000000;stroke-width:0.8;" x="57.6" xlink:href="#mf4aed9a892" y="247.104"/>
      </g>
     </g>
     <g id="text_9">
      <text style="font-family:DejaVu Sans;font-size:10px;font-style:normal;font-weight:normal;text-anchor:end;" transform="rotate(-0, 50.6, 250.903219)" x="50.6" y="250.903219">0.2</text>
     </g>
    </g>
    <g id="ytick_3">
     <g id="line2d_9">
      <g>
       <use style="stroke:#000000;stroke-width:0.8;" x="57.6" xlink:href="#mf4aed9a892" y="198.72"/>
      </g>
     </g>
     <g id="text_10">
      <text style="font-family:DejaVu Sans;font-size:10px;font-style:normal;font-weight:normal;text-anchor:end;" transform="rotate(-0, 50.6, 202.519219)" x="50.6" y="202.519219">0.4</text>
     </g>
    </g>
    <g id="ytick_4">
     <g id="line2d_10">
      <g>
       <use style="stroke:#000000;stroke-width:0.8;" x="57.6" xlink:href="#mf4aed9a892" y="150.336"/>
      </g>
     </g>
     <g id="text_11">
      <text style="font-family:DejaVu Sans;font-size:10px;font-style:normal;font-weight:normal;text-anchor:end;" transform="rotate(-0, 50.6, 154.135219)" x="50.6" y="154.135219">0.6</text>
     </g>
    </g>
    <g id="ytick_5">
     <g id="line2d_11">
      <g>
       <use style="stroke:#000000;stroke-width:0.8;" x="57.6" xlink:href="#mf4aed9a892" y="101.952"/>
      </g>
     </g>
     <g id="text_12">
      <text style="font-family:DejaVu Sans;font-size:10px;font-style:normal;font-weight:normal;text-anchor:end;" transform="rotate(-0, 50.6, 105.751219)" x="50.6" y="105.751219">0.8</text>
     </g>
    </g>
    <g id="ytick_6">
     <g id="line2d_12">
      <g>
       <use style="stroke:#000000;stroke-width:0.8;" x="57.6" xlink:href="#mf4aed9a892" y="53.568"/>
      </g>
     </g>
     <g id="text_13">
      <text style="font-family:DejaVu Sans;font-size:10px;font-style:normal;font-weight:normal;text-anchor:end;" transform="rotate(-0, 50.6, 57.367219)" x="50.6" y="57.367219">1.0</text>
     </g>
    </g>
    <g id="text_14">
     <text style="font-family:DejaVu Sans;font-size:10px;font-style:normal;font-weight:normal;text-anchor:middle;" transform="rotate(-90, 28.617187, 174.528)" x="28.617187" y="174.528">Simulated Mean / Function Value</text>
    </g>
   </g>
   <g id="line2d_13">
    <path clip-path="url(#p0f1281ce8d)" d="M 73.832727 295.488 
L 77.112066 295.488 
L 80.391405 295.487999 
L 83.670744 295.487994 
L 86.950083 295.487974 
L 90.229421 295.48792 
L 93.50876 295.487801 
L 96.788099 295.48757 
L 100.067438 295.487162 
L 103.346777 295.486491 
L 106.626116 295.485446 
L 109.905455 295.483889 
L 113.184793 295.48165 
L 116.464132 295.478528 
L 119.743471 295.474284 
L 123.02281 295.468638 
L 126.302149 295.46127 
L 129.581488 295.451812 
L 132.860826 295.439848 
L 136.140165 295.42491 
L 139.419504 295.406476 
L 142.698843 295.383964 
L 145.978182 295.356734 
L 149.257521 295.324079 
L 152.53686 295.285225 
L 155.816198 295.239331 
L 159.095537 295.185479 
L 162.374876 295.122677 
L 165.654215 295.049853 
L 168.933554 294.965853 
L 172.212893 294.869436 
L 175.492231 294.759275 
L 178.77157 294.63395 
L 182.050909 294.491947 
L 185.330248 294.331653 
L 188.609587 294.151355 
L 191.888926 293.949239 
L 195.168264 293.72338 
L 198.447603 293.471746 
L 201.726942 293.192191 
L 205.006281 292.882453 
L 208.28562 292.540152 
L 211.564959 292.162784 
L 214.844298 291.747723 
L 218.123636 291.292213 
L 221.402975 290.793365 
L 224.682314 290.24816 
L 227.961653 289.653439 
L 231.240992 289.005902 
L 234.520331 288.302109 
L 237.799669 287.53847 
L 241.079008 286.711246 
L 244.358347 285.816549 
L 247.637686 284.850331 
L 250.917025 283.808388 
L 254.196364 282.686354 
L 257.475702 281.479697 
L 260.755041 280.183719 
L 264.03438 278.79355 
L 267.313719 277.304146 
L 270.593058 275.710288 
L 273.872397 274.006574 
L 277.151736 272.187422 
L 280.431074 270.247062 
L 283.710413 268.179536 
L 286.989752 265.978692 
L 290.269091 263.638186 
L 293.54843 261.151472 
L 296.827769 258.511806 
L 300.107107 255.712237 
L 303.386446 252.745609 
L 306.665785 249.604554 
L 309.945124 246.28149 
L 313.224463 242.768621 
L 316.503802 239.057928 
L 319.78314 235.141171 
L 323.062479 231.009886 
L 326.341818 226.655378 
L 329.621157 222.06872 
L 332.900496 217.240751 
L 336.179835 212.162073 
L 339.459174 206.823045 
L 342.738512 201.213785 
L 346.017851 195.324159 
L 349.29719 189.143789 
L 352.576529 182.662039 
L 355.855868 175.86802 
L 359.135207 168.750581 
L 362.414545 161.29831 
L 365.693884 153.499531 
L 368.973223 145.342297 
L 372.252562 136.814392 
L 375.531901 127.903324 
L 378.81124 118.596324 
L 382.090579 108.880342 
L 385.369917 98.742045 
L 388.649256 88.167812 
L 391.928595 77.143734 
L 395.207934 65.655608 
L 398.487273 53.688936 
" style="fill:none;stroke:#1f77b4;stroke-linecap:square;stroke-width:1.5;"/>
   </g>
   <g id="line2d_14">
    <path clip-path="url(#p0f1281ce8d)" d="M 73.832727 295.488 
L 77.112066 295.488 
L 80.391405 295.488 
L 83.670744 295.488 
L 86.950083 295.488 
L 90.229421 295.488 
L 93.50876 295.488 
L 96.788099 295.488 
L 100.067438 295.488 
L 103.346777 295.488 
L 106.626116 295.488 
L 109.905455 295.488 
L 113.184793 295.488 
L 116.464132 295.488 
L 119.743471 295.488 
L 123.02281 295.488 
L 126.302149 295.488 
L 129.581488 295.488 
L 132.860826 295.488 
L 136.140165 295.488 
L 139.419504 295.488 
L 142.698843 295.00416 
L 145.978182 295.488 
L 149.257521 295.488 
L 152.53686 295.488 
L 155.816198 295.488 
L 159.095537 295.00416 
L 162.374876 295.00416 
L 165.654215 294.52032 
L 168.933554 295.00416 
L 172.212893 294.03648 
L 175.492231 294.03648 
L 178.77157 294.03648 
L 182.050909 292.58496 
L 185.330248 293.55264 
L 188.609587 293.55264 
L 191.888926 295.00416 
L 195.168264 293.55264 
L 198.447603 295.00416 
L 201.726942 293.0688 
L 205.006281 293.0688 
L 208.28562 292.10112 
L 211.564959 291.13344 
L 214.844298 289.68192 
L 218.123636 290.16576 
L 221.402975 288.71424 
L 224.682314 292.10112 
L 227.961653 289.68192 
L 231.240992 287.26272 
L 234.520331 290.16576 
L 237.799669 288.71424 
L 241.079008 287.26272 
L 244.358347 284.35968 
L 247.637686 284.84352 
L 250.917025 286.29504 
L 254.196364 284.35968 
L 257.475702 282.90816 
L 260.755041 281.45664 
L 264.03438 279.52128 
L 267.313719 277.10208 
L 270.593058 277.58592 
L 273.872397 278.06976 
L 277.151736 274.19904 
L 280.431074 272.26368 
L 283.710413 268.39296 
L 286.989752 268.8768 
L 290.269091 265.48992 
L 293.54843 255.32928 
L 296.827769 262.58688 
L 300.107107 251.45856 
L 303.386446 243.23328 
L 306.665785 248.55552 
L 309.945124 249.5232 
L 313.224463 249.03936 
L 316.503802 244.20096 
L 319.78314 226.29888 
L 323.062479 232.10496 
L 326.341818 219.04128 
L 329.621157 223.39584 
L 332.900496 224.36352 
L 336.179835 208.3968 
L 339.459174 212.75136 
L 342.738512 205.00992 
L 346.017851 195.33312 
L 349.29719 190.97856 
L 352.576529 180.81792 
L 355.855868 177.91488 
L 359.135207 172.1088 
L 362.414545 160.98048 
L 365.693884 154.20672 
L 368.973223 148.40064 
L 372.252562 138.24 
L 375.531901 129.04704 
L 378.81124 120.82176 
L 382.090579 113.56416 
L 385.369917 100.50048 
L 388.649256 90.82368 
L 391.928595 77.27616 
L 395.207934 66.14784 
L 398.487273 53.568 
" style="fill:none;stroke:#ff7f0e;stroke-linecap:square;stroke-width:1.5;"/>
   </g>
   <g id="patch_3">
    <path d="M 57.6 307.584 
L 57.6 41.472 
" style="fill:none;stroke:#000000;stroke-linecap:square;stroke-linejoin:miter;stroke-width:0.8;"/>
   </g>
   <g id="patch_4">
    <path d="M 414.72 307.584 
L 414.72 41.472 
" style="fill:none;stroke:#000000;stroke-linecap:square;stroke-linejoin:miter;stroke-width:0.8;"/>
   </g>
   <g id="patch_5">
    <path d="M 57.6 307.584 
L 414.72 307.584 
" style="fill:none;stroke:#000000;stroke-linecap:square;stroke-linejoin:miter;stroke-width:0.8;"/>
   </g>
   <g id="patch_6">
    <path d="M 57.6 41.472 
L 414.72 41.472 
" style="fill:none;stroke:#000000;stroke-linecap:square;stroke-linejoin:miter;stroke-width:0.8;"/>
   </g>
   <g id="text_15">
    <text style="font-family:DejaVu Sans;font-size:12px;font-style:normal;font-weight:normal;" transform="translate(112.047188 22.034625)">Simulated Mean for pow(x,5/1) Algorithm</text>
    <text style="font-family:DejaVu Sans;font-size:12px;font-style:normal;font-weight:normal;" transform="translate(132.609375 35.472)">(Wasserstein Distances in Legend)</text>
   </g>
   <g id="legend_1">
    <g id="patch_7">
     <path d="M 64.6 78.82825 
L 242.85 78.82825 
Q 244.85 78.82825 244.85 76.82825 
L 244.85 48.472 
Q 244.85 46.472 242.85 46.472 
L 64.6 46.472 
Q 62.6 46.472 62.6 48.472 
L 62.6 76.82825 
Q 62.6 78.82825 64.6 78.82825 
z
" style="fill:#ffffff;opacity:0.8;stroke:#cccccc;stroke-linejoin:miter;"/>
    </g>
    <g id="line2d_15">
     <path d="M 66.6 54.570437 
L 86.6 54.570437 
" style="fill:none;stroke:#1f77b4;stroke-linecap:square;stroke-width:1.5;"/>
    </g>
    <g id="line2d_16"/>
    <g id="text_16">
     <text style="font-family:DejaVu Sans;font-size:10px;font-style:normal;font-weight:normal;text-anchor:start;" transform="rotate(-0, 94.6, 58.070437)" x="94.6" y="58.070437">pow(x,5/1)</text>
    </g>
    <g id="line2d_17">
     <path d="M 66.6 69.248562 
L 86.6 69.248562 
" style="fill:none;stroke:#ff7f0e;stroke-linecap:square;stroke-width:1.5;"/>
    </g>
    <g id="line2d_18"/>
    <g id="text_17">
     <text style="font-family:DejaVu Sans;font-size:10px;font-style:normal;font-weight:normal;text-anchor:start;" transform="rotate(-0, 94.6, 72.748562)" x="94.6" y="72.748562">Simul. Mean (WD=0.004075)</text>
    </g>
   </g>
  </g>
 </g>
 <defs>
  <clipPath id="p0f1281ce8d">
   <rect height="266.112" width="357.12" x="57.6" y="41.472"/>
  </clipPath>
 </defs>
</svg>
