<?xml version="1.0" encoding="utf-8" standalone="no"?>
<!DOCTYPE svg PUBLIC "-//W3C//DTD SVG 1.1//EN"
  "http://www.w3.org/Graphics/SVG/1.1/DTD/svg11.dtd">
<!-- Created with matplotlib (https://matplotlib.org/) -->
<svg height="345.6pt" version="1.1" viewBox="0 0 460.8 345.6" width="460.8pt" xmlns="http://www.w3.org/2000/svg" xmlns:xlink="http://www.w3.org/1999/xlink">
 <defs>
  <style type="text/css">
*{stroke-linecap:butt;stroke-linejoin:round;}
  </style>
 </defs>
 <g id="figure_1">
  <g id="patch_1">
   <path d="M 0 345.6 
L 460.8 345.6 
L 460.8 0 
L 0 0 
z
" style="fill:#ffffff;"/>
  </g>
  <g id="axes_1">
   <g id="patch_2">
    <path d="M 57.6 307.584 
L 414.72 307.584 
L 414.72 41.472 
L 57.6 41.472 
z
" style="fill:#ffffff;"/>
   </g>
   <g id="matplotlib.axis_1">
    <g id="xtick_1">
     <g id="line2d_1">
      <defs>
       <path d="M 0 0 
L 0 3.5 
" id="m05000c4604" style="stroke:#000000;stroke-width:0.8;"/>
      </defs>
      <g>
       <use style="stroke:#000000;stroke-width:0.8;" x="73.800255" xlink:href="#m05000c4604" y="307.584"/>
      </g>
     </g>
     <g id="text_1">
      <text style="font-family:DejaVu Sans;font-size:10px;font-style:normal;font-weight:normal;text-anchor:middle;" transform="rotate(-0, 73.800255, 322.182437)" x="73.800255" y="322.182437">0.0</text>
     </g>
    </g>
    <g id="xtick_2">
     <g id="line2d_2">
      <g>
       <use style="stroke:#000000;stroke-width:0.8;" x="138.744153" xlink:href="#m05000c4604" y="307.584"/>
      </g>
     </g>
     <g id="text_2">
      <text style="font-family:DejaVu Sans;font-size:10px;font-style:normal;font-weight:normal;text-anchor:middle;" transform="rotate(-0, 138.744153, 322.182437)" x="138.744153" y="322.182437">0.2</text>
     </g>
    </g>
    <g id="xtick_3">
     <g id="line2d_3">
      <g>
       <use style="stroke:#000000;stroke-width:0.8;" x="203.688051" xlink:href="#m05000c4604" y="307.584"/>
      </g>
     </g>
     <g id="text_3">
      <text style="font-family:DejaVu Sans;font-size:10px;font-style:normal;font-weight:normal;text-anchor:middle;" transform="rotate(-0, 203.688051, 322.182437)" x="203.688051" y="322.182437">0.4</text>
     </g>
    </g>
    <g id="xtick_4">
     <g id="line2d_4">
      <g>
       <use style="stroke:#000000;stroke-width:0.8;" x="268.631949" xlink:href="#m05000c4604" y="307.584"/>
      </g>
     </g>
     <g id="text_4">
      <text style="font-family:DejaVu Sans;font-size:10px;font-style:normal;font-weight:normal;text-anchor:middle;" transform="rotate(-0, 268.631949, 322.182437)" x="268.631949" y="322.182437">0.6</text>
     </g>
    </g>
    <g id="xtick_5">
     <g id="line2d_5">
      <g>
       <use style="stroke:#000000;stroke-width:0.8;" x="333.575847" xlink:href="#m05000c4604" y="307.584"/>
      </g>
     </g>
     <g id="text_5">
      <text style="font-family:DejaVu Sans;font-size:10px;font-style:normal;font-weight:normal;text-anchor:middle;" transform="rotate(-0, 333.575847, 322.182437)" x="333.575847" y="322.182437">0.8</text>
     </g>
    </g>
    <g id="xtick_6">
     <g id="line2d_6">
      <g>
       <use style="stroke:#000000;stroke-width:0.8;" x="398.519745" xlink:href="#m05000c4604" y="307.584"/>
      </g>
     </g>
     <g id="text_6">
      <text style="font-family:DejaVu Sans;font-size:10px;font-style:normal;font-weight:normal;text-anchor:middle;" transform="rotate(-0, 398.519745, 322.182437)" x="398.519745" y="322.182437">1.0</text>
     </g>
    </g>
    <g id="text_7">
     <text style="font-family:DejaVu Sans;font-size:10px;font-style:normal;font-weight:normal;text-anchor:middle;" transform="rotate(-0, 236.16, 335.860562)" x="236.16" y="335.860562">Input Coin's Heads Probability (λ)</text>
    </g>
   </g>
   <g id="matplotlib.axis_2">
    <g id="ytick_1">
     <g id="line2d_7">
      <defs>
       <path d="M 0 0 
L -3.5 0 
" id="m9f4420aa8b" style="stroke:#000000;stroke-width:0.8;"/>
      </defs>
      <g>
       <use style="stroke:#000000;stroke-width:0.8;" x="57.6" xlink:href="#m9f4420aa8b" y="285.929974"/>
      </g>
     </g>
     <g id="text_8">
      <text style="font-family:DejaVu Sans;font-size:10px;font-style:normal;font-weight:normal;text-anchor:end;" transform="rotate(-0, 50.6, 289.729192)" x="50.6" y="289.729192">1</text>
     </g>
    </g>
    <g id="ytick_2">
     <g id="line2d_8">
      <g>
       <use style="stroke:#000000;stroke-width:0.8;" x="57.6" xlink:href="#m9f4420aa8b" y="247.696434"/>
      </g>
     </g>
     <g id="text_9">
      <text style="font-family:DejaVu Sans;font-size:10px;font-style:normal;font-weight:normal;text-anchor:end;" transform="rotate(-0, 50.6, 251.495652)" x="50.6" y="251.495652">2</text>
     </g>
    </g>
    <g id="ytick_3">
     <g id="line2d_9">
      <g>
       <use style="stroke:#000000;stroke-width:0.8;" x="57.6" xlink:href="#m9f4420aa8b" y="209.462894"/>
      </g>
     </g>
     <g id="text_10">
      <text style="font-family:DejaVu Sans;font-size:10px;font-style:normal;font-weight:normal;text-anchor:end;" transform="rotate(-0, 50.6, 213.262113)" x="50.6" y="213.262113">3</text>
     </g>
    </g>
    <g id="ytick_4">
     <g id="line2d_10">
      <g>
       <use style="stroke:#000000;stroke-width:0.8;" x="57.6" xlink:href="#m9f4420aa8b" y="171.229354"/>
      </g>
     </g>
     <g id="text_11">
      <text style="font-family:DejaVu Sans;font-size:10px;font-style:normal;font-weight:normal;text-anchor:end;" transform="rotate(-0, 50.6, 175.028573)" x="50.6" y="175.028573">4</text>
     </g>
    </g>
    <g id="ytick_5">
     <g id="line2d_11">
      <g>
       <use style="stroke:#000000;stroke-width:0.8;" x="57.6" xlink:href="#m9f4420aa8b" y="132.995814"/>
      </g>
     </g>
     <g id="text_12">
      <text style="font-family:DejaVu Sans;font-size:10px;font-style:normal;font-weight:normal;text-anchor:end;" transform="rotate(-0, 50.6, 136.795033)" x="50.6" y="136.795033">5</text>
     </g>
    </g>
    <g id="ytick_6">
     <g id="line2d_12">
      <g>
       <use style="stroke:#000000;stroke-width:0.8;" x="57.6" xlink:href="#m9f4420aa8b" y="94.762274"/>
      </g>
     </g>
     <g id="text_13">
      <text style="font-family:DejaVu Sans;font-size:10px;font-style:normal;font-weight:normal;text-anchor:end;" transform="rotate(-0, 50.6, 98.561493)" x="50.6" y="98.561493">6</text>
     </g>
    </g>
    <g id="ytick_7">
     <g id="line2d_13">
      <g>
       <use style="stroke:#000000;stroke-width:0.8;" x="57.6" xlink:href="#m9f4420aa8b" y="56.528734"/>
      </g>
     </g>
     <g id="text_14">
      <text style="font-family:DejaVu Sans;font-size:10px;font-style:normal;font-weight:normal;text-anchor:end;" transform="rotate(-0, 50.6, 60.327953)" x="50.6" y="60.327953">7</text>
     </g>
    </g>
    <g id="text_15">
     <text style="font-family:DejaVu Sans;font-size:10px;font-style:normal;font-weight:normal;text-anchor:middle;" transform="rotate(-90, 38.157812, 174.528)" x="38.157812" y="174.528">Coin Flips Needed</text>
    </g>
   </g>
   <g id="line2d_14">
    <path clip-path="url(#p1d1495c13e)" d="M 73.832727 53.568 
L 77.112066 254.957058 
L 80.391405 265.169895 
L 83.670744 270.301843 
L 86.950083 273.598491 
L 90.229421 275.970444 
L 93.50876 277.794009 
L 96.788099 279.258584 
L 100.067438 280.471929 
L 103.346777 281.50076 
L 106.626116 282.389023 
L 109.905455 283.167072 
L 113.184793 283.85668 
L 116.464132 284.473949 
L 119.743471 285.031096 
L 123.02281 285.537586 
L 126.302149 286.000892 
L 129.581488 286.427005 
L 132.860826 286.820797 
L 136.140165 287.186277 
L 139.419504 287.52678 
L 142.698843 287.84511 
L 145.978182 288.143639 
L 149.257521 288.424396 
L 152.53686 288.689124 
L 155.816198 288.939334 
L 159.095537 289.176342 
L 162.374876 289.401299 
L 165.654215 289.615218 
L 168.933554 289.818998 
L 172.212893 290.013434 
L 175.492231 290.199236 
L 178.77157 290.377041 
L 182.050909 290.54742 
L 185.330248 290.710889 
L 188.609587 290.867911 
L 191.888926 291.018911 
L 195.168264 291.164272 
L 198.447603 291.304344 
L 201.726942 291.439447 
L 205.006281 291.569875 
L 208.28562 291.695897 
L 211.564959 291.817761 
L 214.844298 291.935694 
L 218.123636 292.049909 
L 221.402975 292.1606 
L 224.682314 292.267948 
L 227.961653 292.372122 
L 231.240992 292.473278 
L 234.520331 292.571562 
L 237.799669 292.66711 
L 241.079008 292.760048 
L 244.358347 292.850495 
L 247.637686 292.938564 
L 250.917025 293.024357 
L 254.196364 293.107973 
L 257.475702 293.189504 
L 260.755041 293.269037 
L 264.03438 293.346653 
L 267.313719 293.42243 
L 270.593058 293.496439 
L 273.872397 293.568751 
L 277.151736 293.639429 
L 280.431074 293.708536 
L 283.710413 293.776129 
L 286.989752 293.842264 
L 290.269091 293.906993 
L 293.54843 293.970366 
L 296.827769 294.032431 
L 300.107107 294.093232 
L 303.386446 294.152813 
L 306.665785 294.211214 
L 309.945124 294.268474 
L 313.224463 294.324631 
L 316.503802 294.379719 
L 319.78314 294.433773 
L 323.062479 294.486825 
L 326.341818 294.538906 
L 329.621157 294.590046 
L 332.900496 294.640273 
L 336.179835 294.689614 
L 339.459174 294.738095 
L 342.738512 294.785741 
L 346.017851 294.832577 
L 349.29719 294.878625 
L 352.576529 294.923907 
L 355.855868 294.968444 
L 359.135207 295.012257 
L 362.414545 295.055366 
L 365.693884 295.097789 
L 368.973223 295.139545 
L 372.252562 295.180651 
L 375.531901 295.221124 
L 378.81124 295.26098 
L 382.090579 295.300234 
L 385.369917 295.338903 
L 388.649256 295.377 
L 391.928595 295.414539 
L 395.207934 295.451535 
L 398.487273 295.488 
" style="fill:none;stroke:#1f77b4;stroke-linecap:square;stroke-width:1.5;"/>
   </g>
   <g id="line2d_15">
    <path clip-path="url(#p1d1495c13e)" d="M 73.832727 185.834566 
L 77.112066 210.686367 
L 80.391405 242.726073 
L 83.670744 244.867152 
L 86.950083 253.27853 
L 90.229421 236.838108 
L 93.50876 250.831584 
L 96.788099 243.796613 
L 100.067438 247.5435 
L 103.346777 249.684578 
L 106.626116 259.625298 
L 109.905455 254.043201 
L 113.184793 260.313502 
L 116.464132 258.860627 
L 119.743471 265.819132 
L 123.02281 265.742664 
L 126.302149 265.513263 
L 129.581488 260.160568 
L 132.860826 261.613442 
L 136.140165 266.430868 
L 139.419504 266.583802 
L 142.698843 265.819132 
L 145.978182 267.272006 
L 149.257521 270.177755 
L 152.53686 272.242366 
L 155.816198 268.036677 
L 159.095537 268.419012 
L 162.374876 270.560091 
L 165.654215 274.306977 
L 168.933554 271.936498 
L 172.212893 272.777636 
L 175.492231 275.606918 
L 178.77157 270.942426 
L 182.050909 273.542307 
L 185.330248 272.318833 
L 188.609587 275.377517 
L 191.888926 275.148115 
L 195.168264 275.224582 
L 198.447603 274.23051 
L 201.726942 273.007037 
L 205.006281 276.524523 
L 208.28562 275.912786 
L 211.564959 274.154043 
L 214.844298 277.977397 
L 218.123636 276.753924 
L 221.402975 278.971469 
L 224.682314 279.889074 
L 227.961653 275.071648 
L 231.240992 279.430272 
L 234.520331 281.265482 
L 237.799669 278.130331 
L 241.079008 280.806679 
L 244.358347 277.595062 
L 247.637686 277.518595 
L 250.917025 279.200871 
L 254.196364 279.124403 
L 257.475702 279.812607 
L 260.755041 279.889074 
L 264.03438 278.589134 
L 267.313719 281.877218 
L 270.593058 280.500811 
L 273.872397 281.724284 
L 277.151736 281.953685 
L 280.431074 281.494883 
L 283.710413 281.341949 
L 286.989752 281.265482 
L 290.269091 282.10662 
L 293.54843 282.412488 
L 296.827769 280.883146 
L 300.107107 282.794823 
L 303.386446 283.483027 
L 306.665785 282.488955 
L 309.945124 283.024224 
L 313.224463 282.565422 
L 316.503802 283.712428 
L 319.78314 282.87129 
L 323.062479 283.330093 
L 326.341818 284.018297 
L 329.621157 283.330093 
L 332.900496 283.483027 
L 336.179835 283.865362 
L 339.459174 283.865362 
L 342.738512 284.477099 
L 346.017851 284.553566 
L 349.29719 284.247698 
L 352.576529 283.635961 
L 355.855868 284.171231 
L 359.135207 285.165303 
L 362.414545 285.012369 
L 365.693884 285.24177 
L 368.973223 284.7065 
L 372.252562 285.394704 
L 375.531901 285.624105 
L 378.81124 284.7065 
L 382.090579 285.624105 
L 385.369917 285.547638 
L 388.649256 285.394704 
L 391.928595 285.929974 
L 395.207934 285.777039 
L 398.487273 285.929974 
" style="fill:none;stroke:#ff7f0e;stroke-linecap:square;stroke-width:1.5;"/>
   </g>
   <g id="patch_3">
    <path d="M 57.6 307.584 
L 57.6 41.472 
" style="fill:none;stroke:#000000;stroke-linecap:square;stroke-linejoin:miter;stroke-width:0.8;"/>
   </g>
   <g id="patch_4">
    <path d="M 414.72 307.584 
L 414.72 41.472 
" style="fill:none;stroke:#000000;stroke-linecap:square;stroke-linejoin:miter;stroke-width:0.8;"/>
   </g>
   <g id="patch_5">
    <path d="M 57.6 307.584 
L 414.72 307.584 
" style="fill:none;stroke:#000000;stroke-linecap:square;stroke-linejoin:miter;stroke-width:0.8;"/>
   </g>
   <g id="patch_6">
    <path d="M 57.6 41.472 
L 414.72 41.472 
" style="fill:none;stroke:#000000;stroke-linecap:square;stroke-linejoin:miter;stroke-width:0.8;"/>
   </g>
   <g id="text_16">
    <text style="font-family:DejaVu Sans;font-size:12px;font-style:normal;font-weight:normal;text-anchor:middle;" transform="rotate(-0, 236.16, 35.472)" x="236.16" y="35.472">Coin Flips for pow(x,3/4)</text>
   </g>
   <g id="legend_1">
    <g id="patch_7">
     <path d="M 226.915312 78.82825 
L 407.72 78.82825 
Q 409.72 78.82825 409.72 76.82825 
L 409.72 48.472 
Q 409.72 46.472 407.72 46.472 
L 226.915312 46.472 
Q 224.915312 46.472 224.915312 48.472 
L 224.915312 76.82825 
Q 224.915312 78.82825 226.915312 78.82825 
z
" style="fill:#ffffff;opacity:0.8;stroke:#cccccc;stroke-linejoin:miter;"/>
    </g>
    <g id="line2d_16">
     <path d="M 228.915312 54.570437 
L 248.915312 54.570437 
" style="fill:none;stroke:#1f77b4;stroke-linecap:square;stroke-width:1.5;"/>
    </g>
    <g id="line2d_17"/>
    <g id="text_17">
     <text style="font-family:DejaVu Sans;font-size:10px;font-style:normal;font-weight:normal;text-anchor:start;" transform="rotate(-0, 256.915313, 58.070437)" x="256.915313" y="58.070437">Coin Flip Lower Bound</text>
    </g>
    <g id="line2d_18">
     <path d="M 228.915312 69.248562 
L 248.915312 69.248562 
" style="fill:none;stroke:#ff7f0e;stroke-linecap:square;stroke-width:1.5;"/>
    </g>
    <g id="line2d_19"/>
    <g id="text_18">
     <text style="font-family:DejaVu Sans;font-size:10px;font-style:normal;font-weight:normal;text-anchor:start;" transform="rotate(-0, 256.915313, 72.748562)" x="256.915313" y="72.748562">Avg. Coins Flipped pow(x,3/4)</text>
    </g>
   </g>
  </g>
 </g>
 <defs>
  <clipPath id="p1d1495c13e">
   <rect height="266.112" width="357.12" x="57.6" y="41.472"/>
  </clipPath>
 </defs>
</svg>
