<?xml version="1.0" encoding="utf-8" standalone="no"?>
<!DOCTYPE svg PUBLIC "-//W3C//DTD SVG 1.1//EN"
  "http://www.w3.org/Graphics/SVG/1.1/DTD/svg11.dtd">
<!-- Created with matplotlib (https://matplotlib.org/) -->
<svg height="252pt" version="1.1" viewBox="0 0 324 252" width="324pt" xmlns="http://www.w3.org/2000/svg" xmlns:xlink="http://www.w3.org/1999/xlink">
 <defs>
  <style type="text/css">
*{stroke-linecap:butt;stroke-linejoin:round;}
  </style>
 </defs>
 <g id="figure_1">
  <g id="patch_1">
   <path d="M 0 252 
L 324 252 
L 324 0 
L 0 0 
z
" style="fill:#ffffff;"/>
  </g>
  <g id="axes_1">
   <g id="patch_2">
    <path d="M 40.5 224.28 
L 291.6 224.28 
L 291.6 30.24 
L 40.5 30.24 
z
" style="fill:#ffffff;"/>
   </g>
   <g id="matplotlib.axis_1">
    <g id="xtick_1">
     <g id="line2d_1">
      <defs>
       <path d="M 0 0 
L 0 3.5 
" id="m1748f23792" style="stroke:#000000;stroke-width:0.8;"/>
      </defs>
      <g>
       <use style="stroke:#000000;stroke-width:0.8;" x="51.890805" xlink:href="#m1748f23792" y="224.28"/>
      </g>
     </g>
     <g id="text_1">
      <text style="font-family:DejaVu Sans;font-size:10px;font-style:normal;font-weight:normal;text-anchor:middle;" transform="rotate(-0, 51.890805, 238.878438)" x="51.890805" y="238.878438">0.0</text>
     </g>
    </g>
    <g id="xtick_2">
     <g id="line2d_2">
      <g>
       <use style="stroke:#000000;stroke-width:0.8;" x="97.554483" xlink:href="#m1748f23792" y="224.28"/>
      </g>
     </g>
     <g id="text_2">
      <text style="font-family:DejaVu Sans;font-size:10px;font-style:normal;font-weight:normal;text-anchor:middle;" transform="rotate(-0, 97.554483, 238.878438)" x="97.554483" y="238.878438">0.2</text>
     </g>
    </g>
    <g id="xtick_3">
     <g id="line2d_3">
      <g>
       <use style="stroke:#000000;stroke-width:0.8;" x="143.218161" xlink:href="#m1748f23792" y="224.28"/>
      </g>
     </g>
     <g id="text_3">
      <text style="font-family:DejaVu Sans;font-size:10px;font-style:normal;font-weight:normal;text-anchor:middle;" transform="rotate(-0, 143.218161, 238.878438)" x="143.218161" y="238.878438">0.4</text>
     </g>
    </g>
    <g id="xtick_4">
     <g id="line2d_4">
      <g>
       <use style="stroke:#000000;stroke-width:0.8;" x="188.881839" xlink:href="#m1748f23792" y="224.28"/>
      </g>
     </g>
     <g id="text_4">
      <text style="font-family:DejaVu Sans;font-size:10px;font-style:normal;font-weight:normal;text-anchor:middle;" transform="rotate(-0, 188.881839, 238.878438)" x="188.881839" y="238.878438">0.6</text>
     </g>
    </g>
    <g id="xtick_5">
     <g id="line2d_5">
      <g>
       <use style="stroke:#000000;stroke-width:0.8;" x="234.545517" xlink:href="#m1748f23792" y="224.28"/>
      </g>
     </g>
     <g id="text_5">
      <text style="font-family:DejaVu Sans;font-size:10px;font-style:normal;font-weight:normal;text-anchor:middle;" transform="rotate(-0, 234.545517, 238.878438)" x="234.545517" y="238.878438">0.8</text>
     </g>
    </g>
    <g id="xtick_6">
     <g id="line2d_6">
      <g>
       <use style="stroke:#000000;stroke-width:0.8;" x="280.209195" xlink:href="#m1748f23792" y="224.28"/>
      </g>
     </g>
     <g id="text_6">
      <text style="font-family:DejaVu Sans;font-size:10px;font-style:normal;font-weight:normal;text-anchor:middle;" transform="rotate(-0, 280.209195, 238.878438)" x="280.209195" y="238.878438">1.0</text>
     </g>
    </g>
    <g id="text_7">
     <text style="font-family:DejaVu Sans;font-size:10px;font-style:normal;font-weight:normal;text-anchor:middle;" transform="rotate(-0, 166.05, 252.556563)" x="166.05" y="252.556563">Probability</text>
    </g>
   </g>
   <g id="matplotlib.axis_2">
    <g id="ytick_1">
     <g id="line2d_7">
      <defs>
       <path d="M 0 0 
L -3.5 0 
" id="mfdffd79098" style="stroke:#000000;stroke-width:0.8;"/>
      </defs>
      <g>
       <use style="stroke:#000000;stroke-width:0.8;" x="40.5" xlink:href="#mfdffd79098" y="212.418621"/>
      </g>
     </g>
     <g id="text_8">
      <text style="font-family:DejaVu Sans;font-size:10px;font-style:normal;font-weight:normal;text-anchor:end;" transform="rotate(-0, 33.5, 216.217839)" x="33.5" y="216.217839">2.0</text>
     </g>
    </g>
    <g id="ytick_2">
     <g id="line2d_8">
      <g>
       <use style="stroke:#000000;stroke-width:0.8;" x="40.5" xlink:href="#mfdffd79098" y="170.177241"/>
      </g>
     </g>
     <g id="text_9">
      <text style="font-family:DejaVu Sans;font-size:10px;font-style:normal;font-weight:normal;text-anchor:end;" transform="rotate(-0, 33.5, 173.97646)" x="33.5" y="173.97646">2.5</text>
     </g>
    </g>
    <g id="ytick_3">
     <g id="line2d_9">
      <g>
       <use style="stroke:#000000;stroke-width:0.8;" x="40.5" xlink:href="#mfdffd79098" y="127.935862"/>
      </g>
     </g>
     <g id="text_10">
      <text style="font-family:DejaVu Sans;font-size:10px;font-style:normal;font-weight:normal;text-anchor:end;" transform="rotate(-0, 33.5, 131.735081)" x="33.5" y="131.735081">3.0</text>
     </g>
    </g>
    <g id="ytick_4">
     <g id="line2d_10">
      <g>
       <use style="stroke:#000000;stroke-width:0.8;" x="40.5" xlink:href="#mfdffd79098" y="85.694483"/>
      </g>
     </g>
     <g id="text_11">
      <text style="font-family:DejaVu Sans;font-size:10px;font-style:normal;font-weight:normal;text-anchor:end;" transform="rotate(-0, 33.5, 89.493702)" x="33.5" y="89.493702">3.5</text>
     </g>
    </g>
    <g id="ytick_5">
     <g id="line2d_11">
      <g>
       <use style="stroke:#000000;stroke-width:0.8;" x="40.5" xlink:href="#mfdffd79098" y="43.453103"/>
      </g>
     </g>
     <g id="text_12">
      <text style="font-family:DejaVu Sans;font-size:10px;font-style:normal;font-weight:normal;text-anchor:end;" transform="rotate(-0, 33.5, 47.252322)" x="33.5" y="47.252322">4.0</text>
     </g>
    </g>
    <g id="text_13">
     <text style="font-family:DejaVu Sans;font-size:10px;font-style:normal;font-weight:normal;text-anchor:middle;" transform="rotate(-90, 11.517187, 127.26)" x="11.517187" y="127.26">Average Bits Consumed Per Call</text>
    </g>
   </g>
   <g id="line2d_12">
    <path clip-path="url(#pb400a24210)" d="M 51.913636 215.122069 
L 54.219421 215.46 
L 56.525207 203.463448 
L 58.830992 203.463448 
L 61.136777 215.122069 
L 63.442562 205.828966 
L 65.748347 202.956552 
L 68.054132 208.025517 
L 70.359917 198.732414 
L 72.665702 191.804828 
L 74.971488 192.142759 
L 77.277273 196.366897 
L 79.583058 198.056552 
L 81.888843 190.791034 
L 84.194628 193.156552 
L 86.500413 183.018621 
L 88.806198 195.015172 
L 91.111983 199.070345 
L 93.417769 182.342759 
L 95.723554 185.046207 
L 98.029339 176.091034 
L 100.335124 178.287586 
L 102.640909 165.446207 
L 104.946694 165.277241 
L 107.252479 167.473793 
L 109.558264 163.249655 
L 111.86405 171.866897 
L 114.169835 175.077241 
L 116.47562 186.566897 
L 118.781405 156.66 
L 121.08719 158.518621 
L 123.392975 171.697931 
L 125.69876 140.946207 
L 128.004545 138.242759 
L 130.310331 153.111724 
L 132.616116 152.604828 
L 134.921901 148.887586 
L 137.227686 150.746207 
L 139.533471 145.677241 
L 141.839256 154.294483 
L 144.145041 140.270345 
L 146.450826 143.818621 
L 148.756612 149.225517 
L 151.062397 141.453103 
L 153.368182 129.456552 
L 155.673967 122.866897 
L 157.979752 138.918621 
L 160.285537 128.78069 
L 162.591322 130.470345 
L 164.897107 143.649655 
L 167.202893 126.753103 
L 169.508678 123.88069 
L 171.814463 117.966897 
L 174.120248 127.766897 
L 176.426033 125.063448 
L 178.731818 123.711724 
L 181.037603 130.132414 
L 183.343388 117.291034 
L 185.649174 111.377241 
L 187.954959 110.532414 
L 190.260744 103.266897 
L 192.566529 109.011724 
L 194.872314 117.797931 
L 197.178099 109.856552 
L 199.483884 99.38069 
L 201.789669 107.997931 
L 204.095455 104.956552 
L 206.40124 98.704828 
L 208.707025 101.070345 
L 211.01281 98.535862 
L 213.318595 102.422069 
L 215.62438 88.397931 
L 217.930165 82.484138 
L 220.23595 78.26 
L 222.541736 72.177241 
L 224.847521 87.553103 
L 227.153306 93.635862 
L 229.459091 78.766897 
L 231.764876 70.487586 
L 234.070661 72.515172 
L 236.376446 82.315172 
L 238.682231 82.653103 
L 240.988017 67.784138 
L 243.293802 68.966897 
L 245.599587 60.18069 
L 247.905372 53.591034 
L 250.211157 64.235862 
L 252.516942 66.432414 
L 254.822727 62.03931 
L 257.128512 59.504828 
L 259.434298 60.011724 
L 261.740083 56.632414 
L 264.045868 58.491034 
L 266.351653 52.915172 
L 268.657438 39.06 
L 270.963223 41.087586 
L 273.269008 53.591034 
L 275.574793 42.608276 
L 277.880579 48.184138 
L 280.186364 40.073793 
" style="fill:none;stroke:#1f77b4;stroke-linecap:square;stroke-width:1.5;"/>
   </g>
   <g id="patch_3">
    <path d="M 40.5 224.28 
L 40.5 30.24 
" style="fill:none;stroke:#000000;stroke-linecap:square;stroke-linejoin:miter;stroke-width:0.8;"/>
   </g>
   <g id="patch_4">
    <path d="M 291.6 224.28 
L 291.6 30.24 
" style="fill:none;stroke:#000000;stroke-linecap:square;stroke-linejoin:miter;stroke-width:0.8;"/>
   </g>
   <g id="patch_5">
    <path d="M 40.5 224.28 
L 291.6 224.28 
" style="fill:none;stroke:#000000;stroke-linecap:square;stroke-linejoin:miter;stroke-width:0.8;"/>
   </g>
   <g id="patch_6">
    <path d="M 40.5 30.24 
L 291.6 30.24 
" style="fill:none;stroke:#000000;stroke-linecap:square;stroke-linejoin:miter;stroke-width:0.8;"/>
   </g>
   <g id="text_14">
    <text style="font-family:DejaVu Sans;font-size:12px;font-style:normal;font-weight:normal;text-anchor:middle;" transform="rotate(-0, 166.05, 24.24)" x="166.05" y="24.24">Avg. Bits Consumed by pow(x,2/1) Algorithm</text>
   </g>
  </g>
 </g>
 <defs>
  <clipPath id="pb400a24210">
   <rect height="194.04" width="251.1" x="40.5" y="30.24"/>
  </clipPath>
 </defs>
</svg>
