<?xml version="1.0" encoding="utf-8" standalone="no"?>
<!DOCTYPE svg PUBLIC "-//W3C//DTD SVG 1.1//EN"
  "http://www.w3.org/Graphics/SVG/1.1/DTD/svg11.dtd">
<!-- Created with matplotlib (https://matplotlib.org/) -->
<svg height="345.6pt" version="1.1" viewBox="0 0 460.8 345.6" width="460.8pt" xmlns="http://www.w3.org/2000/svg" xmlns:xlink="http://www.w3.org/1999/xlink">
 <defs>
  <style type="text/css">
*{stroke-linecap:butt;stroke-linejoin:round;}
  </style>
 </defs>
 <g id="figure_1">
  <g id="patch_1">
   <path d="M 0 345.6 
L 460.8 345.6 
L 460.8 0 
L 0 0 
z
" style="fill:#ffffff;"/>
  </g>
  <g id="axes_1">
   <g id="patch_2">
    <path d="M 57.6 307.584 
L 414.72 307.584 
L 414.72 41.472 
L 57.6 41.472 
z
" style="fill:#ffffff;"/>
   </g>
   <g id="matplotlib.axis_1">
    <g id="xtick_1">
     <g id="line2d_1">
      <defs>
       <path d="M 0 0 
L 0 3.5 
" id="mb6b3ef3f13" style="stroke:#000000;stroke-width:0.8;"/>
      </defs>
      <g>
       <use style="stroke:#000000;stroke-width:0.8;" x="73.800255" xlink:href="#mb6b3ef3f13" y="307.584"/>
      </g>
     </g>
     <g id="text_1">
      <text style="font-family:DejaVu Sans;font-size:10px;font-style:normal;font-weight:normal;text-anchor:middle;" transform="rotate(-0, 73.800255, 322.182437)" x="73.800255" y="322.182437">0.0</text>
     </g>
    </g>
    <g id="xtick_2">
     <g id="line2d_2">
      <g>
       <use style="stroke:#000000;stroke-width:0.8;" x="138.744153" xlink:href="#mb6b3ef3f13" y="307.584"/>
      </g>
     </g>
     <g id="text_2">
      <text style="font-family:DejaVu Sans;font-size:10px;font-style:normal;font-weight:normal;text-anchor:middle;" transform="rotate(-0, 138.744153, 322.182437)" x="138.744153" y="322.182437">0.2</text>
     </g>
    </g>
    <g id="xtick_3">
     <g id="line2d_3">
      <g>
       <use style="stroke:#000000;stroke-width:0.8;" x="203.688051" xlink:href="#mb6b3ef3f13" y="307.584"/>
      </g>
     </g>
     <g id="text_3">
      <text style="font-family:DejaVu Sans;font-size:10px;font-style:normal;font-weight:normal;text-anchor:middle;" transform="rotate(-0, 203.688051, 322.182437)" x="203.688051" y="322.182437">0.4</text>
     </g>
    </g>
    <g id="xtick_4">
     <g id="line2d_4">
      <g>
       <use style="stroke:#000000;stroke-width:0.8;" x="268.631949" xlink:href="#mb6b3ef3f13" y="307.584"/>
      </g>
     </g>
     <g id="text_4">
      <text style="font-family:DejaVu Sans;font-size:10px;font-style:normal;font-weight:normal;text-anchor:middle;" transform="rotate(-0, 268.631949, 322.182437)" x="268.631949" y="322.182437">0.6</text>
     </g>
    </g>
    <g id="xtick_5">
     <g id="line2d_5">
      <g>
       <use style="stroke:#000000;stroke-width:0.8;" x="333.575847" xlink:href="#mb6b3ef3f13" y="307.584"/>
      </g>
     </g>
     <g id="text_5">
      <text style="font-family:DejaVu Sans;font-size:10px;font-style:normal;font-weight:normal;text-anchor:middle;" transform="rotate(-0, 333.575847, 322.182437)" x="333.575847" y="322.182437">0.8</text>
     </g>
    </g>
    <g id="xtick_6">
     <g id="line2d_6">
      <g>
       <use style="stroke:#000000;stroke-width:0.8;" x="398.519745" xlink:href="#mb6b3ef3f13" y="307.584"/>
      </g>
     </g>
     <g id="text_6">
      <text style="font-family:DejaVu Sans;font-size:10px;font-style:normal;font-weight:normal;text-anchor:middle;" transform="rotate(-0, 398.519745, 322.182437)" x="398.519745" y="322.182437">1.0</text>
     </g>
    </g>
    <g id="text_7">
     <text style="font-family:DejaVu Sans;font-size:10px;font-style:normal;font-weight:normal;text-anchor:middle;" transform="rotate(-0, 236.16, 335.860562)" x="236.16" y="335.860562">Input Coin's Heads Probability (λ)</text>
    </g>
   </g>
   <g id="matplotlib.axis_2">
    <g id="ytick_1">
     <g id="line2d_7">
      <defs>
       <path d="M 0 0 
L -3.5 0 
" id="m601feaa5f7" style="stroke:#000000;stroke-width:0.8;"/>
      </defs>
      <g>
       <use style="stroke:#000000;stroke-width:0.8;" x="57.6" xlink:href="#m601feaa5f7" y="307.263502"/>
      </g>
     </g>
     <g id="text_8">
      <text style="font-family:DejaVu Sans;font-size:10px;font-style:normal;font-weight:normal;text-anchor:end;" transform="rotate(-0, 50.6, 311.062721)" x="50.6" y="311.062721">0.0</text>
     </g>
    </g>
    <g id="ytick_2">
     <g id="line2d_8">
      <g>
       <use style="stroke:#000000;stroke-width:0.8;" x="57.6" xlink:href="#m601feaa5f7" y="256.524402"/>
      </g>
     </g>
     <g id="text_9">
      <text style="font-family:DejaVu Sans;font-size:10px;font-style:normal;font-weight:normal;text-anchor:end;" transform="rotate(-0, 50.6, 260.32362)" x="50.6" y="260.32362">0.2</text>
     </g>
    </g>
    <g id="ytick_3">
     <g id="line2d_9">
      <g>
       <use style="stroke:#000000;stroke-width:0.8;" x="57.6" xlink:href="#m601feaa5f7" y="205.785301"/>
      </g>
     </g>
     <g id="text_10">
      <text style="font-family:DejaVu Sans;font-size:10px;font-style:normal;font-weight:normal;text-anchor:end;" transform="rotate(-0, 50.6, 209.58452)" x="50.6" y="209.58452">0.4</text>
     </g>
    </g>
    <g id="ytick_4">
     <g id="line2d_10">
      <g>
       <use style="stroke:#000000;stroke-width:0.8;" x="57.6" xlink:href="#m601feaa5f7" y="155.046201"/>
      </g>
     </g>
     <g id="text_11">
      <text style="font-family:DejaVu Sans;font-size:10px;font-style:normal;font-weight:normal;text-anchor:end;" transform="rotate(-0, 50.6, 158.84542)" x="50.6" y="158.84542">0.6</text>
     </g>
    </g>
    <g id="ytick_5">
     <g id="line2d_11">
      <g>
       <use style="stroke:#000000;stroke-width:0.8;" x="57.6" xlink:href="#m601feaa5f7" y="104.3071"/>
      </g>
     </g>
     <g id="text_12">
      <text style="font-family:DejaVu Sans;font-size:10px;font-style:normal;font-weight:normal;text-anchor:end;" transform="rotate(-0, 50.6, 108.106319)" x="50.6" y="108.106319">0.8</text>
     </g>
    </g>
    <g id="ytick_6">
     <g id="line2d_12">
      <g>
       <use style="stroke:#000000;stroke-width:0.8;" x="57.6" xlink:href="#m601feaa5f7" y="53.568"/>
      </g>
     </g>
     <g id="text_13">
      <text style="font-family:DejaVu Sans;font-size:10px;font-style:normal;font-weight:normal;text-anchor:end;" transform="rotate(-0, 50.6, 57.367219)" x="50.6" y="57.367219">1.0</text>
     </g>
    </g>
    <g id="text_14">
     <text style="font-family:DejaVu Sans;font-size:10px;font-style:normal;font-weight:normal;text-anchor:middle;" transform="rotate(-90, 28.617187, 174.528)" x="28.617187" y="174.528">Simulated Mean / Function Value</text>
    </g>
   </g>
   <g id="line2d_13">
    <path clip-path="url(#pe217a755f7)" d="M 73.832727 295.488 
L 77.112066 252.246302 
L 80.391405 238.059634 
L 83.670744 228.088236 
L 86.950083 220.143743 
L 90.229421 213.432039 
L 93.50876 207.563643 
L 96.788099 202.315044 
L 100.067438 197.544677 
L 103.346777 193.156551 
L 106.626116 189.082222 
L 109.905455 185.270974 
L 113.184793 181.684055 
L 116.464132 178.29111 
L 119.743471 175.067868 
L 123.02281 171.994579 
L 126.302149 169.054933 
L 129.581488 166.235284 
L 132.860826 163.52409 
L 136.140165 160.911487 
L 139.419504 158.388973 
L 142.698843 155.949162 
L 145.978182 153.585591 
L 149.257521 151.292569 
L 152.53686 149.065058 
L 155.816198 146.898568 
L 159.095537 144.789086 
L 162.374876 142.733003 
L 165.654215 140.727062 
L 168.933554 138.768315 
L 172.212893 136.854079 
L 175.492231 134.981909 
L 178.77157 133.149568 
L 182.050909 131.355002 
L 185.330248 129.596323 
L 188.609587 127.871789 
L 191.888926 126.179788 
L 195.168264 124.51883 
L 198.447603 122.887527 
L 201.726942 121.284591 
L 205.006281 119.70882 
L 208.28562 118.159092 
L 211.564959 116.634356 
L 214.844298 115.133628 
L 218.123636 113.655986 
L 221.402975 112.200561 
L 224.682314 110.766536 
L 227.961653 109.353142 
L 231.240992 107.959653 
L 234.520331 106.585382 
L 237.799669 105.229679 
L 241.079008 103.891931 
L 244.358347 102.571554 
L 247.637686 101.267996 
L 250.917025 99.980729 
L 254.196364 98.709256 
L 257.475702 97.453099 
L 260.755041 96.211807 
L 264.03438 94.984946 
L 267.313719 93.772106 
L 270.593058 92.572891 
L 273.872397 91.386925 
L 277.151736 90.21385 
L 280.431074 89.053318 
L 283.710413 87.905002 
L 286.989752 86.768584 
L 290.269091 85.643761 
L 293.54843 84.530242 
L 296.827769 83.427746 
L 300.107107 82.336005 
L 303.386446 81.254761 
L 306.665785 80.183764 
L 309.945124 79.122776 
L 313.224463 78.071565 
L 316.503802 77.02991 
L 319.78314 75.997596 
L 323.062479 74.974417 
L 326.341818 73.960172 
L 329.621157 72.954671 
L 332.900496 71.957726 
L 336.179835 70.969158 
L 339.459174 69.988793 
L 342.738512 69.016464 
L 346.017851 68.052006 
L 349.29719 67.095264 
L 352.576529 66.146084 
L 355.855868 65.204318 
L 359.135207 64.269825 
L 362.414545 63.342464 
L 365.693884 62.422102 
L 368.973223 61.508607 
L 372.252562 60.601854 
L 375.531901 59.701719 
L 378.81124 58.808082 
L 382.090579 57.920828 
L 385.369917 57.039843 
L 388.649256 56.165019 
L 391.928595 55.296249 
L 395.207934 54.433428 
L 398.487273 53.576457 
" style="fill:none;stroke:#1f77b4;stroke-linecap:square;stroke-width:1.5;"/>
   </g>
   <g id="line2d_14">
    <path clip-path="url(#pe217a755f7)" d="M 73.832727 294.578727 
L 77.112066 253.987447 
L 80.391405 241.302672 
L 83.670744 228.110505 
L 86.950083 225.066159 
L 90.229421 211.873993 
L 93.50876 199.696609 
L 96.788099 201.218782 
L 100.067438 201.726173 
L 103.346777 191.070962 
L 106.626116 194.115308 
L 109.905455 195.13009 
L 113.184793 193.607917 
L 116.464132 178.893578 
L 119.743471 176.356623 
L 123.02281 167.730976 
L 126.302149 164.68663 
L 129.581488 173.312277 
L 132.860826 170.267931 
L 136.140165 166.208803 
L 139.419504 164.68663 
L 142.698843 152.001855 
L 145.978182 154.031419 
L 149.257521 150.479682 
L 152.53686 147.942727 
L 155.816198 143.376208 
L 159.095537 140.839253 
L 162.374876 142.868817 
L 165.654215 141.854035 
L 168.933554 145.913163 
L 172.212893 132.213606 
L 175.492231 136.272734 
L 178.77157 134.24317 
L 182.050909 124.602741 
L 185.330248 128.154478 
L 188.609587 119.528831 
L 191.888926 132.720997 
L 195.168264 126.124914 
L 198.447603 127.139696 
L 201.726942 123.080568 
L 205.006281 118.514049 
L 208.28562 113.440138 
L 211.564959 112.932747 
L 214.844298 114.454921 
L 218.123636 119.02144 
L 221.402975 111.410574 
L 224.682314 108.873619 
L 227.961653 107.858837 
L 231.240992 120.036222 
L 234.520331 106.336664 
L 237.799669 111.917965 
L 241.079008 102.277536 
L 244.358347 106.336664 
L 247.637686 99.740581 
L 250.917025 106.336664 
L 254.196364 94.666671 
L 257.475702 100.755363 
L 260.755041 91.114934 
L 264.03438 92.129716 
L 267.313719 94.15928 
L 270.593058 89.08537 
L 273.872397 93.651889 
L 277.151736 87.055806 
L 280.431074 89.592761 
L 283.710413 86.041024 
L 286.989752 85.026242 
L 290.269091 87.563197 
L 293.54843 86.548415 
L 296.827769 87.563197 
L 300.107107 77.922768 
L 303.386446 86.548415 
L 306.665785 80.459723 
L 309.945124 79.952332 
L 313.224463 77.415377 
L 316.503802 76.907986 
L 319.78314 73.356249 
L 323.062479 76.907986 
L 326.341818 73.356249 
L 329.621157 73.86364 
L 332.900496 73.356249 
L 336.179835 71.834076 
L 339.459174 65.745384 
L 342.738512 72.341467 
L 346.017851 68.282339 
L 349.29719 65.237993 
L 352.576529 63.208429 
L 355.855868 60.671474 
L 359.135207 64.223211 
L 362.414545 64.730602 
L 365.693884 62.193647 
L 368.973223 58.64191 
L 372.252562 60.671474 
L 375.531901 57.119737 
L 378.81124 60.164083 
L 382.090579 57.119737 
L 385.369917 57.627128 
L 388.649256 56.104955 
L 391.928595 54.582782 
L 395.207934 54.582782 
L 398.487273 53.568 
" style="fill:none;stroke:#ff7f0e;stroke-linecap:square;stroke-width:1.5;"/>
   </g>
   <g id="patch_3">
    <path d="M 57.6 307.584 
L 57.6 41.472 
" style="fill:none;stroke:#000000;stroke-linecap:square;stroke-linejoin:miter;stroke-width:0.8;"/>
   </g>
   <g id="patch_4">
    <path d="M 414.72 307.584 
L 414.72 41.472 
" style="fill:none;stroke:#000000;stroke-linecap:square;stroke-linejoin:miter;stroke-width:0.8;"/>
   </g>
   <g id="patch_5">
    <path d="M 57.6 307.584 
L 414.72 307.584 
" style="fill:none;stroke:#000000;stroke-linecap:square;stroke-linejoin:miter;stroke-width:0.8;"/>
   </g>
   <g id="patch_6">
    <path d="M 57.6 41.472 
L 414.72 41.472 
" style="fill:none;stroke:#000000;stroke-linecap:square;stroke-linejoin:miter;stroke-width:0.8;"/>
   </g>
   <g id="text_15">
    <text style="font-family:DejaVu Sans;font-size:12px;font-style:normal;font-weight:normal;" transform="translate(112.047188 22.034625)">Simulated Mean for pow(x,1/3) Algorithm</text>
    <text style="font-family:DejaVu Sans;font-size:12px;font-style:normal;font-weight:normal;" transform="translate(132.609375 35.472)">(Wasserstein Distances in Legend)</text>
   </g>
   <g id="legend_1">
    <g id="patch_7">
     <path d="M 64.6 78.82825 
L 242.85 78.82825 
Q 244.85 78.82825 244.85 76.82825 
L 244.85 48.472 
Q 244.85 46.472 242.85 46.472 
L 64.6 46.472 
Q 62.6 46.472 62.6 48.472 
L 62.6 76.82825 
Q 62.6 78.82825 64.6 78.82825 
z
" style="fill:#ffffff;opacity:0.8;stroke:#cccccc;stroke-linejoin:miter;"/>
    </g>
    <g id="line2d_15">
     <path d="M 66.6 54.570437 
L 86.6 54.570437 
" style="fill:none;stroke:#1f77b4;stroke-linecap:square;stroke-width:1.5;"/>
    </g>
    <g id="line2d_16"/>
    <g id="text_16">
     <text style="font-family:DejaVu Sans;font-size:10px;font-style:normal;font-weight:normal;text-anchor:start;" transform="rotate(-0, 94.6, 58.070437)" x="94.6" y="58.070437">pow(x,1/3)</text>
    </g>
    <g id="line2d_17">
     <path d="M 66.6 69.248562 
L 86.6 69.248562 
" style="fill:none;stroke:#ff7f0e;stroke-linecap:square;stroke-width:1.5;"/>
    </g>
    <g id="line2d_18"/>
    <g id="text_17">
     <text style="font-family:DejaVu Sans;font-size:10px;font-style:normal;font-weight:normal;text-anchor:start;" transform="rotate(-0, 94.6, 72.748562)" x="94.6" y="72.748562">Simul. Mean (WD=0.006002)</text>
    </g>
   </g>
  </g>
 </g>
 <defs>
  <clipPath id="pe217a755f7">
   <rect height="266.112" width="357.12" x="57.6" y="41.472"/>
  </clipPath>
 </defs>
</svg>
