<?xml version="1.0" encoding="utf-8" standalone="no"?>
<!DOCTYPE svg PUBLIC "-//W3C//DTD SVG 1.1//EN"
  "http://www.w3.org/Graphics/SVG/1.1/DTD/svg11.dtd">
<!-- Created with matplotlib (https://matplotlib.org/) -->
<svg height="345.6pt" version="1.1" viewBox="0 0 460.8 345.6" width="460.8pt" xmlns="http://www.w3.org/2000/svg" xmlns:xlink="http://www.w3.org/1999/xlink">
 <defs>
  <style type="text/css">
*{stroke-linecap:butt;stroke-linejoin:round;}
  </style>
 </defs>
 <g id="figure_1">
  <g id="patch_1">
   <path d="M 0 345.6 
L 460.8 345.6 
L 460.8 0 
L 0 0 
z
" style="fill:#ffffff;"/>
  </g>
  <g id="axes_1">
   <g id="patch_2">
    <path d="M 57.6 307.584 
L 414.72 307.584 
L 414.72 41.472 
L 57.6 41.472 
z
" style="fill:#ffffff;"/>
   </g>
   <g id="matplotlib.axis_1">
    <g id="xtick_1">
     <g id="line2d_1">
      <defs>
       <path d="M 0 0 
L 0 3.5 
" id="me5fefbd298" style="stroke:#000000;stroke-width:0.8;"/>
      </defs>
      <g>
       <use style="stroke:#000000;stroke-width:0.8;" x="73.800255" xlink:href="#me5fefbd298" y="307.584"/>
      </g>
     </g>
     <g id="text_1">
      <text style="font-family:DejaVu Sans;font-size:10px;font-style:normal;font-weight:normal;text-anchor:middle;" transform="rotate(-0, 73.800255, 322.182437)" x="73.800255" y="322.182437">0.0</text>
     </g>
    </g>
    <g id="xtick_2">
     <g id="line2d_2">
      <g>
       <use style="stroke:#000000;stroke-width:0.8;" x="138.744153" xlink:href="#me5fefbd298" y="307.584"/>
      </g>
     </g>
     <g id="text_2">
      <text style="font-family:DejaVu Sans;font-size:10px;font-style:normal;font-weight:normal;text-anchor:middle;" transform="rotate(-0, 138.744153, 322.182437)" x="138.744153" y="322.182437">0.2</text>
     </g>
    </g>
    <g id="xtick_3">
     <g id="line2d_3">
      <g>
       <use style="stroke:#000000;stroke-width:0.8;" x="203.688051" xlink:href="#me5fefbd298" y="307.584"/>
      </g>
     </g>
     <g id="text_3">
      <text style="font-family:DejaVu Sans;font-size:10px;font-style:normal;font-weight:normal;text-anchor:middle;" transform="rotate(-0, 203.688051, 322.182437)" x="203.688051" y="322.182437">0.4</text>
     </g>
    </g>
    <g id="xtick_4">
     <g id="line2d_4">
      <g>
       <use style="stroke:#000000;stroke-width:0.8;" x="268.631949" xlink:href="#me5fefbd298" y="307.584"/>
      </g>
     </g>
     <g id="text_4">
      <text style="font-family:DejaVu Sans;font-size:10px;font-style:normal;font-weight:normal;text-anchor:middle;" transform="rotate(-0, 268.631949, 322.182437)" x="268.631949" y="322.182437">0.6</text>
     </g>
    </g>
    <g id="xtick_5">
     <g id="line2d_5">
      <g>
       <use style="stroke:#000000;stroke-width:0.8;" x="333.575847" xlink:href="#me5fefbd298" y="307.584"/>
      </g>
     </g>
     <g id="text_5">
      <text style="font-family:DejaVu Sans;font-size:10px;font-style:normal;font-weight:normal;text-anchor:middle;" transform="rotate(-0, 333.575847, 322.182437)" x="333.575847" y="322.182437">0.8</text>
     </g>
    </g>
    <g id="xtick_6">
     <g id="line2d_6">
      <g>
       <use style="stroke:#000000;stroke-width:0.8;" x="398.519745" xlink:href="#me5fefbd298" y="307.584"/>
      </g>
     </g>
     <g id="text_6">
      <text style="font-family:DejaVu Sans;font-size:10px;font-style:normal;font-weight:normal;text-anchor:middle;" transform="rotate(-0, 398.519745, 322.182437)" x="398.519745" y="322.182437">1.0</text>
     </g>
    </g>
    <g id="text_7">
     <text style="font-family:DejaVu Sans;font-size:10px;font-style:normal;font-weight:normal;text-anchor:middle;" transform="rotate(-0, 236.16, 335.860562)" x="236.16" y="335.860562">Input Coin's Heads Probability (λ)</text>
    </g>
   </g>
   <g id="matplotlib.axis_2">
    <g id="ytick_1">
     <g id="line2d_7">
      <defs>
       <path d="M 0 0 
L -3.5 0 
" id="md3708a1d61" style="stroke:#000000;stroke-width:0.8;"/>
      </defs>
      <g>
       <use style="stroke:#000000;stroke-width:0.8;" x="57.6" xlink:href="#md3708a1d61" y="295.873823"/>
      </g>
     </g>
     <g id="text_8">
      <text style="font-family:DejaVu Sans;font-size:10px;font-style:normal;font-weight:normal;text-anchor:end;" transform="rotate(-0, 50.6, 299.673041)" x="50.6" y="299.673041">0</text>
     </g>
    </g>
    <g id="ytick_2">
     <g id="line2d_8">
      <g>
       <use style="stroke:#000000;stroke-width:0.8;" x="57.6" xlink:href="#md3708a1d61" y="241.305355"/>
      </g>
     </g>
     <g id="text_9">
      <text style="font-family:DejaVu Sans;font-size:10px;font-style:normal;font-weight:normal;text-anchor:end;" transform="rotate(-0, 50.6, 245.104574)" x="50.6" y="245.104574">20</text>
     </g>
    </g>
    <g id="ytick_3">
     <g id="line2d_9">
      <g>
       <use style="stroke:#000000;stroke-width:0.8;" x="57.6" xlink:href="#md3708a1d61" y="186.736888"/>
      </g>
     </g>
     <g id="text_10">
      <text style="font-family:DejaVu Sans;font-size:10px;font-style:normal;font-weight:normal;text-anchor:end;" transform="rotate(-0, 50.6, 190.536107)" x="50.6" y="190.536107">40</text>
     </g>
    </g>
    <g id="ytick_4">
     <g id="line2d_10">
      <g>
       <use style="stroke:#000000;stroke-width:0.8;" x="57.6" xlink:href="#md3708a1d61" y="132.16842"/>
      </g>
     </g>
     <g id="text_11">
      <text style="font-family:DejaVu Sans;font-size:10px;font-style:normal;font-weight:normal;text-anchor:end;" transform="rotate(-0, 50.6, 135.967639)" x="50.6" y="135.967639">60</text>
     </g>
    </g>
    <g id="ytick_5">
     <g id="line2d_11">
      <g>
       <use style="stroke:#000000;stroke-width:0.8;" x="57.6" xlink:href="#md3708a1d61" y="77.599953"/>
      </g>
     </g>
     <g id="text_12">
      <text style="font-family:DejaVu Sans;font-size:10px;font-style:normal;font-weight:normal;text-anchor:end;" transform="rotate(-0, 50.6, 81.399172)" x="50.6" y="81.399172">80</text>
     </g>
    </g>
    <g id="text_13">
     <text style="font-family:DejaVu Sans;font-size:10px;font-style:normal;font-weight:normal;text-anchor:middle;" transform="rotate(-90, 31.795312, 174.528)" x="31.795312" y="174.528">Coin Flips Needed</text>
    </g>
   </g>
   <g id="line2d_12">
    <path clip-path="url(#p70559962bb)" d="M 73.832727 295.488 
L 77.112066 294.528501 
L 80.391405 294.285172 
L 83.670744 294.125665 
L 86.950083 294.004891 
L 90.229421 293.907031 
L 93.50876 293.824504 
L 96.788099 293.753034 
L 100.067438 293.689955 
L 103.346777 293.633481 
L 106.626116 293.582354 
L 109.905455 293.535651 
L 113.184793 293.492673 
L 116.464132 293.452878 
L 119.743471 293.415837 
L 123.02281 293.381202 
L 126.302149 293.348689 
L 129.581488 293.318063 
L 132.860826 293.289124 
L 136.140165 293.261705 
L 139.419504 293.235661 
L 142.698843 293.210868 
L 145.978182 293.187219 
L 149.257521 293.164617 
L 152.53686 293.142981 
L 155.816198 293.122236 
L 159.095537 293.102317 
L 162.374876 293.083165 
L 165.654215 293.064728 
L 168.933554 293.046957 
L 172.212893 293.029812 
L 175.492231 293.013252 
L 178.77157 292.997242 
L 182.050909 292.98175 
L 185.330248 292.966747 
L 188.609587 292.952205 
L 191.888926 292.9381 
L 195.168264 292.924408 
L 198.447603 292.911108 
L 201.726942 292.898181 
L 205.006281 292.885608 
L 208.28562 292.873373 
L 211.564959 292.86146 
L 214.844298 292.849853 
L 218.123636 292.83854 
L 221.402975 292.827507 
L 224.682314 292.816742 
L 227.961653 292.806234 
L 231.240992 292.795973 
L 234.520331 292.785948 
L 237.799669 292.77615 
L 241.079008 292.76657 
L 244.358347 292.7572 
L 247.637686 292.748032 
L 250.917025 292.739059 
L 254.196364 292.730273 
L 257.475702 292.721667 
L 260.755041 292.713236 
L 264.03438 292.704973 
L 267.313719 292.696872 
L 270.593058 292.688928 
L 273.872397 292.681137 
L 277.151736 292.673492 
L 280.431074 292.665989 
L 283.710413 292.658624 
L 286.989752 292.651392 
L 290.269091 292.64429 
L 293.54843 292.637313 
L 296.827769 292.630457 
L 300.107107 292.62372 
L 303.386446 292.617097 
L 306.665785 292.610585 
L 309.945124 292.604181 
L 313.224463 292.597883 
L 316.503802 292.591686 
L 319.78314 292.585589 
L 323.062479 292.579588 
L 326.341818 292.573682 
L 329.621157 292.567867 
L 332.900496 292.562141 
L 336.179835 292.556502 
L 339.459174 292.550948 
L 342.738512 292.545477 
L 346.017851 292.540085 
L 349.29719 292.534773 
L 352.576529 292.529536 
L 355.855868 292.524375 
L 359.135207 292.519286 
L 362.414545 292.514269 
L 365.693884 292.509321 
L 368.973223 292.504441 
L 372.252562 292.499628 
L 375.531901 292.494879 
L 378.81124 292.490193 
L 382.090579 292.48557 
L 385.369917 292.481007 
L 388.649256 292.476504 
L 391.928595 292.472058 
L 395.207934 292.467669 
L 398.487273 292.463336 
" style="fill:none;stroke:#1f77b4;stroke-linecap:square;stroke-width:1.5;"/>
   </g>
   <g id="line2d_13">
    <path clip-path="url(#p70559962bb)" d="M 73.832727 53.568 
L 77.112066 272.218392 
L 80.391405 272.163824 
L 83.670744 278.60836 
L 86.950083 279.650617 
L 90.229421 282.035259 
L 93.50876 283.459496 
L 96.788099 284.567236 
L 100.067438 285.68589 
L 103.346777 285.773199 
L 106.626116 286.122437 
L 109.905455 286.68995 
L 113.184793 285.140205 
L 116.464132 286.804543 
L 119.743471 287.934111 
L 123.02281 287.071929 
L 126.302149 287.737664 
L 129.581488 287.568502 
L 132.860826 287.557588 
L 136.140165 288.092359 
L 139.419504 287.988679 
L 142.698843 288.026877 
L 145.978182 288.370658 
L 149.257521 288.163298 
L 152.53686 288.119643 
L 155.816198 288.359745 
L 159.095537 288.567105 
L 162.374876 288.572562 
L 165.654215 288.861775 
L 168.933554 288.839947 
L 172.212893 288.741724 
L 175.492231 288.736267 
L 178.77157 288.621673 
L 182.050909 289.172815 
L 185.330248 289.014566 
L 188.609587 289.04185 
L 191.888926 289.292865 
L 195.168264 289.276495 
L 198.447603 289.281952 
L 201.726942 289.653017 
L 205.006281 288.93817 
L 208.28562 289.418373 
L 211.564959 289.745784 
L 214.844298 290.002256 
L 218.123636 289.620276 
L 221.402975 289.418373 
L 224.682314 289.538424 
L 227.961653 289.560251 
L 231.240992 289.680302 
L 234.520331 289.587535 
L 237.799669 289.860377 
L 241.079008 289.876748 
L 244.358347 289.805809 
L 247.637686 289.854921 
L 250.917025 289.82218 
L 254.196364 289.974971 
L 257.475702 289.871291 
L 260.755041 289.964058 
L 264.03438 289.931317 
L 267.313719 290.024083 
L 270.593058 290.13322 
L 273.872397 289.636647 
L 277.151736 290.040453 
L 280.431074 290.193245 
L 283.710413 290.013169 
L 286.989752 290.024083 
L 290.269091 289.920403 
L 293.54843 290.111392 
L 296.827769 290.111392 
L 300.107107 290.105936 
L 303.386446 290.144134 
L 306.665785 289.974971 
L 309.945124 290.14959 
L 313.224463 290.209616 
L 316.503802 290.078651 
L 319.78314 290.089565 
L 323.062479 290.280555 
L 326.341818 290.051367 
L 329.621157 290.378778 
L 332.900496 290.280555 
L 336.179835 290.269641 
L 339.459174 290.280555 
L 342.738512 290.193245 
L 346.017851 290.313296 
L 349.29719 290.291468 
L 352.576529 290.329666 
L 355.855868 290.307839 
L 359.135207 290.378778 
L 362.414545 290.373321 
L 365.693884 290.362407 
L 368.973223 290.302382 
L 372.252562 290.356951 
L 375.531901 290.378778 
L 378.81124 290.433346 
L 382.090579 290.422433 
L 385.369917 290.400605 
L 388.649256 290.416976 
L 391.928595 290.411519 
L 395.207934 290.422433 
L 398.487273 290.416976 
" style="fill:none;stroke:#ff7f0e;stroke-linecap:square;stroke-width:1.5;"/>
   </g>
   <g id="patch_3">
    <path d="M 57.6 307.584 
L 57.6 41.472 
" style="fill:none;stroke:#000000;stroke-linecap:square;stroke-linejoin:miter;stroke-width:0.8;"/>
   </g>
   <g id="patch_4">
    <path d="M 414.72 307.584 
L 414.72 41.472 
" style="fill:none;stroke:#000000;stroke-linecap:square;stroke-linejoin:miter;stroke-width:0.8;"/>
   </g>
   <g id="patch_5">
    <path d="M 57.6 307.584 
L 414.72 307.584 
" style="fill:none;stroke:#000000;stroke-linecap:square;stroke-linejoin:miter;stroke-width:0.8;"/>
   </g>
   <g id="patch_6">
    <path d="M 57.6 41.472 
L 414.72 41.472 
" style="fill:none;stroke:#000000;stroke-linecap:square;stroke-linejoin:miter;stroke-width:0.8;"/>
   </g>
   <g id="text_14">
    <text style="font-family:DejaVu Sans;font-size:12px;font-style:normal;font-weight:normal;text-anchor:middle;" transform="rotate(-0, 236.16, 35.472)" x="236.16" y="35.472">Coin Flips for pow(x,5/4)</text>
   </g>
   <g id="legend_1">
    <g id="patch_7">
     <path d="M 207.548125 78.82825 
L 407.72 78.82825 
Q 409.72 78.82825 409.72 76.82825 
L 409.72 48.472 
Q 409.72 46.472 407.72 46.472 
L 207.548125 46.472 
Q 205.548125 46.472 205.548125 48.472 
L 205.548125 76.82825 
Q 205.548125 78.82825 207.548125 78.82825 
z
" style="fill:#ffffff;opacity:0.8;stroke:#cccccc;stroke-linejoin:miter;"/>
    </g>
    <g id="line2d_14">
     <path d="M 209.548125 54.570437 
L 229.548125 54.570437 
" style="fill:none;stroke:#1f77b4;stroke-linecap:square;stroke-width:1.5;"/>
    </g>
    <g id="line2d_15"/>
    <g id="text_15">
     <text style="font-family:DejaVu Sans;font-size:10px;font-style:normal;font-weight:normal;text-anchor:start;" transform="rotate(-0, 237.548125, 58.070437)" x="237.548125" y="58.070437">Coin Flip Lower Bound</text>
    </g>
    <g id="line2d_16">
     <path d="M 209.548125 69.248562 
L 229.548125 69.248562 
" style="fill:none;stroke:#ff7f0e;stroke-linecap:square;stroke-width:1.5;"/>
    </g>
    <g id="line2d_17"/>
    <g id="text_16">
     <text style="font-family:DejaVu Sans;font-size:10px;font-style:normal;font-weight:normal;text-anchor:start;" transform="rotate(-0, 237.548125, 72.748562)" x="237.548125" y="72.748562">Average Coins Flipped pow(x,5/4)</text>
    </g>
   </g>
  </g>
 </g>
 <defs>
  <clipPath id="p70559962bb">
   <rect height="266.112" width="357.12" x="57.6" y="41.472"/>
  </clipPath>
 </defs>
</svg>
