<?xml version="1.0" encoding="utf-8" standalone="no"?>
<!DOCTYPE svg PUBLIC "-//W3C//DTD SVG 1.1//EN"
  "http://www.w3.org/Graphics/SVG/1.1/DTD/svg11.dtd">
<!-- Created with matplotlib (https://matplotlib.org/) -->
<svg height="252pt" version="1.1" viewBox="0 0 324 252" width="324pt" xmlns="http://www.w3.org/2000/svg" xmlns:xlink="http://www.w3.org/1999/xlink">
 <defs>
  <style type="text/css">
*{stroke-linecap:butt;stroke-linejoin:round;}
  </style>
 </defs>
 <g id="figure_1">
  <g id="patch_1">
   <path d="M 0 252 
L 324 252 
L 324 0 
L 0 0 
z
" style="fill:#ffffff;"/>
  </g>
  <g id="axes_1">
   <g id="patch_2">
    <path d="M 40.5 224.28 
L 291.6 224.28 
L 291.6 30.24 
L 40.5 30.24 
z
" style="fill:#ffffff;"/>
   </g>
   <g id="matplotlib.axis_1">
    <g id="xtick_1">
     <g id="line2d_1">
      <defs>
       <path d="M 0 0 
L 0 3.5 
" id="m2cdf464769" style="stroke:#000000;stroke-width:0.8;"/>
      </defs>
      <g>
       <use style="stroke:#000000;stroke-width:0.8;" x="51.890805" xlink:href="#m2cdf464769" y="224.28"/>
      </g>
     </g>
     <g id="text_1">
      <text style="font-family:DejaVu Sans;font-size:10px;font-style:normal;font-weight:normal;text-anchor:middle;" transform="rotate(-0, 51.890805, 238.878438)" x="51.890805" y="238.878438">0.0</text>
     </g>
    </g>
    <g id="xtick_2">
     <g id="line2d_2">
      <g>
       <use style="stroke:#000000;stroke-width:0.8;" x="97.554483" xlink:href="#m2cdf464769" y="224.28"/>
      </g>
     </g>
     <g id="text_2">
      <text style="font-family:DejaVu Sans;font-size:10px;font-style:normal;font-weight:normal;text-anchor:middle;" transform="rotate(-0, 97.554483, 238.878438)" x="97.554483" y="238.878438">0.2</text>
     </g>
    </g>
    <g id="xtick_3">
     <g id="line2d_3">
      <g>
       <use style="stroke:#000000;stroke-width:0.8;" x="143.218161" xlink:href="#m2cdf464769" y="224.28"/>
      </g>
     </g>
     <g id="text_3">
      <text style="font-family:DejaVu Sans;font-size:10px;font-style:normal;font-weight:normal;text-anchor:middle;" transform="rotate(-0, 143.218161, 238.878438)" x="143.218161" y="238.878438">0.4</text>
     </g>
    </g>
    <g id="xtick_4">
     <g id="line2d_4">
      <g>
       <use style="stroke:#000000;stroke-width:0.8;" x="188.881839" xlink:href="#m2cdf464769" y="224.28"/>
      </g>
     </g>
     <g id="text_4">
      <text style="font-family:DejaVu Sans;font-size:10px;font-style:normal;font-weight:normal;text-anchor:middle;" transform="rotate(-0, 188.881839, 238.878438)" x="188.881839" y="238.878438">0.6</text>
     </g>
    </g>
    <g id="xtick_5">
     <g id="line2d_5">
      <g>
       <use style="stroke:#000000;stroke-width:0.8;" x="234.545517" xlink:href="#m2cdf464769" y="224.28"/>
      </g>
     </g>
     <g id="text_5">
      <text style="font-family:DejaVu Sans;font-size:10px;font-style:normal;font-weight:normal;text-anchor:middle;" transform="rotate(-0, 234.545517, 238.878438)" x="234.545517" y="238.878438">0.8</text>
     </g>
    </g>
    <g id="xtick_6">
     <g id="line2d_6">
      <g>
       <use style="stroke:#000000;stroke-width:0.8;" x="280.209195" xlink:href="#m2cdf464769" y="224.28"/>
      </g>
     </g>
     <g id="text_6">
      <text style="font-family:DejaVu Sans;font-size:10px;font-style:normal;font-weight:normal;text-anchor:middle;" transform="rotate(-0, 280.209195, 238.878438)" x="280.209195" y="238.878438">1.0</text>
     </g>
    </g>
    <g id="text_7">
     <text style="font-family:DejaVu Sans;font-size:10px;font-style:normal;font-weight:normal;text-anchor:middle;" transform="rotate(-0, 166.05, 252.556563)" x="166.05" y="252.556563">Probability</text>
    </g>
   </g>
   <g id="matplotlib.axis_2">
    <g id="ytick_1">
     <g id="line2d_7">
      <defs>
       <path d="M 0 0 
L -3.5 0 
" id="m7cc47839ee" style="stroke:#000000;stroke-width:0.8;"/>
      </defs>
      <g>
       <use style="stroke:#000000;stroke-width:0.8;" x="40.5" xlink:href="#m7cc47839ee" y="216.272655"/>
      </g>
     </g>
     <g id="text_8">
      <text style="font-family:DejaVu Sans;font-size:10px;font-style:normal;font-weight:normal;text-anchor:end;" transform="rotate(-0, 33.5, 220.071874)" x="33.5" y="220.071874">0</text>
     </g>
    </g>
    <g id="ytick_2">
     <g id="line2d_8">
      <g>
       <use style="stroke:#000000;stroke-width:0.8;" x="40.5" xlink:href="#m7cc47839ee" y="176.121702"/>
      </g>
     </g>
     <g id="text_9">
      <text style="font-family:DejaVu Sans;font-size:10px;font-style:normal;font-weight:normal;text-anchor:end;" transform="rotate(-0, 33.5, 179.920921)" x="33.5" y="179.920921">100</text>
     </g>
    </g>
    <g id="ytick_3">
     <g id="line2d_9">
      <g>
       <use style="stroke:#000000;stroke-width:0.8;" x="40.5" xlink:href="#m7cc47839ee" y="135.970749"/>
      </g>
     </g>
     <g id="text_10">
      <text style="font-family:DejaVu Sans;font-size:10px;font-style:normal;font-weight:normal;text-anchor:end;" transform="rotate(-0, 33.5, 139.769968)" x="33.5" y="139.769968">200</text>
     </g>
    </g>
    <g id="ytick_4">
     <g id="line2d_10">
      <g>
       <use style="stroke:#000000;stroke-width:0.8;" x="40.5" xlink:href="#m7cc47839ee" y="95.819796"/>
      </g>
     </g>
     <g id="text_11">
      <text style="font-family:DejaVu Sans;font-size:10px;font-style:normal;font-weight:normal;text-anchor:end;" transform="rotate(-0, 33.5, 99.619015)" x="33.5" y="99.619015">300</text>
     </g>
    </g>
    <g id="ytick_5">
     <g id="line2d_11">
      <g>
       <use style="stroke:#000000;stroke-width:0.8;" x="40.5" xlink:href="#m7cc47839ee" y="55.668843"/>
      </g>
     </g>
     <g id="text_12">
      <text style="font-family:DejaVu Sans;font-size:10px;font-style:normal;font-weight:normal;text-anchor:end;" transform="rotate(-0, 33.5, 59.468062)" x="33.5" y="59.468062">400</text>
     </g>
    </g>
    <g id="text_13">
     <text style="font-family:DejaVu Sans;font-size:10px;font-style:normal;font-weight:normal;text-anchor:middle;" transform="rotate(-90, 8.332812, 127.26)" x="8.332812" y="127.26">Average Bits Consumed Per Call</text>
    </g>
   </g>
   <g id="line2d_12">
    <path clip-path="url(#p13c72b4786)" d="M 51.913636 39.06 
L 54.219421 211.221665 
L 56.525207 212.455103 
L 58.830992 212.710463 
L 61.136777 213.145699 
L 63.442562 213.3055 
L 65.748347 213.419529 
L 68.054132 213.651601 
L 70.359917 213.829871 
L 72.665702 213.602617 
L 74.971488 213.803372 
L 77.277273 214.049899 
L 79.583058 213.894916 
L 81.888843 214.102898 
L 84.194628 214.132609 
L 86.500413 214.339788 
L 88.806198 214.288395 
L 91.111983 214.346213 
L 93.417769 214.301243 
L 95.723554 214.236199 
L 98.029339 214.278759 
L 100.335124 214.266714 
L 102.640909 214.417681 
L 104.946694 214.221745 
L 107.252479 214.383151 
L 109.558264 214.340591 
L 111.86405 214.655375 
L 114.169835 214.601573 
L 116.47562 214.525286 
L 118.781405 214.595951 
L 121.08719 214.637708 
L 123.392975 214.635299 
L 125.69876 214.513241 
L 128.004545 214.672238 
L 130.310331 214.772616 
L 132.616116 214.77904 
L 134.921901 214.627269 
L 137.227686 214.697935 
L 139.533471 214.718813 
L 141.839256 214.775025 
L 144.145041 214.80313 
L 146.450826 214.754949 
L 148.756612 214.77101 
L 151.062397 214.785464 
L 153.368182 214.923583 
L 155.673967 214.921977 
L 157.979752 214.875402 
L 160.285537 214.907523 
L 162.591322 214.890659 
L 164.897107 214.951689 
L 167.202893 214.928401 
L 169.508678 214.986219 
L 171.814463 215.070536 
L 174.120248 214.932416 
L 176.426033 215.021552 
L 178.731818 215.076157 
L 181.037603 215.020749 
L 183.343388 214.966946 
L 185.649174 215.044839 
L 187.954959 215.077763 
L 190.260744 215.093823 
L 192.566529 215.124338 
L 194.872314 215.083384 
L 197.178099 215.184564 
L 199.483884 215.130762 
L 201.789669 215.249609 
L 204.095455 215.16208 
L 206.40124 215.159671 
L 208.707025 215.172519 
L 211.01281 215.192595 
L 213.318595 215.258442 
L 215.62438 215.137186 
L 217.930165 215.203837 
L 220.23595 215.193398 
L 222.541736 215.319472 
L 224.847521 215.30582 
L 227.153306 215.308229 
L 229.459091 215.261654 
L 231.764876 215.318669 
L 234.070661 215.288154 
L 236.376446 215.257639 
L 238.682231 215.299396 
L 240.988017 215.404592 
L 243.293802 215.336335 
L 245.599587 215.358017 
L 247.905372 215.362835 
L 250.211157 215.359623 
L 252.516942 215.354805 
L 254.822727 215.378092 
L 257.128512 215.37488 
L 259.434298 215.415834 
L 261.740083 215.347577 
L 264.045868 215.402183 
L 266.351653 215.422258 
L 268.657438 215.405395 
L 270.963223 215.440728 
L 273.269008 215.435909 
L 275.574793 215.44394 
L 277.880579 215.439122 
L 280.186364 215.46 
" style="fill:none;stroke:#1f77b4;stroke-linecap:square;stroke-width:1.5;"/>
   </g>
   <g id="patch_3">
    <path d="M 40.5 224.28 
L 40.5 30.24 
" style="fill:none;stroke:#000000;stroke-linecap:square;stroke-linejoin:miter;stroke-width:0.8;"/>
   </g>
   <g id="patch_4">
    <path d="M 291.6 224.28 
L 291.6 30.24 
" style="fill:none;stroke:#000000;stroke-linecap:square;stroke-linejoin:miter;stroke-width:0.8;"/>
   </g>
   <g id="patch_5">
    <path d="M 40.5 224.28 
L 291.6 224.28 
" style="fill:none;stroke:#000000;stroke-linecap:square;stroke-linejoin:miter;stroke-width:0.8;"/>
   </g>
   <g id="patch_6">
    <path d="M 40.5 30.24 
L 291.6 30.24 
" style="fill:none;stroke:#000000;stroke-linecap:square;stroke-linejoin:miter;stroke-width:0.8;"/>
   </g>
   <g id="text_14">
    <text style="font-family:DejaVu Sans;font-size:12px;font-style:normal;font-weight:normal;text-anchor:middle;" transform="rotate(-0, 166.05, 24.24)" x="166.05" y="24.24">Avg. Bits Consumed by pow(x,3/4) Algorithm</text>
   </g>
   <g id="legend_1">
    <g id="patch_7">
     <path d="M 95.73125 52.918125 
L 284.6 52.918125 
Q 286.6 52.918125 286.6 50.918125 
L 286.6 37.24 
Q 286.6 35.24 284.6 35.24 
L 95.73125 35.24 
Q 93.73125 35.24 93.73125 37.24 
L 93.73125 50.918125 
Q 93.73125 52.918125 95.73125 52.918125 
z
" style="fill:#ffffff;opacity:0.8;stroke:#cccccc;stroke-linejoin:miter;"/>
    </g>
    <g id="line2d_13">
     <path d="M 97.73125 43.338437 
L 117.73125 43.338437 
" style="fill:none;stroke:#1f77b4;stroke-linecap:square;stroke-width:1.5;"/>
    </g>
    <g id="line2d_14"/>
    <g id="text_15">
     <text style="font-family:DejaVu Sans;font-size:10px;font-style:normal;font-weight:normal;text-anchor:start;" transform="rotate(-0, 125.73125, 46.838437)" x="125.73125" y="46.838437">Avg. Bits Consumed pow(x,3/4)</text>
    </g>
   </g>
  </g>
 </g>
 <defs>
  <clipPath id="p13c72b4786">
   <rect height="194.04" width="251.1" x="40.5" y="30.24"/>
  </clipPath>
 </defs>
</svg>
