<?xml version="1.0" encoding="utf-8" standalone="no"?>
<!DOCTYPE svg PUBLIC "-//W3C//DTD SVG 1.1//EN"
  "http://www.w3.org/Graphics/SVG/1.1/DTD/svg11.dtd">
<!-- Created with matplotlib (https://matplotlib.org/) -->
<svg height="252pt" version="1.1" viewBox="0 0 324 252" width="324pt" xmlns="http://www.w3.org/2000/svg" xmlns:xlink="http://www.w3.org/1999/xlink">
 <defs>
  <style type="text/css">
*{stroke-linecap:butt;stroke-linejoin:round;}
  </style>
 </defs>
 <g id="figure_1">
  <g id="patch_1">
   <path d="M 0 252 
L 324 252 
L 324 0 
L 0 0 
z
" style="fill:#ffffff;"/>
  </g>
  <g id="axes_1">
   <g id="patch_2">
    <path d="M 40.5 224.28 
L 291.6 224.28 
L 291.6 30.24 
L 40.5 30.24 
z
" style="fill:#ffffff;"/>
   </g>
   <g id="matplotlib.axis_1">
    <g id="xtick_1">
     <g id="line2d_1">
      <defs>
       <path d="M 0 0 
L 0 3.5 
" id="mcbf2f0b349" style="stroke:#000000;stroke-width:0.8;"/>
      </defs>
      <g>
       <use style="stroke:#000000;stroke-width:0.8;" x="51.890805" xlink:href="#mcbf2f0b349" y="224.28"/>
      </g>
     </g>
     <g id="text_1">
      <text style="font-family:DejaVu Sans;font-size:10px;font-style:normal;font-weight:normal;text-anchor:middle;" transform="rotate(-0, 51.890805, 238.878438)" x="51.890805" y="238.878438">0.0</text>
     </g>
    </g>
    <g id="xtick_2">
     <g id="line2d_2">
      <g>
       <use style="stroke:#000000;stroke-width:0.8;" x="97.554483" xlink:href="#mcbf2f0b349" y="224.28"/>
      </g>
     </g>
     <g id="text_2">
      <text style="font-family:DejaVu Sans;font-size:10px;font-style:normal;font-weight:normal;text-anchor:middle;" transform="rotate(-0, 97.554483, 238.878438)" x="97.554483" y="238.878438">0.2</text>
     </g>
    </g>
    <g id="xtick_3">
     <g id="line2d_3">
      <g>
       <use style="stroke:#000000;stroke-width:0.8;" x="143.218161" xlink:href="#mcbf2f0b349" y="224.28"/>
      </g>
     </g>
     <g id="text_3">
      <text style="font-family:DejaVu Sans;font-size:10px;font-style:normal;font-weight:normal;text-anchor:middle;" transform="rotate(-0, 143.218161, 238.878438)" x="143.218161" y="238.878438">0.4</text>
     </g>
    </g>
    <g id="xtick_4">
     <g id="line2d_4">
      <g>
       <use style="stroke:#000000;stroke-width:0.8;" x="188.881839" xlink:href="#mcbf2f0b349" y="224.28"/>
      </g>
     </g>
     <g id="text_4">
      <text style="font-family:DejaVu Sans;font-size:10px;font-style:normal;font-weight:normal;text-anchor:middle;" transform="rotate(-0, 188.881839, 238.878438)" x="188.881839" y="238.878438">0.6</text>
     </g>
    </g>
    <g id="xtick_5">
     <g id="line2d_5">
      <g>
       <use style="stroke:#000000;stroke-width:0.8;" x="234.545517" xlink:href="#mcbf2f0b349" y="224.28"/>
      </g>
     </g>
     <g id="text_5">
      <text style="font-family:DejaVu Sans;font-size:10px;font-style:normal;font-weight:normal;text-anchor:middle;" transform="rotate(-0, 234.545517, 238.878438)" x="234.545517" y="238.878438">0.8</text>
     </g>
    </g>
    <g id="xtick_6">
     <g id="line2d_6">
      <g>
       <use style="stroke:#000000;stroke-width:0.8;" x="280.209195" xlink:href="#mcbf2f0b349" y="224.28"/>
      </g>
     </g>
     <g id="text_6">
      <text style="font-family:DejaVu Sans;font-size:10px;font-style:normal;font-weight:normal;text-anchor:middle;" transform="rotate(-0, 280.209195, 238.878438)" x="280.209195" y="238.878438">1.0</text>
     </g>
    </g>
    <g id="text_7">
     <text style="font-family:DejaVu Sans;font-size:10px;font-style:normal;font-weight:normal;text-anchor:middle;" transform="rotate(-0, 166.05, 252.556563)" x="166.05" y="252.556563">Input Coin's Heads Probability (λ)</text>
    </g>
   </g>
   <g id="matplotlib.axis_2">
    <g id="ytick_1">
     <g id="line2d_7">
      <defs>
       <path d="M 0 0 
L -3.5 0 
" id="m6d77a87912" style="stroke:#000000;stroke-width:0.8;"/>
      </defs>
      <g>
       <use style="stroke:#000000;stroke-width:0.8;" x="40.5" xlink:href="#m6d77a87912" y="216.664911"/>
      </g>
     </g>
     <g id="text_8">
      <text style="font-family:DejaVu Sans;font-size:10px;font-style:normal;font-weight:normal;text-anchor:end;" transform="rotate(-0, 33.5, 220.46413)" x="33.5" y="220.46413">0</text>
     </g>
    </g>
    <g id="ytick_2">
     <g id="line2d_8">
      <g>
       <use style="stroke:#000000;stroke-width:0.8;" x="40.5" xlink:href="#m6d77a87912" y="184.534346"/>
      </g>
     </g>
     <g id="text_9">
      <text style="font-family:DejaVu Sans;font-size:10px;font-style:normal;font-weight:normal;text-anchor:end;" transform="rotate(-0, 33.5, 188.333565)" x="33.5" y="188.333565">20</text>
     </g>
    </g>
    <g id="ytick_3">
     <g id="line2d_9">
      <g>
       <use style="stroke:#000000;stroke-width:0.8;" x="40.5" xlink:href="#m6d77a87912" y="152.403781"/>
      </g>
     </g>
     <g id="text_10">
      <text style="font-family:DejaVu Sans;font-size:10px;font-style:normal;font-weight:normal;text-anchor:end;" transform="rotate(-0, 33.5, 156.203)" x="33.5" y="156.203">40</text>
     </g>
    </g>
    <g id="ytick_4">
     <g id="line2d_10">
      <g>
       <use style="stroke:#000000;stroke-width:0.8;" x="40.5" xlink:href="#m6d77a87912" y="120.273216"/>
      </g>
     </g>
     <g id="text_11">
      <text style="font-family:DejaVu Sans;font-size:10px;font-style:normal;font-weight:normal;text-anchor:end;" transform="rotate(-0, 33.5, 124.072435)" x="33.5" y="124.072435">60</text>
     </g>
    </g>
    <g id="ytick_5">
     <g id="line2d_11">
      <g>
       <use style="stroke:#000000;stroke-width:0.8;" x="40.5" xlink:href="#m6d77a87912" y="88.142651"/>
      </g>
     </g>
     <g id="text_12">
      <text style="font-family:DejaVu Sans;font-size:10px;font-style:normal;font-weight:normal;text-anchor:end;" transform="rotate(-0, 33.5, 91.94187)" x="33.5" y="91.94187">80</text>
     </g>
    </g>
    <g id="ytick_6">
     <g id="line2d_12">
      <g>
       <use style="stroke:#000000;stroke-width:0.8;" x="40.5" xlink:href="#m6d77a87912" y="56.012086"/>
      </g>
     </g>
     <g id="text_13">
      <text style="font-family:DejaVu Sans;font-size:10px;font-style:normal;font-weight:normal;text-anchor:end;" transform="rotate(-0, 33.5, 59.811305)" x="33.5" y="59.811305">100</text>
     </g>
    </g>
    <g id="text_14">
     <text style="font-family:DejaVu Sans;font-size:10px;font-style:normal;font-weight:normal;text-anchor:middle;" transform="rotate(-90, 8.332812, 127.26)" x="8.332812" y="127.26">Coin Flips Needed</text>
    </g>
   </g>
   <g id="line2d_13">
    <path clip-path="url(#pc94532b9c9)" d="M 51.913636 205.294807 
L 54.219421 213.756938 
L 56.525207 214.186069 
L 58.830992 214.401707 
L 61.136777 214.540229 
L 63.442562 214.639895 
L 65.748347 214.716519 
L 68.054132 214.778059 
L 70.359917 214.829042 
L 72.665702 214.872273 
L 74.971488 214.909596 
L 77.277273 214.942289 
L 79.583058 214.971266 
L 81.888843 214.997203 
L 84.194628 215.020613 
L 86.500413 215.041895 
L 88.806198 215.061363 
L 91.111983 215.079268 
L 93.417769 215.095814 
L 95.723554 215.111171 
L 98.029339 215.125479 
L 100.335124 215.138855 
L 102.640909 215.151399 
L 104.946694 215.163196 
L 107.252479 215.174319 
L 109.558264 215.184833 
L 111.86405 215.194792 
L 114.169835 215.204244 
L 116.47562 215.213233 
L 118.781405 215.221795 
L 121.08719 215.229965 
L 123.392975 215.237772 
L 125.69876 215.245244 
L 128.004545 215.252403 
L 130.310331 215.259271 
L 132.616116 215.265869 
L 134.921901 215.272214 
L 137.227686 215.278322 
L 139.533471 215.284208 
L 141.839256 215.289885 
L 144.145041 215.295365 
L 146.450826 215.30066 
L 148.756612 215.305781 
L 151.062397 215.310736 
L 153.368182 215.315535 
L 155.673967 215.320187 
L 157.979752 215.324697 
L 160.285537 215.329074 
L 162.591322 215.333325 
L 164.897107 215.337455 
L 167.202893 215.34147 
L 169.508678 215.345375 
L 171.814463 215.349175 
L 174.120248 215.352876 
L 176.426033 215.356481 
L 178.731818 215.359994 
L 181.037603 215.36342 
L 183.343388 215.366762 
L 185.649174 215.370023 
L 187.954959 215.373207 
L 190.260744 215.376317 
L 192.566529 215.379355 
L 194.872314 215.382325 
L 197.178099 215.385229 
L 199.483884 215.388069 
L 201.789669 215.390848 
L 204.095455 215.393568 
L 206.40124 215.396231 
L 208.707025 215.398839 
L 211.01281 215.401394 
L 213.318595 215.403897 
L 215.62438 215.406351 
L 217.930165 215.408757 
L 220.23595 215.411117 
L 222.541736 215.413431 
L 224.847521 215.415703 
L 227.153306 215.417932 
L 229.459091 215.42012 
L 231.764876 215.422269 
L 234.070661 215.424379 
L 236.376446 215.426453 
L 238.682231 215.42849 
L 240.988017 215.430492 
L 243.293802 215.43246 
L 245.599587 215.434395 
L 247.905372 215.436297 
L 250.211157 215.438169 
L 252.516942 215.44001 
L 254.822727 215.441821 
L 257.128512 215.443604 
L 259.434298 215.445358 
L 261.740083 215.447086 
L 264.045868 215.448786 
L 266.351653 215.450461 
L 268.657438 215.45211 
L 270.963223 215.453735 
L 273.269008 215.455336 
L 275.574793 215.456913 
L 277.880579 215.458468 
L 280.186364 215.46 
" style="fill:none;stroke:#1f77b4;stroke-linecap:square;stroke-width:1.5;"/>
   </g>
   <g id="line2d_14">
    <path clip-path="url(#pc94532b9c9)" d="M 51.913636 39.06 
L 54.219421 211.250911 
L 56.525207 212.587543 
L 58.830992 212.828522 
L 61.136777 213.15304 
L 63.442562 213.390807 
L 65.748347 213.403659 
L 68.054132 213.679982 
L 70.359917 213.8567 
L 72.665702 213.631786 
L 74.971488 213.763521 
L 77.277273 214.052696 
L 79.583058 213.88883 
L 81.888843 214.110531 
L 84.194628 214.081614 
L 86.500413 214.348298 
L 88.806198 214.222988 
L 91.111983 214.335445 
L 93.417769 214.271184 
L 95.723554 214.174792 
L 98.029339 214.271184 
L 100.335124 214.216562 
L 102.640909 214.380428 
L 104.946694 214.081614 
L 107.252479 214.329019 
L 109.558264 214.296889 
L 111.86405 214.563572 
L 114.169835 214.505737 
L 116.47562 214.470394 
L 118.781405 214.525016 
L 121.08719 214.51859 
L 123.392975 214.579638 
L 125.69876 214.447902 
L 128.004545 214.537868 
L 130.310331 214.676029 
L 132.616116 214.627833 
L 134.921901 214.502524 
L 137.227686 214.512163 
L 139.533471 214.560359 
L 141.839256 214.676029 
L 144.145041 214.676029 
L 146.450826 214.621407 
L 148.756612 214.59249 
L 151.062397 214.627833 
L 153.368182 214.711373 
L 155.673967 214.765995 
L 157.979752 214.685668 
L 160.285537 214.756356 
L 162.591322 214.714586 
L 164.897107 214.74993 
L 167.202893 214.74029 
L 169.508678 214.810978 
L 171.814463 214.836682 
L 174.120248 214.762782 
L 176.426033 214.785273 
L 178.731818 214.82383 
L 181.037603 214.804552 
L 183.343388 214.753143 
L 185.649174 214.804552 
L 187.954959 214.827043 
L 190.260744 214.839895 
L 192.566529 214.900943 
L 194.872314 214.8656 
L 197.178099 214.89773 
L 199.483884 214.929861 
L 201.789669 214.929861 
L 204.095455 214.904156 
L 206.40124 214.859173 
L 208.707025 214.881665 
L 211.01281 214.933074 
L 213.318595 214.910582 
L 215.62438 214.891304 
L 217.930165 214.920222 
L 220.23595 214.913795 
L 222.541736 214.974844 
L 224.847521 214.97163 
L 227.153306 214.961991 
L 229.459091 214.942713 
L 231.764876 214.958778 
L 234.070661 214.97163 
L 236.376446 214.949139 
L 238.682231 214.990909 
L 240.988017 215.003761 
L 243.293802 214.994122 
L 245.599587 214.997335 
L 247.905372 214.990909 
L 250.211157 215.000548 
L 252.516942 215.019826 
L 254.822727 215.0134 
L 257.128512 215.006974 
L 259.434298 215.016613 
L 261.740083 215.016613 
L 264.045868 215.042318 
L 266.351653 215.032679 
L 268.657438 215.035892 
L 270.963223 215.032679 
L 273.269008 215.051957 
L 275.574793 215.05517 
L 277.880579 215.058383 
L 280.186364 215.058383 
" style="fill:none;stroke:#ff7f0e;stroke-linecap:square;stroke-width:1.5;"/>
   </g>
   <g id="patch_3">
    <path d="M 40.5 224.28 
L 40.5 30.24 
" style="fill:none;stroke:#000000;stroke-linecap:square;stroke-linejoin:miter;stroke-width:0.8;"/>
   </g>
   <g id="patch_4">
    <path d="M 291.6 224.28 
L 291.6 30.24 
" style="fill:none;stroke:#000000;stroke-linecap:square;stroke-linejoin:miter;stroke-width:0.8;"/>
   </g>
   <g id="patch_5">
    <path d="M 40.5 224.28 
L 291.6 224.28 
" style="fill:none;stroke:#000000;stroke-linecap:square;stroke-linejoin:miter;stroke-width:0.8;"/>
   </g>
   <g id="patch_6">
    <path d="M 40.5 30.24 
L 291.6 30.24 
" style="fill:none;stroke:#000000;stroke-linecap:square;stroke-linejoin:miter;stroke-width:0.8;"/>
   </g>
   <g id="text_15">
    <text style="font-family:DejaVu Sans;font-size:12px;font-style:normal;font-weight:normal;text-anchor:middle;" transform="rotate(-0, 166.05, 24.24)" x="166.05" y="24.24">Coin Flips for pow(x,3/4)</text>
   </g>
   <g id="legend_1">
    <g id="patch_7">
     <path d="M 84.428125 67.59625 
L 284.6 67.59625 
Q 286.6 67.59625 286.6 65.59625 
L 286.6 37.24 
Q 286.6 35.24 284.6 35.24 
L 84.428125 35.24 
Q 82.428125 35.24 82.428125 37.24 
L 82.428125 65.59625 
Q 82.428125 67.59625 84.428125 67.59625 
z
" style="fill:#ffffff;opacity:0.8;stroke:#cccccc;stroke-linejoin:miter;"/>
    </g>
    <g id="line2d_15">
     <path d="M 86.428125 43.338438 
L 106.428125 43.338438 
" style="fill:none;stroke:#1f77b4;stroke-linecap:square;stroke-width:1.5;"/>
    </g>
    <g id="line2d_16"/>
    <g id="text_16">
     <text style="font-family:DejaVu Sans;font-size:10px;font-style:normal;font-weight:normal;text-anchor:start;" transform="rotate(-0, 114.428125, 46.838438)" x="114.428125" y="46.838438">Coin Flip Lower Bound</text>
    </g>
    <g id="line2d_17">
     <path d="M 86.428125 58.016563 
L 106.428125 58.016563 
" style="fill:none;stroke:#ff7f0e;stroke-linecap:square;stroke-width:1.5;"/>
    </g>
    <g id="line2d_18"/>
    <g id="text_17">
     <text style="font-family:DejaVu Sans;font-size:10px;font-style:normal;font-weight:normal;text-anchor:start;" transform="rotate(-0, 114.428125, 61.516563)" x="114.428125" y="61.516563">Average Coins Flipped pow(x,3/4)</text>
    </g>
   </g>
  </g>
 </g>
 <defs>
  <clipPath id="pc94532b9c9">
   <rect height="194.04" width="251.1" x="40.5" y="30.24"/>
  </clipPath>
 </defs>
</svg>
