<?xml version="1.0" encoding="utf-8" standalone="no"?>
<!DOCTYPE svg PUBLIC "-//W3C//DTD SVG 1.1//EN"
  "http://www.w3.org/Graphics/SVG/1.1/DTD/svg11.dtd">
<!-- Created with matplotlib (https://matplotlib.org/) -->
<svg height="345.6pt" version="1.1" viewBox="0 0 460.8 345.6" width="460.8pt" xmlns="http://www.w3.org/2000/svg" xmlns:xlink="http://www.w3.org/1999/xlink">
 <defs>
  <style type="text/css">
*{stroke-linecap:butt;stroke-linejoin:round;}
  </style>
 </defs>
 <g id="figure_1">
  <g id="patch_1">
   <path d="M 0 345.6 
L 460.8 345.6 
L 460.8 0 
L 0 0 
z
" style="fill:#ffffff;"/>
  </g>
  <g id="axes_1">
   <g id="patch_2">
    <path d="M 57.6 307.584 
L 414.72 307.584 
L 414.72 41.472 
L 57.6 41.472 
z
" style="fill:#ffffff;"/>
   </g>
   <g id="matplotlib.axis_1">
    <g id="xtick_1">
     <g id="line2d_1">
      <defs>
       <path d="M 0 0 
L 0 3.5 
" id="ma1b8774f4e" style="stroke:#000000;stroke-width:0.8;"/>
      </defs>
      <g>
       <use style="stroke:#000000;stroke-width:0.8;" x="73.800255" xlink:href="#ma1b8774f4e" y="307.584"/>
      </g>
     </g>
     <g id="text_1">
      <text style="font-family:DejaVu Sans;font-size:10px;font-style:normal;font-weight:normal;text-anchor:middle;" transform="rotate(-0, 73.800255, 322.182437)" x="73.800255" y="322.182437">0.0</text>
     </g>
    </g>
    <g id="xtick_2">
     <g id="line2d_2">
      <g>
       <use style="stroke:#000000;stroke-width:0.8;" x="138.744153" xlink:href="#ma1b8774f4e" y="307.584"/>
      </g>
     </g>
     <g id="text_2">
      <text style="font-family:DejaVu Sans;font-size:10px;font-style:normal;font-weight:normal;text-anchor:middle;" transform="rotate(-0, 138.744153, 322.182437)" x="138.744153" y="322.182437">0.2</text>
     </g>
    </g>
    <g id="xtick_3">
     <g id="line2d_3">
      <g>
       <use style="stroke:#000000;stroke-width:0.8;" x="203.688051" xlink:href="#ma1b8774f4e" y="307.584"/>
      </g>
     </g>
     <g id="text_3">
      <text style="font-family:DejaVu Sans;font-size:10px;font-style:normal;font-weight:normal;text-anchor:middle;" transform="rotate(-0, 203.688051, 322.182437)" x="203.688051" y="322.182437">0.4</text>
     </g>
    </g>
    <g id="xtick_4">
     <g id="line2d_4">
      <g>
       <use style="stroke:#000000;stroke-width:0.8;" x="268.631949" xlink:href="#ma1b8774f4e" y="307.584"/>
      </g>
     </g>
     <g id="text_4">
      <text style="font-family:DejaVu Sans;font-size:10px;font-style:normal;font-weight:normal;text-anchor:middle;" transform="rotate(-0, 268.631949, 322.182437)" x="268.631949" y="322.182437">0.6</text>
     </g>
    </g>
    <g id="xtick_5">
     <g id="line2d_5">
      <g>
       <use style="stroke:#000000;stroke-width:0.8;" x="333.575847" xlink:href="#ma1b8774f4e" y="307.584"/>
      </g>
     </g>
     <g id="text_5">
      <text style="font-family:DejaVu Sans;font-size:10px;font-style:normal;font-weight:normal;text-anchor:middle;" transform="rotate(-0, 333.575847, 322.182437)" x="333.575847" y="322.182437">0.8</text>
     </g>
    </g>
    <g id="xtick_6">
     <g id="line2d_6">
      <g>
       <use style="stroke:#000000;stroke-width:0.8;" x="398.519745" xlink:href="#ma1b8774f4e" y="307.584"/>
      </g>
     </g>
     <g id="text_6">
      <text style="font-family:DejaVu Sans;font-size:10px;font-style:normal;font-weight:normal;text-anchor:middle;" transform="rotate(-0, 398.519745, 322.182437)" x="398.519745" y="322.182437">1.0</text>
     </g>
    </g>
    <g id="text_7">
     <text style="font-family:DejaVu Sans;font-size:10px;font-style:normal;font-weight:normal;text-anchor:middle;" transform="rotate(-0, 236.16, 335.860562)" x="236.16" y="335.860562">Input Coin's Heads Probability (λ)</text>
    </g>
   </g>
   <g id="matplotlib.axis_2">
    <g id="ytick_1">
     <g id="line2d_7">
      <defs>
       <path d="M 0 0 
L -3.5 0 
" id="m25bc31be19" style="stroke:#000000;stroke-width:0.8;"/>
      </defs>
      <g>
       <use style="stroke:#000000;stroke-width:0.8;" x="57.6" xlink:href="#m25bc31be19" y="295.617964"/>
      </g>
     </g>
     <g id="text_8">
      <text style="font-family:DejaVu Sans;font-size:10px;font-style:normal;font-weight:normal;text-anchor:end;" transform="rotate(-0, 50.6, 299.417183)" x="50.6" y="299.417183">0</text>
     </g>
    </g>
    <g id="ytick_2">
     <g id="line2d_8">
      <g>
       <use style="stroke:#000000;stroke-width:0.8;" x="57.6" xlink:href="#m25bc31be19" y="256.629967"/>
      </g>
     </g>
     <g id="text_9">
      <text style="font-family:DejaVu Sans;font-size:10px;font-style:normal;font-weight:normal;text-anchor:end;" transform="rotate(-0, 50.6, 260.429186)" x="50.6" y="260.429186">100</text>
     </g>
    </g>
    <g id="ytick_3">
     <g id="line2d_9">
      <g>
       <use style="stroke:#000000;stroke-width:0.8;" x="57.6" xlink:href="#m25bc31be19" y="217.641969"/>
      </g>
     </g>
     <g id="text_10">
      <text style="font-family:DejaVu Sans;font-size:10px;font-style:normal;font-weight:normal;text-anchor:end;" transform="rotate(-0, 50.6, 221.441188)" x="50.6" y="221.441188">200</text>
     </g>
    </g>
    <g id="ytick_4">
     <g id="line2d_10">
      <g>
       <use style="stroke:#000000;stroke-width:0.8;" x="57.6" xlink:href="#m25bc31be19" y="178.653972"/>
      </g>
     </g>
     <g id="text_11">
      <text style="font-family:DejaVu Sans;font-size:10px;font-style:normal;font-weight:normal;text-anchor:end;" transform="rotate(-0, 50.6, 182.453191)" x="50.6" y="182.453191">300</text>
     </g>
    </g>
    <g id="ytick_5">
     <g id="line2d_11">
      <g>
       <use style="stroke:#000000;stroke-width:0.8;" x="57.6" xlink:href="#m25bc31be19" y="139.665975"/>
      </g>
     </g>
     <g id="text_12">
      <text style="font-family:DejaVu Sans;font-size:10px;font-style:normal;font-weight:normal;text-anchor:end;" transform="rotate(-0, 50.6, 143.465193)" x="50.6" y="143.465193">400</text>
     </g>
    </g>
    <g id="ytick_6">
     <g id="line2d_12">
      <g>
       <use style="stroke:#000000;stroke-width:0.8;" x="57.6" xlink:href="#m25bc31be19" y="100.677977"/>
      </g>
     </g>
     <g id="text_13">
      <text style="font-family:DejaVu Sans;font-size:10px;font-style:normal;font-weight:normal;text-anchor:end;" transform="rotate(-0, 50.6, 104.477196)" x="50.6" y="104.477196">500</text>
     </g>
    </g>
    <g id="ytick_7">
     <g id="line2d_13">
      <g>
       <use style="stroke:#000000;stroke-width:0.8;" x="57.6" xlink:href="#m25bc31be19" y="61.68998"/>
      </g>
     </g>
     <g id="text_14">
      <text style="font-family:DejaVu Sans;font-size:10px;font-style:normal;font-weight:normal;text-anchor:end;" transform="rotate(-0, 50.6, 65.489198)" x="50.6" y="65.489198">600</text>
     </g>
    </g>
    <g id="text_15">
     <text style="font-family:DejaVu Sans;font-size:10px;font-style:normal;font-weight:normal;text-anchor:middle;" transform="rotate(-90, 25.432813, 174.528)" x="25.432813" y="174.528">Coin Flips Needed</text>
    </g>
   </g>
   <g id="line2d_14">
    <path clip-path="url(#p492898a11f)" d="M 73.832727 220.313308 
L 77.112066 294.453724 
L 80.391405 294.833655 
L 83.670744 294.991065 
L 86.950083 295.081143 
L 90.229421 295.14084 
L 93.50876 295.183917 
L 96.788099 295.216785 
L 100.067438 295.242871 
L 103.346777 295.264194 
L 106.626116 295.282025 
L 109.905455 295.297209 
L 113.184793 295.310331 
L 116.464132 295.321814 
L 119.743471 295.331966 
L 123.02281 295.341022 
L 126.302149 295.349163 
L 129.581488 295.356531 
L 132.860826 295.363239 
L 136.140165 295.369379 
L 139.419504 295.375025 
L 142.698843 295.38024 
L 145.978182 295.385074 
L 149.257521 295.389571 
L 152.53686 295.393768 
L 155.816198 295.397696 
L 159.095537 295.401383 
L 162.374876 295.404851 
L 165.654215 295.408122 
L 168.933554 295.411213 
L 172.212893 295.41414 
L 175.492231 295.416916 
L 178.77157 295.419554 
L 182.050909 295.422065 
L 185.330248 295.424458 
L 188.609587 295.426743 
L 191.888926 295.428927 
L 195.168264 295.431017 
L 198.447603 295.43302 
L 201.726942 295.434942 
L 205.006281 295.436787 
L 208.28562 295.438561 
L 211.564959 295.440268 
L 214.844298 295.441912 
L 218.123636 295.443497 
L 221.402975 295.445027 
L 224.682314 295.446503 
L 227.961653 295.447931 
L 231.240992 295.449311 
L 234.520331 295.450646 
L 237.799669 295.45194 
L 241.079008 295.453193 
L 244.358347 295.454409 
L 247.637686 295.455588 
L 250.917025 295.456733 
L 254.196364 295.457845 
L 257.475702 295.458926 
L 260.755041 295.459977 
L 264.03438 295.460999 
L 267.313719 295.461994 
L 270.593058 295.462963 
L 273.872397 295.463907 
L 277.151736 295.464828 
L 280.431074 295.465725 
L 283.710413 295.4666 
L 286.989752 295.467454 
L 290.269091 295.468287 
L 293.54843 295.469101 
L 296.827769 295.469897 
L 300.107107 295.470674 
L 303.386446 295.471434 
L 306.665785 295.472177 
L 309.945124 295.472904 
L 313.224463 295.473615 
L 316.503802 295.474311 
L 319.78314 295.474993 
L 323.062479 295.47566 
L 326.341818 295.476314 
L 329.621157 295.476955 
L 332.900496 295.477583 
L 336.179835 295.478199 
L 339.459174 295.478803 
L 342.738512 295.479395 
L 346.017851 295.479977 
L 349.29719 295.480547 
L 352.576529 295.481107 
L 355.855868 295.481657 
L 359.135207 295.482197 
L 362.414545 295.482727 
L 365.693884 295.483248 
L 368.973223 295.48376 
L 372.252562 295.484263 
L 375.531901 295.484758 
L 378.81124 295.485244 
L 382.090579 295.485722 
L 385.369917 295.486193 
L 388.649256 295.486656 
L 391.928595 295.487111 
L 395.207934 295.487559 
L 398.487273 295.488 
" style="fill:none;stroke:#1f77b4;stroke-linecap:square;stroke-width:1.5;"/>
   </g>
   <g id="line2d_15">
    <path clip-path="url(#p492898a11f)" d="M 73.832727 53.568 
L 77.112066 287.517038 
L 80.391405 290.543287 
L 83.670744 291.224017 
L 86.950083 292.469294 
L 90.229421 292.566764 
L 93.50876 293.00031 
L 96.788099 293.506374 
L 100.067438 293.58513 
L 103.346777 293.603844 
L 106.626116 293.798005 
L 109.905455 293.913409 
L 113.184793 293.985927 
L 116.464132 294.243248 
L 119.743471 294.271319 
L 123.02281 294.176968 
L 126.302149 294.261182 
L 129.581488 294.376586 
L 132.860826 294.307188 
L 136.140165 294.464699 
L 139.419504 294.529419 
L 142.698843 294.481074 
L 145.978182 294.550473 
L 149.257521 294.608175 
L 152.53686 294.549693 
L 155.816198 294.613634 
L 159.095537 294.660419 
L 162.374876 294.673675 
L 165.654215 294.734496 
L 168.933554 294.747752 
L 172.212893 294.732937 
L 175.492231 294.775824 
L 178.77157 294.814812 
L 182.050909 294.85224 
L 185.330248 294.842883 
L 188.609587 294.844442 
L 191.888926 294.842103 
L 195.168264 294.831187 
L 198.447603 294.881871 
L 201.726942 294.88577 
L 205.006281 294.935674 
L 208.28562 294.966865 
L 211.564959 294.928657 
L 214.844298 294.984019 
L 218.123636 294.94893 
L 221.402975 294.962966 
L 224.682314 294.946591 
L 227.961653 294.973103 
L 231.240992 294.98324 
L 234.520331 294.977002 
L 237.799669 295.003513 
L 241.079008 295.044061 
L 244.358347 294.997275 
L 247.637686 295.01599 
L 250.917025 295.035484 
L 254.196364 295.032365 
L 257.475702 295.040942 
L 260.755041 295.056537 
L 264.03438 295.061216 
L 267.313719 295.086948 
L 270.593058 295.070573 
L 273.872397 295.088507 
L 277.151736 295.071353 
L 280.431074 295.090067 
L 283.710413 295.106442 
L 286.989752 295.106442 
L 290.269091 295.084609 
L 293.54843 295.100983 
L 296.827769 295.127495 
L 300.107107 295.106442 
L 303.386446 295.137632 
L 306.665785 295.125156 
L 309.945124 295.142311 
L 313.224463 295.132954 
L 316.503802 295.139192 
L 319.78314 295.14543 
L 323.062479 295.136852 
L 326.341818 295.148549 
L 329.621157 295.161805 
L 332.900496 295.17584 
L 336.179835 295.174281 
L 339.459174 295.1774 
L 342.738512 295.179739 
L 346.017851 295.189876 
L 349.29719 295.190656 
L 352.576529 295.188317 
L 355.855868 295.189096 
L 359.135207 295.201573 
L 362.414545 295.193775 
L 365.693884 295.190656 
L 368.973223 295.202352 
L 372.252562 295.204692 
L 375.531901 295.20859 
L 378.81124 295.207031 
L 382.090579 295.213269 
L 385.369917 295.221067 
L 388.649256 295.218727 
L 391.928595 295.223406 
L 395.207934 295.226525 
L 398.487273 295.228084 
" style="fill:none;stroke:#ff7f0e;stroke-linecap:square;stroke-width:1.5;"/>
   </g>
   <g id="patch_3">
    <path d="M 57.6 307.584 
L 57.6 41.472 
" style="fill:none;stroke:#000000;stroke-linecap:square;stroke-linejoin:miter;stroke-width:0.8;"/>
   </g>
   <g id="patch_4">
    <path d="M 414.72 307.584 
L 414.72 41.472 
" style="fill:none;stroke:#000000;stroke-linecap:square;stroke-linejoin:miter;stroke-width:0.8;"/>
   </g>
   <g id="patch_5">
    <path d="M 57.6 307.584 
L 414.72 307.584 
" style="fill:none;stroke:#000000;stroke-linecap:square;stroke-linejoin:miter;stroke-width:0.8;"/>
   </g>
   <g id="patch_6">
    <path d="M 57.6 41.472 
L 414.72 41.472 
" style="fill:none;stroke:#000000;stroke-linecap:square;stroke-linejoin:miter;stroke-width:0.8;"/>
   </g>
   <g id="text_16">
    <text style="font-family:DejaVu Sans;font-size:12px;font-style:normal;font-weight:normal;text-anchor:middle;" transform="rotate(-0, 236.16, 35.472)" x="236.16" y="35.472">Coin Flips for pow(x,1/3)</text>
   </g>
   <g id="legend_1">
    <g id="patch_7">
     <path d="M 226.915312 78.82825 
L 407.72 78.82825 
Q 409.72 78.82825 409.72 76.82825 
L 409.72 48.472 
Q 409.72 46.472 407.72 46.472 
L 226.915312 46.472 
Q 224.915312 46.472 224.915312 48.472 
L 224.915312 76.82825 
Q 224.915312 78.82825 226.915312 78.82825 
z
" style="fill:#ffffff;opacity:0.8;stroke:#cccccc;stroke-linejoin:miter;"/>
    </g>
    <g id="line2d_16">
     <path d="M 228.915312 54.570437 
L 248.915312 54.570437 
" style="fill:none;stroke:#1f77b4;stroke-linecap:square;stroke-width:1.5;"/>
    </g>
    <g id="line2d_17"/>
    <g id="text_17">
     <text style="font-family:DejaVu Sans;font-size:10px;font-style:normal;font-weight:normal;text-anchor:start;" transform="rotate(-0, 256.915313, 58.070437)" x="256.915313" y="58.070437">Coin Flip Lower Bound</text>
    </g>
    <g id="line2d_18">
     <path d="M 228.915312 69.248562 
L 248.915312 69.248562 
" style="fill:none;stroke:#ff7f0e;stroke-linecap:square;stroke-width:1.5;"/>
    </g>
    <g id="line2d_19"/>
    <g id="text_18">
     <text style="font-family:DejaVu Sans;font-size:10px;font-style:normal;font-weight:normal;text-anchor:start;" transform="rotate(-0, 256.915313, 72.748562)" x="256.915313" y="72.748562">Avg. Coins Flipped pow(x,1/3)</text>
    </g>
   </g>
  </g>
 </g>
 <defs>
  <clipPath id="p492898a11f">
   <rect height="266.112" width="357.12" x="57.6" y="41.472"/>
  </clipPath>
 </defs>
</svg>
