<?xml version="1.0" encoding="utf-8" standalone="no"?>
<!DOCTYPE svg PUBLIC "-//W3C//DTD SVG 1.1//EN"
  "http://www.w3.org/Graphics/SVG/1.1/DTD/svg11.dtd">
<!-- Created with matplotlib (https://matplotlib.org/) -->
<svg height="252pt" version="1.1" viewBox="0 0 324 252" width="324pt" xmlns="http://www.w3.org/2000/svg" xmlns:xlink="http://www.w3.org/1999/xlink">
 <defs>
  <style type="text/css">
*{stroke-linecap:butt;stroke-linejoin:round;}
  </style>
 </defs>
 <g id="figure_1">
  <g id="patch_1">
   <path d="M 0 252 
L 324 252 
L 324 0 
L 0 0 
z
" style="fill:#ffffff;"/>
  </g>
  <g id="axes_1">
   <g id="patch_2">
    <path d="M 40.5 224.28 
L 291.6 224.28 
L 291.6 30.24 
L 40.5 30.24 
z
" style="fill:#ffffff;"/>
   </g>
   <g id="matplotlib.axis_1">
    <g id="xtick_1">
     <g id="line2d_1">
      <defs>
       <path d="M 0 0 
L 0 3.5 
" id="m00b34bb3e1" style="stroke:#000000;stroke-width:0.8;"/>
      </defs>
      <g>
       <use style="stroke:#000000;stroke-width:0.8;" x="51.890805" xlink:href="#m00b34bb3e1" y="224.28"/>
      </g>
     </g>
     <g id="text_1">
      <text style="font-family:DejaVu Sans;font-size:10px;font-style:normal;font-weight:normal;text-anchor:middle;" transform="rotate(-0, 51.890805, 238.878438)" x="51.890805" y="238.878438">0.0</text>
     </g>
    </g>
    <g id="xtick_2">
     <g id="line2d_2">
      <g>
       <use style="stroke:#000000;stroke-width:0.8;" x="97.554483" xlink:href="#m00b34bb3e1" y="224.28"/>
      </g>
     </g>
     <g id="text_2">
      <text style="font-family:DejaVu Sans;font-size:10px;font-style:normal;font-weight:normal;text-anchor:middle;" transform="rotate(-0, 97.554483, 238.878438)" x="97.554483" y="238.878438">0.2</text>
     </g>
    </g>
    <g id="xtick_3">
     <g id="line2d_3">
      <g>
       <use style="stroke:#000000;stroke-width:0.8;" x="143.218161" xlink:href="#m00b34bb3e1" y="224.28"/>
      </g>
     </g>
     <g id="text_3">
      <text style="font-family:DejaVu Sans;font-size:10px;font-style:normal;font-weight:normal;text-anchor:middle;" transform="rotate(-0, 143.218161, 238.878438)" x="143.218161" y="238.878438">0.4</text>
     </g>
    </g>
    <g id="xtick_4">
     <g id="line2d_4">
      <g>
       <use style="stroke:#000000;stroke-width:0.8;" x="188.881839" xlink:href="#m00b34bb3e1" y="224.28"/>
      </g>
     </g>
     <g id="text_4">
      <text style="font-family:DejaVu Sans;font-size:10px;font-style:normal;font-weight:normal;text-anchor:middle;" transform="rotate(-0, 188.881839, 238.878438)" x="188.881839" y="238.878438">0.6</text>
     </g>
    </g>
    <g id="xtick_5">
     <g id="line2d_5">
      <g>
       <use style="stroke:#000000;stroke-width:0.8;" x="234.545517" xlink:href="#m00b34bb3e1" y="224.28"/>
      </g>
     </g>
     <g id="text_5">
      <text style="font-family:DejaVu Sans;font-size:10px;font-style:normal;font-weight:normal;text-anchor:middle;" transform="rotate(-0, 234.545517, 238.878438)" x="234.545517" y="238.878438">0.8</text>
     </g>
    </g>
    <g id="xtick_6">
     <g id="line2d_6">
      <g>
       <use style="stroke:#000000;stroke-width:0.8;" x="280.209195" xlink:href="#m00b34bb3e1" y="224.28"/>
      </g>
     </g>
     <g id="text_6">
      <text style="font-family:DejaVu Sans;font-size:10px;font-style:normal;font-weight:normal;text-anchor:middle;" transform="rotate(-0, 280.209195, 238.878438)" x="280.209195" y="238.878438">1.0</text>
     </g>
    </g>
    <g id="text_7">
     <text style="font-family:DejaVu Sans;font-size:10px;font-style:normal;font-weight:normal;text-anchor:middle;" transform="rotate(-0, 166.05, 252.556563)" x="166.05" y="252.556563">Input Coin's Heads Probability (λ)</text>
    </g>
   </g>
   <g id="matplotlib.axis_2">
    <g id="ytick_1">
     <g id="line2d_7">
      <defs>
       <path d="M 0 0 
L -3.5 0 
" id="m17b5535797" style="stroke:#000000;stroke-width:0.8;"/>
      </defs>
      <g>
       <use style="stroke:#000000;stroke-width:0.8;" x="40.5" xlink:href="#m17b5535797" y="187.607368"/>
      </g>
     </g>
     <g id="text_8">
      <text style="font-family:DejaVu Sans;font-size:10px;font-style:normal;font-weight:normal;text-anchor:end;" transform="rotate(-0, 33.5, 191.406587)" x="33.5" y="191.406587">0.2</text>
     </g>
    </g>
    <g id="ytick_2">
     <g id="line2d_8">
      <g>
       <use style="stroke:#000000;stroke-width:0.8;" x="40.5" xlink:href="#m17b5535797" y="150.470526"/>
      </g>
     </g>
     <g id="text_9">
      <text style="font-family:DejaVu Sans;font-size:10px;font-style:normal;font-weight:normal;text-anchor:end;" transform="rotate(-0, 33.5, 154.269745)" x="33.5" y="154.269745">0.4</text>
     </g>
    </g>
    <g id="ytick_3">
     <g id="line2d_9">
      <g>
       <use style="stroke:#000000;stroke-width:0.8;" x="40.5" xlink:href="#m17b5535797" y="113.333684"/>
      </g>
     </g>
     <g id="text_10">
      <text style="font-family:DejaVu Sans;font-size:10px;font-style:normal;font-weight:normal;text-anchor:end;" transform="rotate(-0, 33.5, 117.132903)" x="33.5" y="117.132903">0.6</text>
     </g>
    </g>
    <g id="ytick_4">
     <g id="line2d_10">
      <g>
       <use style="stroke:#000000;stroke-width:0.8;" x="40.5" xlink:href="#m17b5535797" y="76.196842"/>
      </g>
     </g>
     <g id="text_11">
      <text style="font-family:DejaVu Sans;font-size:10px;font-style:normal;font-weight:normal;text-anchor:end;" transform="rotate(-0, 33.5, 79.996061)" x="33.5" y="79.996061">0.8</text>
     </g>
    </g>
    <g id="ytick_5">
     <g id="line2d_11">
      <g>
       <use style="stroke:#000000;stroke-width:0.8;" x="40.5" xlink:href="#m17b5535797" y="39.06"/>
      </g>
     </g>
     <g id="text_12">
      <text style="font-family:DejaVu Sans;font-size:10px;font-style:normal;font-weight:normal;text-anchor:end;" transform="rotate(-0, 33.5, 42.859219)" x="33.5" y="42.859219">1.0</text>
     </g>
    </g>
    <g id="text_13">
     <text style="font-family:DejaVu Sans;font-size:10px;font-style:normal;font-weight:normal;text-anchor:middle;" transform="rotate(-90, 11.517187, 127.26)" x="11.517187" y="127.26">Simulated Mean / Function Value</text>
    </g>
   </g>
   <g id="line2d_12">
    <path clip-path="url(#p18d5dac21c)" d="M 52.119123 206.175789 
L 54.420757 183.347536 
L 56.722391 173.384261 
L 59.024025 166.262076 
L 61.325658 160.548442 
L 63.627292 155.703159 
L 65.928926 151.456524 
L 68.23056 147.652113 
L 70.532194 144.19015 
L 72.833828 141.002633 
L 75.135462 138.040891 
L 77.437096 135.268746 
L 79.738729 132.65849 
L 82.040363 130.188376 
L 84.341997 127.840985 
L 86.643631 125.602124 
L 88.945265 123.460056 
L 91.246899 121.404952 
L 93.548533 119.42849 
L 95.850167 117.523552 
L 98.151801 115.683999 
L 100.453434 113.904493 
L 102.755068 112.180362 
L 105.056702 110.50749 
L 107.358336 108.882228 
L 109.65997 107.301326 
L 111.961604 105.761877 
L 114.263238 104.261266 
L 116.564872 102.797132 
L 118.866505 101.367335 
L 121.168139 99.969932 
L 123.469773 98.603147 
L 125.771407 97.265356 
L 128.073041 95.955069 
L 130.374675 94.670914 
L 132.676309 93.411626 
L 134.977943 92.176036 
L 137.279576 90.963058 
L 139.58121 89.771686 
L 141.882844 88.600983 
L 144.184478 87.450075 
L 146.486112 86.318145 
L 148.787746 85.204431 
L 151.08938 84.108216 
L 153.391014 83.028829 
L 155.692648 81.965639 
L 157.994281 80.918052 
L 160.295915 79.885506 
L 162.597549 78.867475 
L 164.899183 77.863457 
L 167.200817 76.872981 
L 169.502451 75.895599 
L 171.804085 74.930887 
L 174.105719 73.978442 
L 176.407352 73.037881 
L 178.708986 72.10884 
L 181.01062 71.190973 
L 183.312254 70.283951 
L 185.613888 69.387457 
L 187.915522 68.501192 
L 190.217156 67.624869 
L 192.51879 66.758214 
L 194.820424 65.900964 
L 197.122057 65.052868 
L 199.423691 64.213686 
L 201.725325 63.383188 
L 204.026959 62.561151 
L 206.328593 61.747364 
L 208.630227 60.941623 
L 210.931861 60.143732 
L 213.233495 59.353502 
L 215.535128 58.570752 
L 217.836762 57.795307 
L 220.138396 57.027001 
L 222.44003 56.265669 
L 224.741664 55.511157 
L 227.043298 54.763313 
L 229.344932 54.021992 
L 231.646566 53.287054 
L 233.948199 52.558363 
L 236.249833 51.835788 
L 238.551467 51.119203 
L 240.853101 50.408484 
L 243.154735 49.703513 
L 245.456369 49.004175 
L 247.758003 48.310359 
L 250.059637 47.621958 
L 252.361271 46.938866 
L 254.662904 46.260983 
L 256.964538 45.588211 
L 259.266172 44.920454 
L 261.567806 44.257619 
L 263.86944 43.599618 
L 266.171074 42.946362 
L 268.472708 42.297768 
L 270.774342 41.653753 
L 273.075975 41.014237 
L 275.377609 40.379142 
L 277.679243 39.748393 
L 279.980877 39.121915 
" style="fill:none;stroke:#1f77b4;stroke-linecap:square;stroke-width:1.5;"/>
   </g>
   <g id="line2d_13">
    <path clip-path="url(#p18d5dac21c)" d="M 51.913636 215.46 
L 54.219421 182.779579 
L 56.525207 170.895789 
L 58.830992 167.182105 
L 61.136777 153.441474 
L 63.442562 160.497474 
L 65.748347 155.669684 
L 68.054132 144.9 
L 70.359917 141.186316 
L 72.665702 143.785895 
L 74.971488 142.300421 
L 77.277273 143.785895 
L 79.583058 129.673895 
L 81.888843 128.559789 
L 84.194628 129.302526 
L 86.500413 118.904211 
L 88.806198 124.474737 
L 91.111983 115.190526 
L 93.417769 112.962316 
L 95.723554 126.702947 
L 98.029339 119.275579 
L 100.335124 118.161474 
L 102.640909 107.391789 
L 104.946694 107.391789 
L 107.252479 103.306737 
L 109.558264 110.734105 
L 111.86405 105.163579 
L 114.169835 107.020421 
L 116.47562 98.850316 
L 118.781405 94.393895 
L 121.08719 105.906316 
L 123.392975 94.022526 
L 125.69876 93.279789 
L 128.004545 94.765263 
L 130.310331 92.537053 
L 132.616116 92.165684 
L 134.921901 86.223789 
L 137.227686 87.709263 
L 139.533471 89.194737 
L 141.839256 92.537053 
L 144.145041 86.595158 
L 146.450826 86.595158 
L 148.756612 83.995579 
L 151.062397 81.024632 
L 153.368182 84.366947 
L 155.673967 81.024632 
L 157.979752 76.939579 
L 160.285537 81.396 
L 162.591322 78.796421 
L 164.897107 83.252842 
L 167.202893 75.454105 
L 169.508678 69.883579 
L 171.814463 75.825474 
L 174.120248 71.369053 
L 176.426033 75.082737 
L 178.731818 70.626316 
L 181.037603 69.140842 
L 183.343388 69.883579 
L 185.649174 63.941684 
L 187.954959 68.026737 
L 190.260744 69.512211 
L 192.566529 71.740421 
L 194.872314 65.427158 
L 197.178099 63.570316 
L 199.483884 64.313053 
L 201.789669 65.798526 
L 204.095455 63.570316 
L 206.40124 58.742526 
L 208.707025 63.570316 
L 211.01281 62.084842 
L 213.318595 59.113895 
L 215.62438 58.371158 
L 217.930165 54.286105 
L 220.23595 56.885684 
L 222.541736 57.257053 
L 224.847521 55.028842 
L 227.153306 55.028842 
L 229.459091 52.800632 
L 231.764876 53.914737 
L 234.070661 48.715579 
L 236.376446 52.057895 
L 238.682231 49.458316 
L 240.988017 51.686526 
L 243.293802 50.572421 
L 245.599587 51.315158 
L 247.905372 50.572421 
L 250.211157 46.487368 
L 252.516942 47.972842 
L 254.822727 46.858737 
L 257.128512 42.773684 
L 259.434298 44.630526 
L 261.740083 44.259158 
L 264.045868 43.145053 
L 266.351653 43.516421 
L 268.657438 41.659579 
L 270.963223 40.545474 
L 273.269008 40.174105 
L 275.574793 39.802737 
L 277.880579 39.431368 
L 280.186364 39.06 
" style="fill:none;stroke:#ff7f0e;stroke-linecap:square;stroke-width:1.5;"/>
   </g>
   <g id="patch_3">
    <path d="M 40.5 224.28 
L 40.5 30.24 
" style="fill:none;stroke:#000000;stroke-linecap:square;stroke-linejoin:miter;stroke-width:0.8;"/>
   </g>
   <g id="patch_4">
    <path d="M 291.6 224.28 
L 291.6 30.24 
" style="fill:none;stroke:#000000;stroke-linecap:square;stroke-linejoin:miter;stroke-width:0.8;"/>
   </g>
   <g id="patch_5">
    <path d="M 40.5 224.28 
L 291.6 224.28 
" style="fill:none;stroke:#000000;stroke-linecap:square;stroke-linejoin:miter;stroke-width:0.8;"/>
   </g>
   <g id="patch_6">
    <path d="M 40.5 30.24 
L 291.6 30.24 
" style="fill:none;stroke:#000000;stroke-linecap:square;stroke-linejoin:miter;stroke-width:0.8;"/>
   </g>
   <g id="text_14">
    <text style="font-family:DejaVu Sans;font-size:12px;font-style:normal;font-weight:normal;text-anchor:middle;" transform="rotate(-0, 166.05, 24.24)" x="166.05" y="24.24">Expected Value in pow(x,1/3) Algorithm</text>
   </g>
   <g id="legend_1">
    <g id="patch_7">
     <path d="M 102.007813 219.28 
L 284.6 219.28 
Q 286.6 219.28 286.6 217.28 
L 286.6 188.92375 
Q 286.6 186.92375 284.6 186.92375 
L 102.007813 186.92375 
Q 100.007813 186.92375 100.007813 188.92375 
L 100.007813 217.28 
Q 100.007813 219.28 102.007813 219.28 
z
" style="fill:#ffffff;opacity:0.8;stroke:#cccccc;stroke-linejoin:miter;"/>
    </g>
    <g id="line2d_14">
     <path d="M 104.007813 195.022188 
L 124.007813 195.022188 
" style="fill:none;stroke:#1f77b4;stroke-linecap:square;stroke-width:1.5;"/>
    </g>
    <g id="line2d_15"/>
    <g id="text_15">
     <text style="font-family:DejaVu Sans;font-size:10px;font-style:normal;font-weight:normal;text-anchor:start;" transform="rotate(-0, 132.007813, 198.522188)" x="132.007813" y="198.522188">pow(x,1/3)</text>
    </g>
    <g id="line2d_16">
     <path d="M 104.007813 209.700312 
L 124.007813 209.700312 
" style="fill:none;stroke:#ff7f0e;stroke-linecap:square;stroke-width:1.5;"/>
    </g>
    <g id="line2d_17"/>
    <g id="text_16">
     <text style="font-family:DejaVu Sans;font-size:10px;font-style:normal;font-weight:normal;text-anchor:start;" transform="rotate(-0, 132.007813, 213.200312)" x="132.007813" y="213.200312">Simulated Mean of pow(x,1/3)</text>
    </g>
   </g>
  </g>
 </g>
 <defs>
  <clipPath id="p18d5dac21c">
   <rect height="194.04" width="251.1" x="40.5" y="30.24"/>
  </clipPath>
 </defs>
</svg>
