<?xml version="1.0" encoding="utf-8" standalone="no"?>
<!DOCTYPE svg PUBLIC "-//W3C//DTD SVG 1.1//EN"
  "http://www.w3.org/Graphics/SVG/1.1/DTD/svg11.dtd">
<!-- Created with matplotlib (https://matplotlib.org/) -->
<svg height="345.6pt" version="1.1" viewBox="0 0 460.8 345.6" width="460.8pt" xmlns="http://www.w3.org/2000/svg" xmlns:xlink="http://www.w3.org/1999/xlink">
 <defs>
  <style type="text/css">
*{stroke-linecap:butt;stroke-linejoin:round;}
  </style>
 </defs>
 <g id="figure_1">
  <g id="patch_1">
   <path d="M 0 345.6 
L 460.8 345.6 
L 460.8 0 
L 0 0 
z
" style="fill:#ffffff;"/>
  </g>
  <g id="axes_1">
   <g id="patch_2">
    <path d="M 57.6 307.584 
L 414.72 307.584 
L 414.72 41.472 
L 57.6 41.472 
z
" style="fill:#ffffff;"/>
   </g>
   <g id="matplotlib.axis_1">
    <g id="xtick_1">
     <g id="line2d_1">
      <defs>
       <path d="M 0 0 
L 0 3.5 
" id="m53f70bd23f" style="stroke:#000000;stroke-width:0.8;"/>
      </defs>
      <g>
       <use style="stroke:#000000;stroke-width:0.8;" x="73.800255" xlink:href="#m53f70bd23f" y="307.584"/>
      </g>
     </g>
     <g id="text_1">
      <text style="font-family:DejaVu Sans;font-size:10px;font-style:normal;font-weight:normal;text-anchor:middle;" transform="rotate(-0, 73.800255, 322.182437)" x="73.800255" y="322.182437">0.0</text>
     </g>
    </g>
    <g id="xtick_2">
     <g id="line2d_2">
      <g>
       <use style="stroke:#000000;stroke-width:0.8;" x="138.744153" xlink:href="#m53f70bd23f" y="307.584"/>
      </g>
     </g>
     <g id="text_2">
      <text style="font-family:DejaVu Sans;font-size:10px;font-style:normal;font-weight:normal;text-anchor:middle;" transform="rotate(-0, 138.744153, 322.182437)" x="138.744153" y="322.182437">0.2</text>
     </g>
    </g>
    <g id="xtick_3">
     <g id="line2d_3">
      <g>
       <use style="stroke:#000000;stroke-width:0.8;" x="203.688051" xlink:href="#m53f70bd23f" y="307.584"/>
      </g>
     </g>
     <g id="text_3">
      <text style="font-family:DejaVu Sans;font-size:10px;font-style:normal;font-weight:normal;text-anchor:middle;" transform="rotate(-0, 203.688051, 322.182437)" x="203.688051" y="322.182437">0.4</text>
     </g>
    </g>
    <g id="xtick_4">
     <g id="line2d_4">
      <g>
       <use style="stroke:#000000;stroke-width:0.8;" x="268.631949" xlink:href="#m53f70bd23f" y="307.584"/>
      </g>
     </g>
     <g id="text_4">
      <text style="font-family:DejaVu Sans;font-size:10px;font-style:normal;font-weight:normal;text-anchor:middle;" transform="rotate(-0, 268.631949, 322.182437)" x="268.631949" y="322.182437">0.6</text>
     </g>
    </g>
    <g id="xtick_5">
     <g id="line2d_5">
      <g>
       <use style="stroke:#000000;stroke-width:0.8;" x="333.575847" xlink:href="#m53f70bd23f" y="307.584"/>
      </g>
     </g>
     <g id="text_5">
      <text style="font-family:DejaVu Sans;font-size:10px;font-style:normal;font-weight:normal;text-anchor:middle;" transform="rotate(-0, 333.575847, 322.182437)" x="333.575847" y="322.182437">0.8</text>
     </g>
    </g>
    <g id="xtick_6">
     <g id="line2d_6">
      <g>
       <use style="stroke:#000000;stroke-width:0.8;" x="398.519745" xlink:href="#m53f70bd23f" y="307.584"/>
      </g>
     </g>
     <g id="text_6">
      <text style="font-family:DejaVu Sans;font-size:10px;font-style:normal;font-weight:normal;text-anchor:middle;" transform="rotate(-0, 398.519745, 322.182437)" x="398.519745" y="322.182437">1.0</text>
     </g>
    </g>
    <g id="text_7">
     <text style="font-family:DejaVu Sans;font-size:10px;font-style:normal;font-weight:normal;text-anchor:middle;" transform="rotate(-0, 236.16, 335.860562)" x="236.16" y="335.860562">Input Coin's Heads Probability (λ)</text>
    </g>
   </g>
   <g id="matplotlib.axis_2">
    <g id="ytick_1">
     <g id="line2d_7">
      <defs>
       <path d="M 0 0 
L -3.5 0 
" id="ma18e1a259d" style="stroke:#000000;stroke-width:0.8;"/>
      </defs>
      <g>
       <use style="stroke:#000000;stroke-width:0.8;" x="57.6" xlink:href="#ma18e1a259d" y="298.68117"/>
      </g>
     </g>
     <g id="text_8">
      <text style="font-family:DejaVu Sans;font-size:10px;font-style:normal;font-weight:normal;text-anchor:end;" transform="rotate(-0, 50.6, 302.480389)" x="50.6" y="302.480389">0</text>
     </g>
    </g>
    <g id="ytick_2">
     <g id="line2d_8">
      <g>
       <use style="stroke:#000000;stroke-width:0.8;" x="57.6" xlink:href="#ma18e1a259d" y="256.106104"/>
      </g>
     </g>
     <g id="text_9">
      <text style="font-family:DejaVu Sans;font-size:10px;font-style:normal;font-weight:normal;text-anchor:end;" transform="rotate(-0, 50.6, 259.905323)" x="50.6" y="259.905323">10</text>
     </g>
    </g>
    <g id="ytick_3">
     <g id="line2d_9">
      <g>
       <use style="stroke:#000000;stroke-width:0.8;" x="57.6" xlink:href="#ma18e1a259d" y="213.531038"/>
      </g>
     </g>
     <g id="text_10">
      <text style="font-family:DejaVu Sans;font-size:10px;font-style:normal;font-weight:normal;text-anchor:end;" transform="rotate(-0, 50.6, 217.330257)" x="50.6" y="217.330257">20</text>
     </g>
    </g>
    <g id="ytick_4">
     <g id="line2d_10">
      <g>
       <use style="stroke:#000000;stroke-width:0.8;" x="57.6" xlink:href="#ma18e1a259d" y="170.955972"/>
      </g>
     </g>
     <g id="text_11">
      <text style="font-family:DejaVu Sans;font-size:10px;font-style:normal;font-weight:normal;text-anchor:end;" transform="rotate(-0, 50.6, 174.755191)" x="50.6" y="174.755191">30</text>
     </g>
    </g>
    <g id="ytick_5">
     <g id="line2d_11">
      <g>
       <use style="stroke:#000000;stroke-width:0.8;" x="57.6" xlink:href="#ma18e1a259d" y="128.380906"/>
      </g>
     </g>
     <g id="text_12">
      <text style="font-family:DejaVu Sans;font-size:10px;font-style:normal;font-weight:normal;text-anchor:end;" transform="rotate(-0, 50.6, 132.180125)" x="50.6" y="132.180125">40</text>
     </g>
    </g>
    <g id="ytick_6">
     <g id="line2d_12">
      <g>
       <use style="stroke:#000000;stroke-width:0.8;" x="57.6" xlink:href="#ma18e1a259d" y="85.80584"/>
      </g>
     </g>
     <g id="text_13">
      <text style="font-family:DejaVu Sans;font-size:10px;font-style:normal;font-weight:normal;text-anchor:end;" transform="rotate(-0, 50.6, 89.605059)" x="50.6" y="89.605059">50</text>
     </g>
    </g>
    <g id="ytick_7">
     <g id="line2d_13">
      <g>
       <use style="stroke:#000000;stroke-width:0.8;" x="57.6" xlink:href="#ma18e1a259d" y="43.230774"/>
      </g>
     </g>
     <g id="text_14">
      <text style="font-family:DejaVu Sans;font-size:10px;font-style:normal;font-weight:normal;text-anchor:end;" transform="rotate(-0, 50.6, 47.029993)" x="50.6" y="47.029993">60</text>
     </g>
    </g>
    <g id="text_15">
     <text style="font-family:DejaVu Sans;font-size:10px;font-style:normal;font-weight:normal;text-anchor:middle;" transform="rotate(-90, 31.795312, 174.528)" x="31.795312" y="174.528">Coin Flips Needed</text>
    </g>
   </g>
   <g id="line2d_14">
    <path clip-path="url(#pe0ff58b5a5)" d="M 73.832727 268.54893 
L 77.112066 290.974666 
L 80.391405 292.111919 
L 83.670744 292.683388 
L 86.950083 293.050488 
L 90.229421 293.314617 
L 93.50876 293.517681 
L 96.788099 293.680769 
L 100.067438 293.815881 
L 103.346777 293.930447 
L 106.626116 294.02936 
L 109.905455 294.116 
L 113.184793 294.192791 
L 116.464132 294.261527 
L 119.743471 294.323569 
L 123.02281 294.379969 
L 126.302149 294.43156 
L 129.581488 294.47901 
L 132.860826 294.522861 
L 136.140165 294.563559 
L 139.419504 294.601476 
L 142.698843 294.636924 
L 145.978182 294.670167 
L 149.257521 294.70143 
L 152.53686 294.730909 
L 155.816198 294.758771 
L 159.095537 294.785164 
L 162.374876 294.810214 
L 165.654215 294.834035 
L 168.933554 294.856727 
L 172.212893 294.878378 
L 175.492231 294.899068 
L 178.77157 294.918868 
L 182.050909 294.93784 
L 185.330248 294.956043 
L 188.609587 294.973529 
L 191.888926 294.990343 
L 195.168264 295.00653 
L 198.447603 295.022128 
L 201.726942 295.037172 
L 205.006281 295.051696 
L 208.28562 295.065729 
L 211.564959 295.079299 
L 214.844298 295.092432 
L 218.123636 295.10515 
L 221.402975 295.117476 
L 224.682314 295.12943 
L 227.961653 295.141031 
L 231.240992 295.152295 
L 234.520331 295.163239 
L 237.799669 295.173879 
L 241.079008 295.184228 
L 244.358347 295.1943 
L 247.637686 295.204107 
L 250.917025 295.21366 
L 254.196364 295.222971 
L 257.475702 295.23205 
L 260.755041 295.240907 
L 264.03438 295.24955 
L 267.313719 295.257988 
L 270.593058 295.266229 
L 273.872397 295.274281 
L 277.151736 295.282152 
L 280.431074 295.289847 
L 283.710413 295.297374 
L 286.989752 295.304739 
L 290.269091 295.311947 
L 293.54843 295.319003 
L 296.827769 295.325915 
L 300.107107 295.332685 
L 303.386446 295.33932 
L 306.665785 295.345823 
L 309.945124 295.352199 
L 313.224463 295.358453 
L 316.503802 295.364587 
L 319.78314 295.370606 
L 323.062479 295.376514 
L 326.341818 295.382313 
L 329.621157 295.388008 
L 332.900496 295.393601 
L 336.179835 295.399095 
L 339.459174 295.404494 
L 342.738512 295.4098 
L 346.017851 295.415015 
L 349.29719 295.420143 
L 352.576529 295.425185 
L 355.855868 295.430145 
L 359.135207 295.435024 
L 362.414545 295.439824 
L 365.693884 295.444548 
L 368.973223 295.449198 
L 372.252562 295.453775 
L 375.531901 295.458282 
L 378.81124 295.46272 
L 382.090579 295.467091 
L 385.369917 295.471397 
L 388.649256 295.47564 
L 391.928595 295.47982 
L 395.207934 295.483939 
L 398.487273 295.488 
" style="fill:none;stroke:#1f77b4;stroke-linecap:square;stroke-width:1.5;"/>
   </g>
   <g id="line2d_15">
    <path clip-path="url(#pe0ff58b5a5)" d="M 73.832727 53.568 
L 77.112066 283.924652 
L 80.391405 287.117782 
L 83.670744 285.90865 
L 86.950083 288.199189 
L 90.229421 289.680801 
L 93.50876 290.540817 
L 96.788099 290.932508 
L 100.067438 289.30614 
L 103.346777 290.949538 
L 106.626116 291.681829 
L 109.905455 290.889933 
L 113.184793 292.082035 
L 116.464132 292.099065 
L 119.743471 292.099065 
L 123.02281 292.1757 
L 126.302149 291.707374 
L 129.581488 292.29491 
L 132.860826 292.099065 
L 136.140165 292.703631 
L 139.419504 292.814326 
L 142.698843 292.31194 
L 145.978182 292.626995 
L 149.257521 292.899476 
L 152.53686 292.695116 
L 155.816198 292.882446 
L 159.095537 292.218275 
L 162.374876 292.695116 
L 165.654215 292.882446 
L 168.933554 293.086806 
L 172.212893 292.899476 
L 175.492231 293.359287 
L 178.77157 293.010171 
L 182.050909 292.695116 
L 185.330248 293.146411 
L 188.609587 293.469982 
L 191.888926 293.188986 
L 195.168264 293.299682 
L 198.447603 293.146411 
L 201.726942 293.223046 
L 205.006281 293.606222 
L 208.28562 293.487012 
L 211.564959 293.452952 
L 214.844298 293.069776 
L 218.123636 293.350772 
L 221.402975 293.427407 
L 224.682314 293.657312 
L 227.961653 293.640282 
L 231.240992 293.648797 
L 234.520331 293.827612 
L 237.799669 293.674342 
L 241.079008 293.836127 
L 244.358347 293.691372 
L 247.637686 293.844642 
L 250.917025 294.006428 
L 254.196364 293.836127 
L 257.475702 293.785037 
L 260.755041 293.708402 
L 264.03438 293.861672 
L 267.313719 294.040488 
L 270.593058 293.657312 
L 273.872397 293.716917 
L 277.151736 293.861672 
L 280.431074 293.955338 
L 283.710413 294.014943 
L 286.989752 293.810582 
L 290.269091 293.989398 
L 293.54843 294.014943 
L 296.827769 294.108608 
L 300.107107 294.057518 
L 303.386446 294.100093 
L 306.665785 294.185243 
L 309.945124 294.049003 
L 313.224463 294.142668 
L 316.503802 294.125638 
L 319.78314 294.083063 
L 323.062479 294.100093 
L 326.341818 294.117123 
L 329.621157 294.176728 
L 332.900496 294.159698 
L 336.179835 294.219303 
L 339.459174 294.227818 
L 342.738512 294.261878 
L 346.017851 294.321483 
L 349.29719 294.210788 
L 352.576529 294.278908 
L 355.855868 294.270393 
L 359.135207 294.338513 
L 362.414545 294.347028 
L 365.693884 294.338513 
L 368.973223 294.355543 
L 372.252562 294.381088 
L 375.531901 294.355543 
L 378.81124 294.364058 
L 382.090579 294.398118 
L 385.369917 294.372573 
L 388.649256 294.372573 
L 391.928595 294.406633 
L 395.207934 294.415148 
L 398.487273 294.423663 
" style="fill:none;stroke:#ff7f0e;stroke-linecap:square;stroke-width:1.5;"/>
   </g>
   <g id="patch_3">
    <path d="M 57.6 307.584 
L 57.6 41.472 
" style="fill:none;stroke:#000000;stroke-linecap:square;stroke-linejoin:miter;stroke-width:0.8;"/>
   </g>
   <g id="patch_4">
    <path d="M 414.72 307.584 
L 414.72 41.472 
" style="fill:none;stroke:#000000;stroke-linecap:square;stroke-linejoin:miter;stroke-width:0.8;"/>
   </g>
   <g id="patch_5">
    <path d="M 57.6 307.584 
L 414.72 307.584 
" style="fill:none;stroke:#000000;stroke-linecap:square;stroke-linejoin:miter;stroke-width:0.8;"/>
   </g>
   <g id="patch_6">
    <path d="M 57.6 41.472 
L 414.72 41.472 
" style="fill:none;stroke:#000000;stroke-linecap:square;stroke-linejoin:miter;stroke-width:0.8;"/>
   </g>
   <g id="text_16">
    <text style="font-family:DejaVu Sans;font-size:12px;font-style:normal;font-weight:normal;text-anchor:middle;" transform="rotate(-0, 236.16, 35.472)" x="236.16" y="35.472">Coin Flips for pow(x,3/4)</text>
   </g>
   <g id="legend_1">
    <g id="patch_7">
     <path d="M 219.784062 78.82825 
L 407.72 78.82825 
Q 409.72 78.82825 409.72 76.82825 
L 409.72 48.472 
Q 409.72 46.472 407.72 46.472 
L 219.784062 46.472 
Q 217.784062 46.472 217.784062 48.472 
L 217.784062 76.82825 
Q 217.784062 78.82825 219.784062 78.82825 
z
" style="fill:#ffffff;opacity:0.8;stroke:#cccccc;stroke-linejoin:miter;"/>
    </g>
    <g id="line2d_16">
     <path d="M 221.784062 54.570437 
L 241.784062 54.570437 
" style="fill:none;stroke:#1f77b4;stroke-linecap:square;stroke-width:1.5;"/>
    </g>
    <g id="line2d_17"/>
    <g id="text_17">
     <text style="font-family:DejaVu Sans;font-size:10px;font-style:normal;font-weight:normal;text-anchor:start;" transform="rotate(-0, 249.784062, 58.070437)" x="249.784062" y="58.070437">Coin Flip Lower Bound (Mendo)</text>
    </g>
    <g id="line2d_18">
     <path d="M 221.784062 69.248562 
L 241.784062 69.248562 
" style="fill:none;stroke:#ff7f0e;stroke-linecap:square;stroke-width:1.5;"/>
    </g>
    <g id="line2d_19"/>
    <g id="text_18">
     <text style="font-family:DejaVu Sans;font-size:10px;font-style:normal;font-weight:normal;text-anchor:start;" transform="rotate(-0, 249.784062, 72.748562)" x="249.784062" y="72.748562">Avg. Coins Flipped pow(x,3/4)</text>
    </g>
   </g>
  </g>
 </g>
 <defs>
  <clipPath id="pe0ff58b5a5">
   <rect height="266.112" width="357.12" x="57.6" y="41.472"/>
  </clipPath>
 </defs>
</svg>
