<?xml version="1.0" encoding="utf-8" standalone="no"?>
<!DOCTYPE svg PUBLIC "-//W3C//DTD SVG 1.1//EN"
  "http://www.w3.org/Graphics/SVG/1.1/DTD/svg11.dtd">
<!-- Created with matplotlib (https://matplotlib.org/) -->
<svg height="252pt" version="1.1" viewBox="0 0 324 252" width="324pt" xmlns="http://www.w3.org/2000/svg" xmlns:xlink="http://www.w3.org/1999/xlink">
 <defs>
  <style type="text/css">
*{stroke-linecap:butt;stroke-linejoin:round;}
  </style>
 </defs>
 <g id="figure_1">
  <g id="patch_1">
   <path d="M 0 252 
L 324 252 
L 324 0 
L 0 0 
z
" style="fill:#ffffff;"/>
  </g>
  <g id="axes_1">
   <g id="patch_2">
    <path d="M 40.5 224.28 
L 291.6 224.28 
L 291.6 30.24 
L 40.5 30.24 
z
" style="fill:#ffffff;"/>
   </g>
   <g id="matplotlib.axis_1">
    <g id="xtick_1">
     <g id="line2d_1">
      <defs>
       <path d="M 0 0 
L 0 3.5 
" id="m824871b6af" style="stroke:#000000;stroke-width:0.8;"/>
      </defs>
      <g>
       <use style="stroke:#000000;stroke-width:0.8;" x="51.890805" xlink:href="#m824871b6af" y="224.28"/>
      </g>
     </g>
     <g id="text_1">
      <text style="font-family:DejaVu Sans;font-size:10px;font-style:normal;font-weight:normal;text-anchor:middle;" transform="rotate(-0, 51.890805, 238.878438)" x="51.890805" y="238.878438">0.0</text>
     </g>
    </g>
    <g id="xtick_2">
     <g id="line2d_2">
      <g>
       <use style="stroke:#000000;stroke-width:0.8;" x="97.554483" xlink:href="#m824871b6af" y="224.28"/>
      </g>
     </g>
     <g id="text_2">
      <text style="font-family:DejaVu Sans;font-size:10px;font-style:normal;font-weight:normal;text-anchor:middle;" transform="rotate(-0, 97.554483, 238.878438)" x="97.554483" y="238.878438">0.2</text>
     </g>
    </g>
    <g id="xtick_3">
     <g id="line2d_3">
      <g>
       <use style="stroke:#000000;stroke-width:0.8;" x="143.218161" xlink:href="#m824871b6af" y="224.28"/>
      </g>
     </g>
     <g id="text_3">
      <text style="font-family:DejaVu Sans;font-size:10px;font-style:normal;font-weight:normal;text-anchor:middle;" transform="rotate(-0, 143.218161, 238.878438)" x="143.218161" y="238.878438">0.4</text>
     </g>
    </g>
    <g id="xtick_4">
     <g id="line2d_4">
      <g>
       <use style="stroke:#000000;stroke-width:0.8;" x="188.881839" xlink:href="#m824871b6af" y="224.28"/>
      </g>
     </g>
     <g id="text_4">
      <text style="font-family:DejaVu Sans;font-size:10px;font-style:normal;font-weight:normal;text-anchor:middle;" transform="rotate(-0, 188.881839, 238.878438)" x="188.881839" y="238.878438">0.6</text>
     </g>
    </g>
    <g id="xtick_5">
     <g id="line2d_5">
      <g>
       <use style="stroke:#000000;stroke-width:0.8;" x="234.545517" xlink:href="#m824871b6af" y="224.28"/>
      </g>
     </g>
     <g id="text_5">
      <text style="font-family:DejaVu Sans;font-size:10px;font-style:normal;font-weight:normal;text-anchor:middle;" transform="rotate(-0, 234.545517, 238.878438)" x="234.545517" y="238.878438">0.8</text>
     </g>
    </g>
    <g id="xtick_6">
     <g id="line2d_6">
      <g>
       <use style="stroke:#000000;stroke-width:0.8;" x="280.209195" xlink:href="#m824871b6af" y="224.28"/>
      </g>
     </g>
     <g id="text_6">
      <text style="font-family:DejaVu Sans;font-size:10px;font-style:normal;font-weight:normal;text-anchor:middle;" transform="rotate(-0, 280.209195, 238.878438)" x="280.209195" y="238.878438">1.0</text>
     </g>
    </g>
    <g id="text_7">
     <text style="font-family:DejaVu Sans;font-size:10px;font-style:normal;font-weight:normal;text-anchor:middle;" transform="rotate(-0, 166.05, 252.556563)" x="166.05" y="252.556563">Input Coin's Heads Probability (λ)</text>
    </g>
   </g>
   <g id="matplotlib.axis_2">
    <g id="ytick_1">
     <g id="line2d_7">
      <defs>
       <path d="M 0 0 
L -3.5 0 
" id="m9917c65d30" style="stroke:#000000;stroke-width:0.8;"/>
      </defs>
      <g>
       <use style="stroke:#000000;stroke-width:0.8;" x="40.5" xlink:href="#m9917c65d30" y="217.241818"/>
      </g>
     </g>
     <g id="text_8">
      <text style="font-family:DejaVu Sans;font-size:10px;font-style:normal;font-weight:normal;text-anchor:end;" transform="rotate(-0, 33.5, 221.041037)" x="33.5" y="221.041037">0.0</text>
     </g>
    </g>
    <g id="ytick_2">
     <g id="line2d_8">
      <g>
       <use style="stroke:#000000;stroke-width:0.8;" x="40.5" xlink:href="#m9917c65d30" y="181.605455"/>
      </g>
     </g>
     <g id="text_9">
      <text style="font-family:DejaVu Sans;font-size:10px;font-style:normal;font-weight:normal;text-anchor:end;" transform="rotate(-0, 33.5, 185.404673)" x="33.5" y="185.404673">0.2</text>
     </g>
    </g>
    <g id="ytick_3">
     <g id="line2d_9">
      <g>
       <use style="stroke:#000000;stroke-width:0.8;" x="40.5" xlink:href="#m9917c65d30" y="145.969091"/>
      </g>
     </g>
     <g id="text_10">
      <text style="font-family:DejaVu Sans;font-size:10px;font-style:normal;font-weight:normal;text-anchor:end;" transform="rotate(-0, 33.5, 149.76831)" x="33.5" y="149.76831">0.4</text>
     </g>
    </g>
    <g id="ytick_4">
     <g id="line2d_10">
      <g>
       <use style="stroke:#000000;stroke-width:0.8;" x="40.5" xlink:href="#m9917c65d30" y="110.332727"/>
      </g>
     </g>
     <g id="text_11">
      <text style="font-family:DejaVu Sans;font-size:10px;font-style:normal;font-weight:normal;text-anchor:end;" transform="rotate(-0, 33.5, 114.131946)" x="33.5" y="114.131946">0.6</text>
     </g>
    </g>
    <g id="ytick_5">
     <g id="line2d_11">
      <g>
       <use style="stroke:#000000;stroke-width:0.8;" x="40.5" xlink:href="#m9917c65d30" y="74.696364"/>
      </g>
     </g>
     <g id="text_12">
      <text style="font-family:DejaVu Sans;font-size:10px;font-style:normal;font-weight:normal;text-anchor:end;" transform="rotate(-0, 33.5, 78.495582)" x="33.5" y="78.495582">0.8</text>
     </g>
    </g>
    <g id="ytick_6">
     <g id="line2d_12">
      <g>
       <use style="stroke:#000000;stroke-width:0.8;" x="40.5" xlink:href="#m9917c65d30" y="39.06"/>
      </g>
     </g>
     <g id="text_13">
      <text style="font-family:DejaVu Sans;font-size:10px;font-style:normal;font-weight:normal;text-anchor:end;" transform="rotate(-0, 33.5, 42.859219)" x="33.5" y="42.859219">1.0</text>
     </g>
    </g>
    <g id="text_14">
     <text style="font-family:DejaVu Sans;font-size:10px;font-style:normal;font-weight:normal;text-anchor:middle;" transform="rotate(-90, 11.517187, 127.26)" x="11.517187" y="127.26">Simulated Mean / Function Value</text>
    </g>
   </g>
   <g id="line2d_13">
    <path clip-path="url(#pac623809f7)" d="M 51.913636 215.46 
L 54.219421 199.247228 
L 56.525207 191.85608 
L 58.830992 186.176305 
L 61.136777 181.385208 
L 63.442562 177.16281 
L 65.748347 173.344696 
L 68.054132 169.833087 
L 70.359917 166.564228 
L 72.665702 163.493808 
L 74.971488 160.589555 
L 77.277273 157.827095 
L 79.583058 155.187489 
L 81.888843 152.655673 
L 84.194628 150.219429 
L 86.500413 147.868689 
L 88.806198 145.595036 
L 91.111983 143.391349 
L 93.417769 141.251541 
L 95.723554 139.170359 
L 98.029339 137.143235 
L 100.335124 135.166161 
L 102.640909 133.235605 
L 104.946694 131.348429 
L 107.252479 129.501835 
L 109.558264 127.693311 
L 111.86405 125.920596 
L 114.169835 124.181644 
L 116.47562 122.474596 
L 118.781405 120.797758 
L 121.08719 119.14958 
L 123.392975 117.528642 
L 125.69876 115.933635 
L 128.004545 114.363354 
L 130.310331 112.816683 
L 132.616116 111.292589 
L 134.921901 109.79011 
L 137.227686 108.308352 
L 139.533471 106.846481 
L 141.839256 105.403717 
L 144.145041 103.97933 
L 146.450826 102.572635 
L 148.756612 101.182988 
L 151.062397 99.809785 
L 153.368182 98.452455 
L 155.673967 97.11046 
L 157.979752 95.783291 
L 160.285537 94.470469 
L 162.591322 93.171537 
L 164.897107 91.886065 
L 167.202893 90.613641 
L 169.508678 89.353876 
L 171.814463 88.1064 
L 174.120248 86.870861 
L 176.426033 85.646921 
L 178.731818 84.43426 
L 181.037603 83.232573 
L 183.343388 82.041566 
L 185.649174 80.860959 
L 187.954959 79.690486 
L 190.260744 78.529888 
L 192.566529 77.378921 
L 194.872314 76.237349 
L 197.178099 75.104945 
L 199.483884 73.981492 
L 201.789669 72.86678 
L 204.095455 71.76061 
L 206.40124 70.662787 
L 208.707025 69.573126 
L 211.01281 68.491446 
L 213.318595 67.417576 
L 215.62438 66.351348 
L 217.930165 65.292602 
L 220.23595 64.241182 
L 222.541736 63.196938 
L 224.847521 62.159725 
L 227.153306 61.129403 
L 229.459091 60.105837 
L 231.764876 59.088896 
L 234.070661 58.078452 
L 236.376446 57.074382 
L 238.682231 56.076567 
L 240.988017 55.084893 
L 243.293802 54.099246 
L 245.599587 53.119518 
L 247.905372 52.145605 
L 250.211157 51.177403 
L 252.516942 50.214813 
L 254.822727 49.257739 
L 257.128512 48.306087 
L 259.434298 47.359766 
L 261.740083 46.418687 
L 264.045868 45.482764 
L 266.351653 44.551914 
L 268.657438 43.626054 
L 270.963223 42.705106 
L 273.269008 41.788992 
L 275.574793 40.877636 
L 277.880579 39.970966 
L 280.186364 39.068909 
" style="fill:none;stroke:#1f77b4;stroke-linecap:square;stroke-width:1.5;"/>
   </g>
   <g id="line2d_14">
    <path clip-path="url(#pac623809f7)" d="M 51.913636 214.747273 
L 54.219421 198.710909 
L 56.525207 194.790909 
L 58.830992 184.812727 
L 61.136777 185.169091 
L 63.442562 181.249091 
L 65.748347 179.467273 
L 68.054132 167.350909 
L 70.359917 165.925455 
L 72.665702 162.361818 
L 74.971488 154.165455 
L 77.277273 157.372727 
L 79.583058 163.074545 
L 81.888843 153.809091 
L 84.194628 143.118182 
L 86.500413 142.405455 
L 88.806198 147.750909 
L 91.111983 139.554545 
L 93.417769 136.703636 
L 95.723554 140.623636 
L 98.029339 140.98 
L 100.335124 142.761818 
L 102.640909 132.783636 
L 104.946694 129.22 
L 107.252479 127.438182 
L 109.558264 126.012727 
L 111.86405 130.645455 
L 114.169835 124.943636 
L 116.47562 120.310909 
L 118.781405 119.598182 
L 121.08719 119.598182 
L 123.392975 116.747273 
L 125.69876 118.529091 
L 128.004545 116.747273 
L 130.310331 114.965455 
L 132.616116 112.470909 
L 134.921901 109.62 
L 137.227686 105.7 
L 139.533471 103.205455 
L 141.839256 111.758182 
L 144.145041 106.056364 
L 146.450826 107.125455 
L 148.756612 107.125455 
L 151.062397 95.721818 
L 153.368182 103.561818 
L 155.673967 102.136364 
L 157.979752 92.158182 
L 160.285537 94.296364 
L 162.591322 95.009091 
L 164.897107 91.801818 
L 167.202893 90.732727 
L 169.508678 84.674545 
L 171.814463 90.376364 
L 174.120248 87.881818 
L 176.426033 84.318182 
L 178.731818 76.834545 
L 181.037603 82.536364 
L 183.343388 85.743636 
L 185.649174 79.685455 
L 187.954959 82.536364 
L 190.260744 84.318182 
L 192.566529 75.765455 
L 194.872314 75.765455 
L 197.178099 79.329091 
L 199.483884 73.270909 
L 201.789669 75.765455 
L 204.095455 71.489091 
L 206.40124 68.638182 
L 208.707025 72.201818 
L 211.01281 66.856364 
L 213.318595 71.489091 
L 215.62438 69.707273 
L 217.930165 64.361818 
L 220.23595 67.212727 
L 222.541736 62.58 
L 224.847521 61.154545 
L 227.153306 62.223636 
L 229.459091 63.292727 
L 231.764876 54.383636 
L 234.070661 56.878182 
L 236.376446 56.521818 
L 238.682231 54.027273 
L 240.988017 51.889091 
L 243.293802 51.889091 
L 245.599587 51.532727 
L 247.905372 51.889091 
L 250.211157 55.096364 
L 252.516942 47.256364 
L 254.822727 48.325455 
L 257.128512 46.543636 
L 259.434298 45.118182 
L 261.740083 44.405455 
L 264.045868 46.187273 
L 266.351653 42.98 
L 268.657438 42.98 
L 270.963223 42.267273 
L 273.269008 41.554545 
L 275.574793 41.910909 
L 277.880579 40.485455 
L 280.186364 39.06 
" style="fill:none;stroke:#ff7f0e;stroke-linecap:square;stroke-width:1.5;"/>
   </g>
   <g id="patch_3">
    <path d="M 40.5 224.28 
L 40.5 30.24 
" style="fill:none;stroke:#000000;stroke-linecap:square;stroke-linejoin:miter;stroke-width:0.8;"/>
   </g>
   <g id="patch_4">
    <path d="M 291.6 224.28 
L 291.6 30.24 
" style="fill:none;stroke:#000000;stroke-linecap:square;stroke-linejoin:miter;stroke-width:0.8;"/>
   </g>
   <g id="patch_5">
    <path d="M 40.5 224.28 
L 291.6 224.28 
" style="fill:none;stroke:#000000;stroke-linecap:square;stroke-linejoin:miter;stroke-width:0.8;"/>
   </g>
   <g id="patch_6">
    <path d="M 40.5 30.24 
L 291.6 30.24 
" style="fill:none;stroke:#000000;stroke-linecap:square;stroke-linejoin:miter;stroke-width:0.8;"/>
   </g>
   <g id="text_15">
    <text style="font-family:DejaVu Sans;font-size:12px;font-style:normal;font-weight:normal;text-anchor:middle;" transform="rotate(-0, 166.05, 24.24)" x="166.05" y="24.24">Expected Value in pow(x,2/4) Algorithm</text>
   </g>
   <g id="legend_1">
    <g id="patch_7">
     <path d="M 102.007813 219.28 
L 284.6 219.28 
Q 286.6 219.28 286.6 217.28 
L 286.6 188.92375 
Q 286.6 186.92375 284.6 186.92375 
L 102.007813 186.92375 
Q 100.007813 186.92375 100.007813 188.92375 
L 100.007813 217.28 
Q 100.007813 219.28 102.007813 219.28 
z
" style="fill:#ffffff;opacity:0.8;stroke:#cccccc;stroke-linejoin:miter;"/>
    </g>
    <g id="line2d_15">
     <path d="M 104.007813 195.022188 
L 124.007813 195.022188 
" style="fill:none;stroke:#1f77b4;stroke-linecap:square;stroke-width:1.5;"/>
    </g>
    <g id="line2d_16"/>
    <g id="text_16">
     <text style="font-family:DejaVu Sans;font-size:10px;font-style:normal;font-weight:normal;text-anchor:start;" transform="rotate(-0, 132.007813, 198.522188)" x="132.007813" y="198.522188">pow(x,2/4)</text>
    </g>
    <g id="line2d_17">
     <path d="M 104.007813 209.700312 
L 124.007813 209.700312 
" style="fill:none;stroke:#ff7f0e;stroke-linecap:square;stroke-width:1.5;"/>
    </g>
    <g id="line2d_18"/>
    <g id="text_17">
     <text style="font-family:DejaVu Sans;font-size:10px;font-style:normal;font-weight:normal;text-anchor:start;" transform="rotate(-0, 132.007813, 213.200312)" x="132.007813" y="213.200312">Simulated Mean of pow(x,2/4)</text>
    </g>
   </g>
  </g>
 </g>
 <defs>
  <clipPath id="pac623809f7">
   <rect height="194.04" width="251.1" x="40.5" y="30.24"/>
  </clipPath>
 </defs>
</svg>
