<?xml version="1.0" encoding="utf-8" standalone="no"?>
<!DOCTYPE svg PUBLIC "-//W3C//DTD SVG 1.1//EN"
  "http://www.w3.org/Graphics/SVG/1.1/DTD/svg11.dtd">
<!-- Created with matplotlib (https://matplotlib.org/) -->
<svg height="252pt" version="1.1" viewBox="0 0 324 252" width="324pt" xmlns="http://www.w3.org/2000/svg" xmlns:xlink="http://www.w3.org/1999/xlink">
 <defs>
  <style type="text/css">
*{stroke-linecap:butt;stroke-linejoin:round;}
  </style>
 </defs>
 <g id="figure_1">
  <g id="patch_1">
   <path d="M 0 252 
L 324 252 
L 324 0 
L 0 0 
z
" style="fill:#ffffff;"/>
  </g>
  <g id="axes_1">
   <g id="patch_2">
    <path d="M 40.5 224.28 
L 291.6 224.28 
L 291.6 30.24 
L 40.5 30.24 
z
" style="fill:#ffffff;"/>
   </g>
   <g id="matplotlib.axis_1">
    <g id="xtick_1">
     <g id="line2d_1">
      <defs>
       <path d="M 0 0 
L 0 3.5 
" id="md1e9cad90f" style="stroke:#000000;stroke-width:0.8;"/>
      </defs>
      <g>
       <use style="stroke:#000000;stroke-width:0.8;" x="51.890805" xlink:href="#md1e9cad90f" y="224.28"/>
      </g>
     </g>
     <g id="text_1">
      <text style="font-family:DejaVu Sans;font-size:10px;font-style:normal;font-weight:normal;text-anchor:middle;" transform="rotate(-0, 51.890805, 238.878438)" x="51.890805" y="238.878438">0.0</text>
     </g>
    </g>
    <g id="xtick_2">
     <g id="line2d_2">
      <g>
       <use style="stroke:#000000;stroke-width:0.8;" x="97.554483" xlink:href="#md1e9cad90f" y="224.28"/>
      </g>
     </g>
     <g id="text_2">
      <text style="font-family:DejaVu Sans;font-size:10px;font-style:normal;font-weight:normal;text-anchor:middle;" transform="rotate(-0, 97.554483, 238.878438)" x="97.554483" y="238.878438">0.2</text>
     </g>
    </g>
    <g id="xtick_3">
     <g id="line2d_3">
      <g>
       <use style="stroke:#000000;stroke-width:0.8;" x="143.218161" xlink:href="#md1e9cad90f" y="224.28"/>
      </g>
     </g>
     <g id="text_3">
      <text style="font-family:DejaVu Sans;font-size:10px;font-style:normal;font-weight:normal;text-anchor:middle;" transform="rotate(-0, 143.218161, 238.878438)" x="143.218161" y="238.878438">0.4</text>
     </g>
    </g>
    <g id="xtick_4">
     <g id="line2d_4">
      <g>
       <use style="stroke:#000000;stroke-width:0.8;" x="188.881839" xlink:href="#md1e9cad90f" y="224.28"/>
      </g>
     </g>
     <g id="text_4">
      <text style="font-family:DejaVu Sans;font-size:10px;font-style:normal;font-weight:normal;text-anchor:middle;" transform="rotate(-0, 188.881839, 238.878438)" x="188.881839" y="238.878438">0.6</text>
     </g>
    </g>
    <g id="xtick_5">
     <g id="line2d_5">
      <g>
       <use style="stroke:#000000;stroke-width:0.8;" x="234.545517" xlink:href="#md1e9cad90f" y="224.28"/>
      </g>
     </g>
     <g id="text_5">
      <text style="font-family:DejaVu Sans;font-size:10px;font-style:normal;font-weight:normal;text-anchor:middle;" transform="rotate(-0, 234.545517, 238.878438)" x="234.545517" y="238.878438">0.8</text>
     </g>
    </g>
    <g id="xtick_6">
     <g id="line2d_6">
      <g>
       <use style="stroke:#000000;stroke-width:0.8;" x="280.209195" xlink:href="#md1e9cad90f" y="224.28"/>
      </g>
     </g>
     <g id="text_6">
      <text style="font-family:DejaVu Sans;font-size:10px;font-style:normal;font-weight:normal;text-anchor:middle;" transform="rotate(-0, 280.209195, 238.878438)" x="280.209195" y="238.878438">1.0</text>
     </g>
    </g>
    <g id="text_7">
     <text style="font-family:DejaVu Sans;font-size:10px;font-style:normal;font-weight:normal;text-anchor:middle;" transform="rotate(-0, 166.05, 252.556563)" x="166.05" y="252.556563">Probability</text>
    </g>
   </g>
   <g id="matplotlib.axis_2">
    <g id="ytick_1">
     <g id="line2d_7">
      <defs>
       <path d="M 0 0 
L -3.5 0 
" id="m9d36b2c828" style="stroke:#000000;stroke-width:0.8;"/>
      </defs>
      <g>
       <use style="stroke:#000000;stroke-width:0.8;" x="40.5" xlink:href="#m9d36b2c828" y="194.503757"/>
      </g>
     </g>
     <g id="text_8">
      <text style="font-family:DejaVu Sans;font-size:10px;font-style:normal;font-weight:normal;text-anchor:end;" transform="rotate(-0, 33.5, 198.302976)" x="33.5" y="198.302976">5</text>
     </g>
    </g>
    <g id="ytick_2">
     <g id="line2d_8">
      <g>
       <use style="stroke:#000000;stroke-width:0.8;" x="40.5" xlink:href="#m9d36b2c828" y="160.21671"/>
      </g>
     </g>
     <g id="text_9">
      <text style="font-family:DejaVu Sans;font-size:10px;font-style:normal;font-weight:normal;text-anchor:end;" transform="rotate(-0, 33.5, 164.015928)" x="33.5" y="164.015928">10</text>
     </g>
    </g>
    <g id="ytick_3">
     <g id="line2d_9">
      <g>
       <use style="stroke:#000000;stroke-width:0.8;" x="40.5" xlink:href="#m9d36b2c828" y="125.929663"/>
      </g>
     </g>
     <g id="text_10">
      <text style="font-family:DejaVu Sans;font-size:10px;font-style:normal;font-weight:normal;text-anchor:end;" transform="rotate(-0, 33.5, 129.728881)" x="33.5" y="129.728881">15</text>
     </g>
    </g>
    <g id="ytick_4">
     <g id="line2d_10">
      <g>
       <use style="stroke:#000000;stroke-width:0.8;" x="40.5" xlink:href="#m9d36b2c828" y="91.642615"/>
      </g>
     </g>
     <g id="text_11">
      <text style="font-family:DejaVu Sans;font-size:10px;font-style:normal;font-weight:normal;text-anchor:end;" transform="rotate(-0, 33.5, 95.441834)" x="33.5" y="95.441834">20</text>
     </g>
    </g>
    <g id="ytick_5">
     <g id="line2d_11">
      <g>
       <use style="stroke:#000000;stroke-width:0.8;" x="40.5" xlink:href="#m9d36b2c828" y="57.355568"/>
      </g>
     </g>
     <g id="text_12">
      <text style="font-family:DejaVu Sans;font-size:10px;font-style:normal;font-weight:normal;text-anchor:end;" transform="rotate(-0, 33.5, 61.154787)" x="33.5" y="61.154787">25</text>
     </g>
    </g>
    <g id="text_13">
     <text style="font-family:DejaVu Sans;font-size:10px;font-style:normal;font-weight:normal;text-anchor:middle;" transform="rotate(-90, 14.695312, 127.26)" x="14.695312" y="127.26">Average Bits Consumed Per Call</text>
    </g>
   </g>
   <g id="line2d_12">
    <path clip-path="url(#p2272430b11)" d="M 51.913636 39.06 
L 54.219421 166.882112 
L 56.525207 163.905996 
L 58.830992 164.166578 
L 61.136777 182.448431 
L 63.442562 188.304659 
L 65.748347 184.629087 
L 68.054132 180.459782 
L 70.359917 184.231357 
L 72.665702 186.384584 
L 74.971488 187.262332 
L 77.277273 189.3607 
L 79.583058 192.062519 
L 81.888843 191.788223 
L 84.194628 194.352894 
L 86.500413 190.156159 
L 88.806198 193.200849 
L 91.111983 193.077416 
L 93.417769 194.778053 
L 95.723554 192.515108 
L 98.029339 196.300398 
L 100.335124 197.534732 
L 102.640909 196.396402 
L 104.946694 195.340361 
L 107.252479 199.098221 
L 109.558264 198.714206 
L 111.86405 194.860342 
L 114.169835 196.958709 
L 116.47562 197.452443 
L 118.781405 198.83764 
L 121.08719 199.043362 
L 123.392975 199.633099 
L 125.69876 200.359984 
L 128.004545 199.783962 
L 130.310331 201.196588 
L 132.616116 199.962255 
L 134.921901 202.828652 
L 137.227686 202.280059 
L 139.533471 202.376063 
L 141.839256 202.746363 
L 144.145041 201.978333 
L 146.450826 201.621748 
L 148.756612 204.392141 
L 151.062397 202.499496 
L 153.368182 204.652723 
L 155.673967 203.651541 
L 157.979752 203.843548 
L 160.285537 203.774974 
L 162.591322 205.091597 
L 164.897107 205.119027 
L 167.202893 203.7064 
L 169.508678 205.448182 
L 171.814463 205.695049 
L 174.120248 204.940734 
L 176.426033 205.681334 
L 178.731818 207.477975 
L 181.037603 206.586512 
L 183.343388 206.888238 
L 185.649174 205.599045 
L 187.954959 206.531653 
L 190.260744 208.273435 
L 192.566529 208.561446 
L 194.872314 208.300865 
L 197.178099 208.026568 
L 199.483884 208.712309 
L 201.789669 209.754635 
L 204.095455 207.820846 
L 206.40124 209.590058 
L 208.707025 208.547731 
L 211.01281 208.808313 
L 213.318595 208.479157 
L 215.62438 211.551277 
L 217.930165 210.920395 
L 220.23595 209.79578 
L 222.541736 210.358087 
L 224.847521 211.372984 
L 227.153306 211.139832 
L 229.459091 211.139832 
L 231.764876 211.811858 
L 234.070661 211.249551 
L 236.376446 212.401595 
L 238.682231 212.401595 
L 240.988017 211.935292 
L 243.293802 212.127299 
L 245.599587 212.44274 
L 247.905372 212.826755 
L 250.211157 213.142196 
L 252.516942 213.320488 
L 254.822727 213.334203 
L 257.128512 213.306773 
L 259.434298 212.936473 
L 261.740083 213.251914 
L 264.045868 214.335385 
L 266.351653 212.936473 
L 268.657438 213.279344 
L 270.963223 214.486248 
L 273.269008 214.568537 
L 275.574793 214.925122 
L 277.880579 214.445103 
L 280.186364 215.46 
" style="fill:none;stroke:#1f77b4;stroke-linecap:square;stroke-width:1.5;"/>
   </g>
   <g id="patch_3">
    <path d="M 40.5 224.28 
L 40.5 30.24 
" style="fill:none;stroke:#000000;stroke-linecap:square;stroke-linejoin:miter;stroke-width:0.8;"/>
   </g>
   <g id="patch_4">
    <path d="M 291.6 224.28 
L 291.6 30.24 
" style="fill:none;stroke:#000000;stroke-linecap:square;stroke-linejoin:miter;stroke-width:0.8;"/>
   </g>
   <g id="patch_5">
    <path d="M 40.5 224.28 
L 291.6 224.28 
" style="fill:none;stroke:#000000;stroke-linecap:square;stroke-linejoin:miter;stroke-width:0.8;"/>
   </g>
   <g id="patch_6">
    <path d="M 40.5 30.24 
L 291.6 30.24 
" style="fill:none;stroke:#000000;stroke-linecap:square;stroke-linejoin:miter;stroke-width:0.8;"/>
   </g>
   <g id="text_14">
    <text style="font-family:DejaVu Sans;font-size:12px;font-style:normal;font-weight:normal;text-anchor:middle;" transform="rotate(-0, 166.05, 24.24)" x="166.05" y="24.24">Avg. Bits Consumed by pow(x,4/5) Algorithm</text>
   </g>
  </g>
 </g>
 <defs>
  <clipPath id="p2272430b11">
   <rect height="194.04" width="251.1" x="40.5" y="30.24"/>
  </clipPath>
 </defs>
</svg>
