<?xml version="1.0" encoding="utf-8" standalone="no"?>
<!DOCTYPE svg PUBLIC "-//W3C//DTD SVG 1.1//EN"
  "http://www.w3.org/Graphics/SVG/1.1/DTD/svg11.dtd">
<!-- Created with matplotlib (https://matplotlib.org/) -->
<svg height="345.6pt" version="1.1" viewBox="0 0 460.8 345.6" width="460.8pt" xmlns="http://www.w3.org/2000/svg" xmlns:xlink="http://www.w3.org/1999/xlink">
 <defs>
  <style type="text/css">
*{stroke-linecap:butt;stroke-linejoin:round;}
  </style>
 </defs>
 <g id="figure_1">
  <g id="patch_1">
   <path d="M 0 345.6 
L 460.8 345.6 
L 460.8 0 
L 0 0 
z
" style="fill:#ffffff;"/>
  </g>
  <g id="axes_1">
   <g id="patch_2">
    <path d="M 57.6 307.584 
L 414.72 307.584 
L 414.72 41.472 
L 57.6 41.472 
z
" style="fill:#ffffff;"/>
   </g>
   <g id="matplotlib.axis_1">
    <g id="xtick_1">
     <g id="line2d_1">
      <defs>
       <path d="M 0 0 
L 0 3.5 
" id="m9897db3caa" style="stroke:#000000;stroke-width:0.8;"/>
      </defs>
      <g>
       <use style="stroke:#000000;stroke-width:0.8;" x="73.800255" xlink:href="#m9897db3caa" y="307.584"/>
      </g>
     </g>
     <g id="text_1">
      <text style="font-family:DejaVu Sans;font-size:10px;font-style:normal;font-weight:normal;text-anchor:middle;" transform="rotate(-0, 73.800255, 322.182437)" x="73.800255" y="322.182437">0.0</text>
     </g>
    </g>
    <g id="xtick_2">
     <g id="line2d_2">
      <g>
       <use style="stroke:#000000;stroke-width:0.8;" x="138.744153" xlink:href="#m9897db3caa" y="307.584"/>
      </g>
     </g>
     <g id="text_2">
      <text style="font-family:DejaVu Sans;font-size:10px;font-style:normal;font-weight:normal;text-anchor:middle;" transform="rotate(-0, 138.744153, 322.182437)" x="138.744153" y="322.182437">0.2</text>
     </g>
    </g>
    <g id="xtick_3">
     <g id="line2d_3">
      <g>
       <use style="stroke:#000000;stroke-width:0.8;" x="203.688051" xlink:href="#m9897db3caa" y="307.584"/>
      </g>
     </g>
     <g id="text_3">
      <text style="font-family:DejaVu Sans;font-size:10px;font-style:normal;font-weight:normal;text-anchor:middle;" transform="rotate(-0, 203.688051, 322.182437)" x="203.688051" y="322.182437">0.4</text>
     </g>
    </g>
    <g id="xtick_4">
     <g id="line2d_4">
      <g>
       <use style="stroke:#000000;stroke-width:0.8;" x="268.631949" xlink:href="#m9897db3caa" y="307.584"/>
      </g>
     </g>
     <g id="text_4">
      <text style="font-family:DejaVu Sans;font-size:10px;font-style:normal;font-weight:normal;text-anchor:middle;" transform="rotate(-0, 268.631949, 322.182437)" x="268.631949" y="322.182437">0.6</text>
     </g>
    </g>
    <g id="xtick_5">
     <g id="line2d_5">
      <g>
       <use style="stroke:#000000;stroke-width:0.8;" x="333.575847" xlink:href="#m9897db3caa" y="307.584"/>
      </g>
     </g>
     <g id="text_5">
      <text style="font-family:DejaVu Sans;font-size:10px;font-style:normal;font-weight:normal;text-anchor:middle;" transform="rotate(-0, 333.575847, 322.182437)" x="333.575847" y="322.182437">0.8</text>
     </g>
    </g>
    <g id="xtick_6">
     <g id="line2d_6">
      <g>
       <use style="stroke:#000000;stroke-width:0.8;" x="398.519745" xlink:href="#m9897db3caa" y="307.584"/>
      </g>
     </g>
     <g id="text_6">
      <text style="font-family:DejaVu Sans;font-size:10px;font-style:normal;font-weight:normal;text-anchor:middle;" transform="rotate(-0, 398.519745, 322.182437)" x="398.519745" y="322.182437">1.0</text>
     </g>
    </g>
    <g id="text_7">
     <text style="font-family:DejaVu Sans;font-size:10px;font-style:normal;font-weight:normal;text-anchor:middle;" transform="rotate(-0, 236.16, 335.860562)" x="236.16" y="335.860562">Input Coin's Heads Probability (λ)</text>
    </g>
   </g>
   <g id="matplotlib.axis_2">
    <g id="ytick_1">
     <g id="line2d_7">
      <defs>
       <path d="M 0 0 
L -3.5 0 
" id="m52757b1706" style="stroke:#000000;stroke-width:0.8;"/>
      </defs>
      <g>
       <use style="stroke:#000000;stroke-width:0.8;" x="57.6" xlink:href="#m52757b1706" y="295.495833"/>
      </g>
     </g>
     <g id="text_8">
      <text style="font-family:DejaVu Sans;font-size:10px;font-style:normal;font-weight:normal;text-anchor:end;" transform="rotate(-0, 50.6, 299.295052)" x="50.6" y="299.295052">0</text>
     </g>
    </g>
    <g id="ytick_2">
     <g id="line2d_8">
      <g>
       <use style="stroke:#000000;stroke-width:0.8;" x="57.6" xlink:href="#m52757b1706" y="262.117269"/>
      </g>
     </g>
     <g id="text_9">
      <text style="font-family:DejaVu Sans;font-size:10px;font-style:normal;font-weight:normal;text-anchor:end;" transform="rotate(-0, 50.6, 265.916488)" x="50.6" y="265.916488">1</text>
     </g>
    </g>
    <g id="ytick_3">
     <g id="line2d_9">
      <g>
       <use style="stroke:#000000;stroke-width:0.8;" x="57.6" xlink:href="#m52757b1706" y="228.738705"/>
      </g>
     </g>
     <g id="text_10">
      <text style="font-family:DejaVu Sans;font-size:10px;font-style:normal;font-weight:normal;text-anchor:end;" transform="rotate(-0, 50.6, 232.537924)" x="50.6" y="232.537924">2</text>
     </g>
    </g>
    <g id="ytick_4">
     <g id="line2d_10">
      <g>
       <use style="stroke:#000000;stroke-width:0.8;" x="57.6" xlink:href="#m52757b1706" y="195.360141"/>
      </g>
     </g>
     <g id="text_11">
      <text style="font-family:DejaVu Sans;font-size:10px;font-style:normal;font-weight:normal;text-anchor:end;" transform="rotate(-0, 50.6, 199.159359)" x="50.6" y="199.159359">3</text>
     </g>
    </g>
    <g id="ytick_5">
     <g id="line2d_11">
      <g>
       <use style="stroke:#000000;stroke-width:0.8;" x="57.6" xlink:href="#m52757b1706" y="161.981576"/>
      </g>
     </g>
     <g id="text_12">
      <text style="font-family:DejaVu Sans;font-size:10px;font-style:normal;font-weight:normal;text-anchor:end;" transform="rotate(-0, 50.6, 165.780795)" x="50.6" y="165.780795">4</text>
     </g>
    </g>
    <g id="ytick_6">
     <g id="line2d_12">
      <g>
       <use style="stroke:#000000;stroke-width:0.8;" x="57.6" xlink:href="#m52757b1706" y="128.603012"/>
      </g>
     </g>
     <g id="text_13">
      <text style="font-family:DejaVu Sans;font-size:10px;font-style:normal;font-weight:normal;text-anchor:end;" transform="rotate(-0, 50.6, 132.402231)" x="50.6" y="132.402231">5</text>
     </g>
    </g>
    <g id="ytick_7">
     <g id="line2d_13">
      <g>
       <use style="stroke:#000000;stroke-width:0.8;" x="57.6" xlink:href="#m52757b1706" y="95.224448"/>
      </g>
     </g>
     <g id="text_14">
      <text style="font-family:DejaVu Sans;font-size:10px;font-style:normal;font-weight:normal;text-anchor:end;" transform="rotate(-0, 50.6, 99.023667)" x="50.6" y="99.023667">6</text>
     </g>
    </g>
    <g id="ytick_8">
     <g id="line2d_14">
      <g>
       <use style="stroke:#000000;stroke-width:0.8;" x="57.6" xlink:href="#m52757b1706" y="61.845884"/>
      </g>
     </g>
     <g id="text_15">
      <text style="font-family:DejaVu Sans;font-size:10px;font-style:normal;font-weight:normal;text-anchor:end;" transform="rotate(-0, 50.6, 65.645103)" x="50.6" y="65.645103">7</text>
     </g>
    </g>
    <g id="text_16">
     <text style="font-family:DejaVu Sans;font-size:10px;font-style:normal;font-weight:normal;text-anchor:middle;" transform="rotate(-90, 38.157812, 174.528)" x="38.157812" y="174.528">Coin Flips Needed</text>
    </g>
   </g>
   <g id="line2d_15">
    <path clip-path="url(#pda60b000d1)" d="M 73.832727 295.478974 
L 77.112066 294.120142 
L 80.391405 293.282056 
L 83.670744 292.789557 
L 86.950083 292.527034 
L 90.229421 292.417188 
L 93.50876 292.407807 
L 96.788099 292.463354 
L 100.067438 292.559521 
L 103.346777 292.679643 
L 106.626116 292.812306 
L 109.905455 292.94973 
L 113.184793 293.086665 
L 116.464132 293.219623 
L 119.743471 293.346353 
L 123.02281 293.465467 
L 126.302149 293.576173 
L 129.581488 293.678095 
L 132.860826 293.771136 
L 136.140165 293.855385 
L 139.419504 293.93105 
L 142.698843 293.998406 
L 145.978182 294.057767 
L 149.257521 294.109453 
L 152.53686 294.153781 
L 155.816198 294.191045 
L 159.095537 294.221513 
L 162.374876 294.245421 
L 165.654215 294.262965 
L 168.933554 294.274303 
L 172.212893 294.279554 
L 175.492231 294.278794 
L 178.77157 294.27206 
L 182.050909 294.259349 
L 185.330248 294.240621 
L 188.609587 294.215797 
L 191.888926 294.184766 
L 195.168264 294.147384 
L 198.447603 294.103476 
L 201.726942 294.052843 
L 205.006281 293.995261 
L 208.28562 293.930489 
L 211.564959 293.85827 
L 214.844298 293.778336 
L 218.123636 293.690419 
L 221.402975 293.594248 
L 224.682314 293.489563 
L 227.961653 293.376118 
L 231.240992 293.25369 
L 234.520331 293.122086 
L 237.799669 292.981154 
L 241.079008 292.830789 
L 244.358347 292.670947 
L 247.637686 292.501648 
L 250.917025 292.322992 
L 254.196364 292.135167 
L 257.475702 291.93846 
L 260.755041 291.733263 
L 264.03438 291.520086 
L 267.313719 291.299567 
L 270.593058 291.072475 
L 273.872397 290.839721 
L 277.151736 290.602362 
L 280.431074 290.361604 
L 283.710413 290.118806 
L 286.989752 289.875482 
L 290.269091 289.633293 
L 293.54843 289.394049 
L 296.827769 289.1597 
L 300.107107 288.932327 
L 303.386446 288.714129 
L 306.665785 288.507409 
L 309.945124 288.314559 
L 313.224463 288.138039 
L 316.503802 287.980353 
L 319.78314 287.844029 
L 323.062479 287.731592 
L 326.341818 287.645536 
L 329.621157 287.588296 
L 332.900496 287.562225 
L 336.179835 287.569556 
L 339.459174 287.612384 
L 342.738512 287.692635 
L 346.017851 287.812039 
L 349.29719 287.972114 
L 352.576529 288.174138 
L 355.855868 288.419137 
L 359.135207 288.70787 
L 362.414545 289.040822 
L 365.693884 289.418192 
L 368.973223 289.839898 
L 372.252562 290.305579 
L 375.531901 290.814599 
L 378.81124 291.366062 
L 382.090579 291.958828 
L 385.369917 292.591531 
L 388.649256 293.262607 
L 391.928595 293.970316 
L 395.207934 294.712777 
L 398.487273 295.488 
" style="fill:none;stroke:#1f77b4;stroke-linecap:square;stroke-width:1.5;"/>
   </g>
   <g id="line2d_16">
    <path clip-path="url(#pda60b000d1)" d="M 73.832727 53.568 
L 77.112066 58.174242 
L 80.391405 74.195953 
L 83.670744 69.189168 
L 86.950083 62.17967 
L 90.229421 76.999752 
L 93.50876 81.605994 
L 96.788099 95.024177 
L 100.067438 90.017392 
L 103.346777 103.435575 
L 106.626116 98.829333 
L 109.905455 100.631775 
L 113.184793 110.244802 
L 116.464132 117.654843 
L 119.743471 111.846973 
L 123.02281 124.263799 
L 126.302149 125.265156 
L 129.581488 116.653486 
L 132.860826 130.872755 
L 136.140165 133.876825 
L 139.419504 137.681982 
L 142.698843 138.483067 
L 145.978182 134.47764 
L 149.257521 141.086595 
L 152.53686 139.884967 
L 155.816198 132.675197 
L 159.095537 140.886324 
L 162.374876 141.487138 
L 165.654215 135.879539 
L 168.933554 146.894465 
L 172.212893 143.089309 
L 175.492231 141.086595 
L 178.77157 141.086595 
L 182.050909 143.089309 
L 185.330248 147.695551 
L 188.609587 143.890395 
L 191.888926 140.485781 
L 195.168264 143.089309 
L 198.447603 148.897179 
L 201.726942 154.705049 
L 205.006281 145.292294 
L 208.28562 147.695551 
L 211.564959 145.292294 
L 214.844298 151.100165 
L 218.123636 154.304507 
L 221.402975 146.293651 
L 224.682314 154.104235 
L 227.961653 146.493923 
L 231.240992 151.500707 
L 234.520331 148.496637 
L 237.799669 153.503421 
L 241.079008 152.301793 
L 244.358347 153.30315 
L 247.637686 152.301793 
L 250.917025 157.108306 
L 254.196364 155.305864 
L 257.475702 155.105592 
L 260.755041 152.502064 
L 264.03438 150.098808 
L 267.313719 155.906678 
L 270.593058 153.102878 
L 273.872397 150.299079 
L 277.151736 152.902607 
L 280.431074 149.097451 
L 283.710413 145.893109 
L 286.989752 151.500707 
L 290.269091 153.703693 
L 293.54843 154.304507 
L 296.827769 151.700979 
L 300.107107 156.507492 
L 303.386446 148.696908 
L 306.665785 160.713191 
L 309.945124 158.710477 
L 313.224463 160.913462 
L 316.503802 158.510206 
L 319.78314 154.504778 
L 323.062479 162.715905 
L 326.341818 159.711834 
L 329.621157 162.115091 
L 332.900496 163.316719 
L 336.179835 161.514277 
L 339.459174 160.51292 
L 342.738512 162.715905 
L 346.017851 167.922961 
L 349.29719 165.319433 
L 352.576529 168.323504 
L 355.855868 167.922961 
L 359.135207 170.72676 
L 362.414545 170.72676 
L 365.693884 172.328931 
L 368.973223 174.531917 
L 372.252562 176.134088 
L 375.531901 174.531917 
L 378.81124 178.136802 
L 382.090579 177.135445 
L 385.369917 172.529203 
L 388.649256 179.538701 
L 391.928595 183.7444 
L 395.207934 183.343858 
L 398.487273 184.545486 
" style="fill:none;stroke:#ff7f0e;stroke-linecap:square;stroke-width:1.5;"/>
   </g>
   <g id="patch_3">
    <path d="M 57.6 307.584 
L 57.6 41.472 
" style="fill:none;stroke:#000000;stroke-linecap:square;stroke-linejoin:miter;stroke-width:0.8;"/>
   </g>
   <g id="patch_4">
    <path d="M 414.72 307.584 
L 414.72 41.472 
" style="fill:none;stroke:#000000;stroke-linecap:square;stroke-linejoin:miter;stroke-width:0.8;"/>
   </g>
   <g id="patch_5">
    <path d="M 57.6 307.584 
L 414.72 307.584 
" style="fill:none;stroke:#000000;stroke-linecap:square;stroke-linejoin:miter;stroke-width:0.8;"/>
   </g>
   <g id="patch_6">
    <path d="M 57.6 41.472 
L 414.72 41.472 
" style="fill:none;stroke:#000000;stroke-linecap:square;stroke-linejoin:miter;stroke-width:0.8;"/>
   </g>
   <g id="text_17">
    <text style="font-family:DejaVu Sans;font-size:12px;font-style:normal;font-weight:normal;text-anchor:middle;" transform="rotate(-0, 236.16, 35.472)" x="236.16" y="35.472">Coin Flips for Rational Func [0.2,0.6,0.3,0.8],[0.4,0.9,0.5,0.9]</text>
   </g>
   <g id="legend_1">
    <g id="patch_7">
     <path d="M 44.8325 78.82825 
L 407.72 78.82825 
Q 409.72 78.82825 409.72 76.82825 
L 409.72 48.472 
Q 409.72 46.472 407.72 46.472 
L 44.8325 46.472 
Q 42.8325 46.472 42.8325 48.472 
L 42.8325 76.82825 
Q 42.8325 78.82825 44.8325 78.82825 
z
" style="fill:#ffffff;opacity:0.8;stroke:#cccccc;stroke-linejoin:miter;"/>
    </g>
    <g id="line2d_17">
     <path d="M 46.8325 54.570437 
L 66.8325 54.570437 
" style="fill:none;stroke:#1f77b4;stroke-linecap:square;stroke-width:1.5;"/>
    </g>
    <g id="line2d_18"/>
    <g id="text_18">
     <text style="font-family:DejaVu Sans;font-size:10px;font-style:normal;font-weight:normal;text-anchor:start;" transform="rotate(-0, 74.8325, 58.070437)" x="74.8325" y="58.070437">Coin Flip Lower Bound (Mendo)</text>
    </g>
    <g id="line2d_19">
     <path d="M 46.8325 69.248562 
L 66.8325 69.248562 
" style="fill:none;stroke:#ff7f0e;stroke-linecap:square;stroke-width:1.5;"/>
    </g>
    <g id="line2d_20"/>
    <g id="text_19">
     <text style="font-family:DejaVu Sans;font-size:10px;font-style:normal;font-weight:normal;text-anchor:start;" transform="rotate(-0, 74.8325, 72.748562)" x="74.8325" y="72.748562">Avg. Coins Flipped Rational Func [0.2,0.6,0.3,0.8],[0.4,0.9,0.5,0.9]</text>
    </g>
   </g>
  </g>
 </g>
 <defs>
  <clipPath id="pda60b000d1">
   <rect height="266.112" width="357.12" x="57.6" y="41.472"/>
  </clipPath>
 </defs>
</svg>
