<?xml version="1.0" encoding="utf-8" standalone="no"?>
<!DOCTYPE svg PUBLIC "-//W3C//DTD SVG 1.1//EN"
  "http://www.w3.org/Graphics/SVG/1.1/DTD/svg11.dtd">
<!-- Created with matplotlib (https://matplotlib.org/) -->
<svg height="345.6pt" version="1.1" viewBox="0 0 460.8 345.6" width="460.8pt" xmlns="http://www.w3.org/2000/svg" xmlns:xlink="http://www.w3.org/1999/xlink">
 <defs>
  <style type="text/css">
*{stroke-linecap:butt;stroke-linejoin:round;}
  </style>
 </defs>
 <g id="figure_1">
  <g id="patch_1">
   <path d="M 0 345.6 
L 460.8 345.6 
L 460.8 0 
L 0 0 
z
" style="fill:#ffffff;"/>
  </g>
  <g id="axes_1">
   <g id="patch_2">
    <path d="M 57.6 307.584 
L 414.72 307.584 
L 414.72 41.472 
L 57.6 41.472 
z
" style="fill:#ffffff;"/>
   </g>
   <g id="matplotlib.axis_1">
    <g id="xtick_1">
     <g id="line2d_1">
      <defs>
       <path d="M 0 0 
L 0 3.5 
" id="mc2abc4b124" style="stroke:#000000;stroke-width:0.8;"/>
      </defs>
      <g>
       <use style="stroke:#000000;stroke-width:0.8;" x="73.800255" xlink:href="#mc2abc4b124" y="307.584"/>
      </g>
     </g>
     <g id="text_1">
      <text style="font-family:DejaVu Sans;font-size:10px;font-style:normal;font-weight:normal;text-anchor:middle;" transform="rotate(-0, 73.800255, 322.182437)" x="73.800255" y="322.182437">0.0</text>
     </g>
    </g>
    <g id="xtick_2">
     <g id="line2d_2">
      <g>
       <use style="stroke:#000000;stroke-width:0.8;" x="138.744153" xlink:href="#mc2abc4b124" y="307.584"/>
      </g>
     </g>
     <g id="text_2">
      <text style="font-family:DejaVu Sans;font-size:10px;font-style:normal;font-weight:normal;text-anchor:middle;" transform="rotate(-0, 138.744153, 322.182437)" x="138.744153" y="322.182437">0.2</text>
     </g>
    </g>
    <g id="xtick_3">
     <g id="line2d_3">
      <g>
       <use style="stroke:#000000;stroke-width:0.8;" x="203.688051" xlink:href="#mc2abc4b124" y="307.584"/>
      </g>
     </g>
     <g id="text_3">
      <text style="font-family:DejaVu Sans;font-size:10px;font-style:normal;font-weight:normal;text-anchor:middle;" transform="rotate(-0, 203.688051, 322.182437)" x="203.688051" y="322.182437">0.4</text>
     </g>
    </g>
    <g id="xtick_4">
     <g id="line2d_4">
      <g>
       <use style="stroke:#000000;stroke-width:0.8;" x="268.631949" xlink:href="#mc2abc4b124" y="307.584"/>
      </g>
     </g>
     <g id="text_4">
      <text style="font-family:DejaVu Sans;font-size:10px;font-style:normal;font-weight:normal;text-anchor:middle;" transform="rotate(-0, 268.631949, 322.182437)" x="268.631949" y="322.182437">0.6</text>
     </g>
    </g>
    <g id="xtick_5">
     <g id="line2d_5">
      <g>
       <use style="stroke:#000000;stroke-width:0.8;" x="333.575847" xlink:href="#mc2abc4b124" y="307.584"/>
      </g>
     </g>
     <g id="text_5">
      <text style="font-family:DejaVu Sans;font-size:10px;font-style:normal;font-weight:normal;text-anchor:middle;" transform="rotate(-0, 333.575847, 322.182437)" x="333.575847" y="322.182437">0.8</text>
     </g>
    </g>
    <g id="xtick_6">
     <g id="line2d_6">
      <g>
       <use style="stroke:#000000;stroke-width:0.8;" x="398.519745" xlink:href="#mc2abc4b124" y="307.584"/>
      </g>
     </g>
     <g id="text_6">
      <text style="font-family:DejaVu Sans;font-size:10px;font-style:normal;font-weight:normal;text-anchor:middle;" transform="rotate(-0, 398.519745, 322.182437)" x="398.519745" y="322.182437">1.0</text>
     </g>
    </g>
    <g id="text_7">
     <text style="font-family:DejaVu Sans;font-size:10px;font-style:normal;font-weight:normal;text-anchor:middle;" transform="rotate(-0, 236.16, 335.860562)" x="236.16" y="335.860562">Probability</text>
    </g>
   </g>
   <g id="matplotlib.axis_2">
    <g id="ytick_1">
     <g id="line2d_7">
      <defs>
       <path d="M 0 0 
L -3.5 0 
" id="m78893a3a57" style="stroke:#000000;stroke-width:0.8;"/>
      </defs>
      <g>
       <use style="stroke:#000000;stroke-width:0.8;" x="57.6" xlink:href="#m78893a3a57" y="256.312495"/>
      </g>
     </g>
     <g id="text_8">
      <text style="font-family:DejaVu Sans;font-size:10px;font-style:normal;font-weight:normal;text-anchor:end;" transform="rotate(-0, 50.6, 260.111714)" x="50.6" y="260.111714">8</text>
     </g>
    </g>
    <g id="ytick_2">
     <g id="line2d_8">
      <g>
       <use style="stroke:#000000;stroke-width:0.8;" x="57.6" xlink:href="#m78893a3a57" y="200.02585"/>
      </g>
     </g>
     <g id="text_9">
      <text style="font-family:DejaVu Sans;font-size:10px;font-style:normal;font-weight:normal;text-anchor:end;" transform="rotate(-0, 50.6, 203.825069)" x="50.6" y="203.825069">10</text>
     </g>
    </g>
    <g id="ytick_3">
     <g id="line2d_9">
      <g>
       <use style="stroke:#000000;stroke-width:0.8;" x="57.6" xlink:href="#m78893a3a57" y="143.739205"/>
      </g>
     </g>
     <g id="text_10">
      <text style="font-family:DejaVu Sans;font-size:10px;font-style:normal;font-weight:normal;text-anchor:end;" transform="rotate(-0, 50.6, 147.538424)" x="50.6" y="147.538424">12</text>
     </g>
    </g>
    <g id="ytick_4">
     <g id="line2d_10">
      <g>
       <use style="stroke:#000000;stroke-width:0.8;" x="57.6" xlink:href="#m78893a3a57" y="87.45256"/>
      </g>
     </g>
     <g id="text_11">
      <text style="font-family:DejaVu Sans;font-size:10px;font-style:normal;font-weight:normal;text-anchor:end;" transform="rotate(-0, 50.6, 91.251779)" x="50.6" y="91.251779">14</text>
     </g>
    </g>
    <g id="text_12">
     <text style="font-family:DejaVu Sans;font-size:10px;font-style:normal;font-weight:normal;text-anchor:middle;" transform="rotate(-90, 31.795312, 174.528)" x="31.795312" y="174.528">Average Bits Consumed Per Call</text>
    </g>
   </g>
   <g id="line2d_11">
    <path clip-path="url(#p0442bd0ce9)" d="M 73.832727 53.568 
L 77.112066 105.23914 
L 80.391405 95.557837 
L 83.670744 105.633147 
L 86.950083 100.398489 
L 90.229421 135.859075 
L 93.50876 124.207739 
L 96.788099 137.041094 
L 100.067438 137.491388 
L 103.346777 167.210736 
L 106.626116 170.587935 
L 109.905455 148.973863 
L 113.184793 182.74585 
L 116.464132 176.329173 
L 119.743471 179.818945 
L 123.02281 181.957837 
L 126.302149 192.539726 
L 129.581488 190.62598 
L 132.860826 185.954189 
L 136.140165 199.125264 
L 139.419504 217.024417 
L 142.698843 217.362137 
L 145.978182 213.253212 
L 149.257521 212.690345 
L 152.53686 222.146502 
L 155.816198 198.280964 
L 159.095537 203.965915 
L 162.374876 219.275883 
L 165.654215 209.819726 
L 168.933554 219.219596 
L 172.212893 226.649433 
L 175.492231 238.357055 
L 178.77157 222.878228 
L 182.050909 216.742984 
L 185.330248 215.392104 
L 188.609587 240.495948 
L 191.888926 227.268586 
L 195.168264 211.620899 
L 198.447603 221.921355 
L 201.726942 218.99445 
L 205.006281 245.167739 
L 208.28562 239.201355 
L 211.564959 235.148717 
L 214.844298 225.411127 
L 218.123636 239.201355 
L 221.402975 226.53686 
L 224.682314 225.129694 
L 227.961653 229.407479 
L 231.240992 230.758358 
L 234.520331 242.128261 
L 237.799669 242.409694 
L 241.079008 234.698423 
L 244.358347 234.135557 
L 247.637686 243.14142 
L 250.917025 243.14142 
L 254.196364 233.628977 
L 257.475702 226.70572 
L 260.755041 239.933081 
L 264.03438 251.978423 
L 267.313719 252.147283 
L 270.593058 251.86585 
L 273.872397 236.499596 
L 277.151736 239.539075 
L 280.431074 240.664808 
L 283.710413 250.402397 
L 286.989752 225.805134 
L 290.269091 233.291257 
L 293.54843 241.115101 
L 296.827769 237.794189 
L 300.107107 249.164091 
L 303.386446 238.863635 
L 306.665785 239.707935 
L 309.945124 242.63484 
L 313.224463 236.443309 
L 316.503802 244.042007 
L 319.78314 246.687479 
L 323.062479 247.306632 
L 326.341818 246.743765 
L 329.621157 253.835883 
L 332.900496 256.199922 
L 336.179835 263.123179 
L 339.459174 253.948456 
L 342.738512 254.229889 
L 346.017851 258.001094 
L 349.29719 268.357837 
L 352.576529 270.553016 
L 355.855868 271.847609 
L 359.135207 267.569824 
L 362.414545 276.406827 
L 365.693884 266.331518 
L 368.973223 278.433147 
L 372.252562 273.423635 
L 375.531901 269.99015 
L 378.81124 279.952886 
L 382.090579 277.53256 
L 385.369917 280.797186 
L 388.649256 295.488 
L 391.928595 291.153928 
L 395.207934 286.93243 
L 398.487273 291.547935 
" style="fill:none;stroke:#1f77b4;stroke-linecap:square;stroke-width:1.5;"/>
   </g>
   <g id="patch_3">
    <path d="M 57.6 307.584 
L 57.6 41.472 
" style="fill:none;stroke:#000000;stroke-linecap:square;stroke-linejoin:miter;stroke-width:0.8;"/>
   </g>
   <g id="patch_4">
    <path d="M 414.72 307.584 
L 414.72 41.472 
" style="fill:none;stroke:#000000;stroke-linecap:square;stroke-linejoin:miter;stroke-width:0.8;"/>
   </g>
   <g id="patch_5">
    <path d="M 57.6 307.584 
L 414.72 307.584 
" style="fill:none;stroke:#000000;stroke-linecap:square;stroke-linejoin:miter;stroke-width:0.8;"/>
   </g>
   <g id="patch_6">
    <path d="M 57.6 41.472 
L 414.72 41.472 
" style="fill:none;stroke:#000000;stroke-linecap:square;stroke-linejoin:miter;stroke-width:0.8;"/>
   </g>
   <g id="text_13">
    <text style="font-family:DejaVu Sans;font-size:12px;font-style:normal;font-weight:normal;text-anchor:middle;" transform="rotate(-0, 236.16, 35.472)" x="236.16" y="35.472">Avg. Bits Consumed by Rational Func [0.2,0.6,0.3,0.8],[0.4,0.9,0.5,0.9] Algorithm</text>
   </g>
   <g id="legend_1">
    <g id="patch_7">
     <path d="M 139.998125 64.150125 
L 407.72 64.150125 
Q 409.72 64.150125 409.72 62.150125 
L 409.72 48.472 
Q 409.72 46.472 407.72 46.472 
L 139.998125 46.472 
Q 137.998125 46.472 137.998125 48.472 
L 137.998125 62.150125 
Q 137.998125 64.150125 139.998125 64.150125 
z
" style="fill:#ffffff;opacity:0.8;stroke:#cccccc;stroke-linejoin:miter;"/>
    </g>
    <g id="line2d_12">
     <path d="M 141.998125 54.570438 
L 161.998125 54.570438 
" style="fill:none;stroke:#1f77b4;stroke-linecap:square;stroke-width:1.5;"/>
    </g>
    <g id="line2d_13"/>
    <g id="text_14">
     <text style="font-family:DejaVu Sans;font-size:10px;font-style:normal;font-weight:normal;text-anchor:start;" transform="rotate(-0, 169.998125, 58.070438)" x="169.998125" y="58.070438">Rational Func [0.2,0.6,0.3,0.8],[0.4,0.9,0.5,0.9]</text>
    </g>
   </g>
  </g>
 </g>
 <defs>
  <clipPath id="p0442bd0ce9">
   <rect height="266.112" width="357.12" x="57.6" y="41.472"/>
  </clipPath>
 </defs>
</svg>
