<?xml version="1.0" encoding="utf-8" standalone="no"?>
<!DOCTYPE svg PUBLIC "-//W3C//DTD SVG 1.1//EN"
  "http://www.w3.org/Graphics/SVG/1.1/DTD/svg11.dtd">
<!-- Created with matplotlib (https://matplotlib.org/) -->
<svg height="345.6pt" version="1.1" viewBox="0 0 460.8 345.6" width="460.8pt" xmlns="http://www.w3.org/2000/svg" xmlns:xlink="http://www.w3.org/1999/xlink">
 <defs>
  <style type="text/css">
*{stroke-linecap:butt;stroke-linejoin:round;}
  </style>
 </defs>
 <g id="figure_1">
  <g id="patch_1">
   <path d="M 0 345.6 
L 460.8 345.6 
L 460.8 0 
L 0 0 
z
" style="fill:#ffffff;"/>
  </g>
  <g id="axes_1">
   <g id="patch_2">
    <path d="M 57.6 307.584 
L 414.72 307.584 
L 414.72 41.472 
L 57.6 41.472 
z
" style="fill:#ffffff;"/>
   </g>
   <g id="matplotlib.axis_1">
    <g id="xtick_1">
     <g id="line2d_1">
      <defs>
       <path d="M 0 0 
L 0 3.5 
" id="md7d5847257" style="stroke:#000000;stroke-width:0.8;"/>
      </defs>
      <g>
       <use style="stroke:#000000;stroke-width:0.8;" x="73.800255" xlink:href="#md7d5847257" y="307.584"/>
      </g>
     </g>
     <g id="text_1">
      <text style="font-family:DejaVu Sans;font-size:10px;font-style:normal;font-weight:normal;text-anchor:middle;" transform="rotate(-0, 73.800255, 322.182437)" x="73.800255" y="322.182437">0.0</text>
     </g>
    </g>
    <g id="xtick_2">
     <g id="line2d_2">
      <g>
       <use style="stroke:#000000;stroke-width:0.8;" x="138.744153" xlink:href="#md7d5847257" y="307.584"/>
      </g>
     </g>
     <g id="text_2">
      <text style="font-family:DejaVu Sans;font-size:10px;font-style:normal;font-weight:normal;text-anchor:middle;" transform="rotate(-0, 138.744153, 322.182437)" x="138.744153" y="322.182437">0.2</text>
     </g>
    </g>
    <g id="xtick_3">
     <g id="line2d_3">
      <g>
       <use style="stroke:#000000;stroke-width:0.8;" x="203.688051" xlink:href="#md7d5847257" y="307.584"/>
      </g>
     </g>
     <g id="text_3">
      <text style="font-family:DejaVu Sans;font-size:10px;font-style:normal;font-weight:normal;text-anchor:middle;" transform="rotate(-0, 203.688051, 322.182437)" x="203.688051" y="322.182437">0.4</text>
     </g>
    </g>
    <g id="xtick_4">
     <g id="line2d_4">
      <g>
       <use style="stroke:#000000;stroke-width:0.8;" x="268.631949" xlink:href="#md7d5847257" y="307.584"/>
      </g>
     </g>
     <g id="text_4">
      <text style="font-family:DejaVu Sans;font-size:10px;font-style:normal;font-weight:normal;text-anchor:middle;" transform="rotate(-0, 268.631949, 322.182437)" x="268.631949" y="322.182437">0.6</text>
     </g>
    </g>
    <g id="xtick_5">
     <g id="line2d_5">
      <g>
       <use style="stroke:#000000;stroke-width:0.8;" x="333.575847" xlink:href="#md7d5847257" y="307.584"/>
      </g>
     </g>
     <g id="text_5">
      <text style="font-family:DejaVu Sans;font-size:10px;font-style:normal;font-weight:normal;text-anchor:middle;" transform="rotate(-0, 333.575847, 322.182437)" x="333.575847" y="322.182437">0.8</text>
     </g>
    </g>
    <g id="xtick_6">
     <g id="line2d_6">
      <g>
       <use style="stroke:#000000;stroke-width:0.8;" x="398.519745" xlink:href="#md7d5847257" y="307.584"/>
      </g>
     </g>
     <g id="text_6">
      <text style="font-family:DejaVu Sans;font-size:10px;font-style:normal;font-weight:normal;text-anchor:middle;" transform="rotate(-0, 398.519745, 322.182437)" x="398.519745" y="322.182437">1.0</text>
     </g>
    </g>
    <g id="text_7">
     <text style="font-family:DejaVu Sans;font-size:10px;font-style:normal;font-weight:normal;text-anchor:middle;" transform="rotate(-0, 236.16, 335.860562)" x="236.16" y="335.860562">Input Coin's Heads Probability (λ)</text>
    </g>
   </g>
   <g id="matplotlib.axis_2">
    <g id="ytick_1">
     <g id="line2d_7">
      <defs>
       <path d="M 0 0 
L -3.5 0 
" id="m777fc3c315" style="stroke:#000000;stroke-width:0.8;"/>
      </defs>
      <g>
       <use style="stroke:#000000;stroke-width:0.8;" x="57.6" xlink:href="#m777fc3c315" y="295.555684"/>
      </g>
     </g>
     <g id="text_8">
      <text style="font-family:DejaVu Sans;font-size:10px;font-style:normal;font-weight:normal;text-anchor:end;" transform="rotate(-0, 50.6, 299.354903)" x="50.6" y="299.354903">0.50</text>
     </g>
    </g>
    <g id="ytick_2">
     <g id="line2d_8">
      <g>
       <use style="stroke:#000000;stroke-width:0.8;" x="57.6" xlink:href="#m777fc3c315" y="265.457713"/>
      </g>
     </g>
     <g id="text_9">
      <text style="font-family:DejaVu Sans;font-size:10px;font-style:normal;font-weight:normal;text-anchor:end;" transform="rotate(-0, 50.6, 269.256932)" x="50.6" y="269.256932">0.55</text>
     </g>
    </g>
    <g id="ytick_3">
     <g id="line2d_9">
      <g>
       <use style="stroke:#000000;stroke-width:0.8;" x="57.6" xlink:href="#m777fc3c315" y="235.359743"/>
      </g>
     </g>
     <g id="text_10">
      <text style="font-family:DejaVu Sans;font-size:10px;font-style:normal;font-weight:normal;text-anchor:end;" transform="rotate(-0, 50.6, 239.158961)" x="50.6" y="239.158961">0.60</text>
     </g>
    </g>
    <g id="ytick_4">
     <g id="line2d_10">
      <g>
       <use style="stroke:#000000;stroke-width:0.8;" x="57.6" xlink:href="#m777fc3c315" y="205.261772"/>
      </g>
     </g>
     <g id="text_11">
      <text style="font-family:DejaVu Sans;font-size:10px;font-style:normal;font-weight:normal;text-anchor:end;" transform="rotate(-0, 50.6, 209.060991)" x="50.6" y="209.060991">0.65</text>
     </g>
    </g>
    <g id="ytick_5">
     <g id="line2d_11">
      <g>
       <use style="stroke:#000000;stroke-width:0.8;" x="57.6" xlink:href="#m777fc3c315" y="175.163801"/>
      </g>
     </g>
     <g id="text_12">
      <text style="font-family:DejaVu Sans;font-size:10px;font-style:normal;font-weight:normal;text-anchor:end;" transform="rotate(-0, 50.6, 178.96302)" x="50.6" y="178.96302">0.70</text>
     </g>
    </g>
    <g id="ytick_6">
     <g id="line2d_12">
      <g>
       <use style="stroke:#000000;stroke-width:0.8;" x="57.6" xlink:href="#m777fc3c315" y="145.065831"/>
      </g>
     </g>
     <g id="text_13">
      <text style="font-family:DejaVu Sans;font-size:10px;font-style:normal;font-weight:normal;text-anchor:end;" transform="rotate(-0, 50.6, 148.865049)" x="50.6" y="148.865049">0.75</text>
     </g>
    </g>
    <g id="ytick_7">
     <g id="line2d_13">
      <g>
       <use style="stroke:#000000;stroke-width:0.8;" x="57.6" xlink:href="#m777fc3c315" y="114.96786"/>
      </g>
     </g>
     <g id="text_14">
      <text style="font-family:DejaVu Sans;font-size:10px;font-style:normal;font-weight:normal;text-anchor:end;" transform="rotate(-0, 50.6, 118.767079)" x="50.6" y="118.767079">0.80</text>
     </g>
    </g>
    <g id="ytick_8">
     <g id="line2d_14">
      <g>
       <use style="stroke:#000000;stroke-width:0.8;" x="57.6" xlink:href="#m777fc3c315" y="84.869889"/>
      </g>
     </g>
     <g id="text_15">
      <text style="font-family:DejaVu Sans;font-size:10px;font-style:normal;font-weight:normal;text-anchor:end;" transform="rotate(-0, 50.6, 88.669108)" x="50.6" y="88.669108">0.85</text>
     </g>
    </g>
    <g id="ytick_9">
     <g id="line2d_15">
      <g>
       <use style="stroke:#000000;stroke-width:0.8;" x="57.6" xlink:href="#m777fc3c315" y="54.771919"/>
      </g>
     </g>
     <g id="text_16">
      <text style="font-family:DejaVu Sans;font-size:10px;font-style:normal;font-weight:normal;text-anchor:end;" transform="rotate(-0, 50.6, 58.571138)" x="50.6" y="58.571138">0.90</text>
     </g>
    </g>
    <g id="text_17">
     <text style="font-family:DejaVu Sans;font-size:10px;font-style:normal;font-weight:normal;text-anchor:middle;" transform="rotate(-90, 22.254687, 174.528)" x="22.254687" y="174.528">Simulated Mean / Function Value</text>
    </g>
   </g>
   <g id="line2d_16">
    <path clip-path="url(#pde7d4d9eb1)" d="M 73.832727 295.488 
L 77.112066 289.010994 
L 80.391405 283.175038 
L 83.670744 277.891567 
L 86.950083 273.087295 
L 90.229421 268.701032 
L 93.50876 264.681261 
L 96.788099 260.984281 
L 100.067438 257.57275 
L 103.346777 254.414551 
L 106.626116 251.481887 
L 109.905455 248.750552 
L 113.184793 246.199356 
L 116.464132 243.809642 
L 119.743471 241.564902 
L 123.02281 239.450454 
L 126.302149 237.45318 
L 129.581488 235.5613 
L 132.860826 233.76419 
L 136.140165 232.052226 
L 139.419504 230.416647 
L 142.698843 228.849449 
L 145.978182 227.343282 
L 149.257521 225.891375 
L 152.53686 224.487457 
L 155.816198 223.125704 
L 159.095537 221.80068 
L 162.374876 220.507294 
L 165.654215 219.240761 
L 168.933554 217.996563 
L 172.212893 216.770423 
L 175.492231 215.558279 
L 178.77157 214.356256 
L 182.050909 213.160651 
L 185.330248 211.967915 
L 188.609587 210.774635 
L 191.888926 209.577522 
L 195.168264 208.373404 
L 198.447603 207.159209 
L 201.726942 205.931966 
L 205.006281 204.68879 
L 208.28562 203.426883 
L 211.564959 202.143529 
L 214.844298 200.836087 
L 218.123636 199.501995 
L 221.402975 198.138767 
L 224.682314 196.743991 
L 227.961653 195.315335 
L 231.240992 193.850544 
L 234.520331 192.347446 
L 237.799669 190.803954 
L 241.079008 189.218071 
L 244.358347 187.587895 
L 247.637686 185.911625 
L 250.917025 184.187564 
L 254.196364 182.414131 
L 257.475702 180.589862 
L 260.755041 178.713423 
L 264.03438 176.783613 
L 267.313719 174.799376 
L 270.593058 172.759806 
L 273.872397 170.664155 
L 277.151736 168.511846 
L 280.431074 166.302473 
L 283.710413 164.035815 
L 286.989752 161.711842 
L 290.269091 159.330718 
L 293.54843 156.892812 
L 296.827769 154.398701 
L 300.107107 151.849175 
L 303.386446 149.24524 
L 306.665785 146.588122 
L 309.945124 143.879267 
L 313.224463 141.12034 
L 316.503802 138.313229 
L 319.78314 135.460035 
L 323.062479 132.563074 
L 326.341818 129.624867 
L 329.621157 126.648135 
L 332.900496 123.635792 
L 336.179835 120.59093 
L 339.459174 117.516811 
L 342.738512 114.416853 
L 346.017851 111.294617 
L 349.29719 108.153788 
L 352.576529 104.998159 
L 355.855868 101.831617 
L 359.135207 98.658122 
L 362.414545 95.481684 
L 365.693884 92.306352 
L 368.973223 89.136187 
L 372.252562 85.975243 
L 375.531901 82.827553 
L 378.81124 79.697101 
L 382.090579 76.587809 
L 385.369917 73.503517 
L 388.649256 70.447967 
L 391.928595 67.424782 
L 395.207934 64.437458 
L 398.487273 61.489342 
" style="fill:none;stroke:#1f77b4;stroke-linecap:square;stroke-width:1.5;"/>
   </g>
   <g id="line2d_17">
    <path clip-path="url(#pde7d4d9eb1)" d="M 73.832727 285.924333 
L 77.112066 279.904739 
L 80.391405 279.904739 
L 83.670744 287.128252 
L 86.950083 273.885145 
L 90.229421 279.904739 
L 93.50876 254.622444 
L 96.788099 241.379337 
L 100.067438 261.845957 
L 103.346777 278.70082 
L 106.626116 241.379337 
L 109.905455 230.544067 
L 113.184793 267.865551 
L 116.464132 232.951905 
L 119.743471 229.340148 
L 123.02281 249.806768 
L 126.302149 222.116635 
L 129.581488 230.544067 
L 132.860826 224.524473 
L 136.140165 269.06947 
L 139.419504 242.583255 
L 142.698843 216.097041 
L 145.978182 235.359743 
L 149.257521 207.66961 
L 152.53686 214.893123 
L 155.816198 236.563661 
L 159.095537 228.13623 
L 162.374876 218.504879 
L 165.654215 223.320554 
L 168.933554 216.097041 
L 172.212893 194.426502 
L 175.492231 230.544067 
L 178.77157 223.320554 
L 182.050909 205.261772 
L 185.330248 201.650015 
L 188.609587 218.504879 
L 191.888926 216.097041 
L 195.168264 201.650015 
L 198.447603 185.999071 
L 201.726942 210.077447 
L 205.006281 204.057853 
L 208.28562 199.242178 
L 211.564959 218.504879 
L 214.844298 193.222584 
L 218.123636 201.650015 
L 221.402975 210.077447 
L 224.682314 194.426502 
L 227.961653 212.485285 
L 231.240992 192.018665 
L 234.520331 217.30096 
L 237.799669 200.446097 
L 241.079008 184.795152 
L 244.358347 190.814746 
L 247.637686 171.552045 
L 250.917025 211.281366 
L 254.196364 185.999071 
L 257.475702 184.795152 
L 260.755041 167.940288 
L 264.03438 184.795152 
L 267.313719 167.940288 
L 270.593058 178.775558 
L 273.872397 167.940288 
L 277.151736 163.124613 
L 280.431074 173.959882 
L 283.710413 163.124613 
L 286.989752 185.999071 
L 290.269091 164.328532 
L 293.54843 136.638399 
L 296.827769 179.979477 
L 300.107107 148.677587 
L 303.386446 131.822724 
L 306.665785 148.677587 
L 309.945124 164.328532 
L 313.224463 134.230561 
L 316.503802 155.9011 
L 319.78314 159.512857 
L 323.062479 113.763941 
L 326.341818 116.171779 
L 329.621157 135.43448 
L 332.900496 134.230561 
L 336.179835 114.96786 
L 339.459174 120.987454 
L 342.738512 108.948266 
L 346.017851 118.579617 
L 349.29719 119.783535 
L 352.576529 92.093402 
L 355.855868 94.50124 
L 359.135207 96.909078 
L 362.414545 108.948266 
L 365.693884 89.685565 
L 368.973223 107.744347 
L 372.252562 101.724753 
L 375.531901 77.646376 
L 378.81124 74.03462 
L 382.090579 69.218945 
L 385.369917 63.199351 
L 388.649256 57.179756 
L 391.928595 57.179756 
L 395.207934 53.568 
L 398.487273 59.587594 
" style="fill:none;stroke:#ff7f0e;stroke-linecap:square;stroke-width:1.5;"/>
   </g>
   <g id="patch_3">
    <path d="M 57.6 307.584 
L 57.6 41.472 
" style="fill:none;stroke:#000000;stroke-linecap:square;stroke-linejoin:miter;stroke-width:0.8;"/>
   </g>
   <g id="patch_4">
    <path d="M 414.72 307.584 
L 414.72 41.472 
" style="fill:none;stroke:#000000;stroke-linecap:square;stroke-linejoin:miter;stroke-width:0.8;"/>
   </g>
   <g id="patch_5">
    <path d="M 57.6 307.584 
L 414.72 307.584 
" style="fill:none;stroke:#000000;stroke-linecap:square;stroke-linejoin:miter;stroke-width:0.8;"/>
   </g>
   <g id="patch_6">
    <path d="M 57.6 41.472 
L 414.72 41.472 
" style="fill:none;stroke:#000000;stroke-linecap:square;stroke-linejoin:miter;stroke-width:0.8;"/>
   </g>
   <g id="text_18">
    <text style="font-family:DejaVu Sans;font-size:12px;font-style:normal;font-weight:normal;" transform="translate(2.7975 22.034625)">Simulated Mean for Rational Func [0.2,0.6,0.3,0.8],[0.4,0.9,0.5,0.9] Algorithm</text>
    <text style="font-family:DejaVu Sans;font-size:12px;font-style:normal;font-weight:normal;" transform="translate(132.609375 35.472)">(Wasserstein Distances in Legend)</text>
   </g>
   <g id="legend_1">
    <g id="patch_7">
     <path d="M 64.6 78.82825 
L 332.321875 78.82825 
Q 334.321875 78.82825 334.321875 76.82825 
L 334.321875 48.472 
Q 334.321875 46.472 332.321875 46.472 
L 64.6 46.472 
Q 62.6 46.472 62.6 48.472 
L 62.6 76.82825 
Q 62.6 78.82825 64.6 78.82825 
z
" style="fill:#ffffff;opacity:0.8;stroke:#cccccc;stroke-linejoin:miter;"/>
    </g>
    <g id="line2d_18">
     <path d="M 66.6 54.570437 
L 86.6 54.570437 
" style="fill:none;stroke:#1f77b4;stroke-linecap:square;stroke-width:1.5;"/>
    </g>
    <g id="line2d_19"/>
    <g id="text_19">
     <text style="font-family:DejaVu Sans;font-size:10px;font-style:normal;font-weight:normal;text-anchor:start;" transform="rotate(-0, 94.6, 58.070437)" x="94.6" y="58.070437">Rational Func [0.2,0.6,0.3,0.8],[0.4,0.9,0.5,0.9]</text>
    </g>
    <g id="line2d_20">
     <path d="M 66.6 69.248562 
L 86.6 69.248562 
" style="fill:none;stroke:#ff7f0e;stroke-linecap:square;stroke-width:1.5;"/>
    </g>
    <g id="line2d_21"/>
    <g id="text_20">
     <text style="font-family:DejaVu Sans;font-size:10px;font-style:normal;font-weight:normal;text-anchor:start;" transform="rotate(-0, 94.6, 72.748562)" x="94.6" y="72.748562">Simul. Mean (WD=0.005391)</text>
    </g>
   </g>
  </g>
 </g>
 <defs>
  <clipPath id="pde7d4d9eb1">
   <rect height="266.112" width="357.12" x="57.6" y="41.472"/>
  </clipPath>
 </defs>
</svg>
