<?xml version="1.0" encoding="utf-8" standalone="no"?>
<!DOCTYPE svg PUBLIC "-//W3C//DTD SVG 1.1//EN"
  "http://www.w3.org/Graphics/SVG/1.1/DTD/svg11.dtd">
<!-- Created with matplotlib (https://matplotlib.org/) -->
<svg height="345.6pt" version="1.1" viewBox="0 0 460.8 345.6" width="460.8pt" xmlns="http://www.w3.org/2000/svg" xmlns:xlink="http://www.w3.org/1999/xlink">
 <defs>
  <style type="text/css">
*{stroke-linecap:butt;stroke-linejoin:round;}
  </style>
 </defs>
 <g id="figure_1">
  <g id="patch_1">
   <path d="M 0 345.6 
L 460.8 345.6 
L 460.8 0 
L 0 0 
z
" style="fill:#ffffff;"/>
  </g>
  <g id="axes_1">
   <g id="patch_2">
    <path d="M 57.6 307.584 
L 414.72 307.584 
L 414.72 41.472 
L 57.6 41.472 
z
" style="fill:#ffffff;"/>
   </g>
   <g id="matplotlib.axis_1">
    <g id="xtick_1">
     <g id="line2d_1">
      <defs>
       <path d="M 0 0 
L 0 3.5 
" id="m3f03f5a1c2" style="stroke:#000000;stroke-width:0.8;"/>
      </defs>
      <g>
       <use style="stroke:#000000;stroke-width:0.8;" x="73.800255" xlink:href="#m3f03f5a1c2" y="307.584"/>
      </g>
     </g>
     <g id="text_1">
      <text style="font-family:DejaVu Sans;font-size:10px;font-style:normal;font-weight:normal;text-anchor:middle;" transform="rotate(-0, 73.800255, 322.182437)" x="73.800255" y="322.182437">0.0</text>
     </g>
    </g>
    <g id="xtick_2">
     <g id="line2d_2">
      <g>
       <use style="stroke:#000000;stroke-width:0.8;" x="138.744153" xlink:href="#m3f03f5a1c2" y="307.584"/>
      </g>
     </g>
     <g id="text_2">
      <text style="font-family:DejaVu Sans;font-size:10px;font-style:normal;font-weight:normal;text-anchor:middle;" transform="rotate(-0, 138.744153, 322.182437)" x="138.744153" y="322.182437">0.2</text>
     </g>
    </g>
    <g id="xtick_3">
     <g id="line2d_3">
      <g>
       <use style="stroke:#000000;stroke-width:0.8;" x="203.688051" xlink:href="#m3f03f5a1c2" y="307.584"/>
      </g>
     </g>
     <g id="text_3">
      <text style="font-family:DejaVu Sans;font-size:10px;font-style:normal;font-weight:normal;text-anchor:middle;" transform="rotate(-0, 203.688051, 322.182437)" x="203.688051" y="322.182437">0.4</text>
     </g>
    </g>
    <g id="xtick_4">
     <g id="line2d_4">
      <g>
       <use style="stroke:#000000;stroke-width:0.8;" x="268.631949" xlink:href="#m3f03f5a1c2" y="307.584"/>
      </g>
     </g>
     <g id="text_4">
      <text style="font-family:DejaVu Sans;font-size:10px;font-style:normal;font-weight:normal;text-anchor:middle;" transform="rotate(-0, 268.631949, 322.182437)" x="268.631949" y="322.182437">0.6</text>
     </g>
    </g>
    <g id="xtick_5">
     <g id="line2d_5">
      <g>
       <use style="stroke:#000000;stroke-width:0.8;" x="333.575847" xlink:href="#m3f03f5a1c2" y="307.584"/>
      </g>
     </g>
     <g id="text_5">
      <text style="font-family:DejaVu Sans;font-size:10px;font-style:normal;font-weight:normal;text-anchor:middle;" transform="rotate(-0, 333.575847, 322.182437)" x="333.575847" y="322.182437">0.8</text>
     </g>
    </g>
    <g id="xtick_6">
     <g id="line2d_6">
      <g>
       <use style="stroke:#000000;stroke-width:0.8;" x="398.519745" xlink:href="#m3f03f5a1c2" y="307.584"/>
      </g>
     </g>
     <g id="text_6">
      <text style="font-family:DejaVu Sans;font-size:10px;font-style:normal;font-weight:normal;text-anchor:middle;" transform="rotate(-0, 398.519745, 322.182437)" x="398.519745" y="322.182437">1.0</text>
     </g>
    </g>
    <g id="text_7">
     <text style="font-family:DejaVu Sans;font-size:10px;font-style:normal;font-weight:normal;text-anchor:middle;" transform="rotate(-0, 236.16, 335.860562)" x="236.16" y="335.860562">Input Coin's Heads Probability (λ)</text>
    </g>
   </g>
   <g id="matplotlib.axis_2">
    <g id="ytick_1">
     <g id="line2d_7">
      <defs>
       <path d="M 0 0 
L -3.5 0 
" id="m44c223f6a0" style="stroke:#000000;stroke-width:0.8;"/>
      </defs>
      <g>
       <use style="stroke:#000000;stroke-width:0.8;" x="57.6" xlink:href="#m44c223f6a0" y="295.503738"/>
      </g>
     </g>
     <g id="text_8">
      <text style="font-family:DejaVu Sans;font-size:10px;font-style:normal;font-weight:normal;text-anchor:end;" transform="rotate(-0, 50.6, 299.302956)" x="50.6" y="299.302956">0.0</text>
     </g>
    </g>
    <g id="ytick_2">
     <g id="line2d_8">
      <g>
       <use style="stroke:#000000;stroke-width:0.8;" x="57.6" xlink:href="#m44c223f6a0" y="259.544205"/>
      </g>
     </g>
     <g id="text_9">
      <text style="font-family:DejaVu Sans;font-size:10px;font-style:normal;font-weight:normal;text-anchor:end;" transform="rotate(-0, 50.6, 263.343424)" x="50.6" y="263.343424">0.5</text>
     </g>
    </g>
    <g id="ytick_3">
     <g id="line2d_9">
      <g>
       <use style="stroke:#000000;stroke-width:0.8;" x="57.6" xlink:href="#m44c223f6a0" y="223.584672"/>
      </g>
     </g>
     <g id="text_10">
      <text style="font-family:DejaVu Sans;font-size:10px;font-style:normal;font-weight:normal;text-anchor:end;" transform="rotate(-0, 50.6, 227.383891)" x="50.6" y="227.383891">1.0</text>
     </g>
    </g>
    <g id="ytick_4">
     <g id="line2d_10">
      <g>
       <use style="stroke:#000000;stroke-width:0.8;" x="57.6" xlink:href="#m44c223f6a0" y="187.625139"/>
      </g>
     </g>
     <g id="text_11">
      <text style="font-family:DejaVu Sans;font-size:10px;font-style:normal;font-weight:normal;text-anchor:end;" transform="rotate(-0, 50.6, 191.424358)" x="50.6" y="191.424358">1.5</text>
     </g>
    </g>
    <g id="ytick_5">
     <g id="line2d_11">
      <g>
       <use style="stroke:#000000;stroke-width:0.8;" x="57.6" xlink:href="#m44c223f6a0" y="151.665606"/>
      </g>
     </g>
     <g id="text_12">
      <text style="font-family:DejaVu Sans;font-size:10px;font-style:normal;font-weight:normal;text-anchor:end;" transform="rotate(-0, 50.6, 155.464825)" x="50.6" y="155.464825">2.0</text>
     </g>
    </g>
    <g id="ytick_6">
     <g id="line2d_12">
      <g>
       <use style="stroke:#000000;stroke-width:0.8;" x="57.6" xlink:href="#m44c223f6a0" y="115.706073"/>
      </g>
     </g>
     <g id="text_13">
      <text style="font-family:DejaVu Sans;font-size:10px;font-style:normal;font-weight:normal;text-anchor:end;" transform="rotate(-0, 50.6, 119.505292)" x="50.6" y="119.505292">2.5</text>
     </g>
    </g>
    <g id="ytick_7">
     <g id="line2d_13">
      <g>
       <use style="stroke:#000000;stroke-width:0.8;" x="57.6" xlink:href="#m44c223f6a0" y="79.74654"/>
      </g>
     </g>
     <g id="text_14">
      <text style="font-family:DejaVu Sans;font-size:10px;font-style:normal;font-weight:normal;text-anchor:end;" transform="rotate(-0, 50.6, 83.545759)" x="50.6" y="83.545759">3.0</text>
     </g>
    </g>
    <g id="ytick_8">
     <g id="line2d_14">
      <g>
       <use style="stroke:#000000;stroke-width:0.8;" x="57.6" xlink:href="#m44c223f6a0" y="43.787007"/>
      </g>
     </g>
     <g id="text_15">
      <text style="font-family:DejaVu Sans;font-size:10px;font-style:normal;font-weight:normal;text-anchor:end;" transform="rotate(-0, 50.6, 47.586226)" x="50.6" y="47.586226">3.5</text>
     </g>
    </g>
    <g id="text_16">
     <text style="font-family:DejaVu Sans;font-size:10px;font-style:normal;font-weight:normal;text-anchor:middle;" transform="rotate(-90, 28.617187, 174.528)" x="28.617187" y="174.528">Coin Flips Needed</text>
    </g>
   </g>
   <g id="line2d_15">
    <path clip-path="url(#p720124cfe7)" d="M 73.832727 223.584673 
L 77.112066 223.590919 
L 80.391405 223.609465 
L 83.670744 223.640384 
L 86.950083 223.683749 
L 90.229421 223.739634 
L 93.50876 223.808111 
L 96.788099 223.889252 
L 100.067438 223.98313 
L 103.346777 224.089817 
L 106.626116 224.209384 
L 109.905455 224.341903 
L 113.184793 224.487445 
L 116.464132 224.646082 
L 119.743471 224.817884 
L 123.02281 225.002923 
L 126.302149 225.201269 
L 129.581488 225.412992 
L 132.860826 225.638165 
L 136.140165 225.876857 
L 139.419504 226.129139 
L 142.698843 226.395081 
L 145.978182 226.674753 
L 149.257521 226.968228 
L 152.53686 227.275574 
L 155.816198 227.596863 
L 159.095537 227.932165 
L 162.374876 228.281551 
L 165.654215 228.645092 
L 168.933554 229.022858 
L 172.212893 229.414921 
L 175.492231 229.821352 
L 178.77157 230.242223 
L 182.050909 230.677605 
L 185.330248 231.127569 
L 188.609587 231.592188 
L 191.888926 232.071533 
L 195.168264 232.565679 
L 198.447603 233.074696 
L 201.726942 233.598658 
L 205.006281 234.137639 
L 208.28562 234.691712 
L 211.564959 235.260951 
L 214.844298 235.84543 
L 218.123636 236.445225 
L 221.402975 237.060411 
L 224.682314 237.691063 
L 227.961653 238.337256 
L 231.240992 238.999069 
L 234.520331 239.676577 
L 237.799669 240.369859 
L 241.079008 241.078992 
L 244.358347 241.804055 
L 247.637686 242.545127 
L 250.917025 243.302288 
L 254.196364 244.075619 
L 257.475702 244.8652 
L 260.755041 245.671113 
L 264.03438 246.493441 
L 267.313719 247.332267 
L 270.593058 248.187675 
L 273.872397 249.059749 
L 277.151736 249.948575 
L 280.431074 250.854239 
L 283.710413 251.776829 
L 286.989752 252.716432 
L 290.269091 253.673137 
L 293.54843 254.647035 
L 296.827769 255.638215 
L 300.107107 256.646771 
L 303.386446 257.672794 
L 306.665785 258.716378 
L 309.945124 259.777619 
L 313.224463 260.856612 
L 316.503802 261.953455 
L 319.78314 263.068247 
L 323.062479 264.201086 
L 326.341818 265.352074 
L 329.621157 266.521313 
L 332.900496 267.708906 
L 336.179835 268.914958 
L 339.459174 270.139576 
L 342.738512 271.382867 
L 346.017851 272.64494 
L 349.29719 273.925907 
L 352.576529 275.225878 
L 355.855868 276.544969 
L 359.135207 277.883294 
L 362.414545 279.240971 
L 365.693884 280.618119 
L 368.973223 282.014859 
L 372.252562 283.431312 
L 375.531901 284.867604 
L 378.81124 286.323861 
L 382.090579 287.800211 
L 385.369917 289.296785 
L 388.649256 290.813715 
L 391.928595 292.351136 
L 395.207934 293.909184 
L 398.487273 295.488 
" style="fill:none;stroke:#1f77b4;stroke-linecap:square;stroke-width:1.5;"/>
   </g>
   <g id="line2d_16">
    <path clip-path="url(#p720124cfe7)" d="M 73.832727 223.584672 
L 77.112066 223.296996 
L 80.391405 221.570938 
L 83.670744 222.14629 
L 86.950083 220.851747 
L 90.229421 219.269528 
L 93.50876 218.981852 
L 96.788099 217.831147 
L 100.067438 218.838013 
L 103.346777 217.255794 
L 106.626116 215.673575 
L 109.905455 215.098222 
L 113.184793 212.652974 
L 116.464132 212.94065 
L 119.743471 213.516003 
L 123.02281 211.502269 
L 126.302149 210.63924 
L 129.581488 209.776211 
L 132.860826 209.776211 
L 136.140165 205.317229 
L 139.419504 205.461067 
L 142.698843 204.166524 
L 145.978182 205.173391 
L 149.257521 205.604905 
L 152.53686 202.15279 
L 155.816198 200.426733 
L 159.095537 199.419866 
L 162.374876 199.707542 
L 165.654215 197.981484 
L 168.933554 195.823912 
L 172.212893 195.392398 
L 175.492231 194.817045 
L 178.77157 195.24856 
L 182.050909 189.06352 
L 185.330248 191.940283 
L 188.609587 187.481301 
L 191.888926 184.4607 
L 195.168264 185.755243 
L 198.447603 185.036052 
L 201.726942 186.330596 
L 205.006281 182.303128 
L 208.28562 181.008585 
L 211.564959 182.303128 
L 214.844298 175.542736 
L 218.123636 176.837279 
L 221.402975 169.933049 
L 224.682314 175.25506 
L 227.961653 176.261926 
L 231.240992 167.631639 
L 234.520331 170.652239 
L 237.799669 166.912448 
L 241.079008 165.18639 
L 244.358347 167.919315 
L 247.637686 156.556102 
L 250.917025 156.556102 
L 254.196364 155.693074 
L 257.475702 149.79571 
L 260.755041 156.124588 
L 264.03438 156.556102 
L 267.313719 150.227225 
L 270.593058 152.09712 
L 273.872397 142.316127 
L 277.151736 142.028451 
L 280.431074 141.740775 
L 283.710413 140.59007 
L 286.989752 142.603804 
L 290.269091 129.370695 
L 293.54843 135.411897 
L 296.827769 134.261192 
L 300.107107 136.994116 
L 303.386446 125.630904 
L 306.665785 126.350095 
L 309.945124 130.809077 
L 313.224463 119.589703 
L 316.503802 122.610303 
L 319.78314 116.281425 
L 323.062479 121.891113 
L 326.341818 113.116987 
L 329.621157 109.80871 
L 332.900496 104.918213 
L 336.179835 105.062051 
L 339.459174 109.089519 
L 342.738512 103.479832 
L 346.017851 99.308526 
L 349.29719 94.274191 
L 352.576529 93.986515 
L 355.855868 95.856411 
L 359.135207 92.83581 
L 362.414545 88.808342 
L 365.693884 82.191788 
L 368.973223 77.301292 
L 372.252562 80.321893 
L 375.531901 73.273824 
L 378.81124 70.972414 
L 382.090579 73.5615 
L 385.369917 68.527166 
L 388.649256 63.348993 
L 391.928595 64.35586 
L 395.207934 57.595468 
L 398.487273 53.568 
" style="fill:none;stroke:#ff7f0e;stroke-linecap:square;stroke-width:1.5;"/>
   </g>
   <g id="patch_3">
    <path d="M 57.6 307.584 
L 57.6 41.472 
" style="fill:none;stroke:#000000;stroke-linecap:square;stroke-linejoin:miter;stroke-width:0.8;"/>
   </g>
   <g id="patch_4">
    <path d="M 414.72 307.584 
L 414.72 41.472 
" style="fill:none;stroke:#000000;stroke-linecap:square;stroke-linejoin:miter;stroke-width:0.8;"/>
   </g>
   <g id="patch_5">
    <path d="M 57.6 307.584 
L 414.72 307.584 
" style="fill:none;stroke:#000000;stroke-linecap:square;stroke-linejoin:miter;stroke-width:0.8;"/>
   </g>
   <g id="patch_6">
    <path d="M 57.6 41.472 
L 414.72 41.472 
" style="fill:none;stroke:#000000;stroke-linecap:square;stroke-linejoin:miter;stroke-width:0.8;"/>
   </g>
   <g id="text_17">
    <text style="font-family:DejaVu Sans;font-size:12px;font-style:normal;font-weight:normal;text-anchor:middle;" transform="rotate(-0, 236.16, 35.472)" x="236.16" y="35.472">Coin Flips for sin(x)</text>
   </g>
   <g id="legend_1">
    <g id="patch_7">
     <path d="M 64.6 78.82825 
L 252.535938 78.82825 
Q 254.535938 78.82825 254.535938 76.82825 
L 254.535938 48.472 
Q 254.535938 46.472 252.535938 46.472 
L 64.6 46.472 
Q 62.6 46.472 62.6 48.472 
L 62.6 76.82825 
Q 62.6 78.82825 64.6 78.82825 
z
" style="fill:#ffffff;opacity:0.8;stroke:#cccccc;stroke-linejoin:miter;"/>
    </g>
    <g id="line2d_17">
     <path d="M 66.6 54.570437 
L 86.6 54.570437 
" style="fill:none;stroke:#1f77b4;stroke-linecap:square;stroke-width:1.5;"/>
    </g>
    <g id="line2d_18"/>
    <g id="text_18">
     <text style="font-family:DejaVu Sans;font-size:10px;font-style:normal;font-weight:normal;text-anchor:start;" transform="rotate(-0, 94.6, 58.070437)" x="94.6" y="58.070437">Coin Flip Lower Bound (Mendo)</text>
    </g>
    <g id="line2d_19">
     <path d="M 66.6 69.248562 
L 86.6 69.248562 
" style="fill:none;stroke:#ff7f0e;stroke-linecap:square;stroke-width:1.5;"/>
    </g>
    <g id="line2d_20"/>
    <g id="text_19">
     <text style="font-family:DejaVu Sans;font-size:10px;font-style:normal;font-weight:normal;text-anchor:start;" transform="rotate(-0, 94.6, 72.748562)" x="94.6" y="72.748562">Avg. Coins Flipped sin(x)</text>
    </g>
   </g>
  </g>
 </g>
 <defs>
  <clipPath id="p720124cfe7">
   <rect height="266.112" width="357.12" x="57.6" y="41.472"/>
  </clipPath>
 </defs>
</svg>
