<svg height="460.8" viewBox="0 0 460.8 345.6" width="614.4" xmlns="http://www.w3.org/2000/svg" xmlns:xlink="http://www.w3.org/1999/xlink"><defs><style>*{stroke-linecap:butt;stroke-linejoin:round}</style></defs><g id="figure_1"><path d="M0 345.6h460.8V0H0z" fill="#fff" id="patch_1"/><g id="axes_1"><path d="M57.6 307.584h357.12V41.472H57.6z" fill="#fff" id="patch_2"/><g id="matplotlib.axis_1"><g id="xtick_1"><g id="line2d_1"><defs><path d="M0 0v3.5" id="ma73105c791" stroke="#000" stroke-width=".8"/></defs><use x="73.8" xlink:href="#ma73105c791" y="307.584" stroke="#000" stroke-width=".8"/></g><text x="73.8" y="322.182" font-family="DejaVu Sans" font-size="10" font-weight="400" text-anchor="middle" id="text_1">0.0</text></g><g id="xtick_2"><use x="138.744" xlink:href="#ma73105c791" y="307.584" stroke="#000" stroke-width=".8" id="line2d_2"/><text x="138.744" y="322.182" font-family="DejaVu Sans" font-size="10" font-weight="400" text-anchor="middle" id="text_2">0.2</text></g><g id="xtick_3"><use x="203.688" xlink:href="#ma73105c791" y="307.584" stroke="#000" stroke-width=".8" id="line2d_3"/><text x="203.688" y="322.182" font-family="DejaVu Sans" font-size="10" font-weight="400" text-anchor="middle" id="text_3">0.4</text></g><g id="xtick_4"><use x="268.632" xlink:href="#ma73105c791" y="307.584" stroke="#000" stroke-width=".8" id="line2d_4"/><text x="268.632" y="322.182" font-family="DejaVu Sans" font-size="10" font-weight="400" text-anchor="middle" id="text_4">0.6</text></g><g id="xtick_5"><use x="333.576" xlink:href="#ma73105c791" y="307.584" stroke="#000" stroke-width=".8" id="line2d_5"/><text x="333.576" y="322.182" font-family="DejaVu Sans" font-size="10" font-weight="400" text-anchor="middle" id="text_5">0.8</text></g><g id="xtick_6"><use x="398.52" xlink:href="#ma73105c791" y="307.584" stroke="#000" stroke-width=".8" id="line2d_6"/><text x="398.52" y="322.182" font-family="DejaVu Sans" font-size="10" font-weight="400" text-anchor="middle" id="text_6">1.0</text></g><text x="236.16" y="335.861" font-family="DejaVu Sans" font-size="10" font-weight="400" text-anchor="middle" id="text_7">Input Coin&apos;s Heads Probability (λ)</text></g><g id="matplotlib.axis_2"><g id="ytick_1"><g id="line2d_7"><defs><path d="M0 0h-3.5" id="m099ffdb883" stroke="#000" stroke-width=".8"/></defs><use x="57.6" xlink:href="#m099ffdb883" y="295.488" stroke="#000" stroke-width=".8"/></g><text x="50.6" y="299.287" font-family="DejaVu Sans" font-size="10" font-weight="400" text-anchor="end" id="text_8">0.0</text></g><g id="ytick_2"><use x="57.6" xlink:href="#m099ffdb883" y="237.985" stroke="#000" stroke-width=".8" id="line2d_8"/><text x="50.6" y="241.784" font-family="DejaVu Sans" font-size="10" font-weight="400" text-anchor="end" id="text_9">0.2</text></g><g id="ytick_3"><use x="57.6" xlink:href="#m099ffdb883" y="180.482" stroke="#000" stroke-width=".8" id="line2d_9"/><text x="50.6" y="184.281" font-family="DejaVu Sans" font-size="10" font-weight="400" text-anchor="end" id="text_10">0.4</text></g><g id="ytick_4"><use x="57.6" xlink:href="#m099ffdb883" y="122.979" stroke="#000" stroke-width=".8" id="line2d_10"/><text x="50.6" y="126.778" font-family="DejaVu Sans" font-size="10" font-weight="400" text-anchor="end" id="text_11">0.6</text></g><g id="ytick_5"><use x="57.6" xlink:href="#m099ffdb883" y="65.476" stroke="#000" stroke-width=".8" id="line2d_11"/><text x="50.6" y="69.275" font-family="DejaVu Sans" font-size="10" font-weight="400" text-anchor="end" id="text_12">0.8</text></g><text transform="rotate(-90 28.617 174.528)" x="28.617" y="174.528" font-family="DejaVu Sans" font-size="10" font-weight="400" text-anchor="middle" id="text_13">Simulated Mean / Function Value</text></g><path clip-path="url(#p2cd9c7aa29)" d="M73.833 295.46l3.28-2.904 3.278-2.904 3.28-2.902 3.28-2.902 3.278-2.9 3.28-2.9 3.28-2.897 3.278-2.895 3.28-2.893 3.28-2.89 3.278-2.888 3.28-2.884 3.28-2.88 3.278-2.877 3.28-2.872 3.28-2.868 3.278-2.864 3.28-2.858 3.28-2.853 3.279-2.847 3.279-2.842 3.28-2.835 3.279-2.83 3.279-2.821 3.28-2.815 3.279-2.808 3.279-2.8 3.28-2.793 3.279-2.784 3.279-2.775 3.28-2.767 3.279-2.758 3.279-2.748 3.28-2.74 3.279-2.728 3.279-2.72 3.28-2.708 3.279-2.697 3.279-2.687 3.28-2.676 3.279-2.664 3.279-2.652 3.28-2.64 3.279-2.628 3.279-2.615 3.28-2.602 3.279-2.59 3.279-2.575 3.28-2.562 3.279-2.548 3.279-2.534 3.28-2.52 3.279-2.505 3.279-2.49 3.28-2.474 3.279-2.46 3.279-2.443 3.28-2.427 3.279-2.412 3.28-2.394 3.278-2.378 3.28-2.362 3.28-2.344 3.278-2.326 3.28-2.31 3.28-2.29 3.278-2.273 3.28-2.254 3.28-2.236 3.278-2.217 3.28-2.198 3.28-2.18 3.278-2.159 3.28-2.14 3.28-2.119 3.278-2.1 3.28-2.078 3.28-2.059 3.278-2.038 3.28-2.016 3.28-1.996 3.279-1.974 3.279-1.953 3.28-1.93 3.279-1.91 3.279-1.886 3.28-1.864 3.279-1.841 3.279-1.82 3.28-1.795 3.279-1.773 3.279-1.75 3.28-1.725 3.279-1.703 3.279-1.678 3.28-1.654 3.279-1.63 3.279-1.607 3.28-1.581" fill="none" stroke="#1f77b4" stroke-linecap="square" stroke-width="1.5" id="line2d_12"/><path clip-path="url(#p2cd9c7aa29)" d="M73.833 295.488l3.28-2.875 3.278-5.75h3.28l3.28-4.6 3.278-.576 3.28-2.875 3.28-1.15 3.278-7.475 3.28-1.725 3.28 1.725 3.278-8.05 3.28 1.724 3.28-10.35h3.278l3.28-5.175 3.28 1.15 3.278-6.326h3.28l3.28-9.775 3.279 4.6 3.279 2.3 3.28-7.475 3.279-1.725 3.279-4.026 3.28-1.725 3.279-4.6 3.279-2.3 3.28-5.75 3.279 1.725 3.279-16.101 3.28 4.6 3.279 9.776 3.279-9.776 3.28 1.15 3.279-14.95h3.279l3.28-2.876 3.279-2.3 3.279-1.15 3.28-2.875 3.279-2.875 3.279 12.075 3.28-19.55 3.279 11.5 3.279-8.05 3.28-10.35 3.279-2.301 3.279-4.025h3.28l3.279-1.15 3.279 1.15 3.28-4.6 3.279 5.175 3.279-14.376 3.28-2.875 3.279 14.95 3.279-13.8 3.28-2.3 3.279-12.076 3.28-2.875 3.278 10.926 3.28-8.626 3.28-5.75 3.278-.575h3.28l3.28-10.35 3.278 8.05 3.28-8.05 3.28 8.625 3.278-17.251 3.28 5.75 3.28-4.6h3.278l3.28 1.725 3.28 5.175 3.278-13.8 3.28 7.475 3.28-14.95 3.278-.576h3.28l3.28 1.15 3.279-6.9 3.279-2.3 3.28 8.05 3.279-12.65 3.279 3.45 3.28-6.326 3.279-5.75 3.279 12.65 3.28-5.75 3.279-1.725 3.279-10.925 3.28-4.6 3.279 16.1 3.279-10.35 3.28 8.625 3.279-10.35 3.279 2.3 3.28-7.476" fill="none" stroke="#ff7f0e" stroke-linecap="square" stroke-width="1.5" id="line2d_13"/><path d="M57.6 307.584V41.472" fill="none" stroke="#000" stroke-linecap="square" stroke-width=".8" id="patch_3"/><path d="M414.72 307.584V41.472" fill="none" stroke="#000" stroke-linecap="square" stroke-width=".8" id="patch_4"/><path d="M57.6 307.584h357.12" fill="none" stroke="#000" stroke-linecap="square" stroke-width=".8" id="patch_5"/><path d="M57.6 41.472h357.12" fill="none" stroke="#000" stroke-linecap="square" stroke-width=".8" id="patch_6"/><g id="text_14" font-family="DejaVu Sans" font-size="12" font-weight="400"><text transform="translate(127.403 22.035)">Simulated Mean for sin(x) Algorithm</text><text transform="translate(132.61 35.472)">(Wasserstein Distances in Legend)</text></g><g id="legend_1"><path d="M64.6 78.828h178.25q2 0 2-2V48.472q0-2-2-2H64.6q-2 0-2 2v28.356q0 2 2 2z" fill="#fff" opacity=".8" stroke="#ccc" id="patch_7"/><path d="M66.6 54.57h20" fill="none" stroke="#1f77b4" stroke-linecap="square" stroke-width="1.5" id="line2d_14"/><text x="94.6" y="58.07" font-family="DejaVu Sans" font-size="10" font-weight="400" id="text_15">sin(x)</text><path d="M66.6 69.249h20" fill="none" stroke="#ff7f0e" stroke-linecap="square" stroke-width="1.5" id="line2d_16"/><text x="94.6" y="72.749" font-family="DejaVu Sans" font-size="10" font-weight="400" id="text_16">Simul. Mean (WD=0.006263)</text></g></g></g><defs><clipPath id="p2cd9c7aa29"><path d="M57.6 41.472h357.12v266.112H57.6z"/></clipPath></defs></svg>