<svg height="460.8" viewBox="0 0 460.8 345.6" width="614.4" xmlns="http://www.w3.org/2000/svg" xmlns:xlink="http://www.w3.org/1999/xlink"><defs><style>*{stroke-linecap:butt;stroke-linejoin:round}</style></defs><g id="figure_1"><path d="M0 345.6h460.8V0H0z" fill="#fff" id="patch_1"/><g id="axes_1"><path d="M57.6 307.584h357.12V41.472H57.6z" fill="#fff" id="patch_2"/><g id="matplotlib.axis_1"><g id="xtick_1"><g id="line2d_1"><defs><path d="M0 0v3.5" id="m3f03f5a1c2" stroke="#000" stroke-width=".8"/></defs><use x="73.8" xlink:href="#m3f03f5a1c2" y="307.584" stroke="#000" stroke-width=".8"/></g><text x="73.8" y="322.182" font-family="DejaVu Sans" font-size="10" font-weight="400" text-anchor="middle" id="text_1">0.0</text></g><g id="xtick_2"><use x="138.744" xlink:href="#m3f03f5a1c2" y="307.584" stroke="#000" stroke-width=".8" id="line2d_2"/><text x="138.744" y="322.182" font-family="DejaVu Sans" font-size="10" font-weight="400" text-anchor="middle" id="text_2">0.2</text></g><g id="xtick_3"><use x="203.688" xlink:href="#m3f03f5a1c2" y="307.584" stroke="#000" stroke-width=".8" id="line2d_3"/><text x="203.688" y="322.182" font-family="DejaVu Sans" font-size="10" font-weight="400" text-anchor="middle" id="text_3">0.4</text></g><g id="xtick_4"><use x="268.632" xlink:href="#m3f03f5a1c2" y="307.584" stroke="#000" stroke-width=".8" id="line2d_4"/><text x="268.632" y="322.182" font-family="DejaVu Sans" font-size="10" font-weight="400" text-anchor="middle" id="text_4">0.6</text></g><g id="xtick_5"><use x="333.576" xlink:href="#m3f03f5a1c2" y="307.584" stroke="#000" stroke-width=".8" id="line2d_5"/><text x="333.576" y="322.182" font-family="DejaVu Sans" font-size="10" font-weight="400" text-anchor="middle" id="text_5">0.8</text></g><g id="xtick_6"><use x="398.52" xlink:href="#m3f03f5a1c2" y="307.584" stroke="#000" stroke-width=".8" id="line2d_6"/><text x="398.52" y="322.182" font-family="DejaVu Sans" font-size="10" font-weight="400" text-anchor="middle" id="text_6">1.0</text></g><text x="236.16" y="335.861" font-family="DejaVu Sans" font-size="10" font-weight="400" text-anchor="middle" id="text_7">Input Coin&apos;s Heads Probability (λ)</text></g><g id="matplotlib.axis_2"><g id="ytick_1"><g id="line2d_7"><defs><path d="M0 0h-3.5" id="m44c223f6a0" stroke="#000" stroke-width=".8"/></defs><use x="57.6" xlink:href="#m44c223f6a0" y="295.504" stroke="#000" stroke-width=".8"/></g><text x="50.6" y="299.303" font-family="DejaVu Sans" font-size="10" font-weight="400" text-anchor="end" id="text_8">0.0</text></g><g id="ytick_2"><use x="57.6" xlink:href="#m44c223f6a0" y="259.544" stroke="#000" stroke-width=".8" id="line2d_8"/><text x="50.6" y="263.343" font-family="DejaVu Sans" font-size="10" font-weight="400" text-anchor="end" id="text_9">0.5</text></g><g id="ytick_3"><use x="57.6" xlink:href="#m44c223f6a0" y="223.585" stroke="#000" stroke-width=".8" id="line2d_9"/><text x="50.6" y="227.384" font-family="DejaVu Sans" font-size="10" font-weight="400" text-anchor="end" id="text_10">1.0</text></g><g id="ytick_4"><use x="57.6" xlink:href="#m44c223f6a0" y="187.625" stroke="#000" stroke-width=".8" id="line2d_10"/><text x="50.6" y="191.424" font-family="DejaVu Sans" font-size="10" font-weight="400" text-anchor="end" id="text_11">1.5</text></g><g id="ytick_5"><use x="57.6" xlink:href="#m44c223f6a0" y="151.666" stroke="#000" stroke-width=".8" id="line2d_11"/><text x="50.6" y="155.465" font-family="DejaVu Sans" font-size="10" font-weight="400" text-anchor="end" id="text_12">2.0</text></g><g id="ytick_6"><use x="57.6" xlink:href="#m44c223f6a0" y="115.706" stroke="#000" stroke-width=".8" id="line2d_12"/><text x="50.6" y="119.505" font-family="DejaVu Sans" font-size="10" font-weight="400" text-anchor="end" id="text_13">2.5</text></g><g id="ytick_7"><use x="57.6" xlink:href="#m44c223f6a0" y="79.747" stroke="#000" stroke-width=".8" id="line2d_13"/><text x="50.6" y="83.546" font-family="DejaVu Sans" font-size="10" font-weight="400" text-anchor="end" id="text_14">3.0</text></g><g id="ytick_8"><use x="57.6" xlink:href="#m44c223f6a0" y="43.787" stroke="#000" stroke-width=".8" id="line2d_14"/><text x="50.6" y="47.586" font-family="DejaVu Sans" font-size="10" font-weight="400" text-anchor="end" id="text_15">3.5</text></g><text transform="rotate(-90 28.617 174.528)" x="28.617" y="174.528" font-family="DejaVu Sans" font-size="10" font-weight="400" text-anchor="middle" id="text_16">Coin Flips Needed</text></g><path clip-path="url(#p720124cfe7)" d="M73.833 223.585l3.28.006 3.278.018 3.28.031 3.28.044 3.278.056 3.28.068 3.28.081 3.278.094 3.28.107 3.28.12 3.278.132 3.28.145 3.28.16 3.278.17 3.28.186 3.28.198 3.278.212 3.28.225 3.28.239 3.279.252 3.279.266 3.28.28 3.279.293 3.279.308 3.28.32 3.279.336 3.279.35 3.28.363 3.279.378 3.279.392 3.28.406 3.279.421 3.279.436 3.28.45 3.279.464 3.279.48 3.28.494 3.279.509 3.279.524 3.28.539 3.279.554 3.279.569 3.28.584 3.279.6 3.279.615 3.28.631 3.279.646 3.279.662 3.28.678 3.279.693 3.279.709 3.28.725 3.279.741 3.279.757 3.28.774 3.279.79 3.279.805 3.28.822 3.279.84 3.28.855 3.278.872 3.28.889 3.28.905 3.278.923 3.28.94 3.28.956 3.278.974 3.28.991 3.28 1.009 3.278 1.026 3.28 1.043 3.28 1.062 3.278 1.079 3.28 1.096 3.28 1.115 3.278 1.133 3.28 1.151 3.28 1.17 3.278 1.187 3.28 1.206 3.28 1.225 3.279 1.243 3.279 1.262 3.28 1.28 3.279 1.3 3.279 1.32 3.28 1.338 3.279 1.358 3.279 1.377 3.28 1.397 3.279 1.416 3.279 1.437 3.28 1.456 3.279 1.476 3.279 1.497 3.28 1.517 3.279 1.537 3.279 1.558 3.28 1.579" fill="none" stroke="#1f77b4" stroke-linecap="square" stroke-width="1.5" id="line2d_15"/><path clip-path="url(#p720124cfe7)" d="M73.833 223.585l3.28-.288 3.278-1.726 3.28.575 3.28-1.294 3.278-1.582 3.28-.288 3.28-1.15 3.278 1.006 3.28-1.582 3.28-1.582 3.278-.576 3.28-2.445 3.28.288 3.278.575 3.28-2.014 3.28-.863 3.278-.863h3.28l3.28-4.459 3.279.144 3.279-1.294 3.28 1.006 3.279.432 3.279-3.452 3.28-1.726 3.279-1.007 3.279.288 3.28-1.727 3.279-2.157 3.279-.432 3.28-.575 3.279.432 3.279-6.185 3.28 2.876 3.279-4.459 3.279-3.02 3.28 1.294 3.279-.719 3.279 1.295 3.28-4.028 3.279-1.294 3.279 1.294 3.28-6.76 3.279 1.294 3.279-6.904 3.28 5.322 3.279 1.007 3.279-8.63 3.28 3.02 3.279-3.74 3.279-1.726 3.28 2.733 3.279-11.363h3.279l3.28-.863 3.279-5.897 3.279 6.329 3.28.431 3.279-6.329 3.28 1.87 3.278-9.78 3.28-.289 3.28-.287 3.278-1.15 3.28 2.013 3.28-13.233 3.278 6.04 3.28-1.15 3.28 2.733 3.278-11.363 3.28.72 3.28 4.458 3.278-11.22 3.28 3.021 3.28-6.329 3.278 5.61 3.28-8.774 3.28-3.308 3.278-4.89 3.28.143 3.28 4.028 3.279-5.61 3.279-4.171 3.28-5.035 3.279-.287 3.279 1.87 3.28-3.021 3.279-4.028 3.279-6.616 3.28-4.89 3.279 3.02 3.279-7.048 3.28-2.302 3.279 2.59 3.279-5.035 3.28-5.178 3.279 1.007 3.279-6.76 3.28-4.028" fill="none" stroke="#ff7f0e" stroke-linecap="square" stroke-width="1.5" id="line2d_16"/><path d="M57.6 307.584V41.472" fill="none" stroke="#000" stroke-linecap="square" stroke-width=".8" id="patch_3"/><path d="M414.72 307.584V41.472" fill="none" stroke="#000" stroke-linecap="square" stroke-width=".8" id="patch_4"/><path d="M57.6 307.584h357.12" fill="none" stroke="#000" stroke-linecap="square" stroke-width=".8" id="patch_5"/><path d="M57.6 41.472h357.12" fill="none" stroke="#000" stroke-linecap="square" stroke-width=".8" id="patch_6"/><text x="236.16" y="35.472" font-family="DejaVu Sans" font-size="12" font-weight="400" text-anchor="middle" id="text_17">Coin Flips for sin(x)</text><g id="legend_1"><path d="M64.6 78.828h187.936q2 0 2-2V48.472q0-2-2-2H64.6q-2 0-2 2v28.356q0 2 2 2z" fill="#fff" opacity=".8" stroke="#ccc" id="patch_7"/><path d="M66.6 54.57h20" fill="none" stroke="#1f77b4" stroke-linecap="square" stroke-width="1.5" id="line2d_17"/><text x="94.6" y="58.07" font-family="DejaVu Sans" font-size="10" font-weight="400" id="text_18">Coin Flip Lower Bound (Mendo)</text><path d="M66.6 69.249h20" fill="none" stroke="#ff7f0e" stroke-linecap="square" stroke-width="1.5" id="line2d_19"/><text x="94.6" y="72.749" font-family="DejaVu Sans" font-size="10" font-weight="400" id="text_19">Avg. Coins Flipped sin(x)</text></g></g></g><defs><clipPath id="p720124cfe7"><path d="M57.6 41.472h357.12v266.112H57.6z"/></clipPath></defs></svg>