<?xml version="1.0" encoding="utf-8" standalone="no"?>
<!DOCTYPE svg PUBLIC "-//W3C//DTD SVG 1.1//EN"
  "http://www.w3.org/Graphics/SVG/1.1/DTD/svg11.dtd">
<!-- Created with matplotlib (https://matplotlib.org/) -->
<svg height="252pt" version="1.1" viewBox="0 0 324 252" width="324pt" xmlns="http://www.w3.org/2000/svg" xmlns:xlink="http://www.w3.org/1999/xlink">
 <defs>
  <style type="text/css">
*{stroke-linecap:butt;stroke-linejoin:round;}
  </style>
 </defs>
 <g id="figure_1">
  <g id="patch_1">
   <path d="M 0 252 
L 324 252 
L 324 0 
L 0 0 
z
" style="fill:#ffffff;"/>
  </g>
  <g id="axes_1">
   <g id="patch_2">
    <path d="M 40.5 224.28 
L 291.6 224.28 
L 291.6 30.24 
L 40.5 30.24 
z
" style="fill:#ffffff;"/>
   </g>
   <g id="matplotlib.axis_1">
    <g id="xtick_1">
     <g id="line2d_1">
      <defs>
       <path d="M 0 0 
L 0 3.5 
" id="mcd8ac7f7d1" style="stroke:#000000;stroke-width:0.8;"/>
      </defs>
      <g>
       <use style="stroke:#000000;stroke-width:0.8;" x="51.890805" xlink:href="#mcd8ac7f7d1" y="224.28"/>
      </g>
     </g>
     <g id="text_1">
      <text style="font-family:DejaVu Sans;font-size:10px;font-style:normal;font-weight:normal;text-anchor:middle;" transform="rotate(-0, 51.890805, 238.878438)" x="51.890805" y="238.878438">0.0</text>
     </g>
    </g>
    <g id="xtick_2">
     <g id="line2d_2">
      <g>
       <use style="stroke:#000000;stroke-width:0.8;" x="97.554483" xlink:href="#mcd8ac7f7d1" y="224.28"/>
      </g>
     </g>
     <g id="text_2">
      <text style="font-family:DejaVu Sans;font-size:10px;font-style:normal;font-weight:normal;text-anchor:middle;" transform="rotate(-0, 97.554483, 238.878438)" x="97.554483" y="238.878438">0.2</text>
     </g>
    </g>
    <g id="xtick_3">
     <g id="line2d_3">
      <g>
       <use style="stroke:#000000;stroke-width:0.8;" x="143.218161" xlink:href="#mcd8ac7f7d1" y="224.28"/>
      </g>
     </g>
     <g id="text_3">
      <text style="font-family:DejaVu Sans;font-size:10px;font-style:normal;font-weight:normal;text-anchor:middle;" transform="rotate(-0, 143.218161, 238.878438)" x="143.218161" y="238.878438">0.4</text>
     </g>
    </g>
    <g id="xtick_4">
     <g id="line2d_4">
      <g>
       <use style="stroke:#000000;stroke-width:0.8;" x="188.881839" xlink:href="#mcd8ac7f7d1" y="224.28"/>
      </g>
     </g>
     <g id="text_4">
      <text style="font-family:DejaVu Sans;font-size:10px;font-style:normal;font-weight:normal;text-anchor:middle;" transform="rotate(-0, 188.881839, 238.878438)" x="188.881839" y="238.878438">0.6</text>
     </g>
    </g>
    <g id="xtick_5">
     <g id="line2d_5">
      <g>
       <use style="stroke:#000000;stroke-width:0.8;" x="234.545517" xlink:href="#mcd8ac7f7d1" y="224.28"/>
      </g>
     </g>
     <g id="text_5">
      <text style="font-family:DejaVu Sans;font-size:10px;font-style:normal;font-weight:normal;text-anchor:middle;" transform="rotate(-0, 234.545517, 238.878438)" x="234.545517" y="238.878438">0.8</text>
     </g>
    </g>
    <g id="xtick_6">
     <g id="line2d_6">
      <g>
       <use style="stroke:#000000;stroke-width:0.8;" x="280.209195" xlink:href="#mcd8ac7f7d1" y="224.28"/>
      </g>
     </g>
     <g id="text_6">
      <text style="font-family:DejaVu Sans;font-size:10px;font-style:normal;font-weight:normal;text-anchor:middle;" transform="rotate(-0, 280.209195, 238.878438)" x="280.209195" y="238.878438">1.0</text>
     </g>
    </g>
    <g id="text_7">
     <text style="font-family:DejaVu Sans;font-size:10px;font-style:normal;font-weight:normal;text-anchor:middle;" transform="rotate(-0, 166.05, 252.556563)" x="166.05" y="252.556563">Input Coin's Heads Probability (λ)</text>
    </g>
   </g>
   <g id="matplotlib.axis_2">
    <g id="ytick_1">
     <g id="line2d_7">
      <defs>
       <path d="M 0 0 
L -3.5 0 
" id="m3f5e1631b0" style="stroke:#000000;stroke-width:0.8;"/>
      </defs>
      <g>
       <use style="stroke:#000000;stroke-width:0.8;" x="40.5" xlink:href="#m3f5e1631b0" y="216.524789"/>
      </g>
     </g>
     <g id="text_8">
      <text style="font-family:DejaVu Sans;font-size:10px;font-style:normal;font-weight:normal;text-anchor:end;" transform="rotate(-0, 33.5, 220.324007)" x="33.5" y="220.324007">0.0</text>
     </g>
    </g>
    <g id="ytick_2">
     <g id="line2d_8">
      <g>
       <use style="stroke:#000000;stroke-width:0.8;" x="40.5" xlink:href="#m3f5e1631b0" y="181.031831"/>
      </g>
     </g>
     <g id="text_9">
      <text style="font-family:DejaVu Sans;font-size:10px;font-style:normal;font-weight:normal;text-anchor:end;" transform="rotate(-0, 33.5, 184.83105)" x="33.5" y="184.83105">0.2</text>
     </g>
    </g>
    <g id="ytick_3">
     <g id="line2d_9">
      <g>
       <use style="stroke:#000000;stroke-width:0.8;" x="40.5" xlink:href="#m3f5e1631b0" y="145.538873"/>
      </g>
     </g>
     <g id="text_10">
      <text style="font-family:DejaVu Sans;font-size:10px;font-style:normal;font-weight:normal;text-anchor:end;" transform="rotate(-0, 33.5, 149.338092)" x="33.5" y="149.338092">0.4</text>
     </g>
    </g>
    <g id="ytick_4">
     <g id="line2d_10">
      <g>
       <use style="stroke:#000000;stroke-width:0.8;" x="40.5" xlink:href="#m3f5e1631b0" y="110.045915"/>
      </g>
     </g>
     <g id="text_11">
      <text style="font-family:DejaVu Sans;font-size:10px;font-style:normal;font-weight:normal;text-anchor:end;" transform="rotate(-0, 33.5, 113.845134)" x="33.5" y="113.845134">0.6</text>
     </g>
    </g>
    <g id="ytick_5">
     <g id="line2d_11">
      <g>
       <use style="stroke:#000000;stroke-width:0.8;" x="40.5" xlink:href="#m3f5e1631b0" y="74.552958"/>
      </g>
     </g>
     <g id="text_12">
      <text style="font-family:DejaVu Sans;font-size:10px;font-style:normal;font-weight:normal;text-anchor:end;" transform="rotate(-0, 33.5, 78.352176)" x="33.5" y="78.352176">0.8</text>
     </g>
    </g>
    <g id="ytick_6">
     <g id="line2d_12">
      <g>
       <use style="stroke:#000000;stroke-width:0.8;" x="40.5" xlink:href="#m3f5e1631b0" y="39.06"/>
      </g>
     </g>
     <g id="text_13">
      <text style="font-family:DejaVu Sans;font-size:10px;font-style:normal;font-weight:normal;text-anchor:end;" transform="rotate(-0, 33.5, 42.859219)" x="33.5" y="42.859219">1.0</text>
     </g>
    </g>
    <g id="text_14">
     <text style="font-family:DejaVu Sans;font-size:10px;font-style:normal;font-weight:normal;text-anchor:middle;" transform="rotate(-90, 11.517187, 127.26)" x="11.517187" y="127.26">Simulated Mean / Function Value</text>
    </g>
   </g>
   <g id="line2d_13">
    <path clip-path="url(#p0d6681eebe)" d="M 51.913636 214.750141 
L 54.219421 198.602611 
L 56.525207 191.241207 
L 58.830992 185.584288 
L 61.136777 180.81247 
L 63.442562 176.607064 
L 65.748347 172.804315 
L 68.054132 169.306838 
L 70.359917 166.051132 
L 72.665702 162.993069 
L 74.971488 160.100502 
L 77.277273 157.349159 
L 79.583058 154.720175 
L 81.888843 152.198547 
L 84.194628 149.772108 
L 86.500413 147.430827 
L 88.806198 145.166323 
L 91.111983 142.971504 
L 93.417769 140.840307 
L 95.723554 138.767501 
L 98.029339 136.748534 
L 100.335124 134.779416 
L 102.640909 132.856628 
L 104.946694 130.977047 
L 107.252479 129.137884 
L 109.558264 127.336638 
L 111.86405 125.571057 
L 114.169835 123.839103 
L 116.47562 122.138924 
L 118.781405 120.468833 
L 121.08719 118.827288 
L 123.392975 117.212872 
L 125.69876 115.624284 
L 128.004545 114.060322 
L 130.310331 112.519876 
L 132.616116 111.001914 
L 134.921901 109.505482 
L 137.227686 108.029687 
L 139.533471 106.573698 
L 141.839256 105.13674 
L 144.145041 103.718085 
L 146.450826 102.31705 
L 148.756612 100.932996 
L 151.062397 99.565319 
L 153.368182 98.213451 
L 155.673967 96.876856 
L 157.979752 95.555029 
L 160.285537 94.247489 
L 162.591322 92.953785 
L 164.897107 91.673485 
L 167.202893 90.406181 
L 169.508678 89.151486 
L 171.814463 87.90903 
L 174.120248 86.678463 
L 176.426033 85.459448 
L 178.731818 84.251668 
L 181.037603 83.054816 
L 183.343388 81.868602 
L 185.649174 80.692746 
L 187.954959 79.526983 
L 190.260744 78.371056 
L 192.566529 77.224721 
L 194.872314 76.087742 
L 197.178099 74.959895 
L 199.483884 73.840963 
L 201.789669 72.730737 
L 204.095455 71.629018 
L 206.40124 70.535613 
L 208.707025 69.450336 
L 211.01281 68.37301 
L 213.318595 67.303461 
L 215.62438 66.241524 
L 217.930165 65.187038 
L 220.23595 64.139849 
L 222.541736 63.099807 
L 224.847521 62.066768 
L 227.153306 61.040593 
L 229.459091 60.021146 
L 231.764876 59.008297 
L 234.070661 58.001919 
L 236.376446 57.001889 
L 238.682231 56.00809 
L 240.988017 55.020406 
L 243.293802 54.038726 
L 245.599587 53.062941 
L 247.905372 52.092946 
L 250.211157 51.12864 
L 252.516942 50.169924 
L 254.822727 49.216702 
L 257.128512 48.268879 
L 259.434298 47.326366 
L 261.740083 46.389074 
L 264.045868 45.456918 
L 266.351653 44.529814 
L 268.657438 43.60768 
L 270.963223 42.690438 
L 273.269008 41.77801 
L 275.574793 40.870322 
L 277.880579 39.9673 
L 280.186364 39.068873 
" style="fill:none;stroke:#1f77b4;stroke-linecap:square;stroke-width:1.5;"/>
   </g>
   <g id="line2d_14">
    <path clip-path="url(#p0d6681eebe)" d="M 51.913636 215.46 
L 54.219421 199.843099 
L 56.525207 191.324789 
L 58.830992 188.840282 
L 61.136777 176.772676 
L 63.442562 175.707887 
L 65.748347 173.22338 
L 68.054132 175.707887 
L 70.359917 167.189577 
L 72.665702 158.671268 
L 74.971488 161.155775 
L 77.277273 157.961408 
L 79.583058 154.412113 
L 81.888843 157.251549 
L 84.194628 150.862817 
L 86.500413 145.538873 
L 88.806198 138.085352 
L 91.111983 141.989577 
L 93.417769 148.02338 
L 95.723554 138.795211 
L 98.029339 135.600845 
L 100.335124 135.955775 
L 102.640909 130.276901 
L 104.946694 132.761408 
L 107.252479 134.181127 
L 109.558264 128.502254 
L 111.86405 122.113521 
L 114.169835 121.403662 
L 116.47562 112.885352 
L 118.781405 124.243099 
L 121.08719 117.854366 
L 123.392975 116.789577 
L 125.69876 111.110704 
L 128.004545 121.758592 
L 130.310331 109.336056 
L 132.616116 108.626197 
L 134.921901 106.851549 
L 137.227686 111.820563 
L 139.533471 107.916338 
L 141.839256 101.882535 
L 144.145041 104.012113 
L 146.450826 96.558592 
L 148.756612 101.882535 
L 151.062397 100.107887 
L 153.368182 99.752958 
L 155.673967 94.429014 
L 157.979752 95.493803 
L 160.285537 96.913521 
L 162.591322 93.364225 
L 164.897107 87.330423 
L 167.202893 86.620563 
L 169.508678 94.074085 
L 171.814463 85.910704 
L 174.120248 86.620563 
L 176.426033 86.975493 
L 178.731818 85.910704 
L 181.037603 77.037465 
L 183.343388 84.136056 
L 185.649174 83.781127 
L 187.954959 84.490986 
L 190.260744 81.29662 
L 192.566529 77.747324 
L 194.872314 75.617746 
L 197.178099 71.713521 
L 199.483884 69.229014 
L 201.789669 73.488169 
L 204.095455 73.488169 
L 206.40124 70.293803 
L 208.707025 71.713521 
L 211.01281 69.229014 
L 213.318595 71.713521 
L 215.62438 70.648732 
L 217.930165 68.874085 
L 220.23595 60.000845 
L 222.541736 64.61493 
L 224.847521 64.61493 
L 227.153306 62.130423 
L 229.459091 61.775493 
L 231.764876 56.806479 
L 234.070661 56.451549 
L 236.376446 58.581127 
L 238.682231 56.451549 
L 240.988017 56.451549 
L 243.293802 53.257183 
L 245.599587 52.902254 
L 247.905372 52.192394 
L 250.211157 50.772676 
L 252.516942 51.127606 
L 254.822727 47.933239 
L 257.128512 48.288169 
L 259.434298 46.868451 
L 261.740083 45.448732 
L 264.045868 43.674085 
L 266.351653 44.383944 
L 268.657438 41.899437 
L 270.963223 42.609296 
L 273.269008 40.834648 
L 275.574793 40.479718 
L 277.880579 39.06 
L 280.186364 39.06 
" style="fill:none;stroke:#ff7f0e;stroke-linecap:square;stroke-width:1.5;"/>
   </g>
   <g id="patch_3">
    <path d="M 40.5 224.28 
L 40.5 30.24 
" style="fill:none;stroke:#000000;stroke-linecap:square;stroke-linejoin:miter;stroke-width:0.8;"/>
   </g>
   <g id="patch_4">
    <path d="M 291.6 224.28 
L 291.6 30.24 
" style="fill:none;stroke:#000000;stroke-linecap:square;stroke-linejoin:miter;stroke-width:0.8;"/>
   </g>
   <g id="patch_5">
    <path d="M 40.5 224.28 
L 291.6 224.28 
" style="fill:none;stroke:#000000;stroke-linecap:square;stroke-linejoin:miter;stroke-width:0.8;"/>
   </g>
   <g id="patch_6">
    <path d="M 40.5 30.24 
L 291.6 30.24 
" style="fill:none;stroke:#000000;stroke-linecap:square;stroke-linejoin:miter;stroke-width:0.8;"/>
   </g>
   <g id="text_15">
    <text style="font-family:DejaVu Sans;font-size:12px;font-style:normal;font-weight:normal;text-anchor:middle;" transform="rotate(-0, 166.05, 24.24)" x="166.05" y="24.24">Expected Value in sqrt(x) Algorithm</text>
   </g>
   <g id="legend_1">
    <g id="patch_7">
     <path d="M 47.5 67.59625 
L 209.764062 67.59625 
Q 211.764062 67.59625 211.764062 65.59625 
L 211.764062 37.24 
Q 211.764062 35.24 209.764062 35.24 
L 47.5 35.24 
Q 45.5 35.24 45.5 37.24 
L 45.5 65.59625 
Q 45.5 67.59625 47.5 67.59625 
z
" style="fill:#ffffff;opacity:0.8;stroke:#cccccc;stroke-linejoin:miter;"/>
    </g>
    <g id="line2d_15">
     <path d="M 49.5 43.338438 
L 69.5 43.338438 
" style="fill:none;stroke:#1f77b4;stroke-linecap:square;stroke-width:1.5;"/>
    </g>
    <g id="line2d_16"/>
    <g id="text_16">
     <text style="font-family:DejaVu Sans;font-size:10px;font-style:normal;font-weight:normal;text-anchor:start;" transform="rotate(-0, 77.5, 46.838438)" x="77.5" y="46.838438">sqrt(x)</text>
    </g>
    <g id="line2d_17">
     <path d="M 49.5 58.016563 
L 69.5 58.016563 
" style="fill:none;stroke:#ff7f0e;stroke-linecap:square;stroke-width:1.5;"/>
    </g>
    <g id="line2d_18"/>
    <g id="text_17">
     <text style="font-family:DejaVu Sans;font-size:10px;font-style:normal;font-weight:normal;text-anchor:start;" transform="rotate(-0, 77.5, 61.516563)" x="77.5" y="61.516563">Simulated Mean of sqrt(x)</text>
    </g>
   </g>
  </g>
 </g>
 <defs>
  <clipPath id="p0d6681eebe">
   <rect height="194.04" width="251.1" x="40.5" y="30.24"/>
  </clipPath>
 </defs>
</svg>
