<?xml version="1.0" encoding="utf-8" standalone="no"?>
<!DOCTYPE svg PUBLIC "-//W3C//DTD SVG 1.1//EN"
  "http://www.w3.org/Graphics/SVG/1.1/DTD/svg11.dtd">
<!-- Created with matplotlib (https://matplotlib.org/) -->
<svg height="345.6pt" version="1.1" viewBox="0 0 460.8 345.6" width="460.8pt" xmlns="http://www.w3.org/2000/svg" xmlns:xlink="http://www.w3.org/1999/xlink">
 <defs>
  <style type="text/css">
*{stroke-linecap:butt;stroke-linejoin:round;}
  </style>
 </defs>
 <g id="figure_1">
  <g id="patch_1">
   <path d="M 0 345.6 
L 460.8 345.6 
L 460.8 0 
L 0 0 
z
" style="fill:#ffffff;"/>
  </g>
  <g id="axes_1">
   <g id="patch_2">
    <path d="M 57.6 307.584 
L 414.72 307.584 
L 414.72 41.472 
L 57.6 41.472 
z
" style="fill:#ffffff;"/>
   </g>
   <g id="matplotlib.axis_1">
    <g id="xtick_1">
     <g id="line2d_1">
      <defs>
       <path d="M 0 0 
L 0 3.5 
" id="m9d53513824" style="stroke:#000000;stroke-width:0.8;"/>
      </defs>
      <g>
       <use style="stroke:#000000;stroke-width:0.8;" x="73.800255" xlink:href="#m9d53513824" y="307.584"/>
      </g>
     </g>
     <g id="text_1">
      <text style="font-family:DejaVu Sans;font-size:10px;font-style:normal;font-weight:normal;text-anchor:middle;" transform="rotate(-0, 73.800255, 322.182437)" x="73.800255" y="322.182437">0.0</text>
     </g>
    </g>
    <g id="xtick_2">
     <g id="line2d_2">
      <g>
       <use style="stroke:#000000;stroke-width:0.8;" x="138.744153" xlink:href="#m9d53513824" y="307.584"/>
      </g>
     </g>
     <g id="text_2">
      <text style="font-family:DejaVu Sans;font-size:10px;font-style:normal;font-weight:normal;text-anchor:middle;" transform="rotate(-0, 138.744153, 322.182437)" x="138.744153" y="322.182437">0.2</text>
     </g>
    </g>
    <g id="xtick_3">
     <g id="line2d_3">
      <g>
       <use style="stroke:#000000;stroke-width:0.8;" x="203.688051" xlink:href="#m9d53513824" y="307.584"/>
      </g>
     </g>
     <g id="text_3">
      <text style="font-family:DejaVu Sans;font-size:10px;font-style:normal;font-weight:normal;text-anchor:middle;" transform="rotate(-0, 203.688051, 322.182437)" x="203.688051" y="322.182437">0.4</text>
     </g>
    </g>
    <g id="xtick_4">
     <g id="line2d_4">
      <g>
       <use style="stroke:#000000;stroke-width:0.8;" x="268.631949" xlink:href="#m9d53513824" y="307.584"/>
      </g>
     </g>
     <g id="text_4">
      <text style="font-family:DejaVu Sans;font-size:10px;font-style:normal;font-weight:normal;text-anchor:middle;" transform="rotate(-0, 268.631949, 322.182437)" x="268.631949" y="322.182437">0.6</text>
     </g>
    </g>
    <g id="xtick_5">
     <g id="line2d_5">
      <g>
       <use style="stroke:#000000;stroke-width:0.8;" x="333.575847" xlink:href="#m9d53513824" y="307.584"/>
      </g>
     </g>
     <g id="text_5">
      <text style="font-family:DejaVu Sans;font-size:10px;font-style:normal;font-weight:normal;text-anchor:middle;" transform="rotate(-0, 333.575847, 322.182437)" x="333.575847" y="322.182437">0.8</text>
     </g>
    </g>
    <g id="xtick_6">
     <g id="line2d_6">
      <g>
       <use style="stroke:#000000;stroke-width:0.8;" x="398.519745" xlink:href="#m9d53513824" y="307.584"/>
      </g>
     </g>
     <g id="text_6">
      <text style="font-family:DejaVu Sans;font-size:10px;font-style:normal;font-weight:normal;text-anchor:middle;" transform="rotate(-0, 398.519745, 322.182437)" x="398.519745" y="322.182437">1.0</text>
     </g>
    </g>
    <g id="text_7">
     <text style="font-family:DejaVu Sans;font-size:10px;font-style:normal;font-weight:normal;text-anchor:middle;" transform="rotate(-0, 236.16, 335.860562)" x="236.16" y="335.860562">Input Coin's Heads Probability (λ)</text>
    </g>
   </g>
   <g id="matplotlib.axis_2">
    <g id="ytick_1">
     <g id="line2d_7">
      <defs>
       <path d="M 0 0 
L -3.5 0 
" id="mcf59d09744" style="stroke:#000000;stroke-width:0.8;"/>
      </defs>
      <g>
       <use style="stroke:#000000;stroke-width:0.8;" x="57.6" xlink:href="#mcf59d09744" y="297.931636"/>
      </g>
     </g>
     <g id="text_8">
      <text style="font-family:DejaVu Sans;font-size:10px;font-style:normal;font-weight:normal;text-anchor:end;" transform="rotate(-0, 50.6, 301.730855)" x="50.6" y="301.730855">0.0</text>
     </g>
    </g>
    <g id="ytick_2">
     <g id="line2d_8">
      <g>
       <use style="stroke:#000000;stroke-width:0.8;" x="57.6" xlink:href="#mcf59d09744" y="249.058909"/>
      </g>
     </g>
     <g id="text_9">
      <text style="font-family:DejaVu Sans;font-size:10px;font-style:normal;font-weight:normal;text-anchor:end;" transform="rotate(-0, 50.6, 252.858128)" x="50.6" y="252.858128">0.2</text>
     </g>
    </g>
    <g id="ytick_3">
     <g id="line2d_9">
      <g>
       <use style="stroke:#000000;stroke-width:0.8;" x="57.6" xlink:href="#mcf59d09744" y="200.186182"/>
      </g>
     </g>
     <g id="text_10">
      <text style="font-family:DejaVu Sans;font-size:10px;font-style:normal;font-weight:normal;text-anchor:end;" transform="rotate(-0, 50.6, 203.985401)" x="50.6" y="203.985401">0.4</text>
     </g>
    </g>
    <g id="ytick_4">
     <g id="line2d_10">
      <g>
       <use style="stroke:#000000;stroke-width:0.8;" x="57.6" xlink:href="#mcf59d09744" y="151.313455"/>
      </g>
     </g>
     <g id="text_11">
      <text style="font-family:DejaVu Sans;font-size:10px;font-style:normal;font-weight:normal;text-anchor:end;" transform="rotate(-0, 50.6, 155.112673)" x="50.6" y="155.112673">0.6</text>
     </g>
    </g>
    <g id="ytick_5">
     <g id="line2d_11">
      <g>
       <use style="stroke:#000000;stroke-width:0.8;" x="57.6" xlink:href="#mcf59d09744" y="102.440727"/>
      </g>
     </g>
     <g id="text_12">
      <text style="font-family:DejaVu Sans;font-size:10px;font-style:normal;font-weight:normal;text-anchor:end;" transform="rotate(-0, 50.6, 106.239946)" x="50.6" y="106.239946">0.8</text>
     </g>
    </g>
    <g id="ytick_6">
     <g id="line2d_12">
      <g>
       <use style="stroke:#000000;stroke-width:0.8;" x="57.6" xlink:href="#mcf59d09744" y="53.568"/>
      </g>
     </g>
     <g id="text_13">
      <text style="font-family:DejaVu Sans;font-size:10px;font-style:normal;font-weight:normal;text-anchor:end;" transform="rotate(-0, 50.6, 57.367219)" x="50.6" y="57.367219">1.0</text>
     </g>
    </g>
    <g id="text_14">
     <text style="font-family:DejaVu Sans;font-size:10px;font-style:normal;font-weight:normal;text-anchor:middle;" transform="rotate(-90, 28.617187, 174.528)" x="28.617187" y="174.528">Simulated Mean / Function Value</text>
    </g>
   </g>
   <g id="line2d_13">
    <path clip-path="url(#p004f90ff8e)" d="M 73.832727 295.488 
L 77.112066 273.253341 
L 80.391405 263.11691 
L 83.670744 255.327504 
L 86.950083 248.756856 
L 90.229421 242.966139 
L 93.50876 237.729869 
L 96.788099 232.913949 
L 100.067438 228.430941 
L 103.346777 224.22008 
L 106.626116 220.237103 
L 109.905455 216.448587 
L 113.184793 212.828556 
L 116.464132 209.356351 
L 119.743471 206.015217 
L 123.02281 202.791345 
L 126.302149 199.673192 
L 129.581488 196.650992 
L 132.860826 193.716399 
L 136.140165 190.862207 
L 139.419504 188.08215 
L 142.698843 185.370735 
L 145.978182 182.723115 
L 149.257521 180.134988 
L 152.53686 177.602516 
L 155.816198 175.122255 
L 159.095537 172.691104 
L 162.374876 170.306255 
L 165.654215 167.965161 
L 168.933554 165.665497 
L 172.212893 163.405138 
L 175.492231 161.182137 
L 178.77157 158.994699 
L 182.050909 156.841171 
L 185.330248 154.720023 
L 188.609587 152.629836 
L 191.888926 150.569293 
L 195.168264 148.537169 
L 198.447603 146.532317 
L 201.726942 144.553669 
L 205.006281 142.600224 
L 208.28562 140.671042 
L 211.564959 138.765241 
L 214.844298 136.88199 
L 218.123636 135.020509 
L 221.402975 133.180059 
L 224.682314 131.359942 
L 227.961653 129.559501 
L 231.240992 127.778109 
L 234.520331 126.015174 
L 237.799669 124.270136 
L 241.079008 122.542458 
L 244.358347 120.831634 
L 247.637686 119.13718 
L 250.917025 117.458634 
L 254.196364 115.795557 
L 257.475702 114.147529 
L 260.755041 112.514147 
L 264.03438 110.89503 
L 267.313719 109.289809 
L 270.593058 107.698133 
L 273.872397 106.119664 
L 277.151736 104.554079 
L 280.431074 103.001068 
L 283.710413 101.460332 
L 286.989752 99.931585 
L 290.269091 98.414551 
L 293.54843 96.908965 
L 296.827769 95.414572 
L 300.107107 93.931126 
L 303.386446 92.45839 
L 306.665785 90.996134 
L 309.945124 89.544139 
L 313.224463 88.102192 
L 316.503802 86.670086 
L 319.78314 85.247623 
L 323.062479 83.83461 
L 326.341818 82.430863 
L 329.621157 81.0362 
L 332.900496 79.650448 
L 336.179835 78.273438 
L 339.459174 76.905007 
L 342.738512 75.544996 
L 346.017851 74.193251 
L 349.29719 72.849625 
L 352.576529 71.513972 
L 355.855868 70.186152 
L 359.135207 68.866029 
L 362.414545 67.55347 
L 365.693884 66.248348 
L 368.973223 64.950536 
L 372.252562 63.659913 
L 375.531901 62.376362 
L 378.81124 61.099768 
L 382.090579 59.830018 
L 385.369917 58.567003 
L 388.649256 57.310618 
L 391.928595 56.060758 
L 395.207934 54.817325 
L 398.487273 53.580218 
" style="fill:none;stroke:#1f77b4;stroke-linecap:square;stroke-width:1.5;"/>
   </g>
   <g id="line2d_14">
    <path clip-path="url(#p004f90ff8e)" d="M 73.832727 293.044364 
L 77.112066 271.540364 
L 80.391405 261.765818 
L 83.670744 259.322182 
L 86.950083 253.457455 
L 90.229421 234.885818 
L 93.50876 231.953455 
L 96.788099 235.863273 
L 100.067438 235.374545 
L 103.346777 214.848 
L 106.626116 217.780364 
L 109.905455 217.780364 
L 113.184793 214.359273 
L 116.464132 207.517091 
L 119.743471 204.096 
L 123.02281 212.404364 
L 126.302149 203.118545 
L 129.581488 190.411636 
L 132.860826 183.080727 
L 136.140165 200.186182 
L 139.419504 187.968 
L 142.698843 189.434182 
L 145.978182 183.080727 
L 149.257521 182.103273 
L 152.53686 182.103273 
L 155.816198 179.659636 
L 159.095537 168.907636 
L 162.374876 163.531636 
L 165.654215 170.862545 
L 168.933554 170.373818 
L 172.212893 163.042909 
L 175.492231 160.110545 
L 178.77157 147.403636 
L 182.050909 155.712 
L 185.330248 147.403636 
L 188.609587 157.178182 
L 191.888926 149.847273 
L 195.168264 146.426182 
L 198.447603 143.982545 
L 201.726942 150.336 
L 205.006281 146.914909 
L 208.28562 141.538909 
L 211.564959 138.606545 
L 214.844298 136.651636 
L 218.123636 135.185455 
L 221.402975 133.230545 
L 224.682314 126.388364 
L 227.961653 133.719273 
L 231.240992 131.764364 
L 234.520331 127.365818 
L 237.799669 121.012364 
L 241.079008 128.343273 
L 244.358347 119.057455 
L 247.637686 125.899636 
L 250.917025 116.125091 
L 254.196364 117.591273 
L 257.475702 107.328 
L 260.755041 116.125091 
L 264.03438 116.125091 
L 267.313719 114.170182 
L 270.593058 113.192727 
L 273.872397 101.463273 
L 277.151736 105.861818 
L 280.431074 106.350545 
L 283.710413 100.974545 
L 286.989752 96.087273 
L 290.269091 101.952 
L 293.54843 94.621091 
L 296.827769 96.087273 
L 300.107107 96.087273 
L 303.386446 92.177455 
L 306.665785 89.733818 
L 309.945124 100.485818 
L 313.224463 88.756364 
L 316.503802 85.335273 
L 319.78314 83.869091 
L 323.062479 86.312727 
L 326.341818 80.936727 
L 329.621157 84.846545 
L 332.900496 78.004364 
L 336.179835 81.425455 
L 339.459174 78.493091 
L 342.738512 74.094545 
L 346.017851 79.470545 
L 349.29719 78.493091 
L 352.576529 69.207273 
L 355.855868 71.650909 
L 359.135207 68.718545 
L 362.414545 67.741091 
L 365.693884 71.162182 
L 368.973223 64.808727 
L 372.252562 63.831273 
L 375.531901 62.365091 
L 378.81124 60.410182 
L 382.090579 60.410182 
L 385.369917 58.944 
L 388.649256 57.966545 
L 391.928595 56.011636 
L 395.207934 54.056727 
L 398.487273 53.568 
" style="fill:none;stroke:#ff7f0e;stroke-linecap:square;stroke-width:1.5;"/>
   </g>
   <g id="patch_3">
    <path d="M 57.6 307.584 
L 57.6 41.472 
" style="fill:none;stroke:#000000;stroke-linecap:square;stroke-linejoin:miter;stroke-width:0.8;"/>
   </g>
   <g id="patch_4">
    <path d="M 414.72 307.584 
L 414.72 41.472 
" style="fill:none;stroke:#000000;stroke-linecap:square;stroke-linejoin:miter;stroke-width:0.8;"/>
   </g>
   <g id="patch_5">
    <path d="M 57.6 307.584 
L 414.72 307.584 
" style="fill:none;stroke:#000000;stroke-linecap:square;stroke-linejoin:miter;stroke-width:0.8;"/>
   </g>
   <g id="patch_6">
    <path d="M 57.6 41.472 
L 414.72 41.472 
" style="fill:none;stroke:#000000;stroke-linecap:square;stroke-linejoin:miter;stroke-width:0.8;"/>
   </g>
   <g id="text_15">
    <text style="font-family:DejaVu Sans;font-size:12px;font-style:normal;font-weight:normal;" transform="translate(124.244062 22.034625)">Simulated Mean for sqrt(x) Algorithm</text>
    <text style="font-family:DejaVu Sans;font-size:12px;font-style:normal;font-weight:normal;" transform="translate(132.609375 35.472)">(Wasserstein Distances in Legend)</text>
   </g>
   <g id="legend_1">
    <g id="patch_7">
     <path d="M 64.6 78.82825 
L 242.85 78.82825 
Q 244.85 78.82825 244.85 76.82825 
L 244.85 48.472 
Q 244.85 46.472 242.85 46.472 
L 64.6 46.472 
Q 62.6 46.472 62.6 48.472 
L 62.6 76.82825 
Q 62.6 78.82825 64.6 78.82825 
z
" style="fill:#ffffff;opacity:0.8;stroke:#cccccc;stroke-linejoin:miter;"/>
    </g>
    <g id="line2d_15">
     <path d="M 66.6 54.570437 
L 86.6 54.570437 
" style="fill:none;stroke:#1f77b4;stroke-linecap:square;stroke-width:1.5;"/>
    </g>
    <g id="line2d_16"/>
    <g id="text_16">
     <text style="font-family:DejaVu Sans;font-size:10px;font-style:normal;font-weight:normal;text-anchor:start;" transform="rotate(-0, 94.6, 58.070437)" x="94.6" y="58.070437">sqrt(x)</text>
    </g>
    <g id="line2d_17">
     <path d="M 66.6 69.248562 
L 86.6 69.248562 
" style="fill:none;stroke:#ff7f0e;stroke-linecap:square;stroke-width:1.5;"/>
    </g>
    <g id="line2d_18"/>
    <g id="text_17">
     <text style="font-family:DejaVu Sans;font-size:10px;font-style:normal;font-weight:normal;text-anchor:start;" transform="rotate(-0, 94.6, 72.748562)" x="94.6" y="72.748562">Simul. Mean (WD=0.006577)</text>
    </g>
   </g>
  </g>
 </g>
 <defs>
  <clipPath id="p004f90ff8e">
   <rect height="266.112" width="357.12" x="57.6" y="41.472"/>
  </clipPath>
 </defs>
</svg>
