<?xml version="1.0" encoding="utf-8" standalone="no"?>
<!DOCTYPE svg PUBLIC "-//W3C//DTD SVG 1.1//EN"
  "http://www.w3.org/Graphics/SVG/1.1/DTD/svg11.dtd">
<!-- Created with matplotlib (https://matplotlib.org/) -->
<svg height="345.6pt" version="1.1" viewBox="0 0 460.8 345.6" width="460.8pt" xmlns="http://www.w3.org/2000/svg" xmlns:xlink="http://www.w3.org/1999/xlink">
 <defs>
  <style type="text/css">
*{stroke-linecap:butt;stroke-linejoin:round;}
  </style>
 </defs>
 <g id="figure_1">
  <g id="patch_1">
   <path d="M 0 345.6 
L 460.8 345.6 
L 460.8 0 
L 0 0 
z
" style="fill:#ffffff;"/>
  </g>
  <g id="axes_1">
   <g id="patch_2">
    <path d="M 57.6 307.584 
L 414.72 307.584 
L 414.72 41.472 
L 57.6 41.472 
z
" style="fill:#ffffff;"/>
   </g>
   <g id="matplotlib.axis_1">
    <g id="xtick_1">
     <g id="line2d_1">
      <defs>
       <path d="M 0 0 
L 0 3.5 
" id="mcfad820d78" style="stroke:#000000;stroke-width:0.8;"/>
      </defs>
      <g>
       <use style="stroke:#000000;stroke-width:0.8;" x="73.800255" xlink:href="#mcfad820d78" y="307.584"/>
      </g>
     </g>
     <g id="text_1">
      <text style="font-family:DejaVu Sans;font-size:10px;font-style:normal;font-weight:normal;text-anchor:middle;" transform="rotate(-0, 73.800255, 322.182437)" x="73.800255" y="322.182437">0.0</text>
     </g>
    </g>
    <g id="xtick_2">
     <g id="line2d_2">
      <g>
       <use style="stroke:#000000;stroke-width:0.8;" x="138.744153" xlink:href="#mcfad820d78" y="307.584"/>
      </g>
     </g>
     <g id="text_2">
      <text style="font-family:DejaVu Sans;font-size:10px;font-style:normal;font-weight:normal;text-anchor:middle;" transform="rotate(-0, 138.744153, 322.182437)" x="138.744153" y="322.182437">0.2</text>
     </g>
    </g>
    <g id="xtick_3">
     <g id="line2d_3">
      <g>
       <use style="stroke:#000000;stroke-width:0.8;" x="203.688051" xlink:href="#mcfad820d78" y="307.584"/>
      </g>
     </g>
     <g id="text_3">
      <text style="font-family:DejaVu Sans;font-size:10px;font-style:normal;font-weight:normal;text-anchor:middle;" transform="rotate(-0, 203.688051, 322.182437)" x="203.688051" y="322.182437">0.4</text>
     </g>
    </g>
    <g id="xtick_4">
     <g id="line2d_4">
      <g>
       <use style="stroke:#000000;stroke-width:0.8;" x="268.631949" xlink:href="#mcfad820d78" y="307.584"/>
      </g>
     </g>
     <g id="text_4">
      <text style="font-family:DejaVu Sans;font-size:10px;font-style:normal;font-weight:normal;text-anchor:middle;" transform="rotate(-0, 268.631949, 322.182437)" x="268.631949" y="322.182437">0.6</text>
     </g>
    </g>
    <g id="xtick_5">
     <g id="line2d_5">
      <g>
       <use style="stroke:#000000;stroke-width:0.8;" x="333.575847" xlink:href="#mcfad820d78" y="307.584"/>
      </g>
     </g>
     <g id="text_5">
      <text style="font-family:DejaVu Sans;font-size:10px;font-style:normal;font-weight:normal;text-anchor:middle;" transform="rotate(-0, 333.575847, 322.182437)" x="333.575847" y="322.182437">0.8</text>
     </g>
    </g>
    <g id="xtick_6">
     <g id="line2d_6">
      <g>
       <use style="stroke:#000000;stroke-width:0.8;" x="398.519745" xlink:href="#mcfad820d78" y="307.584"/>
      </g>
     </g>
     <g id="text_6">
      <text style="font-family:DejaVu Sans;font-size:10px;font-style:normal;font-weight:normal;text-anchor:middle;" transform="rotate(-0, 398.519745, 322.182437)" x="398.519745" y="322.182437">1.0</text>
     </g>
    </g>
    <g id="text_7">
     <text style="font-family:DejaVu Sans;font-size:10px;font-style:normal;font-weight:normal;text-anchor:middle;" transform="rotate(-0, 236.16, 335.860562)" x="236.16" y="335.860562">Input Coin's Heads Probability (λ)</text>
    </g>
   </g>
   <g id="matplotlib.axis_2">
    <g id="ytick_1">
     <g id="line2d_7">
      <defs>
       <path d="M 0 0 
L -3.5 0 
" id="m4a3f24035e" style="stroke:#000000;stroke-width:0.8;"/>
      </defs>
      <g>
       <use style="stroke:#000000;stroke-width:0.8;" x="57.6" xlink:href="#m4a3f24035e" y="296.948282"/>
      </g>
     </g>
     <g id="text_8">
      <text style="font-family:DejaVu Sans;font-size:10px;font-style:normal;font-weight:normal;text-anchor:end;" transform="rotate(-0, 50.6, 300.7475)" x="50.6" y="300.7475">0.0</text>
     </g>
    </g>
    <g id="ytick_2">
     <g id="line2d_8">
      <g>
       <use style="stroke:#000000;stroke-width:0.8;" x="57.6" xlink:href="#m4a3f24035e" y="248.272225"/>
      </g>
     </g>
     <g id="text_9">
      <text style="font-family:DejaVu Sans;font-size:10px;font-style:normal;font-weight:normal;text-anchor:end;" transform="rotate(-0, 50.6, 252.071444)" x="50.6" y="252.071444">0.2</text>
     </g>
    </g>
    <g id="ytick_3">
     <g id="line2d_9">
      <g>
       <use style="stroke:#000000;stroke-width:0.8;" x="57.6" xlink:href="#m4a3f24035e" y="199.596169"/>
      </g>
     </g>
     <g id="text_10">
      <text style="font-family:DejaVu Sans;font-size:10px;font-style:normal;font-weight:normal;text-anchor:end;" transform="rotate(-0, 50.6, 203.395388)" x="50.6" y="203.395388">0.4</text>
     </g>
    </g>
    <g id="ytick_4">
     <g id="line2d_10">
      <g>
       <use style="stroke:#000000;stroke-width:0.8;" x="57.6" xlink:href="#m4a3f24035e" y="150.920113"/>
      </g>
     </g>
     <g id="text_11">
      <text style="font-family:DejaVu Sans;font-size:10px;font-style:normal;font-weight:normal;text-anchor:end;" transform="rotate(-0, 50.6, 154.719331)" x="50.6" y="154.719331">0.6</text>
     </g>
    </g>
    <g id="ytick_5">
     <g id="line2d_11">
      <g>
       <use style="stroke:#000000;stroke-width:0.8;" x="57.6" xlink:href="#m4a3f24035e" y="102.244056"/>
      </g>
     </g>
     <g id="text_12">
      <text style="font-family:DejaVu Sans;font-size:10px;font-style:normal;font-weight:normal;text-anchor:end;" transform="rotate(-0, 50.6, 106.043275)" x="50.6" y="106.043275">0.8</text>
     </g>
    </g>
    <g id="ytick_6">
     <g id="line2d_12">
      <g>
       <use style="stroke:#000000;stroke-width:0.8;" x="57.6" xlink:href="#m4a3f24035e" y="53.568"/>
      </g>
     </g>
     <g id="text_13">
      <text style="font-family:DejaVu Sans;font-size:10px;font-style:normal;font-weight:normal;text-anchor:end;" transform="rotate(-0, 50.6, 57.367219)" x="50.6" y="57.367219">1.0</text>
     </g>
    </g>
    <g id="text_14">
     <text style="font-family:DejaVu Sans;font-size:10px;font-style:normal;font-weight:normal;text-anchor:middle;" transform="rotate(-90, 28.617187, 174.528)" x="28.617187" y="174.528">Simulated Mean / Function Value</text>
    </g>
   </g>
   <g id="line2d_13">
    <path clip-path="url(#pc9cef76860)" d="M 73.832727 294.514479 
L 77.112066 272.369295 
L 80.391405 262.273655 
L 83.670744 254.515595 
L 86.950083 247.971388 
L 90.229421 242.203973 
L 93.50876 236.988775 
L 96.788099 232.192234 
L 100.067438 227.727267 
L 103.346777 223.533351 
L 106.626116 219.566403 
L 109.905455 215.793132 
L 113.184793 212.187669 
L 116.464132 208.729436 
L 119.743471 205.401748 
L 123.02281 202.190849 
L 126.302149 199.085243 
L 129.581488 196.075206 
L 132.860826 193.152421 
L 136.140165 190.309716 
L 139.419504 187.540846 
L 142.698843 184.840342 
L 145.978182 182.203376 
L 149.257521 179.625664 
L 152.53686 177.103383 
L 155.816198 174.633103 
L 159.095537 172.211735 
L 162.374876 169.836484 
L 165.654215 167.50481 
L 168.933554 165.2144 
L 172.212893 162.963138 
L 175.492231 160.749082 
L 178.77157 158.570447 
L 182.050909 156.425585 
L 185.330248 154.312972 
L 188.609587 152.231197 
L 191.888926 150.178946 
L 195.168264 148.154999 
L 198.447603 146.158215 
L 201.726942 144.18753 
L 205.006281 142.241945 
L 208.28562 140.320526 
L 211.564959 138.422394 
L 214.844298 136.546723 
L 218.123636 134.692732 
L 221.402975 132.859688 
L 224.682314 131.046896 
L 227.961653 129.2537 
L 231.240992 127.479476 
L 234.520331 125.723636 
L 237.799669 123.98562 
L 241.079008 122.264895 
L 244.358347 120.560956 
L 247.637686 118.87332 
L 250.917025 117.201529 
L 254.196364 115.545144 
L 257.475702 113.903748 
L 260.755041 112.27694 
L 264.03438 110.664338 
L 267.313719 109.065576 
L 270.593058 107.480305 
L 273.872397 105.908188 
L 277.151736 104.348903 
L 280.431074 102.802142 
L 283.710413 101.267606 
L 286.989752 99.745011 
L 290.269091 98.234082 
L 293.54843 96.734555 
L 296.827769 95.246176 
L 300.107107 93.768699 
L 303.386446 92.301889 
L 306.665785 90.845518 
L 309.945124 89.399366 
L 313.224463 87.963221 
L 316.503802 86.536878 
L 319.78314 85.12014 
L 323.062479 83.712813 
L 326.341818 82.314714 
L 329.621157 80.925664 
L 332.900496 79.545488 
L 336.179835 78.17402 
L 339.459174 76.811095 
L 342.738512 75.456557 
L 346.017851 74.110252 
L 349.29719 72.772033 
L 352.576529 71.441755 
L 355.855868 70.119278 
L 359.135207 68.804467 
L 362.414545 67.497191 
L 365.693884 66.19732 
L 368.973223 64.904731 
L 372.252562 63.619302 
L 375.531901 62.340916 
L 378.81124 61.069459 
L 382.090579 59.804818 
L 385.369917 58.546886 
L 388.649256 57.295557 
L 391.928595 56.050727 
L 395.207934 54.812297 
L 398.487273 53.580169 
" style="fill:none;stroke:#1f77b4;stroke-linecap:square;stroke-width:1.5;"/>
   </g>
   <g id="line2d_14">
    <path clip-path="url(#pc9cef76860)" d="M 73.832727 295.488 
L 77.112066 275.044056 
L 80.391405 261.901521 
L 83.670744 254.600113 
L 86.950083 247.785465 
L 90.229421 243.40462 
L 93.50876 238.537014 
L 96.788099 238.537014 
L 100.067438 225.881239 
L 103.346777 215.172507 
L 106.626116 219.553352 
L 109.905455 217.119549 
L 113.184793 216.146028 
L 116.464132 194.728563 
L 119.743471 206.897577 
L 123.02281 192.781521 
L 126.302149 200.56969 
L 129.581488 189.374197 
L 132.860826 196.675606 
L 136.140165 182.072789 
L 139.419504 187.913915 
L 142.698843 190.347718 
L 145.978182 187.913915 
L 149.257521 181.099268 
L 152.53686 182.072789 
L 155.816198 165.036169 
L 159.095537 178.665465 
L 162.374876 171.850817 
L 165.654215 166.496451 
L 168.933554 157.248 
L 172.212893 172.337577 
L 175.492231 155.300958 
L 178.77157 158.221521 
L 182.050909 150.920113 
L 185.330248 168.443493 
L 188.609587 157.248 
L 191.888926 146.539268 
L 195.168264 152.380394 
L 198.447603 143.618704 
L 201.726942 139.72462 
L 205.006281 152.380394 
L 208.28562 137.290817 
L 211.564959 139.72462 
L 214.844298 130.96293 
L 218.123636 136.317296 
L 221.402975 132.909972 
L 224.682314 122.201239 
L 227.961653 131.44969 
L 231.240992 121.227718 
L 234.520331 131.936451 
L 237.799669 125.608563 
L 241.079008 121.227718 
L 244.358347 114.41307 
L 247.637686 116.846873 
L 250.917025 115.873352 
L 254.196364 109.545465 
L 257.475702 111.492507 
L 260.755041 107.598423 
L 264.03438 114.899831 
L 267.313719 111.979268 
L 270.593058 102.244056 
L 273.872397 110.518986 
L 277.151736 98.836732 
L 280.431074 102.730817 
L 283.710413 98.836732 
L 286.989752 101.270535 
L 290.269091 103.217577 
L 293.54843 95.916169 
L 296.827769 87.154479 
L 300.107107 91.048563 
L 303.386446 92.508845 
L 306.665785 81.313352 
L 309.945124 83.747155 
L 313.224463 87.154479 
L 316.503802 86.667718 
L 319.78314 82.773634 
L 323.062479 88.614761 
L 326.341818 88.614761 
L 329.621157 76.445746 
L 332.900496 77.906028 
L 336.179835 74.985465 
L 339.459174 71.09138 
L 342.738512 78.879549 
L 346.017851 81.800113 
L 349.29719 65.737014 
L 352.576529 73.038423 
L 355.855868 71.09138 
L 359.135207 68.170817 
L 362.414545 63.303211 
L 365.693884 67.684056 
L 368.973223 60.382648 
L 372.252562 61.356169 
L 375.531901 60.382648 
L 378.81124 57.948845 
L 382.090579 62.816451 
L 385.369917 58.922366 
L 388.649256 56.001803 
L 391.928595 57.948845 
L 395.207934 55.515042 
L 398.487273 53.568 
" style="fill:none;stroke:#ff7f0e;stroke-linecap:square;stroke-width:1.5;"/>
   </g>
   <g id="patch_3">
    <path d="M 57.6 307.584 
L 57.6 41.472 
" style="fill:none;stroke:#000000;stroke-linecap:square;stroke-linejoin:miter;stroke-width:0.8;"/>
   </g>
   <g id="patch_4">
    <path d="M 414.72 307.584 
L 414.72 41.472 
" style="fill:none;stroke:#000000;stroke-linecap:square;stroke-linejoin:miter;stroke-width:0.8;"/>
   </g>
   <g id="patch_5">
    <path d="M 57.6 307.584 
L 414.72 307.584 
" style="fill:none;stroke:#000000;stroke-linecap:square;stroke-linejoin:miter;stroke-width:0.8;"/>
   </g>
   <g id="patch_6">
    <path d="M 57.6 41.472 
L 414.72 41.472 
" style="fill:none;stroke:#000000;stroke-linecap:square;stroke-linejoin:miter;stroke-width:0.8;"/>
   </g>
   <g id="text_15">
    <text style="font-family:DejaVu Sans;font-size:12px;font-style:normal;font-weight:normal;text-anchor:middle;" transform="rotate(-0, 236.16, 35.472)" x="236.16" y="35.472">Expected Value in sqrt(x) Algorithm</text>
   </g>
   <g id="legend_1">
    <g id="patch_7">
     <path d="M 64.6 78.82825 
L 226.864062 78.82825 
Q 228.864062 78.82825 228.864062 76.82825 
L 228.864062 48.472 
Q 228.864062 46.472 226.864062 46.472 
L 64.6 46.472 
Q 62.6 46.472 62.6 48.472 
L 62.6 76.82825 
Q 62.6 78.82825 64.6 78.82825 
z
" style="fill:#ffffff;opacity:0.8;stroke:#cccccc;stroke-linejoin:miter;"/>
    </g>
    <g id="line2d_15">
     <path d="M 66.6 54.570437 
L 86.6 54.570437 
" style="fill:none;stroke:#1f77b4;stroke-linecap:square;stroke-width:1.5;"/>
    </g>
    <g id="line2d_16"/>
    <g id="text_16">
     <text style="font-family:DejaVu Sans;font-size:10px;font-style:normal;font-weight:normal;text-anchor:start;" transform="rotate(-0, 94.6, 58.070437)" x="94.6" y="58.070437">sqrt(x)</text>
    </g>
    <g id="line2d_17">
     <path d="M 66.6 69.248562 
L 86.6 69.248562 
" style="fill:none;stroke:#ff7f0e;stroke-linecap:square;stroke-width:1.5;"/>
    </g>
    <g id="line2d_18"/>
    <g id="text_17">
     <text style="font-family:DejaVu Sans;font-size:10px;font-style:normal;font-weight:normal;text-anchor:start;" transform="rotate(-0, 94.6, 72.748562)" x="94.6" y="72.748562">Simulated Mean of sqrt(x)</text>
    </g>
   </g>
  </g>
 </g>
 <defs>
  <clipPath id="pc9cef76860">
   <rect height="266.112" width="357.12" x="57.6" y="41.472"/>
  </clipPath>
 </defs>
</svg>
