<?xml version="1.0" encoding="utf-8" standalone="no"?>
<!DOCTYPE svg PUBLIC "-//W3C//DTD SVG 1.1//EN"
  "http://www.w3.org/Graphics/SVG/1.1/DTD/svg11.dtd">
<!-- Created with matplotlib (https://matplotlib.org/) -->
<svg height="252pt" version="1.1" viewBox="0 0 324 252" width="324pt" xmlns="http://www.w3.org/2000/svg" xmlns:xlink="http://www.w3.org/1999/xlink">
 <defs>
  <style type="text/css">
*{stroke-linecap:butt;stroke-linejoin:round;}
  </style>
 </defs>
 <g id="figure_1">
  <g id="patch_1">
   <path d="M 0 252 
L 324 252 
L 324 0 
L 0 0 
z
" style="fill:#ffffff;"/>
  </g>
  <g id="axes_1">
   <g id="patch_2">
    <path d="M 40.5 224.28 
L 291.6 224.28 
L 291.6 30.24 
L 40.5 30.24 
z
" style="fill:#ffffff;"/>
   </g>
   <g id="matplotlib.axis_1">
    <g id="xtick_1">
     <g id="line2d_1">
      <defs>
       <path d="M 0 0 
L 0 3.5 
" id="mcd5dc7fdac" style="stroke:#000000;stroke-width:0.8;"/>
      </defs>
      <g>
       <use style="stroke:#000000;stroke-width:0.8;" x="51.890805" xlink:href="#mcd5dc7fdac" y="224.28"/>
      </g>
     </g>
     <g id="text_1">
      <text style="font-family:DejaVu Sans;font-size:10px;font-style:normal;font-weight:normal;text-anchor:middle;" transform="rotate(-0, 51.890805, 238.878438)" x="51.890805" y="238.878438">0.0</text>
     </g>
    </g>
    <g id="xtick_2">
     <g id="line2d_2">
      <g>
       <use style="stroke:#000000;stroke-width:0.8;" x="97.554483" xlink:href="#mcd5dc7fdac" y="224.28"/>
      </g>
     </g>
     <g id="text_2">
      <text style="font-family:DejaVu Sans;font-size:10px;font-style:normal;font-weight:normal;text-anchor:middle;" transform="rotate(-0, 97.554483, 238.878438)" x="97.554483" y="238.878438">0.2</text>
     </g>
    </g>
    <g id="xtick_3">
     <g id="line2d_3">
      <g>
       <use style="stroke:#000000;stroke-width:0.8;" x="143.218161" xlink:href="#mcd5dc7fdac" y="224.28"/>
      </g>
     </g>
     <g id="text_3">
      <text style="font-family:DejaVu Sans;font-size:10px;font-style:normal;font-weight:normal;text-anchor:middle;" transform="rotate(-0, 143.218161, 238.878438)" x="143.218161" y="238.878438">0.4</text>
     </g>
    </g>
    <g id="xtick_4">
     <g id="line2d_4">
      <g>
       <use style="stroke:#000000;stroke-width:0.8;" x="188.881839" xlink:href="#mcd5dc7fdac" y="224.28"/>
      </g>
     </g>
     <g id="text_4">
      <text style="font-family:DejaVu Sans;font-size:10px;font-style:normal;font-weight:normal;text-anchor:middle;" transform="rotate(-0, 188.881839, 238.878438)" x="188.881839" y="238.878438">0.6</text>
     </g>
    </g>
    <g id="xtick_5">
     <g id="line2d_5">
      <g>
       <use style="stroke:#000000;stroke-width:0.8;" x="234.545517" xlink:href="#mcd5dc7fdac" y="224.28"/>
      </g>
     </g>
     <g id="text_5">
      <text style="font-family:DejaVu Sans;font-size:10px;font-style:normal;font-weight:normal;text-anchor:middle;" transform="rotate(-0, 234.545517, 238.878438)" x="234.545517" y="238.878438">0.8</text>
     </g>
    </g>
    <g id="xtick_6">
     <g id="line2d_6">
      <g>
       <use style="stroke:#000000;stroke-width:0.8;" x="280.209195" xlink:href="#mcd5dc7fdac" y="224.28"/>
      </g>
     </g>
     <g id="text_6">
      <text style="font-family:DejaVu Sans;font-size:10px;font-style:normal;font-weight:normal;text-anchor:middle;" transform="rotate(-0, 280.209195, 238.878438)" x="280.209195" y="238.878438">1.0</text>
     </g>
    </g>
    <g id="text_7">
     <text style="font-family:DejaVu Sans;font-size:10px;font-style:normal;font-weight:normal;text-anchor:middle;" transform="rotate(-0, 166.05, 252.556563)" x="166.05" y="252.556563">Probability</text>
    </g>
   </g>
   <g id="matplotlib.axis_2">
    <g id="ytick_1">
     <g id="line2d_7">
      <defs>
       <path d="M 0 0 
L -3.5 0 
" id="m04644f9d7d" style="stroke:#000000;stroke-width:0.8;"/>
      </defs>
      <g>
       <use style="stroke:#000000;stroke-width:0.8;" x="40.5" xlink:href="#m04644f9d7d" y="216.089592"/>
      </g>
     </g>
     <g id="text_8">
      <text style="font-family:DejaVu Sans;font-size:10px;font-style:normal;font-weight:normal;text-anchor:end;" transform="rotate(-0, 33.5, 219.888811)" x="33.5" y="219.888811">0</text>
     </g>
    </g>
    <g id="ytick_2">
     <g id="line2d_8">
      <g>
       <use style="stroke:#000000;stroke-width:0.8;" x="40.5" xlink:href="#m04644f9d7d" y="184.032952"/>
      </g>
     </g>
     <g id="text_9">
      <text style="font-family:DejaVu Sans;font-size:10px;font-style:normal;font-weight:normal;text-anchor:end;" transform="rotate(-0, 33.5, 187.832171)" x="33.5" y="187.832171">100</text>
     </g>
    </g>
    <g id="ytick_3">
     <g id="line2d_9">
      <g>
       <use style="stroke:#000000;stroke-width:0.8;" x="40.5" xlink:href="#m04644f9d7d" y="151.976311"/>
      </g>
     </g>
     <g id="text_10">
      <text style="font-family:DejaVu Sans;font-size:10px;font-style:normal;font-weight:normal;text-anchor:end;" transform="rotate(-0, 33.5, 155.77553)" x="33.5" y="155.77553">200</text>
     </g>
    </g>
    <g id="ytick_4">
     <g id="line2d_10">
      <g>
       <use style="stroke:#000000;stroke-width:0.8;" x="40.5" xlink:href="#m04644f9d7d" y="119.91967"/>
      </g>
     </g>
     <g id="text_11">
      <text style="font-family:DejaVu Sans;font-size:10px;font-style:normal;font-weight:normal;text-anchor:end;" transform="rotate(-0, 33.5, 123.718889)" x="33.5" y="123.718889">300</text>
     </g>
    </g>
    <g id="ytick_5">
     <g id="line2d_11">
      <g>
       <use style="stroke:#000000;stroke-width:0.8;" x="40.5" xlink:href="#m04644f9d7d" y="87.86303"/>
      </g>
     </g>
     <g id="text_12">
      <text style="font-family:DejaVu Sans;font-size:10px;font-style:normal;font-weight:normal;text-anchor:end;" transform="rotate(-0, 33.5, 91.662249)" x="33.5" y="91.662249">400</text>
     </g>
    </g>
    <g id="ytick_6">
     <g id="line2d_12">
      <g>
       <use style="stroke:#000000;stroke-width:0.8;" x="40.5" xlink:href="#m04644f9d7d" y="55.806389"/>
      </g>
     </g>
     <g id="text_13">
      <text style="font-family:DejaVu Sans;font-size:10px;font-style:normal;font-weight:normal;text-anchor:end;" transform="rotate(-0, 33.5, 59.605608)" x="33.5" y="59.605608">500</text>
     </g>
    </g>
    <g id="text_14">
     <text style="font-family:DejaVu Sans;font-size:10px;font-style:normal;font-weight:normal;text-anchor:middle;" transform="rotate(-90, 8.332812, 127.26)" x="8.332812" y="127.26">Average Bits Consumed Per Call</text>
    </g>
   </g>
   <g id="line2d_13">
    <path clip-path="url(#p028758d4e1)" d="M 51.913636 39.06 
L 54.219421 205.165972 
L 56.525207 208.233792 
L 58.830992 210.265542 
L 61.136777 210.102053 
L 63.442562 211.177874 
L 65.748347 211.992754 
L 68.054132 212.284469 
L 70.359917 212.412055 
L 72.665702 212.569773 
L 74.971488 212.615294 
L 77.277273 212.973687 
L 79.583058 212.916626 
L 81.888843 213.145511 
L 84.194628 213.163462 
L 86.500413 213.330157 
L 88.806198 213.467359 
L 91.111983 213.426968 
L 93.417769 213.814212 
L 95.723554 213.698808 
L 98.029339 214.11298 
L 100.335124 213.937951 
L 102.640909 213.962955 
L 104.946694 214.161065 
L 107.252479 214.162988 
L 109.558264 214.060407 
L 111.86405 214.248259 
L 114.169835 214.36751 
L 116.47562 214.361098 
L 118.781405 214.309167 
L 121.08719 214.4297 
L 123.392975 214.452139 
L 125.69876 214.389308 
L 128.004545 214.449575 
L 130.310331 214.472655 
L 132.616116 214.600882 
L 134.921901 214.580366 
L 137.227686 214.584213 
L 139.533471 214.660507 
L 141.839256 214.598317 
L 144.145041 214.732955 
L 146.450826 214.732955 
L 148.756612 214.765653 
L 151.062397 214.771423 
L 153.368182 214.827843 
L 155.673967 214.792581 
L 157.979752 214.79771 
L 160.285537 214.856053 
L 162.591322 214.869517 
L 164.897107 214.880416 
L 167.202893 214.932348 
L 169.508678 214.984279 
L 171.814463 215.034288 
L 174.120248 215.106095 
L 176.426033 215.074679 
L 178.731818 214.981715 
L 181.037603 214.985562 
L 183.343388 215.05224 
L 185.649174 215.084937 
L 187.954959 215.088784 
L 190.260744 215.118917 
L 192.566529 215.00159 
L 194.872314 215.148409 
L 197.178099 215.070191 
L 199.483884 215.146486 
L 201.789669 215.09776 
L 204.095455 215.130458 
L 206.40124 215.111865 
L 208.707025 215.15995 
L 211.01281 215.161873 
L 213.318595 215.142639 
L 215.62438 215.210599 
L 217.930165 215.247144 
L 220.23595 215.18816 
L 222.541736 215.302922 
L 224.847521 215.299076 
L 227.153306 215.277277 
L 229.459091 215.244579 
L 231.764876 215.292023 
L 234.070661 215.325362 
L 236.376446 215.336902 
L 238.682231 215.326003 
L 240.988017 215.329209 
L 243.293802 215.293305 
L 245.599587 215.327927 
L 247.905372 215.334338 
L 250.211157 215.392681 
L 252.516942 215.381782 
L 254.822727 215.384987 
L 257.128512 215.413197 
L 259.434298 215.354213 
L 261.740083 215.409992 
L 264.045868 215.409992 
L 266.351653 215.46 
L 268.657438 215.399734 
L 270.963223 215.424097 
L 273.269008 215.435637 
L 275.574793 215.430508 
L 277.880579 215.411274 
L 280.186364 215.438843 
" style="fill:none;stroke:#1f77b4;stroke-linecap:square;stroke-width:1.5;"/>
   </g>
   <g id="patch_3">
    <path d="M 40.5 224.28 
L 40.5 30.24 
" style="fill:none;stroke:#000000;stroke-linecap:square;stroke-linejoin:miter;stroke-width:0.8;"/>
   </g>
   <g id="patch_4">
    <path d="M 291.6 224.28 
L 291.6 30.24 
" style="fill:none;stroke:#000000;stroke-linecap:square;stroke-linejoin:miter;stroke-width:0.8;"/>
   </g>
   <g id="patch_5">
    <path d="M 40.5 224.28 
L 291.6 224.28 
" style="fill:none;stroke:#000000;stroke-linecap:square;stroke-linejoin:miter;stroke-width:0.8;"/>
   </g>
   <g id="patch_6">
    <path d="M 40.5 30.24 
L 291.6 30.24 
" style="fill:none;stroke:#000000;stroke-linecap:square;stroke-linejoin:miter;stroke-width:0.8;"/>
   </g>
   <g id="text_15">
    <text style="font-family:DejaVu Sans;font-size:12px;font-style:normal;font-weight:normal;text-anchor:middle;" transform="rotate(-0, 166.05, 24.24)" x="166.05" y="24.24">Avg. Bits Consumed by sqrt(x) Algorithm</text>
   </g>
  </g>
 </g>
 <defs>
  <clipPath id="p028758d4e1">
   <rect height="194.04" width="251.1" x="40.5" y="30.24"/>
  </clipPath>
 </defs>
</svg>
