<svg height="460.8" viewBox="0 0 460.8 345.6" width="614.4" xmlns="http://www.w3.org/2000/svg" xmlns:xlink="http://www.w3.org/1999/xlink"><defs><style>*{stroke-linecap:butt;stroke-linejoin:round}</style></defs><g id="figure_1"><path d="M0 345.6h460.8V0H0z" fill="#fff" id="patch_1"/><g id="axes_1"><path d="M57.6 307.584h357.12V41.472H57.6z" fill="#fff" id="patch_2"/><g id="matplotlib.axis_1"><g id="xtick_1"><g id="line2d_1"><defs><path d="M0 0v3.5" id="m49dd7ad0d6" stroke="#000" stroke-width=".8"/></defs><use x="73.8" xlink:href="#m49dd7ad0d6" y="307.584" stroke="#000" stroke-width=".8"/></g><text x="73.8" y="322.182" font-family="DejaVu Sans" font-size="10" font-weight="400" text-anchor="middle" id="text_1">0.0</text></g><g id="xtick_2"><use x="138.744" xlink:href="#m49dd7ad0d6" y="307.584" stroke="#000" stroke-width=".8" id="line2d_2"/><text x="138.744" y="322.182" font-family="DejaVu Sans" font-size="10" font-weight="400" text-anchor="middle" id="text_2">0.2</text></g><g id="xtick_3"><use x="203.688" xlink:href="#m49dd7ad0d6" y="307.584" stroke="#000" stroke-width=".8" id="line2d_3"/><text x="203.688" y="322.182" font-family="DejaVu Sans" font-size="10" font-weight="400" text-anchor="middle" id="text_3">0.4</text></g><g id="xtick_4"><use x="268.632" xlink:href="#m49dd7ad0d6" y="307.584" stroke="#000" stroke-width=".8" id="line2d_4"/><text x="268.632" y="322.182" font-family="DejaVu Sans" font-size="10" font-weight="400" text-anchor="middle" id="text_4">0.6</text></g><g id="xtick_5"><use x="333.576" xlink:href="#m49dd7ad0d6" y="307.584" stroke="#000" stroke-width=".8" id="line2d_5"/><text x="333.576" y="322.182" font-family="DejaVu Sans" font-size="10" font-weight="400" text-anchor="middle" id="text_5">0.8</text></g><g id="xtick_6"><use x="398.52" xlink:href="#m49dd7ad0d6" y="307.584" stroke="#000" stroke-width=".8" id="line2d_6"/><text x="398.52" y="322.182" font-family="DejaVu Sans" font-size="10" font-weight="400" text-anchor="middle" id="text_6">1.0</text></g><text x="236.16" y="335.861" font-family="DejaVu Sans" font-size="10" font-weight="400" text-anchor="middle" id="text_7">Input Coin&apos;s Heads Probability (λ)</text></g><g id="matplotlib.axis_2"><g id="ytick_1"><g id="line2d_7"><defs><path d="M0 0h-3.5" id="m6804890ba2" stroke="#000" stroke-width=".8"/></defs><use x="57.6" xlink:href="#m6804890ba2" y="295.973" stroke="#000" stroke-width=".8"/></g><text x="50.6" y="299.772" font-family="DejaVu Sans" font-size="10" font-weight="400" text-anchor="end" id="text_8">0.0</text></g><g id="ytick_2"><use x="57.6" xlink:href="#m6804890ba2" y="247.492" stroke="#000" stroke-width=".8" id="line2d_8"/><text x="50.6" y="251.291" font-family="DejaVu Sans" font-size="10" font-weight="400" text-anchor="end" id="text_9">0.2</text></g><g id="ytick_3"><use x="57.6" xlink:href="#m6804890ba2" y="199.011" stroke="#000" stroke-width=".8" id="line2d_9"/><text x="50.6" y="202.81" font-family="DejaVu Sans" font-size="10" font-weight="400" text-anchor="end" id="text_10">0.4</text></g><g id="ytick_4"><use x="57.6" xlink:href="#m6804890ba2" y="150.53" stroke="#000" stroke-width=".8" id="line2d_10"/><text x="50.6" y="154.329" font-family="DejaVu Sans" font-size="10" font-weight="400" text-anchor="end" id="text_11">0.6</text></g><g id="ytick_5"><use x="57.6" xlink:href="#m6804890ba2" y="102.049" stroke="#000" stroke-width=".8" id="line2d_11"/><text x="50.6" y="105.848" font-family="DejaVu Sans" font-size="10" font-weight="400" text-anchor="end" id="text_12">0.8</text></g><g id="ytick_6"><use x="57.6" xlink:href="#m6804890ba2" y="53.568" stroke="#000" stroke-width=".8" id="line2d_12"/><text x="50.6" y="57.367" font-family="DejaVu Sans" font-size="10" font-weight="400" text-anchor="end" id="text_13">1.0</text></g><text transform="rotate(-90 28.617 174.528)" x="28.617" y="174.528" font-family="DejaVu Sans" font-size="10" font-weight="400" text-anchor="middle" id="text_14">Simulated Mean / Function Value</text></g><path clip-path="url(#p448324963e)" d="M73.833 293.549l3.28-22.057 3.278-10.055 3.28-7.727 3.28-6.518 3.278-5.744 3.28-5.194 3.28-4.778 3.278-4.447 3.28-4.177 3.28-3.95 3.278-3.76 3.28-3.59 3.28-3.444 3.278-3.315 3.28-3.198 3.28-3.093 3.278-2.998 3.28-2.911 3.28-2.831 3.279-2.758 3.279-2.69 3.28-2.626 3.279-2.568 3.279-2.512 3.28-2.46 3.279-2.412 3.279-2.366 3.28-2.322 3.279-2.281 3.279-2.242 3.28-2.206 3.279-2.17 3.279-2.136 3.28-2.104 3.279-2.073 3.279-2.044 3.28-2.016 3.279-1.989 3.279-1.963 3.28-1.937 3.279-1.914 3.279-1.89 3.28-1.869 3.279-1.846 3.279-1.826 3.28-1.806 3.279-1.786 3.279-1.767 3.28-1.749 3.279-1.73 3.279-1.714 3.28-1.698 3.279-1.68 3.279-1.666 3.28-1.65 3.279-1.634 3.279-1.62 3.28-1.607 3.279-1.592 3.28-1.579 3.278-1.566 3.28-1.553 3.28-1.54 3.278-1.529 3.28-1.516 3.28-1.505 3.278-1.493 3.28-1.483 3.28-1.471 3.278-1.461 3.28-1.45 3.28-1.441 3.278-1.43 3.28-1.421 3.28-1.411 3.278-1.402 3.28-1.393 3.28-1.383 3.278-1.375 3.28-1.366 3.28-1.357 3.279-1.35 3.279-1.34 3.28-1.333 3.279-1.325 3.279-1.317 3.28-1.31 3.279-1.302 3.279-1.294 3.28-1.288 3.279-1.28 3.279-1.273 3.28-1.267 3.279-1.26 3.279-1.252 3.28-1.246 3.279-1.24 3.279-1.234 3.28-1.227" fill="none" stroke="#1f77b4" stroke-linecap="square" stroke-width="1.5" id="line2d_13"/><path clip-path="url(#p448324963e)" d="M73.833 295.488l3.28-26.18 3.278-3.878 3.28-15.514h3.28l3.278.97 3.28-17.938 3.28-9.212 3.278 1.455 3.28-7.273 3.28-11.15 3.278 16.483 3.28-10.665 3.28-7.273 3.278 4.364 3.28-8.727 3.28-6.787 3.278 7.757 3.28-8.727 3.28-6.787 3.279-3.394 3.279-4.848 3.28 4.363 3.279-7.272 3.279-1.454 3.28 6.787 3.279-11.15 3.279 7.272 3.28-11.151 3.279-7.272 3.279 11.15 3.28-18.907 3.279 9.211 3.279 2.91 3.28-8.727 3.279-9.697 3.279 5.818 3.28-3.878 3.279 3.878 3.279 7.272 3.28-15.514h3.279l3.279 4.848 3.28-9.696h3.279l3.279-1.454 3.28-4.848 3.279 2.424 3.279-3.879 3.28-12.605 3.279 5.818 3.279-.485 3.28 7.757 3.279-8.726 3.279-7.273 3.28 8.242 3.279-3.394 3.279-8.726 3.28-.485 3.279-3.878 3.28-3.394 3.278-5.818 3.28 9.212 3.28-6.303 3.278 3.879 3.28 4.848 3.28-15.999 3.278 9.211 3.28-.97 3.28-1.939 3.278-6.787 3.28.485 3.28-2.424 3.278-.485 3.28-7.272 3.28-2.909 3.278 5.333 3.28-1.454 3.28-5.333 3.278 4.363 3.28-3.394 3.28-2.424 3.279 5.333 3.279-8.726 3.28-.485 3.279-.485 3.279-1.454 3.28-.97 3.279-5.333 3.279 3.878 3.28-.484 3.279.484 3.279-4.848 3.28 3.879 3.279-9.212 3.279 2.91 3.28-2.91 3.279-1.454 3.279-1.454 3.28-.97" fill="none" stroke="#ff7f0e" stroke-linecap="square" stroke-width="1.5" id="line2d_14"/><path d="M57.6 307.584V41.472" fill="none" stroke="#000" stroke-linecap="square" stroke-width=".8" id="patch_3"/><path d="M414.72 307.584V41.472" fill="none" stroke="#000" stroke-linecap="square" stroke-width=".8" id="patch_4"/><path d="M57.6 307.584h357.12" fill="none" stroke="#000" stroke-linecap="square" stroke-width=".8" id="patch_5"/><path d="M57.6 41.472h357.12" fill="none" stroke="#000" stroke-linecap="square" stroke-width=".8" id="patch_6"/><text x="236.16" y="35.472" font-family="DejaVu Sans" font-size="12" font-weight="400" text-anchor="middle" id="text_15">Expected Value in sqrt(x) Algorithm</text><g id="legend_1"><path d="M64.6 78.828h162.264q2 0 2-2V48.472q0-2-2-2H64.6q-2 0-2 2v28.356q0 2 2 2z" fill="#fff" opacity=".8" stroke="#ccc" id="patch_7"/><path d="M66.6 54.57h20" fill="none" stroke="#1f77b4" stroke-linecap="square" stroke-width="1.5" id="line2d_15"/><text x="94.6" y="58.07" font-family="DejaVu Sans" font-size="10" font-weight="400" id="text_16">sqrt(x)</text><path d="M66.6 69.249h20" fill="none" stroke="#ff7f0e" stroke-linecap="square" stroke-width="1.5" id="line2d_17"/><text x="94.6" y="72.749" font-family="DejaVu Sans" font-size="10" font-weight="400" id="text_17">Simulated Mean of sqrt(x)</text></g></g></g><defs><clipPath id="p448324963e"><path d="M57.6 41.472h357.12v266.112H57.6z"/></clipPath></defs></svg>